G04 #@! TF.GenerationSoftware,KiCad,Pcbnew,(5.1.9)-1*
G04 #@! TF.CreationDate,2021-03-22T07:19:38+01:00*
G04 #@! TF.ProjectId,IM350- Multi,494d3335-302d-4204-9d75-6c74692e6b69,rev?*
G04 #@! TF.SameCoordinates,Original*
G04 #@! TF.FileFunction,Legend,Bot*
G04 #@! TF.FilePolarity,Positive*
%FSLAX46Y46*%
G04 Gerber Fmt 4.6, Leading zero omitted, Abs format (unit mm)*
G04 Created by KiCad (PCBNEW (5.1.9)-1) date 2021-03-22 07:19:38*
%MOMM*%
%LPD*%
G01*
G04 APERTURE LIST*
%ADD10C,0.300000*%
%ADD11C,0.010000*%
G04 APERTURE END LIST*
D10*
X144071428Y-53714285D02*
X145404761Y-54095238D01*
X144452380Y-54476190D01*
X145404761Y-54857142D01*
X144071428Y-55238095D01*
X144071428Y-55809523D02*
X145404761Y-56190476D01*
X144452380Y-56571428D01*
X145404761Y-56952380D01*
X144071428Y-57333333D01*
X144071428Y-57904761D02*
X145404761Y-58285714D01*
X144452380Y-58666666D01*
X145404761Y-59047619D01*
X144071428Y-59428571D01*
X145214285Y-60190476D02*
X145309523Y-60285714D01*
X145404761Y-60190476D01*
X145309523Y-60095238D01*
X145214285Y-60190476D01*
X145404761Y-60190476D01*
X145309523Y-61047619D02*
X145404761Y-61238095D01*
X145404761Y-61619047D01*
X145309523Y-61809523D01*
X145119047Y-61904761D01*
X145023809Y-61904761D01*
X144833333Y-61809523D01*
X144738095Y-61619047D01*
X144738095Y-61333333D01*
X144642857Y-61142857D01*
X144452380Y-61047619D01*
X144357142Y-61047619D01*
X144166666Y-61142857D01*
X144071428Y-61333333D01*
X144071428Y-61619047D01*
X144166666Y-61809523D01*
X145404761Y-62761904D02*
X143404761Y-62761904D01*
X145404761Y-63619047D02*
X144357142Y-63619047D01*
X144166666Y-63523809D01*
X144071428Y-63333333D01*
X144071428Y-63047619D01*
X144166666Y-62857142D01*
X144261904Y-62761904D01*
X145404761Y-64571428D02*
X144071428Y-64571428D01*
X144452380Y-64571428D02*
X144261904Y-64666666D01*
X144166666Y-64761904D01*
X144071428Y-64952380D01*
X144071428Y-65142857D01*
X145404761Y-66666666D02*
X143404761Y-66666666D01*
X145309523Y-66666666D02*
X145404761Y-66476190D01*
X145404761Y-66095238D01*
X145309523Y-65904761D01*
X145214285Y-65809523D01*
X145023809Y-65714285D01*
X144452380Y-65714285D01*
X144261904Y-65809523D01*
X144166666Y-65904761D01*
X144071428Y-66095238D01*
X144071428Y-66476190D01*
X144166666Y-66666666D01*
X144071428Y-67428571D02*
X144071428Y-68476190D01*
X145404761Y-67428571D01*
X145404761Y-68476190D01*
X145404761Y-69238095D02*
X144071428Y-69238095D01*
X144261904Y-69238095D02*
X144166666Y-69333333D01*
X144071428Y-69523809D01*
X144071428Y-69809523D01*
X144166666Y-70000000D01*
X144357142Y-70095238D01*
X145404761Y-70095238D01*
X144357142Y-70095238D02*
X144166666Y-70190476D01*
X144071428Y-70380952D01*
X144071428Y-70666666D01*
X144166666Y-70857142D01*
X144357142Y-70952380D01*
X145404761Y-70952380D01*
X145214285Y-71904761D02*
X145309523Y-72000000D01*
X145404761Y-71904761D01*
X145309523Y-71809523D01*
X145214285Y-71904761D01*
X145404761Y-71904761D01*
X145309523Y-73714285D02*
X145404761Y-73523809D01*
X145404761Y-73142857D01*
X145309523Y-72952380D01*
X145214285Y-72857142D01*
X145023809Y-72761904D01*
X144452380Y-72761904D01*
X144261904Y-72857142D01*
X144166666Y-72952380D01*
X144071428Y-73142857D01*
X144071428Y-73523809D01*
X144166666Y-73714285D01*
X145404761Y-74857142D02*
X145309523Y-74666666D01*
X145214285Y-74571428D01*
X145023809Y-74476190D01*
X144452380Y-74476190D01*
X144261904Y-74571428D01*
X144166666Y-74666666D01*
X144071428Y-74857142D01*
X144071428Y-75142857D01*
X144166666Y-75333333D01*
X144261904Y-75428571D01*
X144452380Y-75523809D01*
X145023809Y-75523809D01*
X145214285Y-75428571D01*
X145309523Y-75333333D01*
X145404761Y-75142857D01*
X145404761Y-74857142D01*
X145404761Y-76380952D02*
X144071428Y-76380952D01*
X144261904Y-76380952D02*
X144166666Y-76476190D01*
X144071428Y-76666666D01*
X144071428Y-76952380D01*
X144166666Y-77142857D01*
X144357142Y-77238095D01*
X145404761Y-77238095D01*
X144357142Y-77238095D02*
X144166666Y-77333333D01*
X144071428Y-77523809D01*
X144071428Y-77809523D01*
X144166666Y-77999999D01*
X144357142Y-78095238D01*
X145404761Y-78095238D01*
X110071428Y-53714285D02*
X111404761Y-54095238D01*
X110452380Y-54476190D01*
X111404761Y-54857142D01*
X110071428Y-55238095D01*
X110071428Y-55809523D02*
X111404761Y-56190476D01*
X110452380Y-56571428D01*
X111404761Y-56952380D01*
X110071428Y-57333333D01*
X110071428Y-57904761D02*
X111404761Y-58285714D01*
X110452380Y-58666666D01*
X111404761Y-59047619D01*
X110071428Y-59428571D01*
X111214285Y-60190476D02*
X111309523Y-60285714D01*
X111404761Y-60190476D01*
X111309523Y-60095238D01*
X111214285Y-60190476D01*
X111404761Y-60190476D01*
X111309523Y-61047619D02*
X111404761Y-61238095D01*
X111404761Y-61619047D01*
X111309523Y-61809523D01*
X111119047Y-61904761D01*
X111023809Y-61904761D01*
X110833333Y-61809523D01*
X110738095Y-61619047D01*
X110738095Y-61333333D01*
X110642857Y-61142857D01*
X110452380Y-61047619D01*
X110357142Y-61047619D01*
X110166666Y-61142857D01*
X110071428Y-61333333D01*
X110071428Y-61619047D01*
X110166666Y-61809523D01*
X111404761Y-62761904D02*
X109404761Y-62761904D01*
X111404761Y-63619047D02*
X110357142Y-63619047D01*
X110166666Y-63523809D01*
X110071428Y-63333333D01*
X110071428Y-63047619D01*
X110166666Y-62857142D01*
X110261904Y-62761904D01*
X111404761Y-64571428D02*
X110071428Y-64571428D01*
X110452380Y-64571428D02*
X110261904Y-64666666D01*
X110166666Y-64761904D01*
X110071428Y-64952380D01*
X110071428Y-65142857D01*
X111404761Y-66666666D02*
X109404761Y-66666666D01*
X111309523Y-66666666D02*
X111404761Y-66476190D01*
X111404761Y-66095238D01*
X111309523Y-65904761D01*
X111214285Y-65809523D01*
X111023809Y-65714285D01*
X110452380Y-65714285D01*
X110261904Y-65809523D01*
X110166666Y-65904761D01*
X110071428Y-66095238D01*
X110071428Y-66476190D01*
X110166666Y-66666666D01*
X110071428Y-67428571D02*
X110071428Y-68476190D01*
X111404761Y-67428571D01*
X111404761Y-68476190D01*
X111404761Y-69238095D02*
X110071428Y-69238095D01*
X110261904Y-69238095D02*
X110166666Y-69333333D01*
X110071428Y-69523809D01*
X110071428Y-69809523D01*
X110166666Y-70000000D01*
X110357142Y-70095238D01*
X111404761Y-70095238D01*
X110357142Y-70095238D02*
X110166666Y-70190476D01*
X110071428Y-70380952D01*
X110071428Y-70666666D01*
X110166666Y-70857142D01*
X110357142Y-70952380D01*
X111404761Y-70952380D01*
X111214285Y-71904761D02*
X111309523Y-71999999D01*
X111404761Y-71904761D01*
X111309523Y-71809523D01*
X111214285Y-71904761D01*
X111404761Y-71904761D01*
X111309523Y-73714285D02*
X111404761Y-73523809D01*
X111404761Y-73142857D01*
X111309523Y-72952380D01*
X111214285Y-72857142D01*
X111023809Y-72761904D01*
X110452380Y-72761904D01*
X110261904Y-72857142D01*
X110166666Y-72952380D01*
X110071428Y-73142857D01*
X110071428Y-73523809D01*
X110166666Y-73714285D01*
X111404761Y-74857142D02*
X111309523Y-74666666D01*
X111214285Y-74571428D01*
X111023809Y-74476190D01*
X110452380Y-74476190D01*
X110261904Y-74571428D01*
X110166666Y-74666666D01*
X110071428Y-74857142D01*
X110071428Y-75142857D01*
X110166666Y-75333333D01*
X110261904Y-75428571D01*
X110452380Y-75523809D01*
X111023809Y-75523809D01*
X111214285Y-75428571D01*
X111309523Y-75333333D01*
X111404761Y-75142857D01*
X111404761Y-74857142D01*
X111404761Y-76380952D02*
X110071428Y-76380952D01*
X110261904Y-76380952D02*
X110166666Y-76476190D01*
X110071428Y-76666666D01*
X110071428Y-76952380D01*
X110166666Y-77142857D01*
X110357142Y-77238095D01*
X111404761Y-77238095D01*
X110357142Y-77238095D02*
X110166666Y-77333333D01*
X110071428Y-77523809D01*
X110071428Y-77809523D01*
X110166666Y-77999999D01*
X110357142Y-78095238D01*
X111404761Y-78095238D01*
X144071428Y-106214285D02*
X145404761Y-106595238D01*
X144452380Y-106976190D01*
X145404761Y-107357142D01*
X144071428Y-107738095D01*
X144071428Y-108309523D02*
X145404761Y-108690476D01*
X144452380Y-109071428D01*
X145404761Y-109452380D01*
X144071428Y-109833333D01*
X144071428Y-110404761D02*
X145404761Y-110785714D01*
X144452380Y-111166666D01*
X145404761Y-111547619D01*
X144071428Y-111928571D01*
X145214285Y-112690476D02*
X145309523Y-112785714D01*
X145404761Y-112690476D01*
X145309523Y-112595238D01*
X145214285Y-112690476D01*
X145404761Y-112690476D01*
X145309523Y-113547619D02*
X145404761Y-113738095D01*
X145404761Y-114119047D01*
X145309523Y-114309523D01*
X145119047Y-114404761D01*
X145023809Y-114404761D01*
X144833333Y-114309523D01*
X144738095Y-114119047D01*
X144738095Y-113833333D01*
X144642857Y-113642857D01*
X144452380Y-113547619D01*
X144357142Y-113547619D01*
X144166666Y-113642857D01*
X144071428Y-113833333D01*
X144071428Y-114119047D01*
X144166666Y-114309523D01*
X145404761Y-115261904D02*
X143404761Y-115261904D01*
X145404761Y-116119047D02*
X144357142Y-116119047D01*
X144166666Y-116023809D01*
X144071428Y-115833333D01*
X144071428Y-115547619D01*
X144166666Y-115357142D01*
X144261904Y-115261904D01*
X145404761Y-117071428D02*
X144071428Y-117071428D01*
X144452380Y-117071428D02*
X144261904Y-117166666D01*
X144166666Y-117261904D01*
X144071428Y-117452380D01*
X144071428Y-117642857D01*
X145404761Y-119166666D02*
X143404761Y-119166666D01*
X145309523Y-119166666D02*
X145404761Y-118976190D01*
X145404761Y-118595238D01*
X145309523Y-118404761D01*
X145214285Y-118309523D01*
X145023809Y-118214285D01*
X144452380Y-118214285D01*
X144261904Y-118309523D01*
X144166666Y-118404761D01*
X144071428Y-118595238D01*
X144071428Y-118976190D01*
X144166666Y-119166666D01*
X144071428Y-119928571D02*
X144071428Y-120976190D01*
X145404761Y-119928571D01*
X145404761Y-120976190D01*
X145404761Y-121738095D02*
X144071428Y-121738095D01*
X144261904Y-121738095D02*
X144166666Y-121833333D01*
X144071428Y-122023809D01*
X144071428Y-122309523D01*
X144166666Y-122500000D01*
X144357142Y-122595238D01*
X145404761Y-122595238D01*
X144357142Y-122595238D02*
X144166666Y-122690476D01*
X144071428Y-122880952D01*
X144071428Y-123166666D01*
X144166666Y-123357142D01*
X144357142Y-123452380D01*
X145404761Y-123452380D01*
X145214285Y-124404761D02*
X145309523Y-124500000D01*
X145404761Y-124404761D01*
X145309523Y-124309523D01*
X145214285Y-124404761D01*
X145404761Y-124404761D01*
X145309523Y-126214285D02*
X145404761Y-126023809D01*
X145404761Y-125642857D01*
X145309523Y-125452380D01*
X145214285Y-125357142D01*
X145023809Y-125261904D01*
X144452380Y-125261904D01*
X144261904Y-125357142D01*
X144166666Y-125452380D01*
X144071428Y-125642857D01*
X144071428Y-126023809D01*
X144166666Y-126214285D01*
X145404761Y-127357142D02*
X145309523Y-127166666D01*
X145214285Y-127071428D01*
X145023809Y-126976190D01*
X144452380Y-126976190D01*
X144261904Y-127071428D01*
X144166666Y-127166666D01*
X144071428Y-127357142D01*
X144071428Y-127642857D01*
X144166666Y-127833333D01*
X144261904Y-127928571D01*
X144452380Y-128023809D01*
X145023809Y-128023809D01*
X145214285Y-127928571D01*
X145309523Y-127833333D01*
X145404761Y-127642857D01*
X145404761Y-127357142D01*
X145404761Y-128880952D02*
X144071428Y-128880952D01*
X144261904Y-128880952D02*
X144166666Y-128976190D01*
X144071428Y-129166666D01*
X144071428Y-129452380D01*
X144166666Y-129642857D01*
X144357142Y-129738095D01*
X145404761Y-129738095D01*
X144357142Y-129738095D02*
X144166666Y-129833333D01*
X144071428Y-130023809D01*
X144071428Y-130309523D01*
X144166666Y-130499999D01*
X144357142Y-130595238D01*
X145404761Y-130595238D01*
X110071428Y-106214285D02*
X111404761Y-106595238D01*
X110452380Y-106976190D01*
X111404761Y-107357142D01*
X110071428Y-107738095D01*
X110071428Y-108309523D02*
X111404761Y-108690476D01*
X110452380Y-109071428D01*
X111404761Y-109452380D01*
X110071428Y-109833333D01*
X110071428Y-110404761D02*
X111404761Y-110785714D01*
X110452380Y-111166666D01*
X111404761Y-111547619D01*
X110071428Y-111928571D01*
X111214285Y-112690476D02*
X111309523Y-112785714D01*
X111404761Y-112690476D01*
X111309523Y-112595238D01*
X111214285Y-112690476D01*
X111404761Y-112690476D01*
X111309523Y-113547619D02*
X111404761Y-113738095D01*
X111404761Y-114119047D01*
X111309523Y-114309523D01*
X111119047Y-114404761D01*
X111023809Y-114404761D01*
X110833333Y-114309523D01*
X110738095Y-114119047D01*
X110738095Y-113833333D01*
X110642857Y-113642857D01*
X110452380Y-113547619D01*
X110357142Y-113547619D01*
X110166666Y-113642857D01*
X110071428Y-113833333D01*
X110071428Y-114119047D01*
X110166666Y-114309523D01*
X111404761Y-115261904D02*
X109404761Y-115261904D01*
X111404761Y-116119047D02*
X110357142Y-116119047D01*
X110166666Y-116023809D01*
X110071428Y-115833333D01*
X110071428Y-115547619D01*
X110166666Y-115357142D01*
X110261904Y-115261904D01*
X111404761Y-117071428D02*
X110071428Y-117071428D01*
X110452380Y-117071428D02*
X110261904Y-117166666D01*
X110166666Y-117261904D01*
X110071428Y-117452380D01*
X110071428Y-117642857D01*
X111404761Y-119166666D02*
X109404761Y-119166666D01*
X111309523Y-119166666D02*
X111404761Y-118976190D01*
X111404761Y-118595238D01*
X111309523Y-118404761D01*
X111214285Y-118309523D01*
X111023809Y-118214285D01*
X110452380Y-118214285D01*
X110261904Y-118309523D01*
X110166666Y-118404761D01*
X110071428Y-118595238D01*
X110071428Y-118976190D01*
X110166666Y-119166666D01*
X110071428Y-119928571D02*
X110071428Y-120976190D01*
X111404761Y-119928571D01*
X111404761Y-120976190D01*
X111404761Y-121738095D02*
X110071428Y-121738095D01*
X110261904Y-121738095D02*
X110166666Y-121833333D01*
X110071428Y-122023809D01*
X110071428Y-122309523D01*
X110166666Y-122500000D01*
X110357142Y-122595238D01*
X111404761Y-122595238D01*
X110357142Y-122595238D02*
X110166666Y-122690476D01*
X110071428Y-122880952D01*
X110071428Y-123166666D01*
X110166666Y-123357142D01*
X110357142Y-123452380D01*
X111404761Y-123452380D01*
X111214285Y-124404761D02*
X111309523Y-124499999D01*
X111404761Y-124404761D01*
X111309523Y-124309523D01*
X111214285Y-124404761D01*
X111404761Y-124404761D01*
X111309523Y-126214285D02*
X111404761Y-126023809D01*
X111404761Y-125642857D01*
X111309523Y-125452380D01*
X111214285Y-125357142D01*
X111023809Y-125261904D01*
X110452380Y-125261904D01*
X110261904Y-125357142D01*
X110166666Y-125452380D01*
X110071428Y-125642857D01*
X110071428Y-126023809D01*
X110166666Y-126214285D01*
X111404761Y-127357142D02*
X111309523Y-127166666D01*
X111214285Y-127071428D01*
X111023809Y-126976190D01*
X110452380Y-126976190D01*
X110261904Y-127071428D01*
X110166666Y-127166666D01*
X110071428Y-127357142D01*
X110071428Y-127642857D01*
X110166666Y-127833333D01*
X110261904Y-127928571D01*
X110452380Y-128023809D01*
X111023809Y-128023809D01*
X111214285Y-127928571D01*
X111309523Y-127833333D01*
X111404761Y-127642857D01*
X111404761Y-127357142D01*
X111404761Y-128880952D02*
X110071428Y-128880952D01*
X110261904Y-128880952D02*
X110166666Y-128976190D01*
X110071428Y-129166666D01*
X110071428Y-129452380D01*
X110166666Y-129642857D01*
X110357142Y-129738095D01*
X111404761Y-129738095D01*
X110357142Y-129738095D02*
X110166666Y-129833333D01*
X110071428Y-130023809D01*
X110071428Y-130309523D01*
X110166666Y-130499999D01*
X110357142Y-130595238D01*
X111404761Y-130595238D01*
X76071428Y-106214285D02*
X77404761Y-106595238D01*
X76452380Y-106976190D01*
X77404761Y-107357142D01*
X76071428Y-107738095D01*
X76071428Y-108309523D02*
X77404761Y-108690476D01*
X76452380Y-109071428D01*
X77404761Y-109452380D01*
X76071428Y-109833333D01*
X76071428Y-110404761D02*
X77404761Y-110785714D01*
X76452380Y-111166666D01*
X77404761Y-111547619D01*
X76071428Y-111928571D01*
X77214285Y-112690476D02*
X77309523Y-112785714D01*
X77404761Y-112690476D01*
X77309523Y-112595238D01*
X77214285Y-112690476D01*
X77404761Y-112690476D01*
X77309523Y-113547619D02*
X77404761Y-113738095D01*
X77404761Y-114119047D01*
X77309523Y-114309523D01*
X77119047Y-114404761D01*
X77023809Y-114404761D01*
X76833333Y-114309523D01*
X76738095Y-114119047D01*
X76738095Y-113833333D01*
X76642857Y-113642857D01*
X76452380Y-113547619D01*
X76357142Y-113547619D01*
X76166666Y-113642857D01*
X76071428Y-113833333D01*
X76071428Y-114119047D01*
X76166666Y-114309523D01*
X77404761Y-115261904D02*
X75404761Y-115261904D01*
X77404761Y-116119047D02*
X76357142Y-116119047D01*
X76166666Y-116023809D01*
X76071428Y-115833333D01*
X76071428Y-115547619D01*
X76166666Y-115357142D01*
X76261904Y-115261904D01*
X77404761Y-117071428D02*
X76071428Y-117071428D01*
X76452380Y-117071428D02*
X76261904Y-117166666D01*
X76166666Y-117261904D01*
X76071428Y-117452380D01*
X76071428Y-117642857D01*
X77404761Y-119166666D02*
X75404761Y-119166666D01*
X77309523Y-119166666D02*
X77404761Y-118976190D01*
X77404761Y-118595238D01*
X77309523Y-118404761D01*
X77214285Y-118309523D01*
X77023809Y-118214285D01*
X76452380Y-118214285D01*
X76261904Y-118309523D01*
X76166666Y-118404761D01*
X76071428Y-118595238D01*
X76071428Y-118976190D01*
X76166666Y-119166666D01*
X76071428Y-119928571D02*
X76071428Y-120976190D01*
X77404761Y-119928571D01*
X77404761Y-120976190D01*
X77404761Y-121738095D02*
X76071428Y-121738095D01*
X76261904Y-121738095D02*
X76166666Y-121833333D01*
X76071428Y-122023809D01*
X76071428Y-122309523D01*
X76166666Y-122500000D01*
X76357142Y-122595238D01*
X77404761Y-122595238D01*
X76357142Y-122595238D02*
X76166666Y-122690476D01*
X76071428Y-122880952D01*
X76071428Y-123166666D01*
X76166666Y-123357142D01*
X76357142Y-123452380D01*
X77404761Y-123452380D01*
X77214285Y-124404761D02*
X77309523Y-124499999D01*
X77404761Y-124404761D01*
X77309523Y-124309523D01*
X77214285Y-124404761D01*
X77404761Y-124404761D01*
X77309523Y-126214285D02*
X77404761Y-126023809D01*
X77404761Y-125642857D01*
X77309523Y-125452380D01*
X77214285Y-125357142D01*
X77023809Y-125261904D01*
X76452380Y-125261904D01*
X76261904Y-125357142D01*
X76166666Y-125452380D01*
X76071428Y-125642857D01*
X76071428Y-126023809D01*
X76166666Y-126214285D01*
X77404761Y-127357142D02*
X77309523Y-127166666D01*
X77214285Y-127071428D01*
X77023809Y-126976190D01*
X76452380Y-126976190D01*
X76261904Y-127071428D01*
X76166666Y-127166666D01*
X76071428Y-127357142D01*
X76071428Y-127642857D01*
X76166666Y-127833333D01*
X76261904Y-127928571D01*
X76452380Y-128023809D01*
X77023809Y-128023809D01*
X77214285Y-127928571D01*
X77309523Y-127833333D01*
X77404761Y-127642857D01*
X77404761Y-127357142D01*
X77404761Y-128880952D02*
X76071428Y-128880952D01*
X76261904Y-128880952D02*
X76166666Y-128976190D01*
X76071428Y-129166666D01*
X76071428Y-129452380D01*
X76166666Y-129642857D01*
X76357142Y-129738095D01*
X77404761Y-129738095D01*
X76357142Y-129738095D02*
X76166666Y-129833333D01*
X76071428Y-130023809D01*
X76071428Y-130309523D01*
X76166666Y-130500000D01*
X76357142Y-130595238D01*
X77404761Y-130595238D01*
X76071428Y-53714285D02*
X77404761Y-54095238D01*
X76452380Y-54476190D01*
X77404761Y-54857142D01*
X76071428Y-55238095D01*
X76071428Y-55809523D02*
X77404761Y-56190476D01*
X76452380Y-56571428D01*
X77404761Y-56952380D01*
X76071428Y-57333333D01*
X76071428Y-57904761D02*
X77404761Y-58285714D01*
X76452380Y-58666666D01*
X77404761Y-59047619D01*
X76071428Y-59428571D01*
X77214285Y-60190476D02*
X77309523Y-60285714D01*
X77404761Y-60190476D01*
X77309523Y-60095238D01*
X77214285Y-60190476D01*
X77404761Y-60190476D01*
X77309523Y-61047619D02*
X77404761Y-61238095D01*
X77404761Y-61619047D01*
X77309523Y-61809523D01*
X77119047Y-61904761D01*
X77023809Y-61904761D01*
X76833333Y-61809523D01*
X76738095Y-61619047D01*
X76738095Y-61333333D01*
X76642857Y-61142857D01*
X76452380Y-61047619D01*
X76357142Y-61047619D01*
X76166666Y-61142857D01*
X76071428Y-61333333D01*
X76071428Y-61619047D01*
X76166666Y-61809523D01*
X77404761Y-62761904D02*
X75404761Y-62761904D01*
X77404761Y-63619047D02*
X76357142Y-63619047D01*
X76166666Y-63523809D01*
X76071428Y-63333333D01*
X76071428Y-63047619D01*
X76166666Y-62857142D01*
X76261904Y-62761904D01*
X77404761Y-64571428D02*
X76071428Y-64571428D01*
X76452380Y-64571428D02*
X76261904Y-64666666D01*
X76166666Y-64761904D01*
X76071428Y-64952380D01*
X76071428Y-65142857D01*
X77404761Y-66666666D02*
X75404761Y-66666666D01*
X77309523Y-66666666D02*
X77404761Y-66476190D01*
X77404761Y-66095238D01*
X77309523Y-65904761D01*
X77214285Y-65809523D01*
X77023809Y-65714285D01*
X76452380Y-65714285D01*
X76261904Y-65809523D01*
X76166666Y-65904761D01*
X76071428Y-66095238D01*
X76071428Y-66476190D01*
X76166666Y-66666666D01*
X76071428Y-67428571D02*
X76071428Y-68476190D01*
X77404761Y-67428571D01*
X77404761Y-68476190D01*
X77404761Y-69238095D02*
X76071428Y-69238095D01*
X76261904Y-69238095D02*
X76166666Y-69333333D01*
X76071428Y-69523809D01*
X76071428Y-69809523D01*
X76166666Y-70000000D01*
X76357142Y-70095238D01*
X77404761Y-70095238D01*
X76357142Y-70095238D02*
X76166666Y-70190476D01*
X76071428Y-70380952D01*
X76071428Y-70666666D01*
X76166666Y-70857142D01*
X76357142Y-70952380D01*
X77404761Y-70952380D01*
X77214285Y-71904761D02*
X77309523Y-71999999D01*
X77404761Y-71904761D01*
X77309523Y-71809523D01*
X77214285Y-71904761D01*
X77404761Y-71904761D01*
X77309523Y-73714285D02*
X77404761Y-73523809D01*
X77404761Y-73142857D01*
X77309523Y-72952380D01*
X77214285Y-72857142D01*
X77023809Y-72761904D01*
X76452380Y-72761904D01*
X76261904Y-72857142D01*
X76166666Y-72952380D01*
X76071428Y-73142857D01*
X76071428Y-73523809D01*
X76166666Y-73714285D01*
X77404761Y-74857142D02*
X77309523Y-74666666D01*
X77214285Y-74571428D01*
X77023809Y-74476190D01*
X76452380Y-74476190D01*
X76261904Y-74571428D01*
X76166666Y-74666666D01*
X76071428Y-74857142D01*
X76071428Y-75142857D01*
X76166666Y-75333333D01*
X76261904Y-75428571D01*
X76452380Y-75523809D01*
X77023809Y-75523809D01*
X77214285Y-75428571D01*
X77309523Y-75333333D01*
X77404761Y-75142857D01*
X77404761Y-74857142D01*
X77404761Y-76380952D02*
X76071428Y-76380952D01*
X76261904Y-76380952D02*
X76166666Y-76476190D01*
X76071428Y-76666666D01*
X76071428Y-76952380D01*
X76166666Y-77142857D01*
X76357142Y-77238095D01*
X77404761Y-77238095D01*
X76357142Y-77238095D02*
X76166666Y-77333333D01*
X76071428Y-77523809D01*
X76071428Y-77809523D01*
X76166666Y-78000000D01*
X76357142Y-78095238D01*
X77404761Y-78095238D01*
D11*
G36*
X129759720Y-105665909D02*
G01*
X130340303Y-106310177D01*
X130770803Y-106673828D01*
X131190181Y-106836427D01*
X131737399Y-106877537D01*
X131876992Y-106878182D01*
X132945133Y-106878182D01*
X131742149Y-105660067D01*
X130539166Y-104441952D01*
X131282657Y-103698461D01*
X132026148Y-102954971D01*
X133316738Y-104232094D01*
X134607328Y-105509218D01*
X137090599Y-105443245D01*
X139573871Y-105377273D01*
X138910209Y-104742273D01*
X138500821Y-104399175D01*
X138076390Y-104207457D01*
X137484816Y-104124410D01*
X136648614Y-104107273D01*
X135050680Y-104107273D01*
X133538189Y-102606372D01*
X132025698Y-101105470D01*
X128710588Y-104453636D01*
X129759720Y-105665909D01*
G37*
X129759720Y-105665909D02*
X130340303Y-106310177D01*
X130770803Y-106673828D01*
X131190181Y-106836427D01*
X131737399Y-106877537D01*
X131876992Y-106878182D01*
X132945133Y-106878182D01*
X131742149Y-105660067D01*
X130539166Y-104441952D01*
X131282657Y-103698461D01*
X132026148Y-102954971D01*
X133316738Y-104232094D01*
X134607328Y-105509218D01*
X137090599Y-105443245D01*
X139573871Y-105377273D01*
X138910209Y-104742273D01*
X138500821Y-104399175D01*
X138076390Y-104207457D01*
X137484816Y-104124410D01*
X136648614Y-104107273D01*
X135050680Y-104107273D01*
X133538189Y-102606372D01*
X132025698Y-101105470D01*
X128710588Y-104453636D01*
X129759720Y-105665909D01*
G36*
X134498292Y-108015091D02*
G01*
X134695944Y-108212549D01*
X135187122Y-108262543D01*
X135385454Y-108263636D01*
X136309091Y-108263636D01*
X136309091Y-110110909D01*
X135370117Y-110110909D01*
X134775193Y-110135044D01*
X134521424Y-110266253D01*
X134488531Y-110592738D01*
X134504208Y-110745909D01*
X134577272Y-111380909D01*
X137059545Y-111446448D01*
X139541818Y-111511988D01*
X139541818Y-110811448D01*
X139512352Y-110380722D01*
X139340367Y-110176720D01*
X138900487Y-110114916D01*
X138502727Y-110110909D01*
X137463636Y-110110909D01*
X137463636Y-108263636D01*
X138502727Y-108263636D01*
X139141680Y-108243555D01*
X139444309Y-108127610D01*
X139535944Y-107832247D01*
X139541818Y-107570909D01*
X139541818Y-106878182D01*
X134461818Y-106878182D01*
X134461818Y-107570909D01*
X134498292Y-108015091D01*
G37*
X134498292Y-108015091D02*
X134695944Y-108212549D01*
X135187122Y-108262543D01*
X135385454Y-108263636D01*
X136309091Y-108263636D01*
X136309091Y-110110909D01*
X135370117Y-110110909D01*
X134775193Y-110135044D01*
X134521424Y-110266253D01*
X134488531Y-110592738D01*
X134504208Y-110745909D01*
X134577272Y-111380909D01*
X137059545Y-111446448D01*
X139541818Y-111511988D01*
X139541818Y-110811448D01*
X139512352Y-110380722D01*
X139340367Y-110176720D01*
X138900487Y-110114916D01*
X138502727Y-110110909D01*
X137463636Y-110110909D01*
X137463636Y-108263636D01*
X138502727Y-108263636D01*
X139141680Y-108243555D01*
X139444309Y-108127610D01*
X139535944Y-107832247D01*
X139541818Y-107570909D01*
X139541818Y-106878182D01*
X134461818Y-106878182D01*
X134461818Y-107570909D01*
X134498292Y-108015091D01*
G36*
X134546235Y-114857163D02*
G01*
X134776401Y-115735316D01*
X135117685Y-116306962D01*
X135226718Y-116394946D01*
X135882505Y-116565610D01*
X136569532Y-116372746D01*
X136793121Y-116209898D01*
X137077610Y-116008835D01*
X137371679Y-116020776D01*
X137825884Y-116272796D01*
X138077178Y-116440807D01*
X138812785Y-116884752D01*
X139268546Y-117003520D01*
X139493792Y-116795842D01*
X139541194Y-116403182D01*
X139436356Y-115915390D01*
X139051108Y-115527836D01*
X138678010Y-115306364D01*
X138120334Y-114927229D01*
X137777117Y-114542275D01*
X137738066Y-114440455D01*
X137769813Y-114178422D01*
X138068632Y-114060205D01*
X138601250Y-114036364D01*
X139200492Y-114010272D01*
X139469616Y-113867546D01*
X139539887Y-113511506D01*
X139541818Y-113343636D01*
X139541818Y-112650909D01*
X136209696Y-112650909D01*
X136209696Y-114036364D01*
X136642177Y-114111745D01*
X136743785Y-114416047D01*
X136729241Y-114555909D01*
X136466292Y-115022726D01*
X136135909Y-115149242D01*
X135747837Y-115118270D01*
X135621022Y-114788761D01*
X135616363Y-114629696D01*
X135704860Y-114183193D01*
X136062941Y-114040743D01*
X136209696Y-114036364D01*
X136209696Y-112650909D01*
X134461818Y-112650909D01*
X134461818Y-113790422D01*
X134546235Y-114857163D01*
G37*
X134546235Y-114857163D02*
X134776401Y-115735316D01*
X135117685Y-116306962D01*
X135226718Y-116394946D01*
X135882505Y-116565610D01*
X136569532Y-116372746D01*
X136793121Y-116209898D01*
X137077610Y-116008835D01*
X137371679Y-116020776D01*
X137825884Y-116272796D01*
X138077178Y-116440807D01*
X138812785Y-116884752D01*
X139268546Y-117003520D01*
X139493792Y-116795842D01*
X139541194Y-116403182D01*
X139436356Y-115915390D01*
X139051108Y-115527836D01*
X138678010Y-115306364D01*
X138120334Y-114927229D01*
X137777117Y-114542275D01*
X137738066Y-114440455D01*
X137769813Y-114178422D01*
X138068632Y-114060205D01*
X138601250Y-114036364D01*
X139200492Y-114010272D01*
X139469616Y-113867546D01*
X139539887Y-113511506D01*
X139541818Y-113343636D01*
X139541818Y-112650909D01*
X136209696Y-112650909D01*
X136209696Y-114036364D01*
X136642177Y-114111745D01*
X136743785Y-114416047D01*
X136729241Y-114555909D01*
X136466292Y-115022726D01*
X136135909Y-115149242D01*
X135747837Y-115118270D01*
X135621022Y-114788761D01*
X135616363Y-114629696D01*
X135704860Y-114183193D01*
X136062941Y-114040743D01*
X136209696Y-114036364D01*
X136209696Y-112650909D01*
X134461818Y-112650909D01*
X134461818Y-113790422D01*
X134546235Y-114857163D01*
G36*
X134463106Y-118943182D02*
G01*
X134603587Y-120392018D01*
X135017315Y-121480493D01*
X135699123Y-122201492D01*
X136643840Y-122547900D01*
X137104872Y-122580000D01*
X138116709Y-122399507D01*
X138855900Y-121854574D01*
X139326202Y-120940015D01*
X139531370Y-119650647D01*
X139541818Y-119216786D01*
X139541818Y-117961818D01*
X137121672Y-117961818D01*
X137121672Y-119347273D01*
X138626980Y-119347273D01*
X138475287Y-119982273D01*
X138283473Y-120558327D01*
X138096250Y-120905909D01*
X137669201Y-121132366D01*
X137027147Y-121181523D01*
X136378403Y-121060684D01*
X135979220Y-120831688D01*
X135689040Y-120316415D01*
X135616363Y-119908052D01*
X135644690Y-119606819D01*
X135799044Y-119438836D01*
X136183485Y-119365337D01*
X136902073Y-119347557D01*
X137121672Y-119347273D01*
X137121672Y-117961818D01*
X134461818Y-117961818D01*
X134463106Y-118943182D01*
G37*
X134463106Y-118943182D02*
X134603587Y-120392018D01*
X135017315Y-121480493D01*
X135699123Y-122201492D01*
X136643840Y-122547900D01*
X137104872Y-122580000D01*
X138116709Y-122399507D01*
X138855900Y-121854574D01*
X139326202Y-120940015D01*
X139531370Y-119650647D01*
X139541818Y-119216786D01*
X139541818Y-117961818D01*
X137121672Y-117961818D01*
X137121672Y-119347273D01*
X138626980Y-119347273D01*
X138475287Y-119982273D01*
X138283473Y-120558327D01*
X138096250Y-120905909D01*
X137669201Y-121132366D01*
X137027147Y-121181523D01*
X136378403Y-121060684D01*
X135979220Y-120831688D01*
X135689040Y-120316415D01*
X135616363Y-119908052D01*
X135644690Y-119606819D01*
X135799044Y-119438836D01*
X136183485Y-119365337D01*
X136902073Y-119347557D01*
X137121672Y-119347273D01*
X137121672Y-117961818D01*
X134461818Y-117961818D01*
X134463106Y-118943182D01*
G36*
X134486845Y-126512665D02*
G01*
X134596570Y-127233746D01*
X134842964Y-127545510D01*
X135277993Y-127472067D01*
X135953626Y-127037529D01*
X136740129Y-126415182D01*
X137461922Y-125837411D01*
X138047470Y-125392447D01*
X138407237Y-125147299D01*
X138470704Y-125120000D01*
X138551485Y-125328873D01*
X138605052Y-125867658D01*
X138618181Y-126390000D01*
X138638226Y-127123931D01*
X138724894Y-127506267D01*
X138917981Y-127646455D01*
X139080000Y-127660000D01*
X139294643Y-127626875D01*
X139430110Y-127470391D01*
X139504437Y-127104881D01*
X139535658Y-126444679D01*
X139541818Y-125466364D01*
X139533022Y-124440998D01*
X139496120Y-123793239D01*
X139415343Y-123439040D01*
X139274919Y-123294356D01*
X139130205Y-123272727D01*
X138773596Y-123413733D01*
X138178026Y-123789794D01*
X137450873Y-124330471D01*
X137167477Y-124560215D01*
X135616363Y-125847703D01*
X135616363Y-124560215D01*
X135601850Y-123826626D01*
X135524744Y-123442405D01*
X135334701Y-123295266D01*
X135039091Y-123272727D01*
X134766199Y-123289188D01*
X134596586Y-123397714D01*
X134505696Y-123687020D01*
X134468969Y-124245821D01*
X134461850Y-125162833D01*
X134461818Y-125358156D01*
X134486845Y-126512665D01*
G37*
X134486845Y-126512665D02*
X134596570Y-127233746D01*
X134842964Y-127545510D01*
X135277993Y-127472067D01*
X135953626Y-127037529D01*
X136740129Y-126415182D01*
X137461922Y-125837411D01*
X138047470Y-125392447D01*
X138407237Y-125147299D01*
X138470704Y-125120000D01*
X138551485Y-125328873D01*
X138605052Y-125867658D01*
X138618181Y-126390000D01*
X138638226Y-127123931D01*
X138724894Y-127506267D01*
X138917981Y-127646455D01*
X139080000Y-127660000D01*
X139294643Y-127626875D01*
X139430110Y-127470391D01*
X139504437Y-127104881D01*
X139535658Y-126444679D01*
X139541818Y-125466364D01*
X139533022Y-124440998D01*
X139496120Y-123793239D01*
X139415343Y-123439040D01*
X139274919Y-123294356D01*
X139130205Y-123272727D01*
X138773596Y-123413733D01*
X138178026Y-123789794D01*
X137450873Y-124330471D01*
X137167477Y-124560215D01*
X135616363Y-125847703D01*
X135616363Y-124560215D01*
X135601850Y-123826626D01*
X135524744Y-123442405D01*
X135334701Y-123295266D01*
X135039091Y-123272727D01*
X134766199Y-123289188D01*
X134596586Y-123397714D01*
X134505696Y-123687020D01*
X134468969Y-124245821D01*
X134461850Y-125162833D01*
X134461818Y-125358156D01*
X134486845Y-126512665D01*
G36*
X134496136Y-129895429D02*
G01*
X134670983Y-130212548D01*
X135094195Y-130477470D01*
X135616363Y-130705401D01*
X136256220Y-130999891D01*
X136675473Y-131247657D01*
X136770909Y-131354545D01*
X136576068Y-131529365D01*
X136074721Y-131799208D01*
X135616363Y-132003690D01*
X134946186Y-132306606D01*
X134602406Y-132573805D01*
X134477186Y-132926784D01*
X134461818Y-133304476D01*
X134461818Y-134125455D01*
X139541818Y-134125455D01*
X139541818Y-133558298D01*
X139515048Y-133264735D01*
X139368948Y-133089308D01*
X139004829Y-132994585D01*
X138324002Y-132943132D01*
X137867727Y-132923298D01*
X136193636Y-132855455D01*
X137405909Y-132307474D01*
X138212638Y-131867728D01*
X138590872Y-131476133D01*
X138618181Y-131354545D01*
X138393411Y-130983463D01*
X137732945Y-130558569D01*
X137405909Y-130401617D01*
X136193636Y-129853636D01*
X137867727Y-129785793D01*
X138731043Y-129741738D01*
X139231377Y-129671965D01*
X139467418Y-129539041D01*
X139537853Y-129305533D01*
X139541818Y-129150793D01*
X139541818Y-128583636D01*
X134461818Y-128583636D01*
X134461818Y-129404615D01*
X134496136Y-129895429D01*
G37*
X134496136Y-129895429D02*
X134670983Y-130212548D01*
X135094195Y-130477470D01*
X135616363Y-130705401D01*
X136256220Y-130999891D01*
X136675473Y-131247657D01*
X136770909Y-131354545D01*
X136576068Y-131529365D01*
X136074721Y-131799208D01*
X135616363Y-132003690D01*
X134946186Y-132306606D01*
X134602406Y-132573805D01*
X134477186Y-132926784D01*
X134461818Y-133304476D01*
X134461818Y-134125455D01*
X139541818Y-134125455D01*
X139541818Y-133558298D01*
X139515048Y-133264735D01*
X139368948Y-133089308D01*
X139004829Y-132994585D01*
X138324002Y-132943132D01*
X137867727Y-132923298D01*
X136193636Y-132855455D01*
X137405909Y-132307474D01*
X138212638Y-131867728D01*
X138590872Y-131476133D01*
X138618181Y-131354545D01*
X138393411Y-130983463D01*
X137732945Y-130558569D01*
X137405909Y-130401617D01*
X136193636Y-129853636D01*
X137867727Y-129785793D01*
X138731043Y-129741738D01*
X139231377Y-129671965D01*
X139467418Y-129539041D01*
X139537853Y-129305533D01*
X139541818Y-129150793D01*
X139541818Y-128583636D01*
X134461818Y-128583636D01*
X134461818Y-129404615D01*
X134496136Y-129895429D01*
G36*
X129717061Y-127007674D02*
G01*
X130010566Y-128626873D01*
X130283059Y-130124181D01*
X130521903Y-131430633D01*
X130714460Y-132477259D01*
X130848094Y-133195094D01*
X130904934Y-133490455D01*
X131046903Y-133906115D01*
X131343737Y-134086503D01*
X131940165Y-134125455D01*
X132511956Y-134092207D01*
X132825211Y-134009347D01*
X132845454Y-133978460D01*
X132805176Y-133721645D01*
X132691475Y-133070160D01*
X132515055Y-132083428D01*
X132286618Y-130820871D01*
X132016866Y-129341910D01*
X131716503Y-127705968D01*
X131680952Y-127513005D01*
X130516451Y-121194545D01*
X131680952Y-114876085D01*
X131984688Y-113218936D01*
X132258889Y-111705430D01*
X132492789Y-110396410D01*
X132675622Y-109352720D01*
X132796622Y-108635203D01*
X132845022Y-108304700D01*
X132845454Y-108295176D01*
X132642454Y-108119803D01*
X132142268Y-108034437D01*
X132050900Y-108032727D01*
X131478993Y-108089543D01*
X131138719Y-108228272D01*
X131123514Y-108247653D01*
X131048696Y-108522829D01*
X130903827Y-109192306D01*
X130700815Y-110195899D01*
X130451566Y-111473422D01*
X130167990Y-112964689D01*
X129861994Y-114609515D01*
X129824906Y-114811236D01*
X128659130Y-121159894D01*
X129717061Y-127007674D01*
G37*
X129717061Y-127007674D02*
X130010566Y-128626873D01*
X130283059Y-130124181D01*
X130521903Y-131430633D01*
X130714460Y-132477259D01*
X130848094Y-133195094D01*
X130904934Y-133490455D01*
X131046903Y-133906115D01*
X131343737Y-134086503D01*
X131940165Y-134125455D01*
X132511956Y-134092207D01*
X132825211Y-134009347D01*
X132845454Y-133978460D01*
X132805176Y-133721645D01*
X132691475Y-133070160D01*
X132515055Y-132083428D01*
X132286618Y-130820871D01*
X132016866Y-129341910D01*
X131716503Y-127705968D01*
X131680952Y-127513005D01*
X130516451Y-121194545D01*
X131680952Y-114876085D01*
X131984688Y-113218936D01*
X132258889Y-111705430D01*
X132492789Y-110396410D01*
X132675622Y-109352720D01*
X132796622Y-108635203D01*
X132845022Y-108304700D01*
X132845454Y-108295176D01*
X132642454Y-108119803D01*
X132142268Y-108034437D01*
X132050900Y-108032727D01*
X131478993Y-108089543D01*
X131138719Y-108228272D01*
X131123514Y-108247653D01*
X131048696Y-108522829D01*
X130903827Y-109192306D01*
X130700815Y-110195899D01*
X130451566Y-111473422D01*
X130167990Y-112964689D01*
X129861994Y-114609515D01*
X129824906Y-114811236D01*
X128659130Y-121159894D01*
X129717061Y-127007674D01*
G36*
X129717061Y-74507674D02*
G01*
X130010566Y-76126873D01*
X130283059Y-77624181D01*
X130521903Y-78930633D01*
X130714460Y-79977259D01*
X130848094Y-80695094D01*
X130904934Y-80990455D01*
X131046903Y-81406115D01*
X131343737Y-81586503D01*
X131940165Y-81625455D01*
X132511956Y-81592207D01*
X132825211Y-81509347D01*
X132845454Y-81478460D01*
X132805176Y-81221645D01*
X132691475Y-80570160D01*
X132515055Y-79583428D01*
X132286618Y-78320871D01*
X132016866Y-76841910D01*
X131716503Y-75205968D01*
X131680952Y-75013005D01*
X130516451Y-68694545D01*
X131680952Y-62376085D01*
X131984688Y-60718936D01*
X132258889Y-59205430D01*
X132492789Y-57896410D01*
X132675622Y-56852720D01*
X132796622Y-56135203D01*
X132845022Y-55804700D01*
X132845454Y-55795176D01*
X132642454Y-55619803D01*
X132142268Y-55534437D01*
X132050900Y-55532727D01*
X131478993Y-55589543D01*
X131138719Y-55728272D01*
X131123514Y-55747653D01*
X131048696Y-56022829D01*
X130903827Y-56692306D01*
X130700815Y-57695899D01*
X130451566Y-58973422D01*
X130167990Y-60464689D01*
X129861994Y-62109515D01*
X129824906Y-62311236D01*
X128659130Y-68659894D01*
X129717061Y-74507674D01*
G37*
X129717061Y-74507674D02*
X130010566Y-76126873D01*
X130283059Y-77624181D01*
X130521903Y-78930633D01*
X130714460Y-79977259D01*
X130848094Y-80695094D01*
X130904934Y-80990455D01*
X131046903Y-81406115D01*
X131343737Y-81586503D01*
X131940165Y-81625455D01*
X132511956Y-81592207D01*
X132825211Y-81509347D01*
X132845454Y-81478460D01*
X132805176Y-81221645D01*
X132691475Y-80570160D01*
X132515055Y-79583428D01*
X132286618Y-78320871D01*
X132016866Y-76841910D01*
X131716503Y-75205968D01*
X131680952Y-75013005D01*
X130516451Y-68694545D01*
X131680952Y-62376085D01*
X131984688Y-60718936D01*
X132258889Y-59205430D01*
X132492789Y-57896410D01*
X132675622Y-56852720D01*
X132796622Y-56135203D01*
X132845022Y-55804700D01*
X132845454Y-55795176D01*
X132642454Y-55619803D01*
X132142268Y-55534437D01*
X132050900Y-55532727D01*
X131478993Y-55589543D01*
X131138719Y-55728272D01*
X131123514Y-55747653D01*
X131048696Y-56022829D01*
X130903827Y-56692306D01*
X130700815Y-57695899D01*
X130451566Y-58973422D01*
X130167990Y-60464689D01*
X129861994Y-62109515D01*
X129824906Y-62311236D01*
X128659130Y-68659894D01*
X129717061Y-74507674D01*
G36*
X134496136Y-77395429D02*
G01*
X134670983Y-77712548D01*
X135094195Y-77977470D01*
X135616363Y-78205401D01*
X136256220Y-78499891D01*
X136675473Y-78747657D01*
X136770909Y-78854545D01*
X136576068Y-79029365D01*
X136074721Y-79299208D01*
X135616363Y-79503690D01*
X134946186Y-79806606D01*
X134602406Y-80073805D01*
X134477186Y-80426784D01*
X134461818Y-80804476D01*
X134461818Y-81625455D01*
X139541818Y-81625455D01*
X139541818Y-81058298D01*
X139515048Y-80764735D01*
X139368948Y-80589308D01*
X139004829Y-80494585D01*
X138324002Y-80443132D01*
X137867727Y-80423298D01*
X136193636Y-80355455D01*
X137405909Y-79807474D01*
X138212638Y-79367728D01*
X138590872Y-78976133D01*
X138618181Y-78854545D01*
X138393411Y-78483463D01*
X137732945Y-78058569D01*
X137405909Y-77901617D01*
X136193636Y-77353636D01*
X137867727Y-77285793D01*
X138731043Y-77241738D01*
X139231377Y-77171965D01*
X139467418Y-77039041D01*
X139537853Y-76805533D01*
X139541818Y-76650793D01*
X139541818Y-76083636D01*
X134461818Y-76083636D01*
X134461818Y-76904615D01*
X134496136Y-77395429D01*
G37*
X134496136Y-77395429D02*
X134670983Y-77712548D01*
X135094195Y-77977470D01*
X135616363Y-78205401D01*
X136256220Y-78499891D01*
X136675473Y-78747657D01*
X136770909Y-78854545D01*
X136576068Y-79029365D01*
X136074721Y-79299208D01*
X135616363Y-79503690D01*
X134946186Y-79806606D01*
X134602406Y-80073805D01*
X134477186Y-80426784D01*
X134461818Y-80804476D01*
X134461818Y-81625455D01*
X139541818Y-81625455D01*
X139541818Y-81058298D01*
X139515048Y-80764735D01*
X139368948Y-80589308D01*
X139004829Y-80494585D01*
X138324002Y-80443132D01*
X137867727Y-80423298D01*
X136193636Y-80355455D01*
X137405909Y-79807474D01*
X138212638Y-79367728D01*
X138590872Y-78976133D01*
X138618181Y-78854545D01*
X138393411Y-78483463D01*
X137732945Y-78058569D01*
X137405909Y-77901617D01*
X136193636Y-77353636D01*
X137867727Y-77285793D01*
X138731043Y-77241738D01*
X139231377Y-77171965D01*
X139467418Y-77039041D01*
X139537853Y-76805533D01*
X139541818Y-76650793D01*
X139541818Y-76083636D01*
X134461818Y-76083636D01*
X134461818Y-76904615D01*
X134496136Y-77395429D01*
G36*
X134486845Y-74012665D02*
G01*
X134596570Y-74733746D01*
X134842964Y-75045510D01*
X135277993Y-74972067D01*
X135953626Y-74537529D01*
X136740129Y-73915182D01*
X137461922Y-73337411D01*
X138047470Y-72892447D01*
X138407237Y-72647299D01*
X138470704Y-72620000D01*
X138551485Y-72828873D01*
X138605052Y-73367658D01*
X138618181Y-73890000D01*
X138638226Y-74623931D01*
X138724894Y-75006267D01*
X138917981Y-75146455D01*
X139080000Y-75160000D01*
X139294643Y-75126875D01*
X139430110Y-74970391D01*
X139504437Y-74604881D01*
X139535658Y-73944679D01*
X139541818Y-72966364D01*
X139533022Y-71940998D01*
X139496120Y-71293239D01*
X139415343Y-70939040D01*
X139274919Y-70794356D01*
X139130205Y-70772727D01*
X138773596Y-70913733D01*
X138178026Y-71289794D01*
X137450873Y-71830471D01*
X137167477Y-72060215D01*
X135616363Y-73347703D01*
X135616363Y-72060215D01*
X135601850Y-71326626D01*
X135524744Y-70942405D01*
X135334701Y-70795266D01*
X135039091Y-70772727D01*
X134766199Y-70789188D01*
X134596586Y-70897714D01*
X134505696Y-71187020D01*
X134468969Y-71745821D01*
X134461850Y-72662833D01*
X134461818Y-72858156D01*
X134486845Y-74012665D01*
G37*
X134486845Y-74012665D02*
X134596570Y-74733746D01*
X134842964Y-75045510D01*
X135277993Y-74972067D01*
X135953626Y-74537529D01*
X136740129Y-73915182D01*
X137461922Y-73337411D01*
X138047470Y-72892447D01*
X138407237Y-72647299D01*
X138470704Y-72620000D01*
X138551485Y-72828873D01*
X138605052Y-73367658D01*
X138618181Y-73890000D01*
X138638226Y-74623931D01*
X138724894Y-75006267D01*
X138917981Y-75146455D01*
X139080000Y-75160000D01*
X139294643Y-75126875D01*
X139430110Y-74970391D01*
X139504437Y-74604881D01*
X139535658Y-73944679D01*
X139541818Y-72966364D01*
X139533022Y-71940998D01*
X139496120Y-71293239D01*
X139415343Y-70939040D01*
X139274919Y-70794356D01*
X139130205Y-70772727D01*
X138773596Y-70913733D01*
X138178026Y-71289794D01*
X137450873Y-71830471D01*
X137167477Y-72060215D01*
X135616363Y-73347703D01*
X135616363Y-72060215D01*
X135601850Y-71326626D01*
X135524744Y-70942405D01*
X135334701Y-70795266D01*
X135039091Y-70772727D01*
X134766199Y-70789188D01*
X134596586Y-70897714D01*
X134505696Y-71187020D01*
X134468969Y-71745821D01*
X134461850Y-72662833D01*
X134461818Y-72858156D01*
X134486845Y-74012665D01*
G36*
X134463106Y-66443182D02*
G01*
X134603587Y-67892018D01*
X135017315Y-68980493D01*
X135699123Y-69701492D01*
X136643840Y-70047900D01*
X137104872Y-70080000D01*
X138116709Y-69899507D01*
X138855900Y-69354574D01*
X139326202Y-68440015D01*
X139531370Y-67150647D01*
X139541818Y-66716786D01*
X139541818Y-65461818D01*
X137121672Y-65461818D01*
X137121672Y-66847273D01*
X138626980Y-66847273D01*
X138475287Y-67482273D01*
X138283473Y-68058327D01*
X138096250Y-68405909D01*
X137669201Y-68632366D01*
X137027147Y-68681523D01*
X136378403Y-68560684D01*
X135979220Y-68331688D01*
X135689040Y-67816415D01*
X135616363Y-67408052D01*
X135644690Y-67106819D01*
X135799044Y-66938836D01*
X136183485Y-66865337D01*
X136902073Y-66847557D01*
X137121672Y-66847273D01*
X137121672Y-65461818D01*
X134461818Y-65461818D01*
X134463106Y-66443182D01*
G37*
X134463106Y-66443182D02*
X134603587Y-67892018D01*
X135017315Y-68980493D01*
X135699123Y-69701492D01*
X136643840Y-70047900D01*
X137104872Y-70080000D01*
X138116709Y-69899507D01*
X138855900Y-69354574D01*
X139326202Y-68440015D01*
X139531370Y-67150647D01*
X139541818Y-66716786D01*
X139541818Y-65461818D01*
X137121672Y-65461818D01*
X137121672Y-66847273D01*
X138626980Y-66847273D01*
X138475287Y-67482273D01*
X138283473Y-68058327D01*
X138096250Y-68405909D01*
X137669201Y-68632366D01*
X137027147Y-68681523D01*
X136378403Y-68560684D01*
X135979220Y-68331688D01*
X135689040Y-67816415D01*
X135616363Y-67408052D01*
X135644690Y-67106819D01*
X135799044Y-66938836D01*
X136183485Y-66865337D01*
X136902073Y-66847557D01*
X137121672Y-66847273D01*
X137121672Y-65461818D01*
X134461818Y-65461818D01*
X134463106Y-66443182D01*
G36*
X134546235Y-62357163D02*
G01*
X134776401Y-63235316D01*
X135117685Y-63806962D01*
X135226718Y-63894946D01*
X135882505Y-64065610D01*
X136569532Y-63872746D01*
X136793121Y-63709898D01*
X137077610Y-63508835D01*
X137371679Y-63520776D01*
X137825884Y-63772796D01*
X138077178Y-63940807D01*
X138812785Y-64384752D01*
X139268546Y-64503520D01*
X139493792Y-64295842D01*
X139541194Y-63903182D01*
X139436356Y-63415390D01*
X139051108Y-63027836D01*
X138678010Y-62806364D01*
X138120334Y-62427229D01*
X137777117Y-62042275D01*
X137738066Y-61940455D01*
X137769813Y-61678422D01*
X138068632Y-61560205D01*
X138601250Y-61536364D01*
X139200492Y-61510272D01*
X139469616Y-61367546D01*
X139539887Y-61011506D01*
X139541818Y-60843636D01*
X139541818Y-60150909D01*
X136209696Y-60150909D01*
X136209696Y-61536364D01*
X136642177Y-61611745D01*
X136743785Y-61916047D01*
X136729241Y-62055909D01*
X136466292Y-62522726D01*
X136135909Y-62649242D01*
X135747837Y-62618270D01*
X135621022Y-62288761D01*
X135616363Y-62129696D01*
X135704860Y-61683193D01*
X136062941Y-61540743D01*
X136209696Y-61536364D01*
X136209696Y-60150909D01*
X134461818Y-60150909D01*
X134461818Y-61290422D01*
X134546235Y-62357163D01*
G37*
X134546235Y-62357163D02*
X134776401Y-63235316D01*
X135117685Y-63806962D01*
X135226718Y-63894946D01*
X135882505Y-64065610D01*
X136569532Y-63872746D01*
X136793121Y-63709898D01*
X137077610Y-63508835D01*
X137371679Y-63520776D01*
X137825884Y-63772796D01*
X138077178Y-63940807D01*
X138812785Y-64384752D01*
X139268546Y-64503520D01*
X139493792Y-64295842D01*
X139541194Y-63903182D01*
X139436356Y-63415390D01*
X139051108Y-63027836D01*
X138678010Y-62806364D01*
X138120334Y-62427229D01*
X137777117Y-62042275D01*
X137738066Y-61940455D01*
X137769813Y-61678422D01*
X138068632Y-61560205D01*
X138601250Y-61536364D01*
X139200492Y-61510272D01*
X139469616Y-61367546D01*
X139539887Y-61011506D01*
X139541818Y-60843636D01*
X139541818Y-60150909D01*
X136209696Y-60150909D01*
X136209696Y-61536364D01*
X136642177Y-61611745D01*
X136743785Y-61916047D01*
X136729241Y-62055909D01*
X136466292Y-62522726D01*
X136135909Y-62649242D01*
X135747837Y-62618270D01*
X135621022Y-62288761D01*
X135616363Y-62129696D01*
X135704860Y-61683193D01*
X136062941Y-61540743D01*
X136209696Y-61536364D01*
X136209696Y-60150909D01*
X134461818Y-60150909D01*
X134461818Y-61290422D01*
X134546235Y-62357163D01*
G36*
X134498292Y-55515091D02*
G01*
X134695944Y-55712549D01*
X135187122Y-55762543D01*
X135385454Y-55763636D01*
X136309091Y-55763636D01*
X136309091Y-57610909D01*
X135370117Y-57610909D01*
X134775193Y-57635044D01*
X134521424Y-57766253D01*
X134488531Y-58092738D01*
X134504208Y-58245909D01*
X134577272Y-58880909D01*
X137059545Y-58946448D01*
X139541818Y-59011988D01*
X139541818Y-58311448D01*
X139512352Y-57880722D01*
X139340367Y-57676720D01*
X138900487Y-57614916D01*
X138502727Y-57610909D01*
X137463636Y-57610909D01*
X137463636Y-55763636D01*
X138502727Y-55763636D01*
X139141680Y-55743555D01*
X139444309Y-55627610D01*
X139535944Y-55332247D01*
X139541818Y-55070909D01*
X139541818Y-54378182D01*
X134461818Y-54378182D01*
X134461818Y-55070909D01*
X134498292Y-55515091D01*
G37*
X134498292Y-55515091D02*
X134695944Y-55712549D01*
X135187122Y-55762543D01*
X135385454Y-55763636D01*
X136309091Y-55763636D01*
X136309091Y-57610909D01*
X135370117Y-57610909D01*
X134775193Y-57635044D01*
X134521424Y-57766253D01*
X134488531Y-58092738D01*
X134504208Y-58245909D01*
X134577272Y-58880909D01*
X137059545Y-58946448D01*
X139541818Y-59011988D01*
X139541818Y-58311448D01*
X139512352Y-57880722D01*
X139340367Y-57676720D01*
X138900487Y-57614916D01*
X138502727Y-57610909D01*
X137463636Y-57610909D01*
X137463636Y-55763636D01*
X138502727Y-55763636D01*
X139141680Y-55743555D01*
X139444309Y-55627610D01*
X139535944Y-55332247D01*
X139541818Y-55070909D01*
X139541818Y-54378182D01*
X134461818Y-54378182D01*
X134461818Y-55070909D01*
X134498292Y-55515091D01*
G36*
X129759720Y-53165909D02*
G01*
X130340303Y-53810177D01*
X130770803Y-54173828D01*
X131190181Y-54336427D01*
X131737399Y-54377537D01*
X131876992Y-54378182D01*
X132945133Y-54378182D01*
X131742149Y-53160067D01*
X130539166Y-51941952D01*
X131282657Y-51198461D01*
X132026148Y-50454971D01*
X133316738Y-51732094D01*
X134607328Y-53009218D01*
X137090599Y-52943245D01*
X139573871Y-52877273D01*
X138910209Y-52242273D01*
X138500821Y-51899175D01*
X138076390Y-51707457D01*
X137484816Y-51624410D01*
X136648614Y-51607273D01*
X135050680Y-51607273D01*
X133538189Y-50106372D01*
X132025698Y-48605470D01*
X128710588Y-51953636D01*
X129759720Y-53165909D01*
G37*
X129759720Y-53165909D02*
X130340303Y-53810177D01*
X130770803Y-54173828D01*
X131190181Y-54336427D01*
X131737399Y-54377537D01*
X131876992Y-54378182D01*
X132945133Y-54378182D01*
X131742149Y-53160067D01*
X130539166Y-51941952D01*
X131282657Y-51198461D01*
X132026148Y-50454971D01*
X133316738Y-51732094D01*
X134607328Y-53009218D01*
X137090599Y-52943245D01*
X139573871Y-52877273D01*
X138910209Y-52242273D01*
X138500821Y-51899175D01*
X138076390Y-51707457D01*
X137484816Y-51624410D01*
X136648614Y-51607273D01*
X135050680Y-51607273D01*
X133538189Y-50106372D01*
X132025698Y-48605470D01*
X128710588Y-51953636D01*
X129759720Y-53165909D01*
G36*
X95717061Y-127007674D02*
G01*
X96010566Y-128626873D01*
X96283059Y-130124181D01*
X96521903Y-131430633D01*
X96714460Y-132477259D01*
X96848094Y-133195094D01*
X96904934Y-133490455D01*
X97046903Y-133906115D01*
X97343737Y-134086503D01*
X97940165Y-134125455D01*
X98511956Y-134092207D01*
X98825211Y-134009347D01*
X98845454Y-133978460D01*
X98805176Y-133721645D01*
X98691475Y-133070160D01*
X98515055Y-132083428D01*
X98286618Y-130820871D01*
X98016866Y-129341910D01*
X97716503Y-127705968D01*
X97680952Y-127513005D01*
X96516451Y-121194545D01*
X97680952Y-114876085D01*
X97984688Y-113218936D01*
X98258889Y-111705430D01*
X98492789Y-110396410D01*
X98675622Y-109352720D01*
X98796622Y-108635203D01*
X98845022Y-108304700D01*
X98845454Y-108295176D01*
X98642454Y-108119803D01*
X98142268Y-108034437D01*
X98050900Y-108032727D01*
X97478993Y-108089543D01*
X97138719Y-108228272D01*
X97123514Y-108247653D01*
X97048696Y-108522829D01*
X96903827Y-109192306D01*
X96700815Y-110195899D01*
X96451566Y-111473422D01*
X96167990Y-112964689D01*
X95861994Y-114609515D01*
X95824906Y-114811236D01*
X94659130Y-121159894D01*
X95717061Y-127007674D01*
G37*
X95717061Y-127007674D02*
X96010566Y-128626873D01*
X96283059Y-130124181D01*
X96521903Y-131430633D01*
X96714460Y-132477259D01*
X96848094Y-133195094D01*
X96904934Y-133490455D01*
X97046903Y-133906115D01*
X97343737Y-134086503D01*
X97940165Y-134125455D01*
X98511956Y-134092207D01*
X98825211Y-134009347D01*
X98845454Y-133978460D01*
X98805176Y-133721645D01*
X98691475Y-133070160D01*
X98515055Y-132083428D01*
X98286618Y-130820871D01*
X98016866Y-129341910D01*
X97716503Y-127705968D01*
X97680952Y-127513005D01*
X96516451Y-121194545D01*
X97680952Y-114876085D01*
X97984688Y-113218936D01*
X98258889Y-111705430D01*
X98492789Y-110396410D01*
X98675622Y-109352720D01*
X98796622Y-108635203D01*
X98845022Y-108304700D01*
X98845454Y-108295176D01*
X98642454Y-108119803D01*
X98142268Y-108034437D01*
X98050900Y-108032727D01*
X97478993Y-108089543D01*
X97138719Y-108228272D01*
X97123514Y-108247653D01*
X97048696Y-108522829D01*
X96903827Y-109192306D01*
X96700815Y-110195899D01*
X96451566Y-111473422D01*
X96167990Y-112964689D01*
X95861994Y-114609515D01*
X95824906Y-114811236D01*
X94659130Y-121159894D01*
X95717061Y-127007674D01*
G36*
X100496136Y-129895429D02*
G01*
X100670983Y-130212548D01*
X101094195Y-130477470D01*
X101616363Y-130705401D01*
X102256220Y-130999891D01*
X102675473Y-131247657D01*
X102770909Y-131354545D01*
X102576068Y-131529365D01*
X102074721Y-131799208D01*
X101616363Y-132003690D01*
X100946186Y-132306606D01*
X100602406Y-132573805D01*
X100477186Y-132926784D01*
X100461818Y-133304476D01*
X100461818Y-134125455D01*
X105541818Y-134125455D01*
X105541818Y-133558298D01*
X105515048Y-133264735D01*
X105368948Y-133089308D01*
X105004829Y-132994585D01*
X104324002Y-132943132D01*
X103867727Y-132923298D01*
X102193636Y-132855455D01*
X103405909Y-132307474D01*
X104212638Y-131867728D01*
X104590872Y-131476133D01*
X104618181Y-131354545D01*
X104393411Y-130983463D01*
X103732945Y-130558569D01*
X103405909Y-130401617D01*
X102193636Y-129853636D01*
X103867727Y-129785793D01*
X104731043Y-129741738D01*
X105231377Y-129671965D01*
X105467418Y-129539041D01*
X105537853Y-129305533D01*
X105541818Y-129150793D01*
X105541818Y-128583636D01*
X100461818Y-128583636D01*
X100461818Y-129404615D01*
X100496136Y-129895429D01*
G37*
X100496136Y-129895429D02*
X100670983Y-130212548D01*
X101094195Y-130477470D01*
X101616363Y-130705401D01*
X102256220Y-130999891D01*
X102675473Y-131247657D01*
X102770909Y-131354545D01*
X102576068Y-131529365D01*
X102074721Y-131799208D01*
X101616363Y-132003690D01*
X100946186Y-132306606D01*
X100602406Y-132573805D01*
X100477186Y-132926784D01*
X100461818Y-133304476D01*
X100461818Y-134125455D01*
X105541818Y-134125455D01*
X105541818Y-133558298D01*
X105515048Y-133264735D01*
X105368948Y-133089308D01*
X105004829Y-132994585D01*
X104324002Y-132943132D01*
X103867727Y-132923298D01*
X102193636Y-132855455D01*
X103405909Y-132307474D01*
X104212638Y-131867728D01*
X104590872Y-131476133D01*
X104618181Y-131354545D01*
X104393411Y-130983463D01*
X103732945Y-130558569D01*
X103405909Y-130401617D01*
X102193636Y-129853636D01*
X103867727Y-129785793D01*
X104731043Y-129741738D01*
X105231377Y-129671965D01*
X105467418Y-129539041D01*
X105537853Y-129305533D01*
X105541818Y-129150793D01*
X105541818Y-128583636D01*
X100461818Y-128583636D01*
X100461818Y-129404615D01*
X100496136Y-129895429D01*
G36*
X100486845Y-126512665D02*
G01*
X100596570Y-127233746D01*
X100842964Y-127545510D01*
X101277993Y-127472067D01*
X101953626Y-127037529D01*
X102740129Y-126415182D01*
X103461922Y-125837411D01*
X104047470Y-125392447D01*
X104407237Y-125147299D01*
X104470704Y-125120000D01*
X104551485Y-125328873D01*
X104605052Y-125867658D01*
X104618181Y-126390000D01*
X104638226Y-127123931D01*
X104724894Y-127506267D01*
X104917981Y-127646455D01*
X105080000Y-127660000D01*
X105294643Y-127626875D01*
X105430110Y-127470391D01*
X105504437Y-127104881D01*
X105535658Y-126444679D01*
X105541818Y-125466364D01*
X105533022Y-124440998D01*
X105496120Y-123793239D01*
X105415343Y-123439040D01*
X105274919Y-123294356D01*
X105130205Y-123272727D01*
X104773596Y-123413733D01*
X104178026Y-123789794D01*
X103450873Y-124330471D01*
X103167477Y-124560215D01*
X101616363Y-125847703D01*
X101616363Y-124560215D01*
X101601850Y-123826626D01*
X101524744Y-123442405D01*
X101334701Y-123295266D01*
X101039091Y-123272727D01*
X100766199Y-123289188D01*
X100596586Y-123397714D01*
X100505696Y-123687020D01*
X100468969Y-124245821D01*
X100461850Y-125162833D01*
X100461818Y-125358156D01*
X100486845Y-126512665D01*
G37*
X100486845Y-126512665D02*
X100596570Y-127233746D01*
X100842964Y-127545510D01*
X101277993Y-127472067D01*
X101953626Y-127037529D01*
X102740129Y-126415182D01*
X103461922Y-125837411D01*
X104047470Y-125392447D01*
X104407237Y-125147299D01*
X104470704Y-125120000D01*
X104551485Y-125328873D01*
X104605052Y-125867658D01*
X104618181Y-126390000D01*
X104638226Y-127123931D01*
X104724894Y-127506267D01*
X104917981Y-127646455D01*
X105080000Y-127660000D01*
X105294643Y-127626875D01*
X105430110Y-127470391D01*
X105504437Y-127104881D01*
X105535658Y-126444679D01*
X105541818Y-125466364D01*
X105533022Y-124440998D01*
X105496120Y-123793239D01*
X105415343Y-123439040D01*
X105274919Y-123294356D01*
X105130205Y-123272727D01*
X104773596Y-123413733D01*
X104178026Y-123789794D01*
X103450873Y-124330471D01*
X103167477Y-124560215D01*
X101616363Y-125847703D01*
X101616363Y-124560215D01*
X101601850Y-123826626D01*
X101524744Y-123442405D01*
X101334701Y-123295266D01*
X101039091Y-123272727D01*
X100766199Y-123289188D01*
X100596586Y-123397714D01*
X100505696Y-123687020D01*
X100468969Y-124245821D01*
X100461850Y-125162833D01*
X100461818Y-125358156D01*
X100486845Y-126512665D01*
G36*
X100463106Y-118943182D02*
G01*
X100603587Y-120392018D01*
X101017315Y-121480493D01*
X101699123Y-122201492D01*
X102643840Y-122547900D01*
X103104872Y-122580000D01*
X104116709Y-122399507D01*
X104855900Y-121854574D01*
X105326202Y-120940015D01*
X105531370Y-119650647D01*
X105541818Y-119216786D01*
X105541818Y-117961818D01*
X103121672Y-117961818D01*
X103121672Y-119347273D01*
X104626980Y-119347273D01*
X104475287Y-119982273D01*
X104283473Y-120558327D01*
X104096250Y-120905909D01*
X103669201Y-121132366D01*
X103027147Y-121181523D01*
X102378403Y-121060684D01*
X101979220Y-120831688D01*
X101689040Y-120316415D01*
X101616363Y-119908052D01*
X101644690Y-119606819D01*
X101799044Y-119438836D01*
X102183485Y-119365337D01*
X102902073Y-119347557D01*
X103121672Y-119347273D01*
X103121672Y-117961818D01*
X100461818Y-117961818D01*
X100463106Y-118943182D01*
G37*
X100463106Y-118943182D02*
X100603587Y-120392018D01*
X101017315Y-121480493D01*
X101699123Y-122201492D01*
X102643840Y-122547900D01*
X103104872Y-122580000D01*
X104116709Y-122399507D01*
X104855900Y-121854574D01*
X105326202Y-120940015D01*
X105531370Y-119650647D01*
X105541818Y-119216786D01*
X105541818Y-117961818D01*
X103121672Y-117961818D01*
X103121672Y-119347273D01*
X104626980Y-119347273D01*
X104475287Y-119982273D01*
X104283473Y-120558327D01*
X104096250Y-120905909D01*
X103669201Y-121132366D01*
X103027147Y-121181523D01*
X102378403Y-121060684D01*
X101979220Y-120831688D01*
X101689040Y-120316415D01*
X101616363Y-119908052D01*
X101644690Y-119606819D01*
X101799044Y-119438836D01*
X102183485Y-119365337D01*
X102902073Y-119347557D01*
X103121672Y-119347273D01*
X103121672Y-117961818D01*
X100461818Y-117961818D01*
X100463106Y-118943182D01*
G36*
X100546235Y-114857163D02*
G01*
X100776401Y-115735316D01*
X101117685Y-116306962D01*
X101226718Y-116394946D01*
X101882505Y-116565610D01*
X102569532Y-116372746D01*
X102793121Y-116209898D01*
X103077610Y-116008835D01*
X103371679Y-116020776D01*
X103825884Y-116272796D01*
X104077178Y-116440807D01*
X104812785Y-116884752D01*
X105268546Y-117003520D01*
X105493792Y-116795842D01*
X105541194Y-116403182D01*
X105436356Y-115915390D01*
X105051108Y-115527836D01*
X104678010Y-115306364D01*
X104120334Y-114927229D01*
X103777117Y-114542275D01*
X103738066Y-114440455D01*
X103769813Y-114178422D01*
X104068632Y-114060205D01*
X104601250Y-114036364D01*
X105200492Y-114010272D01*
X105469616Y-113867546D01*
X105539887Y-113511506D01*
X105541818Y-113343636D01*
X105541818Y-112650909D01*
X102209696Y-112650909D01*
X102209696Y-114036364D01*
X102642177Y-114111745D01*
X102743785Y-114416047D01*
X102729241Y-114555909D01*
X102466292Y-115022726D01*
X102135909Y-115149242D01*
X101747837Y-115118270D01*
X101621022Y-114788761D01*
X101616363Y-114629696D01*
X101704860Y-114183193D01*
X102062941Y-114040743D01*
X102209696Y-114036364D01*
X102209696Y-112650909D01*
X100461818Y-112650909D01*
X100461818Y-113790422D01*
X100546235Y-114857163D01*
G37*
X100546235Y-114857163D02*
X100776401Y-115735316D01*
X101117685Y-116306962D01*
X101226718Y-116394946D01*
X101882505Y-116565610D01*
X102569532Y-116372746D01*
X102793121Y-116209898D01*
X103077610Y-116008835D01*
X103371679Y-116020776D01*
X103825884Y-116272796D01*
X104077178Y-116440807D01*
X104812785Y-116884752D01*
X105268546Y-117003520D01*
X105493792Y-116795842D01*
X105541194Y-116403182D01*
X105436356Y-115915390D01*
X105051108Y-115527836D01*
X104678010Y-115306364D01*
X104120334Y-114927229D01*
X103777117Y-114542275D01*
X103738066Y-114440455D01*
X103769813Y-114178422D01*
X104068632Y-114060205D01*
X104601250Y-114036364D01*
X105200492Y-114010272D01*
X105469616Y-113867546D01*
X105539887Y-113511506D01*
X105541818Y-113343636D01*
X105541818Y-112650909D01*
X102209696Y-112650909D01*
X102209696Y-114036364D01*
X102642177Y-114111745D01*
X102743785Y-114416047D01*
X102729241Y-114555909D01*
X102466292Y-115022726D01*
X102135909Y-115149242D01*
X101747837Y-115118270D01*
X101621022Y-114788761D01*
X101616363Y-114629696D01*
X101704860Y-114183193D01*
X102062941Y-114040743D01*
X102209696Y-114036364D01*
X102209696Y-112650909D01*
X100461818Y-112650909D01*
X100461818Y-113790422D01*
X100546235Y-114857163D01*
G36*
X100498292Y-108015091D02*
G01*
X100695944Y-108212549D01*
X101187122Y-108262543D01*
X101385454Y-108263636D01*
X102309091Y-108263636D01*
X102309091Y-110110909D01*
X101370117Y-110110909D01*
X100775193Y-110135044D01*
X100521424Y-110266253D01*
X100488531Y-110592738D01*
X100504208Y-110745909D01*
X100577272Y-111380909D01*
X103059545Y-111446448D01*
X105541818Y-111511988D01*
X105541818Y-110811448D01*
X105512352Y-110380722D01*
X105340367Y-110176720D01*
X104900487Y-110114916D01*
X104502727Y-110110909D01*
X103463636Y-110110909D01*
X103463636Y-108263636D01*
X104502727Y-108263636D01*
X105141680Y-108243555D01*
X105444309Y-108127610D01*
X105535944Y-107832247D01*
X105541818Y-107570909D01*
X105541818Y-106878182D01*
X100461818Y-106878182D01*
X100461818Y-107570909D01*
X100498292Y-108015091D01*
G37*
X100498292Y-108015091D02*
X100695944Y-108212549D01*
X101187122Y-108262543D01*
X101385454Y-108263636D01*
X102309091Y-108263636D01*
X102309091Y-110110909D01*
X101370117Y-110110909D01*
X100775193Y-110135044D01*
X100521424Y-110266253D01*
X100488531Y-110592738D01*
X100504208Y-110745909D01*
X100577272Y-111380909D01*
X103059545Y-111446448D01*
X105541818Y-111511988D01*
X105541818Y-110811448D01*
X105512352Y-110380722D01*
X105340367Y-110176720D01*
X104900487Y-110114916D01*
X104502727Y-110110909D01*
X103463636Y-110110909D01*
X103463636Y-108263636D01*
X104502727Y-108263636D01*
X105141680Y-108243555D01*
X105444309Y-108127610D01*
X105535944Y-107832247D01*
X105541818Y-107570909D01*
X105541818Y-106878182D01*
X100461818Y-106878182D01*
X100461818Y-107570909D01*
X100498292Y-108015091D01*
G36*
X95759720Y-105665909D02*
G01*
X96340303Y-106310177D01*
X96770803Y-106673828D01*
X97190181Y-106836427D01*
X97737399Y-106877537D01*
X97876992Y-106878182D01*
X98945133Y-106878182D01*
X97742149Y-105660067D01*
X96539166Y-104441952D01*
X97282657Y-103698461D01*
X98026148Y-102954971D01*
X99316738Y-104232094D01*
X100607328Y-105509218D01*
X103090599Y-105443245D01*
X105573871Y-105377273D01*
X104910209Y-104742273D01*
X104500821Y-104399175D01*
X104076390Y-104207457D01*
X103484816Y-104124410D01*
X102648614Y-104107273D01*
X101050680Y-104107273D01*
X99538189Y-102606372D01*
X98025698Y-101105470D01*
X94710588Y-104453636D01*
X95759720Y-105665909D01*
G37*
X95759720Y-105665909D02*
X96340303Y-106310177D01*
X96770803Y-106673828D01*
X97190181Y-106836427D01*
X97737399Y-106877537D01*
X97876992Y-106878182D01*
X98945133Y-106878182D01*
X97742149Y-105660067D01*
X96539166Y-104441952D01*
X97282657Y-103698461D01*
X98026148Y-102954971D01*
X99316738Y-104232094D01*
X100607328Y-105509218D01*
X103090599Y-105443245D01*
X105573871Y-105377273D01*
X104910209Y-104742273D01*
X104500821Y-104399175D01*
X104076390Y-104207457D01*
X103484816Y-104124410D01*
X102648614Y-104107273D01*
X101050680Y-104107273D01*
X99538189Y-102606372D01*
X98025698Y-101105470D01*
X94710588Y-104453636D01*
X95759720Y-105665909D01*
G36*
X95759720Y-53165909D02*
G01*
X96340303Y-53810177D01*
X96770803Y-54173828D01*
X97190181Y-54336427D01*
X97737399Y-54377537D01*
X97876992Y-54378182D01*
X98945133Y-54378182D01*
X97742149Y-53160067D01*
X96539166Y-51941952D01*
X97282657Y-51198461D01*
X98026148Y-50454971D01*
X99316738Y-51732094D01*
X100607328Y-53009218D01*
X103090599Y-52943245D01*
X105573871Y-52877273D01*
X104910209Y-52242273D01*
X104500821Y-51899175D01*
X104076390Y-51707457D01*
X103484816Y-51624410D01*
X102648614Y-51607273D01*
X101050680Y-51607273D01*
X99538189Y-50106372D01*
X98025698Y-48605470D01*
X94710588Y-51953636D01*
X95759720Y-53165909D01*
G37*
X95759720Y-53165909D02*
X96340303Y-53810177D01*
X96770803Y-54173828D01*
X97190181Y-54336427D01*
X97737399Y-54377537D01*
X97876992Y-54378182D01*
X98945133Y-54378182D01*
X97742149Y-53160067D01*
X96539166Y-51941952D01*
X97282657Y-51198461D01*
X98026148Y-50454971D01*
X99316738Y-51732094D01*
X100607328Y-53009218D01*
X103090599Y-52943245D01*
X105573871Y-52877273D01*
X104910209Y-52242273D01*
X104500821Y-51899175D01*
X104076390Y-51707457D01*
X103484816Y-51624410D01*
X102648614Y-51607273D01*
X101050680Y-51607273D01*
X99538189Y-50106372D01*
X98025698Y-48605470D01*
X94710588Y-51953636D01*
X95759720Y-53165909D01*
G36*
X100498292Y-55515091D02*
G01*
X100695944Y-55712549D01*
X101187122Y-55762543D01*
X101385454Y-55763636D01*
X102309091Y-55763636D01*
X102309091Y-57610909D01*
X101370117Y-57610909D01*
X100775193Y-57635044D01*
X100521424Y-57766253D01*
X100488531Y-58092738D01*
X100504208Y-58245909D01*
X100577272Y-58880909D01*
X103059545Y-58946448D01*
X105541818Y-59011988D01*
X105541818Y-58311448D01*
X105512352Y-57880722D01*
X105340367Y-57676720D01*
X104900487Y-57614916D01*
X104502727Y-57610909D01*
X103463636Y-57610909D01*
X103463636Y-55763636D01*
X104502727Y-55763636D01*
X105141680Y-55743555D01*
X105444309Y-55627610D01*
X105535944Y-55332247D01*
X105541818Y-55070909D01*
X105541818Y-54378182D01*
X100461818Y-54378182D01*
X100461818Y-55070909D01*
X100498292Y-55515091D01*
G37*
X100498292Y-55515091D02*
X100695944Y-55712549D01*
X101187122Y-55762543D01*
X101385454Y-55763636D01*
X102309091Y-55763636D01*
X102309091Y-57610909D01*
X101370117Y-57610909D01*
X100775193Y-57635044D01*
X100521424Y-57766253D01*
X100488531Y-58092738D01*
X100504208Y-58245909D01*
X100577272Y-58880909D01*
X103059545Y-58946448D01*
X105541818Y-59011988D01*
X105541818Y-58311448D01*
X105512352Y-57880722D01*
X105340367Y-57676720D01*
X104900487Y-57614916D01*
X104502727Y-57610909D01*
X103463636Y-57610909D01*
X103463636Y-55763636D01*
X104502727Y-55763636D01*
X105141680Y-55743555D01*
X105444309Y-55627610D01*
X105535944Y-55332247D01*
X105541818Y-55070909D01*
X105541818Y-54378182D01*
X100461818Y-54378182D01*
X100461818Y-55070909D01*
X100498292Y-55515091D01*
G36*
X100546235Y-62357163D02*
G01*
X100776401Y-63235316D01*
X101117685Y-63806962D01*
X101226718Y-63894946D01*
X101882505Y-64065610D01*
X102569532Y-63872746D01*
X102793121Y-63709898D01*
X103077610Y-63508835D01*
X103371679Y-63520776D01*
X103825884Y-63772796D01*
X104077178Y-63940807D01*
X104812785Y-64384752D01*
X105268546Y-64503520D01*
X105493792Y-64295842D01*
X105541194Y-63903182D01*
X105436356Y-63415390D01*
X105051108Y-63027836D01*
X104678010Y-62806364D01*
X104120334Y-62427229D01*
X103777117Y-62042275D01*
X103738066Y-61940455D01*
X103769813Y-61678422D01*
X104068632Y-61560205D01*
X104601250Y-61536364D01*
X105200492Y-61510272D01*
X105469616Y-61367546D01*
X105539887Y-61011506D01*
X105541818Y-60843636D01*
X105541818Y-60150909D01*
X102209696Y-60150909D01*
X102209696Y-61536364D01*
X102642177Y-61611745D01*
X102743785Y-61916047D01*
X102729241Y-62055909D01*
X102466292Y-62522726D01*
X102135909Y-62649242D01*
X101747837Y-62618270D01*
X101621022Y-62288761D01*
X101616363Y-62129696D01*
X101704860Y-61683193D01*
X102062941Y-61540743D01*
X102209696Y-61536364D01*
X102209696Y-60150909D01*
X100461818Y-60150909D01*
X100461818Y-61290422D01*
X100546235Y-62357163D01*
G37*
X100546235Y-62357163D02*
X100776401Y-63235316D01*
X101117685Y-63806962D01*
X101226718Y-63894946D01*
X101882505Y-64065610D01*
X102569532Y-63872746D01*
X102793121Y-63709898D01*
X103077610Y-63508835D01*
X103371679Y-63520776D01*
X103825884Y-63772796D01*
X104077178Y-63940807D01*
X104812785Y-64384752D01*
X105268546Y-64503520D01*
X105493792Y-64295842D01*
X105541194Y-63903182D01*
X105436356Y-63415390D01*
X105051108Y-63027836D01*
X104678010Y-62806364D01*
X104120334Y-62427229D01*
X103777117Y-62042275D01*
X103738066Y-61940455D01*
X103769813Y-61678422D01*
X104068632Y-61560205D01*
X104601250Y-61536364D01*
X105200492Y-61510272D01*
X105469616Y-61367546D01*
X105539887Y-61011506D01*
X105541818Y-60843636D01*
X105541818Y-60150909D01*
X102209696Y-60150909D01*
X102209696Y-61536364D01*
X102642177Y-61611745D01*
X102743785Y-61916047D01*
X102729241Y-62055909D01*
X102466292Y-62522726D01*
X102135909Y-62649242D01*
X101747837Y-62618270D01*
X101621022Y-62288761D01*
X101616363Y-62129696D01*
X101704860Y-61683193D01*
X102062941Y-61540743D01*
X102209696Y-61536364D01*
X102209696Y-60150909D01*
X100461818Y-60150909D01*
X100461818Y-61290422D01*
X100546235Y-62357163D01*
G36*
X100463106Y-66443182D02*
G01*
X100603587Y-67892018D01*
X101017315Y-68980493D01*
X101699123Y-69701492D01*
X102643840Y-70047900D01*
X103104872Y-70080000D01*
X104116709Y-69899507D01*
X104855900Y-69354574D01*
X105326202Y-68440015D01*
X105531370Y-67150647D01*
X105541818Y-66716786D01*
X105541818Y-65461818D01*
X103121672Y-65461818D01*
X103121672Y-66847273D01*
X104626980Y-66847273D01*
X104475287Y-67482273D01*
X104283473Y-68058327D01*
X104096250Y-68405909D01*
X103669201Y-68632366D01*
X103027147Y-68681523D01*
X102378403Y-68560684D01*
X101979220Y-68331688D01*
X101689040Y-67816415D01*
X101616363Y-67408052D01*
X101644690Y-67106819D01*
X101799044Y-66938836D01*
X102183485Y-66865337D01*
X102902073Y-66847557D01*
X103121672Y-66847273D01*
X103121672Y-65461818D01*
X100461818Y-65461818D01*
X100463106Y-66443182D01*
G37*
X100463106Y-66443182D02*
X100603587Y-67892018D01*
X101017315Y-68980493D01*
X101699123Y-69701492D01*
X102643840Y-70047900D01*
X103104872Y-70080000D01*
X104116709Y-69899507D01*
X104855900Y-69354574D01*
X105326202Y-68440015D01*
X105531370Y-67150647D01*
X105541818Y-66716786D01*
X105541818Y-65461818D01*
X103121672Y-65461818D01*
X103121672Y-66847273D01*
X104626980Y-66847273D01*
X104475287Y-67482273D01*
X104283473Y-68058327D01*
X104096250Y-68405909D01*
X103669201Y-68632366D01*
X103027147Y-68681523D01*
X102378403Y-68560684D01*
X101979220Y-68331688D01*
X101689040Y-67816415D01*
X101616363Y-67408052D01*
X101644690Y-67106819D01*
X101799044Y-66938836D01*
X102183485Y-66865337D01*
X102902073Y-66847557D01*
X103121672Y-66847273D01*
X103121672Y-65461818D01*
X100461818Y-65461818D01*
X100463106Y-66443182D01*
G36*
X100486845Y-74012665D02*
G01*
X100596570Y-74733746D01*
X100842964Y-75045510D01*
X101277993Y-74972067D01*
X101953626Y-74537529D01*
X102740129Y-73915182D01*
X103461922Y-73337411D01*
X104047470Y-72892447D01*
X104407237Y-72647299D01*
X104470704Y-72620000D01*
X104551485Y-72828873D01*
X104605052Y-73367658D01*
X104618181Y-73890000D01*
X104638226Y-74623931D01*
X104724894Y-75006267D01*
X104917981Y-75146455D01*
X105080000Y-75160000D01*
X105294643Y-75126875D01*
X105430110Y-74970391D01*
X105504437Y-74604881D01*
X105535658Y-73944679D01*
X105541818Y-72966364D01*
X105533022Y-71940998D01*
X105496120Y-71293239D01*
X105415343Y-70939040D01*
X105274919Y-70794356D01*
X105130205Y-70772727D01*
X104773596Y-70913733D01*
X104178026Y-71289794D01*
X103450873Y-71830471D01*
X103167477Y-72060215D01*
X101616363Y-73347703D01*
X101616363Y-72060215D01*
X101601850Y-71326626D01*
X101524744Y-70942405D01*
X101334701Y-70795266D01*
X101039091Y-70772727D01*
X100766199Y-70789188D01*
X100596586Y-70897714D01*
X100505696Y-71187020D01*
X100468969Y-71745821D01*
X100461850Y-72662833D01*
X100461818Y-72858156D01*
X100486845Y-74012665D01*
G37*
X100486845Y-74012665D02*
X100596570Y-74733746D01*
X100842964Y-75045510D01*
X101277993Y-74972067D01*
X101953626Y-74537529D01*
X102740129Y-73915182D01*
X103461922Y-73337411D01*
X104047470Y-72892447D01*
X104407237Y-72647299D01*
X104470704Y-72620000D01*
X104551485Y-72828873D01*
X104605052Y-73367658D01*
X104618181Y-73890000D01*
X104638226Y-74623931D01*
X104724894Y-75006267D01*
X104917981Y-75146455D01*
X105080000Y-75160000D01*
X105294643Y-75126875D01*
X105430110Y-74970391D01*
X105504437Y-74604881D01*
X105535658Y-73944679D01*
X105541818Y-72966364D01*
X105533022Y-71940998D01*
X105496120Y-71293239D01*
X105415343Y-70939040D01*
X105274919Y-70794356D01*
X105130205Y-70772727D01*
X104773596Y-70913733D01*
X104178026Y-71289794D01*
X103450873Y-71830471D01*
X103167477Y-72060215D01*
X101616363Y-73347703D01*
X101616363Y-72060215D01*
X101601850Y-71326626D01*
X101524744Y-70942405D01*
X101334701Y-70795266D01*
X101039091Y-70772727D01*
X100766199Y-70789188D01*
X100596586Y-70897714D01*
X100505696Y-71187020D01*
X100468969Y-71745821D01*
X100461850Y-72662833D01*
X100461818Y-72858156D01*
X100486845Y-74012665D01*
G36*
X100496136Y-77395429D02*
G01*
X100670983Y-77712548D01*
X101094195Y-77977470D01*
X101616363Y-78205401D01*
X102256220Y-78499891D01*
X102675473Y-78747657D01*
X102770909Y-78854545D01*
X102576068Y-79029365D01*
X102074721Y-79299208D01*
X101616363Y-79503690D01*
X100946186Y-79806606D01*
X100602406Y-80073805D01*
X100477186Y-80426784D01*
X100461818Y-80804476D01*
X100461818Y-81625455D01*
X105541818Y-81625455D01*
X105541818Y-81058298D01*
X105515048Y-80764735D01*
X105368948Y-80589308D01*
X105004829Y-80494585D01*
X104324002Y-80443132D01*
X103867727Y-80423298D01*
X102193636Y-80355455D01*
X103405909Y-79807474D01*
X104212638Y-79367728D01*
X104590872Y-78976133D01*
X104618181Y-78854545D01*
X104393411Y-78483463D01*
X103732945Y-78058569D01*
X103405909Y-77901617D01*
X102193636Y-77353636D01*
X103867727Y-77285793D01*
X104731043Y-77241738D01*
X105231377Y-77171965D01*
X105467418Y-77039041D01*
X105537853Y-76805533D01*
X105541818Y-76650793D01*
X105541818Y-76083636D01*
X100461818Y-76083636D01*
X100461818Y-76904615D01*
X100496136Y-77395429D01*
G37*
X100496136Y-77395429D02*
X100670983Y-77712548D01*
X101094195Y-77977470D01*
X101616363Y-78205401D01*
X102256220Y-78499891D01*
X102675473Y-78747657D01*
X102770909Y-78854545D01*
X102576068Y-79029365D01*
X102074721Y-79299208D01*
X101616363Y-79503690D01*
X100946186Y-79806606D01*
X100602406Y-80073805D01*
X100477186Y-80426784D01*
X100461818Y-80804476D01*
X100461818Y-81625455D01*
X105541818Y-81625455D01*
X105541818Y-81058298D01*
X105515048Y-80764735D01*
X105368948Y-80589308D01*
X105004829Y-80494585D01*
X104324002Y-80443132D01*
X103867727Y-80423298D01*
X102193636Y-80355455D01*
X103405909Y-79807474D01*
X104212638Y-79367728D01*
X104590872Y-78976133D01*
X104618181Y-78854545D01*
X104393411Y-78483463D01*
X103732945Y-78058569D01*
X103405909Y-77901617D01*
X102193636Y-77353636D01*
X103867727Y-77285793D01*
X104731043Y-77241738D01*
X105231377Y-77171965D01*
X105467418Y-77039041D01*
X105537853Y-76805533D01*
X105541818Y-76650793D01*
X105541818Y-76083636D01*
X100461818Y-76083636D01*
X100461818Y-76904615D01*
X100496136Y-77395429D01*
G36*
X95717061Y-74507674D02*
G01*
X96010566Y-76126873D01*
X96283059Y-77624181D01*
X96521903Y-78930633D01*
X96714460Y-79977259D01*
X96848094Y-80695094D01*
X96904934Y-80990455D01*
X97046903Y-81406115D01*
X97343737Y-81586503D01*
X97940165Y-81625455D01*
X98511956Y-81592207D01*
X98825211Y-81509347D01*
X98845454Y-81478460D01*
X98805176Y-81221645D01*
X98691475Y-80570160D01*
X98515055Y-79583428D01*
X98286618Y-78320871D01*
X98016866Y-76841910D01*
X97716503Y-75205968D01*
X97680952Y-75013005D01*
X96516451Y-68694545D01*
X97680952Y-62376085D01*
X97984688Y-60718936D01*
X98258889Y-59205430D01*
X98492789Y-57896410D01*
X98675622Y-56852720D01*
X98796622Y-56135203D01*
X98845022Y-55804700D01*
X98845454Y-55795176D01*
X98642454Y-55619803D01*
X98142268Y-55534437D01*
X98050900Y-55532727D01*
X97478993Y-55589543D01*
X97138719Y-55728272D01*
X97123514Y-55747653D01*
X97048696Y-56022829D01*
X96903827Y-56692306D01*
X96700815Y-57695899D01*
X96451566Y-58973422D01*
X96167990Y-60464689D01*
X95861994Y-62109515D01*
X95824906Y-62311236D01*
X94659130Y-68659894D01*
X95717061Y-74507674D01*
G37*
X95717061Y-74507674D02*
X96010566Y-76126873D01*
X96283059Y-77624181D01*
X96521903Y-78930633D01*
X96714460Y-79977259D01*
X96848094Y-80695094D01*
X96904934Y-80990455D01*
X97046903Y-81406115D01*
X97343737Y-81586503D01*
X97940165Y-81625455D01*
X98511956Y-81592207D01*
X98825211Y-81509347D01*
X98845454Y-81478460D01*
X98805176Y-81221645D01*
X98691475Y-80570160D01*
X98515055Y-79583428D01*
X98286618Y-78320871D01*
X98016866Y-76841910D01*
X97716503Y-75205968D01*
X97680952Y-75013005D01*
X96516451Y-68694545D01*
X97680952Y-62376085D01*
X97984688Y-60718936D01*
X98258889Y-59205430D01*
X98492789Y-57896410D01*
X98675622Y-56852720D01*
X98796622Y-56135203D01*
X98845022Y-55804700D01*
X98845454Y-55795176D01*
X98642454Y-55619803D01*
X98142268Y-55534437D01*
X98050900Y-55532727D01*
X97478993Y-55589543D01*
X97138719Y-55728272D01*
X97123514Y-55747653D01*
X97048696Y-56022829D01*
X96903827Y-56692306D01*
X96700815Y-57695899D01*
X96451566Y-58973422D01*
X96167990Y-60464689D01*
X95861994Y-62109515D01*
X95824906Y-62311236D01*
X94659130Y-68659894D01*
X95717061Y-74507674D01*
G36*
X61759720Y-105665909D02*
G01*
X62340303Y-106310177D01*
X62770803Y-106673828D01*
X63190181Y-106836427D01*
X63737399Y-106877537D01*
X63876992Y-106878182D01*
X64945133Y-106878182D01*
X63742149Y-105660067D01*
X62539166Y-104441952D01*
X63282657Y-103698461D01*
X64026148Y-102954971D01*
X65316738Y-104232094D01*
X66607328Y-105509218D01*
X69090599Y-105443245D01*
X71573871Y-105377273D01*
X70910209Y-104742273D01*
X70500821Y-104399175D01*
X70076390Y-104207457D01*
X69484816Y-104124410D01*
X68648614Y-104107273D01*
X67050680Y-104107273D01*
X65538189Y-102606372D01*
X64025698Y-101105470D01*
X60710588Y-104453636D01*
X61759720Y-105665909D01*
G37*
X61759720Y-105665909D02*
X62340303Y-106310177D01*
X62770803Y-106673828D01*
X63190181Y-106836427D01*
X63737399Y-106877537D01*
X63876992Y-106878182D01*
X64945133Y-106878182D01*
X63742149Y-105660067D01*
X62539166Y-104441952D01*
X63282657Y-103698461D01*
X64026148Y-102954971D01*
X65316738Y-104232094D01*
X66607328Y-105509218D01*
X69090599Y-105443245D01*
X71573871Y-105377273D01*
X70910209Y-104742273D01*
X70500821Y-104399175D01*
X70076390Y-104207457D01*
X69484816Y-104124410D01*
X68648614Y-104107273D01*
X67050680Y-104107273D01*
X65538189Y-102606372D01*
X64025698Y-101105470D01*
X60710588Y-104453636D01*
X61759720Y-105665909D01*
G36*
X66498292Y-108015091D02*
G01*
X66695944Y-108212549D01*
X67187122Y-108262543D01*
X67385454Y-108263636D01*
X68309091Y-108263636D01*
X68309091Y-110110909D01*
X67370117Y-110110909D01*
X66775193Y-110135044D01*
X66521424Y-110266253D01*
X66488531Y-110592738D01*
X66504208Y-110745909D01*
X66577272Y-111380909D01*
X69059545Y-111446448D01*
X71541818Y-111511988D01*
X71541818Y-110811448D01*
X71512352Y-110380722D01*
X71340367Y-110176720D01*
X70900487Y-110114916D01*
X70502727Y-110110909D01*
X69463636Y-110110909D01*
X69463636Y-108263636D01*
X70502727Y-108263636D01*
X71141680Y-108243555D01*
X71444309Y-108127610D01*
X71535944Y-107832247D01*
X71541818Y-107570909D01*
X71541818Y-106878182D01*
X66461818Y-106878182D01*
X66461818Y-107570909D01*
X66498292Y-108015091D01*
G37*
X66498292Y-108015091D02*
X66695944Y-108212549D01*
X67187122Y-108262543D01*
X67385454Y-108263636D01*
X68309091Y-108263636D01*
X68309091Y-110110909D01*
X67370117Y-110110909D01*
X66775193Y-110135044D01*
X66521424Y-110266253D01*
X66488531Y-110592738D01*
X66504208Y-110745909D01*
X66577272Y-111380909D01*
X69059545Y-111446448D01*
X71541818Y-111511988D01*
X71541818Y-110811448D01*
X71512352Y-110380722D01*
X71340367Y-110176720D01*
X70900487Y-110114916D01*
X70502727Y-110110909D01*
X69463636Y-110110909D01*
X69463636Y-108263636D01*
X70502727Y-108263636D01*
X71141680Y-108243555D01*
X71444309Y-108127610D01*
X71535944Y-107832247D01*
X71541818Y-107570909D01*
X71541818Y-106878182D01*
X66461818Y-106878182D01*
X66461818Y-107570909D01*
X66498292Y-108015091D01*
G36*
X66546235Y-114857163D02*
G01*
X66776401Y-115735316D01*
X67117685Y-116306962D01*
X67226718Y-116394946D01*
X67882505Y-116565610D01*
X68569532Y-116372746D01*
X68793121Y-116209898D01*
X69077610Y-116008835D01*
X69371679Y-116020776D01*
X69825884Y-116272796D01*
X70077178Y-116440807D01*
X70812785Y-116884752D01*
X71268546Y-117003520D01*
X71493792Y-116795842D01*
X71541194Y-116403182D01*
X71436356Y-115915390D01*
X71051108Y-115527836D01*
X70678010Y-115306364D01*
X70120334Y-114927229D01*
X69777117Y-114542275D01*
X69738066Y-114440455D01*
X69769813Y-114178422D01*
X70068632Y-114060205D01*
X70601250Y-114036364D01*
X71200492Y-114010272D01*
X71469616Y-113867546D01*
X71539887Y-113511506D01*
X71541818Y-113343636D01*
X71541818Y-112650909D01*
X68209696Y-112650909D01*
X68209696Y-114036364D01*
X68642177Y-114111745D01*
X68743785Y-114416047D01*
X68729241Y-114555909D01*
X68466292Y-115022726D01*
X68135909Y-115149242D01*
X67747837Y-115118270D01*
X67621022Y-114788761D01*
X67616363Y-114629696D01*
X67704860Y-114183193D01*
X68062941Y-114040743D01*
X68209696Y-114036364D01*
X68209696Y-112650909D01*
X66461818Y-112650909D01*
X66461818Y-113790422D01*
X66546235Y-114857163D01*
G37*
X66546235Y-114857163D02*
X66776401Y-115735316D01*
X67117685Y-116306962D01*
X67226718Y-116394946D01*
X67882505Y-116565610D01*
X68569532Y-116372746D01*
X68793121Y-116209898D01*
X69077610Y-116008835D01*
X69371679Y-116020776D01*
X69825884Y-116272796D01*
X70077178Y-116440807D01*
X70812785Y-116884752D01*
X71268546Y-117003520D01*
X71493792Y-116795842D01*
X71541194Y-116403182D01*
X71436356Y-115915390D01*
X71051108Y-115527836D01*
X70678010Y-115306364D01*
X70120334Y-114927229D01*
X69777117Y-114542275D01*
X69738066Y-114440455D01*
X69769813Y-114178422D01*
X70068632Y-114060205D01*
X70601250Y-114036364D01*
X71200492Y-114010272D01*
X71469616Y-113867546D01*
X71539887Y-113511506D01*
X71541818Y-113343636D01*
X71541818Y-112650909D01*
X68209696Y-112650909D01*
X68209696Y-114036364D01*
X68642177Y-114111745D01*
X68743785Y-114416047D01*
X68729241Y-114555909D01*
X68466292Y-115022726D01*
X68135909Y-115149242D01*
X67747837Y-115118270D01*
X67621022Y-114788761D01*
X67616363Y-114629696D01*
X67704860Y-114183193D01*
X68062941Y-114040743D01*
X68209696Y-114036364D01*
X68209696Y-112650909D01*
X66461818Y-112650909D01*
X66461818Y-113790422D01*
X66546235Y-114857163D01*
G36*
X66463106Y-118943182D02*
G01*
X66603587Y-120392018D01*
X67017315Y-121480493D01*
X67699123Y-122201492D01*
X68643840Y-122547900D01*
X69104872Y-122580000D01*
X70116709Y-122399507D01*
X70855900Y-121854574D01*
X71326202Y-120940015D01*
X71531370Y-119650647D01*
X71541818Y-119216786D01*
X71541818Y-117961818D01*
X69121672Y-117961818D01*
X69121672Y-119347273D01*
X70626980Y-119347273D01*
X70475287Y-119982273D01*
X70283473Y-120558327D01*
X70096250Y-120905909D01*
X69669201Y-121132366D01*
X69027147Y-121181523D01*
X68378403Y-121060684D01*
X67979220Y-120831688D01*
X67689040Y-120316415D01*
X67616363Y-119908052D01*
X67644690Y-119606819D01*
X67799044Y-119438836D01*
X68183485Y-119365337D01*
X68902073Y-119347557D01*
X69121672Y-119347273D01*
X69121672Y-117961818D01*
X66461818Y-117961818D01*
X66463106Y-118943182D01*
G37*
X66463106Y-118943182D02*
X66603587Y-120392018D01*
X67017315Y-121480493D01*
X67699123Y-122201492D01*
X68643840Y-122547900D01*
X69104872Y-122580000D01*
X70116709Y-122399507D01*
X70855900Y-121854574D01*
X71326202Y-120940015D01*
X71531370Y-119650647D01*
X71541818Y-119216786D01*
X71541818Y-117961818D01*
X69121672Y-117961818D01*
X69121672Y-119347273D01*
X70626980Y-119347273D01*
X70475287Y-119982273D01*
X70283473Y-120558327D01*
X70096250Y-120905909D01*
X69669201Y-121132366D01*
X69027147Y-121181523D01*
X68378403Y-121060684D01*
X67979220Y-120831688D01*
X67689040Y-120316415D01*
X67616363Y-119908052D01*
X67644690Y-119606819D01*
X67799044Y-119438836D01*
X68183485Y-119365337D01*
X68902073Y-119347557D01*
X69121672Y-119347273D01*
X69121672Y-117961818D01*
X66461818Y-117961818D01*
X66463106Y-118943182D01*
G36*
X66486845Y-126512665D02*
G01*
X66596570Y-127233746D01*
X66842964Y-127545510D01*
X67277993Y-127472067D01*
X67953626Y-127037529D01*
X68740129Y-126415182D01*
X69461922Y-125837411D01*
X70047470Y-125392447D01*
X70407237Y-125147299D01*
X70470704Y-125120000D01*
X70551485Y-125328873D01*
X70605052Y-125867658D01*
X70618181Y-126390000D01*
X70638226Y-127123931D01*
X70724894Y-127506267D01*
X70917981Y-127646455D01*
X71080000Y-127660000D01*
X71294643Y-127626875D01*
X71430110Y-127470391D01*
X71504437Y-127104881D01*
X71535658Y-126444679D01*
X71541818Y-125466364D01*
X71533022Y-124440998D01*
X71496120Y-123793239D01*
X71415343Y-123439040D01*
X71274919Y-123294356D01*
X71130205Y-123272727D01*
X70773596Y-123413733D01*
X70178026Y-123789794D01*
X69450873Y-124330471D01*
X69167477Y-124560215D01*
X67616363Y-125847703D01*
X67616363Y-124560215D01*
X67601850Y-123826626D01*
X67524744Y-123442405D01*
X67334701Y-123295266D01*
X67039091Y-123272727D01*
X66766199Y-123289188D01*
X66596586Y-123397714D01*
X66505696Y-123687020D01*
X66468969Y-124245821D01*
X66461850Y-125162833D01*
X66461818Y-125358156D01*
X66486845Y-126512665D01*
G37*
X66486845Y-126512665D02*
X66596570Y-127233746D01*
X66842964Y-127545510D01*
X67277993Y-127472067D01*
X67953626Y-127037529D01*
X68740129Y-126415182D01*
X69461922Y-125837411D01*
X70047470Y-125392447D01*
X70407237Y-125147299D01*
X70470704Y-125120000D01*
X70551485Y-125328873D01*
X70605052Y-125867658D01*
X70618181Y-126390000D01*
X70638226Y-127123931D01*
X70724894Y-127506267D01*
X70917981Y-127646455D01*
X71080000Y-127660000D01*
X71294643Y-127626875D01*
X71430110Y-127470391D01*
X71504437Y-127104881D01*
X71535658Y-126444679D01*
X71541818Y-125466364D01*
X71533022Y-124440998D01*
X71496120Y-123793239D01*
X71415343Y-123439040D01*
X71274919Y-123294356D01*
X71130205Y-123272727D01*
X70773596Y-123413733D01*
X70178026Y-123789794D01*
X69450873Y-124330471D01*
X69167477Y-124560215D01*
X67616363Y-125847703D01*
X67616363Y-124560215D01*
X67601850Y-123826626D01*
X67524744Y-123442405D01*
X67334701Y-123295266D01*
X67039091Y-123272727D01*
X66766199Y-123289188D01*
X66596586Y-123397714D01*
X66505696Y-123687020D01*
X66468969Y-124245821D01*
X66461850Y-125162833D01*
X66461818Y-125358156D01*
X66486845Y-126512665D01*
G36*
X66496136Y-129895429D02*
G01*
X66670983Y-130212548D01*
X67094195Y-130477470D01*
X67616363Y-130705401D01*
X68256220Y-130999891D01*
X68675473Y-131247657D01*
X68770909Y-131354545D01*
X68576068Y-131529365D01*
X68074721Y-131799208D01*
X67616363Y-132003690D01*
X66946186Y-132306606D01*
X66602406Y-132573805D01*
X66477186Y-132926784D01*
X66461818Y-133304476D01*
X66461818Y-134125455D01*
X71541818Y-134125455D01*
X71541818Y-133558298D01*
X71515048Y-133264735D01*
X71368948Y-133089308D01*
X71004829Y-132994585D01*
X70324002Y-132943132D01*
X69867727Y-132923298D01*
X68193636Y-132855455D01*
X69405909Y-132307474D01*
X70212638Y-131867728D01*
X70590872Y-131476133D01*
X70618181Y-131354545D01*
X70393411Y-130983463D01*
X69732945Y-130558569D01*
X69405909Y-130401617D01*
X68193636Y-129853636D01*
X69867727Y-129785793D01*
X70731043Y-129741738D01*
X71231377Y-129671965D01*
X71467418Y-129539041D01*
X71537853Y-129305533D01*
X71541818Y-129150793D01*
X71541818Y-128583636D01*
X66461818Y-128583636D01*
X66461818Y-129404615D01*
X66496136Y-129895429D01*
G37*
X66496136Y-129895429D02*
X66670983Y-130212548D01*
X67094195Y-130477470D01*
X67616363Y-130705401D01*
X68256220Y-130999891D01*
X68675473Y-131247657D01*
X68770909Y-131354545D01*
X68576068Y-131529365D01*
X68074721Y-131799208D01*
X67616363Y-132003690D01*
X66946186Y-132306606D01*
X66602406Y-132573805D01*
X66477186Y-132926784D01*
X66461818Y-133304476D01*
X66461818Y-134125455D01*
X71541818Y-134125455D01*
X71541818Y-133558298D01*
X71515048Y-133264735D01*
X71368948Y-133089308D01*
X71004829Y-132994585D01*
X70324002Y-132943132D01*
X69867727Y-132923298D01*
X68193636Y-132855455D01*
X69405909Y-132307474D01*
X70212638Y-131867728D01*
X70590872Y-131476133D01*
X70618181Y-131354545D01*
X70393411Y-130983463D01*
X69732945Y-130558569D01*
X69405909Y-130401617D01*
X68193636Y-129853636D01*
X69867727Y-129785793D01*
X70731043Y-129741738D01*
X71231377Y-129671965D01*
X71467418Y-129539041D01*
X71537853Y-129305533D01*
X71541818Y-129150793D01*
X71541818Y-128583636D01*
X66461818Y-128583636D01*
X66461818Y-129404615D01*
X66496136Y-129895429D01*
G36*
X61717061Y-127007674D02*
G01*
X62010566Y-128626873D01*
X62283059Y-130124181D01*
X62521903Y-131430633D01*
X62714460Y-132477259D01*
X62848094Y-133195094D01*
X62904934Y-133490455D01*
X63046903Y-133906115D01*
X63343737Y-134086503D01*
X63940165Y-134125455D01*
X64511956Y-134092207D01*
X64825211Y-134009347D01*
X64845454Y-133978460D01*
X64805176Y-133721645D01*
X64691475Y-133070160D01*
X64515055Y-132083428D01*
X64286618Y-130820871D01*
X64016866Y-129341910D01*
X63716503Y-127705968D01*
X63680952Y-127513005D01*
X62516451Y-121194545D01*
X63680952Y-114876085D01*
X63984688Y-113218936D01*
X64258889Y-111705430D01*
X64492789Y-110396410D01*
X64675622Y-109352720D01*
X64796622Y-108635203D01*
X64845022Y-108304700D01*
X64845454Y-108295176D01*
X64642454Y-108119803D01*
X64142268Y-108034437D01*
X64050900Y-108032727D01*
X63478993Y-108089543D01*
X63138719Y-108228272D01*
X63123514Y-108247653D01*
X63048696Y-108522829D01*
X62903827Y-109192306D01*
X62700815Y-110195899D01*
X62451566Y-111473422D01*
X62167990Y-112964689D01*
X61861994Y-114609515D01*
X61824906Y-114811236D01*
X60659130Y-121159894D01*
X61717061Y-127007674D01*
G37*
X61717061Y-127007674D02*
X62010566Y-128626873D01*
X62283059Y-130124181D01*
X62521903Y-131430633D01*
X62714460Y-132477259D01*
X62848094Y-133195094D01*
X62904934Y-133490455D01*
X63046903Y-133906115D01*
X63343737Y-134086503D01*
X63940165Y-134125455D01*
X64511956Y-134092207D01*
X64825211Y-134009347D01*
X64845454Y-133978460D01*
X64805176Y-133721645D01*
X64691475Y-133070160D01*
X64515055Y-132083428D01*
X64286618Y-130820871D01*
X64016866Y-129341910D01*
X63716503Y-127705968D01*
X63680952Y-127513005D01*
X62516451Y-121194545D01*
X63680952Y-114876085D01*
X63984688Y-113218936D01*
X64258889Y-111705430D01*
X64492789Y-110396410D01*
X64675622Y-109352720D01*
X64796622Y-108635203D01*
X64845022Y-108304700D01*
X64845454Y-108295176D01*
X64642454Y-108119803D01*
X64142268Y-108034437D01*
X64050900Y-108032727D01*
X63478993Y-108089543D01*
X63138719Y-108228272D01*
X63123514Y-108247653D01*
X63048696Y-108522829D01*
X62903827Y-109192306D01*
X62700815Y-110195899D01*
X62451566Y-111473422D01*
X62167990Y-112964689D01*
X61861994Y-114609515D01*
X61824906Y-114811236D01*
X60659130Y-121159894D01*
X61717061Y-127007674D01*
G36*
X61717061Y-74507674D02*
G01*
X62010566Y-76126873D01*
X62283059Y-77624181D01*
X62521903Y-78930633D01*
X62714460Y-79977259D01*
X62848094Y-80695094D01*
X62904934Y-80990455D01*
X63046903Y-81406115D01*
X63343737Y-81586503D01*
X63940165Y-81625455D01*
X64511956Y-81592207D01*
X64825211Y-81509347D01*
X64845454Y-81478460D01*
X64805176Y-81221645D01*
X64691475Y-80570160D01*
X64515055Y-79583428D01*
X64286618Y-78320871D01*
X64016866Y-76841910D01*
X63716503Y-75205968D01*
X63680952Y-75013005D01*
X62516451Y-68694545D01*
X63680952Y-62376085D01*
X63984688Y-60718936D01*
X64258889Y-59205430D01*
X64492789Y-57896410D01*
X64675622Y-56852720D01*
X64796622Y-56135203D01*
X64845022Y-55804700D01*
X64845454Y-55795176D01*
X64642454Y-55619803D01*
X64142268Y-55534437D01*
X64050900Y-55532727D01*
X63478993Y-55589543D01*
X63138719Y-55728272D01*
X63123514Y-55747653D01*
X63048696Y-56022829D01*
X62903827Y-56692306D01*
X62700815Y-57695899D01*
X62451566Y-58973422D01*
X62167990Y-60464689D01*
X61861994Y-62109515D01*
X61824906Y-62311236D01*
X60659130Y-68659894D01*
X61717061Y-74507674D01*
G37*
X61717061Y-74507674D02*
X62010566Y-76126873D01*
X62283059Y-77624181D01*
X62521903Y-78930633D01*
X62714460Y-79977259D01*
X62848094Y-80695094D01*
X62904934Y-80990455D01*
X63046903Y-81406115D01*
X63343737Y-81586503D01*
X63940165Y-81625455D01*
X64511956Y-81592207D01*
X64825211Y-81509347D01*
X64845454Y-81478460D01*
X64805176Y-81221645D01*
X64691475Y-80570160D01*
X64515055Y-79583428D01*
X64286618Y-78320871D01*
X64016866Y-76841910D01*
X63716503Y-75205968D01*
X63680952Y-75013005D01*
X62516451Y-68694545D01*
X63680952Y-62376085D01*
X63984688Y-60718936D01*
X64258889Y-59205430D01*
X64492789Y-57896410D01*
X64675622Y-56852720D01*
X64796622Y-56135203D01*
X64845022Y-55804700D01*
X64845454Y-55795176D01*
X64642454Y-55619803D01*
X64142268Y-55534437D01*
X64050900Y-55532727D01*
X63478993Y-55589543D01*
X63138719Y-55728272D01*
X63123514Y-55747653D01*
X63048696Y-56022829D01*
X62903827Y-56692306D01*
X62700815Y-57695899D01*
X62451566Y-58973422D01*
X62167990Y-60464689D01*
X61861994Y-62109515D01*
X61824906Y-62311236D01*
X60659130Y-68659894D01*
X61717061Y-74507674D01*
G36*
X66496136Y-77395429D02*
G01*
X66670983Y-77712548D01*
X67094195Y-77977470D01*
X67616363Y-78205401D01*
X68256220Y-78499891D01*
X68675473Y-78747657D01*
X68770909Y-78854545D01*
X68576068Y-79029365D01*
X68074721Y-79299208D01*
X67616363Y-79503690D01*
X66946186Y-79806606D01*
X66602406Y-80073805D01*
X66477186Y-80426784D01*
X66461818Y-80804476D01*
X66461818Y-81625455D01*
X71541818Y-81625455D01*
X71541818Y-81058298D01*
X71515048Y-80764735D01*
X71368948Y-80589308D01*
X71004829Y-80494585D01*
X70324002Y-80443132D01*
X69867727Y-80423298D01*
X68193636Y-80355455D01*
X69405909Y-79807474D01*
X70212638Y-79367728D01*
X70590872Y-78976133D01*
X70618181Y-78854545D01*
X70393411Y-78483463D01*
X69732945Y-78058569D01*
X69405909Y-77901617D01*
X68193636Y-77353636D01*
X69867727Y-77285793D01*
X70731043Y-77241738D01*
X71231377Y-77171965D01*
X71467418Y-77039041D01*
X71537853Y-76805533D01*
X71541818Y-76650793D01*
X71541818Y-76083636D01*
X66461818Y-76083636D01*
X66461818Y-76904615D01*
X66496136Y-77395429D01*
G37*
X66496136Y-77395429D02*
X66670983Y-77712548D01*
X67094195Y-77977470D01*
X67616363Y-78205401D01*
X68256220Y-78499891D01*
X68675473Y-78747657D01*
X68770909Y-78854545D01*
X68576068Y-79029365D01*
X68074721Y-79299208D01*
X67616363Y-79503690D01*
X66946186Y-79806606D01*
X66602406Y-80073805D01*
X66477186Y-80426784D01*
X66461818Y-80804476D01*
X66461818Y-81625455D01*
X71541818Y-81625455D01*
X71541818Y-81058298D01*
X71515048Y-80764735D01*
X71368948Y-80589308D01*
X71004829Y-80494585D01*
X70324002Y-80443132D01*
X69867727Y-80423298D01*
X68193636Y-80355455D01*
X69405909Y-79807474D01*
X70212638Y-79367728D01*
X70590872Y-78976133D01*
X70618181Y-78854545D01*
X70393411Y-78483463D01*
X69732945Y-78058569D01*
X69405909Y-77901617D01*
X68193636Y-77353636D01*
X69867727Y-77285793D01*
X70731043Y-77241738D01*
X71231377Y-77171965D01*
X71467418Y-77039041D01*
X71537853Y-76805533D01*
X71541818Y-76650793D01*
X71541818Y-76083636D01*
X66461818Y-76083636D01*
X66461818Y-76904615D01*
X66496136Y-77395429D01*
G36*
X66486845Y-74012665D02*
G01*
X66596570Y-74733746D01*
X66842964Y-75045510D01*
X67277993Y-74972067D01*
X67953626Y-74537529D01*
X68740129Y-73915182D01*
X69461922Y-73337411D01*
X70047470Y-72892447D01*
X70407237Y-72647299D01*
X70470704Y-72620000D01*
X70551485Y-72828873D01*
X70605052Y-73367658D01*
X70618181Y-73890000D01*
X70638226Y-74623931D01*
X70724894Y-75006267D01*
X70917981Y-75146455D01*
X71080000Y-75160000D01*
X71294643Y-75126875D01*
X71430110Y-74970391D01*
X71504437Y-74604881D01*
X71535658Y-73944679D01*
X71541818Y-72966364D01*
X71533022Y-71940998D01*
X71496120Y-71293239D01*
X71415343Y-70939040D01*
X71274919Y-70794356D01*
X71130205Y-70772727D01*
X70773596Y-70913733D01*
X70178026Y-71289794D01*
X69450873Y-71830471D01*
X69167477Y-72060215D01*
X67616363Y-73347703D01*
X67616363Y-72060215D01*
X67601850Y-71326626D01*
X67524744Y-70942405D01*
X67334701Y-70795266D01*
X67039091Y-70772727D01*
X66766199Y-70789188D01*
X66596586Y-70897714D01*
X66505696Y-71187020D01*
X66468969Y-71745821D01*
X66461850Y-72662833D01*
X66461818Y-72858156D01*
X66486845Y-74012665D01*
G37*
X66486845Y-74012665D02*
X66596570Y-74733746D01*
X66842964Y-75045510D01*
X67277993Y-74972067D01*
X67953626Y-74537529D01*
X68740129Y-73915182D01*
X69461922Y-73337411D01*
X70047470Y-72892447D01*
X70407237Y-72647299D01*
X70470704Y-72620000D01*
X70551485Y-72828873D01*
X70605052Y-73367658D01*
X70618181Y-73890000D01*
X70638226Y-74623931D01*
X70724894Y-75006267D01*
X70917981Y-75146455D01*
X71080000Y-75160000D01*
X71294643Y-75126875D01*
X71430110Y-74970391D01*
X71504437Y-74604881D01*
X71535658Y-73944679D01*
X71541818Y-72966364D01*
X71533022Y-71940998D01*
X71496120Y-71293239D01*
X71415343Y-70939040D01*
X71274919Y-70794356D01*
X71130205Y-70772727D01*
X70773596Y-70913733D01*
X70178026Y-71289794D01*
X69450873Y-71830471D01*
X69167477Y-72060215D01*
X67616363Y-73347703D01*
X67616363Y-72060215D01*
X67601850Y-71326626D01*
X67524744Y-70942405D01*
X67334701Y-70795266D01*
X67039091Y-70772727D01*
X66766199Y-70789188D01*
X66596586Y-70897714D01*
X66505696Y-71187020D01*
X66468969Y-71745821D01*
X66461850Y-72662833D01*
X66461818Y-72858156D01*
X66486845Y-74012665D01*
G36*
X66463106Y-66443182D02*
G01*
X66603587Y-67892018D01*
X67017315Y-68980493D01*
X67699123Y-69701492D01*
X68643840Y-70047900D01*
X69104872Y-70080000D01*
X70116709Y-69899507D01*
X70855900Y-69354574D01*
X71326202Y-68440015D01*
X71531370Y-67150647D01*
X71541818Y-66716786D01*
X71541818Y-65461818D01*
X69121672Y-65461818D01*
X69121672Y-66847273D01*
X70626980Y-66847273D01*
X70475287Y-67482273D01*
X70283473Y-68058327D01*
X70096250Y-68405909D01*
X69669201Y-68632366D01*
X69027147Y-68681523D01*
X68378403Y-68560684D01*
X67979220Y-68331688D01*
X67689040Y-67816415D01*
X67616363Y-67408052D01*
X67644690Y-67106819D01*
X67799044Y-66938836D01*
X68183485Y-66865337D01*
X68902073Y-66847557D01*
X69121672Y-66847273D01*
X69121672Y-65461818D01*
X66461818Y-65461818D01*
X66463106Y-66443182D01*
G37*
X66463106Y-66443182D02*
X66603587Y-67892018D01*
X67017315Y-68980493D01*
X67699123Y-69701492D01*
X68643840Y-70047900D01*
X69104872Y-70080000D01*
X70116709Y-69899507D01*
X70855900Y-69354574D01*
X71326202Y-68440015D01*
X71531370Y-67150647D01*
X71541818Y-66716786D01*
X71541818Y-65461818D01*
X69121672Y-65461818D01*
X69121672Y-66847273D01*
X70626980Y-66847273D01*
X70475287Y-67482273D01*
X70283473Y-68058327D01*
X70096250Y-68405909D01*
X69669201Y-68632366D01*
X69027147Y-68681523D01*
X68378403Y-68560684D01*
X67979220Y-68331688D01*
X67689040Y-67816415D01*
X67616363Y-67408052D01*
X67644690Y-67106819D01*
X67799044Y-66938836D01*
X68183485Y-66865337D01*
X68902073Y-66847557D01*
X69121672Y-66847273D01*
X69121672Y-65461818D01*
X66461818Y-65461818D01*
X66463106Y-66443182D01*
G36*
X66546235Y-62357163D02*
G01*
X66776401Y-63235316D01*
X67117685Y-63806962D01*
X67226718Y-63894946D01*
X67882505Y-64065610D01*
X68569532Y-63872746D01*
X68793121Y-63709898D01*
X69077610Y-63508835D01*
X69371679Y-63520776D01*
X69825884Y-63772796D01*
X70077178Y-63940807D01*
X70812785Y-64384752D01*
X71268546Y-64503520D01*
X71493792Y-64295842D01*
X71541194Y-63903182D01*
X71436356Y-63415390D01*
X71051108Y-63027836D01*
X70678010Y-62806364D01*
X70120334Y-62427229D01*
X69777117Y-62042275D01*
X69738066Y-61940455D01*
X69769813Y-61678422D01*
X70068632Y-61560205D01*
X70601250Y-61536364D01*
X71200492Y-61510272D01*
X71469616Y-61367546D01*
X71539887Y-61011506D01*
X71541818Y-60843636D01*
X71541818Y-60150909D01*
X68209696Y-60150909D01*
X68209696Y-61536364D01*
X68642177Y-61611745D01*
X68743785Y-61916047D01*
X68729241Y-62055909D01*
X68466292Y-62522726D01*
X68135909Y-62649242D01*
X67747837Y-62618270D01*
X67621022Y-62288761D01*
X67616363Y-62129696D01*
X67704860Y-61683193D01*
X68062941Y-61540743D01*
X68209696Y-61536364D01*
X68209696Y-60150909D01*
X66461818Y-60150909D01*
X66461818Y-61290422D01*
X66546235Y-62357163D01*
G37*
X66546235Y-62357163D02*
X66776401Y-63235316D01*
X67117685Y-63806962D01*
X67226718Y-63894946D01*
X67882505Y-64065610D01*
X68569532Y-63872746D01*
X68793121Y-63709898D01*
X69077610Y-63508835D01*
X69371679Y-63520776D01*
X69825884Y-63772796D01*
X70077178Y-63940807D01*
X70812785Y-64384752D01*
X71268546Y-64503520D01*
X71493792Y-64295842D01*
X71541194Y-63903182D01*
X71436356Y-63415390D01*
X71051108Y-63027836D01*
X70678010Y-62806364D01*
X70120334Y-62427229D01*
X69777117Y-62042275D01*
X69738066Y-61940455D01*
X69769813Y-61678422D01*
X70068632Y-61560205D01*
X70601250Y-61536364D01*
X71200492Y-61510272D01*
X71469616Y-61367546D01*
X71539887Y-61011506D01*
X71541818Y-60843636D01*
X71541818Y-60150909D01*
X68209696Y-60150909D01*
X68209696Y-61536364D01*
X68642177Y-61611745D01*
X68743785Y-61916047D01*
X68729241Y-62055909D01*
X68466292Y-62522726D01*
X68135909Y-62649242D01*
X67747837Y-62618270D01*
X67621022Y-62288761D01*
X67616363Y-62129696D01*
X67704860Y-61683193D01*
X68062941Y-61540743D01*
X68209696Y-61536364D01*
X68209696Y-60150909D01*
X66461818Y-60150909D01*
X66461818Y-61290422D01*
X66546235Y-62357163D01*
G36*
X66498292Y-55515091D02*
G01*
X66695944Y-55712549D01*
X67187122Y-55762543D01*
X67385454Y-55763636D01*
X68309091Y-55763636D01*
X68309091Y-57610909D01*
X67370117Y-57610909D01*
X66775193Y-57635044D01*
X66521424Y-57766253D01*
X66488531Y-58092738D01*
X66504208Y-58245909D01*
X66577272Y-58880909D01*
X69059545Y-58946448D01*
X71541818Y-59011988D01*
X71541818Y-58311448D01*
X71512352Y-57880722D01*
X71340367Y-57676720D01*
X70900487Y-57614916D01*
X70502727Y-57610909D01*
X69463636Y-57610909D01*
X69463636Y-55763636D01*
X70502727Y-55763636D01*
X71141680Y-55743555D01*
X71444309Y-55627610D01*
X71535944Y-55332247D01*
X71541818Y-55070909D01*
X71541818Y-54378182D01*
X66461818Y-54378182D01*
X66461818Y-55070909D01*
X66498292Y-55515091D01*
G37*
X66498292Y-55515091D02*
X66695944Y-55712549D01*
X67187122Y-55762543D01*
X67385454Y-55763636D01*
X68309091Y-55763636D01*
X68309091Y-57610909D01*
X67370117Y-57610909D01*
X66775193Y-57635044D01*
X66521424Y-57766253D01*
X66488531Y-58092738D01*
X66504208Y-58245909D01*
X66577272Y-58880909D01*
X69059545Y-58946448D01*
X71541818Y-59011988D01*
X71541818Y-58311448D01*
X71512352Y-57880722D01*
X71340367Y-57676720D01*
X70900487Y-57614916D01*
X70502727Y-57610909D01*
X69463636Y-57610909D01*
X69463636Y-55763636D01*
X70502727Y-55763636D01*
X71141680Y-55743555D01*
X71444309Y-55627610D01*
X71535944Y-55332247D01*
X71541818Y-55070909D01*
X71541818Y-54378182D01*
X66461818Y-54378182D01*
X66461818Y-55070909D01*
X66498292Y-55515091D01*
G36*
X61759720Y-53165909D02*
G01*
X62340303Y-53810177D01*
X62770803Y-54173828D01*
X63190181Y-54336427D01*
X63737399Y-54377537D01*
X63876992Y-54378182D01*
X64945133Y-54378182D01*
X63742149Y-53160067D01*
X62539166Y-51941952D01*
X63282657Y-51198461D01*
X64026148Y-50454971D01*
X65316738Y-51732094D01*
X66607328Y-53009218D01*
X69090599Y-52943245D01*
X71573871Y-52877273D01*
X70910209Y-52242273D01*
X70500821Y-51899175D01*
X70076390Y-51707457D01*
X69484816Y-51624410D01*
X68648614Y-51607273D01*
X67050680Y-51607273D01*
X65538189Y-50106372D01*
X64025698Y-48605470D01*
X60710588Y-51953636D01*
X61759720Y-53165909D01*
G37*
X61759720Y-53165909D02*
X62340303Y-53810177D01*
X62770803Y-54173828D01*
X63190181Y-54336427D01*
X63737399Y-54377537D01*
X63876992Y-54378182D01*
X64945133Y-54378182D01*
X63742149Y-53160067D01*
X62539166Y-51941952D01*
X63282657Y-51198461D01*
X64026148Y-50454971D01*
X65316738Y-51732094D01*
X66607328Y-53009218D01*
X69090599Y-52943245D01*
X71573871Y-52877273D01*
X70910209Y-52242273D01*
X70500821Y-51899175D01*
X70076390Y-51707457D01*
X69484816Y-51624410D01*
X68648614Y-51607273D01*
X67050680Y-51607273D01*
X65538189Y-50106372D01*
X64025698Y-48605470D01*
X60710588Y-51953636D01*
X61759720Y-53165909D01*
M02*
