G04 #@! TF.GenerationSoftware,KiCad,Pcbnew,(5.1.9)-1*
G04 #@! TF.CreationDate,2021-03-20T12:11:52+01:00*
G04 #@! TF.ProjectId,IM350,494d3335-302e-46b6-9963-61645f706362,rev?*
G04 #@! TF.SameCoordinates,Original*
G04 #@! TF.FileFunction,Copper,L1,Top*
G04 #@! TF.FilePolarity,Positive*
%FSLAX46Y46*%
G04 Gerber Fmt 4.6, Leading zero omitted, Abs format (unit mm)*
G04 Created by KiCad (PCBNEW (5.1.9)-1) date 2021-03-20 12:11:52*
%MOMM*%
%LPD*%
G01*
G04 APERTURE LIST*
G04 #@! TA.AperFunction,NonConductor*
%ADD10C,0.150000*%
G04 #@! TD*
G04 #@! TA.AperFunction,ComponentPad*
%ADD11O,1.700000X1.700000*%
G04 #@! TD*
G04 #@! TA.AperFunction,ComponentPad*
%ADD12R,1.700000X1.700000*%
G04 #@! TD*
G04 #@! TA.AperFunction,ComponentPad*
%ADD13C,2.000000*%
G04 #@! TD*
G04 #@! TA.AperFunction,ComponentPad*
%ADD14R,1.050000X1.500000*%
G04 #@! TD*
G04 #@! TA.AperFunction,ComponentPad*
%ADD15O,1.050000X1.500000*%
G04 #@! TD*
G04 #@! TA.AperFunction,SMDPad,CuDef*
%ADD16R,0.600000X2.800000*%
G04 #@! TD*
G04 #@! TA.AperFunction,ComponentPad*
%ADD17O,1.050000X1.900000*%
G04 #@! TD*
G04 #@! TA.AperFunction,SMDPad,CuDef*
%ADD18R,1.500000X2.000000*%
G04 #@! TD*
G04 #@! TA.AperFunction,SMDPad,CuDef*
%ADD19R,3.800000X2.000000*%
G04 #@! TD*
G04 #@! TA.AperFunction,SMDPad,CuDef*
%ADD20R,2.500000X1.000000*%
G04 #@! TD*
G04 #@! TA.AperFunction,SMDPad,CuDef*
%ADD21R,1.000000X1.800000*%
G04 #@! TD*
G04 #@! TA.AperFunction,ViaPad*
%ADD22C,0.800000*%
G04 #@! TD*
G04 #@! TA.AperFunction,Conductor*
%ADD23C,0.250000*%
G04 #@! TD*
G04 APERTURE END LIST*
D10*
X119999079Y-110311792D02*
X120692306Y-110324553D01*
X120292612Y-110003175D01*
X120803685Y-109960247D01*
X120221839Y-109583179D01*
X120305374Y-109309949D02*
X120998600Y-109322710D01*
X120598907Y-109001332D01*
X121109980Y-108958403D01*
X120528133Y-108581336D01*
X120611668Y-108308106D02*
X121304894Y-108320867D01*
X120905201Y-107999489D01*
X121416274Y-107956560D01*
X120834427Y-107579493D01*
X121492267Y-107382256D02*
X121551728Y-107350640D01*
X121583343Y-107410101D01*
X121523883Y-107441716D01*
X121492267Y-107382256D01*
X121583343Y-107410101D01*
X121663107Y-106986333D02*
X121736490Y-106909179D01*
X121792180Y-106727026D01*
X121774487Y-106622027D01*
X121697333Y-106548643D01*
X121651794Y-106534721D01*
X121546795Y-106552414D01*
X121473412Y-106629568D01*
X121431645Y-106766183D01*
X121358261Y-106843338D01*
X121253262Y-106861031D01*
X121207724Y-106847109D01*
X121130570Y-106773725D01*
X121112876Y-106668726D01*
X121154644Y-106532111D01*
X121228027Y-106454957D01*
X121959250Y-106180566D02*
X121002945Y-105888194D01*
X122084552Y-105770721D02*
X121583630Y-105617574D01*
X121478631Y-105635267D01*
X121405248Y-105712421D01*
X121363481Y-105849036D01*
X121381174Y-105954035D01*
X121412790Y-106013496D01*
X122223777Y-105315338D02*
X121586240Y-105120423D01*
X121768393Y-105176113D02*
X121691239Y-105102730D01*
X121659623Y-105043269D01*
X121641930Y-104938270D01*
X121669775Y-104847193D01*
X122530071Y-104313495D02*
X121573766Y-104021123D01*
X122484532Y-104299572D02*
X122502226Y-104404571D01*
X122446536Y-104586725D01*
X122373153Y-104663879D01*
X122313692Y-104695495D01*
X122208693Y-104713188D01*
X121935463Y-104629653D01*
X121858309Y-104556270D01*
X121826693Y-104496809D01*
X121809000Y-104391810D01*
X121864689Y-104209657D01*
X121938073Y-104132503D01*
X122003914Y-103754274D02*
X122157061Y-103253352D01*
X122641450Y-103949188D01*
X122794598Y-103448267D01*
X122905977Y-103083960D02*
X122268441Y-102889045D01*
X122359517Y-102916890D02*
X122327902Y-102857430D01*
X122310208Y-102752431D01*
X122351976Y-102615816D01*
X122425359Y-102538661D01*
X122530358Y-102520968D01*
X123031279Y-102674115D01*
X122530358Y-102520968D02*
X122453204Y-102447585D01*
X122435510Y-102342586D01*
X122477278Y-102205971D01*
X122550661Y-102128816D01*
X122655660Y-102111123D01*
X123156582Y-102264270D01*
X123204730Y-101781042D02*
X123264190Y-101749426D01*
X123295806Y-101808887D01*
X123236345Y-101840503D01*
X123204730Y-101781042D01*
X123295806Y-101808887D01*
X123514795Y-100929736D02*
X123532488Y-101034735D01*
X123476798Y-101216889D01*
X123403415Y-101294043D01*
X123343954Y-101325659D01*
X123238955Y-101343352D01*
X122965725Y-101259817D01*
X122888571Y-101186434D01*
X122856955Y-101126973D01*
X122839262Y-101021974D01*
X122894952Y-100839821D01*
X122968335Y-100762667D01*
X123727403Y-100397199D02*
X123654019Y-100474353D01*
X123594559Y-100505969D01*
X123489559Y-100523662D01*
X123216329Y-100440128D01*
X123139175Y-100366744D01*
X123107559Y-100307284D01*
X123089866Y-100202285D01*
X123131633Y-100065670D01*
X123205017Y-99988515D01*
X123264477Y-99956899D01*
X123369477Y-99939206D01*
X123642706Y-100022741D01*
X123719861Y-100096124D01*
X123751477Y-100155585D01*
X123769170Y-100260584D01*
X123727403Y-100397199D01*
X123950162Y-99668586D02*
X123312625Y-99473671D01*
X123403702Y-99501516D02*
X123372086Y-99442055D01*
X123354393Y-99337056D01*
X123396160Y-99200441D01*
X123469543Y-99123287D01*
X123574543Y-99105594D01*
X124075464Y-99258741D01*
X123574543Y-99105594D02*
X123497388Y-99032211D01*
X123479695Y-98927211D01*
X123521462Y-98790597D01*
X123594846Y-98713442D01*
X123699845Y-98695749D01*
X124200766Y-98848896D01*
X119999079Y-61811792D02*
X120692306Y-61824553D01*
X120292612Y-61503175D01*
X120803685Y-61460247D01*
X120221839Y-61083179D01*
X120305374Y-60809949D02*
X120998600Y-60822710D01*
X120598907Y-60501332D01*
X121109980Y-60458403D01*
X120528133Y-60081336D01*
X120611668Y-59808106D02*
X121304894Y-59820867D01*
X120905201Y-59499489D01*
X121416274Y-59456560D01*
X120834427Y-59079493D01*
X121492267Y-58882256D02*
X121551728Y-58850640D01*
X121583343Y-58910101D01*
X121523883Y-58941716D01*
X121492267Y-58882256D01*
X121583343Y-58910101D01*
X121663107Y-58486333D02*
X121736490Y-58409179D01*
X121792180Y-58227026D01*
X121774487Y-58122027D01*
X121697333Y-58048643D01*
X121651794Y-58034721D01*
X121546795Y-58052414D01*
X121473412Y-58129568D01*
X121431645Y-58266183D01*
X121358261Y-58343338D01*
X121253262Y-58361031D01*
X121207724Y-58347109D01*
X121130570Y-58273725D01*
X121112876Y-58168726D01*
X121154644Y-58032111D01*
X121228027Y-57954957D01*
X121959250Y-57680566D02*
X121002945Y-57388194D01*
X122084552Y-57270721D02*
X121583630Y-57117574D01*
X121478631Y-57135267D01*
X121405248Y-57212421D01*
X121363481Y-57349036D01*
X121381174Y-57454035D01*
X121412790Y-57513496D01*
X122223777Y-56815338D02*
X121586240Y-56620423D01*
X121768393Y-56676113D02*
X121691239Y-56602730D01*
X121659623Y-56543269D01*
X121641930Y-56438270D01*
X121669775Y-56347193D01*
X122530071Y-55813495D02*
X121573766Y-55521123D01*
X122484532Y-55799572D02*
X122502226Y-55904571D01*
X122446536Y-56086725D01*
X122373153Y-56163879D01*
X122313692Y-56195495D01*
X122208693Y-56213188D01*
X121935463Y-56129653D01*
X121858309Y-56056270D01*
X121826693Y-55996809D01*
X121809000Y-55891810D01*
X121864689Y-55709657D01*
X121938073Y-55632503D01*
X122003914Y-55254274D02*
X122157061Y-54753352D01*
X122641450Y-55449188D01*
X122794598Y-54948267D01*
X122905977Y-54583960D02*
X122268441Y-54389045D01*
X122359517Y-54416890D02*
X122327902Y-54357430D01*
X122310208Y-54252431D01*
X122351976Y-54115816D01*
X122425359Y-54038661D01*
X122530358Y-54020968D01*
X123031279Y-54174115D01*
X122530358Y-54020968D02*
X122453204Y-53947585D01*
X122435510Y-53842586D01*
X122477278Y-53705971D01*
X122550661Y-53628816D01*
X122655660Y-53611123D01*
X123156582Y-53764270D01*
X123204730Y-53281042D02*
X123264190Y-53249426D01*
X123295806Y-53308887D01*
X123236345Y-53340503D01*
X123204730Y-53281042D01*
X123295806Y-53308887D01*
X123514795Y-52429736D02*
X123532488Y-52534735D01*
X123476798Y-52716889D01*
X123403415Y-52794043D01*
X123343954Y-52825659D01*
X123238955Y-52843352D01*
X122965725Y-52759817D01*
X122888571Y-52686434D01*
X122856955Y-52626973D01*
X122839262Y-52521974D01*
X122894952Y-52339821D01*
X122968335Y-52262667D01*
X123727403Y-51897199D02*
X123654019Y-51974353D01*
X123594559Y-52005969D01*
X123489559Y-52023662D01*
X123216329Y-51940128D01*
X123139175Y-51866744D01*
X123107559Y-51807284D01*
X123089866Y-51702285D01*
X123131633Y-51565670D01*
X123205017Y-51488515D01*
X123264477Y-51456899D01*
X123369477Y-51439206D01*
X123642706Y-51522741D01*
X123719861Y-51596124D01*
X123751477Y-51655585D01*
X123769170Y-51760584D01*
X123727403Y-51897199D01*
X123950162Y-51168586D02*
X123312625Y-50973671D01*
X123403702Y-51001516D02*
X123372086Y-50942055D01*
X123354393Y-50837056D01*
X123396160Y-50700441D01*
X123469543Y-50623287D01*
X123574543Y-50605594D01*
X124075464Y-50758741D01*
X123574543Y-50605594D02*
X123497388Y-50532211D01*
X123479695Y-50427211D01*
X123521462Y-50290597D01*
X123594846Y-50213442D01*
X123699845Y-50195749D01*
X124200766Y-50348896D01*
X118476190Y-131952380D02*
X118809523Y-132952380D01*
X119142857Y-131952380D01*
X120000000Y-132952380D02*
X119428571Y-132952380D01*
X119714285Y-132952380D02*
X119714285Y-131952380D01*
X119619047Y-132095238D01*
X119523809Y-132190476D01*
X119428571Y-132238095D01*
X120428571Y-132857142D02*
X120476190Y-132904761D01*
X120428571Y-132952380D01*
X120380952Y-132904761D01*
X120428571Y-132857142D01*
X120428571Y-132952380D01*
X121095238Y-131952380D02*
X121190476Y-131952380D01*
X121285714Y-132000000D01*
X121333333Y-132047619D01*
X121380952Y-132142857D01*
X121428571Y-132333333D01*
X121428571Y-132571428D01*
X121380952Y-132761904D01*
X121333333Y-132857142D01*
X121285714Y-132904761D01*
X121190476Y-132952380D01*
X121095238Y-132952380D01*
X121000000Y-132904761D01*
X120952380Y-132857142D01*
X120904761Y-132761904D01*
X120857142Y-132571428D01*
X120857142Y-132333333D01*
X120904761Y-132142857D01*
X120952380Y-132047619D01*
X121000000Y-132000000D01*
X121095238Y-131952380D01*
X118476190Y-83452380D02*
X118809523Y-84452380D01*
X119142857Y-83452380D01*
X120000000Y-84452380D02*
X119428571Y-84452380D01*
X119714285Y-84452380D02*
X119714285Y-83452380D01*
X119619047Y-83595238D01*
X119523809Y-83690476D01*
X119428571Y-83738095D01*
X120428571Y-84357142D02*
X120476190Y-84404761D01*
X120428571Y-84452380D01*
X120380952Y-84404761D01*
X120428571Y-84357142D01*
X120428571Y-84452380D01*
X121095238Y-83452380D02*
X121190476Y-83452380D01*
X121285714Y-83500000D01*
X121333333Y-83547619D01*
X121380952Y-83642857D01*
X121428571Y-83833333D01*
X121428571Y-84071428D01*
X121380952Y-84261904D01*
X121333333Y-84357142D01*
X121285714Y-84404761D01*
X121190476Y-84452380D01*
X121095238Y-84452380D01*
X121000000Y-84404761D01*
X120952380Y-84357142D01*
X120904761Y-84261904D01*
X120857142Y-84071428D01*
X120857142Y-83833333D01*
X120904761Y-83642857D01*
X120952380Y-83547619D01*
X121000000Y-83500000D01*
X121095238Y-83452380D01*
X86476190Y-131952380D02*
X86809523Y-132952380D01*
X87142857Y-131952380D01*
X88000000Y-132952380D02*
X87428571Y-132952380D01*
X87714285Y-132952380D02*
X87714285Y-131952380D01*
X87619047Y-132095238D01*
X87523809Y-132190476D01*
X87428571Y-132238095D01*
X88428571Y-132857142D02*
X88476190Y-132904761D01*
X88428571Y-132952380D01*
X88380952Y-132904761D01*
X88428571Y-132857142D01*
X88428571Y-132952380D01*
X89095238Y-131952380D02*
X89190476Y-131952380D01*
X89285714Y-132000000D01*
X89333333Y-132047619D01*
X89380952Y-132142857D01*
X89428571Y-132333333D01*
X89428571Y-132571428D01*
X89380952Y-132761904D01*
X89333333Y-132857142D01*
X89285714Y-132904761D01*
X89190476Y-132952380D01*
X89095238Y-132952380D01*
X89000000Y-132904761D01*
X88952380Y-132857142D01*
X88904761Y-132761904D01*
X88857142Y-132571428D01*
X88857142Y-132333333D01*
X88904761Y-132142857D01*
X88952380Y-132047619D01*
X89000000Y-132000000D01*
X89095238Y-131952380D01*
X87999079Y-110311792D02*
X88692306Y-110324553D01*
X88292612Y-110003175D01*
X88803685Y-109960247D01*
X88221839Y-109583179D01*
X88305374Y-109309949D02*
X88998600Y-109322710D01*
X88598907Y-109001332D01*
X89109980Y-108958403D01*
X88528133Y-108581336D01*
X88611668Y-108308106D02*
X89304894Y-108320867D01*
X88905201Y-107999489D01*
X89416274Y-107956560D01*
X88834427Y-107579493D01*
X89492267Y-107382256D02*
X89551728Y-107350640D01*
X89583343Y-107410101D01*
X89523883Y-107441716D01*
X89492267Y-107382256D01*
X89583343Y-107410101D01*
X89663107Y-106986333D02*
X89736490Y-106909179D01*
X89792180Y-106727026D01*
X89774487Y-106622027D01*
X89697333Y-106548643D01*
X89651794Y-106534721D01*
X89546795Y-106552414D01*
X89473412Y-106629568D01*
X89431645Y-106766183D01*
X89358261Y-106843338D01*
X89253262Y-106861031D01*
X89207724Y-106847109D01*
X89130570Y-106773725D01*
X89112876Y-106668726D01*
X89154644Y-106532111D01*
X89228027Y-106454957D01*
X89959250Y-106180566D02*
X89002945Y-105888194D01*
X90084552Y-105770721D02*
X89583630Y-105617574D01*
X89478631Y-105635267D01*
X89405248Y-105712421D01*
X89363481Y-105849036D01*
X89381174Y-105954035D01*
X89412790Y-106013496D01*
X90223777Y-105315338D02*
X89586240Y-105120423D01*
X89768393Y-105176113D02*
X89691239Y-105102730D01*
X89659623Y-105043269D01*
X89641930Y-104938270D01*
X89669775Y-104847193D01*
X90530071Y-104313495D02*
X89573766Y-104021123D01*
X90484532Y-104299572D02*
X90502226Y-104404571D01*
X90446536Y-104586725D01*
X90373153Y-104663879D01*
X90313692Y-104695495D01*
X90208693Y-104713188D01*
X89935463Y-104629653D01*
X89858309Y-104556270D01*
X89826693Y-104496809D01*
X89809000Y-104391810D01*
X89864689Y-104209657D01*
X89938073Y-104132503D01*
X90003914Y-103754274D02*
X90157061Y-103253352D01*
X90641450Y-103949188D01*
X90794598Y-103448267D01*
X90905977Y-103083960D02*
X90268441Y-102889045D01*
X90359517Y-102916890D02*
X90327902Y-102857430D01*
X90310208Y-102752431D01*
X90351976Y-102615816D01*
X90425359Y-102538661D01*
X90530358Y-102520968D01*
X91031279Y-102674115D01*
X90530358Y-102520968D02*
X90453204Y-102447585D01*
X90435510Y-102342586D01*
X90477278Y-102205971D01*
X90550661Y-102128816D01*
X90655660Y-102111123D01*
X91156582Y-102264270D01*
X91204730Y-101781042D02*
X91264190Y-101749426D01*
X91295806Y-101808887D01*
X91236345Y-101840503D01*
X91204730Y-101781042D01*
X91295806Y-101808887D01*
X91514795Y-100929736D02*
X91532488Y-101034735D01*
X91476798Y-101216889D01*
X91403415Y-101294043D01*
X91343954Y-101325659D01*
X91238955Y-101343352D01*
X90965725Y-101259817D01*
X90888571Y-101186434D01*
X90856955Y-101126973D01*
X90839262Y-101021974D01*
X90894952Y-100839821D01*
X90968335Y-100762667D01*
X91727403Y-100397199D02*
X91654019Y-100474353D01*
X91594559Y-100505969D01*
X91489559Y-100523662D01*
X91216329Y-100440128D01*
X91139175Y-100366744D01*
X91107559Y-100307284D01*
X91089866Y-100202285D01*
X91131633Y-100065670D01*
X91205017Y-99988515D01*
X91264477Y-99956899D01*
X91369477Y-99939206D01*
X91642706Y-100022741D01*
X91719861Y-100096124D01*
X91751477Y-100155585D01*
X91769170Y-100260584D01*
X91727403Y-100397199D01*
X91950162Y-99668586D02*
X91312625Y-99473671D01*
X91403702Y-99501516D02*
X91372086Y-99442055D01*
X91354393Y-99337056D01*
X91396160Y-99200441D01*
X91469543Y-99123287D01*
X91574543Y-99105594D01*
X92075464Y-99258741D01*
X91574543Y-99105594D02*
X91497388Y-99032211D01*
X91479695Y-98927211D01*
X91521462Y-98790597D01*
X91594846Y-98713442D01*
X91699845Y-98695749D01*
X92200766Y-98848896D01*
X87999079Y-61811792D02*
X88692306Y-61824553D01*
X88292612Y-61503175D01*
X88803685Y-61460247D01*
X88221839Y-61083179D01*
X88305374Y-60809949D02*
X88998600Y-60822710D01*
X88598907Y-60501332D01*
X89109980Y-60458403D01*
X88528133Y-60081336D01*
X88611668Y-59808106D02*
X89304894Y-59820867D01*
X88905201Y-59499489D01*
X89416274Y-59456560D01*
X88834427Y-59079493D01*
X89492267Y-58882256D02*
X89551728Y-58850640D01*
X89583343Y-58910101D01*
X89523883Y-58941716D01*
X89492267Y-58882256D01*
X89583343Y-58910101D01*
X89663107Y-58486333D02*
X89736490Y-58409179D01*
X89792180Y-58227026D01*
X89774487Y-58122027D01*
X89697333Y-58048643D01*
X89651794Y-58034721D01*
X89546795Y-58052414D01*
X89473412Y-58129568D01*
X89431645Y-58266183D01*
X89358261Y-58343338D01*
X89253262Y-58361031D01*
X89207724Y-58347109D01*
X89130570Y-58273725D01*
X89112876Y-58168726D01*
X89154644Y-58032111D01*
X89228027Y-57954957D01*
X89959250Y-57680566D02*
X89002945Y-57388194D01*
X90084552Y-57270721D02*
X89583630Y-57117574D01*
X89478631Y-57135267D01*
X89405248Y-57212421D01*
X89363481Y-57349036D01*
X89381174Y-57454035D01*
X89412790Y-57513496D01*
X90223777Y-56815338D02*
X89586240Y-56620423D01*
X89768393Y-56676113D02*
X89691239Y-56602730D01*
X89659623Y-56543269D01*
X89641930Y-56438270D01*
X89669775Y-56347193D01*
X90530071Y-55813495D02*
X89573766Y-55521123D01*
X90484532Y-55799572D02*
X90502226Y-55904571D01*
X90446536Y-56086725D01*
X90373153Y-56163879D01*
X90313692Y-56195495D01*
X90208693Y-56213188D01*
X89935463Y-56129653D01*
X89858309Y-56056270D01*
X89826693Y-55996809D01*
X89809000Y-55891810D01*
X89864689Y-55709657D01*
X89938073Y-55632503D01*
X90003914Y-55254274D02*
X90157061Y-54753352D01*
X90641450Y-55449188D01*
X90794598Y-54948267D01*
X90905977Y-54583960D02*
X90268441Y-54389045D01*
X90359517Y-54416890D02*
X90327902Y-54357430D01*
X90310208Y-54252431D01*
X90351976Y-54115816D01*
X90425359Y-54038661D01*
X90530358Y-54020968D01*
X91031279Y-54174115D01*
X90530358Y-54020968D02*
X90453204Y-53947585D01*
X90435510Y-53842586D01*
X90477278Y-53705971D01*
X90550661Y-53628816D01*
X90655660Y-53611123D01*
X91156582Y-53764270D01*
X91204730Y-53281042D02*
X91264190Y-53249426D01*
X91295806Y-53308887D01*
X91236345Y-53340503D01*
X91204730Y-53281042D01*
X91295806Y-53308887D01*
X91514795Y-52429736D02*
X91532488Y-52534735D01*
X91476798Y-52716889D01*
X91403415Y-52794043D01*
X91343954Y-52825659D01*
X91238955Y-52843352D01*
X90965725Y-52759817D01*
X90888571Y-52686434D01*
X90856955Y-52626973D01*
X90839262Y-52521974D01*
X90894952Y-52339821D01*
X90968335Y-52262667D01*
X91727403Y-51897199D02*
X91654019Y-51974353D01*
X91594559Y-52005969D01*
X91489559Y-52023662D01*
X91216329Y-51940128D01*
X91139175Y-51866744D01*
X91107559Y-51807284D01*
X91089866Y-51702285D01*
X91131633Y-51565670D01*
X91205017Y-51488515D01*
X91264477Y-51456899D01*
X91369477Y-51439206D01*
X91642706Y-51522741D01*
X91719861Y-51596124D01*
X91751477Y-51655585D01*
X91769170Y-51760584D01*
X91727403Y-51897199D01*
X91950162Y-51168586D02*
X91312625Y-50973671D01*
X91403702Y-51001516D02*
X91372086Y-50942055D01*
X91354393Y-50837056D01*
X91396160Y-50700441D01*
X91469543Y-50623287D01*
X91574543Y-50605594D01*
X92075464Y-50758741D01*
X91574543Y-50605594D02*
X91497388Y-50532211D01*
X91479695Y-50427211D01*
X91521462Y-50290597D01*
X91594846Y-50213442D01*
X91699845Y-50195749D01*
X92200766Y-50348896D01*
X86476190Y-83452380D02*
X86809523Y-84452380D01*
X87142857Y-83452380D01*
X88000000Y-84452380D02*
X87428571Y-84452380D01*
X87714285Y-84452380D02*
X87714285Y-83452380D01*
X87619047Y-83595238D01*
X87523809Y-83690476D01*
X87428571Y-83738095D01*
X88428571Y-84357142D02*
X88476190Y-84404761D01*
X88428571Y-84452380D01*
X88380952Y-84404761D01*
X88428571Y-84357142D01*
X88428571Y-84452380D01*
X89095238Y-83452380D02*
X89190476Y-83452380D01*
X89285714Y-83500000D01*
X89333333Y-83547619D01*
X89380952Y-83642857D01*
X89428571Y-83833333D01*
X89428571Y-84071428D01*
X89380952Y-84261904D01*
X89333333Y-84357142D01*
X89285714Y-84404761D01*
X89190476Y-84452380D01*
X89095238Y-84452380D01*
X89000000Y-84404761D01*
X88952380Y-84357142D01*
X88904761Y-84261904D01*
X88857142Y-84071428D01*
X88857142Y-83833333D01*
X88904761Y-83642857D01*
X88952380Y-83547619D01*
X89000000Y-83500000D01*
X89095238Y-83452380D01*
X55999079Y-110311792D02*
X56692306Y-110324553D01*
X56292612Y-110003175D01*
X56803685Y-109960247D01*
X56221839Y-109583179D01*
X56305374Y-109309949D02*
X56998600Y-109322710D01*
X56598907Y-109001332D01*
X57109980Y-108958403D01*
X56528133Y-108581336D01*
X56611668Y-108308106D02*
X57304894Y-108320867D01*
X56905201Y-107999489D01*
X57416274Y-107956560D01*
X56834427Y-107579493D01*
X57492267Y-107382256D02*
X57551728Y-107350640D01*
X57583343Y-107410101D01*
X57523883Y-107441716D01*
X57492267Y-107382256D01*
X57583343Y-107410101D01*
X57663107Y-106986333D02*
X57736490Y-106909179D01*
X57792180Y-106727026D01*
X57774487Y-106622027D01*
X57697333Y-106548643D01*
X57651794Y-106534721D01*
X57546795Y-106552414D01*
X57473412Y-106629568D01*
X57431645Y-106766183D01*
X57358261Y-106843338D01*
X57253262Y-106861031D01*
X57207724Y-106847109D01*
X57130570Y-106773725D01*
X57112876Y-106668726D01*
X57154644Y-106532111D01*
X57228027Y-106454957D01*
X57959250Y-106180566D02*
X57002945Y-105888194D01*
X58084552Y-105770721D02*
X57583630Y-105617574D01*
X57478631Y-105635267D01*
X57405248Y-105712421D01*
X57363481Y-105849036D01*
X57381174Y-105954035D01*
X57412790Y-106013496D01*
X58223777Y-105315338D02*
X57586240Y-105120423D01*
X57768393Y-105176113D02*
X57691239Y-105102730D01*
X57659623Y-105043269D01*
X57641930Y-104938270D01*
X57669775Y-104847193D01*
X58530071Y-104313495D02*
X57573766Y-104021123D01*
X58484532Y-104299572D02*
X58502226Y-104404571D01*
X58446536Y-104586725D01*
X58373153Y-104663879D01*
X58313692Y-104695495D01*
X58208693Y-104713188D01*
X57935463Y-104629653D01*
X57858309Y-104556270D01*
X57826693Y-104496809D01*
X57809000Y-104391810D01*
X57864689Y-104209657D01*
X57938073Y-104132503D01*
X58003914Y-103754274D02*
X58157061Y-103253352D01*
X58641450Y-103949188D01*
X58794598Y-103448267D01*
X58905977Y-103083960D02*
X58268441Y-102889045D01*
X58359517Y-102916890D02*
X58327902Y-102857430D01*
X58310208Y-102752431D01*
X58351976Y-102615816D01*
X58425359Y-102538661D01*
X58530358Y-102520968D01*
X59031279Y-102674115D01*
X58530358Y-102520968D02*
X58453204Y-102447585D01*
X58435510Y-102342586D01*
X58477278Y-102205971D01*
X58550661Y-102128816D01*
X58655660Y-102111123D01*
X59156582Y-102264270D01*
X59204730Y-101781042D02*
X59264190Y-101749426D01*
X59295806Y-101808887D01*
X59236345Y-101840503D01*
X59204730Y-101781042D01*
X59295806Y-101808887D01*
X59514795Y-100929736D02*
X59532488Y-101034735D01*
X59476798Y-101216889D01*
X59403415Y-101294043D01*
X59343954Y-101325659D01*
X59238955Y-101343352D01*
X58965725Y-101259817D01*
X58888571Y-101186434D01*
X58856955Y-101126973D01*
X58839262Y-101021974D01*
X58894952Y-100839821D01*
X58968335Y-100762667D01*
X59727403Y-100397199D02*
X59654019Y-100474353D01*
X59594559Y-100505969D01*
X59489559Y-100523662D01*
X59216329Y-100440128D01*
X59139175Y-100366744D01*
X59107559Y-100307284D01*
X59089866Y-100202285D01*
X59131633Y-100065670D01*
X59205017Y-99988515D01*
X59264477Y-99956899D01*
X59369477Y-99939206D01*
X59642706Y-100022741D01*
X59719861Y-100096124D01*
X59751477Y-100155585D01*
X59769170Y-100260584D01*
X59727403Y-100397199D01*
X59950162Y-99668586D02*
X59312625Y-99473671D01*
X59403702Y-99501516D02*
X59372086Y-99442055D01*
X59354393Y-99337056D01*
X59396160Y-99200441D01*
X59469543Y-99123287D01*
X59574543Y-99105594D01*
X60075464Y-99258741D01*
X59574543Y-99105594D02*
X59497388Y-99032211D01*
X59479695Y-98927211D01*
X59521462Y-98790597D01*
X59594846Y-98713442D01*
X59699845Y-98695749D01*
X60200766Y-98848896D01*
X54476190Y-131952380D02*
X54809523Y-132952380D01*
X55142857Y-131952380D01*
X56000000Y-132952380D02*
X55428571Y-132952380D01*
X55714285Y-132952380D02*
X55714285Y-131952380D01*
X55619047Y-132095238D01*
X55523809Y-132190476D01*
X55428571Y-132238095D01*
X56428571Y-132857142D02*
X56476190Y-132904761D01*
X56428571Y-132952380D01*
X56380952Y-132904761D01*
X56428571Y-132857142D01*
X56428571Y-132952380D01*
X57095238Y-131952380D02*
X57190476Y-131952380D01*
X57285714Y-132000000D01*
X57333333Y-132047619D01*
X57380952Y-132142857D01*
X57428571Y-132333333D01*
X57428571Y-132571428D01*
X57380952Y-132761904D01*
X57333333Y-132857142D01*
X57285714Y-132904761D01*
X57190476Y-132952380D01*
X57095238Y-132952380D01*
X57000000Y-132904761D01*
X56952380Y-132857142D01*
X56904761Y-132761904D01*
X56857142Y-132571428D01*
X56857142Y-132333333D01*
X56904761Y-132142857D01*
X56952380Y-132047619D01*
X57000000Y-132000000D01*
X57095238Y-131952380D01*
X55999079Y-61811792D02*
X56692306Y-61824553D01*
X56292612Y-61503175D01*
X56803685Y-61460247D01*
X56221839Y-61083179D01*
X56305374Y-60809949D02*
X56998600Y-60822710D01*
X56598907Y-60501332D01*
X57109980Y-60458403D01*
X56528133Y-60081336D01*
X56611668Y-59808106D02*
X57304894Y-59820867D01*
X56905201Y-59499489D01*
X57416274Y-59456560D01*
X56834427Y-59079493D01*
X57492267Y-58882256D02*
X57551728Y-58850640D01*
X57583343Y-58910101D01*
X57523883Y-58941716D01*
X57492267Y-58882256D01*
X57583343Y-58910101D01*
X57663107Y-58486333D02*
X57736490Y-58409179D01*
X57792180Y-58227026D01*
X57774487Y-58122027D01*
X57697333Y-58048643D01*
X57651794Y-58034721D01*
X57546795Y-58052414D01*
X57473412Y-58129568D01*
X57431645Y-58266183D01*
X57358261Y-58343338D01*
X57253262Y-58361031D01*
X57207724Y-58347109D01*
X57130570Y-58273725D01*
X57112876Y-58168726D01*
X57154644Y-58032111D01*
X57228027Y-57954957D01*
X57959250Y-57680566D02*
X57002945Y-57388194D01*
X58084552Y-57270721D02*
X57583630Y-57117574D01*
X57478631Y-57135267D01*
X57405248Y-57212421D01*
X57363481Y-57349036D01*
X57381174Y-57454035D01*
X57412790Y-57513496D01*
X58223777Y-56815338D02*
X57586240Y-56620423D01*
X57768393Y-56676113D02*
X57691239Y-56602730D01*
X57659623Y-56543269D01*
X57641930Y-56438270D01*
X57669775Y-56347193D01*
X58530071Y-55813495D02*
X57573766Y-55521123D01*
X58484532Y-55799572D02*
X58502226Y-55904571D01*
X58446536Y-56086725D01*
X58373153Y-56163879D01*
X58313692Y-56195495D01*
X58208693Y-56213188D01*
X57935463Y-56129653D01*
X57858309Y-56056270D01*
X57826693Y-55996809D01*
X57809000Y-55891810D01*
X57864689Y-55709657D01*
X57938073Y-55632503D01*
X58003914Y-55254274D02*
X58157061Y-54753352D01*
X58641450Y-55449188D01*
X58794598Y-54948267D01*
X58905977Y-54583960D02*
X58268441Y-54389045D01*
X58359517Y-54416890D02*
X58327902Y-54357430D01*
X58310208Y-54252431D01*
X58351976Y-54115816D01*
X58425359Y-54038661D01*
X58530358Y-54020968D01*
X59031279Y-54174115D01*
X58530358Y-54020968D02*
X58453204Y-53947585D01*
X58435510Y-53842586D01*
X58477278Y-53705971D01*
X58550661Y-53628816D01*
X58655660Y-53611123D01*
X59156582Y-53764270D01*
X59204730Y-53281042D02*
X59264190Y-53249426D01*
X59295806Y-53308887D01*
X59236345Y-53340503D01*
X59204730Y-53281042D01*
X59295806Y-53308887D01*
X59514795Y-52429736D02*
X59532488Y-52534735D01*
X59476798Y-52716889D01*
X59403415Y-52794043D01*
X59343954Y-52825659D01*
X59238955Y-52843352D01*
X58965725Y-52759817D01*
X58888571Y-52686434D01*
X58856955Y-52626973D01*
X58839262Y-52521974D01*
X58894952Y-52339821D01*
X58968335Y-52262667D01*
X59727403Y-51897199D02*
X59654019Y-51974353D01*
X59594559Y-52005969D01*
X59489559Y-52023662D01*
X59216329Y-51940128D01*
X59139175Y-51866744D01*
X59107559Y-51807284D01*
X59089866Y-51702285D01*
X59131633Y-51565670D01*
X59205017Y-51488515D01*
X59264477Y-51456899D01*
X59369477Y-51439206D01*
X59642706Y-51522741D01*
X59719861Y-51596124D01*
X59751477Y-51655585D01*
X59769170Y-51760584D01*
X59727403Y-51897199D01*
X59950162Y-51168586D02*
X59312625Y-50973671D01*
X59403702Y-51001516D02*
X59372086Y-50942055D01*
X59354393Y-50837056D01*
X59396160Y-50700441D01*
X59469543Y-50623287D01*
X59574543Y-50605594D01*
X60075464Y-50758741D01*
X59574543Y-50605594D02*
X59497388Y-50532211D01*
X59479695Y-50427211D01*
X59521462Y-50290597D01*
X59594846Y-50213442D01*
X59699845Y-50195749D01*
X60200766Y-50348896D01*
X54476190Y-83452380D02*
X54809523Y-84452380D01*
X55142857Y-83452380D01*
X56000000Y-84452380D02*
X55428571Y-84452380D01*
X55714285Y-84452380D02*
X55714285Y-83452380D01*
X55619047Y-83595238D01*
X55523809Y-83690476D01*
X55428571Y-83738095D01*
X56428571Y-84357142D02*
X56476190Y-84404761D01*
X56428571Y-84452380D01*
X56380952Y-84404761D01*
X56428571Y-84357142D01*
X56428571Y-84452380D01*
X57095238Y-83452380D02*
X57190476Y-83452380D01*
X57285714Y-83500000D01*
X57333333Y-83547619D01*
X57380952Y-83642857D01*
X57428571Y-83833333D01*
X57428571Y-84071428D01*
X57380952Y-84261904D01*
X57333333Y-84357142D01*
X57285714Y-84404761D01*
X57190476Y-84452380D01*
X57095238Y-84452380D01*
X57000000Y-84404761D01*
X56952380Y-84357142D01*
X56904761Y-84261904D01*
X56857142Y-84071428D01*
X56857142Y-83833333D01*
X56904761Y-83642857D01*
X56952380Y-83547619D01*
X57000000Y-83500000D01*
X57095238Y-83452380D01*
D11*
X75040000Y-41460000D03*
X75040000Y-44000000D03*
X72500000Y-41460000D03*
X72500000Y-44000000D03*
X69960000Y-41460000D03*
D12*
X69960000Y-44000000D03*
D11*
X75040000Y-89960000D03*
X75040000Y-92500000D03*
X72500000Y-89960000D03*
X72500000Y-92500000D03*
X69960000Y-89960000D03*
D12*
X69960000Y-92500000D03*
D11*
X107040000Y-89960000D03*
X107040000Y-92500000D03*
X104500000Y-89960000D03*
X104500000Y-92500000D03*
X101960000Y-89960000D03*
D12*
X101960000Y-92500000D03*
D11*
X107040000Y-41460000D03*
X107040000Y-44000000D03*
X104500000Y-41460000D03*
X104500000Y-44000000D03*
X101960000Y-41460000D03*
D12*
X101960000Y-44000000D03*
D11*
X139040000Y-41460000D03*
X139040000Y-44000000D03*
X136500000Y-41460000D03*
X136500000Y-44000000D03*
X133960000Y-41460000D03*
D12*
X133960000Y-44000000D03*
D11*
X139040000Y-89960000D03*
X139040000Y-92500000D03*
X136500000Y-89960000D03*
X136500000Y-92500000D03*
X133960000Y-89960000D03*
D12*
X133960000Y-92500000D03*
G04 #@! TA.AperFunction,SMDPad,CuDef*
G36*
G01*
X121600000Y-68349999D02*
X121600000Y-69650001D01*
G75*
G02*
X121350001Y-69900000I-249999J0D01*
G01*
X120524999Y-69900000D01*
G75*
G02*
X120275000Y-69650001I0J249999D01*
G01*
X120275000Y-68349999D01*
G75*
G02*
X120524999Y-68100000I249999J0D01*
G01*
X121350001Y-68100000D01*
G75*
G02*
X121600000Y-68349999I0J-249999D01*
G01*
G37*
G04 #@! TD.AperFunction*
G04 #@! TA.AperFunction,SMDPad,CuDef*
G36*
G01*
X124725000Y-68349999D02*
X124725000Y-69650001D01*
G75*
G02*
X124475001Y-69900000I-249999J0D01*
G01*
X123649999Y-69900000D01*
G75*
G02*
X123400000Y-69650001I0J249999D01*
G01*
X123400000Y-68349999D01*
G75*
G02*
X123649999Y-68100000I249999J0D01*
G01*
X124475001Y-68100000D01*
G75*
G02*
X124725000Y-68349999I0J-249999D01*
G01*
G37*
G04 #@! TD.AperFunction*
G04 #@! TA.AperFunction,SMDPad,CuDef*
G36*
G01*
X119600000Y-71349999D02*
X119600000Y-72650001D01*
G75*
G02*
X119350001Y-72900000I-249999J0D01*
G01*
X118524999Y-72900000D01*
G75*
G02*
X118275000Y-72650001I0J249999D01*
G01*
X118275000Y-71349999D01*
G75*
G02*
X118524999Y-71100000I249999J0D01*
G01*
X119350001Y-71100000D01*
G75*
G02*
X119600000Y-71349999I0J-249999D01*
G01*
G37*
G04 #@! TD.AperFunction*
G04 #@! TA.AperFunction,SMDPad,CuDef*
G36*
G01*
X122725000Y-71349999D02*
X122725000Y-72650001D01*
G75*
G02*
X122475001Y-72900000I-249999J0D01*
G01*
X121649999Y-72900000D01*
G75*
G02*
X121400000Y-72650001I0J249999D01*
G01*
X121400000Y-71349999D01*
G75*
G02*
X121649999Y-71100000I249999J0D01*
G01*
X122475001Y-71100000D01*
G75*
G02*
X122725000Y-71349999I0J-249999D01*
G01*
G37*
G04 #@! TD.AperFunction*
G04 #@! TA.AperFunction,SMDPad,CuDef*
G36*
G01*
X145450001Y-121100000D02*
X144549999Y-121100000D01*
G75*
G02*
X144300000Y-120850001I0J249999D01*
G01*
X144300000Y-120149999D01*
G75*
G02*
X144549999Y-119900000I249999J0D01*
G01*
X145450001Y-119900000D01*
G75*
G02*
X145700000Y-120149999I0J-249999D01*
G01*
X145700000Y-120850001D01*
G75*
G02*
X145450001Y-121100000I-249999J0D01*
G01*
G37*
G04 #@! TD.AperFunction*
G04 #@! TA.AperFunction,SMDPad,CuDef*
G36*
G01*
X145450001Y-119100000D02*
X144549999Y-119100000D01*
G75*
G02*
X144300000Y-118850001I0J249999D01*
G01*
X144300000Y-118149999D01*
G75*
G02*
X144549999Y-117900000I249999J0D01*
G01*
X145450001Y-117900000D01*
G75*
G02*
X145700000Y-118149999I0J-249999D01*
G01*
X145700000Y-118850001D01*
G75*
G02*
X145450001Y-119100000I-249999J0D01*
G01*
G37*
G04 #@! TD.AperFunction*
G04 #@! TA.AperFunction,SMDPad,CuDef*
G36*
G01*
X136100000Y-95549999D02*
X136100000Y-96450001D01*
G75*
G02*
X135850001Y-96700000I-249999J0D01*
G01*
X135149999Y-96700000D01*
G75*
G02*
X134900000Y-96450001I0J249999D01*
G01*
X134900000Y-95549999D01*
G75*
G02*
X135149999Y-95300000I249999J0D01*
G01*
X135850001Y-95300000D01*
G75*
G02*
X136100000Y-95549999I0J-249999D01*
G01*
G37*
G04 #@! TD.AperFunction*
G04 #@! TA.AperFunction,SMDPad,CuDef*
G36*
G01*
X134100000Y-95549999D02*
X134100000Y-96450001D01*
G75*
G02*
X133850001Y-96700000I-249999J0D01*
G01*
X133149999Y-96700000D01*
G75*
G02*
X132900000Y-96450001I0J249999D01*
G01*
X132900000Y-95549999D01*
G75*
G02*
X133149999Y-95300000I249999J0D01*
G01*
X133850001Y-95300000D01*
G75*
G02*
X134100000Y-95549999I0J-249999D01*
G01*
G37*
G04 #@! TD.AperFunction*
G04 #@! TA.AperFunction,SMDPad,CuDef*
G36*
G01*
X140600000Y-95549999D02*
X140600000Y-96450001D01*
G75*
G02*
X140350001Y-96700000I-249999J0D01*
G01*
X139649999Y-96700000D01*
G75*
G02*
X139400000Y-96450001I0J249999D01*
G01*
X139400000Y-95549999D01*
G75*
G02*
X139649999Y-95300000I249999J0D01*
G01*
X140350001Y-95300000D01*
G75*
G02*
X140600000Y-95549999I0J-249999D01*
G01*
G37*
G04 #@! TD.AperFunction*
G04 #@! TA.AperFunction,SMDPad,CuDef*
G36*
G01*
X138600000Y-95549999D02*
X138600000Y-96450001D01*
G75*
G02*
X138350001Y-96700000I-249999J0D01*
G01*
X137649999Y-96700000D01*
G75*
G02*
X137400000Y-96450001I0J249999D01*
G01*
X137400000Y-95549999D01*
G75*
G02*
X137649999Y-95300000I249999J0D01*
G01*
X138350001Y-95300000D01*
G75*
G02*
X138600000Y-95549999I0J-249999D01*
G01*
G37*
G04 #@! TD.AperFunction*
D13*
X144000000Y-124500000D03*
X144000000Y-129000000D03*
X137500000Y-124500000D03*
X137500000Y-129000000D03*
D14*
X130500000Y-47500000D03*
D15*
X127960000Y-47500000D03*
X129230000Y-47500000D03*
D16*
X129700000Y-77850000D03*
X132300000Y-77850000D03*
D17*
X127425000Y-84200000D03*
X134575000Y-84200000D03*
D18*
X123800000Y-123350000D03*
X119200000Y-123350000D03*
X121500000Y-123350000D03*
D19*
X121500000Y-129650000D03*
G04 #@! TA.AperFunction,SMDPad,CuDef*
G36*
G01*
X124725000Y-116849999D02*
X124725000Y-118150001D01*
G75*
G02*
X124475001Y-118400000I-249999J0D01*
G01*
X123649999Y-118400000D01*
G75*
G02*
X123400000Y-118150001I0J249999D01*
G01*
X123400000Y-116849999D01*
G75*
G02*
X123649999Y-116600000I249999J0D01*
G01*
X124475001Y-116600000D01*
G75*
G02*
X124725000Y-116849999I0J-249999D01*
G01*
G37*
G04 #@! TD.AperFunction*
G04 #@! TA.AperFunction,SMDPad,CuDef*
G36*
G01*
X121600000Y-116849999D02*
X121600000Y-118150001D01*
G75*
G02*
X121350001Y-118400000I-249999J0D01*
G01*
X120524999Y-118400000D01*
G75*
G02*
X120275000Y-118150001I0J249999D01*
G01*
X120275000Y-116849999D01*
G75*
G02*
X120524999Y-116600000I249999J0D01*
G01*
X121350001Y-116600000D01*
G75*
G02*
X121600000Y-116849999I0J-249999D01*
G01*
G37*
G04 #@! TD.AperFunction*
D17*
X134575000Y-132700000D03*
X127425000Y-132700000D03*
D16*
X132300000Y-126350000D03*
X129700000Y-126350000D03*
D15*
X129230000Y-96000000D03*
X127960000Y-96000000D03*
D14*
X130500000Y-96000000D03*
G04 #@! TA.AperFunction,SMDPad,CuDef*
G36*
G01*
X134100000Y-47049999D02*
X134100000Y-47950001D01*
G75*
G02*
X133850001Y-48200000I-249999J0D01*
G01*
X133149999Y-48200000D01*
G75*
G02*
X132900000Y-47950001I0J249999D01*
G01*
X132900000Y-47049999D01*
G75*
G02*
X133149999Y-46800000I249999J0D01*
G01*
X133850001Y-46800000D01*
G75*
G02*
X134100000Y-47049999I0J-249999D01*
G01*
G37*
G04 #@! TD.AperFunction*
G04 #@! TA.AperFunction,SMDPad,CuDef*
G36*
G01*
X136100000Y-47049999D02*
X136100000Y-47950001D01*
G75*
G02*
X135850001Y-48200000I-249999J0D01*
G01*
X135149999Y-48200000D01*
G75*
G02*
X134900000Y-47950001I0J249999D01*
G01*
X134900000Y-47049999D01*
G75*
G02*
X135149999Y-46800000I249999J0D01*
G01*
X135850001Y-46800000D01*
G75*
G02*
X136100000Y-47049999I0J-249999D01*
G01*
G37*
G04 #@! TD.AperFunction*
G04 #@! TA.AperFunction,SMDPad,CuDef*
G36*
G01*
X122725000Y-119849999D02*
X122725000Y-121150001D01*
G75*
G02*
X122475001Y-121400000I-249999J0D01*
G01*
X121649999Y-121400000D01*
G75*
G02*
X121400000Y-121150001I0J249999D01*
G01*
X121400000Y-119849999D01*
G75*
G02*
X121649999Y-119600000I249999J0D01*
G01*
X122475001Y-119600000D01*
G75*
G02*
X122725000Y-119849999I0J-249999D01*
G01*
G37*
G04 #@! TD.AperFunction*
G04 #@! TA.AperFunction,SMDPad,CuDef*
G36*
G01*
X119600000Y-119849999D02*
X119600000Y-121150001D01*
G75*
G02*
X119350001Y-121400000I-249999J0D01*
G01*
X118524999Y-121400000D01*
G75*
G02*
X118275000Y-121150001I0J249999D01*
G01*
X118275000Y-119849999D01*
G75*
G02*
X118524999Y-119600000I249999J0D01*
G01*
X119350001Y-119600000D01*
G75*
G02*
X119600000Y-119849999I0J-249999D01*
G01*
G37*
G04 #@! TD.AperFunction*
G04 #@! TA.AperFunction,SMDPad,CuDef*
G36*
G01*
X145450001Y-70600000D02*
X144549999Y-70600000D01*
G75*
G02*
X144300000Y-70350001I0J249999D01*
G01*
X144300000Y-69649999D01*
G75*
G02*
X144549999Y-69400000I249999J0D01*
G01*
X145450001Y-69400000D01*
G75*
G02*
X145700000Y-69649999I0J-249999D01*
G01*
X145700000Y-70350001D01*
G75*
G02*
X145450001Y-70600000I-249999J0D01*
G01*
G37*
G04 #@! TD.AperFunction*
G04 #@! TA.AperFunction,SMDPad,CuDef*
G36*
G01*
X145450001Y-72600000D02*
X144549999Y-72600000D01*
G75*
G02*
X144300000Y-72350001I0J249999D01*
G01*
X144300000Y-71649999D01*
G75*
G02*
X144549999Y-71400000I249999J0D01*
G01*
X145450001Y-71400000D01*
G75*
G02*
X145700000Y-71649999I0J-249999D01*
G01*
X145700000Y-72350001D01*
G75*
G02*
X145450001Y-72600000I-249999J0D01*
G01*
G37*
G04 #@! TD.AperFunction*
D19*
X121500000Y-81150000D03*
D18*
X121500000Y-74850000D03*
X119200000Y-74850000D03*
X123800000Y-74850000D03*
D20*
X126900000Y-57500000D03*
X126900000Y-59500000D03*
X126900000Y-61500000D03*
X126900000Y-63500000D03*
X126900000Y-65500000D03*
X126900000Y-67500000D03*
X126900000Y-69500000D03*
X126900000Y-71500000D03*
D21*
X129500000Y-73000000D03*
X131500000Y-73000000D03*
X133500000Y-73000000D03*
X135500000Y-73000000D03*
X137500000Y-73000000D03*
X139500000Y-73000000D03*
D20*
X142100000Y-71500000D03*
X142100000Y-69500000D03*
X142100000Y-67500000D03*
X142100000Y-65500000D03*
X142100000Y-63500000D03*
X142100000Y-61500000D03*
X142100000Y-59500000D03*
X142100000Y-57500000D03*
D13*
X137500000Y-80500000D03*
X137500000Y-76000000D03*
X144000000Y-80500000D03*
X144000000Y-76000000D03*
D20*
X142100000Y-106000000D03*
X142100000Y-108000000D03*
X142100000Y-110000000D03*
X142100000Y-112000000D03*
X142100000Y-114000000D03*
X142100000Y-116000000D03*
X142100000Y-118000000D03*
X142100000Y-120000000D03*
D21*
X139500000Y-121500000D03*
X137500000Y-121500000D03*
X135500000Y-121500000D03*
X133500000Y-121500000D03*
X131500000Y-121500000D03*
X129500000Y-121500000D03*
D20*
X126900000Y-120000000D03*
X126900000Y-118000000D03*
X126900000Y-116000000D03*
X126900000Y-114000000D03*
X126900000Y-112000000D03*
X126900000Y-110000000D03*
X126900000Y-108000000D03*
X126900000Y-106000000D03*
G04 #@! TA.AperFunction,SMDPad,CuDef*
G36*
G01*
X138600000Y-47049999D02*
X138600000Y-47950001D01*
G75*
G02*
X138350001Y-48200000I-249999J0D01*
G01*
X137649999Y-48200000D01*
G75*
G02*
X137400000Y-47950001I0J249999D01*
G01*
X137400000Y-47049999D01*
G75*
G02*
X137649999Y-46800000I249999J0D01*
G01*
X138350001Y-46800000D01*
G75*
G02*
X138600000Y-47049999I0J-249999D01*
G01*
G37*
G04 #@! TD.AperFunction*
G04 #@! TA.AperFunction,SMDPad,CuDef*
G36*
G01*
X140600000Y-47049999D02*
X140600000Y-47950001D01*
G75*
G02*
X140350001Y-48200000I-249999J0D01*
G01*
X139649999Y-48200000D01*
G75*
G02*
X139400000Y-47950001I0J249999D01*
G01*
X139400000Y-47049999D01*
G75*
G02*
X139649999Y-46800000I249999J0D01*
G01*
X140350001Y-46800000D01*
G75*
G02*
X140600000Y-47049999I0J-249999D01*
G01*
G37*
G04 #@! TD.AperFunction*
G04 #@! TA.AperFunction,SMDPad,CuDef*
G36*
G01*
X92725000Y-68349999D02*
X92725000Y-69650001D01*
G75*
G02*
X92475001Y-69900000I-249999J0D01*
G01*
X91649999Y-69900000D01*
G75*
G02*
X91400000Y-69650001I0J249999D01*
G01*
X91400000Y-68349999D01*
G75*
G02*
X91649999Y-68100000I249999J0D01*
G01*
X92475001Y-68100000D01*
G75*
G02*
X92725000Y-68349999I0J-249999D01*
G01*
G37*
G04 #@! TD.AperFunction*
G04 #@! TA.AperFunction,SMDPad,CuDef*
G36*
G01*
X89600000Y-68349999D02*
X89600000Y-69650001D01*
G75*
G02*
X89350001Y-69900000I-249999J0D01*
G01*
X88524999Y-69900000D01*
G75*
G02*
X88275000Y-69650001I0J249999D01*
G01*
X88275000Y-68349999D01*
G75*
G02*
X88524999Y-68100000I249999J0D01*
G01*
X89350001Y-68100000D01*
G75*
G02*
X89600000Y-68349999I0J-249999D01*
G01*
G37*
G04 #@! TD.AperFunction*
G04 #@! TA.AperFunction,SMDPad,CuDef*
G36*
G01*
X90725000Y-71349999D02*
X90725000Y-72650001D01*
G75*
G02*
X90475001Y-72900000I-249999J0D01*
G01*
X89649999Y-72900000D01*
G75*
G02*
X89400000Y-72650001I0J249999D01*
G01*
X89400000Y-71349999D01*
G75*
G02*
X89649999Y-71100000I249999J0D01*
G01*
X90475001Y-71100000D01*
G75*
G02*
X90725000Y-71349999I0J-249999D01*
G01*
G37*
G04 #@! TD.AperFunction*
G04 #@! TA.AperFunction,SMDPad,CuDef*
G36*
G01*
X87600000Y-71349999D02*
X87600000Y-72650001D01*
G75*
G02*
X87350001Y-72900000I-249999J0D01*
G01*
X86524999Y-72900000D01*
G75*
G02*
X86275000Y-72650001I0J249999D01*
G01*
X86275000Y-71349999D01*
G75*
G02*
X86524999Y-71100000I249999J0D01*
G01*
X87350001Y-71100000D01*
G75*
G02*
X87600000Y-71349999I0J-249999D01*
G01*
G37*
G04 #@! TD.AperFunction*
G04 #@! TA.AperFunction,SMDPad,CuDef*
G36*
G01*
X113450001Y-119100000D02*
X112549999Y-119100000D01*
G75*
G02*
X112300000Y-118850001I0J249999D01*
G01*
X112300000Y-118149999D01*
G75*
G02*
X112549999Y-117900000I249999J0D01*
G01*
X113450001Y-117900000D01*
G75*
G02*
X113700000Y-118149999I0J-249999D01*
G01*
X113700000Y-118850001D01*
G75*
G02*
X113450001Y-119100000I-249999J0D01*
G01*
G37*
G04 #@! TD.AperFunction*
G04 #@! TA.AperFunction,SMDPad,CuDef*
G36*
G01*
X113450001Y-121100000D02*
X112549999Y-121100000D01*
G75*
G02*
X112300000Y-120850001I0J249999D01*
G01*
X112300000Y-120149999D01*
G75*
G02*
X112549999Y-119900000I249999J0D01*
G01*
X113450001Y-119900000D01*
G75*
G02*
X113700000Y-120149999I0J-249999D01*
G01*
X113700000Y-120850001D01*
G75*
G02*
X113450001Y-121100000I-249999J0D01*
G01*
G37*
G04 #@! TD.AperFunction*
G04 #@! TA.AperFunction,SMDPad,CuDef*
G36*
G01*
X102100000Y-95549999D02*
X102100000Y-96450001D01*
G75*
G02*
X101850001Y-96700000I-249999J0D01*
G01*
X101149999Y-96700000D01*
G75*
G02*
X100900000Y-96450001I0J249999D01*
G01*
X100900000Y-95549999D01*
G75*
G02*
X101149999Y-95300000I249999J0D01*
G01*
X101850001Y-95300000D01*
G75*
G02*
X102100000Y-95549999I0J-249999D01*
G01*
G37*
G04 #@! TD.AperFunction*
G04 #@! TA.AperFunction,SMDPad,CuDef*
G36*
G01*
X104100000Y-95549999D02*
X104100000Y-96450001D01*
G75*
G02*
X103850001Y-96700000I-249999J0D01*
G01*
X103149999Y-96700000D01*
G75*
G02*
X102900000Y-96450001I0J249999D01*
G01*
X102900000Y-95549999D01*
G75*
G02*
X103149999Y-95300000I249999J0D01*
G01*
X103850001Y-95300000D01*
G75*
G02*
X104100000Y-95549999I0J-249999D01*
G01*
G37*
G04 #@! TD.AperFunction*
G04 #@! TA.AperFunction,SMDPad,CuDef*
G36*
G01*
X106600000Y-95549999D02*
X106600000Y-96450001D01*
G75*
G02*
X106350001Y-96700000I-249999J0D01*
G01*
X105649999Y-96700000D01*
G75*
G02*
X105400000Y-96450001I0J249999D01*
G01*
X105400000Y-95549999D01*
G75*
G02*
X105649999Y-95300000I249999J0D01*
G01*
X106350001Y-95300000D01*
G75*
G02*
X106600000Y-95549999I0J-249999D01*
G01*
G37*
G04 #@! TD.AperFunction*
G04 #@! TA.AperFunction,SMDPad,CuDef*
G36*
G01*
X108600000Y-95549999D02*
X108600000Y-96450001D01*
G75*
G02*
X108350001Y-96700000I-249999J0D01*
G01*
X107649999Y-96700000D01*
G75*
G02*
X107400000Y-96450001I0J249999D01*
G01*
X107400000Y-95549999D01*
G75*
G02*
X107649999Y-95300000I249999J0D01*
G01*
X108350001Y-95300000D01*
G75*
G02*
X108600000Y-95549999I0J-249999D01*
G01*
G37*
G04 #@! TD.AperFunction*
D13*
X105500000Y-129000000D03*
X105500000Y-124500000D03*
X112000000Y-129000000D03*
X112000000Y-124500000D03*
D15*
X97230000Y-47500000D03*
X95960000Y-47500000D03*
D14*
X98500000Y-47500000D03*
D17*
X102575000Y-84200000D03*
X95425000Y-84200000D03*
D16*
X100300000Y-77850000D03*
X97700000Y-77850000D03*
D19*
X89500000Y-129650000D03*
D18*
X89500000Y-123350000D03*
X87200000Y-123350000D03*
X91800000Y-123350000D03*
D20*
X94900000Y-106000000D03*
X94900000Y-108000000D03*
X94900000Y-110000000D03*
X94900000Y-112000000D03*
X94900000Y-114000000D03*
X94900000Y-116000000D03*
X94900000Y-118000000D03*
X94900000Y-120000000D03*
D21*
X97500000Y-121500000D03*
X99500000Y-121500000D03*
X101500000Y-121500000D03*
X103500000Y-121500000D03*
X105500000Y-121500000D03*
X107500000Y-121500000D03*
D20*
X110100000Y-120000000D03*
X110100000Y-118000000D03*
X110100000Y-116000000D03*
X110100000Y-114000000D03*
X110100000Y-112000000D03*
X110100000Y-110000000D03*
X110100000Y-108000000D03*
X110100000Y-106000000D03*
G04 #@! TA.AperFunction,SMDPad,CuDef*
G36*
G01*
X89600000Y-116849999D02*
X89600000Y-118150001D01*
G75*
G02*
X89350001Y-118400000I-249999J0D01*
G01*
X88524999Y-118400000D01*
G75*
G02*
X88275000Y-118150001I0J249999D01*
G01*
X88275000Y-116849999D01*
G75*
G02*
X88524999Y-116600000I249999J0D01*
G01*
X89350001Y-116600000D01*
G75*
G02*
X89600000Y-116849999I0J-249999D01*
G01*
G37*
G04 #@! TD.AperFunction*
G04 #@! TA.AperFunction,SMDPad,CuDef*
G36*
G01*
X92725000Y-116849999D02*
X92725000Y-118150001D01*
G75*
G02*
X92475001Y-118400000I-249999J0D01*
G01*
X91649999Y-118400000D01*
G75*
G02*
X91400000Y-118150001I0J249999D01*
G01*
X91400000Y-116849999D01*
G75*
G02*
X91649999Y-116600000I249999J0D01*
G01*
X92475001Y-116600000D01*
G75*
G02*
X92725000Y-116849999I0J-249999D01*
G01*
G37*
G04 #@! TD.AperFunction*
D14*
X98500000Y-96000000D03*
D15*
X95960000Y-96000000D03*
X97230000Y-96000000D03*
D16*
X97700000Y-126350000D03*
X100300000Y-126350000D03*
D17*
X95425000Y-132700000D03*
X102575000Y-132700000D03*
G04 #@! TA.AperFunction,SMDPad,CuDef*
G36*
G01*
X87600000Y-119849999D02*
X87600000Y-121150001D01*
G75*
G02*
X87350001Y-121400000I-249999J0D01*
G01*
X86524999Y-121400000D01*
G75*
G02*
X86275000Y-121150001I0J249999D01*
G01*
X86275000Y-119849999D01*
G75*
G02*
X86524999Y-119600000I249999J0D01*
G01*
X87350001Y-119600000D01*
G75*
G02*
X87600000Y-119849999I0J-249999D01*
G01*
G37*
G04 #@! TD.AperFunction*
G04 #@! TA.AperFunction,SMDPad,CuDef*
G36*
G01*
X90725000Y-119849999D02*
X90725000Y-121150001D01*
G75*
G02*
X90475001Y-121400000I-249999J0D01*
G01*
X89649999Y-121400000D01*
G75*
G02*
X89400000Y-121150001I0J249999D01*
G01*
X89400000Y-119849999D01*
G75*
G02*
X89649999Y-119600000I249999J0D01*
G01*
X90475001Y-119600000D01*
G75*
G02*
X90725000Y-119849999I0J-249999D01*
G01*
G37*
G04 #@! TD.AperFunction*
G04 #@! TA.AperFunction,SMDPad,CuDef*
G36*
G01*
X113450001Y-72600000D02*
X112549999Y-72600000D01*
G75*
G02*
X112300000Y-72350001I0J249999D01*
G01*
X112300000Y-71649999D01*
G75*
G02*
X112549999Y-71400000I249999J0D01*
G01*
X113450001Y-71400000D01*
G75*
G02*
X113700000Y-71649999I0J-249999D01*
G01*
X113700000Y-72350001D01*
G75*
G02*
X113450001Y-72600000I-249999J0D01*
G01*
G37*
G04 #@! TD.AperFunction*
G04 #@! TA.AperFunction,SMDPad,CuDef*
G36*
G01*
X113450001Y-70600000D02*
X112549999Y-70600000D01*
G75*
G02*
X112300000Y-70350001I0J249999D01*
G01*
X112300000Y-69649999D01*
G75*
G02*
X112549999Y-69400000I249999J0D01*
G01*
X113450001Y-69400000D01*
G75*
G02*
X113700000Y-69649999I0J-249999D01*
G01*
X113700000Y-70350001D01*
G75*
G02*
X113450001Y-70600000I-249999J0D01*
G01*
G37*
G04 #@! TD.AperFunction*
G04 #@! TA.AperFunction,SMDPad,CuDef*
G36*
G01*
X104100000Y-47049999D02*
X104100000Y-47950001D01*
G75*
G02*
X103850001Y-48200000I-249999J0D01*
G01*
X103149999Y-48200000D01*
G75*
G02*
X102900000Y-47950001I0J249999D01*
G01*
X102900000Y-47049999D01*
G75*
G02*
X103149999Y-46800000I249999J0D01*
G01*
X103850001Y-46800000D01*
G75*
G02*
X104100000Y-47049999I0J-249999D01*
G01*
G37*
G04 #@! TD.AperFunction*
G04 #@! TA.AperFunction,SMDPad,CuDef*
G36*
G01*
X102100000Y-47049999D02*
X102100000Y-47950001D01*
G75*
G02*
X101850001Y-48200000I-249999J0D01*
G01*
X101149999Y-48200000D01*
G75*
G02*
X100900000Y-47950001I0J249999D01*
G01*
X100900000Y-47049999D01*
G75*
G02*
X101149999Y-46800000I249999J0D01*
G01*
X101850001Y-46800000D01*
G75*
G02*
X102100000Y-47049999I0J-249999D01*
G01*
G37*
G04 #@! TD.AperFunction*
G04 #@! TA.AperFunction,SMDPad,CuDef*
G36*
G01*
X108600000Y-47049999D02*
X108600000Y-47950001D01*
G75*
G02*
X108350001Y-48200000I-249999J0D01*
G01*
X107649999Y-48200000D01*
G75*
G02*
X107400000Y-47950001I0J249999D01*
G01*
X107400000Y-47049999D01*
G75*
G02*
X107649999Y-46800000I249999J0D01*
G01*
X108350001Y-46800000D01*
G75*
G02*
X108600000Y-47049999I0J-249999D01*
G01*
G37*
G04 #@! TD.AperFunction*
G04 #@! TA.AperFunction,SMDPad,CuDef*
G36*
G01*
X106600000Y-47049999D02*
X106600000Y-47950001D01*
G75*
G02*
X106350001Y-48200000I-249999J0D01*
G01*
X105649999Y-48200000D01*
G75*
G02*
X105400000Y-47950001I0J249999D01*
G01*
X105400000Y-47049999D01*
G75*
G02*
X105649999Y-46800000I249999J0D01*
G01*
X106350001Y-46800000D01*
G75*
G02*
X106600000Y-47049999I0J-249999D01*
G01*
G37*
G04 #@! TD.AperFunction*
D18*
X91800000Y-74850000D03*
X87200000Y-74850000D03*
X89500000Y-74850000D03*
D19*
X89500000Y-81150000D03*
D20*
X110100000Y-57500000D03*
X110100000Y-59500000D03*
X110100000Y-61500000D03*
X110100000Y-63500000D03*
X110100000Y-65500000D03*
X110100000Y-67500000D03*
X110100000Y-69500000D03*
X110100000Y-71500000D03*
D21*
X107500000Y-73000000D03*
X105500000Y-73000000D03*
X103500000Y-73000000D03*
X101500000Y-73000000D03*
X99500000Y-73000000D03*
X97500000Y-73000000D03*
D20*
X94900000Y-71500000D03*
X94900000Y-69500000D03*
X94900000Y-67500000D03*
X94900000Y-65500000D03*
X94900000Y-63500000D03*
X94900000Y-61500000D03*
X94900000Y-59500000D03*
X94900000Y-57500000D03*
D13*
X112000000Y-76000000D03*
X112000000Y-80500000D03*
X105500000Y-76000000D03*
X105500000Y-80500000D03*
G04 #@! TA.AperFunction,SMDPad,CuDef*
G36*
G01*
X60725000Y-116849999D02*
X60725000Y-118150001D01*
G75*
G02*
X60475001Y-118400000I-249999J0D01*
G01*
X59649999Y-118400000D01*
G75*
G02*
X59400000Y-118150001I0J249999D01*
G01*
X59400000Y-116849999D01*
G75*
G02*
X59649999Y-116600000I249999J0D01*
G01*
X60475001Y-116600000D01*
G75*
G02*
X60725000Y-116849999I0J-249999D01*
G01*
G37*
G04 #@! TD.AperFunction*
G04 #@! TA.AperFunction,SMDPad,CuDef*
G36*
G01*
X57600000Y-116849999D02*
X57600000Y-118150001D01*
G75*
G02*
X57350001Y-118400000I-249999J0D01*
G01*
X56524999Y-118400000D01*
G75*
G02*
X56275000Y-118150001I0J249999D01*
G01*
X56275000Y-116849999D01*
G75*
G02*
X56524999Y-116600000I249999J0D01*
G01*
X57350001Y-116600000D01*
G75*
G02*
X57600000Y-116849999I0J-249999D01*
G01*
G37*
G04 #@! TD.AperFunction*
G04 #@! TA.AperFunction,SMDPad,CuDef*
G36*
G01*
X58725000Y-119849999D02*
X58725000Y-121150001D01*
G75*
G02*
X58475001Y-121400000I-249999J0D01*
G01*
X57649999Y-121400000D01*
G75*
G02*
X57400000Y-121150001I0J249999D01*
G01*
X57400000Y-119849999D01*
G75*
G02*
X57649999Y-119600000I249999J0D01*
G01*
X58475001Y-119600000D01*
G75*
G02*
X58725000Y-119849999I0J-249999D01*
G01*
G37*
G04 #@! TD.AperFunction*
G04 #@! TA.AperFunction,SMDPad,CuDef*
G36*
G01*
X55600000Y-119849999D02*
X55600000Y-121150001D01*
G75*
G02*
X55350001Y-121400000I-249999J0D01*
G01*
X54524999Y-121400000D01*
G75*
G02*
X54275000Y-121150001I0J249999D01*
G01*
X54275000Y-119849999D01*
G75*
G02*
X54524999Y-119600000I249999J0D01*
G01*
X55350001Y-119600000D01*
G75*
G02*
X55600000Y-119849999I0J-249999D01*
G01*
G37*
G04 #@! TD.AperFunction*
D15*
X65230000Y-96000000D03*
X63960000Y-96000000D03*
D14*
X66500000Y-96000000D03*
D17*
X70575000Y-132700000D03*
X63425000Y-132700000D03*
D16*
X68300000Y-126350000D03*
X65700000Y-126350000D03*
G04 #@! TA.AperFunction,SMDPad,CuDef*
G36*
G01*
X81450001Y-121100000D02*
X80549999Y-121100000D01*
G75*
G02*
X80300000Y-120850001I0J249999D01*
G01*
X80300000Y-120149999D01*
G75*
G02*
X80549999Y-119900000I249999J0D01*
G01*
X81450001Y-119900000D01*
G75*
G02*
X81700000Y-120149999I0J-249999D01*
G01*
X81700000Y-120850001D01*
G75*
G02*
X81450001Y-121100000I-249999J0D01*
G01*
G37*
G04 #@! TD.AperFunction*
G04 #@! TA.AperFunction,SMDPad,CuDef*
G36*
G01*
X81450001Y-119100000D02*
X80549999Y-119100000D01*
G75*
G02*
X80300000Y-118850001I0J249999D01*
G01*
X80300000Y-118149999D01*
G75*
G02*
X80549999Y-117900000I249999J0D01*
G01*
X81450001Y-117900000D01*
G75*
G02*
X81700000Y-118149999I0J-249999D01*
G01*
X81700000Y-118850001D01*
G75*
G02*
X81450001Y-119100000I-249999J0D01*
G01*
G37*
G04 #@! TD.AperFunction*
G04 #@! TA.AperFunction,SMDPad,CuDef*
G36*
G01*
X72100000Y-95549999D02*
X72100000Y-96450001D01*
G75*
G02*
X71850001Y-96700000I-249999J0D01*
G01*
X71149999Y-96700000D01*
G75*
G02*
X70900000Y-96450001I0J249999D01*
G01*
X70900000Y-95549999D01*
G75*
G02*
X71149999Y-95300000I249999J0D01*
G01*
X71850001Y-95300000D01*
G75*
G02*
X72100000Y-95549999I0J-249999D01*
G01*
G37*
G04 #@! TD.AperFunction*
G04 #@! TA.AperFunction,SMDPad,CuDef*
G36*
G01*
X70100000Y-95549999D02*
X70100000Y-96450001D01*
G75*
G02*
X69850001Y-96700000I-249999J0D01*
G01*
X69149999Y-96700000D01*
G75*
G02*
X68900000Y-96450001I0J249999D01*
G01*
X68900000Y-95549999D01*
G75*
G02*
X69149999Y-95300000I249999J0D01*
G01*
X69850001Y-95300000D01*
G75*
G02*
X70100000Y-95549999I0J-249999D01*
G01*
G37*
G04 #@! TD.AperFunction*
G04 #@! TA.AperFunction,SMDPad,CuDef*
G36*
G01*
X76600000Y-95549999D02*
X76600000Y-96450001D01*
G75*
G02*
X76350001Y-96700000I-249999J0D01*
G01*
X75649999Y-96700000D01*
G75*
G02*
X75400000Y-96450001I0J249999D01*
G01*
X75400000Y-95549999D01*
G75*
G02*
X75649999Y-95300000I249999J0D01*
G01*
X76350001Y-95300000D01*
G75*
G02*
X76600000Y-95549999I0J-249999D01*
G01*
G37*
G04 #@! TD.AperFunction*
G04 #@! TA.AperFunction,SMDPad,CuDef*
G36*
G01*
X74600000Y-95549999D02*
X74600000Y-96450001D01*
G75*
G02*
X74350001Y-96700000I-249999J0D01*
G01*
X73649999Y-96700000D01*
G75*
G02*
X73400000Y-96450001I0J249999D01*
G01*
X73400000Y-95549999D01*
G75*
G02*
X73649999Y-95300000I249999J0D01*
G01*
X74350001Y-95300000D01*
G75*
G02*
X74600000Y-95549999I0J-249999D01*
G01*
G37*
G04 #@! TD.AperFunction*
D18*
X59800000Y-123350000D03*
X55200000Y-123350000D03*
X57500000Y-123350000D03*
D19*
X57500000Y-129650000D03*
D20*
X78100000Y-106000000D03*
X78100000Y-108000000D03*
X78100000Y-110000000D03*
X78100000Y-112000000D03*
X78100000Y-114000000D03*
X78100000Y-116000000D03*
X78100000Y-118000000D03*
X78100000Y-120000000D03*
D21*
X75500000Y-121500000D03*
X73500000Y-121500000D03*
X71500000Y-121500000D03*
X69500000Y-121500000D03*
X67500000Y-121500000D03*
X65500000Y-121500000D03*
D20*
X62900000Y-120000000D03*
X62900000Y-118000000D03*
X62900000Y-116000000D03*
X62900000Y-114000000D03*
X62900000Y-112000000D03*
X62900000Y-110000000D03*
X62900000Y-108000000D03*
X62900000Y-106000000D03*
D13*
X80000000Y-124500000D03*
X80000000Y-129000000D03*
X73500000Y-124500000D03*
X73500000Y-129000000D03*
D14*
X66500000Y-47500000D03*
D15*
X63960000Y-47500000D03*
X65230000Y-47500000D03*
G04 #@! TA.AperFunction,SMDPad,CuDef*
G36*
G01*
X57600000Y-68349999D02*
X57600000Y-69650001D01*
G75*
G02*
X57350001Y-69900000I-249999J0D01*
G01*
X56524999Y-69900000D01*
G75*
G02*
X56275000Y-69650001I0J249999D01*
G01*
X56275000Y-68349999D01*
G75*
G02*
X56524999Y-68100000I249999J0D01*
G01*
X57350001Y-68100000D01*
G75*
G02*
X57600000Y-68349999I0J-249999D01*
G01*
G37*
G04 #@! TD.AperFunction*
G04 #@! TA.AperFunction,SMDPad,CuDef*
G36*
G01*
X60725000Y-68349999D02*
X60725000Y-69650001D01*
G75*
G02*
X60475001Y-69900000I-249999J0D01*
G01*
X59649999Y-69900000D01*
G75*
G02*
X59400000Y-69650001I0J249999D01*
G01*
X59400000Y-68349999D01*
G75*
G02*
X59649999Y-68100000I249999J0D01*
G01*
X60475001Y-68100000D01*
G75*
G02*
X60725000Y-68349999I0J-249999D01*
G01*
G37*
G04 #@! TD.AperFunction*
G04 #@! TA.AperFunction,SMDPad,CuDef*
G36*
G01*
X55600000Y-71349999D02*
X55600000Y-72650001D01*
G75*
G02*
X55350001Y-72900000I-249999J0D01*
G01*
X54524999Y-72900000D01*
G75*
G02*
X54275000Y-72650001I0J249999D01*
G01*
X54275000Y-71349999D01*
G75*
G02*
X54524999Y-71100000I249999J0D01*
G01*
X55350001Y-71100000D01*
G75*
G02*
X55600000Y-71349999I0J-249999D01*
G01*
G37*
G04 #@! TD.AperFunction*
G04 #@! TA.AperFunction,SMDPad,CuDef*
G36*
G01*
X58725000Y-71349999D02*
X58725000Y-72650001D01*
G75*
G02*
X58475001Y-72900000I-249999J0D01*
G01*
X57649999Y-72900000D01*
G75*
G02*
X57400000Y-72650001I0J249999D01*
G01*
X57400000Y-71349999D01*
G75*
G02*
X57649999Y-71100000I249999J0D01*
G01*
X58475001Y-71100000D01*
G75*
G02*
X58725000Y-71349999I0J-249999D01*
G01*
G37*
G04 #@! TD.AperFunction*
D16*
X65700000Y-77850000D03*
X68300000Y-77850000D03*
D17*
X63425000Y-84200000D03*
X70575000Y-84200000D03*
G04 #@! TA.AperFunction,SMDPad,CuDef*
G36*
G01*
X81450001Y-70600000D02*
X80549999Y-70600000D01*
G75*
G02*
X80300000Y-70350001I0J249999D01*
G01*
X80300000Y-69649999D01*
G75*
G02*
X80549999Y-69400000I249999J0D01*
G01*
X81450001Y-69400000D01*
G75*
G02*
X81700000Y-69649999I0J-249999D01*
G01*
X81700000Y-70350001D01*
G75*
G02*
X81450001Y-70600000I-249999J0D01*
G01*
G37*
G04 #@! TD.AperFunction*
G04 #@! TA.AperFunction,SMDPad,CuDef*
G36*
G01*
X81450001Y-72600000D02*
X80549999Y-72600000D01*
G75*
G02*
X80300000Y-72350001I0J249999D01*
G01*
X80300000Y-71649999D01*
G75*
G02*
X80549999Y-71400000I249999J0D01*
G01*
X81450001Y-71400000D01*
G75*
G02*
X81700000Y-71649999I0J-249999D01*
G01*
X81700000Y-72350001D01*
G75*
G02*
X81450001Y-72600000I-249999J0D01*
G01*
G37*
G04 #@! TD.AperFunction*
G04 #@! TA.AperFunction,SMDPad,CuDef*
G36*
G01*
X74600000Y-47049999D02*
X74600000Y-47950001D01*
G75*
G02*
X74350001Y-48200000I-249999J0D01*
G01*
X73649999Y-48200000D01*
G75*
G02*
X73400000Y-47950001I0J249999D01*
G01*
X73400000Y-47049999D01*
G75*
G02*
X73649999Y-46800000I249999J0D01*
G01*
X74350001Y-46800000D01*
G75*
G02*
X74600000Y-47049999I0J-249999D01*
G01*
G37*
G04 #@! TD.AperFunction*
G04 #@! TA.AperFunction,SMDPad,CuDef*
G36*
G01*
X76600000Y-47049999D02*
X76600000Y-47950001D01*
G75*
G02*
X76350001Y-48200000I-249999J0D01*
G01*
X75649999Y-48200000D01*
G75*
G02*
X75400000Y-47950001I0J249999D01*
G01*
X75400000Y-47049999D01*
G75*
G02*
X75649999Y-46800000I249999J0D01*
G01*
X76350001Y-46800000D01*
G75*
G02*
X76600000Y-47049999I0J-249999D01*
G01*
G37*
G04 #@! TD.AperFunction*
G04 #@! TA.AperFunction,SMDPad,CuDef*
G36*
G01*
X70100000Y-47049999D02*
X70100000Y-47950001D01*
G75*
G02*
X69850001Y-48200000I-249999J0D01*
G01*
X69149999Y-48200000D01*
G75*
G02*
X68900000Y-47950001I0J249999D01*
G01*
X68900000Y-47049999D01*
G75*
G02*
X69149999Y-46800000I249999J0D01*
G01*
X69850001Y-46800000D01*
G75*
G02*
X70100000Y-47049999I0J-249999D01*
G01*
G37*
G04 #@! TD.AperFunction*
G04 #@! TA.AperFunction,SMDPad,CuDef*
G36*
G01*
X72100000Y-47049999D02*
X72100000Y-47950001D01*
G75*
G02*
X71850001Y-48200000I-249999J0D01*
G01*
X71149999Y-48200000D01*
G75*
G02*
X70900000Y-47950001I0J249999D01*
G01*
X70900000Y-47049999D01*
G75*
G02*
X71149999Y-46800000I249999J0D01*
G01*
X71850001Y-46800000D01*
G75*
G02*
X72100000Y-47049999I0J-249999D01*
G01*
G37*
G04 #@! TD.AperFunction*
D20*
X62900000Y-57500000D03*
X62900000Y-59500000D03*
X62900000Y-61500000D03*
X62900000Y-63500000D03*
X62900000Y-65500000D03*
X62900000Y-67500000D03*
X62900000Y-69500000D03*
X62900000Y-71500000D03*
D21*
X65500000Y-73000000D03*
X67500000Y-73000000D03*
X69500000Y-73000000D03*
X71500000Y-73000000D03*
X73500000Y-73000000D03*
X75500000Y-73000000D03*
D20*
X78100000Y-71500000D03*
X78100000Y-69500000D03*
X78100000Y-67500000D03*
X78100000Y-65500000D03*
X78100000Y-63500000D03*
X78100000Y-61500000D03*
X78100000Y-59500000D03*
X78100000Y-57500000D03*
D13*
X73500000Y-80500000D03*
X73500000Y-76000000D03*
X80000000Y-80500000D03*
X80000000Y-76000000D03*
D19*
X57500000Y-81150000D03*
D18*
X57500000Y-74850000D03*
X55200000Y-74850000D03*
X59800000Y-74850000D03*
D22*
X58500000Y-83000000D03*
X58500000Y-131500000D03*
X90500000Y-83000000D03*
X90500000Y-131500000D03*
X122500000Y-131500000D03*
X122500000Y-83000000D03*
D23*
X73500000Y-80500000D02*
X80000000Y-80500000D01*
X72500000Y-44500000D02*
X72684991Y-44315009D01*
X81325001Y-72325001D02*
X81000000Y-72000000D01*
X81325001Y-79174999D02*
X81325001Y-72325001D01*
X80000000Y-80500000D02*
X81325001Y-79174999D01*
X78600000Y-72000000D02*
X78100000Y-71500000D01*
X81000000Y-72000000D02*
X78600000Y-72000000D01*
X57537500Y-72000000D02*
X57537500Y-72587500D01*
X63960000Y-49835978D02*
X63960000Y-47500000D01*
X61324999Y-57733102D02*
X61324999Y-52470979D01*
X59090827Y-59967274D02*
X61324999Y-57733102D01*
X61324999Y-52470979D02*
X63960000Y-49835978D01*
X59090827Y-65409173D02*
X59090827Y-59967274D01*
X57962500Y-66537500D02*
X59090827Y-65409173D01*
X70950000Y-80500000D02*
X68300000Y-77850000D01*
X73500000Y-80500000D02*
X70950000Y-80500000D01*
X65300000Y-74850000D02*
X68300000Y-77850000D01*
X59800000Y-74850000D02*
X65300000Y-74850000D01*
X57962500Y-67975000D02*
X56937500Y-69000000D01*
X57962500Y-66537500D02*
X57962500Y-67975000D01*
X56937500Y-70875000D02*
X58062500Y-72000000D01*
X56937500Y-69000000D02*
X56937500Y-70875000D01*
X78600000Y-120500000D02*
X78100000Y-120000000D01*
X81000000Y-120500000D02*
X78600000Y-120500000D01*
X73500000Y-129000000D02*
X80000000Y-129000000D01*
X72500000Y-93000000D02*
X72684991Y-92815009D01*
X59090827Y-113909173D02*
X59090827Y-108467274D01*
X57962500Y-115037500D02*
X59090827Y-113909173D01*
X57537500Y-120500000D02*
X57537500Y-121087500D01*
X81325001Y-127674999D02*
X81325001Y-120825001D01*
X80000000Y-129000000D02*
X81325001Y-127674999D01*
X81325001Y-120825001D02*
X81000000Y-120500000D01*
X61324999Y-106233102D02*
X61324999Y-100970979D01*
X59090827Y-108467274D02*
X61324999Y-106233102D01*
X63960000Y-98335978D02*
X63960000Y-96000000D01*
X61324999Y-100970979D02*
X63960000Y-98335978D01*
X70950000Y-129000000D02*
X68300000Y-126350000D01*
X73500000Y-129000000D02*
X70950000Y-129000000D01*
X65300000Y-123350000D02*
X68300000Y-126350000D01*
X59800000Y-123350000D02*
X65300000Y-123350000D01*
X57962500Y-116475000D02*
X56937500Y-117500000D01*
X57962500Y-115037500D02*
X57962500Y-116475000D01*
X56937500Y-119375000D02*
X58062500Y-120500000D01*
X56937500Y-117500000D02*
X56937500Y-119375000D01*
X110600000Y-72000000D02*
X110100000Y-71500000D01*
X113000000Y-72000000D02*
X110600000Y-72000000D01*
X105500000Y-80500000D02*
X112000000Y-80500000D01*
X104500000Y-44500000D02*
X104684991Y-44315009D01*
X91090827Y-65409173D02*
X91090827Y-59967274D01*
X89962500Y-66537500D02*
X91090827Y-65409173D01*
X89537500Y-72000000D02*
X89537500Y-72587500D01*
X113325001Y-79174999D02*
X113325001Y-72325001D01*
X112000000Y-80500000D02*
X113325001Y-79174999D01*
X113325001Y-72325001D02*
X113000000Y-72000000D01*
X93324999Y-57733102D02*
X93324999Y-52470979D01*
X91090827Y-59967274D02*
X93324999Y-57733102D01*
X95960000Y-49835978D02*
X95960000Y-47500000D01*
X93324999Y-52470979D02*
X95960000Y-49835978D01*
X102950000Y-80500000D02*
X100300000Y-77850000D01*
X105500000Y-80500000D02*
X102950000Y-80500000D01*
X97300000Y-74850000D02*
X100300000Y-77850000D01*
X91800000Y-74850000D02*
X97300000Y-74850000D01*
X104500000Y-93000000D02*
X104684991Y-92815009D01*
X110600000Y-120500000D02*
X110100000Y-120000000D01*
X113000000Y-120500000D02*
X110600000Y-120500000D01*
X105500000Y-129000000D02*
X112000000Y-129000000D01*
X105500000Y-129000000D02*
X102950000Y-129000000D01*
X113325001Y-127674999D02*
X113325001Y-120825001D01*
X89962500Y-115037500D02*
X89962500Y-116475000D01*
X97300000Y-123350000D02*
X100300000Y-126350000D01*
X91800000Y-123350000D02*
X97300000Y-123350000D01*
X93324999Y-106233102D02*
X93324999Y-100970979D01*
X113325001Y-120825001D02*
X113000000Y-120500000D01*
X89537500Y-120500000D02*
X89537500Y-121087500D01*
X95960000Y-98335978D02*
X95960000Y-96000000D01*
X89962500Y-115037500D02*
X91090827Y-113909173D01*
X91090827Y-113909173D02*
X91090827Y-108467274D01*
X89962500Y-116475000D02*
X88937500Y-117500000D01*
X88937500Y-119375000D02*
X90062500Y-120500000D01*
X112000000Y-129000000D02*
X113325001Y-127674999D01*
X102950000Y-129000000D02*
X100300000Y-126350000D01*
X88937500Y-117500000D02*
X88937500Y-119375000D01*
X91090827Y-108467274D02*
X93324999Y-106233102D01*
X93324999Y-100970979D02*
X95960000Y-98335978D01*
X89962500Y-67975000D02*
X88937500Y-69000000D01*
X89962500Y-66537500D02*
X89962500Y-67975000D01*
X88937500Y-70875000D02*
X90062500Y-72000000D01*
X88937500Y-69000000D02*
X88937500Y-70875000D01*
X145325001Y-72325001D02*
X145000000Y-72000000D01*
X125324999Y-57733102D02*
X125324999Y-52470979D01*
X127960000Y-49835978D02*
X127960000Y-47500000D01*
X134950000Y-80500000D02*
X132300000Y-77850000D01*
X123090827Y-59967274D02*
X125324999Y-57733102D01*
X125324999Y-52470979D02*
X127960000Y-49835978D01*
X137500000Y-129000000D02*
X144000000Y-129000000D01*
X129300000Y-74850000D02*
X132300000Y-77850000D01*
X142600000Y-120500000D02*
X142100000Y-120000000D01*
X145325001Y-127674999D02*
X145325001Y-120825001D01*
X123800000Y-74850000D02*
X129300000Y-74850000D01*
X137500000Y-129000000D02*
X134950000Y-129000000D01*
X145000000Y-120500000D02*
X142600000Y-120500000D01*
X136500000Y-93000000D02*
X136684991Y-92815009D01*
X137500000Y-80500000D02*
X134950000Y-80500000D01*
X129300000Y-123350000D02*
X132300000Y-126350000D01*
X121537500Y-120500000D02*
X121537500Y-121087500D01*
X125324999Y-106233102D02*
X125324999Y-100970979D01*
X121962500Y-115037500D02*
X123090827Y-113909173D01*
X123090827Y-113909173D02*
X123090827Y-108467274D01*
X123800000Y-123350000D02*
X129300000Y-123350000D01*
X127960000Y-98335978D02*
X127960000Y-96000000D01*
X121962500Y-116475000D02*
X120937500Y-117500000D01*
X121962500Y-115037500D02*
X121962500Y-116475000D01*
X145325001Y-120825001D02*
X145000000Y-120500000D01*
X144000000Y-129000000D02*
X145325001Y-127674999D01*
X120937500Y-117500000D02*
X120937500Y-119375000D01*
X125324999Y-100970979D02*
X127960000Y-98335978D01*
X121962500Y-67975000D02*
X120937500Y-69000000D01*
X120937500Y-70875000D02*
X122062500Y-72000000D01*
X121962500Y-66537500D02*
X121962500Y-67975000D01*
X120937500Y-69000000D02*
X120937500Y-70875000D01*
X134950000Y-129000000D02*
X132300000Y-126350000D01*
X123090827Y-108467274D02*
X125324999Y-106233102D01*
X120937500Y-119375000D02*
X122062500Y-120500000D01*
X137500000Y-80500000D02*
X144000000Y-80500000D01*
X136500000Y-44500000D02*
X136684991Y-44315009D01*
X145000000Y-72000000D02*
X142600000Y-72000000D01*
X142600000Y-72000000D02*
X142100000Y-71500000D01*
X123090827Y-65409173D02*
X123090827Y-59967274D01*
X121537500Y-72000000D02*
X121537500Y-72587500D01*
X145325001Y-79174999D02*
X145325001Y-72325001D01*
X144000000Y-80500000D02*
X145325001Y-79174999D01*
X121962500Y-66537500D02*
X123090827Y-65409173D01*
X55200000Y-72262500D02*
X55462500Y-72000000D01*
X55200000Y-74850000D02*
X55200000Y-72262500D01*
X64025001Y-76175001D02*
X65700000Y-77850000D01*
X56525001Y-76175001D02*
X64025001Y-76175001D01*
X55200000Y-74850000D02*
X56525001Y-76175001D01*
X55200000Y-120762500D02*
X55462500Y-120500000D01*
X55200000Y-123350000D02*
X55200000Y-120762500D01*
X64025001Y-124675001D02*
X65700000Y-126350000D01*
X56525001Y-124675001D02*
X64025001Y-124675001D01*
X55200000Y-123350000D02*
X56525001Y-124675001D01*
X87200000Y-72262500D02*
X87462500Y-72000000D01*
X87200000Y-74850000D02*
X87200000Y-72262500D01*
X96025001Y-76175001D02*
X97700000Y-77850000D01*
X88525001Y-76175001D02*
X96025001Y-76175001D01*
X87200000Y-74850000D02*
X88525001Y-76175001D01*
X96025001Y-124675001D02*
X97700000Y-126350000D01*
X87200000Y-123350000D02*
X87200000Y-120762500D01*
X87200000Y-123350000D02*
X88525001Y-124675001D01*
X87200000Y-120762500D02*
X87462500Y-120500000D01*
X88525001Y-124675001D02*
X96025001Y-124675001D01*
X119200000Y-74850000D02*
X119200000Y-72262500D01*
X120525001Y-76175001D02*
X128025001Y-76175001D01*
X128025001Y-76175001D02*
X129700000Y-77850000D01*
X119200000Y-74850000D02*
X120525001Y-76175001D01*
X119200000Y-120762500D02*
X119462500Y-120500000D01*
X120525001Y-124675001D02*
X128025001Y-124675001D01*
X128025001Y-124675001D02*
X129700000Y-126350000D01*
X119200000Y-123350000D02*
X120525001Y-124675001D01*
X119200000Y-123350000D02*
X119200000Y-120762500D01*
X119200000Y-72262500D02*
X119462500Y-72000000D01*
X57500000Y-82000000D02*
X58500000Y-83000000D01*
X57500000Y-81150000D02*
X57500000Y-82000000D01*
X62037500Y-71500000D02*
X62900000Y-71500000D01*
X60037500Y-69500000D02*
X62037500Y-71500000D01*
X62564998Y-61500000D02*
X62900000Y-61500000D01*
X60037500Y-64027498D02*
X62564998Y-61500000D01*
X60037500Y-69500000D02*
X60037500Y-64027498D01*
X69960000Y-47460000D02*
X70000000Y-47500000D01*
X71500000Y-47500000D02*
X74000000Y-47500000D01*
X71500000Y-45540000D02*
X69960000Y-44000000D01*
X71500000Y-47500000D02*
X71500000Y-45540000D01*
X63235002Y-61500000D02*
X62900000Y-61500000D01*
X71500000Y-53235002D02*
X63235002Y-61500000D01*
X71500000Y-47500000D02*
X71500000Y-53235002D01*
X60600000Y-71500000D02*
X62900000Y-71500000D01*
X57500000Y-74600000D02*
X60600000Y-71500000D01*
X57500000Y-74850000D02*
X57500000Y-74600000D01*
X62037500Y-120000000D02*
X62900000Y-120000000D01*
X60037500Y-118000000D02*
X62037500Y-120000000D01*
X71500000Y-96000000D02*
X71500000Y-94040000D01*
X71500000Y-96000000D02*
X74000000Y-96000000D01*
X71500000Y-94040000D02*
X69960000Y-92500000D01*
X62564998Y-110000000D02*
X62900000Y-110000000D01*
X60037500Y-118000000D02*
X60037500Y-112527498D01*
X60037500Y-112527498D02*
X62564998Y-110000000D01*
X57500000Y-130500000D02*
X58500000Y-131500000D01*
X57500000Y-129650000D02*
X57500000Y-130500000D01*
X57500000Y-123350000D02*
X57500000Y-123100000D01*
X60600000Y-120000000D02*
X62900000Y-120000000D01*
X57500000Y-123100000D02*
X60600000Y-120000000D01*
X71500000Y-101735002D02*
X63235002Y-110000000D01*
X71500000Y-96000000D02*
X71500000Y-101735002D01*
X63235002Y-110000000D02*
X62900000Y-110000000D01*
X94037500Y-71500000D02*
X94900000Y-71500000D01*
X92037500Y-69500000D02*
X94037500Y-71500000D01*
X103500000Y-47500000D02*
X103500000Y-45540000D01*
X103500000Y-47500000D02*
X106000000Y-47500000D01*
X103500000Y-45540000D02*
X101960000Y-44000000D01*
X94564998Y-61500000D02*
X94900000Y-61500000D01*
X92037500Y-69500000D02*
X92037500Y-64027498D01*
X92037500Y-64027498D02*
X94564998Y-61500000D01*
X89500000Y-82000000D02*
X90500000Y-83000000D01*
X89500000Y-81150000D02*
X89500000Y-82000000D01*
X89500000Y-74850000D02*
X89500000Y-74600000D01*
X92600000Y-71500000D02*
X94900000Y-71500000D01*
X89500000Y-74600000D02*
X92600000Y-71500000D01*
X103500000Y-53235002D02*
X95235002Y-61500000D01*
X103500000Y-47500000D02*
X103500000Y-53235002D01*
X95235002Y-61500000D02*
X94900000Y-61500000D01*
X94037500Y-120000000D02*
X94900000Y-120000000D01*
X103500000Y-96000000D02*
X106000000Y-96000000D01*
X92037500Y-118000000D02*
X94037500Y-120000000D01*
X94564998Y-110000000D02*
X94900000Y-110000000D01*
X89500000Y-130500000D02*
X90500000Y-131500000D01*
X92037500Y-112527498D02*
X94564998Y-110000000D01*
X103500000Y-94040000D02*
X101960000Y-92500000D01*
X89500000Y-129650000D02*
X89500000Y-130500000D01*
X103500000Y-96000000D02*
X103500000Y-94040000D01*
X92037500Y-118000000D02*
X92037500Y-112527498D01*
X89500000Y-123100000D02*
X92600000Y-120000000D01*
X103500000Y-96000000D02*
X103500000Y-101735002D01*
X89500000Y-123350000D02*
X89500000Y-123100000D01*
X95235002Y-110000000D02*
X94900000Y-110000000D01*
X103500000Y-101735002D02*
X95235002Y-110000000D01*
X92600000Y-120000000D02*
X94900000Y-120000000D01*
X121500000Y-129650000D02*
X121500000Y-130500000D01*
X124037500Y-118000000D02*
X126037500Y-120000000D01*
X126037500Y-120000000D02*
X126900000Y-120000000D01*
X121500000Y-123100000D02*
X124600000Y-120000000D01*
X126564998Y-110000000D02*
X126900000Y-110000000D01*
X121500000Y-130500000D02*
X122500000Y-131500000D01*
X124037500Y-118000000D02*
X124037500Y-112527498D01*
X135500000Y-96000000D02*
X135500000Y-94040000D01*
X135500000Y-94040000D02*
X133960000Y-92500000D01*
X135500000Y-96000000D02*
X138000000Y-96000000D01*
X124037500Y-112527498D02*
X126564998Y-110000000D01*
X135500000Y-96000000D02*
X135500000Y-101735002D01*
X135500000Y-101735002D02*
X127235002Y-110000000D01*
X124600000Y-120000000D02*
X126900000Y-120000000D01*
X121500000Y-123350000D02*
X121500000Y-123100000D01*
X127235002Y-110000000D02*
X126900000Y-110000000D01*
X124037500Y-69500000D02*
X126037500Y-71500000D01*
X126037500Y-71500000D02*
X126900000Y-71500000D01*
X135500000Y-47500000D02*
X135500000Y-45540000D01*
X135500000Y-47500000D02*
X138000000Y-47500000D01*
X135500000Y-45540000D02*
X133960000Y-44000000D01*
X121500000Y-74850000D02*
X121500000Y-74600000D01*
X121500000Y-74600000D02*
X124600000Y-71500000D01*
X124037500Y-69500000D02*
X124037500Y-64027498D01*
X135500000Y-53235002D02*
X127235002Y-61500000D01*
X124600000Y-71500000D02*
X126900000Y-71500000D01*
X127235002Y-61500000D02*
X126900000Y-61500000D01*
X121500000Y-81150000D02*
X121500000Y-82000000D01*
X126564998Y-61500000D02*
X126900000Y-61500000D01*
X135500000Y-47500000D02*
X135500000Y-53235002D01*
X121500000Y-82000000D02*
X122500000Y-83000000D01*
X124037500Y-64027498D02*
X126564998Y-61500000D01*
X71135001Y-40284999D02*
X69960000Y-41460000D01*
X79675001Y-44355999D02*
X75604001Y-40284999D01*
X79675001Y-61424999D02*
X79675001Y-44355999D01*
X79600000Y-61500000D02*
X79675001Y-61424999D01*
X75604001Y-40284999D02*
X71135001Y-40284999D01*
X78100000Y-61500000D02*
X79600000Y-61500000D01*
X79675001Y-92855999D02*
X75604001Y-88784999D01*
X79675001Y-109924999D02*
X79675001Y-92855999D01*
X79600000Y-110000000D02*
X79675001Y-109924999D01*
X75604001Y-88784999D02*
X71135001Y-88784999D01*
X78100000Y-110000000D02*
X79600000Y-110000000D01*
X71135001Y-88784999D02*
X69960000Y-89960000D01*
X111675001Y-44355999D02*
X107604001Y-40284999D01*
X111675001Y-61424999D02*
X111675001Y-44355999D01*
X111600000Y-61500000D02*
X111675001Y-61424999D01*
X107604001Y-40284999D02*
X103135001Y-40284999D01*
X110100000Y-61500000D02*
X111600000Y-61500000D01*
X103135001Y-40284999D02*
X101960000Y-41460000D01*
X111675001Y-92855999D02*
X107604001Y-88784999D01*
X111675001Y-109924999D02*
X111675001Y-92855999D01*
X111600000Y-110000000D02*
X111675001Y-109924999D01*
X103135001Y-88784999D02*
X101960000Y-89960000D01*
X107604001Y-88784999D02*
X103135001Y-88784999D01*
X110100000Y-110000000D02*
X111600000Y-110000000D01*
X143600000Y-110000000D02*
X143675001Y-109924999D01*
X142100000Y-110000000D02*
X143600000Y-110000000D01*
X135135001Y-88784999D02*
X133960000Y-89960000D01*
X143675001Y-92855999D02*
X139604001Y-88784999D01*
X139604001Y-88784999D02*
X135135001Y-88784999D01*
X143675001Y-109924999D02*
X143675001Y-92855999D01*
X143675001Y-61424999D02*
X143675001Y-44355999D01*
X142100000Y-61500000D02*
X143600000Y-61500000D01*
X135135001Y-40284999D02*
X133960000Y-41460000D01*
X143675001Y-44355999D02*
X139604001Y-40284999D01*
X139604001Y-40284999D02*
X135135001Y-40284999D01*
X143600000Y-61500000D02*
X143675001Y-61424999D01*
X65230000Y-46909998D02*
X65230000Y-47500000D01*
X75000000Y-44040000D02*
X75040000Y-44000000D01*
X76000000Y-44960000D02*
X75040000Y-44000000D01*
X76000000Y-47500000D02*
X76000000Y-44960000D01*
X65230000Y-95409998D02*
X65230000Y-96000000D01*
X76000000Y-96000000D02*
X76000000Y-93460000D01*
X76000000Y-93460000D02*
X75040000Y-92500000D01*
X75000000Y-92540000D02*
X75040000Y-92500000D01*
X97230000Y-46909998D02*
X97230000Y-47500000D01*
X108000000Y-47500000D02*
X108000000Y-44960000D01*
X108000000Y-44960000D02*
X107040000Y-44000000D01*
X107000000Y-44040000D02*
X107040000Y-44000000D01*
X108000000Y-96000000D02*
X108000000Y-93460000D01*
X97230000Y-95409998D02*
X97230000Y-96000000D01*
X108000000Y-93460000D02*
X107040000Y-92500000D01*
X107000000Y-92540000D02*
X107040000Y-92500000D01*
X139000000Y-44040000D02*
X139040000Y-44000000D01*
X140000000Y-93460000D02*
X139040000Y-92500000D01*
X140000000Y-96000000D02*
X140000000Y-93460000D01*
X129230000Y-95409998D02*
X129230000Y-96000000D01*
X139000000Y-92540000D02*
X139040000Y-92500000D01*
X129230000Y-46909998D02*
X129230000Y-47500000D01*
X140000000Y-47500000D02*
X140000000Y-44960000D01*
X140000000Y-44960000D02*
X139040000Y-44000000D01*
X69500000Y-47500000D02*
X66500000Y-47500000D01*
X66500000Y-45174998D02*
X66500000Y-47500000D01*
X68849999Y-42824999D02*
X66500000Y-45174998D01*
X71135001Y-42889999D02*
X71070001Y-42824999D01*
X71135001Y-44374003D02*
X71135001Y-42889999D01*
X71935999Y-45175001D02*
X71135001Y-44374003D01*
X73288191Y-45175001D02*
X71935999Y-45175001D01*
X74925010Y-57825010D02*
X74925010Y-46811820D01*
X71070001Y-42824999D02*
X68849999Y-42824999D01*
X74925010Y-46811820D02*
X73288191Y-45175001D01*
X76600000Y-59500000D02*
X74925010Y-57825010D01*
X78100000Y-59500000D02*
X76600000Y-59500000D01*
X74925010Y-95311820D02*
X73288191Y-93675001D01*
X71070001Y-91324999D02*
X68849999Y-91324999D01*
X76600000Y-108000000D02*
X74925010Y-106325010D01*
X74925010Y-106325010D02*
X74925010Y-95311820D01*
X73288191Y-93675001D02*
X71935999Y-93675001D01*
X71135001Y-92874003D02*
X71135001Y-91389999D01*
X71935999Y-93675001D02*
X71135001Y-92874003D01*
X68849999Y-91324999D02*
X66500000Y-93674998D01*
X66500000Y-93674998D02*
X66500000Y-96000000D01*
X71135001Y-91389999D02*
X71070001Y-91324999D01*
X69500000Y-96000000D02*
X66500000Y-96000000D01*
X69960000Y-95960000D02*
X70000000Y-96000000D01*
X78100000Y-108000000D02*
X76600000Y-108000000D01*
X106925010Y-46811820D02*
X105288191Y-45175001D01*
X103070001Y-42824999D02*
X100849999Y-42824999D01*
X108600000Y-59500000D02*
X106925010Y-57825010D01*
X106925010Y-57825010D02*
X106925010Y-46811820D01*
X105288191Y-45175001D02*
X103935999Y-45175001D01*
X103135001Y-44374003D02*
X103135001Y-42889999D01*
X103935999Y-45175001D02*
X103135001Y-44374003D01*
X100849999Y-42824999D02*
X98500000Y-45174998D01*
X98500000Y-45174998D02*
X98500000Y-47500000D01*
X103135001Y-42889999D02*
X103070001Y-42824999D01*
X101500000Y-47500000D02*
X98500000Y-47500000D01*
X101960000Y-47460000D02*
X102000000Y-47500000D01*
X110100000Y-59500000D02*
X108600000Y-59500000D01*
X106925010Y-106325010D02*
X106925010Y-95311820D01*
X103070001Y-91324999D02*
X100849999Y-91324999D01*
X103935999Y-93675001D02*
X103135001Y-92874003D01*
X98500000Y-93674998D02*
X98500000Y-96000000D01*
X103135001Y-91389999D02*
X103070001Y-91324999D01*
X100849999Y-91324999D02*
X98500000Y-93674998D01*
X101960000Y-95960000D02*
X102000000Y-96000000D01*
X103135001Y-92874003D02*
X103135001Y-91389999D01*
X106925010Y-95311820D02*
X105288191Y-93675001D01*
X105288191Y-93675001D02*
X103935999Y-93675001D01*
X108600000Y-108000000D02*
X106925010Y-106325010D01*
X101500000Y-96000000D02*
X98500000Y-96000000D01*
X110100000Y-108000000D02*
X108600000Y-108000000D01*
X142100000Y-59500000D02*
X140600000Y-59500000D01*
X135135001Y-91389999D02*
X135070001Y-91324999D01*
X133500000Y-96000000D02*
X130500000Y-96000000D01*
X135135001Y-92874003D02*
X135135001Y-91389999D01*
X133960000Y-95960000D02*
X134000000Y-96000000D01*
X135070001Y-91324999D02*
X132849999Y-91324999D01*
X137288191Y-93675001D02*
X135935999Y-93675001D01*
X132849999Y-91324999D02*
X130500000Y-93674998D01*
X135935999Y-93675001D02*
X135135001Y-92874003D01*
X140600000Y-108000000D02*
X138925010Y-106325010D01*
X138925010Y-106325010D02*
X138925010Y-95311820D01*
X138925010Y-95311820D02*
X137288191Y-93675001D01*
X130500000Y-93674998D02*
X130500000Y-96000000D01*
X142100000Y-108000000D02*
X140600000Y-108000000D01*
X138925010Y-46811820D02*
X137288191Y-45175001D01*
X135070001Y-42824999D02*
X132849999Y-42824999D01*
X140600000Y-59500000D02*
X138925010Y-57825010D01*
X138925010Y-57825010D02*
X138925010Y-46811820D01*
X137288191Y-45175001D02*
X135935999Y-45175001D01*
X135135001Y-44374003D02*
X135135001Y-42889999D01*
X135935999Y-45175001D02*
X135135001Y-44374003D01*
X132849999Y-42824999D02*
X130500000Y-45174998D01*
X135135001Y-42889999D02*
X135070001Y-42824999D01*
X130500000Y-45174998D02*
X130500000Y-47500000D01*
X133960000Y-47460000D02*
X134000000Y-47500000D01*
X133500000Y-47500000D02*
X130500000Y-47500000D01*
X78600000Y-70000000D02*
X78100000Y-69500000D01*
X81000000Y-70000000D02*
X78600000Y-70000000D01*
X81000000Y-118500000D02*
X78600000Y-118500000D01*
X78600000Y-118500000D02*
X78100000Y-118000000D01*
X113000000Y-70000000D02*
X110600000Y-70000000D01*
X110600000Y-70000000D02*
X110100000Y-69500000D01*
X110600000Y-118500000D02*
X110100000Y-118000000D01*
X113000000Y-118500000D02*
X110600000Y-118500000D01*
X142600000Y-70000000D02*
X142100000Y-69500000D01*
X145000000Y-70000000D02*
X142600000Y-70000000D01*
X142600000Y-118500000D02*
X142100000Y-118000000D01*
X145000000Y-118500000D02*
X142600000Y-118500000D01*
X64475001Y-69575001D02*
X64400000Y-69500000D01*
X64400000Y-69500000D02*
X62900000Y-69500000D01*
X74914213Y-76000000D02*
X80000000Y-76000000D01*
X73500000Y-76000000D02*
X74914213Y-76000000D01*
X65985002Y-69500000D02*
X62900000Y-69500000D01*
X68325001Y-71839999D02*
X65985002Y-69500000D01*
X68325001Y-73810003D02*
X68325001Y-71839999D01*
X70514998Y-76000000D02*
X68325001Y-73810003D01*
X73500000Y-76000000D02*
X70514998Y-76000000D01*
X64475001Y-118075001D02*
X64400000Y-118000000D01*
X64400000Y-118000000D02*
X62900000Y-118000000D01*
X74914213Y-124500000D02*
X80000000Y-124500000D01*
X73500000Y-124500000D02*
X74914213Y-124500000D01*
X65985002Y-118000000D02*
X62900000Y-118000000D01*
X68325001Y-122310003D02*
X68325001Y-120339999D01*
X73500000Y-124500000D02*
X70514998Y-124500000D01*
X68325001Y-120339999D02*
X65985002Y-118000000D01*
X70514998Y-124500000D02*
X68325001Y-122310003D01*
X96475001Y-69575001D02*
X96400000Y-69500000D01*
X96400000Y-69500000D02*
X94900000Y-69500000D01*
X106914213Y-76000000D02*
X112000000Y-76000000D01*
X105500000Y-76000000D02*
X106914213Y-76000000D01*
X97985002Y-69500000D02*
X94900000Y-69500000D01*
X100325001Y-73810003D02*
X100325001Y-71839999D01*
X105500000Y-76000000D02*
X102514998Y-76000000D01*
X100325001Y-71839999D02*
X97985002Y-69500000D01*
X102514998Y-76000000D02*
X100325001Y-73810003D01*
X96400000Y-118000000D02*
X94900000Y-118000000D01*
X106914213Y-124500000D02*
X112000000Y-124500000D01*
X96475001Y-118075001D02*
X96400000Y-118000000D01*
X105500000Y-124500000D02*
X106914213Y-124500000D01*
X100325001Y-122310003D02*
X100325001Y-120339999D01*
X100325001Y-120339999D02*
X97985002Y-118000000D01*
X102514998Y-124500000D02*
X100325001Y-122310003D01*
X105500000Y-124500000D02*
X102514998Y-124500000D01*
X97985002Y-118000000D02*
X94900000Y-118000000D01*
X134514998Y-76000000D02*
X132325001Y-73810003D01*
X132325001Y-71839999D02*
X129985002Y-69500000D01*
X128400000Y-118000000D02*
X126900000Y-118000000D01*
X128475001Y-118075001D02*
X128400000Y-118000000D01*
X132325001Y-73810003D02*
X132325001Y-71839999D01*
X138914213Y-124500000D02*
X144000000Y-124500000D01*
X137500000Y-124500000D02*
X138914213Y-124500000D01*
X137500000Y-76000000D02*
X134514998Y-76000000D01*
X129985002Y-69500000D02*
X126900000Y-69500000D01*
X132325001Y-120339999D02*
X129985002Y-118000000D01*
X137500000Y-124500000D02*
X134514998Y-124500000D01*
X132325001Y-122310003D02*
X132325001Y-120339999D01*
X129985002Y-118000000D02*
X126900000Y-118000000D01*
X134514998Y-124500000D02*
X132325001Y-122310003D01*
X128475001Y-69575001D02*
X128400000Y-69500000D01*
X138914213Y-76000000D02*
X144000000Y-76000000D01*
X128400000Y-69500000D02*
X126900000Y-69500000D01*
X137500000Y-76000000D02*
X138914213Y-76000000D01*
M02*
