M48
; DRILL file {KiCad (5.1.9)-1} date 03/22/21 07:19:46
; FORMAT={3:3/ absolute / metric / suppress leading zeros}
; #@! TF.CreationDate,2021-03-22T07:19:46+01:00
; #@! TF.GenerationSoftware,Kicad,Pcbnew,(5.1.9)-1
; #@! TF.FileFunction,Plated,1,2,PTH
FMAT,2
METRIC,TZ
T1C0.450
T2C0.750
T3C1.000
T4C1.100
%
G90
G05
T2
X63960Y-47500
X63960Y-100000
X65230Y-47500
X65230Y-100000
X66500Y-47500
X66500Y-100000
X97960Y-47500
X97960Y-100000
X99230Y-47500
X99230Y-100000
X100500Y-47500
X100500Y-100000
X131960Y-47500
X131960Y-100000
X133230Y-47500
X133230Y-100000
X134500Y-47500
X134500Y-100000
T3
X69960Y-41460
X69960Y-44000
X69960Y-93960
X69960Y-96500
X72500Y-41460
X72500Y-44000
X72500Y-93960
X72500Y-96500
X75040Y-41460
X75040Y-44000
X75040Y-93960
X75040Y-96500
X103960Y-41460
X103960Y-44000
X103960Y-93960
X103960Y-96500
X106500Y-41460
X106500Y-44000
X106500Y-93960
X106500Y-96500
X109040Y-41460
X109040Y-44000
X109040Y-93960
X109040Y-96500
X137960Y-41460
X137960Y-44000
X137960Y-93960
X137960Y-96500
X140500Y-41460
X140500Y-44000
X140500Y-93960
X140500Y-96500
X143040Y-41460
X143040Y-44000
X143040Y-93960
X143040Y-96500
T4
X73500Y-76000
X73500Y-80500
X73500Y-128500
X73500Y-133000
X80000Y-76000
X80000Y-80500
X80000Y-128500
X80000Y-133000
X107500Y-76000
X107500Y-80500
X107500Y-128500
X107500Y-133000
X114000Y-76000
X114000Y-80500
X114000Y-128500
X114000Y-133000
X141500Y-76000
X141500Y-80500
X141500Y-128500
X141500Y-133000
X148000Y-76000
X148000Y-80500
X148000Y-128500
X148000Y-133000
T1
G00X63425Y-84600
M15
G01X63425Y-83800
M16
G05
G00X63425Y-137100
M15
G01X63425Y-136300
M16
G05
G00X70575Y-83800
M15
G01X70575Y-84600
M16
G05
G00X70575Y-136300
M15
G01X70575Y-137100
M16
G05
G00X97425Y-84600
M15
G01X97425Y-83800
M16
G05
G00X97425Y-137100
M15
G01X97425Y-136300
M16
G05
G00X104575Y-83800
M15
G01X104575Y-84600
M16
G05
G00X104575Y-136300
M15
G01X104575Y-137100
M16
G05
G00X131425Y-84600
M15
G01X131425Y-83800
M16
G05
G00X131425Y-137100
M15
G01X131425Y-136300
M16
G05
G00X138575Y-83800
M15
G01X138575Y-84600
M16
G05
G00X138575Y-136300
M15
G01X138575Y-137100
M16
G05
T0
M30
