G04 #@! TF.GenerationSoftware,KiCad,Pcbnew,(5.1.9)-1*
G04 #@! TF.CreationDate,2021-03-22T07:19:38+01:00*
G04 #@! TF.ProjectId,IM350- Multi,494d3335-302d-4204-9d75-6c74692e6b69,rev?*
G04 #@! TF.SameCoordinates,Original*
G04 #@! TF.FileFunction,Soldermask,Top*
G04 #@! TF.FilePolarity,Negative*
%FSLAX46Y46*%
G04 Gerber Fmt 4.6, Leading zero omitted, Abs format (unit mm)*
G04 Created by KiCad (PCBNEW (5.1.9)-1) date 2021-03-22 07:19:38*
%MOMM*%
%LPD*%
G01*
G04 APERTURE LIST*
%ADD10O,1.050000X1.500000*%
%ADD11R,1.050000X1.500000*%
%ADD12R,1.200000X0.600000*%
%ADD13C,2.000000*%
%ADD14O,1.700000X1.700000*%
%ADD15R,1.700000X1.700000*%
%ADD16R,2.500000X1.000000*%
%ADD17R,1.000000X1.800000*%
%ADD18R,0.600000X2.800000*%
%ADD19O,1.050000X1.900000*%
G04 APERTURE END LIST*
D10*
X133230000Y-100000000D03*
X131960000Y-100000000D03*
D11*
X134500000Y-100000000D03*
D12*
X127300000Y-78950000D03*
X127300000Y-78000000D03*
X127300000Y-77050000D03*
X124700000Y-77050000D03*
X124700000Y-78950000D03*
D11*
X134500000Y-47500000D03*
D10*
X131960000Y-47500000D03*
X133230000Y-47500000D03*
G36*
G01*
X142600000Y-47049999D02*
X142600000Y-47950001D01*
G75*
G02*
X142350001Y-48200000I-249999J0D01*
G01*
X141649999Y-48200000D01*
G75*
G02*
X141400000Y-47950001I0J249999D01*
G01*
X141400000Y-47049999D01*
G75*
G02*
X141649999Y-46800000I249999J0D01*
G01*
X142350001Y-46800000D01*
G75*
G02*
X142600000Y-47049999I0J-249999D01*
G01*
G37*
G36*
G01*
X144600000Y-47049999D02*
X144600000Y-47950001D01*
G75*
G02*
X144350001Y-48200000I-249999J0D01*
G01*
X143649999Y-48200000D01*
G75*
G02*
X143400000Y-47950001I0J249999D01*
G01*
X143400000Y-47049999D01*
G75*
G02*
X143649999Y-46800000I249999J0D01*
G01*
X144350001Y-46800000D01*
G75*
G02*
X144600000Y-47049999I0J-249999D01*
G01*
G37*
D13*
X148000000Y-128500000D03*
X148000000Y-133000000D03*
X141500000Y-128500000D03*
X141500000Y-133000000D03*
G36*
G01*
X127975000Y-125050000D02*
X127025000Y-125050000D01*
G75*
G02*
X126775000Y-124800000I0J250000D01*
G01*
X126775000Y-124125000D01*
G75*
G02*
X127025000Y-123875000I250000J0D01*
G01*
X127975000Y-123875000D01*
G75*
G02*
X128225000Y-124125000I0J-250000D01*
G01*
X128225000Y-124800000D01*
G75*
G02*
X127975000Y-125050000I-250000J0D01*
G01*
G37*
G36*
G01*
X127975000Y-127125000D02*
X127025000Y-127125000D01*
G75*
G02*
X126775000Y-126875000I0J250000D01*
G01*
X126775000Y-126200000D01*
G75*
G02*
X127025000Y-125950000I250000J0D01*
G01*
X127975000Y-125950000D01*
G75*
G02*
X128225000Y-126200000I0J-250000D01*
G01*
X128225000Y-126875000D01*
G75*
G02*
X127975000Y-127125000I-250000J0D01*
G01*
G37*
D14*
X143040000Y-93960000D03*
X143040000Y-96500000D03*
X140500000Y-93960000D03*
X140500000Y-96500000D03*
X137960000Y-93960000D03*
D15*
X137960000Y-96500000D03*
D12*
X124700000Y-131450000D03*
X124700000Y-129550000D03*
X127300000Y-129550000D03*
X127300000Y-130500000D03*
X127300000Y-131450000D03*
G36*
G01*
X138100000Y-47049999D02*
X138100000Y-47950001D01*
G75*
G02*
X137850001Y-48200000I-249999J0D01*
G01*
X137149999Y-48200000D01*
G75*
G02*
X136900000Y-47950001I0J249999D01*
G01*
X136900000Y-47049999D01*
G75*
G02*
X137149999Y-46800000I249999J0D01*
G01*
X137850001Y-46800000D01*
G75*
G02*
X138100000Y-47049999I0J-249999D01*
G01*
G37*
G36*
G01*
X140100000Y-47049999D02*
X140100000Y-47950001D01*
G75*
G02*
X139850001Y-48200000I-249999J0D01*
G01*
X139149999Y-48200000D01*
G75*
G02*
X138900000Y-47950001I0J249999D01*
G01*
X138900000Y-47049999D01*
G75*
G02*
X139149999Y-46800000I249999J0D01*
G01*
X139850001Y-46800000D01*
G75*
G02*
X140100000Y-47049999I0J-249999D01*
G01*
G37*
D15*
X137960000Y-44000000D03*
D14*
X137960000Y-41460000D03*
X140500000Y-44000000D03*
X140500000Y-41460000D03*
X143040000Y-44000000D03*
X143040000Y-41460000D03*
G36*
G01*
X127975000Y-74625000D02*
X127025000Y-74625000D01*
G75*
G02*
X126775000Y-74375000I0J250000D01*
G01*
X126775000Y-73700000D01*
G75*
G02*
X127025000Y-73450000I250000J0D01*
G01*
X127975000Y-73450000D01*
G75*
G02*
X128225000Y-73700000I0J-250000D01*
G01*
X128225000Y-74375000D01*
G75*
G02*
X127975000Y-74625000I-250000J0D01*
G01*
G37*
G36*
G01*
X127975000Y-72550000D02*
X127025000Y-72550000D01*
G75*
G02*
X126775000Y-72300000I0J250000D01*
G01*
X126775000Y-71625000D01*
G75*
G02*
X127025000Y-71375000I250000J0D01*
G01*
X127975000Y-71375000D01*
G75*
G02*
X128225000Y-71625000I0J-250000D01*
G01*
X128225000Y-72300000D01*
G75*
G02*
X127975000Y-72550000I-250000J0D01*
G01*
G37*
G36*
G01*
X124975000Y-72550000D02*
X124025000Y-72550000D01*
G75*
G02*
X123775000Y-72300000I0J250000D01*
G01*
X123775000Y-71625000D01*
G75*
G02*
X124025000Y-71375000I250000J0D01*
G01*
X124975000Y-71375000D01*
G75*
G02*
X125225000Y-71625000I0J-250000D01*
G01*
X125225000Y-72300000D01*
G75*
G02*
X124975000Y-72550000I-250000J0D01*
G01*
G37*
G36*
G01*
X124975000Y-74625000D02*
X124025000Y-74625000D01*
G75*
G02*
X123775000Y-74375000I0J250000D01*
G01*
X123775000Y-73700000D01*
G75*
G02*
X124025000Y-73450000I250000J0D01*
G01*
X124975000Y-73450000D01*
G75*
G02*
X125225000Y-73700000I0J-250000D01*
G01*
X125225000Y-74375000D01*
G75*
G02*
X124975000Y-74625000I-250000J0D01*
G01*
G37*
D16*
X130900000Y-57500000D03*
X130900000Y-59500000D03*
X130900000Y-61500000D03*
X130900000Y-63500000D03*
X130900000Y-65500000D03*
X130900000Y-67500000D03*
X130900000Y-69500000D03*
X130900000Y-71500000D03*
D17*
X133500000Y-73000000D03*
X135500000Y-73000000D03*
X137500000Y-73000000D03*
X139500000Y-73000000D03*
X141500000Y-73000000D03*
X143500000Y-73000000D03*
D16*
X146100000Y-71500000D03*
X146100000Y-69500000D03*
X146100000Y-67500000D03*
X146100000Y-65500000D03*
X146100000Y-63500000D03*
X146100000Y-61500000D03*
X146100000Y-59500000D03*
X146100000Y-57500000D03*
G36*
G01*
X140100000Y-99549999D02*
X140100000Y-100450001D01*
G75*
G02*
X139850001Y-100700000I-249999J0D01*
G01*
X139149999Y-100700000D01*
G75*
G02*
X138900000Y-100450001I0J249999D01*
G01*
X138900000Y-99549999D01*
G75*
G02*
X139149999Y-99300000I249999J0D01*
G01*
X139850001Y-99300000D01*
G75*
G02*
X140100000Y-99549999I0J-249999D01*
G01*
G37*
G36*
G01*
X138100000Y-99549999D02*
X138100000Y-100450001D01*
G75*
G02*
X137850001Y-100700000I-249999J0D01*
G01*
X137149999Y-100700000D01*
G75*
G02*
X136900000Y-100450001I0J249999D01*
G01*
X136900000Y-99549999D01*
G75*
G02*
X137149999Y-99300000I249999J0D01*
G01*
X137850001Y-99300000D01*
G75*
G02*
X138100000Y-99549999I0J-249999D01*
G01*
G37*
G36*
G01*
X149450001Y-70600000D02*
X148549999Y-70600000D01*
G75*
G02*
X148300000Y-70350001I0J249999D01*
G01*
X148300000Y-69649999D01*
G75*
G02*
X148549999Y-69400000I249999J0D01*
G01*
X149450001Y-69400000D01*
G75*
G02*
X149700000Y-69649999I0J-249999D01*
G01*
X149700000Y-70350001D01*
G75*
G02*
X149450001Y-70600000I-249999J0D01*
G01*
G37*
G36*
G01*
X149450001Y-72600000D02*
X148549999Y-72600000D01*
G75*
G02*
X148300000Y-72350001I0J249999D01*
G01*
X148300000Y-71649999D01*
G75*
G02*
X148549999Y-71400000I249999J0D01*
G01*
X149450001Y-71400000D01*
G75*
G02*
X149700000Y-71649999I0J-249999D01*
G01*
X149700000Y-72350001D01*
G75*
G02*
X149450001Y-72600000I-249999J0D01*
G01*
G37*
D13*
X141500000Y-80500000D03*
X141500000Y-76000000D03*
X148000000Y-80500000D03*
X148000000Y-76000000D03*
D18*
X133700000Y-77850000D03*
X136300000Y-77850000D03*
D19*
X131425000Y-84200000D03*
X138575000Y-84200000D03*
G36*
G01*
X144600000Y-99549999D02*
X144600000Y-100450001D01*
G75*
G02*
X144350001Y-100700000I-249999J0D01*
G01*
X143649999Y-100700000D01*
G75*
G02*
X143400000Y-100450001I0J249999D01*
G01*
X143400000Y-99549999D01*
G75*
G02*
X143649999Y-99300000I249999J0D01*
G01*
X144350001Y-99300000D01*
G75*
G02*
X144600000Y-99549999I0J-249999D01*
G01*
G37*
G36*
G01*
X142600000Y-99549999D02*
X142600000Y-100450001D01*
G75*
G02*
X142350001Y-100700000I-249999J0D01*
G01*
X141649999Y-100700000D01*
G75*
G02*
X141400000Y-100450001I0J249999D01*
G01*
X141400000Y-99549999D01*
G75*
G02*
X141649999Y-99300000I249999J0D01*
G01*
X142350001Y-99300000D01*
G75*
G02*
X142600000Y-99549999I0J-249999D01*
G01*
G37*
G36*
G01*
X124975000Y-127125000D02*
X124025000Y-127125000D01*
G75*
G02*
X123775000Y-126875000I0J250000D01*
G01*
X123775000Y-126200000D01*
G75*
G02*
X124025000Y-125950000I250000J0D01*
G01*
X124975000Y-125950000D01*
G75*
G02*
X125225000Y-126200000I0J-250000D01*
G01*
X125225000Y-126875000D01*
G75*
G02*
X124975000Y-127125000I-250000J0D01*
G01*
G37*
G36*
G01*
X124975000Y-125050000D02*
X124025000Y-125050000D01*
G75*
G02*
X123775000Y-124800000I0J250000D01*
G01*
X123775000Y-124125000D01*
G75*
G02*
X124025000Y-123875000I250000J0D01*
G01*
X124975000Y-123875000D01*
G75*
G02*
X125225000Y-124125000I0J-250000D01*
G01*
X125225000Y-124800000D01*
G75*
G02*
X124975000Y-125050000I-250000J0D01*
G01*
G37*
D16*
X146100000Y-110000000D03*
X146100000Y-112000000D03*
X146100000Y-114000000D03*
X146100000Y-116000000D03*
X146100000Y-118000000D03*
X146100000Y-120000000D03*
X146100000Y-122000000D03*
X146100000Y-124000000D03*
D17*
X143500000Y-125500000D03*
X141500000Y-125500000D03*
X139500000Y-125500000D03*
X137500000Y-125500000D03*
X135500000Y-125500000D03*
X133500000Y-125500000D03*
D16*
X130900000Y-124000000D03*
X130900000Y-122000000D03*
X130900000Y-120000000D03*
X130900000Y-118000000D03*
X130900000Y-116000000D03*
X130900000Y-114000000D03*
X130900000Y-112000000D03*
X130900000Y-110000000D03*
G36*
G01*
X149450001Y-125100000D02*
X148549999Y-125100000D01*
G75*
G02*
X148300000Y-124850001I0J249999D01*
G01*
X148300000Y-124149999D01*
G75*
G02*
X148549999Y-123900000I249999J0D01*
G01*
X149450001Y-123900000D01*
G75*
G02*
X149700000Y-124149999I0J-249999D01*
G01*
X149700000Y-124850001D01*
G75*
G02*
X149450001Y-125100000I-249999J0D01*
G01*
G37*
G36*
G01*
X149450001Y-123100000D02*
X148549999Y-123100000D01*
G75*
G02*
X148300000Y-122850001I0J249999D01*
G01*
X148300000Y-122149999D01*
G75*
G02*
X148549999Y-121900000I249999J0D01*
G01*
X149450001Y-121900000D01*
G75*
G02*
X149700000Y-122149999I0J-249999D01*
G01*
X149700000Y-122850001D01*
G75*
G02*
X149450001Y-123100000I-249999J0D01*
G01*
G37*
D19*
X138575000Y-136700000D03*
X131425000Y-136700000D03*
D18*
X136300000Y-130350000D03*
X133700000Y-130350000D03*
D19*
X104575000Y-84200000D03*
X97425000Y-84200000D03*
D18*
X102300000Y-77850000D03*
X99700000Y-77850000D03*
G36*
G01*
X115450001Y-72600000D02*
X114549999Y-72600000D01*
G75*
G02*
X114300000Y-72350001I0J249999D01*
G01*
X114300000Y-71649999D01*
G75*
G02*
X114549999Y-71400000I249999J0D01*
G01*
X115450001Y-71400000D01*
G75*
G02*
X115700000Y-71649999I0J-249999D01*
G01*
X115700000Y-72350001D01*
G75*
G02*
X115450001Y-72600000I-249999J0D01*
G01*
G37*
G36*
G01*
X115450001Y-70600000D02*
X114549999Y-70600000D01*
G75*
G02*
X114300000Y-70350001I0J249999D01*
G01*
X114300000Y-69649999D01*
G75*
G02*
X114549999Y-69400000I249999J0D01*
G01*
X115450001Y-69400000D01*
G75*
G02*
X115700000Y-69649999I0J-249999D01*
G01*
X115700000Y-70350001D01*
G75*
G02*
X115450001Y-70600000I-249999J0D01*
G01*
G37*
D10*
X99230000Y-47500000D03*
X97960000Y-47500000D03*
D11*
X100500000Y-47500000D03*
G36*
G01*
X110600000Y-47049999D02*
X110600000Y-47950001D01*
G75*
G02*
X110350001Y-48200000I-249999J0D01*
G01*
X109649999Y-48200000D01*
G75*
G02*
X109400000Y-47950001I0J249999D01*
G01*
X109400000Y-47049999D01*
G75*
G02*
X109649999Y-46800000I249999J0D01*
G01*
X110350001Y-46800000D01*
G75*
G02*
X110600000Y-47049999I0J-249999D01*
G01*
G37*
G36*
G01*
X108600000Y-47049999D02*
X108600000Y-47950001D01*
G75*
G02*
X108350001Y-48200000I-249999J0D01*
G01*
X107649999Y-48200000D01*
G75*
G02*
X107400000Y-47950001I0J249999D01*
G01*
X107400000Y-47049999D01*
G75*
G02*
X107649999Y-46800000I249999J0D01*
G01*
X108350001Y-46800000D01*
G75*
G02*
X108600000Y-47049999I0J-249999D01*
G01*
G37*
G36*
G01*
X115450001Y-123100000D02*
X114549999Y-123100000D01*
G75*
G02*
X114300000Y-122850001I0J249999D01*
G01*
X114300000Y-122149999D01*
G75*
G02*
X114549999Y-121900000I249999J0D01*
G01*
X115450001Y-121900000D01*
G75*
G02*
X115700000Y-122149999I0J-249999D01*
G01*
X115700000Y-122850001D01*
G75*
G02*
X115450001Y-123100000I-249999J0D01*
G01*
G37*
G36*
G01*
X115450001Y-125100000D02*
X114549999Y-125100000D01*
G75*
G02*
X114300000Y-124850001I0J249999D01*
G01*
X114300000Y-124149999D01*
G75*
G02*
X114549999Y-123900000I249999J0D01*
G01*
X115450001Y-123900000D01*
G75*
G02*
X115700000Y-124149999I0J-249999D01*
G01*
X115700000Y-124850001D01*
G75*
G02*
X115450001Y-125100000I-249999J0D01*
G01*
G37*
X100500000Y-100000000D03*
D10*
X97960000Y-100000000D03*
X99230000Y-100000000D03*
G36*
G01*
X108600000Y-99549999D02*
X108600000Y-100450001D01*
G75*
G02*
X108350001Y-100700000I-249999J0D01*
G01*
X107649999Y-100700000D01*
G75*
G02*
X107400000Y-100450001I0J249999D01*
G01*
X107400000Y-99549999D01*
G75*
G02*
X107649999Y-99300000I249999J0D01*
G01*
X108350001Y-99300000D01*
G75*
G02*
X108600000Y-99549999I0J-249999D01*
G01*
G37*
G36*
G01*
X110600000Y-99549999D02*
X110600000Y-100450001D01*
G75*
G02*
X110350001Y-100700000I-249999J0D01*
G01*
X109649999Y-100700000D01*
G75*
G02*
X109400000Y-100450001I0J249999D01*
G01*
X109400000Y-99549999D01*
G75*
G02*
X109649999Y-99300000I249999J0D01*
G01*
X110350001Y-99300000D01*
G75*
G02*
X110600000Y-99549999I0J-249999D01*
G01*
G37*
D15*
X103960000Y-96500000D03*
D14*
X103960000Y-93960000D03*
X106500000Y-96500000D03*
X106500000Y-93960000D03*
X109040000Y-96500000D03*
X109040000Y-93960000D03*
G36*
G01*
X104100000Y-99549999D02*
X104100000Y-100450001D01*
G75*
G02*
X103850001Y-100700000I-249999J0D01*
G01*
X103149999Y-100700000D01*
G75*
G02*
X102900000Y-100450001I0J249999D01*
G01*
X102900000Y-99549999D01*
G75*
G02*
X103149999Y-99300000I249999J0D01*
G01*
X103850001Y-99300000D01*
G75*
G02*
X104100000Y-99549999I0J-249999D01*
G01*
G37*
G36*
G01*
X106100000Y-99549999D02*
X106100000Y-100450001D01*
G75*
G02*
X105850001Y-100700000I-249999J0D01*
G01*
X105149999Y-100700000D01*
G75*
G02*
X104900000Y-100450001I0J249999D01*
G01*
X104900000Y-99549999D01*
G75*
G02*
X105149999Y-99300000I249999J0D01*
G01*
X105850001Y-99300000D01*
G75*
G02*
X106100000Y-99549999I0J-249999D01*
G01*
G37*
D12*
X93300000Y-131450000D03*
X93300000Y-130500000D03*
X93300000Y-129550000D03*
X90700000Y-129550000D03*
X90700000Y-131450000D03*
D14*
X109040000Y-41460000D03*
X109040000Y-44000000D03*
X106500000Y-41460000D03*
X106500000Y-44000000D03*
X103960000Y-41460000D03*
D15*
X103960000Y-44000000D03*
D18*
X99700000Y-130350000D03*
X102300000Y-130350000D03*
D19*
X97425000Y-136700000D03*
X104575000Y-136700000D03*
G36*
G01*
X90975000Y-125050000D02*
X90025000Y-125050000D01*
G75*
G02*
X89775000Y-124800000I0J250000D01*
G01*
X89775000Y-124125000D01*
G75*
G02*
X90025000Y-123875000I250000J0D01*
G01*
X90975000Y-123875000D01*
G75*
G02*
X91225000Y-124125000I0J-250000D01*
G01*
X91225000Y-124800000D01*
G75*
G02*
X90975000Y-125050000I-250000J0D01*
G01*
G37*
G36*
G01*
X90975000Y-127125000D02*
X90025000Y-127125000D01*
G75*
G02*
X89775000Y-126875000I0J250000D01*
G01*
X89775000Y-126200000D01*
G75*
G02*
X90025000Y-125950000I250000J0D01*
G01*
X90975000Y-125950000D01*
G75*
G02*
X91225000Y-126200000I0J-250000D01*
G01*
X91225000Y-126875000D01*
G75*
G02*
X90975000Y-127125000I-250000J0D01*
G01*
G37*
G36*
G01*
X93975000Y-127125000D02*
X93025000Y-127125000D01*
G75*
G02*
X92775000Y-126875000I0J250000D01*
G01*
X92775000Y-126200000D01*
G75*
G02*
X93025000Y-125950000I250000J0D01*
G01*
X93975000Y-125950000D01*
G75*
G02*
X94225000Y-126200000I0J-250000D01*
G01*
X94225000Y-126875000D01*
G75*
G02*
X93975000Y-127125000I-250000J0D01*
G01*
G37*
G36*
G01*
X93975000Y-125050000D02*
X93025000Y-125050000D01*
G75*
G02*
X92775000Y-124800000I0J250000D01*
G01*
X92775000Y-124125000D01*
G75*
G02*
X93025000Y-123875000I250000J0D01*
G01*
X93975000Y-123875000D01*
G75*
G02*
X94225000Y-124125000I0J-250000D01*
G01*
X94225000Y-124800000D01*
G75*
G02*
X93975000Y-125050000I-250000J0D01*
G01*
G37*
D13*
X107500000Y-133000000D03*
X107500000Y-128500000D03*
X114000000Y-133000000D03*
X114000000Y-128500000D03*
D16*
X96900000Y-110000000D03*
X96900000Y-112000000D03*
X96900000Y-114000000D03*
X96900000Y-116000000D03*
X96900000Y-118000000D03*
X96900000Y-120000000D03*
X96900000Y-122000000D03*
X96900000Y-124000000D03*
D17*
X99500000Y-125500000D03*
X101500000Y-125500000D03*
X103500000Y-125500000D03*
X105500000Y-125500000D03*
X107500000Y-125500000D03*
X109500000Y-125500000D03*
D16*
X112100000Y-124000000D03*
X112100000Y-122000000D03*
X112100000Y-120000000D03*
X112100000Y-118000000D03*
X112100000Y-116000000D03*
X112100000Y-114000000D03*
X112100000Y-112000000D03*
X112100000Y-110000000D03*
D13*
X114000000Y-76000000D03*
X114000000Y-80500000D03*
X107500000Y-76000000D03*
X107500000Y-80500000D03*
G36*
G01*
X106100000Y-47049999D02*
X106100000Y-47950001D01*
G75*
G02*
X105850001Y-48200000I-249999J0D01*
G01*
X105149999Y-48200000D01*
G75*
G02*
X104900000Y-47950001I0J249999D01*
G01*
X104900000Y-47049999D01*
G75*
G02*
X105149999Y-46800000I249999J0D01*
G01*
X105850001Y-46800000D01*
G75*
G02*
X106100000Y-47049999I0J-249999D01*
G01*
G37*
G36*
G01*
X104100000Y-47049999D02*
X104100000Y-47950001D01*
G75*
G02*
X103850001Y-48200000I-249999J0D01*
G01*
X103149999Y-48200000D01*
G75*
G02*
X102900000Y-47950001I0J249999D01*
G01*
X102900000Y-47049999D01*
G75*
G02*
X103149999Y-46800000I249999J0D01*
G01*
X103850001Y-46800000D01*
G75*
G02*
X104100000Y-47049999I0J-249999D01*
G01*
G37*
G36*
G01*
X93975000Y-72550000D02*
X93025000Y-72550000D01*
G75*
G02*
X92775000Y-72300000I0J250000D01*
G01*
X92775000Y-71625000D01*
G75*
G02*
X93025000Y-71375000I250000J0D01*
G01*
X93975000Y-71375000D01*
G75*
G02*
X94225000Y-71625000I0J-250000D01*
G01*
X94225000Y-72300000D01*
G75*
G02*
X93975000Y-72550000I-250000J0D01*
G01*
G37*
G36*
G01*
X93975000Y-74625000D02*
X93025000Y-74625000D01*
G75*
G02*
X92775000Y-74375000I0J250000D01*
G01*
X92775000Y-73700000D01*
G75*
G02*
X93025000Y-73450000I250000J0D01*
G01*
X93975000Y-73450000D01*
G75*
G02*
X94225000Y-73700000I0J-250000D01*
G01*
X94225000Y-74375000D01*
G75*
G02*
X93975000Y-74625000I-250000J0D01*
G01*
G37*
D16*
X112100000Y-57500000D03*
X112100000Y-59500000D03*
X112100000Y-61500000D03*
X112100000Y-63500000D03*
X112100000Y-65500000D03*
X112100000Y-67500000D03*
X112100000Y-69500000D03*
X112100000Y-71500000D03*
D17*
X109500000Y-73000000D03*
X107500000Y-73000000D03*
X105500000Y-73000000D03*
X103500000Y-73000000D03*
X101500000Y-73000000D03*
X99500000Y-73000000D03*
D16*
X96900000Y-71500000D03*
X96900000Y-69500000D03*
X96900000Y-67500000D03*
X96900000Y-65500000D03*
X96900000Y-63500000D03*
X96900000Y-61500000D03*
X96900000Y-59500000D03*
X96900000Y-57500000D03*
G36*
G01*
X90975000Y-74625000D02*
X90025000Y-74625000D01*
G75*
G02*
X89775000Y-74375000I0J250000D01*
G01*
X89775000Y-73700000D01*
G75*
G02*
X90025000Y-73450000I250000J0D01*
G01*
X90975000Y-73450000D01*
G75*
G02*
X91225000Y-73700000I0J-250000D01*
G01*
X91225000Y-74375000D01*
G75*
G02*
X90975000Y-74625000I-250000J0D01*
G01*
G37*
G36*
G01*
X90975000Y-72550000D02*
X90025000Y-72550000D01*
G75*
G02*
X89775000Y-72300000I0J250000D01*
G01*
X89775000Y-71625000D01*
G75*
G02*
X90025000Y-71375000I250000J0D01*
G01*
X90975000Y-71375000D01*
G75*
G02*
X91225000Y-71625000I0J-250000D01*
G01*
X91225000Y-72300000D01*
G75*
G02*
X90975000Y-72550000I-250000J0D01*
G01*
G37*
D12*
X90700000Y-78950000D03*
X90700000Y-77050000D03*
X93300000Y-77050000D03*
X93300000Y-78000000D03*
X93300000Y-78950000D03*
D19*
X70575000Y-136700000D03*
X63425000Y-136700000D03*
D18*
X68300000Y-130350000D03*
X65700000Y-130350000D03*
G36*
G01*
X81450001Y-125100000D02*
X80549999Y-125100000D01*
G75*
G02*
X80300000Y-124850001I0J249999D01*
G01*
X80300000Y-124149999D01*
G75*
G02*
X80549999Y-123900000I249999J0D01*
G01*
X81450001Y-123900000D01*
G75*
G02*
X81700000Y-124149999I0J-249999D01*
G01*
X81700000Y-124850001D01*
G75*
G02*
X81450001Y-125100000I-249999J0D01*
G01*
G37*
G36*
G01*
X81450001Y-123100000D02*
X80549999Y-123100000D01*
G75*
G02*
X80300000Y-122850001I0J249999D01*
G01*
X80300000Y-122149999D01*
G75*
G02*
X80549999Y-121900000I249999J0D01*
G01*
X81450001Y-121900000D01*
G75*
G02*
X81700000Y-122149999I0J-249999D01*
G01*
X81700000Y-122850001D01*
G75*
G02*
X81450001Y-123100000I-249999J0D01*
G01*
G37*
D10*
X65230000Y-100000000D03*
X63960000Y-100000000D03*
D11*
X66500000Y-100000000D03*
G36*
G01*
X76600000Y-99549999D02*
X76600000Y-100450001D01*
G75*
G02*
X76350001Y-100700000I-249999J0D01*
G01*
X75649999Y-100700000D01*
G75*
G02*
X75400000Y-100450001I0J249999D01*
G01*
X75400000Y-99549999D01*
G75*
G02*
X75649999Y-99300000I249999J0D01*
G01*
X76350001Y-99300000D01*
G75*
G02*
X76600000Y-99549999I0J-249999D01*
G01*
G37*
G36*
G01*
X74600000Y-99549999D02*
X74600000Y-100450001D01*
G75*
G02*
X74350001Y-100700000I-249999J0D01*
G01*
X73649999Y-100700000D01*
G75*
G02*
X73400000Y-100450001I0J249999D01*
G01*
X73400000Y-99549999D01*
G75*
G02*
X73649999Y-99300000I249999J0D01*
G01*
X74350001Y-99300000D01*
G75*
G02*
X74600000Y-99549999I0J-249999D01*
G01*
G37*
D14*
X75040000Y-93960000D03*
X75040000Y-96500000D03*
X72500000Y-93960000D03*
X72500000Y-96500000D03*
X69960000Y-93960000D03*
D15*
X69960000Y-96500000D03*
D13*
X80000000Y-128500000D03*
X80000000Y-133000000D03*
X73500000Y-128500000D03*
X73500000Y-133000000D03*
G36*
G01*
X72100000Y-99549999D02*
X72100000Y-100450001D01*
G75*
G02*
X71850001Y-100700000I-249999J0D01*
G01*
X71149999Y-100700000D01*
G75*
G02*
X70900000Y-100450001I0J249999D01*
G01*
X70900000Y-99549999D01*
G75*
G02*
X71149999Y-99300000I249999J0D01*
G01*
X71850001Y-99300000D01*
G75*
G02*
X72100000Y-99549999I0J-249999D01*
G01*
G37*
G36*
G01*
X70100000Y-99549999D02*
X70100000Y-100450001D01*
G75*
G02*
X69850001Y-100700000I-249999J0D01*
G01*
X69149999Y-100700000D01*
G75*
G02*
X68900000Y-100450001I0J249999D01*
G01*
X68900000Y-99549999D01*
G75*
G02*
X69149999Y-99300000I249999J0D01*
G01*
X69850001Y-99300000D01*
G75*
G02*
X70100000Y-99549999I0J-249999D01*
G01*
G37*
G36*
G01*
X59975000Y-125050000D02*
X59025000Y-125050000D01*
G75*
G02*
X58775000Y-124800000I0J250000D01*
G01*
X58775000Y-124125000D01*
G75*
G02*
X59025000Y-123875000I250000J0D01*
G01*
X59975000Y-123875000D01*
G75*
G02*
X60225000Y-124125000I0J-250000D01*
G01*
X60225000Y-124800000D01*
G75*
G02*
X59975000Y-125050000I-250000J0D01*
G01*
G37*
G36*
G01*
X59975000Y-127125000D02*
X59025000Y-127125000D01*
G75*
G02*
X58775000Y-126875000I0J250000D01*
G01*
X58775000Y-126200000D01*
G75*
G02*
X59025000Y-125950000I250000J0D01*
G01*
X59975000Y-125950000D01*
G75*
G02*
X60225000Y-126200000I0J-250000D01*
G01*
X60225000Y-126875000D01*
G75*
G02*
X59975000Y-127125000I-250000J0D01*
G01*
G37*
D16*
X78100000Y-110000000D03*
X78100000Y-112000000D03*
X78100000Y-114000000D03*
X78100000Y-116000000D03*
X78100000Y-118000000D03*
X78100000Y-120000000D03*
X78100000Y-122000000D03*
X78100000Y-124000000D03*
D17*
X75500000Y-125500000D03*
X73500000Y-125500000D03*
X71500000Y-125500000D03*
X69500000Y-125500000D03*
X67500000Y-125500000D03*
X65500000Y-125500000D03*
D16*
X62900000Y-124000000D03*
X62900000Y-122000000D03*
X62900000Y-120000000D03*
X62900000Y-118000000D03*
X62900000Y-116000000D03*
X62900000Y-114000000D03*
X62900000Y-112000000D03*
X62900000Y-110000000D03*
G36*
G01*
X56975000Y-127125000D02*
X56025000Y-127125000D01*
G75*
G02*
X55775000Y-126875000I0J250000D01*
G01*
X55775000Y-126200000D01*
G75*
G02*
X56025000Y-125950000I250000J0D01*
G01*
X56975000Y-125950000D01*
G75*
G02*
X57225000Y-126200000I0J-250000D01*
G01*
X57225000Y-126875000D01*
G75*
G02*
X56975000Y-127125000I-250000J0D01*
G01*
G37*
G36*
G01*
X56975000Y-125050000D02*
X56025000Y-125050000D01*
G75*
G02*
X55775000Y-124800000I0J250000D01*
G01*
X55775000Y-124125000D01*
G75*
G02*
X56025000Y-123875000I250000J0D01*
G01*
X56975000Y-123875000D01*
G75*
G02*
X57225000Y-124125000I0J-250000D01*
G01*
X57225000Y-124800000D01*
G75*
G02*
X56975000Y-125050000I-250000J0D01*
G01*
G37*
D12*
X56700000Y-131450000D03*
X56700000Y-129550000D03*
X59300000Y-129550000D03*
X59300000Y-130500000D03*
X59300000Y-131450000D03*
D11*
X66500000Y-47500000D03*
D10*
X63960000Y-47500000D03*
X65230000Y-47500000D03*
D18*
X65700000Y-77850000D03*
X68300000Y-77850000D03*
D19*
X63425000Y-84200000D03*
X70575000Y-84200000D03*
G36*
G01*
X81450001Y-70600000D02*
X80549999Y-70600000D01*
G75*
G02*
X80300000Y-70350001I0J249999D01*
G01*
X80300000Y-69649999D01*
G75*
G02*
X80549999Y-69400000I249999J0D01*
G01*
X81450001Y-69400000D01*
G75*
G02*
X81700000Y-69649999I0J-249999D01*
G01*
X81700000Y-70350001D01*
G75*
G02*
X81450001Y-70600000I-249999J0D01*
G01*
G37*
G36*
G01*
X81450001Y-72600000D02*
X80549999Y-72600000D01*
G75*
G02*
X80300000Y-72350001I0J249999D01*
G01*
X80300000Y-71649999D01*
G75*
G02*
X80549999Y-71400000I249999J0D01*
G01*
X81450001Y-71400000D01*
G75*
G02*
X81700000Y-71649999I0J-249999D01*
G01*
X81700000Y-72350001D01*
G75*
G02*
X81450001Y-72600000I-249999J0D01*
G01*
G37*
G36*
G01*
X74600000Y-47049999D02*
X74600000Y-47950001D01*
G75*
G02*
X74350001Y-48200000I-249999J0D01*
G01*
X73649999Y-48200000D01*
G75*
G02*
X73400000Y-47950001I0J249999D01*
G01*
X73400000Y-47049999D01*
G75*
G02*
X73649999Y-46800000I249999J0D01*
G01*
X74350001Y-46800000D01*
G75*
G02*
X74600000Y-47049999I0J-249999D01*
G01*
G37*
G36*
G01*
X76600000Y-47049999D02*
X76600000Y-47950001D01*
G75*
G02*
X76350001Y-48200000I-249999J0D01*
G01*
X75649999Y-48200000D01*
G75*
G02*
X75400000Y-47950001I0J249999D01*
G01*
X75400000Y-47049999D01*
G75*
G02*
X75649999Y-46800000I249999J0D01*
G01*
X76350001Y-46800000D01*
G75*
G02*
X76600000Y-47049999I0J-249999D01*
G01*
G37*
G36*
G01*
X70100000Y-47049999D02*
X70100000Y-47950001D01*
G75*
G02*
X69850001Y-48200000I-249999J0D01*
G01*
X69149999Y-48200000D01*
G75*
G02*
X68900000Y-47950001I0J249999D01*
G01*
X68900000Y-47049999D01*
G75*
G02*
X69149999Y-46800000I249999J0D01*
G01*
X69850001Y-46800000D01*
G75*
G02*
X70100000Y-47049999I0J-249999D01*
G01*
G37*
G36*
G01*
X72100000Y-47049999D02*
X72100000Y-47950001D01*
G75*
G02*
X71850001Y-48200000I-249999J0D01*
G01*
X71149999Y-48200000D01*
G75*
G02*
X70900000Y-47950001I0J249999D01*
G01*
X70900000Y-47049999D01*
G75*
G02*
X71149999Y-46800000I249999J0D01*
G01*
X71850001Y-46800000D01*
G75*
G02*
X72100000Y-47049999I0J-249999D01*
G01*
G37*
D16*
X62900000Y-57500000D03*
X62900000Y-59500000D03*
X62900000Y-61500000D03*
X62900000Y-63500000D03*
X62900000Y-65500000D03*
X62900000Y-67500000D03*
X62900000Y-69500000D03*
X62900000Y-71500000D03*
D17*
X65500000Y-73000000D03*
X67500000Y-73000000D03*
X69500000Y-73000000D03*
X71500000Y-73000000D03*
X73500000Y-73000000D03*
X75500000Y-73000000D03*
D16*
X78100000Y-71500000D03*
X78100000Y-69500000D03*
X78100000Y-67500000D03*
X78100000Y-65500000D03*
X78100000Y-63500000D03*
X78100000Y-61500000D03*
X78100000Y-59500000D03*
X78100000Y-57500000D03*
D13*
X73500000Y-80500000D03*
X73500000Y-76000000D03*
X80000000Y-80500000D03*
X80000000Y-76000000D03*
G36*
G01*
X59975000Y-74625000D02*
X59025000Y-74625000D01*
G75*
G02*
X58775000Y-74375000I0J250000D01*
G01*
X58775000Y-73700000D01*
G75*
G02*
X59025000Y-73450000I250000J0D01*
G01*
X59975000Y-73450000D01*
G75*
G02*
X60225000Y-73700000I0J-250000D01*
G01*
X60225000Y-74375000D01*
G75*
G02*
X59975000Y-74625000I-250000J0D01*
G01*
G37*
G36*
G01*
X59975000Y-72550000D02*
X59025000Y-72550000D01*
G75*
G02*
X58775000Y-72300000I0J250000D01*
G01*
X58775000Y-71625000D01*
G75*
G02*
X59025000Y-71375000I250000J0D01*
G01*
X59975000Y-71375000D01*
G75*
G02*
X60225000Y-71625000I0J-250000D01*
G01*
X60225000Y-72300000D01*
G75*
G02*
X59975000Y-72550000I-250000J0D01*
G01*
G37*
G36*
G01*
X56975000Y-72550000D02*
X56025000Y-72550000D01*
G75*
G02*
X55775000Y-72300000I0J250000D01*
G01*
X55775000Y-71625000D01*
G75*
G02*
X56025000Y-71375000I250000J0D01*
G01*
X56975000Y-71375000D01*
G75*
G02*
X57225000Y-71625000I0J-250000D01*
G01*
X57225000Y-72300000D01*
G75*
G02*
X56975000Y-72550000I-250000J0D01*
G01*
G37*
G36*
G01*
X56975000Y-74625000D02*
X56025000Y-74625000D01*
G75*
G02*
X55775000Y-74375000I0J250000D01*
G01*
X55775000Y-73700000D01*
G75*
G02*
X56025000Y-73450000I250000J0D01*
G01*
X56975000Y-73450000D01*
G75*
G02*
X57225000Y-73700000I0J-250000D01*
G01*
X57225000Y-74375000D01*
G75*
G02*
X56975000Y-74625000I-250000J0D01*
G01*
G37*
D12*
X59300000Y-78950000D03*
X59300000Y-78000000D03*
X59300000Y-77050000D03*
X56700000Y-77050000D03*
X56700000Y-78950000D03*
D15*
X69960000Y-44000000D03*
D14*
X69960000Y-41460000D03*
X72500000Y-44000000D03*
X72500000Y-41460000D03*
X75040000Y-44000000D03*
X75040000Y-41460000D03*
M02*
