G04 #@! TF.GenerationSoftware,KiCad,Pcbnew,(5.1.9)-1*
G04 #@! TF.CreationDate,2021-03-22T07:19:38+01:00*
G04 #@! TF.ProjectId,IM350- Multi,494d3335-302d-4204-9d75-6c74692e6b69,rev?*
G04 #@! TF.SameCoordinates,Original*
G04 #@! TF.FileFunction,Legend,Top*
G04 #@! TF.FilePolarity,Positive*
%FSLAX46Y46*%
G04 Gerber Fmt 4.6, Leading zero omitted, Abs format (unit mm)*
G04 Created by KiCad (PCBNEW (5.1.9)-1) date 2021-03-22 07:19:38*
%MOMM*%
%LPD*%
G01*
G04 APERTURE LIST*
%ADD10C,0.010000*%
%ADD11C,0.120000*%
%ADD12C,0.200000*%
%ADD13C,0.150000*%
G04 APERTURE END LIST*
D10*
G36*
X124993314Y-115374117D02*
G01*
X124996666Y-115377148D01*
X125101276Y-115494777D01*
X125087044Y-115599718D01*
X125030272Y-115683626D01*
X124746130Y-116184288D01*
X124613038Y-116699670D01*
X124629888Y-117211618D01*
X124795571Y-117701978D01*
X125108979Y-118152595D01*
X125185918Y-118233002D01*
X125635502Y-118586300D01*
X126110838Y-118785985D01*
X126597619Y-118832058D01*
X127081538Y-118724518D01*
X127548286Y-118463366D01*
X127814081Y-118233002D01*
X128155709Y-117792086D01*
X128349824Y-117307945D01*
X128395319Y-116798732D01*
X128291085Y-116282601D01*
X128036013Y-115777707D01*
X127969727Y-115683626D01*
X127892661Y-115550060D01*
X127929417Y-115449592D01*
X128003333Y-115377148D01*
X128095643Y-115305108D01*
X128169653Y-115306372D01*
X128258787Y-115401304D01*
X128396469Y-115610272D01*
X128403109Y-115620739D01*
X128654504Y-116105894D01*
X128775576Y-116587027D01*
X128781585Y-117121397D01*
X128659228Y-117698000D01*
X128396881Y-118216996D01*
X128009151Y-118656847D01*
X127510647Y-118996013D01*
X127509923Y-118996385D01*
X127157971Y-119119791D01*
X126726438Y-119189529D01*
X126281015Y-119201228D01*
X125887393Y-119150515D01*
X125761652Y-119112708D01*
X125222436Y-118834626D01*
X124782005Y-118449179D01*
X124455383Y-117977102D01*
X124257593Y-117439127D01*
X124202051Y-116960312D01*
X124239783Y-116469530D01*
X124374933Y-116030029D01*
X124597854Y-115619219D01*
X124737716Y-115406070D01*
X124827885Y-115307742D01*
X124901904Y-115303878D01*
X124993314Y-115374117D01*
G37*
X124993314Y-115374117D02*
X124996666Y-115377148D01*
X125101276Y-115494777D01*
X125087044Y-115599718D01*
X125030272Y-115683626D01*
X124746130Y-116184288D01*
X124613038Y-116699670D01*
X124629888Y-117211618D01*
X124795571Y-117701978D01*
X125108979Y-118152595D01*
X125185918Y-118233002D01*
X125635502Y-118586300D01*
X126110838Y-118785985D01*
X126597619Y-118832058D01*
X127081538Y-118724518D01*
X127548286Y-118463366D01*
X127814081Y-118233002D01*
X128155709Y-117792086D01*
X128349824Y-117307945D01*
X128395319Y-116798732D01*
X128291085Y-116282601D01*
X128036013Y-115777707D01*
X127969727Y-115683626D01*
X127892661Y-115550060D01*
X127929417Y-115449592D01*
X128003333Y-115377148D01*
X128095643Y-115305108D01*
X128169653Y-115306372D01*
X128258787Y-115401304D01*
X128396469Y-115610272D01*
X128403109Y-115620739D01*
X128654504Y-116105894D01*
X128775576Y-116587027D01*
X128781585Y-117121397D01*
X128659228Y-117698000D01*
X128396881Y-118216996D01*
X128009151Y-118656847D01*
X127510647Y-118996013D01*
X127509923Y-118996385D01*
X127157971Y-119119791D01*
X126726438Y-119189529D01*
X126281015Y-119201228D01*
X125887393Y-119150515D01*
X125761652Y-119112708D01*
X125222436Y-118834626D01*
X124782005Y-118449179D01*
X124455383Y-117977102D01*
X124257593Y-117439127D01*
X124202051Y-116960312D01*
X124239783Y-116469530D01*
X124374933Y-116030029D01*
X124597854Y-115619219D01*
X124737716Y-115406070D01*
X124827885Y-115307742D01*
X124901904Y-115303878D01*
X124993314Y-115374117D01*
G36*
X126936196Y-115174013D02*
G01*
X127160220Y-115403331D01*
X127291224Y-115570323D01*
X127353769Y-115719324D01*
X127372417Y-115894669D01*
X127373125Y-115962702D01*
X127373125Y-116319889D01*
X126937360Y-115889538D01*
X126501596Y-115459186D01*
X126221989Y-115730191D01*
X125942383Y-116001196D01*
X126822975Y-116891074D01*
X126800394Y-117784464D01*
X126777812Y-118677854D01*
X126559531Y-118449740D01*
X126442035Y-118309741D01*
X126376152Y-118164760D01*
X126347390Y-117962900D01*
X126341250Y-117668051D01*
X126341250Y-117114476D01*
X125825312Y-116603125D01*
X125597954Y-116369174D01*
X125421741Y-116171455D01*
X125322306Y-116039529D01*
X125309375Y-116008118D01*
X125362618Y-115920739D01*
X125506516Y-115750222D01*
X125717326Y-115523493D01*
X125904321Y-115333488D01*
X126499268Y-114742513D01*
X126936196Y-115174013D01*
G37*
X126936196Y-115174013D02*
X127160220Y-115403331D01*
X127291224Y-115570323D01*
X127353769Y-115719324D01*
X127372417Y-115894669D01*
X127373125Y-115962702D01*
X127373125Y-116319889D01*
X126937360Y-115889538D01*
X126501596Y-115459186D01*
X126221989Y-115730191D01*
X125942383Y-116001196D01*
X126822975Y-116891074D01*
X126800394Y-117784464D01*
X126777812Y-118677854D01*
X126559531Y-118449740D01*
X126442035Y-118309741D01*
X126376152Y-118164760D01*
X126347390Y-117962900D01*
X126341250Y-117668051D01*
X126341250Y-117114476D01*
X125825312Y-116603125D01*
X125597954Y-116369174D01*
X125421741Y-116171455D01*
X125322306Y-116039529D01*
X125309375Y-116008118D01*
X125362618Y-115920739D01*
X125506516Y-115750222D01*
X125717326Y-115523493D01*
X125904321Y-115333488D01*
X126499268Y-114742513D01*
X126936196Y-115174013D01*
G36*
X92936196Y-115174013D02*
G01*
X93160220Y-115403331D01*
X93291224Y-115570323D01*
X93353769Y-115719324D01*
X93372417Y-115894669D01*
X93373125Y-115962702D01*
X93373125Y-116319889D01*
X92937360Y-115889538D01*
X92501596Y-115459186D01*
X92221989Y-115730191D01*
X91942383Y-116001196D01*
X92822975Y-116891074D01*
X92800394Y-117784464D01*
X92777812Y-118677854D01*
X92559531Y-118449740D01*
X92442035Y-118309741D01*
X92376152Y-118164760D01*
X92347390Y-117962900D01*
X92341250Y-117668051D01*
X92341250Y-117114476D01*
X91825312Y-116603125D01*
X91597954Y-116369174D01*
X91421741Y-116171455D01*
X91322306Y-116039529D01*
X91309375Y-116008118D01*
X91362618Y-115920739D01*
X91506516Y-115750222D01*
X91717326Y-115523493D01*
X91904321Y-115333488D01*
X92499268Y-114742513D01*
X92936196Y-115174013D01*
G37*
X92936196Y-115174013D02*
X93160220Y-115403331D01*
X93291224Y-115570323D01*
X93353769Y-115719324D01*
X93372417Y-115894669D01*
X93373125Y-115962702D01*
X93373125Y-116319889D01*
X92937360Y-115889538D01*
X92501596Y-115459186D01*
X92221989Y-115730191D01*
X91942383Y-116001196D01*
X92822975Y-116891074D01*
X92800394Y-117784464D01*
X92777812Y-118677854D01*
X92559531Y-118449740D01*
X92442035Y-118309741D01*
X92376152Y-118164760D01*
X92347390Y-117962900D01*
X92341250Y-117668051D01*
X92341250Y-117114476D01*
X91825312Y-116603125D01*
X91597954Y-116369174D01*
X91421741Y-116171455D01*
X91322306Y-116039529D01*
X91309375Y-116008118D01*
X91362618Y-115920739D01*
X91506516Y-115750222D01*
X91717326Y-115523493D01*
X91904321Y-115333488D01*
X92499268Y-114742513D01*
X92936196Y-115174013D01*
G36*
X90993314Y-115374117D02*
G01*
X90996666Y-115377148D01*
X91101276Y-115494777D01*
X91087044Y-115599718D01*
X91030272Y-115683626D01*
X90746130Y-116184288D01*
X90613038Y-116699670D01*
X90629888Y-117211618D01*
X90795571Y-117701978D01*
X91108979Y-118152595D01*
X91185918Y-118233002D01*
X91635502Y-118586300D01*
X92110838Y-118785985D01*
X92597619Y-118832058D01*
X93081538Y-118724518D01*
X93548286Y-118463366D01*
X93814081Y-118233002D01*
X94155709Y-117792086D01*
X94349824Y-117307945D01*
X94395319Y-116798732D01*
X94291085Y-116282601D01*
X94036013Y-115777707D01*
X93969727Y-115683626D01*
X93892661Y-115550060D01*
X93929417Y-115449592D01*
X94003333Y-115377148D01*
X94095643Y-115305108D01*
X94169653Y-115306372D01*
X94258787Y-115401304D01*
X94396469Y-115610272D01*
X94403109Y-115620739D01*
X94654504Y-116105894D01*
X94775576Y-116587027D01*
X94781585Y-117121397D01*
X94659228Y-117698000D01*
X94396881Y-118216996D01*
X94009151Y-118656847D01*
X93510647Y-118996013D01*
X93509923Y-118996385D01*
X93157971Y-119119791D01*
X92726438Y-119189529D01*
X92281015Y-119201228D01*
X91887393Y-119150515D01*
X91761652Y-119112708D01*
X91222436Y-118834626D01*
X90782005Y-118449179D01*
X90455383Y-117977102D01*
X90257593Y-117439127D01*
X90202051Y-116960312D01*
X90239783Y-116469530D01*
X90374933Y-116030029D01*
X90597854Y-115619219D01*
X90737716Y-115406070D01*
X90827885Y-115307742D01*
X90901904Y-115303878D01*
X90993314Y-115374117D01*
G37*
X90993314Y-115374117D02*
X90996666Y-115377148D01*
X91101276Y-115494777D01*
X91087044Y-115599718D01*
X91030272Y-115683626D01*
X90746130Y-116184288D01*
X90613038Y-116699670D01*
X90629888Y-117211618D01*
X90795571Y-117701978D01*
X91108979Y-118152595D01*
X91185918Y-118233002D01*
X91635502Y-118586300D01*
X92110838Y-118785985D01*
X92597619Y-118832058D01*
X93081538Y-118724518D01*
X93548286Y-118463366D01*
X93814081Y-118233002D01*
X94155709Y-117792086D01*
X94349824Y-117307945D01*
X94395319Y-116798732D01*
X94291085Y-116282601D01*
X94036013Y-115777707D01*
X93969727Y-115683626D01*
X93892661Y-115550060D01*
X93929417Y-115449592D01*
X94003333Y-115377148D01*
X94095643Y-115305108D01*
X94169653Y-115306372D01*
X94258787Y-115401304D01*
X94396469Y-115610272D01*
X94403109Y-115620739D01*
X94654504Y-116105894D01*
X94775576Y-116587027D01*
X94781585Y-117121397D01*
X94659228Y-117698000D01*
X94396881Y-118216996D01*
X94009151Y-118656847D01*
X93510647Y-118996013D01*
X93509923Y-118996385D01*
X93157971Y-119119791D01*
X92726438Y-119189529D01*
X92281015Y-119201228D01*
X91887393Y-119150515D01*
X91761652Y-119112708D01*
X91222436Y-118834626D01*
X90782005Y-118449179D01*
X90455383Y-117977102D01*
X90257593Y-117439127D01*
X90202051Y-116960312D01*
X90239783Y-116469530D01*
X90374933Y-116030029D01*
X90597854Y-115619219D01*
X90737716Y-115406070D01*
X90827885Y-115307742D01*
X90901904Y-115303878D01*
X90993314Y-115374117D01*
G36*
X56993314Y-115374117D02*
G01*
X56996666Y-115377148D01*
X57101276Y-115494777D01*
X57087044Y-115599718D01*
X57030272Y-115683626D01*
X56746130Y-116184288D01*
X56613038Y-116699670D01*
X56629888Y-117211618D01*
X56795571Y-117701978D01*
X57108979Y-118152595D01*
X57185918Y-118233002D01*
X57635502Y-118586300D01*
X58110838Y-118785985D01*
X58597619Y-118832058D01*
X59081538Y-118724518D01*
X59548286Y-118463366D01*
X59814081Y-118233002D01*
X60155709Y-117792086D01*
X60349824Y-117307945D01*
X60395319Y-116798732D01*
X60291085Y-116282601D01*
X60036013Y-115777707D01*
X59969727Y-115683626D01*
X59892661Y-115550060D01*
X59929417Y-115449592D01*
X60003333Y-115377148D01*
X60095643Y-115305108D01*
X60169653Y-115306372D01*
X60258787Y-115401304D01*
X60396469Y-115610272D01*
X60403109Y-115620739D01*
X60654504Y-116105894D01*
X60775576Y-116587027D01*
X60781585Y-117121397D01*
X60659228Y-117698000D01*
X60396881Y-118216996D01*
X60009151Y-118656847D01*
X59510647Y-118996013D01*
X59509923Y-118996385D01*
X59157971Y-119119791D01*
X58726438Y-119189529D01*
X58281015Y-119201228D01*
X57887393Y-119150515D01*
X57761652Y-119112708D01*
X57222436Y-118834626D01*
X56782005Y-118449179D01*
X56455383Y-117977102D01*
X56257593Y-117439127D01*
X56202051Y-116960312D01*
X56239783Y-116469530D01*
X56374933Y-116030029D01*
X56597854Y-115619219D01*
X56737716Y-115406070D01*
X56827885Y-115307742D01*
X56901904Y-115303878D01*
X56993314Y-115374117D01*
G37*
X56993314Y-115374117D02*
X56996666Y-115377148D01*
X57101276Y-115494777D01*
X57087044Y-115599718D01*
X57030272Y-115683626D01*
X56746130Y-116184288D01*
X56613038Y-116699670D01*
X56629888Y-117211618D01*
X56795571Y-117701978D01*
X57108979Y-118152595D01*
X57185918Y-118233002D01*
X57635502Y-118586300D01*
X58110838Y-118785985D01*
X58597619Y-118832058D01*
X59081538Y-118724518D01*
X59548286Y-118463366D01*
X59814081Y-118233002D01*
X60155709Y-117792086D01*
X60349824Y-117307945D01*
X60395319Y-116798732D01*
X60291085Y-116282601D01*
X60036013Y-115777707D01*
X59969727Y-115683626D01*
X59892661Y-115550060D01*
X59929417Y-115449592D01*
X60003333Y-115377148D01*
X60095643Y-115305108D01*
X60169653Y-115306372D01*
X60258787Y-115401304D01*
X60396469Y-115610272D01*
X60403109Y-115620739D01*
X60654504Y-116105894D01*
X60775576Y-116587027D01*
X60781585Y-117121397D01*
X60659228Y-117698000D01*
X60396881Y-118216996D01*
X60009151Y-118656847D01*
X59510647Y-118996013D01*
X59509923Y-118996385D01*
X59157971Y-119119791D01*
X58726438Y-119189529D01*
X58281015Y-119201228D01*
X57887393Y-119150515D01*
X57761652Y-119112708D01*
X57222436Y-118834626D01*
X56782005Y-118449179D01*
X56455383Y-117977102D01*
X56257593Y-117439127D01*
X56202051Y-116960312D01*
X56239783Y-116469530D01*
X56374933Y-116030029D01*
X56597854Y-115619219D01*
X56737716Y-115406070D01*
X56827885Y-115307742D01*
X56901904Y-115303878D01*
X56993314Y-115374117D01*
G36*
X58936196Y-115174013D02*
G01*
X59160220Y-115403331D01*
X59291224Y-115570323D01*
X59353769Y-115719324D01*
X59372417Y-115894669D01*
X59373125Y-115962702D01*
X59373125Y-116319889D01*
X58937360Y-115889538D01*
X58501596Y-115459186D01*
X58221989Y-115730191D01*
X57942383Y-116001196D01*
X58822975Y-116891074D01*
X58800394Y-117784464D01*
X58777812Y-118677854D01*
X58559531Y-118449740D01*
X58442035Y-118309741D01*
X58376152Y-118164760D01*
X58347390Y-117962900D01*
X58341250Y-117668051D01*
X58341250Y-117114476D01*
X57825312Y-116603125D01*
X57597954Y-116369174D01*
X57421741Y-116171455D01*
X57322306Y-116039529D01*
X57309375Y-116008118D01*
X57362618Y-115920739D01*
X57506516Y-115750222D01*
X57717326Y-115523493D01*
X57904321Y-115333488D01*
X58499268Y-114742513D01*
X58936196Y-115174013D01*
G37*
X58936196Y-115174013D02*
X59160220Y-115403331D01*
X59291224Y-115570323D01*
X59353769Y-115719324D01*
X59372417Y-115894669D01*
X59373125Y-115962702D01*
X59373125Y-116319889D01*
X58937360Y-115889538D01*
X58501596Y-115459186D01*
X58221989Y-115730191D01*
X57942383Y-116001196D01*
X58822975Y-116891074D01*
X58800394Y-117784464D01*
X58777812Y-118677854D01*
X58559531Y-118449740D01*
X58442035Y-118309741D01*
X58376152Y-118164760D01*
X58347390Y-117962900D01*
X58341250Y-117668051D01*
X58341250Y-117114476D01*
X57825312Y-116603125D01*
X57597954Y-116369174D01*
X57421741Y-116171455D01*
X57322306Y-116039529D01*
X57309375Y-116008118D01*
X57362618Y-115920739D01*
X57506516Y-115750222D01*
X57717326Y-115523493D01*
X57904321Y-115333488D01*
X58499268Y-114742513D01*
X58936196Y-115174013D01*
G36*
X126936196Y-62674013D02*
G01*
X127160220Y-62903331D01*
X127291224Y-63070323D01*
X127353769Y-63219324D01*
X127372417Y-63394669D01*
X127373125Y-63462702D01*
X127373125Y-63819889D01*
X126937360Y-63389538D01*
X126501596Y-62959186D01*
X126221989Y-63230191D01*
X125942383Y-63501196D01*
X126822975Y-64391074D01*
X126800394Y-65284464D01*
X126777812Y-66177854D01*
X126559531Y-65949740D01*
X126442035Y-65809741D01*
X126376152Y-65664760D01*
X126347390Y-65462900D01*
X126341250Y-65168051D01*
X126341250Y-64614476D01*
X125825312Y-64103125D01*
X125597954Y-63869174D01*
X125421741Y-63671455D01*
X125322306Y-63539529D01*
X125309375Y-63508118D01*
X125362618Y-63420739D01*
X125506516Y-63250222D01*
X125717326Y-63023493D01*
X125904321Y-62833488D01*
X126499268Y-62242513D01*
X126936196Y-62674013D01*
G37*
X126936196Y-62674013D02*
X127160220Y-62903331D01*
X127291224Y-63070323D01*
X127353769Y-63219324D01*
X127372417Y-63394669D01*
X127373125Y-63462702D01*
X127373125Y-63819889D01*
X126937360Y-63389538D01*
X126501596Y-62959186D01*
X126221989Y-63230191D01*
X125942383Y-63501196D01*
X126822975Y-64391074D01*
X126800394Y-65284464D01*
X126777812Y-66177854D01*
X126559531Y-65949740D01*
X126442035Y-65809741D01*
X126376152Y-65664760D01*
X126347390Y-65462900D01*
X126341250Y-65168051D01*
X126341250Y-64614476D01*
X125825312Y-64103125D01*
X125597954Y-63869174D01*
X125421741Y-63671455D01*
X125322306Y-63539529D01*
X125309375Y-63508118D01*
X125362618Y-63420739D01*
X125506516Y-63250222D01*
X125717326Y-63023493D01*
X125904321Y-62833488D01*
X126499268Y-62242513D01*
X126936196Y-62674013D01*
G36*
X124993314Y-62874117D02*
G01*
X124996666Y-62877148D01*
X125101276Y-62994777D01*
X125087044Y-63099718D01*
X125030272Y-63183626D01*
X124746130Y-63684288D01*
X124613038Y-64199670D01*
X124629888Y-64711618D01*
X124795571Y-65201978D01*
X125108979Y-65652595D01*
X125185918Y-65733002D01*
X125635502Y-66086300D01*
X126110838Y-66285985D01*
X126597619Y-66332058D01*
X127081538Y-66224518D01*
X127548286Y-65963366D01*
X127814081Y-65733002D01*
X128155709Y-65292086D01*
X128349824Y-64807945D01*
X128395319Y-64298732D01*
X128291085Y-63782601D01*
X128036013Y-63277707D01*
X127969727Y-63183626D01*
X127892661Y-63050060D01*
X127929417Y-62949592D01*
X128003333Y-62877148D01*
X128095643Y-62805108D01*
X128169653Y-62806372D01*
X128258787Y-62901304D01*
X128396469Y-63110272D01*
X128403109Y-63120739D01*
X128654504Y-63605894D01*
X128775576Y-64087027D01*
X128781585Y-64621397D01*
X128659228Y-65198000D01*
X128396881Y-65716996D01*
X128009151Y-66156847D01*
X127510647Y-66496013D01*
X127509923Y-66496385D01*
X127157971Y-66619791D01*
X126726438Y-66689529D01*
X126281015Y-66701228D01*
X125887393Y-66650515D01*
X125761652Y-66612708D01*
X125222436Y-66334626D01*
X124782005Y-65949179D01*
X124455383Y-65477102D01*
X124257593Y-64939127D01*
X124202051Y-64460312D01*
X124239783Y-63969530D01*
X124374933Y-63530029D01*
X124597854Y-63119219D01*
X124737716Y-62906070D01*
X124827885Y-62807742D01*
X124901904Y-62803878D01*
X124993314Y-62874117D01*
G37*
X124993314Y-62874117D02*
X124996666Y-62877148D01*
X125101276Y-62994777D01*
X125087044Y-63099718D01*
X125030272Y-63183626D01*
X124746130Y-63684288D01*
X124613038Y-64199670D01*
X124629888Y-64711618D01*
X124795571Y-65201978D01*
X125108979Y-65652595D01*
X125185918Y-65733002D01*
X125635502Y-66086300D01*
X126110838Y-66285985D01*
X126597619Y-66332058D01*
X127081538Y-66224518D01*
X127548286Y-65963366D01*
X127814081Y-65733002D01*
X128155709Y-65292086D01*
X128349824Y-64807945D01*
X128395319Y-64298732D01*
X128291085Y-63782601D01*
X128036013Y-63277707D01*
X127969727Y-63183626D01*
X127892661Y-63050060D01*
X127929417Y-62949592D01*
X128003333Y-62877148D01*
X128095643Y-62805108D01*
X128169653Y-62806372D01*
X128258787Y-62901304D01*
X128396469Y-63110272D01*
X128403109Y-63120739D01*
X128654504Y-63605894D01*
X128775576Y-64087027D01*
X128781585Y-64621397D01*
X128659228Y-65198000D01*
X128396881Y-65716996D01*
X128009151Y-66156847D01*
X127510647Y-66496013D01*
X127509923Y-66496385D01*
X127157971Y-66619791D01*
X126726438Y-66689529D01*
X126281015Y-66701228D01*
X125887393Y-66650515D01*
X125761652Y-66612708D01*
X125222436Y-66334626D01*
X124782005Y-65949179D01*
X124455383Y-65477102D01*
X124257593Y-64939127D01*
X124202051Y-64460312D01*
X124239783Y-63969530D01*
X124374933Y-63530029D01*
X124597854Y-63119219D01*
X124737716Y-62906070D01*
X124827885Y-62807742D01*
X124901904Y-62803878D01*
X124993314Y-62874117D01*
G36*
X90993314Y-62874117D02*
G01*
X90996666Y-62877148D01*
X91101276Y-62994777D01*
X91087044Y-63099718D01*
X91030272Y-63183626D01*
X90746130Y-63684288D01*
X90613038Y-64199670D01*
X90629888Y-64711618D01*
X90795571Y-65201978D01*
X91108979Y-65652595D01*
X91185918Y-65733002D01*
X91635502Y-66086300D01*
X92110838Y-66285985D01*
X92597619Y-66332058D01*
X93081538Y-66224518D01*
X93548286Y-65963366D01*
X93814081Y-65733002D01*
X94155709Y-65292086D01*
X94349824Y-64807945D01*
X94395319Y-64298732D01*
X94291085Y-63782601D01*
X94036013Y-63277707D01*
X93969727Y-63183626D01*
X93892661Y-63050060D01*
X93929417Y-62949592D01*
X94003333Y-62877148D01*
X94095643Y-62805108D01*
X94169653Y-62806372D01*
X94258787Y-62901304D01*
X94396469Y-63110272D01*
X94403109Y-63120739D01*
X94654504Y-63605894D01*
X94775576Y-64087027D01*
X94781585Y-64621397D01*
X94659228Y-65198000D01*
X94396881Y-65716996D01*
X94009151Y-66156847D01*
X93510647Y-66496013D01*
X93509923Y-66496385D01*
X93157971Y-66619791D01*
X92726438Y-66689529D01*
X92281015Y-66701228D01*
X91887393Y-66650515D01*
X91761652Y-66612708D01*
X91222436Y-66334626D01*
X90782005Y-65949179D01*
X90455383Y-65477102D01*
X90257593Y-64939127D01*
X90202051Y-64460312D01*
X90239783Y-63969530D01*
X90374933Y-63530029D01*
X90597854Y-63119219D01*
X90737716Y-62906070D01*
X90827885Y-62807742D01*
X90901904Y-62803878D01*
X90993314Y-62874117D01*
G37*
X90993314Y-62874117D02*
X90996666Y-62877148D01*
X91101276Y-62994777D01*
X91087044Y-63099718D01*
X91030272Y-63183626D01*
X90746130Y-63684288D01*
X90613038Y-64199670D01*
X90629888Y-64711618D01*
X90795571Y-65201978D01*
X91108979Y-65652595D01*
X91185918Y-65733002D01*
X91635502Y-66086300D01*
X92110838Y-66285985D01*
X92597619Y-66332058D01*
X93081538Y-66224518D01*
X93548286Y-65963366D01*
X93814081Y-65733002D01*
X94155709Y-65292086D01*
X94349824Y-64807945D01*
X94395319Y-64298732D01*
X94291085Y-63782601D01*
X94036013Y-63277707D01*
X93969727Y-63183626D01*
X93892661Y-63050060D01*
X93929417Y-62949592D01*
X94003333Y-62877148D01*
X94095643Y-62805108D01*
X94169653Y-62806372D01*
X94258787Y-62901304D01*
X94396469Y-63110272D01*
X94403109Y-63120739D01*
X94654504Y-63605894D01*
X94775576Y-64087027D01*
X94781585Y-64621397D01*
X94659228Y-65198000D01*
X94396881Y-65716996D01*
X94009151Y-66156847D01*
X93510647Y-66496013D01*
X93509923Y-66496385D01*
X93157971Y-66619791D01*
X92726438Y-66689529D01*
X92281015Y-66701228D01*
X91887393Y-66650515D01*
X91761652Y-66612708D01*
X91222436Y-66334626D01*
X90782005Y-65949179D01*
X90455383Y-65477102D01*
X90257593Y-64939127D01*
X90202051Y-64460312D01*
X90239783Y-63969530D01*
X90374933Y-63530029D01*
X90597854Y-63119219D01*
X90737716Y-62906070D01*
X90827885Y-62807742D01*
X90901904Y-62803878D01*
X90993314Y-62874117D01*
G36*
X92936196Y-62674013D02*
G01*
X93160220Y-62903331D01*
X93291224Y-63070323D01*
X93353769Y-63219324D01*
X93372417Y-63394669D01*
X93373125Y-63462702D01*
X93373125Y-63819889D01*
X92937360Y-63389538D01*
X92501596Y-62959186D01*
X92221989Y-63230191D01*
X91942383Y-63501196D01*
X92822975Y-64391074D01*
X92800394Y-65284464D01*
X92777812Y-66177854D01*
X92559531Y-65949740D01*
X92442035Y-65809741D01*
X92376152Y-65664760D01*
X92347390Y-65462900D01*
X92341250Y-65168051D01*
X92341250Y-64614476D01*
X91825312Y-64103125D01*
X91597954Y-63869174D01*
X91421741Y-63671455D01*
X91322306Y-63539529D01*
X91309375Y-63508118D01*
X91362618Y-63420739D01*
X91506516Y-63250222D01*
X91717326Y-63023493D01*
X91904321Y-62833488D01*
X92499268Y-62242513D01*
X92936196Y-62674013D01*
G37*
X92936196Y-62674013D02*
X93160220Y-62903331D01*
X93291224Y-63070323D01*
X93353769Y-63219324D01*
X93372417Y-63394669D01*
X93373125Y-63462702D01*
X93373125Y-63819889D01*
X92937360Y-63389538D01*
X92501596Y-62959186D01*
X92221989Y-63230191D01*
X91942383Y-63501196D01*
X92822975Y-64391074D01*
X92800394Y-65284464D01*
X92777812Y-66177854D01*
X92559531Y-65949740D01*
X92442035Y-65809741D01*
X92376152Y-65664760D01*
X92347390Y-65462900D01*
X92341250Y-65168051D01*
X92341250Y-64614476D01*
X91825312Y-64103125D01*
X91597954Y-63869174D01*
X91421741Y-63671455D01*
X91322306Y-63539529D01*
X91309375Y-63508118D01*
X91362618Y-63420739D01*
X91506516Y-63250222D01*
X91717326Y-63023493D01*
X91904321Y-62833488D01*
X92499268Y-62242513D01*
X92936196Y-62674013D01*
D11*
X134500000Y-98980000D02*
X134500000Y-96190000D01*
X133230000Y-98980000D02*
X133230000Y-96190000D01*
X131960000Y-98980000D02*
X131960000Y-96190000D01*
X135630000Y-96190000D02*
X130830000Y-96190000D01*
X130830000Y-96190000D02*
X130830000Y-91000000D01*
X130830000Y-91000000D02*
X135630000Y-91000000D01*
X135630000Y-91000000D02*
X135630000Y-96190000D01*
D12*
X126350000Y-79468000D02*
X125650000Y-79468000D01*
X125650000Y-79468000D02*
X125650000Y-76532000D01*
X125650000Y-76532000D02*
X126350000Y-76532000D01*
X126350000Y-76532000D02*
X126350000Y-79468000D01*
X127900000Y-79500000D02*
X126700000Y-79500000D01*
D11*
X135630000Y-38500000D02*
X135630000Y-43690000D01*
X130830000Y-38500000D02*
X135630000Y-38500000D01*
X130830000Y-43690000D02*
X130830000Y-38500000D01*
X135630000Y-43690000D02*
X130830000Y-43690000D01*
X131960000Y-46480000D02*
X131960000Y-43690000D01*
X133230000Y-46480000D02*
X133230000Y-43690000D01*
X134500000Y-46480000D02*
X134500000Y-43690000D01*
X143227064Y-46765000D02*
X142772936Y-46765000D01*
X143227064Y-48235000D02*
X142772936Y-48235000D01*
X142500000Y-134000000D02*
X147000000Y-134000000D01*
X141250000Y-130000000D02*
X141250000Y-131500000D01*
X147000000Y-127500000D02*
X142500000Y-127500000D01*
X148250000Y-131500000D02*
X148250000Y-130000000D01*
X128235000Y-125761252D02*
X128235000Y-125238748D01*
X126765000Y-125761252D02*
X126765000Y-125238748D01*
X144370000Y-97830000D02*
X144370000Y-92630000D01*
X139230000Y-97830000D02*
X144370000Y-97830000D01*
X136630000Y-92630000D02*
X144370000Y-92630000D01*
X139230000Y-97830000D02*
X139230000Y-95230000D01*
X139230000Y-95230000D02*
X136630000Y-95230000D01*
X136630000Y-95230000D02*
X136630000Y-92630000D01*
X137960000Y-97830000D02*
X136630000Y-97830000D01*
X136630000Y-97830000D02*
X136630000Y-96500000D01*
D12*
X127900000Y-132000000D02*
X126700000Y-132000000D01*
X126350000Y-129032000D02*
X126350000Y-131968000D01*
X125650000Y-129032000D02*
X126350000Y-129032000D01*
X125650000Y-131968000D02*
X125650000Y-129032000D01*
X126350000Y-131968000D02*
X125650000Y-131968000D01*
D11*
X138727064Y-46765000D02*
X138272936Y-46765000D01*
X138727064Y-48235000D02*
X138272936Y-48235000D01*
X136630000Y-45330000D02*
X136630000Y-44000000D01*
X137960000Y-45330000D02*
X136630000Y-45330000D01*
X136630000Y-42730000D02*
X136630000Y-40130000D01*
X139230000Y-42730000D02*
X136630000Y-42730000D01*
X139230000Y-45330000D02*
X139230000Y-42730000D01*
X136630000Y-40130000D02*
X144370000Y-40130000D01*
X139230000Y-45330000D02*
X144370000Y-45330000D01*
X144370000Y-45330000D02*
X144370000Y-40130000D01*
X126765000Y-73261252D02*
X126765000Y-72738748D01*
X128235000Y-73261252D02*
X128235000Y-72738748D01*
X125235000Y-73261252D02*
X125235000Y-72738748D01*
X123765000Y-73261252D02*
X123765000Y-72738748D01*
X130380000Y-56500000D02*
X129770000Y-56500000D01*
X130380000Y-56500000D02*
X130380000Y-48880000D01*
X130380000Y-73120000D02*
X130380000Y-72500000D01*
X132500000Y-73120000D02*
X130380000Y-73120000D01*
X146620000Y-73120000D02*
X144500000Y-73120000D01*
X146620000Y-72500000D02*
X146620000Y-73120000D01*
X146620000Y-48880000D02*
X146620000Y-56500000D01*
X130380000Y-48880000D02*
X146620000Y-48880000D01*
X138727064Y-100735000D02*
X138272936Y-100735000D01*
X138727064Y-99265000D02*
X138272936Y-99265000D01*
X149735000Y-71227064D02*
X149735000Y-70772936D01*
X148265000Y-71227064D02*
X148265000Y-70772936D01*
X148250000Y-79000000D02*
X148250000Y-77500000D01*
X147000000Y-75000000D02*
X142500000Y-75000000D01*
X141250000Y-77500000D02*
X141250000Y-79000000D01*
X142500000Y-81500000D02*
X147000000Y-81500000D01*
X131300000Y-79900000D02*
X131960000Y-79900000D01*
X131190000Y-81630000D02*
X131190000Y-79900000D01*
X138810000Y-85590000D02*
X138810000Y-85380000D01*
X131190000Y-85590000D02*
X131190000Y-85380000D01*
X138810000Y-81630000D02*
X138810000Y-79900000D01*
X138775000Y-79900000D02*
X138125000Y-79900000D01*
X133240000Y-80590000D02*
X133690000Y-80590000D01*
X133240000Y-80590000D02*
X133240000Y-80980000D01*
X143227064Y-100735000D02*
X142772936Y-100735000D01*
X143227064Y-99265000D02*
X142772936Y-99265000D01*
X123765000Y-125761252D02*
X123765000Y-125238748D01*
X125235000Y-125761252D02*
X125235000Y-125238748D01*
X130380000Y-101380000D02*
X146620000Y-101380000D01*
X146620000Y-101380000D02*
X146620000Y-109000000D01*
X146620000Y-125000000D02*
X146620000Y-125620000D01*
X146620000Y-125620000D02*
X144500000Y-125620000D01*
X132500000Y-125620000D02*
X130380000Y-125620000D01*
X130380000Y-125620000D02*
X130380000Y-125000000D01*
X130380000Y-109000000D02*
X130380000Y-101380000D01*
X130380000Y-109000000D02*
X129770000Y-109000000D01*
X148265000Y-123727064D02*
X148265000Y-123272936D01*
X149735000Y-123727064D02*
X149735000Y-123272936D01*
X133240000Y-133090000D02*
X133240000Y-133480000D01*
X133240000Y-133090000D02*
X133690000Y-133090000D01*
X138775000Y-132400000D02*
X138125000Y-132400000D01*
X138810000Y-134130000D02*
X138810000Y-132400000D01*
X131190000Y-138090000D02*
X131190000Y-137880000D01*
X138810000Y-138090000D02*
X138810000Y-137880000D01*
X131190000Y-134130000D02*
X131190000Y-132400000D01*
X131300000Y-132400000D02*
X131960000Y-132400000D01*
X99240000Y-80590000D02*
X99240000Y-80980000D01*
X99240000Y-80590000D02*
X99690000Y-80590000D01*
X104775000Y-79900000D02*
X104125000Y-79900000D01*
X104810000Y-81630000D02*
X104810000Y-79900000D01*
X97190000Y-85590000D02*
X97190000Y-85380000D01*
X104810000Y-85590000D02*
X104810000Y-85380000D01*
X97190000Y-81630000D02*
X97190000Y-79900000D01*
X97300000Y-79900000D02*
X97960000Y-79900000D01*
X114265000Y-71227064D02*
X114265000Y-70772936D01*
X115735000Y-71227064D02*
X115735000Y-70772936D01*
X100500000Y-46480000D02*
X100500000Y-43690000D01*
X99230000Y-46480000D02*
X99230000Y-43690000D01*
X97960000Y-46480000D02*
X97960000Y-43690000D01*
X101630000Y-43690000D02*
X96830000Y-43690000D01*
X96830000Y-43690000D02*
X96830000Y-38500000D01*
X96830000Y-38500000D02*
X101630000Y-38500000D01*
X101630000Y-38500000D02*
X101630000Y-43690000D01*
X109227064Y-48235000D02*
X108772936Y-48235000D01*
X109227064Y-46765000D02*
X108772936Y-46765000D01*
X115735000Y-123727064D02*
X115735000Y-123272936D01*
X114265000Y-123727064D02*
X114265000Y-123272936D01*
X101630000Y-91000000D02*
X101630000Y-96190000D01*
X96830000Y-91000000D02*
X101630000Y-91000000D01*
X96830000Y-96190000D02*
X96830000Y-91000000D01*
X101630000Y-96190000D02*
X96830000Y-96190000D01*
X97960000Y-98980000D02*
X97960000Y-96190000D01*
X99230000Y-98980000D02*
X99230000Y-96190000D01*
X100500000Y-98980000D02*
X100500000Y-96190000D01*
X109227064Y-99265000D02*
X108772936Y-99265000D01*
X109227064Y-100735000D02*
X108772936Y-100735000D01*
X102630000Y-97830000D02*
X102630000Y-96500000D01*
X103960000Y-97830000D02*
X102630000Y-97830000D01*
X102630000Y-95230000D02*
X102630000Y-92630000D01*
X105230000Y-95230000D02*
X102630000Y-95230000D01*
X105230000Y-97830000D02*
X105230000Y-95230000D01*
X102630000Y-92630000D02*
X110370000Y-92630000D01*
X105230000Y-97830000D02*
X110370000Y-97830000D01*
X110370000Y-97830000D02*
X110370000Y-92630000D01*
X104727064Y-99265000D02*
X104272936Y-99265000D01*
X104727064Y-100735000D02*
X104272936Y-100735000D01*
D12*
X92350000Y-131968000D02*
X91650000Y-131968000D01*
X91650000Y-131968000D02*
X91650000Y-129032000D01*
X91650000Y-129032000D02*
X92350000Y-129032000D01*
X92350000Y-129032000D02*
X92350000Y-131968000D01*
X93900000Y-132000000D02*
X92700000Y-132000000D01*
D11*
X110370000Y-45330000D02*
X110370000Y-40130000D01*
X105230000Y-45330000D02*
X110370000Y-45330000D01*
X102630000Y-40130000D02*
X110370000Y-40130000D01*
X105230000Y-45330000D02*
X105230000Y-42730000D01*
X105230000Y-42730000D02*
X102630000Y-42730000D01*
X102630000Y-42730000D02*
X102630000Y-40130000D01*
X103960000Y-45330000D02*
X102630000Y-45330000D01*
X102630000Y-45330000D02*
X102630000Y-44000000D01*
X97300000Y-132400000D02*
X97960000Y-132400000D01*
X97190000Y-134130000D02*
X97190000Y-132400000D01*
X104810000Y-138090000D02*
X104810000Y-137880000D01*
X97190000Y-138090000D02*
X97190000Y-137880000D01*
X104810000Y-134130000D02*
X104810000Y-132400000D01*
X104775000Y-132400000D02*
X104125000Y-132400000D01*
X99240000Y-133090000D02*
X99690000Y-133090000D01*
X99240000Y-133090000D02*
X99240000Y-133480000D01*
X91235000Y-125761252D02*
X91235000Y-125238748D01*
X89765000Y-125761252D02*
X89765000Y-125238748D01*
X92765000Y-125761252D02*
X92765000Y-125238748D01*
X94235000Y-125761252D02*
X94235000Y-125238748D01*
X114250000Y-131500000D02*
X114250000Y-130000000D01*
X113000000Y-127500000D02*
X108500000Y-127500000D01*
X107250000Y-130000000D02*
X107250000Y-131500000D01*
X108500000Y-134000000D02*
X113000000Y-134000000D01*
X96380000Y-109000000D02*
X95770000Y-109000000D01*
X96380000Y-109000000D02*
X96380000Y-101380000D01*
X96380000Y-125620000D02*
X96380000Y-125000000D01*
X98500000Y-125620000D02*
X96380000Y-125620000D01*
X112620000Y-125620000D02*
X110500000Y-125620000D01*
X112620000Y-125000000D02*
X112620000Y-125620000D01*
X112620000Y-101380000D02*
X112620000Y-109000000D01*
X96380000Y-101380000D02*
X112620000Y-101380000D01*
X108500000Y-81500000D02*
X113000000Y-81500000D01*
X107250000Y-77500000D02*
X107250000Y-79000000D01*
X113000000Y-75000000D02*
X108500000Y-75000000D01*
X114250000Y-79000000D02*
X114250000Y-77500000D01*
X104727064Y-48235000D02*
X104272936Y-48235000D01*
X104727064Y-46765000D02*
X104272936Y-46765000D01*
X94235000Y-73261252D02*
X94235000Y-72738748D01*
X92765000Y-73261252D02*
X92765000Y-72738748D01*
X96380000Y-48880000D02*
X112620000Y-48880000D01*
X112620000Y-48880000D02*
X112620000Y-56500000D01*
X112620000Y-72500000D02*
X112620000Y-73120000D01*
X112620000Y-73120000D02*
X110500000Y-73120000D01*
X98500000Y-73120000D02*
X96380000Y-73120000D01*
X96380000Y-73120000D02*
X96380000Y-72500000D01*
X96380000Y-56500000D02*
X96380000Y-48880000D01*
X96380000Y-56500000D02*
X95770000Y-56500000D01*
X89765000Y-73261252D02*
X89765000Y-72738748D01*
X91235000Y-73261252D02*
X91235000Y-72738748D01*
D12*
X93900000Y-79500000D02*
X92700000Y-79500000D01*
X92350000Y-76532000D02*
X92350000Y-79468000D01*
X91650000Y-76532000D02*
X92350000Y-76532000D01*
X91650000Y-79468000D02*
X91650000Y-76532000D01*
X92350000Y-79468000D02*
X91650000Y-79468000D01*
D11*
X65240000Y-133090000D02*
X65240000Y-133480000D01*
X65240000Y-133090000D02*
X65690000Y-133090000D01*
X70775000Y-132400000D02*
X70125000Y-132400000D01*
X70810000Y-134130000D02*
X70810000Y-132400000D01*
X63190000Y-138090000D02*
X63190000Y-137880000D01*
X70810000Y-138090000D02*
X70810000Y-137880000D01*
X63190000Y-134130000D02*
X63190000Y-132400000D01*
X63300000Y-132400000D02*
X63960000Y-132400000D01*
X80265000Y-123727064D02*
X80265000Y-123272936D01*
X81735000Y-123727064D02*
X81735000Y-123272936D01*
X66500000Y-98980000D02*
X66500000Y-96190000D01*
X65230000Y-98980000D02*
X65230000Y-96190000D01*
X63960000Y-98980000D02*
X63960000Y-96190000D01*
X67630000Y-96190000D02*
X62830000Y-96190000D01*
X62830000Y-96190000D02*
X62830000Y-91000000D01*
X62830000Y-91000000D02*
X67630000Y-91000000D01*
X67630000Y-91000000D02*
X67630000Y-96190000D01*
X75227064Y-100735000D02*
X74772936Y-100735000D01*
X75227064Y-99265000D02*
X74772936Y-99265000D01*
X76370000Y-97830000D02*
X76370000Y-92630000D01*
X71230000Y-97830000D02*
X76370000Y-97830000D01*
X68630000Y-92630000D02*
X76370000Y-92630000D01*
X71230000Y-97830000D02*
X71230000Y-95230000D01*
X71230000Y-95230000D02*
X68630000Y-95230000D01*
X68630000Y-95230000D02*
X68630000Y-92630000D01*
X69960000Y-97830000D02*
X68630000Y-97830000D01*
X68630000Y-97830000D02*
X68630000Y-96500000D01*
X74500000Y-134000000D02*
X79000000Y-134000000D01*
X73250000Y-130000000D02*
X73250000Y-131500000D01*
X79000000Y-127500000D02*
X74500000Y-127500000D01*
X80250000Y-131500000D02*
X80250000Y-130000000D01*
X70727064Y-100735000D02*
X70272936Y-100735000D01*
X70727064Y-99265000D02*
X70272936Y-99265000D01*
X60235000Y-125761252D02*
X60235000Y-125238748D01*
X58765000Y-125761252D02*
X58765000Y-125238748D01*
X62380000Y-101380000D02*
X78620000Y-101380000D01*
X78620000Y-101380000D02*
X78620000Y-109000000D01*
X78620000Y-125000000D02*
X78620000Y-125620000D01*
X78620000Y-125620000D02*
X76500000Y-125620000D01*
X64500000Y-125620000D02*
X62380000Y-125620000D01*
X62380000Y-125620000D02*
X62380000Y-125000000D01*
X62380000Y-109000000D02*
X62380000Y-101380000D01*
X62380000Y-109000000D02*
X61770000Y-109000000D01*
X55765000Y-125761252D02*
X55765000Y-125238748D01*
X57235000Y-125761252D02*
X57235000Y-125238748D01*
D12*
X59900000Y-132000000D02*
X58700000Y-132000000D01*
X58350000Y-129032000D02*
X58350000Y-131968000D01*
X57650000Y-129032000D02*
X58350000Y-129032000D01*
X57650000Y-131968000D02*
X57650000Y-129032000D01*
X58350000Y-131968000D02*
X57650000Y-131968000D01*
D11*
X67630000Y-38500000D02*
X67630000Y-43690000D01*
X62830000Y-38500000D02*
X67630000Y-38500000D01*
X62830000Y-43690000D02*
X62830000Y-38500000D01*
X67630000Y-43690000D02*
X62830000Y-43690000D01*
X63960000Y-46480000D02*
X63960000Y-43690000D01*
X65230000Y-46480000D02*
X65230000Y-43690000D01*
X66500000Y-46480000D02*
X66500000Y-43690000D01*
X63300000Y-79900000D02*
X63960000Y-79900000D01*
X63190000Y-81630000D02*
X63190000Y-79900000D01*
X70810000Y-85590000D02*
X70810000Y-85380000D01*
X63190000Y-85590000D02*
X63190000Y-85380000D01*
X70810000Y-81630000D02*
X70810000Y-79900000D01*
X70775000Y-79900000D02*
X70125000Y-79900000D01*
X65240000Y-80590000D02*
X65690000Y-80590000D01*
X65240000Y-80590000D02*
X65240000Y-80980000D01*
D10*
G36*
X58936196Y-62674013D02*
G01*
X59160220Y-62903331D01*
X59291224Y-63070323D01*
X59353769Y-63219324D01*
X59372417Y-63394669D01*
X59373125Y-63462702D01*
X59373125Y-63819889D01*
X58937360Y-63389538D01*
X58501596Y-62959186D01*
X58221989Y-63230191D01*
X57942383Y-63501196D01*
X58822975Y-64391074D01*
X58800394Y-65284464D01*
X58777812Y-66177854D01*
X58559531Y-65949740D01*
X58442035Y-65809741D01*
X58376152Y-65664760D01*
X58347390Y-65462900D01*
X58341250Y-65168051D01*
X58341250Y-64614476D01*
X57825312Y-64103125D01*
X57597954Y-63869174D01*
X57421741Y-63671455D01*
X57322306Y-63539529D01*
X57309375Y-63508118D01*
X57362618Y-63420739D01*
X57506516Y-63250222D01*
X57717326Y-63023493D01*
X57904321Y-62833488D01*
X58499268Y-62242513D01*
X58936196Y-62674013D01*
G37*
X58936196Y-62674013D02*
X59160220Y-62903331D01*
X59291224Y-63070323D01*
X59353769Y-63219324D01*
X59372417Y-63394669D01*
X59373125Y-63462702D01*
X59373125Y-63819889D01*
X58937360Y-63389538D01*
X58501596Y-62959186D01*
X58221989Y-63230191D01*
X57942383Y-63501196D01*
X58822975Y-64391074D01*
X58800394Y-65284464D01*
X58777812Y-66177854D01*
X58559531Y-65949740D01*
X58442035Y-65809741D01*
X58376152Y-65664760D01*
X58347390Y-65462900D01*
X58341250Y-65168051D01*
X58341250Y-64614476D01*
X57825312Y-64103125D01*
X57597954Y-63869174D01*
X57421741Y-63671455D01*
X57322306Y-63539529D01*
X57309375Y-63508118D01*
X57362618Y-63420739D01*
X57506516Y-63250222D01*
X57717326Y-63023493D01*
X57904321Y-62833488D01*
X58499268Y-62242513D01*
X58936196Y-62674013D01*
G36*
X56993314Y-62874117D02*
G01*
X56996666Y-62877148D01*
X57101276Y-62994777D01*
X57087044Y-63099718D01*
X57030272Y-63183626D01*
X56746130Y-63684288D01*
X56613038Y-64199670D01*
X56629888Y-64711618D01*
X56795571Y-65201978D01*
X57108979Y-65652595D01*
X57185918Y-65733002D01*
X57635502Y-66086300D01*
X58110838Y-66285985D01*
X58597619Y-66332058D01*
X59081538Y-66224518D01*
X59548286Y-65963366D01*
X59814081Y-65733002D01*
X60155709Y-65292086D01*
X60349824Y-64807945D01*
X60395319Y-64298732D01*
X60291085Y-63782601D01*
X60036013Y-63277707D01*
X59969727Y-63183626D01*
X59892661Y-63050060D01*
X59929417Y-62949592D01*
X60003333Y-62877148D01*
X60095643Y-62805108D01*
X60169653Y-62806372D01*
X60258787Y-62901304D01*
X60396469Y-63110272D01*
X60403109Y-63120739D01*
X60654504Y-63605894D01*
X60775576Y-64087027D01*
X60781585Y-64621397D01*
X60659228Y-65198000D01*
X60396881Y-65716996D01*
X60009151Y-66156847D01*
X59510647Y-66496013D01*
X59509923Y-66496385D01*
X59157971Y-66619791D01*
X58726438Y-66689529D01*
X58281015Y-66701228D01*
X57887393Y-66650515D01*
X57761652Y-66612708D01*
X57222436Y-66334626D01*
X56782005Y-65949179D01*
X56455383Y-65477102D01*
X56257593Y-64939127D01*
X56202051Y-64460312D01*
X56239783Y-63969530D01*
X56374933Y-63530029D01*
X56597854Y-63119219D01*
X56737716Y-62906070D01*
X56827885Y-62807742D01*
X56901904Y-62803878D01*
X56993314Y-62874117D01*
G37*
X56993314Y-62874117D02*
X56996666Y-62877148D01*
X57101276Y-62994777D01*
X57087044Y-63099718D01*
X57030272Y-63183626D01*
X56746130Y-63684288D01*
X56613038Y-64199670D01*
X56629888Y-64711618D01*
X56795571Y-65201978D01*
X57108979Y-65652595D01*
X57185918Y-65733002D01*
X57635502Y-66086300D01*
X58110838Y-66285985D01*
X58597619Y-66332058D01*
X59081538Y-66224518D01*
X59548286Y-65963366D01*
X59814081Y-65733002D01*
X60155709Y-65292086D01*
X60349824Y-64807945D01*
X60395319Y-64298732D01*
X60291085Y-63782601D01*
X60036013Y-63277707D01*
X59969727Y-63183626D01*
X59892661Y-63050060D01*
X59929417Y-62949592D01*
X60003333Y-62877148D01*
X60095643Y-62805108D01*
X60169653Y-62806372D01*
X60258787Y-62901304D01*
X60396469Y-63110272D01*
X60403109Y-63120739D01*
X60654504Y-63605894D01*
X60775576Y-64087027D01*
X60781585Y-64621397D01*
X60659228Y-65198000D01*
X60396881Y-65716996D01*
X60009151Y-66156847D01*
X59510647Y-66496013D01*
X59509923Y-66496385D01*
X59157971Y-66619791D01*
X58726438Y-66689529D01*
X58281015Y-66701228D01*
X57887393Y-66650515D01*
X57761652Y-66612708D01*
X57222436Y-66334626D01*
X56782005Y-65949179D01*
X56455383Y-65477102D01*
X56257593Y-64939127D01*
X56202051Y-64460312D01*
X56239783Y-63969530D01*
X56374933Y-63530029D01*
X56597854Y-63119219D01*
X56737716Y-62906070D01*
X56827885Y-62807742D01*
X56901904Y-62803878D01*
X56993314Y-62874117D01*
D11*
X81735000Y-71227064D02*
X81735000Y-70772936D01*
X80265000Y-71227064D02*
X80265000Y-70772936D01*
X75227064Y-46765000D02*
X74772936Y-46765000D01*
X75227064Y-48235000D02*
X74772936Y-48235000D01*
X70727064Y-46765000D02*
X70272936Y-46765000D01*
X70727064Y-48235000D02*
X70272936Y-48235000D01*
X62380000Y-56500000D02*
X61770000Y-56500000D01*
X62380000Y-56500000D02*
X62380000Y-48880000D01*
X62380000Y-73120000D02*
X62380000Y-72500000D01*
X64500000Y-73120000D02*
X62380000Y-73120000D01*
X78620000Y-73120000D02*
X76500000Y-73120000D01*
X78620000Y-72500000D02*
X78620000Y-73120000D01*
X78620000Y-48880000D02*
X78620000Y-56500000D01*
X62380000Y-48880000D02*
X78620000Y-48880000D01*
X80250000Y-79000000D02*
X80250000Y-77500000D01*
X79000000Y-75000000D02*
X74500000Y-75000000D01*
X73250000Y-77500000D02*
X73250000Y-79000000D01*
X74500000Y-81500000D02*
X79000000Y-81500000D01*
X58765000Y-73261252D02*
X58765000Y-72738748D01*
X60235000Y-73261252D02*
X60235000Y-72738748D01*
X57235000Y-73261252D02*
X57235000Y-72738748D01*
X55765000Y-73261252D02*
X55765000Y-72738748D01*
D12*
X58350000Y-79468000D02*
X57650000Y-79468000D01*
X57650000Y-79468000D02*
X57650000Y-76532000D01*
X57650000Y-76532000D02*
X58350000Y-76532000D01*
X58350000Y-76532000D02*
X58350000Y-79468000D01*
X59900000Y-79500000D02*
X58700000Y-79500000D01*
D11*
X68630000Y-45330000D02*
X68630000Y-44000000D01*
X69960000Y-45330000D02*
X68630000Y-45330000D01*
X68630000Y-42730000D02*
X68630000Y-40130000D01*
X71230000Y-42730000D02*
X68630000Y-42730000D01*
X71230000Y-45330000D02*
X71230000Y-42730000D01*
X68630000Y-40130000D02*
X76370000Y-40130000D01*
X71230000Y-45330000D02*
X76370000Y-45330000D01*
X76370000Y-45330000D02*
X76370000Y-40130000D01*
D13*
X135082380Y-95563333D02*
X135796666Y-95563333D01*
X135939523Y-95610952D01*
X136034761Y-95706190D01*
X136082380Y-95849047D01*
X136082380Y-95944285D01*
X135177619Y-95134761D02*
X135130000Y-95087142D01*
X135082380Y-94991904D01*
X135082380Y-94753809D01*
X135130000Y-94658571D01*
X135177619Y-94610952D01*
X135272857Y-94563333D01*
X135368095Y-94563333D01*
X135510952Y-94610952D01*
X136082380Y-95182380D01*
X136082380Y-94563333D01*
X135082380Y-43063333D02*
X135796666Y-43063333D01*
X135939523Y-43110952D01*
X136034761Y-43206190D01*
X136082380Y-43349047D01*
X136082380Y-43444285D01*
X135177619Y-42634761D02*
X135130000Y-42587142D01*
X135082380Y-42491904D01*
X135082380Y-42253809D01*
X135130000Y-42158571D01*
X135177619Y-42110952D01*
X135272857Y-42063333D01*
X135368095Y-42063333D01*
X135510952Y-42110952D01*
X136082380Y-42682380D01*
X136082380Y-42063333D01*
X101082380Y-95563333D02*
X101796666Y-95563333D01*
X101939523Y-95610952D01*
X102034761Y-95706190D01*
X102082380Y-95849047D01*
X102082380Y-95944285D01*
X101177619Y-95134761D02*
X101130000Y-95087142D01*
X101082380Y-94991904D01*
X101082380Y-94753809D01*
X101130000Y-94658571D01*
X101177619Y-94610952D01*
X101272857Y-94563333D01*
X101368095Y-94563333D01*
X101510952Y-94610952D01*
X102082380Y-95182380D01*
X102082380Y-94563333D01*
X101082380Y-43063333D02*
X101796666Y-43063333D01*
X101939523Y-43110952D01*
X102034761Y-43206190D01*
X102082380Y-43349047D01*
X102082380Y-43444285D01*
X101177619Y-42634761D02*
X101130000Y-42587142D01*
X101082380Y-42491904D01*
X101082380Y-42253809D01*
X101130000Y-42158571D01*
X101177619Y-42110952D01*
X101272857Y-42063333D01*
X101368095Y-42063333D01*
X101510952Y-42110952D01*
X102082380Y-42682380D01*
X102082380Y-42063333D01*
X67082380Y-95563333D02*
X67796666Y-95563333D01*
X67939523Y-95610952D01*
X68034761Y-95706190D01*
X68082380Y-95849047D01*
X68082380Y-95944285D01*
X67177619Y-95134761D02*
X67130000Y-95087142D01*
X67082380Y-94991904D01*
X67082380Y-94753809D01*
X67130000Y-94658571D01*
X67177619Y-94610952D01*
X67272857Y-94563333D01*
X67368095Y-94563333D01*
X67510952Y-94610952D01*
X68082380Y-95182380D01*
X68082380Y-94563333D01*
X67082380Y-43063333D02*
X67796666Y-43063333D01*
X67939523Y-43110952D01*
X68034761Y-43206190D01*
X68082380Y-43349047D01*
X68082380Y-43444285D01*
X67177619Y-42634761D02*
X67130000Y-42587142D01*
X67082380Y-42491904D01*
X67082380Y-42253809D01*
X67130000Y-42158571D01*
X67177619Y-42110952D01*
X67272857Y-42063333D01*
X67368095Y-42063333D01*
X67510952Y-42110952D01*
X68082380Y-42682380D01*
X68082380Y-42063333D01*
M02*
