G04 #@! TF.GenerationSoftware,KiCad,Pcbnew,(5.1.9)-1*
G04 #@! TF.CreationDate,2021-03-20T12:11:53+01:00*
G04 #@! TF.ProjectId,IM350,494d3335-302e-46b6-9963-61645f706362,rev?*
G04 #@! TF.SameCoordinates,Original*
G04 #@! TF.FileFunction,Soldermask,Top*
G04 #@! TF.FilePolarity,Negative*
%FSLAX46Y46*%
G04 Gerber Fmt 4.6, Leading zero omitted, Abs format (unit mm)*
G04 Created by KiCad (PCBNEW (5.1.9)-1) date 2021-03-20 12:11:53*
%MOMM*%
%LPD*%
G01*
G04 APERTURE LIST*
%ADD10O,1.700000X1.700000*%
%ADD11R,1.700000X1.700000*%
%ADD12C,2.000000*%
%ADD13R,1.050000X1.500000*%
%ADD14O,1.050000X1.500000*%
%ADD15R,0.600000X2.800000*%
%ADD16O,1.050000X1.900000*%
%ADD17R,1.500000X2.000000*%
%ADD18R,3.800000X2.000000*%
%ADD19R,2.500000X1.000000*%
%ADD20R,1.000000X1.800000*%
G04 APERTURE END LIST*
D10*
X75040000Y-41460000D03*
X75040000Y-44000000D03*
X72500000Y-41460000D03*
X72500000Y-44000000D03*
X69960000Y-41460000D03*
D11*
X69960000Y-44000000D03*
D10*
X75040000Y-89960000D03*
X75040000Y-92500000D03*
X72500000Y-89960000D03*
X72500000Y-92500000D03*
X69960000Y-89960000D03*
D11*
X69960000Y-92500000D03*
D10*
X107040000Y-89960000D03*
X107040000Y-92500000D03*
X104500000Y-89960000D03*
X104500000Y-92500000D03*
X101960000Y-89960000D03*
D11*
X101960000Y-92500000D03*
D10*
X107040000Y-41460000D03*
X107040000Y-44000000D03*
X104500000Y-41460000D03*
X104500000Y-44000000D03*
X101960000Y-41460000D03*
D11*
X101960000Y-44000000D03*
D10*
X139040000Y-41460000D03*
X139040000Y-44000000D03*
X136500000Y-41460000D03*
X136500000Y-44000000D03*
X133960000Y-41460000D03*
D11*
X133960000Y-44000000D03*
D10*
X139040000Y-89960000D03*
X139040000Y-92500000D03*
X136500000Y-89960000D03*
X136500000Y-92500000D03*
X133960000Y-89960000D03*
D11*
X133960000Y-92500000D03*
G36*
G01*
X121600000Y-68349999D02*
X121600000Y-69650001D01*
G75*
G02*
X121350001Y-69900000I-249999J0D01*
G01*
X120524999Y-69900000D01*
G75*
G02*
X120275000Y-69650001I0J249999D01*
G01*
X120275000Y-68349999D01*
G75*
G02*
X120524999Y-68100000I249999J0D01*
G01*
X121350001Y-68100000D01*
G75*
G02*
X121600000Y-68349999I0J-249999D01*
G01*
G37*
G36*
G01*
X124725000Y-68349999D02*
X124725000Y-69650001D01*
G75*
G02*
X124475001Y-69900000I-249999J0D01*
G01*
X123649999Y-69900000D01*
G75*
G02*
X123400000Y-69650001I0J249999D01*
G01*
X123400000Y-68349999D01*
G75*
G02*
X123649999Y-68100000I249999J0D01*
G01*
X124475001Y-68100000D01*
G75*
G02*
X124725000Y-68349999I0J-249999D01*
G01*
G37*
G36*
G01*
X119600000Y-71349999D02*
X119600000Y-72650001D01*
G75*
G02*
X119350001Y-72900000I-249999J0D01*
G01*
X118524999Y-72900000D01*
G75*
G02*
X118275000Y-72650001I0J249999D01*
G01*
X118275000Y-71349999D01*
G75*
G02*
X118524999Y-71100000I249999J0D01*
G01*
X119350001Y-71100000D01*
G75*
G02*
X119600000Y-71349999I0J-249999D01*
G01*
G37*
G36*
G01*
X122725000Y-71349999D02*
X122725000Y-72650001D01*
G75*
G02*
X122475001Y-72900000I-249999J0D01*
G01*
X121649999Y-72900000D01*
G75*
G02*
X121400000Y-72650001I0J249999D01*
G01*
X121400000Y-71349999D01*
G75*
G02*
X121649999Y-71100000I249999J0D01*
G01*
X122475001Y-71100000D01*
G75*
G02*
X122725000Y-71349999I0J-249999D01*
G01*
G37*
G36*
G01*
X145450001Y-121100000D02*
X144549999Y-121100000D01*
G75*
G02*
X144300000Y-120850001I0J249999D01*
G01*
X144300000Y-120149999D01*
G75*
G02*
X144549999Y-119900000I249999J0D01*
G01*
X145450001Y-119900000D01*
G75*
G02*
X145700000Y-120149999I0J-249999D01*
G01*
X145700000Y-120850001D01*
G75*
G02*
X145450001Y-121100000I-249999J0D01*
G01*
G37*
G36*
G01*
X145450001Y-119100000D02*
X144549999Y-119100000D01*
G75*
G02*
X144300000Y-118850001I0J249999D01*
G01*
X144300000Y-118149999D01*
G75*
G02*
X144549999Y-117900000I249999J0D01*
G01*
X145450001Y-117900000D01*
G75*
G02*
X145700000Y-118149999I0J-249999D01*
G01*
X145700000Y-118850001D01*
G75*
G02*
X145450001Y-119100000I-249999J0D01*
G01*
G37*
G36*
G01*
X136100000Y-95549999D02*
X136100000Y-96450001D01*
G75*
G02*
X135850001Y-96700000I-249999J0D01*
G01*
X135149999Y-96700000D01*
G75*
G02*
X134900000Y-96450001I0J249999D01*
G01*
X134900000Y-95549999D01*
G75*
G02*
X135149999Y-95300000I249999J0D01*
G01*
X135850001Y-95300000D01*
G75*
G02*
X136100000Y-95549999I0J-249999D01*
G01*
G37*
G36*
G01*
X134100000Y-95549999D02*
X134100000Y-96450001D01*
G75*
G02*
X133850001Y-96700000I-249999J0D01*
G01*
X133149999Y-96700000D01*
G75*
G02*
X132900000Y-96450001I0J249999D01*
G01*
X132900000Y-95549999D01*
G75*
G02*
X133149999Y-95300000I249999J0D01*
G01*
X133850001Y-95300000D01*
G75*
G02*
X134100000Y-95549999I0J-249999D01*
G01*
G37*
G36*
G01*
X140600000Y-95549999D02*
X140600000Y-96450001D01*
G75*
G02*
X140350001Y-96700000I-249999J0D01*
G01*
X139649999Y-96700000D01*
G75*
G02*
X139400000Y-96450001I0J249999D01*
G01*
X139400000Y-95549999D01*
G75*
G02*
X139649999Y-95300000I249999J0D01*
G01*
X140350001Y-95300000D01*
G75*
G02*
X140600000Y-95549999I0J-249999D01*
G01*
G37*
G36*
G01*
X138600000Y-95549999D02*
X138600000Y-96450001D01*
G75*
G02*
X138350001Y-96700000I-249999J0D01*
G01*
X137649999Y-96700000D01*
G75*
G02*
X137400000Y-96450001I0J249999D01*
G01*
X137400000Y-95549999D01*
G75*
G02*
X137649999Y-95300000I249999J0D01*
G01*
X138350001Y-95300000D01*
G75*
G02*
X138600000Y-95549999I0J-249999D01*
G01*
G37*
D12*
X144000000Y-124500000D03*
X144000000Y-129000000D03*
X137500000Y-124500000D03*
X137500000Y-129000000D03*
D13*
X130500000Y-47500000D03*
D14*
X127960000Y-47500000D03*
X129230000Y-47500000D03*
D15*
X129700000Y-77850000D03*
X132300000Y-77850000D03*
D16*
X127425000Y-84200000D03*
X134575000Y-84200000D03*
D17*
X123800000Y-123350000D03*
X119200000Y-123350000D03*
X121500000Y-123350000D03*
D18*
X121500000Y-129650000D03*
G36*
G01*
X124725000Y-116849999D02*
X124725000Y-118150001D01*
G75*
G02*
X124475001Y-118400000I-249999J0D01*
G01*
X123649999Y-118400000D01*
G75*
G02*
X123400000Y-118150001I0J249999D01*
G01*
X123400000Y-116849999D01*
G75*
G02*
X123649999Y-116600000I249999J0D01*
G01*
X124475001Y-116600000D01*
G75*
G02*
X124725000Y-116849999I0J-249999D01*
G01*
G37*
G36*
G01*
X121600000Y-116849999D02*
X121600000Y-118150001D01*
G75*
G02*
X121350001Y-118400000I-249999J0D01*
G01*
X120524999Y-118400000D01*
G75*
G02*
X120275000Y-118150001I0J249999D01*
G01*
X120275000Y-116849999D01*
G75*
G02*
X120524999Y-116600000I249999J0D01*
G01*
X121350001Y-116600000D01*
G75*
G02*
X121600000Y-116849999I0J-249999D01*
G01*
G37*
D16*
X134575000Y-132700000D03*
X127425000Y-132700000D03*
D15*
X132300000Y-126350000D03*
X129700000Y-126350000D03*
D14*
X129230000Y-96000000D03*
X127960000Y-96000000D03*
D13*
X130500000Y-96000000D03*
G36*
G01*
X134100000Y-47049999D02*
X134100000Y-47950001D01*
G75*
G02*
X133850001Y-48200000I-249999J0D01*
G01*
X133149999Y-48200000D01*
G75*
G02*
X132900000Y-47950001I0J249999D01*
G01*
X132900000Y-47049999D01*
G75*
G02*
X133149999Y-46800000I249999J0D01*
G01*
X133850001Y-46800000D01*
G75*
G02*
X134100000Y-47049999I0J-249999D01*
G01*
G37*
G36*
G01*
X136100000Y-47049999D02*
X136100000Y-47950001D01*
G75*
G02*
X135850001Y-48200000I-249999J0D01*
G01*
X135149999Y-48200000D01*
G75*
G02*
X134900000Y-47950001I0J249999D01*
G01*
X134900000Y-47049999D01*
G75*
G02*
X135149999Y-46800000I249999J0D01*
G01*
X135850001Y-46800000D01*
G75*
G02*
X136100000Y-47049999I0J-249999D01*
G01*
G37*
G36*
G01*
X122725000Y-119849999D02*
X122725000Y-121150001D01*
G75*
G02*
X122475001Y-121400000I-249999J0D01*
G01*
X121649999Y-121400000D01*
G75*
G02*
X121400000Y-121150001I0J249999D01*
G01*
X121400000Y-119849999D01*
G75*
G02*
X121649999Y-119600000I249999J0D01*
G01*
X122475001Y-119600000D01*
G75*
G02*
X122725000Y-119849999I0J-249999D01*
G01*
G37*
G36*
G01*
X119600000Y-119849999D02*
X119600000Y-121150001D01*
G75*
G02*
X119350001Y-121400000I-249999J0D01*
G01*
X118524999Y-121400000D01*
G75*
G02*
X118275000Y-121150001I0J249999D01*
G01*
X118275000Y-119849999D01*
G75*
G02*
X118524999Y-119600000I249999J0D01*
G01*
X119350001Y-119600000D01*
G75*
G02*
X119600000Y-119849999I0J-249999D01*
G01*
G37*
G36*
G01*
X145450001Y-70600000D02*
X144549999Y-70600000D01*
G75*
G02*
X144300000Y-70350001I0J249999D01*
G01*
X144300000Y-69649999D01*
G75*
G02*
X144549999Y-69400000I249999J0D01*
G01*
X145450001Y-69400000D01*
G75*
G02*
X145700000Y-69649999I0J-249999D01*
G01*
X145700000Y-70350001D01*
G75*
G02*
X145450001Y-70600000I-249999J0D01*
G01*
G37*
G36*
G01*
X145450001Y-72600000D02*
X144549999Y-72600000D01*
G75*
G02*
X144300000Y-72350001I0J249999D01*
G01*
X144300000Y-71649999D01*
G75*
G02*
X144549999Y-71400000I249999J0D01*
G01*
X145450001Y-71400000D01*
G75*
G02*
X145700000Y-71649999I0J-249999D01*
G01*
X145700000Y-72350001D01*
G75*
G02*
X145450001Y-72600000I-249999J0D01*
G01*
G37*
D18*
X121500000Y-81150000D03*
D17*
X121500000Y-74850000D03*
X119200000Y-74850000D03*
X123800000Y-74850000D03*
D19*
X126900000Y-57500000D03*
X126900000Y-59500000D03*
X126900000Y-61500000D03*
X126900000Y-63500000D03*
X126900000Y-65500000D03*
X126900000Y-67500000D03*
X126900000Y-69500000D03*
X126900000Y-71500000D03*
D20*
X129500000Y-73000000D03*
X131500000Y-73000000D03*
X133500000Y-73000000D03*
X135500000Y-73000000D03*
X137500000Y-73000000D03*
X139500000Y-73000000D03*
D19*
X142100000Y-71500000D03*
X142100000Y-69500000D03*
X142100000Y-67500000D03*
X142100000Y-65500000D03*
X142100000Y-63500000D03*
X142100000Y-61500000D03*
X142100000Y-59500000D03*
X142100000Y-57500000D03*
D12*
X137500000Y-80500000D03*
X137500000Y-76000000D03*
X144000000Y-80500000D03*
X144000000Y-76000000D03*
D19*
X142100000Y-106000000D03*
X142100000Y-108000000D03*
X142100000Y-110000000D03*
X142100000Y-112000000D03*
X142100000Y-114000000D03*
X142100000Y-116000000D03*
X142100000Y-118000000D03*
X142100000Y-120000000D03*
D20*
X139500000Y-121500000D03*
X137500000Y-121500000D03*
X135500000Y-121500000D03*
X133500000Y-121500000D03*
X131500000Y-121500000D03*
X129500000Y-121500000D03*
D19*
X126900000Y-120000000D03*
X126900000Y-118000000D03*
X126900000Y-116000000D03*
X126900000Y-114000000D03*
X126900000Y-112000000D03*
X126900000Y-110000000D03*
X126900000Y-108000000D03*
X126900000Y-106000000D03*
G36*
G01*
X138600000Y-47049999D02*
X138600000Y-47950001D01*
G75*
G02*
X138350001Y-48200000I-249999J0D01*
G01*
X137649999Y-48200000D01*
G75*
G02*
X137400000Y-47950001I0J249999D01*
G01*
X137400000Y-47049999D01*
G75*
G02*
X137649999Y-46800000I249999J0D01*
G01*
X138350001Y-46800000D01*
G75*
G02*
X138600000Y-47049999I0J-249999D01*
G01*
G37*
G36*
G01*
X140600000Y-47049999D02*
X140600000Y-47950001D01*
G75*
G02*
X140350001Y-48200000I-249999J0D01*
G01*
X139649999Y-48200000D01*
G75*
G02*
X139400000Y-47950001I0J249999D01*
G01*
X139400000Y-47049999D01*
G75*
G02*
X139649999Y-46800000I249999J0D01*
G01*
X140350001Y-46800000D01*
G75*
G02*
X140600000Y-47049999I0J-249999D01*
G01*
G37*
G36*
G01*
X92725000Y-68349999D02*
X92725000Y-69650001D01*
G75*
G02*
X92475001Y-69900000I-249999J0D01*
G01*
X91649999Y-69900000D01*
G75*
G02*
X91400000Y-69650001I0J249999D01*
G01*
X91400000Y-68349999D01*
G75*
G02*
X91649999Y-68100000I249999J0D01*
G01*
X92475001Y-68100000D01*
G75*
G02*
X92725000Y-68349999I0J-249999D01*
G01*
G37*
G36*
G01*
X89600000Y-68349999D02*
X89600000Y-69650001D01*
G75*
G02*
X89350001Y-69900000I-249999J0D01*
G01*
X88524999Y-69900000D01*
G75*
G02*
X88275000Y-69650001I0J249999D01*
G01*
X88275000Y-68349999D01*
G75*
G02*
X88524999Y-68100000I249999J0D01*
G01*
X89350001Y-68100000D01*
G75*
G02*
X89600000Y-68349999I0J-249999D01*
G01*
G37*
G36*
G01*
X90725000Y-71349999D02*
X90725000Y-72650001D01*
G75*
G02*
X90475001Y-72900000I-249999J0D01*
G01*
X89649999Y-72900000D01*
G75*
G02*
X89400000Y-72650001I0J249999D01*
G01*
X89400000Y-71349999D01*
G75*
G02*
X89649999Y-71100000I249999J0D01*
G01*
X90475001Y-71100000D01*
G75*
G02*
X90725000Y-71349999I0J-249999D01*
G01*
G37*
G36*
G01*
X87600000Y-71349999D02*
X87600000Y-72650001D01*
G75*
G02*
X87350001Y-72900000I-249999J0D01*
G01*
X86524999Y-72900000D01*
G75*
G02*
X86275000Y-72650001I0J249999D01*
G01*
X86275000Y-71349999D01*
G75*
G02*
X86524999Y-71100000I249999J0D01*
G01*
X87350001Y-71100000D01*
G75*
G02*
X87600000Y-71349999I0J-249999D01*
G01*
G37*
G36*
G01*
X113450001Y-119100000D02*
X112549999Y-119100000D01*
G75*
G02*
X112300000Y-118850001I0J249999D01*
G01*
X112300000Y-118149999D01*
G75*
G02*
X112549999Y-117900000I249999J0D01*
G01*
X113450001Y-117900000D01*
G75*
G02*
X113700000Y-118149999I0J-249999D01*
G01*
X113700000Y-118850001D01*
G75*
G02*
X113450001Y-119100000I-249999J0D01*
G01*
G37*
G36*
G01*
X113450001Y-121100000D02*
X112549999Y-121100000D01*
G75*
G02*
X112300000Y-120850001I0J249999D01*
G01*
X112300000Y-120149999D01*
G75*
G02*
X112549999Y-119900000I249999J0D01*
G01*
X113450001Y-119900000D01*
G75*
G02*
X113700000Y-120149999I0J-249999D01*
G01*
X113700000Y-120850001D01*
G75*
G02*
X113450001Y-121100000I-249999J0D01*
G01*
G37*
G36*
G01*
X102100000Y-95549999D02*
X102100000Y-96450001D01*
G75*
G02*
X101850001Y-96700000I-249999J0D01*
G01*
X101149999Y-96700000D01*
G75*
G02*
X100900000Y-96450001I0J249999D01*
G01*
X100900000Y-95549999D01*
G75*
G02*
X101149999Y-95300000I249999J0D01*
G01*
X101850001Y-95300000D01*
G75*
G02*
X102100000Y-95549999I0J-249999D01*
G01*
G37*
G36*
G01*
X104100000Y-95549999D02*
X104100000Y-96450001D01*
G75*
G02*
X103850001Y-96700000I-249999J0D01*
G01*
X103149999Y-96700000D01*
G75*
G02*
X102900000Y-96450001I0J249999D01*
G01*
X102900000Y-95549999D01*
G75*
G02*
X103149999Y-95300000I249999J0D01*
G01*
X103850001Y-95300000D01*
G75*
G02*
X104100000Y-95549999I0J-249999D01*
G01*
G37*
G36*
G01*
X106600000Y-95549999D02*
X106600000Y-96450001D01*
G75*
G02*
X106350001Y-96700000I-249999J0D01*
G01*
X105649999Y-96700000D01*
G75*
G02*
X105400000Y-96450001I0J249999D01*
G01*
X105400000Y-95549999D01*
G75*
G02*
X105649999Y-95300000I249999J0D01*
G01*
X106350001Y-95300000D01*
G75*
G02*
X106600000Y-95549999I0J-249999D01*
G01*
G37*
G36*
G01*
X108600000Y-95549999D02*
X108600000Y-96450001D01*
G75*
G02*
X108350001Y-96700000I-249999J0D01*
G01*
X107649999Y-96700000D01*
G75*
G02*
X107400000Y-96450001I0J249999D01*
G01*
X107400000Y-95549999D01*
G75*
G02*
X107649999Y-95300000I249999J0D01*
G01*
X108350001Y-95300000D01*
G75*
G02*
X108600000Y-95549999I0J-249999D01*
G01*
G37*
D12*
X105500000Y-129000000D03*
X105500000Y-124500000D03*
X112000000Y-129000000D03*
X112000000Y-124500000D03*
D14*
X97230000Y-47500000D03*
X95960000Y-47500000D03*
D13*
X98500000Y-47500000D03*
D16*
X102575000Y-84200000D03*
X95425000Y-84200000D03*
D15*
X100300000Y-77850000D03*
X97700000Y-77850000D03*
D18*
X89500000Y-129650000D03*
D17*
X89500000Y-123350000D03*
X87200000Y-123350000D03*
X91800000Y-123350000D03*
D19*
X94900000Y-106000000D03*
X94900000Y-108000000D03*
X94900000Y-110000000D03*
X94900000Y-112000000D03*
X94900000Y-114000000D03*
X94900000Y-116000000D03*
X94900000Y-118000000D03*
X94900000Y-120000000D03*
D20*
X97500000Y-121500000D03*
X99500000Y-121500000D03*
X101500000Y-121500000D03*
X103500000Y-121500000D03*
X105500000Y-121500000D03*
X107500000Y-121500000D03*
D19*
X110100000Y-120000000D03*
X110100000Y-118000000D03*
X110100000Y-116000000D03*
X110100000Y-114000000D03*
X110100000Y-112000000D03*
X110100000Y-110000000D03*
X110100000Y-108000000D03*
X110100000Y-106000000D03*
G36*
G01*
X89600000Y-116849999D02*
X89600000Y-118150001D01*
G75*
G02*
X89350001Y-118400000I-249999J0D01*
G01*
X88524999Y-118400000D01*
G75*
G02*
X88275000Y-118150001I0J249999D01*
G01*
X88275000Y-116849999D01*
G75*
G02*
X88524999Y-116600000I249999J0D01*
G01*
X89350001Y-116600000D01*
G75*
G02*
X89600000Y-116849999I0J-249999D01*
G01*
G37*
G36*
G01*
X92725000Y-116849999D02*
X92725000Y-118150001D01*
G75*
G02*
X92475001Y-118400000I-249999J0D01*
G01*
X91649999Y-118400000D01*
G75*
G02*
X91400000Y-118150001I0J249999D01*
G01*
X91400000Y-116849999D01*
G75*
G02*
X91649999Y-116600000I249999J0D01*
G01*
X92475001Y-116600000D01*
G75*
G02*
X92725000Y-116849999I0J-249999D01*
G01*
G37*
D13*
X98500000Y-96000000D03*
D14*
X95960000Y-96000000D03*
X97230000Y-96000000D03*
D15*
X97700000Y-126350000D03*
X100300000Y-126350000D03*
D16*
X95425000Y-132700000D03*
X102575000Y-132700000D03*
G36*
G01*
X87600000Y-119849999D02*
X87600000Y-121150001D01*
G75*
G02*
X87350001Y-121400000I-249999J0D01*
G01*
X86524999Y-121400000D01*
G75*
G02*
X86275000Y-121150001I0J249999D01*
G01*
X86275000Y-119849999D01*
G75*
G02*
X86524999Y-119600000I249999J0D01*
G01*
X87350001Y-119600000D01*
G75*
G02*
X87600000Y-119849999I0J-249999D01*
G01*
G37*
G36*
G01*
X90725000Y-119849999D02*
X90725000Y-121150001D01*
G75*
G02*
X90475001Y-121400000I-249999J0D01*
G01*
X89649999Y-121400000D01*
G75*
G02*
X89400000Y-121150001I0J249999D01*
G01*
X89400000Y-119849999D01*
G75*
G02*
X89649999Y-119600000I249999J0D01*
G01*
X90475001Y-119600000D01*
G75*
G02*
X90725000Y-119849999I0J-249999D01*
G01*
G37*
G36*
G01*
X113450001Y-72600000D02*
X112549999Y-72600000D01*
G75*
G02*
X112300000Y-72350001I0J249999D01*
G01*
X112300000Y-71649999D01*
G75*
G02*
X112549999Y-71400000I249999J0D01*
G01*
X113450001Y-71400000D01*
G75*
G02*
X113700000Y-71649999I0J-249999D01*
G01*
X113700000Y-72350001D01*
G75*
G02*
X113450001Y-72600000I-249999J0D01*
G01*
G37*
G36*
G01*
X113450001Y-70600000D02*
X112549999Y-70600000D01*
G75*
G02*
X112300000Y-70350001I0J249999D01*
G01*
X112300000Y-69649999D01*
G75*
G02*
X112549999Y-69400000I249999J0D01*
G01*
X113450001Y-69400000D01*
G75*
G02*
X113700000Y-69649999I0J-249999D01*
G01*
X113700000Y-70350001D01*
G75*
G02*
X113450001Y-70600000I-249999J0D01*
G01*
G37*
G36*
G01*
X104100000Y-47049999D02*
X104100000Y-47950001D01*
G75*
G02*
X103850001Y-48200000I-249999J0D01*
G01*
X103149999Y-48200000D01*
G75*
G02*
X102900000Y-47950001I0J249999D01*
G01*
X102900000Y-47049999D01*
G75*
G02*
X103149999Y-46800000I249999J0D01*
G01*
X103850001Y-46800000D01*
G75*
G02*
X104100000Y-47049999I0J-249999D01*
G01*
G37*
G36*
G01*
X102100000Y-47049999D02*
X102100000Y-47950001D01*
G75*
G02*
X101850001Y-48200000I-249999J0D01*
G01*
X101149999Y-48200000D01*
G75*
G02*
X100900000Y-47950001I0J249999D01*
G01*
X100900000Y-47049999D01*
G75*
G02*
X101149999Y-46800000I249999J0D01*
G01*
X101850001Y-46800000D01*
G75*
G02*
X102100000Y-47049999I0J-249999D01*
G01*
G37*
G36*
G01*
X108600000Y-47049999D02*
X108600000Y-47950001D01*
G75*
G02*
X108350001Y-48200000I-249999J0D01*
G01*
X107649999Y-48200000D01*
G75*
G02*
X107400000Y-47950001I0J249999D01*
G01*
X107400000Y-47049999D01*
G75*
G02*
X107649999Y-46800000I249999J0D01*
G01*
X108350001Y-46800000D01*
G75*
G02*
X108600000Y-47049999I0J-249999D01*
G01*
G37*
G36*
G01*
X106600000Y-47049999D02*
X106600000Y-47950001D01*
G75*
G02*
X106350001Y-48200000I-249999J0D01*
G01*
X105649999Y-48200000D01*
G75*
G02*
X105400000Y-47950001I0J249999D01*
G01*
X105400000Y-47049999D01*
G75*
G02*
X105649999Y-46800000I249999J0D01*
G01*
X106350001Y-46800000D01*
G75*
G02*
X106600000Y-47049999I0J-249999D01*
G01*
G37*
D17*
X91800000Y-74850000D03*
X87200000Y-74850000D03*
X89500000Y-74850000D03*
D18*
X89500000Y-81150000D03*
D19*
X110100000Y-57500000D03*
X110100000Y-59500000D03*
X110100000Y-61500000D03*
X110100000Y-63500000D03*
X110100000Y-65500000D03*
X110100000Y-67500000D03*
X110100000Y-69500000D03*
X110100000Y-71500000D03*
D20*
X107500000Y-73000000D03*
X105500000Y-73000000D03*
X103500000Y-73000000D03*
X101500000Y-73000000D03*
X99500000Y-73000000D03*
X97500000Y-73000000D03*
D19*
X94900000Y-71500000D03*
X94900000Y-69500000D03*
X94900000Y-67500000D03*
X94900000Y-65500000D03*
X94900000Y-63500000D03*
X94900000Y-61500000D03*
X94900000Y-59500000D03*
X94900000Y-57500000D03*
D12*
X112000000Y-76000000D03*
X112000000Y-80500000D03*
X105500000Y-76000000D03*
X105500000Y-80500000D03*
G36*
G01*
X60725000Y-116849999D02*
X60725000Y-118150001D01*
G75*
G02*
X60475001Y-118400000I-249999J0D01*
G01*
X59649999Y-118400000D01*
G75*
G02*
X59400000Y-118150001I0J249999D01*
G01*
X59400000Y-116849999D01*
G75*
G02*
X59649999Y-116600000I249999J0D01*
G01*
X60475001Y-116600000D01*
G75*
G02*
X60725000Y-116849999I0J-249999D01*
G01*
G37*
G36*
G01*
X57600000Y-116849999D02*
X57600000Y-118150001D01*
G75*
G02*
X57350001Y-118400000I-249999J0D01*
G01*
X56524999Y-118400000D01*
G75*
G02*
X56275000Y-118150001I0J249999D01*
G01*
X56275000Y-116849999D01*
G75*
G02*
X56524999Y-116600000I249999J0D01*
G01*
X57350001Y-116600000D01*
G75*
G02*
X57600000Y-116849999I0J-249999D01*
G01*
G37*
G36*
G01*
X58725000Y-119849999D02*
X58725000Y-121150001D01*
G75*
G02*
X58475001Y-121400000I-249999J0D01*
G01*
X57649999Y-121400000D01*
G75*
G02*
X57400000Y-121150001I0J249999D01*
G01*
X57400000Y-119849999D01*
G75*
G02*
X57649999Y-119600000I249999J0D01*
G01*
X58475001Y-119600000D01*
G75*
G02*
X58725000Y-119849999I0J-249999D01*
G01*
G37*
G36*
G01*
X55600000Y-119849999D02*
X55600000Y-121150001D01*
G75*
G02*
X55350001Y-121400000I-249999J0D01*
G01*
X54524999Y-121400000D01*
G75*
G02*
X54275000Y-121150001I0J249999D01*
G01*
X54275000Y-119849999D01*
G75*
G02*
X54524999Y-119600000I249999J0D01*
G01*
X55350001Y-119600000D01*
G75*
G02*
X55600000Y-119849999I0J-249999D01*
G01*
G37*
D14*
X65230000Y-96000000D03*
X63960000Y-96000000D03*
D13*
X66500000Y-96000000D03*
D16*
X70575000Y-132700000D03*
X63425000Y-132700000D03*
D15*
X68300000Y-126350000D03*
X65700000Y-126350000D03*
G36*
G01*
X81450001Y-121100000D02*
X80549999Y-121100000D01*
G75*
G02*
X80300000Y-120850001I0J249999D01*
G01*
X80300000Y-120149999D01*
G75*
G02*
X80549999Y-119900000I249999J0D01*
G01*
X81450001Y-119900000D01*
G75*
G02*
X81700000Y-120149999I0J-249999D01*
G01*
X81700000Y-120850001D01*
G75*
G02*
X81450001Y-121100000I-249999J0D01*
G01*
G37*
G36*
G01*
X81450001Y-119100000D02*
X80549999Y-119100000D01*
G75*
G02*
X80300000Y-118850001I0J249999D01*
G01*
X80300000Y-118149999D01*
G75*
G02*
X80549999Y-117900000I249999J0D01*
G01*
X81450001Y-117900000D01*
G75*
G02*
X81700000Y-118149999I0J-249999D01*
G01*
X81700000Y-118850001D01*
G75*
G02*
X81450001Y-119100000I-249999J0D01*
G01*
G37*
G36*
G01*
X72100000Y-95549999D02*
X72100000Y-96450001D01*
G75*
G02*
X71850001Y-96700000I-249999J0D01*
G01*
X71149999Y-96700000D01*
G75*
G02*
X70900000Y-96450001I0J249999D01*
G01*
X70900000Y-95549999D01*
G75*
G02*
X71149999Y-95300000I249999J0D01*
G01*
X71850001Y-95300000D01*
G75*
G02*
X72100000Y-95549999I0J-249999D01*
G01*
G37*
G36*
G01*
X70100000Y-95549999D02*
X70100000Y-96450001D01*
G75*
G02*
X69850001Y-96700000I-249999J0D01*
G01*
X69149999Y-96700000D01*
G75*
G02*
X68900000Y-96450001I0J249999D01*
G01*
X68900000Y-95549999D01*
G75*
G02*
X69149999Y-95300000I249999J0D01*
G01*
X69850001Y-95300000D01*
G75*
G02*
X70100000Y-95549999I0J-249999D01*
G01*
G37*
G36*
G01*
X76600000Y-95549999D02*
X76600000Y-96450001D01*
G75*
G02*
X76350001Y-96700000I-249999J0D01*
G01*
X75649999Y-96700000D01*
G75*
G02*
X75400000Y-96450001I0J249999D01*
G01*
X75400000Y-95549999D01*
G75*
G02*
X75649999Y-95300000I249999J0D01*
G01*
X76350001Y-95300000D01*
G75*
G02*
X76600000Y-95549999I0J-249999D01*
G01*
G37*
G36*
G01*
X74600000Y-95549999D02*
X74600000Y-96450001D01*
G75*
G02*
X74350001Y-96700000I-249999J0D01*
G01*
X73649999Y-96700000D01*
G75*
G02*
X73400000Y-96450001I0J249999D01*
G01*
X73400000Y-95549999D01*
G75*
G02*
X73649999Y-95300000I249999J0D01*
G01*
X74350001Y-95300000D01*
G75*
G02*
X74600000Y-95549999I0J-249999D01*
G01*
G37*
D17*
X59800000Y-123350000D03*
X55200000Y-123350000D03*
X57500000Y-123350000D03*
D18*
X57500000Y-129650000D03*
D19*
X78100000Y-106000000D03*
X78100000Y-108000000D03*
X78100000Y-110000000D03*
X78100000Y-112000000D03*
X78100000Y-114000000D03*
X78100000Y-116000000D03*
X78100000Y-118000000D03*
X78100000Y-120000000D03*
D20*
X75500000Y-121500000D03*
X73500000Y-121500000D03*
X71500000Y-121500000D03*
X69500000Y-121500000D03*
X67500000Y-121500000D03*
X65500000Y-121500000D03*
D19*
X62900000Y-120000000D03*
X62900000Y-118000000D03*
X62900000Y-116000000D03*
X62900000Y-114000000D03*
X62900000Y-112000000D03*
X62900000Y-110000000D03*
X62900000Y-108000000D03*
X62900000Y-106000000D03*
D12*
X80000000Y-124500000D03*
X80000000Y-129000000D03*
X73500000Y-124500000D03*
X73500000Y-129000000D03*
D13*
X66500000Y-47500000D03*
D14*
X63960000Y-47500000D03*
X65230000Y-47500000D03*
G36*
G01*
X57600000Y-68349999D02*
X57600000Y-69650001D01*
G75*
G02*
X57350001Y-69900000I-249999J0D01*
G01*
X56524999Y-69900000D01*
G75*
G02*
X56275000Y-69650001I0J249999D01*
G01*
X56275000Y-68349999D01*
G75*
G02*
X56524999Y-68100000I249999J0D01*
G01*
X57350001Y-68100000D01*
G75*
G02*
X57600000Y-68349999I0J-249999D01*
G01*
G37*
G36*
G01*
X60725000Y-68349999D02*
X60725000Y-69650001D01*
G75*
G02*
X60475001Y-69900000I-249999J0D01*
G01*
X59649999Y-69900000D01*
G75*
G02*
X59400000Y-69650001I0J249999D01*
G01*
X59400000Y-68349999D01*
G75*
G02*
X59649999Y-68100000I249999J0D01*
G01*
X60475001Y-68100000D01*
G75*
G02*
X60725000Y-68349999I0J-249999D01*
G01*
G37*
G36*
G01*
X55600000Y-71349999D02*
X55600000Y-72650001D01*
G75*
G02*
X55350001Y-72900000I-249999J0D01*
G01*
X54524999Y-72900000D01*
G75*
G02*
X54275000Y-72650001I0J249999D01*
G01*
X54275000Y-71349999D01*
G75*
G02*
X54524999Y-71100000I249999J0D01*
G01*
X55350001Y-71100000D01*
G75*
G02*
X55600000Y-71349999I0J-249999D01*
G01*
G37*
G36*
G01*
X58725000Y-71349999D02*
X58725000Y-72650001D01*
G75*
G02*
X58475001Y-72900000I-249999J0D01*
G01*
X57649999Y-72900000D01*
G75*
G02*
X57400000Y-72650001I0J249999D01*
G01*
X57400000Y-71349999D01*
G75*
G02*
X57649999Y-71100000I249999J0D01*
G01*
X58475001Y-71100000D01*
G75*
G02*
X58725000Y-71349999I0J-249999D01*
G01*
G37*
D15*
X65700000Y-77850000D03*
X68300000Y-77850000D03*
D16*
X63425000Y-84200000D03*
X70575000Y-84200000D03*
G36*
G01*
X81450001Y-70600000D02*
X80549999Y-70600000D01*
G75*
G02*
X80300000Y-70350001I0J249999D01*
G01*
X80300000Y-69649999D01*
G75*
G02*
X80549999Y-69400000I249999J0D01*
G01*
X81450001Y-69400000D01*
G75*
G02*
X81700000Y-69649999I0J-249999D01*
G01*
X81700000Y-70350001D01*
G75*
G02*
X81450001Y-70600000I-249999J0D01*
G01*
G37*
G36*
G01*
X81450001Y-72600000D02*
X80549999Y-72600000D01*
G75*
G02*
X80300000Y-72350001I0J249999D01*
G01*
X80300000Y-71649999D01*
G75*
G02*
X80549999Y-71400000I249999J0D01*
G01*
X81450001Y-71400000D01*
G75*
G02*
X81700000Y-71649999I0J-249999D01*
G01*
X81700000Y-72350001D01*
G75*
G02*
X81450001Y-72600000I-249999J0D01*
G01*
G37*
G36*
G01*
X74600000Y-47049999D02*
X74600000Y-47950001D01*
G75*
G02*
X74350001Y-48200000I-249999J0D01*
G01*
X73649999Y-48200000D01*
G75*
G02*
X73400000Y-47950001I0J249999D01*
G01*
X73400000Y-47049999D01*
G75*
G02*
X73649999Y-46800000I249999J0D01*
G01*
X74350001Y-46800000D01*
G75*
G02*
X74600000Y-47049999I0J-249999D01*
G01*
G37*
G36*
G01*
X76600000Y-47049999D02*
X76600000Y-47950001D01*
G75*
G02*
X76350001Y-48200000I-249999J0D01*
G01*
X75649999Y-48200000D01*
G75*
G02*
X75400000Y-47950001I0J249999D01*
G01*
X75400000Y-47049999D01*
G75*
G02*
X75649999Y-46800000I249999J0D01*
G01*
X76350001Y-46800000D01*
G75*
G02*
X76600000Y-47049999I0J-249999D01*
G01*
G37*
G36*
G01*
X70100000Y-47049999D02*
X70100000Y-47950001D01*
G75*
G02*
X69850001Y-48200000I-249999J0D01*
G01*
X69149999Y-48200000D01*
G75*
G02*
X68900000Y-47950001I0J249999D01*
G01*
X68900000Y-47049999D01*
G75*
G02*
X69149999Y-46800000I249999J0D01*
G01*
X69850001Y-46800000D01*
G75*
G02*
X70100000Y-47049999I0J-249999D01*
G01*
G37*
G36*
G01*
X72100000Y-47049999D02*
X72100000Y-47950001D01*
G75*
G02*
X71850001Y-48200000I-249999J0D01*
G01*
X71149999Y-48200000D01*
G75*
G02*
X70900000Y-47950001I0J249999D01*
G01*
X70900000Y-47049999D01*
G75*
G02*
X71149999Y-46800000I249999J0D01*
G01*
X71850001Y-46800000D01*
G75*
G02*
X72100000Y-47049999I0J-249999D01*
G01*
G37*
D19*
X62900000Y-57500000D03*
X62900000Y-59500000D03*
X62900000Y-61500000D03*
X62900000Y-63500000D03*
X62900000Y-65500000D03*
X62900000Y-67500000D03*
X62900000Y-69500000D03*
X62900000Y-71500000D03*
D20*
X65500000Y-73000000D03*
X67500000Y-73000000D03*
X69500000Y-73000000D03*
X71500000Y-73000000D03*
X73500000Y-73000000D03*
X75500000Y-73000000D03*
D19*
X78100000Y-71500000D03*
X78100000Y-69500000D03*
X78100000Y-67500000D03*
X78100000Y-65500000D03*
X78100000Y-63500000D03*
X78100000Y-61500000D03*
X78100000Y-59500000D03*
X78100000Y-57500000D03*
D12*
X73500000Y-80500000D03*
X73500000Y-76000000D03*
X80000000Y-80500000D03*
X80000000Y-76000000D03*
D18*
X57500000Y-81150000D03*
D17*
X57500000Y-74850000D03*
X55200000Y-74850000D03*
X59800000Y-74850000D03*
M02*
