M48
; DRILL file {KiCad (5.1.9)-1} date 03/18/21 16:40:54
; FORMAT={3:3/ absolute / metric / suppress leading zeros}
; #@! TF.CreationDate,2021-03-18T16:40:54+01:00
; #@! TF.GenerationSoftware,Kicad,Pcbnew,(5.1.9)-1
FMAT,2
METRIC,TZ
T1C0.750
T2C0.762
T3C0.800
T4C1.100
T5C3.500
%
G90
G05
T1
X130500Y-59000
X130500Y-80000
X130500Y-101000
X130500Y-122000
X132500Y-59000
X132500Y-80000
X132500Y-101000
X132500Y-122000
X146000Y-60000
X146000Y-62000
T2
X116000Y-54000
X116000Y-72000
X116000Y-75000
X116000Y-93000
X116000Y-96000
X116000Y-114000
X116000Y-117000
X116000Y-135000
X136000Y-54000
X136000Y-72000
X136000Y-75000
X136000Y-93000
X136000Y-96000
X136000Y-114000
X136000Y-117000
X136000Y-135000
X141000Y-56500
X141000Y-76500
X159000Y-56500
X159000Y-76500
T3
X100500Y-57000
X100500Y-78000
X100500Y-99000
X100500Y-120000
X103000Y-57000
X103000Y-78000
X103000Y-99000
X103000Y-120000
X106500Y-57500
X106500Y-78500
X106500Y-99500
X106500Y-120500
X116660Y-57500
X116660Y-78500
X116660Y-99500
X116660Y-120500
X144000Y-89500
X144000Y-92000
X144500Y-75840
X144500Y-86000
T4
X97500Y-66000
X97500Y-70500
X97500Y-87000
X97500Y-91500
X97500Y-108000
X97500Y-112500
X97500Y-129000
X97500Y-133500
X104000Y-66000
X104000Y-70500
X104000Y-87000
X104000Y-91500
X104000Y-108000
X104000Y-112500
X104000Y-129000
X104000Y-133500
X107500Y-62000
X107500Y-64540
X107500Y-67080
X107500Y-83000
X107500Y-85540
X107500Y-88080
X107500Y-104000
X107500Y-106540
X107500Y-109080
X107500Y-125000
X107500Y-127540
X107500Y-130080
X149000Y-85000
X151540Y-85000
X153000Y-88500
X153000Y-95000
X154080Y-85000
X157500Y-88500
X157500Y-95000
T5
X124160Y-64540
X124160Y-85540
X124160Y-106540
X124160Y-127540
X151540Y-68340
T0
M30
