%TF.GenerationSoftware,KiCad,Pcbnew,(5.1.9)-1*%
%TF.CreationDate,2021-03-18T16:40:49+01:00*%
%TF.ProjectId,DOORSENSOR,444f4f52-5345-44e5-934f-522e6b696361,rev?*%
%TF.SameCoordinates,Original*%
%TF.FileFunction,Profile,NP*%
%FSLAX46Y46*%
G04 Gerber Fmt 4.6, Leading zero omitted, Abs format (unit mm)*
G04 Created by KiCad (PCBNEW (5.1.9)-1) date 2021-03-18 16:40:49*
%MOMM*%
%LPD*%
G01*
G04 APERTURE LIST*
%TA.AperFunction,Profile*%
%ADD10C,0.050000*%
%TD*%
G04 APERTURE END LIST*
D10*
X158000000Y-124000000D02*
X158000000Y-123000000D01*
X142000000Y-124000000D02*
X158000000Y-124000000D01*
X142000000Y-123000000D02*
X142000000Y-124000000D01*
X158000000Y-123000000D02*
X142000000Y-123000000D01*
X71000000Y-116000000D02*
X71000000Y-115000000D01*
X71000000Y-94000000D02*
X137000000Y-94000000D01*
X137000000Y-116000000D02*
X71000000Y-116000000D01*
X137000000Y-115000000D02*
X137000000Y-116000000D01*
X71000000Y-115000000D02*
X137000000Y-115000000D01*
X71000000Y-95000000D02*
X71000000Y-94000000D01*
X137000000Y-95000000D02*
X71000000Y-95000000D01*
X137000000Y-94000000D02*
X137000000Y-95000000D01*
X137000000Y-74000000D02*
X71000000Y-74000000D01*
X137000000Y-73000000D02*
X137000000Y-74000000D01*
X71000000Y-73000000D02*
X137000000Y-73000000D01*
X139000000Y-134000000D02*
X139000000Y-55000000D01*
X140000000Y-134000000D02*
X139000000Y-134000000D01*
X140000000Y-55000000D02*
X140000000Y-134000000D01*
X139000000Y-55000000D02*
X140000000Y-55000000D01*
X71000000Y-73000000D02*
X71000000Y-74000000D01*
X160000000Y-136000000D02*
X69000000Y-136000000D01*
X160000000Y-53000000D02*
X160000000Y-136000000D01*
X69000000Y-53000000D02*
X69000000Y-136000000D01*
X69000000Y-53000000D02*
X160000000Y-53000000D01*
M02*
