%TF.GenerationSoftware,KiCad,Pcbnew,(5.1.9)-1*%
%TF.CreationDate,2021-03-18T16:40:49+01:00*%
%TF.ProjectId,DOORSENSOR,444f4f52-5345-44e5-934f-522e6b696361,rev?*%
%TF.SameCoordinates,Original*%
%TF.FileFunction,Soldermask,Bot*%
%TF.FilePolarity,Negative*%
%FSLAX46Y46*%
G04 Gerber Fmt 4.6, Leading zero omitted, Abs format (unit mm)*
G04 Created by KiCad (PCBNEW (5.1.9)-1) date 2021-03-18 16:40:49*
%MOMM*%
%LPD*%
G01*
G04 APERTURE LIST*
%ADD10C,2.000000*%
%ADD11C,1.524000*%
%ADD12O,1.905000X2.000000*%
%ADD13R,1.905000X2.000000*%
%ADD14O,3.500000X3.500000*%
%ADD15C,1.600000*%
%ADD16R,1.600000X1.600000*%
%ADD17O,1.600000X1.600000*%
%ADD18O,1.750000X1.200000*%
%ADD19O,1.200000X1.750000*%
%ADD20O,2.000000X1.905000*%
%ADD21R,2.000000X1.905000*%
G04 APERTURE END LIST*
D10*
%TO.C,SW2*%
X157500000Y-95000000D03*
X153000000Y-95000000D03*
X157500000Y-88500000D03*
X153000000Y-88500000D03*
%TD*%
D11*
%TO.C,SW1*%
X141000000Y-76500000D03*
X141000000Y-56500000D03*
%TD*%
D12*
%TO.C,Q1*%
X154080000Y-85000000D03*
X151540000Y-85000000D03*
D13*
X149000000Y-85000000D03*
D14*
X151540000Y-68340000D03*
%TD*%
D15*
%TO.C,C1*%
X144000000Y-92000000D03*
D16*
X144000000Y-89500000D03*
%TD*%
D11*
%TO.C,SW3*%
X159000000Y-56500000D03*
X159000000Y-76500000D03*
%TD*%
D17*
%TO.C,R1*%
X144500000Y-75840000D03*
D15*
X144500000Y-86000000D03*
%TD*%
D18*
%TO.C,J4*%
X146000000Y-60000000D03*
G36*
G01*
X146625001Y-62600000D02*
X145374999Y-62600000D01*
G75*
G02*
X145125000Y-62350001I0J249999D01*
G01*
X145125000Y-61649999D01*
G75*
G02*
X145374999Y-61400000I249999J0D01*
G01*
X146625001Y-61400000D01*
G75*
G02*
X146875000Y-61649999I0J-249999D01*
G01*
X146875000Y-62350001D01*
G75*
G02*
X146625001Y-62600000I-249999J0D01*
G01*
G37*
%TD*%
D11*
%TO.C,SW1*%
X116000000Y-117000000D03*
X136000000Y-117000000D03*
%TD*%
D15*
%TO.C,C1*%
X100500000Y-120000000D03*
D16*
X103000000Y-120000000D03*
%TD*%
D19*
%TO.C,J4*%
X132500000Y-122000000D03*
G36*
G01*
X129900000Y-122625001D02*
X129900000Y-121374999D01*
G75*
G02*
X130149999Y-121125000I249999J0D01*
G01*
X130850001Y-121125000D01*
G75*
G02*
X131100000Y-121374999I0J-249999D01*
G01*
X131100000Y-122625001D01*
G75*
G02*
X130850001Y-122875000I-249999J0D01*
G01*
X130149999Y-122875000D01*
G75*
G02*
X129900000Y-122625001I0J249999D01*
G01*
G37*
%TD*%
D10*
%TO.C,SW2*%
X97500000Y-133500000D03*
X97500000Y-129000000D03*
X104000000Y-133500000D03*
X104000000Y-129000000D03*
%TD*%
D11*
%TO.C,SW3*%
X136000000Y-135000000D03*
X116000000Y-135000000D03*
%TD*%
D20*
%TO.C,Q1*%
X107500000Y-130080000D03*
X107500000Y-127540000D03*
D21*
X107500000Y-125000000D03*
D14*
X124160000Y-127540000D03*
%TD*%
D17*
%TO.C,R1*%
X116660000Y-120500000D03*
D15*
X106500000Y-120500000D03*
%TD*%
D10*
%TO.C,SW2*%
X104000000Y-108000000D03*
X104000000Y-112500000D03*
X97500000Y-108000000D03*
X97500000Y-112500000D03*
%TD*%
D14*
%TO.C,Q1*%
X124160000Y-106540000D03*
D21*
X107500000Y-104000000D03*
D20*
X107500000Y-106540000D03*
X107500000Y-109080000D03*
%TD*%
D16*
%TO.C,C1*%
X103000000Y-99000000D03*
D15*
X100500000Y-99000000D03*
%TD*%
%TO.C,R1*%
X106500000Y-99500000D03*
D17*
X116660000Y-99500000D03*
%TD*%
D11*
%TO.C,SW1*%
X136000000Y-96000000D03*
X116000000Y-96000000D03*
%TD*%
%TO.C,SW3*%
X116000000Y-114000000D03*
X136000000Y-114000000D03*
%TD*%
%TO.C,J4*%
G36*
G01*
X129900000Y-101625001D02*
X129900000Y-100374999D01*
G75*
G02*
X130149999Y-100125000I249999J0D01*
G01*
X130850001Y-100125000D01*
G75*
G02*
X131100000Y-100374999I0J-249999D01*
G01*
X131100000Y-101625001D01*
G75*
G02*
X130850001Y-101875000I-249999J0D01*
G01*
X130149999Y-101875000D01*
G75*
G02*
X129900000Y-101625001I0J249999D01*
G01*
G37*
D19*
X132500000Y-101000000D03*
%TD*%
D10*
%TO.C,SW2*%
X97500000Y-91500000D03*
X97500000Y-87000000D03*
X104000000Y-91500000D03*
X104000000Y-87000000D03*
%TD*%
D11*
%TO.C,SW1*%
X116000000Y-75000000D03*
X136000000Y-75000000D03*
%TD*%
D20*
%TO.C,Q1*%
X107500000Y-88080000D03*
X107500000Y-85540000D03*
D21*
X107500000Y-83000000D03*
D14*
X124160000Y-85540000D03*
%TD*%
D15*
%TO.C,C1*%
X100500000Y-78000000D03*
D16*
X103000000Y-78000000D03*
%TD*%
D11*
%TO.C,SW3*%
X136000000Y-93000000D03*
X116000000Y-93000000D03*
%TD*%
D17*
%TO.C,R1*%
X116660000Y-78500000D03*
D15*
X106500000Y-78500000D03*
%TD*%
D19*
%TO.C,J4*%
X132500000Y-80000000D03*
G36*
G01*
X129900000Y-80625001D02*
X129900000Y-79374999D01*
G75*
G02*
X130149999Y-79125000I249999J0D01*
G01*
X130850001Y-79125000D01*
G75*
G02*
X131100000Y-79374999I0J-249999D01*
G01*
X131100000Y-80625001D01*
G75*
G02*
X130850001Y-80875000I-249999J0D01*
G01*
X130149999Y-80875000D01*
G75*
G02*
X129900000Y-80625001I0J249999D01*
G01*
G37*
%TD*%
D16*
%TO.C,C1*%
X103000000Y-57000000D03*
D15*
X100500000Y-57000000D03*
%TD*%
%TO.C,J4*%
G36*
G01*
X129900000Y-59625001D02*
X129900000Y-58374999D01*
G75*
G02*
X130149999Y-58125000I249999J0D01*
G01*
X130850001Y-58125000D01*
G75*
G02*
X131100000Y-58374999I0J-249999D01*
G01*
X131100000Y-59625001D01*
G75*
G02*
X130850001Y-59875000I-249999J0D01*
G01*
X130149999Y-59875000D01*
G75*
G02*
X129900000Y-59625001I0J249999D01*
G01*
G37*
D19*
X132500000Y-59000000D03*
%TD*%
D14*
%TO.C,Q1*%
X124160000Y-64540000D03*
D21*
X107500000Y-62000000D03*
D20*
X107500000Y-64540000D03*
X107500000Y-67080000D03*
%TD*%
D15*
%TO.C,R1*%
X106500000Y-57500000D03*
D17*
X116660000Y-57500000D03*
%TD*%
D11*
%TO.C,SW1*%
X136000000Y-54000000D03*
X116000000Y-54000000D03*
%TD*%
D10*
%TO.C,SW2*%
X104000000Y-66000000D03*
X104000000Y-70500000D03*
X97500000Y-66000000D03*
X97500000Y-70500000D03*
%TD*%
D11*
%TO.C,SW3*%
X116000000Y-72000000D03*
X136000000Y-72000000D03*
%TD*%
M02*
