%TF.GenerationSoftware,KiCad,Pcbnew,(5.1.9)-1*%
%TF.CreationDate,2021-10-29T14:51:52+02:00*%
%TF.ProjectId,Smartmeter_IR_ReaderOnly_V12_multi,536d6172-746d-4657-9465-725f49525f52,rev?*%
%TF.SameCoordinates,Original*%
%TF.FileFunction,Copper,L2,Bot*%
%TF.FilePolarity,Positive*%
%FSLAX46Y46*%
G04 Gerber Fmt 4.6, Leading zero omitted, Abs format (unit mm)*
G04 Created by KiCad (PCBNEW (5.1.9)-1) date 2021-10-29 14:51:52*
%MOMM*%
%LPD*%
G01*
G04 APERTURE LIST*
%TA.AperFunction,ComponentPad*%
%ADD10R,1.800000X1.800000*%
%TD*%
%TA.AperFunction,ComponentPad*%
%ADD11C,1.800000*%
%TD*%
%TA.AperFunction,ViaPad*%
%ADD12C,0.800000*%
%TD*%
%TA.AperFunction,Conductor*%
%ADD13C,0.250000*%
%TD*%
G04 APERTURE END LIST*
D10*
%TO.P,Q2,1*%
%TO.N,+3V3*%
X72000000Y-130000000D03*
D11*
%TO.P,Q2,2*%
%TO.N,Net-(Q1-Pad2)*%
X74540000Y-130000000D03*
%TD*%
%TO.P,Q1,2*%
%TO.N,Net-(Q1-Pad2)*%
X93040000Y-130000000D03*
D10*
%TO.P,Q1,1*%
%TO.N,+3V3*%
X90500000Y-130000000D03*
%TD*%
D11*
%TO.P,Q1,2*%
%TO.N,Net-(Q1-Pad2)*%
X143040000Y-130000000D03*
D10*
%TO.P,Q1,1*%
%TO.N,+3V3*%
X140500000Y-130000000D03*
%TD*%
%TO.P,Q1,1*%
%TO.N,+3V3*%
X65500000Y-130000000D03*
D11*
%TO.P,Q1,2*%
%TO.N,Net-(Q1-Pad2)*%
X68040000Y-130000000D03*
%TD*%
D10*
%TO.P,Q2,1*%
%TO.N,+3V3*%
X122000000Y-130000000D03*
D11*
%TO.P,Q2,2*%
%TO.N,Net-(Q1-Pad2)*%
X124540000Y-130000000D03*
%TD*%
%TO.P,Q2,2*%
%TO.N,Net-(Q1-Pad2)*%
X149540000Y-130000000D03*
D10*
%TO.P,Q2,1*%
%TO.N,+3V3*%
X147000000Y-130000000D03*
%TD*%
D11*
%TO.P,Q2,2*%
%TO.N,Net-(Q1-Pad2)*%
X99540000Y-130000000D03*
D10*
%TO.P,Q2,1*%
%TO.N,+3V3*%
X97000000Y-130000000D03*
%TD*%
%TO.P,Q1,1*%
%TO.N,+3V3*%
X115500000Y-130000000D03*
D11*
%TO.P,Q1,2*%
%TO.N,Net-(Q1-Pad2)*%
X118040000Y-130000000D03*
%TD*%
%TO.P,Q2,2*%
%TO.N,Net-(Q1-Pad2)*%
X124540000Y-105000000D03*
D10*
%TO.P,Q2,1*%
%TO.N,+3V3*%
X122000000Y-105000000D03*
%TD*%
%TO.P,Q2,1*%
%TO.N,+3V3*%
X97000000Y-105000000D03*
D11*
%TO.P,Q2,2*%
%TO.N,Net-(Q1-Pad2)*%
X99540000Y-105000000D03*
%TD*%
%TO.P,Q1,2*%
%TO.N,Net-(Q1-Pad2)*%
X118040000Y-105000000D03*
D10*
%TO.P,Q1,1*%
%TO.N,+3V3*%
X115500000Y-105000000D03*
%TD*%
%TO.P,Q2,1*%
%TO.N,+3V3*%
X147000000Y-105000000D03*
D11*
%TO.P,Q2,2*%
%TO.N,Net-(Q1-Pad2)*%
X149540000Y-105000000D03*
%TD*%
D10*
%TO.P,Q1,1*%
%TO.N,+3V3*%
X140500000Y-105000000D03*
D11*
%TO.P,Q1,2*%
%TO.N,Net-(Q1-Pad2)*%
X143040000Y-105000000D03*
%TD*%
%TO.P,Q2,2*%
%TO.N,Net-(Q1-Pad2)*%
X74540000Y-105000000D03*
D10*
%TO.P,Q2,1*%
%TO.N,+3V3*%
X72000000Y-105000000D03*
%TD*%
%TO.P,Q1,1*%
%TO.N,+3V3*%
X90500000Y-105000000D03*
D11*
%TO.P,Q1,2*%
%TO.N,Net-(Q1-Pad2)*%
X93040000Y-105000000D03*
%TD*%
%TO.P,Q1,2*%
%TO.N,Net-(Q1-Pad2)*%
X68040000Y-105000000D03*
D10*
%TO.P,Q1,1*%
%TO.N,+3V3*%
X65500000Y-105000000D03*
%TD*%
%TO.P,Q2,1*%
%TO.N,+3V3*%
X122000000Y-80000000D03*
D11*
%TO.P,Q2,2*%
%TO.N,Net-(Q1-Pad2)*%
X124540000Y-80000000D03*
%TD*%
D10*
%TO.P,Q1,1*%
%TO.N,+3V3*%
X115500000Y-80000000D03*
D11*
%TO.P,Q1,2*%
%TO.N,Net-(Q1-Pad2)*%
X118040000Y-80000000D03*
%TD*%
%TO.P,Q2,2*%
%TO.N,Net-(Q1-Pad2)*%
X99540000Y-80000000D03*
D10*
%TO.P,Q2,1*%
%TO.N,+3V3*%
X97000000Y-80000000D03*
%TD*%
D11*
%TO.P,Q2,2*%
%TO.N,Net-(Q1-Pad2)*%
X149540000Y-80000000D03*
D10*
%TO.P,Q2,1*%
%TO.N,+3V3*%
X147000000Y-80000000D03*
%TD*%
D11*
%TO.P,Q1,2*%
%TO.N,Net-(Q1-Pad2)*%
X143040000Y-80000000D03*
D10*
%TO.P,Q1,1*%
%TO.N,+3V3*%
X140500000Y-80000000D03*
%TD*%
D11*
%TO.P,Q1,2*%
%TO.N,Net-(Q1-Pad2)*%
X93040000Y-80000000D03*
D10*
%TO.P,Q1,1*%
%TO.N,+3V3*%
X90500000Y-80000000D03*
%TD*%
%TO.P,Q2,1*%
%TO.N,+3V3*%
X72000000Y-80000000D03*
D11*
%TO.P,Q2,2*%
%TO.N,Net-(Q1-Pad2)*%
X74540000Y-80000000D03*
%TD*%
D10*
%TO.P,Q1,1*%
%TO.N,+3V3*%
X65500000Y-80000000D03*
D11*
%TO.P,Q1,2*%
%TO.N,Net-(Q1-Pad2)*%
X68040000Y-80000000D03*
%TD*%
D10*
%TO.P,Q2,1*%
%TO.N,+3V3*%
X147000000Y-55000000D03*
D11*
%TO.P,Q2,2*%
%TO.N,Net-(Q1-Pad2)*%
X149540000Y-55000000D03*
%TD*%
D10*
%TO.P,Q1,1*%
%TO.N,+3V3*%
X140500000Y-55000000D03*
D11*
%TO.P,Q1,2*%
%TO.N,Net-(Q1-Pad2)*%
X143040000Y-55000000D03*
%TD*%
%TO.P,Q2,2*%
%TO.N,Net-(Q1-Pad2)*%
X124540000Y-55000000D03*
D10*
%TO.P,Q2,1*%
%TO.N,+3V3*%
X122000000Y-55000000D03*
%TD*%
D11*
%TO.P,Q1,2*%
%TO.N,Net-(Q1-Pad2)*%
X118040000Y-55000000D03*
D10*
%TO.P,Q1,1*%
%TO.N,+3V3*%
X115500000Y-55000000D03*
%TD*%
%TO.P,Q2,1*%
%TO.N,+3V3*%
X97000000Y-55000000D03*
D11*
%TO.P,Q2,2*%
%TO.N,Net-(Q1-Pad2)*%
X99540000Y-55000000D03*
%TD*%
D10*
%TO.P,Q1,1*%
%TO.N,+3V3*%
X90500000Y-55000000D03*
D11*
%TO.P,Q1,2*%
%TO.N,Net-(Q1-Pad2)*%
X93040000Y-55000000D03*
%TD*%
%TO.P,Q2,2*%
%TO.N,Net-(Q1-Pad2)*%
X74540000Y-55000000D03*
D10*
%TO.P,Q2,1*%
%TO.N,+3V3*%
X72000000Y-55000000D03*
%TD*%
D11*
%TO.P,Q1,2*%
%TO.N,Net-(Q1-Pad2)*%
X68040000Y-55000000D03*
D10*
%TO.P,Q1,1*%
%TO.N,+3V3*%
X65500000Y-55000000D03*
%TD*%
D12*
%TO.N,Net-(H2-Pad1)*%
X72463800Y-57577900D03*
X64750000Y-57485100D03*
X97463800Y-57577900D03*
X89750000Y-57485100D03*
X122463800Y-57577900D03*
X114750000Y-57485100D03*
X139750000Y-57485100D03*
X147463800Y-57577900D03*
X72463800Y-82577900D03*
X64750000Y-82485100D03*
X139750000Y-82485100D03*
X114750000Y-82485100D03*
X122463800Y-82577900D03*
X147463800Y-82577900D03*
X97463800Y-82577900D03*
X89750000Y-82485100D03*
X72463800Y-107577900D03*
X64750000Y-107485100D03*
X97463800Y-107577900D03*
X147463800Y-107577900D03*
X122463800Y-107577900D03*
X89750000Y-107485100D03*
X139750000Y-107485100D03*
X114750000Y-107485100D03*
X89750000Y-132485100D03*
X64750000Y-132485100D03*
X147463800Y-132577900D03*
X97463800Y-132577900D03*
X114750000Y-132485100D03*
X139750000Y-132485100D03*
X122463800Y-132577900D03*
X72463800Y-132577900D03*
%TO.N,Net-(IC1-Pad4)*%
X66720100Y-57070100D03*
X71402500Y-57524400D03*
X96402500Y-57524400D03*
X91720100Y-57070100D03*
X121402500Y-57524400D03*
X116720100Y-57070100D03*
X141720100Y-57070100D03*
X146402500Y-57524400D03*
X71402500Y-82524400D03*
X66720100Y-82070100D03*
X116720100Y-82070100D03*
X141720100Y-82070100D03*
X146402500Y-82524400D03*
X121402500Y-82524400D03*
X96402500Y-82524400D03*
X91720100Y-82070100D03*
X66720100Y-107070100D03*
X71402500Y-107524400D03*
X121402500Y-107524400D03*
X116720100Y-107070100D03*
X141720100Y-107070100D03*
X146402500Y-107524400D03*
X91720100Y-107070100D03*
X96402500Y-107524400D03*
X71402500Y-132524400D03*
X96402500Y-132524400D03*
X121402500Y-132524400D03*
X66720100Y-132070100D03*
X116720100Y-132070100D03*
X141720100Y-132070100D03*
X146402500Y-132524400D03*
X91720100Y-132070100D03*
%TD*%
D13*
%TO.N,Net-(H2-Pad1)*%
X64750000Y-57485100D02*
X65514600Y-58249700D01*
X65514600Y-58249700D02*
X71792000Y-58249700D01*
X71792000Y-58249700D02*
X72463800Y-57577900D01*
X90514600Y-58249700D02*
X96792000Y-58249700D01*
X89750000Y-57485100D02*
X90514600Y-58249700D01*
X96792000Y-58249700D02*
X97463800Y-57577900D01*
X114750000Y-57485100D02*
X115514600Y-58249700D01*
X115514600Y-58249700D02*
X121792000Y-58249700D01*
X121792000Y-58249700D02*
X122463800Y-57577900D01*
X139750000Y-57485100D02*
X140514600Y-58249700D01*
X146792000Y-58249700D02*
X147463800Y-57577900D01*
X140514600Y-58249700D02*
X146792000Y-58249700D01*
X89750000Y-82485100D02*
X90514600Y-83249700D01*
X90514600Y-83249700D02*
X96792000Y-83249700D01*
X114750000Y-82485100D02*
X115514600Y-83249700D01*
X65514600Y-83249700D02*
X71792000Y-83249700D01*
X64750000Y-82485100D02*
X65514600Y-83249700D01*
X71792000Y-83249700D02*
X72463800Y-82577900D01*
X121792000Y-83249700D02*
X122463800Y-82577900D01*
X139750000Y-82485100D02*
X140514600Y-83249700D01*
X146792000Y-83249700D02*
X147463800Y-82577900D01*
X115514600Y-83249700D02*
X121792000Y-83249700D01*
X140514600Y-83249700D02*
X146792000Y-83249700D01*
X96792000Y-83249700D02*
X97463800Y-82577900D01*
X89750000Y-107485100D02*
X90514600Y-108249700D01*
X64750000Y-107485100D02*
X65514600Y-108249700D01*
X65514600Y-108249700D02*
X71792000Y-108249700D01*
X71792000Y-108249700D02*
X72463800Y-107577900D01*
X114750000Y-107485100D02*
X115514600Y-108249700D01*
X90514600Y-108249700D02*
X96792000Y-108249700D01*
X121792000Y-108249700D02*
X122463800Y-107577900D01*
X139750000Y-107485100D02*
X140514600Y-108249700D01*
X146792000Y-108249700D02*
X147463800Y-107577900D01*
X140514600Y-108249700D02*
X146792000Y-108249700D01*
X115514600Y-108249700D02*
X121792000Y-108249700D01*
X96792000Y-108249700D02*
X97463800Y-107577900D01*
X121792000Y-133249700D02*
X122463800Y-132577900D01*
X71792000Y-133249700D02*
X72463800Y-132577900D01*
X96792000Y-133249700D02*
X97463800Y-132577900D01*
X146792000Y-133249700D02*
X147463800Y-132577900D01*
X140514600Y-133249700D02*
X146792000Y-133249700D01*
X115514600Y-133249700D02*
X121792000Y-133249700D01*
X90514600Y-133249700D02*
X96792000Y-133249700D01*
X114750000Y-132485100D02*
X115514600Y-133249700D01*
X89750000Y-132485100D02*
X90514600Y-133249700D01*
X64750000Y-132485100D02*
X65514600Y-133249700D01*
X65514600Y-133249700D02*
X71792000Y-133249700D01*
X139750000Y-132485100D02*
X140514600Y-133249700D01*
%TO.N,Net-(Q1-Pad2)*%
X68040000Y-55000000D02*
X69270700Y-56230700D01*
X69270700Y-56230700D02*
X73309300Y-56230700D01*
X73309300Y-56230700D02*
X74540000Y-55000000D01*
X94270700Y-56230700D02*
X98309300Y-56230700D01*
X93040000Y-55000000D02*
X94270700Y-56230700D01*
X98309300Y-56230700D02*
X99540000Y-55000000D01*
X119270700Y-56230700D02*
X123309300Y-56230700D01*
X118040000Y-55000000D02*
X119270700Y-56230700D01*
X123309300Y-56230700D02*
X124540000Y-55000000D01*
X148309300Y-56230700D02*
X149540000Y-55000000D01*
X143040000Y-55000000D02*
X144270700Y-56230700D01*
X144270700Y-56230700D02*
X148309300Y-56230700D01*
X148309300Y-81230700D02*
X149540000Y-80000000D01*
X94270700Y-81230700D02*
X98309300Y-81230700D01*
X123309300Y-81230700D02*
X124540000Y-80000000D01*
X118040000Y-80000000D02*
X119270700Y-81230700D01*
X119270700Y-81230700D02*
X123309300Y-81230700D01*
X69270700Y-81230700D02*
X73309300Y-81230700D01*
X68040000Y-80000000D02*
X69270700Y-81230700D01*
X73309300Y-81230700D02*
X74540000Y-80000000D01*
X93040000Y-80000000D02*
X94270700Y-81230700D01*
X98309300Y-81230700D02*
X99540000Y-80000000D01*
X143040000Y-80000000D02*
X144270700Y-81230700D01*
X144270700Y-81230700D02*
X148309300Y-81230700D01*
X148309300Y-106230700D02*
X149540000Y-105000000D01*
X94270700Y-106230700D02*
X98309300Y-106230700D01*
X68040000Y-105000000D02*
X69270700Y-106230700D01*
X69270700Y-106230700D02*
X73309300Y-106230700D01*
X73309300Y-106230700D02*
X74540000Y-105000000D01*
X123309300Y-106230700D02*
X124540000Y-105000000D01*
X118040000Y-105000000D02*
X119270700Y-106230700D01*
X119270700Y-106230700D02*
X123309300Y-106230700D01*
X143040000Y-105000000D02*
X144270700Y-106230700D01*
X93040000Y-105000000D02*
X94270700Y-106230700D01*
X98309300Y-106230700D02*
X99540000Y-105000000D01*
X144270700Y-106230700D02*
X148309300Y-106230700D01*
X148309300Y-131230700D02*
X149540000Y-130000000D01*
X143040000Y-130000000D02*
X144270700Y-131230700D01*
X123309300Y-131230700D02*
X124540000Y-130000000D01*
X118040000Y-130000000D02*
X119270700Y-131230700D01*
X73309300Y-131230700D02*
X74540000Y-130000000D01*
X144270700Y-131230700D02*
X148309300Y-131230700D01*
X119270700Y-131230700D02*
X123309300Y-131230700D01*
X68040000Y-130000000D02*
X69270700Y-131230700D01*
X94270700Y-131230700D02*
X98309300Y-131230700D01*
X69270700Y-131230700D02*
X73309300Y-131230700D01*
X98309300Y-131230700D02*
X99540000Y-130000000D01*
X93040000Y-130000000D02*
X94270700Y-131230700D01*
%TO.N,+3V3*%
X72000000Y-55000000D02*
X70774700Y-55000000D01*
X65500000Y-55000000D02*
X66725300Y-55000000D01*
X66725300Y-55000000D02*
X66725300Y-54540500D01*
X66725300Y-54540500D02*
X67491100Y-53774700D01*
X67491100Y-53774700D02*
X69549400Y-53774700D01*
X69549400Y-53774700D02*
X70774700Y-55000000D01*
X90500000Y-55000000D02*
X91725300Y-55000000D01*
X97000000Y-55000000D02*
X95774700Y-55000000D01*
X91725300Y-55000000D02*
X91725300Y-54540500D01*
X92491100Y-53774700D02*
X94549400Y-53774700D01*
X94549400Y-53774700D02*
X95774700Y-55000000D01*
X91725300Y-54540500D02*
X92491100Y-53774700D01*
X115500000Y-55000000D02*
X116725300Y-55000000D01*
X117491100Y-53774700D02*
X119549400Y-53774700D01*
X119549400Y-53774700D02*
X120774700Y-55000000D01*
X116725300Y-55000000D02*
X116725300Y-54540500D01*
X116725300Y-54540500D02*
X117491100Y-53774700D01*
X122000000Y-55000000D02*
X120774700Y-55000000D01*
X141725300Y-54540500D02*
X142491100Y-53774700D01*
X140500000Y-55000000D02*
X141725300Y-55000000D01*
X147000000Y-55000000D02*
X145774700Y-55000000D01*
X142491100Y-53774700D02*
X144549400Y-53774700D01*
X141725300Y-55000000D02*
X141725300Y-54540500D01*
X144549400Y-53774700D02*
X145774700Y-55000000D01*
X90500000Y-80000000D02*
X91725300Y-80000000D01*
X116725300Y-79540500D02*
X117491100Y-78774700D01*
X115500000Y-80000000D02*
X116725300Y-80000000D01*
X92491100Y-78774700D02*
X94549400Y-78774700D01*
X94549400Y-78774700D02*
X95774700Y-80000000D01*
X91725300Y-80000000D02*
X91725300Y-79540500D01*
X65500000Y-80000000D02*
X66725300Y-80000000D01*
X72000000Y-80000000D02*
X70774700Y-80000000D01*
X66725300Y-80000000D02*
X66725300Y-79540500D01*
X67491100Y-78774700D02*
X69549400Y-78774700D01*
X69549400Y-78774700D02*
X70774700Y-80000000D01*
X66725300Y-79540500D02*
X67491100Y-78774700D01*
X122000000Y-80000000D02*
X120774700Y-80000000D01*
X147000000Y-80000000D02*
X145774700Y-80000000D01*
X140500000Y-80000000D02*
X141725300Y-80000000D01*
X141725300Y-79540500D02*
X142491100Y-78774700D01*
X91725300Y-79540500D02*
X92491100Y-78774700D01*
X117491100Y-78774700D02*
X119549400Y-78774700D01*
X116725300Y-80000000D02*
X116725300Y-79540500D01*
X119549400Y-78774700D02*
X120774700Y-80000000D01*
X142491100Y-78774700D02*
X144549400Y-78774700D01*
X141725300Y-80000000D02*
X141725300Y-79540500D01*
X144549400Y-78774700D02*
X145774700Y-80000000D01*
X97000000Y-80000000D02*
X95774700Y-80000000D01*
X91725300Y-105000000D02*
X91725300Y-104540500D01*
X65500000Y-105000000D02*
X66725300Y-105000000D01*
X67491100Y-103774700D02*
X69549400Y-103774700D01*
X69549400Y-103774700D02*
X70774700Y-105000000D01*
X66725300Y-104540500D02*
X67491100Y-103774700D01*
X66725300Y-105000000D02*
X66725300Y-104540500D01*
X72000000Y-105000000D02*
X70774700Y-105000000D01*
X94549400Y-103774700D02*
X95774700Y-105000000D01*
X90500000Y-105000000D02*
X91725300Y-105000000D01*
X115500000Y-105000000D02*
X116725300Y-105000000D01*
X116725300Y-104540500D02*
X117491100Y-103774700D01*
X92491100Y-103774700D02*
X94549400Y-103774700D01*
X147000000Y-105000000D02*
X145774700Y-105000000D01*
X140500000Y-105000000D02*
X141725300Y-105000000D01*
X122000000Y-105000000D02*
X120774700Y-105000000D01*
X141725300Y-104540500D02*
X142491100Y-103774700D01*
X117491100Y-103774700D02*
X119549400Y-103774700D01*
X116725300Y-105000000D02*
X116725300Y-104540500D01*
X91725300Y-104540500D02*
X92491100Y-103774700D01*
X119549400Y-103774700D02*
X120774700Y-105000000D01*
X97000000Y-105000000D02*
X95774700Y-105000000D01*
X144549400Y-103774700D02*
X145774700Y-105000000D01*
X142491100Y-103774700D02*
X144549400Y-103774700D01*
X141725300Y-105000000D02*
X141725300Y-104540500D01*
X147000000Y-130000000D02*
X145774700Y-130000000D01*
X92491100Y-128774700D02*
X94549400Y-128774700D01*
X94549400Y-128774700D02*
X95774700Y-130000000D01*
X72000000Y-130000000D02*
X70774700Y-130000000D01*
X90500000Y-130000000D02*
X91725300Y-130000000D01*
X66725300Y-130000000D02*
X66725300Y-129540500D01*
X67491100Y-128774700D02*
X69549400Y-128774700D01*
X69549400Y-128774700D02*
X70774700Y-130000000D01*
X66725300Y-129540500D02*
X67491100Y-128774700D01*
X142491100Y-128774700D02*
X144549400Y-128774700D01*
X144549400Y-128774700D02*
X145774700Y-130000000D01*
X141725300Y-130000000D02*
X141725300Y-129540500D01*
X141725300Y-129540500D02*
X142491100Y-128774700D01*
X117491100Y-128774700D02*
X119549400Y-128774700D01*
X116725300Y-130000000D02*
X116725300Y-129540500D01*
X91725300Y-129540500D02*
X92491100Y-128774700D01*
X119549400Y-128774700D02*
X120774700Y-130000000D01*
X97000000Y-130000000D02*
X95774700Y-130000000D01*
X116725300Y-129540500D02*
X117491100Y-128774700D01*
X115500000Y-130000000D02*
X116725300Y-130000000D01*
X65500000Y-130000000D02*
X66725300Y-130000000D01*
X91725300Y-130000000D02*
X91725300Y-129540500D01*
X140500000Y-130000000D02*
X141725300Y-130000000D01*
X122000000Y-130000000D02*
X120774700Y-130000000D01*
%TO.N,Net-(IC1-Pad4)*%
X66720100Y-57070100D02*
X67174400Y-57524400D01*
X67174400Y-57524400D02*
X71402500Y-57524400D01*
X91720100Y-57070100D02*
X92174400Y-57524400D01*
X92174400Y-57524400D02*
X96402500Y-57524400D01*
X116720100Y-57070100D02*
X117174400Y-57524400D01*
X117174400Y-57524400D02*
X121402500Y-57524400D01*
X142174400Y-57524400D02*
X146402500Y-57524400D01*
X141720100Y-57070100D02*
X142174400Y-57524400D01*
X117174400Y-82524400D02*
X121402500Y-82524400D01*
X91720100Y-82070100D02*
X92174400Y-82524400D01*
X66720100Y-82070100D02*
X67174400Y-82524400D01*
X67174400Y-82524400D02*
X71402500Y-82524400D01*
X142174400Y-82524400D02*
X146402500Y-82524400D01*
X92174400Y-82524400D02*
X96402500Y-82524400D01*
X116720100Y-82070100D02*
X117174400Y-82524400D01*
X141720100Y-82070100D02*
X142174400Y-82524400D01*
X67174400Y-107524400D02*
X71402500Y-107524400D01*
X66720100Y-107070100D02*
X67174400Y-107524400D01*
X91720100Y-107070100D02*
X92174400Y-107524400D01*
X117174400Y-107524400D02*
X121402500Y-107524400D01*
X142174400Y-107524400D02*
X146402500Y-107524400D01*
X141720100Y-107070100D02*
X142174400Y-107524400D01*
X92174400Y-107524400D02*
X96402500Y-107524400D01*
X116720100Y-107070100D02*
X117174400Y-107524400D01*
X91720100Y-132070100D02*
X92174400Y-132524400D01*
X67174400Y-132524400D02*
X71402500Y-132524400D01*
X66720100Y-132070100D02*
X67174400Y-132524400D01*
X141720100Y-132070100D02*
X142174400Y-132524400D01*
X92174400Y-132524400D02*
X96402500Y-132524400D01*
X116720100Y-132070100D02*
X117174400Y-132524400D01*
X117174400Y-132524400D02*
X121402500Y-132524400D01*
X142174400Y-132524400D02*
X146402500Y-132524400D01*
%TD*%
M02*
