%TF.GenerationSoftware,KiCad,Pcbnew,(5.1.9)-1*%
%TF.CreationDate,2021-10-29T14:51:52+02:00*%
%TF.ProjectId,Smartmeter_IR_ReaderOnly_V12_multi,536d6172-746d-4657-9465-725f49525f52,rev?*%
%TF.SameCoordinates,Original*%
%TF.FileFunction,Soldermask,Bot*%
%TF.FilePolarity,Negative*%
%FSLAX46Y46*%
G04 Gerber Fmt 4.6, Leading zero omitted, Abs format (unit mm)*
G04 Created by KiCad (PCBNEW (5.1.9)-1) date 2021-10-29 14:51:52*
%MOMM*%
%LPD*%
G01*
G04 APERTURE LIST*
%ADD10R,1.800000X1.800000*%
%ADD11C,1.800000*%
G04 APERTURE END LIST*
D10*
%TO.C,Q2*%
X72000000Y-130000000D03*
D11*
X74540000Y-130000000D03*
%TD*%
%TO.C,Q1*%
X93040000Y-130000000D03*
D10*
X90500000Y-130000000D03*
%TD*%
D11*
%TO.C,Q1*%
X143040000Y-130000000D03*
D10*
X140500000Y-130000000D03*
%TD*%
%TO.C,Q1*%
X65500000Y-130000000D03*
D11*
X68040000Y-130000000D03*
%TD*%
D10*
%TO.C,Q2*%
X122000000Y-130000000D03*
D11*
X124540000Y-130000000D03*
%TD*%
%TO.C,Q2*%
X149540000Y-130000000D03*
D10*
X147000000Y-130000000D03*
%TD*%
D11*
%TO.C,Q2*%
X99540000Y-130000000D03*
D10*
X97000000Y-130000000D03*
%TD*%
%TO.C,Q1*%
X115500000Y-130000000D03*
D11*
X118040000Y-130000000D03*
%TD*%
%TO.C,Q2*%
X124540000Y-105000000D03*
D10*
X122000000Y-105000000D03*
%TD*%
%TO.C,Q2*%
X97000000Y-105000000D03*
D11*
X99540000Y-105000000D03*
%TD*%
%TO.C,Q1*%
X118040000Y-105000000D03*
D10*
X115500000Y-105000000D03*
%TD*%
%TO.C,Q2*%
X147000000Y-105000000D03*
D11*
X149540000Y-105000000D03*
%TD*%
D10*
%TO.C,Q1*%
X140500000Y-105000000D03*
D11*
X143040000Y-105000000D03*
%TD*%
%TO.C,Q2*%
X74540000Y-105000000D03*
D10*
X72000000Y-105000000D03*
%TD*%
%TO.C,Q1*%
X90500000Y-105000000D03*
D11*
X93040000Y-105000000D03*
%TD*%
%TO.C,Q1*%
X68040000Y-105000000D03*
D10*
X65500000Y-105000000D03*
%TD*%
%TO.C,Q2*%
X122000000Y-80000000D03*
D11*
X124540000Y-80000000D03*
%TD*%
D10*
%TO.C,Q1*%
X115500000Y-80000000D03*
D11*
X118040000Y-80000000D03*
%TD*%
%TO.C,Q2*%
X99540000Y-80000000D03*
D10*
X97000000Y-80000000D03*
%TD*%
D11*
%TO.C,Q2*%
X149540000Y-80000000D03*
D10*
X147000000Y-80000000D03*
%TD*%
D11*
%TO.C,Q1*%
X143040000Y-80000000D03*
D10*
X140500000Y-80000000D03*
%TD*%
D11*
%TO.C,Q1*%
X93040000Y-80000000D03*
D10*
X90500000Y-80000000D03*
%TD*%
%TO.C,Q2*%
X72000000Y-80000000D03*
D11*
X74540000Y-80000000D03*
%TD*%
D10*
%TO.C,Q1*%
X65500000Y-80000000D03*
D11*
X68040000Y-80000000D03*
%TD*%
D10*
%TO.C,Q2*%
X147000000Y-55000000D03*
D11*
X149540000Y-55000000D03*
%TD*%
D10*
%TO.C,Q1*%
X140500000Y-55000000D03*
D11*
X143040000Y-55000000D03*
%TD*%
%TO.C,Q2*%
X124540000Y-55000000D03*
D10*
X122000000Y-55000000D03*
%TD*%
D11*
%TO.C,Q1*%
X118040000Y-55000000D03*
D10*
X115500000Y-55000000D03*
%TD*%
%TO.C,Q2*%
X97000000Y-55000000D03*
D11*
X99540000Y-55000000D03*
%TD*%
D10*
%TO.C,Q1*%
X90500000Y-55000000D03*
D11*
X93040000Y-55000000D03*
%TD*%
%TO.C,Q2*%
X74540000Y-55000000D03*
D10*
X72000000Y-55000000D03*
%TD*%
D11*
%TO.C,Q1*%
X68040000Y-55000000D03*
D10*
X65500000Y-55000000D03*
%TD*%
M02*
