M48
; DRILL file {KiCad (5.1.9)-1} date 10/29/21 14:51:44
; FORMAT={3:3/ absolute / metric / suppress leading zeros}
; #@! TF.CreationDate,2021-10-29T14:51:44+02:00
; #@! TF.GenerationSoftware,Kicad,Pcbnew,(5.1.9)-1
; #@! TF.FileFunction,Plated,1,2,PTH
FMAT,2
METRIC,TZ
T1C0.400
T2C0.900
%
G90
G05
T1
X64750Y-57485
X64750Y-82485
X64750Y-107485
X64750Y-132485
X66720Y-57070
X66720Y-82070
X66720Y-107070
X66720Y-132070
X71403Y-57524
X71403Y-82524
X71403Y-107524
X71403Y-132524
X72464Y-57578
X72464Y-82578
X72464Y-107578
X72464Y-132578
X89750Y-57485
X89750Y-82485
X89750Y-107485
X89750Y-132485
X91720Y-57070
X91720Y-82070
X91720Y-107070
X91720Y-132070
X96402Y-57524
X96402Y-82524
X96402Y-107524
X96402Y-132524
X97464Y-57578
X97464Y-82578
X97464Y-107578
X97464Y-132578
X114750Y-57485
X114750Y-82485
X114750Y-107485
X114750Y-132485
X116720Y-57070
X116720Y-82070
X116720Y-107070
X116720Y-132070
X121402Y-57524
X121402Y-82524
X121402Y-107524
X121402Y-132524
X122464Y-57578
X122464Y-82578
X122464Y-107578
X122464Y-132578
X139750Y-57485
X139750Y-82485
X139750Y-107485
X139750Y-132485
X141720Y-57070
X141720Y-82070
X141720Y-107070
X141720Y-132070
X146403Y-57524
X146403Y-82524
X146403Y-107524
X146403Y-132524
X147464Y-57578
X147464Y-82578
X147464Y-107578
X147464Y-132578
T2
X65500Y-55000
X65500Y-80000
X65500Y-105000
X65500Y-130000
X68040Y-55000
X68040Y-80000
X68040Y-105000
X68040Y-130000
X72000Y-55000
X72000Y-80000
X72000Y-105000
X72000Y-130000
X74540Y-55000
X74540Y-80000
X74540Y-105000
X74540Y-130000
X90500Y-55000
X90500Y-80000
X90500Y-105000
X90500Y-130000
X93040Y-55000
X93040Y-80000
X93040Y-105000
X93040Y-130000
X97000Y-55000
X97000Y-80000
X97000Y-105000
X97000Y-130000
X99540Y-55000
X99540Y-80000
X99540Y-105000
X99540Y-130000
X115500Y-55000
X115500Y-80000
X115500Y-105000
X115500Y-130000
X118040Y-55000
X118040Y-80000
X118040Y-105000
X118040Y-130000
X122000Y-55000
X122000Y-80000
X122000Y-105000
X122000Y-130000
X124540Y-55000
X124540Y-80000
X124540Y-105000
X124540Y-130000
X140500Y-55000
X140500Y-80000
X140500Y-105000
X140500Y-130000
X143040Y-55000
X143040Y-80000
X143040Y-105000
X143040Y-130000
X147000Y-55000
X147000Y-80000
X147000Y-105000
X147000Y-130000
X149540Y-55000
X149540Y-80000
X149540Y-105000
X149540Y-130000
T0
M30
