M48
; DRILL file {KiCad (5.1.9)-1} date 10/25/21 14:09:56
; FORMAT={3:3/ absolute / metric / suppress leading zeros}
; #@! TF.CreationDate,2021-10-25T14:09:56+02:00
; #@! TF.GenerationSoftware,Kicad,Pcbnew,(5.1.9)-1
; #@! TF.FileFunction,Plated,1,2,PTH
FMAT,2
METRIC,TZ
T1C0.760
T2C0.800
%
G90
G05
T1
X55250Y-78500
X55250Y-103500
X55250Y-128500
X55250Y-153500
X56520Y-81040
X56520Y-106040
X56520Y-131040
X56520Y-156040
X57790Y-78500
X57790Y-103500
X57790Y-128500
X57790Y-153500
X59060Y-81040
X59060Y-106040
X59060Y-131040
X59060Y-156040
X60330Y-78500
X60330Y-103500
X60330Y-128500
X60330Y-153500
X61600Y-81040
X61600Y-106040
X61600Y-131040
X61600Y-156040
X80250Y-78500
X80250Y-103500
X80250Y-128500
X80250Y-153500
X81520Y-81040
X81520Y-106040
X81520Y-131040
X81520Y-156040
X82790Y-78500
X82790Y-103500
X82790Y-128500
X82790Y-153500
X84060Y-81040
X84060Y-106040
X84060Y-131040
X84060Y-156040
X85330Y-78500
X85330Y-103500
X85330Y-128500
X85330Y-153500
X86600Y-81040
X86600Y-106040
X86600Y-131040
X86600Y-156040
X105250Y-78500
X105250Y-103500
X105250Y-128500
X105250Y-153500
X106520Y-81040
X106520Y-106040
X106520Y-131040
X106520Y-156040
X107790Y-78500
X107790Y-103500
X107790Y-128500
X107790Y-153500
X109060Y-81040
X109060Y-106040
X109060Y-131040
X109060Y-156040
X110330Y-78500
X110330Y-103500
X110330Y-128500
X110330Y-153500
X111600Y-81040
X111600Y-106040
X111600Y-131040
X111600Y-156040
X130250Y-78500
X130250Y-78500
X130250Y-103500
X130250Y-103500
X130250Y-128500
X130250Y-128500
X130250Y-153500
X130250Y-153500
X131520Y-81040
X131520Y-81040
X131520Y-106040
X131520Y-106040
X131520Y-131040
X131520Y-131040
X131520Y-156040
X131520Y-156040
X132790Y-78500
X132790Y-78500
X132790Y-103500
X132790Y-103500
X132790Y-128500
X132790Y-128500
X132790Y-153500
X132790Y-153500
X134060Y-81040
X134060Y-81040
X134060Y-106040
X134060Y-106040
X134060Y-131040
X134060Y-131040
X134060Y-156040
X134060Y-156040
X135330Y-78500
X135330Y-78500
X135330Y-103500
X135330Y-103500
X135330Y-128500
X135330Y-128500
X135330Y-153500
X135330Y-153500
X136600Y-81040
X136600Y-81040
X136600Y-106040
X136600Y-106040
X136600Y-131040
X136600Y-131040
X136600Y-156040
X136600Y-156040
T2
X53980Y-70000
X53980Y-95000
X53980Y-120000
X53980Y-145000
X56520Y-70000
X56520Y-95000
X56520Y-120000
X56520Y-145000
X60480Y-70000
X60480Y-95000
X60480Y-120000
X60480Y-145000
X63020Y-70000
X63020Y-95000
X63020Y-120000
X63020Y-145000
X78980Y-70000
X78980Y-95000
X78980Y-120000
X78980Y-145000
X81520Y-70000
X81520Y-95000
X81520Y-120000
X81520Y-145000
X85480Y-70000
X85480Y-95000
X85480Y-120000
X85480Y-145000
X88020Y-70000
X88020Y-95000
X88020Y-120000
X88020Y-145000
X103980Y-70000
X103980Y-95000
X103980Y-120000
X103980Y-145000
X106520Y-70000
X106520Y-95000
X106520Y-120000
X106520Y-145000
X110480Y-70000
X110480Y-95000
X110480Y-120000
X110480Y-145000
X113020Y-70000
X113020Y-95000
X113020Y-120000
X113020Y-145000
X128980Y-70000
X128980Y-70000
X128980Y-95000
X128980Y-95000
X128980Y-120000
X128980Y-120000
X128980Y-145000
X128980Y-145000
X131520Y-70000
X131520Y-70000
X131520Y-95000
X131520Y-95000
X131520Y-120000
X131520Y-120000
X131520Y-145000
X131520Y-145000
X135480Y-70000
X135480Y-70000
X135480Y-95000
X135480Y-95000
X135480Y-120000
X135480Y-120000
X135480Y-145000
X135480Y-145000
X138020Y-70000
X138020Y-70000
X138020Y-95000
X138020Y-95000
X138020Y-120000
X138020Y-120000
X138020Y-145000
X138020Y-145000
T0
M30
