%TF.GenerationSoftware,KiCad,Pcbnew,(5.1.9)-1*%
%TF.CreationDate,2021-10-25T14:10:00+02:00*%
%TF.ProjectId,Smartmeter_IR_multi,536d6172-746d-4657-9465-725f49525f6d,rev?*%
%TF.SameCoordinates,Original*%
%TF.FileFunction,Copper,L2,Bot*%
%TF.FilePolarity,Positive*%
%FSLAX46Y46*%
G04 Gerber Fmt 4.6, Leading zero omitted, Abs format (unit mm)*
G04 Created by KiCad (PCBNEW (5.1.9)-1) date 2021-10-25 14:10:00*
%MOMM*%
%LPD*%
G01*
G04 APERTURE LIST*
%TA.AperFunction,ComponentPad*%
%ADD10C,1.520000*%
%TD*%
%TA.AperFunction,ComponentPad*%
%ADD11R,1.520000X1.520000*%
%TD*%
%TA.AperFunction,ComponentPad*%
%ADD12C,1.800000*%
%TD*%
G04 APERTURE END LIST*
D10*
%TO.P,J1,6*%
%TO.N,GND*%
X61600000Y-156040000D03*
%TO.P,J1,5*%
%TO.N,Net-(IC1-Pad4)*%
X60330000Y-153500000D03*
%TO.P,J1,4*%
%TO.N,Net-(IC2-Pad2)*%
X59060000Y-156040000D03*
%TO.P,J1,3*%
%TO.N,Net-(J1-Pad3)*%
X57790000Y-153500000D03*
%TO.P,J1,2*%
%TO.N,Net-(J1-Pad2)*%
X56520000Y-156040000D03*
D11*
%TO.P,J1,1*%
%TO.N,Net-(D1-Pad2)*%
X55250000Y-153500000D03*
%TD*%
D12*
%TO.P,D2,2*%
%TO.N,Net-(D2-Pad2)*%
X138020000Y-145000000D03*
%TO.P,D2,1*%
%TO.N,Net-(D2-Pad1)*%
X135480000Y-145000000D03*
%TD*%
%TO.P,T1,1*%
%TO.N,Net-(Q1-Pad1)*%
X128980000Y-145000000D03*
%TO.P,T1,2*%
%TO.N,Net-(C1-Pad1)*%
X131520000Y-145000000D03*
%TD*%
%TO.P,D2,1*%
%TO.N,Net-(D2-Pad1)*%
X110480000Y-145000000D03*
%TO.P,D2,2*%
%TO.N,Net-(D2-Pad2)*%
X113020000Y-145000000D03*
%TD*%
%TO.P,T1,2*%
%TO.N,Net-(C1-Pad1)*%
X106520000Y-145000000D03*
%TO.P,T1,1*%
%TO.N,Net-(Q1-Pad1)*%
X103980000Y-145000000D03*
%TD*%
D10*
%TO.P,J1,6*%
%TO.N,GND*%
X111600000Y-156040000D03*
%TO.P,J1,5*%
%TO.N,Net-(IC1-Pad4)*%
X110330000Y-153500000D03*
%TO.P,J1,4*%
%TO.N,Net-(IC2-Pad2)*%
X109060000Y-156040000D03*
%TO.P,J1,3*%
%TO.N,Net-(J1-Pad3)*%
X107790000Y-153500000D03*
%TO.P,J1,2*%
%TO.N,Net-(J1-Pad2)*%
X106520000Y-156040000D03*
D11*
%TO.P,J1,1*%
%TO.N,Net-(D1-Pad2)*%
X105250000Y-153500000D03*
%TD*%
%TO.P,J1,1*%
%TO.N,Net-(D1-Pad2)*%
X130250000Y-153500000D03*
D10*
%TO.P,J1,2*%
%TO.N,Net-(J1-Pad2)*%
X131520000Y-156040000D03*
%TO.P,J1,3*%
%TO.N,Net-(J1-Pad3)*%
X132790000Y-153500000D03*
%TO.P,J1,4*%
%TO.N,Net-(IC2-Pad2)*%
X134060000Y-156040000D03*
%TO.P,J1,5*%
%TO.N,Net-(IC1-Pad4)*%
X135330000Y-153500000D03*
%TO.P,J1,6*%
%TO.N,GND*%
X136600000Y-156040000D03*
%TD*%
D12*
%TO.P,T1,2*%
%TO.N,Net-(C1-Pad1)*%
X131520000Y-145000000D03*
%TO.P,T1,1*%
%TO.N,Net-(Q1-Pad1)*%
X128980000Y-145000000D03*
%TD*%
%TO.P,T1,2*%
%TO.N,Net-(C1-Pad1)*%
X56520000Y-145000000D03*
%TO.P,T1,1*%
%TO.N,Net-(Q1-Pad1)*%
X53980000Y-145000000D03*
%TD*%
D11*
%TO.P,J1,1*%
%TO.N,Net-(D1-Pad2)*%
X80250000Y-153500000D03*
D10*
%TO.P,J1,2*%
%TO.N,Net-(J1-Pad2)*%
X81520000Y-156040000D03*
%TO.P,J1,3*%
%TO.N,Net-(J1-Pad3)*%
X82790000Y-153500000D03*
%TO.P,J1,4*%
%TO.N,Net-(IC2-Pad2)*%
X84060000Y-156040000D03*
%TO.P,J1,5*%
%TO.N,Net-(IC1-Pad4)*%
X85330000Y-153500000D03*
%TO.P,J1,6*%
%TO.N,GND*%
X86600000Y-156040000D03*
%TD*%
%TO.P,J1,6*%
%TO.N,GND*%
X136600000Y-156040000D03*
%TO.P,J1,5*%
%TO.N,Net-(IC1-Pad4)*%
X135330000Y-153500000D03*
%TO.P,J1,4*%
%TO.N,Net-(IC2-Pad2)*%
X134060000Y-156040000D03*
%TO.P,J1,3*%
%TO.N,Net-(J1-Pad3)*%
X132790000Y-153500000D03*
%TO.P,J1,2*%
%TO.N,Net-(J1-Pad2)*%
X131520000Y-156040000D03*
D11*
%TO.P,J1,1*%
%TO.N,Net-(D1-Pad2)*%
X130250000Y-153500000D03*
%TD*%
D12*
%TO.P,T1,1*%
%TO.N,Net-(Q1-Pad1)*%
X78980000Y-145000000D03*
%TO.P,T1,2*%
%TO.N,Net-(C1-Pad1)*%
X81520000Y-145000000D03*
%TD*%
%TO.P,D2,1*%
%TO.N,Net-(D2-Pad1)*%
X60480000Y-145000000D03*
%TO.P,D2,2*%
%TO.N,Net-(D2-Pad2)*%
X63020000Y-145000000D03*
%TD*%
%TO.P,D2,1*%
%TO.N,Net-(D2-Pad1)*%
X135480000Y-145000000D03*
%TO.P,D2,2*%
%TO.N,Net-(D2-Pad2)*%
X138020000Y-145000000D03*
%TD*%
%TO.P,D2,2*%
%TO.N,Net-(D2-Pad2)*%
X88020000Y-145000000D03*
%TO.P,D2,1*%
%TO.N,Net-(D2-Pad1)*%
X85480000Y-145000000D03*
%TD*%
D10*
%TO.P,J1,6*%
%TO.N,GND*%
X136600000Y-131040000D03*
%TO.P,J1,5*%
%TO.N,Net-(IC1-Pad4)*%
X135330000Y-128500000D03*
%TO.P,J1,4*%
%TO.N,Net-(IC2-Pad2)*%
X134060000Y-131040000D03*
%TO.P,J1,3*%
%TO.N,Net-(J1-Pad3)*%
X132790000Y-128500000D03*
%TO.P,J1,2*%
%TO.N,Net-(J1-Pad2)*%
X131520000Y-131040000D03*
D11*
%TO.P,J1,1*%
%TO.N,Net-(D1-Pad2)*%
X130250000Y-128500000D03*
%TD*%
D12*
%TO.P,T1,2*%
%TO.N,Net-(C1-Pad1)*%
X131520000Y-120000000D03*
%TO.P,T1,1*%
%TO.N,Net-(Q1-Pad1)*%
X128980000Y-120000000D03*
%TD*%
%TO.P,D2,1*%
%TO.N,Net-(D2-Pad1)*%
X135480000Y-120000000D03*
%TO.P,D2,2*%
%TO.N,Net-(D2-Pad2)*%
X138020000Y-120000000D03*
%TD*%
%TO.P,D2,2*%
%TO.N,Net-(D2-Pad2)*%
X113020000Y-120000000D03*
%TO.P,D2,1*%
%TO.N,Net-(D2-Pad1)*%
X110480000Y-120000000D03*
%TD*%
D11*
%TO.P,J1,1*%
%TO.N,Net-(D1-Pad2)*%
X105250000Y-128500000D03*
D10*
%TO.P,J1,2*%
%TO.N,Net-(J1-Pad2)*%
X106520000Y-131040000D03*
%TO.P,J1,3*%
%TO.N,Net-(J1-Pad3)*%
X107790000Y-128500000D03*
%TO.P,J1,4*%
%TO.N,Net-(IC2-Pad2)*%
X109060000Y-131040000D03*
%TO.P,J1,5*%
%TO.N,Net-(IC1-Pad4)*%
X110330000Y-128500000D03*
%TO.P,J1,6*%
%TO.N,GND*%
X111600000Y-131040000D03*
%TD*%
D12*
%TO.P,T1,1*%
%TO.N,Net-(Q1-Pad1)*%
X103980000Y-120000000D03*
%TO.P,T1,2*%
%TO.N,Net-(C1-Pad1)*%
X106520000Y-120000000D03*
%TD*%
D11*
%TO.P,J1,1*%
%TO.N,Net-(D1-Pad2)*%
X55250000Y-128500000D03*
D10*
%TO.P,J1,2*%
%TO.N,Net-(J1-Pad2)*%
X56520000Y-131040000D03*
%TO.P,J1,3*%
%TO.N,Net-(J1-Pad3)*%
X57790000Y-128500000D03*
%TO.P,J1,4*%
%TO.N,Net-(IC2-Pad2)*%
X59060000Y-131040000D03*
%TO.P,J1,5*%
%TO.N,Net-(IC1-Pad4)*%
X60330000Y-128500000D03*
%TO.P,J1,6*%
%TO.N,GND*%
X61600000Y-131040000D03*
%TD*%
D12*
%TO.P,D2,2*%
%TO.N,Net-(D2-Pad2)*%
X63020000Y-120000000D03*
%TO.P,D2,1*%
%TO.N,Net-(D2-Pad1)*%
X60480000Y-120000000D03*
%TD*%
%TO.P,T1,1*%
%TO.N,Net-(Q1-Pad1)*%
X128980000Y-120000000D03*
%TO.P,T1,2*%
%TO.N,Net-(C1-Pad1)*%
X131520000Y-120000000D03*
%TD*%
D10*
%TO.P,J1,6*%
%TO.N,GND*%
X86600000Y-131040000D03*
%TO.P,J1,5*%
%TO.N,Net-(IC1-Pad4)*%
X85330000Y-128500000D03*
%TO.P,J1,4*%
%TO.N,Net-(IC2-Pad2)*%
X84060000Y-131040000D03*
%TO.P,J1,3*%
%TO.N,Net-(J1-Pad3)*%
X82790000Y-128500000D03*
%TO.P,J1,2*%
%TO.N,Net-(J1-Pad2)*%
X81520000Y-131040000D03*
D11*
%TO.P,J1,1*%
%TO.N,Net-(D1-Pad2)*%
X80250000Y-128500000D03*
%TD*%
D12*
%TO.P,T1,2*%
%TO.N,Net-(C1-Pad1)*%
X81520000Y-120000000D03*
%TO.P,T1,1*%
%TO.N,Net-(Q1-Pad1)*%
X78980000Y-120000000D03*
%TD*%
%TO.P,T1,1*%
%TO.N,Net-(Q1-Pad1)*%
X53980000Y-120000000D03*
%TO.P,T1,2*%
%TO.N,Net-(C1-Pad1)*%
X56520000Y-120000000D03*
%TD*%
D11*
%TO.P,J1,1*%
%TO.N,Net-(D1-Pad2)*%
X130250000Y-128500000D03*
D10*
%TO.P,J1,2*%
%TO.N,Net-(J1-Pad2)*%
X131520000Y-131040000D03*
%TO.P,J1,3*%
%TO.N,Net-(J1-Pad3)*%
X132790000Y-128500000D03*
%TO.P,J1,4*%
%TO.N,Net-(IC2-Pad2)*%
X134060000Y-131040000D03*
%TO.P,J1,5*%
%TO.N,Net-(IC1-Pad4)*%
X135330000Y-128500000D03*
%TO.P,J1,6*%
%TO.N,GND*%
X136600000Y-131040000D03*
%TD*%
D12*
%TO.P,D2,2*%
%TO.N,Net-(D2-Pad2)*%
X138020000Y-120000000D03*
%TO.P,D2,1*%
%TO.N,Net-(D2-Pad1)*%
X135480000Y-120000000D03*
%TD*%
%TO.P,D2,1*%
%TO.N,Net-(D2-Pad1)*%
X85480000Y-120000000D03*
%TO.P,D2,2*%
%TO.N,Net-(D2-Pad2)*%
X88020000Y-120000000D03*
%TD*%
%TO.P,D2,2*%
%TO.N,Net-(D2-Pad2)*%
X138020000Y-95000000D03*
%TO.P,D2,1*%
%TO.N,Net-(D2-Pad1)*%
X135480000Y-95000000D03*
%TD*%
D11*
%TO.P,J1,1*%
%TO.N,Net-(D1-Pad2)*%
X130250000Y-103500000D03*
D10*
%TO.P,J1,2*%
%TO.N,Net-(J1-Pad2)*%
X131520000Y-106040000D03*
%TO.P,J1,3*%
%TO.N,Net-(J1-Pad3)*%
X132790000Y-103500000D03*
%TO.P,J1,4*%
%TO.N,Net-(IC2-Pad2)*%
X134060000Y-106040000D03*
%TO.P,J1,5*%
%TO.N,Net-(IC1-Pad4)*%
X135330000Y-103500000D03*
%TO.P,J1,6*%
%TO.N,GND*%
X136600000Y-106040000D03*
%TD*%
D12*
%TO.P,T1,1*%
%TO.N,Net-(Q1-Pad1)*%
X128980000Y-95000000D03*
%TO.P,T1,2*%
%TO.N,Net-(C1-Pad1)*%
X131520000Y-95000000D03*
%TD*%
D10*
%TO.P,J1,6*%
%TO.N,GND*%
X111600000Y-106040000D03*
%TO.P,J1,5*%
%TO.N,Net-(IC1-Pad4)*%
X110330000Y-103500000D03*
%TO.P,J1,4*%
%TO.N,Net-(IC2-Pad2)*%
X109060000Y-106040000D03*
%TO.P,J1,3*%
%TO.N,Net-(J1-Pad3)*%
X107790000Y-103500000D03*
%TO.P,J1,2*%
%TO.N,Net-(J1-Pad2)*%
X106520000Y-106040000D03*
D11*
%TO.P,J1,1*%
%TO.N,Net-(D1-Pad2)*%
X105250000Y-103500000D03*
%TD*%
D12*
%TO.P,T1,2*%
%TO.N,Net-(C1-Pad1)*%
X106520000Y-95000000D03*
%TO.P,T1,1*%
%TO.N,Net-(Q1-Pad1)*%
X103980000Y-95000000D03*
%TD*%
%TO.P,D2,1*%
%TO.N,Net-(D2-Pad1)*%
X110480000Y-95000000D03*
%TO.P,D2,2*%
%TO.N,Net-(D2-Pad2)*%
X113020000Y-95000000D03*
%TD*%
%TO.P,T1,2*%
%TO.N,Net-(C1-Pad1)*%
X56520000Y-95000000D03*
%TO.P,T1,1*%
%TO.N,Net-(Q1-Pad1)*%
X53980000Y-95000000D03*
%TD*%
%TO.P,D2,1*%
%TO.N,Net-(D2-Pad1)*%
X60480000Y-95000000D03*
%TO.P,D2,2*%
%TO.N,Net-(D2-Pad2)*%
X63020000Y-95000000D03*
%TD*%
D10*
%TO.P,J1,6*%
%TO.N,GND*%
X61600000Y-106040000D03*
%TO.P,J1,5*%
%TO.N,Net-(IC1-Pad4)*%
X60330000Y-103500000D03*
%TO.P,J1,4*%
%TO.N,Net-(IC2-Pad2)*%
X59060000Y-106040000D03*
%TO.P,J1,3*%
%TO.N,Net-(J1-Pad3)*%
X57790000Y-103500000D03*
%TO.P,J1,2*%
%TO.N,Net-(J1-Pad2)*%
X56520000Y-106040000D03*
D11*
%TO.P,J1,1*%
%TO.N,Net-(D1-Pad2)*%
X55250000Y-103500000D03*
%TD*%
D10*
%TO.P,J1,6*%
%TO.N,GND*%
X136600000Y-106040000D03*
%TO.P,J1,5*%
%TO.N,Net-(IC1-Pad4)*%
X135330000Y-103500000D03*
%TO.P,J1,4*%
%TO.N,Net-(IC2-Pad2)*%
X134060000Y-106040000D03*
%TO.P,J1,3*%
%TO.N,Net-(J1-Pad3)*%
X132790000Y-103500000D03*
%TO.P,J1,2*%
%TO.N,Net-(J1-Pad2)*%
X131520000Y-106040000D03*
D11*
%TO.P,J1,1*%
%TO.N,Net-(D1-Pad2)*%
X130250000Y-103500000D03*
%TD*%
D12*
%TO.P,D2,1*%
%TO.N,Net-(D2-Pad1)*%
X135480000Y-95000000D03*
%TO.P,D2,2*%
%TO.N,Net-(D2-Pad2)*%
X138020000Y-95000000D03*
%TD*%
%TO.P,T1,2*%
%TO.N,Net-(C1-Pad1)*%
X131520000Y-95000000D03*
%TO.P,T1,1*%
%TO.N,Net-(Q1-Pad1)*%
X128980000Y-95000000D03*
%TD*%
D11*
%TO.P,J1,1*%
%TO.N,Net-(D1-Pad2)*%
X80250000Y-103500000D03*
D10*
%TO.P,J1,2*%
%TO.N,Net-(J1-Pad2)*%
X81520000Y-106040000D03*
%TO.P,J1,3*%
%TO.N,Net-(J1-Pad3)*%
X82790000Y-103500000D03*
%TO.P,J1,4*%
%TO.N,Net-(IC2-Pad2)*%
X84060000Y-106040000D03*
%TO.P,J1,5*%
%TO.N,Net-(IC1-Pad4)*%
X85330000Y-103500000D03*
%TO.P,J1,6*%
%TO.N,GND*%
X86600000Y-106040000D03*
%TD*%
D12*
%TO.P,T1,1*%
%TO.N,Net-(Q1-Pad1)*%
X78980000Y-95000000D03*
%TO.P,T1,2*%
%TO.N,Net-(C1-Pad1)*%
X81520000Y-95000000D03*
%TD*%
%TO.P,D2,2*%
%TO.N,Net-(D2-Pad2)*%
X88020000Y-95000000D03*
%TO.P,D2,1*%
%TO.N,Net-(D2-Pad1)*%
X85480000Y-95000000D03*
%TD*%
%TO.P,T1,1*%
%TO.N,Net-(Q1-Pad1)*%
X128980000Y-70000000D03*
%TO.P,T1,2*%
%TO.N,Net-(C1-Pad1)*%
X131520000Y-70000000D03*
%TD*%
%TO.P,D2,2*%
%TO.N,Net-(D2-Pad2)*%
X138020000Y-70000000D03*
%TO.P,D2,1*%
%TO.N,Net-(D2-Pad1)*%
X135480000Y-70000000D03*
%TD*%
D11*
%TO.P,J1,1*%
%TO.N,Net-(D1-Pad2)*%
X130250000Y-78500000D03*
D10*
%TO.P,J1,2*%
%TO.N,Net-(J1-Pad2)*%
X131520000Y-81040000D03*
%TO.P,J1,3*%
%TO.N,Net-(J1-Pad3)*%
X132790000Y-78500000D03*
%TO.P,J1,4*%
%TO.N,Net-(IC2-Pad2)*%
X134060000Y-81040000D03*
%TO.P,J1,5*%
%TO.N,Net-(IC1-Pad4)*%
X135330000Y-78500000D03*
%TO.P,J1,6*%
%TO.N,GND*%
X136600000Y-81040000D03*
%TD*%
%TO.P,J1,6*%
%TO.N,GND*%
X136600000Y-81040000D03*
%TO.P,J1,5*%
%TO.N,Net-(IC1-Pad4)*%
X135330000Y-78500000D03*
%TO.P,J1,4*%
%TO.N,Net-(IC2-Pad2)*%
X134060000Y-81040000D03*
%TO.P,J1,3*%
%TO.N,Net-(J1-Pad3)*%
X132790000Y-78500000D03*
%TO.P,J1,2*%
%TO.N,Net-(J1-Pad2)*%
X131520000Y-81040000D03*
D11*
%TO.P,J1,1*%
%TO.N,Net-(D1-Pad2)*%
X130250000Y-78500000D03*
%TD*%
D12*
%TO.P,T1,2*%
%TO.N,Net-(C1-Pad1)*%
X131520000Y-70000000D03*
%TO.P,T1,1*%
%TO.N,Net-(Q1-Pad1)*%
X128980000Y-70000000D03*
%TD*%
%TO.P,D2,1*%
%TO.N,Net-(D2-Pad1)*%
X135480000Y-70000000D03*
%TO.P,D2,2*%
%TO.N,Net-(D2-Pad2)*%
X138020000Y-70000000D03*
%TD*%
D11*
%TO.P,J1,1*%
%TO.N,Net-(D1-Pad2)*%
X105250000Y-78500000D03*
D10*
%TO.P,J1,2*%
%TO.N,Net-(J1-Pad2)*%
X106520000Y-81040000D03*
%TO.P,J1,3*%
%TO.N,Net-(J1-Pad3)*%
X107790000Y-78500000D03*
%TO.P,J1,4*%
%TO.N,Net-(IC2-Pad2)*%
X109060000Y-81040000D03*
%TO.P,J1,5*%
%TO.N,Net-(IC1-Pad4)*%
X110330000Y-78500000D03*
%TO.P,J1,6*%
%TO.N,GND*%
X111600000Y-81040000D03*
%TD*%
D12*
%TO.P,T1,1*%
%TO.N,Net-(Q1-Pad1)*%
X103980000Y-70000000D03*
%TO.P,T1,2*%
%TO.N,Net-(C1-Pad1)*%
X106520000Y-70000000D03*
%TD*%
%TO.P,D2,2*%
%TO.N,Net-(D2-Pad2)*%
X113020000Y-70000000D03*
%TO.P,D2,1*%
%TO.N,Net-(D2-Pad1)*%
X110480000Y-70000000D03*
%TD*%
%TO.P,T1,2*%
%TO.N,Net-(C1-Pad1)*%
X81520000Y-70000000D03*
%TO.P,T1,1*%
%TO.N,Net-(Q1-Pad1)*%
X78980000Y-70000000D03*
%TD*%
%TO.P,D2,1*%
%TO.N,Net-(D2-Pad1)*%
X85480000Y-70000000D03*
%TO.P,D2,2*%
%TO.N,Net-(D2-Pad2)*%
X88020000Y-70000000D03*
%TD*%
D10*
%TO.P,J1,6*%
%TO.N,GND*%
X86600000Y-81040000D03*
%TO.P,J1,5*%
%TO.N,Net-(IC1-Pad4)*%
X85330000Y-78500000D03*
%TO.P,J1,4*%
%TO.N,Net-(IC2-Pad2)*%
X84060000Y-81040000D03*
%TO.P,J1,3*%
%TO.N,Net-(J1-Pad3)*%
X82790000Y-78500000D03*
%TO.P,J1,2*%
%TO.N,Net-(J1-Pad2)*%
X81520000Y-81040000D03*
D11*
%TO.P,J1,1*%
%TO.N,Net-(D1-Pad2)*%
X80250000Y-78500000D03*
%TD*%
%TO.P,J1,1*%
%TO.N,Net-(D1-Pad2)*%
X55250000Y-78500000D03*
D10*
%TO.P,J1,2*%
%TO.N,Net-(J1-Pad2)*%
X56520000Y-81040000D03*
%TO.P,J1,3*%
%TO.N,Net-(J1-Pad3)*%
X57790000Y-78500000D03*
%TO.P,J1,4*%
%TO.N,Net-(IC2-Pad2)*%
X59060000Y-81040000D03*
%TO.P,J1,5*%
%TO.N,Net-(IC1-Pad4)*%
X60330000Y-78500000D03*
%TO.P,J1,6*%
%TO.N,GND*%
X61600000Y-81040000D03*
%TD*%
D12*
%TO.P,D2,2*%
%TO.N,Net-(D2-Pad2)*%
X63020000Y-70000000D03*
%TO.P,D2,1*%
%TO.N,Net-(D2-Pad1)*%
X60480000Y-70000000D03*
%TD*%
%TO.P,T1,1*%
%TO.N,Net-(Q1-Pad1)*%
X53980000Y-70000000D03*
%TO.P,T1,2*%
%TO.N,Net-(C1-Pad1)*%
X56520000Y-70000000D03*
%TD*%
M02*
