%TF.GenerationSoftware,KiCad,Pcbnew,(5.1.9)-1*%
%TF.CreationDate,2021-10-25T14:10:00+02:00*%
%TF.ProjectId,Smartmeter_IR_multi,536d6172-746d-4657-9465-725f49525f6d,rev?*%
%TF.SameCoordinates,Original*%
%TF.FileFunction,Paste,Top*%
%TF.FilePolarity,Positive*%
%FSLAX46Y46*%
G04 Gerber Fmt 4.6, Leading zero omitted, Abs format (unit mm)*
G04 Created by KiCad (PCBNEW (5.1.9)-1) date 2021-10-25 14:10:00*
%MOMM*%
%LPD*%
G01*
G04 APERTURE LIST*
%ADD10R,0.900000X0.800000*%
%ADD11R,1.200000X0.900000*%
%ADD12R,1.060000X0.650000*%
G04 APERTURE END LIST*
%TO.C,R1*%
G36*
G01*
X136150000Y-138200001D02*
X136150000Y-137299999D01*
G75*
G02*
X136399999Y-137050000I249999J0D01*
G01*
X137100001Y-137050000D01*
G75*
G02*
X137350000Y-137299999I0J-249999D01*
G01*
X137350000Y-138200001D01*
G75*
G02*
X137100001Y-138450000I-249999J0D01*
G01*
X136399999Y-138450000D01*
G75*
G02*
X136150000Y-138200001I0J249999D01*
G01*
G37*
G36*
G01*
X134150000Y-138200001D02*
X134150000Y-137299999D01*
G75*
G02*
X134399999Y-137050000I249999J0D01*
G01*
X135100001Y-137050000D01*
G75*
G02*
X135350000Y-137299999I0J-249999D01*
G01*
X135350000Y-138200001D01*
G75*
G02*
X135100001Y-138450000I-249999J0D01*
G01*
X134399999Y-138450000D01*
G75*
G02*
X134150000Y-138200001I0J249999D01*
G01*
G37*
%TD*%
D10*
%TO.C,Q1*%
X103000000Y-141000000D03*
X105000000Y-140050000D03*
X105000000Y-141950000D03*
%TD*%
%TO.C,C1*%
G36*
G01*
X132725000Y-140550000D02*
X131775000Y-140550000D01*
G75*
G02*
X131525000Y-140300000I0J250000D01*
G01*
X131525000Y-139625000D01*
G75*
G02*
X131775000Y-139375000I250000J0D01*
G01*
X132725000Y-139375000D01*
G75*
G02*
X132975000Y-139625000I0J-250000D01*
G01*
X132975000Y-140300000D01*
G75*
G02*
X132725000Y-140550000I-250000J0D01*
G01*
G37*
G36*
G01*
X132725000Y-142625000D02*
X131775000Y-142625000D01*
G75*
G02*
X131525000Y-142375000I0J250000D01*
G01*
X131525000Y-141700000D01*
G75*
G02*
X131775000Y-141450000I250000J0D01*
G01*
X132725000Y-141450000D01*
G75*
G02*
X132975000Y-141700000I0J-250000D01*
G01*
X132975000Y-142375000D01*
G75*
G02*
X132725000Y-142625000I-250000J0D01*
G01*
G37*
%TD*%
%TO.C,C3*%
G36*
G01*
X134275000Y-147625000D02*
X135225000Y-147625000D01*
G75*
G02*
X135475000Y-147875000I0J-250000D01*
G01*
X135475000Y-148550000D01*
G75*
G02*
X135225000Y-148800000I-250000J0D01*
G01*
X134275000Y-148800000D01*
G75*
G02*
X134025000Y-148550000I0J250000D01*
G01*
X134025000Y-147875000D01*
G75*
G02*
X134275000Y-147625000I250000J0D01*
G01*
G37*
G36*
G01*
X134275000Y-149700000D02*
X135225000Y-149700000D01*
G75*
G02*
X135475000Y-149950000I0J-250000D01*
G01*
X135475000Y-150625000D01*
G75*
G02*
X135225000Y-150875000I-250000J0D01*
G01*
X134275000Y-150875000D01*
G75*
G02*
X134025000Y-150625000I0J250000D01*
G01*
X134025000Y-149950000D01*
G75*
G02*
X134275000Y-149700000I250000J0D01*
G01*
G37*
%TD*%
%TO.C,R1*%
G36*
G01*
X109150000Y-138200001D02*
X109150000Y-137299999D01*
G75*
G02*
X109399999Y-137050000I249999J0D01*
G01*
X110100001Y-137050000D01*
G75*
G02*
X110350000Y-137299999I0J-249999D01*
G01*
X110350000Y-138200001D01*
G75*
G02*
X110100001Y-138450000I-249999J0D01*
G01*
X109399999Y-138450000D01*
G75*
G02*
X109150000Y-138200001I0J249999D01*
G01*
G37*
G36*
G01*
X111150000Y-138200001D02*
X111150000Y-137299999D01*
G75*
G02*
X111399999Y-137050000I249999J0D01*
G01*
X112100001Y-137050000D01*
G75*
G02*
X112350000Y-137299999I0J-249999D01*
G01*
X112350000Y-138200001D01*
G75*
G02*
X112100001Y-138450000I-249999J0D01*
G01*
X111399999Y-138450000D01*
G75*
G02*
X111150000Y-138200001I0J249999D01*
G01*
G37*
%TD*%
%TO.C,R3*%
G36*
G01*
X140799999Y-143650000D02*
X141700001Y-143650000D01*
G75*
G02*
X141950000Y-143899999I0J-249999D01*
G01*
X141950000Y-144600001D01*
G75*
G02*
X141700001Y-144850000I-249999J0D01*
G01*
X140799999Y-144850000D01*
G75*
G02*
X140550000Y-144600001I0J249999D01*
G01*
X140550000Y-143899999D01*
G75*
G02*
X140799999Y-143650000I249999J0D01*
G01*
G37*
G36*
G01*
X140799999Y-145650000D02*
X141700001Y-145650000D01*
G75*
G02*
X141950000Y-145899999I0J-249999D01*
G01*
X141950000Y-146600001D01*
G75*
G02*
X141700001Y-146850000I-249999J0D01*
G01*
X140799999Y-146850000D01*
G75*
G02*
X140550000Y-146600001I0J249999D01*
G01*
X140550000Y-145899999D01*
G75*
G02*
X140799999Y-145650000I249999J0D01*
G01*
G37*
%TD*%
%TO.C,R2*%
G36*
G01*
X132850000Y-137299999D02*
X132850000Y-138200001D01*
G75*
G02*
X132600001Y-138450000I-249999J0D01*
G01*
X131899999Y-138450000D01*
G75*
G02*
X131650000Y-138200001I0J249999D01*
G01*
X131650000Y-137299999D01*
G75*
G02*
X131899999Y-137050000I249999J0D01*
G01*
X132600001Y-137050000D01*
G75*
G02*
X132850000Y-137299999I0J-249999D01*
G01*
G37*
G36*
G01*
X130850000Y-137299999D02*
X130850000Y-138200001D01*
G75*
G02*
X130600001Y-138450000I-249999J0D01*
G01*
X129899999Y-138450000D01*
G75*
G02*
X129650000Y-138200001I0J249999D01*
G01*
X129650000Y-137299999D01*
G75*
G02*
X129899999Y-137050000I249999J0D01*
G01*
X130600001Y-137050000D01*
G75*
G02*
X130850000Y-137299999I0J-249999D01*
G01*
G37*
%TD*%
%TO.C,Q1*%
X130000000Y-141950000D03*
X130000000Y-140050000D03*
X128000000Y-141000000D03*
%TD*%
D11*
%TO.C,D1*%
X131750000Y-147600000D03*
X131750000Y-150900000D03*
%TD*%
D10*
%TO.C,Q2*%
X136750000Y-140950000D03*
X134750000Y-141900000D03*
X134750000Y-140000000D03*
%TD*%
%TO.C,C2*%
G36*
G01*
X53525000Y-149700000D02*
X54475000Y-149700000D01*
G75*
G02*
X54725000Y-149950000I0J-250000D01*
G01*
X54725000Y-150625000D01*
G75*
G02*
X54475000Y-150875000I-250000J0D01*
G01*
X53525000Y-150875000D01*
G75*
G02*
X53275000Y-150625000I0J250000D01*
G01*
X53275000Y-149950000D01*
G75*
G02*
X53525000Y-149700000I250000J0D01*
G01*
G37*
G36*
G01*
X53525000Y-147625000D02*
X54475000Y-147625000D01*
G75*
G02*
X54725000Y-147875000I0J-250000D01*
G01*
X54725000Y-148550000D01*
G75*
G02*
X54475000Y-148800000I-250000J0D01*
G01*
X53525000Y-148800000D01*
G75*
G02*
X53275000Y-148550000I0J250000D01*
G01*
X53275000Y-147875000D01*
G75*
G02*
X53525000Y-147625000I250000J0D01*
G01*
G37*
%TD*%
%TO.C,Q2*%
X109750000Y-140000000D03*
X109750000Y-141900000D03*
X111750000Y-140950000D03*
%TD*%
D12*
%TO.C,IC1*%
X124400000Y-144050000D03*
X124400000Y-145000000D03*
X124400000Y-145950000D03*
X126600000Y-145950000D03*
X126600000Y-144050000D03*
%TD*%
%TO.C,IC2*%
X139350000Y-148300000D03*
X139350000Y-150200000D03*
X137150000Y-150200000D03*
X137150000Y-149250000D03*
X137150000Y-148300000D03*
%TD*%
%TO.C,R4*%
G36*
G01*
X138549999Y-141400000D02*
X139450001Y-141400000D01*
G75*
G02*
X139700000Y-141649999I0J-249999D01*
G01*
X139700000Y-142350001D01*
G75*
G02*
X139450001Y-142600000I-249999J0D01*
G01*
X138549999Y-142600000D01*
G75*
G02*
X138300000Y-142350001I0J249999D01*
G01*
X138300000Y-141649999D01*
G75*
G02*
X138549999Y-141400000I249999J0D01*
G01*
G37*
G36*
G01*
X138549999Y-139400000D02*
X139450001Y-139400000D01*
G75*
G02*
X139700000Y-139649999I0J-249999D01*
G01*
X139700000Y-140350001D01*
G75*
G02*
X139450001Y-140600000I-249999J0D01*
G01*
X138549999Y-140600000D01*
G75*
G02*
X138300000Y-140350001I0J249999D01*
G01*
X138300000Y-139649999D01*
G75*
G02*
X138549999Y-139400000I249999J0D01*
G01*
G37*
%TD*%
%TO.C,C2*%
G36*
G01*
X128525000Y-147625000D02*
X129475000Y-147625000D01*
G75*
G02*
X129725000Y-147875000I0J-250000D01*
G01*
X129725000Y-148550000D01*
G75*
G02*
X129475000Y-148800000I-250000J0D01*
G01*
X128525000Y-148800000D01*
G75*
G02*
X128275000Y-148550000I0J250000D01*
G01*
X128275000Y-147875000D01*
G75*
G02*
X128525000Y-147625000I250000J0D01*
G01*
G37*
G36*
G01*
X128525000Y-149700000D02*
X129475000Y-149700000D01*
G75*
G02*
X129725000Y-149950000I0J-250000D01*
G01*
X129725000Y-150625000D01*
G75*
G02*
X129475000Y-150875000I-250000J0D01*
G01*
X128525000Y-150875000D01*
G75*
G02*
X128275000Y-150625000I0J250000D01*
G01*
X128275000Y-149950000D01*
G75*
G02*
X128525000Y-149700000I250000J0D01*
G01*
G37*
%TD*%
%TO.C,R3*%
G36*
G01*
X115799999Y-145650000D02*
X116700001Y-145650000D01*
G75*
G02*
X116950000Y-145899999I0J-249999D01*
G01*
X116950000Y-146600001D01*
G75*
G02*
X116700001Y-146850000I-249999J0D01*
G01*
X115799999Y-146850000D01*
G75*
G02*
X115550000Y-146600001I0J249999D01*
G01*
X115550000Y-145899999D01*
G75*
G02*
X115799999Y-145650000I249999J0D01*
G01*
G37*
G36*
G01*
X115799999Y-143650000D02*
X116700001Y-143650000D01*
G75*
G02*
X116950000Y-143899999I0J-249999D01*
G01*
X116950000Y-144600001D01*
G75*
G02*
X116700001Y-144850000I-249999J0D01*
G01*
X115799999Y-144850000D01*
G75*
G02*
X115550000Y-144600001I0J249999D01*
G01*
X115550000Y-143899999D01*
G75*
G02*
X115799999Y-143650000I249999J0D01*
G01*
G37*
%TD*%
%TO.C,C2*%
G36*
G01*
X103525000Y-149700000D02*
X104475000Y-149700000D01*
G75*
G02*
X104725000Y-149950000I0J-250000D01*
G01*
X104725000Y-150625000D01*
G75*
G02*
X104475000Y-150875000I-250000J0D01*
G01*
X103525000Y-150875000D01*
G75*
G02*
X103275000Y-150625000I0J250000D01*
G01*
X103275000Y-149950000D01*
G75*
G02*
X103525000Y-149700000I250000J0D01*
G01*
G37*
G36*
G01*
X103525000Y-147625000D02*
X104475000Y-147625000D01*
G75*
G02*
X104725000Y-147875000I0J-250000D01*
G01*
X104725000Y-148550000D01*
G75*
G02*
X104475000Y-148800000I-250000J0D01*
G01*
X103525000Y-148800000D01*
G75*
G02*
X103275000Y-148550000I0J250000D01*
G01*
X103275000Y-147875000D01*
G75*
G02*
X103525000Y-147625000I250000J0D01*
G01*
G37*
%TD*%
%TO.C,C3*%
G36*
G01*
X109275000Y-149700000D02*
X110225000Y-149700000D01*
G75*
G02*
X110475000Y-149950000I0J-250000D01*
G01*
X110475000Y-150625000D01*
G75*
G02*
X110225000Y-150875000I-250000J0D01*
G01*
X109275000Y-150875000D01*
G75*
G02*
X109025000Y-150625000I0J250000D01*
G01*
X109025000Y-149950000D01*
G75*
G02*
X109275000Y-149700000I250000J0D01*
G01*
G37*
G36*
G01*
X109275000Y-147625000D02*
X110225000Y-147625000D01*
G75*
G02*
X110475000Y-147875000I0J-250000D01*
G01*
X110475000Y-148550000D01*
G75*
G02*
X110225000Y-148800000I-250000J0D01*
G01*
X109275000Y-148800000D01*
G75*
G02*
X109025000Y-148550000I0J250000D01*
G01*
X109025000Y-147875000D01*
G75*
G02*
X109275000Y-147625000I250000J0D01*
G01*
G37*
%TD*%
%TO.C,R4*%
G36*
G01*
X113549999Y-139400000D02*
X114450001Y-139400000D01*
G75*
G02*
X114700000Y-139649999I0J-249999D01*
G01*
X114700000Y-140350001D01*
G75*
G02*
X114450001Y-140600000I-249999J0D01*
G01*
X113549999Y-140600000D01*
G75*
G02*
X113300000Y-140350001I0J249999D01*
G01*
X113300000Y-139649999D01*
G75*
G02*
X113549999Y-139400000I249999J0D01*
G01*
G37*
G36*
G01*
X113549999Y-141400000D02*
X114450001Y-141400000D01*
G75*
G02*
X114700000Y-141649999I0J-249999D01*
G01*
X114700000Y-142350001D01*
G75*
G02*
X114450001Y-142600000I-249999J0D01*
G01*
X113549999Y-142600000D01*
G75*
G02*
X113300000Y-142350001I0J249999D01*
G01*
X113300000Y-141649999D01*
G75*
G02*
X113549999Y-141400000I249999J0D01*
G01*
G37*
%TD*%
%TO.C,IC1*%
X101600000Y-144050000D03*
X101600000Y-145950000D03*
X99400000Y-145950000D03*
X99400000Y-145000000D03*
X99400000Y-144050000D03*
%TD*%
%TO.C,C1*%
G36*
G01*
X107725000Y-142625000D02*
X106775000Y-142625000D01*
G75*
G02*
X106525000Y-142375000I0J250000D01*
G01*
X106525000Y-141700000D01*
G75*
G02*
X106775000Y-141450000I250000J0D01*
G01*
X107725000Y-141450000D01*
G75*
G02*
X107975000Y-141700000I0J-250000D01*
G01*
X107975000Y-142375000D01*
G75*
G02*
X107725000Y-142625000I-250000J0D01*
G01*
G37*
G36*
G01*
X107725000Y-140550000D02*
X106775000Y-140550000D01*
G75*
G02*
X106525000Y-140300000I0J250000D01*
G01*
X106525000Y-139625000D01*
G75*
G02*
X106775000Y-139375000I250000J0D01*
G01*
X107725000Y-139375000D01*
G75*
G02*
X107975000Y-139625000I0J-250000D01*
G01*
X107975000Y-140300000D01*
G75*
G02*
X107725000Y-140550000I-250000J0D01*
G01*
G37*
%TD*%
%TO.C,C1*%
G36*
G01*
X132725000Y-142625000D02*
X131775000Y-142625000D01*
G75*
G02*
X131525000Y-142375000I0J250000D01*
G01*
X131525000Y-141700000D01*
G75*
G02*
X131775000Y-141450000I250000J0D01*
G01*
X132725000Y-141450000D01*
G75*
G02*
X132975000Y-141700000I0J-250000D01*
G01*
X132975000Y-142375000D01*
G75*
G02*
X132725000Y-142625000I-250000J0D01*
G01*
G37*
G36*
G01*
X132725000Y-140550000D02*
X131775000Y-140550000D01*
G75*
G02*
X131525000Y-140300000I0J250000D01*
G01*
X131525000Y-139625000D01*
G75*
G02*
X131775000Y-139375000I250000J0D01*
G01*
X132725000Y-139375000D01*
G75*
G02*
X132975000Y-139625000I0J-250000D01*
G01*
X132975000Y-140300000D01*
G75*
G02*
X132725000Y-140550000I-250000J0D01*
G01*
G37*
%TD*%
%TO.C,IC2*%
X112150000Y-148300000D03*
X112150000Y-149250000D03*
X112150000Y-150200000D03*
X114350000Y-150200000D03*
X114350000Y-148300000D03*
%TD*%
%TO.C,R2*%
G36*
G01*
X105850000Y-137299999D02*
X105850000Y-138200001D01*
G75*
G02*
X105600001Y-138450000I-249999J0D01*
G01*
X104899999Y-138450000D01*
G75*
G02*
X104650000Y-138200001I0J249999D01*
G01*
X104650000Y-137299999D01*
G75*
G02*
X104899999Y-137050000I249999J0D01*
G01*
X105600001Y-137050000D01*
G75*
G02*
X105850000Y-137299999I0J-249999D01*
G01*
G37*
G36*
G01*
X107850000Y-137299999D02*
X107850000Y-138200001D01*
G75*
G02*
X107600001Y-138450000I-249999J0D01*
G01*
X106899999Y-138450000D01*
G75*
G02*
X106650000Y-138200001I0J249999D01*
G01*
X106650000Y-137299999D01*
G75*
G02*
X106899999Y-137050000I249999J0D01*
G01*
X107600001Y-137050000D01*
G75*
G02*
X107850000Y-137299999I0J-249999D01*
G01*
G37*
%TD*%
D11*
%TO.C,D1*%
X106750000Y-150900000D03*
X106750000Y-147600000D03*
%TD*%
%TO.C,C1*%
G36*
G01*
X57725000Y-142625000D02*
X56775000Y-142625000D01*
G75*
G02*
X56525000Y-142375000I0J250000D01*
G01*
X56525000Y-141700000D01*
G75*
G02*
X56775000Y-141450000I250000J0D01*
G01*
X57725000Y-141450000D01*
G75*
G02*
X57975000Y-141700000I0J-250000D01*
G01*
X57975000Y-142375000D01*
G75*
G02*
X57725000Y-142625000I-250000J0D01*
G01*
G37*
G36*
G01*
X57725000Y-140550000D02*
X56775000Y-140550000D01*
G75*
G02*
X56525000Y-140300000I0J250000D01*
G01*
X56525000Y-139625000D01*
G75*
G02*
X56775000Y-139375000I250000J0D01*
G01*
X57725000Y-139375000D01*
G75*
G02*
X57975000Y-139625000I0J-250000D01*
G01*
X57975000Y-140300000D01*
G75*
G02*
X57725000Y-140550000I-250000J0D01*
G01*
G37*
%TD*%
D10*
%TO.C,Q2*%
X59750000Y-140000000D03*
X59750000Y-141900000D03*
X61750000Y-140950000D03*
%TD*%
%TO.C,R2*%
G36*
G01*
X55850000Y-137299999D02*
X55850000Y-138200001D01*
G75*
G02*
X55600001Y-138450000I-249999J0D01*
G01*
X54899999Y-138450000D01*
G75*
G02*
X54650000Y-138200001I0J249999D01*
G01*
X54650000Y-137299999D01*
G75*
G02*
X54899999Y-137050000I249999J0D01*
G01*
X55600001Y-137050000D01*
G75*
G02*
X55850000Y-137299999I0J-249999D01*
G01*
G37*
G36*
G01*
X57850000Y-137299999D02*
X57850000Y-138200001D01*
G75*
G02*
X57600001Y-138450000I-249999J0D01*
G01*
X56899999Y-138450000D01*
G75*
G02*
X56650000Y-138200001I0J249999D01*
G01*
X56650000Y-137299999D01*
G75*
G02*
X56899999Y-137050000I249999J0D01*
G01*
X57600001Y-137050000D01*
G75*
G02*
X57850000Y-137299999I0J-249999D01*
G01*
G37*
%TD*%
D11*
%TO.C,D1*%
X56750000Y-150900000D03*
X56750000Y-147600000D03*
%TD*%
%TO.C,D1*%
X131750000Y-150900000D03*
X131750000Y-147600000D03*
%TD*%
D12*
%TO.C,IC1*%
X126600000Y-144050000D03*
X126600000Y-145950000D03*
X124400000Y-145950000D03*
X124400000Y-145000000D03*
X124400000Y-144050000D03*
%TD*%
%TO.C,R3*%
G36*
G01*
X140799999Y-145650000D02*
X141700001Y-145650000D01*
G75*
G02*
X141950000Y-145899999I0J-249999D01*
G01*
X141950000Y-146600001D01*
G75*
G02*
X141700001Y-146850000I-249999J0D01*
G01*
X140799999Y-146850000D01*
G75*
G02*
X140550000Y-146600001I0J249999D01*
G01*
X140550000Y-145899999D01*
G75*
G02*
X140799999Y-145650000I249999J0D01*
G01*
G37*
G36*
G01*
X140799999Y-143650000D02*
X141700001Y-143650000D01*
G75*
G02*
X141950000Y-143899999I0J-249999D01*
G01*
X141950000Y-144600001D01*
G75*
G02*
X141700001Y-144850000I-249999J0D01*
G01*
X140799999Y-144850000D01*
G75*
G02*
X140550000Y-144600001I0J249999D01*
G01*
X140550000Y-143899999D01*
G75*
G02*
X140799999Y-143650000I249999J0D01*
G01*
G37*
%TD*%
%TO.C,C3*%
G36*
G01*
X59275000Y-149700000D02*
X60225000Y-149700000D01*
G75*
G02*
X60475000Y-149950000I0J-250000D01*
G01*
X60475000Y-150625000D01*
G75*
G02*
X60225000Y-150875000I-250000J0D01*
G01*
X59275000Y-150875000D01*
G75*
G02*
X59025000Y-150625000I0J250000D01*
G01*
X59025000Y-149950000D01*
G75*
G02*
X59275000Y-149700000I250000J0D01*
G01*
G37*
G36*
G01*
X59275000Y-147625000D02*
X60225000Y-147625000D01*
G75*
G02*
X60475000Y-147875000I0J-250000D01*
G01*
X60475000Y-148550000D01*
G75*
G02*
X60225000Y-148800000I-250000J0D01*
G01*
X59275000Y-148800000D01*
G75*
G02*
X59025000Y-148550000I0J250000D01*
G01*
X59025000Y-147875000D01*
G75*
G02*
X59275000Y-147625000I250000J0D01*
G01*
G37*
%TD*%
D10*
%TO.C,Q2*%
X134750000Y-140000000D03*
X134750000Y-141900000D03*
X136750000Y-140950000D03*
%TD*%
%TO.C,R1*%
G36*
G01*
X134150000Y-138200001D02*
X134150000Y-137299999D01*
G75*
G02*
X134399999Y-137050000I249999J0D01*
G01*
X135100001Y-137050000D01*
G75*
G02*
X135350000Y-137299999I0J-249999D01*
G01*
X135350000Y-138200001D01*
G75*
G02*
X135100001Y-138450000I-249999J0D01*
G01*
X134399999Y-138450000D01*
G75*
G02*
X134150000Y-138200001I0J249999D01*
G01*
G37*
G36*
G01*
X136150000Y-138200001D02*
X136150000Y-137299999D01*
G75*
G02*
X136399999Y-137050000I249999J0D01*
G01*
X137100001Y-137050000D01*
G75*
G02*
X137350000Y-137299999I0J-249999D01*
G01*
X137350000Y-138200001D01*
G75*
G02*
X137100001Y-138450000I-249999J0D01*
G01*
X136399999Y-138450000D01*
G75*
G02*
X136150000Y-138200001I0J249999D01*
G01*
G37*
%TD*%
%TO.C,R4*%
G36*
G01*
X63549999Y-139400000D02*
X64450001Y-139400000D01*
G75*
G02*
X64700000Y-139649999I0J-249999D01*
G01*
X64700000Y-140350001D01*
G75*
G02*
X64450001Y-140600000I-249999J0D01*
G01*
X63549999Y-140600000D01*
G75*
G02*
X63300000Y-140350001I0J249999D01*
G01*
X63300000Y-139649999D01*
G75*
G02*
X63549999Y-139400000I249999J0D01*
G01*
G37*
G36*
G01*
X63549999Y-141400000D02*
X64450001Y-141400000D01*
G75*
G02*
X64700000Y-141649999I0J-249999D01*
G01*
X64700000Y-142350001D01*
G75*
G02*
X64450001Y-142600000I-249999J0D01*
G01*
X63549999Y-142600000D01*
G75*
G02*
X63300000Y-142350001I0J249999D01*
G01*
X63300000Y-141649999D01*
G75*
G02*
X63549999Y-141400000I249999J0D01*
G01*
G37*
%TD*%
%TO.C,C2*%
G36*
G01*
X128525000Y-149700000D02*
X129475000Y-149700000D01*
G75*
G02*
X129725000Y-149950000I0J-250000D01*
G01*
X129725000Y-150625000D01*
G75*
G02*
X129475000Y-150875000I-250000J0D01*
G01*
X128525000Y-150875000D01*
G75*
G02*
X128275000Y-150625000I0J250000D01*
G01*
X128275000Y-149950000D01*
G75*
G02*
X128525000Y-149700000I250000J0D01*
G01*
G37*
G36*
G01*
X128525000Y-147625000D02*
X129475000Y-147625000D01*
G75*
G02*
X129725000Y-147875000I0J-250000D01*
G01*
X129725000Y-148550000D01*
G75*
G02*
X129475000Y-148800000I-250000J0D01*
G01*
X128525000Y-148800000D01*
G75*
G02*
X128275000Y-148550000I0J250000D01*
G01*
X128275000Y-147875000D01*
G75*
G02*
X128525000Y-147625000I250000J0D01*
G01*
G37*
%TD*%
D12*
%TO.C,IC1*%
X51600000Y-144050000D03*
X51600000Y-145950000D03*
X49400000Y-145950000D03*
X49400000Y-145000000D03*
X49400000Y-144050000D03*
%TD*%
%TO.C,C3*%
G36*
G01*
X134275000Y-149700000D02*
X135225000Y-149700000D01*
G75*
G02*
X135475000Y-149950000I0J-250000D01*
G01*
X135475000Y-150625000D01*
G75*
G02*
X135225000Y-150875000I-250000J0D01*
G01*
X134275000Y-150875000D01*
G75*
G02*
X134025000Y-150625000I0J250000D01*
G01*
X134025000Y-149950000D01*
G75*
G02*
X134275000Y-149700000I250000J0D01*
G01*
G37*
G36*
G01*
X134275000Y-147625000D02*
X135225000Y-147625000D01*
G75*
G02*
X135475000Y-147875000I0J-250000D01*
G01*
X135475000Y-148550000D01*
G75*
G02*
X135225000Y-148800000I-250000J0D01*
G01*
X134275000Y-148800000D01*
G75*
G02*
X134025000Y-148550000I0J250000D01*
G01*
X134025000Y-147875000D01*
G75*
G02*
X134275000Y-147625000I250000J0D01*
G01*
G37*
%TD*%
%TO.C,R1*%
G36*
G01*
X59150000Y-138200001D02*
X59150000Y-137299999D01*
G75*
G02*
X59399999Y-137050000I249999J0D01*
G01*
X60100001Y-137050000D01*
G75*
G02*
X60350000Y-137299999I0J-249999D01*
G01*
X60350000Y-138200001D01*
G75*
G02*
X60100001Y-138450000I-249999J0D01*
G01*
X59399999Y-138450000D01*
G75*
G02*
X59150000Y-138200001I0J249999D01*
G01*
G37*
G36*
G01*
X61150000Y-138200001D02*
X61150000Y-137299999D01*
G75*
G02*
X61399999Y-137050000I249999J0D01*
G01*
X62100001Y-137050000D01*
G75*
G02*
X62350000Y-137299999I0J-249999D01*
G01*
X62350000Y-138200001D01*
G75*
G02*
X62100001Y-138450000I-249999J0D01*
G01*
X61399999Y-138450000D01*
G75*
G02*
X61150000Y-138200001I0J249999D01*
G01*
G37*
%TD*%
D10*
%TO.C,Q1*%
X128000000Y-141000000D03*
X130000000Y-140050000D03*
X130000000Y-141950000D03*
%TD*%
%TO.C,R4*%
G36*
G01*
X138549999Y-139400000D02*
X139450001Y-139400000D01*
G75*
G02*
X139700000Y-139649999I0J-249999D01*
G01*
X139700000Y-140350001D01*
G75*
G02*
X139450001Y-140600000I-249999J0D01*
G01*
X138549999Y-140600000D01*
G75*
G02*
X138300000Y-140350001I0J249999D01*
G01*
X138300000Y-139649999D01*
G75*
G02*
X138549999Y-139400000I249999J0D01*
G01*
G37*
G36*
G01*
X138549999Y-141400000D02*
X139450001Y-141400000D01*
G75*
G02*
X139700000Y-141649999I0J-249999D01*
G01*
X139700000Y-142350001D01*
G75*
G02*
X139450001Y-142600000I-249999J0D01*
G01*
X138549999Y-142600000D01*
G75*
G02*
X138300000Y-142350001I0J249999D01*
G01*
X138300000Y-141649999D01*
G75*
G02*
X138549999Y-141400000I249999J0D01*
G01*
G37*
%TD*%
%TO.C,C2*%
G36*
G01*
X78525000Y-147625000D02*
X79475000Y-147625000D01*
G75*
G02*
X79725000Y-147875000I0J-250000D01*
G01*
X79725000Y-148550000D01*
G75*
G02*
X79475000Y-148800000I-250000J0D01*
G01*
X78525000Y-148800000D01*
G75*
G02*
X78275000Y-148550000I0J250000D01*
G01*
X78275000Y-147875000D01*
G75*
G02*
X78525000Y-147625000I250000J0D01*
G01*
G37*
G36*
G01*
X78525000Y-149700000D02*
X79475000Y-149700000D01*
G75*
G02*
X79725000Y-149950000I0J-250000D01*
G01*
X79725000Y-150625000D01*
G75*
G02*
X79475000Y-150875000I-250000J0D01*
G01*
X78525000Y-150875000D01*
G75*
G02*
X78275000Y-150625000I0J250000D01*
G01*
X78275000Y-149950000D01*
G75*
G02*
X78525000Y-149700000I250000J0D01*
G01*
G37*
%TD*%
%TO.C,Q1*%
X53000000Y-141000000D03*
X55000000Y-140050000D03*
X55000000Y-141950000D03*
%TD*%
D12*
%TO.C,IC2*%
X89350000Y-148300000D03*
X89350000Y-150200000D03*
X87150000Y-150200000D03*
X87150000Y-149250000D03*
X87150000Y-148300000D03*
%TD*%
%TO.C,IC2*%
X62150000Y-148300000D03*
X62150000Y-149250000D03*
X62150000Y-150200000D03*
X64350000Y-150200000D03*
X64350000Y-148300000D03*
%TD*%
%TO.C,C3*%
G36*
G01*
X84275000Y-147625000D02*
X85225000Y-147625000D01*
G75*
G02*
X85475000Y-147875000I0J-250000D01*
G01*
X85475000Y-148550000D01*
G75*
G02*
X85225000Y-148800000I-250000J0D01*
G01*
X84275000Y-148800000D01*
G75*
G02*
X84025000Y-148550000I0J250000D01*
G01*
X84025000Y-147875000D01*
G75*
G02*
X84275000Y-147625000I250000J0D01*
G01*
G37*
G36*
G01*
X84275000Y-149700000D02*
X85225000Y-149700000D01*
G75*
G02*
X85475000Y-149950000I0J-250000D01*
G01*
X85475000Y-150625000D01*
G75*
G02*
X85225000Y-150875000I-250000J0D01*
G01*
X84275000Y-150875000D01*
G75*
G02*
X84025000Y-150625000I0J250000D01*
G01*
X84025000Y-149950000D01*
G75*
G02*
X84275000Y-149700000I250000J0D01*
G01*
G37*
%TD*%
%TO.C,R2*%
G36*
G01*
X130850000Y-137299999D02*
X130850000Y-138200001D01*
G75*
G02*
X130600001Y-138450000I-249999J0D01*
G01*
X129899999Y-138450000D01*
G75*
G02*
X129650000Y-138200001I0J249999D01*
G01*
X129650000Y-137299999D01*
G75*
G02*
X129899999Y-137050000I249999J0D01*
G01*
X130600001Y-137050000D01*
G75*
G02*
X130850000Y-137299999I0J-249999D01*
G01*
G37*
G36*
G01*
X132850000Y-137299999D02*
X132850000Y-138200001D01*
G75*
G02*
X132600001Y-138450000I-249999J0D01*
G01*
X131899999Y-138450000D01*
G75*
G02*
X131650000Y-138200001I0J249999D01*
G01*
X131650000Y-137299999D01*
G75*
G02*
X131899999Y-137050000I249999J0D01*
G01*
X132600001Y-137050000D01*
G75*
G02*
X132850000Y-137299999I0J-249999D01*
G01*
G37*
%TD*%
%TO.C,C1*%
G36*
G01*
X82725000Y-140550000D02*
X81775000Y-140550000D01*
G75*
G02*
X81525000Y-140300000I0J250000D01*
G01*
X81525000Y-139625000D01*
G75*
G02*
X81775000Y-139375000I250000J0D01*
G01*
X82725000Y-139375000D01*
G75*
G02*
X82975000Y-139625000I0J-250000D01*
G01*
X82975000Y-140300000D01*
G75*
G02*
X82725000Y-140550000I-250000J0D01*
G01*
G37*
G36*
G01*
X82725000Y-142625000D02*
X81775000Y-142625000D01*
G75*
G02*
X81525000Y-142375000I0J250000D01*
G01*
X81525000Y-141700000D01*
G75*
G02*
X81775000Y-141450000I250000J0D01*
G01*
X82725000Y-141450000D01*
G75*
G02*
X82975000Y-141700000I0J-250000D01*
G01*
X82975000Y-142375000D01*
G75*
G02*
X82725000Y-142625000I-250000J0D01*
G01*
G37*
%TD*%
D10*
%TO.C,Q2*%
X86750000Y-140950000D03*
X84750000Y-141900000D03*
X84750000Y-140000000D03*
%TD*%
D12*
%TO.C,IC2*%
X137150000Y-148300000D03*
X137150000Y-149250000D03*
X137150000Y-150200000D03*
X139350000Y-150200000D03*
X139350000Y-148300000D03*
%TD*%
%TO.C,R2*%
G36*
G01*
X82850000Y-137299999D02*
X82850000Y-138200001D01*
G75*
G02*
X82600001Y-138450000I-249999J0D01*
G01*
X81899999Y-138450000D01*
G75*
G02*
X81650000Y-138200001I0J249999D01*
G01*
X81650000Y-137299999D01*
G75*
G02*
X81899999Y-137050000I249999J0D01*
G01*
X82600001Y-137050000D01*
G75*
G02*
X82850000Y-137299999I0J-249999D01*
G01*
G37*
G36*
G01*
X80850000Y-137299999D02*
X80850000Y-138200001D01*
G75*
G02*
X80600001Y-138450000I-249999J0D01*
G01*
X79899999Y-138450000D01*
G75*
G02*
X79650000Y-138200001I0J249999D01*
G01*
X79650000Y-137299999D01*
G75*
G02*
X79899999Y-137050000I249999J0D01*
G01*
X80600001Y-137050000D01*
G75*
G02*
X80850000Y-137299999I0J-249999D01*
G01*
G37*
%TD*%
%TO.C,R4*%
G36*
G01*
X88549999Y-141400000D02*
X89450001Y-141400000D01*
G75*
G02*
X89700000Y-141649999I0J-249999D01*
G01*
X89700000Y-142350001D01*
G75*
G02*
X89450001Y-142600000I-249999J0D01*
G01*
X88549999Y-142600000D01*
G75*
G02*
X88300000Y-142350001I0J249999D01*
G01*
X88300000Y-141649999D01*
G75*
G02*
X88549999Y-141400000I249999J0D01*
G01*
G37*
G36*
G01*
X88549999Y-139400000D02*
X89450001Y-139400000D01*
G75*
G02*
X89700000Y-139649999I0J-249999D01*
G01*
X89700000Y-140350001D01*
G75*
G02*
X89450001Y-140600000I-249999J0D01*
G01*
X88549999Y-140600000D01*
G75*
G02*
X88300000Y-140350001I0J249999D01*
G01*
X88300000Y-139649999D01*
G75*
G02*
X88549999Y-139400000I249999J0D01*
G01*
G37*
%TD*%
%TO.C,IC1*%
X74400000Y-144050000D03*
X74400000Y-145000000D03*
X74400000Y-145950000D03*
X76600000Y-145950000D03*
X76600000Y-144050000D03*
%TD*%
%TO.C,R3*%
G36*
G01*
X90799999Y-143650000D02*
X91700001Y-143650000D01*
G75*
G02*
X91950000Y-143899999I0J-249999D01*
G01*
X91950000Y-144600001D01*
G75*
G02*
X91700001Y-144850000I-249999J0D01*
G01*
X90799999Y-144850000D01*
G75*
G02*
X90550000Y-144600001I0J249999D01*
G01*
X90550000Y-143899999D01*
G75*
G02*
X90799999Y-143650000I249999J0D01*
G01*
G37*
G36*
G01*
X90799999Y-145650000D02*
X91700001Y-145650000D01*
G75*
G02*
X91950000Y-145899999I0J-249999D01*
G01*
X91950000Y-146600001D01*
G75*
G02*
X91700001Y-146850000I-249999J0D01*
G01*
X90799999Y-146850000D01*
G75*
G02*
X90550000Y-146600001I0J249999D01*
G01*
X90550000Y-145899999D01*
G75*
G02*
X90799999Y-145650000I249999J0D01*
G01*
G37*
%TD*%
D10*
%TO.C,Q1*%
X80000000Y-141950000D03*
X80000000Y-140050000D03*
X78000000Y-141000000D03*
%TD*%
D11*
%TO.C,D1*%
X81750000Y-147600000D03*
X81750000Y-150900000D03*
%TD*%
%TO.C,R3*%
G36*
G01*
X65799999Y-145650000D02*
X66700001Y-145650000D01*
G75*
G02*
X66950000Y-145899999I0J-249999D01*
G01*
X66950000Y-146600001D01*
G75*
G02*
X66700001Y-146850000I-249999J0D01*
G01*
X65799999Y-146850000D01*
G75*
G02*
X65550000Y-146600001I0J249999D01*
G01*
X65550000Y-145899999D01*
G75*
G02*
X65799999Y-145650000I249999J0D01*
G01*
G37*
G36*
G01*
X65799999Y-143650000D02*
X66700001Y-143650000D01*
G75*
G02*
X66950000Y-143899999I0J-249999D01*
G01*
X66950000Y-144600001D01*
G75*
G02*
X66700001Y-144850000I-249999J0D01*
G01*
X65799999Y-144850000D01*
G75*
G02*
X65550000Y-144600001I0J249999D01*
G01*
X65550000Y-143899999D01*
G75*
G02*
X65799999Y-143650000I249999J0D01*
G01*
G37*
%TD*%
%TO.C,R1*%
G36*
G01*
X86150000Y-138200001D02*
X86150000Y-137299999D01*
G75*
G02*
X86399999Y-137050000I249999J0D01*
G01*
X87100001Y-137050000D01*
G75*
G02*
X87350000Y-137299999I0J-249999D01*
G01*
X87350000Y-138200001D01*
G75*
G02*
X87100001Y-138450000I-249999J0D01*
G01*
X86399999Y-138450000D01*
G75*
G02*
X86150000Y-138200001I0J249999D01*
G01*
G37*
G36*
G01*
X84150000Y-138200001D02*
X84150000Y-137299999D01*
G75*
G02*
X84399999Y-137050000I249999J0D01*
G01*
X85100001Y-137050000D01*
G75*
G02*
X85350000Y-137299999I0J-249999D01*
G01*
X85350000Y-138200001D01*
G75*
G02*
X85100001Y-138450000I-249999J0D01*
G01*
X84399999Y-138450000D01*
G75*
G02*
X84150000Y-138200001I0J249999D01*
G01*
G37*
%TD*%
%TO.C,C3*%
G36*
G01*
X134275000Y-124700000D02*
X135225000Y-124700000D01*
G75*
G02*
X135475000Y-124950000I0J-250000D01*
G01*
X135475000Y-125625000D01*
G75*
G02*
X135225000Y-125875000I-250000J0D01*
G01*
X134275000Y-125875000D01*
G75*
G02*
X134025000Y-125625000I0J250000D01*
G01*
X134025000Y-124950000D01*
G75*
G02*
X134275000Y-124700000I250000J0D01*
G01*
G37*
G36*
G01*
X134275000Y-122625000D02*
X135225000Y-122625000D01*
G75*
G02*
X135475000Y-122875000I0J-250000D01*
G01*
X135475000Y-123550000D01*
G75*
G02*
X135225000Y-123800000I-250000J0D01*
G01*
X134275000Y-123800000D01*
G75*
G02*
X134025000Y-123550000I0J250000D01*
G01*
X134025000Y-122875000D01*
G75*
G02*
X134275000Y-122625000I250000J0D01*
G01*
G37*
%TD*%
%TO.C,R3*%
G36*
G01*
X140799999Y-120650000D02*
X141700001Y-120650000D01*
G75*
G02*
X141950000Y-120899999I0J-249999D01*
G01*
X141950000Y-121600001D01*
G75*
G02*
X141700001Y-121850000I-249999J0D01*
G01*
X140799999Y-121850000D01*
G75*
G02*
X140550000Y-121600001I0J249999D01*
G01*
X140550000Y-120899999D01*
G75*
G02*
X140799999Y-120650000I249999J0D01*
G01*
G37*
G36*
G01*
X140799999Y-118650000D02*
X141700001Y-118650000D01*
G75*
G02*
X141950000Y-118899999I0J-249999D01*
G01*
X141950000Y-119600001D01*
G75*
G02*
X141700001Y-119850000I-249999J0D01*
G01*
X140799999Y-119850000D01*
G75*
G02*
X140550000Y-119600001I0J249999D01*
G01*
X140550000Y-118899999D01*
G75*
G02*
X140799999Y-118650000I249999J0D01*
G01*
G37*
%TD*%
%TO.C,R1*%
G36*
G01*
X134150000Y-113200001D02*
X134150000Y-112299999D01*
G75*
G02*
X134399999Y-112050000I249999J0D01*
G01*
X135100001Y-112050000D01*
G75*
G02*
X135350000Y-112299999I0J-249999D01*
G01*
X135350000Y-113200001D01*
G75*
G02*
X135100001Y-113450000I-249999J0D01*
G01*
X134399999Y-113450000D01*
G75*
G02*
X134150000Y-113200001I0J249999D01*
G01*
G37*
G36*
G01*
X136150000Y-113200001D02*
X136150000Y-112299999D01*
G75*
G02*
X136399999Y-112050000I249999J0D01*
G01*
X137100001Y-112050000D01*
G75*
G02*
X137350000Y-112299999I0J-249999D01*
G01*
X137350000Y-113200001D01*
G75*
G02*
X137100001Y-113450000I-249999J0D01*
G01*
X136399999Y-113450000D01*
G75*
G02*
X136150000Y-113200001I0J249999D01*
G01*
G37*
%TD*%
%TO.C,C1*%
G36*
G01*
X132725000Y-117625000D02*
X131775000Y-117625000D01*
G75*
G02*
X131525000Y-117375000I0J250000D01*
G01*
X131525000Y-116700000D01*
G75*
G02*
X131775000Y-116450000I250000J0D01*
G01*
X132725000Y-116450000D01*
G75*
G02*
X132975000Y-116700000I0J-250000D01*
G01*
X132975000Y-117375000D01*
G75*
G02*
X132725000Y-117625000I-250000J0D01*
G01*
G37*
G36*
G01*
X132725000Y-115550000D02*
X131775000Y-115550000D01*
G75*
G02*
X131525000Y-115300000I0J250000D01*
G01*
X131525000Y-114625000D01*
G75*
G02*
X131775000Y-114375000I250000J0D01*
G01*
X132725000Y-114375000D01*
G75*
G02*
X132975000Y-114625000I0J-250000D01*
G01*
X132975000Y-115300000D01*
G75*
G02*
X132725000Y-115550000I-250000J0D01*
G01*
G37*
%TD*%
D10*
%TO.C,Q1*%
X128000000Y-116000000D03*
X130000000Y-115050000D03*
X130000000Y-116950000D03*
%TD*%
D12*
%TO.C,IC2*%
X137150000Y-123300000D03*
X137150000Y-124250000D03*
X137150000Y-125200000D03*
X139350000Y-125200000D03*
X139350000Y-123300000D03*
%TD*%
D10*
%TO.C,Q2*%
X134750000Y-115000000D03*
X134750000Y-116900000D03*
X136750000Y-115950000D03*
%TD*%
D12*
%TO.C,IC1*%
X126600000Y-119050000D03*
X126600000Y-120950000D03*
X124400000Y-120950000D03*
X124400000Y-120000000D03*
X124400000Y-119050000D03*
%TD*%
%TO.C,R4*%
G36*
G01*
X138549999Y-114400000D02*
X139450001Y-114400000D01*
G75*
G02*
X139700000Y-114649999I0J-249999D01*
G01*
X139700000Y-115350001D01*
G75*
G02*
X139450001Y-115600000I-249999J0D01*
G01*
X138549999Y-115600000D01*
G75*
G02*
X138300000Y-115350001I0J249999D01*
G01*
X138300000Y-114649999D01*
G75*
G02*
X138549999Y-114400000I249999J0D01*
G01*
G37*
G36*
G01*
X138549999Y-116400000D02*
X139450001Y-116400000D01*
G75*
G02*
X139700000Y-116649999I0J-249999D01*
G01*
X139700000Y-117350001D01*
G75*
G02*
X139450001Y-117600000I-249999J0D01*
G01*
X138549999Y-117600000D01*
G75*
G02*
X138300000Y-117350001I0J249999D01*
G01*
X138300000Y-116649999D01*
G75*
G02*
X138549999Y-116400000I249999J0D01*
G01*
G37*
%TD*%
D11*
%TO.C,D1*%
X131750000Y-125900000D03*
X131750000Y-122600000D03*
%TD*%
%TO.C,R2*%
G36*
G01*
X130850000Y-112299999D02*
X130850000Y-113200001D01*
G75*
G02*
X130600001Y-113450000I-249999J0D01*
G01*
X129899999Y-113450000D01*
G75*
G02*
X129650000Y-113200001I0J249999D01*
G01*
X129650000Y-112299999D01*
G75*
G02*
X129899999Y-112050000I249999J0D01*
G01*
X130600001Y-112050000D01*
G75*
G02*
X130850000Y-112299999I0J-249999D01*
G01*
G37*
G36*
G01*
X132850000Y-112299999D02*
X132850000Y-113200001D01*
G75*
G02*
X132600001Y-113450000I-249999J0D01*
G01*
X131899999Y-113450000D01*
G75*
G02*
X131650000Y-113200001I0J249999D01*
G01*
X131650000Y-112299999D01*
G75*
G02*
X131899999Y-112050000I249999J0D01*
G01*
X132600001Y-112050000D01*
G75*
G02*
X132850000Y-112299999I0J-249999D01*
G01*
G37*
%TD*%
D10*
%TO.C,Q1*%
X105000000Y-116950000D03*
X105000000Y-115050000D03*
X103000000Y-116000000D03*
%TD*%
%TO.C,C2*%
G36*
G01*
X128525000Y-124700000D02*
X129475000Y-124700000D01*
G75*
G02*
X129725000Y-124950000I0J-250000D01*
G01*
X129725000Y-125625000D01*
G75*
G02*
X129475000Y-125875000I-250000J0D01*
G01*
X128525000Y-125875000D01*
G75*
G02*
X128275000Y-125625000I0J250000D01*
G01*
X128275000Y-124950000D01*
G75*
G02*
X128525000Y-124700000I250000J0D01*
G01*
G37*
G36*
G01*
X128525000Y-122625000D02*
X129475000Y-122625000D01*
G75*
G02*
X129725000Y-122875000I0J-250000D01*
G01*
X129725000Y-123550000D01*
G75*
G02*
X129475000Y-123800000I-250000J0D01*
G01*
X128525000Y-123800000D01*
G75*
G02*
X128275000Y-123550000I0J250000D01*
G01*
X128275000Y-122875000D01*
G75*
G02*
X128525000Y-122625000I250000J0D01*
G01*
G37*
%TD*%
%TO.C,R3*%
G36*
G01*
X115799999Y-118650000D02*
X116700001Y-118650000D01*
G75*
G02*
X116950000Y-118899999I0J-249999D01*
G01*
X116950000Y-119600001D01*
G75*
G02*
X116700001Y-119850000I-249999J0D01*
G01*
X115799999Y-119850000D01*
G75*
G02*
X115550000Y-119600001I0J249999D01*
G01*
X115550000Y-118899999D01*
G75*
G02*
X115799999Y-118650000I249999J0D01*
G01*
G37*
G36*
G01*
X115799999Y-120650000D02*
X116700001Y-120650000D01*
G75*
G02*
X116950000Y-120899999I0J-249999D01*
G01*
X116950000Y-121600001D01*
G75*
G02*
X116700001Y-121850000I-249999J0D01*
G01*
X115799999Y-121850000D01*
G75*
G02*
X115550000Y-121600001I0J249999D01*
G01*
X115550000Y-120899999D01*
G75*
G02*
X115799999Y-120650000I249999J0D01*
G01*
G37*
%TD*%
%TO.C,C2*%
G36*
G01*
X53525000Y-122625000D02*
X54475000Y-122625000D01*
G75*
G02*
X54725000Y-122875000I0J-250000D01*
G01*
X54725000Y-123550000D01*
G75*
G02*
X54475000Y-123800000I-250000J0D01*
G01*
X53525000Y-123800000D01*
G75*
G02*
X53275000Y-123550000I0J250000D01*
G01*
X53275000Y-122875000D01*
G75*
G02*
X53525000Y-122625000I250000J0D01*
G01*
G37*
G36*
G01*
X53525000Y-124700000D02*
X54475000Y-124700000D01*
G75*
G02*
X54725000Y-124950000I0J-250000D01*
G01*
X54725000Y-125625000D01*
G75*
G02*
X54475000Y-125875000I-250000J0D01*
G01*
X53525000Y-125875000D01*
G75*
G02*
X53275000Y-125625000I0J250000D01*
G01*
X53275000Y-124950000D01*
G75*
G02*
X53525000Y-124700000I250000J0D01*
G01*
G37*
%TD*%
%TO.C,C2*%
G36*
G01*
X103525000Y-122625000D02*
X104475000Y-122625000D01*
G75*
G02*
X104725000Y-122875000I0J-250000D01*
G01*
X104725000Y-123550000D01*
G75*
G02*
X104475000Y-123800000I-250000J0D01*
G01*
X103525000Y-123800000D01*
G75*
G02*
X103275000Y-123550000I0J250000D01*
G01*
X103275000Y-122875000D01*
G75*
G02*
X103525000Y-122625000I250000J0D01*
G01*
G37*
G36*
G01*
X103525000Y-124700000D02*
X104475000Y-124700000D01*
G75*
G02*
X104725000Y-124950000I0J-250000D01*
G01*
X104725000Y-125625000D01*
G75*
G02*
X104475000Y-125875000I-250000J0D01*
G01*
X103525000Y-125875000D01*
G75*
G02*
X103275000Y-125625000I0J250000D01*
G01*
X103275000Y-124950000D01*
G75*
G02*
X103525000Y-124700000I250000J0D01*
G01*
G37*
%TD*%
%TO.C,C3*%
G36*
G01*
X109275000Y-122625000D02*
X110225000Y-122625000D01*
G75*
G02*
X110475000Y-122875000I0J-250000D01*
G01*
X110475000Y-123550000D01*
G75*
G02*
X110225000Y-123800000I-250000J0D01*
G01*
X109275000Y-123800000D01*
G75*
G02*
X109025000Y-123550000I0J250000D01*
G01*
X109025000Y-122875000D01*
G75*
G02*
X109275000Y-122625000I250000J0D01*
G01*
G37*
G36*
G01*
X109275000Y-124700000D02*
X110225000Y-124700000D01*
G75*
G02*
X110475000Y-124950000I0J-250000D01*
G01*
X110475000Y-125625000D01*
G75*
G02*
X110225000Y-125875000I-250000J0D01*
G01*
X109275000Y-125875000D01*
G75*
G02*
X109025000Y-125625000I0J250000D01*
G01*
X109025000Y-124950000D01*
G75*
G02*
X109275000Y-124700000I250000J0D01*
G01*
G37*
%TD*%
%TO.C,R1*%
G36*
G01*
X111150000Y-113200001D02*
X111150000Y-112299999D01*
G75*
G02*
X111399999Y-112050000I249999J0D01*
G01*
X112100001Y-112050000D01*
G75*
G02*
X112350000Y-112299999I0J-249999D01*
G01*
X112350000Y-113200001D01*
G75*
G02*
X112100001Y-113450000I-249999J0D01*
G01*
X111399999Y-113450000D01*
G75*
G02*
X111150000Y-113200001I0J249999D01*
G01*
G37*
G36*
G01*
X109150000Y-113200001D02*
X109150000Y-112299999D01*
G75*
G02*
X109399999Y-112050000I249999J0D01*
G01*
X110100001Y-112050000D01*
G75*
G02*
X110350000Y-112299999I0J-249999D01*
G01*
X110350000Y-113200001D01*
G75*
G02*
X110100001Y-113450000I-249999J0D01*
G01*
X109399999Y-113450000D01*
G75*
G02*
X109150000Y-113200001I0J249999D01*
G01*
G37*
%TD*%
%TO.C,Q2*%
X111750000Y-115950000D03*
X109750000Y-116900000D03*
X109750000Y-115000000D03*
%TD*%
%TO.C,R4*%
G36*
G01*
X113549999Y-116400000D02*
X114450001Y-116400000D01*
G75*
G02*
X114700000Y-116649999I0J-249999D01*
G01*
X114700000Y-117350001D01*
G75*
G02*
X114450001Y-117600000I-249999J0D01*
G01*
X113549999Y-117600000D01*
G75*
G02*
X113300000Y-117350001I0J249999D01*
G01*
X113300000Y-116649999D01*
G75*
G02*
X113549999Y-116400000I249999J0D01*
G01*
G37*
G36*
G01*
X113549999Y-114400000D02*
X114450001Y-114400000D01*
G75*
G02*
X114700000Y-114649999I0J-249999D01*
G01*
X114700000Y-115350001D01*
G75*
G02*
X114450001Y-115600000I-249999J0D01*
G01*
X113549999Y-115600000D01*
G75*
G02*
X113300000Y-115350001I0J249999D01*
G01*
X113300000Y-114649999D01*
G75*
G02*
X113549999Y-114400000I249999J0D01*
G01*
G37*
%TD*%
D12*
%TO.C,IC1*%
X99400000Y-119050000D03*
X99400000Y-120000000D03*
X99400000Y-120950000D03*
X101600000Y-120950000D03*
X101600000Y-119050000D03*
%TD*%
%TO.C,C1*%
G36*
G01*
X107725000Y-115550000D02*
X106775000Y-115550000D01*
G75*
G02*
X106525000Y-115300000I0J250000D01*
G01*
X106525000Y-114625000D01*
G75*
G02*
X106775000Y-114375000I250000J0D01*
G01*
X107725000Y-114375000D01*
G75*
G02*
X107975000Y-114625000I0J-250000D01*
G01*
X107975000Y-115300000D01*
G75*
G02*
X107725000Y-115550000I-250000J0D01*
G01*
G37*
G36*
G01*
X107725000Y-117625000D02*
X106775000Y-117625000D01*
G75*
G02*
X106525000Y-117375000I0J250000D01*
G01*
X106525000Y-116700000D01*
G75*
G02*
X106775000Y-116450000I250000J0D01*
G01*
X107725000Y-116450000D01*
G75*
G02*
X107975000Y-116700000I0J-250000D01*
G01*
X107975000Y-117375000D01*
G75*
G02*
X107725000Y-117625000I-250000J0D01*
G01*
G37*
%TD*%
%TO.C,IC2*%
X114350000Y-123300000D03*
X114350000Y-125200000D03*
X112150000Y-125200000D03*
X112150000Y-124250000D03*
X112150000Y-123300000D03*
%TD*%
%TO.C,R2*%
G36*
G01*
X107850000Y-112299999D02*
X107850000Y-113200001D01*
G75*
G02*
X107600001Y-113450000I-249999J0D01*
G01*
X106899999Y-113450000D01*
G75*
G02*
X106650000Y-113200001I0J249999D01*
G01*
X106650000Y-112299999D01*
G75*
G02*
X106899999Y-112050000I249999J0D01*
G01*
X107600001Y-112050000D01*
G75*
G02*
X107850000Y-112299999I0J-249999D01*
G01*
G37*
G36*
G01*
X105850000Y-112299999D02*
X105850000Y-113200001D01*
G75*
G02*
X105600001Y-113450000I-249999J0D01*
G01*
X104899999Y-113450000D01*
G75*
G02*
X104650000Y-113200001I0J249999D01*
G01*
X104650000Y-112299999D01*
G75*
G02*
X104899999Y-112050000I249999J0D01*
G01*
X105600001Y-112050000D01*
G75*
G02*
X105850000Y-112299999I0J-249999D01*
G01*
G37*
%TD*%
D11*
%TO.C,D1*%
X106750000Y-122600000D03*
X106750000Y-125900000D03*
%TD*%
%TO.C,C1*%
G36*
G01*
X57725000Y-115550000D02*
X56775000Y-115550000D01*
G75*
G02*
X56525000Y-115300000I0J250000D01*
G01*
X56525000Y-114625000D01*
G75*
G02*
X56775000Y-114375000I250000J0D01*
G01*
X57725000Y-114375000D01*
G75*
G02*
X57975000Y-114625000I0J-250000D01*
G01*
X57975000Y-115300000D01*
G75*
G02*
X57725000Y-115550000I-250000J0D01*
G01*
G37*
G36*
G01*
X57725000Y-117625000D02*
X56775000Y-117625000D01*
G75*
G02*
X56525000Y-117375000I0J250000D01*
G01*
X56525000Y-116700000D01*
G75*
G02*
X56775000Y-116450000I250000J0D01*
G01*
X57725000Y-116450000D01*
G75*
G02*
X57975000Y-116700000I0J-250000D01*
G01*
X57975000Y-117375000D01*
G75*
G02*
X57725000Y-117625000I-250000J0D01*
G01*
G37*
%TD*%
D10*
%TO.C,Q2*%
X61750000Y-115950000D03*
X59750000Y-116900000D03*
X59750000Y-115000000D03*
%TD*%
%TO.C,R2*%
G36*
G01*
X57850000Y-112299999D02*
X57850000Y-113200001D01*
G75*
G02*
X57600001Y-113450000I-249999J0D01*
G01*
X56899999Y-113450000D01*
G75*
G02*
X56650000Y-113200001I0J249999D01*
G01*
X56650000Y-112299999D01*
G75*
G02*
X56899999Y-112050000I249999J0D01*
G01*
X57600001Y-112050000D01*
G75*
G02*
X57850000Y-112299999I0J-249999D01*
G01*
G37*
G36*
G01*
X55850000Y-112299999D02*
X55850000Y-113200001D01*
G75*
G02*
X55600001Y-113450000I-249999J0D01*
G01*
X54899999Y-113450000D01*
G75*
G02*
X54650000Y-113200001I0J249999D01*
G01*
X54650000Y-112299999D01*
G75*
G02*
X54899999Y-112050000I249999J0D01*
G01*
X55600001Y-112050000D01*
G75*
G02*
X55850000Y-112299999I0J-249999D01*
G01*
G37*
%TD*%
D11*
%TO.C,D1*%
X56750000Y-122600000D03*
X56750000Y-125900000D03*
%TD*%
%TO.C,C1*%
G36*
G01*
X132725000Y-115550000D02*
X131775000Y-115550000D01*
G75*
G02*
X131525000Y-115300000I0J250000D01*
G01*
X131525000Y-114625000D01*
G75*
G02*
X131775000Y-114375000I250000J0D01*
G01*
X132725000Y-114375000D01*
G75*
G02*
X132975000Y-114625000I0J-250000D01*
G01*
X132975000Y-115300000D01*
G75*
G02*
X132725000Y-115550000I-250000J0D01*
G01*
G37*
G36*
G01*
X132725000Y-117625000D02*
X131775000Y-117625000D01*
G75*
G02*
X131525000Y-117375000I0J250000D01*
G01*
X131525000Y-116700000D01*
G75*
G02*
X131775000Y-116450000I250000J0D01*
G01*
X132725000Y-116450000D01*
G75*
G02*
X132975000Y-116700000I0J-250000D01*
G01*
X132975000Y-117375000D01*
G75*
G02*
X132725000Y-117625000I-250000J0D01*
G01*
G37*
%TD*%
%TO.C,D1*%
X131750000Y-122600000D03*
X131750000Y-125900000D03*
%TD*%
D12*
%TO.C,IC1*%
X124400000Y-119050000D03*
X124400000Y-120000000D03*
X124400000Y-120950000D03*
X126600000Y-120950000D03*
X126600000Y-119050000D03*
%TD*%
%TO.C,R3*%
G36*
G01*
X140799999Y-118650000D02*
X141700001Y-118650000D01*
G75*
G02*
X141950000Y-118899999I0J-249999D01*
G01*
X141950000Y-119600001D01*
G75*
G02*
X141700001Y-119850000I-249999J0D01*
G01*
X140799999Y-119850000D01*
G75*
G02*
X140550000Y-119600001I0J249999D01*
G01*
X140550000Y-118899999D01*
G75*
G02*
X140799999Y-118650000I249999J0D01*
G01*
G37*
G36*
G01*
X140799999Y-120650000D02*
X141700001Y-120650000D01*
G75*
G02*
X141950000Y-120899999I0J-249999D01*
G01*
X141950000Y-121600001D01*
G75*
G02*
X141700001Y-121850000I-249999J0D01*
G01*
X140799999Y-121850000D01*
G75*
G02*
X140550000Y-121600001I0J249999D01*
G01*
X140550000Y-120899999D01*
G75*
G02*
X140799999Y-120650000I249999J0D01*
G01*
G37*
%TD*%
%TO.C,C3*%
G36*
G01*
X59275000Y-122625000D02*
X60225000Y-122625000D01*
G75*
G02*
X60475000Y-122875000I0J-250000D01*
G01*
X60475000Y-123550000D01*
G75*
G02*
X60225000Y-123800000I-250000J0D01*
G01*
X59275000Y-123800000D01*
G75*
G02*
X59025000Y-123550000I0J250000D01*
G01*
X59025000Y-122875000D01*
G75*
G02*
X59275000Y-122625000I250000J0D01*
G01*
G37*
G36*
G01*
X59275000Y-124700000D02*
X60225000Y-124700000D01*
G75*
G02*
X60475000Y-124950000I0J-250000D01*
G01*
X60475000Y-125625000D01*
G75*
G02*
X60225000Y-125875000I-250000J0D01*
G01*
X59275000Y-125875000D01*
G75*
G02*
X59025000Y-125625000I0J250000D01*
G01*
X59025000Y-124950000D01*
G75*
G02*
X59275000Y-124700000I250000J0D01*
G01*
G37*
%TD*%
D10*
%TO.C,Q2*%
X136750000Y-115950000D03*
X134750000Y-116900000D03*
X134750000Y-115000000D03*
%TD*%
%TO.C,R1*%
G36*
G01*
X136150000Y-113200001D02*
X136150000Y-112299999D01*
G75*
G02*
X136399999Y-112050000I249999J0D01*
G01*
X137100001Y-112050000D01*
G75*
G02*
X137350000Y-112299999I0J-249999D01*
G01*
X137350000Y-113200001D01*
G75*
G02*
X137100001Y-113450000I-249999J0D01*
G01*
X136399999Y-113450000D01*
G75*
G02*
X136150000Y-113200001I0J249999D01*
G01*
G37*
G36*
G01*
X134150000Y-113200001D02*
X134150000Y-112299999D01*
G75*
G02*
X134399999Y-112050000I249999J0D01*
G01*
X135100001Y-112050000D01*
G75*
G02*
X135350000Y-112299999I0J-249999D01*
G01*
X135350000Y-113200001D01*
G75*
G02*
X135100001Y-113450000I-249999J0D01*
G01*
X134399999Y-113450000D01*
G75*
G02*
X134150000Y-113200001I0J249999D01*
G01*
G37*
%TD*%
D11*
%TO.C,D1*%
X81750000Y-125900000D03*
X81750000Y-122600000D03*
%TD*%
%TO.C,R4*%
G36*
G01*
X63549999Y-116400000D02*
X64450001Y-116400000D01*
G75*
G02*
X64700000Y-116649999I0J-249999D01*
G01*
X64700000Y-117350001D01*
G75*
G02*
X64450001Y-117600000I-249999J0D01*
G01*
X63549999Y-117600000D01*
G75*
G02*
X63300000Y-117350001I0J249999D01*
G01*
X63300000Y-116649999D01*
G75*
G02*
X63549999Y-116400000I249999J0D01*
G01*
G37*
G36*
G01*
X63549999Y-114400000D02*
X64450001Y-114400000D01*
G75*
G02*
X64700000Y-114649999I0J-249999D01*
G01*
X64700000Y-115350001D01*
G75*
G02*
X64450001Y-115600000I-249999J0D01*
G01*
X63549999Y-115600000D01*
G75*
G02*
X63300000Y-115350001I0J249999D01*
G01*
X63300000Y-114649999D01*
G75*
G02*
X63549999Y-114400000I249999J0D01*
G01*
G37*
%TD*%
%TO.C,C2*%
G36*
G01*
X128525000Y-122625000D02*
X129475000Y-122625000D01*
G75*
G02*
X129725000Y-122875000I0J-250000D01*
G01*
X129725000Y-123550000D01*
G75*
G02*
X129475000Y-123800000I-250000J0D01*
G01*
X128525000Y-123800000D01*
G75*
G02*
X128275000Y-123550000I0J250000D01*
G01*
X128275000Y-122875000D01*
G75*
G02*
X128525000Y-122625000I250000J0D01*
G01*
G37*
G36*
G01*
X128525000Y-124700000D02*
X129475000Y-124700000D01*
G75*
G02*
X129725000Y-124950000I0J-250000D01*
G01*
X129725000Y-125625000D01*
G75*
G02*
X129475000Y-125875000I-250000J0D01*
G01*
X128525000Y-125875000D01*
G75*
G02*
X128275000Y-125625000I0J250000D01*
G01*
X128275000Y-124950000D01*
G75*
G02*
X128525000Y-124700000I250000J0D01*
G01*
G37*
%TD*%
D12*
%TO.C,IC1*%
X49400000Y-119050000D03*
X49400000Y-120000000D03*
X49400000Y-120950000D03*
X51600000Y-120950000D03*
X51600000Y-119050000D03*
%TD*%
D10*
%TO.C,Q1*%
X78000000Y-116000000D03*
X80000000Y-115050000D03*
X80000000Y-116950000D03*
%TD*%
%TO.C,R3*%
G36*
G01*
X65799999Y-118650000D02*
X66700001Y-118650000D01*
G75*
G02*
X66950000Y-118899999I0J-249999D01*
G01*
X66950000Y-119600001D01*
G75*
G02*
X66700001Y-119850000I-249999J0D01*
G01*
X65799999Y-119850000D01*
G75*
G02*
X65550000Y-119600001I0J249999D01*
G01*
X65550000Y-118899999D01*
G75*
G02*
X65799999Y-118650000I249999J0D01*
G01*
G37*
G36*
G01*
X65799999Y-120650000D02*
X66700001Y-120650000D01*
G75*
G02*
X66950000Y-120899999I0J-249999D01*
G01*
X66950000Y-121600001D01*
G75*
G02*
X66700001Y-121850000I-249999J0D01*
G01*
X65799999Y-121850000D01*
G75*
G02*
X65550000Y-121600001I0J249999D01*
G01*
X65550000Y-120899999D01*
G75*
G02*
X65799999Y-120650000I249999J0D01*
G01*
G37*
%TD*%
%TO.C,C3*%
G36*
G01*
X134275000Y-122625000D02*
X135225000Y-122625000D01*
G75*
G02*
X135475000Y-122875000I0J-250000D01*
G01*
X135475000Y-123550000D01*
G75*
G02*
X135225000Y-123800000I-250000J0D01*
G01*
X134275000Y-123800000D01*
G75*
G02*
X134025000Y-123550000I0J250000D01*
G01*
X134025000Y-122875000D01*
G75*
G02*
X134275000Y-122625000I250000J0D01*
G01*
G37*
G36*
G01*
X134275000Y-124700000D02*
X135225000Y-124700000D01*
G75*
G02*
X135475000Y-124950000I0J-250000D01*
G01*
X135475000Y-125625000D01*
G75*
G02*
X135225000Y-125875000I-250000J0D01*
G01*
X134275000Y-125875000D01*
G75*
G02*
X134025000Y-125625000I0J250000D01*
G01*
X134025000Y-124950000D01*
G75*
G02*
X134275000Y-124700000I250000J0D01*
G01*
G37*
%TD*%
%TO.C,R1*%
G36*
G01*
X61150000Y-113200001D02*
X61150000Y-112299999D01*
G75*
G02*
X61399999Y-112050000I249999J0D01*
G01*
X62100001Y-112050000D01*
G75*
G02*
X62350000Y-112299999I0J-249999D01*
G01*
X62350000Y-113200001D01*
G75*
G02*
X62100001Y-113450000I-249999J0D01*
G01*
X61399999Y-113450000D01*
G75*
G02*
X61150000Y-113200001I0J249999D01*
G01*
G37*
G36*
G01*
X59150000Y-113200001D02*
X59150000Y-112299999D01*
G75*
G02*
X59399999Y-112050000I249999J0D01*
G01*
X60100001Y-112050000D01*
G75*
G02*
X60350000Y-112299999I0J-249999D01*
G01*
X60350000Y-113200001D01*
G75*
G02*
X60100001Y-113450000I-249999J0D01*
G01*
X59399999Y-113450000D01*
G75*
G02*
X59150000Y-113200001I0J249999D01*
G01*
G37*
%TD*%
%TO.C,Q1*%
X130000000Y-116950000D03*
X130000000Y-115050000D03*
X128000000Y-116000000D03*
%TD*%
%TO.C,Q1*%
X55000000Y-116950000D03*
X55000000Y-115050000D03*
X53000000Y-116000000D03*
%TD*%
%TO.C,C3*%
G36*
G01*
X84275000Y-124700000D02*
X85225000Y-124700000D01*
G75*
G02*
X85475000Y-124950000I0J-250000D01*
G01*
X85475000Y-125625000D01*
G75*
G02*
X85225000Y-125875000I-250000J0D01*
G01*
X84275000Y-125875000D01*
G75*
G02*
X84025000Y-125625000I0J250000D01*
G01*
X84025000Y-124950000D01*
G75*
G02*
X84275000Y-124700000I250000J0D01*
G01*
G37*
G36*
G01*
X84275000Y-122625000D02*
X85225000Y-122625000D01*
G75*
G02*
X85475000Y-122875000I0J-250000D01*
G01*
X85475000Y-123550000D01*
G75*
G02*
X85225000Y-123800000I-250000J0D01*
G01*
X84275000Y-123800000D01*
G75*
G02*
X84025000Y-123550000I0J250000D01*
G01*
X84025000Y-122875000D01*
G75*
G02*
X84275000Y-122625000I250000J0D01*
G01*
G37*
%TD*%
D12*
%TO.C,IC2*%
X139350000Y-123300000D03*
X139350000Y-125200000D03*
X137150000Y-125200000D03*
X137150000Y-124250000D03*
X137150000Y-123300000D03*
%TD*%
%TO.C,IC2*%
X64350000Y-123300000D03*
X64350000Y-125200000D03*
X62150000Y-125200000D03*
X62150000Y-124250000D03*
X62150000Y-123300000D03*
%TD*%
%TO.C,R4*%
G36*
G01*
X138549999Y-116400000D02*
X139450001Y-116400000D01*
G75*
G02*
X139700000Y-116649999I0J-249999D01*
G01*
X139700000Y-117350001D01*
G75*
G02*
X139450001Y-117600000I-249999J0D01*
G01*
X138549999Y-117600000D01*
G75*
G02*
X138300000Y-117350001I0J249999D01*
G01*
X138300000Y-116649999D01*
G75*
G02*
X138549999Y-116400000I249999J0D01*
G01*
G37*
G36*
G01*
X138549999Y-114400000D02*
X139450001Y-114400000D01*
G75*
G02*
X139700000Y-114649999I0J-249999D01*
G01*
X139700000Y-115350001D01*
G75*
G02*
X139450001Y-115600000I-249999J0D01*
G01*
X138549999Y-115600000D01*
G75*
G02*
X138300000Y-115350001I0J249999D01*
G01*
X138300000Y-114649999D01*
G75*
G02*
X138549999Y-114400000I249999J0D01*
G01*
G37*
%TD*%
%TO.C,C2*%
G36*
G01*
X78525000Y-124700000D02*
X79475000Y-124700000D01*
G75*
G02*
X79725000Y-124950000I0J-250000D01*
G01*
X79725000Y-125625000D01*
G75*
G02*
X79475000Y-125875000I-250000J0D01*
G01*
X78525000Y-125875000D01*
G75*
G02*
X78275000Y-125625000I0J250000D01*
G01*
X78275000Y-124950000D01*
G75*
G02*
X78525000Y-124700000I250000J0D01*
G01*
G37*
G36*
G01*
X78525000Y-122625000D02*
X79475000Y-122625000D01*
G75*
G02*
X79725000Y-122875000I0J-250000D01*
G01*
X79725000Y-123550000D01*
G75*
G02*
X79475000Y-123800000I-250000J0D01*
G01*
X78525000Y-123800000D01*
G75*
G02*
X78275000Y-123550000I0J250000D01*
G01*
X78275000Y-122875000D01*
G75*
G02*
X78525000Y-122625000I250000J0D01*
G01*
G37*
%TD*%
%TO.C,R2*%
G36*
G01*
X132850000Y-112299999D02*
X132850000Y-113200001D01*
G75*
G02*
X132600001Y-113450000I-249999J0D01*
G01*
X131899999Y-113450000D01*
G75*
G02*
X131650000Y-113200001I0J249999D01*
G01*
X131650000Y-112299999D01*
G75*
G02*
X131899999Y-112050000I249999J0D01*
G01*
X132600001Y-112050000D01*
G75*
G02*
X132850000Y-112299999I0J-249999D01*
G01*
G37*
G36*
G01*
X130850000Y-112299999D02*
X130850000Y-113200001D01*
G75*
G02*
X130600001Y-113450000I-249999J0D01*
G01*
X129899999Y-113450000D01*
G75*
G02*
X129650000Y-113200001I0J249999D01*
G01*
X129650000Y-112299999D01*
G75*
G02*
X129899999Y-112050000I249999J0D01*
G01*
X130600001Y-112050000D01*
G75*
G02*
X130850000Y-112299999I0J-249999D01*
G01*
G37*
%TD*%
%TO.C,R3*%
G36*
G01*
X90799999Y-120650000D02*
X91700001Y-120650000D01*
G75*
G02*
X91950000Y-120899999I0J-249999D01*
G01*
X91950000Y-121600001D01*
G75*
G02*
X91700001Y-121850000I-249999J0D01*
G01*
X90799999Y-121850000D01*
G75*
G02*
X90550000Y-121600001I0J249999D01*
G01*
X90550000Y-120899999D01*
G75*
G02*
X90799999Y-120650000I249999J0D01*
G01*
G37*
G36*
G01*
X90799999Y-118650000D02*
X91700001Y-118650000D01*
G75*
G02*
X91950000Y-118899999I0J-249999D01*
G01*
X91950000Y-119600001D01*
G75*
G02*
X91700001Y-119850000I-249999J0D01*
G01*
X90799999Y-119850000D01*
G75*
G02*
X90550000Y-119600001I0J249999D01*
G01*
X90550000Y-118899999D01*
G75*
G02*
X90799999Y-118650000I249999J0D01*
G01*
G37*
%TD*%
%TO.C,R1*%
G36*
G01*
X84150000Y-113200001D02*
X84150000Y-112299999D01*
G75*
G02*
X84399999Y-112050000I249999J0D01*
G01*
X85100001Y-112050000D01*
G75*
G02*
X85350000Y-112299999I0J-249999D01*
G01*
X85350000Y-113200001D01*
G75*
G02*
X85100001Y-113450000I-249999J0D01*
G01*
X84399999Y-113450000D01*
G75*
G02*
X84150000Y-113200001I0J249999D01*
G01*
G37*
G36*
G01*
X86150000Y-113200001D02*
X86150000Y-112299999D01*
G75*
G02*
X86399999Y-112050000I249999J0D01*
G01*
X87100001Y-112050000D01*
G75*
G02*
X87350000Y-112299999I0J-249999D01*
G01*
X87350000Y-113200001D01*
G75*
G02*
X87100001Y-113450000I-249999J0D01*
G01*
X86399999Y-113450000D01*
G75*
G02*
X86150000Y-113200001I0J249999D01*
G01*
G37*
%TD*%
D10*
%TO.C,Q2*%
X84750000Y-115000000D03*
X84750000Y-116900000D03*
X86750000Y-115950000D03*
%TD*%
%TO.C,R4*%
G36*
G01*
X88549999Y-114400000D02*
X89450001Y-114400000D01*
G75*
G02*
X89700000Y-114649999I0J-249999D01*
G01*
X89700000Y-115350001D01*
G75*
G02*
X89450001Y-115600000I-249999J0D01*
G01*
X88549999Y-115600000D01*
G75*
G02*
X88300000Y-115350001I0J249999D01*
G01*
X88300000Y-114649999D01*
G75*
G02*
X88549999Y-114400000I249999J0D01*
G01*
G37*
G36*
G01*
X88549999Y-116400000D02*
X89450001Y-116400000D01*
G75*
G02*
X89700000Y-116649999I0J-249999D01*
G01*
X89700000Y-117350001D01*
G75*
G02*
X89450001Y-117600000I-249999J0D01*
G01*
X88549999Y-117600000D01*
G75*
G02*
X88300000Y-117350001I0J249999D01*
G01*
X88300000Y-116649999D01*
G75*
G02*
X88549999Y-116400000I249999J0D01*
G01*
G37*
%TD*%
%TO.C,C1*%
G36*
G01*
X82725000Y-117625000D02*
X81775000Y-117625000D01*
G75*
G02*
X81525000Y-117375000I0J250000D01*
G01*
X81525000Y-116700000D01*
G75*
G02*
X81775000Y-116450000I250000J0D01*
G01*
X82725000Y-116450000D01*
G75*
G02*
X82975000Y-116700000I0J-250000D01*
G01*
X82975000Y-117375000D01*
G75*
G02*
X82725000Y-117625000I-250000J0D01*
G01*
G37*
G36*
G01*
X82725000Y-115550000D02*
X81775000Y-115550000D01*
G75*
G02*
X81525000Y-115300000I0J250000D01*
G01*
X81525000Y-114625000D01*
G75*
G02*
X81775000Y-114375000I250000J0D01*
G01*
X82725000Y-114375000D01*
G75*
G02*
X82975000Y-114625000I0J-250000D01*
G01*
X82975000Y-115300000D01*
G75*
G02*
X82725000Y-115550000I-250000J0D01*
G01*
G37*
%TD*%
D12*
%TO.C,IC1*%
X76600000Y-119050000D03*
X76600000Y-120950000D03*
X74400000Y-120950000D03*
X74400000Y-120000000D03*
X74400000Y-119050000D03*
%TD*%
%TO.C,IC2*%
X87150000Y-123300000D03*
X87150000Y-124250000D03*
X87150000Y-125200000D03*
X89350000Y-125200000D03*
X89350000Y-123300000D03*
%TD*%
%TO.C,R2*%
G36*
G01*
X80850000Y-112299999D02*
X80850000Y-113200001D01*
G75*
G02*
X80600001Y-113450000I-249999J0D01*
G01*
X79899999Y-113450000D01*
G75*
G02*
X79650000Y-113200001I0J249999D01*
G01*
X79650000Y-112299999D01*
G75*
G02*
X79899999Y-112050000I249999J0D01*
G01*
X80600001Y-112050000D01*
G75*
G02*
X80850000Y-112299999I0J-249999D01*
G01*
G37*
G36*
G01*
X82850000Y-112299999D02*
X82850000Y-113200001D01*
G75*
G02*
X82600001Y-113450000I-249999J0D01*
G01*
X81899999Y-113450000D01*
G75*
G02*
X81650000Y-113200001I0J249999D01*
G01*
X81650000Y-112299999D01*
G75*
G02*
X81899999Y-112050000I249999J0D01*
G01*
X82600001Y-112050000D01*
G75*
G02*
X82850000Y-112299999I0J-249999D01*
G01*
G37*
%TD*%
%TO.C,C3*%
G36*
G01*
X134275000Y-97625000D02*
X135225000Y-97625000D01*
G75*
G02*
X135475000Y-97875000I0J-250000D01*
G01*
X135475000Y-98550000D01*
G75*
G02*
X135225000Y-98800000I-250000J0D01*
G01*
X134275000Y-98800000D01*
G75*
G02*
X134025000Y-98550000I0J250000D01*
G01*
X134025000Y-97875000D01*
G75*
G02*
X134275000Y-97625000I250000J0D01*
G01*
G37*
G36*
G01*
X134275000Y-99700000D02*
X135225000Y-99700000D01*
G75*
G02*
X135475000Y-99950000I0J-250000D01*
G01*
X135475000Y-100625000D01*
G75*
G02*
X135225000Y-100875000I-250000J0D01*
G01*
X134275000Y-100875000D01*
G75*
G02*
X134025000Y-100625000I0J250000D01*
G01*
X134025000Y-99950000D01*
G75*
G02*
X134275000Y-99700000I250000J0D01*
G01*
G37*
%TD*%
D10*
%TO.C,Q1*%
X130000000Y-91950000D03*
X130000000Y-90050000D03*
X128000000Y-91000000D03*
%TD*%
%TO.C,R1*%
G36*
G01*
X136150000Y-88200001D02*
X136150000Y-87299999D01*
G75*
G02*
X136399999Y-87050000I249999J0D01*
G01*
X137100001Y-87050000D01*
G75*
G02*
X137350000Y-87299999I0J-249999D01*
G01*
X137350000Y-88200001D01*
G75*
G02*
X137100001Y-88450000I-249999J0D01*
G01*
X136399999Y-88450000D01*
G75*
G02*
X136150000Y-88200001I0J249999D01*
G01*
G37*
G36*
G01*
X134150000Y-88200001D02*
X134150000Y-87299999D01*
G75*
G02*
X134399999Y-87050000I249999J0D01*
G01*
X135100001Y-87050000D01*
G75*
G02*
X135350000Y-87299999I0J-249999D01*
G01*
X135350000Y-88200001D01*
G75*
G02*
X135100001Y-88450000I-249999J0D01*
G01*
X134399999Y-88450000D01*
G75*
G02*
X134150000Y-88200001I0J249999D01*
G01*
G37*
%TD*%
%TO.C,Q2*%
X136750000Y-90950000D03*
X134750000Y-91900000D03*
X134750000Y-90000000D03*
%TD*%
%TO.C,C1*%
G36*
G01*
X132725000Y-90550000D02*
X131775000Y-90550000D01*
G75*
G02*
X131525000Y-90300000I0J250000D01*
G01*
X131525000Y-89625000D01*
G75*
G02*
X131775000Y-89375000I250000J0D01*
G01*
X132725000Y-89375000D01*
G75*
G02*
X132975000Y-89625000I0J-250000D01*
G01*
X132975000Y-90300000D01*
G75*
G02*
X132725000Y-90550000I-250000J0D01*
G01*
G37*
G36*
G01*
X132725000Y-92625000D02*
X131775000Y-92625000D01*
G75*
G02*
X131525000Y-92375000I0J250000D01*
G01*
X131525000Y-91700000D01*
G75*
G02*
X131775000Y-91450000I250000J0D01*
G01*
X132725000Y-91450000D01*
G75*
G02*
X132975000Y-91700000I0J-250000D01*
G01*
X132975000Y-92375000D01*
G75*
G02*
X132725000Y-92625000I-250000J0D01*
G01*
G37*
%TD*%
D12*
%TO.C,IC2*%
X139350000Y-98300000D03*
X139350000Y-100200000D03*
X137150000Y-100200000D03*
X137150000Y-99250000D03*
X137150000Y-98300000D03*
%TD*%
D11*
%TO.C,D1*%
X131750000Y-97600000D03*
X131750000Y-100900000D03*
%TD*%
D12*
%TO.C,IC1*%
X124400000Y-94050000D03*
X124400000Y-95000000D03*
X124400000Y-95950000D03*
X126600000Y-95950000D03*
X126600000Y-94050000D03*
%TD*%
%TO.C,R4*%
G36*
G01*
X138549999Y-91400000D02*
X139450001Y-91400000D01*
G75*
G02*
X139700000Y-91649999I0J-249999D01*
G01*
X139700000Y-92350001D01*
G75*
G02*
X139450001Y-92600000I-249999J0D01*
G01*
X138549999Y-92600000D01*
G75*
G02*
X138300000Y-92350001I0J249999D01*
G01*
X138300000Y-91649999D01*
G75*
G02*
X138549999Y-91400000I249999J0D01*
G01*
G37*
G36*
G01*
X138549999Y-89400000D02*
X139450001Y-89400000D01*
G75*
G02*
X139700000Y-89649999I0J-249999D01*
G01*
X139700000Y-90350001D01*
G75*
G02*
X139450001Y-90600000I-249999J0D01*
G01*
X138549999Y-90600000D01*
G75*
G02*
X138300000Y-90350001I0J249999D01*
G01*
X138300000Y-89649999D01*
G75*
G02*
X138549999Y-89400000I249999J0D01*
G01*
G37*
%TD*%
%TO.C,R3*%
G36*
G01*
X140799999Y-93650000D02*
X141700001Y-93650000D01*
G75*
G02*
X141950000Y-93899999I0J-249999D01*
G01*
X141950000Y-94600001D01*
G75*
G02*
X141700001Y-94850000I-249999J0D01*
G01*
X140799999Y-94850000D01*
G75*
G02*
X140550000Y-94600001I0J249999D01*
G01*
X140550000Y-93899999D01*
G75*
G02*
X140799999Y-93650000I249999J0D01*
G01*
G37*
G36*
G01*
X140799999Y-95650000D02*
X141700001Y-95650000D01*
G75*
G02*
X141950000Y-95899999I0J-249999D01*
G01*
X141950000Y-96600001D01*
G75*
G02*
X141700001Y-96850000I-249999J0D01*
G01*
X140799999Y-96850000D01*
G75*
G02*
X140550000Y-96600001I0J249999D01*
G01*
X140550000Y-95899999D01*
G75*
G02*
X140799999Y-95650000I249999J0D01*
G01*
G37*
%TD*%
%TO.C,R2*%
G36*
G01*
X132850000Y-87299999D02*
X132850000Y-88200001D01*
G75*
G02*
X132600001Y-88450000I-249999J0D01*
G01*
X131899999Y-88450000D01*
G75*
G02*
X131650000Y-88200001I0J249999D01*
G01*
X131650000Y-87299999D01*
G75*
G02*
X131899999Y-87050000I249999J0D01*
G01*
X132600001Y-87050000D01*
G75*
G02*
X132850000Y-87299999I0J-249999D01*
G01*
G37*
G36*
G01*
X130850000Y-87299999D02*
X130850000Y-88200001D01*
G75*
G02*
X130600001Y-88450000I-249999J0D01*
G01*
X129899999Y-88450000D01*
G75*
G02*
X129650000Y-88200001I0J249999D01*
G01*
X129650000Y-87299999D01*
G75*
G02*
X129899999Y-87050000I249999J0D01*
G01*
X130600001Y-87050000D01*
G75*
G02*
X130850000Y-87299999I0J-249999D01*
G01*
G37*
%TD*%
%TO.C,C2*%
G36*
G01*
X128525000Y-97625000D02*
X129475000Y-97625000D01*
G75*
G02*
X129725000Y-97875000I0J-250000D01*
G01*
X129725000Y-98550000D01*
G75*
G02*
X129475000Y-98800000I-250000J0D01*
G01*
X128525000Y-98800000D01*
G75*
G02*
X128275000Y-98550000I0J250000D01*
G01*
X128275000Y-97875000D01*
G75*
G02*
X128525000Y-97625000I250000J0D01*
G01*
G37*
G36*
G01*
X128525000Y-99700000D02*
X129475000Y-99700000D01*
G75*
G02*
X129725000Y-99950000I0J-250000D01*
G01*
X129725000Y-100625000D01*
G75*
G02*
X129475000Y-100875000I-250000J0D01*
G01*
X128525000Y-100875000D01*
G75*
G02*
X128275000Y-100625000I0J250000D01*
G01*
X128275000Y-99950000D01*
G75*
G02*
X128525000Y-99700000I250000J0D01*
G01*
G37*
%TD*%
%TO.C,C2*%
G36*
G01*
X103525000Y-99700000D02*
X104475000Y-99700000D01*
G75*
G02*
X104725000Y-99950000I0J-250000D01*
G01*
X104725000Y-100625000D01*
G75*
G02*
X104475000Y-100875000I-250000J0D01*
G01*
X103525000Y-100875000D01*
G75*
G02*
X103275000Y-100625000I0J250000D01*
G01*
X103275000Y-99950000D01*
G75*
G02*
X103525000Y-99700000I250000J0D01*
G01*
G37*
G36*
G01*
X103525000Y-97625000D02*
X104475000Y-97625000D01*
G75*
G02*
X104725000Y-97875000I0J-250000D01*
G01*
X104725000Y-98550000D01*
G75*
G02*
X104475000Y-98800000I-250000J0D01*
G01*
X103525000Y-98800000D01*
G75*
G02*
X103275000Y-98550000I0J250000D01*
G01*
X103275000Y-97875000D01*
G75*
G02*
X103525000Y-97625000I250000J0D01*
G01*
G37*
%TD*%
%TO.C,C3*%
G36*
G01*
X109275000Y-99700000D02*
X110225000Y-99700000D01*
G75*
G02*
X110475000Y-99950000I0J-250000D01*
G01*
X110475000Y-100625000D01*
G75*
G02*
X110225000Y-100875000I-250000J0D01*
G01*
X109275000Y-100875000D01*
G75*
G02*
X109025000Y-100625000I0J250000D01*
G01*
X109025000Y-99950000D01*
G75*
G02*
X109275000Y-99700000I250000J0D01*
G01*
G37*
G36*
G01*
X109275000Y-97625000D02*
X110225000Y-97625000D01*
G75*
G02*
X110475000Y-97875000I0J-250000D01*
G01*
X110475000Y-98550000D01*
G75*
G02*
X110225000Y-98800000I-250000J0D01*
G01*
X109275000Y-98800000D01*
G75*
G02*
X109025000Y-98550000I0J250000D01*
G01*
X109025000Y-97875000D01*
G75*
G02*
X109275000Y-97625000I250000J0D01*
G01*
G37*
%TD*%
%TO.C,R3*%
G36*
G01*
X115799999Y-95650000D02*
X116700001Y-95650000D01*
G75*
G02*
X116950000Y-95899999I0J-249999D01*
G01*
X116950000Y-96600001D01*
G75*
G02*
X116700001Y-96850000I-249999J0D01*
G01*
X115799999Y-96850000D01*
G75*
G02*
X115550000Y-96600001I0J249999D01*
G01*
X115550000Y-95899999D01*
G75*
G02*
X115799999Y-95650000I249999J0D01*
G01*
G37*
G36*
G01*
X115799999Y-93650000D02*
X116700001Y-93650000D01*
G75*
G02*
X116950000Y-93899999I0J-249999D01*
G01*
X116950000Y-94600001D01*
G75*
G02*
X116700001Y-94850000I-249999J0D01*
G01*
X115799999Y-94850000D01*
G75*
G02*
X115550000Y-94600001I0J249999D01*
G01*
X115550000Y-93899999D01*
G75*
G02*
X115799999Y-93650000I249999J0D01*
G01*
G37*
%TD*%
D10*
%TO.C,Q1*%
X103000000Y-91000000D03*
X105000000Y-90050000D03*
X105000000Y-91950000D03*
%TD*%
%TO.C,R1*%
G36*
G01*
X109150000Y-88200001D02*
X109150000Y-87299999D01*
G75*
G02*
X109399999Y-87050000I249999J0D01*
G01*
X110100001Y-87050000D01*
G75*
G02*
X110350000Y-87299999I0J-249999D01*
G01*
X110350000Y-88200001D01*
G75*
G02*
X110100001Y-88450000I-249999J0D01*
G01*
X109399999Y-88450000D01*
G75*
G02*
X109150000Y-88200001I0J249999D01*
G01*
G37*
G36*
G01*
X111150000Y-88200001D02*
X111150000Y-87299999D01*
G75*
G02*
X111399999Y-87050000I249999J0D01*
G01*
X112100001Y-87050000D01*
G75*
G02*
X112350000Y-87299999I0J-249999D01*
G01*
X112350000Y-88200001D01*
G75*
G02*
X112100001Y-88450000I-249999J0D01*
G01*
X111399999Y-88450000D01*
G75*
G02*
X111150000Y-88200001I0J249999D01*
G01*
G37*
%TD*%
%TO.C,Q2*%
X109750000Y-90000000D03*
X109750000Y-91900000D03*
X111750000Y-90950000D03*
%TD*%
%TO.C,C1*%
G36*
G01*
X107725000Y-92625000D02*
X106775000Y-92625000D01*
G75*
G02*
X106525000Y-92375000I0J250000D01*
G01*
X106525000Y-91700000D01*
G75*
G02*
X106775000Y-91450000I250000J0D01*
G01*
X107725000Y-91450000D01*
G75*
G02*
X107975000Y-91700000I0J-250000D01*
G01*
X107975000Y-92375000D01*
G75*
G02*
X107725000Y-92625000I-250000J0D01*
G01*
G37*
G36*
G01*
X107725000Y-90550000D02*
X106775000Y-90550000D01*
G75*
G02*
X106525000Y-90300000I0J250000D01*
G01*
X106525000Y-89625000D01*
G75*
G02*
X106775000Y-89375000I250000J0D01*
G01*
X107725000Y-89375000D01*
G75*
G02*
X107975000Y-89625000I0J-250000D01*
G01*
X107975000Y-90300000D01*
G75*
G02*
X107725000Y-90550000I-250000J0D01*
G01*
G37*
%TD*%
D12*
%TO.C,IC2*%
X112150000Y-98300000D03*
X112150000Y-99250000D03*
X112150000Y-100200000D03*
X114350000Y-100200000D03*
X114350000Y-98300000D03*
%TD*%
%TO.C,R2*%
G36*
G01*
X105850000Y-87299999D02*
X105850000Y-88200001D01*
G75*
G02*
X105600001Y-88450000I-249999J0D01*
G01*
X104899999Y-88450000D01*
G75*
G02*
X104650000Y-88200001I0J249999D01*
G01*
X104650000Y-87299999D01*
G75*
G02*
X104899999Y-87050000I249999J0D01*
G01*
X105600001Y-87050000D01*
G75*
G02*
X105850000Y-87299999I0J-249999D01*
G01*
G37*
G36*
G01*
X107850000Y-87299999D02*
X107850000Y-88200001D01*
G75*
G02*
X107600001Y-88450000I-249999J0D01*
G01*
X106899999Y-88450000D01*
G75*
G02*
X106650000Y-88200001I0J249999D01*
G01*
X106650000Y-87299999D01*
G75*
G02*
X106899999Y-87050000I249999J0D01*
G01*
X107600001Y-87050000D01*
G75*
G02*
X107850000Y-87299999I0J-249999D01*
G01*
G37*
%TD*%
D11*
%TO.C,D1*%
X106750000Y-100900000D03*
X106750000Y-97600000D03*
%TD*%
%TO.C,R4*%
G36*
G01*
X113549999Y-89400000D02*
X114450001Y-89400000D01*
G75*
G02*
X114700000Y-89649999I0J-249999D01*
G01*
X114700000Y-90350001D01*
G75*
G02*
X114450001Y-90600000I-249999J0D01*
G01*
X113549999Y-90600000D01*
G75*
G02*
X113300000Y-90350001I0J249999D01*
G01*
X113300000Y-89649999D01*
G75*
G02*
X113549999Y-89400000I249999J0D01*
G01*
G37*
G36*
G01*
X113549999Y-91400000D02*
X114450001Y-91400000D01*
G75*
G02*
X114700000Y-91649999I0J-249999D01*
G01*
X114700000Y-92350001D01*
G75*
G02*
X114450001Y-92600000I-249999J0D01*
G01*
X113549999Y-92600000D01*
G75*
G02*
X113300000Y-92350001I0J249999D01*
G01*
X113300000Y-91649999D01*
G75*
G02*
X113549999Y-91400000I249999J0D01*
G01*
G37*
%TD*%
D12*
%TO.C,IC1*%
X101600000Y-94050000D03*
X101600000Y-95950000D03*
X99400000Y-95950000D03*
X99400000Y-95000000D03*
X99400000Y-94050000D03*
%TD*%
%TO.C,C2*%
G36*
G01*
X53525000Y-99700000D02*
X54475000Y-99700000D01*
G75*
G02*
X54725000Y-99950000I0J-250000D01*
G01*
X54725000Y-100625000D01*
G75*
G02*
X54475000Y-100875000I-250000J0D01*
G01*
X53525000Y-100875000D01*
G75*
G02*
X53275000Y-100625000I0J250000D01*
G01*
X53275000Y-99950000D01*
G75*
G02*
X53525000Y-99700000I250000J0D01*
G01*
G37*
G36*
G01*
X53525000Y-97625000D02*
X54475000Y-97625000D01*
G75*
G02*
X54725000Y-97875000I0J-250000D01*
G01*
X54725000Y-98550000D01*
G75*
G02*
X54475000Y-98800000I-250000J0D01*
G01*
X53525000Y-98800000D01*
G75*
G02*
X53275000Y-98550000I0J250000D01*
G01*
X53275000Y-97875000D01*
G75*
G02*
X53525000Y-97625000I250000J0D01*
G01*
G37*
%TD*%
%TO.C,IC2*%
X62150000Y-98300000D03*
X62150000Y-99250000D03*
X62150000Y-100200000D03*
X64350000Y-100200000D03*
X64350000Y-98300000D03*
%TD*%
%TO.C,R2*%
G36*
G01*
X55850000Y-87299999D02*
X55850000Y-88200001D01*
G75*
G02*
X55600001Y-88450000I-249999J0D01*
G01*
X54899999Y-88450000D01*
G75*
G02*
X54650000Y-88200001I0J249999D01*
G01*
X54650000Y-87299999D01*
G75*
G02*
X54899999Y-87050000I249999J0D01*
G01*
X55600001Y-87050000D01*
G75*
G02*
X55850000Y-87299999I0J-249999D01*
G01*
G37*
G36*
G01*
X57850000Y-87299999D02*
X57850000Y-88200001D01*
G75*
G02*
X57600001Y-88450000I-249999J0D01*
G01*
X56899999Y-88450000D01*
G75*
G02*
X56650000Y-88200001I0J249999D01*
G01*
X56650000Y-87299999D01*
G75*
G02*
X56899999Y-87050000I249999J0D01*
G01*
X57600001Y-87050000D01*
G75*
G02*
X57850000Y-87299999I0J-249999D01*
G01*
G37*
%TD*%
D11*
%TO.C,D1*%
X56750000Y-100900000D03*
X56750000Y-97600000D03*
%TD*%
D10*
%TO.C,Q2*%
X59750000Y-90000000D03*
X59750000Y-91900000D03*
X61750000Y-90950000D03*
%TD*%
%TO.C,C3*%
G36*
G01*
X59275000Y-99700000D02*
X60225000Y-99700000D01*
G75*
G02*
X60475000Y-99950000I0J-250000D01*
G01*
X60475000Y-100625000D01*
G75*
G02*
X60225000Y-100875000I-250000J0D01*
G01*
X59275000Y-100875000D01*
G75*
G02*
X59025000Y-100625000I0J250000D01*
G01*
X59025000Y-99950000D01*
G75*
G02*
X59275000Y-99700000I250000J0D01*
G01*
G37*
G36*
G01*
X59275000Y-97625000D02*
X60225000Y-97625000D01*
G75*
G02*
X60475000Y-97875000I0J-250000D01*
G01*
X60475000Y-98550000D01*
G75*
G02*
X60225000Y-98800000I-250000J0D01*
G01*
X59275000Y-98800000D01*
G75*
G02*
X59025000Y-98550000I0J250000D01*
G01*
X59025000Y-97875000D01*
G75*
G02*
X59275000Y-97625000I250000J0D01*
G01*
G37*
%TD*%
%TO.C,R4*%
G36*
G01*
X63549999Y-89400000D02*
X64450001Y-89400000D01*
G75*
G02*
X64700000Y-89649999I0J-249999D01*
G01*
X64700000Y-90350001D01*
G75*
G02*
X64450001Y-90600000I-249999J0D01*
G01*
X63549999Y-90600000D01*
G75*
G02*
X63300000Y-90350001I0J249999D01*
G01*
X63300000Y-89649999D01*
G75*
G02*
X63549999Y-89400000I249999J0D01*
G01*
G37*
G36*
G01*
X63549999Y-91400000D02*
X64450001Y-91400000D01*
G75*
G02*
X64700000Y-91649999I0J-249999D01*
G01*
X64700000Y-92350001D01*
G75*
G02*
X64450001Y-92600000I-249999J0D01*
G01*
X63549999Y-92600000D01*
G75*
G02*
X63300000Y-92350001I0J249999D01*
G01*
X63300000Y-91649999D01*
G75*
G02*
X63549999Y-91400000I249999J0D01*
G01*
G37*
%TD*%
%TO.C,R1*%
G36*
G01*
X59150000Y-88200001D02*
X59150000Y-87299999D01*
G75*
G02*
X59399999Y-87050000I249999J0D01*
G01*
X60100001Y-87050000D01*
G75*
G02*
X60350000Y-87299999I0J-249999D01*
G01*
X60350000Y-88200001D01*
G75*
G02*
X60100001Y-88450000I-249999J0D01*
G01*
X59399999Y-88450000D01*
G75*
G02*
X59150000Y-88200001I0J249999D01*
G01*
G37*
G36*
G01*
X61150000Y-88200001D02*
X61150000Y-87299999D01*
G75*
G02*
X61399999Y-87050000I249999J0D01*
G01*
X62100001Y-87050000D01*
G75*
G02*
X62350000Y-87299999I0J-249999D01*
G01*
X62350000Y-88200001D01*
G75*
G02*
X62100001Y-88450000I-249999J0D01*
G01*
X61399999Y-88450000D01*
G75*
G02*
X61150000Y-88200001I0J249999D01*
G01*
G37*
%TD*%
%TO.C,C1*%
G36*
G01*
X57725000Y-92625000D02*
X56775000Y-92625000D01*
G75*
G02*
X56525000Y-92375000I0J250000D01*
G01*
X56525000Y-91700000D01*
G75*
G02*
X56775000Y-91450000I250000J0D01*
G01*
X57725000Y-91450000D01*
G75*
G02*
X57975000Y-91700000I0J-250000D01*
G01*
X57975000Y-92375000D01*
G75*
G02*
X57725000Y-92625000I-250000J0D01*
G01*
G37*
G36*
G01*
X57725000Y-90550000D02*
X56775000Y-90550000D01*
G75*
G02*
X56525000Y-90300000I0J250000D01*
G01*
X56525000Y-89625000D01*
G75*
G02*
X56775000Y-89375000I250000J0D01*
G01*
X57725000Y-89375000D01*
G75*
G02*
X57975000Y-89625000I0J-250000D01*
G01*
X57975000Y-90300000D01*
G75*
G02*
X57725000Y-90550000I-250000J0D01*
G01*
G37*
%TD*%
%TO.C,Q1*%
X53000000Y-91000000D03*
X55000000Y-90050000D03*
X55000000Y-91950000D03*
%TD*%
D12*
%TO.C,IC1*%
X51600000Y-94050000D03*
X51600000Y-95950000D03*
X49400000Y-95950000D03*
X49400000Y-95000000D03*
X49400000Y-94050000D03*
%TD*%
%TO.C,R3*%
G36*
G01*
X65799999Y-95650000D02*
X66700001Y-95650000D01*
G75*
G02*
X66950000Y-95899999I0J-249999D01*
G01*
X66950000Y-96600001D01*
G75*
G02*
X66700001Y-96850000I-249999J0D01*
G01*
X65799999Y-96850000D01*
G75*
G02*
X65550000Y-96600001I0J249999D01*
G01*
X65550000Y-95899999D01*
G75*
G02*
X65799999Y-95650000I249999J0D01*
G01*
G37*
G36*
G01*
X65799999Y-93650000D02*
X66700001Y-93650000D01*
G75*
G02*
X66950000Y-93899999I0J-249999D01*
G01*
X66950000Y-94600001D01*
G75*
G02*
X66700001Y-94850000I-249999J0D01*
G01*
X65799999Y-94850000D01*
G75*
G02*
X65550000Y-94600001I0J249999D01*
G01*
X65550000Y-93899999D01*
G75*
G02*
X65799999Y-93650000I249999J0D01*
G01*
G37*
%TD*%
%TO.C,IC1*%
X126600000Y-94050000D03*
X126600000Y-95950000D03*
X124400000Y-95950000D03*
X124400000Y-95000000D03*
X124400000Y-94050000D03*
%TD*%
%TO.C,C3*%
G36*
G01*
X134275000Y-99700000D02*
X135225000Y-99700000D01*
G75*
G02*
X135475000Y-99950000I0J-250000D01*
G01*
X135475000Y-100625000D01*
G75*
G02*
X135225000Y-100875000I-250000J0D01*
G01*
X134275000Y-100875000D01*
G75*
G02*
X134025000Y-100625000I0J250000D01*
G01*
X134025000Y-99950000D01*
G75*
G02*
X134275000Y-99700000I250000J0D01*
G01*
G37*
G36*
G01*
X134275000Y-97625000D02*
X135225000Y-97625000D01*
G75*
G02*
X135475000Y-97875000I0J-250000D01*
G01*
X135475000Y-98550000D01*
G75*
G02*
X135225000Y-98800000I-250000J0D01*
G01*
X134275000Y-98800000D01*
G75*
G02*
X134025000Y-98550000I0J250000D01*
G01*
X134025000Y-97875000D01*
G75*
G02*
X134275000Y-97625000I250000J0D01*
G01*
G37*
%TD*%
D10*
%TO.C,Q2*%
X134750000Y-90000000D03*
X134750000Y-91900000D03*
X136750000Y-90950000D03*
%TD*%
%TO.C,R2*%
G36*
G01*
X130850000Y-87299999D02*
X130850000Y-88200001D01*
G75*
G02*
X130600001Y-88450000I-249999J0D01*
G01*
X129899999Y-88450000D01*
G75*
G02*
X129650000Y-88200001I0J249999D01*
G01*
X129650000Y-87299999D01*
G75*
G02*
X129899999Y-87050000I249999J0D01*
G01*
X130600001Y-87050000D01*
G75*
G02*
X130850000Y-87299999I0J-249999D01*
G01*
G37*
G36*
G01*
X132850000Y-87299999D02*
X132850000Y-88200001D01*
G75*
G02*
X132600001Y-88450000I-249999J0D01*
G01*
X131899999Y-88450000D01*
G75*
G02*
X131650000Y-88200001I0J249999D01*
G01*
X131650000Y-87299999D01*
G75*
G02*
X131899999Y-87050000I249999J0D01*
G01*
X132600001Y-87050000D01*
G75*
G02*
X132850000Y-87299999I0J-249999D01*
G01*
G37*
%TD*%
%TO.C,R3*%
G36*
G01*
X140799999Y-95650000D02*
X141700001Y-95650000D01*
G75*
G02*
X141950000Y-95899999I0J-249999D01*
G01*
X141950000Y-96600001D01*
G75*
G02*
X141700001Y-96850000I-249999J0D01*
G01*
X140799999Y-96850000D01*
G75*
G02*
X140550000Y-96600001I0J249999D01*
G01*
X140550000Y-95899999D01*
G75*
G02*
X140799999Y-95650000I249999J0D01*
G01*
G37*
G36*
G01*
X140799999Y-93650000D02*
X141700001Y-93650000D01*
G75*
G02*
X141950000Y-93899999I0J-249999D01*
G01*
X141950000Y-94600001D01*
G75*
G02*
X141700001Y-94850000I-249999J0D01*
G01*
X140799999Y-94850000D01*
G75*
G02*
X140550000Y-94600001I0J249999D01*
G01*
X140550000Y-93899999D01*
G75*
G02*
X140799999Y-93650000I249999J0D01*
G01*
G37*
%TD*%
%TO.C,R1*%
G36*
G01*
X134150000Y-88200001D02*
X134150000Y-87299999D01*
G75*
G02*
X134399999Y-87050000I249999J0D01*
G01*
X135100001Y-87050000D01*
G75*
G02*
X135350000Y-87299999I0J-249999D01*
G01*
X135350000Y-88200001D01*
G75*
G02*
X135100001Y-88450000I-249999J0D01*
G01*
X134399999Y-88450000D01*
G75*
G02*
X134150000Y-88200001I0J249999D01*
G01*
G37*
G36*
G01*
X136150000Y-88200001D02*
X136150000Y-87299999D01*
G75*
G02*
X136399999Y-87050000I249999J0D01*
G01*
X137100001Y-87050000D01*
G75*
G02*
X137350000Y-87299999I0J-249999D01*
G01*
X137350000Y-88200001D01*
G75*
G02*
X137100001Y-88450000I-249999J0D01*
G01*
X136399999Y-88450000D01*
G75*
G02*
X136150000Y-88200001I0J249999D01*
G01*
G37*
%TD*%
D11*
%TO.C,D1*%
X131750000Y-100900000D03*
X131750000Y-97600000D03*
%TD*%
D10*
%TO.C,Q1*%
X128000000Y-91000000D03*
X130000000Y-90050000D03*
X130000000Y-91950000D03*
%TD*%
%TO.C,C1*%
G36*
G01*
X132725000Y-92625000D02*
X131775000Y-92625000D01*
G75*
G02*
X131525000Y-92375000I0J250000D01*
G01*
X131525000Y-91700000D01*
G75*
G02*
X131775000Y-91450000I250000J0D01*
G01*
X132725000Y-91450000D01*
G75*
G02*
X132975000Y-91700000I0J-250000D01*
G01*
X132975000Y-92375000D01*
G75*
G02*
X132725000Y-92625000I-250000J0D01*
G01*
G37*
G36*
G01*
X132725000Y-90550000D02*
X131775000Y-90550000D01*
G75*
G02*
X131525000Y-90300000I0J250000D01*
G01*
X131525000Y-89625000D01*
G75*
G02*
X131775000Y-89375000I250000J0D01*
G01*
X132725000Y-89375000D01*
G75*
G02*
X132975000Y-89625000I0J-250000D01*
G01*
X132975000Y-90300000D01*
G75*
G02*
X132725000Y-90550000I-250000J0D01*
G01*
G37*
%TD*%
D12*
%TO.C,IC2*%
X137150000Y-98300000D03*
X137150000Y-99250000D03*
X137150000Y-100200000D03*
X139350000Y-100200000D03*
X139350000Y-98300000D03*
%TD*%
%TO.C,R4*%
G36*
G01*
X138549999Y-89400000D02*
X139450001Y-89400000D01*
G75*
G02*
X139700000Y-89649999I0J-249999D01*
G01*
X139700000Y-90350001D01*
G75*
G02*
X139450001Y-90600000I-249999J0D01*
G01*
X138549999Y-90600000D01*
G75*
G02*
X138300000Y-90350001I0J249999D01*
G01*
X138300000Y-89649999D01*
G75*
G02*
X138549999Y-89400000I249999J0D01*
G01*
G37*
G36*
G01*
X138549999Y-91400000D02*
X139450001Y-91400000D01*
G75*
G02*
X139700000Y-91649999I0J-249999D01*
G01*
X139700000Y-92350001D01*
G75*
G02*
X139450001Y-92600000I-249999J0D01*
G01*
X138549999Y-92600000D01*
G75*
G02*
X138300000Y-92350001I0J249999D01*
G01*
X138300000Y-91649999D01*
G75*
G02*
X138549999Y-91400000I249999J0D01*
G01*
G37*
%TD*%
%TO.C,C2*%
G36*
G01*
X128525000Y-99700000D02*
X129475000Y-99700000D01*
G75*
G02*
X129725000Y-99950000I0J-250000D01*
G01*
X129725000Y-100625000D01*
G75*
G02*
X129475000Y-100875000I-250000J0D01*
G01*
X128525000Y-100875000D01*
G75*
G02*
X128275000Y-100625000I0J250000D01*
G01*
X128275000Y-99950000D01*
G75*
G02*
X128525000Y-99700000I250000J0D01*
G01*
G37*
G36*
G01*
X128525000Y-97625000D02*
X129475000Y-97625000D01*
G75*
G02*
X129725000Y-97875000I0J-250000D01*
G01*
X129725000Y-98550000D01*
G75*
G02*
X129475000Y-98800000I-250000J0D01*
G01*
X128525000Y-98800000D01*
G75*
G02*
X128275000Y-98550000I0J250000D01*
G01*
X128275000Y-97875000D01*
G75*
G02*
X128525000Y-97625000I250000J0D01*
G01*
G37*
%TD*%
%TO.C,C2*%
G36*
G01*
X78525000Y-97625000D02*
X79475000Y-97625000D01*
G75*
G02*
X79725000Y-97875000I0J-250000D01*
G01*
X79725000Y-98550000D01*
G75*
G02*
X79475000Y-98800000I-250000J0D01*
G01*
X78525000Y-98800000D01*
G75*
G02*
X78275000Y-98550000I0J250000D01*
G01*
X78275000Y-97875000D01*
G75*
G02*
X78525000Y-97625000I250000J0D01*
G01*
G37*
G36*
G01*
X78525000Y-99700000D02*
X79475000Y-99700000D01*
G75*
G02*
X79725000Y-99950000I0J-250000D01*
G01*
X79725000Y-100625000D01*
G75*
G02*
X79475000Y-100875000I-250000J0D01*
G01*
X78525000Y-100875000D01*
G75*
G02*
X78275000Y-100625000I0J250000D01*
G01*
X78275000Y-99950000D01*
G75*
G02*
X78525000Y-99700000I250000J0D01*
G01*
G37*
%TD*%
%TO.C,R3*%
G36*
G01*
X90799999Y-93650000D02*
X91700001Y-93650000D01*
G75*
G02*
X91950000Y-93899999I0J-249999D01*
G01*
X91950000Y-94600001D01*
G75*
G02*
X91700001Y-94850000I-249999J0D01*
G01*
X90799999Y-94850000D01*
G75*
G02*
X90550000Y-94600001I0J249999D01*
G01*
X90550000Y-93899999D01*
G75*
G02*
X90799999Y-93650000I249999J0D01*
G01*
G37*
G36*
G01*
X90799999Y-95650000D02*
X91700001Y-95650000D01*
G75*
G02*
X91950000Y-95899999I0J-249999D01*
G01*
X91950000Y-96600001D01*
G75*
G02*
X91700001Y-96850000I-249999J0D01*
G01*
X90799999Y-96850000D01*
G75*
G02*
X90550000Y-96600001I0J249999D01*
G01*
X90550000Y-95899999D01*
G75*
G02*
X90799999Y-95650000I249999J0D01*
G01*
G37*
%TD*%
%TO.C,C3*%
G36*
G01*
X84275000Y-97625000D02*
X85225000Y-97625000D01*
G75*
G02*
X85475000Y-97875000I0J-250000D01*
G01*
X85475000Y-98550000D01*
G75*
G02*
X85225000Y-98800000I-250000J0D01*
G01*
X84275000Y-98800000D01*
G75*
G02*
X84025000Y-98550000I0J250000D01*
G01*
X84025000Y-97875000D01*
G75*
G02*
X84275000Y-97625000I250000J0D01*
G01*
G37*
G36*
G01*
X84275000Y-99700000D02*
X85225000Y-99700000D01*
G75*
G02*
X85475000Y-99950000I0J-250000D01*
G01*
X85475000Y-100625000D01*
G75*
G02*
X85225000Y-100875000I-250000J0D01*
G01*
X84275000Y-100875000D01*
G75*
G02*
X84025000Y-100625000I0J250000D01*
G01*
X84025000Y-99950000D01*
G75*
G02*
X84275000Y-99700000I250000J0D01*
G01*
G37*
%TD*%
D10*
%TO.C,Q1*%
X80000000Y-91950000D03*
X80000000Y-90050000D03*
X78000000Y-91000000D03*
%TD*%
D11*
%TO.C,D1*%
X81750000Y-97600000D03*
X81750000Y-100900000D03*
%TD*%
%TO.C,R1*%
G36*
G01*
X86150000Y-88200001D02*
X86150000Y-87299999D01*
G75*
G02*
X86399999Y-87050000I249999J0D01*
G01*
X87100001Y-87050000D01*
G75*
G02*
X87350000Y-87299999I0J-249999D01*
G01*
X87350000Y-88200001D01*
G75*
G02*
X87100001Y-88450000I-249999J0D01*
G01*
X86399999Y-88450000D01*
G75*
G02*
X86150000Y-88200001I0J249999D01*
G01*
G37*
G36*
G01*
X84150000Y-88200001D02*
X84150000Y-87299999D01*
G75*
G02*
X84399999Y-87050000I249999J0D01*
G01*
X85100001Y-87050000D01*
G75*
G02*
X85350000Y-87299999I0J-249999D01*
G01*
X85350000Y-88200001D01*
G75*
G02*
X85100001Y-88450000I-249999J0D01*
G01*
X84399999Y-88450000D01*
G75*
G02*
X84150000Y-88200001I0J249999D01*
G01*
G37*
%TD*%
D10*
%TO.C,Q2*%
X86750000Y-90950000D03*
X84750000Y-91900000D03*
X84750000Y-90000000D03*
%TD*%
D12*
%TO.C,IC1*%
X74400000Y-94050000D03*
X74400000Y-95000000D03*
X74400000Y-95950000D03*
X76600000Y-95950000D03*
X76600000Y-94050000D03*
%TD*%
%TO.C,R4*%
G36*
G01*
X88549999Y-91400000D02*
X89450001Y-91400000D01*
G75*
G02*
X89700000Y-91649999I0J-249999D01*
G01*
X89700000Y-92350001D01*
G75*
G02*
X89450001Y-92600000I-249999J0D01*
G01*
X88549999Y-92600000D01*
G75*
G02*
X88300000Y-92350001I0J249999D01*
G01*
X88300000Y-91649999D01*
G75*
G02*
X88549999Y-91400000I249999J0D01*
G01*
G37*
G36*
G01*
X88549999Y-89400000D02*
X89450001Y-89400000D01*
G75*
G02*
X89700000Y-89649999I0J-249999D01*
G01*
X89700000Y-90350001D01*
G75*
G02*
X89450001Y-90600000I-249999J0D01*
G01*
X88549999Y-90600000D01*
G75*
G02*
X88300000Y-90350001I0J249999D01*
G01*
X88300000Y-89649999D01*
G75*
G02*
X88549999Y-89400000I249999J0D01*
G01*
G37*
%TD*%
%TO.C,C1*%
G36*
G01*
X82725000Y-90550000D02*
X81775000Y-90550000D01*
G75*
G02*
X81525000Y-90300000I0J250000D01*
G01*
X81525000Y-89625000D01*
G75*
G02*
X81775000Y-89375000I250000J0D01*
G01*
X82725000Y-89375000D01*
G75*
G02*
X82975000Y-89625000I0J-250000D01*
G01*
X82975000Y-90300000D01*
G75*
G02*
X82725000Y-90550000I-250000J0D01*
G01*
G37*
G36*
G01*
X82725000Y-92625000D02*
X81775000Y-92625000D01*
G75*
G02*
X81525000Y-92375000I0J250000D01*
G01*
X81525000Y-91700000D01*
G75*
G02*
X81775000Y-91450000I250000J0D01*
G01*
X82725000Y-91450000D01*
G75*
G02*
X82975000Y-91700000I0J-250000D01*
G01*
X82975000Y-92375000D01*
G75*
G02*
X82725000Y-92625000I-250000J0D01*
G01*
G37*
%TD*%
%TO.C,IC2*%
X89350000Y-98300000D03*
X89350000Y-100200000D03*
X87150000Y-100200000D03*
X87150000Y-99250000D03*
X87150000Y-98300000D03*
%TD*%
%TO.C,R2*%
G36*
G01*
X82850000Y-87299999D02*
X82850000Y-88200001D01*
G75*
G02*
X82600001Y-88450000I-249999J0D01*
G01*
X81899999Y-88450000D01*
G75*
G02*
X81650000Y-88200001I0J249999D01*
G01*
X81650000Y-87299999D01*
G75*
G02*
X81899999Y-87050000I249999J0D01*
G01*
X82600001Y-87050000D01*
G75*
G02*
X82850000Y-87299999I0J-249999D01*
G01*
G37*
G36*
G01*
X80850000Y-87299999D02*
X80850000Y-88200001D01*
G75*
G02*
X80600001Y-88450000I-249999J0D01*
G01*
X79899999Y-88450000D01*
G75*
G02*
X79650000Y-88200001I0J249999D01*
G01*
X79650000Y-87299999D01*
G75*
G02*
X79899999Y-87050000I249999J0D01*
G01*
X80600001Y-87050000D01*
G75*
G02*
X80850000Y-87299999I0J-249999D01*
G01*
G37*
%TD*%
%TO.C,C2*%
G36*
G01*
X128525000Y-72625000D02*
X129475000Y-72625000D01*
G75*
G02*
X129725000Y-72875000I0J-250000D01*
G01*
X129725000Y-73550000D01*
G75*
G02*
X129475000Y-73800000I-250000J0D01*
G01*
X128525000Y-73800000D01*
G75*
G02*
X128275000Y-73550000I0J250000D01*
G01*
X128275000Y-72875000D01*
G75*
G02*
X128525000Y-72625000I250000J0D01*
G01*
G37*
G36*
G01*
X128525000Y-74700000D02*
X129475000Y-74700000D01*
G75*
G02*
X129725000Y-74950000I0J-250000D01*
G01*
X129725000Y-75625000D01*
G75*
G02*
X129475000Y-75875000I-250000J0D01*
G01*
X128525000Y-75875000D01*
G75*
G02*
X128275000Y-75625000I0J250000D01*
G01*
X128275000Y-74950000D01*
G75*
G02*
X128525000Y-74700000I250000J0D01*
G01*
G37*
%TD*%
%TO.C,R4*%
G36*
G01*
X138549999Y-66400000D02*
X139450001Y-66400000D01*
G75*
G02*
X139700000Y-66649999I0J-249999D01*
G01*
X139700000Y-67350001D01*
G75*
G02*
X139450001Y-67600000I-249999J0D01*
G01*
X138549999Y-67600000D01*
G75*
G02*
X138300000Y-67350001I0J249999D01*
G01*
X138300000Y-66649999D01*
G75*
G02*
X138549999Y-66400000I249999J0D01*
G01*
G37*
G36*
G01*
X138549999Y-64400000D02*
X139450001Y-64400000D01*
G75*
G02*
X139700000Y-64649999I0J-249999D01*
G01*
X139700000Y-65350001D01*
G75*
G02*
X139450001Y-65600000I-249999J0D01*
G01*
X138549999Y-65600000D01*
G75*
G02*
X138300000Y-65350001I0J249999D01*
G01*
X138300000Y-64649999D01*
G75*
G02*
X138549999Y-64400000I249999J0D01*
G01*
G37*
%TD*%
%TO.C,IC2*%
X139350000Y-73300000D03*
X139350000Y-75200000D03*
X137150000Y-75200000D03*
X137150000Y-74250000D03*
X137150000Y-73300000D03*
%TD*%
%TO.C,C1*%
G36*
G01*
X132725000Y-65550000D02*
X131775000Y-65550000D01*
G75*
G02*
X131525000Y-65300000I0J250000D01*
G01*
X131525000Y-64625000D01*
G75*
G02*
X131775000Y-64375000I250000J0D01*
G01*
X132725000Y-64375000D01*
G75*
G02*
X132975000Y-64625000I0J-250000D01*
G01*
X132975000Y-65300000D01*
G75*
G02*
X132725000Y-65550000I-250000J0D01*
G01*
G37*
G36*
G01*
X132725000Y-67625000D02*
X131775000Y-67625000D01*
G75*
G02*
X131525000Y-67375000I0J250000D01*
G01*
X131525000Y-66700000D01*
G75*
G02*
X131775000Y-66450000I250000J0D01*
G01*
X132725000Y-66450000D01*
G75*
G02*
X132975000Y-66700000I0J-250000D01*
G01*
X132975000Y-67375000D01*
G75*
G02*
X132725000Y-67625000I-250000J0D01*
G01*
G37*
%TD*%
D10*
%TO.C,Q1*%
X130000000Y-66950000D03*
X130000000Y-65050000D03*
X128000000Y-66000000D03*
%TD*%
D11*
%TO.C,D1*%
X131750000Y-72600000D03*
X131750000Y-75900000D03*
%TD*%
%TO.C,R1*%
G36*
G01*
X136150000Y-63200001D02*
X136150000Y-62299999D01*
G75*
G02*
X136399999Y-62050000I249999J0D01*
G01*
X137100001Y-62050000D01*
G75*
G02*
X137350000Y-62299999I0J-249999D01*
G01*
X137350000Y-63200001D01*
G75*
G02*
X137100001Y-63450000I-249999J0D01*
G01*
X136399999Y-63450000D01*
G75*
G02*
X136150000Y-63200001I0J249999D01*
G01*
G37*
G36*
G01*
X134150000Y-63200001D02*
X134150000Y-62299999D01*
G75*
G02*
X134399999Y-62050000I249999J0D01*
G01*
X135100001Y-62050000D01*
G75*
G02*
X135350000Y-62299999I0J-249999D01*
G01*
X135350000Y-63200001D01*
G75*
G02*
X135100001Y-63450000I-249999J0D01*
G01*
X134399999Y-63450000D01*
G75*
G02*
X134150000Y-63200001I0J249999D01*
G01*
G37*
%TD*%
%TO.C,R3*%
G36*
G01*
X140799999Y-68650000D02*
X141700001Y-68650000D01*
G75*
G02*
X141950000Y-68899999I0J-249999D01*
G01*
X141950000Y-69600001D01*
G75*
G02*
X141700001Y-69850000I-249999J0D01*
G01*
X140799999Y-69850000D01*
G75*
G02*
X140550000Y-69600001I0J249999D01*
G01*
X140550000Y-68899999D01*
G75*
G02*
X140799999Y-68650000I249999J0D01*
G01*
G37*
G36*
G01*
X140799999Y-70650000D02*
X141700001Y-70650000D01*
G75*
G02*
X141950000Y-70899999I0J-249999D01*
G01*
X141950000Y-71600001D01*
G75*
G02*
X141700001Y-71850000I-249999J0D01*
G01*
X140799999Y-71850000D01*
G75*
G02*
X140550000Y-71600001I0J249999D01*
G01*
X140550000Y-70899999D01*
G75*
G02*
X140799999Y-70650000I249999J0D01*
G01*
G37*
%TD*%
%TO.C,R2*%
G36*
G01*
X132850000Y-62299999D02*
X132850000Y-63200001D01*
G75*
G02*
X132600001Y-63450000I-249999J0D01*
G01*
X131899999Y-63450000D01*
G75*
G02*
X131650000Y-63200001I0J249999D01*
G01*
X131650000Y-62299999D01*
G75*
G02*
X131899999Y-62050000I249999J0D01*
G01*
X132600001Y-62050000D01*
G75*
G02*
X132850000Y-62299999I0J-249999D01*
G01*
G37*
G36*
G01*
X130850000Y-62299999D02*
X130850000Y-63200001D01*
G75*
G02*
X130600001Y-63450000I-249999J0D01*
G01*
X129899999Y-63450000D01*
G75*
G02*
X129650000Y-63200001I0J249999D01*
G01*
X129650000Y-62299999D01*
G75*
G02*
X129899999Y-62050000I249999J0D01*
G01*
X130600001Y-62050000D01*
G75*
G02*
X130850000Y-62299999I0J-249999D01*
G01*
G37*
%TD*%
D10*
%TO.C,Q2*%
X136750000Y-65950000D03*
X134750000Y-66900000D03*
X134750000Y-65000000D03*
%TD*%
%TO.C,C3*%
G36*
G01*
X134275000Y-72625000D02*
X135225000Y-72625000D01*
G75*
G02*
X135475000Y-72875000I0J-250000D01*
G01*
X135475000Y-73550000D01*
G75*
G02*
X135225000Y-73800000I-250000J0D01*
G01*
X134275000Y-73800000D01*
G75*
G02*
X134025000Y-73550000I0J250000D01*
G01*
X134025000Y-72875000D01*
G75*
G02*
X134275000Y-72625000I250000J0D01*
G01*
G37*
G36*
G01*
X134275000Y-74700000D02*
X135225000Y-74700000D01*
G75*
G02*
X135475000Y-74950000I0J-250000D01*
G01*
X135475000Y-75625000D01*
G75*
G02*
X135225000Y-75875000I-250000J0D01*
G01*
X134275000Y-75875000D01*
G75*
G02*
X134025000Y-75625000I0J250000D01*
G01*
X134025000Y-74950000D01*
G75*
G02*
X134275000Y-74700000I250000J0D01*
G01*
G37*
%TD*%
D12*
%TO.C,IC1*%
X124400000Y-69050000D03*
X124400000Y-70000000D03*
X124400000Y-70950000D03*
X126600000Y-70950000D03*
X126600000Y-69050000D03*
%TD*%
%TO.C,C2*%
G36*
G01*
X128525000Y-74700000D02*
X129475000Y-74700000D01*
G75*
G02*
X129725000Y-74950000I0J-250000D01*
G01*
X129725000Y-75625000D01*
G75*
G02*
X129475000Y-75875000I-250000J0D01*
G01*
X128525000Y-75875000D01*
G75*
G02*
X128275000Y-75625000I0J250000D01*
G01*
X128275000Y-74950000D01*
G75*
G02*
X128525000Y-74700000I250000J0D01*
G01*
G37*
G36*
G01*
X128525000Y-72625000D02*
X129475000Y-72625000D01*
G75*
G02*
X129725000Y-72875000I0J-250000D01*
G01*
X129725000Y-73550000D01*
G75*
G02*
X129475000Y-73800000I-250000J0D01*
G01*
X128525000Y-73800000D01*
G75*
G02*
X128275000Y-73550000I0J250000D01*
G01*
X128275000Y-72875000D01*
G75*
G02*
X128525000Y-72625000I250000J0D01*
G01*
G37*
%TD*%
%TO.C,C3*%
G36*
G01*
X134275000Y-74700000D02*
X135225000Y-74700000D01*
G75*
G02*
X135475000Y-74950000I0J-250000D01*
G01*
X135475000Y-75625000D01*
G75*
G02*
X135225000Y-75875000I-250000J0D01*
G01*
X134275000Y-75875000D01*
G75*
G02*
X134025000Y-75625000I0J250000D01*
G01*
X134025000Y-74950000D01*
G75*
G02*
X134275000Y-74700000I250000J0D01*
G01*
G37*
G36*
G01*
X134275000Y-72625000D02*
X135225000Y-72625000D01*
G75*
G02*
X135475000Y-72875000I0J-250000D01*
G01*
X135475000Y-73550000D01*
G75*
G02*
X135225000Y-73800000I-250000J0D01*
G01*
X134275000Y-73800000D01*
G75*
G02*
X134025000Y-73550000I0J250000D01*
G01*
X134025000Y-72875000D01*
G75*
G02*
X134275000Y-72625000I250000J0D01*
G01*
G37*
%TD*%
%TO.C,R3*%
G36*
G01*
X140799999Y-70650000D02*
X141700001Y-70650000D01*
G75*
G02*
X141950000Y-70899999I0J-249999D01*
G01*
X141950000Y-71600001D01*
G75*
G02*
X141700001Y-71850000I-249999J0D01*
G01*
X140799999Y-71850000D01*
G75*
G02*
X140550000Y-71600001I0J249999D01*
G01*
X140550000Y-70899999D01*
G75*
G02*
X140799999Y-70650000I249999J0D01*
G01*
G37*
G36*
G01*
X140799999Y-68650000D02*
X141700001Y-68650000D01*
G75*
G02*
X141950000Y-68899999I0J-249999D01*
G01*
X141950000Y-69600001D01*
G75*
G02*
X141700001Y-69850000I-249999J0D01*
G01*
X140799999Y-69850000D01*
G75*
G02*
X140550000Y-69600001I0J249999D01*
G01*
X140550000Y-68899999D01*
G75*
G02*
X140799999Y-68650000I249999J0D01*
G01*
G37*
%TD*%
D10*
%TO.C,Q1*%
X128000000Y-66000000D03*
X130000000Y-65050000D03*
X130000000Y-66950000D03*
%TD*%
%TO.C,R1*%
G36*
G01*
X134150000Y-63200001D02*
X134150000Y-62299999D01*
G75*
G02*
X134399999Y-62050000I249999J0D01*
G01*
X135100001Y-62050000D01*
G75*
G02*
X135350000Y-62299999I0J-249999D01*
G01*
X135350000Y-63200001D01*
G75*
G02*
X135100001Y-63450000I-249999J0D01*
G01*
X134399999Y-63450000D01*
G75*
G02*
X134150000Y-63200001I0J249999D01*
G01*
G37*
G36*
G01*
X136150000Y-63200001D02*
X136150000Y-62299999D01*
G75*
G02*
X136399999Y-62050000I249999J0D01*
G01*
X137100001Y-62050000D01*
G75*
G02*
X137350000Y-62299999I0J-249999D01*
G01*
X137350000Y-63200001D01*
G75*
G02*
X137100001Y-63450000I-249999J0D01*
G01*
X136399999Y-63450000D01*
G75*
G02*
X136150000Y-63200001I0J249999D01*
G01*
G37*
%TD*%
%TO.C,Q2*%
X134750000Y-65000000D03*
X134750000Y-66900000D03*
X136750000Y-65950000D03*
%TD*%
%TO.C,C1*%
G36*
G01*
X132725000Y-67625000D02*
X131775000Y-67625000D01*
G75*
G02*
X131525000Y-67375000I0J250000D01*
G01*
X131525000Y-66700000D01*
G75*
G02*
X131775000Y-66450000I250000J0D01*
G01*
X132725000Y-66450000D01*
G75*
G02*
X132975000Y-66700000I0J-250000D01*
G01*
X132975000Y-67375000D01*
G75*
G02*
X132725000Y-67625000I-250000J0D01*
G01*
G37*
G36*
G01*
X132725000Y-65550000D02*
X131775000Y-65550000D01*
G75*
G02*
X131525000Y-65300000I0J250000D01*
G01*
X131525000Y-64625000D01*
G75*
G02*
X131775000Y-64375000I250000J0D01*
G01*
X132725000Y-64375000D01*
G75*
G02*
X132975000Y-64625000I0J-250000D01*
G01*
X132975000Y-65300000D01*
G75*
G02*
X132725000Y-65550000I-250000J0D01*
G01*
G37*
%TD*%
D12*
%TO.C,IC2*%
X137150000Y-73300000D03*
X137150000Y-74250000D03*
X137150000Y-75200000D03*
X139350000Y-75200000D03*
X139350000Y-73300000D03*
%TD*%
%TO.C,R2*%
G36*
G01*
X130850000Y-62299999D02*
X130850000Y-63200001D01*
G75*
G02*
X130600001Y-63450000I-249999J0D01*
G01*
X129899999Y-63450000D01*
G75*
G02*
X129650000Y-63200001I0J249999D01*
G01*
X129650000Y-62299999D01*
G75*
G02*
X129899999Y-62050000I249999J0D01*
G01*
X130600001Y-62050000D01*
G75*
G02*
X130850000Y-62299999I0J-249999D01*
G01*
G37*
G36*
G01*
X132850000Y-62299999D02*
X132850000Y-63200001D01*
G75*
G02*
X132600001Y-63450000I-249999J0D01*
G01*
X131899999Y-63450000D01*
G75*
G02*
X131650000Y-63200001I0J249999D01*
G01*
X131650000Y-62299999D01*
G75*
G02*
X131899999Y-62050000I249999J0D01*
G01*
X132600001Y-62050000D01*
G75*
G02*
X132850000Y-62299999I0J-249999D01*
G01*
G37*
%TD*%
D11*
%TO.C,D1*%
X131750000Y-75900000D03*
X131750000Y-72600000D03*
%TD*%
%TO.C,R4*%
G36*
G01*
X138549999Y-64400000D02*
X139450001Y-64400000D01*
G75*
G02*
X139700000Y-64649999I0J-249999D01*
G01*
X139700000Y-65350001D01*
G75*
G02*
X139450001Y-65600000I-249999J0D01*
G01*
X138549999Y-65600000D01*
G75*
G02*
X138300000Y-65350001I0J249999D01*
G01*
X138300000Y-64649999D01*
G75*
G02*
X138549999Y-64400000I249999J0D01*
G01*
G37*
G36*
G01*
X138549999Y-66400000D02*
X139450001Y-66400000D01*
G75*
G02*
X139700000Y-66649999I0J-249999D01*
G01*
X139700000Y-67350001D01*
G75*
G02*
X139450001Y-67600000I-249999J0D01*
G01*
X138549999Y-67600000D01*
G75*
G02*
X138300000Y-67350001I0J249999D01*
G01*
X138300000Y-66649999D01*
G75*
G02*
X138549999Y-66400000I249999J0D01*
G01*
G37*
%TD*%
D12*
%TO.C,IC1*%
X126600000Y-69050000D03*
X126600000Y-70950000D03*
X124400000Y-70950000D03*
X124400000Y-70000000D03*
X124400000Y-69050000D03*
%TD*%
%TO.C,C2*%
G36*
G01*
X103525000Y-72625000D02*
X104475000Y-72625000D01*
G75*
G02*
X104725000Y-72875000I0J-250000D01*
G01*
X104725000Y-73550000D01*
G75*
G02*
X104475000Y-73800000I-250000J0D01*
G01*
X103525000Y-73800000D01*
G75*
G02*
X103275000Y-73550000I0J250000D01*
G01*
X103275000Y-72875000D01*
G75*
G02*
X103525000Y-72625000I250000J0D01*
G01*
G37*
G36*
G01*
X103525000Y-74700000D02*
X104475000Y-74700000D01*
G75*
G02*
X104725000Y-74950000I0J-250000D01*
G01*
X104725000Y-75625000D01*
G75*
G02*
X104475000Y-75875000I-250000J0D01*
G01*
X103525000Y-75875000D01*
G75*
G02*
X103275000Y-75625000I0J250000D01*
G01*
X103275000Y-74950000D01*
G75*
G02*
X103525000Y-74700000I250000J0D01*
G01*
G37*
%TD*%
%TO.C,R3*%
G36*
G01*
X115799999Y-68650000D02*
X116700001Y-68650000D01*
G75*
G02*
X116950000Y-68899999I0J-249999D01*
G01*
X116950000Y-69600001D01*
G75*
G02*
X116700001Y-69850000I-249999J0D01*
G01*
X115799999Y-69850000D01*
G75*
G02*
X115550000Y-69600001I0J249999D01*
G01*
X115550000Y-68899999D01*
G75*
G02*
X115799999Y-68650000I249999J0D01*
G01*
G37*
G36*
G01*
X115799999Y-70650000D02*
X116700001Y-70650000D01*
G75*
G02*
X116950000Y-70899999I0J-249999D01*
G01*
X116950000Y-71600001D01*
G75*
G02*
X116700001Y-71850000I-249999J0D01*
G01*
X115799999Y-71850000D01*
G75*
G02*
X115550000Y-71600001I0J249999D01*
G01*
X115550000Y-70899999D01*
G75*
G02*
X115799999Y-70650000I249999J0D01*
G01*
G37*
%TD*%
%TO.C,C3*%
G36*
G01*
X109275000Y-72625000D02*
X110225000Y-72625000D01*
G75*
G02*
X110475000Y-72875000I0J-250000D01*
G01*
X110475000Y-73550000D01*
G75*
G02*
X110225000Y-73800000I-250000J0D01*
G01*
X109275000Y-73800000D01*
G75*
G02*
X109025000Y-73550000I0J250000D01*
G01*
X109025000Y-72875000D01*
G75*
G02*
X109275000Y-72625000I250000J0D01*
G01*
G37*
G36*
G01*
X109275000Y-74700000D02*
X110225000Y-74700000D01*
G75*
G02*
X110475000Y-74950000I0J-250000D01*
G01*
X110475000Y-75625000D01*
G75*
G02*
X110225000Y-75875000I-250000J0D01*
G01*
X109275000Y-75875000D01*
G75*
G02*
X109025000Y-75625000I0J250000D01*
G01*
X109025000Y-74950000D01*
G75*
G02*
X109275000Y-74700000I250000J0D01*
G01*
G37*
%TD*%
D10*
%TO.C,Q1*%
X105000000Y-66950000D03*
X105000000Y-65050000D03*
X103000000Y-66000000D03*
%TD*%
D11*
%TO.C,D1*%
X106750000Y-72600000D03*
X106750000Y-75900000D03*
%TD*%
%TO.C,R1*%
G36*
G01*
X111150000Y-63200001D02*
X111150000Y-62299999D01*
G75*
G02*
X111399999Y-62050000I249999J0D01*
G01*
X112100001Y-62050000D01*
G75*
G02*
X112350000Y-62299999I0J-249999D01*
G01*
X112350000Y-63200001D01*
G75*
G02*
X112100001Y-63450000I-249999J0D01*
G01*
X111399999Y-63450000D01*
G75*
G02*
X111150000Y-63200001I0J249999D01*
G01*
G37*
G36*
G01*
X109150000Y-63200001D02*
X109150000Y-62299999D01*
G75*
G02*
X109399999Y-62050000I249999J0D01*
G01*
X110100001Y-62050000D01*
G75*
G02*
X110350000Y-62299999I0J-249999D01*
G01*
X110350000Y-63200001D01*
G75*
G02*
X110100001Y-63450000I-249999J0D01*
G01*
X109399999Y-63450000D01*
G75*
G02*
X109150000Y-63200001I0J249999D01*
G01*
G37*
%TD*%
D10*
%TO.C,Q2*%
X111750000Y-65950000D03*
X109750000Y-66900000D03*
X109750000Y-65000000D03*
%TD*%
D12*
%TO.C,IC1*%
X99400000Y-69050000D03*
X99400000Y-70000000D03*
X99400000Y-70950000D03*
X101600000Y-70950000D03*
X101600000Y-69050000D03*
%TD*%
%TO.C,R4*%
G36*
G01*
X113549999Y-66400000D02*
X114450001Y-66400000D01*
G75*
G02*
X114700000Y-66649999I0J-249999D01*
G01*
X114700000Y-67350001D01*
G75*
G02*
X114450001Y-67600000I-249999J0D01*
G01*
X113549999Y-67600000D01*
G75*
G02*
X113300000Y-67350001I0J249999D01*
G01*
X113300000Y-66649999D01*
G75*
G02*
X113549999Y-66400000I249999J0D01*
G01*
G37*
G36*
G01*
X113549999Y-64400000D02*
X114450001Y-64400000D01*
G75*
G02*
X114700000Y-64649999I0J-249999D01*
G01*
X114700000Y-65350001D01*
G75*
G02*
X114450001Y-65600000I-249999J0D01*
G01*
X113549999Y-65600000D01*
G75*
G02*
X113300000Y-65350001I0J249999D01*
G01*
X113300000Y-64649999D01*
G75*
G02*
X113549999Y-64400000I249999J0D01*
G01*
G37*
%TD*%
%TO.C,C1*%
G36*
G01*
X107725000Y-65550000D02*
X106775000Y-65550000D01*
G75*
G02*
X106525000Y-65300000I0J250000D01*
G01*
X106525000Y-64625000D01*
G75*
G02*
X106775000Y-64375000I250000J0D01*
G01*
X107725000Y-64375000D01*
G75*
G02*
X107975000Y-64625000I0J-250000D01*
G01*
X107975000Y-65300000D01*
G75*
G02*
X107725000Y-65550000I-250000J0D01*
G01*
G37*
G36*
G01*
X107725000Y-67625000D02*
X106775000Y-67625000D01*
G75*
G02*
X106525000Y-67375000I0J250000D01*
G01*
X106525000Y-66700000D01*
G75*
G02*
X106775000Y-66450000I250000J0D01*
G01*
X107725000Y-66450000D01*
G75*
G02*
X107975000Y-66700000I0J-250000D01*
G01*
X107975000Y-67375000D01*
G75*
G02*
X107725000Y-67625000I-250000J0D01*
G01*
G37*
%TD*%
%TO.C,IC2*%
X114350000Y-73300000D03*
X114350000Y-75200000D03*
X112150000Y-75200000D03*
X112150000Y-74250000D03*
X112150000Y-73300000D03*
%TD*%
%TO.C,R2*%
G36*
G01*
X107850000Y-62299999D02*
X107850000Y-63200001D01*
G75*
G02*
X107600001Y-63450000I-249999J0D01*
G01*
X106899999Y-63450000D01*
G75*
G02*
X106650000Y-63200001I0J249999D01*
G01*
X106650000Y-62299999D01*
G75*
G02*
X106899999Y-62050000I249999J0D01*
G01*
X107600001Y-62050000D01*
G75*
G02*
X107850000Y-62299999I0J-249999D01*
G01*
G37*
G36*
G01*
X105850000Y-62299999D02*
X105850000Y-63200001D01*
G75*
G02*
X105600001Y-63450000I-249999J0D01*
G01*
X104899999Y-63450000D01*
G75*
G02*
X104650000Y-63200001I0J249999D01*
G01*
X104650000Y-62299999D01*
G75*
G02*
X104899999Y-62050000I249999J0D01*
G01*
X105600001Y-62050000D01*
G75*
G02*
X105850000Y-62299999I0J-249999D01*
G01*
G37*
%TD*%
%TO.C,C2*%
G36*
G01*
X78525000Y-74700000D02*
X79475000Y-74700000D01*
G75*
G02*
X79725000Y-74950000I0J-250000D01*
G01*
X79725000Y-75625000D01*
G75*
G02*
X79475000Y-75875000I-250000J0D01*
G01*
X78525000Y-75875000D01*
G75*
G02*
X78275000Y-75625000I0J250000D01*
G01*
X78275000Y-74950000D01*
G75*
G02*
X78525000Y-74700000I250000J0D01*
G01*
G37*
G36*
G01*
X78525000Y-72625000D02*
X79475000Y-72625000D01*
G75*
G02*
X79725000Y-72875000I0J-250000D01*
G01*
X79725000Y-73550000D01*
G75*
G02*
X79475000Y-73800000I-250000J0D01*
G01*
X78525000Y-73800000D01*
G75*
G02*
X78275000Y-73550000I0J250000D01*
G01*
X78275000Y-72875000D01*
G75*
G02*
X78525000Y-72625000I250000J0D01*
G01*
G37*
%TD*%
%TO.C,IC2*%
X87150000Y-73300000D03*
X87150000Y-74250000D03*
X87150000Y-75200000D03*
X89350000Y-75200000D03*
X89350000Y-73300000D03*
%TD*%
%TO.C,R2*%
G36*
G01*
X80850000Y-62299999D02*
X80850000Y-63200001D01*
G75*
G02*
X80600001Y-63450000I-249999J0D01*
G01*
X79899999Y-63450000D01*
G75*
G02*
X79650000Y-63200001I0J249999D01*
G01*
X79650000Y-62299999D01*
G75*
G02*
X79899999Y-62050000I249999J0D01*
G01*
X80600001Y-62050000D01*
G75*
G02*
X80850000Y-62299999I0J-249999D01*
G01*
G37*
G36*
G01*
X82850000Y-62299999D02*
X82850000Y-63200001D01*
G75*
G02*
X82600001Y-63450000I-249999J0D01*
G01*
X81899999Y-63450000D01*
G75*
G02*
X81650000Y-63200001I0J249999D01*
G01*
X81650000Y-62299999D01*
G75*
G02*
X81899999Y-62050000I249999J0D01*
G01*
X82600001Y-62050000D01*
G75*
G02*
X82850000Y-62299999I0J-249999D01*
G01*
G37*
%TD*%
D11*
%TO.C,D1*%
X81750000Y-75900000D03*
X81750000Y-72600000D03*
%TD*%
D10*
%TO.C,Q2*%
X84750000Y-65000000D03*
X84750000Y-66900000D03*
X86750000Y-65950000D03*
%TD*%
%TO.C,C3*%
G36*
G01*
X84275000Y-74700000D02*
X85225000Y-74700000D01*
G75*
G02*
X85475000Y-74950000I0J-250000D01*
G01*
X85475000Y-75625000D01*
G75*
G02*
X85225000Y-75875000I-250000J0D01*
G01*
X84275000Y-75875000D01*
G75*
G02*
X84025000Y-75625000I0J250000D01*
G01*
X84025000Y-74950000D01*
G75*
G02*
X84275000Y-74700000I250000J0D01*
G01*
G37*
G36*
G01*
X84275000Y-72625000D02*
X85225000Y-72625000D01*
G75*
G02*
X85475000Y-72875000I0J-250000D01*
G01*
X85475000Y-73550000D01*
G75*
G02*
X85225000Y-73800000I-250000J0D01*
G01*
X84275000Y-73800000D01*
G75*
G02*
X84025000Y-73550000I0J250000D01*
G01*
X84025000Y-72875000D01*
G75*
G02*
X84275000Y-72625000I250000J0D01*
G01*
G37*
%TD*%
%TO.C,R4*%
G36*
G01*
X88549999Y-64400000D02*
X89450001Y-64400000D01*
G75*
G02*
X89700000Y-64649999I0J-249999D01*
G01*
X89700000Y-65350001D01*
G75*
G02*
X89450001Y-65600000I-249999J0D01*
G01*
X88549999Y-65600000D01*
G75*
G02*
X88300000Y-65350001I0J249999D01*
G01*
X88300000Y-64649999D01*
G75*
G02*
X88549999Y-64400000I249999J0D01*
G01*
G37*
G36*
G01*
X88549999Y-66400000D02*
X89450001Y-66400000D01*
G75*
G02*
X89700000Y-66649999I0J-249999D01*
G01*
X89700000Y-67350001D01*
G75*
G02*
X89450001Y-67600000I-249999J0D01*
G01*
X88549999Y-67600000D01*
G75*
G02*
X88300000Y-67350001I0J249999D01*
G01*
X88300000Y-66649999D01*
G75*
G02*
X88549999Y-66400000I249999J0D01*
G01*
G37*
%TD*%
%TO.C,R1*%
G36*
G01*
X84150000Y-63200001D02*
X84150000Y-62299999D01*
G75*
G02*
X84399999Y-62050000I249999J0D01*
G01*
X85100001Y-62050000D01*
G75*
G02*
X85350000Y-62299999I0J-249999D01*
G01*
X85350000Y-63200001D01*
G75*
G02*
X85100001Y-63450000I-249999J0D01*
G01*
X84399999Y-63450000D01*
G75*
G02*
X84150000Y-63200001I0J249999D01*
G01*
G37*
G36*
G01*
X86150000Y-63200001D02*
X86150000Y-62299999D01*
G75*
G02*
X86399999Y-62050000I249999J0D01*
G01*
X87100001Y-62050000D01*
G75*
G02*
X87350000Y-62299999I0J-249999D01*
G01*
X87350000Y-63200001D01*
G75*
G02*
X87100001Y-63450000I-249999J0D01*
G01*
X86399999Y-63450000D01*
G75*
G02*
X86150000Y-63200001I0J249999D01*
G01*
G37*
%TD*%
%TO.C,C1*%
G36*
G01*
X82725000Y-67625000D02*
X81775000Y-67625000D01*
G75*
G02*
X81525000Y-67375000I0J250000D01*
G01*
X81525000Y-66700000D01*
G75*
G02*
X81775000Y-66450000I250000J0D01*
G01*
X82725000Y-66450000D01*
G75*
G02*
X82975000Y-66700000I0J-250000D01*
G01*
X82975000Y-67375000D01*
G75*
G02*
X82725000Y-67625000I-250000J0D01*
G01*
G37*
G36*
G01*
X82725000Y-65550000D02*
X81775000Y-65550000D01*
G75*
G02*
X81525000Y-65300000I0J250000D01*
G01*
X81525000Y-64625000D01*
G75*
G02*
X81775000Y-64375000I250000J0D01*
G01*
X82725000Y-64375000D01*
G75*
G02*
X82975000Y-64625000I0J-250000D01*
G01*
X82975000Y-65300000D01*
G75*
G02*
X82725000Y-65550000I-250000J0D01*
G01*
G37*
%TD*%
%TO.C,Q1*%
X78000000Y-66000000D03*
X80000000Y-65050000D03*
X80000000Y-66950000D03*
%TD*%
D12*
%TO.C,IC1*%
X76600000Y-69050000D03*
X76600000Y-70950000D03*
X74400000Y-70950000D03*
X74400000Y-70000000D03*
X74400000Y-69050000D03*
%TD*%
%TO.C,R3*%
G36*
G01*
X90799999Y-70650000D02*
X91700001Y-70650000D01*
G75*
G02*
X91950000Y-70899999I0J-249999D01*
G01*
X91950000Y-71600001D01*
G75*
G02*
X91700001Y-71850000I-249999J0D01*
G01*
X90799999Y-71850000D01*
G75*
G02*
X90550000Y-71600001I0J249999D01*
G01*
X90550000Y-70899999D01*
G75*
G02*
X90799999Y-70650000I249999J0D01*
G01*
G37*
G36*
G01*
X90799999Y-68650000D02*
X91700001Y-68650000D01*
G75*
G02*
X91950000Y-68899999I0J-249999D01*
G01*
X91950000Y-69600001D01*
G75*
G02*
X91700001Y-69850000I-249999J0D01*
G01*
X90799999Y-69850000D01*
G75*
G02*
X90550000Y-69600001I0J249999D01*
G01*
X90550000Y-68899999D01*
G75*
G02*
X90799999Y-68650000I249999J0D01*
G01*
G37*
%TD*%
%TO.C,C1*%
G36*
G01*
X57725000Y-65550000D02*
X56775000Y-65550000D01*
G75*
G02*
X56525000Y-65300000I0J250000D01*
G01*
X56525000Y-64625000D01*
G75*
G02*
X56775000Y-64375000I250000J0D01*
G01*
X57725000Y-64375000D01*
G75*
G02*
X57975000Y-64625000I0J-250000D01*
G01*
X57975000Y-65300000D01*
G75*
G02*
X57725000Y-65550000I-250000J0D01*
G01*
G37*
G36*
G01*
X57725000Y-67625000D02*
X56775000Y-67625000D01*
G75*
G02*
X56525000Y-67375000I0J250000D01*
G01*
X56525000Y-66700000D01*
G75*
G02*
X56775000Y-66450000I250000J0D01*
G01*
X57725000Y-66450000D01*
G75*
G02*
X57975000Y-66700000I0J-250000D01*
G01*
X57975000Y-67375000D01*
G75*
G02*
X57725000Y-67625000I-250000J0D01*
G01*
G37*
%TD*%
%TO.C,C2*%
G36*
G01*
X53525000Y-72625000D02*
X54475000Y-72625000D01*
G75*
G02*
X54725000Y-72875000I0J-250000D01*
G01*
X54725000Y-73550000D01*
G75*
G02*
X54475000Y-73800000I-250000J0D01*
G01*
X53525000Y-73800000D01*
G75*
G02*
X53275000Y-73550000I0J250000D01*
G01*
X53275000Y-72875000D01*
G75*
G02*
X53525000Y-72625000I250000J0D01*
G01*
G37*
G36*
G01*
X53525000Y-74700000D02*
X54475000Y-74700000D01*
G75*
G02*
X54725000Y-74950000I0J-250000D01*
G01*
X54725000Y-75625000D01*
G75*
G02*
X54475000Y-75875000I-250000J0D01*
G01*
X53525000Y-75875000D01*
G75*
G02*
X53275000Y-75625000I0J250000D01*
G01*
X53275000Y-74950000D01*
G75*
G02*
X53525000Y-74700000I250000J0D01*
G01*
G37*
%TD*%
%TO.C,C3*%
G36*
G01*
X59275000Y-72625000D02*
X60225000Y-72625000D01*
G75*
G02*
X60475000Y-72875000I0J-250000D01*
G01*
X60475000Y-73550000D01*
G75*
G02*
X60225000Y-73800000I-250000J0D01*
G01*
X59275000Y-73800000D01*
G75*
G02*
X59025000Y-73550000I0J250000D01*
G01*
X59025000Y-72875000D01*
G75*
G02*
X59275000Y-72625000I250000J0D01*
G01*
G37*
G36*
G01*
X59275000Y-74700000D02*
X60225000Y-74700000D01*
G75*
G02*
X60475000Y-74950000I0J-250000D01*
G01*
X60475000Y-75625000D01*
G75*
G02*
X60225000Y-75875000I-250000J0D01*
G01*
X59275000Y-75875000D01*
G75*
G02*
X59025000Y-75625000I0J250000D01*
G01*
X59025000Y-74950000D01*
G75*
G02*
X59275000Y-74700000I250000J0D01*
G01*
G37*
%TD*%
D11*
%TO.C,D1*%
X56750000Y-72600000D03*
X56750000Y-75900000D03*
%TD*%
D12*
%TO.C,IC1*%
X49400000Y-69050000D03*
X49400000Y-70000000D03*
X49400000Y-70950000D03*
X51600000Y-70950000D03*
X51600000Y-69050000D03*
%TD*%
%TO.C,IC2*%
X64350000Y-73300000D03*
X64350000Y-75200000D03*
X62150000Y-75200000D03*
X62150000Y-74250000D03*
X62150000Y-73300000D03*
%TD*%
D10*
%TO.C,Q1*%
X55000000Y-66950000D03*
X55000000Y-65050000D03*
X53000000Y-66000000D03*
%TD*%
%TO.C,Q2*%
X61750000Y-65950000D03*
X59750000Y-66900000D03*
X59750000Y-65000000D03*
%TD*%
%TO.C,R1*%
G36*
G01*
X61150000Y-63200001D02*
X61150000Y-62299999D01*
G75*
G02*
X61399999Y-62050000I249999J0D01*
G01*
X62100001Y-62050000D01*
G75*
G02*
X62350000Y-62299999I0J-249999D01*
G01*
X62350000Y-63200001D01*
G75*
G02*
X62100001Y-63450000I-249999J0D01*
G01*
X61399999Y-63450000D01*
G75*
G02*
X61150000Y-63200001I0J249999D01*
G01*
G37*
G36*
G01*
X59150000Y-63200001D02*
X59150000Y-62299999D01*
G75*
G02*
X59399999Y-62050000I249999J0D01*
G01*
X60100001Y-62050000D01*
G75*
G02*
X60350000Y-62299999I0J-249999D01*
G01*
X60350000Y-63200001D01*
G75*
G02*
X60100001Y-63450000I-249999J0D01*
G01*
X59399999Y-63450000D01*
G75*
G02*
X59150000Y-63200001I0J249999D01*
G01*
G37*
%TD*%
%TO.C,R2*%
G36*
G01*
X57850000Y-62299999D02*
X57850000Y-63200001D01*
G75*
G02*
X57600001Y-63450000I-249999J0D01*
G01*
X56899999Y-63450000D01*
G75*
G02*
X56650000Y-63200001I0J249999D01*
G01*
X56650000Y-62299999D01*
G75*
G02*
X56899999Y-62050000I249999J0D01*
G01*
X57600001Y-62050000D01*
G75*
G02*
X57850000Y-62299999I0J-249999D01*
G01*
G37*
G36*
G01*
X55850000Y-62299999D02*
X55850000Y-63200001D01*
G75*
G02*
X55600001Y-63450000I-249999J0D01*
G01*
X54899999Y-63450000D01*
G75*
G02*
X54650000Y-63200001I0J249999D01*
G01*
X54650000Y-62299999D01*
G75*
G02*
X54899999Y-62050000I249999J0D01*
G01*
X55600001Y-62050000D01*
G75*
G02*
X55850000Y-62299999I0J-249999D01*
G01*
G37*
%TD*%
%TO.C,R3*%
G36*
G01*
X65799999Y-68650000D02*
X66700001Y-68650000D01*
G75*
G02*
X66950000Y-68899999I0J-249999D01*
G01*
X66950000Y-69600001D01*
G75*
G02*
X66700001Y-69850000I-249999J0D01*
G01*
X65799999Y-69850000D01*
G75*
G02*
X65550000Y-69600001I0J249999D01*
G01*
X65550000Y-68899999D01*
G75*
G02*
X65799999Y-68650000I249999J0D01*
G01*
G37*
G36*
G01*
X65799999Y-70650000D02*
X66700001Y-70650000D01*
G75*
G02*
X66950000Y-70899999I0J-249999D01*
G01*
X66950000Y-71600001D01*
G75*
G02*
X66700001Y-71850000I-249999J0D01*
G01*
X65799999Y-71850000D01*
G75*
G02*
X65550000Y-71600001I0J249999D01*
G01*
X65550000Y-70899999D01*
G75*
G02*
X65799999Y-70650000I249999J0D01*
G01*
G37*
%TD*%
%TO.C,R4*%
G36*
G01*
X63549999Y-66400000D02*
X64450001Y-66400000D01*
G75*
G02*
X64700000Y-66649999I0J-249999D01*
G01*
X64700000Y-67350001D01*
G75*
G02*
X64450001Y-67600000I-249999J0D01*
G01*
X63549999Y-67600000D01*
G75*
G02*
X63300000Y-67350001I0J249999D01*
G01*
X63300000Y-66649999D01*
G75*
G02*
X63549999Y-66400000I249999J0D01*
G01*
G37*
G36*
G01*
X63549999Y-64400000D02*
X64450001Y-64400000D01*
G75*
G02*
X64700000Y-64649999I0J-249999D01*
G01*
X64700000Y-65350001D01*
G75*
G02*
X64450001Y-65600000I-249999J0D01*
G01*
X63549999Y-65600000D01*
G75*
G02*
X63300000Y-65350001I0J249999D01*
G01*
X63300000Y-64649999D01*
G75*
G02*
X63549999Y-64400000I249999J0D01*
G01*
G37*
%TD*%
M02*
