<?xml version="1.0" encoding="UTF-8" standalone="no"?>
<svg
   xmlns:dc="http://purl.org/dc/elements/1.1/"
   xmlns:cc="http://creativecommons.org/ns#"
   xmlns:rdf="http://www.w3.org/1999/02/22-rdf-syntax-ns#"
   xmlns:svg="http://www.w3.org/2000/svg"
   xmlns="http://www.w3.org/2000/svg"
   xmlns:sodipodi="http://sodipodi.sourceforge.net/DTD/sodipodi-0.dtd"
   xmlns:inkscape="http://www.inkscape.org/namespaces/inkscape"
   width="210mm"
   height="297mm"
   viewBox="0 0 210 297"
   version="1.1"
   id="svg1356"
   inkscape:version="1.0.1 (3bc2e813f5, 2020-09-07)"
   sodipodi:docname="Logo_min.svg">
  <defs
     id="defs1350" />
  <sodipodi:namedview
     id="base"
     pagecolor="#ffffff"
     bordercolor="#666666"
     borderopacity="1.0"
     inkscape:pageopacity="0.0"
     inkscape:pageshadow="2"
     inkscape:zoom="0.35"
     inkscape:cx="400"
     inkscape:cy="560"
     inkscape:document-units="mm"
     inkscape:current-layer="layer1"
     inkscape:document-rotation="0"
     showgrid="false"
     inkscape:window-width="1294"
     inkscape:window-height="861"
     inkscape:window-x="104"
     inkscape:window-y="0"
     inkscape:window-maximized="0" />
  <metadata
     id="metadata1353">
    <rdf:RDF>
      <cc:Work
         rdf:about="">
        <dc:format>image/svg+xml</dc:format>
        <dc:type
           rdf:resource="http://purl.org/dc/dcmitype/StillImage" />
        <dc:title></dc:title>
      </cc:Work>
    </rdf:RDF>
  </metadata>
  <g
     inkscape:label="Ebene 1"
     inkscape:groupmode="layer"
     id="layer1">
    <path
       style="fill:#000000;fill-opacity:1;stroke:#000000;stroke-width:0.264583px;stroke-linecap:butt;stroke-linejoin:miter;stroke-opacity:1"
       d="m 105.15257,177.83749 12.64808,12.64808 v -49.9999 L 92.800654,115.48572 108.8571,99.429266 132.80064,123.37281 V 105.48573 L 108.8571,81.542186 74.913564,115.48572 105.15257,145.72464 Z"
       id="path1121-0"
       inkscape:export-xdpi="11.603471"
       inkscape:export-ydpi="11.603471" />
    <path
       id="path1312"
       style="fill:#000000;fill-opacity:1;fill-rule:nonzero;stroke:#000000;stroke-width:0.264583;stroke-opacity:1"
       d="m 153.95486,95.387822 -7.34941,7.349428 a 53.384389,53.384389 0 0 1 0.0651,75.43157 53.384389,53.384389 0 0 1 -75.461551,0.16536 53.384389,53.384389 0 0 1 -0.235127,-75.46154 l 0.26975,-5.3e-4 -7.323066,-7.323067 -0.322461,5.29e-4 a 63.777802,63.777802 0 0 0 0.28112,90.153158 63.777802,63.777802 0 0 0 90.153685,-0.19741 63.777802,63.777802 0 0 0 -0.0781,-90.117495 z"
       inkscape:export-xdpi="11.603471"
       inkscape:export-ydpi="11.603471" />
    <path
       style="fill:none;stroke:#000000;stroke-width:0.264583px;stroke-linecap:butt;stroke-linejoin:miter;stroke-opacity:1"
       d="m 146.57523,102.7069 c 7.22874,-7.168104 7.22874,-7.168104 7.22874,-7.168104"
       id="path1318"
       inkscape:export-xdpi="11.603471"
       inkscape:export-ydpi="11.603471" />
  </g>
</svg>
