%TF.GenerationSoftware,KiCad,Pcbnew,(5.1.9)-1*%
%TF.CreationDate,2021-04-15T21:54:33+02:00*%
%TF.ProjectId,DOORSENSOR_Simple_9V,444f4f52-5345-44e5-934f-525f53696d70,rev?*%
%TF.SameCoordinates,Original*%
%TF.FileFunction,Copper,L1,Top*%
%TF.FilePolarity,Positive*%
%FSLAX46Y46*%
G04 Gerber Fmt 4.6, Leading zero omitted, Abs format (unit mm)*
G04 Created by KiCad (PCBNEW (5.1.9)-1) date 2021-04-15 21:54:33*
%MOMM*%
%LPD*%
G01*
G04 APERTURE LIST*
%TA.AperFunction,NonConductor*%
%ADD10C,0.300000*%
%TD*%
%TA.AperFunction,SMDPad,CuDef*%
%ADD11R,1.000000X2.500000*%
%TD*%
%TA.AperFunction,SMDPad,CuDef*%
%ADD12R,1.800000X1.000000*%
%TD*%
%TA.AperFunction,SMDPad,CuDef*%
%ADD13R,1.500000X1.500000*%
%TD*%
%TA.AperFunction,ComponentPad*%
%ADD14C,1.524000*%
%TD*%
%TA.AperFunction,ComponentPad*%
%ADD15O,1.200000X1.750000*%
%TD*%
%TA.AperFunction,ComponentPad*%
%ADD16R,1.600000X1.600000*%
%TD*%
%TA.AperFunction,ComponentPad*%
%ADD17C,1.600000*%
%TD*%
%TA.AperFunction,ViaPad*%
%ADD18C,0.800000*%
%TD*%
%TA.AperFunction,Conductor*%
%ADD19C,0.250000*%
%TD*%
G04 APERTURE END LIST*
D10*
X108714285Y-126678571D02*
X109214285Y-128178571D01*
X109714285Y-126678571D01*
X111000000Y-128178571D02*
X110142857Y-128178571D01*
X110571428Y-128178571D02*
X110571428Y-126678571D01*
X110428571Y-126892857D01*
X110285714Y-127035714D01*
X110142857Y-127107142D01*
X111642857Y-128035714D02*
X111714285Y-128107142D01*
X111642857Y-128178571D01*
X111571428Y-128107142D01*
X111642857Y-128035714D01*
X111642857Y-128178571D01*
X112642857Y-126678571D02*
X112785714Y-126678571D01*
X112928571Y-126750000D01*
X113000000Y-126821428D01*
X113071428Y-126964285D01*
X113142857Y-127250000D01*
X113142857Y-127607142D01*
X113071428Y-127892857D01*
X113000000Y-128035714D01*
X112928571Y-128107142D01*
X112785714Y-128178571D01*
X112642857Y-128178571D01*
X112500000Y-128107142D01*
X112428571Y-128035714D01*
X112357142Y-127892857D01*
X112285714Y-127607142D01*
X112285714Y-127250000D01*
X112357142Y-126964285D01*
X112428571Y-126821428D01*
X112500000Y-126750000D01*
X112642857Y-126678571D01*
X58714285Y-126678571D02*
X59214285Y-128178571D01*
X59714285Y-126678571D01*
X61000000Y-128178571D02*
X60142857Y-128178571D01*
X60571428Y-128178571D02*
X60571428Y-126678571D01*
X60428571Y-126892857D01*
X60285714Y-127035714D01*
X60142857Y-127107142D01*
X61642857Y-128035714D02*
X61714285Y-128107142D01*
X61642857Y-128178571D01*
X61571428Y-128107142D01*
X61642857Y-128035714D01*
X61642857Y-128178571D01*
X62642857Y-126678571D02*
X62785714Y-126678571D01*
X62928571Y-126750000D01*
X63000000Y-126821428D01*
X63071428Y-126964285D01*
X63142857Y-127250000D01*
X63142857Y-127607142D01*
X63071428Y-127892857D01*
X63000000Y-128035714D01*
X62928571Y-128107142D01*
X62785714Y-128178571D01*
X62642857Y-128178571D01*
X62500000Y-128107142D01*
X62428571Y-128035714D01*
X62357142Y-127892857D01*
X62285714Y-127607142D01*
X62285714Y-127250000D01*
X62357142Y-126964285D01*
X62428571Y-126821428D01*
X62500000Y-126750000D01*
X62642857Y-126678571D01*
X108714285Y-106678571D02*
X109214285Y-108178571D01*
X109714285Y-106678571D01*
X111000000Y-108178571D02*
X110142857Y-108178571D01*
X110571428Y-108178571D02*
X110571428Y-106678571D01*
X110428571Y-106892857D01*
X110285714Y-107035714D01*
X110142857Y-107107142D01*
X111642857Y-108035714D02*
X111714285Y-108107142D01*
X111642857Y-108178571D01*
X111571428Y-108107142D01*
X111642857Y-108035714D01*
X111642857Y-108178571D01*
X112642857Y-106678571D02*
X112785714Y-106678571D01*
X112928571Y-106750000D01*
X113000000Y-106821428D01*
X113071428Y-106964285D01*
X113142857Y-107250000D01*
X113142857Y-107607142D01*
X113071428Y-107892857D01*
X113000000Y-108035714D01*
X112928571Y-108107142D01*
X112785714Y-108178571D01*
X112642857Y-108178571D01*
X112500000Y-108107142D01*
X112428571Y-108035714D01*
X112357142Y-107892857D01*
X112285714Y-107607142D01*
X112285714Y-107250000D01*
X112357142Y-106964285D01*
X112428571Y-106821428D01*
X112500000Y-106750000D01*
X112642857Y-106678571D01*
X58714285Y-106678571D02*
X59214285Y-108178571D01*
X59714285Y-106678571D01*
X61000000Y-108178571D02*
X60142857Y-108178571D01*
X60571428Y-108178571D02*
X60571428Y-106678571D01*
X60428571Y-106892857D01*
X60285714Y-107035714D01*
X60142857Y-107107142D01*
X61642857Y-108035714D02*
X61714285Y-108107142D01*
X61642857Y-108178571D01*
X61571428Y-108107142D01*
X61642857Y-108035714D01*
X61642857Y-108178571D01*
X62642857Y-106678571D02*
X62785714Y-106678571D01*
X62928571Y-106750000D01*
X63000000Y-106821428D01*
X63071428Y-106964285D01*
X63142857Y-107250000D01*
X63142857Y-107607142D01*
X63071428Y-107892857D01*
X63000000Y-108035714D01*
X62928571Y-108107142D01*
X62785714Y-108178571D01*
X62642857Y-108178571D01*
X62500000Y-108107142D01*
X62428571Y-108035714D01*
X62357142Y-107892857D01*
X62285714Y-107607142D01*
X62285714Y-107250000D01*
X62357142Y-106964285D01*
X62428571Y-106821428D01*
X62500000Y-106750000D01*
X62642857Y-106678571D01*
X58714285Y-86678571D02*
X59214285Y-88178571D01*
X59714285Y-86678571D01*
X61000000Y-88178571D02*
X60142857Y-88178571D01*
X60571428Y-88178571D02*
X60571428Y-86678571D01*
X60428571Y-86892857D01*
X60285714Y-87035714D01*
X60142857Y-87107142D01*
X61642857Y-88035714D02*
X61714285Y-88107142D01*
X61642857Y-88178571D01*
X61571428Y-88107142D01*
X61642857Y-88035714D01*
X61642857Y-88178571D01*
X62642857Y-86678571D02*
X62785714Y-86678571D01*
X62928571Y-86750000D01*
X63000000Y-86821428D01*
X63071428Y-86964285D01*
X63142857Y-87250000D01*
X63142857Y-87607142D01*
X63071428Y-87892857D01*
X63000000Y-88035714D01*
X62928571Y-88107142D01*
X62785714Y-88178571D01*
X62642857Y-88178571D01*
X62500000Y-88107142D01*
X62428571Y-88035714D01*
X62357142Y-87892857D01*
X62285714Y-87607142D01*
X62285714Y-87250000D01*
X62357142Y-86964285D01*
X62428571Y-86821428D01*
X62500000Y-86750000D01*
X62642857Y-86678571D01*
X108714285Y-86678571D02*
X109214285Y-88178571D01*
X109714285Y-86678571D01*
X111000000Y-88178571D02*
X110142857Y-88178571D01*
X110571428Y-88178571D02*
X110571428Y-86678571D01*
X110428571Y-86892857D01*
X110285714Y-87035714D01*
X110142857Y-87107142D01*
X111642857Y-88035714D02*
X111714285Y-88107142D01*
X111642857Y-88178571D01*
X111571428Y-88107142D01*
X111642857Y-88035714D01*
X111642857Y-88178571D01*
X112642857Y-86678571D02*
X112785714Y-86678571D01*
X112928571Y-86750000D01*
X113000000Y-86821428D01*
X113071428Y-86964285D01*
X113142857Y-87250000D01*
X113142857Y-87607142D01*
X113071428Y-87892857D01*
X113000000Y-88035714D01*
X112928571Y-88107142D01*
X112785714Y-88178571D01*
X112642857Y-88178571D01*
X112500000Y-88107142D01*
X112428571Y-88035714D01*
X112357142Y-87892857D01*
X112285714Y-87607142D01*
X112285714Y-87250000D01*
X112357142Y-86964285D01*
X112428571Y-86821428D01*
X112500000Y-86750000D01*
X112642857Y-86678571D01*
X108714285Y-66678571D02*
X109214285Y-68178571D01*
X109714285Y-66678571D01*
X111000000Y-68178571D02*
X110142857Y-68178571D01*
X110571428Y-68178571D02*
X110571428Y-66678571D01*
X110428571Y-66892857D01*
X110285714Y-67035714D01*
X110142857Y-67107142D01*
X111642857Y-68035714D02*
X111714285Y-68107142D01*
X111642857Y-68178571D01*
X111571428Y-68107142D01*
X111642857Y-68035714D01*
X111642857Y-68178571D01*
X112642857Y-66678571D02*
X112785714Y-66678571D01*
X112928571Y-66750000D01*
X113000000Y-66821428D01*
X113071428Y-66964285D01*
X113142857Y-67250000D01*
X113142857Y-67607142D01*
X113071428Y-67892857D01*
X113000000Y-68035714D01*
X112928571Y-68107142D01*
X112785714Y-68178571D01*
X112642857Y-68178571D01*
X112500000Y-68107142D01*
X112428571Y-68035714D01*
X112357142Y-67892857D01*
X112285714Y-67607142D01*
X112285714Y-67250000D01*
X112357142Y-66964285D01*
X112428571Y-66821428D01*
X112500000Y-66750000D01*
X112642857Y-66678571D01*
X58714285Y-66678571D02*
X59214285Y-68178571D01*
X59714285Y-66678571D01*
X61000000Y-68178571D02*
X60142857Y-68178571D01*
X60571428Y-68178571D02*
X60571428Y-66678571D01*
X60428571Y-66892857D01*
X60285714Y-67035714D01*
X60142857Y-67107142D01*
X61642857Y-68035714D02*
X61714285Y-68107142D01*
X61642857Y-68178571D01*
X61571428Y-68107142D01*
X61642857Y-68035714D01*
X61642857Y-68178571D01*
X62642857Y-66678571D02*
X62785714Y-66678571D01*
X62928571Y-66750000D01*
X63000000Y-66821428D01*
X63071428Y-66964285D01*
X63142857Y-67250000D01*
X63142857Y-67607142D01*
X63071428Y-67892857D01*
X63000000Y-68035714D01*
X62928571Y-68107142D01*
X62785714Y-68178571D01*
X62642857Y-68178571D01*
X62500000Y-68107142D01*
X62428571Y-68035714D01*
X62357142Y-67892857D01*
X62285714Y-67607142D01*
X62285714Y-67250000D01*
X62357142Y-66964285D01*
X62428571Y-66821428D01*
X62500000Y-66750000D01*
X62642857Y-66678571D01*
X108714285Y-46678571D02*
X109214285Y-48178571D01*
X109714285Y-46678571D01*
X111000000Y-48178571D02*
X110142857Y-48178571D01*
X110571428Y-48178571D02*
X110571428Y-46678571D01*
X110428571Y-46892857D01*
X110285714Y-47035714D01*
X110142857Y-47107142D01*
X111642857Y-48035714D02*
X111714285Y-48107142D01*
X111642857Y-48178571D01*
X111571428Y-48107142D01*
X111642857Y-48035714D01*
X111642857Y-48178571D01*
X112642857Y-46678571D02*
X112785714Y-46678571D01*
X112928571Y-46750000D01*
X113000000Y-46821428D01*
X113071428Y-46964285D01*
X113142857Y-47250000D01*
X113142857Y-47607142D01*
X113071428Y-47892857D01*
X113000000Y-48035714D01*
X112928571Y-48107142D01*
X112785714Y-48178571D01*
X112642857Y-48178571D01*
X112500000Y-48107142D01*
X112428571Y-48035714D01*
X112357142Y-47892857D01*
X112285714Y-47607142D01*
X112285714Y-47250000D01*
X112357142Y-46964285D01*
X112428571Y-46821428D01*
X112500000Y-46750000D01*
X112642857Y-46678571D01*
X58714285Y-46678571D02*
X59214285Y-48178571D01*
X59714285Y-46678571D01*
X61000000Y-48178571D02*
X60142857Y-48178571D01*
X60571428Y-48178571D02*
X60571428Y-46678571D01*
X60428571Y-46892857D01*
X60285714Y-47035714D01*
X60142857Y-47107142D01*
X61642857Y-48035714D02*
X61714285Y-48107142D01*
X61642857Y-48178571D01*
X61571428Y-48107142D01*
X61642857Y-48035714D01*
X61642857Y-48178571D01*
X62642857Y-46678571D02*
X62785714Y-46678571D01*
X62928571Y-46750000D01*
X63000000Y-46821428D01*
X63071428Y-46964285D01*
X63142857Y-47250000D01*
X63142857Y-47607142D01*
X63071428Y-47892857D01*
X63000000Y-48035714D01*
X62928571Y-48107142D01*
X62785714Y-48178571D01*
X62642857Y-48178571D01*
X62500000Y-48107142D01*
X62428571Y-48035714D01*
X62357142Y-47892857D01*
X62285714Y-47607142D01*
X62285714Y-47250000D01*
X62357142Y-46964285D01*
X62428571Y-46821428D01*
X62500000Y-46750000D01*
X62642857Y-46678571D01*
D11*
%TO.P,U2,1*%
%TO.N,Net-(U2-Pad1)*%
X35800000Y-133550000D03*
%TO.P,U2,2*%
%TO.N,Net-(U2-Pad2)*%
X37800000Y-133550000D03*
%TO.P,U2,3*%
%TO.N,+3V3*%
X39800000Y-133550000D03*
%TO.P,U2,4*%
%TO.N,Net-(U2-Pad1)*%
X41800000Y-133550000D03*
%TO.P,U2,5*%
%TO.N,Net-(U2-Pad5)*%
X43800000Y-133550000D03*
%TO.P,U2,6*%
%TO.N,Net-(U2-Pad6)*%
X45800000Y-133550000D03*
%TO.P,U2,7*%
%TO.N,Net-(SW3-Pad1)*%
X47800000Y-133550000D03*
%TO.P,U2,8*%
%TO.N,+3V3*%
X49800000Y-133550000D03*
D12*
%TO.P,U2,9*%
%TO.N,Net-(U2-Pad9)*%
X51300000Y-130950000D03*
%TO.P,U2,10*%
%TO.N,Net-(U2-Pad10)*%
X51300000Y-128950000D03*
%TO.P,U2,11*%
%TO.N,Net-(U2-Pad11)*%
X51300000Y-126950000D03*
%TO.P,U2,12*%
%TO.N,Net-(U2-Pad12)*%
X51300000Y-124950000D03*
%TO.P,U2,13*%
%TO.N,Net-(U2-Pad13)*%
X51300000Y-122950000D03*
%TO.P,U2,14*%
%TO.N,Net-(U2-Pad14)*%
X51300000Y-120950000D03*
D11*
%TO.P,U2,15*%
%TO.N,GND*%
X49800000Y-118350000D03*
%TO.P,U2,16*%
%TO.N,Net-(R2-Pad1)*%
X47800000Y-118350000D03*
%TO.P,U2,17*%
%TO.N,Net-(U2-Pad17)*%
X45800000Y-118350000D03*
%TO.P,U2,18*%
%TO.N,Net-(U2-Pad18)*%
X43800000Y-118350000D03*
%TO.P,U2,19*%
%TO.N,Net-(U2-Pad19)*%
X41800000Y-118350000D03*
%TO.P,U2,20*%
%TO.N,Net-(SW2-Pad1)*%
X39800000Y-118350000D03*
%TO.P,U2,21*%
%TO.N,Net-(U2-Pad21)*%
X37800000Y-118350000D03*
%TO.P,U2,22*%
%TO.N,Net-(U2-Pad22)*%
X35800000Y-118350000D03*
%TD*%
D13*
%TO.P,SW3,2*%
%TO.N,GND*%
X106600000Y-131000000D03*
%TO.P,SW3,1*%
%TO.N,Net-(SW3-Pad1)*%
X114400000Y-131000000D03*
%TD*%
D14*
%TO.P,SW2,2*%
%TO.N,GND*%
X74150000Y-134100000D03*
%TO.P,SW2,1*%
%TO.N,Net-(SW2-Pad1)*%
X54150000Y-134100000D03*
%TD*%
%TO.P,SW1,2*%
%TO.N,Net-(C1-Pad1)*%
X104150000Y-118350000D03*
%TO.P,SW1,1*%
%TO.N,Net-(J1-Pad2)*%
X124150000Y-118350000D03*
%TD*%
D13*
%TO.P,SW3,1*%
%TO.N,Net-(SW3-Pad1)*%
X64400000Y-131000000D03*
%TO.P,SW3,2*%
%TO.N,GND*%
X56600000Y-131000000D03*
%TD*%
D14*
%TO.P,SW2,1*%
%TO.N,Net-(SW2-Pad1)*%
X104150000Y-134100000D03*
%TO.P,SW2,2*%
%TO.N,GND*%
X124150000Y-134100000D03*
%TD*%
D15*
%TO.P,J1,2*%
%TO.N,Net-(J1-Pad2)*%
X121000000Y-122000000D03*
%TO.P,J1,1*%
%TO.N,GND*%
%TA.AperFunction,ComponentPad*%
G36*
G01*
X118400000Y-122625001D02*
X118400000Y-121374999D01*
G75*
G02*
X118649999Y-121125000I249999J0D01*
G01*
X119350001Y-121125000D01*
G75*
G02*
X119600000Y-121374999I0J-249999D01*
G01*
X119600000Y-122625001D01*
G75*
G02*
X119350001Y-122875000I-249999J0D01*
G01*
X118649999Y-122875000D01*
G75*
G02*
X118400000Y-122625001I0J249999D01*
G01*
G37*
%TD.AperFunction*%
%TD*%
%TO.P,J1,1*%
%TO.N,GND*%
%TA.AperFunction,ComponentPad*%
G36*
G01*
X68400000Y-122625001D02*
X68400000Y-121374999D01*
G75*
G02*
X68649999Y-121125000I249999J0D01*
G01*
X69350001Y-121125000D01*
G75*
G02*
X69600000Y-121374999I0J-249999D01*
G01*
X69600000Y-122625001D01*
G75*
G02*
X69350001Y-122875000I-249999J0D01*
G01*
X68649999Y-122875000D01*
G75*
G02*
X68400000Y-122625001I0J249999D01*
G01*
G37*
%TD.AperFunction*%
%TO.P,J1,2*%
%TO.N,Net-(J1-Pad2)*%
X71000000Y-122000000D03*
%TD*%
D16*
%TO.P,C1,1*%
%TO.N,Net-(C1-Pad1)*%
X105500000Y-124500000D03*
D17*
%TO.P,C1,2*%
%TO.N,GND*%
X105500000Y-122000000D03*
%TD*%
D14*
%TO.P,SW1,1*%
%TO.N,Net-(J1-Pad2)*%
X74150000Y-118350000D03*
%TO.P,SW1,2*%
%TO.N,Net-(C1-Pad1)*%
X54150000Y-118350000D03*
%TD*%
D11*
%TO.P,U2,22*%
%TO.N,Net-(U2-Pad22)*%
X85800000Y-118350000D03*
%TO.P,U2,21*%
%TO.N,Net-(U2-Pad21)*%
X87800000Y-118350000D03*
%TO.P,U2,20*%
%TO.N,Net-(SW2-Pad1)*%
X89800000Y-118350000D03*
%TO.P,U2,19*%
%TO.N,Net-(U2-Pad19)*%
X91800000Y-118350000D03*
%TO.P,U2,18*%
%TO.N,Net-(U2-Pad18)*%
X93800000Y-118350000D03*
%TO.P,U2,17*%
%TO.N,Net-(U2-Pad17)*%
X95800000Y-118350000D03*
%TO.P,U2,16*%
%TO.N,Net-(R2-Pad1)*%
X97800000Y-118350000D03*
%TO.P,U2,15*%
%TO.N,GND*%
X99800000Y-118350000D03*
D12*
%TO.P,U2,14*%
%TO.N,Net-(U2-Pad14)*%
X101300000Y-120950000D03*
%TO.P,U2,13*%
%TO.N,Net-(U2-Pad13)*%
X101300000Y-122950000D03*
%TO.P,U2,12*%
%TO.N,Net-(U2-Pad12)*%
X101300000Y-124950000D03*
%TO.P,U2,11*%
%TO.N,Net-(U2-Pad11)*%
X101300000Y-126950000D03*
%TO.P,U2,10*%
%TO.N,Net-(U2-Pad10)*%
X101300000Y-128950000D03*
%TO.P,U2,9*%
%TO.N,Net-(U2-Pad9)*%
X101300000Y-130950000D03*
D11*
%TO.P,U2,8*%
%TO.N,+3V3*%
X99800000Y-133550000D03*
%TO.P,U2,7*%
%TO.N,Net-(SW3-Pad1)*%
X97800000Y-133550000D03*
%TO.P,U2,6*%
%TO.N,Net-(U2-Pad6)*%
X95800000Y-133550000D03*
%TO.P,U2,5*%
%TO.N,Net-(U2-Pad5)*%
X93800000Y-133550000D03*
%TO.P,U2,4*%
%TO.N,Net-(U2-Pad1)*%
X91800000Y-133550000D03*
%TO.P,U2,3*%
%TO.N,+3V3*%
X89800000Y-133550000D03*
%TO.P,U2,2*%
%TO.N,Net-(U2-Pad2)*%
X87800000Y-133550000D03*
%TO.P,U2,1*%
%TO.N,Net-(U2-Pad1)*%
X85800000Y-133550000D03*
%TD*%
D17*
%TO.P,C1,2*%
%TO.N,GND*%
X55500000Y-122000000D03*
D16*
%TO.P,C1,1*%
%TO.N,Net-(C1-Pad1)*%
X55500000Y-124500000D03*
%TD*%
%TO.P,J1,1*%
%TO.N,GND*%
%TA.AperFunction,ComponentPad*%
G36*
G01*
X118400000Y-102625001D02*
X118400000Y-101374999D01*
G75*
G02*
X118649999Y-101125000I249999J0D01*
G01*
X119350001Y-101125000D01*
G75*
G02*
X119600000Y-101374999I0J-249999D01*
G01*
X119600000Y-102625001D01*
G75*
G02*
X119350001Y-102875000I-249999J0D01*
G01*
X118649999Y-102875000D01*
G75*
G02*
X118400000Y-102625001I0J249999D01*
G01*
G37*
%TD.AperFunction*%
D15*
%TO.P,J1,2*%
%TO.N,Net-(J1-Pad2)*%
X121000000Y-102000000D03*
%TD*%
D14*
%TO.P,SW2,1*%
%TO.N,Net-(SW2-Pad1)*%
X54150000Y-114100000D03*
%TO.P,SW2,2*%
%TO.N,GND*%
X74150000Y-114100000D03*
%TD*%
D11*
%TO.P,U2,22*%
%TO.N,Net-(U2-Pad22)*%
X35800000Y-98350000D03*
%TO.P,U2,21*%
%TO.N,Net-(U2-Pad21)*%
X37800000Y-98350000D03*
%TO.P,U2,20*%
%TO.N,Net-(SW2-Pad1)*%
X39800000Y-98350000D03*
%TO.P,U2,19*%
%TO.N,Net-(U2-Pad19)*%
X41800000Y-98350000D03*
%TO.P,U2,18*%
%TO.N,Net-(U2-Pad18)*%
X43800000Y-98350000D03*
%TO.P,U2,17*%
%TO.N,Net-(U2-Pad17)*%
X45800000Y-98350000D03*
%TO.P,U2,16*%
%TO.N,Net-(R2-Pad1)*%
X47800000Y-98350000D03*
%TO.P,U2,15*%
%TO.N,GND*%
X49800000Y-98350000D03*
D12*
%TO.P,U2,14*%
%TO.N,Net-(U2-Pad14)*%
X51300000Y-100950000D03*
%TO.P,U2,13*%
%TO.N,Net-(U2-Pad13)*%
X51300000Y-102950000D03*
%TO.P,U2,12*%
%TO.N,Net-(U2-Pad12)*%
X51300000Y-104950000D03*
%TO.P,U2,11*%
%TO.N,Net-(U2-Pad11)*%
X51300000Y-106950000D03*
%TO.P,U2,10*%
%TO.N,Net-(U2-Pad10)*%
X51300000Y-108950000D03*
%TO.P,U2,9*%
%TO.N,Net-(U2-Pad9)*%
X51300000Y-110950000D03*
D11*
%TO.P,U2,8*%
%TO.N,+3V3*%
X49800000Y-113550000D03*
%TO.P,U2,7*%
%TO.N,Net-(SW3-Pad1)*%
X47800000Y-113550000D03*
%TO.P,U2,6*%
%TO.N,Net-(U2-Pad6)*%
X45800000Y-113550000D03*
%TO.P,U2,5*%
%TO.N,Net-(U2-Pad5)*%
X43800000Y-113550000D03*
%TO.P,U2,4*%
%TO.N,Net-(U2-Pad1)*%
X41800000Y-113550000D03*
%TO.P,U2,3*%
%TO.N,+3V3*%
X39800000Y-113550000D03*
%TO.P,U2,2*%
%TO.N,Net-(U2-Pad2)*%
X37800000Y-113550000D03*
%TO.P,U2,1*%
%TO.N,Net-(U2-Pad1)*%
X35800000Y-113550000D03*
%TD*%
D14*
%TO.P,SW2,2*%
%TO.N,GND*%
X124150000Y-114100000D03*
%TO.P,SW2,1*%
%TO.N,Net-(SW2-Pad1)*%
X104150000Y-114100000D03*
%TD*%
D13*
%TO.P,SW3,2*%
%TO.N,GND*%
X56600000Y-111000000D03*
%TO.P,SW3,1*%
%TO.N,Net-(SW3-Pad1)*%
X64400000Y-111000000D03*
%TD*%
D14*
%TO.P,SW1,1*%
%TO.N,Net-(J1-Pad2)*%
X124150000Y-98350000D03*
%TO.P,SW1,2*%
%TO.N,Net-(C1-Pad1)*%
X104150000Y-98350000D03*
%TD*%
D13*
%TO.P,SW3,1*%
%TO.N,Net-(SW3-Pad1)*%
X114400000Y-111000000D03*
%TO.P,SW3,2*%
%TO.N,GND*%
X106600000Y-111000000D03*
%TD*%
D15*
%TO.P,J1,2*%
%TO.N,Net-(J1-Pad2)*%
X71000000Y-102000000D03*
%TO.P,J1,1*%
%TO.N,GND*%
%TA.AperFunction,ComponentPad*%
G36*
G01*
X68400000Y-102625001D02*
X68400000Y-101374999D01*
G75*
G02*
X68649999Y-101125000I249999J0D01*
G01*
X69350001Y-101125000D01*
G75*
G02*
X69600000Y-101374999I0J-249999D01*
G01*
X69600000Y-102625001D01*
G75*
G02*
X69350001Y-102875000I-249999J0D01*
G01*
X68649999Y-102875000D01*
G75*
G02*
X68400000Y-102625001I0J249999D01*
G01*
G37*
%TD.AperFunction*%
%TD*%
D11*
%TO.P,U2,1*%
%TO.N,Net-(U2-Pad1)*%
X85800000Y-113550000D03*
%TO.P,U2,2*%
%TO.N,Net-(U2-Pad2)*%
X87800000Y-113550000D03*
%TO.P,U2,3*%
%TO.N,+3V3*%
X89800000Y-113550000D03*
%TO.P,U2,4*%
%TO.N,Net-(U2-Pad1)*%
X91800000Y-113550000D03*
%TO.P,U2,5*%
%TO.N,Net-(U2-Pad5)*%
X93800000Y-113550000D03*
%TO.P,U2,6*%
%TO.N,Net-(U2-Pad6)*%
X95800000Y-113550000D03*
%TO.P,U2,7*%
%TO.N,Net-(SW3-Pad1)*%
X97800000Y-113550000D03*
%TO.P,U2,8*%
%TO.N,+3V3*%
X99800000Y-113550000D03*
D12*
%TO.P,U2,9*%
%TO.N,Net-(U2-Pad9)*%
X101300000Y-110950000D03*
%TO.P,U2,10*%
%TO.N,Net-(U2-Pad10)*%
X101300000Y-108950000D03*
%TO.P,U2,11*%
%TO.N,Net-(U2-Pad11)*%
X101300000Y-106950000D03*
%TO.P,U2,12*%
%TO.N,Net-(U2-Pad12)*%
X101300000Y-104950000D03*
%TO.P,U2,13*%
%TO.N,Net-(U2-Pad13)*%
X101300000Y-102950000D03*
%TO.P,U2,14*%
%TO.N,Net-(U2-Pad14)*%
X101300000Y-100950000D03*
D11*
%TO.P,U2,15*%
%TO.N,GND*%
X99800000Y-98350000D03*
%TO.P,U2,16*%
%TO.N,Net-(R2-Pad1)*%
X97800000Y-98350000D03*
%TO.P,U2,17*%
%TO.N,Net-(U2-Pad17)*%
X95800000Y-98350000D03*
%TO.P,U2,18*%
%TO.N,Net-(U2-Pad18)*%
X93800000Y-98350000D03*
%TO.P,U2,19*%
%TO.N,Net-(U2-Pad19)*%
X91800000Y-98350000D03*
%TO.P,U2,20*%
%TO.N,Net-(SW2-Pad1)*%
X89800000Y-98350000D03*
%TO.P,U2,21*%
%TO.N,Net-(U2-Pad21)*%
X87800000Y-98350000D03*
%TO.P,U2,22*%
%TO.N,Net-(U2-Pad22)*%
X85800000Y-98350000D03*
%TD*%
D16*
%TO.P,C1,1*%
%TO.N,Net-(C1-Pad1)*%
X55500000Y-104500000D03*
D17*
%TO.P,C1,2*%
%TO.N,GND*%
X55500000Y-102000000D03*
%TD*%
D14*
%TO.P,SW1,2*%
%TO.N,Net-(C1-Pad1)*%
X54150000Y-98350000D03*
%TO.P,SW1,1*%
%TO.N,Net-(J1-Pad2)*%
X74150000Y-98350000D03*
%TD*%
D17*
%TO.P,C1,2*%
%TO.N,GND*%
X105500000Y-102000000D03*
D16*
%TO.P,C1,1*%
%TO.N,Net-(C1-Pad1)*%
X105500000Y-104500000D03*
%TD*%
D14*
%TO.P,SW2,2*%
%TO.N,GND*%
X74150000Y-94100000D03*
%TO.P,SW2,1*%
%TO.N,Net-(SW2-Pad1)*%
X54150000Y-94100000D03*
%TD*%
D15*
%TO.P,J1,2*%
%TO.N,Net-(J1-Pad2)*%
X121000000Y-82000000D03*
%TO.P,J1,1*%
%TO.N,GND*%
%TA.AperFunction,ComponentPad*%
G36*
G01*
X118400000Y-82625001D02*
X118400000Y-81374999D01*
G75*
G02*
X118649999Y-81125000I249999J0D01*
G01*
X119350001Y-81125000D01*
G75*
G02*
X119600000Y-81374999I0J-249999D01*
G01*
X119600000Y-82625001D01*
G75*
G02*
X119350001Y-82875000I-249999J0D01*
G01*
X118649999Y-82875000D01*
G75*
G02*
X118400000Y-82625001I0J249999D01*
G01*
G37*
%TD.AperFunction*%
%TD*%
D11*
%TO.P,U2,1*%
%TO.N,Net-(U2-Pad1)*%
X35800000Y-93550000D03*
%TO.P,U2,2*%
%TO.N,Net-(U2-Pad2)*%
X37800000Y-93550000D03*
%TO.P,U2,3*%
%TO.N,+3V3*%
X39800000Y-93550000D03*
%TO.P,U2,4*%
%TO.N,Net-(U2-Pad1)*%
X41800000Y-93550000D03*
%TO.P,U2,5*%
%TO.N,Net-(U2-Pad5)*%
X43800000Y-93550000D03*
%TO.P,U2,6*%
%TO.N,Net-(U2-Pad6)*%
X45800000Y-93550000D03*
%TO.P,U2,7*%
%TO.N,Net-(SW3-Pad1)*%
X47800000Y-93550000D03*
%TO.P,U2,8*%
%TO.N,+3V3*%
X49800000Y-93550000D03*
D12*
%TO.P,U2,9*%
%TO.N,Net-(U2-Pad9)*%
X51300000Y-90950000D03*
%TO.P,U2,10*%
%TO.N,Net-(U2-Pad10)*%
X51300000Y-88950000D03*
%TO.P,U2,11*%
%TO.N,Net-(U2-Pad11)*%
X51300000Y-86950000D03*
%TO.P,U2,12*%
%TO.N,Net-(U2-Pad12)*%
X51300000Y-84950000D03*
%TO.P,U2,13*%
%TO.N,Net-(U2-Pad13)*%
X51300000Y-82950000D03*
%TO.P,U2,14*%
%TO.N,Net-(U2-Pad14)*%
X51300000Y-80950000D03*
D11*
%TO.P,U2,15*%
%TO.N,GND*%
X49800000Y-78350000D03*
%TO.P,U2,16*%
%TO.N,Net-(R2-Pad1)*%
X47800000Y-78350000D03*
%TO.P,U2,17*%
%TO.N,Net-(U2-Pad17)*%
X45800000Y-78350000D03*
%TO.P,U2,18*%
%TO.N,Net-(U2-Pad18)*%
X43800000Y-78350000D03*
%TO.P,U2,19*%
%TO.N,Net-(U2-Pad19)*%
X41800000Y-78350000D03*
%TO.P,U2,20*%
%TO.N,Net-(SW2-Pad1)*%
X39800000Y-78350000D03*
%TO.P,U2,21*%
%TO.N,Net-(U2-Pad21)*%
X37800000Y-78350000D03*
%TO.P,U2,22*%
%TO.N,Net-(U2-Pad22)*%
X35800000Y-78350000D03*
%TD*%
D14*
%TO.P,SW2,1*%
%TO.N,Net-(SW2-Pad1)*%
X104150000Y-94100000D03*
%TO.P,SW2,2*%
%TO.N,GND*%
X124150000Y-94100000D03*
%TD*%
D13*
%TO.P,SW3,1*%
%TO.N,Net-(SW3-Pad1)*%
X64400000Y-91000000D03*
%TO.P,SW3,2*%
%TO.N,GND*%
X56600000Y-91000000D03*
%TD*%
D14*
%TO.P,SW1,2*%
%TO.N,Net-(C1-Pad1)*%
X104150000Y-78350000D03*
%TO.P,SW1,1*%
%TO.N,Net-(J1-Pad2)*%
X124150000Y-78350000D03*
%TD*%
D13*
%TO.P,SW3,2*%
%TO.N,GND*%
X106600000Y-91000000D03*
%TO.P,SW3,1*%
%TO.N,Net-(SW3-Pad1)*%
X114400000Y-91000000D03*
%TD*%
%TO.P,J1,1*%
%TO.N,GND*%
%TA.AperFunction,ComponentPad*%
G36*
G01*
X68400000Y-82625001D02*
X68400000Y-81374999D01*
G75*
G02*
X68649999Y-81125000I249999J0D01*
G01*
X69350001Y-81125000D01*
G75*
G02*
X69600000Y-81374999I0J-249999D01*
G01*
X69600000Y-82625001D01*
G75*
G02*
X69350001Y-82875000I-249999J0D01*
G01*
X68649999Y-82875000D01*
G75*
G02*
X68400000Y-82625001I0J249999D01*
G01*
G37*
%TD.AperFunction*%
D15*
%TO.P,J1,2*%
%TO.N,Net-(J1-Pad2)*%
X71000000Y-82000000D03*
%TD*%
D11*
%TO.P,U2,22*%
%TO.N,Net-(U2-Pad22)*%
X85800000Y-78350000D03*
%TO.P,U2,21*%
%TO.N,Net-(U2-Pad21)*%
X87800000Y-78350000D03*
%TO.P,U2,20*%
%TO.N,Net-(SW2-Pad1)*%
X89800000Y-78350000D03*
%TO.P,U2,19*%
%TO.N,Net-(U2-Pad19)*%
X91800000Y-78350000D03*
%TO.P,U2,18*%
%TO.N,Net-(U2-Pad18)*%
X93800000Y-78350000D03*
%TO.P,U2,17*%
%TO.N,Net-(U2-Pad17)*%
X95800000Y-78350000D03*
%TO.P,U2,16*%
%TO.N,Net-(R2-Pad1)*%
X97800000Y-78350000D03*
%TO.P,U2,15*%
%TO.N,GND*%
X99800000Y-78350000D03*
D12*
%TO.P,U2,14*%
%TO.N,Net-(U2-Pad14)*%
X101300000Y-80950000D03*
%TO.P,U2,13*%
%TO.N,Net-(U2-Pad13)*%
X101300000Y-82950000D03*
%TO.P,U2,12*%
%TO.N,Net-(U2-Pad12)*%
X101300000Y-84950000D03*
%TO.P,U2,11*%
%TO.N,Net-(U2-Pad11)*%
X101300000Y-86950000D03*
%TO.P,U2,10*%
%TO.N,Net-(U2-Pad10)*%
X101300000Y-88950000D03*
%TO.P,U2,9*%
%TO.N,Net-(U2-Pad9)*%
X101300000Y-90950000D03*
D11*
%TO.P,U2,8*%
%TO.N,+3V3*%
X99800000Y-93550000D03*
%TO.P,U2,7*%
%TO.N,Net-(SW3-Pad1)*%
X97800000Y-93550000D03*
%TO.P,U2,6*%
%TO.N,Net-(U2-Pad6)*%
X95800000Y-93550000D03*
%TO.P,U2,5*%
%TO.N,Net-(U2-Pad5)*%
X93800000Y-93550000D03*
%TO.P,U2,4*%
%TO.N,Net-(U2-Pad1)*%
X91800000Y-93550000D03*
%TO.P,U2,3*%
%TO.N,+3V3*%
X89800000Y-93550000D03*
%TO.P,U2,2*%
%TO.N,Net-(U2-Pad2)*%
X87800000Y-93550000D03*
%TO.P,U2,1*%
%TO.N,Net-(U2-Pad1)*%
X85800000Y-93550000D03*
%TD*%
D16*
%TO.P,C1,1*%
%TO.N,Net-(C1-Pad1)*%
X105500000Y-84500000D03*
D17*
%TO.P,C1,2*%
%TO.N,GND*%
X105500000Y-82000000D03*
%TD*%
D14*
%TO.P,SW1,1*%
%TO.N,Net-(J1-Pad2)*%
X74150000Y-78350000D03*
%TO.P,SW1,2*%
%TO.N,Net-(C1-Pad1)*%
X54150000Y-78350000D03*
%TD*%
D17*
%TO.P,C1,2*%
%TO.N,GND*%
X55500000Y-82000000D03*
D16*
%TO.P,C1,1*%
%TO.N,Net-(C1-Pad1)*%
X55500000Y-84500000D03*
%TD*%
D14*
%TO.P,SW2,1*%
%TO.N,Net-(SW2-Pad1)*%
X54150000Y-74100000D03*
%TO.P,SW2,2*%
%TO.N,GND*%
X74150000Y-74100000D03*
%TD*%
%TO.P,SW2,2*%
%TO.N,GND*%
X124150000Y-74100000D03*
%TO.P,SW2,1*%
%TO.N,Net-(SW2-Pad1)*%
X104150000Y-74100000D03*
%TD*%
D11*
%TO.P,U2,22*%
%TO.N,Net-(U2-Pad22)*%
X35800000Y-58350000D03*
%TO.P,U2,21*%
%TO.N,Net-(U2-Pad21)*%
X37800000Y-58350000D03*
%TO.P,U2,20*%
%TO.N,Net-(SW2-Pad1)*%
X39800000Y-58350000D03*
%TO.P,U2,19*%
%TO.N,Net-(U2-Pad19)*%
X41800000Y-58350000D03*
%TO.P,U2,18*%
%TO.N,Net-(U2-Pad18)*%
X43800000Y-58350000D03*
%TO.P,U2,17*%
%TO.N,Net-(U2-Pad17)*%
X45800000Y-58350000D03*
%TO.P,U2,16*%
%TO.N,Net-(R2-Pad1)*%
X47800000Y-58350000D03*
%TO.P,U2,15*%
%TO.N,GND*%
X49800000Y-58350000D03*
D12*
%TO.P,U2,14*%
%TO.N,Net-(U2-Pad14)*%
X51300000Y-60950000D03*
%TO.P,U2,13*%
%TO.N,Net-(U2-Pad13)*%
X51300000Y-62950000D03*
%TO.P,U2,12*%
%TO.N,Net-(U2-Pad12)*%
X51300000Y-64950000D03*
%TO.P,U2,11*%
%TO.N,Net-(U2-Pad11)*%
X51300000Y-66950000D03*
%TO.P,U2,10*%
%TO.N,Net-(U2-Pad10)*%
X51300000Y-68950000D03*
%TO.P,U2,9*%
%TO.N,Net-(U2-Pad9)*%
X51300000Y-70950000D03*
D11*
%TO.P,U2,8*%
%TO.N,+3V3*%
X49800000Y-73550000D03*
%TO.P,U2,7*%
%TO.N,Net-(SW3-Pad1)*%
X47800000Y-73550000D03*
%TO.P,U2,6*%
%TO.N,Net-(U2-Pad6)*%
X45800000Y-73550000D03*
%TO.P,U2,5*%
%TO.N,Net-(U2-Pad5)*%
X43800000Y-73550000D03*
%TO.P,U2,4*%
%TO.N,Net-(U2-Pad1)*%
X41800000Y-73550000D03*
%TO.P,U2,3*%
%TO.N,+3V3*%
X39800000Y-73550000D03*
%TO.P,U2,2*%
%TO.N,Net-(U2-Pad2)*%
X37800000Y-73550000D03*
%TO.P,U2,1*%
%TO.N,Net-(U2-Pad1)*%
X35800000Y-73550000D03*
%TD*%
D13*
%TO.P,SW3,2*%
%TO.N,GND*%
X56600000Y-71000000D03*
%TO.P,SW3,1*%
%TO.N,Net-(SW3-Pad1)*%
X64400000Y-71000000D03*
%TD*%
%TO.P,J1,1*%
%TO.N,GND*%
%TA.AperFunction,ComponentPad*%
G36*
G01*
X118400000Y-62625001D02*
X118400000Y-61374999D01*
G75*
G02*
X118649999Y-61125000I249999J0D01*
G01*
X119350001Y-61125000D01*
G75*
G02*
X119600000Y-61374999I0J-249999D01*
G01*
X119600000Y-62625001D01*
G75*
G02*
X119350001Y-62875000I-249999J0D01*
G01*
X118649999Y-62875000D01*
G75*
G02*
X118400000Y-62625001I0J249999D01*
G01*
G37*
%TD.AperFunction*%
D15*
%TO.P,J1,2*%
%TO.N,Net-(J1-Pad2)*%
X121000000Y-62000000D03*
%TD*%
D14*
%TO.P,SW1,1*%
%TO.N,Net-(J1-Pad2)*%
X124150000Y-58350000D03*
%TO.P,SW1,2*%
%TO.N,Net-(C1-Pad1)*%
X104150000Y-58350000D03*
%TD*%
D15*
%TO.P,J1,2*%
%TO.N,Net-(J1-Pad2)*%
X71000000Y-62000000D03*
%TO.P,J1,1*%
%TO.N,GND*%
%TA.AperFunction,ComponentPad*%
G36*
G01*
X68400000Y-62625001D02*
X68400000Y-61374999D01*
G75*
G02*
X68649999Y-61125000I249999J0D01*
G01*
X69350001Y-61125000D01*
G75*
G02*
X69600000Y-61374999I0J-249999D01*
G01*
X69600000Y-62625001D01*
G75*
G02*
X69350001Y-62875000I-249999J0D01*
G01*
X68649999Y-62875000D01*
G75*
G02*
X68400000Y-62625001I0J249999D01*
G01*
G37*
%TD.AperFunction*%
%TD*%
D11*
%TO.P,U2,1*%
%TO.N,Net-(U2-Pad1)*%
X85800000Y-73550000D03*
%TO.P,U2,2*%
%TO.N,Net-(U2-Pad2)*%
X87800000Y-73550000D03*
%TO.P,U2,3*%
%TO.N,+3V3*%
X89800000Y-73550000D03*
%TO.P,U2,4*%
%TO.N,Net-(U2-Pad1)*%
X91800000Y-73550000D03*
%TO.P,U2,5*%
%TO.N,Net-(U2-Pad5)*%
X93800000Y-73550000D03*
%TO.P,U2,6*%
%TO.N,Net-(U2-Pad6)*%
X95800000Y-73550000D03*
%TO.P,U2,7*%
%TO.N,Net-(SW3-Pad1)*%
X97800000Y-73550000D03*
%TO.P,U2,8*%
%TO.N,+3V3*%
X99800000Y-73550000D03*
D12*
%TO.P,U2,9*%
%TO.N,Net-(U2-Pad9)*%
X101300000Y-70950000D03*
%TO.P,U2,10*%
%TO.N,Net-(U2-Pad10)*%
X101300000Y-68950000D03*
%TO.P,U2,11*%
%TO.N,Net-(U2-Pad11)*%
X101300000Y-66950000D03*
%TO.P,U2,12*%
%TO.N,Net-(U2-Pad12)*%
X101300000Y-64950000D03*
%TO.P,U2,13*%
%TO.N,Net-(U2-Pad13)*%
X101300000Y-62950000D03*
%TO.P,U2,14*%
%TO.N,Net-(U2-Pad14)*%
X101300000Y-60950000D03*
D11*
%TO.P,U2,15*%
%TO.N,GND*%
X99800000Y-58350000D03*
%TO.P,U2,16*%
%TO.N,Net-(R2-Pad1)*%
X97800000Y-58350000D03*
%TO.P,U2,17*%
%TO.N,Net-(U2-Pad17)*%
X95800000Y-58350000D03*
%TO.P,U2,18*%
%TO.N,Net-(U2-Pad18)*%
X93800000Y-58350000D03*
%TO.P,U2,19*%
%TO.N,Net-(U2-Pad19)*%
X91800000Y-58350000D03*
%TO.P,U2,20*%
%TO.N,Net-(SW2-Pad1)*%
X89800000Y-58350000D03*
%TO.P,U2,21*%
%TO.N,Net-(U2-Pad21)*%
X87800000Y-58350000D03*
%TO.P,U2,22*%
%TO.N,Net-(U2-Pad22)*%
X85800000Y-58350000D03*
%TD*%
D13*
%TO.P,SW3,1*%
%TO.N,Net-(SW3-Pad1)*%
X114400000Y-71000000D03*
%TO.P,SW3,2*%
%TO.N,GND*%
X106600000Y-71000000D03*
%TD*%
D17*
%TO.P,C1,2*%
%TO.N,GND*%
X105500000Y-62000000D03*
D16*
%TO.P,C1,1*%
%TO.N,Net-(C1-Pad1)*%
X105500000Y-64500000D03*
%TD*%
D14*
%TO.P,SW1,2*%
%TO.N,Net-(C1-Pad1)*%
X54150000Y-58350000D03*
%TO.P,SW1,1*%
%TO.N,Net-(J1-Pad2)*%
X74150000Y-58350000D03*
%TD*%
D16*
%TO.P,C1,1*%
%TO.N,Net-(C1-Pad1)*%
X55500000Y-64500000D03*
D17*
%TO.P,C1,2*%
%TO.N,GND*%
X55500000Y-62000000D03*
%TD*%
D14*
%TO.P,SW2,1*%
%TO.N,Net-(SW2-Pad1)*%
X104150000Y-54100000D03*
%TO.P,SW2,2*%
%TO.N,GND*%
X124150000Y-54100000D03*
%TD*%
D11*
%TO.P,U2,22*%
%TO.N,Net-(U2-Pad22)*%
X85800000Y-38350000D03*
%TO.P,U2,21*%
%TO.N,Net-(U2-Pad21)*%
X87800000Y-38350000D03*
%TO.P,U2,20*%
%TO.N,Net-(SW2-Pad1)*%
X89800000Y-38350000D03*
%TO.P,U2,19*%
%TO.N,Net-(U2-Pad19)*%
X91800000Y-38350000D03*
%TO.P,U2,18*%
%TO.N,Net-(U2-Pad18)*%
X93800000Y-38350000D03*
%TO.P,U2,17*%
%TO.N,Net-(U2-Pad17)*%
X95800000Y-38350000D03*
%TO.P,U2,16*%
%TO.N,Net-(R2-Pad1)*%
X97800000Y-38350000D03*
%TO.P,U2,15*%
%TO.N,GND*%
X99800000Y-38350000D03*
D12*
%TO.P,U2,14*%
%TO.N,Net-(U2-Pad14)*%
X101300000Y-40950000D03*
%TO.P,U2,13*%
%TO.N,Net-(U2-Pad13)*%
X101300000Y-42950000D03*
%TO.P,U2,12*%
%TO.N,Net-(U2-Pad12)*%
X101300000Y-44950000D03*
%TO.P,U2,11*%
%TO.N,Net-(U2-Pad11)*%
X101300000Y-46950000D03*
%TO.P,U2,10*%
%TO.N,Net-(U2-Pad10)*%
X101300000Y-48950000D03*
%TO.P,U2,9*%
%TO.N,Net-(U2-Pad9)*%
X101300000Y-50950000D03*
D11*
%TO.P,U2,8*%
%TO.N,+3V3*%
X99800000Y-53550000D03*
%TO.P,U2,7*%
%TO.N,Net-(SW3-Pad1)*%
X97800000Y-53550000D03*
%TO.P,U2,6*%
%TO.N,Net-(U2-Pad6)*%
X95800000Y-53550000D03*
%TO.P,U2,5*%
%TO.N,Net-(U2-Pad5)*%
X93800000Y-53550000D03*
%TO.P,U2,4*%
%TO.N,Net-(U2-Pad1)*%
X91800000Y-53550000D03*
%TO.P,U2,3*%
%TO.N,+3V3*%
X89800000Y-53550000D03*
%TO.P,U2,2*%
%TO.N,Net-(U2-Pad2)*%
X87800000Y-53550000D03*
%TO.P,U2,1*%
%TO.N,Net-(U2-Pad1)*%
X85800000Y-53550000D03*
%TD*%
D13*
%TO.P,SW3,2*%
%TO.N,GND*%
X106600000Y-51000000D03*
%TO.P,SW3,1*%
%TO.N,Net-(SW3-Pad1)*%
X114400000Y-51000000D03*
%TD*%
D15*
%TO.P,J1,2*%
%TO.N,Net-(J1-Pad2)*%
X121000000Y-42000000D03*
%TO.P,J1,1*%
%TO.N,GND*%
%TA.AperFunction,ComponentPad*%
G36*
G01*
X118400000Y-42625001D02*
X118400000Y-41374999D01*
G75*
G02*
X118649999Y-41125000I249999J0D01*
G01*
X119350001Y-41125000D01*
G75*
G02*
X119600000Y-41374999I0J-249999D01*
G01*
X119600000Y-42625001D01*
G75*
G02*
X119350001Y-42875000I-249999J0D01*
G01*
X118649999Y-42875000D01*
G75*
G02*
X118400000Y-42625001I0J249999D01*
G01*
G37*
%TD.AperFunction*%
%TD*%
D14*
%TO.P,SW1,2*%
%TO.N,Net-(C1-Pad1)*%
X104150000Y-38350000D03*
%TO.P,SW1,1*%
%TO.N,Net-(J1-Pad2)*%
X124150000Y-38350000D03*
%TD*%
D16*
%TO.P,C1,1*%
%TO.N,Net-(C1-Pad1)*%
X105500000Y-44500000D03*
D17*
%TO.P,C1,2*%
%TO.N,GND*%
X105500000Y-42000000D03*
%TD*%
%TO.P,C1,2*%
%TO.N,GND*%
X55500000Y-42000000D03*
D16*
%TO.P,C1,1*%
%TO.N,Net-(C1-Pad1)*%
X55500000Y-44500000D03*
%TD*%
%TO.P,J1,1*%
%TO.N,GND*%
%TA.AperFunction,ComponentPad*%
G36*
G01*
X68400000Y-42625001D02*
X68400000Y-41374999D01*
G75*
G02*
X68649999Y-41125000I249999J0D01*
G01*
X69350001Y-41125000D01*
G75*
G02*
X69600000Y-41374999I0J-249999D01*
G01*
X69600000Y-42625001D01*
G75*
G02*
X69350001Y-42875000I-249999J0D01*
G01*
X68649999Y-42875000D01*
G75*
G02*
X68400000Y-42625001I0J249999D01*
G01*
G37*
%TD.AperFunction*%
D15*
%TO.P,J1,2*%
%TO.N,Net-(J1-Pad2)*%
X71000000Y-42000000D03*
%TD*%
D14*
%TO.P,SW1,1*%
%TO.N,Net-(J1-Pad2)*%
X74150000Y-38350000D03*
%TO.P,SW1,2*%
%TO.N,Net-(C1-Pad1)*%
X54150000Y-38350000D03*
%TD*%
%TO.P,SW2,2*%
%TO.N,GND*%
X74150000Y-54100000D03*
%TO.P,SW2,1*%
%TO.N,Net-(SW2-Pad1)*%
X54150000Y-54100000D03*
%TD*%
D13*
%TO.P,SW3,1*%
%TO.N,Net-(SW3-Pad1)*%
X64400000Y-51000000D03*
%TO.P,SW3,2*%
%TO.N,GND*%
X56600000Y-51000000D03*
%TD*%
D11*
%TO.P,U2,1*%
%TO.N,Net-(U2-Pad1)*%
X35800000Y-53550000D03*
%TO.P,U2,2*%
%TO.N,Net-(U2-Pad2)*%
X37800000Y-53550000D03*
%TO.P,U2,3*%
%TO.N,+3V3*%
X39800000Y-53550000D03*
%TO.P,U2,4*%
%TO.N,Net-(U2-Pad1)*%
X41800000Y-53550000D03*
%TO.P,U2,5*%
%TO.N,Net-(U2-Pad5)*%
X43800000Y-53550000D03*
%TO.P,U2,6*%
%TO.N,Net-(U2-Pad6)*%
X45800000Y-53550000D03*
%TO.P,U2,7*%
%TO.N,Net-(SW3-Pad1)*%
X47800000Y-53550000D03*
%TO.P,U2,8*%
%TO.N,+3V3*%
X49800000Y-53550000D03*
D12*
%TO.P,U2,9*%
%TO.N,Net-(U2-Pad9)*%
X51300000Y-50950000D03*
%TO.P,U2,10*%
%TO.N,Net-(U2-Pad10)*%
X51300000Y-48950000D03*
%TO.P,U2,11*%
%TO.N,Net-(U2-Pad11)*%
X51300000Y-46950000D03*
%TO.P,U2,12*%
%TO.N,Net-(U2-Pad12)*%
X51300000Y-44950000D03*
%TO.P,U2,13*%
%TO.N,Net-(U2-Pad13)*%
X51300000Y-42950000D03*
%TO.P,U2,14*%
%TO.N,Net-(U2-Pad14)*%
X51300000Y-40950000D03*
D11*
%TO.P,U2,15*%
%TO.N,GND*%
X49800000Y-38350000D03*
%TO.P,U2,16*%
%TO.N,Net-(R2-Pad1)*%
X47800000Y-38350000D03*
%TO.P,U2,17*%
%TO.N,Net-(U2-Pad17)*%
X45800000Y-38350000D03*
%TO.P,U2,18*%
%TO.N,Net-(U2-Pad18)*%
X43800000Y-38350000D03*
%TO.P,U2,19*%
%TO.N,Net-(U2-Pad19)*%
X41800000Y-38350000D03*
%TO.P,U2,20*%
%TO.N,Net-(SW2-Pad1)*%
X39800000Y-38350000D03*
%TO.P,U2,21*%
%TO.N,Net-(U2-Pad21)*%
X37800000Y-38350000D03*
%TO.P,U2,22*%
%TO.N,Net-(U2-Pad22)*%
X35800000Y-38350000D03*
%TD*%
D18*
%TO.N,+3V3*%
X39392400Y-51672500D03*
X89392400Y-51672500D03*
X39392400Y-71672500D03*
X89392400Y-71672500D03*
X89392400Y-91672500D03*
X39392400Y-91672500D03*
X39392400Y-111672500D03*
X89392400Y-111672500D03*
X39392400Y-131672500D03*
X89392400Y-131672500D03*
%TO.N,Net-(R2-Pad1)*%
X47713800Y-40699500D03*
X97713800Y-40699500D03*
X47713800Y-60699500D03*
X97713800Y-60699500D03*
X97713800Y-80699500D03*
X47713800Y-80699500D03*
X97713800Y-100699500D03*
X47713800Y-100699500D03*
X47713800Y-120699500D03*
X97713800Y-120699500D03*
%TD*%
D19*
%TO.N,Net-(C1-Pad1)*%
X55500000Y-44500000D02*
X55500000Y-43374700D01*
X54150000Y-38350000D02*
X56625300Y-40825300D01*
X56625300Y-40825300D02*
X56625300Y-42530800D01*
X56625300Y-42530800D02*
X55781400Y-43374700D01*
X55781400Y-43374700D02*
X55500000Y-43374700D01*
X105500000Y-44500000D02*
X105500000Y-43374700D01*
X105781400Y-43374700D02*
X105500000Y-43374700D01*
X106625300Y-40825300D02*
X106625300Y-42530800D01*
X106625300Y-42530800D02*
X105781400Y-43374700D01*
X104150000Y-38350000D02*
X106625300Y-40825300D01*
X105781400Y-63374700D02*
X105500000Y-63374700D01*
X105500000Y-64500000D02*
X105500000Y-63374700D01*
X104150000Y-58350000D02*
X106625300Y-60825300D01*
X106625300Y-62530800D02*
X105781400Y-63374700D01*
X106625300Y-60825300D02*
X106625300Y-62530800D01*
X55500000Y-64500000D02*
X55500000Y-63374700D01*
X55781400Y-63374700D02*
X55500000Y-63374700D01*
X56625300Y-60825300D02*
X56625300Y-62530800D01*
X56625300Y-62530800D02*
X55781400Y-63374700D01*
X54150000Y-58350000D02*
X56625300Y-60825300D01*
X105781400Y-83374700D02*
X105500000Y-83374700D01*
X106625300Y-82530800D02*
X105781400Y-83374700D01*
X104150000Y-78350000D02*
X106625300Y-80825300D01*
X106625300Y-80825300D02*
X106625300Y-82530800D01*
X105500000Y-84500000D02*
X105500000Y-83374700D01*
X54150000Y-78350000D02*
X56625300Y-80825300D01*
X56625300Y-82530800D02*
X55781400Y-83374700D01*
X55781400Y-83374700D02*
X55500000Y-83374700D01*
X55500000Y-84500000D02*
X55500000Y-83374700D01*
X56625300Y-80825300D02*
X56625300Y-82530800D01*
X106625300Y-102530800D02*
X105781400Y-103374700D01*
X105781400Y-103374700D02*
X105500000Y-103374700D01*
X104150000Y-98350000D02*
X106625300Y-100825300D01*
X106625300Y-100825300D02*
X106625300Y-102530800D01*
X56625300Y-100825300D02*
X56625300Y-102530800D01*
X105500000Y-104500000D02*
X105500000Y-103374700D01*
X54150000Y-98350000D02*
X56625300Y-100825300D01*
X55781400Y-103374700D02*
X55500000Y-103374700D01*
X55500000Y-104500000D02*
X55500000Y-103374700D01*
X56625300Y-102530800D02*
X55781400Y-103374700D01*
X55781400Y-123374700D02*
X55500000Y-123374700D01*
X105500000Y-124500000D02*
X105500000Y-123374700D01*
X55500000Y-124500000D02*
X55500000Y-123374700D01*
X56625300Y-120825300D02*
X56625300Y-122530800D01*
X54150000Y-118350000D02*
X56625300Y-120825300D01*
X56625300Y-122530800D02*
X55781400Y-123374700D01*
X104150000Y-118350000D02*
X106625300Y-120825300D01*
X105781400Y-123374700D02*
X105500000Y-123374700D01*
X106625300Y-122530800D02*
X105781400Y-123374700D01*
X106625300Y-120825300D02*
X106625300Y-122530800D01*
%TO.N,GND*%
X69000000Y-42000000D02*
X69000000Y-48950000D01*
X69000000Y-48950000D02*
X74150000Y-54100000D01*
X54367000Y-42000000D02*
X55500000Y-42000000D01*
X49800000Y-39925300D02*
X52292300Y-39925300D01*
X52292300Y-39925300D02*
X54367000Y-42000000D01*
X54367000Y-42000000D02*
X54367000Y-47691700D01*
X54367000Y-47691700D02*
X56600000Y-49924700D01*
X56600000Y-51000000D02*
X56600000Y-49924700D01*
X49800000Y-38350000D02*
X49800000Y-39925300D01*
X102292300Y-39925300D02*
X104367000Y-42000000D01*
X99800000Y-38350000D02*
X99800000Y-39925300D01*
X119000000Y-42000000D02*
X119000000Y-48950000D01*
X119000000Y-48950000D02*
X124150000Y-54100000D01*
X99800000Y-39925300D02*
X102292300Y-39925300D01*
X104367000Y-42000000D02*
X105500000Y-42000000D01*
X104367000Y-42000000D02*
X104367000Y-47691700D01*
X104367000Y-47691700D02*
X106600000Y-49924700D01*
X106600000Y-51000000D02*
X106600000Y-49924700D01*
X119000000Y-62000000D02*
X119000000Y-68950000D01*
X99800000Y-58350000D02*
X99800000Y-59925300D01*
X104367000Y-62000000D02*
X105500000Y-62000000D01*
X106600000Y-71000000D02*
X106600000Y-69924700D01*
X104367000Y-62000000D02*
X104367000Y-67691700D01*
X99800000Y-59925300D02*
X102292300Y-59925300D01*
X104367000Y-67691700D02*
X106600000Y-69924700D01*
X119000000Y-68950000D02*
X124150000Y-74100000D01*
X102292300Y-59925300D02*
X104367000Y-62000000D01*
X52292300Y-59925300D02*
X54367000Y-62000000D01*
X49800000Y-58350000D02*
X49800000Y-59925300D01*
X69000000Y-62000000D02*
X69000000Y-68950000D01*
X69000000Y-68950000D02*
X74150000Y-74100000D01*
X49800000Y-59925300D02*
X52292300Y-59925300D01*
X54367000Y-62000000D02*
X55500000Y-62000000D01*
X54367000Y-62000000D02*
X54367000Y-67691700D01*
X54367000Y-67691700D02*
X56600000Y-69924700D01*
X56600000Y-71000000D02*
X56600000Y-69924700D01*
X104367000Y-87691700D02*
X106600000Y-89924700D01*
X99800000Y-79925300D02*
X102292300Y-79925300D01*
X104367000Y-82000000D02*
X105500000Y-82000000D01*
X52292300Y-79925300D02*
X54367000Y-82000000D01*
X99800000Y-78350000D02*
X99800000Y-79925300D01*
X49800000Y-78350000D02*
X49800000Y-79925300D01*
X119000000Y-88950000D02*
X124150000Y-94100000D01*
X104367000Y-82000000D02*
X104367000Y-87691700D01*
X106600000Y-91000000D02*
X106600000Y-89924700D01*
X102292300Y-79925300D02*
X104367000Y-82000000D01*
X119000000Y-82000000D02*
X119000000Y-88950000D01*
X54367000Y-87691700D02*
X56600000Y-89924700D01*
X54367000Y-82000000D02*
X55500000Y-82000000D01*
X69000000Y-88950000D02*
X74150000Y-94100000D01*
X49800000Y-79925300D02*
X52292300Y-79925300D01*
X54367000Y-82000000D02*
X54367000Y-87691700D01*
X69000000Y-82000000D02*
X69000000Y-88950000D01*
X56600000Y-91000000D02*
X56600000Y-89924700D01*
X49800000Y-98350000D02*
X49800000Y-99925300D01*
X99800000Y-99925300D02*
X102292300Y-99925300D01*
X104367000Y-102000000D02*
X105500000Y-102000000D01*
X104367000Y-102000000D02*
X104367000Y-107691700D01*
X52292300Y-99925300D02*
X54367000Y-102000000D01*
X106600000Y-111000000D02*
X106600000Y-109924700D01*
X99800000Y-98350000D02*
X99800000Y-99925300D01*
X102292300Y-99925300D02*
X104367000Y-102000000D01*
X104367000Y-107691700D02*
X106600000Y-109924700D01*
X119000000Y-108950000D02*
X124150000Y-114100000D01*
X54367000Y-107691700D02*
X56600000Y-109924700D01*
X119000000Y-102000000D02*
X119000000Y-108950000D01*
X49800000Y-99925300D02*
X52292300Y-99925300D01*
X69000000Y-108950000D02*
X74150000Y-114100000D01*
X54367000Y-102000000D02*
X55500000Y-102000000D01*
X54367000Y-102000000D02*
X54367000Y-107691700D01*
X69000000Y-102000000D02*
X69000000Y-108950000D01*
X56600000Y-111000000D02*
X56600000Y-109924700D01*
X119000000Y-122000000D02*
X119000000Y-128950000D01*
X69000000Y-122000000D02*
X69000000Y-128950000D01*
X56600000Y-131000000D02*
X56600000Y-129924700D01*
X69000000Y-128950000D02*
X74150000Y-134100000D01*
X54367000Y-122000000D02*
X55500000Y-122000000D01*
X54367000Y-127691700D02*
X56600000Y-129924700D01*
X49800000Y-119925300D02*
X52292300Y-119925300D01*
X54367000Y-122000000D02*
X54367000Y-127691700D01*
X49800000Y-118350000D02*
X49800000Y-119925300D01*
X99800000Y-119925300D02*
X102292300Y-119925300D01*
X52292300Y-119925300D02*
X54367000Y-122000000D01*
X119000000Y-128950000D02*
X124150000Y-134100000D01*
X102292300Y-119925300D02*
X104367000Y-122000000D01*
X104367000Y-127691700D02*
X106600000Y-129924700D01*
X104367000Y-122000000D02*
X105500000Y-122000000D01*
X104367000Y-122000000D02*
X104367000Y-127691700D01*
X106600000Y-131000000D02*
X106600000Y-129924700D01*
X99800000Y-118350000D02*
X99800000Y-119925300D01*
%TO.N,+3V3*%
X39800000Y-52762300D02*
X39392400Y-52354700D01*
X39392400Y-52354700D02*
X39392400Y-51672500D01*
X39800000Y-52762300D02*
X39800000Y-51974700D01*
X39800000Y-53550000D02*
X39800000Y-52762300D01*
X49800000Y-53550000D02*
X49800000Y-51974700D01*
X39800000Y-51974700D02*
X49800000Y-51974700D01*
X89800000Y-52762300D02*
X89392400Y-52354700D01*
X89392400Y-52354700D02*
X89392400Y-51672500D01*
X89800000Y-52762300D02*
X89800000Y-51974700D01*
X99800000Y-53550000D02*
X99800000Y-51974700D01*
X89800000Y-53550000D02*
X89800000Y-52762300D01*
X89800000Y-51974700D02*
X99800000Y-51974700D01*
X89392400Y-72354700D02*
X89392400Y-71672500D01*
X89800000Y-72762300D02*
X89800000Y-71974700D01*
X99800000Y-73550000D02*
X99800000Y-71974700D01*
X89800000Y-73550000D02*
X89800000Y-72762300D01*
X89800000Y-72762300D02*
X89392400Y-72354700D01*
X89800000Y-71974700D02*
X99800000Y-71974700D01*
X39800000Y-72762300D02*
X39392400Y-72354700D01*
X39392400Y-72354700D02*
X39392400Y-71672500D01*
X39800000Y-72762300D02*
X39800000Y-71974700D01*
X49800000Y-73550000D02*
X49800000Y-71974700D01*
X39800000Y-73550000D02*
X39800000Y-72762300D01*
X39800000Y-71974700D02*
X49800000Y-71974700D01*
X99800000Y-93550000D02*
X99800000Y-91974700D01*
X89800000Y-91974700D02*
X99800000Y-91974700D01*
X89800000Y-92762300D02*
X89392400Y-92354700D01*
X89800000Y-93550000D02*
X89800000Y-92762300D01*
X89800000Y-92762300D02*
X89800000Y-91974700D01*
X89392400Y-92354700D02*
X89392400Y-91672500D01*
X39800000Y-92762300D02*
X39392400Y-92354700D01*
X39800000Y-92762300D02*
X39800000Y-91974700D01*
X39392400Y-92354700D02*
X39392400Y-91672500D01*
X39800000Y-93550000D02*
X39800000Y-92762300D01*
X49800000Y-93550000D02*
X49800000Y-91974700D01*
X39800000Y-91974700D02*
X49800000Y-91974700D01*
X89800000Y-111974700D02*
X99800000Y-111974700D01*
X89800000Y-112762300D02*
X89800000Y-111974700D01*
X89800000Y-112762300D02*
X89392400Y-112354700D01*
X89392400Y-112354700D02*
X89392400Y-111672500D01*
X99800000Y-113550000D02*
X99800000Y-111974700D01*
X89800000Y-113550000D02*
X89800000Y-112762300D01*
X39800000Y-113550000D02*
X39800000Y-112762300D01*
X49800000Y-113550000D02*
X49800000Y-111974700D01*
X39392400Y-112354700D02*
X39392400Y-111672500D01*
X39800000Y-112762300D02*
X39800000Y-111974700D01*
X39800000Y-112762300D02*
X39392400Y-112354700D01*
X39800000Y-111974700D02*
X49800000Y-111974700D01*
X39800000Y-133550000D02*
X39800000Y-132762300D01*
X49800000Y-133550000D02*
X49800000Y-131974700D01*
X39800000Y-132762300D02*
X39392400Y-132354700D01*
X39392400Y-132354700D02*
X39392400Y-131672500D01*
X39800000Y-132762300D02*
X39800000Y-131974700D01*
X89800000Y-133550000D02*
X89800000Y-132762300D01*
X39800000Y-131974700D02*
X49800000Y-131974700D01*
X89800000Y-132762300D02*
X89392400Y-132354700D01*
X99800000Y-133550000D02*
X99800000Y-131974700D01*
X89800000Y-132762300D02*
X89800000Y-131974700D01*
X89392400Y-132354700D02*
X89392400Y-131672500D01*
X89800000Y-131974700D02*
X99800000Y-131974700D01*
%TO.N,Net-(J1-Pad2)*%
X71000000Y-42000000D02*
X71000000Y-40799700D01*
X74150000Y-38350000D02*
X71700300Y-40799700D01*
X71700300Y-40799700D02*
X71000000Y-40799700D01*
X121000000Y-42000000D02*
X121000000Y-40799700D01*
X121700300Y-40799700D02*
X121000000Y-40799700D01*
X124150000Y-38350000D02*
X121700300Y-40799700D01*
X121000000Y-62000000D02*
X121000000Y-60799700D01*
X121700300Y-60799700D02*
X121000000Y-60799700D01*
X124150000Y-58350000D02*
X121700300Y-60799700D01*
X71000000Y-62000000D02*
X71000000Y-60799700D01*
X71700300Y-60799700D02*
X71000000Y-60799700D01*
X74150000Y-58350000D02*
X71700300Y-60799700D01*
X121000000Y-82000000D02*
X121000000Y-80799700D01*
X71000000Y-82000000D02*
X71000000Y-80799700D01*
X124150000Y-78350000D02*
X121700300Y-80799700D01*
X121700300Y-80799700D02*
X121000000Y-80799700D01*
X74150000Y-78350000D02*
X71700300Y-80799700D01*
X71700300Y-80799700D02*
X71000000Y-80799700D01*
X121000000Y-102000000D02*
X121000000Y-100799700D01*
X71000000Y-102000000D02*
X71000000Y-100799700D01*
X121700300Y-100799700D02*
X121000000Y-100799700D01*
X124150000Y-98350000D02*
X121700300Y-100799700D01*
X74150000Y-98350000D02*
X71700300Y-100799700D01*
X71700300Y-100799700D02*
X71000000Y-100799700D01*
X71000000Y-122000000D02*
X71000000Y-120799700D01*
X124150000Y-118350000D02*
X121700300Y-120799700D01*
X74150000Y-118350000D02*
X71700300Y-120799700D01*
X121700300Y-120799700D02*
X121000000Y-120799700D01*
X71700300Y-120799700D02*
X71000000Y-120799700D01*
X121000000Y-122000000D02*
X121000000Y-120799700D01*
%TO.N,Net-(R2-Pad1)*%
X47800000Y-38350000D02*
X47800000Y-39925300D01*
X47800000Y-39925300D02*
X47713800Y-40011500D01*
X47713800Y-40011500D02*
X47713800Y-40699500D01*
X97713800Y-40011500D02*
X97713800Y-40699500D01*
X97800000Y-39925300D02*
X97713800Y-40011500D01*
X97800000Y-38350000D02*
X97800000Y-39925300D01*
X97713800Y-60011500D02*
X97713800Y-60699500D01*
X97800000Y-59925300D02*
X97713800Y-60011500D01*
X97800000Y-58350000D02*
X97800000Y-59925300D01*
X47713800Y-60011500D02*
X47713800Y-60699500D01*
X47800000Y-59925300D02*
X47713800Y-60011500D01*
X47800000Y-58350000D02*
X47800000Y-59925300D01*
X97713800Y-80011500D02*
X97713800Y-80699500D01*
X97800000Y-78350000D02*
X97800000Y-79925300D01*
X47800000Y-79925300D02*
X47713800Y-80011500D01*
X47713800Y-80011500D02*
X47713800Y-80699500D01*
X47800000Y-78350000D02*
X47800000Y-79925300D01*
X97800000Y-79925300D02*
X97713800Y-80011500D01*
X97713800Y-100011500D02*
X97713800Y-100699500D01*
X47800000Y-99925300D02*
X47713800Y-100011500D01*
X47800000Y-98350000D02*
X47800000Y-99925300D01*
X47713800Y-100011500D02*
X47713800Y-100699500D01*
X97800000Y-98350000D02*
X97800000Y-99925300D01*
X97800000Y-99925300D02*
X97713800Y-100011500D01*
X97713800Y-120011500D02*
X97713800Y-120699500D01*
X47713800Y-120011500D02*
X47713800Y-120699500D01*
X47800000Y-118350000D02*
X47800000Y-119925300D01*
X47800000Y-119925300D02*
X47713800Y-120011500D01*
X97800000Y-119925300D02*
X97713800Y-120011500D01*
X97800000Y-118350000D02*
X97800000Y-119925300D01*
%TO.N,Net-(SW2-Pad1)*%
X39800000Y-38350000D02*
X39800000Y-39925300D01*
X39800000Y-39925300D02*
X49650100Y-49775400D01*
X49650100Y-49775400D02*
X51998600Y-49775400D01*
X51998600Y-49775400D02*
X54150000Y-51926800D01*
X54150000Y-51926800D02*
X54150000Y-54100000D01*
X101998600Y-49775400D02*
X104150000Y-51926800D01*
X104150000Y-51926800D02*
X104150000Y-54100000D01*
X99650100Y-49775400D02*
X101998600Y-49775400D01*
X89800000Y-38350000D02*
X89800000Y-39925300D01*
X89800000Y-39925300D02*
X99650100Y-49775400D01*
X101998600Y-69775400D02*
X104150000Y-71926800D01*
X99650100Y-69775400D02*
X101998600Y-69775400D01*
X89800000Y-58350000D02*
X89800000Y-59925300D01*
X104150000Y-71926800D02*
X104150000Y-74100000D01*
X51998600Y-69775400D02*
X54150000Y-71926800D01*
X54150000Y-71926800D02*
X54150000Y-74100000D01*
X49650100Y-69775400D02*
X51998600Y-69775400D01*
X89800000Y-59925300D02*
X99650100Y-69775400D01*
X39800000Y-58350000D02*
X39800000Y-59925300D01*
X39800000Y-59925300D02*
X49650100Y-69775400D01*
X99650100Y-89775400D02*
X101998600Y-89775400D01*
X89800000Y-78350000D02*
X89800000Y-79925300D01*
X104150000Y-91926800D02*
X104150000Y-94100000D01*
X101998600Y-89775400D02*
X104150000Y-91926800D01*
X49650100Y-89775400D02*
X51998600Y-89775400D01*
X89800000Y-79925300D02*
X99650100Y-89775400D01*
X51998600Y-89775400D02*
X54150000Y-91926800D01*
X39800000Y-79925300D02*
X49650100Y-89775400D01*
X54150000Y-91926800D02*
X54150000Y-94100000D01*
X39800000Y-78350000D02*
X39800000Y-79925300D01*
X101998600Y-109775400D02*
X104150000Y-111926800D01*
X104150000Y-111926800D02*
X104150000Y-114100000D01*
X99650100Y-109775400D02*
X101998600Y-109775400D01*
X89800000Y-98350000D02*
X89800000Y-99925300D01*
X39800000Y-98350000D02*
X39800000Y-99925300D01*
X51998600Y-109775400D02*
X54150000Y-111926800D01*
X49650100Y-109775400D02*
X51998600Y-109775400D01*
X54150000Y-111926800D02*
X54150000Y-114100000D01*
X39800000Y-99925300D02*
X49650100Y-109775400D01*
X89800000Y-99925300D02*
X99650100Y-109775400D01*
X99650100Y-129775400D02*
X101998600Y-129775400D01*
X89800000Y-118350000D02*
X89800000Y-119925300D01*
X101998600Y-129775400D02*
X104150000Y-131926800D01*
X104150000Y-131926800D02*
X104150000Y-134100000D01*
X89800000Y-119925300D02*
X99650100Y-129775400D01*
X51998600Y-129775400D02*
X54150000Y-131926800D01*
X39800000Y-118350000D02*
X39800000Y-119925300D01*
X54150000Y-131926800D02*
X54150000Y-134100000D01*
X39800000Y-119925300D02*
X49650100Y-129775400D01*
X49650100Y-129775400D02*
X51998600Y-129775400D01*
%TO.N,Net-(SW3-Pad1)*%
X64400000Y-51000000D02*
X63324700Y-51000000D01*
X47800000Y-53550000D02*
X47800000Y-55125300D01*
X47800000Y-55125300D02*
X47872200Y-55197500D01*
X47872200Y-55197500D02*
X59127200Y-55197500D01*
X59127200Y-55197500D02*
X63324700Y-51000000D01*
X97872200Y-55197500D02*
X109127200Y-55197500D01*
X109127200Y-55197500D02*
X113324700Y-51000000D01*
X97800000Y-53550000D02*
X97800000Y-55125300D01*
X114400000Y-51000000D02*
X113324700Y-51000000D01*
X97800000Y-55125300D02*
X97872200Y-55197500D01*
X109127200Y-75197500D02*
X113324700Y-71000000D01*
X97872200Y-75197500D02*
X109127200Y-75197500D01*
X97800000Y-73550000D02*
X97800000Y-75125300D01*
X47872200Y-75197500D02*
X59127200Y-75197500D01*
X59127200Y-75197500D02*
X63324700Y-71000000D01*
X114400000Y-71000000D02*
X113324700Y-71000000D01*
X97800000Y-75125300D02*
X97872200Y-75197500D01*
X47800000Y-73550000D02*
X47800000Y-75125300D01*
X64400000Y-71000000D02*
X63324700Y-71000000D01*
X47800000Y-75125300D02*
X47872200Y-75197500D01*
X97872200Y-95197500D02*
X109127200Y-95197500D01*
X109127200Y-95197500D02*
X113324700Y-91000000D01*
X47872200Y-95197500D02*
X59127200Y-95197500D01*
X59127200Y-95197500D02*
X63324700Y-91000000D01*
X97800000Y-93550000D02*
X97800000Y-95125300D01*
X114400000Y-91000000D02*
X113324700Y-91000000D01*
X47800000Y-93550000D02*
X47800000Y-95125300D01*
X97800000Y-95125300D02*
X97872200Y-95197500D01*
X47800000Y-95125300D02*
X47872200Y-95197500D01*
X64400000Y-91000000D02*
X63324700Y-91000000D01*
X109127200Y-115197500D02*
X113324700Y-111000000D01*
X97872200Y-115197500D02*
X109127200Y-115197500D01*
X97800000Y-113550000D02*
X97800000Y-115125300D01*
X114400000Y-111000000D02*
X113324700Y-111000000D01*
X59127200Y-115197500D02*
X63324700Y-111000000D01*
X47872200Y-115197500D02*
X59127200Y-115197500D01*
X47800000Y-115125300D02*
X47872200Y-115197500D01*
X97800000Y-115125300D02*
X97872200Y-115197500D01*
X64400000Y-111000000D02*
X63324700Y-111000000D01*
X47800000Y-113550000D02*
X47800000Y-115125300D01*
X114400000Y-131000000D02*
X113324700Y-131000000D01*
X97800000Y-133550000D02*
X97800000Y-135125300D01*
X59127200Y-135197500D02*
X63324700Y-131000000D01*
X47872200Y-135197500D02*
X59127200Y-135197500D01*
X97872200Y-135197500D02*
X109127200Y-135197500D01*
X47800000Y-135125300D02*
X47872200Y-135197500D01*
X47800000Y-133550000D02*
X47800000Y-135125300D01*
X97800000Y-135125300D02*
X97872200Y-135197500D01*
X64400000Y-131000000D02*
X63324700Y-131000000D01*
X109127200Y-135197500D02*
X113324700Y-131000000D01*
%TO.N,Net-(U2-Pad1)*%
X35800000Y-53550000D02*
X35800000Y-55125300D01*
X41800000Y-53550000D02*
X41800000Y-55125300D01*
X41800000Y-55125300D02*
X35800000Y-55125300D01*
X91800000Y-55125300D02*
X85800000Y-55125300D01*
X85800000Y-53550000D02*
X85800000Y-55125300D01*
X91800000Y-53550000D02*
X91800000Y-55125300D01*
X91800000Y-75125300D02*
X85800000Y-75125300D01*
X85800000Y-73550000D02*
X85800000Y-75125300D01*
X41800000Y-75125300D02*
X35800000Y-75125300D01*
X35800000Y-73550000D02*
X35800000Y-75125300D01*
X41800000Y-73550000D02*
X41800000Y-75125300D01*
X91800000Y-73550000D02*
X91800000Y-75125300D01*
X91800000Y-95125300D02*
X85800000Y-95125300D01*
X85800000Y-93550000D02*
X85800000Y-95125300D01*
X41800000Y-93550000D02*
X41800000Y-95125300D01*
X35800000Y-93550000D02*
X35800000Y-95125300D01*
X91800000Y-93550000D02*
X91800000Y-95125300D01*
X41800000Y-95125300D02*
X35800000Y-95125300D01*
X85800000Y-113550000D02*
X85800000Y-115125300D01*
X91800000Y-115125300D02*
X85800000Y-115125300D01*
X41800000Y-115125300D02*
X35800000Y-115125300D01*
X41800000Y-113550000D02*
X41800000Y-115125300D01*
X35800000Y-113550000D02*
X35800000Y-115125300D01*
X91800000Y-113550000D02*
X91800000Y-115125300D01*
X85800000Y-133550000D02*
X85800000Y-135125300D01*
X91800000Y-135125300D02*
X85800000Y-135125300D01*
X41800000Y-135125300D02*
X35800000Y-135125300D01*
X35800000Y-133550000D02*
X35800000Y-135125300D01*
X91800000Y-133550000D02*
X91800000Y-135125300D01*
X41800000Y-133550000D02*
X41800000Y-135125300D01*
%TD*%
M02*
