M48
; DRILL file {KiCad (5.1.9)-1} date 04/18/21 22:39:35
; FORMAT={3:3/ absolute / metric / suppress leading zeros}
; #@! TF.CreationDate,2021-04-18T22:39:35+02:00
; #@! TF.GenerationSoftware,Kicad,Pcbnew,(5.1.9)-1
; #@! TF.FileFunction,Plated,1,2,PTH
FMAT,2
METRIC,TZ
T1C0.400
T2C0.750
T3C0.762
T4C0.800
%
G90
G05
T1
X41323Y-50833
X41323Y-70833
X41323Y-90833
X41323Y-110833
X41323Y-130833
X46978Y-40678
X46978Y-60678
X46978Y-80678
X46978Y-100678
X46978Y-120678
X49806Y-41753
X49806Y-61753
X49806Y-81753
X49806Y-101753
X49806Y-121753
X91323Y-50833
X91323Y-70833
X91323Y-90833
X91323Y-110833
X91323Y-130833
X96978Y-40678
X96978Y-60678
X96978Y-80678
X96978Y-100678
X96978Y-120678
X99806Y-41753
X99806Y-61753
X99806Y-81753
X99806Y-101753
X99806Y-121753
T2
X69000Y-42000
X69000Y-62000
X69000Y-82000
X69000Y-102000
X69000Y-122000
X71000Y-42000
X71000Y-62000
X71000Y-82000
X71000Y-102000
X71000Y-122000
X119000Y-42000
X119000Y-62000
X119000Y-82000
X119000Y-102000
X119000Y-122000
X121000Y-42000
X121000Y-62000
X121000Y-82000
X121000Y-102000
X121000Y-122000
T3
X54150Y-38350
X54150Y-54100
X54150Y-58350
X54150Y-74100
X54150Y-78350
X54150Y-94100
X54150Y-98350
X54150Y-114100
X54150Y-118350
X54150Y-134100
X74150Y-38350
X74150Y-54100
X74150Y-58350
X74150Y-74100
X74150Y-78350
X74150Y-94100
X74150Y-98350
X74150Y-114100
X74150Y-118350
X74150Y-134100
X104150Y-38350
X104150Y-54100
X104150Y-58350
X104150Y-74100
X104150Y-78350
X104150Y-94100
X104150Y-98350
X104150Y-114100
X104150Y-118350
X104150Y-134100
X124150Y-38350
X124150Y-54100
X124150Y-58350
X124150Y-74100
X124150Y-78350
X124150Y-94100
X124150Y-98350
X124150Y-114100
X124150Y-118350
X124150Y-134100
T4
X55500Y-42000
X55500Y-44500
X55500Y-62000
X55500Y-64500
X55500Y-82000
X55500Y-84500
X55500Y-102000
X55500Y-104500
X55500Y-122000
X55500Y-124500
X105500Y-42000
X105500Y-44500
X105500Y-62000
X105500Y-64500
X105500Y-82000
X105500Y-84500
X105500Y-102000
X105500Y-104500
X105500Y-122000
X105500Y-124500
T0
M30
