%TF.GenerationSoftware,KiCad,Pcbnew,(5.1.9)-1*%
%TF.CreationDate,2021-05-04T22:29:10+02:00*%
%TF.ProjectId,DOORSENSOR_Simple_9V,444f4f52-5345-44e5-934f-525f53696d70,rev?*%
%TF.SameCoordinates,Original*%
%TF.FileFunction,Paste,Top*%
%TF.FilePolarity,Positive*%
%FSLAX46Y46*%
G04 Gerber Fmt 4.6, Leading zero omitted, Abs format (unit mm)*
G04 Created by KiCad (PCBNEW (5.1.9)-1) date 2021-05-04 22:29:10*
%MOMM*%
%LPD*%
G01*
G04 APERTURE LIST*
%ADD10C,0.150000*%
%ADD11R,1.000000X2.500000*%
%ADD12R,1.800000X1.000000*%
%ADD13R,1.500000X1.500000*%
G04 APERTURE END LIST*
D10*
X26000000Y-76000000D02*
X126000000Y-76000000D01*
X76000000Y-36000000D02*
X76000000Y-136000000D01*
X26000000Y-116000000D02*
X126000000Y-116000000D01*
X26000000Y-96000000D02*
X126000000Y-96000000D01*
X26000000Y-56000000D02*
X126000000Y-56000000D01*
%TO.C,SW1*%
X61523809Y-117952380D02*
X62095238Y-117952380D01*
X61809523Y-118952380D02*
X61809523Y-117952380D01*
X62428571Y-118952380D02*
X62428571Y-118285714D01*
X62428571Y-118476190D02*
X62476190Y-118380952D01*
X62523809Y-118333333D01*
X62619047Y-118285714D01*
X62714285Y-118285714D01*
X63047619Y-118952380D02*
X63047619Y-118285714D01*
X63047619Y-117952380D02*
X63000000Y-118000000D01*
X63047619Y-118047619D01*
X63095238Y-118000000D01*
X63047619Y-117952380D01*
X63047619Y-118047619D01*
X63952380Y-118285714D02*
X63952380Y-119095238D01*
X63904761Y-119190476D01*
X63857142Y-119238095D01*
X63761904Y-119285714D01*
X63619047Y-119285714D01*
X63523809Y-119238095D01*
X63952380Y-118904761D02*
X63857142Y-118952380D01*
X63666666Y-118952380D01*
X63571428Y-118904761D01*
X63523809Y-118857142D01*
X63476190Y-118761904D01*
X63476190Y-118476190D01*
X63523809Y-118380952D01*
X63571428Y-118333333D01*
X63666666Y-118285714D01*
X63857142Y-118285714D01*
X63952380Y-118333333D01*
X64857142Y-118285714D02*
X64857142Y-119095238D01*
X64809523Y-119190476D01*
X64761904Y-119238095D01*
X64666666Y-119285714D01*
X64523809Y-119285714D01*
X64428571Y-119238095D01*
X64857142Y-118904761D02*
X64761904Y-118952380D01*
X64571428Y-118952380D01*
X64476190Y-118904761D01*
X64428571Y-118857142D01*
X64380952Y-118761904D01*
X64380952Y-118476190D01*
X64428571Y-118380952D01*
X64476190Y-118333333D01*
X64571428Y-118285714D01*
X64761904Y-118285714D01*
X64857142Y-118333333D01*
X65714285Y-118904761D02*
X65619047Y-118952380D01*
X65428571Y-118952380D01*
X65333333Y-118904761D01*
X65285714Y-118809523D01*
X65285714Y-118428571D01*
X65333333Y-118333333D01*
X65428571Y-118285714D01*
X65619047Y-118285714D01*
X65714285Y-118333333D01*
X65761904Y-118428571D01*
X65761904Y-118523809D01*
X65285714Y-118619047D01*
X66190476Y-118952380D02*
X66190476Y-118285714D01*
X66190476Y-118476190D02*
X66238095Y-118380952D01*
X66285714Y-118333333D01*
X66380952Y-118285714D01*
X66476190Y-118285714D01*
%TO.C,J1*%
X69380952Y-129902380D02*
X69571428Y-129902380D01*
X69666666Y-129854761D01*
X69714285Y-129807142D01*
X69809523Y-129664285D01*
X69857142Y-129473809D01*
X69857142Y-129092857D01*
X69809523Y-128997619D01*
X69761904Y-128950000D01*
X69666666Y-128902380D01*
X69476190Y-128902380D01*
X69380952Y-128950000D01*
X69333333Y-128997619D01*
X69285714Y-129092857D01*
X69285714Y-129330952D01*
X69333333Y-129426190D01*
X69380952Y-129473809D01*
X69476190Y-129521428D01*
X69666666Y-129521428D01*
X69761904Y-129473809D01*
X69809523Y-129426190D01*
X69857142Y-129330952D01*
X70142857Y-128902380D02*
X70476190Y-129902380D01*
X70809523Y-128902380D01*
%TO.C,R3*%
X107904761Y-120952380D02*
X107333333Y-120952380D01*
X107619047Y-120952380D02*
X107619047Y-119952380D01*
X107523809Y-120095238D01*
X107428571Y-120190476D01*
X107333333Y-120238095D01*
X108333333Y-120952380D02*
X108333333Y-119952380D01*
X108428571Y-120571428D02*
X108714285Y-120952380D01*
X108714285Y-120285714D02*
X108333333Y-120666666D01*
X109285714Y-120380952D02*
X109190476Y-120333333D01*
X109142857Y-120285714D01*
X109095238Y-120190476D01*
X109095238Y-120142857D01*
X109142857Y-120047619D01*
X109190476Y-120000000D01*
X109285714Y-119952380D01*
X109476190Y-119952380D01*
X109571428Y-120000000D01*
X109619047Y-120047619D01*
X109666666Y-120142857D01*
X109666666Y-120190476D01*
X109619047Y-120285714D01*
X109571428Y-120333333D01*
X109476190Y-120380952D01*
X109285714Y-120380952D01*
X109190476Y-120428571D01*
X109142857Y-120476190D01*
X109095238Y-120571428D01*
X109095238Y-120761904D01*
X109142857Y-120857142D01*
X109190476Y-120904761D01*
X109285714Y-120952380D01*
X109476190Y-120952380D01*
X109571428Y-120904761D01*
X109619047Y-120857142D01*
X109666666Y-120761904D01*
X109666666Y-120571428D01*
X109619047Y-120476190D01*
X109571428Y-120428571D01*
X109476190Y-120380952D01*
%TO.C,SW1*%
X111523809Y-117952380D02*
X112095238Y-117952380D01*
X111809523Y-118952380D02*
X111809523Y-117952380D01*
X112428571Y-118952380D02*
X112428571Y-118285714D01*
X112428571Y-118476190D02*
X112476190Y-118380952D01*
X112523809Y-118333333D01*
X112619047Y-118285714D01*
X112714285Y-118285714D01*
X113047619Y-118952380D02*
X113047619Y-118285714D01*
X113047619Y-117952380D02*
X113000000Y-118000000D01*
X113047619Y-118047619D01*
X113095238Y-118000000D01*
X113047619Y-117952380D01*
X113047619Y-118047619D01*
X113952380Y-118285714D02*
X113952380Y-119095238D01*
X113904761Y-119190476D01*
X113857142Y-119238095D01*
X113761904Y-119285714D01*
X113619047Y-119285714D01*
X113523809Y-119238095D01*
X113952380Y-118904761D02*
X113857142Y-118952380D01*
X113666666Y-118952380D01*
X113571428Y-118904761D01*
X113523809Y-118857142D01*
X113476190Y-118761904D01*
X113476190Y-118476190D01*
X113523809Y-118380952D01*
X113571428Y-118333333D01*
X113666666Y-118285714D01*
X113857142Y-118285714D01*
X113952380Y-118333333D01*
X114857142Y-118285714D02*
X114857142Y-119095238D01*
X114809523Y-119190476D01*
X114761904Y-119238095D01*
X114666666Y-119285714D01*
X114523809Y-119285714D01*
X114428571Y-119238095D01*
X114857142Y-118904761D02*
X114761904Y-118952380D01*
X114571428Y-118952380D01*
X114476190Y-118904761D01*
X114428571Y-118857142D01*
X114380952Y-118761904D01*
X114380952Y-118476190D01*
X114428571Y-118380952D01*
X114476190Y-118333333D01*
X114571428Y-118285714D01*
X114761904Y-118285714D01*
X114857142Y-118333333D01*
X115714285Y-118904761D02*
X115619047Y-118952380D01*
X115428571Y-118952380D01*
X115333333Y-118904761D01*
X115285714Y-118809523D01*
X115285714Y-118428571D01*
X115333333Y-118333333D01*
X115428571Y-118285714D01*
X115619047Y-118285714D01*
X115714285Y-118333333D01*
X115761904Y-118428571D01*
X115761904Y-118523809D01*
X115285714Y-118619047D01*
X116190476Y-118952380D02*
X116190476Y-118285714D01*
X116190476Y-118476190D02*
X116238095Y-118380952D01*
X116285714Y-118333333D01*
X116380952Y-118285714D01*
X116476190Y-118285714D01*
%TO.C,C1*%
X109702380Y-126797619D02*
X109702380Y-127369047D01*
X109702380Y-127083333D02*
X108702380Y-127083333D01*
X108845238Y-127178571D01*
X108940476Y-127273809D01*
X108988095Y-127369047D01*
X108702380Y-126178571D02*
X108702380Y-126083333D01*
X108750000Y-125988095D01*
X108797619Y-125940476D01*
X108892857Y-125892857D01*
X109083333Y-125845238D01*
X109321428Y-125845238D01*
X109511904Y-125892857D01*
X109607142Y-125940476D01*
X109654761Y-125988095D01*
X109702380Y-126083333D01*
X109702380Y-126178571D01*
X109654761Y-126273809D01*
X109607142Y-126321428D01*
X109511904Y-126369047D01*
X109321428Y-126416666D01*
X109083333Y-126416666D01*
X108892857Y-126369047D01*
X108797619Y-126321428D01*
X108750000Y-126273809D01*
X108702380Y-126178571D01*
X108702380Y-125226190D02*
X108702380Y-125130952D01*
X108750000Y-125035714D01*
X108797619Y-124988095D01*
X108892857Y-124940476D01*
X109083333Y-124892857D01*
X109321428Y-124892857D01*
X109511904Y-124940476D01*
X109607142Y-124988095D01*
X109654761Y-125035714D01*
X109702380Y-125130952D01*
X109702380Y-125226190D01*
X109654761Y-125321428D01*
X109607142Y-125369047D01*
X109511904Y-125416666D01*
X109321428Y-125464285D01*
X109083333Y-125464285D01*
X108892857Y-125416666D01*
X108797619Y-125369047D01*
X108750000Y-125321428D01*
X108702380Y-125226190D01*
X109035714Y-124035714D02*
X109702380Y-124035714D01*
X109035714Y-124464285D02*
X109559523Y-124464285D01*
X109654761Y-124416666D01*
X109702380Y-124321428D01*
X109702380Y-124178571D01*
X109654761Y-124083333D01*
X109607142Y-124035714D01*
X109178571Y-123226190D02*
X109178571Y-123559523D01*
X109702380Y-123559523D02*
X108702380Y-123559523D01*
X108702380Y-123083333D01*
X59702380Y-126797619D02*
X59702380Y-127369047D01*
X59702380Y-127083333D02*
X58702380Y-127083333D01*
X58845238Y-127178571D01*
X58940476Y-127273809D01*
X58988095Y-127369047D01*
X58702380Y-126178571D02*
X58702380Y-126083333D01*
X58750000Y-125988095D01*
X58797619Y-125940476D01*
X58892857Y-125892857D01*
X59083333Y-125845238D01*
X59321428Y-125845238D01*
X59511904Y-125892857D01*
X59607142Y-125940476D01*
X59654761Y-125988095D01*
X59702380Y-126083333D01*
X59702380Y-126178571D01*
X59654761Y-126273809D01*
X59607142Y-126321428D01*
X59511904Y-126369047D01*
X59321428Y-126416666D01*
X59083333Y-126416666D01*
X58892857Y-126369047D01*
X58797619Y-126321428D01*
X58750000Y-126273809D01*
X58702380Y-126178571D01*
X58702380Y-125226190D02*
X58702380Y-125130952D01*
X58750000Y-125035714D01*
X58797619Y-124988095D01*
X58892857Y-124940476D01*
X59083333Y-124892857D01*
X59321428Y-124892857D01*
X59511904Y-124940476D01*
X59607142Y-124988095D01*
X59654761Y-125035714D01*
X59702380Y-125130952D01*
X59702380Y-125226190D01*
X59654761Y-125321428D01*
X59607142Y-125369047D01*
X59511904Y-125416666D01*
X59321428Y-125464285D01*
X59083333Y-125464285D01*
X58892857Y-125416666D01*
X58797619Y-125369047D01*
X58750000Y-125321428D01*
X58702380Y-125226190D01*
X59035714Y-124035714D02*
X59702380Y-124035714D01*
X59035714Y-124464285D02*
X59559523Y-124464285D01*
X59654761Y-124416666D01*
X59702380Y-124321428D01*
X59702380Y-124178571D01*
X59654761Y-124083333D01*
X59607142Y-124035714D01*
X59178571Y-123226190D02*
X59178571Y-123559523D01*
X59702380Y-123559523D02*
X58702380Y-123559523D01*
X58702380Y-123083333D01*
%TO.C,R3*%
X57904761Y-120952380D02*
X57333333Y-120952380D01*
X57619047Y-120952380D02*
X57619047Y-119952380D01*
X57523809Y-120095238D01*
X57428571Y-120190476D01*
X57333333Y-120238095D01*
X58333333Y-120952380D02*
X58333333Y-119952380D01*
X58428571Y-120571428D02*
X58714285Y-120952380D01*
X58714285Y-120285714D02*
X58333333Y-120666666D01*
X59285714Y-120380952D02*
X59190476Y-120333333D01*
X59142857Y-120285714D01*
X59095238Y-120190476D01*
X59095238Y-120142857D01*
X59142857Y-120047619D01*
X59190476Y-120000000D01*
X59285714Y-119952380D01*
X59476190Y-119952380D01*
X59571428Y-120000000D01*
X59619047Y-120047619D01*
X59666666Y-120142857D01*
X59666666Y-120190476D01*
X59619047Y-120285714D01*
X59571428Y-120333333D01*
X59476190Y-120380952D01*
X59285714Y-120380952D01*
X59190476Y-120428571D01*
X59142857Y-120476190D01*
X59095238Y-120571428D01*
X59095238Y-120761904D01*
X59142857Y-120857142D01*
X59190476Y-120904761D01*
X59285714Y-120952380D01*
X59476190Y-120952380D01*
X59571428Y-120904761D01*
X59619047Y-120857142D01*
X59666666Y-120761904D01*
X59666666Y-120571428D01*
X59619047Y-120476190D01*
X59571428Y-120428571D01*
X59476190Y-120380952D01*
%TO.C,J1*%
X119380952Y-129902380D02*
X119571428Y-129902380D01*
X119666666Y-129854761D01*
X119714285Y-129807142D01*
X119809523Y-129664285D01*
X119857142Y-129473809D01*
X119857142Y-129092857D01*
X119809523Y-128997619D01*
X119761904Y-128950000D01*
X119666666Y-128902380D01*
X119476190Y-128902380D01*
X119380952Y-128950000D01*
X119333333Y-128997619D01*
X119285714Y-129092857D01*
X119285714Y-129330952D01*
X119333333Y-129426190D01*
X119380952Y-129473809D01*
X119476190Y-129521428D01*
X119666666Y-129521428D01*
X119761904Y-129473809D01*
X119809523Y-129426190D01*
X119857142Y-129330952D01*
X120142857Y-128902380D02*
X120476190Y-129902380D01*
X120809523Y-128902380D01*
%TO.C,R3*%
X57904761Y-100952380D02*
X57333333Y-100952380D01*
X57619047Y-100952380D02*
X57619047Y-99952380D01*
X57523809Y-100095238D01*
X57428571Y-100190476D01*
X57333333Y-100238095D01*
X58333333Y-100952380D02*
X58333333Y-99952380D01*
X58428571Y-100571428D02*
X58714285Y-100952380D01*
X58714285Y-100285714D02*
X58333333Y-100666666D01*
X59285714Y-100380952D02*
X59190476Y-100333333D01*
X59142857Y-100285714D01*
X59095238Y-100190476D01*
X59095238Y-100142857D01*
X59142857Y-100047619D01*
X59190476Y-100000000D01*
X59285714Y-99952380D01*
X59476190Y-99952380D01*
X59571428Y-100000000D01*
X59619047Y-100047619D01*
X59666666Y-100142857D01*
X59666666Y-100190476D01*
X59619047Y-100285714D01*
X59571428Y-100333333D01*
X59476190Y-100380952D01*
X59285714Y-100380952D01*
X59190476Y-100428571D01*
X59142857Y-100476190D01*
X59095238Y-100571428D01*
X59095238Y-100761904D01*
X59142857Y-100857142D01*
X59190476Y-100904761D01*
X59285714Y-100952380D01*
X59476190Y-100952380D01*
X59571428Y-100904761D01*
X59619047Y-100857142D01*
X59666666Y-100761904D01*
X59666666Y-100571428D01*
X59619047Y-100476190D01*
X59571428Y-100428571D01*
X59476190Y-100380952D01*
%TO.C,J1*%
X119380952Y-109902380D02*
X119571428Y-109902380D01*
X119666666Y-109854761D01*
X119714285Y-109807142D01*
X119809523Y-109664285D01*
X119857142Y-109473809D01*
X119857142Y-109092857D01*
X119809523Y-108997619D01*
X119761904Y-108950000D01*
X119666666Y-108902380D01*
X119476190Y-108902380D01*
X119380952Y-108950000D01*
X119333333Y-108997619D01*
X119285714Y-109092857D01*
X119285714Y-109330952D01*
X119333333Y-109426190D01*
X119380952Y-109473809D01*
X119476190Y-109521428D01*
X119666666Y-109521428D01*
X119761904Y-109473809D01*
X119809523Y-109426190D01*
X119857142Y-109330952D01*
X120142857Y-108902380D02*
X120476190Y-109902380D01*
X120809523Y-108902380D01*
%TO.C,SW1*%
X61523809Y-97952380D02*
X62095238Y-97952380D01*
X61809523Y-98952380D02*
X61809523Y-97952380D01*
X62428571Y-98952380D02*
X62428571Y-98285714D01*
X62428571Y-98476190D02*
X62476190Y-98380952D01*
X62523809Y-98333333D01*
X62619047Y-98285714D01*
X62714285Y-98285714D01*
X63047619Y-98952380D02*
X63047619Y-98285714D01*
X63047619Y-97952380D02*
X63000000Y-98000000D01*
X63047619Y-98047619D01*
X63095238Y-98000000D01*
X63047619Y-97952380D01*
X63047619Y-98047619D01*
X63952380Y-98285714D02*
X63952380Y-99095238D01*
X63904761Y-99190476D01*
X63857142Y-99238095D01*
X63761904Y-99285714D01*
X63619047Y-99285714D01*
X63523809Y-99238095D01*
X63952380Y-98904761D02*
X63857142Y-98952380D01*
X63666666Y-98952380D01*
X63571428Y-98904761D01*
X63523809Y-98857142D01*
X63476190Y-98761904D01*
X63476190Y-98476190D01*
X63523809Y-98380952D01*
X63571428Y-98333333D01*
X63666666Y-98285714D01*
X63857142Y-98285714D01*
X63952380Y-98333333D01*
X64857142Y-98285714D02*
X64857142Y-99095238D01*
X64809523Y-99190476D01*
X64761904Y-99238095D01*
X64666666Y-99285714D01*
X64523809Y-99285714D01*
X64428571Y-99238095D01*
X64857142Y-98904761D02*
X64761904Y-98952380D01*
X64571428Y-98952380D01*
X64476190Y-98904761D01*
X64428571Y-98857142D01*
X64380952Y-98761904D01*
X64380952Y-98476190D01*
X64428571Y-98380952D01*
X64476190Y-98333333D01*
X64571428Y-98285714D01*
X64761904Y-98285714D01*
X64857142Y-98333333D01*
X65714285Y-98904761D02*
X65619047Y-98952380D01*
X65428571Y-98952380D01*
X65333333Y-98904761D01*
X65285714Y-98809523D01*
X65285714Y-98428571D01*
X65333333Y-98333333D01*
X65428571Y-98285714D01*
X65619047Y-98285714D01*
X65714285Y-98333333D01*
X65761904Y-98428571D01*
X65761904Y-98523809D01*
X65285714Y-98619047D01*
X66190476Y-98952380D02*
X66190476Y-98285714D01*
X66190476Y-98476190D02*
X66238095Y-98380952D01*
X66285714Y-98333333D01*
X66380952Y-98285714D01*
X66476190Y-98285714D01*
%TO.C,J1*%
X69380952Y-109902380D02*
X69571428Y-109902380D01*
X69666666Y-109854761D01*
X69714285Y-109807142D01*
X69809523Y-109664285D01*
X69857142Y-109473809D01*
X69857142Y-109092857D01*
X69809523Y-108997619D01*
X69761904Y-108950000D01*
X69666666Y-108902380D01*
X69476190Y-108902380D01*
X69380952Y-108950000D01*
X69333333Y-108997619D01*
X69285714Y-109092857D01*
X69285714Y-109330952D01*
X69333333Y-109426190D01*
X69380952Y-109473809D01*
X69476190Y-109521428D01*
X69666666Y-109521428D01*
X69761904Y-109473809D01*
X69809523Y-109426190D01*
X69857142Y-109330952D01*
X70142857Y-108902380D02*
X70476190Y-109902380D01*
X70809523Y-108902380D01*
%TO.C,R3*%
X107904761Y-100952380D02*
X107333333Y-100952380D01*
X107619047Y-100952380D02*
X107619047Y-99952380D01*
X107523809Y-100095238D01*
X107428571Y-100190476D01*
X107333333Y-100238095D01*
X108333333Y-100952380D02*
X108333333Y-99952380D01*
X108428571Y-100571428D02*
X108714285Y-100952380D01*
X108714285Y-100285714D02*
X108333333Y-100666666D01*
X109285714Y-100380952D02*
X109190476Y-100333333D01*
X109142857Y-100285714D01*
X109095238Y-100190476D01*
X109095238Y-100142857D01*
X109142857Y-100047619D01*
X109190476Y-100000000D01*
X109285714Y-99952380D01*
X109476190Y-99952380D01*
X109571428Y-100000000D01*
X109619047Y-100047619D01*
X109666666Y-100142857D01*
X109666666Y-100190476D01*
X109619047Y-100285714D01*
X109571428Y-100333333D01*
X109476190Y-100380952D01*
X109285714Y-100380952D01*
X109190476Y-100428571D01*
X109142857Y-100476190D01*
X109095238Y-100571428D01*
X109095238Y-100761904D01*
X109142857Y-100857142D01*
X109190476Y-100904761D01*
X109285714Y-100952380D01*
X109476190Y-100952380D01*
X109571428Y-100904761D01*
X109619047Y-100857142D01*
X109666666Y-100761904D01*
X109666666Y-100571428D01*
X109619047Y-100476190D01*
X109571428Y-100428571D01*
X109476190Y-100380952D01*
%TO.C,C1*%
X109702380Y-106797619D02*
X109702380Y-107369047D01*
X109702380Y-107083333D02*
X108702380Y-107083333D01*
X108845238Y-107178571D01*
X108940476Y-107273809D01*
X108988095Y-107369047D01*
X108702380Y-106178571D02*
X108702380Y-106083333D01*
X108750000Y-105988095D01*
X108797619Y-105940476D01*
X108892857Y-105892857D01*
X109083333Y-105845238D01*
X109321428Y-105845238D01*
X109511904Y-105892857D01*
X109607142Y-105940476D01*
X109654761Y-105988095D01*
X109702380Y-106083333D01*
X109702380Y-106178571D01*
X109654761Y-106273809D01*
X109607142Y-106321428D01*
X109511904Y-106369047D01*
X109321428Y-106416666D01*
X109083333Y-106416666D01*
X108892857Y-106369047D01*
X108797619Y-106321428D01*
X108750000Y-106273809D01*
X108702380Y-106178571D01*
X108702380Y-105226190D02*
X108702380Y-105130952D01*
X108750000Y-105035714D01*
X108797619Y-104988095D01*
X108892857Y-104940476D01*
X109083333Y-104892857D01*
X109321428Y-104892857D01*
X109511904Y-104940476D01*
X109607142Y-104988095D01*
X109654761Y-105035714D01*
X109702380Y-105130952D01*
X109702380Y-105226190D01*
X109654761Y-105321428D01*
X109607142Y-105369047D01*
X109511904Y-105416666D01*
X109321428Y-105464285D01*
X109083333Y-105464285D01*
X108892857Y-105416666D01*
X108797619Y-105369047D01*
X108750000Y-105321428D01*
X108702380Y-105226190D01*
X109035714Y-104035714D02*
X109702380Y-104035714D01*
X109035714Y-104464285D02*
X109559523Y-104464285D01*
X109654761Y-104416666D01*
X109702380Y-104321428D01*
X109702380Y-104178571D01*
X109654761Y-104083333D01*
X109607142Y-104035714D01*
X109178571Y-103226190D02*
X109178571Y-103559523D01*
X109702380Y-103559523D02*
X108702380Y-103559523D01*
X108702380Y-103083333D01*
%TO.C,SW1*%
X111523809Y-97952380D02*
X112095238Y-97952380D01*
X111809523Y-98952380D02*
X111809523Y-97952380D01*
X112428571Y-98952380D02*
X112428571Y-98285714D01*
X112428571Y-98476190D02*
X112476190Y-98380952D01*
X112523809Y-98333333D01*
X112619047Y-98285714D01*
X112714285Y-98285714D01*
X113047619Y-98952380D02*
X113047619Y-98285714D01*
X113047619Y-97952380D02*
X113000000Y-98000000D01*
X113047619Y-98047619D01*
X113095238Y-98000000D01*
X113047619Y-97952380D01*
X113047619Y-98047619D01*
X113952380Y-98285714D02*
X113952380Y-99095238D01*
X113904761Y-99190476D01*
X113857142Y-99238095D01*
X113761904Y-99285714D01*
X113619047Y-99285714D01*
X113523809Y-99238095D01*
X113952380Y-98904761D02*
X113857142Y-98952380D01*
X113666666Y-98952380D01*
X113571428Y-98904761D01*
X113523809Y-98857142D01*
X113476190Y-98761904D01*
X113476190Y-98476190D01*
X113523809Y-98380952D01*
X113571428Y-98333333D01*
X113666666Y-98285714D01*
X113857142Y-98285714D01*
X113952380Y-98333333D01*
X114857142Y-98285714D02*
X114857142Y-99095238D01*
X114809523Y-99190476D01*
X114761904Y-99238095D01*
X114666666Y-99285714D01*
X114523809Y-99285714D01*
X114428571Y-99238095D01*
X114857142Y-98904761D02*
X114761904Y-98952380D01*
X114571428Y-98952380D01*
X114476190Y-98904761D01*
X114428571Y-98857142D01*
X114380952Y-98761904D01*
X114380952Y-98476190D01*
X114428571Y-98380952D01*
X114476190Y-98333333D01*
X114571428Y-98285714D01*
X114761904Y-98285714D01*
X114857142Y-98333333D01*
X115714285Y-98904761D02*
X115619047Y-98952380D01*
X115428571Y-98952380D01*
X115333333Y-98904761D01*
X115285714Y-98809523D01*
X115285714Y-98428571D01*
X115333333Y-98333333D01*
X115428571Y-98285714D01*
X115619047Y-98285714D01*
X115714285Y-98333333D01*
X115761904Y-98428571D01*
X115761904Y-98523809D01*
X115285714Y-98619047D01*
X116190476Y-98952380D02*
X116190476Y-98285714D01*
X116190476Y-98476190D02*
X116238095Y-98380952D01*
X116285714Y-98333333D01*
X116380952Y-98285714D01*
X116476190Y-98285714D01*
%TO.C,C1*%
X59702380Y-106797619D02*
X59702380Y-107369047D01*
X59702380Y-107083333D02*
X58702380Y-107083333D01*
X58845238Y-107178571D01*
X58940476Y-107273809D01*
X58988095Y-107369047D01*
X58702380Y-106178571D02*
X58702380Y-106083333D01*
X58750000Y-105988095D01*
X58797619Y-105940476D01*
X58892857Y-105892857D01*
X59083333Y-105845238D01*
X59321428Y-105845238D01*
X59511904Y-105892857D01*
X59607142Y-105940476D01*
X59654761Y-105988095D01*
X59702380Y-106083333D01*
X59702380Y-106178571D01*
X59654761Y-106273809D01*
X59607142Y-106321428D01*
X59511904Y-106369047D01*
X59321428Y-106416666D01*
X59083333Y-106416666D01*
X58892857Y-106369047D01*
X58797619Y-106321428D01*
X58750000Y-106273809D01*
X58702380Y-106178571D01*
X58702380Y-105226190D02*
X58702380Y-105130952D01*
X58750000Y-105035714D01*
X58797619Y-104988095D01*
X58892857Y-104940476D01*
X59083333Y-104892857D01*
X59321428Y-104892857D01*
X59511904Y-104940476D01*
X59607142Y-104988095D01*
X59654761Y-105035714D01*
X59702380Y-105130952D01*
X59702380Y-105226190D01*
X59654761Y-105321428D01*
X59607142Y-105369047D01*
X59511904Y-105416666D01*
X59321428Y-105464285D01*
X59083333Y-105464285D01*
X58892857Y-105416666D01*
X58797619Y-105369047D01*
X58750000Y-105321428D01*
X58702380Y-105226190D01*
X59035714Y-104035714D02*
X59702380Y-104035714D01*
X59035714Y-104464285D02*
X59559523Y-104464285D01*
X59654761Y-104416666D01*
X59702380Y-104321428D01*
X59702380Y-104178571D01*
X59654761Y-104083333D01*
X59607142Y-104035714D01*
X59178571Y-103226190D02*
X59178571Y-103559523D01*
X59702380Y-103559523D02*
X58702380Y-103559523D01*
X58702380Y-103083333D01*
%TO.C,J1*%
X119380952Y-89902380D02*
X119571428Y-89902380D01*
X119666666Y-89854761D01*
X119714285Y-89807142D01*
X119809523Y-89664285D01*
X119857142Y-89473809D01*
X119857142Y-89092857D01*
X119809523Y-88997619D01*
X119761904Y-88950000D01*
X119666666Y-88902380D01*
X119476190Y-88902380D01*
X119380952Y-88950000D01*
X119333333Y-88997619D01*
X119285714Y-89092857D01*
X119285714Y-89330952D01*
X119333333Y-89426190D01*
X119380952Y-89473809D01*
X119476190Y-89521428D01*
X119666666Y-89521428D01*
X119761904Y-89473809D01*
X119809523Y-89426190D01*
X119857142Y-89330952D01*
X120142857Y-88902380D02*
X120476190Y-89902380D01*
X120809523Y-88902380D01*
%TO.C,R3*%
X57904761Y-80952380D02*
X57333333Y-80952380D01*
X57619047Y-80952380D02*
X57619047Y-79952380D01*
X57523809Y-80095238D01*
X57428571Y-80190476D01*
X57333333Y-80238095D01*
X58333333Y-80952380D02*
X58333333Y-79952380D01*
X58428571Y-80571428D02*
X58714285Y-80952380D01*
X58714285Y-80285714D02*
X58333333Y-80666666D01*
X59285714Y-80380952D02*
X59190476Y-80333333D01*
X59142857Y-80285714D01*
X59095238Y-80190476D01*
X59095238Y-80142857D01*
X59142857Y-80047619D01*
X59190476Y-80000000D01*
X59285714Y-79952380D01*
X59476190Y-79952380D01*
X59571428Y-80000000D01*
X59619047Y-80047619D01*
X59666666Y-80142857D01*
X59666666Y-80190476D01*
X59619047Y-80285714D01*
X59571428Y-80333333D01*
X59476190Y-80380952D01*
X59285714Y-80380952D01*
X59190476Y-80428571D01*
X59142857Y-80476190D01*
X59095238Y-80571428D01*
X59095238Y-80761904D01*
X59142857Y-80857142D01*
X59190476Y-80904761D01*
X59285714Y-80952380D01*
X59476190Y-80952380D01*
X59571428Y-80904761D01*
X59619047Y-80857142D01*
X59666666Y-80761904D01*
X59666666Y-80571428D01*
X59619047Y-80476190D01*
X59571428Y-80428571D01*
X59476190Y-80380952D01*
%TO.C,SW1*%
X61523809Y-77952380D02*
X62095238Y-77952380D01*
X61809523Y-78952380D02*
X61809523Y-77952380D01*
X62428571Y-78952380D02*
X62428571Y-78285714D01*
X62428571Y-78476190D02*
X62476190Y-78380952D01*
X62523809Y-78333333D01*
X62619047Y-78285714D01*
X62714285Y-78285714D01*
X63047619Y-78952380D02*
X63047619Y-78285714D01*
X63047619Y-77952380D02*
X63000000Y-78000000D01*
X63047619Y-78047619D01*
X63095238Y-78000000D01*
X63047619Y-77952380D01*
X63047619Y-78047619D01*
X63952380Y-78285714D02*
X63952380Y-79095238D01*
X63904761Y-79190476D01*
X63857142Y-79238095D01*
X63761904Y-79285714D01*
X63619047Y-79285714D01*
X63523809Y-79238095D01*
X63952380Y-78904761D02*
X63857142Y-78952380D01*
X63666666Y-78952380D01*
X63571428Y-78904761D01*
X63523809Y-78857142D01*
X63476190Y-78761904D01*
X63476190Y-78476190D01*
X63523809Y-78380952D01*
X63571428Y-78333333D01*
X63666666Y-78285714D01*
X63857142Y-78285714D01*
X63952380Y-78333333D01*
X64857142Y-78285714D02*
X64857142Y-79095238D01*
X64809523Y-79190476D01*
X64761904Y-79238095D01*
X64666666Y-79285714D01*
X64523809Y-79285714D01*
X64428571Y-79238095D01*
X64857142Y-78904761D02*
X64761904Y-78952380D01*
X64571428Y-78952380D01*
X64476190Y-78904761D01*
X64428571Y-78857142D01*
X64380952Y-78761904D01*
X64380952Y-78476190D01*
X64428571Y-78380952D01*
X64476190Y-78333333D01*
X64571428Y-78285714D01*
X64761904Y-78285714D01*
X64857142Y-78333333D01*
X65714285Y-78904761D02*
X65619047Y-78952380D01*
X65428571Y-78952380D01*
X65333333Y-78904761D01*
X65285714Y-78809523D01*
X65285714Y-78428571D01*
X65333333Y-78333333D01*
X65428571Y-78285714D01*
X65619047Y-78285714D01*
X65714285Y-78333333D01*
X65761904Y-78428571D01*
X65761904Y-78523809D01*
X65285714Y-78619047D01*
X66190476Y-78952380D02*
X66190476Y-78285714D01*
X66190476Y-78476190D02*
X66238095Y-78380952D01*
X66285714Y-78333333D01*
X66380952Y-78285714D01*
X66476190Y-78285714D01*
%TO.C,C1*%
X109702380Y-86797619D02*
X109702380Y-87369047D01*
X109702380Y-87083333D02*
X108702380Y-87083333D01*
X108845238Y-87178571D01*
X108940476Y-87273809D01*
X108988095Y-87369047D01*
X108702380Y-86178571D02*
X108702380Y-86083333D01*
X108750000Y-85988095D01*
X108797619Y-85940476D01*
X108892857Y-85892857D01*
X109083333Y-85845238D01*
X109321428Y-85845238D01*
X109511904Y-85892857D01*
X109607142Y-85940476D01*
X109654761Y-85988095D01*
X109702380Y-86083333D01*
X109702380Y-86178571D01*
X109654761Y-86273809D01*
X109607142Y-86321428D01*
X109511904Y-86369047D01*
X109321428Y-86416666D01*
X109083333Y-86416666D01*
X108892857Y-86369047D01*
X108797619Y-86321428D01*
X108750000Y-86273809D01*
X108702380Y-86178571D01*
X108702380Y-85226190D02*
X108702380Y-85130952D01*
X108750000Y-85035714D01*
X108797619Y-84988095D01*
X108892857Y-84940476D01*
X109083333Y-84892857D01*
X109321428Y-84892857D01*
X109511904Y-84940476D01*
X109607142Y-84988095D01*
X109654761Y-85035714D01*
X109702380Y-85130952D01*
X109702380Y-85226190D01*
X109654761Y-85321428D01*
X109607142Y-85369047D01*
X109511904Y-85416666D01*
X109321428Y-85464285D01*
X109083333Y-85464285D01*
X108892857Y-85416666D01*
X108797619Y-85369047D01*
X108750000Y-85321428D01*
X108702380Y-85226190D01*
X109035714Y-84035714D02*
X109702380Y-84035714D01*
X109035714Y-84464285D02*
X109559523Y-84464285D01*
X109654761Y-84416666D01*
X109702380Y-84321428D01*
X109702380Y-84178571D01*
X109654761Y-84083333D01*
X109607142Y-84035714D01*
X109178571Y-83226190D02*
X109178571Y-83559523D01*
X109702380Y-83559523D02*
X108702380Y-83559523D01*
X108702380Y-83083333D01*
%TO.C,R3*%
X107904761Y-80952380D02*
X107333333Y-80952380D01*
X107619047Y-80952380D02*
X107619047Y-79952380D01*
X107523809Y-80095238D01*
X107428571Y-80190476D01*
X107333333Y-80238095D01*
X108333333Y-80952380D02*
X108333333Y-79952380D01*
X108428571Y-80571428D02*
X108714285Y-80952380D01*
X108714285Y-80285714D02*
X108333333Y-80666666D01*
X109285714Y-80380952D02*
X109190476Y-80333333D01*
X109142857Y-80285714D01*
X109095238Y-80190476D01*
X109095238Y-80142857D01*
X109142857Y-80047619D01*
X109190476Y-80000000D01*
X109285714Y-79952380D01*
X109476190Y-79952380D01*
X109571428Y-80000000D01*
X109619047Y-80047619D01*
X109666666Y-80142857D01*
X109666666Y-80190476D01*
X109619047Y-80285714D01*
X109571428Y-80333333D01*
X109476190Y-80380952D01*
X109285714Y-80380952D01*
X109190476Y-80428571D01*
X109142857Y-80476190D01*
X109095238Y-80571428D01*
X109095238Y-80761904D01*
X109142857Y-80857142D01*
X109190476Y-80904761D01*
X109285714Y-80952380D01*
X109476190Y-80952380D01*
X109571428Y-80904761D01*
X109619047Y-80857142D01*
X109666666Y-80761904D01*
X109666666Y-80571428D01*
X109619047Y-80476190D01*
X109571428Y-80428571D01*
X109476190Y-80380952D01*
%TO.C,J1*%
X69380952Y-89902380D02*
X69571428Y-89902380D01*
X69666666Y-89854761D01*
X69714285Y-89807142D01*
X69809523Y-89664285D01*
X69857142Y-89473809D01*
X69857142Y-89092857D01*
X69809523Y-88997619D01*
X69761904Y-88950000D01*
X69666666Y-88902380D01*
X69476190Y-88902380D01*
X69380952Y-88950000D01*
X69333333Y-88997619D01*
X69285714Y-89092857D01*
X69285714Y-89330952D01*
X69333333Y-89426190D01*
X69380952Y-89473809D01*
X69476190Y-89521428D01*
X69666666Y-89521428D01*
X69761904Y-89473809D01*
X69809523Y-89426190D01*
X69857142Y-89330952D01*
X70142857Y-88902380D02*
X70476190Y-89902380D01*
X70809523Y-88902380D01*
%TO.C,SW1*%
X111523809Y-77952380D02*
X112095238Y-77952380D01*
X111809523Y-78952380D02*
X111809523Y-77952380D01*
X112428571Y-78952380D02*
X112428571Y-78285714D01*
X112428571Y-78476190D02*
X112476190Y-78380952D01*
X112523809Y-78333333D01*
X112619047Y-78285714D01*
X112714285Y-78285714D01*
X113047619Y-78952380D02*
X113047619Y-78285714D01*
X113047619Y-77952380D02*
X113000000Y-78000000D01*
X113047619Y-78047619D01*
X113095238Y-78000000D01*
X113047619Y-77952380D01*
X113047619Y-78047619D01*
X113952380Y-78285714D02*
X113952380Y-79095238D01*
X113904761Y-79190476D01*
X113857142Y-79238095D01*
X113761904Y-79285714D01*
X113619047Y-79285714D01*
X113523809Y-79238095D01*
X113952380Y-78904761D02*
X113857142Y-78952380D01*
X113666666Y-78952380D01*
X113571428Y-78904761D01*
X113523809Y-78857142D01*
X113476190Y-78761904D01*
X113476190Y-78476190D01*
X113523809Y-78380952D01*
X113571428Y-78333333D01*
X113666666Y-78285714D01*
X113857142Y-78285714D01*
X113952380Y-78333333D01*
X114857142Y-78285714D02*
X114857142Y-79095238D01*
X114809523Y-79190476D01*
X114761904Y-79238095D01*
X114666666Y-79285714D01*
X114523809Y-79285714D01*
X114428571Y-79238095D01*
X114857142Y-78904761D02*
X114761904Y-78952380D01*
X114571428Y-78952380D01*
X114476190Y-78904761D01*
X114428571Y-78857142D01*
X114380952Y-78761904D01*
X114380952Y-78476190D01*
X114428571Y-78380952D01*
X114476190Y-78333333D01*
X114571428Y-78285714D01*
X114761904Y-78285714D01*
X114857142Y-78333333D01*
X115714285Y-78904761D02*
X115619047Y-78952380D01*
X115428571Y-78952380D01*
X115333333Y-78904761D01*
X115285714Y-78809523D01*
X115285714Y-78428571D01*
X115333333Y-78333333D01*
X115428571Y-78285714D01*
X115619047Y-78285714D01*
X115714285Y-78333333D01*
X115761904Y-78428571D01*
X115761904Y-78523809D01*
X115285714Y-78619047D01*
X116190476Y-78952380D02*
X116190476Y-78285714D01*
X116190476Y-78476190D02*
X116238095Y-78380952D01*
X116285714Y-78333333D01*
X116380952Y-78285714D01*
X116476190Y-78285714D01*
%TO.C,C1*%
X59702380Y-86797619D02*
X59702380Y-87369047D01*
X59702380Y-87083333D02*
X58702380Y-87083333D01*
X58845238Y-87178571D01*
X58940476Y-87273809D01*
X58988095Y-87369047D01*
X58702380Y-86178571D02*
X58702380Y-86083333D01*
X58750000Y-85988095D01*
X58797619Y-85940476D01*
X58892857Y-85892857D01*
X59083333Y-85845238D01*
X59321428Y-85845238D01*
X59511904Y-85892857D01*
X59607142Y-85940476D01*
X59654761Y-85988095D01*
X59702380Y-86083333D01*
X59702380Y-86178571D01*
X59654761Y-86273809D01*
X59607142Y-86321428D01*
X59511904Y-86369047D01*
X59321428Y-86416666D01*
X59083333Y-86416666D01*
X58892857Y-86369047D01*
X58797619Y-86321428D01*
X58750000Y-86273809D01*
X58702380Y-86178571D01*
X58702380Y-85226190D02*
X58702380Y-85130952D01*
X58750000Y-85035714D01*
X58797619Y-84988095D01*
X58892857Y-84940476D01*
X59083333Y-84892857D01*
X59321428Y-84892857D01*
X59511904Y-84940476D01*
X59607142Y-84988095D01*
X59654761Y-85035714D01*
X59702380Y-85130952D01*
X59702380Y-85226190D01*
X59654761Y-85321428D01*
X59607142Y-85369047D01*
X59511904Y-85416666D01*
X59321428Y-85464285D01*
X59083333Y-85464285D01*
X58892857Y-85416666D01*
X58797619Y-85369047D01*
X58750000Y-85321428D01*
X58702380Y-85226190D01*
X59035714Y-84035714D02*
X59702380Y-84035714D01*
X59035714Y-84464285D02*
X59559523Y-84464285D01*
X59654761Y-84416666D01*
X59702380Y-84321428D01*
X59702380Y-84178571D01*
X59654761Y-84083333D01*
X59607142Y-84035714D01*
X59178571Y-83226190D02*
X59178571Y-83559523D01*
X59702380Y-83559523D02*
X58702380Y-83559523D01*
X58702380Y-83083333D01*
%TO.C,SW1*%
X111523809Y-57952380D02*
X112095238Y-57952380D01*
X111809523Y-58952380D02*
X111809523Y-57952380D01*
X112428571Y-58952380D02*
X112428571Y-58285714D01*
X112428571Y-58476190D02*
X112476190Y-58380952D01*
X112523809Y-58333333D01*
X112619047Y-58285714D01*
X112714285Y-58285714D01*
X113047619Y-58952380D02*
X113047619Y-58285714D01*
X113047619Y-57952380D02*
X113000000Y-58000000D01*
X113047619Y-58047619D01*
X113095238Y-58000000D01*
X113047619Y-57952380D01*
X113047619Y-58047619D01*
X113952380Y-58285714D02*
X113952380Y-59095238D01*
X113904761Y-59190476D01*
X113857142Y-59238095D01*
X113761904Y-59285714D01*
X113619047Y-59285714D01*
X113523809Y-59238095D01*
X113952380Y-58904761D02*
X113857142Y-58952380D01*
X113666666Y-58952380D01*
X113571428Y-58904761D01*
X113523809Y-58857142D01*
X113476190Y-58761904D01*
X113476190Y-58476190D01*
X113523809Y-58380952D01*
X113571428Y-58333333D01*
X113666666Y-58285714D01*
X113857142Y-58285714D01*
X113952380Y-58333333D01*
X114857142Y-58285714D02*
X114857142Y-59095238D01*
X114809523Y-59190476D01*
X114761904Y-59238095D01*
X114666666Y-59285714D01*
X114523809Y-59285714D01*
X114428571Y-59238095D01*
X114857142Y-58904761D02*
X114761904Y-58952380D01*
X114571428Y-58952380D01*
X114476190Y-58904761D01*
X114428571Y-58857142D01*
X114380952Y-58761904D01*
X114380952Y-58476190D01*
X114428571Y-58380952D01*
X114476190Y-58333333D01*
X114571428Y-58285714D01*
X114761904Y-58285714D01*
X114857142Y-58333333D01*
X115714285Y-58904761D02*
X115619047Y-58952380D01*
X115428571Y-58952380D01*
X115333333Y-58904761D01*
X115285714Y-58809523D01*
X115285714Y-58428571D01*
X115333333Y-58333333D01*
X115428571Y-58285714D01*
X115619047Y-58285714D01*
X115714285Y-58333333D01*
X115761904Y-58428571D01*
X115761904Y-58523809D01*
X115285714Y-58619047D01*
X116190476Y-58952380D02*
X116190476Y-58285714D01*
X116190476Y-58476190D02*
X116238095Y-58380952D01*
X116285714Y-58333333D01*
X116380952Y-58285714D01*
X116476190Y-58285714D01*
%TO.C,J1*%
X119380952Y-69902380D02*
X119571428Y-69902380D01*
X119666666Y-69854761D01*
X119714285Y-69807142D01*
X119809523Y-69664285D01*
X119857142Y-69473809D01*
X119857142Y-69092857D01*
X119809523Y-68997619D01*
X119761904Y-68950000D01*
X119666666Y-68902380D01*
X119476190Y-68902380D01*
X119380952Y-68950000D01*
X119333333Y-68997619D01*
X119285714Y-69092857D01*
X119285714Y-69330952D01*
X119333333Y-69426190D01*
X119380952Y-69473809D01*
X119476190Y-69521428D01*
X119666666Y-69521428D01*
X119761904Y-69473809D01*
X119809523Y-69426190D01*
X119857142Y-69330952D01*
X120142857Y-68902380D02*
X120476190Y-69902380D01*
X120809523Y-68902380D01*
%TO.C,C1*%
X109702380Y-66797619D02*
X109702380Y-67369047D01*
X109702380Y-67083333D02*
X108702380Y-67083333D01*
X108845238Y-67178571D01*
X108940476Y-67273809D01*
X108988095Y-67369047D01*
X108702380Y-66178571D02*
X108702380Y-66083333D01*
X108750000Y-65988095D01*
X108797619Y-65940476D01*
X108892857Y-65892857D01*
X109083333Y-65845238D01*
X109321428Y-65845238D01*
X109511904Y-65892857D01*
X109607142Y-65940476D01*
X109654761Y-65988095D01*
X109702380Y-66083333D01*
X109702380Y-66178571D01*
X109654761Y-66273809D01*
X109607142Y-66321428D01*
X109511904Y-66369047D01*
X109321428Y-66416666D01*
X109083333Y-66416666D01*
X108892857Y-66369047D01*
X108797619Y-66321428D01*
X108750000Y-66273809D01*
X108702380Y-66178571D01*
X108702380Y-65226190D02*
X108702380Y-65130952D01*
X108750000Y-65035714D01*
X108797619Y-64988095D01*
X108892857Y-64940476D01*
X109083333Y-64892857D01*
X109321428Y-64892857D01*
X109511904Y-64940476D01*
X109607142Y-64988095D01*
X109654761Y-65035714D01*
X109702380Y-65130952D01*
X109702380Y-65226190D01*
X109654761Y-65321428D01*
X109607142Y-65369047D01*
X109511904Y-65416666D01*
X109321428Y-65464285D01*
X109083333Y-65464285D01*
X108892857Y-65416666D01*
X108797619Y-65369047D01*
X108750000Y-65321428D01*
X108702380Y-65226190D01*
X109035714Y-64035714D02*
X109702380Y-64035714D01*
X109035714Y-64464285D02*
X109559523Y-64464285D01*
X109654761Y-64416666D01*
X109702380Y-64321428D01*
X109702380Y-64178571D01*
X109654761Y-64083333D01*
X109607142Y-64035714D01*
X109178571Y-63226190D02*
X109178571Y-63559523D01*
X109702380Y-63559523D02*
X108702380Y-63559523D01*
X108702380Y-63083333D01*
%TO.C,R3*%
X57904761Y-60952380D02*
X57333333Y-60952380D01*
X57619047Y-60952380D02*
X57619047Y-59952380D01*
X57523809Y-60095238D01*
X57428571Y-60190476D01*
X57333333Y-60238095D01*
X58333333Y-60952380D02*
X58333333Y-59952380D01*
X58428571Y-60571428D02*
X58714285Y-60952380D01*
X58714285Y-60285714D02*
X58333333Y-60666666D01*
X59285714Y-60380952D02*
X59190476Y-60333333D01*
X59142857Y-60285714D01*
X59095238Y-60190476D01*
X59095238Y-60142857D01*
X59142857Y-60047619D01*
X59190476Y-60000000D01*
X59285714Y-59952380D01*
X59476190Y-59952380D01*
X59571428Y-60000000D01*
X59619047Y-60047619D01*
X59666666Y-60142857D01*
X59666666Y-60190476D01*
X59619047Y-60285714D01*
X59571428Y-60333333D01*
X59476190Y-60380952D01*
X59285714Y-60380952D01*
X59190476Y-60428571D01*
X59142857Y-60476190D01*
X59095238Y-60571428D01*
X59095238Y-60761904D01*
X59142857Y-60857142D01*
X59190476Y-60904761D01*
X59285714Y-60952380D01*
X59476190Y-60952380D01*
X59571428Y-60904761D01*
X59619047Y-60857142D01*
X59666666Y-60761904D01*
X59666666Y-60571428D01*
X59619047Y-60476190D01*
X59571428Y-60428571D01*
X59476190Y-60380952D01*
X107904761Y-60952380D02*
X107333333Y-60952380D01*
X107619047Y-60952380D02*
X107619047Y-59952380D01*
X107523809Y-60095238D01*
X107428571Y-60190476D01*
X107333333Y-60238095D01*
X108333333Y-60952380D02*
X108333333Y-59952380D01*
X108428571Y-60571428D02*
X108714285Y-60952380D01*
X108714285Y-60285714D02*
X108333333Y-60666666D01*
X109285714Y-60380952D02*
X109190476Y-60333333D01*
X109142857Y-60285714D01*
X109095238Y-60190476D01*
X109095238Y-60142857D01*
X109142857Y-60047619D01*
X109190476Y-60000000D01*
X109285714Y-59952380D01*
X109476190Y-59952380D01*
X109571428Y-60000000D01*
X109619047Y-60047619D01*
X109666666Y-60142857D01*
X109666666Y-60190476D01*
X109619047Y-60285714D01*
X109571428Y-60333333D01*
X109476190Y-60380952D01*
X109285714Y-60380952D01*
X109190476Y-60428571D01*
X109142857Y-60476190D01*
X109095238Y-60571428D01*
X109095238Y-60761904D01*
X109142857Y-60857142D01*
X109190476Y-60904761D01*
X109285714Y-60952380D01*
X109476190Y-60952380D01*
X109571428Y-60904761D01*
X109619047Y-60857142D01*
X109666666Y-60761904D01*
X109666666Y-60571428D01*
X109619047Y-60476190D01*
X109571428Y-60428571D01*
X109476190Y-60380952D01*
%TO.C,SW1*%
X61523809Y-57952380D02*
X62095238Y-57952380D01*
X61809523Y-58952380D02*
X61809523Y-57952380D01*
X62428571Y-58952380D02*
X62428571Y-58285714D01*
X62428571Y-58476190D02*
X62476190Y-58380952D01*
X62523809Y-58333333D01*
X62619047Y-58285714D01*
X62714285Y-58285714D01*
X63047619Y-58952380D02*
X63047619Y-58285714D01*
X63047619Y-57952380D02*
X63000000Y-58000000D01*
X63047619Y-58047619D01*
X63095238Y-58000000D01*
X63047619Y-57952380D01*
X63047619Y-58047619D01*
X63952380Y-58285714D02*
X63952380Y-59095238D01*
X63904761Y-59190476D01*
X63857142Y-59238095D01*
X63761904Y-59285714D01*
X63619047Y-59285714D01*
X63523809Y-59238095D01*
X63952380Y-58904761D02*
X63857142Y-58952380D01*
X63666666Y-58952380D01*
X63571428Y-58904761D01*
X63523809Y-58857142D01*
X63476190Y-58761904D01*
X63476190Y-58476190D01*
X63523809Y-58380952D01*
X63571428Y-58333333D01*
X63666666Y-58285714D01*
X63857142Y-58285714D01*
X63952380Y-58333333D01*
X64857142Y-58285714D02*
X64857142Y-59095238D01*
X64809523Y-59190476D01*
X64761904Y-59238095D01*
X64666666Y-59285714D01*
X64523809Y-59285714D01*
X64428571Y-59238095D01*
X64857142Y-58904761D02*
X64761904Y-58952380D01*
X64571428Y-58952380D01*
X64476190Y-58904761D01*
X64428571Y-58857142D01*
X64380952Y-58761904D01*
X64380952Y-58476190D01*
X64428571Y-58380952D01*
X64476190Y-58333333D01*
X64571428Y-58285714D01*
X64761904Y-58285714D01*
X64857142Y-58333333D01*
X65714285Y-58904761D02*
X65619047Y-58952380D01*
X65428571Y-58952380D01*
X65333333Y-58904761D01*
X65285714Y-58809523D01*
X65285714Y-58428571D01*
X65333333Y-58333333D01*
X65428571Y-58285714D01*
X65619047Y-58285714D01*
X65714285Y-58333333D01*
X65761904Y-58428571D01*
X65761904Y-58523809D01*
X65285714Y-58619047D01*
X66190476Y-58952380D02*
X66190476Y-58285714D01*
X66190476Y-58476190D02*
X66238095Y-58380952D01*
X66285714Y-58333333D01*
X66380952Y-58285714D01*
X66476190Y-58285714D01*
%TO.C,J1*%
X69380952Y-69902380D02*
X69571428Y-69902380D01*
X69666666Y-69854761D01*
X69714285Y-69807142D01*
X69809523Y-69664285D01*
X69857142Y-69473809D01*
X69857142Y-69092857D01*
X69809523Y-68997619D01*
X69761904Y-68950000D01*
X69666666Y-68902380D01*
X69476190Y-68902380D01*
X69380952Y-68950000D01*
X69333333Y-68997619D01*
X69285714Y-69092857D01*
X69285714Y-69330952D01*
X69333333Y-69426190D01*
X69380952Y-69473809D01*
X69476190Y-69521428D01*
X69666666Y-69521428D01*
X69761904Y-69473809D01*
X69809523Y-69426190D01*
X69857142Y-69330952D01*
X70142857Y-68902380D02*
X70476190Y-69902380D01*
X70809523Y-68902380D01*
%TO.C,C1*%
X59702380Y-66797619D02*
X59702380Y-67369047D01*
X59702380Y-67083333D02*
X58702380Y-67083333D01*
X58845238Y-67178571D01*
X58940476Y-67273809D01*
X58988095Y-67369047D01*
X58702380Y-66178571D02*
X58702380Y-66083333D01*
X58750000Y-65988095D01*
X58797619Y-65940476D01*
X58892857Y-65892857D01*
X59083333Y-65845238D01*
X59321428Y-65845238D01*
X59511904Y-65892857D01*
X59607142Y-65940476D01*
X59654761Y-65988095D01*
X59702380Y-66083333D01*
X59702380Y-66178571D01*
X59654761Y-66273809D01*
X59607142Y-66321428D01*
X59511904Y-66369047D01*
X59321428Y-66416666D01*
X59083333Y-66416666D01*
X58892857Y-66369047D01*
X58797619Y-66321428D01*
X58750000Y-66273809D01*
X58702380Y-66178571D01*
X58702380Y-65226190D02*
X58702380Y-65130952D01*
X58750000Y-65035714D01*
X58797619Y-64988095D01*
X58892857Y-64940476D01*
X59083333Y-64892857D01*
X59321428Y-64892857D01*
X59511904Y-64940476D01*
X59607142Y-64988095D01*
X59654761Y-65035714D01*
X59702380Y-65130952D01*
X59702380Y-65226190D01*
X59654761Y-65321428D01*
X59607142Y-65369047D01*
X59511904Y-65416666D01*
X59321428Y-65464285D01*
X59083333Y-65464285D01*
X58892857Y-65416666D01*
X58797619Y-65369047D01*
X58750000Y-65321428D01*
X58702380Y-65226190D01*
X59035714Y-64035714D02*
X59702380Y-64035714D01*
X59035714Y-64464285D02*
X59559523Y-64464285D01*
X59654761Y-64416666D01*
X59702380Y-64321428D01*
X59702380Y-64178571D01*
X59654761Y-64083333D01*
X59607142Y-64035714D01*
X59178571Y-63226190D02*
X59178571Y-63559523D01*
X59702380Y-63559523D02*
X58702380Y-63559523D01*
X58702380Y-63083333D01*
%TO.C,R3*%
X107904761Y-40952380D02*
X107333333Y-40952380D01*
X107619047Y-40952380D02*
X107619047Y-39952380D01*
X107523809Y-40095238D01*
X107428571Y-40190476D01*
X107333333Y-40238095D01*
X108333333Y-40952380D02*
X108333333Y-39952380D01*
X108428571Y-40571428D02*
X108714285Y-40952380D01*
X108714285Y-40285714D02*
X108333333Y-40666666D01*
X109285714Y-40380952D02*
X109190476Y-40333333D01*
X109142857Y-40285714D01*
X109095238Y-40190476D01*
X109095238Y-40142857D01*
X109142857Y-40047619D01*
X109190476Y-40000000D01*
X109285714Y-39952380D01*
X109476190Y-39952380D01*
X109571428Y-40000000D01*
X109619047Y-40047619D01*
X109666666Y-40142857D01*
X109666666Y-40190476D01*
X109619047Y-40285714D01*
X109571428Y-40333333D01*
X109476190Y-40380952D01*
X109285714Y-40380952D01*
X109190476Y-40428571D01*
X109142857Y-40476190D01*
X109095238Y-40571428D01*
X109095238Y-40761904D01*
X109142857Y-40857142D01*
X109190476Y-40904761D01*
X109285714Y-40952380D01*
X109476190Y-40952380D01*
X109571428Y-40904761D01*
X109619047Y-40857142D01*
X109666666Y-40761904D01*
X109666666Y-40571428D01*
X109619047Y-40476190D01*
X109571428Y-40428571D01*
X109476190Y-40380952D01*
%TO.C,SW1*%
X111523809Y-37952380D02*
X112095238Y-37952380D01*
X111809523Y-38952380D02*
X111809523Y-37952380D01*
X112428571Y-38952380D02*
X112428571Y-38285714D01*
X112428571Y-38476190D02*
X112476190Y-38380952D01*
X112523809Y-38333333D01*
X112619047Y-38285714D01*
X112714285Y-38285714D01*
X113047619Y-38952380D02*
X113047619Y-38285714D01*
X113047619Y-37952380D02*
X113000000Y-38000000D01*
X113047619Y-38047619D01*
X113095238Y-38000000D01*
X113047619Y-37952380D01*
X113047619Y-38047619D01*
X113952380Y-38285714D02*
X113952380Y-39095238D01*
X113904761Y-39190476D01*
X113857142Y-39238095D01*
X113761904Y-39285714D01*
X113619047Y-39285714D01*
X113523809Y-39238095D01*
X113952380Y-38904761D02*
X113857142Y-38952380D01*
X113666666Y-38952380D01*
X113571428Y-38904761D01*
X113523809Y-38857142D01*
X113476190Y-38761904D01*
X113476190Y-38476190D01*
X113523809Y-38380952D01*
X113571428Y-38333333D01*
X113666666Y-38285714D01*
X113857142Y-38285714D01*
X113952380Y-38333333D01*
X114857142Y-38285714D02*
X114857142Y-39095238D01*
X114809523Y-39190476D01*
X114761904Y-39238095D01*
X114666666Y-39285714D01*
X114523809Y-39285714D01*
X114428571Y-39238095D01*
X114857142Y-38904761D02*
X114761904Y-38952380D01*
X114571428Y-38952380D01*
X114476190Y-38904761D01*
X114428571Y-38857142D01*
X114380952Y-38761904D01*
X114380952Y-38476190D01*
X114428571Y-38380952D01*
X114476190Y-38333333D01*
X114571428Y-38285714D01*
X114761904Y-38285714D01*
X114857142Y-38333333D01*
X115714285Y-38904761D02*
X115619047Y-38952380D01*
X115428571Y-38952380D01*
X115333333Y-38904761D01*
X115285714Y-38809523D01*
X115285714Y-38428571D01*
X115333333Y-38333333D01*
X115428571Y-38285714D01*
X115619047Y-38285714D01*
X115714285Y-38333333D01*
X115761904Y-38428571D01*
X115761904Y-38523809D01*
X115285714Y-38619047D01*
X116190476Y-38952380D02*
X116190476Y-38285714D01*
X116190476Y-38476190D02*
X116238095Y-38380952D01*
X116285714Y-38333333D01*
X116380952Y-38285714D01*
X116476190Y-38285714D01*
%TO.C,J1*%
X119380952Y-49902380D02*
X119571428Y-49902380D01*
X119666666Y-49854761D01*
X119714285Y-49807142D01*
X119809523Y-49664285D01*
X119857142Y-49473809D01*
X119857142Y-49092857D01*
X119809523Y-48997619D01*
X119761904Y-48950000D01*
X119666666Y-48902380D01*
X119476190Y-48902380D01*
X119380952Y-48950000D01*
X119333333Y-48997619D01*
X119285714Y-49092857D01*
X119285714Y-49330952D01*
X119333333Y-49426190D01*
X119380952Y-49473809D01*
X119476190Y-49521428D01*
X119666666Y-49521428D01*
X119761904Y-49473809D01*
X119809523Y-49426190D01*
X119857142Y-49330952D01*
X120142857Y-48902380D02*
X120476190Y-49902380D01*
X120809523Y-48902380D01*
%TO.C,C1*%
X109702380Y-46797619D02*
X109702380Y-47369047D01*
X109702380Y-47083333D02*
X108702380Y-47083333D01*
X108845238Y-47178571D01*
X108940476Y-47273809D01*
X108988095Y-47369047D01*
X108702380Y-46178571D02*
X108702380Y-46083333D01*
X108750000Y-45988095D01*
X108797619Y-45940476D01*
X108892857Y-45892857D01*
X109083333Y-45845238D01*
X109321428Y-45845238D01*
X109511904Y-45892857D01*
X109607142Y-45940476D01*
X109654761Y-45988095D01*
X109702380Y-46083333D01*
X109702380Y-46178571D01*
X109654761Y-46273809D01*
X109607142Y-46321428D01*
X109511904Y-46369047D01*
X109321428Y-46416666D01*
X109083333Y-46416666D01*
X108892857Y-46369047D01*
X108797619Y-46321428D01*
X108750000Y-46273809D01*
X108702380Y-46178571D01*
X108702380Y-45226190D02*
X108702380Y-45130952D01*
X108750000Y-45035714D01*
X108797619Y-44988095D01*
X108892857Y-44940476D01*
X109083333Y-44892857D01*
X109321428Y-44892857D01*
X109511904Y-44940476D01*
X109607142Y-44988095D01*
X109654761Y-45035714D01*
X109702380Y-45130952D01*
X109702380Y-45226190D01*
X109654761Y-45321428D01*
X109607142Y-45369047D01*
X109511904Y-45416666D01*
X109321428Y-45464285D01*
X109083333Y-45464285D01*
X108892857Y-45416666D01*
X108797619Y-45369047D01*
X108750000Y-45321428D01*
X108702380Y-45226190D01*
X109035714Y-44035714D02*
X109702380Y-44035714D01*
X109035714Y-44464285D02*
X109559523Y-44464285D01*
X109654761Y-44416666D01*
X109702380Y-44321428D01*
X109702380Y-44178571D01*
X109654761Y-44083333D01*
X109607142Y-44035714D01*
X109178571Y-43226190D02*
X109178571Y-43559523D01*
X109702380Y-43559523D02*
X108702380Y-43559523D01*
X108702380Y-43083333D01*
X59702380Y-46797619D02*
X59702380Y-47369047D01*
X59702380Y-47083333D02*
X58702380Y-47083333D01*
X58845238Y-47178571D01*
X58940476Y-47273809D01*
X58988095Y-47369047D01*
X58702380Y-46178571D02*
X58702380Y-46083333D01*
X58750000Y-45988095D01*
X58797619Y-45940476D01*
X58892857Y-45892857D01*
X59083333Y-45845238D01*
X59321428Y-45845238D01*
X59511904Y-45892857D01*
X59607142Y-45940476D01*
X59654761Y-45988095D01*
X59702380Y-46083333D01*
X59702380Y-46178571D01*
X59654761Y-46273809D01*
X59607142Y-46321428D01*
X59511904Y-46369047D01*
X59321428Y-46416666D01*
X59083333Y-46416666D01*
X58892857Y-46369047D01*
X58797619Y-46321428D01*
X58750000Y-46273809D01*
X58702380Y-46178571D01*
X58702380Y-45226190D02*
X58702380Y-45130952D01*
X58750000Y-45035714D01*
X58797619Y-44988095D01*
X58892857Y-44940476D01*
X59083333Y-44892857D01*
X59321428Y-44892857D01*
X59511904Y-44940476D01*
X59607142Y-44988095D01*
X59654761Y-45035714D01*
X59702380Y-45130952D01*
X59702380Y-45226190D01*
X59654761Y-45321428D01*
X59607142Y-45369047D01*
X59511904Y-45416666D01*
X59321428Y-45464285D01*
X59083333Y-45464285D01*
X58892857Y-45416666D01*
X58797619Y-45369047D01*
X58750000Y-45321428D01*
X58702380Y-45226190D01*
X59035714Y-44035714D02*
X59702380Y-44035714D01*
X59035714Y-44464285D02*
X59559523Y-44464285D01*
X59654761Y-44416666D01*
X59702380Y-44321428D01*
X59702380Y-44178571D01*
X59654761Y-44083333D01*
X59607142Y-44035714D01*
X59178571Y-43226190D02*
X59178571Y-43559523D01*
X59702380Y-43559523D02*
X58702380Y-43559523D01*
X58702380Y-43083333D01*
%TO.C,J1*%
X69380952Y-49902380D02*
X69571428Y-49902380D01*
X69666666Y-49854761D01*
X69714285Y-49807142D01*
X69809523Y-49664285D01*
X69857142Y-49473809D01*
X69857142Y-49092857D01*
X69809523Y-48997619D01*
X69761904Y-48950000D01*
X69666666Y-48902380D01*
X69476190Y-48902380D01*
X69380952Y-48950000D01*
X69333333Y-48997619D01*
X69285714Y-49092857D01*
X69285714Y-49330952D01*
X69333333Y-49426190D01*
X69380952Y-49473809D01*
X69476190Y-49521428D01*
X69666666Y-49521428D01*
X69761904Y-49473809D01*
X69809523Y-49426190D01*
X69857142Y-49330952D01*
X70142857Y-48902380D02*
X70476190Y-49902380D01*
X70809523Y-48902380D01*
%TO.C,SW1*%
X61523809Y-37952380D02*
X62095238Y-37952380D01*
X61809523Y-38952380D02*
X61809523Y-37952380D01*
X62428571Y-38952380D02*
X62428571Y-38285714D01*
X62428571Y-38476190D02*
X62476190Y-38380952D01*
X62523809Y-38333333D01*
X62619047Y-38285714D01*
X62714285Y-38285714D01*
X63047619Y-38952380D02*
X63047619Y-38285714D01*
X63047619Y-37952380D02*
X63000000Y-38000000D01*
X63047619Y-38047619D01*
X63095238Y-38000000D01*
X63047619Y-37952380D01*
X63047619Y-38047619D01*
X63952380Y-38285714D02*
X63952380Y-39095238D01*
X63904761Y-39190476D01*
X63857142Y-39238095D01*
X63761904Y-39285714D01*
X63619047Y-39285714D01*
X63523809Y-39238095D01*
X63952380Y-38904761D02*
X63857142Y-38952380D01*
X63666666Y-38952380D01*
X63571428Y-38904761D01*
X63523809Y-38857142D01*
X63476190Y-38761904D01*
X63476190Y-38476190D01*
X63523809Y-38380952D01*
X63571428Y-38333333D01*
X63666666Y-38285714D01*
X63857142Y-38285714D01*
X63952380Y-38333333D01*
X64857142Y-38285714D02*
X64857142Y-39095238D01*
X64809523Y-39190476D01*
X64761904Y-39238095D01*
X64666666Y-39285714D01*
X64523809Y-39285714D01*
X64428571Y-39238095D01*
X64857142Y-38904761D02*
X64761904Y-38952380D01*
X64571428Y-38952380D01*
X64476190Y-38904761D01*
X64428571Y-38857142D01*
X64380952Y-38761904D01*
X64380952Y-38476190D01*
X64428571Y-38380952D01*
X64476190Y-38333333D01*
X64571428Y-38285714D01*
X64761904Y-38285714D01*
X64857142Y-38333333D01*
X65714285Y-38904761D02*
X65619047Y-38952380D01*
X65428571Y-38952380D01*
X65333333Y-38904761D01*
X65285714Y-38809523D01*
X65285714Y-38428571D01*
X65333333Y-38333333D01*
X65428571Y-38285714D01*
X65619047Y-38285714D01*
X65714285Y-38333333D01*
X65761904Y-38428571D01*
X65761904Y-38523809D01*
X65285714Y-38619047D01*
X66190476Y-38952380D02*
X66190476Y-38285714D01*
X66190476Y-38476190D02*
X66238095Y-38380952D01*
X66285714Y-38333333D01*
X66380952Y-38285714D01*
X66476190Y-38285714D01*
%TO.C,R3*%
X57904761Y-40952380D02*
X57333333Y-40952380D01*
X57619047Y-40952380D02*
X57619047Y-39952380D01*
X57523809Y-40095238D01*
X57428571Y-40190476D01*
X57333333Y-40238095D01*
X58333333Y-40952380D02*
X58333333Y-39952380D01*
X58428571Y-40571428D02*
X58714285Y-40952380D01*
X58714285Y-40285714D02*
X58333333Y-40666666D01*
X59285714Y-40380952D02*
X59190476Y-40333333D01*
X59142857Y-40285714D01*
X59095238Y-40190476D01*
X59095238Y-40142857D01*
X59142857Y-40047619D01*
X59190476Y-40000000D01*
X59285714Y-39952380D01*
X59476190Y-39952380D01*
X59571428Y-40000000D01*
X59619047Y-40047619D01*
X59666666Y-40142857D01*
X59666666Y-40190476D01*
X59619047Y-40285714D01*
X59571428Y-40333333D01*
X59476190Y-40380952D01*
X59285714Y-40380952D01*
X59190476Y-40428571D01*
X59142857Y-40476190D01*
X59095238Y-40571428D01*
X59095238Y-40761904D01*
X59142857Y-40857142D01*
X59190476Y-40904761D01*
X59285714Y-40952380D01*
X59476190Y-40952380D01*
X59571428Y-40904761D01*
X59619047Y-40857142D01*
X59666666Y-40761904D01*
X59666666Y-40571428D01*
X59619047Y-40476190D01*
X59571428Y-40428571D01*
X59476190Y-40380952D01*
%TD*%
%TO.C,R3*%
G36*
G01*
X105400000Y-121450001D02*
X105400000Y-120549999D01*
G75*
G02*
X105649999Y-120300000I249999J0D01*
G01*
X106350001Y-120300000D01*
G75*
G02*
X106600000Y-120549999I0J-249999D01*
G01*
X106600000Y-121450001D01*
G75*
G02*
X106350001Y-121700000I-249999J0D01*
G01*
X105649999Y-121700000D01*
G75*
G02*
X105400000Y-121450001I0J249999D01*
G01*
G37*
G36*
G01*
X103400000Y-121450001D02*
X103400000Y-120549999D01*
G75*
G02*
X103649999Y-120300000I249999J0D01*
G01*
X104350001Y-120300000D01*
G75*
G02*
X104600000Y-120549999I0J-249999D01*
G01*
X104600000Y-121450001D01*
G75*
G02*
X104350001Y-121700000I-249999J0D01*
G01*
X103649999Y-121700000D01*
G75*
G02*
X103400000Y-121450001I0J249999D01*
G01*
G37*
%TD*%
D11*
%TO.C,U2*%
X85800000Y-118350000D03*
X87800000Y-118350000D03*
X89800000Y-118350000D03*
X91800000Y-118350000D03*
X93800000Y-118350000D03*
X95800000Y-118350000D03*
X97800000Y-118350000D03*
X99800000Y-118350000D03*
D12*
X101300000Y-120950000D03*
X101300000Y-122950000D03*
X101300000Y-124950000D03*
X101300000Y-126950000D03*
X101300000Y-128950000D03*
X101300000Y-130950000D03*
D11*
X99800000Y-133550000D03*
X97800000Y-133550000D03*
X95800000Y-133550000D03*
X93800000Y-133550000D03*
X91800000Y-133550000D03*
X89800000Y-133550000D03*
X87800000Y-133550000D03*
X85800000Y-133550000D03*
%TD*%
%TO.C,U2*%
X35800000Y-133550000D03*
X37800000Y-133550000D03*
X39800000Y-133550000D03*
X41800000Y-133550000D03*
X43800000Y-133550000D03*
X45800000Y-133550000D03*
X47800000Y-133550000D03*
X49800000Y-133550000D03*
D12*
X51300000Y-130950000D03*
X51300000Y-128950000D03*
X51300000Y-126950000D03*
X51300000Y-124950000D03*
X51300000Y-122950000D03*
X51300000Y-120950000D03*
D11*
X49800000Y-118350000D03*
X47800000Y-118350000D03*
X45800000Y-118350000D03*
X43800000Y-118350000D03*
X41800000Y-118350000D03*
X39800000Y-118350000D03*
X37800000Y-118350000D03*
X35800000Y-118350000D03*
%TD*%
D13*
%TO.C,SW3*%
X64400000Y-131000000D03*
X56600000Y-131000000D03*
%TD*%
%TO.C,R3*%
G36*
G01*
X53400000Y-121450001D02*
X53400000Y-120549999D01*
G75*
G02*
X53649999Y-120300000I249999J0D01*
G01*
X54350001Y-120300000D01*
G75*
G02*
X54600000Y-120549999I0J-249999D01*
G01*
X54600000Y-121450001D01*
G75*
G02*
X54350001Y-121700000I-249999J0D01*
G01*
X53649999Y-121700000D01*
G75*
G02*
X53400000Y-121450001I0J249999D01*
G01*
G37*
G36*
G01*
X55400000Y-121450001D02*
X55400000Y-120549999D01*
G75*
G02*
X55649999Y-120300000I249999J0D01*
G01*
X56350001Y-120300000D01*
G75*
G02*
X56600000Y-120549999I0J-249999D01*
G01*
X56600000Y-121450001D01*
G75*
G02*
X56350001Y-121700000I-249999J0D01*
G01*
X55649999Y-121700000D01*
G75*
G02*
X55400000Y-121450001I0J249999D01*
G01*
G37*
%TD*%
%TO.C,SW3*%
X106600000Y-131000000D03*
X114400000Y-131000000D03*
%TD*%
%TO.C,R3*%
G36*
G01*
X55400000Y-101450001D02*
X55400000Y-100549999D01*
G75*
G02*
X55649999Y-100300000I249999J0D01*
G01*
X56350001Y-100300000D01*
G75*
G02*
X56600000Y-100549999I0J-249999D01*
G01*
X56600000Y-101450001D01*
G75*
G02*
X56350001Y-101700000I-249999J0D01*
G01*
X55649999Y-101700000D01*
G75*
G02*
X55400000Y-101450001I0J249999D01*
G01*
G37*
G36*
G01*
X53400000Y-101450001D02*
X53400000Y-100549999D01*
G75*
G02*
X53649999Y-100300000I249999J0D01*
G01*
X54350001Y-100300000D01*
G75*
G02*
X54600000Y-100549999I0J-249999D01*
G01*
X54600000Y-101450001D01*
G75*
G02*
X54350001Y-101700000I-249999J0D01*
G01*
X53649999Y-101700000D01*
G75*
G02*
X53400000Y-101450001I0J249999D01*
G01*
G37*
%TD*%
%TO.C,SW3*%
X114400000Y-111000000D03*
X106600000Y-111000000D03*
%TD*%
%TO.C,R3*%
G36*
G01*
X103400000Y-101450001D02*
X103400000Y-100549999D01*
G75*
G02*
X103649999Y-100300000I249999J0D01*
G01*
X104350001Y-100300000D01*
G75*
G02*
X104600000Y-100549999I0J-249999D01*
G01*
X104600000Y-101450001D01*
G75*
G02*
X104350001Y-101700000I-249999J0D01*
G01*
X103649999Y-101700000D01*
G75*
G02*
X103400000Y-101450001I0J249999D01*
G01*
G37*
G36*
G01*
X105400000Y-101450001D02*
X105400000Y-100549999D01*
G75*
G02*
X105649999Y-100300000I249999J0D01*
G01*
X106350001Y-100300000D01*
G75*
G02*
X106600000Y-100549999I0J-249999D01*
G01*
X106600000Y-101450001D01*
G75*
G02*
X106350001Y-101700000I-249999J0D01*
G01*
X105649999Y-101700000D01*
G75*
G02*
X105400000Y-101450001I0J249999D01*
G01*
G37*
%TD*%
D11*
%TO.C,U2*%
X85800000Y-113550000D03*
X87800000Y-113550000D03*
X89800000Y-113550000D03*
X91800000Y-113550000D03*
X93800000Y-113550000D03*
X95800000Y-113550000D03*
X97800000Y-113550000D03*
X99800000Y-113550000D03*
D12*
X101300000Y-110950000D03*
X101300000Y-108950000D03*
X101300000Y-106950000D03*
X101300000Y-104950000D03*
X101300000Y-102950000D03*
X101300000Y-100950000D03*
D11*
X99800000Y-98350000D03*
X97800000Y-98350000D03*
X95800000Y-98350000D03*
X93800000Y-98350000D03*
X91800000Y-98350000D03*
X89800000Y-98350000D03*
X87800000Y-98350000D03*
X85800000Y-98350000D03*
%TD*%
D13*
%TO.C,SW3*%
X56600000Y-111000000D03*
X64400000Y-111000000D03*
%TD*%
D11*
%TO.C,U2*%
X35800000Y-98350000D03*
X37800000Y-98350000D03*
X39800000Y-98350000D03*
X41800000Y-98350000D03*
X43800000Y-98350000D03*
X45800000Y-98350000D03*
X47800000Y-98350000D03*
X49800000Y-98350000D03*
D12*
X51300000Y-100950000D03*
X51300000Y-102950000D03*
X51300000Y-104950000D03*
X51300000Y-106950000D03*
X51300000Y-108950000D03*
X51300000Y-110950000D03*
D11*
X49800000Y-113550000D03*
X47800000Y-113550000D03*
X45800000Y-113550000D03*
X43800000Y-113550000D03*
X41800000Y-113550000D03*
X39800000Y-113550000D03*
X37800000Y-113550000D03*
X35800000Y-113550000D03*
%TD*%
D13*
%TO.C,SW3*%
X106600000Y-91000000D03*
X114400000Y-91000000D03*
%TD*%
%TO.C,R3*%
G36*
G01*
X53400000Y-81450001D02*
X53400000Y-80549999D01*
G75*
G02*
X53649999Y-80300000I249999J0D01*
G01*
X54350001Y-80300000D01*
G75*
G02*
X54600000Y-80549999I0J-249999D01*
G01*
X54600000Y-81450001D01*
G75*
G02*
X54350001Y-81700000I-249999J0D01*
G01*
X53649999Y-81700000D01*
G75*
G02*
X53400000Y-81450001I0J249999D01*
G01*
G37*
G36*
G01*
X55400000Y-81450001D02*
X55400000Y-80549999D01*
G75*
G02*
X55649999Y-80300000I249999J0D01*
G01*
X56350001Y-80300000D01*
G75*
G02*
X56600000Y-80549999I0J-249999D01*
G01*
X56600000Y-81450001D01*
G75*
G02*
X56350001Y-81700000I-249999J0D01*
G01*
X55649999Y-81700000D01*
G75*
G02*
X55400000Y-81450001I0J249999D01*
G01*
G37*
%TD*%
D11*
%TO.C,U2*%
X85800000Y-78350000D03*
X87800000Y-78350000D03*
X89800000Y-78350000D03*
X91800000Y-78350000D03*
X93800000Y-78350000D03*
X95800000Y-78350000D03*
X97800000Y-78350000D03*
X99800000Y-78350000D03*
D12*
X101300000Y-80950000D03*
X101300000Y-82950000D03*
X101300000Y-84950000D03*
X101300000Y-86950000D03*
X101300000Y-88950000D03*
X101300000Y-90950000D03*
D11*
X99800000Y-93550000D03*
X97800000Y-93550000D03*
X95800000Y-93550000D03*
X93800000Y-93550000D03*
X91800000Y-93550000D03*
X89800000Y-93550000D03*
X87800000Y-93550000D03*
X85800000Y-93550000D03*
%TD*%
%TO.C,R3*%
G36*
G01*
X105400000Y-81450001D02*
X105400000Y-80549999D01*
G75*
G02*
X105649999Y-80300000I249999J0D01*
G01*
X106350001Y-80300000D01*
G75*
G02*
X106600000Y-80549999I0J-249999D01*
G01*
X106600000Y-81450001D01*
G75*
G02*
X106350001Y-81700000I-249999J0D01*
G01*
X105649999Y-81700000D01*
G75*
G02*
X105400000Y-81450001I0J249999D01*
G01*
G37*
G36*
G01*
X103400000Y-81450001D02*
X103400000Y-80549999D01*
G75*
G02*
X103649999Y-80300000I249999J0D01*
G01*
X104350001Y-80300000D01*
G75*
G02*
X104600000Y-80549999I0J-249999D01*
G01*
X104600000Y-81450001D01*
G75*
G02*
X104350001Y-81700000I-249999J0D01*
G01*
X103649999Y-81700000D01*
G75*
G02*
X103400000Y-81450001I0J249999D01*
G01*
G37*
%TD*%
D13*
%TO.C,SW3*%
X64400000Y-91000000D03*
X56600000Y-91000000D03*
%TD*%
D11*
%TO.C,U2*%
X35800000Y-93550000D03*
X37800000Y-93550000D03*
X39800000Y-93550000D03*
X41800000Y-93550000D03*
X43800000Y-93550000D03*
X45800000Y-93550000D03*
X47800000Y-93550000D03*
X49800000Y-93550000D03*
D12*
X51300000Y-90950000D03*
X51300000Y-88950000D03*
X51300000Y-86950000D03*
X51300000Y-84950000D03*
X51300000Y-82950000D03*
X51300000Y-80950000D03*
D11*
X49800000Y-78350000D03*
X47800000Y-78350000D03*
X45800000Y-78350000D03*
X43800000Y-78350000D03*
X41800000Y-78350000D03*
X39800000Y-78350000D03*
X37800000Y-78350000D03*
X35800000Y-78350000D03*
%TD*%
D13*
%TO.C,SW3*%
X114400000Y-71000000D03*
X106600000Y-71000000D03*
%TD*%
%TO.C,R3*%
G36*
G01*
X55400000Y-61450001D02*
X55400000Y-60549999D01*
G75*
G02*
X55649999Y-60300000I249999J0D01*
G01*
X56350001Y-60300000D01*
G75*
G02*
X56600000Y-60549999I0J-249999D01*
G01*
X56600000Y-61450001D01*
G75*
G02*
X56350001Y-61700000I-249999J0D01*
G01*
X55649999Y-61700000D01*
G75*
G02*
X55400000Y-61450001I0J249999D01*
G01*
G37*
G36*
G01*
X53400000Y-61450001D02*
X53400000Y-60549999D01*
G75*
G02*
X53649999Y-60300000I249999J0D01*
G01*
X54350001Y-60300000D01*
G75*
G02*
X54600000Y-60549999I0J-249999D01*
G01*
X54600000Y-61450001D01*
G75*
G02*
X54350001Y-61700000I-249999J0D01*
G01*
X53649999Y-61700000D01*
G75*
G02*
X53400000Y-61450001I0J249999D01*
G01*
G37*
%TD*%
D11*
%TO.C,U2*%
X85800000Y-73550000D03*
X87800000Y-73550000D03*
X89800000Y-73550000D03*
X91800000Y-73550000D03*
X93800000Y-73550000D03*
X95800000Y-73550000D03*
X97800000Y-73550000D03*
X99800000Y-73550000D03*
D12*
X101300000Y-70950000D03*
X101300000Y-68950000D03*
X101300000Y-66950000D03*
X101300000Y-64950000D03*
X101300000Y-62950000D03*
X101300000Y-60950000D03*
D11*
X99800000Y-58350000D03*
X97800000Y-58350000D03*
X95800000Y-58350000D03*
X93800000Y-58350000D03*
X91800000Y-58350000D03*
X89800000Y-58350000D03*
X87800000Y-58350000D03*
X85800000Y-58350000D03*
%TD*%
%TO.C,R3*%
G36*
G01*
X103400000Y-61450001D02*
X103400000Y-60549999D01*
G75*
G02*
X103649999Y-60300000I249999J0D01*
G01*
X104350001Y-60300000D01*
G75*
G02*
X104600000Y-60549999I0J-249999D01*
G01*
X104600000Y-61450001D01*
G75*
G02*
X104350001Y-61700000I-249999J0D01*
G01*
X103649999Y-61700000D01*
G75*
G02*
X103400000Y-61450001I0J249999D01*
G01*
G37*
G36*
G01*
X105400000Y-61450001D02*
X105400000Y-60549999D01*
G75*
G02*
X105649999Y-60300000I249999J0D01*
G01*
X106350001Y-60300000D01*
G75*
G02*
X106600000Y-60549999I0J-249999D01*
G01*
X106600000Y-61450001D01*
G75*
G02*
X106350001Y-61700000I-249999J0D01*
G01*
X105649999Y-61700000D01*
G75*
G02*
X105400000Y-61450001I0J249999D01*
G01*
G37*
%TD*%
D13*
%TO.C,SW3*%
X56600000Y-71000000D03*
X64400000Y-71000000D03*
%TD*%
D11*
%TO.C,U2*%
X35800000Y-58350000D03*
X37800000Y-58350000D03*
X39800000Y-58350000D03*
X41800000Y-58350000D03*
X43800000Y-58350000D03*
X45800000Y-58350000D03*
X47800000Y-58350000D03*
X49800000Y-58350000D03*
D12*
X51300000Y-60950000D03*
X51300000Y-62950000D03*
X51300000Y-64950000D03*
X51300000Y-66950000D03*
X51300000Y-68950000D03*
X51300000Y-70950000D03*
D11*
X49800000Y-73550000D03*
X47800000Y-73550000D03*
X45800000Y-73550000D03*
X43800000Y-73550000D03*
X41800000Y-73550000D03*
X39800000Y-73550000D03*
X37800000Y-73550000D03*
X35800000Y-73550000D03*
%TD*%
%TO.C,R3*%
G36*
G01*
X105400000Y-41450001D02*
X105400000Y-40549999D01*
G75*
G02*
X105649999Y-40300000I249999J0D01*
G01*
X106350001Y-40300000D01*
G75*
G02*
X106600000Y-40549999I0J-249999D01*
G01*
X106600000Y-41450001D01*
G75*
G02*
X106350001Y-41700000I-249999J0D01*
G01*
X105649999Y-41700000D01*
G75*
G02*
X105400000Y-41450001I0J249999D01*
G01*
G37*
G36*
G01*
X103400000Y-41450001D02*
X103400000Y-40549999D01*
G75*
G02*
X103649999Y-40300000I249999J0D01*
G01*
X104350001Y-40300000D01*
G75*
G02*
X104600000Y-40549999I0J-249999D01*
G01*
X104600000Y-41450001D01*
G75*
G02*
X104350001Y-41700000I-249999J0D01*
G01*
X103649999Y-41700000D01*
G75*
G02*
X103400000Y-41450001I0J249999D01*
G01*
G37*
%TD*%
D13*
%TO.C,SW3*%
X106600000Y-51000000D03*
X114400000Y-51000000D03*
%TD*%
D11*
%TO.C,U2*%
X85800000Y-38350000D03*
X87800000Y-38350000D03*
X89800000Y-38350000D03*
X91800000Y-38350000D03*
X93800000Y-38350000D03*
X95800000Y-38350000D03*
X97800000Y-38350000D03*
X99800000Y-38350000D03*
D12*
X101300000Y-40950000D03*
X101300000Y-42950000D03*
X101300000Y-44950000D03*
X101300000Y-46950000D03*
X101300000Y-48950000D03*
X101300000Y-50950000D03*
D11*
X99800000Y-53550000D03*
X97800000Y-53550000D03*
X95800000Y-53550000D03*
X93800000Y-53550000D03*
X91800000Y-53550000D03*
X89800000Y-53550000D03*
X87800000Y-53550000D03*
X85800000Y-53550000D03*
%TD*%
D13*
%TO.C,SW3*%
X64400000Y-51000000D03*
X56600000Y-51000000D03*
%TD*%
D11*
%TO.C,U2*%
X35800000Y-53550000D03*
X37800000Y-53550000D03*
X39800000Y-53550000D03*
X41800000Y-53550000D03*
X43800000Y-53550000D03*
X45800000Y-53550000D03*
X47800000Y-53550000D03*
X49800000Y-53550000D03*
D12*
X51300000Y-50950000D03*
X51300000Y-48950000D03*
X51300000Y-46950000D03*
X51300000Y-44950000D03*
X51300000Y-42950000D03*
X51300000Y-40950000D03*
D11*
X49800000Y-38350000D03*
X47800000Y-38350000D03*
X45800000Y-38350000D03*
X43800000Y-38350000D03*
X41800000Y-38350000D03*
X39800000Y-38350000D03*
X37800000Y-38350000D03*
X35800000Y-38350000D03*
%TD*%
%TO.C,R3*%
G36*
G01*
X53400000Y-41450001D02*
X53400000Y-40549999D01*
G75*
G02*
X53649999Y-40300000I249999J0D01*
G01*
X54350001Y-40300000D01*
G75*
G02*
X54600000Y-40549999I0J-249999D01*
G01*
X54600000Y-41450001D01*
G75*
G02*
X54350001Y-41700000I-249999J0D01*
G01*
X53649999Y-41700000D01*
G75*
G02*
X53400000Y-41450001I0J249999D01*
G01*
G37*
G36*
G01*
X55400000Y-41450001D02*
X55400000Y-40549999D01*
G75*
G02*
X55649999Y-40300000I249999J0D01*
G01*
X56350001Y-40300000D01*
G75*
G02*
X56600000Y-40549999I0J-249999D01*
G01*
X56600000Y-41450001D01*
G75*
G02*
X56350001Y-41700000I-249999J0D01*
G01*
X55649999Y-41700000D01*
G75*
G02*
X55400000Y-41450001I0J249999D01*
G01*
G37*
%TD*%
M02*
