M48
; DRILL file {KiCad (5.1.9)-1} date 05/04/21 22:29:17
; FORMAT={3:3/ absolute / metric / suppress leading zeros}
; #@! TF.CreationDate,2021-05-04T22:29:17+02:00
; #@! TF.GenerationSoftware,Kicad,Pcbnew,(5.1.9)-1
; #@! TF.FileFunction,Plated,1,2,PTH
FMAT,2
METRIC,TZ
T1C0.400
T2C0.750
T3C0.762
T4C0.800
%
G90
G05
T1
X40802Y-51936
X40802Y-71936
X40802Y-91936
X40802Y-111936
X40802Y-131936
X47219Y-40222
X47219Y-60222
X47219Y-80222
X47219Y-100222
X47219Y-120222
X49776Y-42665
X49776Y-62665
X49776Y-82665
X49776Y-102665
X49776Y-122665
X50909Y-53550
X50909Y-73550
X50909Y-93550
X50909Y-113550
X50909Y-133550
X53805Y-51358
X53805Y-71358
X53805Y-91358
X53805Y-111358
X53805Y-131358
X90802Y-51936
X90802Y-71936
X90802Y-91936
X90802Y-111936
X90802Y-131936
X97219Y-40222
X97219Y-60222
X97219Y-80222
X97219Y-100222
X97219Y-120222
X99776Y-42665
X99776Y-62665
X99776Y-82665
X99776Y-102665
X99776Y-122665
X100909Y-53550
X100909Y-73550
X100909Y-93550
X100909Y-113550
X100909Y-133550
X103805Y-51358
X103805Y-71358
X103805Y-91358
X103805Y-111358
X103805Y-131358
T2
X69000Y-42000
X69000Y-62000
X69000Y-82000
X69000Y-102000
X69000Y-122000
X71000Y-42000
X71000Y-62000
X71000Y-82000
X71000Y-102000
X71000Y-122000
X119000Y-42000
X119000Y-62000
X119000Y-82000
X119000Y-102000
X119000Y-122000
X121000Y-42000
X121000Y-62000
X121000Y-82000
X121000Y-102000
X121000Y-122000
T3
X54150Y-38350
X54150Y-54100
X54150Y-58350
X54150Y-74100
X54150Y-78350
X54150Y-94100
X54150Y-98350
X54150Y-114100
X54150Y-118350
X54150Y-134100
X74150Y-38350
X74150Y-54100
X74150Y-58350
X74150Y-74100
X74150Y-78350
X74150Y-94100
X74150Y-98350
X74150Y-114100
X74150Y-118350
X74150Y-134100
X104150Y-38350
X104150Y-54100
X104150Y-58350
X104150Y-74100
X104150Y-78350
X104150Y-94100
X104150Y-98350
X104150Y-114100
X104150Y-118350
X104150Y-134100
X124150Y-38350
X124150Y-54100
X124150Y-58350
X124150Y-74100
X124150Y-78350
X124150Y-94100
X124150Y-98350
X124150Y-114100
X124150Y-118350
X124150Y-134100
T4
X55500Y-44000
X55500Y-46500
X55500Y-64000
X55500Y-66500
X55500Y-84000
X55500Y-86500
X55500Y-104000
X55500Y-106500
X55500Y-124000
X55500Y-126500
X105500Y-44000
X105500Y-46500
X105500Y-64000
X105500Y-66500
X105500Y-84000
X105500Y-86500
X105500Y-104000
X105500Y-106500
X105500Y-124000
X105500Y-126500
T0
M30
