M48
; DRILL file {KiCad (5.1.9)-1} date 04/15/21 21:54:43
; FORMAT={3:3/ absolute / metric / suppress leading zeros}
; #@! TF.CreationDate,2021-04-15T21:54:43+02:00
; #@! TF.GenerationSoftware,Kicad,Pcbnew,(5.1.9)-1
; #@! TF.FileFunction,Plated,1,2,PTH
FMAT,2
METRIC,TZ
T1C0.400
T2C0.750
T3C0.762
T4C0.800
%
G90
G05
T1
X39392Y-51673
X39392Y-71673
X39392Y-91673
X39392Y-111673
X39392Y-131673
X47714Y-40700
X47714Y-60700
X47714Y-80700
X47714Y-100700
X47714Y-120699
X89392Y-51673
X89392Y-71673
X89392Y-91673
X89392Y-111673
X89392Y-131673
X97714Y-40700
X97714Y-60700
X97714Y-80700
X97714Y-100700
X97714Y-120699
T2
X69000Y-42000
X69000Y-62000
X69000Y-82000
X69000Y-102000
X69000Y-122000
X71000Y-42000
X71000Y-62000
X71000Y-82000
X71000Y-102000
X71000Y-122000
X119000Y-42000
X119000Y-62000
X119000Y-82000
X119000Y-102000
X119000Y-122000
X121000Y-42000
X121000Y-62000
X121000Y-82000
X121000Y-102000
X121000Y-122000
T3
X54150Y-38350
X54150Y-54100
X54150Y-58350
X54150Y-74100
X54150Y-78350
X54150Y-94100
X54150Y-98350
X54150Y-114100
X54150Y-118350
X54150Y-134100
X74150Y-38350
X74150Y-54100
X74150Y-58350
X74150Y-74100
X74150Y-78350
X74150Y-94100
X74150Y-98350
X74150Y-114100
X74150Y-118350
X74150Y-134100
X104150Y-38350
X104150Y-54100
X104150Y-58350
X104150Y-74100
X104150Y-78350
X104150Y-94100
X104150Y-98350
X104150Y-114100
X104150Y-118350
X104150Y-134100
X124150Y-38350
X124150Y-54100
X124150Y-58350
X124150Y-74100
X124150Y-78350
X124150Y-94100
X124150Y-98350
X124150Y-114100
X124150Y-118350
X124150Y-134100
T4
X55500Y-42000
X55500Y-44500
X55500Y-62000
X55500Y-64500
X55500Y-82000
X55500Y-84500
X55500Y-102000
X55500Y-104500
X55500Y-122000
X55500Y-124500
X105500Y-42000
X105500Y-44500
X105500Y-62000
X105500Y-64500
X105500Y-82000
X105500Y-84500
X105500Y-102000
X105500Y-104500
X105500Y-122000
X105500Y-124500
T0
M30
