%TF.GenerationSoftware,KiCad,Pcbnew,(5.1.9)-1*%
%TF.CreationDate,2021-04-05T17:54:04+02:00*%
%TF.ProjectId,IM350_AM550_multi,494d3335-305f-4414-9d35-35305f6d756c,rev?*%
%TF.SameCoordinates,Original*%
%TF.FileFunction,Paste,Top*%
%TF.FilePolarity,Positive*%
%FSLAX46Y46*%
G04 Gerber Fmt 4.6, Leading zero omitted, Abs format (unit mm)*
G04 Created by KiCad (PCBNEW (5.1.9)-1) date 2021-04-05 17:54:04*
%MOMM*%
%LPD*%
G01*
G04 APERTURE LIST*
%ADD10R,2.500000X1.000000*%
%ADD11R,1.000000X1.800000*%
%ADD12R,1.500000X1.500000*%
%ADD13R,0.800000X1.300000*%
%ADD14R,1.000000X2.500000*%
%ADD15R,1.800000X1.000000*%
%ADD16R,1.300000X0.800000*%
G04 APERTURE END LIST*
%TO.C,R2*%
G36*
G01*
X130200000Y-76950001D02*
X130200000Y-76049999D01*
G75*
G02*
X130449999Y-75800000I249999J0D01*
G01*
X131150001Y-75800000D01*
G75*
G02*
X131400000Y-76049999I0J-249999D01*
G01*
X131400000Y-76950001D01*
G75*
G02*
X131150001Y-77200000I-249999J0D01*
G01*
X130449999Y-77200000D01*
G75*
G02*
X130200000Y-76950001I0J249999D01*
G01*
G37*
G36*
G01*
X128200000Y-76950001D02*
X128200000Y-76049999D01*
G75*
G02*
X128449999Y-75800000I249999J0D01*
G01*
X129150001Y-75800000D01*
G75*
G02*
X129400000Y-76049999I0J-249999D01*
G01*
X129400000Y-76950001D01*
G75*
G02*
X129150001Y-77200000I-249999J0D01*
G01*
X128449999Y-77200000D01*
G75*
G02*
X128200000Y-76950001I0J249999D01*
G01*
G37*
%TD*%
D10*
%TO.C,U2*%
X121200000Y-44500000D03*
X121200000Y-46500000D03*
X121200000Y-48500000D03*
X121200000Y-50500000D03*
X121200000Y-52500000D03*
X121200000Y-54500000D03*
X121200000Y-56500000D03*
X121200000Y-58500000D03*
D11*
X123800000Y-60000000D03*
X125800000Y-60000000D03*
X127800000Y-60000000D03*
X129800000Y-60000000D03*
X131800000Y-60000000D03*
X133800000Y-60000000D03*
D10*
X136400000Y-58500000D03*
X136400000Y-56500000D03*
X136400000Y-54500000D03*
X136400000Y-52500000D03*
X136400000Y-50500000D03*
X136400000Y-48500000D03*
X136400000Y-46500000D03*
X136400000Y-44500000D03*
%TD*%
%TO.C,R6*%
G36*
G01*
X136460000Y-99260000D02*
X136140000Y-99260000D01*
G75*
G02*
X135980000Y-99100000I0J160000D01*
G01*
X135980000Y-98705000D01*
G75*
G02*
X136140000Y-98545000I160000J0D01*
G01*
X136460000Y-98545000D01*
G75*
G02*
X136620000Y-98705000I0J-160000D01*
G01*
X136620000Y-99100000D01*
G75*
G02*
X136460000Y-99260000I-160000J0D01*
G01*
G37*
G36*
G01*
X136460000Y-100455000D02*
X136140000Y-100455000D01*
G75*
G02*
X135980000Y-100295000I0J160000D01*
G01*
X135980000Y-99900000D01*
G75*
G02*
X136140000Y-99740000I160000J0D01*
G01*
X136460000Y-99740000D01*
G75*
G02*
X136620000Y-99900000I0J-160000D01*
G01*
X136620000Y-100295000D01*
G75*
G02*
X136460000Y-100455000I-160000J0D01*
G01*
G37*
%TD*%
%TO.C,R3*%
G36*
G01*
X136140000Y-95240000D02*
X136460000Y-95240000D01*
G75*
G02*
X136620000Y-95400000I0J-160000D01*
G01*
X136620000Y-95795000D01*
G75*
G02*
X136460000Y-95955000I-160000J0D01*
G01*
X136140000Y-95955000D01*
G75*
G02*
X135980000Y-95795000I0J160000D01*
G01*
X135980000Y-95400000D01*
G75*
G02*
X136140000Y-95240000I160000J0D01*
G01*
G37*
G36*
G01*
X136140000Y-94045000D02*
X136460000Y-94045000D01*
G75*
G02*
X136620000Y-94205000I0J-160000D01*
G01*
X136620000Y-94600000D01*
G75*
G02*
X136460000Y-94760000I-160000J0D01*
G01*
X136140000Y-94760000D01*
G75*
G02*
X135980000Y-94600000I0J160000D01*
G01*
X135980000Y-94205000D01*
G75*
G02*
X136140000Y-94045000I160000J0D01*
G01*
G37*
%TD*%
%TO.C,R1*%
G36*
G01*
X131400000Y-71549999D02*
X131400000Y-72450001D01*
G75*
G02*
X131150001Y-72700000I-249999J0D01*
G01*
X130449999Y-72700000D01*
G75*
G02*
X130200000Y-72450001I0J249999D01*
G01*
X130200000Y-71549999D01*
G75*
G02*
X130449999Y-71300000I249999J0D01*
G01*
X131150001Y-71300000D01*
G75*
G02*
X131400000Y-71549999I0J-249999D01*
G01*
G37*
G36*
G01*
X129400000Y-71549999D02*
X129400000Y-72450001D01*
G75*
G02*
X129150001Y-72700000I-249999J0D01*
G01*
X128449999Y-72700000D01*
G75*
G02*
X128200000Y-72450001I0J249999D01*
G01*
X128200000Y-71549999D01*
G75*
G02*
X128449999Y-71300000I249999J0D01*
G01*
X129150001Y-71300000D01*
G75*
G02*
X129400000Y-71549999I0J-249999D01*
G01*
G37*
%TD*%
%TO.C,R5*%
G36*
G01*
X123900000Y-63549999D02*
X123900000Y-64450001D01*
G75*
G02*
X123650001Y-64700000I-249999J0D01*
G01*
X122949999Y-64700000D01*
G75*
G02*
X122700000Y-64450001I0J249999D01*
G01*
X122700000Y-63549999D01*
G75*
G02*
X122949999Y-63300000I249999J0D01*
G01*
X123650001Y-63300000D01*
G75*
G02*
X123900000Y-63549999I0J-249999D01*
G01*
G37*
G36*
G01*
X125900000Y-63549999D02*
X125900000Y-64450001D01*
G75*
G02*
X125650001Y-64700000I-249999J0D01*
G01*
X124949999Y-64700000D01*
G75*
G02*
X124700000Y-64450001I0J249999D01*
G01*
X124700000Y-63549999D01*
G75*
G02*
X124949999Y-63300000I249999J0D01*
G01*
X125650001Y-63300000D01*
G75*
G02*
X125900000Y-63549999I0J-249999D01*
G01*
G37*
%TD*%
D12*
%TO.C,SW1*%
X121000000Y-67850000D03*
X121000000Y-75650000D03*
%TD*%
%TO.C,R4*%
G36*
G01*
X128200000Y-64450001D02*
X128200000Y-63549999D01*
G75*
G02*
X128449999Y-63300000I249999J0D01*
G01*
X129150001Y-63300000D01*
G75*
G02*
X129400000Y-63549999I0J-249999D01*
G01*
X129400000Y-64450001D01*
G75*
G02*
X129150001Y-64700000I-249999J0D01*
G01*
X128449999Y-64700000D01*
G75*
G02*
X128200000Y-64450001I0J249999D01*
G01*
G37*
G36*
G01*
X130200000Y-64450001D02*
X130200000Y-63549999D01*
G75*
G02*
X130449999Y-63300000I249999J0D01*
G01*
X131150001Y-63300000D01*
G75*
G02*
X131400000Y-63549999I0J-249999D01*
G01*
X131400000Y-64450001D01*
G75*
G02*
X131150001Y-64700000I-249999J0D01*
G01*
X130449999Y-64700000D01*
G75*
G02*
X130200000Y-64450001I0J249999D01*
G01*
G37*
%TD*%
D13*
%TO.C,U1*%
X126250000Y-84800000D03*
X124350000Y-84800000D03*
X125300000Y-87200000D03*
%TD*%
%TO.C,C2*%
G36*
G01*
X131950001Y-88225000D02*
X130649999Y-88225000D01*
G75*
G02*
X130400000Y-87975001I0J249999D01*
G01*
X130400000Y-87149999D01*
G75*
G02*
X130649999Y-86900000I249999J0D01*
G01*
X131950001Y-86900000D01*
G75*
G02*
X132200000Y-87149999I0J-249999D01*
G01*
X132200000Y-87975001D01*
G75*
G02*
X131950001Y-88225000I-249999J0D01*
G01*
G37*
G36*
G01*
X131950001Y-85100000D02*
X130649999Y-85100000D01*
G75*
G02*
X130400000Y-84850001I0J249999D01*
G01*
X130400000Y-84024999D01*
G75*
G02*
X130649999Y-83775000I249999J0D01*
G01*
X131950001Y-83775000D01*
G75*
G02*
X132200000Y-84024999I0J-249999D01*
G01*
X132200000Y-84850001D01*
G75*
G02*
X131950001Y-85100000I-249999J0D01*
G01*
G37*
%TD*%
%TO.C,R6*%
G36*
G01*
X110455000Y-95540000D02*
X110455000Y-95860000D01*
G75*
G02*
X110295000Y-96020000I-160000J0D01*
G01*
X109900000Y-96020000D01*
G75*
G02*
X109740000Y-95860000I0J160000D01*
G01*
X109740000Y-95540000D01*
G75*
G02*
X109900000Y-95380000I160000J0D01*
G01*
X110295000Y-95380000D01*
G75*
G02*
X110455000Y-95540000I0J-160000D01*
G01*
G37*
G36*
G01*
X109260000Y-95540000D02*
X109260000Y-95860000D01*
G75*
G02*
X109100000Y-96020000I-160000J0D01*
G01*
X108705000Y-96020000D01*
G75*
G02*
X108545000Y-95860000I0J160000D01*
G01*
X108545000Y-95540000D01*
G75*
G02*
X108705000Y-95380000I160000J0D01*
G01*
X109100000Y-95380000D01*
G75*
G02*
X109260000Y-95540000I0J-160000D01*
G01*
G37*
%TD*%
%TO.C,R2*%
G36*
G01*
X86950001Y-103800000D02*
X86049999Y-103800000D01*
G75*
G02*
X85800000Y-103550001I0J249999D01*
G01*
X85800000Y-102849999D01*
G75*
G02*
X86049999Y-102600000I249999J0D01*
G01*
X86950001Y-102600000D01*
G75*
G02*
X87200000Y-102849999I0J-249999D01*
G01*
X87200000Y-103550001D01*
G75*
G02*
X86950001Y-103800000I-249999J0D01*
G01*
G37*
G36*
G01*
X86950001Y-101800000D02*
X86049999Y-101800000D01*
G75*
G02*
X85800000Y-101550001I0J249999D01*
G01*
X85800000Y-100849999D01*
G75*
G02*
X86049999Y-100600000I249999J0D01*
G01*
X86950001Y-100600000D01*
G75*
G02*
X87200000Y-100849999I0J-249999D01*
G01*
X87200000Y-101550001D01*
G75*
G02*
X86950001Y-101800000I-249999J0D01*
G01*
G37*
%TD*%
%TO.C,R3*%
G36*
G01*
X104045000Y-95860000D02*
X104045000Y-95540000D01*
G75*
G02*
X104205000Y-95380000I160000J0D01*
G01*
X104600000Y-95380000D01*
G75*
G02*
X104760000Y-95540000I0J-160000D01*
G01*
X104760000Y-95860000D01*
G75*
G02*
X104600000Y-96020000I-160000J0D01*
G01*
X104205000Y-96020000D01*
G75*
G02*
X104045000Y-95860000I0J160000D01*
G01*
G37*
G36*
G01*
X105240000Y-95860000D02*
X105240000Y-95540000D01*
G75*
G02*
X105400000Y-95380000I160000J0D01*
G01*
X105795000Y-95380000D01*
G75*
G02*
X105955000Y-95540000I0J-160000D01*
G01*
X105955000Y-95860000D01*
G75*
G02*
X105795000Y-96020000I-160000J0D01*
G01*
X105400000Y-96020000D01*
G75*
G02*
X105240000Y-95860000I0J160000D01*
G01*
G37*
%TD*%
D14*
%TO.C,U2*%
X54500000Y-95600000D03*
X56500000Y-95600000D03*
X58500000Y-95600000D03*
X60500000Y-95600000D03*
X62500000Y-95600000D03*
X64500000Y-95600000D03*
X66500000Y-95600000D03*
X68500000Y-95600000D03*
D15*
X70000000Y-98200000D03*
X70000000Y-100200000D03*
X70000000Y-102200000D03*
X70000000Y-104200000D03*
X70000000Y-106200000D03*
X70000000Y-108200000D03*
D14*
X68500000Y-110800000D03*
X66500000Y-110800000D03*
X64500000Y-110800000D03*
X62500000Y-110800000D03*
X60500000Y-110800000D03*
X58500000Y-110800000D03*
X56500000Y-110800000D03*
X54500000Y-110800000D03*
%TD*%
%TO.C,R4*%
G36*
G01*
X74450001Y-101800000D02*
X73549999Y-101800000D01*
G75*
G02*
X73300000Y-101550001I0J249999D01*
G01*
X73300000Y-100849999D01*
G75*
G02*
X73549999Y-100600000I249999J0D01*
G01*
X74450001Y-100600000D01*
G75*
G02*
X74700000Y-100849999I0J-249999D01*
G01*
X74700000Y-101550001D01*
G75*
G02*
X74450001Y-101800000I-249999J0D01*
G01*
G37*
G36*
G01*
X74450001Y-103800000D02*
X73549999Y-103800000D01*
G75*
G02*
X73300000Y-103550001I0J249999D01*
G01*
X73300000Y-102849999D01*
G75*
G02*
X73549999Y-102600000I249999J0D01*
G01*
X74450001Y-102600000D01*
G75*
G02*
X74700000Y-102849999I0J-249999D01*
G01*
X74700000Y-103550001D01*
G75*
G02*
X74450001Y-103800000I-249999J0D01*
G01*
G37*
%TD*%
%TO.C,R1*%
G36*
G01*
X81549999Y-102600000D02*
X82450001Y-102600000D01*
G75*
G02*
X82700000Y-102849999I0J-249999D01*
G01*
X82700000Y-103550001D01*
G75*
G02*
X82450001Y-103800000I-249999J0D01*
G01*
X81549999Y-103800000D01*
G75*
G02*
X81300000Y-103550001I0J249999D01*
G01*
X81300000Y-102849999D01*
G75*
G02*
X81549999Y-102600000I249999J0D01*
G01*
G37*
G36*
G01*
X81549999Y-100600000D02*
X82450001Y-100600000D01*
G75*
G02*
X82700000Y-100849999I0J-249999D01*
G01*
X82700000Y-101550001D01*
G75*
G02*
X82450001Y-101800000I-249999J0D01*
G01*
X81549999Y-101800000D01*
G75*
G02*
X81300000Y-101550001I0J249999D01*
G01*
X81300000Y-100849999D01*
G75*
G02*
X81549999Y-100600000I249999J0D01*
G01*
G37*
%TD*%
%TO.C,C2*%
G36*
G01*
X95100000Y-100049999D02*
X95100000Y-101350001D01*
G75*
G02*
X94850001Y-101600000I-249999J0D01*
G01*
X94024999Y-101600000D01*
G75*
G02*
X93775000Y-101350001I0J249999D01*
G01*
X93775000Y-100049999D01*
G75*
G02*
X94024999Y-99800000I249999J0D01*
G01*
X94850001Y-99800000D01*
G75*
G02*
X95100000Y-100049999I0J-249999D01*
G01*
G37*
G36*
G01*
X98225000Y-100049999D02*
X98225000Y-101350001D01*
G75*
G02*
X97975001Y-101600000I-249999J0D01*
G01*
X97149999Y-101600000D01*
G75*
G02*
X96900000Y-101350001I0J249999D01*
G01*
X96900000Y-100049999D01*
G75*
G02*
X97149999Y-99800000I249999J0D01*
G01*
X97975001Y-99800000D01*
G75*
G02*
X98225000Y-100049999I0J-249999D01*
G01*
G37*
%TD*%
D16*
%TO.C,U1*%
X97200000Y-106700000D03*
X94800000Y-107650000D03*
X94800000Y-105750000D03*
%TD*%
%TO.C,R5*%
G36*
G01*
X73549999Y-106100000D02*
X74450001Y-106100000D01*
G75*
G02*
X74700000Y-106349999I0J-249999D01*
G01*
X74700000Y-107050001D01*
G75*
G02*
X74450001Y-107300000I-249999J0D01*
G01*
X73549999Y-107300000D01*
G75*
G02*
X73300000Y-107050001I0J249999D01*
G01*
X73300000Y-106349999D01*
G75*
G02*
X73549999Y-106100000I249999J0D01*
G01*
G37*
G36*
G01*
X73549999Y-108100000D02*
X74450001Y-108100000D01*
G75*
G02*
X74700000Y-108349999I0J-249999D01*
G01*
X74700000Y-109050001D01*
G75*
G02*
X74450001Y-109300000I-249999J0D01*
G01*
X73549999Y-109300000D01*
G75*
G02*
X73300000Y-109050001I0J249999D01*
G01*
X73300000Y-108349999D01*
G75*
G02*
X73549999Y-108100000I249999J0D01*
G01*
G37*
%TD*%
D12*
%TO.C,SW1*%
X85650000Y-111000000D03*
X77850000Y-111000000D03*
%TD*%
%TO.C,R3*%
G36*
G01*
X105240000Y-74860000D02*
X105240000Y-74540000D01*
G75*
G02*
X105400000Y-74380000I160000J0D01*
G01*
X105795000Y-74380000D01*
G75*
G02*
X105955000Y-74540000I0J-160000D01*
G01*
X105955000Y-74860000D01*
G75*
G02*
X105795000Y-75020000I-160000J0D01*
G01*
X105400000Y-75020000D01*
G75*
G02*
X105240000Y-74860000I0J160000D01*
G01*
G37*
G36*
G01*
X104045000Y-74860000D02*
X104045000Y-74540000D01*
G75*
G02*
X104205000Y-74380000I160000J0D01*
G01*
X104600000Y-74380000D01*
G75*
G02*
X104760000Y-74540000I0J-160000D01*
G01*
X104760000Y-74860000D01*
G75*
G02*
X104600000Y-75020000I-160000J0D01*
G01*
X104205000Y-75020000D01*
G75*
G02*
X104045000Y-74860000I0J160000D01*
G01*
G37*
%TD*%
%TO.C,R6*%
G36*
G01*
X109260000Y-74540000D02*
X109260000Y-74860000D01*
G75*
G02*
X109100000Y-75020000I-160000J0D01*
G01*
X108705000Y-75020000D01*
G75*
G02*
X108545000Y-74860000I0J160000D01*
G01*
X108545000Y-74540000D01*
G75*
G02*
X108705000Y-74380000I160000J0D01*
G01*
X109100000Y-74380000D01*
G75*
G02*
X109260000Y-74540000I0J-160000D01*
G01*
G37*
G36*
G01*
X110455000Y-74540000D02*
X110455000Y-74860000D01*
G75*
G02*
X110295000Y-75020000I-160000J0D01*
G01*
X109900000Y-75020000D01*
G75*
G02*
X109740000Y-74860000I0J160000D01*
G01*
X109740000Y-74540000D01*
G75*
G02*
X109900000Y-74380000I160000J0D01*
G01*
X110295000Y-74380000D01*
G75*
G02*
X110455000Y-74540000I0J-160000D01*
G01*
G37*
%TD*%
%TO.C,R2*%
G36*
G01*
X86950001Y-80800000D02*
X86049999Y-80800000D01*
G75*
G02*
X85800000Y-80550001I0J249999D01*
G01*
X85800000Y-79849999D01*
G75*
G02*
X86049999Y-79600000I249999J0D01*
G01*
X86950001Y-79600000D01*
G75*
G02*
X87200000Y-79849999I0J-249999D01*
G01*
X87200000Y-80550001D01*
G75*
G02*
X86950001Y-80800000I-249999J0D01*
G01*
G37*
G36*
G01*
X86950001Y-82800000D02*
X86049999Y-82800000D01*
G75*
G02*
X85800000Y-82550001I0J249999D01*
G01*
X85800000Y-81849999D01*
G75*
G02*
X86049999Y-81600000I249999J0D01*
G01*
X86950001Y-81600000D01*
G75*
G02*
X87200000Y-81849999I0J-249999D01*
G01*
X87200000Y-82550001D01*
G75*
G02*
X86950001Y-82800000I-249999J0D01*
G01*
G37*
%TD*%
%TO.C,C2*%
G36*
G01*
X98225000Y-79049999D02*
X98225000Y-80350001D01*
G75*
G02*
X97975001Y-80600000I-249999J0D01*
G01*
X97149999Y-80600000D01*
G75*
G02*
X96900000Y-80350001I0J249999D01*
G01*
X96900000Y-79049999D01*
G75*
G02*
X97149999Y-78800000I249999J0D01*
G01*
X97975001Y-78800000D01*
G75*
G02*
X98225000Y-79049999I0J-249999D01*
G01*
G37*
G36*
G01*
X95100000Y-79049999D02*
X95100000Y-80350001D01*
G75*
G02*
X94850001Y-80600000I-249999J0D01*
G01*
X94024999Y-80600000D01*
G75*
G02*
X93775000Y-80350001I0J249999D01*
G01*
X93775000Y-79049999D01*
G75*
G02*
X94024999Y-78800000I249999J0D01*
G01*
X94850001Y-78800000D01*
G75*
G02*
X95100000Y-79049999I0J-249999D01*
G01*
G37*
%TD*%
%TO.C,R5*%
G36*
G01*
X73549999Y-87100000D02*
X74450001Y-87100000D01*
G75*
G02*
X74700000Y-87349999I0J-249999D01*
G01*
X74700000Y-88050001D01*
G75*
G02*
X74450001Y-88300000I-249999J0D01*
G01*
X73549999Y-88300000D01*
G75*
G02*
X73300000Y-88050001I0J249999D01*
G01*
X73300000Y-87349999D01*
G75*
G02*
X73549999Y-87100000I249999J0D01*
G01*
G37*
G36*
G01*
X73549999Y-85100000D02*
X74450001Y-85100000D01*
G75*
G02*
X74700000Y-85349999I0J-249999D01*
G01*
X74700000Y-86050001D01*
G75*
G02*
X74450001Y-86300000I-249999J0D01*
G01*
X73549999Y-86300000D01*
G75*
G02*
X73300000Y-86050001I0J249999D01*
G01*
X73300000Y-85349999D01*
G75*
G02*
X73549999Y-85100000I249999J0D01*
G01*
G37*
%TD*%
%TO.C,SW1*%
X77850000Y-90000000D03*
X85650000Y-90000000D03*
%TD*%
%TO.C,R4*%
G36*
G01*
X74450001Y-82800000D02*
X73549999Y-82800000D01*
G75*
G02*
X73300000Y-82550001I0J249999D01*
G01*
X73300000Y-81849999D01*
G75*
G02*
X73549999Y-81600000I249999J0D01*
G01*
X74450001Y-81600000D01*
G75*
G02*
X74700000Y-81849999I0J-249999D01*
G01*
X74700000Y-82550001D01*
G75*
G02*
X74450001Y-82800000I-249999J0D01*
G01*
G37*
G36*
G01*
X74450001Y-80800000D02*
X73549999Y-80800000D01*
G75*
G02*
X73300000Y-80550001I0J249999D01*
G01*
X73300000Y-79849999D01*
G75*
G02*
X73549999Y-79600000I249999J0D01*
G01*
X74450001Y-79600000D01*
G75*
G02*
X74700000Y-79849999I0J-249999D01*
G01*
X74700000Y-80550001D01*
G75*
G02*
X74450001Y-80800000I-249999J0D01*
G01*
G37*
%TD*%
D14*
%TO.C,U2*%
X54500000Y-89800000D03*
X56500000Y-89800000D03*
X58500000Y-89800000D03*
X60500000Y-89800000D03*
X62500000Y-89800000D03*
X64500000Y-89800000D03*
X66500000Y-89800000D03*
X68500000Y-89800000D03*
D15*
X70000000Y-87200000D03*
X70000000Y-85200000D03*
X70000000Y-83200000D03*
X70000000Y-81200000D03*
X70000000Y-79200000D03*
X70000000Y-77200000D03*
D14*
X68500000Y-74600000D03*
X66500000Y-74600000D03*
X64500000Y-74600000D03*
X62500000Y-74600000D03*
X60500000Y-74600000D03*
X58500000Y-74600000D03*
X56500000Y-74600000D03*
X54500000Y-74600000D03*
%TD*%
D16*
%TO.C,U1*%
X94800000Y-84750000D03*
X94800000Y-86650000D03*
X97200000Y-85700000D03*
%TD*%
%TO.C,R1*%
G36*
G01*
X81549999Y-79600000D02*
X82450001Y-79600000D01*
G75*
G02*
X82700000Y-79849999I0J-249999D01*
G01*
X82700000Y-80550001D01*
G75*
G02*
X82450001Y-80800000I-249999J0D01*
G01*
X81549999Y-80800000D01*
G75*
G02*
X81300000Y-80550001I0J249999D01*
G01*
X81300000Y-79849999D01*
G75*
G02*
X81549999Y-79600000I249999J0D01*
G01*
G37*
G36*
G01*
X81549999Y-81600000D02*
X82450001Y-81600000D01*
G75*
G02*
X82700000Y-81849999I0J-249999D01*
G01*
X82700000Y-82550001D01*
G75*
G02*
X82450001Y-82800000I-249999J0D01*
G01*
X81549999Y-82800000D01*
G75*
G02*
X81300000Y-82550001I0J249999D01*
G01*
X81300000Y-81849999D01*
G75*
G02*
X81549999Y-81600000I249999J0D01*
G01*
G37*
%TD*%
%TO.C,R5*%
G36*
G01*
X73549999Y-64100000D02*
X74450001Y-64100000D01*
G75*
G02*
X74700000Y-64349999I0J-249999D01*
G01*
X74700000Y-65050001D01*
G75*
G02*
X74450001Y-65300000I-249999J0D01*
G01*
X73549999Y-65300000D01*
G75*
G02*
X73300000Y-65050001I0J249999D01*
G01*
X73300000Y-64349999D01*
G75*
G02*
X73549999Y-64100000I249999J0D01*
G01*
G37*
G36*
G01*
X73549999Y-66100000D02*
X74450001Y-66100000D01*
G75*
G02*
X74700000Y-66349999I0J-249999D01*
G01*
X74700000Y-67050001D01*
G75*
G02*
X74450001Y-67300000I-249999J0D01*
G01*
X73549999Y-67300000D01*
G75*
G02*
X73300000Y-67050001I0J249999D01*
G01*
X73300000Y-66349999D01*
G75*
G02*
X73549999Y-66100000I249999J0D01*
G01*
G37*
%TD*%
%TO.C,U1*%
X97200000Y-64700000D03*
X94800000Y-65650000D03*
X94800000Y-63750000D03*
%TD*%
D14*
%TO.C,U2*%
X54500000Y-53600000D03*
X56500000Y-53600000D03*
X58500000Y-53600000D03*
X60500000Y-53600000D03*
X62500000Y-53600000D03*
X64500000Y-53600000D03*
X66500000Y-53600000D03*
X68500000Y-53600000D03*
D15*
X70000000Y-56200000D03*
X70000000Y-58200000D03*
X70000000Y-60200000D03*
X70000000Y-62200000D03*
X70000000Y-64200000D03*
X70000000Y-66200000D03*
D14*
X68500000Y-68800000D03*
X66500000Y-68800000D03*
X64500000Y-68800000D03*
X62500000Y-68800000D03*
X60500000Y-68800000D03*
X58500000Y-68800000D03*
X56500000Y-68800000D03*
X54500000Y-68800000D03*
%TD*%
%TO.C,R4*%
G36*
G01*
X74450001Y-59800000D02*
X73549999Y-59800000D01*
G75*
G02*
X73300000Y-59550001I0J249999D01*
G01*
X73300000Y-58849999D01*
G75*
G02*
X73549999Y-58600000I249999J0D01*
G01*
X74450001Y-58600000D01*
G75*
G02*
X74700000Y-58849999I0J-249999D01*
G01*
X74700000Y-59550001D01*
G75*
G02*
X74450001Y-59800000I-249999J0D01*
G01*
G37*
G36*
G01*
X74450001Y-61800000D02*
X73549999Y-61800000D01*
G75*
G02*
X73300000Y-61550001I0J249999D01*
G01*
X73300000Y-60849999D01*
G75*
G02*
X73549999Y-60600000I249999J0D01*
G01*
X74450001Y-60600000D01*
G75*
G02*
X74700000Y-60849999I0J-249999D01*
G01*
X74700000Y-61550001D01*
G75*
G02*
X74450001Y-61800000I-249999J0D01*
G01*
G37*
%TD*%
D12*
%TO.C,SW1*%
X85650000Y-69000000D03*
X77850000Y-69000000D03*
%TD*%
%TO.C,R1*%
G36*
G01*
X81549999Y-60600000D02*
X82450001Y-60600000D01*
G75*
G02*
X82700000Y-60849999I0J-249999D01*
G01*
X82700000Y-61550001D01*
G75*
G02*
X82450001Y-61800000I-249999J0D01*
G01*
X81549999Y-61800000D01*
G75*
G02*
X81300000Y-61550001I0J249999D01*
G01*
X81300000Y-60849999D01*
G75*
G02*
X81549999Y-60600000I249999J0D01*
G01*
G37*
G36*
G01*
X81549999Y-58600000D02*
X82450001Y-58600000D01*
G75*
G02*
X82700000Y-58849999I0J-249999D01*
G01*
X82700000Y-59550001D01*
G75*
G02*
X82450001Y-59800000I-249999J0D01*
G01*
X81549999Y-59800000D01*
G75*
G02*
X81300000Y-59550001I0J249999D01*
G01*
X81300000Y-58849999D01*
G75*
G02*
X81549999Y-58600000I249999J0D01*
G01*
G37*
%TD*%
%TO.C,R3*%
G36*
G01*
X104045000Y-53860000D02*
X104045000Y-53540000D01*
G75*
G02*
X104205000Y-53380000I160000J0D01*
G01*
X104600000Y-53380000D01*
G75*
G02*
X104760000Y-53540000I0J-160000D01*
G01*
X104760000Y-53860000D01*
G75*
G02*
X104600000Y-54020000I-160000J0D01*
G01*
X104205000Y-54020000D01*
G75*
G02*
X104045000Y-53860000I0J160000D01*
G01*
G37*
G36*
G01*
X105240000Y-53860000D02*
X105240000Y-53540000D01*
G75*
G02*
X105400000Y-53380000I160000J0D01*
G01*
X105795000Y-53380000D01*
G75*
G02*
X105955000Y-53540000I0J-160000D01*
G01*
X105955000Y-53860000D01*
G75*
G02*
X105795000Y-54020000I-160000J0D01*
G01*
X105400000Y-54020000D01*
G75*
G02*
X105240000Y-53860000I0J160000D01*
G01*
G37*
%TD*%
%TO.C,C2*%
G36*
G01*
X95100000Y-58049999D02*
X95100000Y-59350001D01*
G75*
G02*
X94850001Y-59600000I-249999J0D01*
G01*
X94024999Y-59600000D01*
G75*
G02*
X93775000Y-59350001I0J249999D01*
G01*
X93775000Y-58049999D01*
G75*
G02*
X94024999Y-57800000I249999J0D01*
G01*
X94850001Y-57800000D01*
G75*
G02*
X95100000Y-58049999I0J-249999D01*
G01*
G37*
G36*
G01*
X98225000Y-58049999D02*
X98225000Y-59350001D01*
G75*
G02*
X97975001Y-59600000I-249999J0D01*
G01*
X97149999Y-59600000D01*
G75*
G02*
X96900000Y-59350001I0J249999D01*
G01*
X96900000Y-58049999D01*
G75*
G02*
X97149999Y-57800000I249999J0D01*
G01*
X97975001Y-57800000D01*
G75*
G02*
X98225000Y-58049999I0J-249999D01*
G01*
G37*
%TD*%
%TO.C,R6*%
G36*
G01*
X110455000Y-53540000D02*
X110455000Y-53860000D01*
G75*
G02*
X110295000Y-54020000I-160000J0D01*
G01*
X109900000Y-54020000D01*
G75*
G02*
X109740000Y-53860000I0J160000D01*
G01*
X109740000Y-53540000D01*
G75*
G02*
X109900000Y-53380000I160000J0D01*
G01*
X110295000Y-53380000D01*
G75*
G02*
X110455000Y-53540000I0J-160000D01*
G01*
G37*
G36*
G01*
X109260000Y-53540000D02*
X109260000Y-53860000D01*
G75*
G02*
X109100000Y-54020000I-160000J0D01*
G01*
X108705000Y-54020000D01*
G75*
G02*
X108545000Y-53860000I0J160000D01*
G01*
X108545000Y-53540000D01*
G75*
G02*
X108705000Y-53380000I160000J0D01*
G01*
X109100000Y-53380000D01*
G75*
G02*
X109260000Y-53540000I0J-160000D01*
G01*
G37*
%TD*%
%TO.C,R2*%
G36*
G01*
X86950001Y-61800000D02*
X86049999Y-61800000D01*
G75*
G02*
X85800000Y-61550001I0J249999D01*
G01*
X85800000Y-60849999D01*
G75*
G02*
X86049999Y-60600000I249999J0D01*
G01*
X86950001Y-60600000D01*
G75*
G02*
X87200000Y-60849999I0J-249999D01*
G01*
X87200000Y-61550001D01*
G75*
G02*
X86950001Y-61800000I-249999J0D01*
G01*
G37*
G36*
G01*
X86950001Y-59800000D02*
X86049999Y-59800000D01*
G75*
G02*
X85800000Y-59550001I0J249999D01*
G01*
X85800000Y-58849999D01*
G75*
G02*
X86049999Y-58600000I249999J0D01*
G01*
X86950001Y-58600000D01*
G75*
G02*
X87200000Y-58849999I0J-249999D01*
G01*
X87200000Y-59550001D01*
G75*
G02*
X86950001Y-59800000I-249999J0D01*
G01*
G37*
%TD*%
%TO.C,R6*%
G36*
G01*
X109260000Y-32540000D02*
X109260000Y-32860000D01*
G75*
G02*
X109100000Y-33020000I-160000J0D01*
G01*
X108705000Y-33020000D01*
G75*
G02*
X108545000Y-32860000I0J160000D01*
G01*
X108545000Y-32540000D01*
G75*
G02*
X108705000Y-32380000I160000J0D01*
G01*
X109100000Y-32380000D01*
G75*
G02*
X109260000Y-32540000I0J-160000D01*
G01*
G37*
G36*
G01*
X110455000Y-32540000D02*
X110455000Y-32860000D01*
G75*
G02*
X110295000Y-33020000I-160000J0D01*
G01*
X109900000Y-33020000D01*
G75*
G02*
X109740000Y-32860000I0J160000D01*
G01*
X109740000Y-32540000D01*
G75*
G02*
X109900000Y-32380000I160000J0D01*
G01*
X110295000Y-32380000D01*
G75*
G02*
X110455000Y-32540000I0J-160000D01*
G01*
G37*
%TD*%
%TO.C,R3*%
G36*
G01*
X105240000Y-32860000D02*
X105240000Y-32540000D01*
G75*
G02*
X105400000Y-32380000I160000J0D01*
G01*
X105795000Y-32380000D01*
G75*
G02*
X105955000Y-32540000I0J-160000D01*
G01*
X105955000Y-32860000D01*
G75*
G02*
X105795000Y-33020000I-160000J0D01*
G01*
X105400000Y-33020000D01*
G75*
G02*
X105240000Y-32860000I0J160000D01*
G01*
G37*
G36*
G01*
X104045000Y-32860000D02*
X104045000Y-32540000D01*
G75*
G02*
X104205000Y-32380000I160000J0D01*
G01*
X104600000Y-32380000D01*
G75*
G02*
X104760000Y-32540000I0J-160000D01*
G01*
X104760000Y-32860000D01*
G75*
G02*
X104600000Y-33020000I-160000J0D01*
G01*
X104205000Y-33020000D01*
G75*
G02*
X104045000Y-32860000I0J160000D01*
G01*
G37*
%TD*%
%TO.C,C2*%
G36*
G01*
X98225000Y-37049999D02*
X98225000Y-38350001D01*
G75*
G02*
X97975001Y-38600000I-249999J0D01*
G01*
X97149999Y-38600000D01*
G75*
G02*
X96900000Y-38350001I0J249999D01*
G01*
X96900000Y-37049999D01*
G75*
G02*
X97149999Y-36800000I249999J0D01*
G01*
X97975001Y-36800000D01*
G75*
G02*
X98225000Y-37049999I0J-249999D01*
G01*
G37*
G36*
G01*
X95100000Y-37049999D02*
X95100000Y-38350001D01*
G75*
G02*
X94850001Y-38600000I-249999J0D01*
G01*
X94024999Y-38600000D01*
G75*
G02*
X93775000Y-38350001I0J249999D01*
G01*
X93775000Y-37049999D01*
G75*
G02*
X94024999Y-36800000I249999J0D01*
G01*
X94850001Y-36800000D01*
G75*
G02*
X95100000Y-37049999I0J-249999D01*
G01*
G37*
%TD*%
%TO.C,R1*%
G36*
G01*
X81549999Y-37600000D02*
X82450001Y-37600000D01*
G75*
G02*
X82700000Y-37849999I0J-249999D01*
G01*
X82700000Y-38550001D01*
G75*
G02*
X82450001Y-38800000I-249999J0D01*
G01*
X81549999Y-38800000D01*
G75*
G02*
X81300000Y-38550001I0J249999D01*
G01*
X81300000Y-37849999D01*
G75*
G02*
X81549999Y-37600000I249999J0D01*
G01*
G37*
G36*
G01*
X81549999Y-39600000D02*
X82450001Y-39600000D01*
G75*
G02*
X82700000Y-39849999I0J-249999D01*
G01*
X82700000Y-40550001D01*
G75*
G02*
X82450001Y-40800000I-249999J0D01*
G01*
X81549999Y-40800000D01*
G75*
G02*
X81300000Y-40550001I0J249999D01*
G01*
X81300000Y-39849999D01*
G75*
G02*
X81549999Y-39600000I249999J0D01*
G01*
G37*
%TD*%
%TO.C,R2*%
G36*
G01*
X86950001Y-38800000D02*
X86049999Y-38800000D01*
G75*
G02*
X85800000Y-38550001I0J249999D01*
G01*
X85800000Y-37849999D01*
G75*
G02*
X86049999Y-37600000I249999J0D01*
G01*
X86950001Y-37600000D01*
G75*
G02*
X87200000Y-37849999I0J-249999D01*
G01*
X87200000Y-38550001D01*
G75*
G02*
X86950001Y-38800000I-249999J0D01*
G01*
G37*
G36*
G01*
X86950001Y-40800000D02*
X86049999Y-40800000D01*
G75*
G02*
X85800000Y-40550001I0J249999D01*
G01*
X85800000Y-39849999D01*
G75*
G02*
X86049999Y-39600000I249999J0D01*
G01*
X86950001Y-39600000D01*
G75*
G02*
X87200000Y-39849999I0J-249999D01*
G01*
X87200000Y-40550001D01*
G75*
G02*
X86950001Y-40800000I-249999J0D01*
G01*
G37*
%TD*%
%TO.C,R4*%
G36*
G01*
X74450001Y-40800000D02*
X73549999Y-40800000D01*
G75*
G02*
X73300000Y-40550001I0J249999D01*
G01*
X73300000Y-39849999D01*
G75*
G02*
X73549999Y-39600000I249999J0D01*
G01*
X74450001Y-39600000D01*
G75*
G02*
X74700000Y-39849999I0J-249999D01*
G01*
X74700000Y-40550001D01*
G75*
G02*
X74450001Y-40800000I-249999J0D01*
G01*
G37*
G36*
G01*
X74450001Y-38800000D02*
X73549999Y-38800000D01*
G75*
G02*
X73300000Y-38550001I0J249999D01*
G01*
X73300000Y-37849999D01*
G75*
G02*
X73549999Y-37600000I249999J0D01*
G01*
X74450001Y-37600000D01*
G75*
G02*
X74700000Y-37849999I0J-249999D01*
G01*
X74700000Y-38550001D01*
G75*
G02*
X74450001Y-38800000I-249999J0D01*
G01*
G37*
%TD*%
%TO.C,R5*%
G36*
G01*
X73549999Y-45100000D02*
X74450001Y-45100000D01*
G75*
G02*
X74700000Y-45349999I0J-249999D01*
G01*
X74700000Y-46050001D01*
G75*
G02*
X74450001Y-46300000I-249999J0D01*
G01*
X73549999Y-46300000D01*
G75*
G02*
X73300000Y-46050001I0J249999D01*
G01*
X73300000Y-45349999D01*
G75*
G02*
X73549999Y-45100000I249999J0D01*
G01*
G37*
G36*
G01*
X73549999Y-43100000D02*
X74450001Y-43100000D01*
G75*
G02*
X74700000Y-43349999I0J-249999D01*
G01*
X74700000Y-44050001D01*
G75*
G02*
X74450001Y-44300000I-249999J0D01*
G01*
X73549999Y-44300000D01*
G75*
G02*
X73300000Y-44050001I0J249999D01*
G01*
X73300000Y-43349999D01*
G75*
G02*
X73549999Y-43100000I249999J0D01*
G01*
G37*
%TD*%
%TO.C,SW1*%
X77850000Y-48000000D03*
X85650000Y-48000000D03*
%TD*%
D16*
%TO.C,U1*%
X94800000Y-42750000D03*
X94800000Y-44650000D03*
X97200000Y-43700000D03*
%TD*%
D14*
%TO.C,U2*%
X54500000Y-47800000D03*
X56500000Y-47800000D03*
X58500000Y-47800000D03*
X60500000Y-47800000D03*
X62500000Y-47800000D03*
X64500000Y-47800000D03*
X66500000Y-47800000D03*
X68500000Y-47800000D03*
D15*
X70000000Y-45200000D03*
X70000000Y-43200000D03*
X70000000Y-41200000D03*
X70000000Y-39200000D03*
X70000000Y-37200000D03*
X70000000Y-35200000D03*
D14*
X68500000Y-32600000D03*
X66500000Y-32600000D03*
X64500000Y-32600000D03*
X62500000Y-32600000D03*
X60500000Y-32600000D03*
X58500000Y-32600000D03*
X56500000Y-32600000D03*
X54500000Y-32600000D03*
%TD*%
M02*
