%TF.GenerationSoftware,KiCad,Pcbnew,(5.1.9)-1*%
%TF.CreationDate,2021-04-05T17:54:05+02:00*%
%TF.ProjectId,IM350_AM550_multi,494d3335-305f-4414-9d35-35305f6d756c,rev?*%
%TF.SameCoordinates,Original*%
%TF.FileFunction,Legend,Bot*%
%TF.FilePolarity,Positive*%
%FSLAX46Y46*%
G04 Gerber Fmt 4.6, Leading zero omitted, Abs format (unit mm)*
G04 Created by KiCad (PCBNEW (5.1.9)-1) date 2021-04-05 17:54:05*
%MOMM*%
%LPD*%
G01*
G04 APERTURE LIST*
%ADD10C,0.120000*%
%ADD11C,0.150000*%
G04 APERTURE END LIST*
D10*
%TO.C,BT1*%
X118395000Y-30000000D02*
X118395000Y-108000000D01*
X118395000Y-108000000D02*
X138495000Y-108000000D01*
X138495000Y-108000000D02*
X138495000Y-30000000D01*
X138495000Y-30000000D02*
X118395000Y-30000000D01*
X40000000Y-93505000D02*
X40000000Y-113605000D01*
X118000000Y-93505000D02*
X40000000Y-93505000D01*
X118000000Y-113605000D02*
X118000000Y-93505000D01*
X40000000Y-113605000D02*
X118000000Y-113605000D01*
X40000000Y-92605000D02*
X118000000Y-92605000D01*
X118000000Y-92605000D02*
X118000000Y-72505000D01*
X118000000Y-72505000D02*
X40000000Y-72505000D01*
X40000000Y-72505000D02*
X40000000Y-92605000D01*
X40000000Y-51505000D02*
X40000000Y-71605000D01*
X118000000Y-51505000D02*
X40000000Y-51505000D01*
X118000000Y-71605000D02*
X118000000Y-51505000D01*
X40000000Y-71605000D02*
X118000000Y-71605000D01*
X40000000Y-50605000D02*
X118000000Y-50605000D01*
X118000000Y-50605000D02*
X118000000Y-30505000D01*
X118000000Y-30505000D02*
X40000000Y-30505000D01*
X40000000Y-30505000D02*
X40000000Y-50605000D01*
D11*
X129373571Y-68214285D02*
X129421190Y-68357142D01*
X129468809Y-68404761D01*
X129564047Y-68452380D01*
X129706904Y-68452380D01*
X129802142Y-68404761D01*
X129849761Y-68357142D01*
X129897380Y-68261904D01*
X129897380Y-67880952D01*
X128897380Y-67880952D01*
X128897380Y-68214285D01*
X128945000Y-68309523D01*
X128992619Y-68357142D01*
X129087857Y-68404761D01*
X129183095Y-68404761D01*
X129278333Y-68357142D01*
X129325952Y-68309523D01*
X129373571Y-68214285D01*
X129373571Y-67880952D01*
X128897380Y-68738095D02*
X128897380Y-69309523D01*
X129897380Y-69023809D02*
X128897380Y-69023809D01*
X129897380Y-70166666D02*
X129897380Y-69595238D01*
X129897380Y-69880952D02*
X128897380Y-69880952D01*
X129040238Y-69785714D01*
X129135476Y-69690476D01*
X129183095Y-69595238D01*
X79785714Y-102483571D02*
X79642857Y-102531190D01*
X79595238Y-102578809D01*
X79547619Y-102674047D01*
X79547619Y-102816904D01*
X79595238Y-102912142D01*
X79642857Y-102959761D01*
X79738095Y-103007380D01*
X80119047Y-103007380D01*
X80119047Y-102007380D01*
X79785714Y-102007380D01*
X79690476Y-102055000D01*
X79642857Y-102102619D01*
X79595238Y-102197857D01*
X79595238Y-102293095D01*
X79642857Y-102388333D01*
X79690476Y-102435952D01*
X79785714Y-102483571D01*
X80119047Y-102483571D01*
X79261904Y-102007380D02*
X78690476Y-102007380D01*
X78976190Y-103007380D02*
X78976190Y-102007380D01*
X77833333Y-103007380D02*
X78404761Y-103007380D01*
X78119047Y-103007380D02*
X78119047Y-102007380D01*
X78214285Y-102150238D01*
X78309523Y-102245476D01*
X78404761Y-102293095D01*
X79785714Y-81483571D02*
X79642857Y-81531190D01*
X79595238Y-81578809D01*
X79547619Y-81674047D01*
X79547619Y-81816904D01*
X79595238Y-81912142D01*
X79642857Y-81959761D01*
X79738095Y-82007380D01*
X80119047Y-82007380D01*
X80119047Y-81007380D01*
X79785714Y-81007380D01*
X79690476Y-81055000D01*
X79642857Y-81102619D01*
X79595238Y-81197857D01*
X79595238Y-81293095D01*
X79642857Y-81388333D01*
X79690476Y-81435952D01*
X79785714Y-81483571D01*
X80119047Y-81483571D01*
X79261904Y-81007380D02*
X78690476Y-81007380D01*
X78976190Y-82007380D02*
X78976190Y-81007380D01*
X77833333Y-82007380D02*
X78404761Y-82007380D01*
X78119047Y-82007380D02*
X78119047Y-81007380D01*
X78214285Y-81150238D01*
X78309523Y-81245476D01*
X78404761Y-81293095D01*
X79785714Y-60483571D02*
X79642857Y-60531190D01*
X79595238Y-60578809D01*
X79547619Y-60674047D01*
X79547619Y-60816904D01*
X79595238Y-60912142D01*
X79642857Y-60959761D01*
X79738095Y-61007380D01*
X80119047Y-61007380D01*
X80119047Y-60007380D01*
X79785714Y-60007380D01*
X79690476Y-60055000D01*
X79642857Y-60102619D01*
X79595238Y-60197857D01*
X79595238Y-60293095D01*
X79642857Y-60388333D01*
X79690476Y-60435952D01*
X79785714Y-60483571D01*
X80119047Y-60483571D01*
X79261904Y-60007380D02*
X78690476Y-60007380D01*
X78976190Y-61007380D02*
X78976190Y-60007380D01*
X77833333Y-61007380D02*
X78404761Y-61007380D01*
X78119047Y-61007380D02*
X78119047Y-60007380D01*
X78214285Y-60150238D01*
X78309523Y-60245476D01*
X78404761Y-60293095D01*
X79785714Y-39483571D02*
X79642857Y-39531190D01*
X79595238Y-39578809D01*
X79547619Y-39674047D01*
X79547619Y-39816904D01*
X79595238Y-39912142D01*
X79642857Y-39959761D01*
X79738095Y-40007380D01*
X80119047Y-40007380D01*
X80119047Y-39007380D01*
X79785714Y-39007380D01*
X79690476Y-39055000D01*
X79642857Y-39102619D01*
X79595238Y-39197857D01*
X79595238Y-39293095D01*
X79642857Y-39388333D01*
X79690476Y-39435952D01*
X79785714Y-39483571D01*
X80119047Y-39483571D01*
X79261904Y-39007380D02*
X78690476Y-39007380D01*
X78976190Y-40007380D02*
X78976190Y-39007380D01*
X77833333Y-40007380D02*
X78404761Y-40007380D01*
X78119047Y-40007380D02*
X78119047Y-39007380D01*
X78214285Y-39150238D01*
X78309523Y-39245476D01*
X78404761Y-39293095D01*
%TD*%
M02*
