%TF.GenerationSoftware,KiCad,Pcbnew,(5.1.9)-1*%
%TF.CreationDate,2021-04-05T17:54:05+02:00*%
%TF.ProjectId,IM350_AM550_multi,494d3335-305f-4414-9d35-35305f6d756c,rev?*%
%TF.SameCoordinates,Original*%
%TF.FileFunction,Soldermask,Bot*%
%TF.FilePolarity,Negative*%
%FSLAX46Y46*%
G04 Gerber Fmt 4.6, Leading zero omitted, Abs format (unit mm)*
G04 Created by KiCad (PCBNEW (5.1.9)-1) date 2021-04-05 17:54:05*
%MOMM*%
%LPD*%
G01*
G04 APERTURE LIST*
%ADD10R,1.520000X1.520000*%
%ADD11C,3.250000*%
%ADD12C,1.520000*%
%ADD13C,3.000000*%
%ADD14R,3.500000X3.500000*%
%ADD15C,3.500000*%
G04 APERTURE END LIST*
D10*
%TO.C,J7*%
X124800000Y-92500000D03*
D11*
X122890000Y-101390000D03*
D12*
X126070000Y-95040000D03*
X127340000Y-92500000D03*
X128610000Y-95040000D03*
X129880000Y-92500000D03*
X131150000Y-95040000D03*
D11*
X133050000Y-101390000D03*
%TD*%
%TO.C,J7*%
X111390000Y-98950000D03*
D12*
X105040000Y-100850000D03*
X102500000Y-102120000D03*
X105040000Y-103390000D03*
X102500000Y-104660000D03*
X105040000Y-105930000D03*
D11*
X111390000Y-109110000D03*
D10*
X102500000Y-107200000D03*
%TD*%
%TO.C,J7*%
X102500000Y-86200000D03*
D11*
X111390000Y-88110000D03*
D12*
X105040000Y-84930000D03*
X102500000Y-83660000D03*
X105040000Y-82390000D03*
X102500000Y-81120000D03*
X105040000Y-79850000D03*
D11*
X111390000Y-77950000D03*
%TD*%
%TO.C,J7*%
X111390000Y-56950000D03*
D12*
X105040000Y-58850000D03*
X102500000Y-60120000D03*
X105040000Y-61390000D03*
X102500000Y-62660000D03*
X105040000Y-63930000D03*
D11*
X111390000Y-67110000D03*
D10*
X102500000Y-65200000D03*
%TD*%
%TO.C,J7*%
X102500000Y-44200000D03*
D11*
X111390000Y-46110000D03*
D12*
X105040000Y-42930000D03*
X102500000Y-41660000D03*
X105040000Y-40390000D03*
X102500000Y-39120000D03*
X105040000Y-37850000D03*
D11*
X111390000Y-35950000D03*
%TD*%
D13*
%TO.C,J1*%
X135300000Y-87500000D03*
%TD*%
%TO.C,J4*%
X135300000Y-75500000D03*
%TD*%
%TO.C,J2*%
X135300000Y-64000000D03*
%TD*%
%TO.C,J6*%
X135300000Y-81500000D03*
%TD*%
%TO.C,J3*%
X135300000Y-69500000D03*
%TD*%
D14*
%TO.C,BT1*%
X128445000Y-33000000D03*
D15*
X128445000Y-105000000D03*
%TD*%
D13*
%TO.C,J4*%
X85500000Y-96700000D03*
%TD*%
%TO.C,J3*%
X79500000Y-96700000D03*
%TD*%
%TO.C,J2*%
X74000000Y-96700000D03*
%TD*%
%TO.C,J1*%
X97500000Y-96700000D03*
%TD*%
%TO.C,J6*%
X91500000Y-96700000D03*
%TD*%
D15*
%TO.C,BT1*%
X115000000Y-103555000D03*
D14*
X43000000Y-103555000D03*
%TD*%
D13*
%TO.C,J4*%
X85500000Y-75700000D03*
%TD*%
%TO.C,J3*%
X79500000Y-75700000D03*
%TD*%
%TO.C,J2*%
X74000000Y-75700000D03*
%TD*%
%TO.C,J1*%
X97500000Y-75700000D03*
%TD*%
D14*
%TO.C,BT1*%
X43000000Y-82555000D03*
D15*
X115000000Y-82555000D03*
%TD*%
D13*
%TO.C,J6*%
X91500000Y-75700000D03*
%TD*%
%TO.C,J6*%
X91500000Y-54700000D03*
%TD*%
%TO.C,J4*%
X85500000Y-54700000D03*
%TD*%
%TO.C,J3*%
X79500000Y-54700000D03*
%TD*%
%TO.C,J2*%
X74000000Y-54700000D03*
%TD*%
%TO.C,J1*%
X97500000Y-54700000D03*
%TD*%
D15*
%TO.C,BT1*%
X115000000Y-61555000D03*
D14*
X43000000Y-61555000D03*
%TD*%
%TO.C,BT1*%
X43000000Y-40555000D03*
D15*
X115000000Y-40555000D03*
%TD*%
D13*
%TO.C,J1*%
X97500000Y-33700000D03*
%TD*%
%TO.C,J2*%
X74000000Y-33700000D03*
%TD*%
%TO.C,J3*%
X79500000Y-33700000D03*
%TD*%
%TO.C,J4*%
X85500000Y-33700000D03*
%TD*%
%TO.C,J6*%
X91500000Y-33700000D03*
%TD*%
M02*
