M48
; DRILL file {KiCad (5.1.9)-1} date 04/05/21 17:54:15
; FORMAT={3:3/ absolute / metric / suppress leading zeros}
; #@! TF.CreationDate,2021-04-05T17:54:15+02:00
; #@! TF.GenerationSoftware,Kicad,Pcbnew,(5.1.9)-1
; #@! TF.FileFunction,Plated,1,2,PTH
FMAT,2
METRIC,TZ
T1C0.400
T2C0.760
T3C1.500
T4C2.000
%
G90
G05
T1
X59507Y-30939
X59507Y-51939
X59507Y-72938
X59507Y-93938
X66932Y-35633
X66932Y-56633
X66932Y-77633
X66932Y-98633
X76570Y-45700
X76570Y-66700
X76570Y-87700
X76570Y-108700
X123300Y-66570
X133367Y-56932
X138062Y-49507
T2
X102500Y-39120
X102500Y-41660
X102500Y-44200
X102500Y-60120
X102500Y-62660
X102500Y-65200
X102500Y-81120
X102500Y-83660
X102500Y-86200
X102500Y-102120
X102500Y-104660
X102500Y-107200
X105040Y-37850
X105040Y-40390
X105040Y-42930
X105040Y-58850
X105040Y-61390
X105040Y-63930
X105040Y-79850
X105040Y-82390
X105040Y-84930
X105040Y-100850
X105040Y-103390
X105040Y-105930
X124800Y-92500
X126070Y-95040
X127340Y-92500
X128610Y-95040
X129880Y-92500
X131150Y-95040
T3
X74000Y-33700
X74000Y-54700
X74000Y-75700
X74000Y-96700
X79500Y-33700
X79500Y-54700
X79500Y-75700
X79500Y-96700
X85500Y-33700
X85500Y-54700
X85500Y-75700
X85500Y-96700
X91500Y-33700
X91500Y-54700
X91500Y-75700
X91500Y-96700
X97500Y-33700
X97500Y-54700
X97500Y-75700
X97500Y-96700
X135300Y-64000
X135300Y-69500
X135300Y-75500
X135300Y-81500
X135300Y-87500
T4
X43000Y-40555
X43000Y-61555
X43000Y-82555
X43000Y-103555
X115000Y-40555
X115000Y-61555
X115000Y-82555
X115000Y-103555
X128445Y-33000
X128445Y-105000
T0
M30
