%TF.GenerationSoftware,KiCad,Pcbnew,(5.1.9)-1*%
%TF.CreationDate,2021-05-03T13:14:33+02:00*%
%TF.ProjectId,IM350_AM550_5V_V2.0_Multi,494d3335-305f-4414-9d35-35305f35565f,rev?*%
%TF.SameCoordinates,Original*%
%TF.FileFunction,Legend,Bot*%
%TF.FilePolarity,Positive*%
%FSLAX46Y46*%
G04 Gerber Fmt 4.6, Leading zero omitted, Abs format (unit mm)*
G04 Created by KiCad (PCBNEW (5.1.9)-1) date 2021-05-03 13:14:33*
%MOMM*%
%LPD*%
G01*
G04 APERTURE LIST*
%ADD10C,0.010000*%
G04 APERTURE END LIST*
D10*
%TO.C,G2*%
G36*
X62834091Y-107259720D02*
G01*
X62189823Y-107840303D01*
X61826172Y-108270803D01*
X61663573Y-108690181D01*
X61622463Y-109237399D01*
X61621818Y-109376992D01*
X61621818Y-110445133D01*
X62839933Y-109242149D01*
X64058048Y-108039166D01*
X64801539Y-108782657D01*
X65545029Y-109526148D01*
X64267906Y-110816738D01*
X62990782Y-112107328D01*
X63056755Y-114590599D01*
X63122727Y-117073871D01*
X63757727Y-116410209D01*
X64100825Y-116000821D01*
X64292543Y-115576390D01*
X64375590Y-114984816D01*
X64392727Y-114148614D01*
X64392727Y-112550680D01*
X65893628Y-111038189D01*
X67394530Y-109525698D01*
X64046364Y-106210588D01*
X62834091Y-107259720D01*
G37*
X62834091Y-107259720D02*
X62189823Y-107840303D01*
X61826172Y-108270803D01*
X61663573Y-108690181D01*
X61622463Y-109237399D01*
X61621818Y-109376992D01*
X61621818Y-110445133D01*
X62839933Y-109242149D01*
X64058048Y-108039166D01*
X64801539Y-108782657D01*
X65545029Y-109526148D01*
X64267906Y-110816738D01*
X62990782Y-112107328D01*
X63056755Y-114590599D01*
X63122727Y-117073871D01*
X63757727Y-116410209D01*
X64100825Y-116000821D01*
X64292543Y-115576390D01*
X64375590Y-114984816D01*
X64392727Y-114148614D01*
X64392727Y-112550680D01*
X65893628Y-111038189D01*
X67394530Y-109525698D01*
X64046364Y-106210588D01*
X62834091Y-107259720D01*
G36*
X60484909Y-111998292D02*
G01*
X60287451Y-112195944D01*
X60237457Y-112687122D01*
X60236364Y-112885454D01*
X60236364Y-113809091D01*
X58389091Y-113809091D01*
X58389091Y-112870117D01*
X58364956Y-112275193D01*
X58233747Y-112021424D01*
X57907262Y-111988531D01*
X57754091Y-112004208D01*
X57119091Y-112077272D01*
X57053552Y-114559545D01*
X56988012Y-117041818D01*
X57688552Y-117041818D01*
X58119278Y-117012352D01*
X58323280Y-116840367D01*
X58385084Y-116400487D01*
X58389091Y-116002727D01*
X58389091Y-114963636D01*
X60236364Y-114963636D01*
X60236364Y-116002727D01*
X60256445Y-116641680D01*
X60372390Y-116944309D01*
X60667753Y-117035944D01*
X60929091Y-117041818D01*
X61621818Y-117041818D01*
X61621818Y-111961818D01*
X60929091Y-111961818D01*
X60484909Y-111998292D01*
G37*
X60484909Y-111998292D02*
X60287451Y-112195944D01*
X60237457Y-112687122D01*
X60236364Y-112885454D01*
X60236364Y-113809091D01*
X58389091Y-113809091D01*
X58389091Y-112870117D01*
X58364956Y-112275193D01*
X58233747Y-112021424D01*
X57907262Y-111988531D01*
X57754091Y-112004208D01*
X57119091Y-112077272D01*
X57053552Y-114559545D01*
X56988012Y-117041818D01*
X57688552Y-117041818D01*
X58119278Y-117012352D01*
X58323280Y-116840367D01*
X58385084Y-116400487D01*
X58389091Y-116002727D01*
X58389091Y-114963636D01*
X60236364Y-114963636D01*
X60236364Y-116002727D01*
X60256445Y-116641680D01*
X60372390Y-116944309D01*
X60667753Y-117035944D01*
X60929091Y-117041818D01*
X61621818Y-117041818D01*
X61621818Y-111961818D01*
X60929091Y-111961818D01*
X60484909Y-111998292D01*
G36*
X53642837Y-112046235D02*
G01*
X52764684Y-112276401D01*
X52193038Y-112617685D01*
X52105054Y-112726718D01*
X51934390Y-113382505D01*
X52127254Y-114069532D01*
X52290102Y-114293121D01*
X52491165Y-114577610D01*
X52479224Y-114871679D01*
X52227204Y-115325884D01*
X52059193Y-115577178D01*
X51615248Y-116312785D01*
X51496480Y-116768546D01*
X51704158Y-116993792D01*
X52096818Y-117041194D01*
X52584610Y-116936356D01*
X52972164Y-116551108D01*
X53193636Y-116178010D01*
X53572771Y-115620334D01*
X53957725Y-115277117D01*
X54059545Y-115238066D01*
X54321578Y-115269813D01*
X54439795Y-115568632D01*
X54463636Y-116101250D01*
X54489728Y-116700492D01*
X54632454Y-116969616D01*
X54988494Y-117039887D01*
X55156364Y-117041818D01*
X55849091Y-117041818D01*
X55849091Y-113709696D01*
X54463636Y-113709696D01*
X54388255Y-114142177D01*
X54083953Y-114243785D01*
X53944091Y-114229241D01*
X53477274Y-113966292D01*
X53350758Y-113635909D01*
X53381730Y-113247837D01*
X53711239Y-113121022D01*
X53870304Y-113116363D01*
X54316807Y-113204860D01*
X54459257Y-113562941D01*
X54463636Y-113709696D01*
X55849091Y-113709696D01*
X55849091Y-111961818D01*
X54709578Y-111961818D01*
X53642837Y-112046235D01*
G37*
X53642837Y-112046235D02*
X52764684Y-112276401D01*
X52193038Y-112617685D01*
X52105054Y-112726718D01*
X51934390Y-113382505D01*
X52127254Y-114069532D01*
X52290102Y-114293121D01*
X52491165Y-114577610D01*
X52479224Y-114871679D01*
X52227204Y-115325884D01*
X52059193Y-115577178D01*
X51615248Y-116312785D01*
X51496480Y-116768546D01*
X51704158Y-116993792D01*
X52096818Y-117041194D01*
X52584610Y-116936356D01*
X52972164Y-116551108D01*
X53193636Y-116178010D01*
X53572771Y-115620334D01*
X53957725Y-115277117D01*
X54059545Y-115238066D01*
X54321578Y-115269813D01*
X54439795Y-115568632D01*
X54463636Y-116101250D01*
X54489728Y-116700492D01*
X54632454Y-116969616D01*
X54988494Y-117039887D01*
X55156364Y-117041818D01*
X55849091Y-117041818D01*
X55849091Y-113709696D01*
X54463636Y-113709696D01*
X54388255Y-114142177D01*
X54083953Y-114243785D01*
X53944091Y-114229241D01*
X53477274Y-113966292D01*
X53350758Y-113635909D01*
X53381730Y-113247837D01*
X53711239Y-113121022D01*
X53870304Y-113116363D01*
X54316807Y-113204860D01*
X54459257Y-113562941D01*
X54463636Y-113709696D01*
X55849091Y-113709696D01*
X55849091Y-111961818D01*
X54709578Y-111961818D01*
X53642837Y-112046235D01*
G36*
X49556818Y-111963106D02*
G01*
X48107982Y-112103587D01*
X47019507Y-112517315D01*
X46298508Y-113199123D01*
X45952100Y-114143840D01*
X45920000Y-114604872D01*
X46100493Y-115616709D01*
X46645426Y-116355900D01*
X47559985Y-116826202D01*
X48849353Y-117031370D01*
X49283214Y-117041818D01*
X50538182Y-117041818D01*
X50538182Y-114621672D01*
X49152727Y-114621672D01*
X49152727Y-116126980D01*
X48517727Y-115975287D01*
X47941673Y-115783473D01*
X47594091Y-115596250D01*
X47367634Y-115169201D01*
X47318477Y-114527147D01*
X47439316Y-113878403D01*
X47668312Y-113479220D01*
X48183585Y-113189040D01*
X48591948Y-113116363D01*
X48893181Y-113144690D01*
X49061164Y-113299044D01*
X49134663Y-113683485D01*
X49152443Y-114402073D01*
X49152727Y-114621672D01*
X50538182Y-114621672D01*
X50538182Y-111961818D01*
X49556818Y-111963106D01*
G37*
X49556818Y-111963106D02*
X48107982Y-112103587D01*
X47019507Y-112517315D01*
X46298508Y-113199123D01*
X45952100Y-114143840D01*
X45920000Y-114604872D01*
X46100493Y-115616709D01*
X46645426Y-116355900D01*
X47559985Y-116826202D01*
X48849353Y-117031370D01*
X49283214Y-117041818D01*
X50538182Y-117041818D01*
X50538182Y-114621672D01*
X49152727Y-114621672D01*
X49152727Y-116126980D01*
X48517727Y-115975287D01*
X47941673Y-115783473D01*
X47594091Y-115596250D01*
X47367634Y-115169201D01*
X47318477Y-114527147D01*
X47439316Y-113878403D01*
X47668312Y-113479220D01*
X48183585Y-113189040D01*
X48591948Y-113116363D01*
X48893181Y-113144690D01*
X49061164Y-113299044D01*
X49134663Y-113683485D01*
X49152443Y-114402073D01*
X49152727Y-114621672D01*
X50538182Y-114621672D01*
X50538182Y-111961818D01*
X49556818Y-111963106D01*
G36*
X41987335Y-111986845D02*
G01*
X41266254Y-112096570D01*
X40954490Y-112342964D01*
X41027933Y-112777993D01*
X41462471Y-113453626D01*
X42084818Y-114240129D01*
X42662589Y-114961922D01*
X43107553Y-115547470D01*
X43352701Y-115907237D01*
X43380000Y-115970704D01*
X43171127Y-116051485D01*
X42632342Y-116105052D01*
X42110000Y-116118181D01*
X41376069Y-116138226D01*
X40993733Y-116224894D01*
X40853545Y-116417981D01*
X40840000Y-116580000D01*
X40873125Y-116794643D01*
X41029609Y-116930110D01*
X41395119Y-117004437D01*
X42055321Y-117035658D01*
X43033636Y-117041818D01*
X44059002Y-117033022D01*
X44706761Y-116996120D01*
X45060960Y-116915343D01*
X45205644Y-116774919D01*
X45227273Y-116630205D01*
X45086267Y-116273596D01*
X44710206Y-115678026D01*
X44169529Y-114950873D01*
X43939785Y-114667477D01*
X42652297Y-113116363D01*
X43939785Y-113116363D01*
X44673374Y-113101850D01*
X45057595Y-113024744D01*
X45204734Y-112834701D01*
X45227273Y-112539091D01*
X45210812Y-112266199D01*
X45102286Y-112096586D01*
X44812980Y-112005696D01*
X44254179Y-111968969D01*
X43337167Y-111961850D01*
X43141844Y-111961818D01*
X41987335Y-111986845D01*
G37*
X41987335Y-111986845D02*
X41266254Y-112096570D01*
X40954490Y-112342964D01*
X41027933Y-112777993D01*
X41462471Y-113453626D01*
X42084818Y-114240129D01*
X42662589Y-114961922D01*
X43107553Y-115547470D01*
X43352701Y-115907237D01*
X43380000Y-115970704D01*
X43171127Y-116051485D01*
X42632342Y-116105052D01*
X42110000Y-116118181D01*
X41376069Y-116138226D01*
X40993733Y-116224894D01*
X40853545Y-116417981D01*
X40840000Y-116580000D01*
X40873125Y-116794643D01*
X41029609Y-116930110D01*
X41395119Y-117004437D01*
X42055321Y-117035658D01*
X43033636Y-117041818D01*
X44059002Y-117033022D01*
X44706761Y-116996120D01*
X45060960Y-116915343D01*
X45205644Y-116774919D01*
X45227273Y-116630205D01*
X45086267Y-116273596D01*
X44710206Y-115678026D01*
X44169529Y-114950873D01*
X43939785Y-114667477D01*
X42652297Y-113116363D01*
X43939785Y-113116363D01*
X44673374Y-113101850D01*
X45057595Y-113024744D01*
X45204734Y-112834701D01*
X45227273Y-112539091D01*
X45210812Y-112266199D01*
X45102286Y-112096586D01*
X44812980Y-112005696D01*
X44254179Y-111968969D01*
X43337167Y-111961850D01*
X43141844Y-111961818D01*
X41987335Y-111986845D01*
G36*
X38604571Y-111996136D02*
G01*
X38287452Y-112170983D01*
X38022530Y-112594195D01*
X37794599Y-113116363D01*
X37500109Y-113756220D01*
X37252343Y-114175473D01*
X37145455Y-114270909D01*
X36970635Y-114076068D01*
X36700792Y-113574721D01*
X36496310Y-113116363D01*
X36193394Y-112446186D01*
X35926195Y-112102406D01*
X35573216Y-111977186D01*
X35195524Y-111961818D01*
X34374545Y-111961818D01*
X34374545Y-117041818D01*
X34941702Y-117041818D01*
X35235265Y-117015048D01*
X35410692Y-116868948D01*
X35505415Y-116504829D01*
X35556868Y-115824002D01*
X35576702Y-115367727D01*
X35644545Y-113693636D01*
X36192526Y-114905909D01*
X36632272Y-115712638D01*
X37023867Y-116090872D01*
X37145455Y-116118181D01*
X37516537Y-115893411D01*
X37941431Y-115232945D01*
X38098383Y-114905909D01*
X38646364Y-113693636D01*
X38714207Y-115367727D01*
X38758262Y-116231043D01*
X38828035Y-116731377D01*
X38960959Y-116967418D01*
X39194467Y-117037853D01*
X39349207Y-117041818D01*
X39916364Y-117041818D01*
X39916364Y-111961818D01*
X39095385Y-111961818D01*
X38604571Y-111996136D01*
G37*
X38604571Y-111996136D02*
X38287452Y-112170983D01*
X38022530Y-112594195D01*
X37794599Y-113116363D01*
X37500109Y-113756220D01*
X37252343Y-114175473D01*
X37145455Y-114270909D01*
X36970635Y-114076068D01*
X36700792Y-113574721D01*
X36496310Y-113116363D01*
X36193394Y-112446186D01*
X35926195Y-112102406D01*
X35573216Y-111977186D01*
X35195524Y-111961818D01*
X34374545Y-111961818D01*
X34374545Y-117041818D01*
X34941702Y-117041818D01*
X35235265Y-117015048D01*
X35410692Y-116868948D01*
X35505415Y-116504829D01*
X35556868Y-115824002D01*
X35576702Y-115367727D01*
X35644545Y-113693636D01*
X36192526Y-114905909D01*
X36632272Y-115712638D01*
X37023867Y-116090872D01*
X37145455Y-116118181D01*
X37516537Y-115893411D01*
X37941431Y-115232945D01*
X38098383Y-114905909D01*
X38646364Y-113693636D01*
X38714207Y-115367727D01*
X38758262Y-116231043D01*
X38828035Y-116731377D01*
X38960959Y-116967418D01*
X39194467Y-117037853D01*
X39349207Y-117041818D01*
X39916364Y-117041818D01*
X39916364Y-111961818D01*
X39095385Y-111961818D01*
X38604571Y-111996136D01*
G36*
X41492326Y-107217061D02*
G01*
X39873127Y-107510566D01*
X38375819Y-107783059D01*
X37069367Y-108021903D01*
X36022741Y-108214460D01*
X35304906Y-108348094D01*
X35009545Y-108404934D01*
X34593885Y-108546903D01*
X34413497Y-108843737D01*
X34374545Y-109440165D01*
X34407793Y-110011956D01*
X34490653Y-110325211D01*
X34521540Y-110345454D01*
X34778355Y-110305176D01*
X35429840Y-110191475D01*
X36416572Y-110015055D01*
X37679129Y-109786618D01*
X39158090Y-109516866D01*
X40794032Y-109216503D01*
X40986995Y-109180952D01*
X47305455Y-108016451D01*
X53623915Y-109180952D01*
X55281064Y-109484688D01*
X56794570Y-109758889D01*
X58103590Y-109992789D01*
X59147280Y-110175622D01*
X59864797Y-110296622D01*
X60195300Y-110345022D01*
X60204824Y-110345454D01*
X60380197Y-110142454D01*
X60465563Y-109642268D01*
X60467273Y-109550900D01*
X60410457Y-108978993D01*
X60271728Y-108638719D01*
X60252347Y-108623514D01*
X59977171Y-108548696D01*
X59307694Y-108403827D01*
X58304101Y-108200815D01*
X57026578Y-107951566D01*
X55535311Y-107667990D01*
X53890485Y-107361994D01*
X53688764Y-107324906D01*
X47340106Y-106159130D01*
X41492326Y-107217061D01*
G37*
X41492326Y-107217061D02*
X39873127Y-107510566D01*
X38375819Y-107783059D01*
X37069367Y-108021903D01*
X36022741Y-108214460D01*
X35304906Y-108348094D01*
X35009545Y-108404934D01*
X34593885Y-108546903D01*
X34413497Y-108843737D01*
X34374545Y-109440165D01*
X34407793Y-110011956D01*
X34490653Y-110325211D01*
X34521540Y-110345454D01*
X34778355Y-110305176D01*
X35429840Y-110191475D01*
X36416572Y-110015055D01*
X37679129Y-109786618D01*
X39158090Y-109516866D01*
X40794032Y-109216503D01*
X40986995Y-109180952D01*
X47305455Y-108016451D01*
X53623915Y-109180952D01*
X55281064Y-109484688D01*
X56794570Y-109758889D01*
X58103590Y-109992789D01*
X59147280Y-110175622D01*
X59864797Y-110296622D01*
X60195300Y-110345022D01*
X60204824Y-110345454D01*
X60380197Y-110142454D01*
X60465563Y-109642268D01*
X60467273Y-109550900D01*
X60410457Y-108978993D01*
X60271728Y-108638719D01*
X60252347Y-108623514D01*
X59977171Y-108548696D01*
X59307694Y-108403827D01*
X58304101Y-108200815D01*
X57026578Y-107951566D01*
X55535311Y-107667990D01*
X53890485Y-107361994D01*
X53688764Y-107324906D01*
X47340106Y-106159130D01*
X41492326Y-107217061D01*
G36*
X84492326Y-107217061D02*
G01*
X82873127Y-107510566D01*
X81375819Y-107783059D01*
X80069367Y-108021903D01*
X79022741Y-108214460D01*
X78304906Y-108348094D01*
X78009545Y-108404934D01*
X77593885Y-108546903D01*
X77413497Y-108843737D01*
X77374545Y-109440165D01*
X77407793Y-110011956D01*
X77490653Y-110325211D01*
X77521540Y-110345454D01*
X77778355Y-110305176D01*
X78429840Y-110191475D01*
X79416572Y-110015055D01*
X80679129Y-109786618D01*
X82158090Y-109516866D01*
X83794032Y-109216503D01*
X83986995Y-109180952D01*
X90305455Y-108016451D01*
X96623915Y-109180952D01*
X98281064Y-109484688D01*
X99794570Y-109758889D01*
X101103590Y-109992789D01*
X102147280Y-110175622D01*
X102864797Y-110296622D01*
X103195300Y-110345022D01*
X103204824Y-110345454D01*
X103380197Y-110142454D01*
X103465563Y-109642268D01*
X103467273Y-109550900D01*
X103410457Y-108978993D01*
X103271728Y-108638719D01*
X103252347Y-108623514D01*
X102977171Y-108548696D01*
X102307694Y-108403827D01*
X101304101Y-108200815D01*
X100026578Y-107951566D01*
X98535311Y-107667990D01*
X96890485Y-107361994D01*
X96688764Y-107324906D01*
X90340106Y-106159130D01*
X84492326Y-107217061D01*
G37*
X84492326Y-107217061D02*
X82873127Y-107510566D01*
X81375819Y-107783059D01*
X80069367Y-108021903D01*
X79022741Y-108214460D01*
X78304906Y-108348094D01*
X78009545Y-108404934D01*
X77593885Y-108546903D01*
X77413497Y-108843737D01*
X77374545Y-109440165D01*
X77407793Y-110011956D01*
X77490653Y-110325211D01*
X77521540Y-110345454D01*
X77778355Y-110305176D01*
X78429840Y-110191475D01*
X79416572Y-110015055D01*
X80679129Y-109786618D01*
X82158090Y-109516866D01*
X83794032Y-109216503D01*
X83986995Y-109180952D01*
X90305455Y-108016451D01*
X96623915Y-109180952D01*
X98281064Y-109484688D01*
X99794570Y-109758889D01*
X101103590Y-109992789D01*
X102147280Y-110175622D01*
X102864797Y-110296622D01*
X103195300Y-110345022D01*
X103204824Y-110345454D01*
X103380197Y-110142454D01*
X103465563Y-109642268D01*
X103467273Y-109550900D01*
X103410457Y-108978993D01*
X103271728Y-108638719D01*
X103252347Y-108623514D01*
X102977171Y-108548696D01*
X102307694Y-108403827D01*
X101304101Y-108200815D01*
X100026578Y-107951566D01*
X98535311Y-107667990D01*
X96890485Y-107361994D01*
X96688764Y-107324906D01*
X90340106Y-106159130D01*
X84492326Y-107217061D01*
G36*
X81604571Y-111996136D02*
G01*
X81287452Y-112170983D01*
X81022530Y-112594195D01*
X80794599Y-113116363D01*
X80500109Y-113756220D01*
X80252343Y-114175473D01*
X80145455Y-114270909D01*
X79970635Y-114076068D01*
X79700792Y-113574721D01*
X79496310Y-113116363D01*
X79193394Y-112446186D01*
X78926195Y-112102406D01*
X78573216Y-111977186D01*
X78195524Y-111961818D01*
X77374545Y-111961818D01*
X77374545Y-117041818D01*
X77941702Y-117041818D01*
X78235265Y-117015048D01*
X78410692Y-116868948D01*
X78505415Y-116504829D01*
X78556868Y-115824002D01*
X78576702Y-115367727D01*
X78644545Y-113693636D01*
X79192526Y-114905909D01*
X79632272Y-115712638D01*
X80023867Y-116090872D01*
X80145455Y-116118181D01*
X80516537Y-115893411D01*
X80941431Y-115232945D01*
X81098383Y-114905909D01*
X81646364Y-113693636D01*
X81714207Y-115367727D01*
X81758262Y-116231043D01*
X81828035Y-116731377D01*
X81960959Y-116967418D01*
X82194467Y-117037853D01*
X82349207Y-117041818D01*
X82916364Y-117041818D01*
X82916364Y-111961818D01*
X82095385Y-111961818D01*
X81604571Y-111996136D01*
G37*
X81604571Y-111996136D02*
X81287452Y-112170983D01*
X81022530Y-112594195D01*
X80794599Y-113116363D01*
X80500109Y-113756220D01*
X80252343Y-114175473D01*
X80145455Y-114270909D01*
X79970635Y-114076068D01*
X79700792Y-113574721D01*
X79496310Y-113116363D01*
X79193394Y-112446186D01*
X78926195Y-112102406D01*
X78573216Y-111977186D01*
X78195524Y-111961818D01*
X77374545Y-111961818D01*
X77374545Y-117041818D01*
X77941702Y-117041818D01*
X78235265Y-117015048D01*
X78410692Y-116868948D01*
X78505415Y-116504829D01*
X78556868Y-115824002D01*
X78576702Y-115367727D01*
X78644545Y-113693636D01*
X79192526Y-114905909D01*
X79632272Y-115712638D01*
X80023867Y-116090872D01*
X80145455Y-116118181D01*
X80516537Y-115893411D01*
X80941431Y-115232945D01*
X81098383Y-114905909D01*
X81646364Y-113693636D01*
X81714207Y-115367727D01*
X81758262Y-116231043D01*
X81828035Y-116731377D01*
X81960959Y-116967418D01*
X82194467Y-117037853D01*
X82349207Y-117041818D01*
X82916364Y-117041818D01*
X82916364Y-111961818D01*
X82095385Y-111961818D01*
X81604571Y-111996136D01*
G36*
X84987335Y-111986845D02*
G01*
X84266254Y-112096570D01*
X83954490Y-112342964D01*
X84027933Y-112777993D01*
X84462471Y-113453626D01*
X85084818Y-114240129D01*
X85662589Y-114961922D01*
X86107553Y-115547470D01*
X86352701Y-115907237D01*
X86380000Y-115970704D01*
X86171127Y-116051485D01*
X85632342Y-116105052D01*
X85110000Y-116118181D01*
X84376069Y-116138226D01*
X83993733Y-116224894D01*
X83853545Y-116417981D01*
X83840000Y-116580000D01*
X83873125Y-116794643D01*
X84029609Y-116930110D01*
X84395119Y-117004437D01*
X85055321Y-117035658D01*
X86033636Y-117041818D01*
X87059002Y-117033022D01*
X87706761Y-116996120D01*
X88060960Y-116915343D01*
X88205644Y-116774919D01*
X88227273Y-116630205D01*
X88086267Y-116273596D01*
X87710206Y-115678026D01*
X87169529Y-114950873D01*
X86939785Y-114667477D01*
X85652297Y-113116363D01*
X86939785Y-113116363D01*
X87673374Y-113101850D01*
X88057595Y-113024744D01*
X88204734Y-112834701D01*
X88227273Y-112539091D01*
X88210812Y-112266199D01*
X88102286Y-112096586D01*
X87812980Y-112005696D01*
X87254179Y-111968969D01*
X86337167Y-111961850D01*
X86141844Y-111961818D01*
X84987335Y-111986845D01*
G37*
X84987335Y-111986845D02*
X84266254Y-112096570D01*
X83954490Y-112342964D01*
X84027933Y-112777993D01*
X84462471Y-113453626D01*
X85084818Y-114240129D01*
X85662589Y-114961922D01*
X86107553Y-115547470D01*
X86352701Y-115907237D01*
X86380000Y-115970704D01*
X86171127Y-116051485D01*
X85632342Y-116105052D01*
X85110000Y-116118181D01*
X84376069Y-116138226D01*
X83993733Y-116224894D01*
X83853545Y-116417981D01*
X83840000Y-116580000D01*
X83873125Y-116794643D01*
X84029609Y-116930110D01*
X84395119Y-117004437D01*
X85055321Y-117035658D01*
X86033636Y-117041818D01*
X87059002Y-117033022D01*
X87706761Y-116996120D01*
X88060960Y-116915343D01*
X88205644Y-116774919D01*
X88227273Y-116630205D01*
X88086267Y-116273596D01*
X87710206Y-115678026D01*
X87169529Y-114950873D01*
X86939785Y-114667477D01*
X85652297Y-113116363D01*
X86939785Y-113116363D01*
X87673374Y-113101850D01*
X88057595Y-113024744D01*
X88204734Y-112834701D01*
X88227273Y-112539091D01*
X88210812Y-112266199D01*
X88102286Y-112096586D01*
X87812980Y-112005696D01*
X87254179Y-111968969D01*
X86337167Y-111961850D01*
X86141844Y-111961818D01*
X84987335Y-111986845D01*
G36*
X92556818Y-111963106D02*
G01*
X91107982Y-112103587D01*
X90019507Y-112517315D01*
X89298508Y-113199123D01*
X88952100Y-114143840D01*
X88920000Y-114604872D01*
X89100493Y-115616709D01*
X89645426Y-116355900D01*
X90559985Y-116826202D01*
X91849353Y-117031370D01*
X92283214Y-117041818D01*
X93538182Y-117041818D01*
X93538182Y-114621672D01*
X92152727Y-114621672D01*
X92152727Y-116126980D01*
X91517727Y-115975287D01*
X90941673Y-115783473D01*
X90594091Y-115596250D01*
X90367634Y-115169201D01*
X90318477Y-114527147D01*
X90439316Y-113878403D01*
X90668312Y-113479220D01*
X91183585Y-113189040D01*
X91591948Y-113116363D01*
X91893181Y-113144690D01*
X92061164Y-113299044D01*
X92134663Y-113683485D01*
X92152443Y-114402073D01*
X92152727Y-114621672D01*
X93538182Y-114621672D01*
X93538182Y-111961818D01*
X92556818Y-111963106D01*
G37*
X92556818Y-111963106D02*
X91107982Y-112103587D01*
X90019507Y-112517315D01*
X89298508Y-113199123D01*
X88952100Y-114143840D01*
X88920000Y-114604872D01*
X89100493Y-115616709D01*
X89645426Y-116355900D01*
X90559985Y-116826202D01*
X91849353Y-117031370D01*
X92283214Y-117041818D01*
X93538182Y-117041818D01*
X93538182Y-114621672D01*
X92152727Y-114621672D01*
X92152727Y-116126980D01*
X91517727Y-115975287D01*
X90941673Y-115783473D01*
X90594091Y-115596250D01*
X90367634Y-115169201D01*
X90318477Y-114527147D01*
X90439316Y-113878403D01*
X90668312Y-113479220D01*
X91183585Y-113189040D01*
X91591948Y-113116363D01*
X91893181Y-113144690D01*
X92061164Y-113299044D01*
X92134663Y-113683485D01*
X92152443Y-114402073D01*
X92152727Y-114621672D01*
X93538182Y-114621672D01*
X93538182Y-111961818D01*
X92556818Y-111963106D01*
G36*
X96642837Y-112046235D02*
G01*
X95764684Y-112276401D01*
X95193038Y-112617685D01*
X95105054Y-112726718D01*
X94934390Y-113382505D01*
X95127254Y-114069532D01*
X95290102Y-114293121D01*
X95491165Y-114577610D01*
X95479224Y-114871679D01*
X95227204Y-115325884D01*
X95059193Y-115577178D01*
X94615248Y-116312785D01*
X94496480Y-116768546D01*
X94704158Y-116993792D01*
X95096818Y-117041194D01*
X95584610Y-116936356D01*
X95972164Y-116551108D01*
X96193636Y-116178010D01*
X96572771Y-115620334D01*
X96957725Y-115277117D01*
X97059545Y-115238066D01*
X97321578Y-115269813D01*
X97439795Y-115568632D01*
X97463636Y-116101250D01*
X97489728Y-116700492D01*
X97632454Y-116969616D01*
X97988494Y-117039887D01*
X98156364Y-117041818D01*
X98849091Y-117041818D01*
X98849091Y-113709696D01*
X97463636Y-113709696D01*
X97388255Y-114142177D01*
X97083953Y-114243785D01*
X96944091Y-114229241D01*
X96477274Y-113966292D01*
X96350758Y-113635909D01*
X96381730Y-113247837D01*
X96711239Y-113121022D01*
X96870304Y-113116363D01*
X97316807Y-113204860D01*
X97459257Y-113562941D01*
X97463636Y-113709696D01*
X98849091Y-113709696D01*
X98849091Y-111961818D01*
X97709578Y-111961818D01*
X96642837Y-112046235D01*
G37*
X96642837Y-112046235D02*
X95764684Y-112276401D01*
X95193038Y-112617685D01*
X95105054Y-112726718D01*
X94934390Y-113382505D01*
X95127254Y-114069532D01*
X95290102Y-114293121D01*
X95491165Y-114577610D01*
X95479224Y-114871679D01*
X95227204Y-115325884D01*
X95059193Y-115577178D01*
X94615248Y-116312785D01*
X94496480Y-116768546D01*
X94704158Y-116993792D01*
X95096818Y-117041194D01*
X95584610Y-116936356D01*
X95972164Y-116551108D01*
X96193636Y-116178010D01*
X96572771Y-115620334D01*
X96957725Y-115277117D01*
X97059545Y-115238066D01*
X97321578Y-115269813D01*
X97439795Y-115568632D01*
X97463636Y-116101250D01*
X97489728Y-116700492D01*
X97632454Y-116969616D01*
X97988494Y-117039887D01*
X98156364Y-117041818D01*
X98849091Y-117041818D01*
X98849091Y-113709696D01*
X97463636Y-113709696D01*
X97388255Y-114142177D01*
X97083953Y-114243785D01*
X96944091Y-114229241D01*
X96477274Y-113966292D01*
X96350758Y-113635909D01*
X96381730Y-113247837D01*
X96711239Y-113121022D01*
X96870304Y-113116363D01*
X97316807Y-113204860D01*
X97459257Y-113562941D01*
X97463636Y-113709696D01*
X98849091Y-113709696D01*
X98849091Y-111961818D01*
X97709578Y-111961818D01*
X96642837Y-112046235D01*
G36*
X103484909Y-111998292D02*
G01*
X103287451Y-112195944D01*
X103237457Y-112687122D01*
X103236364Y-112885454D01*
X103236364Y-113809091D01*
X101389091Y-113809091D01*
X101389091Y-112870117D01*
X101364956Y-112275193D01*
X101233747Y-112021424D01*
X100907262Y-111988531D01*
X100754091Y-112004208D01*
X100119091Y-112077272D01*
X100053552Y-114559545D01*
X99988012Y-117041818D01*
X100688552Y-117041818D01*
X101119278Y-117012352D01*
X101323280Y-116840367D01*
X101385084Y-116400487D01*
X101389091Y-116002727D01*
X101389091Y-114963636D01*
X103236364Y-114963636D01*
X103236364Y-116002727D01*
X103256445Y-116641680D01*
X103372390Y-116944309D01*
X103667753Y-117035944D01*
X103929091Y-117041818D01*
X104621818Y-117041818D01*
X104621818Y-111961818D01*
X103929091Y-111961818D01*
X103484909Y-111998292D01*
G37*
X103484909Y-111998292D02*
X103287451Y-112195944D01*
X103237457Y-112687122D01*
X103236364Y-112885454D01*
X103236364Y-113809091D01*
X101389091Y-113809091D01*
X101389091Y-112870117D01*
X101364956Y-112275193D01*
X101233747Y-112021424D01*
X100907262Y-111988531D01*
X100754091Y-112004208D01*
X100119091Y-112077272D01*
X100053552Y-114559545D01*
X99988012Y-117041818D01*
X100688552Y-117041818D01*
X101119278Y-117012352D01*
X101323280Y-116840367D01*
X101385084Y-116400487D01*
X101389091Y-116002727D01*
X101389091Y-114963636D01*
X103236364Y-114963636D01*
X103236364Y-116002727D01*
X103256445Y-116641680D01*
X103372390Y-116944309D01*
X103667753Y-117035944D01*
X103929091Y-117041818D01*
X104621818Y-117041818D01*
X104621818Y-111961818D01*
X103929091Y-111961818D01*
X103484909Y-111998292D01*
G36*
X105834091Y-107259720D02*
G01*
X105189823Y-107840303D01*
X104826172Y-108270803D01*
X104663573Y-108690181D01*
X104622463Y-109237399D01*
X104621818Y-109376992D01*
X104621818Y-110445133D01*
X105839933Y-109242149D01*
X107058048Y-108039166D01*
X107801539Y-108782657D01*
X108545029Y-109526148D01*
X107267906Y-110816738D01*
X105990782Y-112107328D01*
X106056755Y-114590599D01*
X106122727Y-117073871D01*
X106757727Y-116410209D01*
X107100825Y-116000821D01*
X107292543Y-115576390D01*
X107375590Y-114984816D01*
X107392727Y-114148614D01*
X107392727Y-112550680D01*
X108893628Y-111038189D01*
X110394530Y-109525698D01*
X107046364Y-106210588D01*
X105834091Y-107259720D01*
G37*
X105834091Y-107259720D02*
X105189823Y-107840303D01*
X104826172Y-108270803D01*
X104663573Y-108690181D01*
X104622463Y-109237399D01*
X104621818Y-109376992D01*
X104621818Y-110445133D01*
X105839933Y-109242149D01*
X107058048Y-108039166D01*
X107801539Y-108782657D01*
X108545029Y-109526148D01*
X107267906Y-110816738D01*
X105990782Y-112107328D01*
X106056755Y-114590599D01*
X106122727Y-117073871D01*
X106757727Y-116410209D01*
X107100825Y-116000821D01*
X107292543Y-115576390D01*
X107375590Y-114984816D01*
X107392727Y-114148614D01*
X107392727Y-112550680D01*
X108893628Y-111038189D01*
X110394530Y-109525698D01*
X107046364Y-106210588D01*
X105834091Y-107259720D01*
G36*
X41492326Y-87217061D02*
G01*
X39873127Y-87510566D01*
X38375819Y-87783059D01*
X37069367Y-88021903D01*
X36022741Y-88214460D01*
X35304906Y-88348094D01*
X35009545Y-88404934D01*
X34593885Y-88546903D01*
X34413497Y-88843737D01*
X34374545Y-89440165D01*
X34407793Y-90011956D01*
X34490653Y-90325211D01*
X34521540Y-90345454D01*
X34778355Y-90305176D01*
X35429840Y-90191475D01*
X36416572Y-90015055D01*
X37679129Y-89786618D01*
X39158090Y-89516866D01*
X40794032Y-89216503D01*
X40986995Y-89180952D01*
X47305455Y-88016451D01*
X53623915Y-89180952D01*
X55281064Y-89484688D01*
X56794570Y-89758889D01*
X58103590Y-89992789D01*
X59147280Y-90175622D01*
X59864797Y-90296622D01*
X60195300Y-90345022D01*
X60204824Y-90345454D01*
X60380197Y-90142454D01*
X60465563Y-89642268D01*
X60467273Y-89550900D01*
X60410457Y-88978993D01*
X60271728Y-88638719D01*
X60252347Y-88623514D01*
X59977171Y-88548696D01*
X59307694Y-88403827D01*
X58304101Y-88200815D01*
X57026578Y-87951566D01*
X55535311Y-87667990D01*
X53890485Y-87361994D01*
X53688764Y-87324906D01*
X47340106Y-86159130D01*
X41492326Y-87217061D01*
G37*
X41492326Y-87217061D02*
X39873127Y-87510566D01*
X38375819Y-87783059D01*
X37069367Y-88021903D01*
X36022741Y-88214460D01*
X35304906Y-88348094D01*
X35009545Y-88404934D01*
X34593885Y-88546903D01*
X34413497Y-88843737D01*
X34374545Y-89440165D01*
X34407793Y-90011956D01*
X34490653Y-90325211D01*
X34521540Y-90345454D01*
X34778355Y-90305176D01*
X35429840Y-90191475D01*
X36416572Y-90015055D01*
X37679129Y-89786618D01*
X39158090Y-89516866D01*
X40794032Y-89216503D01*
X40986995Y-89180952D01*
X47305455Y-88016451D01*
X53623915Y-89180952D01*
X55281064Y-89484688D01*
X56794570Y-89758889D01*
X58103590Y-89992789D01*
X59147280Y-90175622D01*
X59864797Y-90296622D01*
X60195300Y-90345022D01*
X60204824Y-90345454D01*
X60380197Y-90142454D01*
X60465563Y-89642268D01*
X60467273Y-89550900D01*
X60410457Y-88978993D01*
X60271728Y-88638719D01*
X60252347Y-88623514D01*
X59977171Y-88548696D01*
X59307694Y-88403827D01*
X58304101Y-88200815D01*
X57026578Y-87951566D01*
X55535311Y-87667990D01*
X53890485Y-87361994D01*
X53688764Y-87324906D01*
X47340106Y-86159130D01*
X41492326Y-87217061D01*
G36*
X38604571Y-91996136D02*
G01*
X38287452Y-92170983D01*
X38022530Y-92594195D01*
X37794599Y-93116363D01*
X37500109Y-93756220D01*
X37252343Y-94175473D01*
X37145455Y-94270909D01*
X36970635Y-94076068D01*
X36700792Y-93574721D01*
X36496310Y-93116363D01*
X36193394Y-92446186D01*
X35926195Y-92102406D01*
X35573216Y-91977186D01*
X35195524Y-91961818D01*
X34374545Y-91961818D01*
X34374545Y-97041818D01*
X34941702Y-97041818D01*
X35235265Y-97015048D01*
X35410692Y-96868948D01*
X35505415Y-96504829D01*
X35556868Y-95824002D01*
X35576702Y-95367727D01*
X35644545Y-93693636D01*
X36192526Y-94905909D01*
X36632272Y-95712638D01*
X37023867Y-96090872D01*
X37145455Y-96118181D01*
X37516537Y-95893411D01*
X37941431Y-95232945D01*
X38098383Y-94905909D01*
X38646364Y-93693636D01*
X38714207Y-95367727D01*
X38758262Y-96231043D01*
X38828035Y-96731377D01*
X38960959Y-96967418D01*
X39194467Y-97037853D01*
X39349207Y-97041818D01*
X39916364Y-97041818D01*
X39916364Y-91961818D01*
X39095385Y-91961818D01*
X38604571Y-91996136D01*
G37*
X38604571Y-91996136D02*
X38287452Y-92170983D01*
X38022530Y-92594195D01*
X37794599Y-93116363D01*
X37500109Y-93756220D01*
X37252343Y-94175473D01*
X37145455Y-94270909D01*
X36970635Y-94076068D01*
X36700792Y-93574721D01*
X36496310Y-93116363D01*
X36193394Y-92446186D01*
X35926195Y-92102406D01*
X35573216Y-91977186D01*
X35195524Y-91961818D01*
X34374545Y-91961818D01*
X34374545Y-97041818D01*
X34941702Y-97041818D01*
X35235265Y-97015048D01*
X35410692Y-96868948D01*
X35505415Y-96504829D01*
X35556868Y-95824002D01*
X35576702Y-95367727D01*
X35644545Y-93693636D01*
X36192526Y-94905909D01*
X36632272Y-95712638D01*
X37023867Y-96090872D01*
X37145455Y-96118181D01*
X37516537Y-95893411D01*
X37941431Y-95232945D01*
X38098383Y-94905909D01*
X38646364Y-93693636D01*
X38714207Y-95367727D01*
X38758262Y-96231043D01*
X38828035Y-96731377D01*
X38960959Y-96967418D01*
X39194467Y-97037853D01*
X39349207Y-97041818D01*
X39916364Y-97041818D01*
X39916364Y-91961818D01*
X39095385Y-91961818D01*
X38604571Y-91996136D01*
G36*
X41987335Y-91986845D02*
G01*
X41266254Y-92096570D01*
X40954490Y-92342964D01*
X41027933Y-92777993D01*
X41462471Y-93453626D01*
X42084818Y-94240129D01*
X42662589Y-94961922D01*
X43107553Y-95547470D01*
X43352701Y-95907237D01*
X43380000Y-95970704D01*
X43171127Y-96051485D01*
X42632342Y-96105052D01*
X42110000Y-96118181D01*
X41376069Y-96138226D01*
X40993733Y-96224894D01*
X40853545Y-96417981D01*
X40840000Y-96580000D01*
X40873125Y-96794643D01*
X41029609Y-96930110D01*
X41395119Y-97004437D01*
X42055321Y-97035658D01*
X43033636Y-97041818D01*
X44059002Y-97033022D01*
X44706761Y-96996120D01*
X45060960Y-96915343D01*
X45205644Y-96774919D01*
X45227273Y-96630205D01*
X45086267Y-96273596D01*
X44710206Y-95678026D01*
X44169529Y-94950873D01*
X43939785Y-94667477D01*
X42652297Y-93116363D01*
X43939785Y-93116363D01*
X44673374Y-93101850D01*
X45057595Y-93024744D01*
X45204734Y-92834701D01*
X45227273Y-92539091D01*
X45210812Y-92266199D01*
X45102286Y-92096586D01*
X44812980Y-92005696D01*
X44254179Y-91968969D01*
X43337167Y-91961850D01*
X43141844Y-91961818D01*
X41987335Y-91986845D01*
G37*
X41987335Y-91986845D02*
X41266254Y-92096570D01*
X40954490Y-92342964D01*
X41027933Y-92777993D01*
X41462471Y-93453626D01*
X42084818Y-94240129D01*
X42662589Y-94961922D01*
X43107553Y-95547470D01*
X43352701Y-95907237D01*
X43380000Y-95970704D01*
X43171127Y-96051485D01*
X42632342Y-96105052D01*
X42110000Y-96118181D01*
X41376069Y-96138226D01*
X40993733Y-96224894D01*
X40853545Y-96417981D01*
X40840000Y-96580000D01*
X40873125Y-96794643D01*
X41029609Y-96930110D01*
X41395119Y-97004437D01*
X42055321Y-97035658D01*
X43033636Y-97041818D01*
X44059002Y-97033022D01*
X44706761Y-96996120D01*
X45060960Y-96915343D01*
X45205644Y-96774919D01*
X45227273Y-96630205D01*
X45086267Y-96273596D01*
X44710206Y-95678026D01*
X44169529Y-94950873D01*
X43939785Y-94667477D01*
X42652297Y-93116363D01*
X43939785Y-93116363D01*
X44673374Y-93101850D01*
X45057595Y-93024744D01*
X45204734Y-92834701D01*
X45227273Y-92539091D01*
X45210812Y-92266199D01*
X45102286Y-92096586D01*
X44812980Y-92005696D01*
X44254179Y-91968969D01*
X43337167Y-91961850D01*
X43141844Y-91961818D01*
X41987335Y-91986845D01*
G36*
X49556818Y-91963106D02*
G01*
X48107982Y-92103587D01*
X47019507Y-92517315D01*
X46298508Y-93199123D01*
X45952100Y-94143840D01*
X45920000Y-94604872D01*
X46100493Y-95616709D01*
X46645426Y-96355900D01*
X47559985Y-96826202D01*
X48849353Y-97031370D01*
X49283214Y-97041818D01*
X50538182Y-97041818D01*
X50538182Y-94621672D01*
X49152727Y-94621672D01*
X49152727Y-96126980D01*
X48517727Y-95975287D01*
X47941673Y-95783473D01*
X47594091Y-95596250D01*
X47367634Y-95169201D01*
X47318477Y-94527147D01*
X47439316Y-93878403D01*
X47668312Y-93479220D01*
X48183585Y-93189040D01*
X48591948Y-93116363D01*
X48893181Y-93144690D01*
X49061164Y-93299044D01*
X49134663Y-93683485D01*
X49152443Y-94402073D01*
X49152727Y-94621672D01*
X50538182Y-94621672D01*
X50538182Y-91961818D01*
X49556818Y-91963106D01*
G37*
X49556818Y-91963106D02*
X48107982Y-92103587D01*
X47019507Y-92517315D01*
X46298508Y-93199123D01*
X45952100Y-94143840D01*
X45920000Y-94604872D01*
X46100493Y-95616709D01*
X46645426Y-96355900D01*
X47559985Y-96826202D01*
X48849353Y-97031370D01*
X49283214Y-97041818D01*
X50538182Y-97041818D01*
X50538182Y-94621672D01*
X49152727Y-94621672D01*
X49152727Y-96126980D01*
X48517727Y-95975287D01*
X47941673Y-95783473D01*
X47594091Y-95596250D01*
X47367634Y-95169201D01*
X47318477Y-94527147D01*
X47439316Y-93878403D01*
X47668312Y-93479220D01*
X48183585Y-93189040D01*
X48591948Y-93116363D01*
X48893181Y-93144690D01*
X49061164Y-93299044D01*
X49134663Y-93683485D01*
X49152443Y-94402073D01*
X49152727Y-94621672D01*
X50538182Y-94621672D01*
X50538182Y-91961818D01*
X49556818Y-91963106D01*
G36*
X53642837Y-92046235D02*
G01*
X52764684Y-92276401D01*
X52193038Y-92617685D01*
X52105054Y-92726718D01*
X51934390Y-93382505D01*
X52127254Y-94069532D01*
X52290102Y-94293121D01*
X52491165Y-94577610D01*
X52479224Y-94871679D01*
X52227204Y-95325884D01*
X52059193Y-95577178D01*
X51615248Y-96312785D01*
X51496480Y-96768546D01*
X51704158Y-96993792D01*
X52096818Y-97041194D01*
X52584610Y-96936356D01*
X52972164Y-96551108D01*
X53193636Y-96178010D01*
X53572771Y-95620334D01*
X53957725Y-95277117D01*
X54059545Y-95238066D01*
X54321578Y-95269813D01*
X54439795Y-95568632D01*
X54463636Y-96101250D01*
X54489728Y-96700492D01*
X54632454Y-96969616D01*
X54988494Y-97039887D01*
X55156364Y-97041818D01*
X55849091Y-97041818D01*
X55849091Y-93709696D01*
X54463636Y-93709696D01*
X54388255Y-94142177D01*
X54083953Y-94243785D01*
X53944091Y-94229241D01*
X53477274Y-93966292D01*
X53350758Y-93635909D01*
X53381730Y-93247837D01*
X53711239Y-93121022D01*
X53870304Y-93116363D01*
X54316807Y-93204860D01*
X54459257Y-93562941D01*
X54463636Y-93709696D01*
X55849091Y-93709696D01*
X55849091Y-91961818D01*
X54709578Y-91961818D01*
X53642837Y-92046235D01*
G37*
X53642837Y-92046235D02*
X52764684Y-92276401D01*
X52193038Y-92617685D01*
X52105054Y-92726718D01*
X51934390Y-93382505D01*
X52127254Y-94069532D01*
X52290102Y-94293121D01*
X52491165Y-94577610D01*
X52479224Y-94871679D01*
X52227204Y-95325884D01*
X52059193Y-95577178D01*
X51615248Y-96312785D01*
X51496480Y-96768546D01*
X51704158Y-96993792D01*
X52096818Y-97041194D01*
X52584610Y-96936356D01*
X52972164Y-96551108D01*
X53193636Y-96178010D01*
X53572771Y-95620334D01*
X53957725Y-95277117D01*
X54059545Y-95238066D01*
X54321578Y-95269813D01*
X54439795Y-95568632D01*
X54463636Y-96101250D01*
X54489728Y-96700492D01*
X54632454Y-96969616D01*
X54988494Y-97039887D01*
X55156364Y-97041818D01*
X55849091Y-97041818D01*
X55849091Y-93709696D01*
X54463636Y-93709696D01*
X54388255Y-94142177D01*
X54083953Y-94243785D01*
X53944091Y-94229241D01*
X53477274Y-93966292D01*
X53350758Y-93635909D01*
X53381730Y-93247837D01*
X53711239Y-93121022D01*
X53870304Y-93116363D01*
X54316807Y-93204860D01*
X54459257Y-93562941D01*
X54463636Y-93709696D01*
X55849091Y-93709696D01*
X55849091Y-91961818D01*
X54709578Y-91961818D01*
X53642837Y-92046235D01*
G36*
X60484909Y-91998292D02*
G01*
X60287451Y-92195944D01*
X60237457Y-92687122D01*
X60236364Y-92885454D01*
X60236364Y-93809091D01*
X58389091Y-93809091D01*
X58389091Y-92870117D01*
X58364956Y-92275193D01*
X58233747Y-92021424D01*
X57907262Y-91988531D01*
X57754091Y-92004208D01*
X57119091Y-92077272D01*
X57053552Y-94559545D01*
X56988012Y-97041818D01*
X57688552Y-97041818D01*
X58119278Y-97012352D01*
X58323280Y-96840367D01*
X58385084Y-96400487D01*
X58389091Y-96002727D01*
X58389091Y-94963636D01*
X60236364Y-94963636D01*
X60236364Y-96002727D01*
X60256445Y-96641680D01*
X60372390Y-96944309D01*
X60667753Y-97035944D01*
X60929091Y-97041818D01*
X61621818Y-97041818D01*
X61621818Y-91961818D01*
X60929091Y-91961818D01*
X60484909Y-91998292D01*
G37*
X60484909Y-91998292D02*
X60287451Y-92195944D01*
X60237457Y-92687122D01*
X60236364Y-92885454D01*
X60236364Y-93809091D01*
X58389091Y-93809091D01*
X58389091Y-92870117D01*
X58364956Y-92275193D01*
X58233747Y-92021424D01*
X57907262Y-91988531D01*
X57754091Y-92004208D01*
X57119091Y-92077272D01*
X57053552Y-94559545D01*
X56988012Y-97041818D01*
X57688552Y-97041818D01*
X58119278Y-97012352D01*
X58323280Y-96840367D01*
X58385084Y-96400487D01*
X58389091Y-96002727D01*
X58389091Y-94963636D01*
X60236364Y-94963636D01*
X60236364Y-96002727D01*
X60256445Y-96641680D01*
X60372390Y-96944309D01*
X60667753Y-97035944D01*
X60929091Y-97041818D01*
X61621818Y-97041818D01*
X61621818Y-91961818D01*
X60929091Y-91961818D01*
X60484909Y-91998292D01*
G36*
X62834091Y-87259720D02*
G01*
X62189823Y-87840303D01*
X61826172Y-88270803D01*
X61663573Y-88690181D01*
X61622463Y-89237399D01*
X61621818Y-89376992D01*
X61621818Y-90445133D01*
X62839933Y-89242149D01*
X64058048Y-88039166D01*
X64801539Y-88782657D01*
X65545029Y-89526148D01*
X64267906Y-90816738D01*
X62990782Y-92107328D01*
X63056755Y-94590599D01*
X63122727Y-97073871D01*
X63757727Y-96410209D01*
X64100825Y-96000821D01*
X64292543Y-95576390D01*
X64375590Y-94984816D01*
X64392727Y-94148614D01*
X64392727Y-92550680D01*
X65893628Y-91038189D01*
X67394530Y-89525698D01*
X64046364Y-86210588D01*
X62834091Y-87259720D01*
G37*
X62834091Y-87259720D02*
X62189823Y-87840303D01*
X61826172Y-88270803D01*
X61663573Y-88690181D01*
X61622463Y-89237399D01*
X61621818Y-89376992D01*
X61621818Y-90445133D01*
X62839933Y-89242149D01*
X64058048Y-88039166D01*
X64801539Y-88782657D01*
X65545029Y-89526148D01*
X64267906Y-90816738D01*
X62990782Y-92107328D01*
X63056755Y-94590599D01*
X63122727Y-97073871D01*
X63757727Y-96410209D01*
X64100825Y-96000821D01*
X64292543Y-95576390D01*
X64375590Y-94984816D01*
X64392727Y-94148614D01*
X64392727Y-92550680D01*
X65893628Y-91038189D01*
X67394530Y-89525698D01*
X64046364Y-86210588D01*
X62834091Y-87259720D01*
G36*
X105834091Y-87259720D02*
G01*
X105189823Y-87840303D01*
X104826172Y-88270803D01*
X104663573Y-88690181D01*
X104622463Y-89237399D01*
X104621818Y-89376992D01*
X104621818Y-90445133D01*
X105839933Y-89242149D01*
X107058048Y-88039166D01*
X107801539Y-88782657D01*
X108545029Y-89526148D01*
X107267906Y-90816738D01*
X105990782Y-92107328D01*
X106056755Y-94590599D01*
X106122727Y-97073871D01*
X106757727Y-96410209D01*
X107100825Y-96000821D01*
X107292543Y-95576390D01*
X107375590Y-94984816D01*
X107392727Y-94148614D01*
X107392727Y-92550680D01*
X108893628Y-91038189D01*
X110394530Y-89525698D01*
X107046364Y-86210588D01*
X105834091Y-87259720D01*
G37*
X105834091Y-87259720D02*
X105189823Y-87840303D01*
X104826172Y-88270803D01*
X104663573Y-88690181D01*
X104622463Y-89237399D01*
X104621818Y-89376992D01*
X104621818Y-90445133D01*
X105839933Y-89242149D01*
X107058048Y-88039166D01*
X107801539Y-88782657D01*
X108545029Y-89526148D01*
X107267906Y-90816738D01*
X105990782Y-92107328D01*
X106056755Y-94590599D01*
X106122727Y-97073871D01*
X106757727Y-96410209D01*
X107100825Y-96000821D01*
X107292543Y-95576390D01*
X107375590Y-94984816D01*
X107392727Y-94148614D01*
X107392727Y-92550680D01*
X108893628Y-91038189D01*
X110394530Y-89525698D01*
X107046364Y-86210588D01*
X105834091Y-87259720D01*
G36*
X103484909Y-91998292D02*
G01*
X103287451Y-92195944D01*
X103237457Y-92687122D01*
X103236364Y-92885454D01*
X103236364Y-93809091D01*
X101389091Y-93809091D01*
X101389091Y-92870117D01*
X101364956Y-92275193D01*
X101233747Y-92021424D01*
X100907262Y-91988531D01*
X100754091Y-92004208D01*
X100119091Y-92077272D01*
X100053552Y-94559545D01*
X99988012Y-97041818D01*
X100688552Y-97041818D01*
X101119278Y-97012352D01*
X101323280Y-96840367D01*
X101385084Y-96400487D01*
X101389091Y-96002727D01*
X101389091Y-94963636D01*
X103236364Y-94963636D01*
X103236364Y-96002727D01*
X103256445Y-96641680D01*
X103372390Y-96944309D01*
X103667753Y-97035944D01*
X103929091Y-97041818D01*
X104621818Y-97041818D01*
X104621818Y-91961818D01*
X103929091Y-91961818D01*
X103484909Y-91998292D01*
G37*
X103484909Y-91998292D02*
X103287451Y-92195944D01*
X103237457Y-92687122D01*
X103236364Y-92885454D01*
X103236364Y-93809091D01*
X101389091Y-93809091D01*
X101389091Y-92870117D01*
X101364956Y-92275193D01*
X101233747Y-92021424D01*
X100907262Y-91988531D01*
X100754091Y-92004208D01*
X100119091Y-92077272D01*
X100053552Y-94559545D01*
X99988012Y-97041818D01*
X100688552Y-97041818D01*
X101119278Y-97012352D01*
X101323280Y-96840367D01*
X101385084Y-96400487D01*
X101389091Y-96002727D01*
X101389091Y-94963636D01*
X103236364Y-94963636D01*
X103236364Y-96002727D01*
X103256445Y-96641680D01*
X103372390Y-96944309D01*
X103667753Y-97035944D01*
X103929091Y-97041818D01*
X104621818Y-97041818D01*
X104621818Y-91961818D01*
X103929091Y-91961818D01*
X103484909Y-91998292D01*
G36*
X96642837Y-92046235D02*
G01*
X95764684Y-92276401D01*
X95193038Y-92617685D01*
X95105054Y-92726718D01*
X94934390Y-93382505D01*
X95127254Y-94069532D01*
X95290102Y-94293121D01*
X95491165Y-94577610D01*
X95479224Y-94871679D01*
X95227204Y-95325884D01*
X95059193Y-95577178D01*
X94615248Y-96312785D01*
X94496480Y-96768546D01*
X94704158Y-96993792D01*
X95096818Y-97041194D01*
X95584610Y-96936356D01*
X95972164Y-96551108D01*
X96193636Y-96178010D01*
X96572771Y-95620334D01*
X96957725Y-95277117D01*
X97059545Y-95238066D01*
X97321578Y-95269813D01*
X97439795Y-95568632D01*
X97463636Y-96101250D01*
X97489728Y-96700492D01*
X97632454Y-96969616D01*
X97988494Y-97039887D01*
X98156364Y-97041818D01*
X98849091Y-97041818D01*
X98849091Y-93709696D01*
X97463636Y-93709696D01*
X97388255Y-94142177D01*
X97083953Y-94243785D01*
X96944091Y-94229241D01*
X96477274Y-93966292D01*
X96350758Y-93635909D01*
X96381730Y-93247837D01*
X96711239Y-93121022D01*
X96870304Y-93116363D01*
X97316807Y-93204860D01*
X97459257Y-93562941D01*
X97463636Y-93709696D01*
X98849091Y-93709696D01*
X98849091Y-91961818D01*
X97709578Y-91961818D01*
X96642837Y-92046235D01*
G37*
X96642837Y-92046235D02*
X95764684Y-92276401D01*
X95193038Y-92617685D01*
X95105054Y-92726718D01*
X94934390Y-93382505D01*
X95127254Y-94069532D01*
X95290102Y-94293121D01*
X95491165Y-94577610D01*
X95479224Y-94871679D01*
X95227204Y-95325884D01*
X95059193Y-95577178D01*
X94615248Y-96312785D01*
X94496480Y-96768546D01*
X94704158Y-96993792D01*
X95096818Y-97041194D01*
X95584610Y-96936356D01*
X95972164Y-96551108D01*
X96193636Y-96178010D01*
X96572771Y-95620334D01*
X96957725Y-95277117D01*
X97059545Y-95238066D01*
X97321578Y-95269813D01*
X97439795Y-95568632D01*
X97463636Y-96101250D01*
X97489728Y-96700492D01*
X97632454Y-96969616D01*
X97988494Y-97039887D01*
X98156364Y-97041818D01*
X98849091Y-97041818D01*
X98849091Y-93709696D01*
X97463636Y-93709696D01*
X97388255Y-94142177D01*
X97083953Y-94243785D01*
X96944091Y-94229241D01*
X96477274Y-93966292D01*
X96350758Y-93635909D01*
X96381730Y-93247837D01*
X96711239Y-93121022D01*
X96870304Y-93116363D01*
X97316807Y-93204860D01*
X97459257Y-93562941D01*
X97463636Y-93709696D01*
X98849091Y-93709696D01*
X98849091Y-91961818D01*
X97709578Y-91961818D01*
X96642837Y-92046235D01*
G36*
X92556818Y-91963106D02*
G01*
X91107982Y-92103587D01*
X90019507Y-92517315D01*
X89298508Y-93199123D01*
X88952100Y-94143840D01*
X88920000Y-94604872D01*
X89100493Y-95616709D01*
X89645426Y-96355900D01*
X90559985Y-96826202D01*
X91849353Y-97031370D01*
X92283214Y-97041818D01*
X93538182Y-97041818D01*
X93538182Y-94621672D01*
X92152727Y-94621672D01*
X92152727Y-96126980D01*
X91517727Y-95975287D01*
X90941673Y-95783473D01*
X90594091Y-95596250D01*
X90367634Y-95169201D01*
X90318477Y-94527147D01*
X90439316Y-93878403D01*
X90668312Y-93479220D01*
X91183585Y-93189040D01*
X91591948Y-93116363D01*
X91893181Y-93144690D01*
X92061164Y-93299044D01*
X92134663Y-93683485D01*
X92152443Y-94402073D01*
X92152727Y-94621672D01*
X93538182Y-94621672D01*
X93538182Y-91961818D01*
X92556818Y-91963106D01*
G37*
X92556818Y-91963106D02*
X91107982Y-92103587D01*
X90019507Y-92517315D01*
X89298508Y-93199123D01*
X88952100Y-94143840D01*
X88920000Y-94604872D01*
X89100493Y-95616709D01*
X89645426Y-96355900D01*
X90559985Y-96826202D01*
X91849353Y-97031370D01*
X92283214Y-97041818D01*
X93538182Y-97041818D01*
X93538182Y-94621672D01*
X92152727Y-94621672D01*
X92152727Y-96126980D01*
X91517727Y-95975287D01*
X90941673Y-95783473D01*
X90594091Y-95596250D01*
X90367634Y-95169201D01*
X90318477Y-94527147D01*
X90439316Y-93878403D01*
X90668312Y-93479220D01*
X91183585Y-93189040D01*
X91591948Y-93116363D01*
X91893181Y-93144690D01*
X92061164Y-93299044D01*
X92134663Y-93683485D01*
X92152443Y-94402073D01*
X92152727Y-94621672D01*
X93538182Y-94621672D01*
X93538182Y-91961818D01*
X92556818Y-91963106D01*
G36*
X84987335Y-91986845D02*
G01*
X84266254Y-92096570D01*
X83954490Y-92342964D01*
X84027933Y-92777993D01*
X84462471Y-93453626D01*
X85084818Y-94240129D01*
X85662589Y-94961922D01*
X86107553Y-95547470D01*
X86352701Y-95907237D01*
X86380000Y-95970704D01*
X86171127Y-96051485D01*
X85632342Y-96105052D01*
X85110000Y-96118181D01*
X84376069Y-96138226D01*
X83993733Y-96224894D01*
X83853545Y-96417981D01*
X83840000Y-96580000D01*
X83873125Y-96794643D01*
X84029609Y-96930110D01*
X84395119Y-97004437D01*
X85055321Y-97035658D01*
X86033636Y-97041818D01*
X87059002Y-97033022D01*
X87706761Y-96996120D01*
X88060960Y-96915343D01*
X88205644Y-96774919D01*
X88227273Y-96630205D01*
X88086267Y-96273596D01*
X87710206Y-95678026D01*
X87169529Y-94950873D01*
X86939785Y-94667477D01*
X85652297Y-93116363D01*
X86939785Y-93116363D01*
X87673374Y-93101850D01*
X88057595Y-93024744D01*
X88204734Y-92834701D01*
X88227273Y-92539091D01*
X88210812Y-92266199D01*
X88102286Y-92096586D01*
X87812980Y-92005696D01*
X87254179Y-91968969D01*
X86337167Y-91961850D01*
X86141844Y-91961818D01*
X84987335Y-91986845D01*
G37*
X84987335Y-91986845D02*
X84266254Y-92096570D01*
X83954490Y-92342964D01*
X84027933Y-92777993D01*
X84462471Y-93453626D01*
X85084818Y-94240129D01*
X85662589Y-94961922D01*
X86107553Y-95547470D01*
X86352701Y-95907237D01*
X86380000Y-95970704D01*
X86171127Y-96051485D01*
X85632342Y-96105052D01*
X85110000Y-96118181D01*
X84376069Y-96138226D01*
X83993733Y-96224894D01*
X83853545Y-96417981D01*
X83840000Y-96580000D01*
X83873125Y-96794643D01*
X84029609Y-96930110D01*
X84395119Y-97004437D01*
X85055321Y-97035658D01*
X86033636Y-97041818D01*
X87059002Y-97033022D01*
X87706761Y-96996120D01*
X88060960Y-96915343D01*
X88205644Y-96774919D01*
X88227273Y-96630205D01*
X88086267Y-96273596D01*
X87710206Y-95678026D01*
X87169529Y-94950873D01*
X86939785Y-94667477D01*
X85652297Y-93116363D01*
X86939785Y-93116363D01*
X87673374Y-93101850D01*
X88057595Y-93024744D01*
X88204734Y-92834701D01*
X88227273Y-92539091D01*
X88210812Y-92266199D01*
X88102286Y-92096586D01*
X87812980Y-92005696D01*
X87254179Y-91968969D01*
X86337167Y-91961850D01*
X86141844Y-91961818D01*
X84987335Y-91986845D01*
G36*
X81604571Y-91996136D02*
G01*
X81287452Y-92170983D01*
X81022530Y-92594195D01*
X80794599Y-93116363D01*
X80500109Y-93756220D01*
X80252343Y-94175473D01*
X80145455Y-94270909D01*
X79970635Y-94076068D01*
X79700792Y-93574721D01*
X79496310Y-93116363D01*
X79193394Y-92446186D01*
X78926195Y-92102406D01*
X78573216Y-91977186D01*
X78195524Y-91961818D01*
X77374545Y-91961818D01*
X77374545Y-97041818D01*
X77941702Y-97041818D01*
X78235265Y-97015048D01*
X78410692Y-96868948D01*
X78505415Y-96504829D01*
X78556868Y-95824002D01*
X78576702Y-95367727D01*
X78644545Y-93693636D01*
X79192526Y-94905909D01*
X79632272Y-95712638D01*
X80023867Y-96090872D01*
X80145455Y-96118181D01*
X80516537Y-95893411D01*
X80941431Y-95232945D01*
X81098383Y-94905909D01*
X81646364Y-93693636D01*
X81714207Y-95367727D01*
X81758262Y-96231043D01*
X81828035Y-96731377D01*
X81960959Y-96967418D01*
X82194467Y-97037853D01*
X82349207Y-97041818D01*
X82916364Y-97041818D01*
X82916364Y-91961818D01*
X82095385Y-91961818D01*
X81604571Y-91996136D01*
G37*
X81604571Y-91996136D02*
X81287452Y-92170983D01*
X81022530Y-92594195D01*
X80794599Y-93116363D01*
X80500109Y-93756220D01*
X80252343Y-94175473D01*
X80145455Y-94270909D01*
X79970635Y-94076068D01*
X79700792Y-93574721D01*
X79496310Y-93116363D01*
X79193394Y-92446186D01*
X78926195Y-92102406D01*
X78573216Y-91977186D01*
X78195524Y-91961818D01*
X77374545Y-91961818D01*
X77374545Y-97041818D01*
X77941702Y-97041818D01*
X78235265Y-97015048D01*
X78410692Y-96868948D01*
X78505415Y-96504829D01*
X78556868Y-95824002D01*
X78576702Y-95367727D01*
X78644545Y-93693636D01*
X79192526Y-94905909D01*
X79632272Y-95712638D01*
X80023867Y-96090872D01*
X80145455Y-96118181D01*
X80516537Y-95893411D01*
X80941431Y-95232945D01*
X81098383Y-94905909D01*
X81646364Y-93693636D01*
X81714207Y-95367727D01*
X81758262Y-96231043D01*
X81828035Y-96731377D01*
X81960959Y-96967418D01*
X82194467Y-97037853D01*
X82349207Y-97041818D01*
X82916364Y-97041818D01*
X82916364Y-91961818D01*
X82095385Y-91961818D01*
X81604571Y-91996136D01*
G36*
X84492326Y-87217061D02*
G01*
X82873127Y-87510566D01*
X81375819Y-87783059D01*
X80069367Y-88021903D01*
X79022741Y-88214460D01*
X78304906Y-88348094D01*
X78009545Y-88404934D01*
X77593885Y-88546903D01*
X77413497Y-88843737D01*
X77374545Y-89440165D01*
X77407793Y-90011956D01*
X77490653Y-90325211D01*
X77521540Y-90345454D01*
X77778355Y-90305176D01*
X78429840Y-90191475D01*
X79416572Y-90015055D01*
X80679129Y-89786618D01*
X82158090Y-89516866D01*
X83794032Y-89216503D01*
X83986995Y-89180952D01*
X90305455Y-88016451D01*
X96623915Y-89180952D01*
X98281064Y-89484688D01*
X99794570Y-89758889D01*
X101103590Y-89992789D01*
X102147280Y-90175622D01*
X102864797Y-90296622D01*
X103195300Y-90345022D01*
X103204824Y-90345454D01*
X103380197Y-90142454D01*
X103465563Y-89642268D01*
X103467273Y-89550900D01*
X103410457Y-88978993D01*
X103271728Y-88638719D01*
X103252347Y-88623514D01*
X102977171Y-88548696D01*
X102307694Y-88403827D01*
X101304101Y-88200815D01*
X100026578Y-87951566D01*
X98535311Y-87667990D01*
X96890485Y-87361994D01*
X96688764Y-87324906D01*
X90340106Y-86159130D01*
X84492326Y-87217061D01*
G37*
X84492326Y-87217061D02*
X82873127Y-87510566D01*
X81375819Y-87783059D01*
X80069367Y-88021903D01*
X79022741Y-88214460D01*
X78304906Y-88348094D01*
X78009545Y-88404934D01*
X77593885Y-88546903D01*
X77413497Y-88843737D01*
X77374545Y-89440165D01*
X77407793Y-90011956D01*
X77490653Y-90325211D01*
X77521540Y-90345454D01*
X77778355Y-90305176D01*
X78429840Y-90191475D01*
X79416572Y-90015055D01*
X80679129Y-89786618D01*
X82158090Y-89516866D01*
X83794032Y-89216503D01*
X83986995Y-89180952D01*
X90305455Y-88016451D01*
X96623915Y-89180952D01*
X98281064Y-89484688D01*
X99794570Y-89758889D01*
X101103590Y-89992789D01*
X102147280Y-90175622D01*
X102864797Y-90296622D01*
X103195300Y-90345022D01*
X103204824Y-90345454D01*
X103380197Y-90142454D01*
X103465563Y-89642268D01*
X103467273Y-89550900D01*
X103410457Y-88978993D01*
X103271728Y-88638719D01*
X103252347Y-88623514D01*
X102977171Y-88548696D01*
X102307694Y-88403827D01*
X101304101Y-88200815D01*
X100026578Y-87951566D01*
X98535311Y-87667990D01*
X96890485Y-87361994D01*
X96688764Y-87324906D01*
X90340106Y-86159130D01*
X84492326Y-87217061D01*
G36*
X62834091Y-67259720D02*
G01*
X62189823Y-67840303D01*
X61826172Y-68270803D01*
X61663573Y-68690181D01*
X61622463Y-69237399D01*
X61621818Y-69376992D01*
X61621818Y-70445133D01*
X62839933Y-69242149D01*
X64058048Y-68039166D01*
X64801539Y-68782657D01*
X65545029Y-69526148D01*
X64267906Y-70816738D01*
X62990782Y-72107328D01*
X63056755Y-74590599D01*
X63122727Y-77073871D01*
X63757727Y-76410209D01*
X64100825Y-76000821D01*
X64292543Y-75576390D01*
X64375590Y-74984816D01*
X64392727Y-74148614D01*
X64392727Y-72550680D01*
X65893628Y-71038189D01*
X67394530Y-69525698D01*
X64046364Y-66210588D01*
X62834091Y-67259720D01*
G37*
X62834091Y-67259720D02*
X62189823Y-67840303D01*
X61826172Y-68270803D01*
X61663573Y-68690181D01*
X61622463Y-69237399D01*
X61621818Y-69376992D01*
X61621818Y-70445133D01*
X62839933Y-69242149D01*
X64058048Y-68039166D01*
X64801539Y-68782657D01*
X65545029Y-69526148D01*
X64267906Y-70816738D01*
X62990782Y-72107328D01*
X63056755Y-74590599D01*
X63122727Y-77073871D01*
X63757727Y-76410209D01*
X64100825Y-76000821D01*
X64292543Y-75576390D01*
X64375590Y-74984816D01*
X64392727Y-74148614D01*
X64392727Y-72550680D01*
X65893628Y-71038189D01*
X67394530Y-69525698D01*
X64046364Y-66210588D01*
X62834091Y-67259720D01*
G36*
X60484909Y-71998292D02*
G01*
X60287451Y-72195944D01*
X60237457Y-72687122D01*
X60236364Y-72885454D01*
X60236364Y-73809091D01*
X58389091Y-73809091D01*
X58389091Y-72870117D01*
X58364956Y-72275193D01*
X58233747Y-72021424D01*
X57907262Y-71988531D01*
X57754091Y-72004208D01*
X57119091Y-72077272D01*
X57053552Y-74559545D01*
X56988012Y-77041818D01*
X57688552Y-77041818D01*
X58119278Y-77012352D01*
X58323280Y-76840367D01*
X58385084Y-76400487D01*
X58389091Y-76002727D01*
X58389091Y-74963636D01*
X60236364Y-74963636D01*
X60236364Y-76002727D01*
X60256445Y-76641680D01*
X60372390Y-76944309D01*
X60667753Y-77035944D01*
X60929091Y-77041818D01*
X61621818Y-77041818D01*
X61621818Y-71961818D01*
X60929091Y-71961818D01*
X60484909Y-71998292D01*
G37*
X60484909Y-71998292D02*
X60287451Y-72195944D01*
X60237457Y-72687122D01*
X60236364Y-72885454D01*
X60236364Y-73809091D01*
X58389091Y-73809091D01*
X58389091Y-72870117D01*
X58364956Y-72275193D01*
X58233747Y-72021424D01*
X57907262Y-71988531D01*
X57754091Y-72004208D01*
X57119091Y-72077272D01*
X57053552Y-74559545D01*
X56988012Y-77041818D01*
X57688552Y-77041818D01*
X58119278Y-77012352D01*
X58323280Y-76840367D01*
X58385084Y-76400487D01*
X58389091Y-76002727D01*
X58389091Y-74963636D01*
X60236364Y-74963636D01*
X60236364Y-76002727D01*
X60256445Y-76641680D01*
X60372390Y-76944309D01*
X60667753Y-77035944D01*
X60929091Y-77041818D01*
X61621818Y-77041818D01*
X61621818Y-71961818D01*
X60929091Y-71961818D01*
X60484909Y-71998292D01*
G36*
X53642837Y-72046235D02*
G01*
X52764684Y-72276401D01*
X52193038Y-72617685D01*
X52105054Y-72726718D01*
X51934390Y-73382505D01*
X52127254Y-74069532D01*
X52290102Y-74293121D01*
X52491165Y-74577610D01*
X52479224Y-74871679D01*
X52227204Y-75325884D01*
X52059193Y-75577178D01*
X51615248Y-76312785D01*
X51496480Y-76768546D01*
X51704158Y-76993792D01*
X52096818Y-77041194D01*
X52584610Y-76936356D01*
X52972164Y-76551108D01*
X53193636Y-76178010D01*
X53572771Y-75620334D01*
X53957725Y-75277117D01*
X54059545Y-75238066D01*
X54321578Y-75269813D01*
X54439795Y-75568632D01*
X54463636Y-76101250D01*
X54489728Y-76700492D01*
X54632454Y-76969616D01*
X54988494Y-77039887D01*
X55156364Y-77041818D01*
X55849091Y-77041818D01*
X55849091Y-73709696D01*
X54463636Y-73709696D01*
X54388255Y-74142177D01*
X54083953Y-74243785D01*
X53944091Y-74229241D01*
X53477274Y-73966292D01*
X53350758Y-73635909D01*
X53381730Y-73247837D01*
X53711239Y-73121022D01*
X53870304Y-73116363D01*
X54316807Y-73204860D01*
X54459257Y-73562941D01*
X54463636Y-73709696D01*
X55849091Y-73709696D01*
X55849091Y-71961818D01*
X54709578Y-71961818D01*
X53642837Y-72046235D01*
G37*
X53642837Y-72046235D02*
X52764684Y-72276401D01*
X52193038Y-72617685D01*
X52105054Y-72726718D01*
X51934390Y-73382505D01*
X52127254Y-74069532D01*
X52290102Y-74293121D01*
X52491165Y-74577610D01*
X52479224Y-74871679D01*
X52227204Y-75325884D01*
X52059193Y-75577178D01*
X51615248Y-76312785D01*
X51496480Y-76768546D01*
X51704158Y-76993792D01*
X52096818Y-77041194D01*
X52584610Y-76936356D01*
X52972164Y-76551108D01*
X53193636Y-76178010D01*
X53572771Y-75620334D01*
X53957725Y-75277117D01*
X54059545Y-75238066D01*
X54321578Y-75269813D01*
X54439795Y-75568632D01*
X54463636Y-76101250D01*
X54489728Y-76700492D01*
X54632454Y-76969616D01*
X54988494Y-77039887D01*
X55156364Y-77041818D01*
X55849091Y-77041818D01*
X55849091Y-73709696D01*
X54463636Y-73709696D01*
X54388255Y-74142177D01*
X54083953Y-74243785D01*
X53944091Y-74229241D01*
X53477274Y-73966292D01*
X53350758Y-73635909D01*
X53381730Y-73247837D01*
X53711239Y-73121022D01*
X53870304Y-73116363D01*
X54316807Y-73204860D01*
X54459257Y-73562941D01*
X54463636Y-73709696D01*
X55849091Y-73709696D01*
X55849091Y-71961818D01*
X54709578Y-71961818D01*
X53642837Y-72046235D01*
G36*
X49556818Y-71963106D02*
G01*
X48107982Y-72103587D01*
X47019507Y-72517315D01*
X46298508Y-73199123D01*
X45952100Y-74143840D01*
X45920000Y-74604872D01*
X46100493Y-75616709D01*
X46645426Y-76355900D01*
X47559985Y-76826202D01*
X48849353Y-77031370D01*
X49283214Y-77041818D01*
X50538182Y-77041818D01*
X50538182Y-74621672D01*
X49152727Y-74621672D01*
X49152727Y-76126980D01*
X48517727Y-75975287D01*
X47941673Y-75783473D01*
X47594091Y-75596250D01*
X47367634Y-75169201D01*
X47318477Y-74527147D01*
X47439316Y-73878403D01*
X47668312Y-73479220D01*
X48183585Y-73189040D01*
X48591948Y-73116363D01*
X48893181Y-73144690D01*
X49061164Y-73299044D01*
X49134663Y-73683485D01*
X49152443Y-74402073D01*
X49152727Y-74621672D01*
X50538182Y-74621672D01*
X50538182Y-71961818D01*
X49556818Y-71963106D01*
G37*
X49556818Y-71963106D02*
X48107982Y-72103587D01*
X47019507Y-72517315D01*
X46298508Y-73199123D01*
X45952100Y-74143840D01*
X45920000Y-74604872D01*
X46100493Y-75616709D01*
X46645426Y-76355900D01*
X47559985Y-76826202D01*
X48849353Y-77031370D01*
X49283214Y-77041818D01*
X50538182Y-77041818D01*
X50538182Y-74621672D01*
X49152727Y-74621672D01*
X49152727Y-76126980D01*
X48517727Y-75975287D01*
X47941673Y-75783473D01*
X47594091Y-75596250D01*
X47367634Y-75169201D01*
X47318477Y-74527147D01*
X47439316Y-73878403D01*
X47668312Y-73479220D01*
X48183585Y-73189040D01*
X48591948Y-73116363D01*
X48893181Y-73144690D01*
X49061164Y-73299044D01*
X49134663Y-73683485D01*
X49152443Y-74402073D01*
X49152727Y-74621672D01*
X50538182Y-74621672D01*
X50538182Y-71961818D01*
X49556818Y-71963106D01*
G36*
X41987335Y-71986845D02*
G01*
X41266254Y-72096570D01*
X40954490Y-72342964D01*
X41027933Y-72777993D01*
X41462471Y-73453626D01*
X42084818Y-74240129D01*
X42662589Y-74961922D01*
X43107553Y-75547470D01*
X43352701Y-75907237D01*
X43380000Y-75970704D01*
X43171127Y-76051485D01*
X42632342Y-76105052D01*
X42110000Y-76118181D01*
X41376069Y-76138226D01*
X40993733Y-76224894D01*
X40853545Y-76417981D01*
X40840000Y-76580000D01*
X40873125Y-76794643D01*
X41029609Y-76930110D01*
X41395119Y-77004437D01*
X42055321Y-77035658D01*
X43033636Y-77041818D01*
X44059002Y-77033022D01*
X44706761Y-76996120D01*
X45060960Y-76915343D01*
X45205644Y-76774919D01*
X45227273Y-76630205D01*
X45086267Y-76273596D01*
X44710206Y-75678026D01*
X44169529Y-74950873D01*
X43939785Y-74667477D01*
X42652297Y-73116363D01*
X43939785Y-73116363D01*
X44673374Y-73101850D01*
X45057595Y-73024744D01*
X45204734Y-72834701D01*
X45227273Y-72539091D01*
X45210812Y-72266199D01*
X45102286Y-72096586D01*
X44812980Y-72005696D01*
X44254179Y-71968969D01*
X43337167Y-71961850D01*
X43141844Y-71961818D01*
X41987335Y-71986845D01*
G37*
X41987335Y-71986845D02*
X41266254Y-72096570D01*
X40954490Y-72342964D01*
X41027933Y-72777993D01*
X41462471Y-73453626D01*
X42084818Y-74240129D01*
X42662589Y-74961922D01*
X43107553Y-75547470D01*
X43352701Y-75907237D01*
X43380000Y-75970704D01*
X43171127Y-76051485D01*
X42632342Y-76105052D01*
X42110000Y-76118181D01*
X41376069Y-76138226D01*
X40993733Y-76224894D01*
X40853545Y-76417981D01*
X40840000Y-76580000D01*
X40873125Y-76794643D01*
X41029609Y-76930110D01*
X41395119Y-77004437D01*
X42055321Y-77035658D01*
X43033636Y-77041818D01*
X44059002Y-77033022D01*
X44706761Y-76996120D01*
X45060960Y-76915343D01*
X45205644Y-76774919D01*
X45227273Y-76630205D01*
X45086267Y-76273596D01*
X44710206Y-75678026D01*
X44169529Y-74950873D01*
X43939785Y-74667477D01*
X42652297Y-73116363D01*
X43939785Y-73116363D01*
X44673374Y-73101850D01*
X45057595Y-73024744D01*
X45204734Y-72834701D01*
X45227273Y-72539091D01*
X45210812Y-72266199D01*
X45102286Y-72096586D01*
X44812980Y-72005696D01*
X44254179Y-71968969D01*
X43337167Y-71961850D01*
X43141844Y-71961818D01*
X41987335Y-71986845D01*
G36*
X38604571Y-71996136D02*
G01*
X38287452Y-72170983D01*
X38022530Y-72594195D01*
X37794599Y-73116363D01*
X37500109Y-73756220D01*
X37252343Y-74175473D01*
X37145455Y-74270909D01*
X36970635Y-74076068D01*
X36700792Y-73574721D01*
X36496310Y-73116363D01*
X36193394Y-72446186D01*
X35926195Y-72102406D01*
X35573216Y-71977186D01*
X35195524Y-71961818D01*
X34374545Y-71961818D01*
X34374545Y-77041818D01*
X34941702Y-77041818D01*
X35235265Y-77015048D01*
X35410692Y-76868948D01*
X35505415Y-76504829D01*
X35556868Y-75824002D01*
X35576702Y-75367727D01*
X35644545Y-73693636D01*
X36192526Y-74905909D01*
X36632272Y-75712638D01*
X37023867Y-76090872D01*
X37145455Y-76118181D01*
X37516537Y-75893411D01*
X37941431Y-75232945D01*
X38098383Y-74905909D01*
X38646364Y-73693636D01*
X38714207Y-75367727D01*
X38758262Y-76231043D01*
X38828035Y-76731377D01*
X38960959Y-76967418D01*
X39194467Y-77037853D01*
X39349207Y-77041818D01*
X39916364Y-77041818D01*
X39916364Y-71961818D01*
X39095385Y-71961818D01*
X38604571Y-71996136D01*
G37*
X38604571Y-71996136D02*
X38287452Y-72170983D01*
X38022530Y-72594195D01*
X37794599Y-73116363D01*
X37500109Y-73756220D01*
X37252343Y-74175473D01*
X37145455Y-74270909D01*
X36970635Y-74076068D01*
X36700792Y-73574721D01*
X36496310Y-73116363D01*
X36193394Y-72446186D01*
X35926195Y-72102406D01*
X35573216Y-71977186D01*
X35195524Y-71961818D01*
X34374545Y-71961818D01*
X34374545Y-77041818D01*
X34941702Y-77041818D01*
X35235265Y-77015048D01*
X35410692Y-76868948D01*
X35505415Y-76504829D01*
X35556868Y-75824002D01*
X35576702Y-75367727D01*
X35644545Y-73693636D01*
X36192526Y-74905909D01*
X36632272Y-75712638D01*
X37023867Y-76090872D01*
X37145455Y-76118181D01*
X37516537Y-75893411D01*
X37941431Y-75232945D01*
X38098383Y-74905909D01*
X38646364Y-73693636D01*
X38714207Y-75367727D01*
X38758262Y-76231043D01*
X38828035Y-76731377D01*
X38960959Y-76967418D01*
X39194467Y-77037853D01*
X39349207Y-77041818D01*
X39916364Y-77041818D01*
X39916364Y-71961818D01*
X39095385Y-71961818D01*
X38604571Y-71996136D01*
G36*
X41492326Y-67217061D02*
G01*
X39873127Y-67510566D01*
X38375819Y-67783059D01*
X37069367Y-68021903D01*
X36022741Y-68214460D01*
X35304906Y-68348094D01*
X35009545Y-68404934D01*
X34593885Y-68546903D01*
X34413497Y-68843737D01*
X34374545Y-69440165D01*
X34407793Y-70011956D01*
X34490653Y-70325211D01*
X34521540Y-70345454D01*
X34778355Y-70305176D01*
X35429840Y-70191475D01*
X36416572Y-70015055D01*
X37679129Y-69786618D01*
X39158090Y-69516866D01*
X40794032Y-69216503D01*
X40986995Y-69180952D01*
X47305455Y-68016451D01*
X53623915Y-69180952D01*
X55281064Y-69484688D01*
X56794570Y-69758889D01*
X58103590Y-69992789D01*
X59147280Y-70175622D01*
X59864797Y-70296622D01*
X60195300Y-70345022D01*
X60204824Y-70345454D01*
X60380197Y-70142454D01*
X60465563Y-69642268D01*
X60467273Y-69550900D01*
X60410457Y-68978993D01*
X60271728Y-68638719D01*
X60252347Y-68623514D01*
X59977171Y-68548696D01*
X59307694Y-68403827D01*
X58304101Y-68200815D01*
X57026578Y-67951566D01*
X55535311Y-67667990D01*
X53890485Y-67361994D01*
X53688764Y-67324906D01*
X47340106Y-66159130D01*
X41492326Y-67217061D01*
G37*
X41492326Y-67217061D02*
X39873127Y-67510566D01*
X38375819Y-67783059D01*
X37069367Y-68021903D01*
X36022741Y-68214460D01*
X35304906Y-68348094D01*
X35009545Y-68404934D01*
X34593885Y-68546903D01*
X34413497Y-68843737D01*
X34374545Y-69440165D01*
X34407793Y-70011956D01*
X34490653Y-70325211D01*
X34521540Y-70345454D01*
X34778355Y-70305176D01*
X35429840Y-70191475D01*
X36416572Y-70015055D01*
X37679129Y-69786618D01*
X39158090Y-69516866D01*
X40794032Y-69216503D01*
X40986995Y-69180952D01*
X47305455Y-68016451D01*
X53623915Y-69180952D01*
X55281064Y-69484688D01*
X56794570Y-69758889D01*
X58103590Y-69992789D01*
X59147280Y-70175622D01*
X59864797Y-70296622D01*
X60195300Y-70345022D01*
X60204824Y-70345454D01*
X60380197Y-70142454D01*
X60465563Y-69642268D01*
X60467273Y-69550900D01*
X60410457Y-68978993D01*
X60271728Y-68638719D01*
X60252347Y-68623514D01*
X59977171Y-68548696D01*
X59307694Y-68403827D01*
X58304101Y-68200815D01*
X57026578Y-67951566D01*
X55535311Y-67667990D01*
X53890485Y-67361994D01*
X53688764Y-67324906D01*
X47340106Y-66159130D01*
X41492326Y-67217061D01*
G36*
X84492326Y-67217061D02*
G01*
X82873127Y-67510566D01*
X81375819Y-67783059D01*
X80069367Y-68021903D01*
X79022741Y-68214460D01*
X78304906Y-68348094D01*
X78009545Y-68404934D01*
X77593885Y-68546903D01*
X77413497Y-68843737D01*
X77374545Y-69440165D01*
X77407793Y-70011956D01*
X77490653Y-70325211D01*
X77521540Y-70345454D01*
X77778355Y-70305176D01*
X78429840Y-70191475D01*
X79416572Y-70015055D01*
X80679129Y-69786618D01*
X82158090Y-69516866D01*
X83794032Y-69216503D01*
X83986995Y-69180952D01*
X90305455Y-68016451D01*
X96623915Y-69180952D01*
X98281064Y-69484688D01*
X99794570Y-69758889D01*
X101103590Y-69992789D01*
X102147280Y-70175622D01*
X102864797Y-70296622D01*
X103195300Y-70345022D01*
X103204824Y-70345454D01*
X103380197Y-70142454D01*
X103465563Y-69642268D01*
X103467273Y-69550900D01*
X103410457Y-68978993D01*
X103271728Y-68638719D01*
X103252347Y-68623514D01*
X102977171Y-68548696D01*
X102307694Y-68403827D01*
X101304101Y-68200815D01*
X100026578Y-67951566D01*
X98535311Y-67667990D01*
X96890485Y-67361994D01*
X96688764Y-67324906D01*
X90340106Y-66159130D01*
X84492326Y-67217061D01*
G37*
X84492326Y-67217061D02*
X82873127Y-67510566D01*
X81375819Y-67783059D01*
X80069367Y-68021903D01*
X79022741Y-68214460D01*
X78304906Y-68348094D01*
X78009545Y-68404934D01*
X77593885Y-68546903D01*
X77413497Y-68843737D01*
X77374545Y-69440165D01*
X77407793Y-70011956D01*
X77490653Y-70325211D01*
X77521540Y-70345454D01*
X77778355Y-70305176D01*
X78429840Y-70191475D01*
X79416572Y-70015055D01*
X80679129Y-69786618D01*
X82158090Y-69516866D01*
X83794032Y-69216503D01*
X83986995Y-69180952D01*
X90305455Y-68016451D01*
X96623915Y-69180952D01*
X98281064Y-69484688D01*
X99794570Y-69758889D01*
X101103590Y-69992789D01*
X102147280Y-70175622D01*
X102864797Y-70296622D01*
X103195300Y-70345022D01*
X103204824Y-70345454D01*
X103380197Y-70142454D01*
X103465563Y-69642268D01*
X103467273Y-69550900D01*
X103410457Y-68978993D01*
X103271728Y-68638719D01*
X103252347Y-68623514D01*
X102977171Y-68548696D01*
X102307694Y-68403827D01*
X101304101Y-68200815D01*
X100026578Y-67951566D01*
X98535311Y-67667990D01*
X96890485Y-67361994D01*
X96688764Y-67324906D01*
X90340106Y-66159130D01*
X84492326Y-67217061D01*
G36*
X81604571Y-71996136D02*
G01*
X81287452Y-72170983D01*
X81022530Y-72594195D01*
X80794599Y-73116363D01*
X80500109Y-73756220D01*
X80252343Y-74175473D01*
X80145455Y-74270909D01*
X79970635Y-74076068D01*
X79700792Y-73574721D01*
X79496310Y-73116363D01*
X79193394Y-72446186D01*
X78926195Y-72102406D01*
X78573216Y-71977186D01*
X78195524Y-71961818D01*
X77374545Y-71961818D01*
X77374545Y-77041818D01*
X77941702Y-77041818D01*
X78235265Y-77015048D01*
X78410692Y-76868948D01*
X78505415Y-76504829D01*
X78556868Y-75824002D01*
X78576702Y-75367727D01*
X78644545Y-73693636D01*
X79192526Y-74905909D01*
X79632272Y-75712638D01*
X80023867Y-76090872D01*
X80145455Y-76118181D01*
X80516537Y-75893411D01*
X80941431Y-75232945D01*
X81098383Y-74905909D01*
X81646364Y-73693636D01*
X81714207Y-75367727D01*
X81758262Y-76231043D01*
X81828035Y-76731377D01*
X81960959Y-76967418D01*
X82194467Y-77037853D01*
X82349207Y-77041818D01*
X82916364Y-77041818D01*
X82916364Y-71961818D01*
X82095385Y-71961818D01*
X81604571Y-71996136D01*
G37*
X81604571Y-71996136D02*
X81287452Y-72170983D01*
X81022530Y-72594195D01*
X80794599Y-73116363D01*
X80500109Y-73756220D01*
X80252343Y-74175473D01*
X80145455Y-74270909D01*
X79970635Y-74076068D01*
X79700792Y-73574721D01*
X79496310Y-73116363D01*
X79193394Y-72446186D01*
X78926195Y-72102406D01*
X78573216Y-71977186D01*
X78195524Y-71961818D01*
X77374545Y-71961818D01*
X77374545Y-77041818D01*
X77941702Y-77041818D01*
X78235265Y-77015048D01*
X78410692Y-76868948D01*
X78505415Y-76504829D01*
X78556868Y-75824002D01*
X78576702Y-75367727D01*
X78644545Y-73693636D01*
X79192526Y-74905909D01*
X79632272Y-75712638D01*
X80023867Y-76090872D01*
X80145455Y-76118181D01*
X80516537Y-75893411D01*
X80941431Y-75232945D01*
X81098383Y-74905909D01*
X81646364Y-73693636D01*
X81714207Y-75367727D01*
X81758262Y-76231043D01*
X81828035Y-76731377D01*
X81960959Y-76967418D01*
X82194467Y-77037853D01*
X82349207Y-77041818D01*
X82916364Y-77041818D01*
X82916364Y-71961818D01*
X82095385Y-71961818D01*
X81604571Y-71996136D01*
G36*
X84987335Y-71986845D02*
G01*
X84266254Y-72096570D01*
X83954490Y-72342964D01*
X84027933Y-72777993D01*
X84462471Y-73453626D01*
X85084818Y-74240129D01*
X85662589Y-74961922D01*
X86107553Y-75547470D01*
X86352701Y-75907237D01*
X86380000Y-75970704D01*
X86171127Y-76051485D01*
X85632342Y-76105052D01*
X85110000Y-76118181D01*
X84376069Y-76138226D01*
X83993733Y-76224894D01*
X83853545Y-76417981D01*
X83840000Y-76580000D01*
X83873125Y-76794643D01*
X84029609Y-76930110D01*
X84395119Y-77004437D01*
X85055321Y-77035658D01*
X86033636Y-77041818D01*
X87059002Y-77033022D01*
X87706761Y-76996120D01*
X88060960Y-76915343D01*
X88205644Y-76774919D01*
X88227273Y-76630205D01*
X88086267Y-76273596D01*
X87710206Y-75678026D01*
X87169529Y-74950873D01*
X86939785Y-74667477D01*
X85652297Y-73116363D01*
X86939785Y-73116363D01*
X87673374Y-73101850D01*
X88057595Y-73024744D01*
X88204734Y-72834701D01*
X88227273Y-72539091D01*
X88210812Y-72266199D01*
X88102286Y-72096586D01*
X87812980Y-72005696D01*
X87254179Y-71968969D01*
X86337167Y-71961850D01*
X86141844Y-71961818D01*
X84987335Y-71986845D01*
G37*
X84987335Y-71986845D02*
X84266254Y-72096570D01*
X83954490Y-72342964D01*
X84027933Y-72777993D01*
X84462471Y-73453626D01*
X85084818Y-74240129D01*
X85662589Y-74961922D01*
X86107553Y-75547470D01*
X86352701Y-75907237D01*
X86380000Y-75970704D01*
X86171127Y-76051485D01*
X85632342Y-76105052D01*
X85110000Y-76118181D01*
X84376069Y-76138226D01*
X83993733Y-76224894D01*
X83853545Y-76417981D01*
X83840000Y-76580000D01*
X83873125Y-76794643D01*
X84029609Y-76930110D01*
X84395119Y-77004437D01*
X85055321Y-77035658D01*
X86033636Y-77041818D01*
X87059002Y-77033022D01*
X87706761Y-76996120D01*
X88060960Y-76915343D01*
X88205644Y-76774919D01*
X88227273Y-76630205D01*
X88086267Y-76273596D01*
X87710206Y-75678026D01*
X87169529Y-74950873D01*
X86939785Y-74667477D01*
X85652297Y-73116363D01*
X86939785Y-73116363D01*
X87673374Y-73101850D01*
X88057595Y-73024744D01*
X88204734Y-72834701D01*
X88227273Y-72539091D01*
X88210812Y-72266199D01*
X88102286Y-72096586D01*
X87812980Y-72005696D01*
X87254179Y-71968969D01*
X86337167Y-71961850D01*
X86141844Y-71961818D01*
X84987335Y-71986845D01*
G36*
X92556818Y-71963106D02*
G01*
X91107982Y-72103587D01*
X90019507Y-72517315D01*
X89298508Y-73199123D01*
X88952100Y-74143840D01*
X88920000Y-74604872D01*
X89100493Y-75616709D01*
X89645426Y-76355900D01*
X90559985Y-76826202D01*
X91849353Y-77031370D01*
X92283214Y-77041818D01*
X93538182Y-77041818D01*
X93538182Y-74621672D01*
X92152727Y-74621672D01*
X92152727Y-76126980D01*
X91517727Y-75975287D01*
X90941673Y-75783473D01*
X90594091Y-75596250D01*
X90367634Y-75169201D01*
X90318477Y-74527147D01*
X90439316Y-73878403D01*
X90668312Y-73479220D01*
X91183585Y-73189040D01*
X91591948Y-73116363D01*
X91893181Y-73144690D01*
X92061164Y-73299044D01*
X92134663Y-73683485D01*
X92152443Y-74402073D01*
X92152727Y-74621672D01*
X93538182Y-74621672D01*
X93538182Y-71961818D01*
X92556818Y-71963106D01*
G37*
X92556818Y-71963106D02*
X91107982Y-72103587D01*
X90019507Y-72517315D01*
X89298508Y-73199123D01*
X88952100Y-74143840D01*
X88920000Y-74604872D01*
X89100493Y-75616709D01*
X89645426Y-76355900D01*
X90559985Y-76826202D01*
X91849353Y-77031370D01*
X92283214Y-77041818D01*
X93538182Y-77041818D01*
X93538182Y-74621672D01*
X92152727Y-74621672D01*
X92152727Y-76126980D01*
X91517727Y-75975287D01*
X90941673Y-75783473D01*
X90594091Y-75596250D01*
X90367634Y-75169201D01*
X90318477Y-74527147D01*
X90439316Y-73878403D01*
X90668312Y-73479220D01*
X91183585Y-73189040D01*
X91591948Y-73116363D01*
X91893181Y-73144690D01*
X92061164Y-73299044D01*
X92134663Y-73683485D01*
X92152443Y-74402073D01*
X92152727Y-74621672D01*
X93538182Y-74621672D01*
X93538182Y-71961818D01*
X92556818Y-71963106D01*
G36*
X96642837Y-72046235D02*
G01*
X95764684Y-72276401D01*
X95193038Y-72617685D01*
X95105054Y-72726718D01*
X94934390Y-73382505D01*
X95127254Y-74069532D01*
X95290102Y-74293121D01*
X95491165Y-74577610D01*
X95479224Y-74871679D01*
X95227204Y-75325884D01*
X95059193Y-75577178D01*
X94615248Y-76312785D01*
X94496480Y-76768546D01*
X94704158Y-76993792D01*
X95096818Y-77041194D01*
X95584610Y-76936356D01*
X95972164Y-76551108D01*
X96193636Y-76178010D01*
X96572771Y-75620334D01*
X96957725Y-75277117D01*
X97059545Y-75238066D01*
X97321578Y-75269813D01*
X97439795Y-75568632D01*
X97463636Y-76101250D01*
X97489728Y-76700492D01*
X97632454Y-76969616D01*
X97988494Y-77039887D01*
X98156364Y-77041818D01*
X98849091Y-77041818D01*
X98849091Y-73709696D01*
X97463636Y-73709696D01*
X97388255Y-74142177D01*
X97083953Y-74243785D01*
X96944091Y-74229241D01*
X96477274Y-73966292D01*
X96350758Y-73635909D01*
X96381730Y-73247837D01*
X96711239Y-73121022D01*
X96870304Y-73116363D01*
X97316807Y-73204860D01*
X97459257Y-73562941D01*
X97463636Y-73709696D01*
X98849091Y-73709696D01*
X98849091Y-71961818D01*
X97709578Y-71961818D01*
X96642837Y-72046235D01*
G37*
X96642837Y-72046235D02*
X95764684Y-72276401D01*
X95193038Y-72617685D01*
X95105054Y-72726718D01*
X94934390Y-73382505D01*
X95127254Y-74069532D01*
X95290102Y-74293121D01*
X95491165Y-74577610D01*
X95479224Y-74871679D01*
X95227204Y-75325884D01*
X95059193Y-75577178D01*
X94615248Y-76312785D01*
X94496480Y-76768546D01*
X94704158Y-76993792D01*
X95096818Y-77041194D01*
X95584610Y-76936356D01*
X95972164Y-76551108D01*
X96193636Y-76178010D01*
X96572771Y-75620334D01*
X96957725Y-75277117D01*
X97059545Y-75238066D01*
X97321578Y-75269813D01*
X97439795Y-75568632D01*
X97463636Y-76101250D01*
X97489728Y-76700492D01*
X97632454Y-76969616D01*
X97988494Y-77039887D01*
X98156364Y-77041818D01*
X98849091Y-77041818D01*
X98849091Y-73709696D01*
X97463636Y-73709696D01*
X97388255Y-74142177D01*
X97083953Y-74243785D01*
X96944091Y-74229241D01*
X96477274Y-73966292D01*
X96350758Y-73635909D01*
X96381730Y-73247837D01*
X96711239Y-73121022D01*
X96870304Y-73116363D01*
X97316807Y-73204860D01*
X97459257Y-73562941D01*
X97463636Y-73709696D01*
X98849091Y-73709696D01*
X98849091Y-71961818D01*
X97709578Y-71961818D01*
X96642837Y-72046235D01*
G36*
X103484909Y-71998292D02*
G01*
X103287451Y-72195944D01*
X103237457Y-72687122D01*
X103236364Y-72885454D01*
X103236364Y-73809091D01*
X101389091Y-73809091D01*
X101389091Y-72870117D01*
X101364956Y-72275193D01*
X101233747Y-72021424D01*
X100907262Y-71988531D01*
X100754091Y-72004208D01*
X100119091Y-72077272D01*
X100053552Y-74559545D01*
X99988012Y-77041818D01*
X100688552Y-77041818D01*
X101119278Y-77012352D01*
X101323280Y-76840367D01*
X101385084Y-76400487D01*
X101389091Y-76002727D01*
X101389091Y-74963636D01*
X103236364Y-74963636D01*
X103236364Y-76002727D01*
X103256445Y-76641680D01*
X103372390Y-76944309D01*
X103667753Y-77035944D01*
X103929091Y-77041818D01*
X104621818Y-77041818D01*
X104621818Y-71961818D01*
X103929091Y-71961818D01*
X103484909Y-71998292D01*
G37*
X103484909Y-71998292D02*
X103287451Y-72195944D01*
X103237457Y-72687122D01*
X103236364Y-72885454D01*
X103236364Y-73809091D01*
X101389091Y-73809091D01*
X101389091Y-72870117D01*
X101364956Y-72275193D01*
X101233747Y-72021424D01*
X100907262Y-71988531D01*
X100754091Y-72004208D01*
X100119091Y-72077272D01*
X100053552Y-74559545D01*
X99988012Y-77041818D01*
X100688552Y-77041818D01*
X101119278Y-77012352D01*
X101323280Y-76840367D01*
X101385084Y-76400487D01*
X101389091Y-76002727D01*
X101389091Y-74963636D01*
X103236364Y-74963636D01*
X103236364Y-76002727D01*
X103256445Y-76641680D01*
X103372390Y-76944309D01*
X103667753Y-77035944D01*
X103929091Y-77041818D01*
X104621818Y-77041818D01*
X104621818Y-71961818D01*
X103929091Y-71961818D01*
X103484909Y-71998292D01*
G36*
X105834091Y-67259720D02*
G01*
X105189823Y-67840303D01*
X104826172Y-68270803D01*
X104663573Y-68690181D01*
X104622463Y-69237399D01*
X104621818Y-69376992D01*
X104621818Y-70445133D01*
X105839933Y-69242149D01*
X107058048Y-68039166D01*
X107801539Y-68782657D01*
X108545029Y-69526148D01*
X107267906Y-70816738D01*
X105990782Y-72107328D01*
X106056755Y-74590599D01*
X106122727Y-77073871D01*
X106757727Y-76410209D01*
X107100825Y-76000821D01*
X107292543Y-75576390D01*
X107375590Y-74984816D01*
X107392727Y-74148614D01*
X107392727Y-72550680D01*
X108893628Y-71038189D01*
X110394530Y-69525698D01*
X107046364Y-66210588D01*
X105834091Y-67259720D01*
G37*
X105834091Y-67259720D02*
X105189823Y-67840303D01*
X104826172Y-68270803D01*
X104663573Y-68690181D01*
X104622463Y-69237399D01*
X104621818Y-69376992D01*
X104621818Y-70445133D01*
X105839933Y-69242149D01*
X107058048Y-68039166D01*
X107801539Y-68782657D01*
X108545029Y-69526148D01*
X107267906Y-70816738D01*
X105990782Y-72107328D01*
X106056755Y-74590599D01*
X106122727Y-77073871D01*
X106757727Y-76410209D01*
X107100825Y-76000821D01*
X107292543Y-75576390D01*
X107375590Y-74984816D01*
X107392727Y-74148614D01*
X107392727Y-72550680D01*
X108893628Y-71038189D01*
X110394530Y-69525698D01*
X107046364Y-66210588D01*
X105834091Y-67259720D01*
G36*
X41492326Y-47217061D02*
G01*
X39873127Y-47510566D01*
X38375819Y-47783059D01*
X37069367Y-48021903D01*
X36022741Y-48214460D01*
X35304906Y-48348094D01*
X35009545Y-48404934D01*
X34593885Y-48546903D01*
X34413497Y-48843737D01*
X34374545Y-49440165D01*
X34407793Y-50011956D01*
X34490653Y-50325211D01*
X34521540Y-50345454D01*
X34778355Y-50305176D01*
X35429840Y-50191475D01*
X36416572Y-50015055D01*
X37679129Y-49786618D01*
X39158090Y-49516866D01*
X40794032Y-49216503D01*
X40986995Y-49180952D01*
X47305455Y-48016451D01*
X53623915Y-49180952D01*
X55281064Y-49484688D01*
X56794570Y-49758889D01*
X58103590Y-49992789D01*
X59147280Y-50175622D01*
X59864797Y-50296622D01*
X60195300Y-50345022D01*
X60204824Y-50345454D01*
X60380197Y-50142454D01*
X60465563Y-49642268D01*
X60467273Y-49550900D01*
X60410457Y-48978993D01*
X60271728Y-48638719D01*
X60252347Y-48623514D01*
X59977171Y-48548696D01*
X59307694Y-48403827D01*
X58304101Y-48200815D01*
X57026578Y-47951566D01*
X55535311Y-47667990D01*
X53890485Y-47361994D01*
X53688764Y-47324906D01*
X47340106Y-46159130D01*
X41492326Y-47217061D01*
G37*
X41492326Y-47217061D02*
X39873127Y-47510566D01*
X38375819Y-47783059D01*
X37069367Y-48021903D01*
X36022741Y-48214460D01*
X35304906Y-48348094D01*
X35009545Y-48404934D01*
X34593885Y-48546903D01*
X34413497Y-48843737D01*
X34374545Y-49440165D01*
X34407793Y-50011956D01*
X34490653Y-50325211D01*
X34521540Y-50345454D01*
X34778355Y-50305176D01*
X35429840Y-50191475D01*
X36416572Y-50015055D01*
X37679129Y-49786618D01*
X39158090Y-49516866D01*
X40794032Y-49216503D01*
X40986995Y-49180952D01*
X47305455Y-48016451D01*
X53623915Y-49180952D01*
X55281064Y-49484688D01*
X56794570Y-49758889D01*
X58103590Y-49992789D01*
X59147280Y-50175622D01*
X59864797Y-50296622D01*
X60195300Y-50345022D01*
X60204824Y-50345454D01*
X60380197Y-50142454D01*
X60465563Y-49642268D01*
X60467273Y-49550900D01*
X60410457Y-48978993D01*
X60271728Y-48638719D01*
X60252347Y-48623514D01*
X59977171Y-48548696D01*
X59307694Y-48403827D01*
X58304101Y-48200815D01*
X57026578Y-47951566D01*
X55535311Y-47667990D01*
X53890485Y-47361994D01*
X53688764Y-47324906D01*
X47340106Y-46159130D01*
X41492326Y-47217061D01*
G36*
X38604571Y-51996136D02*
G01*
X38287452Y-52170983D01*
X38022530Y-52594195D01*
X37794599Y-53116363D01*
X37500109Y-53756220D01*
X37252343Y-54175473D01*
X37145455Y-54270909D01*
X36970635Y-54076068D01*
X36700792Y-53574721D01*
X36496310Y-53116363D01*
X36193394Y-52446186D01*
X35926195Y-52102406D01*
X35573216Y-51977186D01*
X35195524Y-51961818D01*
X34374545Y-51961818D01*
X34374545Y-57041818D01*
X34941702Y-57041818D01*
X35235265Y-57015048D01*
X35410692Y-56868948D01*
X35505415Y-56504829D01*
X35556868Y-55824002D01*
X35576702Y-55367727D01*
X35644545Y-53693636D01*
X36192526Y-54905909D01*
X36632272Y-55712638D01*
X37023867Y-56090872D01*
X37145455Y-56118181D01*
X37516537Y-55893411D01*
X37941431Y-55232945D01*
X38098383Y-54905909D01*
X38646364Y-53693636D01*
X38714207Y-55367727D01*
X38758262Y-56231043D01*
X38828035Y-56731377D01*
X38960959Y-56967418D01*
X39194467Y-57037853D01*
X39349207Y-57041818D01*
X39916364Y-57041818D01*
X39916364Y-51961818D01*
X39095385Y-51961818D01*
X38604571Y-51996136D01*
G37*
X38604571Y-51996136D02*
X38287452Y-52170983D01*
X38022530Y-52594195D01*
X37794599Y-53116363D01*
X37500109Y-53756220D01*
X37252343Y-54175473D01*
X37145455Y-54270909D01*
X36970635Y-54076068D01*
X36700792Y-53574721D01*
X36496310Y-53116363D01*
X36193394Y-52446186D01*
X35926195Y-52102406D01*
X35573216Y-51977186D01*
X35195524Y-51961818D01*
X34374545Y-51961818D01*
X34374545Y-57041818D01*
X34941702Y-57041818D01*
X35235265Y-57015048D01*
X35410692Y-56868948D01*
X35505415Y-56504829D01*
X35556868Y-55824002D01*
X35576702Y-55367727D01*
X35644545Y-53693636D01*
X36192526Y-54905909D01*
X36632272Y-55712638D01*
X37023867Y-56090872D01*
X37145455Y-56118181D01*
X37516537Y-55893411D01*
X37941431Y-55232945D01*
X38098383Y-54905909D01*
X38646364Y-53693636D01*
X38714207Y-55367727D01*
X38758262Y-56231043D01*
X38828035Y-56731377D01*
X38960959Y-56967418D01*
X39194467Y-57037853D01*
X39349207Y-57041818D01*
X39916364Y-57041818D01*
X39916364Y-51961818D01*
X39095385Y-51961818D01*
X38604571Y-51996136D01*
G36*
X41987335Y-51986845D02*
G01*
X41266254Y-52096570D01*
X40954490Y-52342964D01*
X41027933Y-52777993D01*
X41462471Y-53453626D01*
X42084818Y-54240129D01*
X42662589Y-54961922D01*
X43107553Y-55547470D01*
X43352701Y-55907237D01*
X43380000Y-55970704D01*
X43171127Y-56051485D01*
X42632342Y-56105052D01*
X42110000Y-56118181D01*
X41376069Y-56138226D01*
X40993733Y-56224894D01*
X40853545Y-56417981D01*
X40840000Y-56580000D01*
X40873125Y-56794643D01*
X41029609Y-56930110D01*
X41395119Y-57004437D01*
X42055321Y-57035658D01*
X43033636Y-57041818D01*
X44059002Y-57033022D01*
X44706761Y-56996120D01*
X45060960Y-56915343D01*
X45205644Y-56774919D01*
X45227273Y-56630205D01*
X45086267Y-56273596D01*
X44710206Y-55678026D01*
X44169529Y-54950873D01*
X43939785Y-54667477D01*
X42652297Y-53116363D01*
X43939785Y-53116363D01*
X44673374Y-53101850D01*
X45057595Y-53024744D01*
X45204734Y-52834701D01*
X45227273Y-52539091D01*
X45210812Y-52266199D01*
X45102286Y-52096586D01*
X44812980Y-52005696D01*
X44254179Y-51968969D01*
X43337167Y-51961850D01*
X43141844Y-51961818D01*
X41987335Y-51986845D01*
G37*
X41987335Y-51986845D02*
X41266254Y-52096570D01*
X40954490Y-52342964D01*
X41027933Y-52777993D01*
X41462471Y-53453626D01*
X42084818Y-54240129D01*
X42662589Y-54961922D01*
X43107553Y-55547470D01*
X43352701Y-55907237D01*
X43380000Y-55970704D01*
X43171127Y-56051485D01*
X42632342Y-56105052D01*
X42110000Y-56118181D01*
X41376069Y-56138226D01*
X40993733Y-56224894D01*
X40853545Y-56417981D01*
X40840000Y-56580000D01*
X40873125Y-56794643D01*
X41029609Y-56930110D01*
X41395119Y-57004437D01*
X42055321Y-57035658D01*
X43033636Y-57041818D01*
X44059002Y-57033022D01*
X44706761Y-56996120D01*
X45060960Y-56915343D01*
X45205644Y-56774919D01*
X45227273Y-56630205D01*
X45086267Y-56273596D01*
X44710206Y-55678026D01*
X44169529Y-54950873D01*
X43939785Y-54667477D01*
X42652297Y-53116363D01*
X43939785Y-53116363D01*
X44673374Y-53101850D01*
X45057595Y-53024744D01*
X45204734Y-52834701D01*
X45227273Y-52539091D01*
X45210812Y-52266199D01*
X45102286Y-52096586D01*
X44812980Y-52005696D01*
X44254179Y-51968969D01*
X43337167Y-51961850D01*
X43141844Y-51961818D01*
X41987335Y-51986845D01*
G36*
X49556818Y-51963106D02*
G01*
X48107982Y-52103587D01*
X47019507Y-52517315D01*
X46298508Y-53199123D01*
X45952100Y-54143840D01*
X45920000Y-54604872D01*
X46100493Y-55616709D01*
X46645426Y-56355900D01*
X47559985Y-56826202D01*
X48849353Y-57031370D01*
X49283214Y-57041818D01*
X50538182Y-57041818D01*
X50538182Y-54621672D01*
X49152727Y-54621672D01*
X49152727Y-56126980D01*
X48517727Y-55975287D01*
X47941673Y-55783473D01*
X47594091Y-55596250D01*
X47367634Y-55169201D01*
X47318477Y-54527147D01*
X47439316Y-53878403D01*
X47668312Y-53479220D01*
X48183585Y-53189040D01*
X48591948Y-53116363D01*
X48893181Y-53144690D01*
X49061164Y-53299044D01*
X49134663Y-53683485D01*
X49152443Y-54402073D01*
X49152727Y-54621672D01*
X50538182Y-54621672D01*
X50538182Y-51961818D01*
X49556818Y-51963106D01*
G37*
X49556818Y-51963106D02*
X48107982Y-52103587D01*
X47019507Y-52517315D01*
X46298508Y-53199123D01*
X45952100Y-54143840D01*
X45920000Y-54604872D01*
X46100493Y-55616709D01*
X46645426Y-56355900D01*
X47559985Y-56826202D01*
X48849353Y-57031370D01*
X49283214Y-57041818D01*
X50538182Y-57041818D01*
X50538182Y-54621672D01*
X49152727Y-54621672D01*
X49152727Y-56126980D01*
X48517727Y-55975287D01*
X47941673Y-55783473D01*
X47594091Y-55596250D01*
X47367634Y-55169201D01*
X47318477Y-54527147D01*
X47439316Y-53878403D01*
X47668312Y-53479220D01*
X48183585Y-53189040D01*
X48591948Y-53116363D01*
X48893181Y-53144690D01*
X49061164Y-53299044D01*
X49134663Y-53683485D01*
X49152443Y-54402073D01*
X49152727Y-54621672D01*
X50538182Y-54621672D01*
X50538182Y-51961818D01*
X49556818Y-51963106D01*
G36*
X53642837Y-52046235D02*
G01*
X52764684Y-52276401D01*
X52193038Y-52617685D01*
X52105054Y-52726718D01*
X51934390Y-53382505D01*
X52127254Y-54069532D01*
X52290102Y-54293121D01*
X52491165Y-54577610D01*
X52479224Y-54871679D01*
X52227204Y-55325884D01*
X52059193Y-55577178D01*
X51615248Y-56312785D01*
X51496480Y-56768546D01*
X51704158Y-56993792D01*
X52096818Y-57041194D01*
X52584610Y-56936356D01*
X52972164Y-56551108D01*
X53193636Y-56178010D01*
X53572771Y-55620334D01*
X53957725Y-55277117D01*
X54059545Y-55238066D01*
X54321578Y-55269813D01*
X54439795Y-55568632D01*
X54463636Y-56101250D01*
X54489728Y-56700492D01*
X54632454Y-56969616D01*
X54988494Y-57039887D01*
X55156364Y-57041818D01*
X55849091Y-57041818D01*
X55849091Y-53709696D01*
X54463636Y-53709696D01*
X54388255Y-54142177D01*
X54083953Y-54243785D01*
X53944091Y-54229241D01*
X53477274Y-53966292D01*
X53350758Y-53635909D01*
X53381730Y-53247837D01*
X53711239Y-53121022D01*
X53870304Y-53116363D01*
X54316807Y-53204860D01*
X54459257Y-53562941D01*
X54463636Y-53709696D01*
X55849091Y-53709696D01*
X55849091Y-51961818D01*
X54709578Y-51961818D01*
X53642837Y-52046235D01*
G37*
X53642837Y-52046235D02*
X52764684Y-52276401D01*
X52193038Y-52617685D01*
X52105054Y-52726718D01*
X51934390Y-53382505D01*
X52127254Y-54069532D01*
X52290102Y-54293121D01*
X52491165Y-54577610D01*
X52479224Y-54871679D01*
X52227204Y-55325884D01*
X52059193Y-55577178D01*
X51615248Y-56312785D01*
X51496480Y-56768546D01*
X51704158Y-56993792D01*
X52096818Y-57041194D01*
X52584610Y-56936356D01*
X52972164Y-56551108D01*
X53193636Y-56178010D01*
X53572771Y-55620334D01*
X53957725Y-55277117D01*
X54059545Y-55238066D01*
X54321578Y-55269813D01*
X54439795Y-55568632D01*
X54463636Y-56101250D01*
X54489728Y-56700492D01*
X54632454Y-56969616D01*
X54988494Y-57039887D01*
X55156364Y-57041818D01*
X55849091Y-57041818D01*
X55849091Y-53709696D01*
X54463636Y-53709696D01*
X54388255Y-54142177D01*
X54083953Y-54243785D01*
X53944091Y-54229241D01*
X53477274Y-53966292D01*
X53350758Y-53635909D01*
X53381730Y-53247837D01*
X53711239Y-53121022D01*
X53870304Y-53116363D01*
X54316807Y-53204860D01*
X54459257Y-53562941D01*
X54463636Y-53709696D01*
X55849091Y-53709696D01*
X55849091Y-51961818D01*
X54709578Y-51961818D01*
X53642837Y-52046235D01*
G36*
X60484909Y-51998292D02*
G01*
X60287451Y-52195944D01*
X60237457Y-52687122D01*
X60236364Y-52885454D01*
X60236364Y-53809091D01*
X58389091Y-53809091D01*
X58389091Y-52870117D01*
X58364956Y-52275193D01*
X58233747Y-52021424D01*
X57907262Y-51988531D01*
X57754091Y-52004208D01*
X57119091Y-52077272D01*
X57053552Y-54559545D01*
X56988012Y-57041818D01*
X57688552Y-57041818D01*
X58119278Y-57012352D01*
X58323280Y-56840367D01*
X58385084Y-56400487D01*
X58389091Y-56002727D01*
X58389091Y-54963636D01*
X60236364Y-54963636D01*
X60236364Y-56002727D01*
X60256445Y-56641680D01*
X60372390Y-56944309D01*
X60667753Y-57035944D01*
X60929091Y-57041818D01*
X61621818Y-57041818D01*
X61621818Y-51961818D01*
X60929091Y-51961818D01*
X60484909Y-51998292D01*
G37*
X60484909Y-51998292D02*
X60287451Y-52195944D01*
X60237457Y-52687122D01*
X60236364Y-52885454D01*
X60236364Y-53809091D01*
X58389091Y-53809091D01*
X58389091Y-52870117D01*
X58364956Y-52275193D01*
X58233747Y-52021424D01*
X57907262Y-51988531D01*
X57754091Y-52004208D01*
X57119091Y-52077272D01*
X57053552Y-54559545D01*
X56988012Y-57041818D01*
X57688552Y-57041818D01*
X58119278Y-57012352D01*
X58323280Y-56840367D01*
X58385084Y-56400487D01*
X58389091Y-56002727D01*
X58389091Y-54963636D01*
X60236364Y-54963636D01*
X60236364Y-56002727D01*
X60256445Y-56641680D01*
X60372390Y-56944309D01*
X60667753Y-57035944D01*
X60929091Y-57041818D01*
X61621818Y-57041818D01*
X61621818Y-51961818D01*
X60929091Y-51961818D01*
X60484909Y-51998292D01*
G36*
X62834091Y-47259720D02*
G01*
X62189823Y-47840303D01*
X61826172Y-48270803D01*
X61663573Y-48690181D01*
X61622463Y-49237399D01*
X61621818Y-49376992D01*
X61621818Y-50445133D01*
X62839933Y-49242149D01*
X64058048Y-48039166D01*
X64801539Y-48782657D01*
X65545029Y-49526148D01*
X64267906Y-50816738D01*
X62990782Y-52107328D01*
X63056755Y-54590599D01*
X63122727Y-57073871D01*
X63757727Y-56410209D01*
X64100825Y-56000821D01*
X64292543Y-55576390D01*
X64375590Y-54984816D01*
X64392727Y-54148614D01*
X64392727Y-52550680D01*
X65893628Y-51038189D01*
X67394530Y-49525698D01*
X64046364Y-46210588D01*
X62834091Y-47259720D01*
G37*
X62834091Y-47259720D02*
X62189823Y-47840303D01*
X61826172Y-48270803D01*
X61663573Y-48690181D01*
X61622463Y-49237399D01*
X61621818Y-49376992D01*
X61621818Y-50445133D01*
X62839933Y-49242149D01*
X64058048Y-48039166D01*
X64801539Y-48782657D01*
X65545029Y-49526148D01*
X64267906Y-50816738D01*
X62990782Y-52107328D01*
X63056755Y-54590599D01*
X63122727Y-57073871D01*
X63757727Y-56410209D01*
X64100825Y-56000821D01*
X64292543Y-55576390D01*
X64375590Y-54984816D01*
X64392727Y-54148614D01*
X64392727Y-52550680D01*
X65893628Y-51038189D01*
X67394530Y-49525698D01*
X64046364Y-46210588D01*
X62834091Y-47259720D01*
G36*
X105834091Y-47259720D02*
G01*
X105189823Y-47840303D01*
X104826172Y-48270803D01*
X104663573Y-48690181D01*
X104622463Y-49237399D01*
X104621818Y-49376992D01*
X104621818Y-50445133D01*
X105839933Y-49242149D01*
X107058048Y-48039166D01*
X107801539Y-48782657D01*
X108545029Y-49526148D01*
X107267906Y-50816738D01*
X105990782Y-52107328D01*
X106056755Y-54590599D01*
X106122727Y-57073871D01*
X106757727Y-56410209D01*
X107100825Y-56000821D01*
X107292543Y-55576390D01*
X107375590Y-54984816D01*
X107392727Y-54148614D01*
X107392727Y-52550680D01*
X108893628Y-51038189D01*
X110394530Y-49525698D01*
X107046364Y-46210588D01*
X105834091Y-47259720D01*
G37*
X105834091Y-47259720D02*
X105189823Y-47840303D01*
X104826172Y-48270803D01*
X104663573Y-48690181D01*
X104622463Y-49237399D01*
X104621818Y-49376992D01*
X104621818Y-50445133D01*
X105839933Y-49242149D01*
X107058048Y-48039166D01*
X107801539Y-48782657D01*
X108545029Y-49526148D01*
X107267906Y-50816738D01*
X105990782Y-52107328D01*
X106056755Y-54590599D01*
X106122727Y-57073871D01*
X106757727Y-56410209D01*
X107100825Y-56000821D01*
X107292543Y-55576390D01*
X107375590Y-54984816D01*
X107392727Y-54148614D01*
X107392727Y-52550680D01*
X108893628Y-51038189D01*
X110394530Y-49525698D01*
X107046364Y-46210588D01*
X105834091Y-47259720D01*
G36*
X103484909Y-51998292D02*
G01*
X103287451Y-52195944D01*
X103237457Y-52687122D01*
X103236364Y-52885454D01*
X103236364Y-53809091D01*
X101389091Y-53809091D01*
X101389091Y-52870117D01*
X101364956Y-52275193D01*
X101233747Y-52021424D01*
X100907262Y-51988531D01*
X100754091Y-52004208D01*
X100119091Y-52077272D01*
X100053552Y-54559545D01*
X99988012Y-57041818D01*
X100688552Y-57041818D01*
X101119278Y-57012352D01*
X101323280Y-56840367D01*
X101385084Y-56400487D01*
X101389091Y-56002727D01*
X101389091Y-54963636D01*
X103236364Y-54963636D01*
X103236364Y-56002727D01*
X103256445Y-56641680D01*
X103372390Y-56944309D01*
X103667753Y-57035944D01*
X103929091Y-57041818D01*
X104621818Y-57041818D01*
X104621818Y-51961818D01*
X103929091Y-51961818D01*
X103484909Y-51998292D01*
G37*
X103484909Y-51998292D02*
X103287451Y-52195944D01*
X103237457Y-52687122D01*
X103236364Y-52885454D01*
X103236364Y-53809091D01*
X101389091Y-53809091D01*
X101389091Y-52870117D01*
X101364956Y-52275193D01*
X101233747Y-52021424D01*
X100907262Y-51988531D01*
X100754091Y-52004208D01*
X100119091Y-52077272D01*
X100053552Y-54559545D01*
X99988012Y-57041818D01*
X100688552Y-57041818D01*
X101119278Y-57012352D01*
X101323280Y-56840367D01*
X101385084Y-56400487D01*
X101389091Y-56002727D01*
X101389091Y-54963636D01*
X103236364Y-54963636D01*
X103236364Y-56002727D01*
X103256445Y-56641680D01*
X103372390Y-56944309D01*
X103667753Y-57035944D01*
X103929091Y-57041818D01*
X104621818Y-57041818D01*
X104621818Y-51961818D01*
X103929091Y-51961818D01*
X103484909Y-51998292D01*
G36*
X96642837Y-52046235D02*
G01*
X95764684Y-52276401D01*
X95193038Y-52617685D01*
X95105054Y-52726718D01*
X94934390Y-53382505D01*
X95127254Y-54069532D01*
X95290102Y-54293121D01*
X95491165Y-54577610D01*
X95479224Y-54871679D01*
X95227204Y-55325884D01*
X95059193Y-55577178D01*
X94615248Y-56312785D01*
X94496480Y-56768546D01*
X94704158Y-56993792D01*
X95096818Y-57041194D01*
X95584610Y-56936356D01*
X95972164Y-56551108D01*
X96193636Y-56178010D01*
X96572771Y-55620334D01*
X96957725Y-55277117D01*
X97059545Y-55238066D01*
X97321578Y-55269813D01*
X97439795Y-55568632D01*
X97463636Y-56101250D01*
X97489728Y-56700492D01*
X97632454Y-56969616D01*
X97988494Y-57039887D01*
X98156364Y-57041818D01*
X98849091Y-57041818D01*
X98849091Y-53709696D01*
X97463636Y-53709696D01*
X97388255Y-54142177D01*
X97083953Y-54243785D01*
X96944091Y-54229241D01*
X96477274Y-53966292D01*
X96350758Y-53635909D01*
X96381730Y-53247837D01*
X96711239Y-53121022D01*
X96870304Y-53116363D01*
X97316807Y-53204860D01*
X97459257Y-53562941D01*
X97463636Y-53709696D01*
X98849091Y-53709696D01*
X98849091Y-51961818D01*
X97709578Y-51961818D01*
X96642837Y-52046235D01*
G37*
X96642837Y-52046235D02*
X95764684Y-52276401D01*
X95193038Y-52617685D01*
X95105054Y-52726718D01*
X94934390Y-53382505D01*
X95127254Y-54069532D01*
X95290102Y-54293121D01*
X95491165Y-54577610D01*
X95479224Y-54871679D01*
X95227204Y-55325884D01*
X95059193Y-55577178D01*
X94615248Y-56312785D01*
X94496480Y-56768546D01*
X94704158Y-56993792D01*
X95096818Y-57041194D01*
X95584610Y-56936356D01*
X95972164Y-56551108D01*
X96193636Y-56178010D01*
X96572771Y-55620334D01*
X96957725Y-55277117D01*
X97059545Y-55238066D01*
X97321578Y-55269813D01*
X97439795Y-55568632D01*
X97463636Y-56101250D01*
X97489728Y-56700492D01*
X97632454Y-56969616D01*
X97988494Y-57039887D01*
X98156364Y-57041818D01*
X98849091Y-57041818D01*
X98849091Y-53709696D01*
X97463636Y-53709696D01*
X97388255Y-54142177D01*
X97083953Y-54243785D01*
X96944091Y-54229241D01*
X96477274Y-53966292D01*
X96350758Y-53635909D01*
X96381730Y-53247837D01*
X96711239Y-53121022D01*
X96870304Y-53116363D01*
X97316807Y-53204860D01*
X97459257Y-53562941D01*
X97463636Y-53709696D01*
X98849091Y-53709696D01*
X98849091Y-51961818D01*
X97709578Y-51961818D01*
X96642837Y-52046235D01*
G36*
X92556818Y-51963106D02*
G01*
X91107982Y-52103587D01*
X90019507Y-52517315D01*
X89298508Y-53199123D01*
X88952100Y-54143840D01*
X88920000Y-54604872D01*
X89100493Y-55616709D01*
X89645426Y-56355900D01*
X90559985Y-56826202D01*
X91849353Y-57031370D01*
X92283214Y-57041818D01*
X93538182Y-57041818D01*
X93538182Y-54621672D01*
X92152727Y-54621672D01*
X92152727Y-56126980D01*
X91517727Y-55975287D01*
X90941673Y-55783473D01*
X90594091Y-55596250D01*
X90367634Y-55169201D01*
X90318477Y-54527147D01*
X90439316Y-53878403D01*
X90668312Y-53479220D01*
X91183585Y-53189040D01*
X91591948Y-53116363D01*
X91893181Y-53144690D01*
X92061164Y-53299044D01*
X92134663Y-53683485D01*
X92152443Y-54402073D01*
X92152727Y-54621672D01*
X93538182Y-54621672D01*
X93538182Y-51961818D01*
X92556818Y-51963106D01*
G37*
X92556818Y-51963106D02*
X91107982Y-52103587D01*
X90019507Y-52517315D01*
X89298508Y-53199123D01*
X88952100Y-54143840D01*
X88920000Y-54604872D01*
X89100493Y-55616709D01*
X89645426Y-56355900D01*
X90559985Y-56826202D01*
X91849353Y-57031370D01*
X92283214Y-57041818D01*
X93538182Y-57041818D01*
X93538182Y-54621672D01*
X92152727Y-54621672D01*
X92152727Y-56126980D01*
X91517727Y-55975287D01*
X90941673Y-55783473D01*
X90594091Y-55596250D01*
X90367634Y-55169201D01*
X90318477Y-54527147D01*
X90439316Y-53878403D01*
X90668312Y-53479220D01*
X91183585Y-53189040D01*
X91591948Y-53116363D01*
X91893181Y-53144690D01*
X92061164Y-53299044D01*
X92134663Y-53683485D01*
X92152443Y-54402073D01*
X92152727Y-54621672D01*
X93538182Y-54621672D01*
X93538182Y-51961818D01*
X92556818Y-51963106D01*
G36*
X84987335Y-51986845D02*
G01*
X84266254Y-52096570D01*
X83954490Y-52342964D01*
X84027933Y-52777993D01*
X84462471Y-53453626D01*
X85084818Y-54240129D01*
X85662589Y-54961922D01*
X86107553Y-55547470D01*
X86352701Y-55907237D01*
X86380000Y-55970704D01*
X86171127Y-56051485D01*
X85632342Y-56105052D01*
X85110000Y-56118181D01*
X84376069Y-56138226D01*
X83993733Y-56224894D01*
X83853545Y-56417981D01*
X83840000Y-56580000D01*
X83873125Y-56794643D01*
X84029609Y-56930110D01*
X84395119Y-57004437D01*
X85055321Y-57035658D01*
X86033636Y-57041818D01*
X87059002Y-57033022D01*
X87706761Y-56996120D01*
X88060960Y-56915343D01*
X88205644Y-56774919D01*
X88227273Y-56630205D01*
X88086267Y-56273596D01*
X87710206Y-55678026D01*
X87169529Y-54950873D01*
X86939785Y-54667477D01*
X85652297Y-53116363D01*
X86939785Y-53116363D01*
X87673374Y-53101850D01*
X88057595Y-53024744D01*
X88204734Y-52834701D01*
X88227273Y-52539091D01*
X88210812Y-52266199D01*
X88102286Y-52096586D01*
X87812980Y-52005696D01*
X87254179Y-51968969D01*
X86337167Y-51961850D01*
X86141844Y-51961818D01*
X84987335Y-51986845D01*
G37*
X84987335Y-51986845D02*
X84266254Y-52096570D01*
X83954490Y-52342964D01*
X84027933Y-52777993D01*
X84462471Y-53453626D01*
X85084818Y-54240129D01*
X85662589Y-54961922D01*
X86107553Y-55547470D01*
X86352701Y-55907237D01*
X86380000Y-55970704D01*
X86171127Y-56051485D01*
X85632342Y-56105052D01*
X85110000Y-56118181D01*
X84376069Y-56138226D01*
X83993733Y-56224894D01*
X83853545Y-56417981D01*
X83840000Y-56580000D01*
X83873125Y-56794643D01*
X84029609Y-56930110D01*
X84395119Y-57004437D01*
X85055321Y-57035658D01*
X86033636Y-57041818D01*
X87059002Y-57033022D01*
X87706761Y-56996120D01*
X88060960Y-56915343D01*
X88205644Y-56774919D01*
X88227273Y-56630205D01*
X88086267Y-56273596D01*
X87710206Y-55678026D01*
X87169529Y-54950873D01*
X86939785Y-54667477D01*
X85652297Y-53116363D01*
X86939785Y-53116363D01*
X87673374Y-53101850D01*
X88057595Y-53024744D01*
X88204734Y-52834701D01*
X88227273Y-52539091D01*
X88210812Y-52266199D01*
X88102286Y-52096586D01*
X87812980Y-52005696D01*
X87254179Y-51968969D01*
X86337167Y-51961850D01*
X86141844Y-51961818D01*
X84987335Y-51986845D01*
G36*
X81604571Y-51996136D02*
G01*
X81287452Y-52170983D01*
X81022530Y-52594195D01*
X80794599Y-53116363D01*
X80500109Y-53756220D01*
X80252343Y-54175473D01*
X80145455Y-54270909D01*
X79970635Y-54076068D01*
X79700792Y-53574721D01*
X79496310Y-53116363D01*
X79193394Y-52446186D01*
X78926195Y-52102406D01*
X78573216Y-51977186D01*
X78195524Y-51961818D01*
X77374545Y-51961818D01*
X77374545Y-57041818D01*
X77941702Y-57041818D01*
X78235265Y-57015048D01*
X78410692Y-56868948D01*
X78505415Y-56504829D01*
X78556868Y-55824002D01*
X78576702Y-55367727D01*
X78644545Y-53693636D01*
X79192526Y-54905909D01*
X79632272Y-55712638D01*
X80023867Y-56090872D01*
X80145455Y-56118181D01*
X80516537Y-55893411D01*
X80941431Y-55232945D01*
X81098383Y-54905909D01*
X81646364Y-53693636D01*
X81714207Y-55367727D01*
X81758262Y-56231043D01*
X81828035Y-56731377D01*
X81960959Y-56967418D01*
X82194467Y-57037853D01*
X82349207Y-57041818D01*
X82916364Y-57041818D01*
X82916364Y-51961818D01*
X82095385Y-51961818D01*
X81604571Y-51996136D01*
G37*
X81604571Y-51996136D02*
X81287452Y-52170983D01*
X81022530Y-52594195D01*
X80794599Y-53116363D01*
X80500109Y-53756220D01*
X80252343Y-54175473D01*
X80145455Y-54270909D01*
X79970635Y-54076068D01*
X79700792Y-53574721D01*
X79496310Y-53116363D01*
X79193394Y-52446186D01*
X78926195Y-52102406D01*
X78573216Y-51977186D01*
X78195524Y-51961818D01*
X77374545Y-51961818D01*
X77374545Y-57041818D01*
X77941702Y-57041818D01*
X78235265Y-57015048D01*
X78410692Y-56868948D01*
X78505415Y-56504829D01*
X78556868Y-55824002D01*
X78576702Y-55367727D01*
X78644545Y-53693636D01*
X79192526Y-54905909D01*
X79632272Y-55712638D01*
X80023867Y-56090872D01*
X80145455Y-56118181D01*
X80516537Y-55893411D01*
X80941431Y-55232945D01*
X81098383Y-54905909D01*
X81646364Y-53693636D01*
X81714207Y-55367727D01*
X81758262Y-56231043D01*
X81828035Y-56731377D01*
X81960959Y-56967418D01*
X82194467Y-57037853D01*
X82349207Y-57041818D01*
X82916364Y-57041818D01*
X82916364Y-51961818D01*
X82095385Y-51961818D01*
X81604571Y-51996136D01*
G36*
X84492326Y-47217061D02*
G01*
X82873127Y-47510566D01*
X81375819Y-47783059D01*
X80069367Y-48021903D01*
X79022741Y-48214460D01*
X78304906Y-48348094D01*
X78009545Y-48404934D01*
X77593885Y-48546903D01*
X77413497Y-48843737D01*
X77374545Y-49440165D01*
X77407793Y-50011956D01*
X77490653Y-50325211D01*
X77521540Y-50345454D01*
X77778355Y-50305176D01*
X78429840Y-50191475D01*
X79416572Y-50015055D01*
X80679129Y-49786618D01*
X82158090Y-49516866D01*
X83794032Y-49216503D01*
X83986995Y-49180952D01*
X90305455Y-48016451D01*
X96623915Y-49180952D01*
X98281064Y-49484688D01*
X99794570Y-49758889D01*
X101103590Y-49992789D01*
X102147280Y-50175622D01*
X102864797Y-50296622D01*
X103195300Y-50345022D01*
X103204824Y-50345454D01*
X103380197Y-50142454D01*
X103465563Y-49642268D01*
X103467273Y-49550900D01*
X103410457Y-48978993D01*
X103271728Y-48638719D01*
X103252347Y-48623514D01*
X102977171Y-48548696D01*
X102307694Y-48403827D01*
X101304101Y-48200815D01*
X100026578Y-47951566D01*
X98535311Y-47667990D01*
X96890485Y-47361994D01*
X96688764Y-47324906D01*
X90340106Y-46159130D01*
X84492326Y-47217061D01*
G37*
X84492326Y-47217061D02*
X82873127Y-47510566D01*
X81375819Y-47783059D01*
X80069367Y-48021903D01*
X79022741Y-48214460D01*
X78304906Y-48348094D01*
X78009545Y-48404934D01*
X77593885Y-48546903D01*
X77413497Y-48843737D01*
X77374545Y-49440165D01*
X77407793Y-50011956D01*
X77490653Y-50325211D01*
X77521540Y-50345454D01*
X77778355Y-50305176D01*
X78429840Y-50191475D01*
X79416572Y-50015055D01*
X80679129Y-49786618D01*
X82158090Y-49516866D01*
X83794032Y-49216503D01*
X83986995Y-49180952D01*
X90305455Y-48016451D01*
X96623915Y-49180952D01*
X98281064Y-49484688D01*
X99794570Y-49758889D01*
X101103590Y-49992789D01*
X102147280Y-50175622D01*
X102864797Y-50296622D01*
X103195300Y-50345022D01*
X103204824Y-50345454D01*
X103380197Y-50142454D01*
X103465563Y-49642268D01*
X103467273Y-49550900D01*
X103410457Y-48978993D01*
X103271728Y-48638719D01*
X103252347Y-48623514D01*
X102977171Y-48548696D01*
X102307694Y-48403827D01*
X101304101Y-48200815D01*
X100026578Y-47951566D01*
X98535311Y-47667990D01*
X96890485Y-47361994D01*
X96688764Y-47324906D01*
X90340106Y-46159130D01*
X84492326Y-47217061D01*
G36*
X84492326Y-27217061D02*
G01*
X82873127Y-27510566D01*
X81375819Y-27783059D01*
X80069367Y-28021903D01*
X79022741Y-28214460D01*
X78304906Y-28348094D01*
X78009545Y-28404934D01*
X77593885Y-28546903D01*
X77413497Y-28843737D01*
X77374545Y-29440165D01*
X77407793Y-30011956D01*
X77490653Y-30325211D01*
X77521540Y-30345454D01*
X77778355Y-30305176D01*
X78429840Y-30191475D01*
X79416572Y-30015055D01*
X80679129Y-29786618D01*
X82158090Y-29516866D01*
X83794032Y-29216503D01*
X83986995Y-29180952D01*
X90305455Y-28016451D01*
X96623915Y-29180952D01*
X98281064Y-29484688D01*
X99794570Y-29758889D01*
X101103590Y-29992789D01*
X102147280Y-30175622D01*
X102864797Y-30296622D01*
X103195300Y-30345022D01*
X103204824Y-30345454D01*
X103380197Y-30142454D01*
X103465563Y-29642268D01*
X103467273Y-29550900D01*
X103410457Y-28978993D01*
X103271728Y-28638719D01*
X103252347Y-28623514D01*
X102977171Y-28548696D01*
X102307694Y-28403827D01*
X101304101Y-28200815D01*
X100026578Y-27951566D01*
X98535311Y-27667990D01*
X96890485Y-27361994D01*
X96688764Y-27324906D01*
X90340106Y-26159130D01*
X84492326Y-27217061D01*
G37*
X84492326Y-27217061D02*
X82873127Y-27510566D01*
X81375819Y-27783059D01*
X80069367Y-28021903D01*
X79022741Y-28214460D01*
X78304906Y-28348094D01*
X78009545Y-28404934D01*
X77593885Y-28546903D01*
X77413497Y-28843737D01*
X77374545Y-29440165D01*
X77407793Y-30011956D01*
X77490653Y-30325211D01*
X77521540Y-30345454D01*
X77778355Y-30305176D01*
X78429840Y-30191475D01*
X79416572Y-30015055D01*
X80679129Y-29786618D01*
X82158090Y-29516866D01*
X83794032Y-29216503D01*
X83986995Y-29180952D01*
X90305455Y-28016451D01*
X96623915Y-29180952D01*
X98281064Y-29484688D01*
X99794570Y-29758889D01*
X101103590Y-29992789D01*
X102147280Y-30175622D01*
X102864797Y-30296622D01*
X103195300Y-30345022D01*
X103204824Y-30345454D01*
X103380197Y-30142454D01*
X103465563Y-29642268D01*
X103467273Y-29550900D01*
X103410457Y-28978993D01*
X103271728Y-28638719D01*
X103252347Y-28623514D01*
X102977171Y-28548696D01*
X102307694Y-28403827D01*
X101304101Y-28200815D01*
X100026578Y-27951566D01*
X98535311Y-27667990D01*
X96890485Y-27361994D01*
X96688764Y-27324906D01*
X90340106Y-26159130D01*
X84492326Y-27217061D01*
G36*
X81604571Y-31996136D02*
G01*
X81287452Y-32170983D01*
X81022530Y-32594195D01*
X80794599Y-33116363D01*
X80500109Y-33756220D01*
X80252343Y-34175473D01*
X80145455Y-34270909D01*
X79970635Y-34076068D01*
X79700792Y-33574721D01*
X79496310Y-33116363D01*
X79193394Y-32446186D01*
X78926195Y-32102406D01*
X78573216Y-31977186D01*
X78195524Y-31961818D01*
X77374545Y-31961818D01*
X77374545Y-37041818D01*
X77941702Y-37041818D01*
X78235265Y-37015048D01*
X78410692Y-36868948D01*
X78505415Y-36504829D01*
X78556868Y-35824002D01*
X78576702Y-35367727D01*
X78644545Y-33693636D01*
X79192526Y-34905909D01*
X79632272Y-35712638D01*
X80023867Y-36090872D01*
X80145455Y-36118181D01*
X80516537Y-35893411D01*
X80941431Y-35232945D01*
X81098383Y-34905909D01*
X81646364Y-33693636D01*
X81714207Y-35367727D01*
X81758262Y-36231043D01*
X81828035Y-36731377D01*
X81960959Y-36967418D01*
X82194467Y-37037853D01*
X82349207Y-37041818D01*
X82916364Y-37041818D01*
X82916364Y-31961818D01*
X82095385Y-31961818D01*
X81604571Y-31996136D01*
G37*
X81604571Y-31996136D02*
X81287452Y-32170983D01*
X81022530Y-32594195D01*
X80794599Y-33116363D01*
X80500109Y-33756220D01*
X80252343Y-34175473D01*
X80145455Y-34270909D01*
X79970635Y-34076068D01*
X79700792Y-33574721D01*
X79496310Y-33116363D01*
X79193394Y-32446186D01*
X78926195Y-32102406D01*
X78573216Y-31977186D01*
X78195524Y-31961818D01*
X77374545Y-31961818D01*
X77374545Y-37041818D01*
X77941702Y-37041818D01*
X78235265Y-37015048D01*
X78410692Y-36868948D01*
X78505415Y-36504829D01*
X78556868Y-35824002D01*
X78576702Y-35367727D01*
X78644545Y-33693636D01*
X79192526Y-34905909D01*
X79632272Y-35712638D01*
X80023867Y-36090872D01*
X80145455Y-36118181D01*
X80516537Y-35893411D01*
X80941431Y-35232945D01*
X81098383Y-34905909D01*
X81646364Y-33693636D01*
X81714207Y-35367727D01*
X81758262Y-36231043D01*
X81828035Y-36731377D01*
X81960959Y-36967418D01*
X82194467Y-37037853D01*
X82349207Y-37041818D01*
X82916364Y-37041818D01*
X82916364Y-31961818D01*
X82095385Y-31961818D01*
X81604571Y-31996136D01*
G36*
X84987335Y-31986845D02*
G01*
X84266254Y-32096570D01*
X83954490Y-32342964D01*
X84027933Y-32777993D01*
X84462471Y-33453626D01*
X85084818Y-34240129D01*
X85662589Y-34961922D01*
X86107553Y-35547470D01*
X86352701Y-35907237D01*
X86380000Y-35970704D01*
X86171127Y-36051485D01*
X85632342Y-36105052D01*
X85110000Y-36118181D01*
X84376069Y-36138226D01*
X83993733Y-36224894D01*
X83853545Y-36417981D01*
X83840000Y-36580000D01*
X83873125Y-36794643D01*
X84029609Y-36930110D01*
X84395119Y-37004437D01*
X85055321Y-37035658D01*
X86033636Y-37041818D01*
X87059002Y-37033022D01*
X87706761Y-36996120D01*
X88060960Y-36915343D01*
X88205644Y-36774919D01*
X88227273Y-36630205D01*
X88086267Y-36273596D01*
X87710206Y-35678026D01*
X87169529Y-34950873D01*
X86939785Y-34667477D01*
X85652297Y-33116363D01*
X86939785Y-33116363D01*
X87673374Y-33101850D01*
X88057595Y-33024744D01*
X88204734Y-32834701D01*
X88227273Y-32539091D01*
X88210812Y-32266199D01*
X88102286Y-32096586D01*
X87812980Y-32005696D01*
X87254179Y-31968969D01*
X86337167Y-31961850D01*
X86141844Y-31961818D01*
X84987335Y-31986845D01*
G37*
X84987335Y-31986845D02*
X84266254Y-32096570D01*
X83954490Y-32342964D01*
X84027933Y-32777993D01*
X84462471Y-33453626D01*
X85084818Y-34240129D01*
X85662589Y-34961922D01*
X86107553Y-35547470D01*
X86352701Y-35907237D01*
X86380000Y-35970704D01*
X86171127Y-36051485D01*
X85632342Y-36105052D01*
X85110000Y-36118181D01*
X84376069Y-36138226D01*
X83993733Y-36224894D01*
X83853545Y-36417981D01*
X83840000Y-36580000D01*
X83873125Y-36794643D01*
X84029609Y-36930110D01*
X84395119Y-37004437D01*
X85055321Y-37035658D01*
X86033636Y-37041818D01*
X87059002Y-37033022D01*
X87706761Y-36996120D01*
X88060960Y-36915343D01*
X88205644Y-36774919D01*
X88227273Y-36630205D01*
X88086267Y-36273596D01*
X87710206Y-35678026D01*
X87169529Y-34950873D01*
X86939785Y-34667477D01*
X85652297Y-33116363D01*
X86939785Y-33116363D01*
X87673374Y-33101850D01*
X88057595Y-33024744D01*
X88204734Y-32834701D01*
X88227273Y-32539091D01*
X88210812Y-32266199D01*
X88102286Y-32096586D01*
X87812980Y-32005696D01*
X87254179Y-31968969D01*
X86337167Y-31961850D01*
X86141844Y-31961818D01*
X84987335Y-31986845D01*
G36*
X92556818Y-31963106D02*
G01*
X91107982Y-32103587D01*
X90019507Y-32517315D01*
X89298508Y-33199123D01*
X88952100Y-34143840D01*
X88920000Y-34604872D01*
X89100493Y-35616709D01*
X89645426Y-36355900D01*
X90559985Y-36826202D01*
X91849353Y-37031370D01*
X92283214Y-37041818D01*
X93538182Y-37041818D01*
X93538182Y-34621672D01*
X92152727Y-34621672D01*
X92152727Y-36126980D01*
X91517727Y-35975287D01*
X90941673Y-35783473D01*
X90594091Y-35596250D01*
X90367634Y-35169201D01*
X90318477Y-34527147D01*
X90439316Y-33878403D01*
X90668312Y-33479220D01*
X91183585Y-33189040D01*
X91591948Y-33116363D01*
X91893181Y-33144690D01*
X92061164Y-33299044D01*
X92134663Y-33683485D01*
X92152443Y-34402073D01*
X92152727Y-34621672D01*
X93538182Y-34621672D01*
X93538182Y-31961818D01*
X92556818Y-31963106D01*
G37*
X92556818Y-31963106D02*
X91107982Y-32103587D01*
X90019507Y-32517315D01*
X89298508Y-33199123D01*
X88952100Y-34143840D01*
X88920000Y-34604872D01*
X89100493Y-35616709D01*
X89645426Y-36355900D01*
X90559985Y-36826202D01*
X91849353Y-37031370D01*
X92283214Y-37041818D01*
X93538182Y-37041818D01*
X93538182Y-34621672D01*
X92152727Y-34621672D01*
X92152727Y-36126980D01*
X91517727Y-35975287D01*
X90941673Y-35783473D01*
X90594091Y-35596250D01*
X90367634Y-35169201D01*
X90318477Y-34527147D01*
X90439316Y-33878403D01*
X90668312Y-33479220D01*
X91183585Y-33189040D01*
X91591948Y-33116363D01*
X91893181Y-33144690D01*
X92061164Y-33299044D01*
X92134663Y-33683485D01*
X92152443Y-34402073D01*
X92152727Y-34621672D01*
X93538182Y-34621672D01*
X93538182Y-31961818D01*
X92556818Y-31963106D01*
G36*
X96642837Y-32046235D02*
G01*
X95764684Y-32276401D01*
X95193038Y-32617685D01*
X95105054Y-32726718D01*
X94934390Y-33382505D01*
X95127254Y-34069532D01*
X95290102Y-34293121D01*
X95491165Y-34577610D01*
X95479224Y-34871679D01*
X95227204Y-35325884D01*
X95059193Y-35577178D01*
X94615248Y-36312785D01*
X94496480Y-36768546D01*
X94704158Y-36993792D01*
X95096818Y-37041194D01*
X95584610Y-36936356D01*
X95972164Y-36551108D01*
X96193636Y-36178010D01*
X96572771Y-35620334D01*
X96957725Y-35277117D01*
X97059545Y-35238066D01*
X97321578Y-35269813D01*
X97439795Y-35568632D01*
X97463636Y-36101250D01*
X97489728Y-36700492D01*
X97632454Y-36969616D01*
X97988494Y-37039887D01*
X98156364Y-37041818D01*
X98849091Y-37041818D01*
X98849091Y-33709696D01*
X97463636Y-33709696D01*
X97388255Y-34142177D01*
X97083953Y-34243785D01*
X96944091Y-34229241D01*
X96477274Y-33966292D01*
X96350758Y-33635909D01*
X96381730Y-33247837D01*
X96711239Y-33121022D01*
X96870304Y-33116363D01*
X97316807Y-33204860D01*
X97459257Y-33562941D01*
X97463636Y-33709696D01*
X98849091Y-33709696D01*
X98849091Y-31961818D01*
X97709578Y-31961818D01*
X96642837Y-32046235D01*
G37*
X96642837Y-32046235D02*
X95764684Y-32276401D01*
X95193038Y-32617685D01*
X95105054Y-32726718D01*
X94934390Y-33382505D01*
X95127254Y-34069532D01*
X95290102Y-34293121D01*
X95491165Y-34577610D01*
X95479224Y-34871679D01*
X95227204Y-35325884D01*
X95059193Y-35577178D01*
X94615248Y-36312785D01*
X94496480Y-36768546D01*
X94704158Y-36993792D01*
X95096818Y-37041194D01*
X95584610Y-36936356D01*
X95972164Y-36551108D01*
X96193636Y-36178010D01*
X96572771Y-35620334D01*
X96957725Y-35277117D01*
X97059545Y-35238066D01*
X97321578Y-35269813D01*
X97439795Y-35568632D01*
X97463636Y-36101250D01*
X97489728Y-36700492D01*
X97632454Y-36969616D01*
X97988494Y-37039887D01*
X98156364Y-37041818D01*
X98849091Y-37041818D01*
X98849091Y-33709696D01*
X97463636Y-33709696D01*
X97388255Y-34142177D01*
X97083953Y-34243785D01*
X96944091Y-34229241D01*
X96477274Y-33966292D01*
X96350758Y-33635909D01*
X96381730Y-33247837D01*
X96711239Y-33121022D01*
X96870304Y-33116363D01*
X97316807Y-33204860D01*
X97459257Y-33562941D01*
X97463636Y-33709696D01*
X98849091Y-33709696D01*
X98849091Y-31961818D01*
X97709578Y-31961818D01*
X96642837Y-32046235D01*
G36*
X103484909Y-31998292D02*
G01*
X103287451Y-32195944D01*
X103237457Y-32687122D01*
X103236364Y-32885454D01*
X103236364Y-33809091D01*
X101389091Y-33809091D01*
X101389091Y-32870117D01*
X101364956Y-32275193D01*
X101233747Y-32021424D01*
X100907262Y-31988531D01*
X100754091Y-32004208D01*
X100119091Y-32077272D01*
X100053552Y-34559545D01*
X99988012Y-37041818D01*
X100688552Y-37041818D01*
X101119278Y-37012352D01*
X101323280Y-36840367D01*
X101385084Y-36400487D01*
X101389091Y-36002727D01*
X101389091Y-34963636D01*
X103236364Y-34963636D01*
X103236364Y-36002727D01*
X103256445Y-36641680D01*
X103372390Y-36944309D01*
X103667753Y-37035944D01*
X103929091Y-37041818D01*
X104621818Y-37041818D01*
X104621818Y-31961818D01*
X103929091Y-31961818D01*
X103484909Y-31998292D01*
G37*
X103484909Y-31998292D02*
X103287451Y-32195944D01*
X103237457Y-32687122D01*
X103236364Y-32885454D01*
X103236364Y-33809091D01*
X101389091Y-33809091D01*
X101389091Y-32870117D01*
X101364956Y-32275193D01*
X101233747Y-32021424D01*
X100907262Y-31988531D01*
X100754091Y-32004208D01*
X100119091Y-32077272D01*
X100053552Y-34559545D01*
X99988012Y-37041818D01*
X100688552Y-37041818D01*
X101119278Y-37012352D01*
X101323280Y-36840367D01*
X101385084Y-36400487D01*
X101389091Y-36002727D01*
X101389091Y-34963636D01*
X103236364Y-34963636D01*
X103236364Y-36002727D01*
X103256445Y-36641680D01*
X103372390Y-36944309D01*
X103667753Y-37035944D01*
X103929091Y-37041818D01*
X104621818Y-37041818D01*
X104621818Y-31961818D01*
X103929091Y-31961818D01*
X103484909Y-31998292D01*
G36*
X105834091Y-27259720D02*
G01*
X105189823Y-27840303D01*
X104826172Y-28270803D01*
X104663573Y-28690181D01*
X104622463Y-29237399D01*
X104621818Y-29376992D01*
X104621818Y-30445133D01*
X105839933Y-29242149D01*
X107058048Y-28039166D01*
X107801539Y-28782657D01*
X108545029Y-29526148D01*
X107267906Y-30816738D01*
X105990782Y-32107328D01*
X106056755Y-34590599D01*
X106122727Y-37073871D01*
X106757727Y-36410209D01*
X107100825Y-36000821D01*
X107292543Y-35576390D01*
X107375590Y-34984816D01*
X107392727Y-34148614D01*
X107392727Y-32550680D01*
X108893628Y-31038189D01*
X110394530Y-29525698D01*
X107046364Y-26210588D01*
X105834091Y-27259720D01*
G37*
X105834091Y-27259720D02*
X105189823Y-27840303D01*
X104826172Y-28270803D01*
X104663573Y-28690181D01*
X104622463Y-29237399D01*
X104621818Y-29376992D01*
X104621818Y-30445133D01*
X105839933Y-29242149D01*
X107058048Y-28039166D01*
X107801539Y-28782657D01*
X108545029Y-29526148D01*
X107267906Y-30816738D01*
X105990782Y-32107328D01*
X106056755Y-34590599D01*
X106122727Y-37073871D01*
X106757727Y-36410209D01*
X107100825Y-36000821D01*
X107292543Y-35576390D01*
X107375590Y-34984816D01*
X107392727Y-34148614D01*
X107392727Y-32550680D01*
X108893628Y-31038189D01*
X110394530Y-29525698D01*
X107046364Y-26210588D01*
X105834091Y-27259720D01*
G36*
X62834091Y-27259720D02*
G01*
X62189823Y-27840303D01*
X61826172Y-28270803D01*
X61663573Y-28690181D01*
X61622463Y-29237399D01*
X61621818Y-29376992D01*
X61621818Y-30445133D01*
X62839933Y-29242149D01*
X64058048Y-28039166D01*
X64801539Y-28782657D01*
X65545029Y-29526148D01*
X64267906Y-30816738D01*
X62990782Y-32107328D01*
X63056755Y-34590599D01*
X63122727Y-37073871D01*
X63757727Y-36410209D01*
X64100825Y-36000821D01*
X64292543Y-35576390D01*
X64375590Y-34984816D01*
X64392727Y-34148614D01*
X64392727Y-32550680D01*
X65893628Y-31038189D01*
X67394530Y-29525698D01*
X64046364Y-26210588D01*
X62834091Y-27259720D01*
G37*
X62834091Y-27259720D02*
X62189823Y-27840303D01*
X61826172Y-28270803D01*
X61663573Y-28690181D01*
X61622463Y-29237399D01*
X61621818Y-29376992D01*
X61621818Y-30445133D01*
X62839933Y-29242149D01*
X64058048Y-28039166D01*
X64801539Y-28782657D01*
X65545029Y-29526148D01*
X64267906Y-30816738D01*
X62990782Y-32107328D01*
X63056755Y-34590599D01*
X63122727Y-37073871D01*
X63757727Y-36410209D01*
X64100825Y-36000821D01*
X64292543Y-35576390D01*
X64375590Y-34984816D01*
X64392727Y-34148614D01*
X64392727Y-32550680D01*
X65893628Y-31038189D01*
X67394530Y-29525698D01*
X64046364Y-26210588D01*
X62834091Y-27259720D01*
G36*
X60484909Y-31998292D02*
G01*
X60287451Y-32195944D01*
X60237457Y-32687122D01*
X60236364Y-32885454D01*
X60236364Y-33809091D01*
X58389091Y-33809091D01*
X58389091Y-32870117D01*
X58364956Y-32275193D01*
X58233747Y-32021424D01*
X57907262Y-31988531D01*
X57754091Y-32004208D01*
X57119091Y-32077272D01*
X57053552Y-34559545D01*
X56988012Y-37041818D01*
X57688552Y-37041818D01*
X58119278Y-37012352D01*
X58323280Y-36840367D01*
X58385084Y-36400487D01*
X58389091Y-36002727D01*
X58389091Y-34963636D01*
X60236364Y-34963636D01*
X60236364Y-36002727D01*
X60256445Y-36641680D01*
X60372390Y-36944309D01*
X60667753Y-37035944D01*
X60929091Y-37041818D01*
X61621818Y-37041818D01*
X61621818Y-31961818D01*
X60929091Y-31961818D01*
X60484909Y-31998292D01*
G37*
X60484909Y-31998292D02*
X60287451Y-32195944D01*
X60237457Y-32687122D01*
X60236364Y-32885454D01*
X60236364Y-33809091D01*
X58389091Y-33809091D01*
X58389091Y-32870117D01*
X58364956Y-32275193D01*
X58233747Y-32021424D01*
X57907262Y-31988531D01*
X57754091Y-32004208D01*
X57119091Y-32077272D01*
X57053552Y-34559545D01*
X56988012Y-37041818D01*
X57688552Y-37041818D01*
X58119278Y-37012352D01*
X58323280Y-36840367D01*
X58385084Y-36400487D01*
X58389091Y-36002727D01*
X58389091Y-34963636D01*
X60236364Y-34963636D01*
X60236364Y-36002727D01*
X60256445Y-36641680D01*
X60372390Y-36944309D01*
X60667753Y-37035944D01*
X60929091Y-37041818D01*
X61621818Y-37041818D01*
X61621818Y-31961818D01*
X60929091Y-31961818D01*
X60484909Y-31998292D01*
G36*
X53642837Y-32046235D02*
G01*
X52764684Y-32276401D01*
X52193038Y-32617685D01*
X52105054Y-32726718D01*
X51934390Y-33382505D01*
X52127254Y-34069532D01*
X52290102Y-34293121D01*
X52491165Y-34577610D01*
X52479224Y-34871679D01*
X52227204Y-35325884D01*
X52059193Y-35577178D01*
X51615248Y-36312785D01*
X51496480Y-36768546D01*
X51704158Y-36993792D01*
X52096818Y-37041194D01*
X52584610Y-36936356D01*
X52972164Y-36551108D01*
X53193636Y-36178010D01*
X53572771Y-35620334D01*
X53957725Y-35277117D01*
X54059545Y-35238066D01*
X54321578Y-35269813D01*
X54439795Y-35568632D01*
X54463636Y-36101250D01*
X54489728Y-36700492D01*
X54632454Y-36969616D01*
X54988494Y-37039887D01*
X55156364Y-37041818D01*
X55849091Y-37041818D01*
X55849091Y-33709696D01*
X54463636Y-33709696D01*
X54388255Y-34142177D01*
X54083953Y-34243785D01*
X53944091Y-34229241D01*
X53477274Y-33966292D01*
X53350758Y-33635909D01*
X53381730Y-33247837D01*
X53711239Y-33121022D01*
X53870304Y-33116363D01*
X54316807Y-33204860D01*
X54459257Y-33562941D01*
X54463636Y-33709696D01*
X55849091Y-33709696D01*
X55849091Y-31961818D01*
X54709578Y-31961818D01*
X53642837Y-32046235D01*
G37*
X53642837Y-32046235D02*
X52764684Y-32276401D01*
X52193038Y-32617685D01*
X52105054Y-32726718D01*
X51934390Y-33382505D01*
X52127254Y-34069532D01*
X52290102Y-34293121D01*
X52491165Y-34577610D01*
X52479224Y-34871679D01*
X52227204Y-35325884D01*
X52059193Y-35577178D01*
X51615248Y-36312785D01*
X51496480Y-36768546D01*
X51704158Y-36993792D01*
X52096818Y-37041194D01*
X52584610Y-36936356D01*
X52972164Y-36551108D01*
X53193636Y-36178010D01*
X53572771Y-35620334D01*
X53957725Y-35277117D01*
X54059545Y-35238066D01*
X54321578Y-35269813D01*
X54439795Y-35568632D01*
X54463636Y-36101250D01*
X54489728Y-36700492D01*
X54632454Y-36969616D01*
X54988494Y-37039887D01*
X55156364Y-37041818D01*
X55849091Y-37041818D01*
X55849091Y-33709696D01*
X54463636Y-33709696D01*
X54388255Y-34142177D01*
X54083953Y-34243785D01*
X53944091Y-34229241D01*
X53477274Y-33966292D01*
X53350758Y-33635909D01*
X53381730Y-33247837D01*
X53711239Y-33121022D01*
X53870304Y-33116363D01*
X54316807Y-33204860D01*
X54459257Y-33562941D01*
X54463636Y-33709696D01*
X55849091Y-33709696D01*
X55849091Y-31961818D01*
X54709578Y-31961818D01*
X53642837Y-32046235D01*
G36*
X49556818Y-31963106D02*
G01*
X48107982Y-32103587D01*
X47019507Y-32517315D01*
X46298508Y-33199123D01*
X45952100Y-34143840D01*
X45920000Y-34604872D01*
X46100493Y-35616709D01*
X46645426Y-36355900D01*
X47559985Y-36826202D01*
X48849353Y-37031370D01*
X49283214Y-37041818D01*
X50538182Y-37041818D01*
X50538182Y-34621672D01*
X49152727Y-34621672D01*
X49152727Y-36126980D01*
X48517727Y-35975287D01*
X47941673Y-35783473D01*
X47594091Y-35596250D01*
X47367634Y-35169201D01*
X47318477Y-34527147D01*
X47439316Y-33878403D01*
X47668312Y-33479220D01*
X48183585Y-33189040D01*
X48591948Y-33116363D01*
X48893181Y-33144690D01*
X49061164Y-33299044D01*
X49134663Y-33683485D01*
X49152443Y-34402073D01*
X49152727Y-34621672D01*
X50538182Y-34621672D01*
X50538182Y-31961818D01*
X49556818Y-31963106D01*
G37*
X49556818Y-31963106D02*
X48107982Y-32103587D01*
X47019507Y-32517315D01*
X46298508Y-33199123D01*
X45952100Y-34143840D01*
X45920000Y-34604872D01*
X46100493Y-35616709D01*
X46645426Y-36355900D01*
X47559985Y-36826202D01*
X48849353Y-37031370D01*
X49283214Y-37041818D01*
X50538182Y-37041818D01*
X50538182Y-34621672D01*
X49152727Y-34621672D01*
X49152727Y-36126980D01*
X48517727Y-35975287D01*
X47941673Y-35783473D01*
X47594091Y-35596250D01*
X47367634Y-35169201D01*
X47318477Y-34527147D01*
X47439316Y-33878403D01*
X47668312Y-33479220D01*
X48183585Y-33189040D01*
X48591948Y-33116363D01*
X48893181Y-33144690D01*
X49061164Y-33299044D01*
X49134663Y-33683485D01*
X49152443Y-34402073D01*
X49152727Y-34621672D01*
X50538182Y-34621672D01*
X50538182Y-31961818D01*
X49556818Y-31963106D01*
G36*
X41987335Y-31986845D02*
G01*
X41266254Y-32096570D01*
X40954490Y-32342964D01*
X41027933Y-32777993D01*
X41462471Y-33453626D01*
X42084818Y-34240129D01*
X42662589Y-34961922D01*
X43107553Y-35547470D01*
X43352701Y-35907237D01*
X43380000Y-35970704D01*
X43171127Y-36051485D01*
X42632342Y-36105052D01*
X42110000Y-36118181D01*
X41376069Y-36138226D01*
X40993733Y-36224894D01*
X40853545Y-36417981D01*
X40840000Y-36580000D01*
X40873125Y-36794643D01*
X41029609Y-36930110D01*
X41395119Y-37004437D01*
X42055321Y-37035658D01*
X43033636Y-37041818D01*
X44059002Y-37033022D01*
X44706761Y-36996120D01*
X45060960Y-36915343D01*
X45205644Y-36774919D01*
X45227273Y-36630205D01*
X45086267Y-36273596D01*
X44710206Y-35678026D01*
X44169529Y-34950873D01*
X43939785Y-34667477D01*
X42652297Y-33116363D01*
X43939785Y-33116363D01*
X44673374Y-33101850D01*
X45057595Y-33024744D01*
X45204734Y-32834701D01*
X45227273Y-32539091D01*
X45210812Y-32266199D01*
X45102286Y-32096586D01*
X44812980Y-32005696D01*
X44254179Y-31968969D01*
X43337167Y-31961850D01*
X43141844Y-31961818D01*
X41987335Y-31986845D01*
G37*
X41987335Y-31986845D02*
X41266254Y-32096570D01*
X40954490Y-32342964D01*
X41027933Y-32777993D01*
X41462471Y-33453626D01*
X42084818Y-34240129D01*
X42662589Y-34961922D01*
X43107553Y-35547470D01*
X43352701Y-35907237D01*
X43380000Y-35970704D01*
X43171127Y-36051485D01*
X42632342Y-36105052D01*
X42110000Y-36118181D01*
X41376069Y-36138226D01*
X40993733Y-36224894D01*
X40853545Y-36417981D01*
X40840000Y-36580000D01*
X40873125Y-36794643D01*
X41029609Y-36930110D01*
X41395119Y-37004437D01*
X42055321Y-37035658D01*
X43033636Y-37041818D01*
X44059002Y-37033022D01*
X44706761Y-36996120D01*
X45060960Y-36915343D01*
X45205644Y-36774919D01*
X45227273Y-36630205D01*
X45086267Y-36273596D01*
X44710206Y-35678026D01*
X44169529Y-34950873D01*
X43939785Y-34667477D01*
X42652297Y-33116363D01*
X43939785Y-33116363D01*
X44673374Y-33101850D01*
X45057595Y-33024744D01*
X45204734Y-32834701D01*
X45227273Y-32539091D01*
X45210812Y-32266199D01*
X45102286Y-32096586D01*
X44812980Y-32005696D01*
X44254179Y-31968969D01*
X43337167Y-31961850D01*
X43141844Y-31961818D01*
X41987335Y-31986845D01*
G36*
X38604571Y-31996136D02*
G01*
X38287452Y-32170983D01*
X38022530Y-32594195D01*
X37794599Y-33116363D01*
X37500109Y-33756220D01*
X37252343Y-34175473D01*
X37145455Y-34270909D01*
X36970635Y-34076068D01*
X36700792Y-33574721D01*
X36496310Y-33116363D01*
X36193394Y-32446186D01*
X35926195Y-32102406D01*
X35573216Y-31977186D01*
X35195524Y-31961818D01*
X34374545Y-31961818D01*
X34374545Y-37041818D01*
X34941702Y-37041818D01*
X35235265Y-37015048D01*
X35410692Y-36868948D01*
X35505415Y-36504829D01*
X35556868Y-35824002D01*
X35576702Y-35367727D01*
X35644545Y-33693636D01*
X36192526Y-34905909D01*
X36632272Y-35712638D01*
X37023867Y-36090872D01*
X37145455Y-36118181D01*
X37516537Y-35893411D01*
X37941431Y-35232945D01*
X38098383Y-34905909D01*
X38646364Y-33693636D01*
X38714207Y-35367727D01*
X38758262Y-36231043D01*
X38828035Y-36731377D01*
X38960959Y-36967418D01*
X39194467Y-37037853D01*
X39349207Y-37041818D01*
X39916364Y-37041818D01*
X39916364Y-31961818D01*
X39095385Y-31961818D01*
X38604571Y-31996136D01*
G37*
X38604571Y-31996136D02*
X38287452Y-32170983D01*
X38022530Y-32594195D01*
X37794599Y-33116363D01*
X37500109Y-33756220D01*
X37252343Y-34175473D01*
X37145455Y-34270909D01*
X36970635Y-34076068D01*
X36700792Y-33574721D01*
X36496310Y-33116363D01*
X36193394Y-32446186D01*
X35926195Y-32102406D01*
X35573216Y-31977186D01*
X35195524Y-31961818D01*
X34374545Y-31961818D01*
X34374545Y-37041818D01*
X34941702Y-37041818D01*
X35235265Y-37015048D01*
X35410692Y-36868948D01*
X35505415Y-36504829D01*
X35556868Y-35824002D01*
X35576702Y-35367727D01*
X35644545Y-33693636D01*
X36192526Y-34905909D01*
X36632272Y-35712638D01*
X37023867Y-36090872D01*
X37145455Y-36118181D01*
X37516537Y-35893411D01*
X37941431Y-35232945D01*
X38098383Y-34905909D01*
X38646364Y-33693636D01*
X38714207Y-35367727D01*
X38758262Y-36231043D01*
X38828035Y-36731377D01*
X38960959Y-36967418D01*
X39194467Y-37037853D01*
X39349207Y-37041818D01*
X39916364Y-37041818D01*
X39916364Y-31961818D01*
X39095385Y-31961818D01*
X38604571Y-31996136D01*
G36*
X41492326Y-27217061D02*
G01*
X39873127Y-27510566D01*
X38375819Y-27783059D01*
X37069367Y-28021903D01*
X36022741Y-28214460D01*
X35304906Y-28348094D01*
X35009545Y-28404934D01*
X34593885Y-28546903D01*
X34413497Y-28843737D01*
X34374545Y-29440165D01*
X34407793Y-30011956D01*
X34490653Y-30325211D01*
X34521540Y-30345454D01*
X34778355Y-30305176D01*
X35429840Y-30191475D01*
X36416572Y-30015055D01*
X37679129Y-29786618D01*
X39158090Y-29516866D01*
X40794032Y-29216503D01*
X40986995Y-29180952D01*
X47305455Y-28016451D01*
X53623915Y-29180952D01*
X55281064Y-29484688D01*
X56794570Y-29758889D01*
X58103590Y-29992789D01*
X59147280Y-30175622D01*
X59864797Y-30296622D01*
X60195300Y-30345022D01*
X60204824Y-30345454D01*
X60380197Y-30142454D01*
X60465563Y-29642268D01*
X60467273Y-29550900D01*
X60410457Y-28978993D01*
X60271728Y-28638719D01*
X60252347Y-28623514D01*
X59977171Y-28548696D01*
X59307694Y-28403827D01*
X58304101Y-28200815D01*
X57026578Y-27951566D01*
X55535311Y-27667990D01*
X53890485Y-27361994D01*
X53688764Y-27324906D01*
X47340106Y-26159130D01*
X41492326Y-27217061D01*
G37*
X41492326Y-27217061D02*
X39873127Y-27510566D01*
X38375819Y-27783059D01*
X37069367Y-28021903D01*
X36022741Y-28214460D01*
X35304906Y-28348094D01*
X35009545Y-28404934D01*
X34593885Y-28546903D01*
X34413497Y-28843737D01*
X34374545Y-29440165D01*
X34407793Y-30011956D01*
X34490653Y-30325211D01*
X34521540Y-30345454D01*
X34778355Y-30305176D01*
X35429840Y-30191475D01*
X36416572Y-30015055D01*
X37679129Y-29786618D01*
X39158090Y-29516866D01*
X40794032Y-29216503D01*
X40986995Y-29180952D01*
X47305455Y-28016451D01*
X53623915Y-29180952D01*
X55281064Y-29484688D01*
X56794570Y-29758889D01*
X58103590Y-29992789D01*
X59147280Y-30175622D01*
X59864797Y-30296622D01*
X60195300Y-30345022D01*
X60204824Y-30345454D01*
X60380197Y-30142454D01*
X60465563Y-29642268D01*
X60467273Y-29550900D01*
X60410457Y-28978993D01*
X60271728Y-28638719D01*
X60252347Y-28623514D01*
X59977171Y-28548696D01*
X59307694Y-28403827D01*
X58304101Y-28200815D01*
X57026578Y-27951566D01*
X55535311Y-27667990D01*
X53890485Y-27361994D01*
X53688764Y-27324906D01*
X47340106Y-26159130D01*
X41492326Y-27217061D01*
%TD*%
M02*
