%TF.GenerationSoftware,KiCad,Pcbnew,(5.1.9)-1*%
%TF.CreationDate,2021-05-04T17:37:26+02:00*%
%TF.ProjectId,IM350_AM550_5V_V2.0_Multi,494d3335-305f-4414-9d35-35305f35565f,rev?*%
%TF.SameCoordinates,Original*%
%TF.FileFunction,Paste,Top*%
%TF.FilePolarity,Positive*%
%FSLAX46Y46*%
G04 Gerber Fmt 4.6, Leading zero omitted, Abs format (unit mm)*
G04 Created by KiCad (PCBNEW (5.1.9)-1) date 2021-05-04 17:37:26*
%MOMM*%
%LPD*%
G01*
G04 APERTURE LIST*
%ADD10C,0.150000*%
%ADD11R,1.300000X0.800000*%
%ADD12R,1.000000X2.500000*%
%ADD13R,1.800000X1.000000*%
%ADD14R,2.800000X0.600000*%
%ADD15R,1.500000X1.500000*%
G04 APERTURE END LIST*
D10*
X70500000Y-24500000D02*
X70500000Y-119500000D01*
X28500000Y-100500000D02*
X112500000Y-100500000D01*
X28500000Y-81500000D02*
X112500000Y-81500000D01*
X28500000Y-62500000D02*
X112500000Y-62500000D01*
X28500000Y-43500000D02*
X112500000Y-43500000D01*
D11*
%TO.C,U1*%
X66800000Y-102050000D03*
X66800000Y-103950000D03*
X69200000Y-103000000D03*
%TD*%
D12*
%TO.C,U2*%
X43500000Y-117600000D03*
X45500000Y-117600000D03*
X47500000Y-117600000D03*
X49500000Y-117600000D03*
X51500000Y-117600000D03*
X53500000Y-117600000D03*
X55500000Y-117600000D03*
X57500000Y-117600000D03*
D13*
X59000000Y-115000000D03*
X59000000Y-113000000D03*
X59000000Y-111000000D03*
X59000000Y-109000000D03*
X59000000Y-107000000D03*
X59000000Y-105000000D03*
D12*
X57500000Y-102400000D03*
X55500000Y-102400000D03*
X53500000Y-102400000D03*
X51500000Y-102400000D03*
X49500000Y-102400000D03*
X47500000Y-102400000D03*
X45500000Y-102400000D03*
X43500000Y-102400000D03*
%TD*%
%TO.C,R5*%
G36*
G01*
X64100000Y-113049999D02*
X64100000Y-113950001D01*
G75*
G02*
X63850001Y-114200000I-249999J0D01*
G01*
X63149999Y-114200000D01*
G75*
G02*
X62900000Y-113950001I0J249999D01*
G01*
X62900000Y-113049999D01*
G75*
G02*
X63149999Y-112800000I249999J0D01*
G01*
X63850001Y-112800000D01*
G75*
G02*
X64100000Y-113049999I0J-249999D01*
G01*
G37*
G36*
G01*
X62100000Y-113049999D02*
X62100000Y-113950001D01*
G75*
G02*
X61850001Y-114200000I-249999J0D01*
G01*
X61149999Y-114200000D01*
G75*
G02*
X60900000Y-113950001I0J249999D01*
G01*
X60900000Y-113049999D01*
G75*
G02*
X61149999Y-112800000I249999J0D01*
G01*
X61850001Y-112800000D01*
G75*
G02*
X62100000Y-113049999I0J-249999D01*
G01*
G37*
%TD*%
%TO.C,C2*%
G36*
G01*
X65225000Y-101849999D02*
X65225000Y-103150001D01*
G75*
G02*
X64975001Y-103400000I-249999J0D01*
G01*
X64149999Y-103400000D01*
G75*
G02*
X63900000Y-103150001I0J249999D01*
G01*
X63900000Y-101849999D01*
G75*
G02*
X64149999Y-101600000I249999J0D01*
G01*
X64975001Y-101600000D01*
G75*
G02*
X65225000Y-101849999I0J-249999D01*
G01*
G37*
G36*
G01*
X62100000Y-101849999D02*
X62100000Y-103150001D01*
G75*
G02*
X61850001Y-103400000I-249999J0D01*
G01*
X61024999Y-103400000D01*
G75*
G02*
X60775000Y-103150001I0J249999D01*
G01*
X60775000Y-101849999D01*
G75*
G02*
X61024999Y-101600000I249999J0D01*
G01*
X61850001Y-101600000D01*
G75*
G02*
X62100000Y-101849999I0J-249999D01*
G01*
G37*
%TD*%
D14*
%TO.C,J5*%
X62850000Y-108700000D03*
X62850000Y-111300000D03*
%TD*%
%TO.C,R1*%
G36*
G01*
X62900000Y-105450001D02*
X62900000Y-104549999D01*
G75*
G02*
X63149999Y-104300000I249999J0D01*
G01*
X63850001Y-104300000D01*
G75*
G02*
X64100000Y-104549999I0J-249999D01*
G01*
X64100000Y-105450001D01*
G75*
G02*
X63850001Y-105700000I-249999J0D01*
G01*
X63149999Y-105700000D01*
G75*
G02*
X62900000Y-105450001I0J249999D01*
G01*
G37*
G36*
G01*
X60900000Y-105450001D02*
X60900000Y-104549999D01*
G75*
G02*
X61149999Y-104300000I249999J0D01*
G01*
X61850001Y-104300000D01*
G75*
G02*
X62100000Y-104549999I0J-249999D01*
G01*
X62100000Y-105450001D01*
G75*
G02*
X61850001Y-105700000I-249999J0D01*
G01*
X61149999Y-105700000D01*
G75*
G02*
X60900000Y-105450001I0J249999D01*
G01*
G37*
%TD*%
D12*
%TO.C,U2*%
X85500000Y-102400000D03*
X87500000Y-102400000D03*
X89500000Y-102400000D03*
X91500000Y-102400000D03*
X93500000Y-102400000D03*
X95500000Y-102400000D03*
X97500000Y-102400000D03*
X99500000Y-102400000D03*
D13*
X101000000Y-105000000D03*
X101000000Y-107000000D03*
X101000000Y-109000000D03*
X101000000Y-111000000D03*
X101000000Y-113000000D03*
X101000000Y-115000000D03*
D12*
X99500000Y-117600000D03*
X97500000Y-117600000D03*
X95500000Y-117600000D03*
X93500000Y-117600000D03*
X91500000Y-117600000D03*
X89500000Y-117600000D03*
X87500000Y-117600000D03*
X85500000Y-117600000D03*
%TD*%
%TO.C,C2*%
G36*
G01*
X104100000Y-101849999D02*
X104100000Y-103150001D01*
G75*
G02*
X103850001Y-103400000I-249999J0D01*
G01*
X103024999Y-103400000D01*
G75*
G02*
X102775000Y-103150001I0J249999D01*
G01*
X102775000Y-101849999D01*
G75*
G02*
X103024999Y-101600000I249999J0D01*
G01*
X103850001Y-101600000D01*
G75*
G02*
X104100000Y-101849999I0J-249999D01*
G01*
G37*
G36*
G01*
X107225000Y-101849999D02*
X107225000Y-103150001D01*
G75*
G02*
X106975001Y-103400000I-249999J0D01*
G01*
X106149999Y-103400000D01*
G75*
G02*
X105900000Y-103150001I0J249999D01*
G01*
X105900000Y-101849999D01*
G75*
G02*
X106149999Y-101600000I249999J0D01*
G01*
X106975001Y-101600000D01*
G75*
G02*
X107225000Y-101849999I0J-249999D01*
G01*
G37*
%TD*%
D15*
%TO.C,SW1*%
X110900000Y-117000000D03*
X103100000Y-117000000D03*
%TD*%
%TO.C,SW1*%
X61100000Y-117000000D03*
X68900000Y-117000000D03*
%TD*%
%TO.C,P4*%
G36*
G01*
X63703500Y-107090000D02*
X63703500Y-106910000D01*
G75*
G02*
X63793500Y-106820000I90000J0D01*
G01*
X64071500Y-106820000D01*
G75*
G02*
X64161500Y-106910000I0J-90000D01*
G01*
X64161500Y-107090000D01*
G75*
G02*
X64071500Y-107180000I-90000J0D01*
G01*
X63793500Y-107180000D01*
G75*
G02*
X63703500Y-107090000I0J90000D01*
G01*
G37*
G36*
G01*
X62838500Y-107090000D02*
X62838500Y-106910000D01*
G75*
G02*
X62928500Y-106820000I90000J0D01*
G01*
X63206500Y-106820000D01*
G75*
G02*
X63296500Y-106910000I0J-90000D01*
G01*
X63296500Y-107090000D01*
G75*
G02*
X63206500Y-107180000I-90000J0D01*
G01*
X62928500Y-107180000D01*
G75*
G02*
X62838500Y-107090000I0J90000D01*
G01*
G37*
%TD*%
D14*
%TO.C,J5*%
X104850000Y-111300000D03*
X104850000Y-108700000D03*
%TD*%
%TO.C,P3*%
G36*
G01*
X103296500Y-106910000D02*
X103296500Y-107090000D01*
G75*
G02*
X103206500Y-107180000I-90000J0D01*
G01*
X102928500Y-107180000D01*
G75*
G02*
X102838500Y-107090000I0J90000D01*
G01*
X102838500Y-106910000D01*
G75*
G02*
X102928500Y-106820000I90000J0D01*
G01*
X103206500Y-106820000D01*
G75*
G02*
X103296500Y-106910000I0J-90000D01*
G01*
G37*
G36*
G01*
X104161500Y-106910000D02*
X104161500Y-107090000D01*
G75*
G02*
X104071500Y-107180000I-90000J0D01*
G01*
X103793500Y-107180000D01*
G75*
G02*
X103703500Y-107090000I0J90000D01*
G01*
X103703500Y-106910000D01*
G75*
G02*
X103793500Y-106820000I90000J0D01*
G01*
X104071500Y-106820000D01*
G75*
G02*
X104161500Y-106910000I0J-90000D01*
G01*
G37*
%TD*%
%TO.C,P4*%
G36*
G01*
X104838500Y-107090000D02*
X104838500Y-106910000D01*
G75*
G02*
X104928500Y-106820000I90000J0D01*
G01*
X105206500Y-106820000D01*
G75*
G02*
X105296500Y-106910000I0J-90000D01*
G01*
X105296500Y-107090000D01*
G75*
G02*
X105206500Y-107180000I-90000J0D01*
G01*
X104928500Y-107180000D01*
G75*
G02*
X104838500Y-107090000I0J90000D01*
G01*
G37*
G36*
G01*
X105703500Y-107090000D02*
X105703500Y-106910000D01*
G75*
G02*
X105793500Y-106820000I90000J0D01*
G01*
X106071500Y-106820000D01*
G75*
G02*
X106161500Y-106910000I0J-90000D01*
G01*
X106161500Y-107090000D01*
G75*
G02*
X106071500Y-107180000I-90000J0D01*
G01*
X105793500Y-107180000D01*
G75*
G02*
X105703500Y-107090000I0J90000D01*
G01*
G37*
%TD*%
D11*
%TO.C,U1*%
X111200000Y-103000000D03*
X108800000Y-103950000D03*
X108800000Y-102050000D03*
%TD*%
%TO.C,P3*%
G36*
G01*
X62161500Y-106910000D02*
X62161500Y-107090000D01*
G75*
G02*
X62071500Y-107180000I-90000J0D01*
G01*
X61793500Y-107180000D01*
G75*
G02*
X61703500Y-107090000I0J90000D01*
G01*
X61703500Y-106910000D01*
G75*
G02*
X61793500Y-106820000I90000J0D01*
G01*
X62071500Y-106820000D01*
G75*
G02*
X62161500Y-106910000I0J-90000D01*
G01*
G37*
G36*
G01*
X61296500Y-106910000D02*
X61296500Y-107090000D01*
G75*
G02*
X61206500Y-107180000I-90000J0D01*
G01*
X60928500Y-107180000D01*
G75*
G02*
X60838500Y-107090000I0J90000D01*
G01*
X60838500Y-106910000D01*
G75*
G02*
X60928500Y-106820000I90000J0D01*
G01*
X61206500Y-106820000D01*
G75*
G02*
X61296500Y-106910000I0J-90000D01*
G01*
G37*
%TD*%
%TO.C,R1*%
G36*
G01*
X102900000Y-105450001D02*
X102900000Y-104549999D01*
G75*
G02*
X103149999Y-104300000I249999J0D01*
G01*
X103850001Y-104300000D01*
G75*
G02*
X104100000Y-104549999I0J-249999D01*
G01*
X104100000Y-105450001D01*
G75*
G02*
X103850001Y-105700000I-249999J0D01*
G01*
X103149999Y-105700000D01*
G75*
G02*
X102900000Y-105450001I0J249999D01*
G01*
G37*
G36*
G01*
X104900000Y-105450001D02*
X104900000Y-104549999D01*
G75*
G02*
X105149999Y-104300000I249999J0D01*
G01*
X105850001Y-104300000D01*
G75*
G02*
X106100000Y-104549999I0J-249999D01*
G01*
X106100000Y-105450001D01*
G75*
G02*
X105850001Y-105700000I-249999J0D01*
G01*
X105149999Y-105700000D01*
G75*
G02*
X104900000Y-105450001I0J249999D01*
G01*
G37*
%TD*%
%TO.C,R5*%
G36*
G01*
X104100000Y-113049999D02*
X104100000Y-113950001D01*
G75*
G02*
X103850001Y-114200000I-249999J0D01*
G01*
X103149999Y-114200000D01*
G75*
G02*
X102900000Y-113950001I0J249999D01*
G01*
X102900000Y-113049999D01*
G75*
G02*
X103149999Y-112800000I249999J0D01*
G01*
X103850001Y-112800000D01*
G75*
G02*
X104100000Y-113049999I0J-249999D01*
G01*
G37*
G36*
G01*
X106100000Y-113049999D02*
X106100000Y-113950001D01*
G75*
G02*
X105850001Y-114200000I-249999J0D01*
G01*
X105149999Y-114200000D01*
G75*
G02*
X104900000Y-113950001I0J249999D01*
G01*
X104900000Y-113049999D01*
G75*
G02*
X105149999Y-112800000I249999J0D01*
G01*
X105850001Y-112800000D01*
G75*
G02*
X106100000Y-113049999I0J-249999D01*
G01*
G37*
%TD*%
%TO.C,P3*%
G36*
G01*
X104161500Y-87910000D02*
X104161500Y-88090000D01*
G75*
G02*
X104071500Y-88180000I-90000J0D01*
G01*
X103793500Y-88180000D01*
G75*
G02*
X103703500Y-88090000I0J90000D01*
G01*
X103703500Y-87910000D01*
G75*
G02*
X103793500Y-87820000I90000J0D01*
G01*
X104071500Y-87820000D01*
G75*
G02*
X104161500Y-87910000I0J-90000D01*
G01*
G37*
G36*
G01*
X103296500Y-87910000D02*
X103296500Y-88090000D01*
G75*
G02*
X103206500Y-88180000I-90000J0D01*
G01*
X102928500Y-88180000D01*
G75*
G02*
X102838500Y-88090000I0J90000D01*
G01*
X102838500Y-87910000D01*
G75*
G02*
X102928500Y-87820000I90000J0D01*
G01*
X103206500Y-87820000D01*
G75*
G02*
X103296500Y-87910000I0J-90000D01*
G01*
G37*
%TD*%
%TO.C,P4*%
G36*
G01*
X105703500Y-88090000D02*
X105703500Y-87910000D01*
G75*
G02*
X105793500Y-87820000I90000J0D01*
G01*
X106071500Y-87820000D01*
G75*
G02*
X106161500Y-87910000I0J-90000D01*
G01*
X106161500Y-88090000D01*
G75*
G02*
X106071500Y-88180000I-90000J0D01*
G01*
X105793500Y-88180000D01*
G75*
G02*
X105703500Y-88090000I0J90000D01*
G01*
G37*
G36*
G01*
X104838500Y-88090000D02*
X104838500Y-87910000D01*
G75*
G02*
X104928500Y-87820000I90000J0D01*
G01*
X105206500Y-87820000D01*
G75*
G02*
X105296500Y-87910000I0J-90000D01*
G01*
X105296500Y-88090000D01*
G75*
G02*
X105206500Y-88180000I-90000J0D01*
G01*
X104928500Y-88180000D01*
G75*
G02*
X104838500Y-88090000I0J90000D01*
G01*
G37*
%TD*%
D14*
%TO.C,J5*%
X104850000Y-89700000D03*
X104850000Y-92300000D03*
%TD*%
%TO.C,R5*%
G36*
G01*
X106100000Y-94049999D02*
X106100000Y-94950001D01*
G75*
G02*
X105850001Y-95200000I-249999J0D01*
G01*
X105149999Y-95200000D01*
G75*
G02*
X104900000Y-94950001I0J249999D01*
G01*
X104900000Y-94049999D01*
G75*
G02*
X105149999Y-93800000I249999J0D01*
G01*
X105850001Y-93800000D01*
G75*
G02*
X106100000Y-94049999I0J-249999D01*
G01*
G37*
G36*
G01*
X104100000Y-94049999D02*
X104100000Y-94950001D01*
G75*
G02*
X103850001Y-95200000I-249999J0D01*
G01*
X103149999Y-95200000D01*
G75*
G02*
X102900000Y-94950001I0J249999D01*
G01*
X102900000Y-94049999D01*
G75*
G02*
X103149999Y-93800000I249999J0D01*
G01*
X103850001Y-93800000D01*
G75*
G02*
X104100000Y-94049999I0J-249999D01*
G01*
G37*
%TD*%
D11*
%TO.C,U1*%
X108800000Y-83050000D03*
X108800000Y-84950000D03*
X111200000Y-84000000D03*
%TD*%
D15*
%TO.C,SW1*%
X103100000Y-98000000D03*
X110900000Y-98000000D03*
%TD*%
%TO.C,C2*%
G36*
G01*
X107225000Y-82849999D02*
X107225000Y-84150001D01*
G75*
G02*
X106975001Y-84400000I-249999J0D01*
G01*
X106149999Y-84400000D01*
G75*
G02*
X105900000Y-84150001I0J249999D01*
G01*
X105900000Y-82849999D01*
G75*
G02*
X106149999Y-82600000I249999J0D01*
G01*
X106975001Y-82600000D01*
G75*
G02*
X107225000Y-82849999I0J-249999D01*
G01*
G37*
G36*
G01*
X104100000Y-82849999D02*
X104100000Y-84150001D01*
G75*
G02*
X103850001Y-84400000I-249999J0D01*
G01*
X103024999Y-84400000D01*
G75*
G02*
X102775000Y-84150001I0J249999D01*
G01*
X102775000Y-82849999D01*
G75*
G02*
X103024999Y-82600000I249999J0D01*
G01*
X103850001Y-82600000D01*
G75*
G02*
X104100000Y-82849999I0J-249999D01*
G01*
G37*
%TD*%
%TO.C,P3*%
G36*
G01*
X61296500Y-87910000D02*
X61296500Y-88090000D01*
G75*
G02*
X61206500Y-88180000I-90000J0D01*
G01*
X60928500Y-88180000D01*
G75*
G02*
X60838500Y-88090000I0J90000D01*
G01*
X60838500Y-87910000D01*
G75*
G02*
X60928500Y-87820000I90000J0D01*
G01*
X61206500Y-87820000D01*
G75*
G02*
X61296500Y-87910000I0J-90000D01*
G01*
G37*
G36*
G01*
X62161500Y-87910000D02*
X62161500Y-88090000D01*
G75*
G02*
X62071500Y-88180000I-90000J0D01*
G01*
X61793500Y-88180000D01*
G75*
G02*
X61703500Y-88090000I0J90000D01*
G01*
X61703500Y-87910000D01*
G75*
G02*
X61793500Y-87820000I90000J0D01*
G01*
X62071500Y-87820000D01*
G75*
G02*
X62161500Y-87910000I0J-90000D01*
G01*
G37*
%TD*%
%TO.C,P4*%
G36*
G01*
X62838500Y-88090000D02*
X62838500Y-87910000D01*
G75*
G02*
X62928500Y-87820000I90000J0D01*
G01*
X63206500Y-87820000D01*
G75*
G02*
X63296500Y-87910000I0J-90000D01*
G01*
X63296500Y-88090000D01*
G75*
G02*
X63206500Y-88180000I-90000J0D01*
G01*
X62928500Y-88180000D01*
G75*
G02*
X62838500Y-88090000I0J90000D01*
G01*
G37*
G36*
G01*
X63703500Y-88090000D02*
X63703500Y-87910000D01*
G75*
G02*
X63793500Y-87820000I90000J0D01*
G01*
X64071500Y-87820000D01*
G75*
G02*
X64161500Y-87910000I0J-90000D01*
G01*
X64161500Y-88090000D01*
G75*
G02*
X64071500Y-88180000I-90000J0D01*
G01*
X63793500Y-88180000D01*
G75*
G02*
X63703500Y-88090000I0J90000D01*
G01*
G37*
%TD*%
%TO.C,R1*%
G36*
G01*
X104900000Y-86450001D02*
X104900000Y-85549999D01*
G75*
G02*
X105149999Y-85300000I249999J0D01*
G01*
X105850001Y-85300000D01*
G75*
G02*
X106100000Y-85549999I0J-249999D01*
G01*
X106100000Y-86450001D01*
G75*
G02*
X105850001Y-86700000I-249999J0D01*
G01*
X105149999Y-86700000D01*
G75*
G02*
X104900000Y-86450001I0J249999D01*
G01*
G37*
G36*
G01*
X102900000Y-86450001D02*
X102900000Y-85549999D01*
G75*
G02*
X103149999Y-85300000I249999J0D01*
G01*
X103850001Y-85300000D01*
G75*
G02*
X104100000Y-85549999I0J-249999D01*
G01*
X104100000Y-86450001D01*
G75*
G02*
X103850001Y-86700000I-249999J0D01*
G01*
X103149999Y-86700000D01*
G75*
G02*
X102900000Y-86450001I0J249999D01*
G01*
G37*
%TD*%
%TO.C,SW1*%
X68900000Y-98000000D03*
X61100000Y-98000000D03*
%TD*%
%TO.C,C2*%
G36*
G01*
X62100000Y-82849999D02*
X62100000Y-84150001D01*
G75*
G02*
X61850001Y-84400000I-249999J0D01*
G01*
X61024999Y-84400000D01*
G75*
G02*
X60775000Y-84150001I0J249999D01*
G01*
X60775000Y-82849999D01*
G75*
G02*
X61024999Y-82600000I249999J0D01*
G01*
X61850001Y-82600000D01*
G75*
G02*
X62100000Y-82849999I0J-249999D01*
G01*
G37*
G36*
G01*
X65225000Y-82849999D02*
X65225000Y-84150001D01*
G75*
G02*
X64975001Y-84400000I-249999J0D01*
G01*
X64149999Y-84400000D01*
G75*
G02*
X63900000Y-84150001I0J249999D01*
G01*
X63900000Y-82849999D01*
G75*
G02*
X64149999Y-82600000I249999J0D01*
G01*
X64975001Y-82600000D01*
G75*
G02*
X65225000Y-82849999I0J-249999D01*
G01*
G37*
%TD*%
D14*
%TO.C,J5*%
X62850000Y-92300000D03*
X62850000Y-89700000D03*
%TD*%
%TO.C,R1*%
G36*
G01*
X60900000Y-86450001D02*
X60900000Y-85549999D01*
G75*
G02*
X61149999Y-85300000I249999J0D01*
G01*
X61850001Y-85300000D01*
G75*
G02*
X62100000Y-85549999I0J-249999D01*
G01*
X62100000Y-86450001D01*
G75*
G02*
X61850001Y-86700000I-249999J0D01*
G01*
X61149999Y-86700000D01*
G75*
G02*
X60900000Y-86450001I0J249999D01*
G01*
G37*
G36*
G01*
X62900000Y-86450001D02*
X62900000Y-85549999D01*
G75*
G02*
X63149999Y-85300000I249999J0D01*
G01*
X63850001Y-85300000D01*
G75*
G02*
X64100000Y-85549999I0J-249999D01*
G01*
X64100000Y-86450001D01*
G75*
G02*
X63850001Y-86700000I-249999J0D01*
G01*
X63149999Y-86700000D01*
G75*
G02*
X62900000Y-86450001I0J249999D01*
G01*
G37*
%TD*%
D12*
%TO.C,U2*%
X85500000Y-98600000D03*
X87500000Y-98600000D03*
X89500000Y-98600000D03*
X91500000Y-98600000D03*
X93500000Y-98600000D03*
X95500000Y-98600000D03*
X97500000Y-98600000D03*
X99500000Y-98600000D03*
D13*
X101000000Y-96000000D03*
X101000000Y-94000000D03*
X101000000Y-92000000D03*
X101000000Y-90000000D03*
X101000000Y-88000000D03*
X101000000Y-86000000D03*
D12*
X99500000Y-83400000D03*
X97500000Y-83400000D03*
X95500000Y-83400000D03*
X93500000Y-83400000D03*
X91500000Y-83400000D03*
X89500000Y-83400000D03*
X87500000Y-83400000D03*
X85500000Y-83400000D03*
%TD*%
D11*
%TO.C,U1*%
X69200000Y-84000000D03*
X66800000Y-84950000D03*
X66800000Y-83050000D03*
%TD*%
%TO.C,R5*%
G36*
G01*
X62100000Y-94049999D02*
X62100000Y-94950001D01*
G75*
G02*
X61850001Y-95200000I-249999J0D01*
G01*
X61149999Y-95200000D01*
G75*
G02*
X60900000Y-94950001I0J249999D01*
G01*
X60900000Y-94049999D01*
G75*
G02*
X61149999Y-93800000I249999J0D01*
G01*
X61850001Y-93800000D01*
G75*
G02*
X62100000Y-94049999I0J-249999D01*
G01*
G37*
G36*
G01*
X64100000Y-94049999D02*
X64100000Y-94950001D01*
G75*
G02*
X63850001Y-95200000I-249999J0D01*
G01*
X63149999Y-95200000D01*
G75*
G02*
X62900000Y-94950001I0J249999D01*
G01*
X62900000Y-94049999D01*
G75*
G02*
X63149999Y-93800000I249999J0D01*
G01*
X63850001Y-93800000D01*
G75*
G02*
X64100000Y-94049999I0J-249999D01*
G01*
G37*
%TD*%
D12*
%TO.C,U2*%
X43500000Y-83400000D03*
X45500000Y-83400000D03*
X47500000Y-83400000D03*
X49500000Y-83400000D03*
X51500000Y-83400000D03*
X53500000Y-83400000D03*
X55500000Y-83400000D03*
X57500000Y-83400000D03*
D13*
X59000000Y-86000000D03*
X59000000Y-88000000D03*
X59000000Y-90000000D03*
X59000000Y-92000000D03*
X59000000Y-94000000D03*
X59000000Y-96000000D03*
D12*
X57500000Y-98600000D03*
X55500000Y-98600000D03*
X53500000Y-98600000D03*
X51500000Y-98600000D03*
X49500000Y-98600000D03*
X47500000Y-98600000D03*
X45500000Y-98600000D03*
X43500000Y-98600000D03*
%TD*%
%TO.C,U2*%
X85500000Y-64400000D03*
X87500000Y-64400000D03*
X89500000Y-64400000D03*
X91500000Y-64400000D03*
X93500000Y-64400000D03*
X95500000Y-64400000D03*
X97500000Y-64400000D03*
X99500000Y-64400000D03*
D13*
X101000000Y-67000000D03*
X101000000Y-69000000D03*
X101000000Y-71000000D03*
X101000000Y-73000000D03*
X101000000Y-75000000D03*
X101000000Y-77000000D03*
D12*
X99500000Y-79600000D03*
X97500000Y-79600000D03*
X95500000Y-79600000D03*
X93500000Y-79600000D03*
X91500000Y-79600000D03*
X89500000Y-79600000D03*
X87500000Y-79600000D03*
X85500000Y-79600000D03*
%TD*%
D11*
%TO.C,U1*%
X66800000Y-64050000D03*
X66800000Y-65950000D03*
X69200000Y-65000000D03*
%TD*%
%TO.C,R5*%
G36*
G01*
X64100000Y-75049999D02*
X64100000Y-75950001D01*
G75*
G02*
X63850001Y-76200000I-249999J0D01*
G01*
X63149999Y-76200000D01*
G75*
G02*
X62900000Y-75950001I0J249999D01*
G01*
X62900000Y-75049999D01*
G75*
G02*
X63149999Y-74800000I249999J0D01*
G01*
X63850001Y-74800000D01*
G75*
G02*
X64100000Y-75049999I0J-249999D01*
G01*
G37*
G36*
G01*
X62100000Y-75049999D02*
X62100000Y-75950001D01*
G75*
G02*
X61850001Y-76200000I-249999J0D01*
G01*
X61149999Y-76200000D01*
G75*
G02*
X60900000Y-75950001I0J249999D01*
G01*
X60900000Y-75049999D01*
G75*
G02*
X61149999Y-74800000I249999J0D01*
G01*
X61850001Y-74800000D01*
G75*
G02*
X62100000Y-75049999I0J-249999D01*
G01*
G37*
%TD*%
%TO.C,C2*%
G36*
G01*
X65225000Y-63849999D02*
X65225000Y-65150001D01*
G75*
G02*
X64975001Y-65400000I-249999J0D01*
G01*
X64149999Y-65400000D01*
G75*
G02*
X63900000Y-65150001I0J249999D01*
G01*
X63900000Y-63849999D01*
G75*
G02*
X64149999Y-63600000I249999J0D01*
G01*
X64975001Y-63600000D01*
G75*
G02*
X65225000Y-63849999I0J-249999D01*
G01*
G37*
G36*
G01*
X62100000Y-63849999D02*
X62100000Y-65150001D01*
G75*
G02*
X61850001Y-65400000I-249999J0D01*
G01*
X61024999Y-65400000D01*
G75*
G02*
X60775000Y-65150001I0J249999D01*
G01*
X60775000Y-63849999D01*
G75*
G02*
X61024999Y-63600000I249999J0D01*
G01*
X61850001Y-63600000D01*
G75*
G02*
X62100000Y-63849999I0J-249999D01*
G01*
G37*
%TD*%
D14*
%TO.C,J5*%
X62850000Y-70700000D03*
X62850000Y-73300000D03*
%TD*%
D12*
%TO.C,U2*%
X43500000Y-79600000D03*
X45500000Y-79600000D03*
X47500000Y-79600000D03*
X49500000Y-79600000D03*
X51500000Y-79600000D03*
X53500000Y-79600000D03*
X55500000Y-79600000D03*
X57500000Y-79600000D03*
D13*
X59000000Y-77000000D03*
X59000000Y-75000000D03*
X59000000Y-73000000D03*
X59000000Y-71000000D03*
X59000000Y-69000000D03*
X59000000Y-67000000D03*
D12*
X57500000Y-64400000D03*
X55500000Y-64400000D03*
X53500000Y-64400000D03*
X51500000Y-64400000D03*
X49500000Y-64400000D03*
X47500000Y-64400000D03*
X45500000Y-64400000D03*
X43500000Y-64400000D03*
%TD*%
%TO.C,P4*%
G36*
G01*
X63703500Y-69090000D02*
X63703500Y-68910000D01*
G75*
G02*
X63793500Y-68820000I90000J0D01*
G01*
X64071500Y-68820000D01*
G75*
G02*
X64161500Y-68910000I0J-90000D01*
G01*
X64161500Y-69090000D01*
G75*
G02*
X64071500Y-69180000I-90000J0D01*
G01*
X63793500Y-69180000D01*
G75*
G02*
X63703500Y-69090000I0J90000D01*
G01*
G37*
G36*
G01*
X62838500Y-69090000D02*
X62838500Y-68910000D01*
G75*
G02*
X62928500Y-68820000I90000J0D01*
G01*
X63206500Y-68820000D01*
G75*
G02*
X63296500Y-68910000I0J-90000D01*
G01*
X63296500Y-69090000D01*
G75*
G02*
X63206500Y-69180000I-90000J0D01*
G01*
X62928500Y-69180000D01*
G75*
G02*
X62838500Y-69090000I0J90000D01*
G01*
G37*
%TD*%
%TO.C,P3*%
G36*
G01*
X62161500Y-68910000D02*
X62161500Y-69090000D01*
G75*
G02*
X62071500Y-69180000I-90000J0D01*
G01*
X61793500Y-69180000D01*
G75*
G02*
X61703500Y-69090000I0J90000D01*
G01*
X61703500Y-68910000D01*
G75*
G02*
X61793500Y-68820000I90000J0D01*
G01*
X62071500Y-68820000D01*
G75*
G02*
X62161500Y-68910000I0J-90000D01*
G01*
G37*
G36*
G01*
X61296500Y-68910000D02*
X61296500Y-69090000D01*
G75*
G02*
X61206500Y-69180000I-90000J0D01*
G01*
X60928500Y-69180000D01*
G75*
G02*
X60838500Y-69090000I0J90000D01*
G01*
X60838500Y-68910000D01*
G75*
G02*
X60928500Y-68820000I90000J0D01*
G01*
X61206500Y-68820000D01*
G75*
G02*
X61296500Y-68910000I0J-90000D01*
G01*
G37*
%TD*%
D15*
%TO.C,SW1*%
X61100000Y-79000000D03*
X68900000Y-79000000D03*
%TD*%
%TO.C,R1*%
G36*
G01*
X62900000Y-67450001D02*
X62900000Y-66549999D01*
G75*
G02*
X63149999Y-66300000I249999J0D01*
G01*
X63850001Y-66300000D01*
G75*
G02*
X64100000Y-66549999I0J-249999D01*
G01*
X64100000Y-67450001D01*
G75*
G02*
X63850001Y-67700000I-249999J0D01*
G01*
X63149999Y-67700000D01*
G75*
G02*
X62900000Y-67450001I0J249999D01*
G01*
G37*
G36*
G01*
X60900000Y-67450001D02*
X60900000Y-66549999D01*
G75*
G02*
X61149999Y-66300000I249999J0D01*
G01*
X61850001Y-66300000D01*
G75*
G02*
X62100000Y-66549999I0J-249999D01*
G01*
X62100000Y-67450001D01*
G75*
G02*
X61850001Y-67700000I-249999J0D01*
G01*
X61149999Y-67700000D01*
G75*
G02*
X60900000Y-67450001I0J249999D01*
G01*
G37*
%TD*%
%TO.C,R1*%
G36*
G01*
X102900000Y-67450001D02*
X102900000Y-66549999D01*
G75*
G02*
X103149999Y-66300000I249999J0D01*
G01*
X103850001Y-66300000D01*
G75*
G02*
X104100000Y-66549999I0J-249999D01*
G01*
X104100000Y-67450001D01*
G75*
G02*
X103850001Y-67700000I-249999J0D01*
G01*
X103149999Y-67700000D01*
G75*
G02*
X102900000Y-67450001I0J249999D01*
G01*
G37*
G36*
G01*
X104900000Y-67450001D02*
X104900000Y-66549999D01*
G75*
G02*
X105149999Y-66300000I249999J0D01*
G01*
X105850001Y-66300000D01*
G75*
G02*
X106100000Y-66549999I0J-249999D01*
G01*
X106100000Y-67450001D01*
G75*
G02*
X105850001Y-67700000I-249999J0D01*
G01*
X105149999Y-67700000D01*
G75*
G02*
X104900000Y-67450001I0J249999D01*
G01*
G37*
%TD*%
%TO.C,C2*%
G36*
G01*
X104100000Y-63849999D02*
X104100000Y-65150001D01*
G75*
G02*
X103850001Y-65400000I-249999J0D01*
G01*
X103024999Y-65400000D01*
G75*
G02*
X102775000Y-65150001I0J249999D01*
G01*
X102775000Y-63849999D01*
G75*
G02*
X103024999Y-63600000I249999J0D01*
G01*
X103850001Y-63600000D01*
G75*
G02*
X104100000Y-63849999I0J-249999D01*
G01*
G37*
G36*
G01*
X107225000Y-63849999D02*
X107225000Y-65150001D01*
G75*
G02*
X106975001Y-65400000I-249999J0D01*
G01*
X106149999Y-65400000D01*
G75*
G02*
X105900000Y-65150001I0J249999D01*
G01*
X105900000Y-63849999D01*
G75*
G02*
X106149999Y-63600000I249999J0D01*
G01*
X106975001Y-63600000D01*
G75*
G02*
X107225000Y-63849999I0J-249999D01*
G01*
G37*
%TD*%
%TO.C,P3*%
G36*
G01*
X103296500Y-68910000D02*
X103296500Y-69090000D01*
G75*
G02*
X103206500Y-69180000I-90000J0D01*
G01*
X102928500Y-69180000D01*
G75*
G02*
X102838500Y-69090000I0J90000D01*
G01*
X102838500Y-68910000D01*
G75*
G02*
X102928500Y-68820000I90000J0D01*
G01*
X103206500Y-68820000D01*
G75*
G02*
X103296500Y-68910000I0J-90000D01*
G01*
G37*
G36*
G01*
X104161500Y-68910000D02*
X104161500Y-69090000D01*
G75*
G02*
X104071500Y-69180000I-90000J0D01*
G01*
X103793500Y-69180000D01*
G75*
G02*
X103703500Y-69090000I0J90000D01*
G01*
X103703500Y-68910000D01*
G75*
G02*
X103793500Y-68820000I90000J0D01*
G01*
X104071500Y-68820000D01*
G75*
G02*
X104161500Y-68910000I0J-90000D01*
G01*
G37*
%TD*%
D14*
%TO.C,J5*%
X104850000Y-73300000D03*
X104850000Y-70700000D03*
%TD*%
%TO.C,R5*%
G36*
G01*
X104100000Y-75049999D02*
X104100000Y-75950001D01*
G75*
G02*
X103850001Y-76200000I-249999J0D01*
G01*
X103149999Y-76200000D01*
G75*
G02*
X102900000Y-75950001I0J249999D01*
G01*
X102900000Y-75049999D01*
G75*
G02*
X103149999Y-74800000I249999J0D01*
G01*
X103850001Y-74800000D01*
G75*
G02*
X104100000Y-75049999I0J-249999D01*
G01*
G37*
G36*
G01*
X106100000Y-75049999D02*
X106100000Y-75950001D01*
G75*
G02*
X105850001Y-76200000I-249999J0D01*
G01*
X105149999Y-76200000D01*
G75*
G02*
X104900000Y-75950001I0J249999D01*
G01*
X104900000Y-75049999D01*
G75*
G02*
X105149999Y-74800000I249999J0D01*
G01*
X105850001Y-74800000D01*
G75*
G02*
X106100000Y-75049999I0J-249999D01*
G01*
G37*
%TD*%
D11*
%TO.C,U1*%
X111200000Y-65000000D03*
X108800000Y-65950000D03*
X108800000Y-64050000D03*
%TD*%
D15*
%TO.C,SW1*%
X110900000Y-79000000D03*
X103100000Y-79000000D03*
%TD*%
%TO.C,P4*%
G36*
G01*
X104838500Y-69090000D02*
X104838500Y-68910000D01*
G75*
G02*
X104928500Y-68820000I90000J0D01*
G01*
X105206500Y-68820000D01*
G75*
G02*
X105296500Y-68910000I0J-90000D01*
G01*
X105296500Y-69090000D01*
G75*
G02*
X105206500Y-69180000I-90000J0D01*
G01*
X104928500Y-69180000D01*
G75*
G02*
X104838500Y-69090000I0J90000D01*
G01*
G37*
G36*
G01*
X105703500Y-69090000D02*
X105703500Y-68910000D01*
G75*
G02*
X105793500Y-68820000I90000J0D01*
G01*
X106071500Y-68820000D01*
G75*
G02*
X106161500Y-68910000I0J-90000D01*
G01*
X106161500Y-69090000D01*
G75*
G02*
X106071500Y-69180000I-90000J0D01*
G01*
X105793500Y-69180000D01*
G75*
G02*
X105703500Y-69090000I0J90000D01*
G01*
G37*
%TD*%
%TO.C,C2*%
G36*
G01*
X107225000Y-44849999D02*
X107225000Y-46150001D01*
G75*
G02*
X106975001Y-46400000I-249999J0D01*
G01*
X106149999Y-46400000D01*
G75*
G02*
X105900000Y-46150001I0J249999D01*
G01*
X105900000Y-44849999D01*
G75*
G02*
X106149999Y-44600000I249999J0D01*
G01*
X106975001Y-44600000D01*
G75*
G02*
X107225000Y-44849999I0J-249999D01*
G01*
G37*
G36*
G01*
X104100000Y-44849999D02*
X104100000Y-46150001D01*
G75*
G02*
X103850001Y-46400000I-249999J0D01*
G01*
X103024999Y-46400000D01*
G75*
G02*
X102775000Y-46150001I0J249999D01*
G01*
X102775000Y-44849999D01*
G75*
G02*
X103024999Y-44600000I249999J0D01*
G01*
X103850001Y-44600000D01*
G75*
G02*
X104100000Y-44849999I0J-249999D01*
G01*
G37*
%TD*%
D14*
%TO.C,J5*%
X104850000Y-51700000D03*
X104850000Y-54300000D03*
%TD*%
D11*
%TO.C,U1*%
X108800000Y-45050000D03*
X108800000Y-46950000D03*
X111200000Y-46000000D03*
%TD*%
D15*
%TO.C,SW1*%
X103100000Y-60000000D03*
X110900000Y-60000000D03*
%TD*%
%TO.C,P4*%
G36*
G01*
X105703500Y-50090000D02*
X105703500Y-49910000D01*
G75*
G02*
X105793500Y-49820000I90000J0D01*
G01*
X106071500Y-49820000D01*
G75*
G02*
X106161500Y-49910000I0J-90000D01*
G01*
X106161500Y-50090000D01*
G75*
G02*
X106071500Y-50180000I-90000J0D01*
G01*
X105793500Y-50180000D01*
G75*
G02*
X105703500Y-50090000I0J90000D01*
G01*
G37*
G36*
G01*
X104838500Y-50090000D02*
X104838500Y-49910000D01*
G75*
G02*
X104928500Y-49820000I90000J0D01*
G01*
X105206500Y-49820000D01*
G75*
G02*
X105296500Y-49910000I0J-90000D01*
G01*
X105296500Y-50090000D01*
G75*
G02*
X105206500Y-50180000I-90000J0D01*
G01*
X104928500Y-50180000D01*
G75*
G02*
X104838500Y-50090000I0J90000D01*
G01*
G37*
%TD*%
%TO.C,R5*%
G36*
G01*
X106100000Y-56049999D02*
X106100000Y-56950001D01*
G75*
G02*
X105850001Y-57200000I-249999J0D01*
G01*
X105149999Y-57200000D01*
G75*
G02*
X104900000Y-56950001I0J249999D01*
G01*
X104900000Y-56049999D01*
G75*
G02*
X105149999Y-55800000I249999J0D01*
G01*
X105850001Y-55800000D01*
G75*
G02*
X106100000Y-56049999I0J-249999D01*
G01*
G37*
G36*
G01*
X104100000Y-56049999D02*
X104100000Y-56950001D01*
G75*
G02*
X103850001Y-57200000I-249999J0D01*
G01*
X103149999Y-57200000D01*
G75*
G02*
X102900000Y-56950001I0J249999D01*
G01*
X102900000Y-56049999D01*
G75*
G02*
X103149999Y-55800000I249999J0D01*
G01*
X103850001Y-55800000D01*
G75*
G02*
X104100000Y-56049999I0J-249999D01*
G01*
G37*
%TD*%
%TO.C,R1*%
G36*
G01*
X104900000Y-48450001D02*
X104900000Y-47549999D01*
G75*
G02*
X105149999Y-47300000I249999J0D01*
G01*
X105850001Y-47300000D01*
G75*
G02*
X106100000Y-47549999I0J-249999D01*
G01*
X106100000Y-48450001D01*
G75*
G02*
X105850001Y-48700000I-249999J0D01*
G01*
X105149999Y-48700000D01*
G75*
G02*
X104900000Y-48450001I0J249999D01*
G01*
G37*
G36*
G01*
X102900000Y-48450001D02*
X102900000Y-47549999D01*
G75*
G02*
X103149999Y-47300000I249999J0D01*
G01*
X103850001Y-47300000D01*
G75*
G02*
X104100000Y-47549999I0J-249999D01*
G01*
X104100000Y-48450001D01*
G75*
G02*
X103850001Y-48700000I-249999J0D01*
G01*
X103149999Y-48700000D01*
G75*
G02*
X102900000Y-48450001I0J249999D01*
G01*
G37*
%TD*%
%TO.C,P3*%
G36*
G01*
X104161500Y-49910000D02*
X104161500Y-50090000D01*
G75*
G02*
X104071500Y-50180000I-90000J0D01*
G01*
X103793500Y-50180000D01*
G75*
G02*
X103703500Y-50090000I0J90000D01*
G01*
X103703500Y-49910000D01*
G75*
G02*
X103793500Y-49820000I90000J0D01*
G01*
X104071500Y-49820000D01*
G75*
G02*
X104161500Y-49910000I0J-90000D01*
G01*
G37*
G36*
G01*
X103296500Y-49910000D02*
X103296500Y-50090000D01*
G75*
G02*
X103206500Y-50180000I-90000J0D01*
G01*
X102928500Y-50180000D01*
G75*
G02*
X102838500Y-50090000I0J90000D01*
G01*
X102838500Y-49910000D01*
G75*
G02*
X102928500Y-49820000I90000J0D01*
G01*
X103206500Y-49820000D01*
G75*
G02*
X103296500Y-49910000I0J-90000D01*
G01*
G37*
%TD*%
D12*
%TO.C,U2*%
X85500000Y-60600000D03*
X87500000Y-60600000D03*
X89500000Y-60600000D03*
X91500000Y-60600000D03*
X93500000Y-60600000D03*
X95500000Y-60600000D03*
X97500000Y-60600000D03*
X99500000Y-60600000D03*
D13*
X101000000Y-58000000D03*
X101000000Y-56000000D03*
X101000000Y-54000000D03*
X101000000Y-52000000D03*
X101000000Y-50000000D03*
X101000000Y-48000000D03*
D12*
X99500000Y-45400000D03*
X97500000Y-45400000D03*
X95500000Y-45400000D03*
X93500000Y-45400000D03*
X91500000Y-45400000D03*
X89500000Y-45400000D03*
X87500000Y-45400000D03*
X85500000Y-45400000D03*
%TD*%
D11*
%TO.C,U1*%
X69200000Y-46000000D03*
X66800000Y-46950000D03*
X66800000Y-45050000D03*
%TD*%
D12*
%TO.C,U2*%
X43500000Y-45400000D03*
X45500000Y-45400000D03*
X47500000Y-45400000D03*
X49500000Y-45400000D03*
X51500000Y-45400000D03*
X53500000Y-45400000D03*
X55500000Y-45400000D03*
X57500000Y-45400000D03*
D13*
X59000000Y-48000000D03*
X59000000Y-50000000D03*
X59000000Y-52000000D03*
X59000000Y-54000000D03*
X59000000Y-56000000D03*
X59000000Y-58000000D03*
D12*
X57500000Y-60600000D03*
X55500000Y-60600000D03*
X53500000Y-60600000D03*
X51500000Y-60600000D03*
X49500000Y-60600000D03*
X47500000Y-60600000D03*
X45500000Y-60600000D03*
X43500000Y-60600000D03*
%TD*%
D15*
%TO.C,SW1*%
X68900000Y-60000000D03*
X61100000Y-60000000D03*
%TD*%
%TO.C,R5*%
G36*
G01*
X62100000Y-56049999D02*
X62100000Y-56950001D01*
G75*
G02*
X61850001Y-57200000I-249999J0D01*
G01*
X61149999Y-57200000D01*
G75*
G02*
X60900000Y-56950001I0J249999D01*
G01*
X60900000Y-56049999D01*
G75*
G02*
X61149999Y-55800000I249999J0D01*
G01*
X61850001Y-55800000D01*
G75*
G02*
X62100000Y-56049999I0J-249999D01*
G01*
G37*
G36*
G01*
X64100000Y-56049999D02*
X64100000Y-56950001D01*
G75*
G02*
X63850001Y-57200000I-249999J0D01*
G01*
X63149999Y-57200000D01*
G75*
G02*
X62900000Y-56950001I0J249999D01*
G01*
X62900000Y-56049999D01*
G75*
G02*
X63149999Y-55800000I249999J0D01*
G01*
X63850001Y-55800000D01*
G75*
G02*
X64100000Y-56049999I0J-249999D01*
G01*
G37*
%TD*%
%TO.C,R1*%
G36*
G01*
X60900000Y-48450001D02*
X60900000Y-47549999D01*
G75*
G02*
X61149999Y-47300000I249999J0D01*
G01*
X61850001Y-47300000D01*
G75*
G02*
X62100000Y-47549999I0J-249999D01*
G01*
X62100000Y-48450001D01*
G75*
G02*
X61850001Y-48700000I-249999J0D01*
G01*
X61149999Y-48700000D01*
G75*
G02*
X60900000Y-48450001I0J249999D01*
G01*
G37*
G36*
G01*
X62900000Y-48450001D02*
X62900000Y-47549999D01*
G75*
G02*
X63149999Y-47300000I249999J0D01*
G01*
X63850001Y-47300000D01*
G75*
G02*
X64100000Y-47549999I0J-249999D01*
G01*
X64100000Y-48450001D01*
G75*
G02*
X63850001Y-48700000I-249999J0D01*
G01*
X63149999Y-48700000D01*
G75*
G02*
X62900000Y-48450001I0J249999D01*
G01*
G37*
%TD*%
%TO.C,P4*%
G36*
G01*
X62838500Y-50090000D02*
X62838500Y-49910000D01*
G75*
G02*
X62928500Y-49820000I90000J0D01*
G01*
X63206500Y-49820000D01*
G75*
G02*
X63296500Y-49910000I0J-90000D01*
G01*
X63296500Y-50090000D01*
G75*
G02*
X63206500Y-50180000I-90000J0D01*
G01*
X62928500Y-50180000D01*
G75*
G02*
X62838500Y-50090000I0J90000D01*
G01*
G37*
G36*
G01*
X63703500Y-50090000D02*
X63703500Y-49910000D01*
G75*
G02*
X63793500Y-49820000I90000J0D01*
G01*
X64071500Y-49820000D01*
G75*
G02*
X64161500Y-49910000I0J-90000D01*
G01*
X64161500Y-50090000D01*
G75*
G02*
X64071500Y-50180000I-90000J0D01*
G01*
X63793500Y-50180000D01*
G75*
G02*
X63703500Y-50090000I0J90000D01*
G01*
G37*
%TD*%
%TO.C,C2*%
G36*
G01*
X62100000Y-44849999D02*
X62100000Y-46150001D01*
G75*
G02*
X61850001Y-46400000I-249999J0D01*
G01*
X61024999Y-46400000D01*
G75*
G02*
X60775000Y-46150001I0J249999D01*
G01*
X60775000Y-44849999D01*
G75*
G02*
X61024999Y-44600000I249999J0D01*
G01*
X61850001Y-44600000D01*
G75*
G02*
X62100000Y-44849999I0J-249999D01*
G01*
G37*
G36*
G01*
X65225000Y-44849999D02*
X65225000Y-46150001D01*
G75*
G02*
X64975001Y-46400000I-249999J0D01*
G01*
X64149999Y-46400000D01*
G75*
G02*
X63900000Y-46150001I0J249999D01*
G01*
X63900000Y-44849999D01*
G75*
G02*
X64149999Y-44600000I249999J0D01*
G01*
X64975001Y-44600000D01*
G75*
G02*
X65225000Y-44849999I0J-249999D01*
G01*
G37*
%TD*%
%TO.C,P3*%
G36*
G01*
X61296500Y-49910000D02*
X61296500Y-50090000D01*
G75*
G02*
X61206500Y-50180000I-90000J0D01*
G01*
X60928500Y-50180000D01*
G75*
G02*
X60838500Y-50090000I0J90000D01*
G01*
X60838500Y-49910000D01*
G75*
G02*
X60928500Y-49820000I90000J0D01*
G01*
X61206500Y-49820000D01*
G75*
G02*
X61296500Y-49910000I0J-90000D01*
G01*
G37*
G36*
G01*
X62161500Y-49910000D02*
X62161500Y-50090000D01*
G75*
G02*
X62071500Y-50180000I-90000J0D01*
G01*
X61793500Y-50180000D01*
G75*
G02*
X61703500Y-50090000I0J90000D01*
G01*
X61703500Y-49910000D01*
G75*
G02*
X61793500Y-49820000I90000J0D01*
G01*
X62071500Y-49820000D01*
G75*
G02*
X62161500Y-49910000I0J-90000D01*
G01*
G37*
%TD*%
D14*
%TO.C,J5*%
X62850000Y-54300000D03*
X62850000Y-51700000D03*
%TD*%
D11*
%TO.C,U1*%
X111200000Y-27000000D03*
X108800000Y-27950000D03*
X108800000Y-26050000D03*
%TD*%
D12*
%TO.C,U2*%
X85500000Y-26400000D03*
X87500000Y-26400000D03*
X89500000Y-26400000D03*
X91500000Y-26400000D03*
X93500000Y-26400000D03*
X95500000Y-26400000D03*
X97500000Y-26400000D03*
X99500000Y-26400000D03*
D13*
X101000000Y-29000000D03*
X101000000Y-31000000D03*
X101000000Y-33000000D03*
X101000000Y-35000000D03*
X101000000Y-37000000D03*
X101000000Y-39000000D03*
D12*
X99500000Y-41600000D03*
X97500000Y-41600000D03*
X95500000Y-41600000D03*
X93500000Y-41600000D03*
X91500000Y-41600000D03*
X89500000Y-41600000D03*
X87500000Y-41600000D03*
X85500000Y-41600000D03*
%TD*%
D15*
%TO.C,SW1*%
X110900000Y-41000000D03*
X103100000Y-41000000D03*
%TD*%
%TO.C,R5*%
G36*
G01*
X104100000Y-37049999D02*
X104100000Y-37950001D01*
G75*
G02*
X103850001Y-38200000I-249999J0D01*
G01*
X103149999Y-38200000D01*
G75*
G02*
X102900000Y-37950001I0J249999D01*
G01*
X102900000Y-37049999D01*
G75*
G02*
X103149999Y-36800000I249999J0D01*
G01*
X103850001Y-36800000D01*
G75*
G02*
X104100000Y-37049999I0J-249999D01*
G01*
G37*
G36*
G01*
X106100000Y-37049999D02*
X106100000Y-37950001D01*
G75*
G02*
X105850001Y-38200000I-249999J0D01*
G01*
X105149999Y-38200000D01*
G75*
G02*
X104900000Y-37950001I0J249999D01*
G01*
X104900000Y-37049999D01*
G75*
G02*
X105149999Y-36800000I249999J0D01*
G01*
X105850001Y-36800000D01*
G75*
G02*
X106100000Y-37049999I0J-249999D01*
G01*
G37*
%TD*%
%TO.C,R1*%
G36*
G01*
X102900000Y-29450001D02*
X102900000Y-28549999D01*
G75*
G02*
X103149999Y-28300000I249999J0D01*
G01*
X103850001Y-28300000D01*
G75*
G02*
X104100000Y-28549999I0J-249999D01*
G01*
X104100000Y-29450001D01*
G75*
G02*
X103850001Y-29700000I-249999J0D01*
G01*
X103149999Y-29700000D01*
G75*
G02*
X102900000Y-29450001I0J249999D01*
G01*
G37*
G36*
G01*
X104900000Y-29450001D02*
X104900000Y-28549999D01*
G75*
G02*
X105149999Y-28300000I249999J0D01*
G01*
X105850001Y-28300000D01*
G75*
G02*
X106100000Y-28549999I0J-249999D01*
G01*
X106100000Y-29450001D01*
G75*
G02*
X105850001Y-29700000I-249999J0D01*
G01*
X105149999Y-29700000D01*
G75*
G02*
X104900000Y-29450001I0J249999D01*
G01*
G37*
%TD*%
%TO.C,P4*%
G36*
G01*
X104838500Y-31090000D02*
X104838500Y-30910000D01*
G75*
G02*
X104928500Y-30820000I90000J0D01*
G01*
X105206500Y-30820000D01*
G75*
G02*
X105296500Y-30910000I0J-90000D01*
G01*
X105296500Y-31090000D01*
G75*
G02*
X105206500Y-31180000I-90000J0D01*
G01*
X104928500Y-31180000D01*
G75*
G02*
X104838500Y-31090000I0J90000D01*
G01*
G37*
G36*
G01*
X105703500Y-31090000D02*
X105703500Y-30910000D01*
G75*
G02*
X105793500Y-30820000I90000J0D01*
G01*
X106071500Y-30820000D01*
G75*
G02*
X106161500Y-30910000I0J-90000D01*
G01*
X106161500Y-31090000D01*
G75*
G02*
X106071500Y-31180000I-90000J0D01*
G01*
X105793500Y-31180000D01*
G75*
G02*
X105703500Y-31090000I0J90000D01*
G01*
G37*
%TD*%
%TO.C,C2*%
G36*
G01*
X104100000Y-25849999D02*
X104100000Y-27150001D01*
G75*
G02*
X103850001Y-27400000I-249999J0D01*
G01*
X103024999Y-27400000D01*
G75*
G02*
X102775000Y-27150001I0J249999D01*
G01*
X102775000Y-25849999D01*
G75*
G02*
X103024999Y-25600000I249999J0D01*
G01*
X103850001Y-25600000D01*
G75*
G02*
X104100000Y-25849999I0J-249999D01*
G01*
G37*
G36*
G01*
X107225000Y-25849999D02*
X107225000Y-27150001D01*
G75*
G02*
X106975001Y-27400000I-249999J0D01*
G01*
X106149999Y-27400000D01*
G75*
G02*
X105900000Y-27150001I0J249999D01*
G01*
X105900000Y-25849999D01*
G75*
G02*
X106149999Y-25600000I249999J0D01*
G01*
X106975001Y-25600000D01*
G75*
G02*
X107225000Y-25849999I0J-249999D01*
G01*
G37*
%TD*%
%TO.C,P3*%
G36*
G01*
X103296500Y-30910000D02*
X103296500Y-31090000D01*
G75*
G02*
X103206500Y-31180000I-90000J0D01*
G01*
X102928500Y-31180000D01*
G75*
G02*
X102838500Y-31090000I0J90000D01*
G01*
X102838500Y-30910000D01*
G75*
G02*
X102928500Y-30820000I90000J0D01*
G01*
X103206500Y-30820000D01*
G75*
G02*
X103296500Y-30910000I0J-90000D01*
G01*
G37*
G36*
G01*
X104161500Y-30910000D02*
X104161500Y-31090000D01*
G75*
G02*
X104071500Y-31180000I-90000J0D01*
G01*
X103793500Y-31180000D01*
G75*
G02*
X103703500Y-31090000I0J90000D01*
G01*
X103703500Y-30910000D01*
G75*
G02*
X103793500Y-30820000I90000J0D01*
G01*
X104071500Y-30820000D01*
G75*
G02*
X104161500Y-30910000I0J-90000D01*
G01*
G37*
%TD*%
D14*
%TO.C,J5*%
X104850000Y-35300000D03*
X104850000Y-32700000D03*
%TD*%
%TO.C,C2*%
G36*
G01*
X65225000Y-25849999D02*
X65225000Y-27150001D01*
G75*
G02*
X64975001Y-27400000I-249999J0D01*
G01*
X64149999Y-27400000D01*
G75*
G02*
X63900000Y-27150001I0J249999D01*
G01*
X63900000Y-25849999D01*
G75*
G02*
X64149999Y-25600000I249999J0D01*
G01*
X64975001Y-25600000D01*
G75*
G02*
X65225000Y-25849999I0J-249999D01*
G01*
G37*
G36*
G01*
X62100000Y-25849999D02*
X62100000Y-27150001D01*
G75*
G02*
X61850001Y-27400000I-249999J0D01*
G01*
X61024999Y-27400000D01*
G75*
G02*
X60775000Y-27150001I0J249999D01*
G01*
X60775000Y-25849999D01*
G75*
G02*
X61024999Y-25600000I249999J0D01*
G01*
X61850001Y-25600000D01*
G75*
G02*
X62100000Y-25849999I0J-249999D01*
G01*
G37*
%TD*%
%TO.C,J5*%
X62850000Y-32700000D03*
X62850000Y-35300000D03*
%TD*%
%TO.C,P3*%
G36*
G01*
X62161500Y-30910000D02*
X62161500Y-31090000D01*
G75*
G02*
X62071500Y-31180000I-90000J0D01*
G01*
X61793500Y-31180000D01*
G75*
G02*
X61703500Y-31090000I0J90000D01*
G01*
X61703500Y-30910000D01*
G75*
G02*
X61793500Y-30820000I90000J0D01*
G01*
X62071500Y-30820000D01*
G75*
G02*
X62161500Y-30910000I0J-90000D01*
G01*
G37*
G36*
G01*
X61296500Y-30910000D02*
X61296500Y-31090000D01*
G75*
G02*
X61206500Y-31180000I-90000J0D01*
G01*
X60928500Y-31180000D01*
G75*
G02*
X60838500Y-31090000I0J90000D01*
G01*
X60838500Y-30910000D01*
G75*
G02*
X60928500Y-30820000I90000J0D01*
G01*
X61206500Y-30820000D01*
G75*
G02*
X61296500Y-30910000I0J-90000D01*
G01*
G37*
%TD*%
%TO.C,P4*%
G36*
G01*
X63703500Y-31090000D02*
X63703500Y-30910000D01*
G75*
G02*
X63793500Y-30820000I90000J0D01*
G01*
X64071500Y-30820000D01*
G75*
G02*
X64161500Y-30910000I0J-90000D01*
G01*
X64161500Y-31090000D01*
G75*
G02*
X64071500Y-31180000I-90000J0D01*
G01*
X63793500Y-31180000D01*
G75*
G02*
X63703500Y-31090000I0J90000D01*
G01*
G37*
G36*
G01*
X62838500Y-31090000D02*
X62838500Y-30910000D01*
G75*
G02*
X62928500Y-30820000I90000J0D01*
G01*
X63206500Y-30820000D01*
G75*
G02*
X63296500Y-30910000I0J-90000D01*
G01*
X63296500Y-31090000D01*
G75*
G02*
X63206500Y-31180000I-90000J0D01*
G01*
X62928500Y-31180000D01*
G75*
G02*
X62838500Y-31090000I0J90000D01*
G01*
G37*
%TD*%
%TO.C,R1*%
G36*
G01*
X62900000Y-29450001D02*
X62900000Y-28549999D01*
G75*
G02*
X63149999Y-28300000I249999J0D01*
G01*
X63850001Y-28300000D01*
G75*
G02*
X64100000Y-28549999I0J-249999D01*
G01*
X64100000Y-29450001D01*
G75*
G02*
X63850001Y-29700000I-249999J0D01*
G01*
X63149999Y-29700000D01*
G75*
G02*
X62900000Y-29450001I0J249999D01*
G01*
G37*
G36*
G01*
X60900000Y-29450001D02*
X60900000Y-28549999D01*
G75*
G02*
X61149999Y-28300000I249999J0D01*
G01*
X61850001Y-28300000D01*
G75*
G02*
X62100000Y-28549999I0J-249999D01*
G01*
X62100000Y-29450001D01*
G75*
G02*
X61850001Y-29700000I-249999J0D01*
G01*
X61149999Y-29700000D01*
G75*
G02*
X60900000Y-29450001I0J249999D01*
G01*
G37*
%TD*%
%TO.C,R5*%
G36*
G01*
X64100000Y-37049999D02*
X64100000Y-37950001D01*
G75*
G02*
X63850001Y-38200000I-249999J0D01*
G01*
X63149999Y-38200000D01*
G75*
G02*
X62900000Y-37950001I0J249999D01*
G01*
X62900000Y-37049999D01*
G75*
G02*
X63149999Y-36800000I249999J0D01*
G01*
X63850001Y-36800000D01*
G75*
G02*
X64100000Y-37049999I0J-249999D01*
G01*
G37*
G36*
G01*
X62100000Y-37049999D02*
X62100000Y-37950001D01*
G75*
G02*
X61850001Y-38200000I-249999J0D01*
G01*
X61149999Y-38200000D01*
G75*
G02*
X60900000Y-37950001I0J249999D01*
G01*
X60900000Y-37049999D01*
G75*
G02*
X61149999Y-36800000I249999J0D01*
G01*
X61850001Y-36800000D01*
G75*
G02*
X62100000Y-37049999I0J-249999D01*
G01*
G37*
%TD*%
D15*
%TO.C,SW1*%
X61100000Y-41000000D03*
X68900000Y-41000000D03*
%TD*%
D11*
%TO.C,U1*%
X66800000Y-26050000D03*
X66800000Y-27950000D03*
X69200000Y-27000000D03*
%TD*%
D12*
%TO.C,U2*%
X43500000Y-41600000D03*
X45500000Y-41600000D03*
X47500000Y-41600000D03*
X49500000Y-41600000D03*
X51500000Y-41600000D03*
X53500000Y-41600000D03*
X55500000Y-41600000D03*
X57500000Y-41600000D03*
D13*
X59000000Y-39000000D03*
X59000000Y-37000000D03*
X59000000Y-35000000D03*
X59000000Y-33000000D03*
X59000000Y-31000000D03*
X59000000Y-29000000D03*
D12*
X57500000Y-26400000D03*
X55500000Y-26400000D03*
X53500000Y-26400000D03*
X51500000Y-26400000D03*
X49500000Y-26400000D03*
X47500000Y-26400000D03*
X45500000Y-26400000D03*
X43500000Y-26400000D03*
%TD*%
M02*
