%TF.GenerationSoftware,KiCad,Pcbnew,(5.1.9)-1*%
%TF.CreationDate,2021-05-04T17:37:26+02:00*%
%TF.ProjectId,IM350_AM550_5V_V2.0_Multi,494d3335-305f-4414-9d35-35305f35565f,rev?*%
%TF.SameCoordinates,Original*%
%TF.FileFunction,Legend,Bot*%
%TF.FilePolarity,Positive*%
%FSLAX46Y46*%
G04 Gerber Fmt 4.6, Leading zero omitted, Abs format (unit mm)*
G04 Created by KiCad (PCBNEW (5.1.9)-1) date 2021-05-04 17:37:26*
%MOMM*%
%LPD*%
G01*
G04 APERTURE LIST*
%ADD10C,0.010000*%
G04 APERTURE END LIST*
D10*
%TO.C,G2*%
G36*
X83492326Y-103217061D02*
G01*
X81873127Y-103510566D01*
X80375819Y-103783059D01*
X79069367Y-104021903D01*
X78022741Y-104214460D01*
X77304906Y-104348094D01*
X77009545Y-104404934D01*
X76593885Y-104546903D01*
X76413497Y-104843737D01*
X76374545Y-105440165D01*
X76407793Y-106011956D01*
X76490653Y-106325211D01*
X76521540Y-106345454D01*
X76778355Y-106305176D01*
X77429840Y-106191475D01*
X78416572Y-106015055D01*
X79679129Y-105786618D01*
X81158090Y-105516866D01*
X82794032Y-105216503D01*
X82986995Y-105180952D01*
X89305455Y-104016451D01*
X95623915Y-105180952D01*
X97281064Y-105484688D01*
X98794570Y-105758889D01*
X100103590Y-105992789D01*
X101147280Y-106175622D01*
X101864797Y-106296622D01*
X102195300Y-106345022D01*
X102204824Y-106345454D01*
X102380197Y-106142454D01*
X102465563Y-105642268D01*
X102467273Y-105550900D01*
X102410457Y-104978993D01*
X102271728Y-104638719D01*
X102252347Y-104623514D01*
X101977171Y-104548696D01*
X101307694Y-104403827D01*
X100304101Y-104200815D01*
X99026578Y-103951566D01*
X97535311Y-103667990D01*
X95890485Y-103361994D01*
X95688764Y-103324906D01*
X89340106Y-102159130D01*
X83492326Y-103217061D01*
G37*
X83492326Y-103217061D02*
X81873127Y-103510566D01*
X80375819Y-103783059D01*
X79069367Y-104021903D01*
X78022741Y-104214460D01*
X77304906Y-104348094D01*
X77009545Y-104404934D01*
X76593885Y-104546903D01*
X76413497Y-104843737D01*
X76374545Y-105440165D01*
X76407793Y-106011956D01*
X76490653Y-106325211D01*
X76521540Y-106345454D01*
X76778355Y-106305176D01*
X77429840Y-106191475D01*
X78416572Y-106015055D01*
X79679129Y-105786618D01*
X81158090Y-105516866D01*
X82794032Y-105216503D01*
X82986995Y-105180952D01*
X89305455Y-104016451D01*
X95623915Y-105180952D01*
X97281064Y-105484688D01*
X98794570Y-105758889D01*
X100103590Y-105992789D01*
X101147280Y-106175622D01*
X101864797Y-106296622D01*
X102195300Y-106345022D01*
X102204824Y-106345454D01*
X102380197Y-106142454D01*
X102465563Y-105642268D01*
X102467273Y-105550900D01*
X102410457Y-104978993D01*
X102271728Y-104638719D01*
X102252347Y-104623514D01*
X101977171Y-104548696D01*
X101307694Y-104403827D01*
X100304101Y-104200815D01*
X99026578Y-103951566D01*
X97535311Y-103667990D01*
X95890485Y-103361994D01*
X95688764Y-103324906D01*
X89340106Y-102159130D01*
X83492326Y-103217061D01*
G36*
X80604571Y-107996136D02*
G01*
X80287452Y-108170983D01*
X80022530Y-108594195D01*
X79794599Y-109116363D01*
X79500109Y-109756220D01*
X79252343Y-110175473D01*
X79145455Y-110270909D01*
X78970635Y-110076068D01*
X78700792Y-109574721D01*
X78496310Y-109116363D01*
X78193394Y-108446186D01*
X77926195Y-108102406D01*
X77573216Y-107977186D01*
X77195524Y-107961818D01*
X76374545Y-107961818D01*
X76374545Y-113041818D01*
X76941702Y-113041818D01*
X77235265Y-113015048D01*
X77410692Y-112868948D01*
X77505415Y-112504829D01*
X77556868Y-111824002D01*
X77576702Y-111367727D01*
X77644545Y-109693636D01*
X78192526Y-110905909D01*
X78632272Y-111712638D01*
X79023867Y-112090872D01*
X79145455Y-112118181D01*
X79516537Y-111893411D01*
X79941431Y-111232945D01*
X80098383Y-110905909D01*
X80646364Y-109693636D01*
X80714207Y-111367727D01*
X80758262Y-112231043D01*
X80828035Y-112731377D01*
X80960959Y-112967418D01*
X81194467Y-113037853D01*
X81349207Y-113041818D01*
X81916364Y-113041818D01*
X81916364Y-107961818D01*
X81095385Y-107961818D01*
X80604571Y-107996136D01*
G37*
X80604571Y-107996136D02*
X80287452Y-108170983D01*
X80022530Y-108594195D01*
X79794599Y-109116363D01*
X79500109Y-109756220D01*
X79252343Y-110175473D01*
X79145455Y-110270909D01*
X78970635Y-110076068D01*
X78700792Y-109574721D01*
X78496310Y-109116363D01*
X78193394Y-108446186D01*
X77926195Y-108102406D01*
X77573216Y-107977186D01*
X77195524Y-107961818D01*
X76374545Y-107961818D01*
X76374545Y-113041818D01*
X76941702Y-113041818D01*
X77235265Y-113015048D01*
X77410692Y-112868948D01*
X77505415Y-112504829D01*
X77556868Y-111824002D01*
X77576702Y-111367727D01*
X77644545Y-109693636D01*
X78192526Y-110905909D01*
X78632272Y-111712638D01*
X79023867Y-112090872D01*
X79145455Y-112118181D01*
X79516537Y-111893411D01*
X79941431Y-111232945D01*
X80098383Y-110905909D01*
X80646364Y-109693636D01*
X80714207Y-111367727D01*
X80758262Y-112231043D01*
X80828035Y-112731377D01*
X80960959Y-112967418D01*
X81194467Y-113037853D01*
X81349207Y-113041818D01*
X81916364Y-113041818D01*
X81916364Y-107961818D01*
X81095385Y-107961818D01*
X80604571Y-107996136D01*
G36*
X83987335Y-107986845D02*
G01*
X83266254Y-108096570D01*
X82954490Y-108342964D01*
X83027933Y-108777993D01*
X83462471Y-109453626D01*
X84084818Y-110240129D01*
X84662589Y-110961922D01*
X85107553Y-111547470D01*
X85352701Y-111907237D01*
X85380000Y-111970704D01*
X85171127Y-112051485D01*
X84632342Y-112105052D01*
X84110000Y-112118181D01*
X83376069Y-112138226D01*
X82993733Y-112224894D01*
X82853545Y-112417981D01*
X82840000Y-112580000D01*
X82873125Y-112794643D01*
X83029609Y-112930110D01*
X83395119Y-113004437D01*
X84055321Y-113035658D01*
X85033636Y-113041818D01*
X86059002Y-113033022D01*
X86706761Y-112996120D01*
X87060960Y-112915343D01*
X87205644Y-112774919D01*
X87227273Y-112630205D01*
X87086267Y-112273596D01*
X86710206Y-111678026D01*
X86169529Y-110950873D01*
X85939785Y-110667477D01*
X84652297Y-109116363D01*
X85939785Y-109116363D01*
X86673374Y-109101850D01*
X87057595Y-109024744D01*
X87204734Y-108834701D01*
X87227273Y-108539091D01*
X87210812Y-108266199D01*
X87102286Y-108096586D01*
X86812980Y-108005696D01*
X86254179Y-107968969D01*
X85337167Y-107961850D01*
X85141844Y-107961818D01*
X83987335Y-107986845D01*
G37*
X83987335Y-107986845D02*
X83266254Y-108096570D01*
X82954490Y-108342964D01*
X83027933Y-108777993D01*
X83462471Y-109453626D01*
X84084818Y-110240129D01*
X84662589Y-110961922D01*
X85107553Y-111547470D01*
X85352701Y-111907237D01*
X85380000Y-111970704D01*
X85171127Y-112051485D01*
X84632342Y-112105052D01*
X84110000Y-112118181D01*
X83376069Y-112138226D01*
X82993733Y-112224894D01*
X82853545Y-112417981D01*
X82840000Y-112580000D01*
X82873125Y-112794643D01*
X83029609Y-112930110D01*
X83395119Y-113004437D01*
X84055321Y-113035658D01*
X85033636Y-113041818D01*
X86059002Y-113033022D01*
X86706761Y-112996120D01*
X87060960Y-112915343D01*
X87205644Y-112774919D01*
X87227273Y-112630205D01*
X87086267Y-112273596D01*
X86710206Y-111678026D01*
X86169529Y-110950873D01*
X85939785Y-110667477D01*
X84652297Y-109116363D01*
X85939785Y-109116363D01*
X86673374Y-109101850D01*
X87057595Y-109024744D01*
X87204734Y-108834701D01*
X87227273Y-108539091D01*
X87210812Y-108266199D01*
X87102286Y-108096586D01*
X86812980Y-108005696D01*
X86254179Y-107968969D01*
X85337167Y-107961850D01*
X85141844Y-107961818D01*
X83987335Y-107986845D01*
G36*
X91556818Y-107963106D02*
G01*
X90107982Y-108103587D01*
X89019507Y-108517315D01*
X88298508Y-109199123D01*
X87952100Y-110143840D01*
X87920000Y-110604872D01*
X88100493Y-111616709D01*
X88645426Y-112355900D01*
X89559985Y-112826202D01*
X90849353Y-113031370D01*
X91283214Y-113041818D01*
X92538182Y-113041818D01*
X92538182Y-110621672D01*
X91152727Y-110621672D01*
X91152727Y-112126980D01*
X90517727Y-111975287D01*
X89941673Y-111783473D01*
X89594091Y-111596250D01*
X89367634Y-111169201D01*
X89318477Y-110527147D01*
X89439316Y-109878403D01*
X89668312Y-109479220D01*
X90183585Y-109189040D01*
X90591948Y-109116363D01*
X90893181Y-109144690D01*
X91061164Y-109299044D01*
X91134663Y-109683485D01*
X91152443Y-110402073D01*
X91152727Y-110621672D01*
X92538182Y-110621672D01*
X92538182Y-107961818D01*
X91556818Y-107963106D01*
G37*
X91556818Y-107963106D02*
X90107982Y-108103587D01*
X89019507Y-108517315D01*
X88298508Y-109199123D01*
X87952100Y-110143840D01*
X87920000Y-110604872D01*
X88100493Y-111616709D01*
X88645426Y-112355900D01*
X89559985Y-112826202D01*
X90849353Y-113031370D01*
X91283214Y-113041818D01*
X92538182Y-113041818D01*
X92538182Y-110621672D01*
X91152727Y-110621672D01*
X91152727Y-112126980D01*
X90517727Y-111975287D01*
X89941673Y-111783473D01*
X89594091Y-111596250D01*
X89367634Y-111169201D01*
X89318477Y-110527147D01*
X89439316Y-109878403D01*
X89668312Y-109479220D01*
X90183585Y-109189040D01*
X90591948Y-109116363D01*
X90893181Y-109144690D01*
X91061164Y-109299044D01*
X91134663Y-109683485D01*
X91152443Y-110402073D01*
X91152727Y-110621672D01*
X92538182Y-110621672D01*
X92538182Y-107961818D01*
X91556818Y-107963106D01*
G36*
X95642837Y-108046235D02*
G01*
X94764684Y-108276401D01*
X94193038Y-108617685D01*
X94105054Y-108726718D01*
X93934390Y-109382505D01*
X94127254Y-110069532D01*
X94290102Y-110293121D01*
X94491165Y-110577610D01*
X94479224Y-110871679D01*
X94227204Y-111325884D01*
X94059193Y-111577178D01*
X93615248Y-112312785D01*
X93496480Y-112768546D01*
X93704158Y-112993792D01*
X94096818Y-113041194D01*
X94584610Y-112936356D01*
X94972164Y-112551108D01*
X95193636Y-112178010D01*
X95572771Y-111620334D01*
X95957725Y-111277117D01*
X96059545Y-111238066D01*
X96321578Y-111269813D01*
X96439795Y-111568632D01*
X96463636Y-112101250D01*
X96489728Y-112700492D01*
X96632454Y-112969616D01*
X96988494Y-113039887D01*
X97156364Y-113041818D01*
X97849091Y-113041818D01*
X97849091Y-109709696D01*
X96463636Y-109709696D01*
X96388255Y-110142177D01*
X96083953Y-110243785D01*
X95944091Y-110229241D01*
X95477274Y-109966292D01*
X95350758Y-109635909D01*
X95381730Y-109247837D01*
X95711239Y-109121022D01*
X95870304Y-109116363D01*
X96316807Y-109204860D01*
X96459257Y-109562941D01*
X96463636Y-109709696D01*
X97849091Y-109709696D01*
X97849091Y-107961818D01*
X96709578Y-107961818D01*
X95642837Y-108046235D01*
G37*
X95642837Y-108046235D02*
X94764684Y-108276401D01*
X94193038Y-108617685D01*
X94105054Y-108726718D01*
X93934390Y-109382505D01*
X94127254Y-110069532D01*
X94290102Y-110293121D01*
X94491165Y-110577610D01*
X94479224Y-110871679D01*
X94227204Y-111325884D01*
X94059193Y-111577178D01*
X93615248Y-112312785D01*
X93496480Y-112768546D01*
X93704158Y-112993792D01*
X94096818Y-113041194D01*
X94584610Y-112936356D01*
X94972164Y-112551108D01*
X95193636Y-112178010D01*
X95572771Y-111620334D01*
X95957725Y-111277117D01*
X96059545Y-111238066D01*
X96321578Y-111269813D01*
X96439795Y-111568632D01*
X96463636Y-112101250D01*
X96489728Y-112700492D01*
X96632454Y-112969616D01*
X96988494Y-113039887D01*
X97156364Y-113041818D01*
X97849091Y-113041818D01*
X97849091Y-109709696D01*
X96463636Y-109709696D01*
X96388255Y-110142177D01*
X96083953Y-110243785D01*
X95944091Y-110229241D01*
X95477274Y-109966292D01*
X95350758Y-109635909D01*
X95381730Y-109247837D01*
X95711239Y-109121022D01*
X95870304Y-109116363D01*
X96316807Y-109204860D01*
X96459257Y-109562941D01*
X96463636Y-109709696D01*
X97849091Y-109709696D01*
X97849091Y-107961818D01*
X96709578Y-107961818D01*
X95642837Y-108046235D01*
G36*
X102484909Y-107998292D02*
G01*
X102287451Y-108195944D01*
X102237457Y-108687122D01*
X102236364Y-108885454D01*
X102236364Y-109809091D01*
X100389091Y-109809091D01*
X100389091Y-108870117D01*
X100364956Y-108275193D01*
X100233747Y-108021424D01*
X99907262Y-107988531D01*
X99754091Y-108004208D01*
X99119091Y-108077272D01*
X99053552Y-110559545D01*
X98988012Y-113041818D01*
X99688552Y-113041818D01*
X100119278Y-113012352D01*
X100323280Y-112840367D01*
X100385084Y-112400487D01*
X100389091Y-112002727D01*
X100389091Y-110963636D01*
X102236364Y-110963636D01*
X102236364Y-112002727D01*
X102256445Y-112641680D01*
X102372390Y-112944309D01*
X102667753Y-113035944D01*
X102929091Y-113041818D01*
X103621818Y-113041818D01*
X103621818Y-107961818D01*
X102929091Y-107961818D01*
X102484909Y-107998292D01*
G37*
X102484909Y-107998292D02*
X102287451Y-108195944D01*
X102237457Y-108687122D01*
X102236364Y-108885454D01*
X102236364Y-109809091D01*
X100389091Y-109809091D01*
X100389091Y-108870117D01*
X100364956Y-108275193D01*
X100233747Y-108021424D01*
X99907262Y-107988531D01*
X99754091Y-108004208D01*
X99119091Y-108077272D01*
X99053552Y-110559545D01*
X98988012Y-113041818D01*
X99688552Y-113041818D01*
X100119278Y-113012352D01*
X100323280Y-112840367D01*
X100385084Y-112400487D01*
X100389091Y-112002727D01*
X100389091Y-110963636D01*
X102236364Y-110963636D01*
X102236364Y-112002727D01*
X102256445Y-112641680D01*
X102372390Y-112944309D01*
X102667753Y-113035944D01*
X102929091Y-113041818D01*
X103621818Y-113041818D01*
X103621818Y-107961818D01*
X102929091Y-107961818D01*
X102484909Y-107998292D01*
G36*
X104834091Y-103259720D02*
G01*
X104189823Y-103840303D01*
X103826172Y-104270803D01*
X103663573Y-104690181D01*
X103622463Y-105237399D01*
X103621818Y-105376992D01*
X103621818Y-106445133D01*
X104839933Y-105242149D01*
X106058048Y-104039166D01*
X106801539Y-104782657D01*
X107545029Y-105526148D01*
X106267906Y-106816738D01*
X104990782Y-108107328D01*
X105056755Y-110590599D01*
X105122727Y-113073871D01*
X105757727Y-112410209D01*
X106100825Y-112000821D01*
X106292543Y-111576390D01*
X106375590Y-110984816D01*
X106392727Y-110148614D01*
X106392727Y-108550680D01*
X107893628Y-107038189D01*
X109394530Y-105525698D01*
X106046364Y-102210588D01*
X104834091Y-103259720D01*
G37*
X104834091Y-103259720D02*
X104189823Y-103840303D01*
X103826172Y-104270803D01*
X103663573Y-104690181D01*
X103622463Y-105237399D01*
X103621818Y-105376992D01*
X103621818Y-106445133D01*
X104839933Y-105242149D01*
X106058048Y-104039166D01*
X106801539Y-104782657D01*
X107545029Y-105526148D01*
X106267906Y-106816738D01*
X104990782Y-108107328D01*
X105056755Y-110590599D01*
X105122727Y-113073871D01*
X105757727Y-112410209D01*
X106100825Y-112000821D01*
X106292543Y-111576390D01*
X106375590Y-110984816D01*
X106392727Y-110148614D01*
X106392727Y-108550680D01*
X107893628Y-107038189D01*
X109394530Y-105525698D01*
X106046364Y-102210588D01*
X104834091Y-103259720D01*
G36*
X62834091Y-103259720D02*
G01*
X62189823Y-103840303D01*
X61826172Y-104270803D01*
X61663573Y-104690181D01*
X61622463Y-105237399D01*
X61621818Y-105376992D01*
X61621818Y-106445133D01*
X62839933Y-105242149D01*
X64058048Y-104039166D01*
X64801539Y-104782657D01*
X65545029Y-105526148D01*
X64267906Y-106816738D01*
X62990782Y-108107328D01*
X63056755Y-110590599D01*
X63122727Y-113073871D01*
X63757727Y-112410209D01*
X64100825Y-112000821D01*
X64292543Y-111576390D01*
X64375590Y-110984816D01*
X64392727Y-110148614D01*
X64392727Y-108550680D01*
X65893628Y-107038189D01*
X67394530Y-105525698D01*
X64046364Y-102210588D01*
X62834091Y-103259720D01*
G37*
X62834091Y-103259720D02*
X62189823Y-103840303D01*
X61826172Y-104270803D01*
X61663573Y-104690181D01*
X61622463Y-105237399D01*
X61621818Y-105376992D01*
X61621818Y-106445133D01*
X62839933Y-105242149D01*
X64058048Y-104039166D01*
X64801539Y-104782657D01*
X65545029Y-105526148D01*
X64267906Y-106816738D01*
X62990782Y-108107328D01*
X63056755Y-110590599D01*
X63122727Y-113073871D01*
X63757727Y-112410209D01*
X64100825Y-112000821D01*
X64292543Y-111576390D01*
X64375590Y-110984816D01*
X64392727Y-110148614D01*
X64392727Y-108550680D01*
X65893628Y-107038189D01*
X67394530Y-105525698D01*
X64046364Y-102210588D01*
X62834091Y-103259720D01*
G36*
X60484909Y-107998292D02*
G01*
X60287451Y-108195944D01*
X60237457Y-108687122D01*
X60236364Y-108885454D01*
X60236364Y-109809091D01*
X58389091Y-109809091D01*
X58389091Y-108870117D01*
X58364956Y-108275193D01*
X58233747Y-108021424D01*
X57907262Y-107988531D01*
X57754091Y-108004208D01*
X57119091Y-108077272D01*
X57053552Y-110559545D01*
X56988012Y-113041818D01*
X57688552Y-113041818D01*
X58119278Y-113012352D01*
X58323280Y-112840367D01*
X58385084Y-112400487D01*
X58389091Y-112002727D01*
X58389091Y-110963636D01*
X60236364Y-110963636D01*
X60236364Y-112002727D01*
X60256445Y-112641680D01*
X60372390Y-112944309D01*
X60667753Y-113035944D01*
X60929091Y-113041818D01*
X61621818Y-113041818D01*
X61621818Y-107961818D01*
X60929091Y-107961818D01*
X60484909Y-107998292D01*
G37*
X60484909Y-107998292D02*
X60287451Y-108195944D01*
X60237457Y-108687122D01*
X60236364Y-108885454D01*
X60236364Y-109809091D01*
X58389091Y-109809091D01*
X58389091Y-108870117D01*
X58364956Y-108275193D01*
X58233747Y-108021424D01*
X57907262Y-107988531D01*
X57754091Y-108004208D01*
X57119091Y-108077272D01*
X57053552Y-110559545D01*
X56988012Y-113041818D01*
X57688552Y-113041818D01*
X58119278Y-113012352D01*
X58323280Y-112840367D01*
X58385084Y-112400487D01*
X58389091Y-112002727D01*
X58389091Y-110963636D01*
X60236364Y-110963636D01*
X60236364Y-112002727D01*
X60256445Y-112641680D01*
X60372390Y-112944309D01*
X60667753Y-113035944D01*
X60929091Y-113041818D01*
X61621818Y-113041818D01*
X61621818Y-107961818D01*
X60929091Y-107961818D01*
X60484909Y-107998292D01*
G36*
X53642837Y-108046235D02*
G01*
X52764684Y-108276401D01*
X52193038Y-108617685D01*
X52105054Y-108726718D01*
X51934390Y-109382505D01*
X52127254Y-110069532D01*
X52290102Y-110293121D01*
X52491165Y-110577610D01*
X52479224Y-110871679D01*
X52227204Y-111325884D01*
X52059193Y-111577178D01*
X51615248Y-112312785D01*
X51496480Y-112768546D01*
X51704158Y-112993792D01*
X52096818Y-113041194D01*
X52584610Y-112936356D01*
X52972164Y-112551108D01*
X53193636Y-112178010D01*
X53572771Y-111620334D01*
X53957725Y-111277117D01*
X54059545Y-111238066D01*
X54321578Y-111269813D01*
X54439795Y-111568632D01*
X54463636Y-112101250D01*
X54489728Y-112700492D01*
X54632454Y-112969616D01*
X54988494Y-113039887D01*
X55156364Y-113041818D01*
X55849091Y-113041818D01*
X55849091Y-109709696D01*
X54463636Y-109709696D01*
X54388255Y-110142177D01*
X54083953Y-110243785D01*
X53944091Y-110229241D01*
X53477274Y-109966292D01*
X53350758Y-109635909D01*
X53381730Y-109247837D01*
X53711239Y-109121022D01*
X53870304Y-109116363D01*
X54316807Y-109204860D01*
X54459257Y-109562941D01*
X54463636Y-109709696D01*
X55849091Y-109709696D01*
X55849091Y-107961818D01*
X54709578Y-107961818D01*
X53642837Y-108046235D01*
G37*
X53642837Y-108046235D02*
X52764684Y-108276401D01*
X52193038Y-108617685D01*
X52105054Y-108726718D01*
X51934390Y-109382505D01*
X52127254Y-110069532D01*
X52290102Y-110293121D01*
X52491165Y-110577610D01*
X52479224Y-110871679D01*
X52227204Y-111325884D01*
X52059193Y-111577178D01*
X51615248Y-112312785D01*
X51496480Y-112768546D01*
X51704158Y-112993792D01*
X52096818Y-113041194D01*
X52584610Y-112936356D01*
X52972164Y-112551108D01*
X53193636Y-112178010D01*
X53572771Y-111620334D01*
X53957725Y-111277117D01*
X54059545Y-111238066D01*
X54321578Y-111269813D01*
X54439795Y-111568632D01*
X54463636Y-112101250D01*
X54489728Y-112700492D01*
X54632454Y-112969616D01*
X54988494Y-113039887D01*
X55156364Y-113041818D01*
X55849091Y-113041818D01*
X55849091Y-109709696D01*
X54463636Y-109709696D01*
X54388255Y-110142177D01*
X54083953Y-110243785D01*
X53944091Y-110229241D01*
X53477274Y-109966292D01*
X53350758Y-109635909D01*
X53381730Y-109247837D01*
X53711239Y-109121022D01*
X53870304Y-109116363D01*
X54316807Y-109204860D01*
X54459257Y-109562941D01*
X54463636Y-109709696D01*
X55849091Y-109709696D01*
X55849091Y-107961818D01*
X54709578Y-107961818D01*
X53642837Y-108046235D01*
G36*
X49556818Y-107963106D02*
G01*
X48107982Y-108103587D01*
X47019507Y-108517315D01*
X46298508Y-109199123D01*
X45952100Y-110143840D01*
X45920000Y-110604872D01*
X46100493Y-111616709D01*
X46645426Y-112355900D01*
X47559985Y-112826202D01*
X48849353Y-113031370D01*
X49283214Y-113041818D01*
X50538182Y-113041818D01*
X50538182Y-110621672D01*
X49152727Y-110621672D01*
X49152727Y-112126980D01*
X48517727Y-111975287D01*
X47941673Y-111783473D01*
X47594091Y-111596250D01*
X47367634Y-111169201D01*
X47318477Y-110527147D01*
X47439316Y-109878403D01*
X47668312Y-109479220D01*
X48183585Y-109189040D01*
X48591948Y-109116363D01*
X48893181Y-109144690D01*
X49061164Y-109299044D01*
X49134663Y-109683485D01*
X49152443Y-110402073D01*
X49152727Y-110621672D01*
X50538182Y-110621672D01*
X50538182Y-107961818D01*
X49556818Y-107963106D01*
G37*
X49556818Y-107963106D02*
X48107982Y-108103587D01*
X47019507Y-108517315D01*
X46298508Y-109199123D01*
X45952100Y-110143840D01*
X45920000Y-110604872D01*
X46100493Y-111616709D01*
X46645426Y-112355900D01*
X47559985Y-112826202D01*
X48849353Y-113031370D01*
X49283214Y-113041818D01*
X50538182Y-113041818D01*
X50538182Y-110621672D01*
X49152727Y-110621672D01*
X49152727Y-112126980D01*
X48517727Y-111975287D01*
X47941673Y-111783473D01*
X47594091Y-111596250D01*
X47367634Y-111169201D01*
X47318477Y-110527147D01*
X47439316Y-109878403D01*
X47668312Y-109479220D01*
X48183585Y-109189040D01*
X48591948Y-109116363D01*
X48893181Y-109144690D01*
X49061164Y-109299044D01*
X49134663Y-109683485D01*
X49152443Y-110402073D01*
X49152727Y-110621672D01*
X50538182Y-110621672D01*
X50538182Y-107961818D01*
X49556818Y-107963106D01*
G36*
X41987335Y-107986845D02*
G01*
X41266254Y-108096570D01*
X40954490Y-108342964D01*
X41027933Y-108777993D01*
X41462471Y-109453626D01*
X42084818Y-110240129D01*
X42662589Y-110961922D01*
X43107553Y-111547470D01*
X43352701Y-111907237D01*
X43380000Y-111970704D01*
X43171127Y-112051485D01*
X42632342Y-112105052D01*
X42110000Y-112118181D01*
X41376069Y-112138226D01*
X40993733Y-112224894D01*
X40853545Y-112417981D01*
X40840000Y-112580000D01*
X40873125Y-112794643D01*
X41029609Y-112930110D01*
X41395119Y-113004437D01*
X42055321Y-113035658D01*
X43033636Y-113041818D01*
X44059002Y-113033022D01*
X44706761Y-112996120D01*
X45060960Y-112915343D01*
X45205644Y-112774919D01*
X45227273Y-112630205D01*
X45086267Y-112273596D01*
X44710206Y-111678026D01*
X44169529Y-110950873D01*
X43939785Y-110667477D01*
X42652297Y-109116363D01*
X43939785Y-109116363D01*
X44673374Y-109101850D01*
X45057595Y-109024744D01*
X45204734Y-108834701D01*
X45227273Y-108539091D01*
X45210812Y-108266199D01*
X45102286Y-108096586D01*
X44812980Y-108005696D01*
X44254179Y-107968969D01*
X43337167Y-107961850D01*
X43141844Y-107961818D01*
X41987335Y-107986845D01*
G37*
X41987335Y-107986845D02*
X41266254Y-108096570D01*
X40954490Y-108342964D01*
X41027933Y-108777993D01*
X41462471Y-109453626D01*
X42084818Y-110240129D01*
X42662589Y-110961922D01*
X43107553Y-111547470D01*
X43352701Y-111907237D01*
X43380000Y-111970704D01*
X43171127Y-112051485D01*
X42632342Y-112105052D01*
X42110000Y-112118181D01*
X41376069Y-112138226D01*
X40993733Y-112224894D01*
X40853545Y-112417981D01*
X40840000Y-112580000D01*
X40873125Y-112794643D01*
X41029609Y-112930110D01*
X41395119Y-113004437D01*
X42055321Y-113035658D01*
X43033636Y-113041818D01*
X44059002Y-113033022D01*
X44706761Y-112996120D01*
X45060960Y-112915343D01*
X45205644Y-112774919D01*
X45227273Y-112630205D01*
X45086267Y-112273596D01*
X44710206Y-111678026D01*
X44169529Y-110950873D01*
X43939785Y-110667477D01*
X42652297Y-109116363D01*
X43939785Y-109116363D01*
X44673374Y-109101850D01*
X45057595Y-109024744D01*
X45204734Y-108834701D01*
X45227273Y-108539091D01*
X45210812Y-108266199D01*
X45102286Y-108096586D01*
X44812980Y-108005696D01*
X44254179Y-107968969D01*
X43337167Y-107961850D01*
X43141844Y-107961818D01*
X41987335Y-107986845D01*
G36*
X38604571Y-107996136D02*
G01*
X38287452Y-108170983D01*
X38022530Y-108594195D01*
X37794599Y-109116363D01*
X37500109Y-109756220D01*
X37252343Y-110175473D01*
X37145455Y-110270909D01*
X36970635Y-110076068D01*
X36700792Y-109574721D01*
X36496310Y-109116363D01*
X36193394Y-108446186D01*
X35926195Y-108102406D01*
X35573216Y-107977186D01*
X35195524Y-107961818D01*
X34374545Y-107961818D01*
X34374545Y-113041818D01*
X34941702Y-113041818D01*
X35235265Y-113015048D01*
X35410692Y-112868948D01*
X35505415Y-112504829D01*
X35556868Y-111824002D01*
X35576702Y-111367727D01*
X35644545Y-109693636D01*
X36192526Y-110905909D01*
X36632272Y-111712638D01*
X37023867Y-112090872D01*
X37145455Y-112118181D01*
X37516537Y-111893411D01*
X37941431Y-111232945D01*
X38098383Y-110905909D01*
X38646364Y-109693636D01*
X38714207Y-111367727D01*
X38758262Y-112231043D01*
X38828035Y-112731377D01*
X38960959Y-112967418D01*
X39194467Y-113037853D01*
X39349207Y-113041818D01*
X39916364Y-113041818D01*
X39916364Y-107961818D01*
X39095385Y-107961818D01*
X38604571Y-107996136D01*
G37*
X38604571Y-107996136D02*
X38287452Y-108170983D01*
X38022530Y-108594195D01*
X37794599Y-109116363D01*
X37500109Y-109756220D01*
X37252343Y-110175473D01*
X37145455Y-110270909D01*
X36970635Y-110076068D01*
X36700792Y-109574721D01*
X36496310Y-109116363D01*
X36193394Y-108446186D01*
X35926195Y-108102406D01*
X35573216Y-107977186D01*
X35195524Y-107961818D01*
X34374545Y-107961818D01*
X34374545Y-113041818D01*
X34941702Y-113041818D01*
X35235265Y-113015048D01*
X35410692Y-112868948D01*
X35505415Y-112504829D01*
X35556868Y-111824002D01*
X35576702Y-111367727D01*
X35644545Y-109693636D01*
X36192526Y-110905909D01*
X36632272Y-111712638D01*
X37023867Y-112090872D01*
X37145455Y-112118181D01*
X37516537Y-111893411D01*
X37941431Y-111232945D01*
X38098383Y-110905909D01*
X38646364Y-109693636D01*
X38714207Y-111367727D01*
X38758262Y-112231043D01*
X38828035Y-112731377D01*
X38960959Y-112967418D01*
X39194467Y-113037853D01*
X39349207Y-113041818D01*
X39916364Y-113041818D01*
X39916364Y-107961818D01*
X39095385Y-107961818D01*
X38604571Y-107996136D01*
G36*
X41492326Y-103217061D02*
G01*
X39873127Y-103510566D01*
X38375819Y-103783059D01*
X37069367Y-104021903D01*
X36022741Y-104214460D01*
X35304906Y-104348094D01*
X35009545Y-104404934D01*
X34593885Y-104546903D01*
X34413497Y-104843737D01*
X34374545Y-105440165D01*
X34407793Y-106011956D01*
X34490653Y-106325211D01*
X34521540Y-106345454D01*
X34778355Y-106305176D01*
X35429840Y-106191475D01*
X36416572Y-106015055D01*
X37679129Y-105786618D01*
X39158090Y-105516866D01*
X40794032Y-105216503D01*
X40986995Y-105180952D01*
X47305455Y-104016451D01*
X53623915Y-105180952D01*
X55281064Y-105484688D01*
X56794570Y-105758889D01*
X58103590Y-105992789D01*
X59147280Y-106175622D01*
X59864797Y-106296622D01*
X60195300Y-106345022D01*
X60204824Y-106345454D01*
X60380197Y-106142454D01*
X60465563Y-105642268D01*
X60467273Y-105550900D01*
X60410457Y-104978993D01*
X60271728Y-104638719D01*
X60252347Y-104623514D01*
X59977171Y-104548696D01*
X59307694Y-104403827D01*
X58304101Y-104200815D01*
X57026578Y-103951566D01*
X55535311Y-103667990D01*
X53890485Y-103361994D01*
X53688764Y-103324906D01*
X47340106Y-102159130D01*
X41492326Y-103217061D01*
G37*
X41492326Y-103217061D02*
X39873127Y-103510566D01*
X38375819Y-103783059D01*
X37069367Y-104021903D01*
X36022741Y-104214460D01*
X35304906Y-104348094D01*
X35009545Y-104404934D01*
X34593885Y-104546903D01*
X34413497Y-104843737D01*
X34374545Y-105440165D01*
X34407793Y-106011956D01*
X34490653Y-106325211D01*
X34521540Y-106345454D01*
X34778355Y-106305176D01*
X35429840Y-106191475D01*
X36416572Y-106015055D01*
X37679129Y-105786618D01*
X39158090Y-105516866D01*
X40794032Y-105216503D01*
X40986995Y-105180952D01*
X47305455Y-104016451D01*
X53623915Y-105180952D01*
X55281064Y-105484688D01*
X56794570Y-105758889D01*
X58103590Y-105992789D01*
X59147280Y-106175622D01*
X59864797Y-106296622D01*
X60195300Y-106345022D01*
X60204824Y-106345454D01*
X60380197Y-106142454D01*
X60465563Y-105642268D01*
X60467273Y-105550900D01*
X60410457Y-104978993D01*
X60271728Y-104638719D01*
X60252347Y-104623514D01*
X59977171Y-104548696D01*
X59307694Y-104403827D01*
X58304101Y-104200815D01*
X57026578Y-103951566D01*
X55535311Y-103667990D01*
X53890485Y-103361994D01*
X53688764Y-103324906D01*
X47340106Y-102159130D01*
X41492326Y-103217061D01*
G36*
X104834091Y-84259720D02*
G01*
X104189823Y-84840303D01*
X103826172Y-85270803D01*
X103663573Y-85690181D01*
X103622463Y-86237399D01*
X103621818Y-86376992D01*
X103621818Y-87445133D01*
X104839933Y-86242149D01*
X106058048Y-85039166D01*
X106801539Y-85782657D01*
X107545029Y-86526148D01*
X106267906Y-87816738D01*
X104990782Y-89107328D01*
X105056755Y-91590599D01*
X105122727Y-94073871D01*
X105757727Y-93410209D01*
X106100825Y-93000821D01*
X106292543Y-92576390D01*
X106375590Y-91984816D01*
X106392727Y-91148614D01*
X106392727Y-89550680D01*
X107893628Y-88038189D01*
X109394530Y-86525698D01*
X106046364Y-83210588D01*
X104834091Y-84259720D01*
G37*
X104834091Y-84259720D02*
X104189823Y-84840303D01*
X103826172Y-85270803D01*
X103663573Y-85690181D01*
X103622463Y-86237399D01*
X103621818Y-86376992D01*
X103621818Y-87445133D01*
X104839933Y-86242149D01*
X106058048Y-85039166D01*
X106801539Y-85782657D01*
X107545029Y-86526148D01*
X106267906Y-87816738D01*
X104990782Y-89107328D01*
X105056755Y-91590599D01*
X105122727Y-94073871D01*
X105757727Y-93410209D01*
X106100825Y-93000821D01*
X106292543Y-92576390D01*
X106375590Y-91984816D01*
X106392727Y-91148614D01*
X106392727Y-89550680D01*
X107893628Y-88038189D01*
X109394530Y-86525698D01*
X106046364Y-83210588D01*
X104834091Y-84259720D01*
G36*
X102484909Y-88998292D02*
G01*
X102287451Y-89195944D01*
X102237457Y-89687122D01*
X102236364Y-89885454D01*
X102236364Y-90809091D01*
X100389091Y-90809091D01*
X100389091Y-89870117D01*
X100364956Y-89275193D01*
X100233747Y-89021424D01*
X99907262Y-88988531D01*
X99754091Y-89004208D01*
X99119091Y-89077272D01*
X99053552Y-91559545D01*
X98988012Y-94041818D01*
X99688552Y-94041818D01*
X100119278Y-94012352D01*
X100323280Y-93840367D01*
X100385084Y-93400487D01*
X100389091Y-93002727D01*
X100389091Y-91963636D01*
X102236364Y-91963636D01*
X102236364Y-93002727D01*
X102256445Y-93641680D01*
X102372390Y-93944309D01*
X102667753Y-94035944D01*
X102929091Y-94041818D01*
X103621818Y-94041818D01*
X103621818Y-88961818D01*
X102929091Y-88961818D01*
X102484909Y-88998292D01*
G37*
X102484909Y-88998292D02*
X102287451Y-89195944D01*
X102237457Y-89687122D01*
X102236364Y-89885454D01*
X102236364Y-90809091D01*
X100389091Y-90809091D01*
X100389091Y-89870117D01*
X100364956Y-89275193D01*
X100233747Y-89021424D01*
X99907262Y-88988531D01*
X99754091Y-89004208D01*
X99119091Y-89077272D01*
X99053552Y-91559545D01*
X98988012Y-94041818D01*
X99688552Y-94041818D01*
X100119278Y-94012352D01*
X100323280Y-93840367D01*
X100385084Y-93400487D01*
X100389091Y-93002727D01*
X100389091Y-91963636D01*
X102236364Y-91963636D01*
X102236364Y-93002727D01*
X102256445Y-93641680D01*
X102372390Y-93944309D01*
X102667753Y-94035944D01*
X102929091Y-94041818D01*
X103621818Y-94041818D01*
X103621818Y-88961818D01*
X102929091Y-88961818D01*
X102484909Y-88998292D01*
G36*
X95642837Y-89046235D02*
G01*
X94764684Y-89276401D01*
X94193038Y-89617685D01*
X94105054Y-89726718D01*
X93934390Y-90382505D01*
X94127254Y-91069532D01*
X94290102Y-91293121D01*
X94491165Y-91577610D01*
X94479224Y-91871679D01*
X94227204Y-92325884D01*
X94059193Y-92577178D01*
X93615248Y-93312785D01*
X93496480Y-93768546D01*
X93704158Y-93993792D01*
X94096818Y-94041194D01*
X94584610Y-93936356D01*
X94972164Y-93551108D01*
X95193636Y-93178010D01*
X95572771Y-92620334D01*
X95957725Y-92277117D01*
X96059545Y-92238066D01*
X96321578Y-92269813D01*
X96439795Y-92568632D01*
X96463636Y-93101250D01*
X96489728Y-93700492D01*
X96632454Y-93969616D01*
X96988494Y-94039887D01*
X97156364Y-94041818D01*
X97849091Y-94041818D01*
X97849091Y-90709696D01*
X96463636Y-90709696D01*
X96388255Y-91142177D01*
X96083953Y-91243785D01*
X95944091Y-91229241D01*
X95477274Y-90966292D01*
X95350758Y-90635909D01*
X95381730Y-90247837D01*
X95711239Y-90121022D01*
X95870304Y-90116363D01*
X96316807Y-90204860D01*
X96459257Y-90562941D01*
X96463636Y-90709696D01*
X97849091Y-90709696D01*
X97849091Y-88961818D01*
X96709578Y-88961818D01*
X95642837Y-89046235D01*
G37*
X95642837Y-89046235D02*
X94764684Y-89276401D01*
X94193038Y-89617685D01*
X94105054Y-89726718D01*
X93934390Y-90382505D01*
X94127254Y-91069532D01*
X94290102Y-91293121D01*
X94491165Y-91577610D01*
X94479224Y-91871679D01*
X94227204Y-92325884D01*
X94059193Y-92577178D01*
X93615248Y-93312785D01*
X93496480Y-93768546D01*
X93704158Y-93993792D01*
X94096818Y-94041194D01*
X94584610Y-93936356D01*
X94972164Y-93551108D01*
X95193636Y-93178010D01*
X95572771Y-92620334D01*
X95957725Y-92277117D01*
X96059545Y-92238066D01*
X96321578Y-92269813D01*
X96439795Y-92568632D01*
X96463636Y-93101250D01*
X96489728Y-93700492D01*
X96632454Y-93969616D01*
X96988494Y-94039887D01*
X97156364Y-94041818D01*
X97849091Y-94041818D01*
X97849091Y-90709696D01*
X96463636Y-90709696D01*
X96388255Y-91142177D01*
X96083953Y-91243785D01*
X95944091Y-91229241D01*
X95477274Y-90966292D01*
X95350758Y-90635909D01*
X95381730Y-90247837D01*
X95711239Y-90121022D01*
X95870304Y-90116363D01*
X96316807Y-90204860D01*
X96459257Y-90562941D01*
X96463636Y-90709696D01*
X97849091Y-90709696D01*
X97849091Y-88961818D01*
X96709578Y-88961818D01*
X95642837Y-89046235D01*
G36*
X91556818Y-88963106D02*
G01*
X90107982Y-89103587D01*
X89019507Y-89517315D01*
X88298508Y-90199123D01*
X87952100Y-91143840D01*
X87920000Y-91604872D01*
X88100493Y-92616709D01*
X88645426Y-93355900D01*
X89559985Y-93826202D01*
X90849353Y-94031370D01*
X91283214Y-94041818D01*
X92538182Y-94041818D01*
X92538182Y-91621672D01*
X91152727Y-91621672D01*
X91152727Y-93126980D01*
X90517727Y-92975287D01*
X89941673Y-92783473D01*
X89594091Y-92596250D01*
X89367634Y-92169201D01*
X89318477Y-91527147D01*
X89439316Y-90878403D01*
X89668312Y-90479220D01*
X90183585Y-90189040D01*
X90591948Y-90116363D01*
X90893181Y-90144690D01*
X91061164Y-90299044D01*
X91134663Y-90683485D01*
X91152443Y-91402073D01*
X91152727Y-91621672D01*
X92538182Y-91621672D01*
X92538182Y-88961818D01*
X91556818Y-88963106D01*
G37*
X91556818Y-88963106D02*
X90107982Y-89103587D01*
X89019507Y-89517315D01*
X88298508Y-90199123D01*
X87952100Y-91143840D01*
X87920000Y-91604872D01*
X88100493Y-92616709D01*
X88645426Y-93355900D01*
X89559985Y-93826202D01*
X90849353Y-94031370D01*
X91283214Y-94041818D01*
X92538182Y-94041818D01*
X92538182Y-91621672D01*
X91152727Y-91621672D01*
X91152727Y-93126980D01*
X90517727Y-92975287D01*
X89941673Y-92783473D01*
X89594091Y-92596250D01*
X89367634Y-92169201D01*
X89318477Y-91527147D01*
X89439316Y-90878403D01*
X89668312Y-90479220D01*
X90183585Y-90189040D01*
X90591948Y-90116363D01*
X90893181Y-90144690D01*
X91061164Y-90299044D01*
X91134663Y-90683485D01*
X91152443Y-91402073D01*
X91152727Y-91621672D01*
X92538182Y-91621672D01*
X92538182Y-88961818D01*
X91556818Y-88963106D01*
G36*
X83987335Y-88986845D02*
G01*
X83266254Y-89096570D01*
X82954490Y-89342964D01*
X83027933Y-89777993D01*
X83462471Y-90453626D01*
X84084818Y-91240129D01*
X84662589Y-91961922D01*
X85107553Y-92547470D01*
X85352701Y-92907237D01*
X85380000Y-92970704D01*
X85171127Y-93051485D01*
X84632342Y-93105052D01*
X84110000Y-93118181D01*
X83376069Y-93138226D01*
X82993733Y-93224894D01*
X82853545Y-93417981D01*
X82840000Y-93580000D01*
X82873125Y-93794643D01*
X83029609Y-93930110D01*
X83395119Y-94004437D01*
X84055321Y-94035658D01*
X85033636Y-94041818D01*
X86059002Y-94033022D01*
X86706761Y-93996120D01*
X87060960Y-93915343D01*
X87205644Y-93774919D01*
X87227273Y-93630205D01*
X87086267Y-93273596D01*
X86710206Y-92678026D01*
X86169529Y-91950873D01*
X85939785Y-91667477D01*
X84652297Y-90116363D01*
X85939785Y-90116363D01*
X86673374Y-90101850D01*
X87057595Y-90024744D01*
X87204734Y-89834701D01*
X87227273Y-89539091D01*
X87210812Y-89266199D01*
X87102286Y-89096586D01*
X86812980Y-89005696D01*
X86254179Y-88968969D01*
X85337167Y-88961850D01*
X85141844Y-88961818D01*
X83987335Y-88986845D01*
G37*
X83987335Y-88986845D02*
X83266254Y-89096570D01*
X82954490Y-89342964D01*
X83027933Y-89777993D01*
X83462471Y-90453626D01*
X84084818Y-91240129D01*
X84662589Y-91961922D01*
X85107553Y-92547470D01*
X85352701Y-92907237D01*
X85380000Y-92970704D01*
X85171127Y-93051485D01*
X84632342Y-93105052D01*
X84110000Y-93118181D01*
X83376069Y-93138226D01*
X82993733Y-93224894D01*
X82853545Y-93417981D01*
X82840000Y-93580000D01*
X82873125Y-93794643D01*
X83029609Y-93930110D01*
X83395119Y-94004437D01*
X84055321Y-94035658D01*
X85033636Y-94041818D01*
X86059002Y-94033022D01*
X86706761Y-93996120D01*
X87060960Y-93915343D01*
X87205644Y-93774919D01*
X87227273Y-93630205D01*
X87086267Y-93273596D01*
X86710206Y-92678026D01*
X86169529Y-91950873D01*
X85939785Y-91667477D01*
X84652297Y-90116363D01*
X85939785Y-90116363D01*
X86673374Y-90101850D01*
X87057595Y-90024744D01*
X87204734Y-89834701D01*
X87227273Y-89539091D01*
X87210812Y-89266199D01*
X87102286Y-89096586D01*
X86812980Y-89005696D01*
X86254179Y-88968969D01*
X85337167Y-88961850D01*
X85141844Y-88961818D01*
X83987335Y-88986845D01*
G36*
X80604571Y-88996136D02*
G01*
X80287452Y-89170983D01*
X80022530Y-89594195D01*
X79794599Y-90116363D01*
X79500109Y-90756220D01*
X79252343Y-91175473D01*
X79145455Y-91270909D01*
X78970635Y-91076068D01*
X78700792Y-90574721D01*
X78496310Y-90116363D01*
X78193394Y-89446186D01*
X77926195Y-89102406D01*
X77573216Y-88977186D01*
X77195524Y-88961818D01*
X76374545Y-88961818D01*
X76374545Y-94041818D01*
X76941702Y-94041818D01*
X77235265Y-94015048D01*
X77410692Y-93868948D01*
X77505415Y-93504829D01*
X77556868Y-92824002D01*
X77576702Y-92367727D01*
X77644545Y-90693636D01*
X78192526Y-91905909D01*
X78632272Y-92712638D01*
X79023867Y-93090872D01*
X79145455Y-93118181D01*
X79516537Y-92893411D01*
X79941431Y-92232945D01*
X80098383Y-91905909D01*
X80646364Y-90693636D01*
X80714207Y-92367727D01*
X80758262Y-93231043D01*
X80828035Y-93731377D01*
X80960959Y-93967418D01*
X81194467Y-94037853D01*
X81349207Y-94041818D01*
X81916364Y-94041818D01*
X81916364Y-88961818D01*
X81095385Y-88961818D01*
X80604571Y-88996136D01*
G37*
X80604571Y-88996136D02*
X80287452Y-89170983D01*
X80022530Y-89594195D01*
X79794599Y-90116363D01*
X79500109Y-90756220D01*
X79252343Y-91175473D01*
X79145455Y-91270909D01*
X78970635Y-91076068D01*
X78700792Y-90574721D01*
X78496310Y-90116363D01*
X78193394Y-89446186D01*
X77926195Y-89102406D01*
X77573216Y-88977186D01*
X77195524Y-88961818D01*
X76374545Y-88961818D01*
X76374545Y-94041818D01*
X76941702Y-94041818D01*
X77235265Y-94015048D01*
X77410692Y-93868948D01*
X77505415Y-93504829D01*
X77556868Y-92824002D01*
X77576702Y-92367727D01*
X77644545Y-90693636D01*
X78192526Y-91905909D01*
X78632272Y-92712638D01*
X79023867Y-93090872D01*
X79145455Y-93118181D01*
X79516537Y-92893411D01*
X79941431Y-92232945D01*
X80098383Y-91905909D01*
X80646364Y-90693636D01*
X80714207Y-92367727D01*
X80758262Y-93231043D01*
X80828035Y-93731377D01*
X80960959Y-93967418D01*
X81194467Y-94037853D01*
X81349207Y-94041818D01*
X81916364Y-94041818D01*
X81916364Y-88961818D01*
X81095385Y-88961818D01*
X80604571Y-88996136D01*
G36*
X83492326Y-84217061D02*
G01*
X81873127Y-84510566D01*
X80375819Y-84783059D01*
X79069367Y-85021903D01*
X78022741Y-85214460D01*
X77304906Y-85348094D01*
X77009545Y-85404934D01*
X76593885Y-85546903D01*
X76413497Y-85843737D01*
X76374545Y-86440165D01*
X76407793Y-87011956D01*
X76490653Y-87325211D01*
X76521540Y-87345454D01*
X76778355Y-87305176D01*
X77429840Y-87191475D01*
X78416572Y-87015055D01*
X79679129Y-86786618D01*
X81158090Y-86516866D01*
X82794032Y-86216503D01*
X82986995Y-86180952D01*
X89305455Y-85016451D01*
X95623915Y-86180952D01*
X97281064Y-86484688D01*
X98794570Y-86758889D01*
X100103590Y-86992789D01*
X101147280Y-87175622D01*
X101864797Y-87296622D01*
X102195300Y-87345022D01*
X102204824Y-87345454D01*
X102380197Y-87142454D01*
X102465563Y-86642268D01*
X102467273Y-86550900D01*
X102410457Y-85978993D01*
X102271728Y-85638719D01*
X102252347Y-85623514D01*
X101977171Y-85548696D01*
X101307694Y-85403827D01*
X100304101Y-85200815D01*
X99026578Y-84951566D01*
X97535311Y-84667990D01*
X95890485Y-84361994D01*
X95688764Y-84324906D01*
X89340106Y-83159130D01*
X83492326Y-84217061D01*
G37*
X83492326Y-84217061D02*
X81873127Y-84510566D01*
X80375819Y-84783059D01*
X79069367Y-85021903D01*
X78022741Y-85214460D01*
X77304906Y-85348094D01*
X77009545Y-85404934D01*
X76593885Y-85546903D01*
X76413497Y-85843737D01*
X76374545Y-86440165D01*
X76407793Y-87011956D01*
X76490653Y-87325211D01*
X76521540Y-87345454D01*
X76778355Y-87305176D01*
X77429840Y-87191475D01*
X78416572Y-87015055D01*
X79679129Y-86786618D01*
X81158090Y-86516866D01*
X82794032Y-86216503D01*
X82986995Y-86180952D01*
X89305455Y-85016451D01*
X95623915Y-86180952D01*
X97281064Y-86484688D01*
X98794570Y-86758889D01*
X100103590Y-86992789D01*
X101147280Y-87175622D01*
X101864797Y-87296622D01*
X102195300Y-87345022D01*
X102204824Y-87345454D01*
X102380197Y-87142454D01*
X102465563Y-86642268D01*
X102467273Y-86550900D01*
X102410457Y-85978993D01*
X102271728Y-85638719D01*
X102252347Y-85623514D01*
X101977171Y-85548696D01*
X101307694Y-85403827D01*
X100304101Y-85200815D01*
X99026578Y-84951566D01*
X97535311Y-84667990D01*
X95890485Y-84361994D01*
X95688764Y-84324906D01*
X89340106Y-83159130D01*
X83492326Y-84217061D01*
G36*
X41492326Y-84217061D02*
G01*
X39873127Y-84510566D01*
X38375819Y-84783059D01*
X37069367Y-85021903D01*
X36022741Y-85214460D01*
X35304906Y-85348094D01*
X35009545Y-85404934D01*
X34593885Y-85546903D01*
X34413497Y-85843737D01*
X34374545Y-86440165D01*
X34407793Y-87011956D01*
X34490653Y-87325211D01*
X34521540Y-87345454D01*
X34778355Y-87305176D01*
X35429840Y-87191475D01*
X36416572Y-87015055D01*
X37679129Y-86786618D01*
X39158090Y-86516866D01*
X40794032Y-86216503D01*
X40986995Y-86180952D01*
X47305455Y-85016451D01*
X53623915Y-86180952D01*
X55281064Y-86484688D01*
X56794570Y-86758889D01*
X58103590Y-86992789D01*
X59147280Y-87175622D01*
X59864797Y-87296622D01*
X60195300Y-87345022D01*
X60204824Y-87345454D01*
X60380197Y-87142454D01*
X60465563Y-86642268D01*
X60467273Y-86550900D01*
X60410457Y-85978993D01*
X60271728Y-85638719D01*
X60252347Y-85623514D01*
X59977171Y-85548696D01*
X59307694Y-85403827D01*
X58304101Y-85200815D01*
X57026578Y-84951566D01*
X55535311Y-84667990D01*
X53890485Y-84361994D01*
X53688764Y-84324906D01*
X47340106Y-83159130D01*
X41492326Y-84217061D01*
G37*
X41492326Y-84217061D02*
X39873127Y-84510566D01*
X38375819Y-84783059D01*
X37069367Y-85021903D01*
X36022741Y-85214460D01*
X35304906Y-85348094D01*
X35009545Y-85404934D01*
X34593885Y-85546903D01*
X34413497Y-85843737D01*
X34374545Y-86440165D01*
X34407793Y-87011956D01*
X34490653Y-87325211D01*
X34521540Y-87345454D01*
X34778355Y-87305176D01*
X35429840Y-87191475D01*
X36416572Y-87015055D01*
X37679129Y-86786618D01*
X39158090Y-86516866D01*
X40794032Y-86216503D01*
X40986995Y-86180952D01*
X47305455Y-85016451D01*
X53623915Y-86180952D01*
X55281064Y-86484688D01*
X56794570Y-86758889D01*
X58103590Y-86992789D01*
X59147280Y-87175622D01*
X59864797Y-87296622D01*
X60195300Y-87345022D01*
X60204824Y-87345454D01*
X60380197Y-87142454D01*
X60465563Y-86642268D01*
X60467273Y-86550900D01*
X60410457Y-85978993D01*
X60271728Y-85638719D01*
X60252347Y-85623514D01*
X59977171Y-85548696D01*
X59307694Y-85403827D01*
X58304101Y-85200815D01*
X57026578Y-84951566D01*
X55535311Y-84667990D01*
X53890485Y-84361994D01*
X53688764Y-84324906D01*
X47340106Y-83159130D01*
X41492326Y-84217061D01*
G36*
X38604571Y-88996136D02*
G01*
X38287452Y-89170983D01*
X38022530Y-89594195D01*
X37794599Y-90116363D01*
X37500109Y-90756220D01*
X37252343Y-91175473D01*
X37145455Y-91270909D01*
X36970635Y-91076068D01*
X36700792Y-90574721D01*
X36496310Y-90116363D01*
X36193394Y-89446186D01*
X35926195Y-89102406D01*
X35573216Y-88977186D01*
X35195524Y-88961818D01*
X34374545Y-88961818D01*
X34374545Y-94041818D01*
X34941702Y-94041818D01*
X35235265Y-94015048D01*
X35410692Y-93868948D01*
X35505415Y-93504829D01*
X35556868Y-92824002D01*
X35576702Y-92367727D01*
X35644545Y-90693636D01*
X36192526Y-91905909D01*
X36632272Y-92712638D01*
X37023867Y-93090872D01*
X37145455Y-93118181D01*
X37516537Y-92893411D01*
X37941431Y-92232945D01*
X38098383Y-91905909D01*
X38646364Y-90693636D01*
X38714207Y-92367727D01*
X38758262Y-93231043D01*
X38828035Y-93731377D01*
X38960959Y-93967418D01*
X39194467Y-94037853D01*
X39349207Y-94041818D01*
X39916364Y-94041818D01*
X39916364Y-88961818D01*
X39095385Y-88961818D01*
X38604571Y-88996136D01*
G37*
X38604571Y-88996136D02*
X38287452Y-89170983D01*
X38022530Y-89594195D01*
X37794599Y-90116363D01*
X37500109Y-90756220D01*
X37252343Y-91175473D01*
X37145455Y-91270909D01*
X36970635Y-91076068D01*
X36700792Y-90574721D01*
X36496310Y-90116363D01*
X36193394Y-89446186D01*
X35926195Y-89102406D01*
X35573216Y-88977186D01*
X35195524Y-88961818D01*
X34374545Y-88961818D01*
X34374545Y-94041818D01*
X34941702Y-94041818D01*
X35235265Y-94015048D01*
X35410692Y-93868948D01*
X35505415Y-93504829D01*
X35556868Y-92824002D01*
X35576702Y-92367727D01*
X35644545Y-90693636D01*
X36192526Y-91905909D01*
X36632272Y-92712638D01*
X37023867Y-93090872D01*
X37145455Y-93118181D01*
X37516537Y-92893411D01*
X37941431Y-92232945D01*
X38098383Y-91905909D01*
X38646364Y-90693636D01*
X38714207Y-92367727D01*
X38758262Y-93231043D01*
X38828035Y-93731377D01*
X38960959Y-93967418D01*
X39194467Y-94037853D01*
X39349207Y-94041818D01*
X39916364Y-94041818D01*
X39916364Y-88961818D01*
X39095385Y-88961818D01*
X38604571Y-88996136D01*
G36*
X41987335Y-88986845D02*
G01*
X41266254Y-89096570D01*
X40954490Y-89342964D01*
X41027933Y-89777993D01*
X41462471Y-90453626D01*
X42084818Y-91240129D01*
X42662589Y-91961922D01*
X43107553Y-92547470D01*
X43352701Y-92907237D01*
X43380000Y-92970704D01*
X43171127Y-93051485D01*
X42632342Y-93105052D01*
X42110000Y-93118181D01*
X41376069Y-93138226D01*
X40993733Y-93224894D01*
X40853545Y-93417981D01*
X40840000Y-93580000D01*
X40873125Y-93794643D01*
X41029609Y-93930110D01*
X41395119Y-94004437D01*
X42055321Y-94035658D01*
X43033636Y-94041818D01*
X44059002Y-94033022D01*
X44706761Y-93996120D01*
X45060960Y-93915343D01*
X45205644Y-93774919D01*
X45227273Y-93630205D01*
X45086267Y-93273596D01*
X44710206Y-92678026D01*
X44169529Y-91950873D01*
X43939785Y-91667477D01*
X42652297Y-90116363D01*
X43939785Y-90116363D01*
X44673374Y-90101850D01*
X45057595Y-90024744D01*
X45204734Y-89834701D01*
X45227273Y-89539091D01*
X45210812Y-89266199D01*
X45102286Y-89096586D01*
X44812980Y-89005696D01*
X44254179Y-88968969D01*
X43337167Y-88961850D01*
X43141844Y-88961818D01*
X41987335Y-88986845D01*
G37*
X41987335Y-88986845D02*
X41266254Y-89096570D01*
X40954490Y-89342964D01*
X41027933Y-89777993D01*
X41462471Y-90453626D01*
X42084818Y-91240129D01*
X42662589Y-91961922D01*
X43107553Y-92547470D01*
X43352701Y-92907237D01*
X43380000Y-92970704D01*
X43171127Y-93051485D01*
X42632342Y-93105052D01*
X42110000Y-93118181D01*
X41376069Y-93138226D01*
X40993733Y-93224894D01*
X40853545Y-93417981D01*
X40840000Y-93580000D01*
X40873125Y-93794643D01*
X41029609Y-93930110D01*
X41395119Y-94004437D01*
X42055321Y-94035658D01*
X43033636Y-94041818D01*
X44059002Y-94033022D01*
X44706761Y-93996120D01*
X45060960Y-93915343D01*
X45205644Y-93774919D01*
X45227273Y-93630205D01*
X45086267Y-93273596D01*
X44710206Y-92678026D01*
X44169529Y-91950873D01*
X43939785Y-91667477D01*
X42652297Y-90116363D01*
X43939785Y-90116363D01*
X44673374Y-90101850D01*
X45057595Y-90024744D01*
X45204734Y-89834701D01*
X45227273Y-89539091D01*
X45210812Y-89266199D01*
X45102286Y-89096586D01*
X44812980Y-89005696D01*
X44254179Y-88968969D01*
X43337167Y-88961850D01*
X43141844Y-88961818D01*
X41987335Y-88986845D01*
G36*
X49556818Y-88963106D02*
G01*
X48107982Y-89103587D01*
X47019507Y-89517315D01*
X46298508Y-90199123D01*
X45952100Y-91143840D01*
X45920000Y-91604872D01*
X46100493Y-92616709D01*
X46645426Y-93355900D01*
X47559985Y-93826202D01*
X48849353Y-94031370D01*
X49283214Y-94041818D01*
X50538182Y-94041818D01*
X50538182Y-91621672D01*
X49152727Y-91621672D01*
X49152727Y-93126980D01*
X48517727Y-92975287D01*
X47941673Y-92783473D01*
X47594091Y-92596250D01*
X47367634Y-92169201D01*
X47318477Y-91527147D01*
X47439316Y-90878403D01*
X47668312Y-90479220D01*
X48183585Y-90189040D01*
X48591948Y-90116363D01*
X48893181Y-90144690D01*
X49061164Y-90299044D01*
X49134663Y-90683485D01*
X49152443Y-91402073D01*
X49152727Y-91621672D01*
X50538182Y-91621672D01*
X50538182Y-88961818D01*
X49556818Y-88963106D01*
G37*
X49556818Y-88963106D02*
X48107982Y-89103587D01*
X47019507Y-89517315D01*
X46298508Y-90199123D01*
X45952100Y-91143840D01*
X45920000Y-91604872D01*
X46100493Y-92616709D01*
X46645426Y-93355900D01*
X47559985Y-93826202D01*
X48849353Y-94031370D01*
X49283214Y-94041818D01*
X50538182Y-94041818D01*
X50538182Y-91621672D01*
X49152727Y-91621672D01*
X49152727Y-93126980D01*
X48517727Y-92975287D01*
X47941673Y-92783473D01*
X47594091Y-92596250D01*
X47367634Y-92169201D01*
X47318477Y-91527147D01*
X47439316Y-90878403D01*
X47668312Y-90479220D01*
X48183585Y-90189040D01*
X48591948Y-90116363D01*
X48893181Y-90144690D01*
X49061164Y-90299044D01*
X49134663Y-90683485D01*
X49152443Y-91402073D01*
X49152727Y-91621672D01*
X50538182Y-91621672D01*
X50538182Y-88961818D01*
X49556818Y-88963106D01*
G36*
X53642837Y-89046235D02*
G01*
X52764684Y-89276401D01*
X52193038Y-89617685D01*
X52105054Y-89726718D01*
X51934390Y-90382505D01*
X52127254Y-91069532D01*
X52290102Y-91293121D01*
X52491165Y-91577610D01*
X52479224Y-91871679D01*
X52227204Y-92325884D01*
X52059193Y-92577178D01*
X51615248Y-93312785D01*
X51496480Y-93768546D01*
X51704158Y-93993792D01*
X52096818Y-94041194D01*
X52584610Y-93936356D01*
X52972164Y-93551108D01*
X53193636Y-93178010D01*
X53572771Y-92620334D01*
X53957725Y-92277117D01*
X54059545Y-92238066D01*
X54321578Y-92269813D01*
X54439795Y-92568632D01*
X54463636Y-93101250D01*
X54489728Y-93700492D01*
X54632454Y-93969616D01*
X54988494Y-94039887D01*
X55156364Y-94041818D01*
X55849091Y-94041818D01*
X55849091Y-90709696D01*
X54463636Y-90709696D01*
X54388255Y-91142177D01*
X54083953Y-91243785D01*
X53944091Y-91229241D01*
X53477274Y-90966292D01*
X53350758Y-90635909D01*
X53381730Y-90247837D01*
X53711239Y-90121022D01*
X53870304Y-90116363D01*
X54316807Y-90204860D01*
X54459257Y-90562941D01*
X54463636Y-90709696D01*
X55849091Y-90709696D01*
X55849091Y-88961818D01*
X54709578Y-88961818D01*
X53642837Y-89046235D01*
G37*
X53642837Y-89046235D02*
X52764684Y-89276401D01*
X52193038Y-89617685D01*
X52105054Y-89726718D01*
X51934390Y-90382505D01*
X52127254Y-91069532D01*
X52290102Y-91293121D01*
X52491165Y-91577610D01*
X52479224Y-91871679D01*
X52227204Y-92325884D01*
X52059193Y-92577178D01*
X51615248Y-93312785D01*
X51496480Y-93768546D01*
X51704158Y-93993792D01*
X52096818Y-94041194D01*
X52584610Y-93936356D01*
X52972164Y-93551108D01*
X53193636Y-93178010D01*
X53572771Y-92620334D01*
X53957725Y-92277117D01*
X54059545Y-92238066D01*
X54321578Y-92269813D01*
X54439795Y-92568632D01*
X54463636Y-93101250D01*
X54489728Y-93700492D01*
X54632454Y-93969616D01*
X54988494Y-94039887D01*
X55156364Y-94041818D01*
X55849091Y-94041818D01*
X55849091Y-90709696D01*
X54463636Y-90709696D01*
X54388255Y-91142177D01*
X54083953Y-91243785D01*
X53944091Y-91229241D01*
X53477274Y-90966292D01*
X53350758Y-90635909D01*
X53381730Y-90247837D01*
X53711239Y-90121022D01*
X53870304Y-90116363D01*
X54316807Y-90204860D01*
X54459257Y-90562941D01*
X54463636Y-90709696D01*
X55849091Y-90709696D01*
X55849091Y-88961818D01*
X54709578Y-88961818D01*
X53642837Y-89046235D01*
G36*
X60484909Y-88998292D02*
G01*
X60287451Y-89195944D01*
X60237457Y-89687122D01*
X60236364Y-89885454D01*
X60236364Y-90809091D01*
X58389091Y-90809091D01*
X58389091Y-89870117D01*
X58364956Y-89275193D01*
X58233747Y-89021424D01*
X57907262Y-88988531D01*
X57754091Y-89004208D01*
X57119091Y-89077272D01*
X57053552Y-91559545D01*
X56988012Y-94041818D01*
X57688552Y-94041818D01*
X58119278Y-94012352D01*
X58323280Y-93840367D01*
X58385084Y-93400487D01*
X58389091Y-93002727D01*
X58389091Y-91963636D01*
X60236364Y-91963636D01*
X60236364Y-93002727D01*
X60256445Y-93641680D01*
X60372390Y-93944309D01*
X60667753Y-94035944D01*
X60929091Y-94041818D01*
X61621818Y-94041818D01*
X61621818Y-88961818D01*
X60929091Y-88961818D01*
X60484909Y-88998292D01*
G37*
X60484909Y-88998292D02*
X60287451Y-89195944D01*
X60237457Y-89687122D01*
X60236364Y-89885454D01*
X60236364Y-90809091D01*
X58389091Y-90809091D01*
X58389091Y-89870117D01*
X58364956Y-89275193D01*
X58233747Y-89021424D01*
X57907262Y-88988531D01*
X57754091Y-89004208D01*
X57119091Y-89077272D01*
X57053552Y-91559545D01*
X56988012Y-94041818D01*
X57688552Y-94041818D01*
X58119278Y-94012352D01*
X58323280Y-93840367D01*
X58385084Y-93400487D01*
X58389091Y-93002727D01*
X58389091Y-91963636D01*
X60236364Y-91963636D01*
X60236364Y-93002727D01*
X60256445Y-93641680D01*
X60372390Y-93944309D01*
X60667753Y-94035944D01*
X60929091Y-94041818D01*
X61621818Y-94041818D01*
X61621818Y-88961818D01*
X60929091Y-88961818D01*
X60484909Y-88998292D01*
G36*
X62834091Y-84259720D02*
G01*
X62189823Y-84840303D01*
X61826172Y-85270803D01*
X61663573Y-85690181D01*
X61622463Y-86237399D01*
X61621818Y-86376992D01*
X61621818Y-87445133D01*
X62839933Y-86242149D01*
X64058048Y-85039166D01*
X64801539Y-85782657D01*
X65545029Y-86526148D01*
X64267906Y-87816738D01*
X62990782Y-89107328D01*
X63056755Y-91590599D01*
X63122727Y-94073871D01*
X63757727Y-93410209D01*
X64100825Y-93000821D01*
X64292543Y-92576390D01*
X64375590Y-91984816D01*
X64392727Y-91148614D01*
X64392727Y-89550680D01*
X65893628Y-88038189D01*
X67394530Y-86525698D01*
X64046364Y-83210588D01*
X62834091Y-84259720D01*
G37*
X62834091Y-84259720D02*
X62189823Y-84840303D01*
X61826172Y-85270803D01*
X61663573Y-85690181D01*
X61622463Y-86237399D01*
X61621818Y-86376992D01*
X61621818Y-87445133D01*
X62839933Y-86242149D01*
X64058048Y-85039166D01*
X64801539Y-85782657D01*
X65545029Y-86526148D01*
X64267906Y-87816738D01*
X62990782Y-89107328D01*
X63056755Y-91590599D01*
X63122727Y-94073871D01*
X63757727Y-93410209D01*
X64100825Y-93000821D01*
X64292543Y-92576390D01*
X64375590Y-91984816D01*
X64392727Y-91148614D01*
X64392727Y-89550680D01*
X65893628Y-88038189D01*
X67394530Y-86525698D01*
X64046364Y-83210588D01*
X62834091Y-84259720D01*
G36*
X62834091Y-65259720D02*
G01*
X62189823Y-65840303D01*
X61826172Y-66270803D01*
X61663573Y-66690181D01*
X61622463Y-67237399D01*
X61621818Y-67376992D01*
X61621818Y-68445133D01*
X62839933Y-67242149D01*
X64058048Y-66039166D01*
X64801539Y-66782657D01*
X65545029Y-67526148D01*
X64267906Y-68816738D01*
X62990782Y-70107328D01*
X63056755Y-72590599D01*
X63122727Y-75073871D01*
X63757727Y-74410209D01*
X64100825Y-74000821D01*
X64292543Y-73576390D01*
X64375590Y-72984816D01*
X64392727Y-72148614D01*
X64392727Y-70550680D01*
X65893628Y-69038189D01*
X67394530Y-67525698D01*
X64046364Y-64210588D01*
X62834091Y-65259720D01*
G37*
X62834091Y-65259720D02*
X62189823Y-65840303D01*
X61826172Y-66270803D01*
X61663573Y-66690181D01*
X61622463Y-67237399D01*
X61621818Y-67376992D01*
X61621818Y-68445133D01*
X62839933Y-67242149D01*
X64058048Y-66039166D01*
X64801539Y-66782657D01*
X65545029Y-67526148D01*
X64267906Y-68816738D01*
X62990782Y-70107328D01*
X63056755Y-72590599D01*
X63122727Y-75073871D01*
X63757727Y-74410209D01*
X64100825Y-74000821D01*
X64292543Y-73576390D01*
X64375590Y-72984816D01*
X64392727Y-72148614D01*
X64392727Y-70550680D01*
X65893628Y-69038189D01*
X67394530Y-67525698D01*
X64046364Y-64210588D01*
X62834091Y-65259720D01*
G36*
X60484909Y-69998292D02*
G01*
X60287451Y-70195944D01*
X60237457Y-70687122D01*
X60236364Y-70885454D01*
X60236364Y-71809091D01*
X58389091Y-71809091D01*
X58389091Y-70870117D01*
X58364956Y-70275193D01*
X58233747Y-70021424D01*
X57907262Y-69988531D01*
X57754091Y-70004208D01*
X57119091Y-70077272D01*
X57053552Y-72559545D01*
X56988012Y-75041818D01*
X57688552Y-75041818D01*
X58119278Y-75012352D01*
X58323280Y-74840367D01*
X58385084Y-74400487D01*
X58389091Y-74002727D01*
X58389091Y-72963636D01*
X60236364Y-72963636D01*
X60236364Y-74002727D01*
X60256445Y-74641680D01*
X60372390Y-74944309D01*
X60667753Y-75035944D01*
X60929091Y-75041818D01*
X61621818Y-75041818D01*
X61621818Y-69961818D01*
X60929091Y-69961818D01*
X60484909Y-69998292D01*
G37*
X60484909Y-69998292D02*
X60287451Y-70195944D01*
X60237457Y-70687122D01*
X60236364Y-70885454D01*
X60236364Y-71809091D01*
X58389091Y-71809091D01*
X58389091Y-70870117D01*
X58364956Y-70275193D01*
X58233747Y-70021424D01*
X57907262Y-69988531D01*
X57754091Y-70004208D01*
X57119091Y-70077272D01*
X57053552Y-72559545D01*
X56988012Y-75041818D01*
X57688552Y-75041818D01*
X58119278Y-75012352D01*
X58323280Y-74840367D01*
X58385084Y-74400487D01*
X58389091Y-74002727D01*
X58389091Y-72963636D01*
X60236364Y-72963636D01*
X60236364Y-74002727D01*
X60256445Y-74641680D01*
X60372390Y-74944309D01*
X60667753Y-75035944D01*
X60929091Y-75041818D01*
X61621818Y-75041818D01*
X61621818Y-69961818D01*
X60929091Y-69961818D01*
X60484909Y-69998292D01*
G36*
X53642837Y-70046235D02*
G01*
X52764684Y-70276401D01*
X52193038Y-70617685D01*
X52105054Y-70726718D01*
X51934390Y-71382505D01*
X52127254Y-72069532D01*
X52290102Y-72293121D01*
X52491165Y-72577610D01*
X52479224Y-72871679D01*
X52227204Y-73325884D01*
X52059193Y-73577178D01*
X51615248Y-74312785D01*
X51496480Y-74768546D01*
X51704158Y-74993792D01*
X52096818Y-75041194D01*
X52584610Y-74936356D01*
X52972164Y-74551108D01*
X53193636Y-74178010D01*
X53572771Y-73620334D01*
X53957725Y-73277117D01*
X54059545Y-73238066D01*
X54321578Y-73269813D01*
X54439795Y-73568632D01*
X54463636Y-74101250D01*
X54489728Y-74700492D01*
X54632454Y-74969616D01*
X54988494Y-75039887D01*
X55156364Y-75041818D01*
X55849091Y-75041818D01*
X55849091Y-71709696D01*
X54463636Y-71709696D01*
X54388255Y-72142177D01*
X54083953Y-72243785D01*
X53944091Y-72229241D01*
X53477274Y-71966292D01*
X53350758Y-71635909D01*
X53381730Y-71247837D01*
X53711239Y-71121022D01*
X53870304Y-71116363D01*
X54316807Y-71204860D01*
X54459257Y-71562941D01*
X54463636Y-71709696D01*
X55849091Y-71709696D01*
X55849091Y-69961818D01*
X54709578Y-69961818D01*
X53642837Y-70046235D01*
G37*
X53642837Y-70046235D02*
X52764684Y-70276401D01*
X52193038Y-70617685D01*
X52105054Y-70726718D01*
X51934390Y-71382505D01*
X52127254Y-72069532D01*
X52290102Y-72293121D01*
X52491165Y-72577610D01*
X52479224Y-72871679D01*
X52227204Y-73325884D01*
X52059193Y-73577178D01*
X51615248Y-74312785D01*
X51496480Y-74768546D01*
X51704158Y-74993792D01*
X52096818Y-75041194D01*
X52584610Y-74936356D01*
X52972164Y-74551108D01*
X53193636Y-74178010D01*
X53572771Y-73620334D01*
X53957725Y-73277117D01*
X54059545Y-73238066D01*
X54321578Y-73269813D01*
X54439795Y-73568632D01*
X54463636Y-74101250D01*
X54489728Y-74700492D01*
X54632454Y-74969616D01*
X54988494Y-75039887D01*
X55156364Y-75041818D01*
X55849091Y-75041818D01*
X55849091Y-71709696D01*
X54463636Y-71709696D01*
X54388255Y-72142177D01*
X54083953Y-72243785D01*
X53944091Y-72229241D01*
X53477274Y-71966292D01*
X53350758Y-71635909D01*
X53381730Y-71247837D01*
X53711239Y-71121022D01*
X53870304Y-71116363D01*
X54316807Y-71204860D01*
X54459257Y-71562941D01*
X54463636Y-71709696D01*
X55849091Y-71709696D01*
X55849091Y-69961818D01*
X54709578Y-69961818D01*
X53642837Y-70046235D01*
G36*
X49556818Y-69963106D02*
G01*
X48107982Y-70103587D01*
X47019507Y-70517315D01*
X46298508Y-71199123D01*
X45952100Y-72143840D01*
X45920000Y-72604872D01*
X46100493Y-73616709D01*
X46645426Y-74355900D01*
X47559985Y-74826202D01*
X48849353Y-75031370D01*
X49283214Y-75041818D01*
X50538182Y-75041818D01*
X50538182Y-72621672D01*
X49152727Y-72621672D01*
X49152727Y-74126980D01*
X48517727Y-73975287D01*
X47941673Y-73783473D01*
X47594091Y-73596250D01*
X47367634Y-73169201D01*
X47318477Y-72527147D01*
X47439316Y-71878403D01*
X47668312Y-71479220D01*
X48183585Y-71189040D01*
X48591948Y-71116363D01*
X48893181Y-71144690D01*
X49061164Y-71299044D01*
X49134663Y-71683485D01*
X49152443Y-72402073D01*
X49152727Y-72621672D01*
X50538182Y-72621672D01*
X50538182Y-69961818D01*
X49556818Y-69963106D01*
G37*
X49556818Y-69963106D02*
X48107982Y-70103587D01*
X47019507Y-70517315D01*
X46298508Y-71199123D01*
X45952100Y-72143840D01*
X45920000Y-72604872D01*
X46100493Y-73616709D01*
X46645426Y-74355900D01*
X47559985Y-74826202D01*
X48849353Y-75031370D01*
X49283214Y-75041818D01*
X50538182Y-75041818D01*
X50538182Y-72621672D01*
X49152727Y-72621672D01*
X49152727Y-74126980D01*
X48517727Y-73975287D01*
X47941673Y-73783473D01*
X47594091Y-73596250D01*
X47367634Y-73169201D01*
X47318477Y-72527147D01*
X47439316Y-71878403D01*
X47668312Y-71479220D01*
X48183585Y-71189040D01*
X48591948Y-71116363D01*
X48893181Y-71144690D01*
X49061164Y-71299044D01*
X49134663Y-71683485D01*
X49152443Y-72402073D01*
X49152727Y-72621672D01*
X50538182Y-72621672D01*
X50538182Y-69961818D01*
X49556818Y-69963106D01*
G36*
X41987335Y-69986845D02*
G01*
X41266254Y-70096570D01*
X40954490Y-70342964D01*
X41027933Y-70777993D01*
X41462471Y-71453626D01*
X42084818Y-72240129D01*
X42662589Y-72961922D01*
X43107553Y-73547470D01*
X43352701Y-73907237D01*
X43380000Y-73970704D01*
X43171127Y-74051485D01*
X42632342Y-74105052D01*
X42110000Y-74118181D01*
X41376069Y-74138226D01*
X40993733Y-74224894D01*
X40853545Y-74417981D01*
X40840000Y-74580000D01*
X40873125Y-74794643D01*
X41029609Y-74930110D01*
X41395119Y-75004437D01*
X42055321Y-75035658D01*
X43033636Y-75041818D01*
X44059002Y-75033022D01*
X44706761Y-74996120D01*
X45060960Y-74915343D01*
X45205644Y-74774919D01*
X45227273Y-74630205D01*
X45086267Y-74273596D01*
X44710206Y-73678026D01*
X44169529Y-72950873D01*
X43939785Y-72667477D01*
X42652297Y-71116363D01*
X43939785Y-71116363D01*
X44673374Y-71101850D01*
X45057595Y-71024744D01*
X45204734Y-70834701D01*
X45227273Y-70539091D01*
X45210812Y-70266199D01*
X45102286Y-70096586D01*
X44812980Y-70005696D01*
X44254179Y-69968969D01*
X43337167Y-69961850D01*
X43141844Y-69961818D01*
X41987335Y-69986845D01*
G37*
X41987335Y-69986845D02*
X41266254Y-70096570D01*
X40954490Y-70342964D01*
X41027933Y-70777993D01*
X41462471Y-71453626D01*
X42084818Y-72240129D01*
X42662589Y-72961922D01*
X43107553Y-73547470D01*
X43352701Y-73907237D01*
X43380000Y-73970704D01*
X43171127Y-74051485D01*
X42632342Y-74105052D01*
X42110000Y-74118181D01*
X41376069Y-74138226D01*
X40993733Y-74224894D01*
X40853545Y-74417981D01*
X40840000Y-74580000D01*
X40873125Y-74794643D01*
X41029609Y-74930110D01*
X41395119Y-75004437D01*
X42055321Y-75035658D01*
X43033636Y-75041818D01*
X44059002Y-75033022D01*
X44706761Y-74996120D01*
X45060960Y-74915343D01*
X45205644Y-74774919D01*
X45227273Y-74630205D01*
X45086267Y-74273596D01*
X44710206Y-73678026D01*
X44169529Y-72950873D01*
X43939785Y-72667477D01*
X42652297Y-71116363D01*
X43939785Y-71116363D01*
X44673374Y-71101850D01*
X45057595Y-71024744D01*
X45204734Y-70834701D01*
X45227273Y-70539091D01*
X45210812Y-70266199D01*
X45102286Y-70096586D01*
X44812980Y-70005696D01*
X44254179Y-69968969D01*
X43337167Y-69961850D01*
X43141844Y-69961818D01*
X41987335Y-69986845D01*
G36*
X38604571Y-69996136D02*
G01*
X38287452Y-70170983D01*
X38022530Y-70594195D01*
X37794599Y-71116363D01*
X37500109Y-71756220D01*
X37252343Y-72175473D01*
X37145455Y-72270909D01*
X36970635Y-72076068D01*
X36700792Y-71574721D01*
X36496310Y-71116363D01*
X36193394Y-70446186D01*
X35926195Y-70102406D01*
X35573216Y-69977186D01*
X35195524Y-69961818D01*
X34374545Y-69961818D01*
X34374545Y-75041818D01*
X34941702Y-75041818D01*
X35235265Y-75015048D01*
X35410692Y-74868948D01*
X35505415Y-74504829D01*
X35556868Y-73824002D01*
X35576702Y-73367727D01*
X35644545Y-71693636D01*
X36192526Y-72905909D01*
X36632272Y-73712638D01*
X37023867Y-74090872D01*
X37145455Y-74118181D01*
X37516537Y-73893411D01*
X37941431Y-73232945D01*
X38098383Y-72905909D01*
X38646364Y-71693636D01*
X38714207Y-73367727D01*
X38758262Y-74231043D01*
X38828035Y-74731377D01*
X38960959Y-74967418D01*
X39194467Y-75037853D01*
X39349207Y-75041818D01*
X39916364Y-75041818D01*
X39916364Y-69961818D01*
X39095385Y-69961818D01*
X38604571Y-69996136D01*
G37*
X38604571Y-69996136D02*
X38287452Y-70170983D01*
X38022530Y-70594195D01*
X37794599Y-71116363D01*
X37500109Y-71756220D01*
X37252343Y-72175473D01*
X37145455Y-72270909D01*
X36970635Y-72076068D01*
X36700792Y-71574721D01*
X36496310Y-71116363D01*
X36193394Y-70446186D01*
X35926195Y-70102406D01*
X35573216Y-69977186D01*
X35195524Y-69961818D01*
X34374545Y-69961818D01*
X34374545Y-75041818D01*
X34941702Y-75041818D01*
X35235265Y-75015048D01*
X35410692Y-74868948D01*
X35505415Y-74504829D01*
X35556868Y-73824002D01*
X35576702Y-73367727D01*
X35644545Y-71693636D01*
X36192526Y-72905909D01*
X36632272Y-73712638D01*
X37023867Y-74090872D01*
X37145455Y-74118181D01*
X37516537Y-73893411D01*
X37941431Y-73232945D01*
X38098383Y-72905909D01*
X38646364Y-71693636D01*
X38714207Y-73367727D01*
X38758262Y-74231043D01*
X38828035Y-74731377D01*
X38960959Y-74967418D01*
X39194467Y-75037853D01*
X39349207Y-75041818D01*
X39916364Y-75041818D01*
X39916364Y-69961818D01*
X39095385Y-69961818D01*
X38604571Y-69996136D01*
G36*
X41492326Y-65217061D02*
G01*
X39873127Y-65510566D01*
X38375819Y-65783059D01*
X37069367Y-66021903D01*
X36022741Y-66214460D01*
X35304906Y-66348094D01*
X35009545Y-66404934D01*
X34593885Y-66546903D01*
X34413497Y-66843737D01*
X34374545Y-67440165D01*
X34407793Y-68011956D01*
X34490653Y-68325211D01*
X34521540Y-68345454D01*
X34778355Y-68305176D01*
X35429840Y-68191475D01*
X36416572Y-68015055D01*
X37679129Y-67786618D01*
X39158090Y-67516866D01*
X40794032Y-67216503D01*
X40986995Y-67180952D01*
X47305455Y-66016451D01*
X53623915Y-67180952D01*
X55281064Y-67484688D01*
X56794570Y-67758889D01*
X58103590Y-67992789D01*
X59147280Y-68175622D01*
X59864797Y-68296622D01*
X60195300Y-68345022D01*
X60204824Y-68345454D01*
X60380197Y-68142454D01*
X60465563Y-67642268D01*
X60467273Y-67550900D01*
X60410457Y-66978993D01*
X60271728Y-66638719D01*
X60252347Y-66623514D01*
X59977171Y-66548696D01*
X59307694Y-66403827D01*
X58304101Y-66200815D01*
X57026578Y-65951566D01*
X55535311Y-65667990D01*
X53890485Y-65361994D01*
X53688764Y-65324906D01*
X47340106Y-64159130D01*
X41492326Y-65217061D01*
G37*
X41492326Y-65217061D02*
X39873127Y-65510566D01*
X38375819Y-65783059D01*
X37069367Y-66021903D01*
X36022741Y-66214460D01*
X35304906Y-66348094D01*
X35009545Y-66404934D01*
X34593885Y-66546903D01*
X34413497Y-66843737D01*
X34374545Y-67440165D01*
X34407793Y-68011956D01*
X34490653Y-68325211D01*
X34521540Y-68345454D01*
X34778355Y-68305176D01*
X35429840Y-68191475D01*
X36416572Y-68015055D01*
X37679129Y-67786618D01*
X39158090Y-67516866D01*
X40794032Y-67216503D01*
X40986995Y-67180952D01*
X47305455Y-66016451D01*
X53623915Y-67180952D01*
X55281064Y-67484688D01*
X56794570Y-67758889D01*
X58103590Y-67992789D01*
X59147280Y-68175622D01*
X59864797Y-68296622D01*
X60195300Y-68345022D01*
X60204824Y-68345454D01*
X60380197Y-68142454D01*
X60465563Y-67642268D01*
X60467273Y-67550900D01*
X60410457Y-66978993D01*
X60271728Y-66638719D01*
X60252347Y-66623514D01*
X59977171Y-66548696D01*
X59307694Y-66403827D01*
X58304101Y-66200815D01*
X57026578Y-65951566D01*
X55535311Y-65667990D01*
X53890485Y-65361994D01*
X53688764Y-65324906D01*
X47340106Y-64159130D01*
X41492326Y-65217061D01*
G36*
X83492326Y-65217061D02*
G01*
X81873127Y-65510566D01*
X80375819Y-65783059D01*
X79069367Y-66021903D01*
X78022741Y-66214460D01*
X77304906Y-66348094D01*
X77009545Y-66404934D01*
X76593885Y-66546903D01*
X76413497Y-66843737D01*
X76374545Y-67440165D01*
X76407793Y-68011956D01*
X76490653Y-68325211D01*
X76521540Y-68345454D01*
X76778355Y-68305176D01*
X77429840Y-68191475D01*
X78416572Y-68015055D01*
X79679129Y-67786618D01*
X81158090Y-67516866D01*
X82794032Y-67216503D01*
X82986995Y-67180952D01*
X89305455Y-66016451D01*
X95623915Y-67180952D01*
X97281064Y-67484688D01*
X98794570Y-67758889D01*
X100103590Y-67992789D01*
X101147280Y-68175622D01*
X101864797Y-68296622D01*
X102195300Y-68345022D01*
X102204824Y-68345454D01*
X102380197Y-68142454D01*
X102465563Y-67642268D01*
X102467273Y-67550900D01*
X102410457Y-66978993D01*
X102271728Y-66638719D01*
X102252347Y-66623514D01*
X101977171Y-66548696D01*
X101307694Y-66403827D01*
X100304101Y-66200815D01*
X99026578Y-65951566D01*
X97535311Y-65667990D01*
X95890485Y-65361994D01*
X95688764Y-65324906D01*
X89340106Y-64159130D01*
X83492326Y-65217061D01*
G37*
X83492326Y-65217061D02*
X81873127Y-65510566D01*
X80375819Y-65783059D01*
X79069367Y-66021903D01*
X78022741Y-66214460D01*
X77304906Y-66348094D01*
X77009545Y-66404934D01*
X76593885Y-66546903D01*
X76413497Y-66843737D01*
X76374545Y-67440165D01*
X76407793Y-68011956D01*
X76490653Y-68325211D01*
X76521540Y-68345454D01*
X76778355Y-68305176D01*
X77429840Y-68191475D01*
X78416572Y-68015055D01*
X79679129Y-67786618D01*
X81158090Y-67516866D01*
X82794032Y-67216503D01*
X82986995Y-67180952D01*
X89305455Y-66016451D01*
X95623915Y-67180952D01*
X97281064Y-67484688D01*
X98794570Y-67758889D01*
X100103590Y-67992789D01*
X101147280Y-68175622D01*
X101864797Y-68296622D01*
X102195300Y-68345022D01*
X102204824Y-68345454D01*
X102380197Y-68142454D01*
X102465563Y-67642268D01*
X102467273Y-67550900D01*
X102410457Y-66978993D01*
X102271728Y-66638719D01*
X102252347Y-66623514D01*
X101977171Y-66548696D01*
X101307694Y-66403827D01*
X100304101Y-66200815D01*
X99026578Y-65951566D01*
X97535311Y-65667990D01*
X95890485Y-65361994D01*
X95688764Y-65324906D01*
X89340106Y-64159130D01*
X83492326Y-65217061D01*
G36*
X80604571Y-69996136D02*
G01*
X80287452Y-70170983D01*
X80022530Y-70594195D01*
X79794599Y-71116363D01*
X79500109Y-71756220D01*
X79252343Y-72175473D01*
X79145455Y-72270909D01*
X78970635Y-72076068D01*
X78700792Y-71574721D01*
X78496310Y-71116363D01*
X78193394Y-70446186D01*
X77926195Y-70102406D01*
X77573216Y-69977186D01*
X77195524Y-69961818D01*
X76374545Y-69961818D01*
X76374545Y-75041818D01*
X76941702Y-75041818D01*
X77235265Y-75015048D01*
X77410692Y-74868948D01*
X77505415Y-74504829D01*
X77556868Y-73824002D01*
X77576702Y-73367727D01*
X77644545Y-71693636D01*
X78192526Y-72905909D01*
X78632272Y-73712638D01*
X79023867Y-74090872D01*
X79145455Y-74118181D01*
X79516537Y-73893411D01*
X79941431Y-73232945D01*
X80098383Y-72905909D01*
X80646364Y-71693636D01*
X80714207Y-73367727D01*
X80758262Y-74231043D01*
X80828035Y-74731377D01*
X80960959Y-74967418D01*
X81194467Y-75037853D01*
X81349207Y-75041818D01*
X81916364Y-75041818D01*
X81916364Y-69961818D01*
X81095385Y-69961818D01*
X80604571Y-69996136D01*
G37*
X80604571Y-69996136D02*
X80287452Y-70170983D01*
X80022530Y-70594195D01*
X79794599Y-71116363D01*
X79500109Y-71756220D01*
X79252343Y-72175473D01*
X79145455Y-72270909D01*
X78970635Y-72076068D01*
X78700792Y-71574721D01*
X78496310Y-71116363D01*
X78193394Y-70446186D01*
X77926195Y-70102406D01*
X77573216Y-69977186D01*
X77195524Y-69961818D01*
X76374545Y-69961818D01*
X76374545Y-75041818D01*
X76941702Y-75041818D01*
X77235265Y-75015048D01*
X77410692Y-74868948D01*
X77505415Y-74504829D01*
X77556868Y-73824002D01*
X77576702Y-73367727D01*
X77644545Y-71693636D01*
X78192526Y-72905909D01*
X78632272Y-73712638D01*
X79023867Y-74090872D01*
X79145455Y-74118181D01*
X79516537Y-73893411D01*
X79941431Y-73232945D01*
X80098383Y-72905909D01*
X80646364Y-71693636D01*
X80714207Y-73367727D01*
X80758262Y-74231043D01*
X80828035Y-74731377D01*
X80960959Y-74967418D01*
X81194467Y-75037853D01*
X81349207Y-75041818D01*
X81916364Y-75041818D01*
X81916364Y-69961818D01*
X81095385Y-69961818D01*
X80604571Y-69996136D01*
G36*
X83987335Y-69986845D02*
G01*
X83266254Y-70096570D01*
X82954490Y-70342964D01*
X83027933Y-70777993D01*
X83462471Y-71453626D01*
X84084818Y-72240129D01*
X84662589Y-72961922D01*
X85107553Y-73547470D01*
X85352701Y-73907237D01*
X85380000Y-73970704D01*
X85171127Y-74051485D01*
X84632342Y-74105052D01*
X84110000Y-74118181D01*
X83376069Y-74138226D01*
X82993733Y-74224894D01*
X82853545Y-74417981D01*
X82840000Y-74580000D01*
X82873125Y-74794643D01*
X83029609Y-74930110D01*
X83395119Y-75004437D01*
X84055321Y-75035658D01*
X85033636Y-75041818D01*
X86059002Y-75033022D01*
X86706761Y-74996120D01*
X87060960Y-74915343D01*
X87205644Y-74774919D01*
X87227273Y-74630205D01*
X87086267Y-74273596D01*
X86710206Y-73678026D01*
X86169529Y-72950873D01*
X85939785Y-72667477D01*
X84652297Y-71116363D01*
X85939785Y-71116363D01*
X86673374Y-71101850D01*
X87057595Y-71024744D01*
X87204734Y-70834701D01*
X87227273Y-70539091D01*
X87210812Y-70266199D01*
X87102286Y-70096586D01*
X86812980Y-70005696D01*
X86254179Y-69968969D01*
X85337167Y-69961850D01*
X85141844Y-69961818D01*
X83987335Y-69986845D01*
G37*
X83987335Y-69986845D02*
X83266254Y-70096570D01*
X82954490Y-70342964D01*
X83027933Y-70777993D01*
X83462471Y-71453626D01*
X84084818Y-72240129D01*
X84662589Y-72961922D01*
X85107553Y-73547470D01*
X85352701Y-73907237D01*
X85380000Y-73970704D01*
X85171127Y-74051485D01*
X84632342Y-74105052D01*
X84110000Y-74118181D01*
X83376069Y-74138226D01*
X82993733Y-74224894D01*
X82853545Y-74417981D01*
X82840000Y-74580000D01*
X82873125Y-74794643D01*
X83029609Y-74930110D01*
X83395119Y-75004437D01*
X84055321Y-75035658D01*
X85033636Y-75041818D01*
X86059002Y-75033022D01*
X86706761Y-74996120D01*
X87060960Y-74915343D01*
X87205644Y-74774919D01*
X87227273Y-74630205D01*
X87086267Y-74273596D01*
X86710206Y-73678026D01*
X86169529Y-72950873D01*
X85939785Y-72667477D01*
X84652297Y-71116363D01*
X85939785Y-71116363D01*
X86673374Y-71101850D01*
X87057595Y-71024744D01*
X87204734Y-70834701D01*
X87227273Y-70539091D01*
X87210812Y-70266199D01*
X87102286Y-70096586D01*
X86812980Y-70005696D01*
X86254179Y-69968969D01*
X85337167Y-69961850D01*
X85141844Y-69961818D01*
X83987335Y-69986845D01*
G36*
X91556818Y-69963106D02*
G01*
X90107982Y-70103587D01*
X89019507Y-70517315D01*
X88298508Y-71199123D01*
X87952100Y-72143840D01*
X87920000Y-72604872D01*
X88100493Y-73616709D01*
X88645426Y-74355900D01*
X89559985Y-74826202D01*
X90849353Y-75031370D01*
X91283214Y-75041818D01*
X92538182Y-75041818D01*
X92538182Y-72621672D01*
X91152727Y-72621672D01*
X91152727Y-74126980D01*
X90517727Y-73975287D01*
X89941673Y-73783473D01*
X89594091Y-73596250D01*
X89367634Y-73169201D01*
X89318477Y-72527147D01*
X89439316Y-71878403D01*
X89668312Y-71479220D01*
X90183585Y-71189040D01*
X90591948Y-71116363D01*
X90893181Y-71144690D01*
X91061164Y-71299044D01*
X91134663Y-71683485D01*
X91152443Y-72402073D01*
X91152727Y-72621672D01*
X92538182Y-72621672D01*
X92538182Y-69961818D01*
X91556818Y-69963106D01*
G37*
X91556818Y-69963106D02*
X90107982Y-70103587D01*
X89019507Y-70517315D01*
X88298508Y-71199123D01*
X87952100Y-72143840D01*
X87920000Y-72604872D01*
X88100493Y-73616709D01*
X88645426Y-74355900D01*
X89559985Y-74826202D01*
X90849353Y-75031370D01*
X91283214Y-75041818D01*
X92538182Y-75041818D01*
X92538182Y-72621672D01*
X91152727Y-72621672D01*
X91152727Y-74126980D01*
X90517727Y-73975287D01*
X89941673Y-73783473D01*
X89594091Y-73596250D01*
X89367634Y-73169201D01*
X89318477Y-72527147D01*
X89439316Y-71878403D01*
X89668312Y-71479220D01*
X90183585Y-71189040D01*
X90591948Y-71116363D01*
X90893181Y-71144690D01*
X91061164Y-71299044D01*
X91134663Y-71683485D01*
X91152443Y-72402073D01*
X91152727Y-72621672D01*
X92538182Y-72621672D01*
X92538182Y-69961818D01*
X91556818Y-69963106D01*
G36*
X95642837Y-70046235D02*
G01*
X94764684Y-70276401D01*
X94193038Y-70617685D01*
X94105054Y-70726718D01*
X93934390Y-71382505D01*
X94127254Y-72069532D01*
X94290102Y-72293121D01*
X94491165Y-72577610D01*
X94479224Y-72871679D01*
X94227204Y-73325884D01*
X94059193Y-73577178D01*
X93615248Y-74312785D01*
X93496480Y-74768546D01*
X93704158Y-74993792D01*
X94096818Y-75041194D01*
X94584610Y-74936356D01*
X94972164Y-74551108D01*
X95193636Y-74178010D01*
X95572771Y-73620334D01*
X95957725Y-73277117D01*
X96059545Y-73238066D01*
X96321578Y-73269813D01*
X96439795Y-73568632D01*
X96463636Y-74101250D01*
X96489728Y-74700492D01*
X96632454Y-74969616D01*
X96988494Y-75039887D01*
X97156364Y-75041818D01*
X97849091Y-75041818D01*
X97849091Y-71709696D01*
X96463636Y-71709696D01*
X96388255Y-72142177D01*
X96083953Y-72243785D01*
X95944091Y-72229241D01*
X95477274Y-71966292D01*
X95350758Y-71635909D01*
X95381730Y-71247837D01*
X95711239Y-71121022D01*
X95870304Y-71116363D01*
X96316807Y-71204860D01*
X96459257Y-71562941D01*
X96463636Y-71709696D01*
X97849091Y-71709696D01*
X97849091Y-69961818D01*
X96709578Y-69961818D01*
X95642837Y-70046235D01*
G37*
X95642837Y-70046235D02*
X94764684Y-70276401D01*
X94193038Y-70617685D01*
X94105054Y-70726718D01*
X93934390Y-71382505D01*
X94127254Y-72069532D01*
X94290102Y-72293121D01*
X94491165Y-72577610D01*
X94479224Y-72871679D01*
X94227204Y-73325884D01*
X94059193Y-73577178D01*
X93615248Y-74312785D01*
X93496480Y-74768546D01*
X93704158Y-74993792D01*
X94096818Y-75041194D01*
X94584610Y-74936356D01*
X94972164Y-74551108D01*
X95193636Y-74178010D01*
X95572771Y-73620334D01*
X95957725Y-73277117D01*
X96059545Y-73238066D01*
X96321578Y-73269813D01*
X96439795Y-73568632D01*
X96463636Y-74101250D01*
X96489728Y-74700492D01*
X96632454Y-74969616D01*
X96988494Y-75039887D01*
X97156364Y-75041818D01*
X97849091Y-75041818D01*
X97849091Y-71709696D01*
X96463636Y-71709696D01*
X96388255Y-72142177D01*
X96083953Y-72243785D01*
X95944091Y-72229241D01*
X95477274Y-71966292D01*
X95350758Y-71635909D01*
X95381730Y-71247837D01*
X95711239Y-71121022D01*
X95870304Y-71116363D01*
X96316807Y-71204860D01*
X96459257Y-71562941D01*
X96463636Y-71709696D01*
X97849091Y-71709696D01*
X97849091Y-69961818D01*
X96709578Y-69961818D01*
X95642837Y-70046235D01*
G36*
X102484909Y-69998292D02*
G01*
X102287451Y-70195944D01*
X102237457Y-70687122D01*
X102236364Y-70885454D01*
X102236364Y-71809091D01*
X100389091Y-71809091D01*
X100389091Y-70870117D01*
X100364956Y-70275193D01*
X100233747Y-70021424D01*
X99907262Y-69988531D01*
X99754091Y-70004208D01*
X99119091Y-70077272D01*
X99053552Y-72559545D01*
X98988012Y-75041818D01*
X99688552Y-75041818D01*
X100119278Y-75012352D01*
X100323280Y-74840367D01*
X100385084Y-74400487D01*
X100389091Y-74002727D01*
X100389091Y-72963636D01*
X102236364Y-72963636D01*
X102236364Y-74002727D01*
X102256445Y-74641680D01*
X102372390Y-74944309D01*
X102667753Y-75035944D01*
X102929091Y-75041818D01*
X103621818Y-75041818D01*
X103621818Y-69961818D01*
X102929091Y-69961818D01*
X102484909Y-69998292D01*
G37*
X102484909Y-69998292D02*
X102287451Y-70195944D01*
X102237457Y-70687122D01*
X102236364Y-70885454D01*
X102236364Y-71809091D01*
X100389091Y-71809091D01*
X100389091Y-70870117D01*
X100364956Y-70275193D01*
X100233747Y-70021424D01*
X99907262Y-69988531D01*
X99754091Y-70004208D01*
X99119091Y-70077272D01*
X99053552Y-72559545D01*
X98988012Y-75041818D01*
X99688552Y-75041818D01*
X100119278Y-75012352D01*
X100323280Y-74840367D01*
X100385084Y-74400487D01*
X100389091Y-74002727D01*
X100389091Y-72963636D01*
X102236364Y-72963636D01*
X102236364Y-74002727D01*
X102256445Y-74641680D01*
X102372390Y-74944309D01*
X102667753Y-75035944D01*
X102929091Y-75041818D01*
X103621818Y-75041818D01*
X103621818Y-69961818D01*
X102929091Y-69961818D01*
X102484909Y-69998292D01*
G36*
X104834091Y-65259720D02*
G01*
X104189823Y-65840303D01*
X103826172Y-66270803D01*
X103663573Y-66690181D01*
X103622463Y-67237399D01*
X103621818Y-67376992D01*
X103621818Y-68445133D01*
X104839933Y-67242149D01*
X106058048Y-66039166D01*
X106801539Y-66782657D01*
X107545029Y-67526148D01*
X106267906Y-68816738D01*
X104990782Y-70107328D01*
X105056755Y-72590599D01*
X105122727Y-75073871D01*
X105757727Y-74410209D01*
X106100825Y-74000821D01*
X106292543Y-73576390D01*
X106375590Y-72984816D01*
X106392727Y-72148614D01*
X106392727Y-70550680D01*
X107893628Y-69038189D01*
X109394530Y-67525698D01*
X106046364Y-64210588D01*
X104834091Y-65259720D01*
G37*
X104834091Y-65259720D02*
X104189823Y-65840303D01*
X103826172Y-66270803D01*
X103663573Y-66690181D01*
X103622463Y-67237399D01*
X103621818Y-67376992D01*
X103621818Y-68445133D01*
X104839933Y-67242149D01*
X106058048Y-66039166D01*
X106801539Y-66782657D01*
X107545029Y-67526148D01*
X106267906Y-68816738D01*
X104990782Y-70107328D01*
X105056755Y-72590599D01*
X105122727Y-75073871D01*
X105757727Y-74410209D01*
X106100825Y-74000821D01*
X106292543Y-73576390D01*
X106375590Y-72984816D01*
X106392727Y-72148614D01*
X106392727Y-70550680D01*
X107893628Y-69038189D01*
X109394530Y-67525698D01*
X106046364Y-64210588D01*
X104834091Y-65259720D01*
G36*
X104834091Y-46259720D02*
G01*
X104189823Y-46840303D01*
X103826172Y-47270803D01*
X103663573Y-47690181D01*
X103622463Y-48237399D01*
X103621818Y-48376992D01*
X103621818Y-49445133D01*
X104839933Y-48242149D01*
X106058048Y-47039166D01*
X106801539Y-47782657D01*
X107545029Y-48526148D01*
X106267906Y-49816738D01*
X104990782Y-51107328D01*
X105056755Y-53590599D01*
X105122727Y-56073871D01*
X105757727Y-55410209D01*
X106100825Y-55000821D01*
X106292543Y-54576390D01*
X106375590Y-53984816D01*
X106392727Y-53148614D01*
X106392727Y-51550680D01*
X107893628Y-50038189D01*
X109394530Y-48525698D01*
X106046364Y-45210588D01*
X104834091Y-46259720D01*
G37*
X104834091Y-46259720D02*
X104189823Y-46840303D01*
X103826172Y-47270803D01*
X103663573Y-47690181D01*
X103622463Y-48237399D01*
X103621818Y-48376992D01*
X103621818Y-49445133D01*
X104839933Y-48242149D01*
X106058048Y-47039166D01*
X106801539Y-47782657D01*
X107545029Y-48526148D01*
X106267906Y-49816738D01*
X104990782Y-51107328D01*
X105056755Y-53590599D01*
X105122727Y-56073871D01*
X105757727Y-55410209D01*
X106100825Y-55000821D01*
X106292543Y-54576390D01*
X106375590Y-53984816D01*
X106392727Y-53148614D01*
X106392727Y-51550680D01*
X107893628Y-50038189D01*
X109394530Y-48525698D01*
X106046364Y-45210588D01*
X104834091Y-46259720D01*
G36*
X102484909Y-50998292D02*
G01*
X102287451Y-51195944D01*
X102237457Y-51687122D01*
X102236364Y-51885454D01*
X102236364Y-52809091D01*
X100389091Y-52809091D01*
X100389091Y-51870117D01*
X100364956Y-51275193D01*
X100233747Y-51021424D01*
X99907262Y-50988531D01*
X99754091Y-51004208D01*
X99119091Y-51077272D01*
X99053552Y-53559545D01*
X98988012Y-56041818D01*
X99688552Y-56041818D01*
X100119278Y-56012352D01*
X100323280Y-55840367D01*
X100385084Y-55400487D01*
X100389091Y-55002727D01*
X100389091Y-53963636D01*
X102236364Y-53963636D01*
X102236364Y-55002727D01*
X102256445Y-55641680D01*
X102372390Y-55944309D01*
X102667753Y-56035944D01*
X102929091Y-56041818D01*
X103621818Y-56041818D01*
X103621818Y-50961818D01*
X102929091Y-50961818D01*
X102484909Y-50998292D01*
G37*
X102484909Y-50998292D02*
X102287451Y-51195944D01*
X102237457Y-51687122D01*
X102236364Y-51885454D01*
X102236364Y-52809091D01*
X100389091Y-52809091D01*
X100389091Y-51870117D01*
X100364956Y-51275193D01*
X100233747Y-51021424D01*
X99907262Y-50988531D01*
X99754091Y-51004208D01*
X99119091Y-51077272D01*
X99053552Y-53559545D01*
X98988012Y-56041818D01*
X99688552Y-56041818D01*
X100119278Y-56012352D01*
X100323280Y-55840367D01*
X100385084Y-55400487D01*
X100389091Y-55002727D01*
X100389091Y-53963636D01*
X102236364Y-53963636D01*
X102236364Y-55002727D01*
X102256445Y-55641680D01*
X102372390Y-55944309D01*
X102667753Y-56035944D01*
X102929091Y-56041818D01*
X103621818Y-56041818D01*
X103621818Y-50961818D01*
X102929091Y-50961818D01*
X102484909Y-50998292D01*
G36*
X95642837Y-51046235D02*
G01*
X94764684Y-51276401D01*
X94193038Y-51617685D01*
X94105054Y-51726718D01*
X93934390Y-52382505D01*
X94127254Y-53069532D01*
X94290102Y-53293121D01*
X94491165Y-53577610D01*
X94479224Y-53871679D01*
X94227204Y-54325884D01*
X94059193Y-54577178D01*
X93615248Y-55312785D01*
X93496480Y-55768546D01*
X93704158Y-55993792D01*
X94096818Y-56041194D01*
X94584610Y-55936356D01*
X94972164Y-55551108D01*
X95193636Y-55178010D01*
X95572771Y-54620334D01*
X95957725Y-54277117D01*
X96059545Y-54238066D01*
X96321578Y-54269813D01*
X96439795Y-54568632D01*
X96463636Y-55101250D01*
X96489728Y-55700492D01*
X96632454Y-55969616D01*
X96988494Y-56039887D01*
X97156364Y-56041818D01*
X97849091Y-56041818D01*
X97849091Y-52709696D01*
X96463636Y-52709696D01*
X96388255Y-53142177D01*
X96083953Y-53243785D01*
X95944091Y-53229241D01*
X95477274Y-52966292D01*
X95350758Y-52635909D01*
X95381730Y-52247837D01*
X95711239Y-52121022D01*
X95870304Y-52116363D01*
X96316807Y-52204860D01*
X96459257Y-52562941D01*
X96463636Y-52709696D01*
X97849091Y-52709696D01*
X97849091Y-50961818D01*
X96709578Y-50961818D01*
X95642837Y-51046235D01*
G37*
X95642837Y-51046235D02*
X94764684Y-51276401D01*
X94193038Y-51617685D01*
X94105054Y-51726718D01*
X93934390Y-52382505D01*
X94127254Y-53069532D01*
X94290102Y-53293121D01*
X94491165Y-53577610D01*
X94479224Y-53871679D01*
X94227204Y-54325884D01*
X94059193Y-54577178D01*
X93615248Y-55312785D01*
X93496480Y-55768546D01*
X93704158Y-55993792D01*
X94096818Y-56041194D01*
X94584610Y-55936356D01*
X94972164Y-55551108D01*
X95193636Y-55178010D01*
X95572771Y-54620334D01*
X95957725Y-54277117D01*
X96059545Y-54238066D01*
X96321578Y-54269813D01*
X96439795Y-54568632D01*
X96463636Y-55101250D01*
X96489728Y-55700492D01*
X96632454Y-55969616D01*
X96988494Y-56039887D01*
X97156364Y-56041818D01*
X97849091Y-56041818D01*
X97849091Y-52709696D01*
X96463636Y-52709696D01*
X96388255Y-53142177D01*
X96083953Y-53243785D01*
X95944091Y-53229241D01*
X95477274Y-52966292D01*
X95350758Y-52635909D01*
X95381730Y-52247837D01*
X95711239Y-52121022D01*
X95870304Y-52116363D01*
X96316807Y-52204860D01*
X96459257Y-52562941D01*
X96463636Y-52709696D01*
X97849091Y-52709696D01*
X97849091Y-50961818D01*
X96709578Y-50961818D01*
X95642837Y-51046235D01*
G36*
X91556818Y-50963106D02*
G01*
X90107982Y-51103587D01*
X89019507Y-51517315D01*
X88298508Y-52199123D01*
X87952100Y-53143840D01*
X87920000Y-53604872D01*
X88100493Y-54616709D01*
X88645426Y-55355900D01*
X89559985Y-55826202D01*
X90849353Y-56031370D01*
X91283214Y-56041818D01*
X92538182Y-56041818D01*
X92538182Y-53621672D01*
X91152727Y-53621672D01*
X91152727Y-55126980D01*
X90517727Y-54975287D01*
X89941673Y-54783473D01*
X89594091Y-54596250D01*
X89367634Y-54169201D01*
X89318477Y-53527147D01*
X89439316Y-52878403D01*
X89668312Y-52479220D01*
X90183585Y-52189040D01*
X90591948Y-52116363D01*
X90893181Y-52144690D01*
X91061164Y-52299044D01*
X91134663Y-52683485D01*
X91152443Y-53402073D01*
X91152727Y-53621672D01*
X92538182Y-53621672D01*
X92538182Y-50961818D01*
X91556818Y-50963106D01*
G37*
X91556818Y-50963106D02*
X90107982Y-51103587D01*
X89019507Y-51517315D01*
X88298508Y-52199123D01*
X87952100Y-53143840D01*
X87920000Y-53604872D01*
X88100493Y-54616709D01*
X88645426Y-55355900D01*
X89559985Y-55826202D01*
X90849353Y-56031370D01*
X91283214Y-56041818D01*
X92538182Y-56041818D01*
X92538182Y-53621672D01*
X91152727Y-53621672D01*
X91152727Y-55126980D01*
X90517727Y-54975287D01*
X89941673Y-54783473D01*
X89594091Y-54596250D01*
X89367634Y-54169201D01*
X89318477Y-53527147D01*
X89439316Y-52878403D01*
X89668312Y-52479220D01*
X90183585Y-52189040D01*
X90591948Y-52116363D01*
X90893181Y-52144690D01*
X91061164Y-52299044D01*
X91134663Y-52683485D01*
X91152443Y-53402073D01*
X91152727Y-53621672D01*
X92538182Y-53621672D01*
X92538182Y-50961818D01*
X91556818Y-50963106D01*
G36*
X83987335Y-50986845D02*
G01*
X83266254Y-51096570D01*
X82954490Y-51342964D01*
X83027933Y-51777993D01*
X83462471Y-52453626D01*
X84084818Y-53240129D01*
X84662589Y-53961922D01*
X85107553Y-54547470D01*
X85352701Y-54907237D01*
X85380000Y-54970704D01*
X85171127Y-55051485D01*
X84632342Y-55105052D01*
X84110000Y-55118181D01*
X83376069Y-55138226D01*
X82993733Y-55224894D01*
X82853545Y-55417981D01*
X82840000Y-55580000D01*
X82873125Y-55794643D01*
X83029609Y-55930110D01*
X83395119Y-56004437D01*
X84055321Y-56035658D01*
X85033636Y-56041818D01*
X86059002Y-56033022D01*
X86706761Y-55996120D01*
X87060960Y-55915343D01*
X87205644Y-55774919D01*
X87227273Y-55630205D01*
X87086267Y-55273596D01*
X86710206Y-54678026D01*
X86169529Y-53950873D01*
X85939785Y-53667477D01*
X84652297Y-52116363D01*
X85939785Y-52116363D01*
X86673374Y-52101850D01*
X87057595Y-52024744D01*
X87204734Y-51834701D01*
X87227273Y-51539091D01*
X87210812Y-51266199D01*
X87102286Y-51096586D01*
X86812980Y-51005696D01*
X86254179Y-50968969D01*
X85337167Y-50961850D01*
X85141844Y-50961818D01*
X83987335Y-50986845D01*
G37*
X83987335Y-50986845D02*
X83266254Y-51096570D01*
X82954490Y-51342964D01*
X83027933Y-51777993D01*
X83462471Y-52453626D01*
X84084818Y-53240129D01*
X84662589Y-53961922D01*
X85107553Y-54547470D01*
X85352701Y-54907237D01*
X85380000Y-54970704D01*
X85171127Y-55051485D01*
X84632342Y-55105052D01*
X84110000Y-55118181D01*
X83376069Y-55138226D01*
X82993733Y-55224894D01*
X82853545Y-55417981D01*
X82840000Y-55580000D01*
X82873125Y-55794643D01*
X83029609Y-55930110D01*
X83395119Y-56004437D01*
X84055321Y-56035658D01*
X85033636Y-56041818D01*
X86059002Y-56033022D01*
X86706761Y-55996120D01*
X87060960Y-55915343D01*
X87205644Y-55774919D01*
X87227273Y-55630205D01*
X87086267Y-55273596D01*
X86710206Y-54678026D01*
X86169529Y-53950873D01*
X85939785Y-53667477D01*
X84652297Y-52116363D01*
X85939785Y-52116363D01*
X86673374Y-52101850D01*
X87057595Y-52024744D01*
X87204734Y-51834701D01*
X87227273Y-51539091D01*
X87210812Y-51266199D01*
X87102286Y-51096586D01*
X86812980Y-51005696D01*
X86254179Y-50968969D01*
X85337167Y-50961850D01*
X85141844Y-50961818D01*
X83987335Y-50986845D01*
G36*
X80604571Y-50996136D02*
G01*
X80287452Y-51170983D01*
X80022530Y-51594195D01*
X79794599Y-52116363D01*
X79500109Y-52756220D01*
X79252343Y-53175473D01*
X79145455Y-53270909D01*
X78970635Y-53076068D01*
X78700792Y-52574721D01*
X78496310Y-52116363D01*
X78193394Y-51446186D01*
X77926195Y-51102406D01*
X77573216Y-50977186D01*
X77195524Y-50961818D01*
X76374545Y-50961818D01*
X76374545Y-56041818D01*
X76941702Y-56041818D01*
X77235265Y-56015048D01*
X77410692Y-55868948D01*
X77505415Y-55504829D01*
X77556868Y-54824002D01*
X77576702Y-54367727D01*
X77644545Y-52693636D01*
X78192526Y-53905909D01*
X78632272Y-54712638D01*
X79023867Y-55090872D01*
X79145455Y-55118181D01*
X79516537Y-54893411D01*
X79941431Y-54232945D01*
X80098383Y-53905909D01*
X80646364Y-52693636D01*
X80714207Y-54367727D01*
X80758262Y-55231043D01*
X80828035Y-55731377D01*
X80960959Y-55967418D01*
X81194467Y-56037853D01*
X81349207Y-56041818D01*
X81916364Y-56041818D01*
X81916364Y-50961818D01*
X81095385Y-50961818D01*
X80604571Y-50996136D01*
G37*
X80604571Y-50996136D02*
X80287452Y-51170983D01*
X80022530Y-51594195D01*
X79794599Y-52116363D01*
X79500109Y-52756220D01*
X79252343Y-53175473D01*
X79145455Y-53270909D01*
X78970635Y-53076068D01*
X78700792Y-52574721D01*
X78496310Y-52116363D01*
X78193394Y-51446186D01*
X77926195Y-51102406D01*
X77573216Y-50977186D01*
X77195524Y-50961818D01*
X76374545Y-50961818D01*
X76374545Y-56041818D01*
X76941702Y-56041818D01*
X77235265Y-56015048D01*
X77410692Y-55868948D01*
X77505415Y-55504829D01*
X77556868Y-54824002D01*
X77576702Y-54367727D01*
X77644545Y-52693636D01*
X78192526Y-53905909D01*
X78632272Y-54712638D01*
X79023867Y-55090872D01*
X79145455Y-55118181D01*
X79516537Y-54893411D01*
X79941431Y-54232945D01*
X80098383Y-53905909D01*
X80646364Y-52693636D01*
X80714207Y-54367727D01*
X80758262Y-55231043D01*
X80828035Y-55731377D01*
X80960959Y-55967418D01*
X81194467Y-56037853D01*
X81349207Y-56041818D01*
X81916364Y-56041818D01*
X81916364Y-50961818D01*
X81095385Y-50961818D01*
X80604571Y-50996136D01*
G36*
X83492326Y-46217061D02*
G01*
X81873127Y-46510566D01*
X80375819Y-46783059D01*
X79069367Y-47021903D01*
X78022741Y-47214460D01*
X77304906Y-47348094D01*
X77009545Y-47404934D01*
X76593885Y-47546903D01*
X76413497Y-47843737D01*
X76374545Y-48440165D01*
X76407793Y-49011956D01*
X76490653Y-49325211D01*
X76521540Y-49345454D01*
X76778355Y-49305176D01*
X77429840Y-49191475D01*
X78416572Y-49015055D01*
X79679129Y-48786618D01*
X81158090Y-48516866D01*
X82794032Y-48216503D01*
X82986995Y-48180952D01*
X89305455Y-47016451D01*
X95623915Y-48180952D01*
X97281064Y-48484688D01*
X98794570Y-48758889D01*
X100103590Y-48992789D01*
X101147280Y-49175622D01*
X101864797Y-49296622D01*
X102195300Y-49345022D01*
X102204824Y-49345454D01*
X102380197Y-49142454D01*
X102465563Y-48642268D01*
X102467273Y-48550900D01*
X102410457Y-47978993D01*
X102271728Y-47638719D01*
X102252347Y-47623514D01*
X101977171Y-47548696D01*
X101307694Y-47403827D01*
X100304101Y-47200815D01*
X99026578Y-46951566D01*
X97535311Y-46667990D01*
X95890485Y-46361994D01*
X95688764Y-46324906D01*
X89340106Y-45159130D01*
X83492326Y-46217061D01*
G37*
X83492326Y-46217061D02*
X81873127Y-46510566D01*
X80375819Y-46783059D01*
X79069367Y-47021903D01*
X78022741Y-47214460D01*
X77304906Y-47348094D01*
X77009545Y-47404934D01*
X76593885Y-47546903D01*
X76413497Y-47843737D01*
X76374545Y-48440165D01*
X76407793Y-49011956D01*
X76490653Y-49325211D01*
X76521540Y-49345454D01*
X76778355Y-49305176D01*
X77429840Y-49191475D01*
X78416572Y-49015055D01*
X79679129Y-48786618D01*
X81158090Y-48516866D01*
X82794032Y-48216503D01*
X82986995Y-48180952D01*
X89305455Y-47016451D01*
X95623915Y-48180952D01*
X97281064Y-48484688D01*
X98794570Y-48758889D01*
X100103590Y-48992789D01*
X101147280Y-49175622D01*
X101864797Y-49296622D01*
X102195300Y-49345022D01*
X102204824Y-49345454D01*
X102380197Y-49142454D01*
X102465563Y-48642268D01*
X102467273Y-48550900D01*
X102410457Y-47978993D01*
X102271728Y-47638719D01*
X102252347Y-47623514D01*
X101977171Y-47548696D01*
X101307694Y-47403827D01*
X100304101Y-47200815D01*
X99026578Y-46951566D01*
X97535311Y-46667990D01*
X95890485Y-46361994D01*
X95688764Y-46324906D01*
X89340106Y-45159130D01*
X83492326Y-46217061D01*
G36*
X41492326Y-46217061D02*
G01*
X39873127Y-46510566D01*
X38375819Y-46783059D01*
X37069367Y-47021903D01*
X36022741Y-47214460D01*
X35304906Y-47348094D01*
X35009545Y-47404934D01*
X34593885Y-47546903D01*
X34413497Y-47843737D01*
X34374545Y-48440165D01*
X34407793Y-49011956D01*
X34490653Y-49325211D01*
X34521540Y-49345454D01*
X34778355Y-49305176D01*
X35429840Y-49191475D01*
X36416572Y-49015055D01*
X37679129Y-48786618D01*
X39158090Y-48516866D01*
X40794032Y-48216503D01*
X40986995Y-48180952D01*
X47305455Y-47016451D01*
X53623915Y-48180952D01*
X55281064Y-48484688D01*
X56794570Y-48758889D01*
X58103590Y-48992789D01*
X59147280Y-49175622D01*
X59864797Y-49296622D01*
X60195300Y-49345022D01*
X60204824Y-49345454D01*
X60380197Y-49142454D01*
X60465563Y-48642268D01*
X60467273Y-48550900D01*
X60410457Y-47978993D01*
X60271728Y-47638719D01*
X60252347Y-47623514D01*
X59977171Y-47548696D01*
X59307694Y-47403827D01*
X58304101Y-47200815D01*
X57026578Y-46951566D01*
X55535311Y-46667990D01*
X53890485Y-46361994D01*
X53688764Y-46324906D01*
X47340106Y-45159130D01*
X41492326Y-46217061D01*
G37*
X41492326Y-46217061D02*
X39873127Y-46510566D01*
X38375819Y-46783059D01*
X37069367Y-47021903D01*
X36022741Y-47214460D01*
X35304906Y-47348094D01*
X35009545Y-47404934D01*
X34593885Y-47546903D01*
X34413497Y-47843737D01*
X34374545Y-48440165D01*
X34407793Y-49011956D01*
X34490653Y-49325211D01*
X34521540Y-49345454D01*
X34778355Y-49305176D01*
X35429840Y-49191475D01*
X36416572Y-49015055D01*
X37679129Y-48786618D01*
X39158090Y-48516866D01*
X40794032Y-48216503D01*
X40986995Y-48180952D01*
X47305455Y-47016451D01*
X53623915Y-48180952D01*
X55281064Y-48484688D01*
X56794570Y-48758889D01*
X58103590Y-48992789D01*
X59147280Y-49175622D01*
X59864797Y-49296622D01*
X60195300Y-49345022D01*
X60204824Y-49345454D01*
X60380197Y-49142454D01*
X60465563Y-48642268D01*
X60467273Y-48550900D01*
X60410457Y-47978993D01*
X60271728Y-47638719D01*
X60252347Y-47623514D01*
X59977171Y-47548696D01*
X59307694Y-47403827D01*
X58304101Y-47200815D01*
X57026578Y-46951566D01*
X55535311Y-46667990D01*
X53890485Y-46361994D01*
X53688764Y-46324906D01*
X47340106Y-45159130D01*
X41492326Y-46217061D01*
G36*
X38604571Y-50996136D02*
G01*
X38287452Y-51170983D01*
X38022530Y-51594195D01*
X37794599Y-52116363D01*
X37500109Y-52756220D01*
X37252343Y-53175473D01*
X37145455Y-53270909D01*
X36970635Y-53076068D01*
X36700792Y-52574721D01*
X36496310Y-52116363D01*
X36193394Y-51446186D01*
X35926195Y-51102406D01*
X35573216Y-50977186D01*
X35195524Y-50961818D01*
X34374545Y-50961818D01*
X34374545Y-56041818D01*
X34941702Y-56041818D01*
X35235265Y-56015048D01*
X35410692Y-55868948D01*
X35505415Y-55504829D01*
X35556868Y-54824002D01*
X35576702Y-54367727D01*
X35644545Y-52693636D01*
X36192526Y-53905909D01*
X36632272Y-54712638D01*
X37023867Y-55090872D01*
X37145455Y-55118181D01*
X37516537Y-54893411D01*
X37941431Y-54232945D01*
X38098383Y-53905909D01*
X38646364Y-52693636D01*
X38714207Y-54367727D01*
X38758262Y-55231043D01*
X38828035Y-55731377D01*
X38960959Y-55967418D01*
X39194467Y-56037853D01*
X39349207Y-56041818D01*
X39916364Y-56041818D01*
X39916364Y-50961818D01*
X39095385Y-50961818D01*
X38604571Y-50996136D01*
G37*
X38604571Y-50996136D02*
X38287452Y-51170983D01*
X38022530Y-51594195D01*
X37794599Y-52116363D01*
X37500109Y-52756220D01*
X37252343Y-53175473D01*
X37145455Y-53270909D01*
X36970635Y-53076068D01*
X36700792Y-52574721D01*
X36496310Y-52116363D01*
X36193394Y-51446186D01*
X35926195Y-51102406D01*
X35573216Y-50977186D01*
X35195524Y-50961818D01*
X34374545Y-50961818D01*
X34374545Y-56041818D01*
X34941702Y-56041818D01*
X35235265Y-56015048D01*
X35410692Y-55868948D01*
X35505415Y-55504829D01*
X35556868Y-54824002D01*
X35576702Y-54367727D01*
X35644545Y-52693636D01*
X36192526Y-53905909D01*
X36632272Y-54712638D01*
X37023867Y-55090872D01*
X37145455Y-55118181D01*
X37516537Y-54893411D01*
X37941431Y-54232945D01*
X38098383Y-53905909D01*
X38646364Y-52693636D01*
X38714207Y-54367727D01*
X38758262Y-55231043D01*
X38828035Y-55731377D01*
X38960959Y-55967418D01*
X39194467Y-56037853D01*
X39349207Y-56041818D01*
X39916364Y-56041818D01*
X39916364Y-50961818D01*
X39095385Y-50961818D01*
X38604571Y-50996136D01*
G36*
X41987335Y-50986845D02*
G01*
X41266254Y-51096570D01*
X40954490Y-51342964D01*
X41027933Y-51777993D01*
X41462471Y-52453626D01*
X42084818Y-53240129D01*
X42662589Y-53961922D01*
X43107553Y-54547470D01*
X43352701Y-54907237D01*
X43380000Y-54970704D01*
X43171127Y-55051485D01*
X42632342Y-55105052D01*
X42110000Y-55118181D01*
X41376069Y-55138226D01*
X40993733Y-55224894D01*
X40853545Y-55417981D01*
X40840000Y-55580000D01*
X40873125Y-55794643D01*
X41029609Y-55930110D01*
X41395119Y-56004437D01*
X42055321Y-56035658D01*
X43033636Y-56041818D01*
X44059002Y-56033022D01*
X44706761Y-55996120D01*
X45060960Y-55915343D01*
X45205644Y-55774919D01*
X45227273Y-55630205D01*
X45086267Y-55273596D01*
X44710206Y-54678026D01*
X44169529Y-53950873D01*
X43939785Y-53667477D01*
X42652297Y-52116363D01*
X43939785Y-52116363D01*
X44673374Y-52101850D01*
X45057595Y-52024744D01*
X45204734Y-51834701D01*
X45227273Y-51539091D01*
X45210812Y-51266199D01*
X45102286Y-51096586D01*
X44812980Y-51005696D01*
X44254179Y-50968969D01*
X43337167Y-50961850D01*
X43141844Y-50961818D01*
X41987335Y-50986845D01*
G37*
X41987335Y-50986845D02*
X41266254Y-51096570D01*
X40954490Y-51342964D01*
X41027933Y-51777993D01*
X41462471Y-52453626D01*
X42084818Y-53240129D01*
X42662589Y-53961922D01*
X43107553Y-54547470D01*
X43352701Y-54907237D01*
X43380000Y-54970704D01*
X43171127Y-55051485D01*
X42632342Y-55105052D01*
X42110000Y-55118181D01*
X41376069Y-55138226D01*
X40993733Y-55224894D01*
X40853545Y-55417981D01*
X40840000Y-55580000D01*
X40873125Y-55794643D01*
X41029609Y-55930110D01*
X41395119Y-56004437D01*
X42055321Y-56035658D01*
X43033636Y-56041818D01*
X44059002Y-56033022D01*
X44706761Y-55996120D01*
X45060960Y-55915343D01*
X45205644Y-55774919D01*
X45227273Y-55630205D01*
X45086267Y-55273596D01*
X44710206Y-54678026D01*
X44169529Y-53950873D01*
X43939785Y-53667477D01*
X42652297Y-52116363D01*
X43939785Y-52116363D01*
X44673374Y-52101850D01*
X45057595Y-52024744D01*
X45204734Y-51834701D01*
X45227273Y-51539091D01*
X45210812Y-51266199D01*
X45102286Y-51096586D01*
X44812980Y-51005696D01*
X44254179Y-50968969D01*
X43337167Y-50961850D01*
X43141844Y-50961818D01*
X41987335Y-50986845D01*
G36*
X49556818Y-50963106D02*
G01*
X48107982Y-51103587D01*
X47019507Y-51517315D01*
X46298508Y-52199123D01*
X45952100Y-53143840D01*
X45920000Y-53604872D01*
X46100493Y-54616709D01*
X46645426Y-55355900D01*
X47559985Y-55826202D01*
X48849353Y-56031370D01*
X49283214Y-56041818D01*
X50538182Y-56041818D01*
X50538182Y-53621672D01*
X49152727Y-53621672D01*
X49152727Y-55126980D01*
X48517727Y-54975287D01*
X47941673Y-54783473D01*
X47594091Y-54596250D01*
X47367634Y-54169201D01*
X47318477Y-53527147D01*
X47439316Y-52878403D01*
X47668312Y-52479220D01*
X48183585Y-52189040D01*
X48591948Y-52116363D01*
X48893181Y-52144690D01*
X49061164Y-52299044D01*
X49134663Y-52683485D01*
X49152443Y-53402073D01*
X49152727Y-53621672D01*
X50538182Y-53621672D01*
X50538182Y-50961818D01*
X49556818Y-50963106D01*
G37*
X49556818Y-50963106D02*
X48107982Y-51103587D01*
X47019507Y-51517315D01*
X46298508Y-52199123D01*
X45952100Y-53143840D01*
X45920000Y-53604872D01*
X46100493Y-54616709D01*
X46645426Y-55355900D01*
X47559985Y-55826202D01*
X48849353Y-56031370D01*
X49283214Y-56041818D01*
X50538182Y-56041818D01*
X50538182Y-53621672D01*
X49152727Y-53621672D01*
X49152727Y-55126980D01*
X48517727Y-54975287D01*
X47941673Y-54783473D01*
X47594091Y-54596250D01*
X47367634Y-54169201D01*
X47318477Y-53527147D01*
X47439316Y-52878403D01*
X47668312Y-52479220D01*
X48183585Y-52189040D01*
X48591948Y-52116363D01*
X48893181Y-52144690D01*
X49061164Y-52299044D01*
X49134663Y-52683485D01*
X49152443Y-53402073D01*
X49152727Y-53621672D01*
X50538182Y-53621672D01*
X50538182Y-50961818D01*
X49556818Y-50963106D01*
G36*
X53642837Y-51046235D02*
G01*
X52764684Y-51276401D01*
X52193038Y-51617685D01*
X52105054Y-51726718D01*
X51934390Y-52382505D01*
X52127254Y-53069532D01*
X52290102Y-53293121D01*
X52491165Y-53577610D01*
X52479224Y-53871679D01*
X52227204Y-54325884D01*
X52059193Y-54577178D01*
X51615248Y-55312785D01*
X51496480Y-55768546D01*
X51704158Y-55993792D01*
X52096818Y-56041194D01*
X52584610Y-55936356D01*
X52972164Y-55551108D01*
X53193636Y-55178010D01*
X53572771Y-54620334D01*
X53957725Y-54277117D01*
X54059545Y-54238066D01*
X54321578Y-54269813D01*
X54439795Y-54568632D01*
X54463636Y-55101250D01*
X54489728Y-55700492D01*
X54632454Y-55969616D01*
X54988494Y-56039887D01*
X55156364Y-56041818D01*
X55849091Y-56041818D01*
X55849091Y-52709696D01*
X54463636Y-52709696D01*
X54388255Y-53142177D01*
X54083953Y-53243785D01*
X53944091Y-53229241D01*
X53477274Y-52966292D01*
X53350758Y-52635909D01*
X53381730Y-52247837D01*
X53711239Y-52121022D01*
X53870304Y-52116363D01*
X54316807Y-52204860D01*
X54459257Y-52562941D01*
X54463636Y-52709696D01*
X55849091Y-52709696D01*
X55849091Y-50961818D01*
X54709578Y-50961818D01*
X53642837Y-51046235D01*
G37*
X53642837Y-51046235D02*
X52764684Y-51276401D01*
X52193038Y-51617685D01*
X52105054Y-51726718D01*
X51934390Y-52382505D01*
X52127254Y-53069532D01*
X52290102Y-53293121D01*
X52491165Y-53577610D01*
X52479224Y-53871679D01*
X52227204Y-54325884D01*
X52059193Y-54577178D01*
X51615248Y-55312785D01*
X51496480Y-55768546D01*
X51704158Y-55993792D01*
X52096818Y-56041194D01*
X52584610Y-55936356D01*
X52972164Y-55551108D01*
X53193636Y-55178010D01*
X53572771Y-54620334D01*
X53957725Y-54277117D01*
X54059545Y-54238066D01*
X54321578Y-54269813D01*
X54439795Y-54568632D01*
X54463636Y-55101250D01*
X54489728Y-55700492D01*
X54632454Y-55969616D01*
X54988494Y-56039887D01*
X55156364Y-56041818D01*
X55849091Y-56041818D01*
X55849091Y-52709696D01*
X54463636Y-52709696D01*
X54388255Y-53142177D01*
X54083953Y-53243785D01*
X53944091Y-53229241D01*
X53477274Y-52966292D01*
X53350758Y-52635909D01*
X53381730Y-52247837D01*
X53711239Y-52121022D01*
X53870304Y-52116363D01*
X54316807Y-52204860D01*
X54459257Y-52562941D01*
X54463636Y-52709696D01*
X55849091Y-52709696D01*
X55849091Y-50961818D01*
X54709578Y-50961818D01*
X53642837Y-51046235D01*
G36*
X60484909Y-50998292D02*
G01*
X60287451Y-51195944D01*
X60237457Y-51687122D01*
X60236364Y-51885454D01*
X60236364Y-52809091D01*
X58389091Y-52809091D01*
X58389091Y-51870117D01*
X58364956Y-51275193D01*
X58233747Y-51021424D01*
X57907262Y-50988531D01*
X57754091Y-51004208D01*
X57119091Y-51077272D01*
X57053552Y-53559545D01*
X56988012Y-56041818D01*
X57688552Y-56041818D01*
X58119278Y-56012352D01*
X58323280Y-55840367D01*
X58385084Y-55400487D01*
X58389091Y-55002727D01*
X58389091Y-53963636D01*
X60236364Y-53963636D01*
X60236364Y-55002727D01*
X60256445Y-55641680D01*
X60372390Y-55944309D01*
X60667753Y-56035944D01*
X60929091Y-56041818D01*
X61621818Y-56041818D01*
X61621818Y-50961818D01*
X60929091Y-50961818D01*
X60484909Y-50998292D01*
G37*
X60484909Y-50998292D02*
X60287451Y-51195944D01*
X60237457Y-51687122D01*
X60236364Y-51885454D01*
X60236364Y-52809091D01*
X58389091Y-52809091D01*
X58389091Y-51870117D01*
X58364956Y-51275193D01*
X58233747Y-51021424D01*
X57907262Y-50988531D01*
X57754091Y-51004208D01*
X57119091Y-51077272D01*
X57053552Y-53559545D01*
X56988012Y-56041818D01*
X57688552Y-56041818D01*
X58119278Y-56012352D01*
X58323280Y-55840367D01*
X58385084Y-55400487D01*
X58389091Y-55002727D01*
X58389091Y-53963636D01*
X60236364Y-53963636D01*
X60236364Y-55002727D01*
X60256445Y-55641680D01*
X60372390Y-55944309D01*
X60667753Y-56035944D01*
X60929091Y-56041818D01*
X61621818Y-56041818D01*
X61621818Y-50961818D01*
X60929091Y-50961818D01*
X60484909Y-50998292D01*
G36*
X62834091Y-46259720D02*
G01*
X62189823Y-46840303D01*
X61826172Y-47270803D01*
X61663573Y-47690181D01*
X61622463Y-48237399D01*
X61621818Y-48376992D01*
X61621818Y-49445133D01*
X62839933Y-48242149D01*
X64058048Y-47039166D01*
X64801539Y-47782657D01*
X65545029Y-48526148D01*
X64267906Y-49816738D01*
X62990782Y-51107328D01*
X63056755Y-53590599D01*
X63122727Y-56073871D01*
X63757727Y-55410209D01*
X64100825Y-55000821D01*
X64292543Y-54576390D01*
X64375590Y-53984816D01*
X64392727Y-53148614D01*
X64392727Y-51550680D01*
X65893628Y-50038189D01*
X67394530Y-48525698D01*
X64046364Y-45210588D01*
X62834091Y-46259720D01*
G37*
X62834091Y-46259720D02*
X62189823Y-46840303D01*
X61826172Y-47270803D01*
X61663573Y-47690181D01*
X61622463Y-48237399D01*
X61621818Y-48376992D01*
X61621818Y-49445133D01*
X62839933Y-48242149D01*
X64058048Y-47039166D01*
X64801539Y-47782657D01*
X65545029Y-48526148D01*
X64267906Y-49816738D01*
X62990782Y-51107328D01*
X63056755Y-53590599D01*
X63122727Y-56073871D01*
X63757727Y-55410209D01*
X64100825Y-55000821D01*
X64292543Y-54576390D01*
X64375590Y-53984816D01*
X64392727Y-53148614D01*
X64392727Y-51550680D01*
X65893628Y-50038189D01*
X67394530Y-48525698D01*
X64046364Y-45210588D01*
X62834091Y-46259720D01*
G36*
X83492326Y-27217061D02*
G01*
X81873127Y-27510566D01*
X80375819Y-27783059D01*
X79069367Y-28021903D01*
X78022741Y-28214460D01*
X77304906Y-28348094D01*
X77009545Y-28404934D01*
X76593885Y-28546903D01*
X76413497Y-28843737D01*
X76374545Y-29440165D01*
X76407793Y-30011956D01*
X76490653Y-30325211D01*
X76521540Y-30345454D01*
X76778355Y-30305176D01*
X77429840Y-30191475D01*
X78416572Y-30015055D01*
X79679129Y-29786618D01*
X81158090Y-29516866D01*
X82794032Y-29216503D01*
X82986995Y-29180952D01*
X89305455Y-28016451D01*
X95623915Y-29180952D01*
X97281064Y-29484688D01*
X98794570Y-29758889D01*
X100103590Y-29992789D01*
X101147280Y-30175622D01*
X101864797Y-30296622D01*
X102195300Y-30345022D01*
X102204824Y-30345454D01*
X102380197Y-30142454D01*
X102465563Y-29642268D01*
X102467273Y-29550900D01*
X102410457Y-28978993D01*
X102271728Y-28638719D01*
X102252347Y-28623514D01*
X101977171Y-28548696D01*
X101307694Y-28403827D01*
X100304101Y-28200815D01*
X99026578Y-27951566D01*
X97535311Y-27667990D01*
X95890485Y-27361994D01*
X95688764Y-27324906D01*
X89340106Y-26159130D01*
X83492326Y-27217061D01*
G37*
X83492326Y-27217061D02*
X81873127Y-27510566D01*
X80375819Y-27783059D01*
X79069367Y-28021903D01*
X78022741Y-28214460D01*
X77304906Y-28348094D01*
X77009545Y-28404934D01*
X76593885Y-28546903D01*
X76413497Y-28843737D01*
X76374545Y-29440165D01*
X76407793Y-30011956D01*
X76490653Y-30325211D01*
X76521540Y-30345454D01*
X76778355Y-30305176D01*
X77429840Y-30191475D01*
X78416572Y-30015055D01*
X79679129Y-29786618D01*
X81158090Y-29516866D01*
X82794032Y-29216503D01*
X82986995Y-29180952D01*
X89305455Y-28016451D01*
X95623915Y-29180952D01*
X97281064Y-29484688D01*
X98794570Y-29758889D01*
X100103590Y-29992789D01*
X101147280Y-30175622D01*
X101864797Y-30296622D01*
X102195300Y-30345022D01*
X102204824Y-30345454D01*
X102380197Y-30142454D01*
X102465563Y-29642268D01*
X102467273Y-29550900D01*
X102410457Y-28978993D01*
X102271728Y-28638719D01*
X102252347Y-28623514D01*
X101977171Y-28548696D01*
X101307694Y-28403827D01*
X100304101Y-28200815D01*
X99026578Y-27951566D01*
X97535311Y-27667990D01*
X95890485Y-27361994D01*
X95688764Y-27324906D01*
X89340106Y-26159130D01*
X83492326Y-27217061D01*
G36*
X80604571Y-31996136D02*
G01*
X80287452Y-32170983D01*
X80022530Y-32594195D01*
X79794599Y-33116363D01*
X79500109Y-33756220D01*
X79252343Y-34175473D01*
X79145455Y-34270909D01*
X78970635Y-34076068D01*
X78700792Y-33574721D01*
X78496310Y-33116363D01*
X78193394Y-32446186D01*
X77926195Y-32102406D01*
X77573216Y-31977186D01*
X77195524Y-31961818D01*
X76374545Y-31961818D01*
X76374545Y-37041818D01*
X76941702Y-37041818D01*
X77235265Y-37015048D01*
X77410692Y-36868948D01*
X77505415Y-36504829D01*
X77556868Y-35824002D01*
X77576702Y-35367727D01*
X77644545Y-33693636D01*
X78192526Y-34905909D01*
X78632272Y-35712638D01*
X79023867Y-36090872D01*
X79145455Y-36118181D01*
X79516537Y-35893411D01*
X79941431Y-35232945D01*
X80098383Y-34905909D01*
X80646364Y-33693636D01*
X80714207Y-35367727D01*
X80758262Y-36231043D01*
X80828035Y-36731377D01*
X80960959Y-36967418D01*
X81194467Y-37037853D01*
X81349207Y-37041818D01*
X81916364Y-37041818D01*
X81916364Y-31961818D01*
X81095385Y-31961818D01*
X80604571Y-31996136D01*
G37*
X80604571Y-31996136D02*
X80287452Y-32170983D01*
X80022530Y-32594195D01*
X79794599Y-33116363D01*
X79500109Y-33756220D01*
X79252343Y-34175473D01*
X79145455Y-34270909D01*
X78970635Y-34076068D01*
X78700792Y-33574721D01*
X78496310Y-33116363D01*
X78193394Y-32446186D01*
X77926195Y-32102406D01*
X77573216Y-31977186D01*
X77195524Y-31961818D01*
X76374545Y-31961818D01*
X76374545Y-37041818D01*
X76941702Y-37041818D01*
X77235265Y-37015048D01*
X77410692Y-36868948D01*
X77505415Y-36504829D01*
X77556868Y-35824002D01*
X77576702Y-35367727D01*
X77644545Y-33693636D01*
X78192526Y-34905909D01*
X78632272Y-35712638D01*
X79023867Y-36090872D01*
X79145455Y-36118181D01*
X79516537Y-35893411D01*
X79941431Y-35232945D01*
X80098383Y-34905909D01*
X80646364Y-33693636D01*
X80714207Y-35367727D01*
X80758262Y-36231043D01*
X80828035Y-36731377D01*
X80960959Y-36967418D01*
X81194467Y-37037853D01*
X81349207Y-37041818D01*
X81916364Y-37041818D01*
X81916364Y-31961818D01*
X81095385Y-31961818D01*
X80604571Y-31996136D01*
G36*
X83987335Y-31986845D02*
G01*
X83266254Y-32096570D01*
X82954490Y-32342964D01*
X83027933Y-32777993D01*
X83462471Y-33453626D01*
X84084818Y-34240129D01*
X84662589Y-34961922D01*
X85107553Y-35547470D01*
X85352701Y-35907237D01*
X85380000Y-35970704D01*
X85171127Y-36051485D01*
X84632342Y-36105052D01*
X84110000Y-36118181D01*
X83376069Y-36138226D01*
X82993733Y-36224894D01*
X82853545Y-36417981D01*
X82840000Y-36580000D01*
X82873125Y-36794643D01*
X83029609Y-36930110D01*
X83395119Y-37004437D01*
X84055321Y-37035658D01*
X85033636Y-37041818D01*
X86059002Y-37033022D01*
X86706761Y-36996120D01*
X87060960Y-36915343D01*
X87205644Y-36774919D01*
X87227273Y-36630205D01*
X87086267Y-36273596D01*
X86710206Y-35678026D01*
X86169529Y-34950873D01*
X85939785Y-34667477D01*
X84652297Y-33116363D01*
X85939785Y-33116363D01*
X86673374Y-33101850D01*
X87057595Y-33024744D01*
X87204734Y-32834701D01*
X87227273Y-32539091D01*
X87210812Y-32266199D01*
X87102286Y-32096586D01*
X86812980Y-32005696D01*
X86254179Y-31968969D01*
X85337167Y-31961850D01*
X85141844Y-31961818D01*
X83987335Y-31986845D01*
G37*
X83987335Y-31986845D02*
X83266254Y-32096570D01*
X82954490Y-32342964D01*
X83027933Y-32777993D01*
X83462471Y-33453626D01*
X84084818Y-34240129D01*
X84662589Y-34961922D01*
X85107553Y-35547470D01*
X85352701Y-35907237D01*
X85380000Y-35970704D01*
X85171127Y-36051485D01*
X84632342Y-36105052D01*
X84110000Y-36118181D01*
X83376069Y-36138226D01*
X82993733Y-36224894D01*
X82853545Y-36417981D01*
X82840000Y-36580000D01*
X82873125Y-36794643D01*
X83029609Y-36930110D01*
X83395119Y-37004437D01*
X84055321Y-37035658D01*
X85033636Y-37041818D01*
X86059002Y-37033022D01*
X86706761Y-36996120D01*
X87060960Y-36915343D01*
X87205644Y-36774919D01*
X87227273Y-36630205D01*
X87086267Y-36273596D01*
X86710206Y-35678026D01*
X86169529Y-34950873D01*
X85939785Y-34667477D01*
X84652297Y-33116363D01*
X85939785Y-33116363D01*
X86673374Y-33101850D01*
X87057595Y-33024744D01*
X87204734Y-32834701D01*
X87227273Y-32539091D01*
X87210812Y-32266199D01*
X87102286Y-32096586D01*
X86812980Y-32005696D01*
X86254179Y-31968969D01*
X85337167Y-31961850D01*
X85141844Y-31961818D01*
X83987335Y-31986845D01*
G36*
X91556818Y-31963106D02*
G01*
X90107982Y-32103587D01*
X89019507Y-32517315D01*
X88298508Y-33199123D01*
X87952100Y-34143840D01*
X87920000Y-34604872D01*
X88100493Y-35616709D01*
X88645426Y-36355900D01*
X89559985Y-36826202D01*
X90849353Y-37031370D01*
X91283214Y-37041818D01*
X92538182Y-37041818D01*
X92538182Y-34621672D01*
X91152727Y-34621672D01*
X91152727Y-36126980D01*
X90517727Y-35975287D01*
X89941673Y-35783473D01*
X89594091Y-35596250D01*
X89367634Y-35169201D01*
X89318477Y-34527147D01*
X89439316Y-33878403D01*
X89668312Y-33479220D01*
X90183585Y-33189040D01*
X90591948Y-33116363D01*
X90893181Y-33144690D01*
X91061164Y-33299044D01*
X91134663Y-33683485D01*
X91152443Y-34402073D01*
X91152727Y-34621672D01*
X92538182Y-34621672D01*
X92538182Y-31961818D01*
X91556818Y-31963106D01*
G37*
X91556818Y-31963106D02*
X90107982Y-32103587D01*
X89019507Y-32517315D01*
X88298508Y-33199123D01*
X87952100Y-34143840D01*
X87920000Y-34604872D01*
X88100493Y-35616709D01*
X88645426Y-36355900D01*
X89559985Y-36826202D01*
X90849353Y-37031370D01*
X91283214Y-37041818D01*
X92538182Y-37041818D01*
X92538182Y-34621672D01*
X91152727Y-34621672D01*
X91152727Y-36126980D01*
X90517727Y-35975287D01*
X89941673Y-35783473D01*
X89594091Y-35596250D01*
X89367634Y-35169201D01*
X89318477Y-34527147D01*
X89439316Y-33878403D01*
X89668312Y-33479220D01*
X90183585Y-33189040D01*
X90591948Y-33116363D01*
X90893181Y-33144690D01*
X91061164Y-33299044D01*
X91134663Y-33683485D01*
X91152443Y-34402073D01*
X91152727Y-34621672D01*
X92538182Y-34621672D01*
X92538182Y-31961818D01*
X91556818Y-31963106D01*
G36*
X95642837Y-32046235D02*
G01*
X94764684Y-32276401D01*
X94193038Y-32617685D01*
X94105054Y-32726718D01*
X93934390Y-33382505D01*
X94127254Y-34069532D01*
X94290102Y-34293121D01*
X94491165Y-34577610D01*
X94479224Y-34871679D01*
X94227204Y-35325884D01*
X94059193Y-35577178D01*
X93615248Y-36312785D01*
X93496480Y-36768546D01*
X93704158Y-36993792D01*
X94096818Y-37041194D01*
X94584610Y-36936356D01*
X94972164Y-36551108D01*
X95193636Y-36178010D01*
X95572771Y-35620334D01*
X95957725Y-35277117D01*
X96059545Y-35238066D01*
X96321578Y-35269813D01*
X96439795Y-35568632D01*
X96463636Y-36101250D01*
X96489728Y-36700492D01*
X96632454Y-36969616D01*
X96988494Y-37039887D01*
X97156364Y-37041818D01*
X97849091Y-37041818D01*
X97849091Y-33709696D01*
X96463636Y-33709696D01*
X96388255Y-34142177D01*
X96083953Y-34243785D01*
X95944091Y-34229241D01*
X95477274Y-33966292D01*
X95350758Y-33635909D01*
X95381730Y-33247837D01*
X95711239Y-33121022D01*
X95870304Y-33116363D01*
X96316807Y-33204860D01*
X96459257Y-33562941D01*
X96463636Y-33709696D01*
X97849091Y-33709696D01*
X97849091Y-31961818D01*
X96709578Y-31961818D01*
X95642837Y-32046235D01*
G37*
X95642837Y-32046235D02*
X94764684Y-32276401D01*
X94193038Y-32617685D01*
X94105054Y-32726718D01*
X93934390Y-33382505D01*
X94127254Y-34069532D01*
X94290102Y-34293121D01*
X94491165Y-34577610D01*
X94479224Y-34871679D01*
X94227204Y-35325884D01*
X94059193Y-35577178D01*
X93615248Y-36312785D01*
X93496480Y-36768546D01*
X93704158Y-36993792D01*
X94096818Y-37041194D01*
X94584610Y-36936356D01*
X94972164Y-36551108D01*
X95193636Y-36178010D01*
X95572771Y-35620334D01*
X95957725Y-35277117D01*
X96059545Y-35238066D01*
X96321578Y-35269813D01*
X96439795Y-35568632D01*
X96463636Y-36101250D01*
X96489728Y-36700492D01*
X96632454Y-36969616D01*
X96988494Y-37039887D01*
X97156364Y-37041818D01*
X97849091Y-37041818D01*
X97849091Y-33709696D01*
X96463636Y-33709696D01*
X96388255Y-34142177D01*
X96083953Y-34243785D01*
X95944091Y-34229241D01*
X95477274Y-33966292D01*
X95350758Y-33635909D01*
X95381730Y-33247837D01*
X95711239Y-33121022D01*
X95870304Y-33116363D01*
X96316807Y-33204860D01*
X96459257Y-33562941D01*
X96463636Y-33709696D01*
X97849091Y-33709696D01*
X97849091Y-31961818D01*
X96709578Y-31961818D01*
X95642837Y-32046235D01*
G36*
X102484909Y-31998292D02*
G01*
X102287451Y-32195944D01*
X102237457Y-32687122D01*
X102236364Y-32885454D01*
X102236364Y-33809091D01*
X100389091Y-33809091D01*
X100389091Y-32870117D01*
X100364956Y-32275193D01*
X100233747Y-32021424D01*
X99907262Y-31988531D01*
X99754091Y-32004208D01*
X99119091Y-32077272D01*
X99053552Y-34559545D01*
X98988012Y-37041818D01*
X99688552Y-37041818D01*
X100119278Y-37012352D01*
X100323280Y-36840367D01*
X100385084Y-36400487D01*
X100389091Y-36002727D01*
X100389091Y-34963636D01*
X102236364Y-34963636D01*
X102236364Y-36002727D01*
X102256445Y-36641680D01*
X102372390Y-36944309D01*
X102667753Y-37035944D01*
X102929091Y-37041818D01*
X103621818Y-37041818D01*
X103621818Y-31961818D01*
X102929091Y-31961818D01*
X102484909Y-31998292D01*
G37*
X102484909Y-31998292D02*
X102287451Y-32195944D01*
X102237457Y-32687122D01*
X102236364Y-32885454D01*
X102236364Y-33809091D01*
X100389091Y-33809091D01*
X100389091Y-32870117D01*
X100364956Y-32275193D01*
X100233747Y-32021424D01*
X99907262Y-31988531D01*
X99754091Y-32004208D01*
X99119091Y-32077272D01*
X99053552Y-34559545D01*
X98988012Y-37041818D01*
X99688552Y-37041818D01*
X100119278Y-37012352D01*
X100323280Y-36840367D01*
X100385084Y-36400487D01*
X100389091Y-36002727D01*
X100389091Y-34963636D01*
X102236364Y-34963636D01*
X102236364Y-36002727D01*
X102256445Y-36641680D01*
X102372390Y-36944309D01*
X102667753Y-37035944D01*
X102929091Y-37041818D01*
X103621818Y-37041818D01*
X103621818Y-31961818D01*
X102929091Y-31961818D01*
X102484909Y-31998292D01*
G36*
X104834091Y-27259720D02*
G01*
X104189823Y-27840303D01*
X103826172Y-28270803D01*
X103663573Y-28690181D01*
X103622463Y-29237399D01*
X103621818Y-29376992D01*
X103621818Y-30445133D01*
X104839933Y-29242149D01*
X106058048Y-28039166D01*
X106801539Y-28782657D01*
X107545029Y-29526148D01*
X106267906Y-30816738D01*
X104990782Y-32107328D01*
X105056755Y-34590599D01*
X105122727Y-37073871D01*
X105757727Y-36410209D01*
X106100825Y-36000821D01*
X106292543Y-35576390D01*
X106375590Y-34984816D01*
X106392727Y-34148614D01*
X106392727Y-32550680D01*
X107893628Y-31038189D01*
X109394530Y-29525698D01*
X106046364Y-26210588D01*
X104834091Y-27259720D01*
G37*
X104834091Y-27259720D02*
X104189823Y-27840303D01*
X103826172Y-28270803D01*
X103663573Y-28690181D01*
X103622463Y-29237399D01*
X103621818Y-29376992D01*
X103621818Y-30445133D01*
X104839933Y-29242149D01*
X106058048Y-28039166D01*
X106801539Y-28782657D01*
X107545029Y-29526148D01*
X106267906Y-30816738D01*
X104990782Y-32107328D01*
X105056755Y-34590599D01*
X105122727Y-37073871D01*
X105757727Y-36410209D01*
X106100825Y-36000821D01*
X106292543Y-35576390D01*
X106375590Y-34984816D01*
X106392727Y-34148614D01*
X106392727Y-32550680D01*
X107893628Y-31038189D01*
X109394530Y-29525698D01*
X106046364Y-26210588D01*
X104834091Y-27259720D01*
G36*
X62834091Y-27259720D02*
G01*
X62189823Y-27840303D01*
X61826172Y-28270803D01*
X61663573Y-28690181D01*
X61622463Y-29237399D01*
X61621818Y-29376992D01*
X61621818Y-30445133D01*
X62839933Y-29242149D01*
X64058048Y-28039166D01*
X64801539Y-28782657D01*
X65545029Y-29526148D01*
X64267906Y-30816738D01*
X62990782Y-32107328D01*
X63056755Y-34590599D01*
X63122727Y-37073871D01*
X63757727Y-36410209D01*
X64100825Y-36000821D01*
X64292543Y-35576390D01*
X64375590Y-34984816D01*
X64392727Y-34148614D01*
X64392727Y-32550680D01*
X65893628Y-31038189D01*
X67394530Y-29525698D01*
X64046364Y-26210588D01*
X62834091Y-27259720D01*
G37*
X62834091Y-27259720D02*
X62189823Y-27840303D01*
X61826172Y-28270803D01*
X61663573Y-28690181D01*
X61622463Y-29237399D01*
X61621818Y-29376992D01*
X61621818Y-30445133D01*
X62839933Y-29242149D01*
X64058048Y-28039166D01*
X64801539Y-28782657D01*
X65545029Y-29526148D01*
X64267906Y-30816738D01*
X62990782Y-32107328D01*
X63056755Y-34590599D01*
X63122727Y-37073871D01*
X63757727Y-36410209D01*
X64100825Y-36000821D01*
X64292543Y-35576390D01*
X64375590Y-34984816D01*
X64392727Y-34148614D01*
X64392727Y-32550680D01*
X65893628Y-31038189D01*
X67394530Y-29525698D01*
X64046364Y-26210588D01*
X62834091Y-27259720D01*
G36*
X60484909Y-31998292D02*
G01*
X60287451Y-32195944D01*
X60237457Y-32687122D01*
X60236364Y-32885454D01*
X60236364Y-33809091D01*
X58389091Y-33809091D01*
X58389091Y-32870117D01*
X58364956Y-32275193D01*
X58233747Y-32021424D01*
X57907262Y-31988531D01*
X57754091Y-32004208D01*
X57119091Y-32077272D01*
X57053552Y-34559545D01*
X56988012Y-37041818D01*
X57688552Y-37041818D01*
X58119278Y-37012352D01*
X58323280Y-36840367D01*
X58385084Y-36400487D01*
X58389091Y-36002727D01*
X58389091Y-34963636D01*
X60236364Y-34963636D01*
X60236364Y-36002727D01*
X60256445Y-36641680D01*
X60372390Y-36944309D01*
X60667753Y-37035944D01*
X60929091Y-37041818D01*
X61621818Y-37041818D01*
X61621818Y-31961818D01*
X60929091Y-31961818D01*
X60484909Y-31998292D01*
G37*
X60484909Y-31998292D02*
X60287451Y-32195944D01*
X60237457Y-32687122D01*
X60236364Y-32885454D01*
X60236364Y-33809091D01*
X58389091Y-33809091D01*
X58389091Y-32870117D01*
X58364956Y-32275193D01*
X58233747Y-32021424D01*
X57907262Y-31988531D01*
X57754091Y-32004208D01*
X57119091Y-32077272D01*
X57053552Y-34559545D01*
X56988012Y-37041818D01*
X57688552Y-37041818D01*
X58119278Y-37012352D01*
X58323280Y-36840367D01*
X58385084Y-36400487D01*
X58389091Y-36002727D01*
X58389091Y-34963636D01*
X60236364Y-34963636D01*
X60236364Y-36002727D01*
X60256445Y-36641680D01*
X60372390Y-36944309D01*
X60667753Y-37035944D01*
X60929091Y-37041818D01*
X61621818Y-37041818D01*
X61621818Y-31961818D01*
X60929091Y-31961818D01*
X60484909Y-31998292D01*
G36*
X53642837Y-32046235D02*
G01*
X52764684Y-32276401D01*
X52193038Y-32617685D01*
X52105054Y-32726718D01*
X51934390Y-33382505D01*
X52127254Y-34069532D01*
X52290102Y-34293121D01*
X52491165Y-34577610D01*
X52479224Y-34871679D01*
X52227204Y-35325884D01*
X52059193Y-35577178D01*
X51615248Y-36312785D01*
X51496480Y-36768546D01*
X51704158Y-36993792D01*
X52096818Y-37041194D01*
X52584610Y-36936356D01*
X52972164Y-36551108D01*
X53193636Y-36178010D01*
X53572771Y-35620334D01*
X53957725Y-35277117D01*
X54059545Y-35238066D01*
X54321578Y-35269813D01*
X54439795Y-35568632D01*
X54463636Y-36101250D01*
X54489728Y-36700492D01*
X54632454Y-36969616D01*
X54988494Y-37039887D01*
X55156364Y-37041818D01*
X55849091Y-37041818D01*
X55849091Y-33709696D01*
X54463636Y-33709696D01*
X54388255Y-34142177D01*
X54083953Y-34243785D01*
X53944091Y-34229241D01*
X53477274Y-33966292D01*
X53350758Y-33635909D01*
X53381730Y-33247837D01*
X53711239Y-33121022D01*
X53870304Y-33116363D01*
X54316807Y-33204860D01*
X54459257Y-33562941D01*
X54463636Y-33709696D01*
X55849091Y-33709696D01*
X55849091Y-31961818D01*
X54709578Y-31961818D01*
X53642837Y-32046235D01*
G37*
X53642837Y-32046235D02*
X52764684Y-32276401D01*
X52193038Y-32617685D01*
X52105054Y-32726718D01*
X51934390Y-33382505D01*
X52127254Y-34069532D01*
X52290102Y-34293121D01*
X52491165Y-34577610D01*
X52479224Y-34871679D01*
X52227204Y-35325884D01*
X52059193Y-35577178D01*
X51615248Y-36312785D01*
X51496480Y-36768546D01*
X51704158Y-36993792D01*
X52096818Y-37041194D01*
X52584610Y-36936356D01*
X52972164Y-36551108D01*
X53193636Y-36178010D01*
X53572771Y-35620334D01*
X53957725Y-35277117D01*
X54059545Y-35238066D01*
X54321578Y-35269813D01*
X54439795Y-35568632D01*
X54463636Y-36101250D01*
X54489728Y-36700492D01*
X54632454Y-36969616D01*
X54988494Y-37039887D01*
X55156364Y-37041818D01*
X55849091Y-37041818D01*
X55849091Y-33709696D01*
X54463636Y-33709696D01*
X54388255Y-34142177D01*
X54083953Y-34243785D01*
X53944091Y-34229241D01*
X53477274Y-33966292D01*
X53350758Y-33635909D01*
X53381730Y-33247837D01*
X53711239Y-33121022D01*
X53870304Y-33116363D01*
X54316807Y-33204860D01*
X54459257Y-33562941D01*
X54463636Y-33709696D01*
X55849091Y-33709696D01*
X55849091Y-31961818D01*
X54709578Y-31961818D01*
X53642837Y-32046235D01*
G36*
X49556818Y-31963106D02*
G01*
X48107982Y-32103587D01*
X47019507Y-32517315D01*
X46298508Y-33199123D01*
X45952100Y-34143840D01*
X45920000Y-34604872D01*
X46100493Y-35616709D01*
X46645426Y-36355900D01*
X47559985Y-36826202D01*
X48849353Y-37031370D01*
X49283214Y-37041818D01*
X50538182Y-37041818D01*
X50538182Y-34621672D01*
X49152727Y-34621672D01*
X49152727Y-36126980D01*
X48517727Y-35975287D01*
X47941673Y-35783473D01*
X47594091Y-35596250D01*
X47367634Y-35169201D01*
X47318477Y-34527147D01*
X47439316Y-33878403D01*
X47668312Y-33479220D01*
X48183585Y-33189040D01*
X48591948Y-33116363D01*
X48893181Y-33144690D01*
X49061164Y-33299044D01*
X49134663Y-33683485D01*
X49152443Y-34402073D01*
X49152727Y-34621672D01*
X50538182Y-34621672D01*
X50538182Y-31961818D01*
X49556818Y-31963106D01*
G37*
X49556818Y-31963106D02*
X48107982Y-32103587D01*
X47019507Y-32517315D01*
X46298508Y-33199123D01*
X45952100Y-34143840D01*
X45920000Y-34604872D01*
X46100493Y-35616709D01*
X46645426Y-36355900D01*
X47559985Y-36826202D01*
X48849353Y-37031370D01*
X49283214Y-37041818D01*
X50538182Y-37041818D01*
X50538182Y-34621672D01*
X49152727Y-34621672D01*
X49152727Y-36126980D01*
X48517727Y-35975287D01*
X47941673Y-35783473D01*
X47594091Y-35596250D01*
X47367634Y-35169201D01*
X47318477Y-34527147D01*
X47439316Y-33878403D01*
X47668312Y-33479220D01*
X48183585Y-33189040D01*
X48591948Y-33116363D01*
X48893181Y-33144690D01*
X49061164Y-33299044D01*
X49134663Y-33683485D01*
X49152443Y-34402073D01*
X49152727Y-34621672D01*
X50538182Y-34621672D01*
X50538182Y-31961818D01*
X49556818Y-31963106D01*
G36*
X41987335Y-31986845D02*
G01*
X41266254Y-32096570D01*
X40954490Y-32342964D01*
X41027933Y-32777993D01*
X41462471Y-33453626D01*
X42084818Y-34240129D01*
X42662589Y-34961922D01*
X43107553Y-35547470D01*
X43352701Y-35907237D01*
X43380000Y-35970704D01*
X43171127Y-36051485D01*
X42632342Y-36105052D01*
X42110000Y-36118181D01*
X41376069Y-36138226D01*
X40993733Y-36224894D01*
X40853545Y-36417981D01*
X40840000Y-36580000D01*
X40873125Y-36794643D01*
X41029609Y-36930110D01*
X41395119Y-37004437D01*
X42055321Y-37035658D01*
X43033636Y-37041818D01*
X44059002Y-37033022D01*
X44706761Y-36996120D01*
X45060960Y-36915343D01*
X45205644Y-36774919D01*
X45227273Y-36630205D01*
X45086267Y-36273596D01*
X44710206Y-35678026D01*
X44169529Y-34950873D01*
X43939785Y-34667477D01*
X42652297Y-33116363D01*
X43939785Y-33116363D01*
X44673374Y-33101850D01*
X45057595Y-33024744D01*
X45204734Y-32834701D01*
X45227273Y-32539091D01*
X45210812Y-32266199D01*
X45102286Y-32096586D01*
X44812980Y-32005696D01*
X44254179Y-31968969D01*
X43337167Y-31961850D01*
X43141844Y-31961818D01*
X41987335Y-31986845D01*
G37*
X41987335Y-31986845D02*
X41266254Y-32096570D01*
X40954490Y-32342964D01*
X41027933Y-32777993D01*
X41462471Y-33453626D01*
X42084818Y-34240129D01*
X42662589Y-34961922D01*
X43107553Y-35547470D01*
X43352701Y-35907237D01*
X43380000Y-35970704D01*
X43171127Y-36051485D01*
X42632342Y-36105052D01*
X42110000Y-36118181D01*
X41376069Y-36138226D01*
X40993733Y-36224894D01*
X40853545Y-36417981D01*
X40840000Y-36580000D01*
X40873125Y-36794643D01*
X41029609Y-36930110D01*
X41395119Y-37004437D01*
X42055321Y-37035658D01*
X43033636Y-37041818D01*
X44059002Y-37033022D01*
X44706761Y-36996120D01*
X45060960Y-36915343D01*
X45205644Y-36774919D01*
X45227273Y-36630205D01*
X45086267Y-36273596D01*
X44710206Y-35678026D01*
X44169529Y-34950873D01*
X43939785Y-34667477D01*
X42652297Y-33116363D01*
X43939785Y-33116363D01*
X44673374Y-33101850D01*
X45057595Y-33024744D01*
X45204734Y-32834701D01*
X45227273Y-32539091D01*
X45210812Y-32266199D01*
X45102286Y-32096586D01*
X44812980Y-32005696D01*
X44254179Y-31968969D01*
X43337167Y-31961850D01*
X43141844Y-31961818D01*
X41987335Y-31986845D01*
G36*
X38604571Y-31996136D02*
G01*
X38287452Y-32170983D01*
X38022530Y-32594195D01*
X37794599Y-33116363D01*
X37500109Y-33756220D01*
X37252343Y-34175473D01*
X37145455Y-34270909D01*
X36970635Y-34076068D01*
X36700792Y-33574721D01*
X36496310Y-33116363D01*
X36193394Y-32446186D01*
X35926195Y-32102406D01*
X35573216Y-31977186D01*
X35195524Y-31961818D01*
X34374545Y-31961818D01*
X34374545Y-37041818D01*
X34941702Y-37041818D01*
X35235265Y-37015048D01*
X35410692Y-36868948D01*
X35505415Y-36504829D01*
X35556868Y-35824002D01*
X35576702Y-35367727D01*
X35644545Y-33693636D01*
X36192526Y-34905909D01*
X36632272Y-35712638D01*
X37023867Y-36090872D01*
X37145455Y-36118181D01*
X37516537Y-35893411D01*
X37941431Y-35232945D01*
X38098383Y-34905909D01*
X38646364Y-33693636D01*
X38714207Y-35367727D01*
X38758262Y-36231043D01*
X38828035Y-36731377D01*
X38960959Y-36967418D01*
X39194467Y-37037853D01*
X39349207Y-37041818D01*
X39916364Y-37041818D01*
X39916364Y-31961818D01*
X39095385Y-31961818D01*
X38604571Y-31996136D01*
G37*
X38604571Y-31996136D02*
X38287452Y-32170983D01*
X38022530Y-32594195D01*
X37794599Y-33116363D01*
X37500109Y-33756220D01*
X37252343Y-34175473D01*
X37145455Y-34270909D01*
X36970635Y-34076068D01*
X36700792Y-33574721D01*
X36496310Y-33116363D01*
X36193394Y-32446186D01*
X35926195Y-32102406D01*
X35573216Y-31977186D01*
X35195524Y-31961818D01*
X34374545Y-31961818D01*
X34374545Y-37041818D01*
X34941702Y-37041818D01*
X35235265Y-37015048D01*
X35410692Y-36868948D01*
X35505415Y-36504829D01*
X35556868Y-35824002D01*
X35576702Y-35367727D01*
X35644545Y-33693636D01*
X36192526Y-34905909D01*
X36632272Y-35712638D01*
X37023867Y-36090872D01*
X37145455Y-36118181D01*
X37516537Y-35893411D01*
X37941431Y-35232945D01*
X38098383Y-34905909D01*
X38646364Y-33693636D01*
X38714207Y-35367727D01*
X38758262Y-36231043D01*
X38828035Y-36731377D01*
X38960959Y-36967418D01*
X39194467Y-37037853D01*
X39349207Y-37041818D01*
X39916364Y-37041818D01*
X39916364Y-31961818D01*
X39095385Y-31961818D01*
X38604571Y-31996136D01*
G36*
X41492326Y-27217061D02*
G01*
X39873127Y-27510566D01*
X38375819Y-27783059D01*
X37069367Y-28021903D01*
X36022741Y-28214460D01*
X35304906Y-28348094D01*
X35009545Y-28404934D01*
X34593885Y-28546903D01*
X34413497Y-28843737D01*
X34374545Y-29440165D01*
X34407793Y-30011956D01*
X34490653Y-30325211D01*
X34521540Y-30345454D01*
X34778355Y-30305176D01*
X35429840Y-30191475D01*
X36416572Y-30015055D01*
X37679129Y-29786618D01*
X39158090Y-29516866D01*
X40794032Y-29216503D01*
X40986995Y-29180952D01*
X47305455Y-28016451D01*
X53623915Y-29180952D01*
X55281064Y-29484688D01*
X56794570Y-29758889D01*
X58103590Y-29992789D01*
X59147280Y-30175622D01*
X59864797Y-30296622D01*
X60195300Y-30345022D01*
X60204824Y-30345454D01*
X60380197Y-30142454D01*
X60465563Y-29642268D01*
X60467273Y-29550900D01*
X60410457Y-28978993D01*
X60271728Y-28638719D01*
X60252347Y-28623514D01*
X59977171Y-28548696D01*
X59307694Y-28403827D01*
X58304101Y-28200815D01*
X57026578Y-27951566D01*
X55535311Y-27667990D01*
X53890485Y-27361994D01*
X53688764Y-27324906D01*
X47340106Y-26159130D01*
X41492326Y-27217061D01*
G37*
X41492326Y-27217061D02*
X39873127Y-27510566D01*
X38375819Y-27783059D01*
X37069367Y-28021903D01*
X36022741Y-28214460D01*
X35304906Y-28348094D01*
X35009545Y-28404934D01*
X34593885Y-28546903D01*
X34413497Y-28843737D01*
X34374545Y-29440165D01*
X34407793Y-30011956D01*
X34490653Y-30325211D01*
X34521540Y-30345454D01*
X34778355Y-30305176D01*
X35429840Y-30191475D01*
X36416572Y-30015055D01*
X37679129Y-29786618D01*
X39158090Y-29516866D01*
X40794032Y-29216503D01*
X40986995Y-29180952D01*
X47305455Y-28016451D01*
X53623915Y-29180952D01*
X55281064Y-29484688D01*
X56794570Y-29758889D01*
X58103590Y-29992789D01*
X59147280Y-30175622D01*
X59864797Y-30296622D01*
X60195300Y-30345022D01*
X60204824Y-30345454D01*
X60380197Y-30142454D01*
X60465563Y-29642268D01*
X60467273Y-29550900D01*
X60410457Y-28978993D01*
X60271728Y-28638719D01*
X60252347Y-28623514D01*
X59977171Y-28548696D01*
X59307694Y-28403827D01*
X58304101Y-28200815D01*
X57026578Y-27951566D01*
X55535311Y-27667990D01*
X53890485Y-27361994D01*
X53688764Y-27324906D01*
X47340106Y-26159130D01*
X41492326Y-27217061D01*
%TD*%
M02*
