%TF.GenerationSoftware,KiCad,Pcbnew,(5.1.9)-1*%
%TF.CreationDate,2021-05-03T13:14:33+02:00*%
%TF.ProjectId,IM350_AM550_5V_V2.0_Multi,494d3335-305f-4414-9d35-35305f35565f,rev?*%
%TF.SameCoordinates,Original*%
%TF.FileFunction,Legend,Top*%
%TF.FilePolarity,Positive*%
%FSLAX46Y46*%
G04 Gerber Fmt 4.6, Leading zero omitted, Abs format (unit mm)*
G04 Created by KiCad (PCBNEW (5.1.9)-1) date 2021-05-03 13:14:33*
%MOMM*%
%LPD*%
G01*
G04 APERTURE LIST*
%ADD10C,0.010000*%
%ADD11C,0.120000*%
G04 APERTURE END LIST*
D10*
%TO.C,G\u002A\u002A\u002A*%
G36*
X122945231Y-118839167D02*
G01*
X123158111Y-118602935D01*
X123315961Y-118469597D01*
X123469733Y-118409977D01*
X123670380Y-118394903D01*
X123721564Y-118394667D01*
X124113215Y-118394667D01*
X123672121Y-118841309D01*
X123231028Y-119287951D01*
X123503641Y-119560564D01*
X123776254Y-119833178D01*
X124249471Y-119364899D01*
X124722687Y-118896620D01*
X126543753Y-118945000D01*
X126300410Y-119177833D01*
X126150301Y-119303636D01*
X125994676Y-119373933D01*
X125777766Y-119404383D01*
X125471158Y-119410667D01*
X124885249Y-119410667D01*
X124330669Y-119960997D01*
X123776089Y-120511328D01*
X123168319Y-119897497D01*
X122560549Y-119283667D01*
X122945231Y-118839167D01*
G37*
X122945231Y-118839167D02*
X123158111Y-118602935D01*
X123315961Y-118469597D01*
X123469733Y-118409977D01*
X123670380Y-118394903D01*
X123721564Y-118394667D01*
X124113215Y-118394667D01*
X123672121Y-118841309D01*
X123231028Y-119287951D01*
X123503641Y-119560564D01*
X123776254Y-119833178D01*
X124249471Y-119364899D01*
X124722687Y-118896620D01*
X126543753Y-118945000D01*
X126300410Y-119177833D01*
X126150301Y-119303636D01*
X125994676Y-119373933D01*
X125777766Y-119404383D01*
X125471158Y-119410667D01*
X124885249Y-119410667D01*
X124330669Y-119960997D01*
X123776089Y-120511328D01*
X123168319Y-119897497D01*
X122560549Y-119283667D01*
X122945231Y-118839167D01*
G36*
X124682707Y-117977800D02*
G01*
X124755179Y-117905399D01*
X124935278Y-117887068D01*
X125008000Y-117886667D01*
X125346667Y-117886667D01*
X125346667Y-117209333D01*
X125002376Y-117209333D01*
X124784237Y-117200484D01*
X124691189Y-117152374D01*
X124679128Y-117032663D01*
X124684876Y-116976500D01*
X124711667Y-116743667D01*
X125621833Y-116719636D01*
X126532000Y-116695605D01*
X126532000Y-116952469D01*
X126521196Y-117110402D01*
X126458135Y-117185203D01*
X126296845Y-117207864D01*
X126151000Y-117209333D01*
X125770000Y-117209333D01*
X125770000Y-117886667D01*
X126151000Y-117886667D01*
X126385283Y-117894030D01*
X126496247Y-117936543D01*
X126529846Y-118044843D01*
X126532000Y-118140667D01*
X126532000Y-118394667D01*
X124669333Y-118394667D01*
X124669333Y-118140667D01*
X124682707Y-117977800D01*
G37*
X124682707Y-117977800D02*
X124755179Y-117905399D01*
X124935278Y-117887068D01*
X125008000Y-117886667D01*
X125346667Y-117886667D01*
X125346667Y-117209333D01*
X125002376Y-117209333D01*
X124784237Y-117200484D01*
X124691189Y-117152374D01*
X124679128Y-117032663D01*
X124684876Y-116976500D01*
X124711667Y-116743667D01*
X125621833Y-116719636D01*
X126532000Y-116695605D01*
X126532000Y-116952469D01*
X126521196Y-117110402D01*
X126458135Y-117185203D01*
X126296845Y-117207864D01*
X126151000Y-117209333D01*
X125770000Y-117209333D01*
X125770000Y-117886667D01*
X126151000Y-117886667D01*
X126385283Y-117894030D01*
X126496247Y-117936543D01*
X126529846Y-118044843D01*
X126532000Y-118140667D01*
X126532000Y-118394667D01*
X124669333Y-118394667D01*
X124669333Y-118140667D01*
X124682707Y-117977800D01*
G36*
X124700286Y-115469040D02*
G01*
X124784681Y-115147051D01*
X124909818Y-114937448D01*
X124949797Y-114905186D01*
X125190252Y-114842610D01*
X125442162Y-114913327D01*
X125524145Y-114973038D01*
X125628457Y-115046761D01*
X125736282Y-115042382D01*
X125902824Y-114949975D01*
X125994965Y-114888371D01*
X126264688Y-114725591D01*
X126431800Y-114682043D01*
X126514390Y-114758192D01*
X126531771Y-114902167D01*
X126493330Y-115081024D01*
X126352073Y-115223127D01*
X126215270Y-115304333D01*
X126010789Y-115443350D01*
X125884943Y-115584499D01*
X125870624Y-115621833D01*
X125882265Y-115717912D01*
X125991832Y-115761258D01*
X126187125Y-115770000D01*
X126406847Y-115779567D01*
X126505526Y-115831900D01*
X126531292Y-115962448D01*
X126532000Y-116024000D01*
X126532000Y-116278000D01*
X125310222Y-116278000D01*
X125310222Y-115770000D01*
X125468798Y-115742360D01*
X125506054Y-115630783D01*
X125500722Y-115579500D01*
X125404307Y-115408334D01*
X125283167Y-115361945D01*
X125140873Y-115373301D01*
X125094375Y-115494121D01*
X125092667Y-115552445D01*
X125125115Y-115716163D01*
X125256412Y-115768394D01*
X125310222Y-115770000D01*
X125310222Y-116278000D01*
X124669333Y-116278000D01*
X124669333Y-115860179D01*
X124700286Y-115469040D01*
G37*
X124700286Y-115469040D02*
X124784681Y-115147051D01*
X124909818Y-114937448D01*
X124949797Y-114905186D01*
X125190252Y-114842610D01*
X125442162Y-114913327D01*
X125524145Y-114973038D01*
X125628457Y-115046761D01*
X125736282Y-115042382D01*
X125902824Y-114949975D01*
X125994965Y-114888371D01*
X126264688Y-114725591D01*
X126431800Y-114682043D01*
X126514390Y-114758192D01*
X126531771Y-114902167D01*
X126493330Y-115081024D01*
X126352073Y-115223127D01*
X126215270Y-115304333D01*
X126010789Y-115443350D01*
X125884943Y-115584499D01*
X125870624Y-115621833D01*
X125882265Y-115717912D01*
X125991832Y-115761258D01*
X126187125Y-115770000D01*
X126406847Y-115779567D01*
X126505526Y-115831900D01*
X126531292Y-115962448D01*
X126532000Y-116024000D01*
X126532000Y-116278000D01*
X125310222Y-116278000D01*
X125310222Y-115770000D01*
X125468798Y-115742360D01*
X125506054Y-115630783D01*
X125500722Y-115579500D01*
X125404307Y-115408334D01*
X125283167Y-115361945D01*
X125140873Y-115373301D01*
X125094375Y-115494121D01*
X125092667Y-115552445D01*
X125125115Y-115716163D01*
X125256412Y-115768394D01*
X125310222Y-115770000D01*
X125310222Y-116278000D01*
X124669333Y-116278000D01*
X124669333Y-115860179D01*
X124700286Y-115469040D01*
G36*
X124669805Y-113970833D02*
G01*
X124721315Y-113439594D01*
X124873016Y-113040486D01*
X125123012Y-112776120D01*
X125469408Y-112649103D01*
X125638453Y-112637333D01*
X126009460Y-112703514D01*
X126280497Y-112903323D01*
X126452941Y-113238661D01*
X126528169Y-113711430D01*
X126532000Y-113870512D01*
X126532000Y-114330667D01*
X125644613Y-114330667D01*
X125644613Y-113822667D01*
X126196559Y-113822667D01*
X126140938Y-113589833D01*
X126070607Y-113378614D01*
X126001958Y-113251167D01*
X125845374Y-113168133D01*
X125609954Y-113150108D01*
X125372081Y-113194416D01*
X125225714Y-113278381D01*
X125119315Y-113467315D01*
X125092667Y-113617048D01*
X125103053Y-113727500D01*
X125159649Y-113789094D01*
X125300611Y-113816043D01*
X125564093Y-113822563D01*
X125644613Y-113822667D01*
X125644613Y-114330667D01*
X124669333Y-114330667D01*
X124669805Y-113970833D01*
G37*
X124669805Y-113970833D02*
X124721315Y-113439594D01*
X124873016Y-113040486D01*
X125123012Y-112776120D01*
X125469408Y-112649103D01*
X125638453Y-112637333D01*
X126009460Y-112703514D01*
X126280497Y-112903323D01*
X126452941Y-113238661D01*
X126528169Y-113711430D01*
X126532000Y-113870512D01*
X126532000Y-114330667D01*
X125644613Y-114330667D01*
X125644613Y-113822667D01*
X126196559Y-113822667D01*
X126140938Y-113589833D01*
X126070607Y-113378614D01*
X126001958Y-113251167D01*
X125845374Y-113168133D01*
X125609954Y-113150108D01*
X125372081Y-113194416D01*
X125225714Y-113278381D01*
X125119315Y-113467315D01*
X125092667Y-113617048D01*
X125103053Y-113727500D01*
X125159649Y-113789094D01*
X125300611Y-113816043D01*
X125564093Y-113822563D01*
X125644613Y-113822667D01*
X125644613Y-114330667D01*
X124669333Y-114330667D01*
X124669805Y-113970833D01*
G36*
X124678510Y-111195356D02*
G01*
X124718742Y-110930960D01*
X124809087Y-110816646D01*
X124968597Y-110843575D01*
X125216330Y-111002906D01*
X125504714Y-111231100D01*
X125769371Y-111442949D01*
X125984072Y-111606103D01*
X126115987Y-111695990D01*
X126139258Y-111706000D01*
X126168878Y-111629413D01*
X126188519Y-111431859D01*
X126193333Y-111240333D01*
X126200683Y-110971226D01*
X126232461Y-110831035D01*
X126303260Y-110779633D01*
X126362667Y-110774667D01*
X126441369Y-110786813D01*
X126491040Y-110844190D01*
X126518294Y-110978211D01*
X126529741Y-111220285D01*
X126532000Y-111579000D01*
X126528775Y-111954968D01*
X126515244Y-112192479D01*
X126485626Y-112322352D01*
X126434137Y-112375403D01*
X126381075Y-112383333D01*
X126250319Y-112331631D01*
X126031943Y-112193742D01*
X125765320Y-111995494D01*
X125661408Y-111911255D01*
X125092667Y-111439176D01*
X125092667Y-111911255D01*
X125087345Y-112180237D01*
X125059073Y-112321118D01*
X124989391Y-112375069D01*
X124881000Y-112383333D01*
X124780940Y-112377298D01*
X124718748Y-112337505D01*
X124685422Y-112231426D01*
X124671955Y-112026532D01*
X124669345Y-111690295D01*
X124669333Y-111618676D01*
X124678510Y-111195356D01*
G37*
X124678510Y-111195356D02*
X124718742Y-110930960D01*
X124809087Y-110816646D01*
X124968597Y-110843575D01*
X125216330Y-111002906D01*
X125504714Y-111231100D01*
X125769371Y-111442949D01*
X125984072Y-111606103D01*
X126115987Y-111695990D01*
X126139258Y-111706000D01*
X126168878Y-111629413D01*
X126188519Y-111431859D01*
X126193333Y-111240333D01*
X126200683Y-110971226D01*
X126232461Y-110831035D01*
X126303260Y-110779633D01*
X126362667Y-110774667D01*
X126441369Y-110786813D01*
X126491040Y-110844190D01*
X126518294Y-110978211D01*
X126529741Y-111220285D01*
X126532000Y-111579000D01*
X126528775Y-111954968D01*
X126515244Y-112192479D01*
X126485626Y-112322352D01*
X126434137Y-112375403D01*
X126381075Y-112383333D01*
X126250319Y-112331631D01*
X126031943Y-112193742D01*
X125765320Y-111995494D01*
X125661408Y-111911255D01*
X125092667Y-111439176D01*
X125092667Y-111911255D01*
X125087345Y-112180237D01*
X125059073Y-112321118D01*
X124989391Y-112375069D01*
X124881000Y-112383333D01*
X124780940Y-112377298D01*
X124718748Y-112337505D01*
X124685422Y-112231426D01*
X124671955Y-112026532D01*
X124669345Y-111690295D01*
X124669333Y-111618676D01*
X124678510Y-111195356D01*
G36*
X124681917Y-109955010D02*
G01*
X124746027Y-109838732D01*
X124901205Y-109741595D01*
X125092667Y-109658020D01*
X125327281Y-109550040D01*
X125481007Y-109459193D01*
X125516000Y-109420000D01*
X125444558Y-109355899D01*
X125260731Y-109256957D01*
X125092667Y-109181981D01*
X124846935Y-109070911D01*
X124720882Y-108972938D01*
X124674968Y-108843513D01*
X124669333Y-108705026D01*
X124669333Y-108404000D01*
X126532000Y-108404000D01*
X126532000Y-108611958D01*
X126522184Y-108719597D01*
X126468614Y-108783920D01*
X126335104Y-108818652D01*
X126085467Y-108837518D01*
X125918167Y-108844791D01*
X125304333Y-108869667D01*
X125748833Y-109070593D01*
X126044634Y-109231833D01*
X126183320Y-109375418D01*
X126193333Y-109420000D01*
X126110918Y-109556064D01*
X125868747Y-109711858D01*
X125748833Y-109769407D01*
X125304333Y-109970333D01*
X125918167Y-109995209D01*
X126234716Y-110011363D01*
X126418171Y-110036946D01*
X126504720Y-110085685D01*
X126530546Y-110171305D01*
X126532000Y-110228043D01*
X126532000Y-110436000D01*
X124669333Y-110436000D01*
X124669333Y-110134975D01*
X124681917Y-109955010D01*
G37*
X124681917Y-109955010D02*
X124746027Y-109838732D01*
X124901205Y-109741595D01*
X125092667Y-109658020D01*
X125327281Y-109550040D01*
X125481007Y-109459193D01*
X125516000Y-109420000D01*
X125444558Y-109355899D01*
X125260731Y-109256957D01*
X125092667Y-109181981D01*
X124846935Y-109070911D01*
X124720882Y-108972938D01*
X124674968Y-108843513D01*
X124669333Y-108705026D01*
X124669333Y-108404000D01*
X126532000Y-108404000D01*
X126532000Y-108611958D01*
X126522184Y-108719597D01*
X126468614Y-108783920D01*
X126335104Y-108818652D01*
X126085467Y-108837518D01*
X125918167Y-108844791D01*
X125304333Y-108869667D01*
X125748833Y-109070593D01*
X126044634Y-109231833D01*
X126183320Y-109375418D01*
X126193333Y-109420000D01*
X126110918Y-109556064D01*
X125868747Y-109711858D01*
X125748833Y-109769407D01*
X125304333Y-109970333D01*
X125918167Y-109995209D01*
X126234716Y-110011363D01*
X126418171Y-110036946D01*
X126504720Y-110085685D01*
X126530546Y-110171305D01*
X126532000Y-110228043D01*
X126532000Y-110436000D01*
X124669333Y-110436000D01*
X124669333Y-110134975D01*
X124681917Y-109955010D01*
G36*
X122929589Y-111013853D02*
G01*
X123037208Y-110420147D01*
X123137122Y-109871134D01*
X123224698Y-109392101D01*
X123295302Y-109008338D01*
X123344301Y-108745133D01*
X123365142Y-108636833D01*
X123417198Y-108484425D01*
X123526037Y-108418282D01*
X123744727Y-108404000D01*
X123954384Y-108416191D01*
X124069244Y-108446573D01*
X124076667Y-108457898D01*
X124061898Y-108552064D01*
X124020207Y-108790941D01*
X123955520Y-109152743D01*
X123871760Y-109615681D01*
X123772851Y-110157966D01*
X123662718Y-110757812D01*
X123649683Y-110828565D01*
X123222699Y-113145334D01*
X123649683Y-115462102D01*
X123761052Y-116069724D01*
X123861593Y-116624676D01*
X123947356Y-117104650D01*
X124014395Y-117487336D01*
X124058761Y-117750426D01*
X124076508Y-117871610D01*
X124076667Y-117875102D01*
X124002233Y-117939406D01*
X123818832Y-117970707D01*
X123785330Y-117971333D01*
X123575631Y-117950501D01*
X123450864Y-117899634D01*
X123445289Y-117892527D01*
X123417855Y-117791630D01*
X123364737Y-117546155D01*
X123290299Y-117178171D01*
X123198908Y-116709745D01*
X123094930Y-116162947D01*
X122982731Y-115559845D01*
X122969132Y-115485880D01*
X122541682Y-113158039D01*
X122929589Y-111013853D01*
G37*
X122929589Y-111013853D02*
X123037208Y-110420147D01*
X123137122Y-109871134D01*
X123224698Y-109392101D01*
X123295302Y-109008338D01*
X123344301Y-108745133D01*
X123365142Y-108636833D01*
X123417198Y-108484425D01*
X123526037Y-108418282D01*
X123744727Y-108404000D01*
X123954384Y-108416191D01*
X124069244Y-108446573D01*
X124076667Y-108457898D01*
X124061898Y-108552064D01*
X124020207Y-108790941D01*
X123955520Y-109152743D01*
X123871760Y-109615681D01*
X123772851Y-110157966D01*
X123662718Y-110757812D01*
X123649683Y-110828565D01*
X123222699Y-113145334D01*
X123649683Y-115462102D01*
X123761052Y-116069724D01*
X123861593Y-116624676D01*
X123947356Y-117104650D01*
X124014395Y-117487336D01*
X124058761Y-117750426D01*
X124076508Y-117871610D01*
X124076667Y-117875102D01*
X124002233Y-117939406D01*
X123818832Y-117970707D01*
X123785330Y-117971333D01*
X123575631Y-117950501D01*
X123450864Y-117899634D01*
X123445289Y-117892527D01*
X123417855Y-117791630D01*
X123364737Y-117546155D01*
X123290299Y-117178171D01*
X123198908Y-116709745D01*
X123094930Y-116162947D01*
X122982731Y-115559845D01*
X122969132Y-115485880D01*
X122541682Y-113158039D01*
X122929589Y-111013853D01*
G36*
X115429589Y-111013853D02*
G01*
X115537208Y-110420147D01*
X115637122Y-109871134D01*
X115724698Y-109392101D01*
X115795302Y-109008338D01*
X115844301Y-108745133D01*
X115865142Y-108636833D01*
X115917198Y-108484425D01*
X116026037Y-108418282D01*
X116244727Y-108404000D01*
X116454384Y-108416191D01*
X116569244Y-108446573D01*
X116576667Y-108457898D01*
X116561898Y-108552064D01*
X116520207Y-108790941D01*
X116455520Y-109152743D01*
X116371760Y-109615681D01*
X116272851Y-110157966D01*
X116162718Y-110757812D01*
X116149683Y-110828565D01*
X115722699Y-113145334D01*
X116149683Y-115462102D01*
X116261052Y-116069724D01*
X116361593Y-116624676D01*
X116447356Y-117104650D01*
X116514395Y-117487336D01*
X116558761Y-117750426D01*
X116576508Y-117871610D01*
X116576667Y-117875102D01*
X116502233Y-117939406D01*
X116318832Y-117970707D01*
X116285330Y-117971333D01*
X116075631Y-117950501D01*
X115950864Y-117899634D01*
X115945289Y-117892527D01*
X115917855Y-117791630D01*
X115864737Y-117546155D01*
X115790299Y-117178171D01*
X115698908Y-116709745D01*
X115594930Y-116162947D01*
X115482731Y-115559845D01*
X115469132Y-115485880D01*
X115041682Y-113158039D01*
X115429589Y-111013853D01*
G37*
X115429589Y-111013853D02*
X115537208Y-110420147D01*
X115637122Y-109871134D01*
X115724698Y-109392101D01*
X115795302Y-109008338D01*
X115844301Y-108745133D01*
X115865142Y-108636833D01*
X115917198Y-108484425D01*
X116026037Y-108418282D01*
X116244727Y-108404000D01*
X116454384Y-108416191D01*
X116569244Y-108446573D01*
X116576667Y-108457898D01*
X116561898Y-108552064D01*
X116520207Y-108790941D01*
X116455520Y-109152743D01*
X116371760Y-109615681D01*
X116272851Y-110157966D01*
X116162718Y-110757812D01*
X116149683Y-110828565D01*
X115722699Y-113145334D01*
X116149683Y-115462102D01*
X116261052Y-116069724D01*
X116361593Y-116624676D01*
X116447356Y-117104650D01*
X116514395Y-117487336D01*
X116558761Y-117750426D01*
X116576508Y-117871610D01*
X116576667Y-117875102D01*
X116502233Y-117939406D01*
X116318832Y-117970707D01*
X116285330Y-117971333D01*
X116075631Y-117950501D01*
X115950864Y-117899634D01*
X115945289Y-117892527D01*
X115917855Y-117791630D01*
X115864737Y-117546155D01*
X115790299Y-117178171D01*
X115698908Y-116709745D01*
X115594930Y-116162947D01*
X115482731Y-115559845D01*
X115469132Y-115485880D01*
X115041682Y-113158039D01*
X115429589Y-111013853D01*
G36*
X117181917Y-109955010D02*
G01*
X117246027Y-109838732D01*
X117401205Y-109741595D01*
X117592667Y-109658020D01*
X117827281Y-109550040D01*
X117981007Y-109459193D01*
X118016000Y-109420000D01*
X117944558Y-109355899D01*
X117760731Y-109256957D01*
X117592667Y-109181981D01*
X117346935Y-109070911D01*
X117220882Y-108972938D01*
X117174968Y-108843513D01*
X117169333Y-108705026D01*
X117169333Y-108404000D01*
X119032000Y-108404000D01*
X119032000Y-108611958D01*
X119022184Y-108719597D01*
X118968614Y-108783920D01*
X118835104Y-108818652D01*
X118585467Y-108837518D01*
X118418167Y-108844791D01*
X117804333Y-108869667D01*
X118248833Y-109070593D01*
X118544634Y-109231833D01*
X118683320Y-109375418D01*
X118693333Y-109420000D01*
X118610918Y-109556064D01*
X118368747Y-109711858D01*
X118248833Y-109769407D01*
X117804333Y-109970333D01*
X118418167Y-109995209D01*
X118734716Y-110011363D01*
X118918171Y-110036946D01*
X119004720Y-110085685D01*
X119030546Y-110171305D01*
X119032000Y-110228043D01*
X119032000Y-110436000D01*
X117169333Y-110436000D01*
X117169333Y-110134975D01*
X117181917Y-109955010D01*
G37*
X117181917Y-109955010D02*
X117246027Y-109838732D01*
X117401205Y-109741595D01*
X117592667Y-109658020D01*
X117827281Y-109550040D01*
X117981007Y-109459193D01*
X118016000Y-109420000D01*
X117944558Y-109355899D01*
X117760731Y-109256957D01*
X117592667Y-109181981D01*
X117346935Y-109070911D01*
X117220882Y-108972938D01*
X117174968Y-108843513D01*
X117169333Y-108705026D01*
X117169333Y-108404000D01*
X119032000Y-108404000D01*
X119032000Y-108611958D01*
X119022184Y-108719597D01*
X118968614Y-108783920D01*
X118835104Y-108818652D01*
X118585467Y-108837518D01*
X118418167Y-108844791D01*
X117804333Y-108869667D01*
X118248833Y-109070593D01*
X118544634Y-109231833D01*
X118683320Y-109375418D01*
X118693333Y-109420000D01*
X118610918Y-109556064D01*
X118368747Y-109711858D01*
X118248833Y-109769407D01*
X117804333Y-109970333D01*
X118418167Y-109995209D01*
X118734716Y-110011363D01*
X118918171Y-110036946D01*
X119004720Y-110085685D01*
X119030546Y-110171305D01*
X119032000Y-110228043D01*
X119032000Y-110436000D01*
X117169333Y-110436000D01*
X117169333Y-110134975D01*
X117181917Y-109955010D01*
G36*
X117178510Y-111195356D02*
G01*
X117218742Y-110930960D01*
X117309087Y-110816646D01*
X117468597Y-110843575D01*
X117716330Y-111002906D01*
X118004714Y-111231100D01*
X118269371Y-111442949D01*
X118484072Y-111606103D01*
X118615987Y-111695990D01*
X118639258Y-111706000D01*
X118668878Y-111629413D01*
X118688519Y-111431859D01*
X118693333Y-111240333D01*
X118700683Y-110971226D01*
X118732461Y-110831035D01*
X118803260Y-110779633D01*
X118862667Y-110774667D01*
X118941369Y-110786813D01*
X118991040Y-110844190D01*
X119018294Y-110978211D01*
X119029741Y-111220285D01*
X119032000Y-111579000D01*
X119028775Y-111954968D01*
X119015244Y-112192479D01*
X118985626Y-112322352D01*
X118934137Y-112375403D01*
X118881075Y-112383333D01*
X118750319Y-112331631D01*
X118531943Y-112193742D01*
X118265320Y-111995494D01*
X118161408Y-111911255D01*
X117592667Y-111439176D01*
X117592667Y-111911255D01*
X117587345Y-112180237D01*
X117559073Y-112321118D01*
X117489391Y-112375069D01*
X117381000Y-112383333D01*
X117280940Y-112377298D01*
X117218748Y-112337505D01*
X117185422Y-112231426D01*
X117171955Y-112026532D01*
X117169345Y-111690295D01*
X117169333Y-111618676D01*
X117178510Y-111195356D01*
G37*
X117178510Y-111195356D02*
X117218742Y-110930960D01*
X117309087Y-110816646D01*
X117468597Y-110843575D01*
X117716330Y-111002906D01*
X118004714Y-111231100D01*
X118269371Y-111442949D01*
X118484072Y-111606103D01*
X118615987Y-111695990D01*
X118639258Y-111706000D01*
X118668878Y-111629413D01*
X118688519Y-111431859D01*
X118693333Y-111240333D01*
X118700683Y-110971226D01*
X118732461Y-110831035D01*
X118803260Y-110779633D01*
X118862667Y-110774667D01*
X118941369Y-110786813D01*
X118991040Y-110844190D01*
X119018294Y-110978211D01*
X119029741Y-111220285D01*
X119032000Y-111579000D01*
X119028775Y-111954968D01*
X119015244Y-112192479D01*
X118985626Y-112322352D01*
X118934137Y-112375403D01*
X118881075Y-112383333D01*
X118750319Y-112331631D01*
X118531943Y-112193742D01*
X118265320Y-111995494D01*
X118161408Y-111911255D01*
X117592667Y-111439176D01*
X117592667Y-111911255D01*
X117587345Y-112180237D01*
X117559073Y-112321118D01*
X117489391Y-112375069D01*
X117381000Y-112383333D01*
X117280940Y-112377298D01*
X117218748Y-112337505D01*
X117185422Y-112231426D01*
X117171955Y-112026532D01*
X117169345Y-111690295D01*
X117169333Y-111618676D01*
X117178510Y-111195356D01*
G36*
X117169805Y-113970833D02*
G01*
X117221315Y-113439594D01*
X117373016Y-113040486D01*
X117623012Y-112776120D01*
X117969408Y-112649103D01*
X118138453Y-112637333D01*
X118509460Y-112703514D01*
X118780497Y-112903323D01*
X118952941Y-113238661D01*
X119028169Y-113711430D01*
X119032000Y-113870512D01*
X119032000Y-114330667D01*
X118144613Y-114330667D01*
X118144613Y-113822667D01*
X118696559Y-113822667D01*
X118640938Y-113589833D01*
X118570607Y-113378614D01*
X118501958Y-113251167D01*
X118345374Y-113168133D01*
X118109954Y-113150108D01*
X117872081Y-113194416D01*
X117725714Y-113278381D01*
X117619315Y-113467315D01*
X117592667Y-113617048D01*
X117603053Y-113727500D01*
X117659649Y-113789094D01*
X117800611Y-113816043D01*
X118064093Y-113822563D01*
X118144613Y-113822667D01*
X118144613Y-114330667D01*
X117169333Y-114330667D01*
X117169805Y-113970833D01*
G37*
X117169805Y-113970833D02*
X117221315Y-113439594D01*
X117373016Y-113040486D01*
X117623012Y-112776120D01*
X117969408Y-112649103D01*
X118138453Y-112637333D01*
X118509460Y-112703514D01*
X118780497Y-112903323D01*
X118952941Y-113238661D01*
X119028169Y-113711430D01*
X119032000Y-113870512D01*
X119032000Y-114330667D01*
X118144613Y-114330667D01*
X118144613Y-113822667D01*
X118696559Y-113822667D01*
X118640938Y-113589833D01*
X118570607Y-113378614D01*
X118501958Y-113251167D01*
X118345374Y-113168133D01*
X118109954Y-113150108D01*
X117872081Y-113194416D01*
X117725714Y-113278381D01*
X117619315Y-113467315D01*
X117592667Y-113617048D01*
X117603053Y-113727500D01*
X117659649Y-113789094D01*
X117800611Y-113816043D01*
X118064093Y-113822563D01*
X118144613Y-113822667D01*
X118144613Y-114330667D01*
X117169333Y-114330667D01*
X117169805Y-113970833D01*
G36*
X117200286Y-115469040D02*
G01*
X117284681Y-115147051D01*
X117409818Y-114937448D01*
X117449797Y-114905186D01*
X117690252Y-114842610D01*
X117942162Y-114913327D01*
X118024145Y-114973038D01*
X118128457Y-115046761D01*
X118236282Y-115042382D01*
X118402824Y-114949975D01*
X118494965Y-114888371D01*
X118764688Y-114725591D01*
X118931800Y-114682043D01*
X119014390Y-114758192D01*
X119031771Y-114902167D01*
X118993330Y-115081024D01*
X118852073Y-115223127D01*
X118715270Y-115304333D01*
X118510789Y-115443350D01*
X118384943Y-115584499D01*
X118370624Y-115621833D01*
X118382265Y-115717912D01*
X118491832Y-115761258D01*
X118687125Y-115770000D01*
X118906847Y-115779567D01*
X119005526Y-115831900D01*
X119031292Y-115962448D01*
X119032000Y-116024000D01*
X119032000Y-116278000D01*
X117810222Y-116278000D01*
X117810222Y-115770000D01*
X117968798Y-115742360D01*
X118006054Y-115630783D01*
X118000722Y-115579500D01*
X117904307Y-115408334D01*
X117783167Y-115361945D01*
X117640873Y-115373301D01*
X117594375Y-115494121D01*
X117592667Y-115552445D01*
X117625115Y-115716163D01*
X117756412Y-115768394D01*
X117810222Y-115770000D01*
X117810222Y-116278000D01*
X117169333Y-116278000D01*
X117169333Y-115860179D01*
X117200286Y-115469040D01*
G37*
X117200286Y-115469040D02*
X117284681Y-115147051D01*
X117409818Y-114937448D01*
X117449797Y-114905186D01*
X117690252Y-114842610D01*
X117942162Y-114913327D01*
X118024145Y-114973038D01*
X118128457Y-115046761D01*
X118236282Y-115042382D01*
X118402824Y-114949975D01*
X118494965Y-114888371D01*
X118764688Y-114725591D01*
X118931800Y-114682043D01*
X119014390Y-114758192D01*
X119031771Y-114902167D01*
X118993330Y-115081024D01*
X118852073Y-115223127D01*
X118715270Y-115304333D01*
X118510789Y-115443350D01*
X118384943Y-115584499D01*
X118370624Y-115621833D01*
X118382265Y-115717912D01*
X118491832Y-115761258D01*
X118687125Y-115770000D01*
X118906847Y-115779567D01*
X119005526Y-115831900D01*
X119031292Y-115962448D01*
X119032000Y-116024000D01*
X119032000Y-116278000D01*
X117810222Y-116278000D01*
X117810222Y-115770000D01*
X117968798Y-115742360D01*
X118006054Y-115630783D01*
X118000722Y-115579500D01*
X117904307Y-115408334D01*
X117783167Y-115361945D01*
X117640873Y-115373301D01*
X117594375Y-115494121D01*
X117592667Y-115552445D01*
X117625115Y-115716163D01*
X117756412Y-115768394D01*
X117810222Y-115770000D01*
X117810222Y-116278000D01*
X117169333Y-116278000D01*
X117169333Y-115860179D01*
X117200286Y-115469040D01*
G36*
X117182707Y-117977800D02*
G01*
X117255179Y-117905399D01*
X117435278Y-117887068D01*
X117508000Y-117886667D01*
X117846667Y-117886667D01*
X117846667Y-117209333D01*
X117502376Y-117209333D01*
X117284237Y-117200484D01*
X117191189Y-117152374D01*
X117179128Y-117032663D01*
X117184876Y-116976500D01*
X117211667Y-116743667D01*
X118121833Y-116719636D01*
X119032000Y-116695605D01*
X119032000Y-116952469D01*
X119021196Y-117110402D01*
X118958135Y-117185203D01*
X118796845Y-117207864D01*
X118651000Y-117209333D01*
X118270000Y-117209333D01*
X118270000Y-117886667D01*
X118651000Y-117886667D01*
X118885283Y-117894030D01*
X118996247Y-117936543D01*
X119029846Y-118044843D01*
X119032000Y-118140667D01*
X119032000Y-118394667D01*
X117169333Y-118394667D01*
X117169333Y-118140667D01*
X117182707Y-117977800D01*
G37*
X117182707Y-117977800D02*
X117255179Y-117905399D01*
X117435278Y-117887068D01*
X117508000Y-117886667D01*
X117846667Y-117886667D01*
X117846667Y-117209333D01*
X117502376Y-117209333D01*
X117284237Y-117200484D01*
X117191189Y-117152374D01*
X117179128Y-117032663D01*
X117184876Y-116976500D01*
X117211667Y-116743667D01*
X118121833Y-116719636D01*
X119032000Y-116695605D01*
X119032000Y-116952469D01*
X119021196Y-117110402D01*
X118958135Y-117185203D01*
X118796845Y-117207864D01*
X118651000Y-117209333D01*
X118270000Y-117209333D01*
X118270000Y-117886667D01*
X118651000Y-117886667D01*
X118885283Y-117894030D01*
X118996247Y-117936543D01*
X119029846Y-118044843D01*
X119032000Y-118140667D01*
X119032000Y-118394667D01*
X117169333Y-118394667D01*
X117169333Y-118140667D01*
X117182707Y-117977800D01*
G36*
X115445231Y-118839167D02*
G01*
X115658111Y-118602935D01*
X115815961Y-118469597D01*
X115969733Y-118409977D01*
X116170380Y-118394903D01*
X116221564Y-118394667D01*
X116613215Y-118394667D01*
X116172121Y-118841309D01*
X115731028Y-119287951D01*
X116003641Y-119560564D01*
X116276254Y-119833178D01*
X116749471Y-119364899D01*
X117222687Y-118896620D01*
X119043753Y-118945000D01*
X118800410Y-119177833D01*
X118650301Y-119303636D01*
X118494676Y-119373933D01*
X118277766Y-119404383D01*
X117971158Y-119410667D01*
X117385249Y-119410667D01*
X116830669Y-119960997D01*
X116276089Y-120511328D01*
X115668319Y-119897497D01*
X115060549Y-119283667D01*
X115445231Y-118839167D01*
G37*
X115445231Y-118839167D02*
X115658111Y-118602935D01*
X115815961Y-118469597D01*
X115969733Y-118409977D01*
X116170380Y-118394903D01*
X116221564Y-118394667D01*
X116613215Y-118394667D01*
X116172121Y-118841309D01*
X115731028Y-119287951D01*
X116003641Y-119560564D01*
X116276254Y-119833178D01*
X116749471Y-119364899D01*
X117222687Y-118896620D01*
X119043753Y-118945000D01*
X118800410Y-119177833D01*
X118650301Y-119303636D01*
X118494676Y-119373933D01*
X118277766Y-119404383D01*
X117971158Y-119410667D01*
X117385249Y-119410667D01*
X116830669Y-119960997D01*
X116276089Y-120511328D01*
X115668319Y-119897497D01*
X115060549Y-119283667D01*
X115445231Y-118839167D01*
G36*
X122929589Y-91013853D02*
G01*
X123037208Y-90420147D01*
X123137122Y-89871134D01*
X123224698Y-89392101D01*
X123295302Y-89008338D01*
X123344301Y-88745133D01*
X123365142Y-88636833D01*
X123417198Y-88484425D01*
X123526037Y-88418282D01*
X123744727Y-88404000D01*
X123954384Y-88416191D01*
X124069244Y-88446573D01*
X124076667Y-88457898D01*
X124061898Y-88552064D01*
X124020207Y-88790941D01*
X123955520Y-89152743D01*
X123871760Y-89615681D01*
X123772851Y-90157966D01*
X123662718Y-90757812D01*
X123649683Y-90828565D01*
X123222699Y-93145334D01*
X123649683Y-95462102D01*
X123761052Y-96069724D01*
X123861593Y-96624676D01*
X123947356Y-97104650D01*
X124014395Y-97487336D01*
X124058761Y-97750426D01*
X124076508Y-97871610D01*
X124076667Y-97875102D01*
X124002233Y-97939406D01*
X123818832Y-97970707D01*
X123785330Y-97971333D01*
X123575631Y-97950501D01*
X123450864Y-97899634D01*
X123445289Y-97892527D01*
X123417855Y-97791630D01*
X123364737Y-97546155D01*
X123290299Y-97178171D01*
X123198908Y-96709745D01*
X123094930Y-96162947D01*
X122982731Y-95559845D01*
X122969132Y-95485880D01*
X122541682Y-93158039D01*
X122929589Y-91013853D01*
G37*
X122929589Y-91013853D02*
X123037208Y-90420147D01*
X123137122Y-89871134D01*
X123224698Y-89392101D01*
X123295302Y-89008338D01*
X123344301Y-88745133D01*
X123365142Y-88636833D01*
X123417198Y-88484425D01*
X123526037Y-88418282D01*
X123744727Y-88404000D01*
X123954384Y-88416191D01*
X124069244Y-88446573D01*
X124076667Y-88457898D01*
X124061898Y-88552064D01*
X124020207Y-88790941D01*
X123955520Y-89152743D01*
X123871760Y-89615681D01*
X123772851Y-90157966D01*
X123662718Y-90757812D01*
X123649683Y-90828565D01*
X123222699Y-93145334D01*
X123649683Y-95462102D01*
X123761052Y-96069724D01*
X123861593Y-96624676D01*
X123947356Y-97104650D01*
X124014395Y-97487336D01*
X124058761Y-97750426D01*
X124076508Y-97871610D01*
X124076667Y-97875102D01*
X124002233Y-97939406D01*
X123818832Y-97970707D01*
X123785330Y-97971333D01*
X123575631Y-97950501D01*
X123450864Y-97899634D01*
X123445289Y-97892527D01*
X123417855Y-97791630D01*
X123364737Y-97546155D01*
X123290299Y-97178171D01*
X123198908Y-96709745D01*
X123094930Y-96162947D01*
X122982731Y-95559845D01*
X122969132Y-95485880D01*
X122541682Y-93158039D01*
X122929589Y-91013853D01*
G36*
X124681917Y-89955010D02*
G01*
X124746027Y-89838732D01*
X124901205Y-89741595D01*
X125092667Y-89658020D01*
X125327281Y-89550040D01*
X125481007Y-89459193D01*
X125516000Y-89420000D01*
X125444558Y-89355899D01*
X125260731Y-89256957D01*
X125092667Y-89181981D01*
X124846935Y-89070911D01*
X124720882Y-88972938D01*
X124674968Y-88843513D01*
X124669333Y-88705026D01*
X124669333Y-88404000D01*
X126532000Y-88404000D01*
X126532000Y-88611958D01*
X126522184Y-88719597D01*
X126468614Y-88783920D01*
X126335104Y-88818652D01*
X126085467Y-88837518D01*
X125918167Y-88844791D01*
X125304333Y-88869667D01*
X125748833Y-89070593D01*
X126044634Y-89231833D01*
X126183320Y-89375418D01*
X126193333Y-89420000D01*
X126110918Y-89556064D01*
X125868747Y-89711858D01*
X125748833Y-89769407D01*
X125304333Y-89970333D01*
X125918167Y-89995209D01*
X126234716Y-90011363D01*
X126418171Y-90036946D01*
X126504720Y-90085685D01*
X126530546Y-90171305D01*
X126532000Y-90228043D01*
X126532000Y-90436000D01*
X124669333Y-90436000D01*
X124669333Y-90134975D01*
X124681917Y-89955010D01*
G37*
X124681917Y-89955010D02*
X124746027Y-89838732D01*
X124901205Y-89741595D01*
X125092667Y-89658020D01*
X125327281Y-89550040D01*
X125481007Y-89459193D01*
X125516000Y-89420000D01*
X125444558Y-89355899D01*
X125260731Y-89256957D01*
X125092667Y-89181981D01*
X124846935Y-89070911D01*
X124720882Y-88972938D01*
X124674968Y-88843513D01*
X124669333Y-88705026D01*
X124669333Y-88404000D01*
X126532000Y-88404000D01*
X126532000Y-88611958D01*
X126522184Y-88719597D01*
X126468614Y-88783920D01*
X126335104Y-88818652D01*
X126085467Y-88837518D01*
X125918167Y-88844791D01*
X125304333Y-88869667D01*
X125748833Y-89070593D01*
X126044634Y-89231833D01*
X126183320Y-89375418D01*
X126193333Y-89420000D01*
X126110918Y-89556064D01*
X125868747Y-89711858D01*
X125748833Y-89769407D01*
X125304333Y-89970333D01*
X125918167Y-89995209D01*
X126234716Y-90011363D01*
X126418171Y-90036946D01*
X126504720Y-90085685D01*
X126530546Y-90171305D01*
X126532000Y-90228043D01*
X126532000Y-90436000D01*
X124669333Y-90436000D01*
X124669333Y-90134975D01*
X124681917Y-89955010D01*
G36*
X124678510Y-91195356D02*
G01*
X124718742Y-90930960D01*
X124809087Y-90816646D01*
X124968597Y-90843575D01*
X125216330Y-91002906D01*
X125504714Y-91231100D01*
X125769371Y-91442949D01*
X125984072Y-91606103D01*
X126115987Y-91695990D01*
X126139258Y-91706000D01*
X126168878Y-91629413D01*
X126188519Y-91431859D01*
X126193333Y-91240333D01*
X126200683Y-90971226D01*
X126232461Y-90831035D01*
X126303260Y-90779633D01*
X126362667Y-90774667D01*
X126441369Y-90786813D01*
X126491040Y-90844190D01*
X126518294Y-90978211D01*
X126529741Y-91220285D01*
X126532000Y-91579000D01*
X126528775Y-91954968D01*
X126515244Y-92192479D01*
X126485626Y-92322352D01*
X126434137Y-92375403D01*
X126381075Y-92383333D01*
X126250319Y-92331631D01*
X126031943Y-92193742D01*
X125765320Y-91995494D01*
X125661408Y-91911255D01*
X125092667Y-91439176D01*
X125092667Y-91911255D01*
X125087345Y-92180237D01*
X125059073Y-92321118D01*
X124989391Y-92375069D01*
X124881000Y-92383333D01*
X124780940Y-92377298D01*
X124718748Y-92337505D01*
X124685422Y-92231426D01*
X124671955Y-92026532D01*
X124669345Y-91690295D01*
X124669333Y-91618676D01*
X124678510Y-91195356D01*
G37*
X124678510Y-91195356D02*
X124718742Y-90930960D01*
X124809087Y-90816646D01*
X124968597Y-90843575D01*
X125216330Y-91002906D01*
X125504714Y-91231100D01*
X125769371Y-91442949D01*
X125984072Y-91606103D01*
X126115987Y-91695990D01*
X126139258Y-91706000D01*
X126168878Y-91629413D01*
X126188519Y-91431859D01*
X126193333Y-91240333D01*
X126200683Y-90971226D01*
X126232461Y-90831035D01*
X126303260Y-90779633D01*
X126362667Y-90774667D01*
X126441369Y-90786813D01*
X126491040Y-90844190D01*
X126518294Y-90978211D01*
X126529741Y-91220285D01*
X126532000Y-91579000D01*
X126528775Y-91954968D01*
X126515244Y-92192479D01*
X126485626Y-92322352D01*
X126434137Y-92375403D01*
X126381075Y-92383333D01*
X126250319Y-92331631D01*
X126031943Y-92193742D01*
X125765320Y-91995494D01*
X125661408Y-91911255D01*
X125092667Y-91439176D01*
X125092667Y-91911255D01*
X125087345Y-92180237D01*
X125059073Y-92321118D01*
X124989391Y-92375069D01*
X124881000Y-92383333D01*
X124780940Y-92377298D01*
X124718748Y-92337505D01*
X124685422Y-92231426D01*
X124671955Y-92026532D01*
X124669345Y-91690295D01*
X124669333Y-91618676D01*
X124678510Y-91195356D01*
G36*
X124669805Y-93970833D02*
G01*
X124721315Y-93439594D01*
X124873016Y-93040486D01*
X125123012Y-92776120D01*
X125469408Y-92649103D01*
X125638453Y-92637333D01*
X126009460Y-92703514D01*
X126280497Y-92903323D01*
X126452941Y-93238661D01*
X126528169Y-93711430D01*
X126532000Y-93870512D01*
X126532000Y-94330667D01*
X125644613Y-94330667D01*
X125644613Y-93822667D01*
X126196559Y-93822667D01*
X126140938Y-93589833D01*
X126070607Y-93378614D01*
X126001958Y-93251167D01*
X125845374Y-93168133D01*
X125609954Y-93150108D01*
X125372081Y-93194416D01*
X125225714Y-93278381D01*
X125119315Y-93467315D01*
X125092667Y-93617048D01*
X125103053Y-93727500D01*
X125159649Y-93789094D01*
X125300611Y-93816043D01*
X125564093Y-93822563D01*
X125644613Y-93822667D01*
X125644613Y-94330667D01*
X124669333Y-94330667D01*
X124669805Y-93970833D01*
G37*
X124669805Y-93970833D02*
X124721315Y-93439594D01*
X124873016Y-93040486D01*
X125123012Y-92776120D01*
X125469408Y-92649103D01*
X125638453Y-92637333D01*
X126009460Y-92703514D01*
X126280497Y-92903323D01*
X126452941Y-93238661D01*
X126528169Y-93711430D01*
X126532000Y-93870512D01*
X126532000Y-94330667D01*
X125644613Y-94330667D01*
X125644613Y-93822667D01*
X126196559Y-93822667D01*
X126140938Y-93589833D01*
X126070607Y-93378614D01*
X126001958Y-93251167D01*
X125845374Y-93168133D01*
X125609954Y-93150108D01*
X125372081Y-93194416D01*
X125225714Y-93278381D01*
X125119315Y-93467315D01*
X125092667Y-93617048D01*
X125103053Y-93727500D01*
X125159649Y-93789094D01*
X125300611Y-93816043D01*
X125564093Y-93822563D01*
X125644613Y-93822667D01*
X125644613Y-94330667D01*
X124669333Y-94330667D01*
X124669805Y-93970833D01*
G36*
X124700286Y-95469040D02*
G01*
X124784681Y-95147051D01*
X124909818Y-94937448D01*
X124949797Y-94905186D01*
X125190252Y-94842610D01*
X125442162Y-94913327D01*
X125524145Y-94973038D01*
X125628457Y-95046761D01*
X125736282Y-95042382D01*
X125902824Y-94949975D01*
X125994965Y-94888371D01*
X126264688Y-94725591D01*
X126431800Y-94682043D01*
X126514390Y-94758192D01*
X126531771Y-94902167D01*
X126493330Y-95081024D01*
X126352073Y-95223127D01*
X126215270Y-95304333D01*
X126010789Y-95443350D01*
X125884943Y-95584499D01*
X125870624Y-95621833D01*
X125882265Y-95717912D01*
X125991832Y-95761258D01*
X126187125Y-95770000D01*
X126406847Y-95779567D01*
X126505526Y-95831900D01*
X126531292Y-95962448D01*
X126532000Y-96024000D01*
X126532000Y-96278000D01*
X125310222Y-96278000D01*
X125310222Y-95770000D01*
X125468798Y-95742360D01*
X125506054Y-95630783D01*
X125500722Y-95579500D01*
X125404307Y-95408334D01*
X125283167Y-95361945D01*
X125140873Y-95373301D01*
X125094375Y-95494121D01*
X125092667Y-95552445D01*
X125125115Y-95716163D01*
X125256412Y-95768394D01*
X125310222Y-95770000D01*
X125310222Y-96278000D01*
X124669333Y-96278000D01*
X124669333Y-95860179D01*
X124700286Y-95469040D01*
G37*
X124700286Y-95469040D02*
X124784681Y-95147051D01*
X124909818Y-94937448D01*
X124949797Y-94905186D01*
X125190252Y-94842610D01*
X125442162Y-94913327D01*
X125524145Y-94973038D01*
X125628457Y-95046761D01*
X125736282Y-95042382D01*
X125902824Y-94949975D01*
X125994965Y-94888371D01*
X126264688Y-94725591D01*
X126431800Y-94682043D01*
X126514390Y-94758192D01*
X126531771Y-94902167D01*
X126493330Y-95081024D01*
X126352073Y-95223127D01*
X126215270Y-95304333D01*
X126010789Y-95443350D01*
X125884943Y-95584499D01*
X125870624Y-95621833D01*
X125882265Y-95717912D01*
X125991832Y-95761258D01*
X126187125Y-95770000D01*
X126406847Y-95779567D01*
X126505526Y-95831900D01*
X126531292Y-95962448D01*
X126532000Y-96024000D01*
X126532000Y-96278000D01*
X125310222Y-96278000D01*
X125310222Y-95770000D01*
X125468798Y-95742360D01*
X125506054Y-95630783D01*
X125500722Y-95579500D01*
X125404307Y-95408334D01*
X125283167Y-95361945D01*
X125140873Y-95373301D01*
X125094375Y-95494121D01*
X125092667Y-95552445D01*
X125125115Y-95716163D01*
X125256412Y-95768394D01*
X125310222Y-95770000D01*
X125310222Y-96278000D01*
X124669333Y-96278000D01*
X124669333Y-95860179D01*
X124700286Y-95469040D01*
G36*
X124682707Y-97977800D02*
G01*
X124755179Y-97905399D01*
X124935278Y-97887068D01*
X125008000Y-97886667D01*
X125346667Y-97886667D01*
X125346667Y-97209333D01*
X125002376Y-97209333D01*
X124784237Y-97200484D01*
X124691189Y-97152374D01*
X124679128Y-97032663D01*
X124684876Y-96976500D01*
X124711667Y-96743667D01*
X125621833Y-96719636D01*
X126532000Y-96695605D01*
X126532000Y-96952469D01*
X126521196Y-97110402D01*
X126458135Y-97185203D01*
X126296845Y-97207864D01*
X126151000Y-97209333D01*
X125770000Y-97209333D01*
X125770000Y-97886667D01*
X126151000Y-97886667D01*
X126385283Y-97894030D01*
X126496247Y-97936543D01*
X126529846Y-98044843D01*
X126532000Y-98140667D01*
X126532000Y-98394667D01*
X124669333Y-98394667D01*
X124669333Y-98140667D01*
X124682707Y-97977800D01*
G37*
X124682707Y-97977800D02*
X124755179Y-97905399D01*
X124935278Y-97887068D01*
X125008000Y-97886667D01*
X125346667Y-97886667D01*
X125346667Y-97209333D01*
X125002376Y-97209333D01*
X124784237Y-97200484D01*
X124691189Y-97152374D01*
X124679128Y-97032663D01*
X124684876Y-96976500D01*
X124711667Y-96743667D01*
X125621833Y-96719636D01*
X126532000Y-96695605D01*
X126532000Y-96952469D01*
X126521196Y-97110402D01*
X126458135Y-97185203D01*
X126296845Y-97207864D01*
X126151000Y-97209333D01*
X125770000Y-97209333D01*
X125770000Y-97886667D01*
X126151000Y-97886667D01*
X126385283Y-97894030D01*
X126496247Y-97936543D01*
X126529846Y-98044843D01*
X126532000Y-98140667D01*
X126532000Y-98394667D01*
X124669333Y-98394667D01*
X124669333Y-98140667D01*
X124682707Y-97977800D01*
G36*
X122945231Y-98839167D02*
G01*
X123158111Y-98602935D01*
X123315961Y-98469597D01*
X123469733Y-98409977D01*
X123670380Y-98394903D01*
X123721564Y-98394667D01*
X124113215Y-98394667D01*
X123672121Y-98841309D01*
X123231028Y-99287951D01*
X123503641Y-99560564D01*
X123776254Y-99833178D01*
X124249471Y-99364899D01*
X124722687Y-98896620D01*
X126543753Y-98945000D01*
X126300410Y-99177833D01*
X126150301Y-99303636D01*
X125994676Y-99373933D01*
X125777766Y-99404383D01*
X125471158Y-99410667D01*
X124885249Y-99410667D01*
X124330669Y-99960997D01*
X123776089Y-100511328D01*
X123168319Y-99897497D01*
X122560549Y-99283667D01*
X122945231Y-98839167D01*
G37*
X122945231Y-98839167D02*
X123158111Y-98602935D01*
X123315961Y-98469597D01*
X123469733Y-98409977D01*
X123670380Y-98394903D01*
X123721564Y-98394667D01*
X124113215Y-98394667D01*
X123672121Y-98841309D01*
X123231028Y-99287951D01*
X123503641Y-99560564D01*
X123776254Y-99833178D01*
X124249471Y-99364899D01*
X124722687Y-98896620D01*
X126543753Y-98945000D01*
X126300410Y-99177833D01*
X126150301Y-99303636D01*
X125994676Y-99373933D01*
X125777766Y-99404383D01*
X125471158Y-99410667D01*
X124885249Y-99410667D01*
X124330669Y-99960997D01*
X123776089Y-100511328D01*
X123168319Y-99897497D01*
X122560549Y-99283667D01*
X122945231Y-98839167D01*
G36*
X115445231Y-98839167D02*
G01*
X115658111Y-98602935D01*
X115815961Y-98469597D01*
X115969733Y-98409977D01*
X116170380Y-98394903D01*
X116221564Y-98394667D01*
X116613215Y-98394667D01*
X116172121Y-98841309D01*
X115731028Y-99287951D01*
X116003641Y-99560564D01*
X116276254Y-99833178D01*
X116749471Y-99364899D01*
X117222687Y-98896620D01*
X119043753Y-98945000D01*
X118800410Y-99177833D01*
X118650301Y-99303636D01*
X118494676Y-99373933D01*
X118277766Y-99404383D01*
X117971158Y-99410667D01*
X117385249Y-99410667D01*
X116830669Y-99960997D01*
X116276089Y-100511328D01*
X115668319Y-99897497D01*
X115060549Y-99283667D01*
X115445231Y-98839167D01*
G37*
X115445231Y-98839167D02*
X115658111Y-98602935D01*
X115815961Y-98469597D01*
X115969733Y-98409977D01*
X116170380Y-98394903D01*
X116221564Y-98394667D01*
X116613215Y-98394667D01*
X116172121Y-98841309D01*
X115731028Y-99287951D01*
X116003641Y-99560564D01*
X116276254Y-99833178D01*
X116749471Y-99364899D01*
X117222687Y-98896620D01*
X119043753Y-98945000D01*
X118800410Y-99177833D01*
X118650301Y-99303636D01*
X118494676Y-99373933D01*
X118277766Y-99404383D01*
X117971158Y-99410667D01*
X117385249Y-99410667D01*
X116830669Y-99960997D01*
X116276089Y-100511328D01*
X115668319Y-99897497D01*
X115060549Y-99283667D01*
X115445231Y-98839167D01*
G36*
X117182707Y-97977800D02*
G01*
X117255179Y-97905399D01*
X117435278Y-97887068D01*
X117508000Y-97886667D01*
X117846667Y-97886667D01*
X117846667Y-97209333D01*
X117502376Y-97209333D01*
X117284237Y-97200484D01*
X117191189Y-97152374D01*
X117179128Y-97032663D01*
X117184876Y-96976500D01*
X117211667Y-96743667D01*
X118121833Y-96719636D01*
X119032000Y-96695605D01*
X119032000Y-96952469D01*
X119021196Y-97110402D01*
X118958135Y-97185203D01*
X118796845Y-97207864D01*
X118651000Y-97209333D01*
X118270000Y-97209333D01*
X118270000Y-97886667D01*
X118651000Y-97886667D01*
X118885283Y-97894030D01*
X118996247Y-97936543D01*
X119029846Y-98044843D01*
X119032000Y-98140667D01*
X119032000Y-98394667D01*
X117169333Y-98394667D01*
X117169333Y-98140667D01*
X117182707Y-97977800D01*
G37*
X117182707Y-97977800D02*
X117255179Y-97905399D01*
X117435278Y-97887068D01*
X117508000Y-97886667D01*
X117846667Y-97886667D01*
X117846667Y-97209333D01*
X117502376Y-97209333D01*
X117284237Y-97200484D01*
X117191189Y-97152374D01*
X117179128Y-97032663D01*
X117184876Y-96976500D01*
X117211667Y-96743667D01*
X118121833Y-96719636D01*
X119032000Y-96695605D01*
X119032000Y-96952469D01*
X119021196Y-97110402D01*
X118958135Y-97185203D01*
X118796845Y-97207864D01*
X118651000Y-97209333D01*
X118270000Y-97209333D01*
X118270000Y-97886667D01*
X118651000Y-97886667D01*
X118885283Y-97894030D01*
X118996247Y-97936543D01*
X119029846Y-98044843D01*
X119032000Y-98140667D01*
X119032000Y-98394667D01*
X117169333Y-98394667D01*
X117169333Y-98140667D01*
X117182707Y-97977800D01*
G36*
X117200286Y-95469040D02*
G01*
X117284681Y-95147051D01*
X117409818Y-94937448D01*
X117449797Y-94905186D01*
X117690252Y-94842610D01*
X117942162Y-94913327D01*
X118024145Y-94973038D01*
X118128457Y-95046761D01*
X118236282Y-95042382D01*
X118402824Y-94949975D01*
X118494965Y-94888371D01*
X118764688Y-94725591D01*
X118931800Y-94682043D01*
X119014390Y-94758192D01*
X119031771Y-94902167D01*
X118993330Y-95081024D01*
X118852073Y-95223127D01*
X118715270Y-95304333D01*
X118510789Y-95443350D01*
X118384943Y-95584499D01*
X118370624Y-95621833D01*
X118382265Y-95717912D01*
X118491832Y-95761258D01*
X118687125Y-95770000D01*
X118906847Y-95779567D01*
X119005526Y-95831900D01*
X119031292Y-95962448D01*
X119032000Y-96024000D01*
X119032000Y-96278000D01*
X117810222Y-96278000D01*
X117810222Y-95770000D01*
X117968798Y-95742360D01*
X118006054Y-95630783D01*
X118000722Y-95579500D01*
X117904307Y-95408334D01*
X117783167Y-95361945D01*
X117640873Y-95373301D01*
X117594375Y-95494121D01*
X117592667Y-95552445D01*
X117625115Y-95716163D01*
X117756412Y-95768394D01*
X117810222Y-95770000D01*
X117810222Y-96278000D01*
X117169333Y-96278000D01*
X117169333Y-95860179D01*
X117200286Y-95469040D01*
G37*
X117200286Y-95469040D02*
X117284681Y-95147051D01*
X117409818Y-94937448D01*
X117449797Y-94905186D01*
X117690252Y-94842610D01*
X117942162Y-94913327D01*
X118024145Y-94973038D01*
X118128457Y-95046761D01*
X118236282Y-95042382D01*
X118402824Y-94949975D01*
X118494965Y-94888371D01*
X118764688Y-94725591D01*
X118931800Y-94682043D01*
X119014390Y-94758192D01*
X119031771Y-94902167D01*
X118993330Y-95081024D01*
X118852073Y-95223127D01*
X118715270Y-95304333D01*
X118510789Y-95443350D01*
X118384943Y-95584499D01*
X118370624Y-95621833D01*
X118382265Y-95717912D01*
X118491832Y-95761258D01*
X118687125Y-95770000D01*
X118906847Y-95779567D01*
X119005526Y-95831900D01*
X119031292Y-95962448D01*
X119032000Y-96024000D01*
X119032000Y-96278000D01*
X117810222Y-96278000D01*
X117810222Y-95770000D01*
X117968798Y-95742360D01*
X118006054Y-95630783D01*
X118000722Y-95579500D01*
X117904307Y-95408334D01*
X117783167Y-95361945D01*
X117640873Y-95373301D01*
X117594375Y-95494121D01*
X117592667Y-95552445D01*
X117625115Y-95716163D01*
X117756412Y-95768394D01*
X117810222Y-95770000D01*
X117810222Y-96278000D01*
X117169333Y-96278000D01*
X117169333Y-95860179D01*
X117200286Y-95469040D01*
G36*
X117169805Y-93970833D02*
G01*
X117221315Y-93439594D01*
X117373016Y-93040486D01*
X117623012Y-92776120D01*
X117969408Y-92649103D01*
X118138453Y-92637333D01*
X118509460Y-92703514D01*
X118780497Y-92903323D01*
X118952941Y-93238661D01*
X119028169Y-93711430D01*
X119032000Y-93870512D01*
X119032000Y-94330667D01*
X118144613Y-94330667D01*
X118144613Y-93822667D01*
X118696559Y-93822667D01*
X118640938Y-93589833D01*
X118570607Y-93378614D01*
X118501958Y-93251167D01*
X118345374Y-93168133D01*
X118109954Y-93150108D01*
X117872081Y-93194416D01*
X117725714Y-93278381D01*
X117619315Y-93467315D01*
X117592667Y-93617048D01*
X117603053Y-93727500D01*
X117659649Y-93789094D01*
X117800611Y-93816043D01*
X118064093Y-93822563D01*
X118144613Y-93822667D01*
X118144613Y-94330667D01*
X117169333Y-94330667D01*
X117169805Y-93970833D01*
G37*
X117169805Y-93970833D02*
X117221315Y-93439594D01*
X117373016Y-93040486D01*
X117623012Y-92776120D01*
X117969408Y-92649103D01*
X118138453Y-92637333D01*
X118509460Y-92703514D01*
X118780497Y-92903323D01*
X118952941Y-93238661D01*
X119028169Y-93711430D01*
X119032000Y-93870512D01*
X119032000Y-94330667D01*
X118144613Y-94330667D01*
X118144613Y-93822667D01*
X118696559Y-93822667D01*
X118640938Y-93589833D01*
X118570607Y-93378614D01*
X118501958Y-93251167D01*
X118345374Y-93168133D01*
X118109954Y-93150108D01*
X117872081Y-93194416D01*
X117725714Y-93278381D01*
X117619315Y-93467315D01*
X117592667Y-93617048D01*
X117603053Y-93727500D01*
X117659649Y-93789094D01*
X117800611Y-93816043D01*
X118064093Y-93822563D01*
X118144613Y-93822667D01*
X118144613Y-94330667D01*
X117169333Y-94330667D01*
X117169805Y-93970833D01*
G36*
X117178510Y-91195356D02*
G01*
X117218742Y-90930960D01*
X117309087Y-90816646D01*
X117468597Y-90843575D01*
X117716330Y-91002906D01*
X118004714Y-91231100D01*
X118269371Y-91442949D01*
X118484072Y-91606103D01*
X118615987Y-91695990D01*
X118639258Y-91706000D01*
X118668878Y-91629413D01*
X118688519Y-91431859D01*
X118693333Y-91240333D01*
X118700683Y-90971226D01*
X118732461Y-90831035D01*
X118803260Y-90779633D01*
X118862667Y-90774667D01*
X118941369Y-90786813D01*
X118991040Y-90844190D01*
X119018294Y-90978211D01*
X119029741Y-91220285D01*
X119032000Y-91579000D01*
X119028775Y-91954968D01*
X119015244Y-92192479D01*
X118985626Y-92322352D01*
X118934137Y-92375403D01*
X118881075Y-92383333D01*
X118750319Y-92331631D01*
X118531943Y-92193742D01*
X118265320Y-91995494D01*
X118161408Y-91911255D01*
X117592667Y-91439176D01*
X117592667Y-91911255D01*
X117587345Y-92180237D01*
X117559073Y-92321118D01*
X117489391Y-92375069D01*
X117381000Y-92383333D01*
X117280940Y-92377298D01*
X117218748Y-92337505D01*
X117185422Y-92231426D01*
X117171955Y-92026532D01*
X117169345Y-91690295D01*
X117169333Y-91618676D01*
X117178510Y-91195356D01*
G37*
X117178510Y-91195356D02*
X117218742Y-90930960D01*
X117309087Y-90816646D01*
X117468597Y-90843575D01*
X117716330Y-91002906D01*
X118004714Y-91231100D01*
X118269371Y-91442949D01*
X118484072Y-91606103D01*
X118615987Y-91695990D01*
X118639258Y-91706000D01*
X118668878Y-91629413D01*
X118688519Y-91431859D01*
X118693333Y-91240333D01*
X118700683Y-90971226D01*
X118732461Y-90831035D01*
X118803260Y-90779633D01*
X118862667Y-90774667D01*
X118941369Y-90786813D01*
X118991040Y-90844190D01*
X119018294Y-90978211D01*
X119029741Y-91220285D01*
X119032000Y-91579000D01*
X119028775Y-91954968D01*
X119015244Y-92192479D01*
X118985626Y-92322352D01*
X118934137Y-92375403D01*
X118881075Y-92383333D01*
X118750319Y-92331631D01*
X118531943Y-92193742D01*
X118265320Y-91995494D01*
X118161408Y-91911255D01*
X117592667Y-91439176D01*
X117592667Y-91911255D01*
X117587345Y-92180237D01*
X117559073Y-92321118D01*
X117489391Y-92375069D01*
X117381000Y-92383333D01*
X117280940Y-92377298D01*
X117218748Y-92337505D01*
X117185422Y-92231426D01*
X117171955Y-92026532D01*
X117169345Y-91690295D01*
X117169333Y-91618676D01*
X117178510Y-91195356D01*
G36*
X117181917Y-89955010D02*
G01*
X117246027Y-89838732D01*
X117401205Y-89741595D01*
X117592667Y-89658020D01*
X117827281Y-89550040D01*
X117981007Y-89459193D01*
X118016000Y-89420000D01*
X117944558Y-89355899D01*
X117760731Y-89256957D01*
X117592667Y-89181981D01*
X117346935Y-89070911D01*
X117220882Y-88972938D01*
X117174968Y-88843513D01*
X117169333Y-88705026D01*
X117169333Y-88404000D01*
X119032000Y-88404000D01*
X119032000Y-88611958D01*
X119022184Y-88719597D01*
X118968614Y-88783920D01*
X118835104Y-88818652D01*
X118585467Y-88837518D01*
X118418167Y-88844791D01*
X117804333Y-88869667D01*
X118248833Y-89070593D01*
X118544634Y-89231833D01*
X118683320Y-89375418D01*
X118693333Y-89420000D01*
X118610918Y-89556064D01*
X118368747Y-89711858D01*
X118248833Y-89769407D01*
X117804333Y-89970333D01*
X118418167Y-89995209D01*
X118734716Y-90011363D01*
X118918171Y-90036946D01*
X119004720Y-90085685D01*
X119030546Y-90171305D01*
X119032000Y-90228043D01*
X119032000Y-90436000D01*
X117169333Y-90436000D01*
X117169333Y-90134975D01*
X117181917Y-89955010D01*
G37*
X117181917Y-89955010D02*
X117246027Y-89838732D01*
X117401205Y-89741595D01*
X117592667Y-89658020D01*
X117827281Y-89550040D01*
X117981007Y-89459193D01*
X118016000Y-89420000D01*
X117944558Y-89355899D01*
X117760731Y-89256957D01*
X117592667Y-89181981D01*
X117346935Y-89070911D01*
X117220882Y-88972938D01*
X117174968Y-88843513D01*
X117169333Y-88705026D01*
X117169333Y-88404000D01*
X119032000Y-88404000D01*
X119032000Y-88611958D01*
X119022184Y-88719597D01*
X118968614Y-88783920D01*
X118835104Y-88818652D01*
X118585467Y-88837518D01*
X118418167Y-88844791D01*
X117804333Y-88869667D01*
X118248833Y-89070593D01*
X118544634Y-89231833D01*
X118683320Y-89375418D01*
X118693333Y-89420000D01*
X118610918Y-89556064D01*
X118368747Y-89711858D01*
X118248833Y-89769407D01*
X117804333Y-89970333D01*
X118418167Y-89995209D01*
X118734716Y-90011363D01*
X118918171Y-90036946D01*
X119004720Y-90085685D01*
X119030546Y-90171305D01*
X119032000Y-90228043D01*
X119032000Y-90436000D01*
X117169333Y-90436000D01*
X117169333Y-90134975D01*
X117181917Y-89955010D01*
G36*
X115429589Y-91013853D02*
G01*
X115537208Y-90420147D01*
X115637122Y-89871134D01*
X115724698Y-89392101D01*
X115795302Y-89008338D01*
X115844301Y-88745133D01*
X115865142Y-88636833D01*
X115917198Y-88484425D01*
X116026037Y-88418282D01*
X116244727Y-88404000D01*
X116454384Y-88416191D01*
X116569244Y-88446573D01*
X116576667Y-88457898D01*
X116561898Y-88552064D01*
X116520207Y-88790941D01*
X116455520Y-89152743D01*
X116371760Y-89615681D01*
X116272851Y-90157966D01*
X116162718Y-90757812D01*
X116149683Y-90828565D01*
X115722699Y-93145334D01*
X116149683Y-95462102D01*
X116261052Y-96069724D01*
X116361593Y-96624676D01*
X116447356Y-97104650D01*
X116514395Y-97487336D01*
X116558761Y-97750426D01*
X116576508Y-97871610D01*
X116576667Y-97875102D01*
X116502233Y-97939406D01*
X116318832Y-97970707D01*
X116285330Y-97971333D01*
X116075631Y-97950501D01*
X115950864Y-97899634D01*
X115945289Y-97892527D01*
X115917855Y-97791630D01*
X115864737Y-97546155D01*
X115790299Y-97178171D01*
X115698908Y-96709745D01*
X115594930Y-96162947D01*
X115482731Y-95559845D01*
X115469132Y-95485880D01*
X115041682Y-93158039D01*
X115429589Y-91013853D01*
G37*
X115429589Y-91013853D02*
X115537208Y-90420147D01*
X115637122Y-89871134D01*
X115724698Y-89392101D01*
X115795302Y-89008338D01*
X115844301Y-88745133D01*
X115865142Y-88636833D01*
X115917198Y-88484425D01*
X116026037Y-88418282D01*
X116244727Y-88404000D01*
X116454384Y-88416191D01*
X116569244Y-88446573D01*
X116576667Y-88457898D01*
X116561898Y-88552064D01*
X116520207Y-88790941D01*
X116455520Y-89152743D01*
X116371760Y-89615681D01*
X116272851Y-90157966D01*
X116162718Y-90757812D01*
X116149683Y-90828565D01*
X115722699Y-93145334D01*
X116149683Y-95462102D01*
X116261052Y-96069724D01*
X116361593Y-96624676D01*
X116447356Y-97104650D01*
X116514395Y-97487336D01*
X116558761Y-97750426D01*
X116576508Y-97871610D01*
X116576667Y-97875102D01*
X116502233Y-97939406D01*
X116318832Y-97970707D01*
X116285330Y-97971333D01*
X116075631Y-97950501D01*
X115950864Y-97899634D01*
X115945289Y-97892527D01*
X115917855Y-97791630D01*
X115864737Y-97546155D01*
X115790299Y-97178171D01*
X115698908Y-96709745D01*
X115594930Y-96162947D01*
X115482731Y-95559845D01*
X115469132Y-95485880D01*
X115041682Y-93158039D01*
X115429589Y-91013853D01*
G36*
X122945231Y-78839167D02*
G01*
X123158111Y-78602935D01*
X123315961Y-78469597D01*
X123469733Y-78409977D01*
X123670380Y-78394903D01*
X123721564Y-78394667D01*
X124113215Y-78394667D01*
X123672121Y-78841309D01*
X123231028Y-79287951D01*
X123503641Y-79560564D01*
X123776254Y-79833178D01*
X124249471Y-79364899D01*
X124722687Y-78896620D01*
X126543753Y-78945000D01*
X126300410Y-79177833D01*
X126150301Y-79303636D01*
X125994676Y-79373933D01*
X125777766Y-79404383D01*
X125471158Y-79410667D01*
X124885249Y-79410667D01*
X124330669Y-79960997D01*
X123776089Y-80511328D01*
X123168319Y-79897497D01*
X122560549Y-79283667D01*
X122945231Y-78839167D01*
G37*
X122945231Y-78839167D02*
X123158111Y-78602935D01*
X123315961Y-78469597D01*
X123469733Y-78409977D01*
X123670380Y-78394903D01*
X123721564Y-78394667D01*
X124113215Y-78394667D01*
X123672121Y-78841309D01*
X123231028Y-79287951D01*
X123503641Y-79560564D01*
X123776254Y-79833178D01*
X124249471Y-79364899D01*
X124722687Y-78896620D01*
X126543753Y-78945000D01*
X126300410Y-79177833D01*
X126150301Y-79303636D01*
X125994676Y-79373933D01*
X125777766Y-79404383D01*
X125471158Y-79410667D01*
X124885249Y-79410667D01*
X124330669Y-79960997D01*
X123776089Y-80511328D01*
X123168319Y-79897497D01*
X122560549Y-79283667D01*
X122945231Y-78839167D01*
G36*
X124682707Y-77977800D02*
G01*
X124755179Y-77905399D01*
X124935278Y-77887068D01*
X125008000Y-77886667D01*
X125346667Y-77886667D01*
X125346667Y-77209333D01*
X125002376Y-77209333D01*
X124784237Y-77200484D01*
X124691189Y-77152374D01*
X124679128Y-77032663D01*
X124684876Y-76976500D01*
X124711667Y-76743667D01*
X125621833Y-76719636D01*
X126532000Y-76695605D01*
X126532000Y-76952469D01*
X126521196Y-77110402D01*
X126458135Y-77185203D01*
X126296845Y-77207864D01*
X126151000Y-77209333D01*
X125770000Y-77209333D01*
X125770000Y-77886667D01*
X126151000Y-77886667D01*
X126385283Y-77894030D01*
X126496247Y-77936543D01*
X126529846Y-78044843D01*
X126532000Y-78140667D01*
X126532000Y-78394667D01*
X124669333Y-78394667D01*
X124669333Y-78140667D01*
X124682707Y-77977800D01*
G37*
X124682707Y-77977800D02*
X124755179Y-77905399D01*
X124935278Y-77887068D01*
X125008000Y-77886667D01*
X125346667Y-77886667D01*
X125346667Y-77209333D01*
X125002376Y-77209333D01*
X124784237Y-77200484D01*
X124691189Y-77152374D01*
X124679128Y-77032663D01*
X124684876Y-76976500D01*
X124711667Y-76743667D01*
X125621833Y-76719636D01*
X126532000Y-76695605D01*
X126532000Y-76952469D01*
X126521196Y-77110402D01*
X126458135Y-77185203D01*
X126296845Y-77207864D01*
X126151000Y-77209333D01*
X125770000Y-77209333D01*
X125770000Y-77886667D01*
X126151000Y-77886667D01*
X126385283Y-77894030D01*
X126496247Y-77936543D01*
X126529846Y-78044843D01*
X126532000Y-78140667D01*
X126532000Y-78394667D01*
X124669333Y-78394667D01*
X124669333Y-78140667D01*
X124682707Y-77977800D01*
G36*
X124700286Y-75469040D02*
G01*
X124784681Y-75147051D01*
X124909818Y-74937448D01*
X124949797Y-74905186D01*
X125190252Y-74842610D01*
X125442162Y-74913327D01*
X125524145Y-74973038D01*
X125628457Y-75046761D01*
X125736282Y-75042382D01*
X125902824Y-74949975D01*
X125994965Y-74888371D01*
X126264688Y-74725591D01*
X126431800Y-74682043D01*
X126514390Y-74758192D01*
X126531771Y-74902167D01*
X126493330Y-75081024D01*
X126352073Y-75223127D01*
X126215270Y-75304333D01*
X126010789Y-75443350D01*
X125884943Y-75584499D01*
X125870624Y-75621833D01*
X125882265Y-75717912D01*
X125991832Y-75761258D01*
X126187125Y-75770000D01*
X126406847Y-75779567D01*
X126505526Y-75831900D01*
X126531292Y-75962448D01*
X126532000Y-76024000D01*
X126532000Y-76278000D01*
X125310222Y-76278000D01*
X125310222Y-75770000D01*
X125468798Y-75742360D01*
X125506054Y-75630783D01*
X125500722Y-75579500D01*
X125404307Y-75408334D01*
X125283167Y-75361945D01*
X125140873Y-75373301D01*
X125094375Y-75494121D01*
X125092667Y-75552445D01*
X125125115Y-75716163D01*
X125256412Y-75768394D01*
X125310222Y-75770000D01*
X125310222Y-76278000D01*
X124669333Y-76278000D01*
X124669333Y-75860179D01*
X124700286Y-75469040D01*
G37*
X124700286Y-75469040D02*
X124784681Y-75147051D01*
X124909818Y-74937448D01*
X124949797Y-74905186D01*
X125190252Y-74842610D01*
X125442162Y-74913327D01*
X125524145Y-74973038D01*
X125628457Y-75046761D01*
X125736282Y-75042382D01*
X125902824Y-74949975D01*
X125994965Y-74888371D01*
X126264688Y-74725591D01*
X126431800Y-74682043D01*
X126514390Y-74758192D01*
X126531771Y-74902167D01*
X126493330Y-75081024D01*
X126352073Y-75223127D01*
X126215270Y-75304333D01*
X126010789Y-75443350D01*
X125884943Y-75584499D01*
X125870624Y-75621833D01*
X125882265Y-75717912D01*
X125991832Y-75761258D01*
X126187125Y-75770000D01*
X126406847Y-75779567D01*
X126505526Y-75831900D01*
X126531292Y-75962448D01*
X126532000Y-76024000D01*
X126532000Y-76278000D01*
X125310222Y-76278000D01*
X125310222Y-75770000D01*
X125468798Y-75742360D01*
X125506054Y-75630783D01*
X125500722Y-75579500D01*
X125404307Y-75408334D01*
X125283167Y-75361945D01*
X125140873Y-75373301D01*
X125094375Y-75494121D01*
X125092667Y-75552445D01*
X125125115Y-75716163D01*
X125256412Y-75768394D01*
X125310222Y-75770000D01*
X125310222Y-76278000D01*
X124669333Y-76278000D01*
X124669333Y-75860179D01*
X124700286Y-75469040D01*
G36*
X124669805Y-73970833D02*
G01*
X124721315Y-73439594D01*
X124873016Y-73040486D01*
X125123012Y-72776120D01*
X125469408Y-72649103D01*
X125638453Y-72637333D01*
X126009460Y-72703514D01*
X126280497Y-72903323D01*
X126452941Y-73238661D01*
X126528169Y-73711430D01*
X126532000Y-73870512D01*
X126532000Y-74330667D01*
X125644613Y-74330667D01*
X125644613Y-73822667D01*
X126196559Y-73822667D01*
X126140938Y-73589833D01*
X126070607Y-73378614D01*
X126001958Y-73251167D01*
X125845374Y-73168133D01*
X125609954Y-73150108D01*
X125372081Y-73194416D01*
X125225714Y-73278381D01*
X125119315Y-73467315D01*
X125092667Y-73617048D01*
X125103053Y-73727500D01*
X125159649Y-73789094D01*
X125300611Y-73816043D01*
X125564093Y-73822563D01*
X125644613Y-73822667D01*
X125644613Y-74330667D01*
X124669333Y-74330667D01*
X124669805Y-73970833D01*
G37*
X124669805Y-73970833D02*
X124721315Y-73439594D01*
X124873016Y-73040486D01*
X125123012Y-72776120D01*
X125469408Y-72649103D01*
X125638453Y-72637333D01*
X126009460Y-72703514D01*
X126280497Y-72903323D01*
X126452941Y-73238661D01*
X126528169Y-73711430D01*
X126532000Y-73870512D01*
X126532000Y-74330667D01*
X125644613Y-74330667D01*
X125644613Y-73822667D01*
X126196559Y-73822667D01*
X126140938Y-73589833D01*
X126070607Y-73378614D01*
X126001958Y-73251167D01*
X125845374Y-73168133D01*
X125609954Y-73150108D01*
X125372081Y-73194416D01*
X125225714Y-73278381D01*
X125119315Y-73467315D01*
X125092667Y-73617048D01*
X125103053Y-73727500D01*
X125159649Y-73789094D01*
X125300611Y-73816043D01*
X125564093Y-73822563D01*
X125644613Y-73822667D01*
X125644613Y-74330667D01*
X124669333Y-74330667D01*
X124669805Y-73970833D01*
G36*
X124678510Y-71195356D02*
G01*
X124718742Y-70930960D01*
X124809087Y-70816646D01*
X124968597Y-70843575D01*
X125216330Y-71002906D01*
X125504714Y-71231100D01*
X125769371Y-71442949D01*
X125984072Y-71606103D01*
X126115987Y-71695990D01*
X126139258Y-71706000D01*
X126168878Y-71629413D01*
X126188519Y-71431859D01*
X126193333Y-71240333D01*
X126200683Y-70971226D01*
X126232461Y-70831035D01*
X126303260Y-70779633D01*
X126362667Y-70774667D01*
X126441369Y-70786813D01*
X126491040Y-70844190D01*
X126518294Y-70978211D01*
X126529741Y-71220285D01*
X126532000Y-71579000D01*
X126528775Y-71954968D01*
X126515244Y-72192479D01*
X126485626Y-72322352D01*
X126434137Y-72375403D01*
X126381075Y-72383333D01*
X126250319Y-72331631D01*
X126031943Y-72193742D01*
X125765320Y-71995494D01*
X125661408Y-71911255D01*
X125092667Y-71439176D01*
X125092667Y-71911255D01*
X125087345Y-72180237D01*
X125059073Y-72321118D01*
X124989391Y-72375069D01*
X124881000Y-72383333D01*
X124780940Y-72377298D01*
X124718748Y-72337505D01*
X124685422Y-72231426D01*
X124671955Y-72026532D01*
X124669345Y-71690295D01*
X124669333Y-71618676D01*
X124678510Y-71195356D01*
G37*
X124678510Y-71195356D02*
X124718742Y-70930960D01*
X124809087Y-70816646D01*
X124968597Y-70843575D01*
X125216330Y-71002906D01*
X125504714Y-71231100D01*
X125769371Y-71442949D01*
X125984072Y-71606103D01*
X126115987Y-71695990D01*
X126139258Y-71706000D01*
X126168878Y-71629413D01*
X126188519Y-71431859D01*
X126193333Y-71240333D01*
X126200683Y-70971226D01*
X126232461Y-70831035D01*
X126303260Y-70779633D01*
X126362667Y-70774667D01*
X126441369Y-70786813D01*
X126491040Y-70844190D01*
X126518294Y-70978211D01*
X126529741Y-71220285D01*
X126532000Y-71579000D01*
X126528775Y-71954968D01*
X126515244Y-72192479D01*
X126485626Y-72322352D01*
X126434137Y-72375403D01*
X126381075Y-72383333D01*
X126250319Y-72331631D01*
X126031943Y-72193742D01*
X125765320Y-71995494D01*
X125661408Y-71911255D01*
X125092667Y-71439176D01*
X125092667Y-71911255D01*
X125087345Y-72180237D01*
X125059073Y-72321118D01*
X124989391Y-72375069D01*
X124881000Y-72383333D01*
X124780940Y-72377298D01*
X124718748Y-72337505D01*
X124685422Y-72231426D01*
X124671955Y-72026532D01*
X124669345Y-71690295D01*
X124669333Y-71618676D01*
X124678510Y-71195356D01*
G36*
X124681917Y-69955010D02*
G01*
X124746027Y-69838732D01*
X124901205Y-69741595D01*
X125092667Y-69658020D01*
X125327281Y-69550040D01*
X125481007Y-69459193D01*
X125516000Y-69420000D01*
X125444558Y-69355899D01*
X125260731Y-69256957D01*
X125092667Y-69181981D01*
X124846935Y-69070911D01*
X124720882Y-68972938D01*
X124674968Y-68843513D01*
X124669333Y-68705026D01*
X124669333Y-68404000D01*
X126532000Y-68404000D01*
X126532000Y-68611958D01*
X126522184Y-68719597D01*
X126468614Y-68783920D01*
X126335104Y-68818652D01*
X126085467Y-68837518D01*
X125918167Y-68844791D01*
X125304333Y-68869667D01*
X125748833Y-69070593D01*
X126044634Y-69231833D01*
X126183320Y-69375418D01*
X126193333Y-69420000D01*
X126110918Y-69556064D01*
X125868747Y-69711858D01*
X125748833Y-69769407D01*
X125304333Y-69970333D01*
X125918167Y-69995209D01*
X126234716Y-70011363D01*
X126418171Y-70036946D01*
X126504720Y-70085685D01*
X126530546Y-70171305D01*
X126532000Y-70228043D01*
X126532000Y-70436000D01*
X124669333Y-70436000D01*
X124669333Y-70134975D01*
X124681917Y-69955010D01*
G37*
X124681917Y-69955010D02*
X124746027Y-69838732D01*
X124901205Y-69741595D01*
X125092667Y-69658020D01*
X125327281Y-69550040D01*
X125481007Y-69459193D01*
X125516000Y-69420000D01*
X125444558Y-69355899D01*
X125260731Y-69256957D01*
X125092667Y-69181981D01*
X124846935Y-69070911D01*
X124720882Y-68972938D01*
X124674968Y-68843513D01*
X124669333Y-68705026D01*
X124669333Y-68404000D01*
X126532000Y-68404000D01*
X126532000Y-68611958D01*
X126522184Y-68719597D01*
X126468614Y-68783920D01*
X126335104Y-68818652D01*
X126085467Y-68837518D01*
X125918167Y-68844791D01*
X125304333Y-68869667D01*
X125748833Y-69070593D01*
X126044634Y-69231833D01*
X126183320Y-69375418D01*
X126193333Y-69420000D01*
X126110918Y-69556064D01*
X125868747Y-69711858D01*
X125748833Y-69769407D01*
X125304333Y-69970333D01*
X125918167Y-69995209D01*
X126234716Y-70011363D01*
X126418171Y-70036946D01*
X126504720Y-70085685D01*
X126530546Y-70171305D01*
X126532000Y-70228043D01*
X126532000Y-70436000D01*
X124669333Y-70436000D01*
X124669333Y-70134975D01*
X124681917Y-69955010D01*
G36*
X122929589Y-71013853D02*
G01*
X123037208Y-70420147D01*
X123137122Y-69871134D01*
X123224698Y-69392101D01*
X123295302Y-69008338D01*
X123344301Y-68745133D01*
X123365142Y-68636833D01*
X123417198Y-68484425D01*
X123526037Y-68418282D01*
X123744727Y-68404000D01*
X123954384Y-68416191D01*
X124069244Y-68446573D01*
X124076667Y-68457898D01*
X124061898Y-68552064D01*
X124020207Y-68790941D01*
X123955520Y-69152743D01*
X123871760Y-69615681D01*
X123772851Y-70157966D01*
X123662718Y-70757812D01*
X123649683Y-70828565D01*
X123222699Y-73145334D01*
X123649683Y-75462102D01*
X123761052Y-76069724D01*
X123861593Y-76624676D01*
X123947356Y-77104650D01*
X124014395Y-77487336D01*
X124058761Y-77750426D01*
X124076508Y-77871610D01*
X124076667Y-77875102D01*
X124002233Y-77939406D01*
X123818832Y-77970707D01*
X123785330Y-77971333D01*
X123575631Y-77950501D01*
X123450864Y-77899634D01*
X123445289Y-77892527D01*
X123417855Y-77791630D01*
X123364737Y-77546155D01*
X123290299Y-77178171D01*
X123198908Y-76709745D01*
X123094930Y-76162947D01*
X122982731Y-75559845D01*
X122969132Y-75485880D01*
X122541682Y-73158039D01*
X122929589Y-71013853D01*
G37*
X122929589Y-71013853D02*
X123037208Y-70420147D01*
X123137122Y-69871134D01*
X123224698Y-69392101D01*
X123295302Y-69008338D01*
X123344301Y-68745133D01*
X123365142Y-68636833D01*
X123417198Y-68484425D01*
X123526037Y-68418282D01*
X123744727Y-68404000D01*
X123954384Y-68416191D01*
X124069244Y-68446573D01*
X124076667Y-68457898D01*
X124061898Y-68552064D01*
X124020207Y-68790941D01*
X123955520Y-69152743D01*
X123871760Y-69615681D01*
X123772851Y-70157966D01*
X123662718Y-70757812D01*
X123649683Y-70828565D01*
X123222699Y-73145334D01*
X123649683Y-75462102D01*
X123761052Y-76069724D01*
X123861593Y-76624676D01*
X123947356Y-77104650D01*
X124014395Y-77487336D01*
X124058761Y-77750426D01*
X124076508Y-77871610D01*
X124076667Y-77875102D01*
X124002233Y-77939406D01*
X123818832Y-77970707D01*
X123785330Y-77971333D01*
X123575631Y-77950501D01*
X123450864Y-77899634D01*
X123445289Y-77892527D01*
X123417855Y-77791630D01*
X123364737Y-77546155D01*
X123290299Y-77178171D01*
X123198908Y-76709745D01*
X123094930Y-76162947D01*
X122982731Y-75559845D01*
X122969132Y-75485880D01*
X122541682Y-73158039D01*
X122929589Y-71013853D01*
G36*
X115429589Y-71013853D02*
G01*
X115537208Y-70420147D01*
X115637122Y-69871134D01*
X115724698Y-69392101D01*
X115795302Y-69008338D01*
X115844301Y-68745133D01*
X115865142Y-68636833D01*
X115917198Y-68484425D01*
X116026037Y-68418282D01*
X116244727Y-68404000D01*
X116454384Y-68416191D01*
X116569244Y-68446573D01*
X116576667Y-68457898D01*
X116561898Y-68552064D01*
X116520207Y-68790941D01*
X116455520Y-69152743D01*
X116371760Y-69615681D01*
X116272851Y-70157966D01*
X116162718Y-70757812D01*
X116149683Y-70828565D01*
X115722699Y-73145334D01*
X116149683Y-75462102D01*
X116261052Y-76069724D01*
X116361593Y-76624676D01*
X116447356Y-77104650D01*
X116514395Y-77487336D01*
X116558761Y-77750426D01*
X116576508Y-77871610D01*
X116576667Y-77875102D01*
X116502233Y-77939406D01*
X116318832Y-77970707D01*
X116285330Y-77971333D01*
X116075631Y-77950501D01*
X115950864Y-77899634D01*
X115945289Y-77892527D01*
X115917855Y-77791630D01*
X115864737Y-77546155D01*
X115790299Y-77178171D01*
X115698908Y-76709745D01*
X115594930Y-76162947D01*
X115482731Y-75559845D01*
X115469132Y-75485880D01*
X115041682Y-73158039D01*
X115429589Y-71013853D01*
G37*
X115429589Y-71013853D02*
X115537208Y-70420147D01*
X115637122Y-69871134D01*
X115724698Y-69392101D01*
X115795302Y-69008338D01*
X115844301Y-68745133D01*
X115865142Y-68636833D01*
X115917198Y-68484425D01*
X116026037Y-68418282D01*
X116244727Y-68404000D01*
X116454384Y-68416191D01*
X116569244Y-68446573D01*
X116576667Y-68457898D01*
X116561898Y-68552064D01*
X116520207Y-68790941D01*
X116455520Y-69152743D01*
X116371760Y-69615681D01*
X116272851Y-70157966D01*
X116162718Y-70757812D01*
X116149683Y-70828565D01*
X115722699Y-73145334D01*
X116149683Y-75462102D01*
X116261052Y-76069724D01*
X116361593Y-76624676D01*
X116447356Y-77104650D01*
X116514395Y-77487336D01*
X116558761Y-77750426D01*
X116576508Y-77871610D01*
X116576667Y-77875102D01*
X116502233Y-77939406D01*
X116318832Y-77970707D01*
X116285330Y-77971333D01*
X116075631Y-77950501D01*
X115950864Y-77899634D01*
X115945289Y-77892527D01*
X115917855Y-77791630D01*
X115864737Y-77546155D01*
X115790299Y-77178171D01*
X115698908Y-76709745D01*
X115594930Y-76162947D01*
X115482731Y-75559845D01*
X115469132Y-75485880D01*
X115041682Y-73158039D01*
X115429589Y-71013853D01*
G36*
X117181917Y-69955010D02*
G01*
X117246027Y-69838732D01*
X117401205Y-69741595D01*
X117592667Y-69658020D01*
X117827281Y-69550040D01*
X117981007Y-69459193D01*
X118016000Y-69420000D01*
X117944558Y-69355899D01*
X117760731Y-69256957D01*
X117592667Y-69181981D01*
X117346935Y-69070911D01*
X117220882Y-68972938D01*
X117174968Y-68843513D01*
X117169333Y-68705026D01*
X117169333Y-68404000D01*
X119032000Y-68404000D01*
X119032000Y-68611958D01*
X119022184Y-68719597D01*
X118968614Y-68783920D01*
X118835104Y-68818652D01*
X118585467Y-68837518D01*
X118418167Y-68844791D01*
X117804333Y-68869667D01*
X118248833Y-69070593D01*
X118544634Y-69231833D01*
X118683320Y-69375418D01*
X118693333Y-69420000D01*
X118610918Y-69556064D01*
X118368747Y-69711858D01*
X118248833Y-69769407D01*
X117804333Y-69970333D01*
X118418167Y-69995209D01*
X118734716Y-70011363D01*
X118918171Y-70036946D01*
X119004720Y-70085685D01*
X119030546Y-70171305D01*
X119032000Y-70228043D01*
X119032000Y-70436000D01*
X117169333Y-70436000D01*
X117169333Y-70134975D01*
X117181917Y-69955010D01*
G37*
X117181917Y-69955010D02*
X117246027Y-69838732D01*
X117401205Y-69741595D01*
X117592667Y-69658020D01*
X117827281Y-69550040D01*
X117981007Y-69459193D01*
X118016000Y-69420000D01*
X117944558Y-69355899D01*
X117760731Y-69256957D01*
X117592667Y-69181981D01*
X117346935Y-69070911D01*
X117220882Y-68972938D01*
X117174968Y-68843513D01*
X117169333Y-68705026D01*
X117169333Y-68404000D01*
X119032000Y-68404000D01*
X119032000Y-68611958D01*
X119022184Y-68719597D01*
X118968614Y-68783920D01*
X118835104Y-68818652D01*
X118585467Y-68837518D01*
X118418167Y-68844791D01*
X117804333Y-68869667D01*
X118248833Y-69070593D01*
X118544634Y-69231833D01*
X118683320Y-69375418D01*
X118693333Y-69420000D01*
X118610918Y-69556064D01*
X118368747Y-69711858D01*
X118248833Y-69769407D01*
X117804333Y-69970333D01*
X118418167Y-69995209D01*
X118734716Y-70011363D01*
X118918171Y-70036946D01*
X119004720Y-70085685D01*
X119030546Y-70171305D01*
X119032000Y-70228043D01*
X119032000Y-70436000D01*
X117169333Y-70436000D01*
X117169333Y-70134975D01*
X117181917Y-69955010D01*
G36*
X117178510Y-71195356D02*
G01*
X117218742Y-70930960D01*
X117309087Y-70816646D01*
X117468597Y-70843575D01*
X117716330Y-71002906D01*
X118004714Y-71231100D01*
X118269371Y-71442949D01*
X118484072Y-71606103D01*
X118615987Y-71695990D01*
X118639258Y-71706000D01*
X118668878Y-71629413D01*
X118688519Y-71431859D01*
X118693333Y-71240333D01*
X118700683Y-70971226D01*
X118732461Y-70831035D01*
X118803260Y-70779633D01*
X118862667Y-70774667D01*
X118941369Y-70786813D01*
X118991040Y-70844190D01*
X119018294Y-70978211D01*
X119029741Y-71220285D01*
X119032000Y-71579000D01*
X119028775Y-71954968D01*
X119015244Y-72192479D01*
X118985626Y-72322352D01*
X118934137Y-72375403D01*
X118881075Y-72383333D01*
X118750319Y-72331631D01*
X118531943Y-72193742D01*
X118265320Y-71995494D01*
X118161408Y-71911255D01*
X117592667Y-71439176D01*
X117592667Y-71911255D01*
X117587345Y-72180237D01*
X117559073Y-72321118D01*
X117489391Y-72375069D01*
X117381000Y-72383333D01*
X117280940Y-72377298D01*
X117218748Y-72337505D01*
X117185422Y-72231426D01*
X117171955Y-72026532D01*
X117169345Y-71690295D01*
X117169333Y-71618676D01*
X117178510Y-71195356D01*
G37*
X117178510Y-71195356D02*
X117218742Y-70930960D01*
X117309087Y-70816646D01*
X117468597Y-70843575D01*
X117716330Y-71002906D01*
X118004714Y-71231100D01*
X118269371Y-71442949D01*
X118484072Y-71606103D01*
X118615987Y-71695990D01*
X118639258Y-71706000D01*
X118668878Y-71629413D01*
X118688519Y-71431859D01*
X118693333Y-71240333D01*
X118700683Y-70971226D01*
X118732461Y-70831035D01*
X118803260Y-70779633D01*
X118862667Y-70774667D01*
X118941369Y-70786813D01*
X118991040Y-70844190D01*
X119018294Y-70978211D01*
X119029741Y-71220285D01*
X119032000Y-71579000D01*
X119028775Y-71954968D01*
X119015244Y-72192479D01*
X118985626Y-72322352D01*
X118934137Y-72375403D01*
X118881075Y-72383333D01*
X118750319Y-72331631D01*
X118531943Y-72193742D01*
X118265320Y-71995494D01*
X118161408Y-71911255D01*
X117592667Y-71439176D01*
X117592667Y-71911255D01*
X117587345Y-72180237D01*
X117559073Y-72321118D01*
X117489391Y-72375069D01*
X117381000Y-72383333D01*
X117280940Y-72377298D01*
X117218748Y-72337505D01*
X117185422Y-72231426D01*
X117171955Y-72026532D01*
X117169345Y-71690295D01*
X117169333Y-71618676D01*
X117178510Y-71195356D01*
G36*
X117169805Y-73970833D02*
G01*
X117221315Y-73439594D01*
X117373016Y-73040486D01*
X117623012Y-72776120D01*
X117969408Y-72649103D01*
X118138453Y-72637333D01*
X118509460Y-72703514D01*
X118780497Y-72903323D01*
X118952941Y-73238661D01*
X119028169Y-73711430D01*
X119032000Y-73870512D01*
X119032000Y-74330667D01*
X118144613Y-74330667D01*
X118144613Y-73822667D01*
X118696559Y-73822667D01*
X118640938Y-73589833D01*
X118570607Y-73378614D01*
X118501958Y-73251167D01*
X118345374Y-73168133D01*
X118109954Y-73150108D01*
X117872081Y-73194416D01*
X117725714Y-73278381D01*
X117619315Y-73467315D01*
X117592667Y-73617048D01*
X117603053Y-73727500D01*
X117659649Y-73789094D01*
X117800611Y-73816043D01*
X118064093Y-73822563D01*
X118144613Y-73822667D01*
X118144613Y-74330667D01*
X117169333Y-74330667D01*
X117169805Y-73970833D01*
G37*
X117169805Y-73970833D02*
X117221315Y-73439594D01*
X117373016Y-73040486D01*
X117623012Y-72776120D01*
X117969408Y-72649103D01*
X118138453Y-72637333D01*
X118509460Y-72703514D01*
X118780497Y-72903323D01*
X118952941Y-73238661D01*
X119028169Y-73711430D01*
X119032000Y-73870512D01*
X119032000Y-74330667D01*
X118144613Y-74330667D01*
X118144613Y-73822667D01*
X118696559Y-73822667D01*
X118640938Y-73589833D01*
X118570607Y-73378614D01*
X118501958Y-73251167D01*
X118345374Y-73168133D01*
X118109954Y-73150108D01*
X117872081Y-73194416D01*
X117725714Y-73278381D01*
X117619315Y-73467315D01*
X117592667Y-73617048D01*
X117603053Y-73727500D01*
X117659649Y-73789094D01*
X117800611Y-73816043D01*
X118064093Y-73822563D01*
X118144613Y-73822667D01*
X118144613Y-74330667D01*
X117169333Y-74330667D01*
X117169805Y-73970833D01*
G36*
X117200286Y-75469040D02*
G01*
X117284681Y-75147051D01*
X117409818Y-74937448D01*
X117449797Y-74905186D01*
X117690252Y-74842610D01*
X117942162Y-74913327D01*
X118024145Y-74973038D01*
X118128457Y-75046761D01*
X118236282Y-75042382D01*
X118402824Y-74949975D01*
X118494965Y-74888371D01*
X118764688Y-74725591D01*
X118931800Y-74682043D01*
X119014390Y-74758192D01*
X119031771Y-74902167D01*
X118993330Y-75081024D01*
X118852073Y-75223127D01*
X118715270Y-75304333D01*
X118510789Y-75443350D01*
X118384943Y-75584499D01*
X118370624Y-75621833D01*
X118382265Y-75717912D01*
X118491832Y-75761258D01*
X118687125Y-75770000D01*
X118906847Y-75779567D01*
X119005526Y-75831900D01*
X119031292Y-75962448D01*
X119032000Y-76024000D01*
X119032000Y-76278000D01*
X117810222Y-76278000D01*
X117810222Y-75770000D01*
X117968798Y-75742360D01*
X118006054Y-75630783D01*
X118000722Y-75579500D01*
X117904307Y-75408334D01*
X117783167Y-75361945D01*
X117640873Y-75373301D01*
X117594375Y-75494121D01*
X117592667Y-75552445D01*
X117625115Y-75716163D01*
X117756412Y-75768394D01*
X117810222Y-75770000D01*
X117810222Y-76278000D01*
X117169333Y-76278000D01*
X117169333Y-75860179D01*
X117200286Y-75469040D01*
G37*
X117200286Y-75469040D02*
X117284681Y-75147051D01*
X117409818Y-74937448D01*
X117449797Y-74905186D01*
X117690252Y-74842610D01*
X117942162Y-74913327D01*
X118024145Y-74973038D01*
X118128457Y-75046761D01*
X118236282Y-75042382D01*
X118402824Y-74949975D01*
X118494965Y-74888371D01*
X118764688Y-74725591D01*
X118931800Y-74682043D01*
X119014390Y-74758192D01*
X119031771Y-74902167D01*
X118993330Y-75081024D01*
X118852073Y-75223127D01*
X118715270Y-75304333D01*
X118510789Y-75443350D01*
X118384943Y-75584499D01*
X118370624Y-75621833D01*
X118382265Y-75717912D01*
X118491832Y-75761258D01*
X118687125Y-75770000D01*
X118906847Y-75779567D01*
X119005526Y-75831900D01*
X119031292Y-75962448D01*
X119032000Y-76024000D01*
X119032000Y-76278000D01*
X117810222Y-76278000D01*
X117810222Y-75770000D01*
X117968798Y-75742360D01*
X118006054Y-75630783D01*
X118000722Y-75579500D01*
X117904307Y-75408334D01*
X117783167Y-75361945D01*
X117640873Y-75373301D01*
X117594375Y-75494121D01*
X117592667Y-75552445D01*
X117625115Y-75716163D01*
X117756412Y-75768394D01*
X117810222Y-75770000D01*
X117810222Y-76278000D01*
X117169333Y-76278000D01*
X117169333Y-75860179D01*
X117200286Y-75469040D01*
G36*
X117182707Y-77977800D02*
G01*
X117255179Y-77905399D01*
X117435278Y-77887068D01*
X117508000Y-77886667D01*
X117846667Y-77886667D01*
X117846667Y-77209333D01*
X117502376Y-77209333D01*
X117284237Y-77200484D01*
X117191189Y-77152374D01*
X117179128Y-77032663D01*
X117184876Y-76976500D01*
X117211667Y-76743667D01*
X118121833Y-76719636D01*
X119032000Y-76695605D01*
X119032000Y-76952469D01*
X119021196Y-77110402D01*
X118958135Y-77185203D01*
X118796845Y-77207864D01*
X118651000Y-77209333D01*
X118270000Y-77209333D01*
X118270000Y-77886667D01*
X118651000Y-77886667D01*
X118885283Y-77894030D01*
X118996247Y-77936543D01*
X119029846Y-78044843D01*
X119032000Y-78140667D01*
X119032000Y-78394667D01*
X117169333Y-78394667D01*
X117169333Y-78140667D01*
X117182707Y-77977800D01*
G37*
X117182707Y-77977800D02*
X117255179Y-77905399D01*
X117435278Y-77887068D01*
X117508000Y-77886667D01*
X117846667Y-77886667D01*
X117846667Y-77209333D01*
X117502376Y-77209333D01*
X117284237Y-77200484D01*
X117191189Y-77152374D01*
X117179128Y-77032663D01*
X117184876Y-76976500D01*
X117211667Y-76743667D01*
X118121833Y-76719636D01*
X119032000Y-76695605D01*
X119032000Y-76952469D01*
X119021196Y-77110402D01*
X118958135Y-77185203D01*
X118796845Y-77207864D01*
X118651000Y-77209333D01*
X118270000Y-77209333D01*
X118270000Y-77886667D01*
X118651000Y-77886667D01*
X118885283Y-77894030D01*
X118996247Y-77936543D01*
X119029846Y-78044843D01*
X119032000Y-78140667D01*
X119032000Y-78394667D01*
X117169333Y-78394667D01*
X117169333Y-78140667D01*
X117182707Y-77977800D01*
G36*
X115445231Y-78839167D02*
G01*
X115658111Y-78602935D01*
X115815961Y-78469597D01*
X115969733Y-78409977D01*
X116170380Y-78394903D01*
X116221564Y-78394667D01*
X116613215Y-78394667D01*
X116172121Y-78841309D01*
X115731028Y-79287951D01*
X116003641Y-79560564D01*
X116276254Y-79833178D01*
X116749471Y-79364899D01*
X117222687Y-78896620D01*
X119043753Y-78945000D01*
X118800410Y-79177833D01*
X118650301Y-79303636D01*
X118494676Y-79373933D01*
X118277766Y-79404383D01*
X117971158Y-79410667D01*
X117385249Y-79410667D01*
X116830669Y-79960997D01*
X116276089Y-80511328D01*
X115668319Y-79897497D01*
X115060549Y-79283667D01*
X115445231Y-78839167D01*
G37*
X115445231Y-78839167D02*
X115658111Y-78602935D01*
X115815961Y-78469597D01*
X115969733Y-78409977D01*
X116170380Y-78394903D01*
X116221564Y-78394667D01*
X116613215Y-78394667D01*
X116172121Y-78841309D01*
X115731028Y-79287951D01*
X116003641Y-79560564D01*
X116276254Y-79833178D01*
X116749471Y-79364899D01*
X117222687Y-78896620D01*
X119043753Y-78945000D01*
X118800410Y-79177833D01*
X118650301Y-79303636D01*
X118494676Y-79373933D01*
X118277766Y-79404383D01*
X117971158Y-79410667D01*
X117385249Y-79410667D01*
X116830669Y-79960997D01*
X116276089Y-80511328D01*
X115668319Y-79897497D01*
X115060549Y-79283667D01*
X115445231Y-78839167D01*
G36*
X115445231Y-58839167D02*
G01*
X115658111Y-58602935D01*
X115815961Y-58469597D01*
X115969733Y-58409977D01*
X116170380Y-58394903D01*
X116221564Y-58394667D01*
X116613215Y-58394667D01*
X116172121Y-58841309D01*
X115731028Y-59287951D01*
X116003641Y-59560564D01*
X116276254Y-59833178D01*
X116749471Y-59364899D01*
X117222687Y-58896620D01*
X119043753Y-58945000D01*
X118800410Y-59177833D01*
X118650301Y-59303636D01*
X118494676Y-59373933D01*
X118277766Y-59404383D01*
X117971158Y-59410667D01*
X117385249Y-59410667D01*
X116830669Y-59960997D01*
X116276089Y-60511328D01*
X115668319Y-59897497D01*
X115060549Y-59283667D01*
X115445231Y-58839167D01*
G37*
X115445231Y-58839167D02*
X115658111Y-58602935D01*
X115815961Y-58469597D01*
X115969733Y-58409977D01*
X116170380Y-58394903D01*
X116221564Y-58394667D01*
X116613215Y-58394667D01*
X116172121Y-58841309D01*
X115731028Y-59287951D01*
X116003641Y-59560564D01*
X116276254Y-59833178D01*
X116749471Y-59364899D01*
X117222687Y-58896620D01*
X119043753Y-58945000D01*
X118800410Y-59177833D01*
X118650301Y-59303636D01*
X118494676Y-59373933D01*
X118277766Y-59404383D01*
X117971158Y-59410667D01*
X117385249Y-59410667D01*
X116830669Y-59960997D01*
X116276089Y-60511328D01*
X115668319Y-59897497D01*
X115060549Y-59283667D01*
X115445231Y-58839167D01*
G36*
X117182707Y-57977800D02*
G01*
X117255179Y-57905399D01*
X117435278Y-57887068D01*
X117508000Y-57886667D01*
X117846667Y-57886667D01*
X117846667Y-57209333D01*
X117502376Y-57209333D01*
X117284237Y-57200484D01*
X117191189Y-57152374D01*
X117179128Y-57032663D01*
X117184876Y-56976500D01*
X117211667Y-56743667D01*
X118121833Y-56719636D01*
X119032000Y-56695605D01*
X119032000Y-56952469D01*
X119021196Y-57110402D01*
X118958135Y-57185203D01*
X118796845Y-57207864D01*
X118651000Y-57209333D01*
X118270000Y-57209333D01*
X118270000Y-57886667D01*
X118651000Y-57886667D01*
X118885283Y-57894030D01*
X118996247Y-57936543D01*
X119029846Y-58044843D01*
X119032000Y-58140667D01*
X119032000Y-58394667D01*
X117169333Y-58394667D01*
X117169333Y-58140667D01*
X117182707Y-57977800D01*
G37*
X117182707Y-57977800D02*
X117255179Y-57905399D01*
X117435278Y-57887068D01*
X117508000Y-57886667D01*
X117846667Y-57886667D01*
X117846667Y-57209333D01*
X117502376Y-57209333D01*
X117284237Y-57200484D01*
X117191189Y-57152374D01*
X117179128Y-57032663D01*
X117184876Y-56976500D01*
X117211667Y-56743667D01*
X118121833Y-56719636D01*
X119032000Y-56695605D01*
X119032000Y-56952469D01*
X119021196Y-57110402D01*
X118958135Y-57185203D01*
X118796845Y-57207864D01*
X118651000Y-57209333D01*
X118270000Y-57209333D01*
X118270000Y-57886667D01*
X118651000Y-57886667D01*
X118885283Y-57894030D01*
X118996247Y-57936543D01*
X119029846Y-58044843D01*
X119032000Y-58140667D01*
X119032000Y-58394667D01*
X117169333Y-58394667D01*
X117169333Y-58140667D01*
X117182707Y-57977800D01*
G36*
X117200286Y-55469040D02*
G01*
X117284681Y-55147051D01*
X117409818Y-54937448D01*
X117449797Y-54905186D01*
X117690252Y-54842610D01*
X117942162Y-54913327D01*
X118024145Y-54973038D01*
X118128457Y-55046761D01*
X118236282Y-55042382D01*
X118402824Y-54949975D01*
X118494965Y-54888371D01*
X118764688Y-54725591D01*
X118931800Y-54682043D01*
X119014390Y-54758192D01*
X119031771Y-54902167D01*
X118993330Y-55081024D01*
X118852073Y-55223127D01*
X118715270Y-55304333D01*
X118510789Y-55443350D01*
X118384943Y-55584499D01*
X118370624Y-55621833D01*
X118382265Y-55717912D01*
X118491832Y-55761258D01*
X118687125Y-55770000D01*
X118906847Y-55779567D01*
X119005526Y-55831900D01*
X119031292Y-55962448D01*
X119032000Y-56024000D01*
X119032000Y-56278000D01*
X117810222Y-56278000D01*
X117810222Y-55770000D01*
X117968798Y-55742360D01*
X118006054Y-55630783D01*
X118000722Y-55579500D01*
X117904307Y-55408334D01*
X117783167Y-55361945D01*
X117640873Y-55373301D01*
X117594375Y-55494121D01*
X117592667Y-55552445D01*
X117625115Y-55716163D01*
X117756412Y-55768394D01*
X117810222Y-55770000D01*
X117810222Y-56278000D01*
X117169333Y-56278000D01*
X117169333Y-55860179D01*
X117200286Y-55469040D01*
G37*
X117200286Y-55469040D02*
X117284681Y-55147051D01*
X117409818Y-54937448D01*
X117449797Y-54905186D01*
X117690252Y-54842610D01*
X117942162Y-54913327D01*
X118024145Y-54973038D01*
X118128457Y-55046761D01*
X118236282Y-55042382D01*
X118402824Y-54949975D01*
X118494965Y-54888371D01*
X118764688Y-54725591D01*
X118931800Y-54682043D01*
X119014390Y-54758192D01*
X119031771Y-54902167D01*
X118993330Y-55081024D01*
X118852073Y-55223127D01*
X118715270Y-55304333D01*
X118510789Y-55443350D01*
X118384943Y-55584499D01*
X118370624Y-55621833D01*
X118382265Y-55717912D01*
X118491832Y-55761258D01*
X118687125Y-55770000D01*
X118906847Y-55779567D01*
X119005526Y-55831900D01*
X119031292Y-55962448D01*
X119032000Y-56024000D01*
X119032000Y-56278000D01*
X117810222Y-56278000D01*
X117810222Y-55770000D01*
X117968798Y-55742360D01*
X118006054Y-55630783D01*
X118000722Y-55579500D01*
X117904307Y-55408334D01*
X117783167Y-55361945D01*
X117640873Y-55373301D01*
X117594375Y-55494121D01*
X117592667Y-55552445D01*
X117625115Y-55716163D01*
X117756412Y-55768394D01*
X117810222Y-55770000D01*
X117810222Y-56278000D01*
X117169333Y-56278000D01*
X117169333Y-55860179D01*
X117200286Y-55469040D01*
G36*
X117169805Y-53970833D02*
G01*
X117221315Y-53439594D01*
X117373016Y-53040486D01*
X117623012Y-52776120D01*
X117969408Y-52649103D01*
X118138453Y-52637333D01*
X118509460Y-52703514D01*
X118780497Y-52903323D01*
X118952941Y-53238661D01*
X119028169Y-53711430D01*
X119032000Y-53870512D01*
X119032000Y-54330667D01*
X118144613Y-54330667D01*
X118144613Y-53822667D01*
X118696559Y-53822667D01*
X118640938Y-53589833D01*
X118570607Y-53378614D01*
X118501958Y-53251167D01*
X118345374Y-53168133D01*
X118109954Y-53150108D01*
X117872081Y-53194416D01*
X117725714Y-53278381D01*
X117619315Y-53467315D01*
X117592667Y-53617048D01*
X117603053Y-53727500D01*
X117659649Y-53789094D01*
X117800611Y-53816043D01*
X118064093Y-53822563D01*
X118144613Y-53822667D01*
X118144613Y-54330667D01*
X117169333Y-54330667D01*
X117169805Y-53970833D01*
G37*
X117169805Y-53970833D02*
X117221315Y-53439594D01*
X117373016Y-53040486D01*
X117623012Y-52776120D01*
X117969408Y-52649103D01*
X118138453Y-52637333D01*
X118509460Y-52703514D01*
X118780497Y-52903323D01*
X118952941Y-53238661D01*
X119028169Y-53711430D01*
X119032000Y-53870512D01*
X119032000Y-54330667D01*
X118144613Y-54330667D01*
X118144613Y-53822667D01*
X118696559Y-53822667D01*
X118640938Y-53589833D01*
X118570607Y-53378614D01*
X118501958Y-53251167D01*
X118345374Y-53168133D01*
X118109954Y-53150108D01*
X117872081Y-53194416D01*
X117725714Y-53278381D01*
X117619315Y-53467315D01*
X117592667Y-53617048D01*
X117603053Y-53727500D01*
X117659649Y-53789094D01*
X117800611Y-53816043D01*
X118064093Y-53822563D01*
X118144613Y-53822667D01*
X118144613Y-54330667D01*
X117169333Y-54330667D01*
X117169805Y-53970833D01*
G36*
X117178510Y-51195356D02*
G01*
X117218742Y-50930960D01*
X117309087Y-50816646D01*
X117468597Y-50843575D01*
X117716330Y-51002906D01*
X118004714Y-51231100D01*
X118269371Y-51442949D01*
X118484072Y-51606103D01*
X118615987Y-51695990D01*
X118639258Y-51706000D01*
X118668878Y-51629413D01*
X118688519Y-51431859D01*
X118693333Y-51240333D01*
X118700683Y-50971226D01*
X118732461Y-50831035D01*
X118803260Y-50779633D01*
X118862667Y-50774667D01*
X118941369Y-50786813D01*
X118991040Y-50844190D01*
X119018294Y-50978211D01*
X119029741Y-51220285D01*
X119032000Y-51579000D01*
X119028775Y-51954968D01*
X119015244Y-52192479D01*
X118985626Y-52322352D01*
X118934137Y-52375403D01*
X118881075Y-52383333D01*
X118750319Y-52331631D01*
X118531943Y-52193742D01*
X118265320Y-51995494D01*
X118161408Y-51911255D01*
X117592667Y-51439176D01*
X117592667Y-51911255D01*
X117587345Y-52180237D01*
X117559073Y-52321118D01*
X117489391Y-52375069D01*
X117381000Y-52383333D01*
X117280940Y-52377298D01*
X117218748Y-52337505D01*
X117185422Y-52231426D01*
X117171955Y-52026532D01*
X117169345Y-51690295D01*
X117169333Y-51618676D01*
X117178510Y-51195356D01*
G37*
X117178510Y-51195356D02*
X117218742Y-50930960D01*
X117309087Y-50816646D01*
X117468597Y-50843575D01*
X117716330Y-51002906D01*
X118004714Y-51231100D01*
X118269371Y-51442949D01*
X118484072Y-51606103D01*
X118615987Y-51695990D01*
X118639258Y-51706000D01*
X118668878Y-51629413D01*
X118688519Y-51431859D01*
X118693333Y-51240333D01*
X118700683Y-50971226D01*
X118732461Y-50831035D01*
X118803260Y-50779633D01*
X118862667Y-50774667D01*
X118941369Y-50786813D01*
X118991040Y-50844190D01*
X119018294Y-50978211D01*
X119029741Y-51220285D01*
X119032000Y-51579000D01*
X119028775Y-51954968D01*
X119015244Y-52192479D01*
X118985626Y-52322352D01*
X118934137Y-52375403D01*
X118881075Y-52383333D01*
X118750319Y-52331631D01*
X118531943Y-52193742D01*
X118265320Y-51995494D01*
X118161408Y-51911255D01*
X117592667Y-51439176D01*
X117592667Y-51911255D01*
X117587345Y-52180237D01*
X117559073Y-52321118D01*
X117489391Y-52375069D01*
X117381000Y-52383333D01*
X117280940Y-52377298D01*
X117218748Y-52337505D01*
X117185422Y-52231426D01*
X117171955Y-52026532D01*
X117169345Y-51690295D01*
X117169333Y-51618676D01*
X117178510Y-51195356D01*
G36*
X117181917Y-49955010D02*
G01*
X117246027Y-49838732D01*
X117401205Y-49741595D01*
X117592667Y-49658020D01*
X117827281Y-49550040D01*
X117981007Y-49459193D01*
X118016000Y-49420000D01*
X117944558Y-49355899D01*
X117760731Y-49256957D01*
X117592667Y-49181981D01*
X117346935Y-49070911D01*
X117220882Y-48972938D01*
X117174968Y-48843513D01*
X117169333Y-48705026D01*
X117169333Y-48404000D01*
X119032000Y-48404000D01*
X119032000Y-48611958D01*
X119022184Y-48719597D01*
X118968614Y-48783920D01*
X118835104Y-48818652D01*
X118585467Y-48837518D01*
X118418167Y-48844791D01*
X117804333Y-48869667D01*
X118248833Y-49070593D01*
X118544634Y-49231833D01*
X118683320Y-49375418D01*
X118693333Y-49420000D01*
X118610918Y-49556064D01*
X118368747Y-49711858D01*
X118248833Y-49769407D01*
X117804333Y-49970333D01*
X118418167Y-49995209D01*
X118734716Y-50011363D01*
X118918171Y-50036946D01*
X119004720Y-50085685D01*
X119030546Y-50171305D01*
X119032000Y-50228043D01*
X119032000Y-50436000D01*
X117169333Y-50436000D01*
X117169333Y-50134975D01*
X117181917Y-49955010D01*
G37*
X117181917Y-49955010D02*
X117246027Y-49838732D01*
X117401205Y-49741595D01*
X117592667Y-49658020D01*
X117827281Y-49550040D01*
X117981007Y-49459193D01*
X118016000Y-49420000D01*
X117944558Y-49355899D01*
X117760731Y-49256957D01*
X117592667Y-49181981D01*
X117346935Y-49070911D01*
X117220882Y-48972938D01*
X117174968Y-48843513D01*
X117169333Y-48705026D01*
X117169333Y-48404000D01*
X119032000Y-48404000D01*
X119032000Y-48611958D01*
X119022184Y-48719597D01*
X118968614Y-48783920D01*
X118835104Y-48818652D01*
X118585467Y-48837518D01*
X118418167Y-48844791D01*
X117804333Y-48869667D01*
X118248833Y-49070593D01*
X118544634Y-49231833D01*
X118683320Y-49375418D01*
X118693333Y-49420000D01*
X118610918Y-49556064D01*
X118368747Y-49711858D01*
X118248833Y-49769407D01*
X117804333Y-49970333D01*
X118418167Y-49995209D01*
X118734716Y-50011363D01*
X118918171Y-50036946D01*
X119004720Y-50085685D01*
X119030546Y-50171305D01*
X119032000Y-50228043D01*
X119032000Y-50436000D01*
X117169333Y-50436000D01*
X117169333Y-50134975D01*
X117181917Y-49955010D01*
G36*
X115429589Y-51013853D02*
G01*
X115537208Y-50420147D01*
X115637122Y-49871134D01*
X115724698Y-49392101D01*
X115795302Y-49008338D01*
X115844301Y-48745133D01*
X115865142Y-48636833D01*
X115917198Y-48484425D01*
X116026037Y-48418282D01*
X116244727Y-48404000D01*
X116454384Y-48416191D01*
X116569244Y-48446573D01*
X116576667Y-48457898D01*
X116561898Y-48552064D01*
X116520207Y-48790941D01*
X116455520Y-49152743D01*
X116371760Y-49615681D01*
X116272851Y-50157966D01*
X116162718Y-50757812D01*
X116149683Y-50828565D01*
X115722699Y-53145334D01*
X116149683Y-55462102D01*
X116261052Y-56069724D01*
X116361593Y-56624676D01*
X116447356Y-57104650D01*
X116514395Y-57487336D01*
X116558761Y-57750426D01*
X116576508Y-57871610D01*
X116576667Y-57875102D01*
X116502233Y-57939406D01*
X116318832Y-57970707D01*
X116285330Y-57971333D01*
X116075631Y-57950501D01*
X115950864Y-57899634D01*
X115945289Y-57892527D01*
X115917855Y-57791630D01*
X115864737Y-57546155D01*
X115790299Y-57178171D01*
X115698908Y-56709745D01*
X115594930Y-56162947D01*
X115482731Y-55559845D01*
X115469132Y-55485880D01*
X115041682Y-53158039D01*
X115429589Y-51013853D01*
G37*
X115429589Y-51013853D02*
X115537208Y-50420147D01*
X115637122Y-49871134D01*
X115724698Y-49392101D01*
X115795302Y-49008338D01*
X115844301Y-48745133D01*
X115865142Y-48636833D01*
X115917198Y-48484425D01*
X116026037Y-48418282D01*
X116244727Y-48404000D01*
X116454384Y-48416191D01*
X116569244Y-48446573D01*
X116576667Y-48457898D01*
X116561898Y-48552064D01*
X116520207Y-48790941D01*
X116455520Y-49152743D01*
X116371760Y-49615681D01*
X116272851Y-50157966D01*
X116162718Y-50757812D01*
X116149683Y-50828565D01*
X115722699Y-53145334D01*
X116149683Y-55462102D01*
X116261052Y-56069724D01*
X116361593Y-56624676D01*
X116447356Y-57104650D01*
X116514395Y-57487336D01*
X116558761Y-57750426D01*
X116576508Y-57871610D01*
X116576667Y-57875102D01*
X116502233Y-57939406D01*
X116318832Y-57970707D01*
X116285330Y-57971333D01*
X116075631Y-57950501D01*
X115950864Y-57899634D01*
X115945289Y-57892527D01*
X115917855Y-57791630D01*
X115864737Y-57546155D01*
X115790299Y-57178171D01*
X115698908Y-56709745D01*
X115594930Y-56162947D01*
X115482731Y-55559845D01*
X115469132Y-55485880D01*
X115041682Y-53158039D01*
X115429589Y-51013853D01*
G36*
X122929589Y-51013853D02*
G01*
X123037208Y-50420147D01*
X123137122Y-49871134D01*
X123224698Y-49392101D01*
X123295302Y-49008338D01*
X123344301Y-48745133D01*
X123365142Y-48636833D01*
X123417198Y-48484425D01*
X123526037Y-48418282D01*
X123744727Y-48404000D01*
X123954384Y-48416191D01*
X124069244Y-48446573D01*
X124076667Y-48457898D01*
X124061898Y-48552064D01*
X124020207Y-48790941D01*
X123955520Y-49152743D01*
X123871760Y-49615681D01*
X123772851Y-50157966D01*
X123662718Y-50757812D01*
X123649683Y-50828565D01*
X123222699Y-53145334D01*
X123649683Y-55462102D01*
X123761052Y-56069724D01*
X123861593Y-56624676D01*
X123947356Y-57104650D01*
X124014395Y-57487336D01*
X124058761Y-57750426D01*
X124076508Y-57871610D01*
X124076667Y-57875102D01*
X124002233Y-57939406D01*
X123818832Y-57970707D01*
X123785330Y-57971333D01*
X123575631Y-57950501D01*
X123450864Y-57899634D01*
X123445289Y-57892527D01*
X123417855Y-57791630D01*
X123364737Y-57546155D01*
X123290299Y-57178171D01*
X123198908Y-56709745D01*
X123094930Y-56162947D01*
X122982731Y-55559845D01*
X122969132Y-55485880D01*
X122541682Y-53158039D01*
X122929589Y-51013853D01*
G37*
X122929589Y-51013853D02*
X123037208Y-50420147D01*
X123137122Y-49871134D01*
X123224698Y-49392101D01*
X123295302Y-49008338D01*
X123344301Y-48745133D01*
X123365142Y-48636833D01*
X123417198Y-48484425D01*
X123526037Y-48418282D01*
X123744727Y-48404000D01*
X123954384Y-48416191D01*
X124069244Y-48446573D01*
X124076667Y-48457898D01*
X124061898Y-48552064D01*
X124020207Y-48790941D01*
X123955520Y-49152743D01*
X123871760Y-49615681D01*
X123772851Y-50157966D01*
X123662718Y-50757812D01*
X123649683Y-50828565D01*
X123222699Y-53145334D01*
X123649683Y-55462102D01*
X123761052Y-56069724D01*
X123861593Y-56624676D01*
X123947356Y-57104650D01*
X124014395Y-57487336D01*
X124058761Y-57750426D01*
X124076508Y-57871610D01*
X124076667Y-57875102D01*
X124002233Y-57939406D01*
X123818832Y-57970707D01*
X123785330Y-57971333D01*
X123575631Y-57950501D01*
X123450864Y-57899634D01*
X123445289Y-57892527D01*
X123417855Y-57791630D01*
X123364737Y-57546155D01*
X123290299Y-57178171D01*
X123198908Y-56709745D01*
X123094930Y-56162947D01*
X122982731Y-55559845D01*
X122969132Y-55485880D01*
X122541682Y-53158039D01*
X122929589Y-51013853D01*
G36*
X124681917Y-49955010D02*
G01*
X124746027Y-49838732D01*
X124901205Y-49741595D01*
X125092667Y-49658020D01*
X125327281Y-49550040D01*
X125481007Y-49459193D01*
X125516000Y-49420000D01*
X125444558Y-49355899D01*
X125260731Y-49256957D01*
X125092667Y-49181981D01*
X124846935Y-49070911D01*
X124720882Y-48972938D01*
X124674968Y-48843513D01*
X124669333Y-48705026D01*
X124669333Y-48404000D01*
X126532000Y-48404000D01*
X126532000Y-48611958D01*
X126522184Y-48719597D01*
X126468614Y-48783920D01*
X126335104Y-48818652D01*
X126085467Y-48837518D01*
X125918167Y-48844791D01*
X125304333Y-48869667D01*
X125748833Y-49070593D01*
X126044634Y-49231833D01*
X126183320Y-49375418D01*
X126193333Y-49420000D01*
X126110918Y-49556064D01*
X125868747Y-49711858D01*
X125748833Y-49769407D01*
X125304333Y-49970333D01*
X125918167Y-49995209D01*
X126234716Y-50011363D01*
X126418171Y-50036946D01*
X126504720Y-50085685D01*
X126530546Y-50171305D01*
X126532000Y-50228043D01*
X126532000Y-50436000D01*
X124669333Y-50436000D01*
X124669333Y-50134975D01*
X124681917Y-49955010D01*
G37*
X124681917Y-49955010D02*
X124746027Y-49838732D01*
X124901205Y-49741595D01*
X125092667Y-49658020D01*
X125327281Y-49550040D01*
X125481007Y-49459193D01*
X125516000Y-49420000D01*
X125444558Y-49355899D01*
X125260731Y-49256957D01*
X125092667Y-49181981D01*
X124846935Y-49070911D01*
X124720882Y-48972938D01*
X124674968Y-48843513D01*
X124669333Y-48705026D01*
X124669333Y-48404000D01*
X126532000Y-48404000D01*
X126532000Y-48611958D01*
X126522184Y-48719597D01*
X126468614Y-48783920D01*
X126335104Y-48818652D01*
X126085467Y-48837518D01*
X125918167Y-48844791D01*
X125304333Y-48869667D01*
X125748833Y-49070593D01*
X126044634Y-49231833D01*
X126183320Y-49375418D01*
X126193333Y-49420000D01*
X126110918Y-49556064D01*
X125868747Y-49711858D01*
X125748833Y-49769407D01*
X125304333Y-49970333D01*
X125918167Y-49995209D01*
X126234716Y-50011363D01*
X126418171Y-50036946D01*
X126504720Y-50085685D01*
X126530546Y-50171305D01*
X126532000Y-50228043D01*
X126532000Y-50436000D01*
X124669333Y-50436000D01*
X124669333Y-50134975D01*
X124681917Y-49955010D01*
G36*
X124678510Y-51195356D02*
G01*
X124718742Y-50930960D01*
X124809087Y-50816646D01*
X124968597Y-50843575D01*
X125216330Y-51002906D01*
X125504714Y-51231100D01*
X125769371Y-51442949D01*
X125984072Y-51606103D01*
X126115987Y-51695990D01*
X126139258Y-51706000D01*
X126168878Y-51629413D01*
X126188519Y-51431859D01*
X126193333Y-51240333D01*
X126200683Y-50971226D01*
X126232461Y-50831035D01*
X126303260Y-50779633D01*
X126362667Y-50774667D01*
X126441369Y-50786813D01*
X126491040Y-50844190D01*
X126518294Y-50978211D01*
X126529741Y-51220285D01*
X126532000Y-51579000D01*
X126528775Y-51954968D01*
X126515244Y-52192479D01*
X126485626Y-52322352D01*
X126434137Y-52375403D01*
X126381075Y-52383333D01*
X126250319Y-52331631D01*
X126031943Y-52193742D01*
X125765320Y-51995494D01*
X125661408Y-51911255D01*
X125092667Y-51439176D01*
X125092667Y-51911255D01*
X125087345Y-52180237D01*
X125059073Y-52321118D01*
X124989391Y-52375069D01*
X124881000Y-52383333D01*
X124780940Y-52377298D01*
X124718748Y-52337505D01*
X124685422Y-52231426D01*
X124671955Y-52026532D01*
X124669345Y-51690295D01*
X124669333Y-51618676D01*
X124678510Y-51195356D01*
G37*
X124678510Y-51195356D02*
X124718742Y-50930960D01*
X124809087Y-50816646D01*
X124968597Y-50843575D01*
X125216330Y-51002906D01*
X125504714Y-51231100D01*
X125769371Y-51442949D01*
X125984072Y-51606103D01*
X126115987Y-51695990D01*
X126139258Y-51706000D01*
X126168878Y-51629413D01*
X126188519Y-51431859D01*
X126193333Y-51240333D01*
X126200683Y-50971226D01*
X126232461Y-50831035D01*
X126303260Y-50779633D01*
X126362667Y-50774667D01*
X126441369Y-50786813D01*
X126491040Y-50844190D01*
X126518294Y-50978211D01*
X126529741Y-51220285D01*
X126532000Y-51579000D01*
X126528775Y-51954968D01*
X126515244Y-52192479D01*
X126485626Y-52322352D01*
X126434137Y-52375403D01*
X126381075Y-52383333D01*
X126250319Y-52331631D01*
X126031943Y-52193742D01*
X125765320Y-51995494D01*
X125661408Y-51911255D01*
X125092667Y-51439176D01*
X125092667Y-51911255D01*
X125087345Y-52180237D01*
X125059073Y-52321118D01*
X124989391Y-52375069D01*
X124881000Y-52383333D01*
X124780940Y-52377298D01*
X124718748Y-52337505D01*
X124685422Y-52231426D01*
X124671955Y-52026532D01*
X124669345Y-51690295D01*
X124669333Y-51618676D01*
X124678510Y-51195356D01*
G36*
X124669805Y-53970833D02*
G01*
X124721315Y-53439594D01*
X124873016Y-53040486D01*
X125123012Y-52776120D01*
X125469408Y-52649103D01*
X125638453Y-52637333D01*
X126009460Y-52703514D01*
X126280497Y-52903323D01*
X126452941Y-53238661D01*
X126528169Y-53711430D01*
X126532000Y-53870512D01*
X126532000Y-54330667D01*
X125644613Y-54330667D01*
X125644613Y-53822667D01*
X126196559Y-53822667D01*
X126140938Y-53589833D01*
X126070607Y-53378614D01*
X126001958Y-53251167D01*
X125845374Y-53168133D01*
X125609954Y-53150108D01*
X125372081Y-53194416D01*
X125225714Y-53278381D01*
X125119315Y-53467315D01*
X125092667Y-53617048D01*
X125103053Y-53727500D01*
X125159649Y-53789094D01*
X125300611Y-53816043D01*
X125564093Y-53822563D01*
X125644613Y-53822667D01*
X125644613Y-54330667D01*
X124669333Y-54330667D01*
X124669805Y-53970833D01*
G37*
X124669805Y-53970833D02*
X124721315Y-53439594D01*
X124873016Y-53040486D01*
X125123012Y-52776120D01*
X125469408Y-52649103D01*
X125638453Y-52637333D01*
X126009460Y-52703514D01*
X126280497Y-52903323D01*
X126452941Y-53238661D01*
X126528169Y-53711430D01*
X126532000Y-53870512D01*
X126532000Y-54330667D01*
X125644613Y-54330667D01*
X125644613Y-53822667D01*
X126196559Y-53822667D01*
X126140938Y-53589833D01*
X126070607Y-53378614D01*
X126001958Y-53251167D01*
X125845374Y-53168133D01*
X125609954Y-53150108D01*
X125372081Y-53194416D01*
X125225714Y-53278381D01*
X125119315Y-53467315D01*
X125092667Y-53617048D01*
X125103053Y-53727500D01*
X125159649Y-53789094D01*
X125300611Y-53816043D01*
X125564093Y-53822563D01*
X125644613Y-53822667D01*
X125644613Y-54330667D01*
X124669333Y-54330667D01*
X124669805Y-53970833D01*
G36*
X124700286Y-55469040D02*
G01*
X124784681Y-55147051D01*
X124909818Y-54937448D01*
X124949797Y-54905186D01*
X125190252Y-54842610D01*
X125442162Y-54913327D01*
X125524145Y-54973038D01*
X125628457Y-55046761D01*
X125736282Y-55042382D01*
X125902824Y-54949975D01*
X125994965Y-54888371D01*
X126264688Y-54725591D01*
X126431800Y-54682043D01*
X126514390Y-54758192D01*
X126531771Y-54902167D01*
X126493330Y-55081024D01*
X126352073Y-55223127D01*
X126215270Y-55304333D01*
X126010789Y-55443350D01*
X125884943Y-55584499D01*
X125870624Y-55621833D01*
X125882265Y-55717912D01*
X125991832Y-55761258D01*
X126187125Y-55770000D01*
X126406847Y-55779567D01*
X126505526Y-55831900D01*
X126531292Y-55962448D01*
X126532000Y-56024000D01*
X126532000Y-56278000D01*
X125310222Y-56278000D01*
X125310222Y-55770000D01*
X125468798Y-55742360D01*
X125506054Y-55630783D01*
X125500722Y-55579500D01*
X125404307Y-55408334D01*
X125283167Y-55361945D01*
X125140873Y-55373301D01*
X125094375Y-55494121D01*
X125092667Y-55552445D01*
X125125115Y-55716163D01*
X125256412Y-55768394D01*
X125310222Y-55770000D01*
X125310222Y-56278000D01*
X124669333Y-56278000D01*
X124669333Y-55860179D01*
X124700286Y-55469040D01*
G37*
X124700286Y-55469040D02*
X124784681Y-55147051D01*
X124909818Y-54937448D01*
X124949797Y-54905186D01*
X125190252Y-54842610D01*
X125442162Y-54913327D01*
X125524145Y-54973038D01*
X125628457Y-55046761D01*
X125736282Y-55042382D01*
X125902824Y-54949975D01*
X125994965Y-54888371D01*
X126264688Y-54725591D01*
X126431800Y-54682043D01*
X126514390Y-54758192D01*
X126531771Y-54902167D01*
X126493330Y-55081024D01*
X126352073Y-55223127D01*
X126215270Y-55304333D01*
X126010789Y-55443350D01*
X125884943Y-55584499D01*
X125870624Y-55621833D01*
X125882265Y-55717912D01*
X125991832Y-55761258D01*
X126187125Y-55770000D01*
X126406847Y-55779567D01*
X126505526Y-55831900D01*
X126531292Y-55962448D01*
X126532000Y-56024000D01*
X126532000Y-56278000D01*
X125310222Y-56278000D01*
X125310222Y-55770000D01*
X125468798Y-55742360D01*
X125506054Y-55630783D01*
X125500722Y-55579500D01*
X125404307Y-55408334D01*
X125283167Y-55361945D01*
X125140873Y-55373301D01*
X125094375Y-55494121D01*
X125092667Y-55552445D01*
X125125115Y-55716163D01*
X125256412Y-55768394D01*
X125310222Y-55770000D01*
X125310222Y-56278000D01*
X124669333Y-56278000D01*
X124669333Y-55860179D01*
X124700286Y-55469040D01*
G36*
X124682707Y-57977800D02*
G01*
X124755179Y-57905399D01*
X124935278Y-57887068D01*
X125008000Y-57886667D01*
X125346667Y-57886667D01*
X125346667Y-57209333D01*
X125002376Y-57209333D01*
X124784237Y-57200484D01*
X124691189Y-57152374D01*
X124679128Y-57032663D01*
X124684876Y-56976500D01*
X124711667Y-56743667D01*
X125621833Y-56719636D01*
X126532000Y-56695605D01*
X126532000Y-56952469D01*
X126521196Y-57110402D01*
X126458135Y-57185203D01*
X126296845Y-57207864D01*
X126151000Y-57209333D01*
X125770000Y-57209333D01*
X125770000Y-57886667D01*
X126151000Y-57886667D01*
X126385283Y-57894030D01*
X126496247Y-57936543D01*
X126529846Y-58044843D01*
X126532000Y-58140667D01*
X126532000Y-58394667D01*
X124669333Y-58394667D01*
X124669333Y-58140667D01*
X124682707Y-57977800D01*
G37*
X124682707Y-57977800D02*
X124755179Y-57905399D01*
X124935278Y-57887068D01*
X125008000Y-57886667D01*
X125346667Y-57886667D01*
X125346667Y-57209333D01*
X125002376Y-57209333D01*
X124784237Y-57200484D01*
X124691189Y-57152374D01*
X124679128Y-57032663D01*
X124684876Y-56976500D01*
X124711667Y-56743667D01*
X125621833Y-56719636D01*
X126532000Y-56695605D01*
X126532000Y-56952469D01*
X126521196Y-57110402D01*
X126458135Y-57185203D01*
X126296845Y-57207864D01*
X126151000Y-57209333D01*
X125770000Y-57209333D01*
X125770000Y-57886667D01*
X126151000Y-57886667D01*
X126385283Y-57894030D01*
X126496247Y-57936543D01*
X126529846Y-58044843D01*
X126532000Y-58140667D01*
X126532000Y-58394667D01*
X124669333Y-58394667D01*
X124669333Y-58140667D01*
X124682707Y-57977800D01*
G36*
X122945231Y-58839167D02*
G01*
X123158111Y-58602935D01*
X123315961Y-58469597D01*
X123469733Y-58409977D01*
X123670380Y-58394903D01*
X123721564Y-58394667D01*
X124113215Y-58394667D01*
X123672121Y-58841309D01*
X123231028Y-59287951D01*
X123503641Y-59560564D01*
X123776254Y-59833178D01*
X124249471Y-59364899D01*
X124722687Y-58896620D01*
X126543753Y-58945000D01*
X126300410Y-59177833D01*
X126150301Y-59303636D01*
X125994676Y-59373933D01*
X125777766Y-59404383D01*
X125471158Y-59410667D01*
X124885249Y-59410667D01*
X124330669Y-59960997D01*
X123776089Y-60511328D01*
X123168319Y-59897497D01*
X122560549Y-59283667D01*
X122945231Y-58839167D01*
G37*
X122945231Y-58839167D02*
X123158111Y-58602935D01*
X123315961Y-58469597D01*
X123469733Y-58409977D01*
X123670380Y-58394903D01*
X123721564Y-58394667D01*
X124113215Y-58394667D01*
X123672121Y-58841309D01*
X123231028Y-59287951D01*
X123503641Y-59560564D01*
X123776254Y-59833178D01*
X124249471Y-59364899D01*
X124722687Y-58896620D01*
X126543753Y-58945000D01*
X126300410Y-59177833D01*
X126150301Y-59303636D01*
X125994676Y-59373933D01*
X125777766Y-59404383D01*
X125471158Y-59410667D01*
X124885249Y-59410667D01*
X124330669Y-59960997D01*
X123776089Y-60511328D01*
X123168319Y-59897497D01*
X122560549Y-59283667D01*
X122945231Y-58839167D01*
G36*
X122945231Y-38839167D02*
G01*
X123158111Y-38602935D01*
X123315961Y-38469597D01*
X123469733Y-38409977D01*
X123670380Y-38394903D01*
X123721564Y-38394667D01*
X124113215Y-38394667D01*
X123672121Y-38841309D01*
X123231028Y-39287951D01*
X123503641Y-39560564D01*
X123776254Y-39833178D01*
X124249471Y-39364899D01*
X124722687Y-38896620D01*
X126543753Y-38945000D01*
X126300410Y-39177833D01*
X126150301Y-39303636D01*
X125994676Y-39373933D01*
X125777766Y-39404383D01*
X125471158Y-39410667D01*
X124885249Y-39410667D01*
X124330669Y-39960997D01*
X123776089Y-40511328D01*
X123168319Y-39897497D01*
X122560549Y-39283667D01*
X122945231Y-38839167D01*
G37*
X122945231Y-38839167D02*
X123158111Y-38602935D01*
X123315961Y-38469597D01*
X123469733Y-38409977D01*
X123670380Y-38394903D01*
X123721564Y-38394667D01*
X124113215Y-38394667D01*
X123672121Y-38841309D01*
X123231028Y-39287951D01*
X123503641Y-39560564D01*
X123776254Y-39833178D01*
X124249471Y-39364899D01*
X124722687Y-38896620D01*
X126543753Y-38945000D01*
X126300410Y-39177833D01*
X126150301Y-39303636D01*
X125994676Y-39373933D01*
X125777766Y-39404383D01*
X125471158Y-39410667D01*
X124885249Y-39410667D01*
X124330669Y-39960997D01*
X123776089Y-40511328D01*
X123168319Y-39897497D01*
X122560549Y-39283667D01*
X122945231Y-38839167D01*
G36*
X124682707Y-37977800D02*
G01*
X124755179Y-37905399D01*
X124935278Y-37887068D01*
X125008000Y-37886667D01*
X125346667Y-37886667D01*
X125346667Y-37209333D01*
X125002376Y-37209333D01*
X124784237Y-37200484D01*
X124691189Y-37152374D01*
X124679128Y-37032663D01*
X124684876Y-36976500D01*
X124711667Y-36743667D01*
X125621833Y-36719636D01*
X126532000Y-36695605D01*
X126532000Y-36952469D01*
X126521196Y-37110402D01*
X126458135Y-37185203D01*
X126296845Y-37207864D01*
X126151000Y-37209333D01*
X125770000Y-37209333D01*
X125770000Y-37886667D01*
X126151000Y-37886667D01*
X126385283Y-37894030D01*
X126496247Y-37936543D01*
X126529846Y-38044843D01*
X126532000Y-38140667D01*
X126532000Y-38394667D01*
X124669333Y-38394667D01*
X124669333Y-38140667D01*
X124682707Y-37977800D01*
G37*
X124682707Y-37977800D02*
X124755179Y-37905399D01*
X124935278Y-37887068D01*
X125008000Y-37886667D01*
X125346667Y-37886667D01*
X125346667Y-37209333D01*
X125002376Y-37209333D01*
X124784237Y-37200484D01*
X124691189Y-37152374D01*
X124679128Y-37032663D01*
X124684876Y-36976500D01*
X124711667Y-36743667D01*
X125621833Y-36719636D01*
X126532000Y-36695605D01*
X126532000Y-36952469D01*
X126521196Y-37110402D01*
X126458135Y-37185203D01*
X126296845Y-37207864D01*
X126151000Y-37209333D01*
X125770000Y-37209333D01*
X125770000Y-37886667D01*
X126151000Y-37886667D01*
X126385283Y-37894030D01*
X126496247Y-37936543D01*
X126529846Y-38044843D01*
X126532000Y-38140667D01*
X126532000Y-38394667D01*
X124669333Y-38394667D01*
X124669333Y-38140667D01*
X124682707Y-37977800D01*
G36*
X124700286Y-35469040D02*
G01*
X124784681Y-35147051D01*
X124909818Y-34937448D01*
X124949797Y-34905186D01*
X125190252Y-34842610D01*
X125442162Y-34913327D01*
X125524145Y-34973038D01*
X125628457Y-35046761D01*
X125736282Y-35042382D01*
X125902824Y-34949975D01*
X125994965Y-34888371D01*
X126264688Y-34725591D01*
X126431800Y-34682043D01*
X126514390Y-34758192D01*
X126531771Y-34902167D01*
X126493330Y-35081024D01*
X126352073Y-35223127D01*
X126215270Y-35304333D01*
X126010789Y-35443350D01*
X125884943Y-35584499D01*
X125870624Y-35621833D01*
X125882265Y-35717912D01*
X125991832Y-35761258D01*
X126187125Y-35770000D01*
X126406847Y-35779567D01*
X126505526Y-35831900D01*
X126531292Y-35962448D01*
X126532000Y-36024000D01*
X126532000Y-36278000D01*
X125310222Y-36278000D01*
X125310222Y-35770000D01*
X125468798Y-35742360D01*
X125506054Y-35630783D01*
X125500722Y-35579500D01*
X125404307Y-35408334D01*
X125283167Y-35361945D01*
X125140873Y-35373301D01*
X125094375Y-35494121D01*
X125092667Y-35552445D01*
X125125115Y-35716163D01*
X125256412Y-35768394D01*
X125310222Y-35770000D01*
X125310222Y-36278000D01*
X124669333Y-36278000D01*
X124669333Y-35860179D01*
X124700286Y-35469040D01*
G37*
X124700286Y-35469040D02*
X124784681Y-35147051D01*
X124909818Y-34937448D01*
X124949797Y-34905186D01*
X125190252Y-34842610D01*
X125442162Y-34913327D01*
X125524145Y-34973038D01*
X125628457Y-35046761D01*
X125736282Y-35042382D01*
X125902824Y-34949975D01*
X125994965Y-34888371D01*
X126264688Y-34725591D01*
X126431800Y-34682043D01*
X126514390Y-34758192D01*
X126531771Y-34902167D01*
X126493330Y-35081024D01*
X126352073Y-35223127D01*
X126215270Y-35304333D01*
X126010789Y-35443350D01*
X125884943Y-35584499D01*
X125870624Y-35621833D01*
X125882265Y-35717912D01*
X125991832Y-35761258D01*
X126187125Y-35770000D01*
X126406847Y-35779567D01*
X126505526Y-35831900D01*
X126531292Y-35962448D01*
X126532000Y-36024000D01*
X126532000Y-36278000D01*
X125310222Y-36278000D01*
X125310222Y-35770000D01*
X125468798Y-35742360D01*
X125506054Y-35630783D01*
X125500722Y-35579500D01*
X125404307Y-35408334D01*
X125283167Y-35361945D01*
X125140873Y-35373301D01*
X125094375Y-35494121D01*
X125092667Y-35552445D01*
X125125115Y-35716163D01*
X125256412Y-35768394D01*
X125310222Y-35770000D01*
X125310222Y-36278000D01*
X124669333Y-36278000D01*
X124669333Y-35860179D01*
X124700286Y-35469040D01*
G36*
X124669805Y-33970833D02*
G01*
X124721315Y-33439594D01*
X124873016Y-33040486D01*
X125123012Y-32776120D01*
X125469408Y-32649103D01*
X125638453Y-32637333D01*
X126009460Y-32703514D01*
X126280497Y-32903323D01*
X126452941Y-33238661D01*
X126528169Y-33711430D01*
X126532000Y-33870512D01*
X126532000Y-34330667D01*
X125644613Y-34330667D01*
X125644613Y-33822667D01*
X126196559Y-33822667D01*
X126140938Y-33589833D01*
X126070607Y-33378614D01*
X126001958Y-33251167D01*
X125845374Y-33168133D01*
X125609954Y-33150108D01*
X125372081Y-33194416D01*
X125225714Y-33278381D01*
X125119315Y-33467315D01*
X125092667Y-33617048D01*
X125103053Y-33727500D01*
X125159649Y-33789094D01*
X125300611Y-33816043D01*
X125564093Y-33822563D01*
X125644613Y-33822667D01*
X125644613Y-34330667D01*
X124669333Y-34330667D01*
X124669805Y-33970833D01*
G37*
X124669805Y-33970833D02*
X124721315Y-33439594D01*
X124873016Y-33040486D01*
X125123012Y-32776120D01*
X125469408Y-32649103D01*
X125638453Y-32637333D01*
X126009460Y-32703514D01*
X126280497Y-32903323D01*
X126452941Y-33238661D01*
X126528169Y-33711430D01*
X126532000Y-33870512D01*
X126532000Y-34330667D01*
X125644613Y-34330667D01*
X125644613Y-33822667D01*
X126196559Y-33822667D01*
X126140938Y-33589833D01*
X126070607Y-33378614D01*
X126001958Y-33251167D01*
X125845374Y-33168133D01*
X125609954Y-33150108D01*
X125372081Y-33194416D01*
X125225714Y-33278381D01*
X125119315Y-33467315D01*
X125092667Y-33617048D01*
X125103053Y-33727500D01*
X125159649Y-33789094D01*
X125300611Y-33816043D01*
X125564093Y-33822563D01*
X125644613Y-33822667D01*
X125644613Y-34330667D01*
X124669333Y-34330667D01*
X124669805Y-33970833D01*
G36*
X124678510Y-31195356D02*
G01*
X124718742Y-30930960D01*
X124809087Y-30816646D01*
X124968597Y-30843575D01*
X125216330Y-31002906D01*
X125504714Y-31231100D01*
X125769371Y-31442949D01*
X125984072Y-31606103D01*
X126115987Y-31695990D01*
X126139258Y-31706000D01*
X126168878Y-31629413D01*
X126188519Y-31431859D01*
X126193333Y-31240333D01*
X126200683Y-30971226D01*
X126232461Y-30831035D01*
X126303260Y-30779633D01*
X126362667Y-30774667D01*
X126441369Y-30786813D01*
X126491040Y-30844190D01*
X126518294Y-30978211D01*
X126529741Y-31220285D01*
X126532000Y-31579000D01*
X126528775Y-31954968D01*
X126515244Y-32192479D01*
X126485626Y-32322352D01*
X126434137Y-32375403D01*
X126381075Y-32383333D01*
X126250319Y-32331631D01*
X126031943Y-32193742D01*
X125765320Y-31995494D01*
X125661408Y-31911255D01*
X125092667Y-31439176D01*
X125092667Y-31911255D01*
X125087345Y-32180237D01*
X125059073Y-32321118D01*
X124989391Y-32375069D01*
X124881000Y-32383333D01*
X124780940Y-32377298D01*
X124718748Y-32337505D01*
X124685422Y-32231426D01*
X124671955Y-32026532D01*
X124669345Y-31690295D01*
X124669333Y-31618676D01*
X124678510Y-31195356D01*
G37*
X124678510Y-31195356D02*
X124718742Y-30930960D01*
X124809087Y-30816646D01*
X124968597Y-30843575D01*
X125216330Y-31002906D01*
X125504714Y-31231100D01*
X125769371Y-31442949D01*
X125984072Y-31606103D01*
X126115987Y-31695990D01*
X126139258Y-31706000D01*
X126168878Y-31629413D01*
X126188519Y-31431859D01*
X126193333Y-31240333D01*
X126200683Y-30971226D01*
X126232461Y-30831035D01*
X126303260Y-30779633D01*
X126362667Y-30774667D01*
X126441369Y-30786813D01*
X126491040Y-30844190D01*
X126518294Y-30978211D01*
X126529741Y-31220285D01*
X126532000Y-31579000D01*
X126528775Y-31954968D01*
X126515244Y-32192479D01*
X126485626Y-32322352D01*
X126434137Y-32375403D01*
X126381075Y-32383333D01*
X126250319Y-32331631D01*
X126031943Y-32193742D01*
X125765320Y-31995494D01*
X125661408Y-31911255D01*
X125092667Y-31439176D01*
X125092667Y-31911255D01*
X125087345Y-32180237D01*
X125059073Y-32321118D01*
X124989391Y-32375069D01*
X124881000Y-32383333D01*
X124780940Y-32377298D01*
X124718748Y-32337505D01*
X124685422Y-32231426D01*
X124671955Y-32026532D01*
X124669345Y-31690295D01*
X124669333Y-31618676D01*
X124678510Y-31195356D01*
G36*
X124681917Y-29955010D02*
G01*
X124746027Y-29838732D01*
X124901205Y-29741595D01*
X125092667Y-29658020D01*
X125327281Y-29550040D01*
X125481007Y-29459193D01*
X125516000Y-29420000D01*
X125444558Y-29355899D01*
X125260731Y-29256957D01*
X125092667Y-29181981D01*
X124846935Y-29070911D01*
X124720882Y-28972938D01*
X124674968Y-28843513D01*
X124669333Y-28705026D01*
X124669333Y-28404000D01*
X126532000Y-28404000D01*
X126532000Y-28611958D01*
X126522184Y-28719597D01*
X126468614Y-28783920D01*
X126335104Y-28818652D01*
X126085467Y-28837518D01*
X125918167Y-28844791D01*
X125304333Y-28869667D01*
X125748833Y-29070593D01*
X126044634Y-29231833D01*
X126183320Y-29375418D01*
X126193333Y-29420000D01*
X126110918Y-29556064D01*
X125868747Y-29711858D01*
X125748833Y-29769407D01*
X125304333Y-29970333D01*
X125918167Y-29995209D01*
X126234716Y-30011363D01*
X126418171Y-30036946D01*
X126504720Y-30085685D01*
X126530546Y-30171305D01*
X126532000Y-30228043D01*
X126532000Y-30436000D01*
X124669333Y-30436000D01*
X124669333Y-30134975D01*
X124681917Y-29955010D01*
G37*
X124681917Y-29955010D02*
X124746027Y-29838732D01*
X124901205Y-29741595D01*
X125092667Y-29658020D01*
X125327281Y-29550040D01*
X125481007Y-29459193D01*
X125516000Y-29420000D01*
X125444558Y-29355899D01*
X125260731Y-29256957D01*
X125092667Y-29181981D01*
X124846935Y-29070911D01*
X124720882Y-28972938D01*
X124674968Y-28843513D01*
X124669333Y-28705026D01*
X124669333Y-28404000D01*
X126532000Y-28404000D01*
X126532000Y-28611958D01*
X126522184Y-28719597D01*
X126468614Y-28783920D01*
X126335104Y-28818652D01*
X126085467Y-28837518D01*
X125918167Y-28844791D01*
X125304333Y-28869667D01*
X125748833Y-29070593D01*
X126044634Y-29231833D01*
X126183320Y-29375418D01*
X126193333Y-29420000D01*
X126110918Y-29556064D01*
X125868747Y-29711858D01*
X125748833Y-29769407D01*
X125304333Y-29970333D01*
X125918167Y-29995209D01*
X126234716Y-30011363D01*
X126418171Y-30036946D01*
X126504720Y-30085685D01*
X126530546Y-30171305D01*
X126532000Y-30228043D01*
X126532000Y-30436000D01*
X124669333Y-30436000D01*
X124669333Y-30134975D01*
X124681917Y-29955010D01*
G36*
X122929589Y-31013853D02*
G01*
X123037208Y-30420147D01*
X123137122Y-29871134D01*
X123224698Y-29392101D01*
X123295302Y-29008338D01*
X123344301Y-28745133D01*
X123365142Y-28636833D01*
X123417198Y-28484425D01*
X123526037Y-28418282D01*
X123744727Y-28404000D01*
X123954384Y-28416191D01*
X124069244Y-28446573D01*
X124076667Y-28457898D01*
X124061898Y-28552064D01*
X124020207Y-28790941D01*
X123955520Y-29152743D01*
X123871760Y-29615681D01*
X123772851Y-30157966D01*
X123662718Y-30757812D01*
X123649683Y-30828565D01*
X123222699Y-33145334D01*
X123649683Y-35462102D01*
X123761052Y-36069724D01*
X123861593Y-36624676D01*
X123947356Y-37104650D01*
X124014395Y-37487336D01*
X124058761Y-37750426D01*
X124076508Y-37871610D01*
X124076667Y-37875102D01*
X124002233Y-37939406D01*
X123818832Y-37970707D01*
X123785330Y-37971333D01*
X123575631Y-37950501D01*
X123450864Y-37899634D01*
X123445289Y-37892527D01*
X123417855Y-37791630D01*
X123364737Y-37546155D01*
X123290299Y-37178171D01*
X123198908Y-36709745D01*
X123094930Y-36162947D01*
X122982731Y-35559845D01*
X122969132Y-35485880D01*
X122541682Y-33158039D01*
X122929589Y-31013853D01*
G37*
X122929589Y-31013853D02*
X123037208Y-30420147D01*
X123137122Y-29871134D01*
X123224698Y-29392101D01*
X123295302Y-29008338D01*
X123344301Y-28745133D01*
X123365142Y-28636833D01*
X123417198Y-28484425D01*
X123526037Y-28418282D01*
X123744727Y-28404000D01*
X123954384Y-28416191D01*
X124069244Y-28446573D01*
X124076667Y-28457898D01*
X124061898Y-28552064D01*
X124020207Y-28790941D01*
X123955520Y-29152743D01*
X123871760Y-29615681D01*
X123772851Y-30157966D01*
X123662718Y-30757812D01*
X123649683Y-30828565D01*
X123222699Y-33145334D01*
X123649683Y-35462102D01*
X123761052Y-36069724D01*
X123861593Y-36624676D01*
X123947356Y-37104650D01*
X124014395Y-37487336D01*
X124058761Y-37750426D01*
X124076508Y-37871610D01*
X124076667Y-37875102D01*
X124002233Y-37939406D01*
X123818832Y-37970707D01*
X123785330Y-37971333D01*
X123575631Y-37950501D01*
X123450864Y-37899634D01*
X123445289Y-37892527D01*
X123417855Y-37791630D01*
X123364737Y-37546155D01*
X123290299Y-37178171D01*
X123198908Y-36709745D01*
X123094930Y-36162947D01*
X122982731Y-35559845D01*
X122969132Y-35485880D01*
X122541682Y-33158039D01*
X122929589Y-31013853D01*
G36*
X115429589Y-31013853D02*
G01*
X115537208Y-30420147D01*
X115637122Y-29871134D01*
X115724698Y-29392101D01*
X115795302Y-29008338D01*
X115844301Y-28745133D01*
X115865142Y-28636833D01*
X115917198Y-28484425D01*
X116026037Y-28418282D01*
X116244727Y-28404000D01*
X116454384Y-28416191D01*
X116569244Y-28446573D01*
X116576667Y-28457898D01*
X116561898Y-28552064D01*
X116520207Y-28790941D01*
X116455520Y-29152743D01*
X116371760Y-29615681D01*
X116272851Y-30157966D01*
X116162718Y-30757812D01*
X116149683Y-30828565D01*
X115722699Y-33145334D01*
X116149683Y-35462102D01*
X116261052Y-36069724D01*
X116361593Y-36624676D01*
X116447356Y-37104650D01*
X116514395Y-37487336D01*
X116558761Y-37750426D01*
X116576508Y-37871610D01*
X116576667Y-37875102D01*
X116502233Y-37939406D01*
X116318832Y-37970707D01*
X116285330Y-37971333D01*
X116075631Y-37950501D01*
X115950864Y-37899634D01*
X115945289Y-37892527D01*
X115917855Y-37791630D01*
X115864737Y-37546155D01*
X115790299Y-37178171D01*
X115698908Y-36709745D01*
X115594930Y-36162947D01*
X115482731Y-35559845D01*
X115469132Y-35485880D01*
X115041682Y-33158039D01*
X115429589Y-31013853D01*
G37*
X115429589Y-31013853D02*
X115537208Y-30420147D01*
X115637122Y-29871134D01*
X115724698Y-29392101D01*
X115795302Y-29008338D01*
X115844301Y-28745133D01*
X115865142Y-28636833D01*
X115917198Y-28484425D01*
X116026037Y-28418282D01*
X116244727Y-28404000D01*
X116454384Y-28416191D01*
X116569244Y-28446573D01*
X116576667Y-28457898D01*
X116561898Y-28552064D01*
X116520207Y-28790941D01*
X116455520Y-29152743D01*
X116371760Y-29615681D01*
X116272851Y-30157966D01*
X116162718Y-30757812D01*
X116149683Y-30828565D01*
X115722699Y-33145334D01*
X116149683Y-35462102D01*
X116261052Y-36069724D01*
X116361593Y-36624676D01*
X116447356Y-37104650D01*
X116514395Y-37487336D01*
X116558761Y-37750426D01*
X116576508Y-37871610D01*
X116576667Y-37875102D01*
X116502233Y-37939406D01*
X116318832Y-37970707D01*
X116285330Y-37971333D01*
X116075631Y-37950501D01*
X115950864Y-37899634D01*
X115945289Y-37892527D01*
X115917855Y-37791630D01*
X115864737Y-37546155D01*
X115790299Y-37178171D01*
X115698908Y-36709745D01*
X115594930Y-36162947D01*
X115482731Y-35559845D01*
X115469132Y-35485880D01*
X115041682Y-33158039D01*
X115429589Y-31013853D01*
G36*
X117181917Y-29955010D02*
G01*
X117246027Y-29838732D01*
X117401205Y-29741595D01*
X117592667Y-29658020D01*
X117827281Y-29550040D01*
X117981007Y-29459193D01*
X118016000Y-29420000D01*
X117944558Y-29355899D01*
X117760731Y-29256957D01*
X117592667Y-29181981D01*
X117346935Y-29070911D01*
X117220882Y-28972938D01*
X117174968Y-28843513D01*
X117169333Y-28705026D01*
X117169333Y-28404000D01*
X119032000Y-28404000D01*
X119032000Y-28611958D01*
X119022184Y-28719597D01*
X118968614Y-28783920D01*
X118835104Y-28818652D01*
X118585467Y-28837518D01*
X118418167Y-28844791D01*
X117804333Y-28869667D01*
X118248833Y-29070593D01*
X118544634Y-29231833D01*
X118683320Y-29375418D01*
X118693333Y-29420000D01*
X118610918Y-29556064D01*
X118368747Y-29711858D01*
X118248833Y-29769407D01*
X117804333Y-29970333D01*
X118418167Y-29995209D01*
X118734716Y-30011363D01*
X118918171Y-30036946D01*
X119004720Y-30085685D01*
X119030546Y-30171305D01*
X119032000Y-30228043D01*
X119032000Y-30436000D01*
X117169333Y-30436000D01*
X117169333Y-30134975D01*
X117181917Y-29955010D01*
G37*
X117181917Y-29955010D02*
X117246027Y-29838732D01*
X117401205Y-29741595D01*
X117592667Y-29658020D01*
X117827281Y-29550040D01*
X117981007Y-29459193D01*
X118016000Y-29420000D01*
X117944558Y-29355899D01*
X117760731Y-29256957D01*
X117592667Y-29181981D01*
X117346935Y-29070911D01*
X117220882Y-28972938D01*
X117174968Y-28843513D01*
X117169333Y-28705026D01*
X117169333Y-28404000D01*
X119032000Y-28404000D01*
X119032000Y-28611958D01*
X119022184Y-28719597D01*
X118968614Y-28783920D01*
X118835104Y-28818652D01*
X118585467Y-28837518D01*
X118418167Y-28844791D01*
X117804333Y-28869667D01*
X118248833Y-29070593D01*
X118544634Y-29231833D01*
X118683320Y-29375418D01*
X118693333Y-29420000D01*
X118610918Y-29556064D01*
X118368747Y-29711858D01*
X118248833Y-29769407D01*
X117804333Y-29970333D01*
X118418167Y-29995209D01*
X118734716Y-30011363D01*
X118918171Y-30036946D01*
X119004720Y-30085685D01*
X119030546Y-30171305D01*
X119032000Y-30228043D01*
X119032000Y-30436000D01*
X117169333Y-30436000D01*
X117169333Y-30134975D01*
X117181917Y-29955010D01*
G36*
X117178510Y-31195356D02*
G01*
X117218742Y-30930960D01*
X117309087Y-30816646D01*
X117468597Y-30843575D01*
X117716330Y-31002906D01*
X118004714Y-31231100D01*
X118269371Y-31442949D01*
X118484072Y-31606103D01*
X118615987Y-31695990D01*
X118639258Y-31706000D01*
X118668878Y-31629413D01*
X118688519Y-31431859D01*
X118693333Y-31240333D01*
X118700683Y-30971226D01*
X118732461Y-30831035D01*
X118803260Y-30779633D01*
X118862667Y-30774667D01*
X118941369Y-30786813D01*
X118991040Y-30844190D01*
X119018294Y-30978211D01*
X119029741Y-31220285D01*
X119032000Y-31579000D01*
X119028775Y-31954968D01*
X119015244Y-32192479D01*
X118985626Y-32322352D01*
X118934137Y-32375403D01*
X118881075Y-32383333D01*
X118750319Y-32331631D01*
X118531943Y-32193742D01*
X118265320Y-31995494D01*
X118161408Y-31911255D01*
X117592667Y-31439176D01*
X117592667Y-31911255D01*
X117587345Y-32180237D01*
X117559073Y-32321118D01*
X117489391Y-32375069D01*
X117381000Y-32383333D01*
X117280940Y-32377298D01*
X117218748Y-32337505D01*
X117185422Y-32231426D01*
X117171955Y-32026532D01*
X117169345Y-31690295D01*
X117169333Y-31618676D01*
X117178510Y-31195356D01*
G37*
X117178510Y-31195356D02*
X117218742Y-30930960D01*
X117309087Y-30816646D01*
X117468597Y-30843575D01*
X117716330Y-31002906D01*
X118004714Y-31231100D01*
X118269371Y-31442949D01*
X118484072Y-31606103D01*
X118615987Y-31695990D01*
X118639258Y-31706000D01*
X118668878Y-31629413D01*
X118688519Y-31431859D01*
X118693333Y-31240333D01*
X118700683Y-30971226D01*
X118732461Y-30831035D01*
X118803260Y-30779633D01*
X118862667Y-30774667D01*
X118941369Y-30786813D01*
X118991040Y-30844190D01*
X119018294Y-30978211D01*
X119029741Y-31220285D01*
X119032000Y-31579000D01*
X119028775Y-31954968D01*
X119015244Y-32192479D01*
X118985626Y-32322352D01*
X118934137Y-32375403D01*
X118881075Y-32383333D01*
X118750319Y-32331631D01*
X118531943Y-32193742D01*
X118265320Y-31995494D01*
X118161408Y-31911255D01*
X117592667Y-31439176D01*
X117592667Y-31911255D01*
X117587345Y-32180237D01*
X117559073Y-32321118D01*
X117489391Y-32375069D01*
X117381000Y-32383333D01*
X117280940Y-32377298D01*
X117218748Y-32337505D01*
X117185422Y-32231426D01*
X117171955Y-32026532D01*
X117169345Y-31690295D01*
X117169333Y-31618676D01*
X117178510Y-31195356D01*
G36*
X117169805Y-33970833D02*
G01*
X117221315Y-33439594D01*
X117373016Y-33040486D01*
X117623012Y-32776120D01*
X117969408Y-32649103D01*
X118138453Y-32637333D01*
X118509460Y-32703514D01*
X118780497Y-32903323D01*
X118952941Y-33238661D01*
X119028169Y-33711430D01*
X119032000Y-33870512D01*
X119032000Y-34330667D01*
X118144613Y-34330667D01*
X118144613Y-33822667D01*
X118696559Y-33822667D01*
X118640938Y-33589833D01*
X118570607Y-33378614D01*
X118501958Y-33251167D01*
X118345374Y-33168133D01*
X118109954Y-33150108D01*
X117872081Y-33194416D01*
X117725714Y-33278381D01*
X117619315Y-33467315D01*
X117592667Y-33617048D01*
X117603053Y-33727500D01*
X117659649Y-33789094D01*
X117800611Y-33816043D01*
X118064093Y-33822563D01*
X118144613Y-33822667D01*
X118144613Y-34330667D01*
X117169333Y-34330667D01*
X117169805Y-33970833D01*
G37*
X117169805Y-33970833D02*
X117221315Y-33439594D01*
X117373016Y-33040486D01*
X117623012Y-32776120D01*
X117969408Y-32649103D01*
X118138453Y-32637333D01*
X118509460Y-32703514D01*
X118780497Y-32903323D01*
X118952941Y-33238661D01*
X119028169Y-33711430D01*
X119032000Y-33870512D01*
X119032000Y-34330667D01*
X118144613Y-34330667D01*
X118144613Y-33822667D01*
X118696559Y-33822667D01*
X118640938Y-33589833D01*
X118570607Y-33378614D01*
X118501958Y-33251167D01*
X118345374Y-33168133D01*
X118109954Y-33150108D01*
X117872081Y-33194416D01*
X117725714Y-33278381D01*
X117619315Y-33467315D01*
X117592667Y-33617048D01*
X117603053Y-33727500D01*
X117659649Y-33789094D01*
X117800611Y-33816043D01*
X118064093Y-33822563D01*
X118144613Y-33822667D01*
X118144613Y-34330667D01*
X117169333Y-34330667D01*
X117169805Y-33970833D01*
G36*
X117200286Y-35469040D02*
G01*
X117284681Y-35147051D01*
X117409818Y-34937448D01*
X117449797Y-34905186D01*
X117690252Y-34842610D01*
X117942162Y-34913327D01*
X118024145Y-34973038D01*
X118128457Y-35046761D01*
X118236282Y-35042382D01*
X118402824Y-34949975D01*
X118494965Y-34888371D01*
X118764688Y-34725591D01*
X118931800Y-34682043D01*
X119014390Y-34758192D01*
X119031771Y-34902167D01*
X118993330Y-35081024D01*
X118852073Y-35223127D01*
X118715270Y-35304333D01*
X118510789Y-35443350D01*
X118384943Y-35584499D01*
X118370624Y-35621833D01*
X118382265Y-35717912D01*
X118491832Y-35761258D01*
X118687125Y-35770000D01*
X118906847Y-35779567D01*
X119005526Y-35831900D01*
X119031292Y-35962448D01*
X119032000Y-36024000D01*
X119032000Y-36278000D01*
X117810222Y-36278000D01*
X117810222Y-35770000D01*
X117968798Y-35742360D01*
X118006054Y-35630783D01*
X118000722Y-35579500D01*
X117904307Y-35408334D01*
X117783167Y-35361945D01*
X117640873Y-35373301D01*
X117594375Y-35494121D01*
X117592667Y-35552445D01*
X117625115Y-35716163D01*
X117756412Y-35768394D01*
X117810222Y-35770000D01*
X117810222Y-36278000D01*
X117169333Y-36278000D01*
X117169333Y-35860179D01*
X117200286Y-35469040D01*
G37*
X117200286Y-35469040D02*
X117284681Y-35147051D01*
X117409818Y-34937448D01*
X117449797Y-34905186D01*
X117690252Y-34842610D01*
X117942162Y-34913327D01*
X118024145Y-34973038D01*
X118128457Y-35046761D01*
X118236282Y-35042382D01*
X118402824Y-34949975D01*
X118494965Y-34888371D01*
X118764688Y-34725591D01*
X118931800Y-34682043D01*
X119014390Y-34758192D01*
X119031771Y-34902167D01*
X118993330Y-35081024D01*
X118852073Y-35223127D01*
X118715270Y-35304333D01*
X118510789Y-35443350D01*
X118384943Y-35584499D01*
X118370624Y-35621833D01*
X118382265Y-35717912D01*
X118491832Y-35761258D01*
X118687125Y-35770000D01*
X118906847Y-35779567D01*
X119005526Y-35831900D01*
X119031292Y-35962448D01*
X119032000Y-36024000D01*
X119032000Y-36278000D01*
X117810222Y-36278000D01*
X117810222Y-35770000D01*
X117968798Y-35742360D01*
X118006054Y-35630783D01*
X118000722Y-35579500D01*
X117904307Y-35408334D01*
X117783167Y-35361945D01*
X117640873Y-35373301D01*
X117594375Y-35494121D01*
X117592667Y-35552445D01*
X117625115Y-35716163D01*
X117756412Y-35768394D01*
X117810222Y-35770000D01*
X117810222Y-36278000D01*
X117169333Y-36278000D01*
X117169333Y-35860179D01*
X117200286Y-35469040D01*
G36*
X117182707Y-37977800D02*
G01*
X117255179Y-37905399D01*
X117435278Y-37887068D01*
X117508000Y-37886667D01*
X117846667Y-37886667D01*
X117846667Y-37209333D01*
X117502376Y-37209333D01*
X117284237Y-37200484D01*
X117191189Y-37152374D01*
X117179128Y-37032663D01*
X117184876Y-36976500D01*
X117211667Y-36743667D01*
X118121833Y-36719636D01*
X119032000Y-36695605D01*
X119032000Y-36952469D01*
X119021196Y-37110402D01*
X118958135Y-37185203D01*
X118796845Y-37207864D01*
X118651000Y-37209333D01*
X118270000Y-37209333D01*
X118270000Y-37886667D01*
X118651000Y-37886667D01*
X118885283Y-37894030D01*
X118996247Y-37936543D01*
X119029846Y-38044843D01*
X119032000Y-38140667D01*
X119032000Y-38394667D01*
X117169333Y-38394667D01*
X117169333Y-38140667D01*
X117182707Y-37977800D01*
G37*
X117182707Y-37977800D02*
X117255179Y-37905399D01*
X117435278Y-37887068D01*
X117508000Y-37886667D01*
X117846667Y-37886667D01*
X117846667Y-37209333D01*
X117502376Y-37209333D01*
X117284237Y-37200484D01*
X117191189Y-37152374D01*
X117179128Y-37032663D01*
X117184876Y-36976500D01*
X117211667Y-36743667D01*
X118121833Y-36719636D01*
X119032000Y-36695605D01*
X119032000Y-36952469D01*
X119021196Y-37110402D01*
X118958135Y-37185203D01*
X118796845Y-37207864D01*
X118651000Y-37209333D01*
X118270000Y-37209333D01*
X118270000Y-37886667D01*
X118651000Y-37886667D01*
X118885283Y-37894030D01*
X118996247Y-37936543D01*
X119029846Y-38044843D01*
X119032000Y-38140667D01*
X119032000Y-38394667D01*
X117169333Y-38394667D01*
X117169333Y-38140667D01*
X117182707Y-37977800D01*
G36*
X115445231Y-38839167D02*
G01*
X115658111Y-38602935D01*
X115815961Y-38469597D01*
X115969733Y-38409977D01*
X116170380Y-38394903D01*
X116221564Y-38394667D01*
X116613215Y-38394667D01*
X116172121Y-38841309D01*
X115731028Y-39287951D01*
X116003641Y-39560564D01*
X116276254Y-39833178D01*
X116749471Y-39364899D01*
X117222687Y-38896620D01*
X119043753Y-38945000D01*
X118800410Y-39177833D01*
X118650301Y-39303636D01*
X118494676Y-39373933D01*
X118277766Y-39404383D01*
X117971158Y-39410667D01*
X117385249Y-39410667D01*
X116830669Y-39960997D01*
X116276089Y-40511328D01*
X115668319Y-39897497D01*
X115060549Y-39283667D01*
X115445231Y-38839167D01*
G37*
X115445231Y-38839167D02*
X115658111Y-38602935D01*
X115815961Y-38469597D01*
X115969733Y-38409977D01*
X116170380Y-38394903D01*
X116221564Y-38394667D01*
X116613215Y-38394667D01*
X116172121Y-38841309D01*
X115731028Y-39287951D01*
X116003641Y-39560564D01*
X116276254Y-39833178D01*
X116749471Y-39364899D01*
X117222687Y-38896620D01*
X119043753Y-38945000D01*
X118800410Y-39177833D01*
X118650301Y-39303636D01*
X118494676Y-39373933D01*
X118277766Y-39404383D01*
X117971158Y-39410667D01*
X117385249Y-39410667D01*
X116830669Y-39960997D01*
X116276089Y-40511328D01*
X115668319Y-39897497D01*
X115060549Y-39283667D01*
X115445231Y-38839167D01*
D11*
%TO.C,U1*%
X68760000Y-108580000D02*
X68760000Y-107650000D01*
X68760000Y-105420000D02*
X68760000Y-106350000D01*
X68760000Y-105420000D02*
X66600000Y-105420000D01*
X68760000Y-108580000D02*
X67300000Y-108580000D01*
%TO.C,C2*%
X63711252Y-105590000D02*
X62288748Y-105590000D01*
X63711252Y-107410000D02*
X62288748Y-107410000D01*
%TO.C,J7*%
X71670000Y-107670000D02*
X73000000Y-107670000D01*
X71670000Y-109000000D02*
X71670000Y-107670000D01*
X74270000Y-107670000D02*
X76870000Y-107670000D01*
X74270000Y-110270000D02*
X74270000Y-107670000D01*
X71670000Y-110270000D02*
X74270000Y-110270000D01*
X76870000Y-107670000D02*
X76870000Y-115410000D01*
X71670000Y-110270000D02*
X71670000Y-115410000D01*
X71670000Y-115410000D02*
X76870000Y-115410000D01*
D10*
%TO.C,G1*%
G36*
X74936196Y-118174013D02*
G01*
X75160220Y-118403331D01*
X75291224Y-118570323D01*
X75353769Y-118719324D01*
X75372417Y-118894669D01*
X75373125Y-118962702D01*
X75373125Y-119319889D01*
X74937360Y-118889538D01*
X74501596Y-118459186D01*
X74221989Y-118730191D01*
X73942383Y-119001196D01*
X74822975Y-119891074D01*
X74800394Y-120784464D01*
X74777812Y-121677854D01*
X74559531Y-121449740D01*
X74442035Y-121309741D01*
X74376152Y-121164760D01*
X74347390Y-120962900D01*
X74341250Y-120668051D01*
X74341250Y-120114476D01*
X73825312Y-119603125D01*
X73597954Y-119369174D01*
X73421741Y-119171455D01*
X73322306Y-119039529D01*
X73309375Y-119008118D01*
X73362618Y-118920739D01*
X73506516Y-118750222D01*
X73717326Y-118523493D01*
X73904321Y-118333488D01*
X74499268Y-117742513D01*
X74936196Y-118174013D01*
G37*
X74936196Y-118174013D02*
X75160220Y-118403331D01*
X75291224Y-118570323D01*
X75353769Y-118719324D01*
X75372417Y-118894669D01*
X75373125Y-118962702D01*
X75373125Y-119319889D01*
X74937360Y-118889538D01*
X74501596Y-118459186D01*
X74221989Y-118730191D01*
X73942383Y-119001196D01*
X74822975Y-119891074D01*
X74800394Y-120784464D01*
X74777812Y-121677854D01*
X74559531Y-121449740D01*
X74442035Y-121309741D01*
X74376152Y-121164760D01*
X74347390Y-120962900D01*
X74341250Y-120668051D01*
X74341250Y-120114476D01*
X73825312Y-119603125D01*
X73597954Y-119369174D01*
X73421741Y-119171455D01*
X73322306Y-119039529D01*
X73309375Y-119008118D01*
X73362618Y-118920739D01*
X73506516Y-118750222D01*
X73717326Y-118523493D01*
X73904321Y-118333488D01*
X74499268Y-117742513D01*
X74936196Y-118174013D01*
G36*
X72993314Y-118374117D02*
G01*
X72996666Y-118377148D01*
X73101276Y-118494777D01*
X73087044Y-118599718D01*
X73030272Y-118683626D01*
X72746130Y-119184288D01*
X72613038Y-119699670D01*
X72629888Y-120211618D01*
X72795571Y-120701978D01*
X73108979Y-121152595D01*
X73185918Y-121233002D01*
X73635502Y-121586300D01*
X74110838Y-121785985D01*
X74597619Y-121832058D01*
X75081538Y-121724518D01*
X75548286Y-121463366D01*
X75814081Y-121233002D01*
X76155709Y-120792086D01*
X76349824Y-120307945D01*
X76395319Y-119798732D01*
X76291085Y-119282601D01*
X76036013Y-118777707D01*
X75969727Y-118683626D01*
X75892661Y-118550060D01*
X75929417Y-118449592D01*
X76003333Y-118377148D01*
X76095643Y-118305108D01*
X76169653Y-118306372D01*
X76258787Y-118401304D01*
X76396469Y-118610272D01*
X76403109Y-118620739D01*
X76654504Y-119105894D01*
X76775576Y-119587027D01*
X76781585Y-120121397D01*
X76659228Y-120698000D01*
X76396881Y-121216996D01*
X76009151Y-121656847D01*
X75510647Y-121996013D01*
X75509923Y-121996385D01*
X75157971Y-122119791D01*
X74726438Y-122189529D01*
X74281015Y-122201228D01*
X73887393Y-122150515D01*
X73761652Y-122112708D01*
X73222436Y-121834626D01*
X72782005Y-121449179D01*
X72455383Y-120977102D01*
X72257593Y-120439127D01*
X72202051Y-119960312D01*
X72239783Y-119469530D01*
X72374933Y-119030029D01*
X72597854Y-118619219D01*
X72737716Y-118406070D01*
X72827885Y-118307742D01*
X72901904Y-118303878D01*
X72993314Y-118374117D01*
G37*
X72993314Y-118374117D02*
X72996666Y-118377148D01*
X73101276Y-118494777D01*
X73087044Y-118599718D01*
X73030272Y-118683626D01*
X72746130Y-119184288D01*
X72613038Y-119699670D01*
X72629888Y-120211618D01*
X72795571Y-120701978D01*
X73108979Y-121152595D01*
X73185918Y-121233002D01*
X73635502Y-121586300D01*
X74110838Y-121785985D01*
X74597619Y-121832058D01*
X75081538Y-121724518D01*
X75548286Y-121463366D01*
X75814081Y-121233002D01*
X76155709Y-120792086D01*
X76349824Y-120307945D01*
X76395319Y-119798732D01*
X76291085Y-119282601D01*
X76036013Y-118777707D01*
X75969727Y-118683626D01*
X75892661Y-118550060D01*
X75929417Y-118449592D01*
X76003333Y-118377148D01*
X76095643Y-118305108D01*
X76169653Y-118306372D01*
X76258787Y-118401304D01*
X76396469Y-118610272D01*
X76403109Y-118620739D01*
X76654504Y-119105894D01*
X76775576Y-119587027D01*
X76781585Y-120121397D01*
X76659228Y-120698000D01*
X76396881Y-121216996D01*
X76009151Y-121656847D01*
X75510647Y-121996013D01*
X75509923Y-121996385D01*
X75157971Y-122119791D01*
X74726438Y-122189529D01*
X74281015Y-122201228D01*
X73887393Y-122150515D01*
X73761652Y-122112708D01*
X73222436Y-121834626D01*
X72782005Y-121449179D01*
X72455383Y-120977102D01*
X72257593Y-120439127D01*
X72202051Y-119960312D01*
X72239783Y-119469530D01*
X72374933Y-119030029D01*
X72597854Y-118619219D01*
X72737716Y-118406070D01*
X72827885Y-118307742D01*
X72901904Y-118303878D01*
X72993314Y-118374117D01*
D11*
%TO.C,R5*%
X105727064Y-118235000D02*
X105272936Y-118235000D01*
X105727064Y-116765000D02*
X105272936Y-116765000D01*
%TO.C,J5*%
X108590000Y-115760000D02*
X108980000Y-115760000D01*
X108590000Y-115760000D02*
X108590000Y-115310000D01*
X107900000Y-110225000D02*
X107900000Y-110875000D01*
X109630000Y-110190000D02*
X107900000Y-110190000D01*
X113590000Y-117810000D02*
X113380000Y-117810000D01*
X113590000Y-110190000D02*
X113380000Y-110190000D01*
X109630000Y-117810000D02*
X107900000Y-117810000D01*
X107900000Y-117700000D02*
X107900000Y-117040000D01*
X64900000Y-117700000D02*
X64900000Y-117040000D01*
X66630000Y-117810000D02*
X64900000Y-117810000D01*
X70590000Y-110190000D02*
X70380000Y-110190000D01*
X70590000Y-117810000D02*
X70380000Y-117810000D01*
X66630000Y-110190000D02*
X64900000Y-110190000D01*
X64900000Y-110225000D02*
X64900000Y-110875000D01*
X65590000Y-115760000D02*
X65590000Y-115310000D01*
X65590000Y-115760000D02*
X65980000Y-115760000D01*
D10*
%TO.C,G1*%
G36*
X29993314Y-118374117D02*
G01*
X29996666Y-118377148D01*
X30101276Y-118494777D01*
X30087044Y-118599718D01*
X30030272Y-118683626D01*
X29746130Y-119184288D01*
X29613038Y-119699670D01*
X29629888Y-120211618D01*
X29795571Y-120701978D01*
X30108979Y-121152595D01*
X30185918Y-121233002D01*
X30635502Y-121586300D01*
X31110838Y-121785985D01*
X31597619Y-121832058D01*
X32081538Y-121724518D01*
X32548286Y-121463366D01*
X32814081Y-121233002D01*
X33155709Y-120792086D01*
X33349824Y-120307945D01*
X33395319Y-119798732D01*
X33291085Y-119282601D01*
X33036013Y-118777707D01*
X32969727Y-118683626D01*
X32892661Y-118550060D01*
X32929417Y-118449592D01*
X33003333Y-118377148D01*
X33095643Y-118305108D01*
X33169653Y-118306372D01*
X33258787Y-118401304D01*
X33396469Y-118610272D01*
X33403109Y-118620739D01*
X33654504Y-119105894D01*
X33775576Y-119587027D01*
X33781585Y-120121397D01*
X33659228Y-120698000D01*
X33396881Y-121216996D01*
X33009151Y-121656847D01*
X32510647Y-121996013D01*
X32509923Y-121996385D01*
X32157971Y-122119791D01*
X31726438Y-122189529D01*
X31281015Y-122201228D01*
X30887393Y-122150515D01*
X30761652Y-122112708D01*
X30222436Y-121834626D01*
X29782005Y-121449179D01*
X29455383Y-120977102D01*
X29257593Y-120439127D01*
X29202051Y-119960312D01*
X29239783Y-119469530D01*
X29374933Y-119030029D01*
X29597854Y-118619219D01*
X29737716Y-118406070D01*
X29827885Y-118307742D01*
X29901904Y-118303878D01*
X29993314Y-118374117D01*
G37*
X29993314Y-118374117D02*
X29996666Y-118377148D01*
X30101276Y-118494777D01*
X30087044Y-118599718D01*
X30030272Y-118683626D01*
X29746130Y-119184288D01*
X29613038Y-119699670D01*
X29629888Y-120211618D01*
X29795571Y-120701978D01*
X30108979Y-121152595D01*
X30185918Y-121233002D01*
X30635502Y-121586300D01*
X31110838Y-121785985D01*
X31597619Y-121832058D01*
X32081538Y-121724518D01*
X32548286Y-121463366D01*
X32814081Y-121233002D01*
X33155709Y-120792086D01*
X33349824Y-120307945D01*
X33395319Y-119798732D01*
X33291085Y-119282601D01*
X33036013Y-118777707D01*
X32969727Y-118683626D01*
X32892661Y-118550060D01*
X32929417Y-118449592D01*
X33003333Y-118377148D01*
X33095643Y-118305108D01*
X33169653Y-118306372D01*
X33258787Y-118401304D01*
X33396469Y-118610272D01*
X33403109Y-118620739D01*
X33654504Y-119105894D01*
X33775576Y-119587027D01*
X33781585Y-120121397D01*
X33659228Y-120698000D01*
X33396881Y-121216996D01*
X33009151Y-121656847D01*
X32510647Y-121996013D01*
X32509923Y-121996385D01*
X32157971Y-122119791D01*
X31726438Y-122189529D01*
X31281015Y-122201228D01*
X30887393Y-122150515D01*
X30761652Y-122112708D01*
X30222436Y-121834626D01*
X29782005Y-121449179D01*
X29455383Y-120977102D01*
X29257593Y-120439127D01*
X29202051Y-119960312D01*
X29239783Y-119469530D01*
X29374933Y-119030029D01*
X29597854Y-118619219D01*
X29737716Y-118406070D01*
X29827885Y-118307742D01*
X29901904Y-118303878D01*
X29993314Y-118374117D01*
G36*
X31936196Y-118174013D02*
G01*
X32160220Y-118403331D01*
X32291224Y-118570323D01*
X32353769Y-118719324D01*
X32372417Y-118894669D01*
X32373125Y-118962702D01*
X32373125Y-119319889D01*
X31937360Y-118889538D01*
X31501596Y-118459186D01*
X31221989Y-118730191D01*
X30942383Y-119001196D01*
X31822975Y-119891074D01*
X31800394Y-120784464D01*
X31777812Y-121677854D01*
X31559531Y-121449740D01*
X31442035Y-121309741D01*
X31376152Y-121164760D01*
X31347390Y-120962900D01*
X31341250Y-120668051D01*
X31341250Y-120114476D01*
X30825312Y-119603125D01*
X30597954Y-119369174D01*
X30421741Y-119171455D01*
X30322306Y-119039529D01*
X30309375Y-119008118D01*
X30362618Y-118920739D01*
X30506516Y-118750222D01*
X30717326Y-118523493D01*
X30904321Y-118333488D01*
X31499268Y-117742513D01*
X31936196Y-118174013D01*
G37*
X31936196Y-118174013D02*
X32160220Y-118403331D01*
X32291224Y-118570323D01*
X32353769Y-118719324D01*
X32372417Y-118894669D01*
X32373125Y-118962702D01*
X32373125Y-119319889D01*
X31937360Y-118889538D01*
X31501596Y-118459186D01*
X31221989Y-118730191D01*
X30942383Y-119001196D01*
X31822975Y-119891074D01*
X31800394Y-120784464D01*
X31777812Y-121677854D01*
X31559531Y-121449740D01*
X31442035Y-121309741D01*
X31376152Y-121164760D01*
X31347390Y-120962900D01*
X31341250Y-120668051D01*
X31341250Y-120114476D01*
X30825312Y-119603125D01*
X30597954Y-119369174D01*
X30421741Y-119171455D01*
X30322306Y-119039529D01*
X30309375Y-119008118D01*
X30362618Y-118920739D01*
X30506516Y-118750222D01*
X30717326Y-118523493D01*
X30904321Y-118333488D01*
X31499268Y-117742513D01*
X31936196Y-118174013D01*
D11*
%TO.C,R5*%
X62727064Y-116765000D02*
X62272936Y-116765000D01*
X62727064Y-118235000D02*
X62272936Y-118235000D01*
%TO.C,SW1*%
X61940000Y-122850000D02*
X61940000Y-119150000D01*
X68060000Y-122850000D02*
X61940000Y-122850000D01*
X68060000Y-119150000D02*
X68060000Y-122850000D01*
X61940000Y-119150000D02*
X68060000Y-119150000D01*
%TO.C,R1*%
X62272936Y-108265000D02*
X62727064Y-108265000D01*
X62272936Y-109735000D02*
X62727064Y-109735000D01*
%TO.C,SW1*%
X104940000Y-119150000D02*
X111060000Y-119150000D01*
X111060000Y-119150000D02*
X111060000Y-122850000D01*
X111060000Y-122850000D02*
X104940000Y-122850000D01*
X104940000Y-122850000D02*
X104940000Y-119150000D01*
%TO.C,R1*%
X105272936Y-109735000D02*
X105727064Y-109735000D01*
X105272936Y-108265000D02*
X105727064Y-108265000D01*
%TO.C,U1*%
X111760000Y-108580000D02*
X110300000Y-108580000D01*
X111760000Y-105420000D02*
X109600000Y-105420000D01*
X111760000Y-105420000D02*
X111760000Y-106350000D01*
X111760000Y-108580000D02*
X111760000Y-107650000D01*
%TO.C,C2*%
X106711252Y-107410000D02*
X105288748Y-107410000D01*
X106711252Y-105590000D02*
X105288748Y-105590000D01*
%TO.C,U2*%
X77880000Y-122120000D02*
X77880000Y-105880000D01*
X77880000Y-105880000D02*
X85500000Y-105880000D01*
X101500000Y-105880000D02*
X102120000Y-105880000D01*
X102120000Y-105880000D02*
X102120000Y-108000000D01*
X102120000Y-120000000D02*
X102120000Y-122120000D01*
X102120000Y-122120000D02*
X101500000Y-122120000D01*
X85500000Y-122120000D02*
X77880000Y-122120000D01*
X85500000Y-122120000D02*
X85500000Y-122730000D01*
X42500000Y-122120000D02*
X42500000Y-122730000D01*
X42500000Y-122120000D02*
X34880000Y-122120000D01*
X59120000Y-122120000D02*
X58500000Y-122120000D01*
X59120000Y-120000000D02*
X59120000Y-122120000D01*
X59120000Y-105880000D02*
X59120000Y-108000000D01*
X58500000Y-105880000D02*
X59120000Y-105880000D01*
X34880000Y-105880000D02*
X42500000Y-105880000D01*
X34880000Y-122120000D02*
X34880000Y-105880000D01*
%TO.C,J7*%
X28670000Y-115410000D02*
X33870000Y-115410000D01*
X28670000Y-110270000D02*
X28670000Y-115410000D01*
X33870000Y-107670000D02*
X33870000Y-115410000D01*
X28670000Y-110270000D02*
X31270000Y-110270000D01*
X31270000Y-110270000D02*
X31270000Y-107670000D01*
X31270000Y-107670000D02*
X33870000Y-107670000D01*
X28670000Y-109000000D02*
X28670000Y-107670000D01*
X28670000Y-107670000D02*
X30000000Y-107670000D01*
%TO.C,J5*%
X65590000Y-95760000D02*
X65980000Y-95760000D01*
X65590000Y-95760000D02*
X65590000Y-95310000D01*
X64900000Y-90225000D02*
X64900000Y-90875000D01*
X66630000Y-90190000D02*
X64900000Y-90190000D01*
X70590000Y-97810000D02*
X70380000Y-97810000D01*
X70590000Y-90190000D02*
X70380000Y-90190000D01*
X66630000Y-97810000D02*
X64900000Y-97810000D01*
X64900000Y-97700000D02*
X64900000Y-97040000D01*
D10*
%TO.C,G1*%
G36*
X31936196Y-98174013D02*
G01*
X32160220Y-98403331D01*
X32291224Y-98570323D01*
X32353769Y-98719324D01*
X32372417Y-98894669D01*
X32373125Y-98962702D01*
X32373125Y-99319889D01*
X31937360Y-98889538D01*
X31501596Y-98459186D01*
X31221989Y-98730191D01*
X30942383Y-99001196D01*
X31822975Y-99891074D01*
X31800394Y-100784464D01*
X31777812Y-101677854D01*
X31559531Y-101449740D01*
X31442035Y-101309741D01*
X31376152Y-101164760D01*
X31347390Y-100962900D01*
X31341250Y-100668051D01*
X31341250Y-100114476D01*
X30825312Y-99603125D01*
X30597954Y-99369174D01*
X30421741Y-99171455D01*
X30322306Y-99039529D01*
X30309375Y-99008118D01*
X30362618Y-98920739D01*
X30506516Y-98750222D01*
X30717326Y-98523493D01*
X30904321Y-98333488D01*
X31499268Y-97742513D01*
X31936196Y-98174013D01*
G37*
X31936196Y-98174013D02*
X32160220Y-98403331D01*
X32291224Y-98570323D01*
X32353769Y-98719324D01*
X32372417Y-98894669D01*
X32373125Y-98962702D01*
X32373125Y-99319889D01*
X31937360Y-98889538D01*
X31501596Y-98459186D01*
X31221989Y-98730191D01*
X30942383Y-99001196D01*
X31822975Y-99891074D01*
X31800394Y-100784464D01*
X31777812Y-101677854D01*
X31559531Y-101449740D01*
X31442035Y-101309741D01*
X31376152Y-101164760D01*
X31347390Y-100962900D01*
X31341250Y-100668051D01*
X31341250Y-100114476D01*
X30825312Y-99603125D01*
X30597954Y-99369174D01*
X30421741Y-99171455D01*
X30322306Y-99039529D01*
X30309375Y-99008118D01*
X30362618Y-98920739D01*
X30506516Y-98750222D01*
X30717326Y-98523493D01*
X30904321Y-98333488D01*
X31499268Y-97742513D01*
X31936196Y-98174013D01*
G36*
X29993314Y-98374117D02*
G01*
X29996666Y-98377148D01*
X30101276Y-98494777D01*
X30087044Y-98599718D01*
X30030272Y-98683626D01*
X29746130Y-99184288D01*
X29613038Y-99699670D01*
X29629888Y-100211618D01*
X29795571Y-100701978D01*
X30108979Y-101152595D01*
X30185918Y-101233002D01*
X30635502Y-101586300D01*
X31110838Y-101785985D01*
X31597619Y-101832058D01*
X32081538Y-101724518D01*
X32548286Y-101463366D01*
X32814081Y-101233002D01*
X33155709Y-100792086D01*
X33349824Y-100307945D01*
X33395319Y-99798732D01*
X33291085Y-99282601D01*
X33036013Y-98777707D01*
X32969727Y-98683626D01*
X32892661Y-98550060D01*
X32929417Y-98449592D01*
X33003333Y-98377148D01*
X33095643Y-98305108D01*
X33169653Y-98306372D01*
X33258787Y-98401304D01*
X33396469Y-98610272D01*
X33403109Y-98620739D01*
X33654504Y-99105894D01*
X33775576Y-99587027D01*
X33781585Y-100121397D01*
X33659228Y-100698000D01*
X33396881Y-101216996D01*
X33009151Y-101656847D01*
X32510647Y-101996013D01*
X32509923Y-101996385D01*
X32157971Y-102119791D01*
X31726438Y-102189529D01*
X31281015Y-102201228D01*
X30887393Y-102150515D01*
X30761652Y-102112708D01*
X30222436Y-101834626D01*
X29782005Y-101449179D01*
X29455383Y-100977102D01*
X29257593Y-100439127D01*
X29202051Y-99960312D01*
X29239783Y-99469530D01*
X29374933Y-99030029D01*
X29597854Y-98619219D01*
X29737716Y-98406070D01*
X29827885Y-98307742D01*
X29901904Y-98303878D01*
X29993314Y-98374117D01*
G37*
X29993314Y-98374117D02*
X29996666Y-98377148D01*
X30101276Y-98494777D01*
X30087044Y-98599718D01*
X30030272Y-98683626D01*
X29746130Y-99184288D01*
X29613038Y-99699670D01*
X29629888Y-100211618D01*
X29795571Y-100701978D01*
X30108979Y-101152595D01*
X30185918Y-101233002D01*
X30635502Y-101586300D01*
X31110838Y-101785985D01*
X31597619Y-101832058D01*
X32081538Y-101724518D01*
X32548286Y-101463366D01*
X32814081Y-101233002D01*
X33155709Y-100792086D01*
X33349824Y-100307945D01*
X33395319Y-99798732D01*
X33291085Y-99282601D01*
X33036013Y-98777707D01*
X32969727Y-98683626D01*
X32892661Y-98550060D01*
X32929417Y-98449592D01*
X33003333Y-98377148D01*
X33095643Y-98305108D01*
X33169653Y-98306372D01*
X33258787Y-98401304D01*
X33396469Y-98610272D01*
X33403109Y-98620739D01*
X33654504Y-99105894D01*
X33775576Y-99587027D01*
X33781585Y-100121397D01*
X33659228Y-100698000D01*
X33396881Y-101216996D01*
X33009151Y-101656847D01*
X32510647Y-101996013D01*
X32509923Y-101996385D01*
X32157971Y-102119791D01*
X31726438Y-102189529D01*
X31281015Y-102201228D01*
X30887393Y-102150515D01*
X30761652Y-102112708D01*
X30222436Y-101834626D01*
X29782005Y-101449179D01*
X29455383Y-100977102D01*
X29257593Y-100439127D01*
X29202051Y-99960312D01*
X29239783Y-99469530D01*
X29374933Y-99030029D01*
X29597854Y-98619219D01*
X29737716Y-98406070D01*
X29827885Y-98307742D01*
X29901904Y-98303878D01*
X29993314Y-98374117D01*
D11*
%TO.C,U1*%
X68760000Y-88580000D02*
X67300000Y-88580000D01*
X68760000Y-85420000D02*
X66600000Y-85420000D01*
X68760000Y-85420000D02*
X68760000Y-86350000D01*
X68760000Y-88580000D02*
X68760000Y-87650000D01*
%TO.C,R1*%
X62272936Y-89735000D02*
X62727064Y-89735000D01*
X62272936Y-88265000D02*
X62727064Y-88265000D01*
%TO.C,J7*%
X71670000Y-95410000D02*
X76870000Y-95410000D01*
X71670000Y-90270000D02*
X71670000Y-95410000D01*
X76870000Y-87670000D02*
X76870000Y-95410000D01*
X71670000Y-90270000D02*
X74270000Y-90270000D01*
X74270000Y-90270000D02*
X74270000Y-87670000D01*
X74270000Y-87670000D02*
X76870000Y-87670000D01*
X71670000Y-89000000D02*
X71670000Y-87670000D01*
X71670000Y-87670000D02*
X73000000Y-87670000D01*
%TO.C,R5*%
X105727064Y-96765000D02*
X105272936Y-96765000D01*
X105727064Y-98235000D02*
X105272936Y-98235000D01*
%TO.C,R1*%
X105272936Y-88265000D02*
X105727064Y-88265000D01*
X105272936Y-89735000D02*
X105727064Y-89735000D01*
%TO.C,R5*%
X62727064Y-98235000D02*
X62272936Y-98235000D01*
X62727064Y-96765000D02*
X62272936Y-96765000D01*
%TO.C,SW1*%
X104940000Y-102850000D02*
X104940000Y-99150000D01*
X111060000Y-102850000D02*
X104940000Y-102850000D01*
X111060000Y-99150000D02*
X111060000Y-102850000D01*
X104940000Y-99150000D02*
X111060000Y-99150000D01*
X61940000Y-99150000D02*
X68060000Y-99150000D01*
X68060000Y-99150000D02*
X68060000Y-102850000D01*
X68060000Y-102850000D02*
X61940000Y-102850000D01*
X61940000Y-102850000D02*
X61940000Y-99150000D01*
%TO.C,C2*%
X63711252Y-87410000D02*
X62288748Y-87410000D01*
X63711252Y-85590000D02*
X62288748Y-85590000D01*
%TO.C,J5*%
X107900000Y-97700000D02*
X107900000Y-97040000D01*
X109630000Y-97810000D02*
X107900000Y-97810000D01*
X113590000Y-90190000D02*
X113380000Y-90190000D01*
X113590000Y-97810000D02*
X113380000Y-97810000D01*
X109630000Y-90190000D02*
X107900000Y-90190000D01*
X107900000Y-90225000D02*
X107900000Y-90875000D01*
X108590000Y-95760000D02*
X108590000Y-95310000D01*
X108590000Y-95760000D02*
X108980000Y-95760000D01*
D10*
%TO.C,G1*%
G36*
X72993314Y-98374117D02*
G01*
X72996666Y-98377148D01*
X73101276Y-98494777D01*
X73087044Y-98599718D01*
X73030272Y-98683626D01*
X72746130Y-99184288D01*
X72613038Y-99699670D01*
X72629888Y-100211618D01*
X72795571Y-100701978D01*
X73108979Y-101152595D01*
X73185918Y-101233002D01*
X73635502Y-101586300D01*
X74110838Y-101785985D01*
X74597619Y-101832058D01*
X75081538Y-101724518D01*
X75548286Y-101463366D01*
X75814081Y-101233002D01*
X76155709Y-100792086D01*
X76349824Y-100307945D01*
X76395319Y-99798732D01*
X76291085Y-99282601D01*
X76036013Y-98777707D01*
X75969727Y-98683626D01*
X75892661Y-98550060D01*
X75929417Y-98449592D01*
X76003333Y-98377148D01*
X76095643Y-98305108D01*
X76169653Y-98306372D01*
X76258787Y-98401304D01*
X76396469Y-98610272D01*
X76403109Y-98620739D01*
X76654504Y-99105894D01*
X76775576Y-99587027D01*
X76781585Y-100121397D01*
X76659228Y-100698000D01*
X76396881Y-101216996D01*
X76009151Y-101656847D01*
X75510647Y-101996013D01*
X75509923Y-101996385D01*
X75157971Y-102119791D01*
X74726438Y-102189529D01*
X74281015Y-102201228D01*
X73887393Y-102150515D01*
X73761652Y-102112708D01*
X73222436Y-101834626D01*
X72782005Y-101449179D01*
X72455383Y-100977102D01*
X72257593Y-100439127D01*
X72202051Y-99960312D01*
X72239783Y-99469530D01*
X72374933Y-99030029D01*
X72597854Y-98619219D01*
X72737716Y-98406070D01*
X72827885Y-98307742D01*
X72901904Y-98303878D01*
X72993314Y-98374117D01*
G37*
X72993314Y-98374117D02*
X72996666Y-98377148D01*
X73101276Y-98494777D01*
X73087044Y-98599718D01*
X73030272Y-98683626D01*
X72746130Y-99184288D01*
X72613038Y-99699670D01*
X72629888Y-100211618D01*
X72795571Y-100701978D01*
X73108979Y-101152595D01*
X73185918Y-101233002D01*
X73635502Y-101586300D01*
X74110838Y-101785985D01*
X74597619Y-101832058D01*
X75081538Y-101724518D01*
X75548286Y-101463366D01*
X75814081Y-101233002D01*
X76155709Y-100792086D01*
X76349824Y-100307945D01*
X76395319Y-99798732D01*
X76291085Y-99282601D01*
X76036013Y-98777707D01*
X75969727Y-98683626D01*
X75892661Y-98550060D01*
X75929417Y-98449592D01*
X76003333Y-98377148D01*
X76095643Y-98305108D01*
X76169653Y-98306372D01*
X76258787Y-98401304D01*
X76396469Y-98610272D01*
X76403109Y-98620739D01*
X76654504Y-99105894D01*
X76775576Y-99587027D01*
X76781585Y-100121397D01*
X76659228Y-100698000D01*
X76396881Y-101216996D01*
X76009151Y-101656847D01*
X75510647Y-101996013D01*
X75509923Y-101996385D01*
X75157971Y-102119791D01*
X74726438Y-102189529D01*
X74281015Y-102201228D01*
X73887393Y-102150515D01*
X73761652Y-102112708D01*
X73222436Y-101834626D01*
X72782005Y-101449179D01*
X72455383Y-100977102D01*
X72257593Y-100439127D01*
X72202051Y-99960312D01*
X72239783Y-99469530D01*
X72374933Y-99030029D01*
X72597854Y-98619219D01*
X72737716Y-98406070D01*
X72827885Y-98307742D01*
X72901904Y-98303878D01*
X72993314Y-98374117D01*
G36*
X74936196Y-98174013D02*
G01*
X75160220Y-98403331D01*
X75291224Y-98570323D01*
X75353769Y-98719324D01*
X75372417Y-98894669D01*
X75373125Y-98962702D01*
X75373125Y-99319889D01*
X74937360Y-98889538D01*
X74501596Y-98459186D01*
X74221989Y-98730191D01*
X73942383Y-99001196D01*
X74822975Y-99891074D01*
X74800394Y-100784464D01*
X74777812Y-101677854D01*
X74559531Y-101449740D01*
X74442035Y-101309741D01*
X74376152Y-101164760D01*
X74347390Y-100962900D01*
X74341250Y-100668051D01*
X74341250Y-100114476D01*
X73825312Y-99603125D01*
X73597954Y-99369174D01*
X73421741Y-99171455D01*
X73322306Y-99039529D01*
X73309375Y-99008118D01*
X73362618Y-98920739D01*
X73506516Y-98750222D01*
X73717326Y-98523493D01*
X73904321Y-98333488D01*
X74499268Y-97742513D01*
X74936196Y-98174013D01*
G37*
X74936196Y-98174013D02*
X75160220Y-98403331D01*
X75291224Y-98570323D01*
X75353769Y-98719324D01*
X75372417Y-98894669D01*
X75373125Y-98962702D01*
X75373125Y-99319889D01*
X74937360Y-98889538D01*
X74501596Y-98459186D01*
X74221989Y-98730191D01*
X73942383Y-99001196D01*
X74822975Y-99891074D01*
X74800394Y-100784464D01*
X74777812Y-101677854D01*
X74559531Y-101449740D01*
X74442035Y-101309741D01*
X74376152Y-101164760D01*
X74347390Y-100962900D01*
X74341250Y-100668051D01*
X74341250Y-100114476D01*
X73825312Y-99603125D01*
X73597954Y-99369174D01*
X73421741Y-99171455D01*
X73322306Y-99039529D01*
X73309375Y-99008118D01*
X73362618Y-98920739D01*
X73506516Y-98750222D01*
X73717326Y-98523493D01*
X73904321Y-98333488D01*
X74499268Y-97742513D01*
X74936196Y-98174013D01*
D11*
%TO.C,C2*%
X106711252Y-85590000D02*
X105288748Y-85590000D01*
X106711252Y-87410000D02*
X105288748Y-87410000D01*
%TO.C,U2*%
X34880000Y-102120000D02*
X34880000Y-85880000D01*
X34880000Y-85880000D02*
X42500000Y-85880000D01*
X58500000Y-85880000D02*
X59120000Y-85880000D01*
X59120000Y-85880000D02*
X59120000Y-88000000D01*
X59120000Y-100000000D02*
X59120000Y-102120000D01*
X59120000Y-102120000D02*
X58500000Y-102120000D01*
X42500000Y-102120000D02*
X34880000Y-102120000D01*
X42500000Y-102120000D02*
X42500000Y-102730000D01*
X85500000Y-102120000D02*
X85500000Y-102730000D01*
X85500000Y-102120000D02*
X77880000Y-102120000D01*
X102120000Y-102120000D02*
X101500000Y-102120000D01*
X102120000Y-100000000D02*
X102120000Y-102120000D01*
X102120000Y-85880000D02*
X102120000Y-88000000D01*
X101500000Y-85880000D02*
X102120000Y-85880000D01*
X77880000Y-85880000D02*
X85500000Y-85880000D01*
X77880000Y-102120000D02*
X77880000Y-85880000D01*
%TO.C,J7*%
X28670000Y-87670000D02*
X30000000Y-87670000D01*
X28670000Y-89000000D02*
X28670000Y-87670000D01*
X31270000Y-87670000D02*
X33870000Y-87670000D01*
X31270000Y-90270000D02*
X31270000Y-87670000D01*
X28670000Y-90270000D02*
X31270000Y-90270000D01*
X33870000Y-87670000D02*
X33870000Y-95410000D01*
X28670000Y-90270000D02*
X28670000Y-95410000D01*
X28670000Y-95410000D02*
X33870000Y-95410000D01*
%TO.C,U1*%
X111760000Y-88580000D02*
X111760000Y-87650000D01*
X111760000Y-85420000D02*
X111760000Y-86350000D01*
X111760000Y-85420000D02*
X109600000Y-85420000D01*
X111760000Y-88580000D02*
X110300000Y-88580000D01*
%TO.C,J5*%
X64900000Y-77700000D02*
X64900000Y-77040000D01*
X66630000Y-77810000D02*
X64900000Y-77810000D01*
X70590000Y-70190000D02*
X70380000Y-70190000D01*
X70590000Y-77810000D02*
X70380000Y-77810000D01*
X66630000Y-70190000D02*
X64900000Y-70190000D01*
X64900000Y-70225000D02*
X64900000Y-70875000D01*
X65590000Y-75760000D02*
X65590000Y-75310000D01*
X65590000Y-75760000D02*
X65980000Y-75760000D01*
D10*
%TO.C,G1*%
G36*
X29993314Y-78374117D02*
G01*
X29996666Y-78377148D01*
X30101276Y-78494777D01*
X30087044Y-78599718D01*
X30030272Y-78683626D01*
X29746130Y-79184288D01*
X29613038Y-79699670D01*
X29629888Y-80211618D01*
X29795571Y-80701978D01*
X30108979Y-81152595D01*
X30185918Y-81233002D01*
X30635502Y-81586300D01*
X31110838Y-81785985D01*
X31597619Y-81832058D01*
X32081538Y-81724518D01*
X32548286Y-81463366D01*
X32814081Y-81233002D01*
X33155709Y-80792086D01*
X33349824Y-80307945D01*
X33395319Y-79798732D01*
X33291085Y-79282601D01*
X33036013Y-78777707D01*
X32969727Y-78683626D01*
X32892661Y-78550060D01*
X32929417Y-78449592D01*
X33003333Y-78377148D01*
X33095643Y-78305108D01*
X33169653Y-78306372D01*
X33258787Y-78401304D01*
X33396469Y-78610272D01*
X33403109Y-78620739D01*
X33654504Y-79105894D01*
X33775576Y-79587027D01*
X33781585Y-80121397D01*
X33659228Y-80698000D01*
X33396881Y-81216996D01*
X33009151Y-81656847D01*
X32510647Y-81996013D01*
X32509923Y-81996385D01*
X32157971Y-82119791D01*
X31726438Y-82189529D01*
X31281015Y-82201228D01*
X30887393Y-82150515D01*
X30761652Y-82112708D01*
X30222436Y-81834626D01*
X29782005Y-81449179D01*
X29455383Y-80977102D01*
X29257593Y-80439127D01*
X29202051Y-79960312D01*
X29239783Y-79469530D01*
X29374933Y-79030029D01*
X29597854Y-78619219D01*
X29737716Y-78406070D01*
X29827885Y-78307742D01*
X29901904Y-78303878D01*
X29993314Y-78374117D01*
G37*
X29993314Y-78374117D02*
X29996666Y-78377148D01*
X30101276Y-78494777D01*
X30087044Y-78599718D01*
X30030272Y-78683626D01*
X29746130Y-79184288D01*
X29613038Y-79699670D01*
X29629888Y-80211618D01*
X29795571Y-80701978D01*
X30108979Y-81152595D01*
X30185918Y-81233002D01*
X30635502Y-81586300D01*
X31110838Y-81785985D01*
X31597619Y-81832058D01*
X32081538Y-81724518D01*
X32548286Y-81463366D01*
X32814081Y-81233002D01*
X33155709Y-80792086D01*
X33349824Y-80307945D01*
X33395319Y-79798732D01*
X33291085Y-79282601D01*
X33036013Y-78777707D01*
X32969727Y-78683626D01*
X32892661Y-78550060D01*
X32929417Y-78449592D01*
X33003333Y-78377148D01*
X33095643Y-78305108D01*
X33169653Y-78306372D01*
X33258787Y-78401304D01*
X33396469Y-78610272D01*
X33403109Y-78620739D01*
X33654504Y-79105894D01*
X33775576Y-79587027D01*
X33781585Y-80121397D01*
X33659228Y-80698000D01*
X33396881Y-81216996D01*
X33009151Y-81656847D01*
X32510647Y-81996013D01*
X32509923Y-81996385D01*
X32157971Y-82119791D01*
X31726438Y-82189529D01*
X31281015Y-82201228D01*
X30887393Y-82150515D01*
X30761652Y-82112708D01*
X30222436Y-81834626D01*
X29782005Y-81449179D01*
X29455383Y-80977102D01*
X29257593Y-80439127D01*
X29202051Y-79960312D01*
X29239783Y-79469530D01*
X29374933Y-79030029D01*
X29597854Y-78619219D01*
X29737716Y-78406070D01*
X29827885Y-78307742D01*
X29901904Y-78303878D01*
X29993314Y-78374117D01*
G36*
X31936196Y-78174013D02*
G01*
X32160220Y-78403331D01*
X32291224Y-78570323D01*
X32353769Y-78719324D01*
X32372417Y-78894669D01*
X32373125Y-78962702D01*
X32373125Y-79319889D01*
X31937360Y-78889538D01*
X31501596Y-78459186D01*
X31221989Y-78730191D01*
X30942383Y-79001196D01*
X31822975Y-79891074D01*
X31800394Y-80784464D01*
X31777812Y-81677854D01*
X31559531Y-81449740D01*
X31442035Y-81309741D01*
X31376152Y-81164760D01*
X31347390Y-80962900D01*
X31341250Y-80668051D01*
X31341250Y-80114476D01*
X30825312Y-79603125D01*
X30597954Y-79369174D01*
X30421741Y-79171455D01*
X30322306Y-79039529D01*
X30309375Y-79008118D01*
X30362618Y-78920739D01*
X30506516Y-78750222D01*
X30717326Y-78523493D01*
X30904321Y-78333488D01*
X31499268Y-77742513D01*
X31936196Y-78174013D01*
G37*
X31936196Y-78174013D02*
X32160220Y-78403331D01*
X32291224Y-78570323D01*
X32353769Y-78719324D01*
X32372417Y-78894669D01*
X32373125Y-78962702D01*
X32373125Y-79319889D01*
X31937360Y-78889538D01*
X31501596Y-78459186D01*
X31221989Y-78730191D01*
X30942383Y-79001196D01*
X31822975Y-79891074D01*
X31800394Y-80784464D01*
X31777812Y-81677854D01*
X31559531Y-81449740D01*
X31442035Y-81309741D01*
X31376152Y-81164760D01*
X31347390Y-80962900D01*
X31341250Y-80668051D01*
X31341250Y-80114476D01*
X30825312Y-79603125D01*
X30597954Y-79369174D01*
X30421741Y-79171455D01*
X30322306Y-79039529D01*
X30309375Y-79008118D01*
X30362618Y-78920739D01*
X30506516Y-78750222D01*
X30717326Y-78523493D01*
X30904321Y-78333488D01*
X31499268Y-77742513D01*
X31936196Y-78174013D01*
D11*
%TO.C,J7*%
X28670000Y-75410000D02*
X33870000Y-75410000D01*
X28670000Y-70270000D02*
X28670000Y-75410000D01*
X33870000Y-67670000D02*
X33870000Y-75410000D01*
X28670000Y-70270000D02*
X31270000Y-70270000D01*
X31270000Y-70270000D02*
X31270000Y-67670000D01*
X31270000Y-67670000D02*
X33870000Y-67670000D01*
X28670000Y-69000000D02*
X28670000Y-67670000D01*
X28670000Y-67670000D02*
X30000000Y-67670000D01*
%TO.C,U1*%
X68760000Y-68580000D02*
X68760000Y-67650000D01*
X68760000Y-65420000D02*
X68760000Y-66350000D01*
X68760000Y-65420000D02*
X66600000Y-65420000D01*
X68760000Y-68580000D02*
X67300000Y-68580000D01*
%TO.C,R1*%
X62272936Y-68265000D02*
X62727064Y-68265000D01*
X62272936Y-69735000D02*
X62727064Y-69735000D01*
%TO.C,SW1*%
X61940000Y-82850000D02*
X61940000Y-79150000D01*
X68060000Y-82850000D02*
X61940000Y-82850000D01*
X68060000Y-79150000D02*
X68060000Y-82850000D01*
X61940000Y-79150000D02*
X68060000Y-79150000D01*
%TO.C,C2*%
X63711252Y-65590000D02*
X62288748Y-65590000D01*
X63711252Y-67410000D02*
X62288748Y-67410000D01*
%TO.C,U2*%
X42500000Y-82120000D02*
X42500000Y-82730000D01*
X42500000Y-82120000D02*
X34880000Y-82120000D01*
X59120000Y-82120000D02*
X58500000Y-82120000D01*
X59120000Y-80000000D02*
X59120000Y-82120000D01*
X59120000Y-65880000D02*
X59120000Y-68000000D01*
X58500000Y-65880000D02*
X59120000Y-65880000D01*
X34880000Y-65880000D02*
X42500000Y-65880000D01*
X34880000Y-82120000D02*
X34880000Y-65880000D01*
%TO.C,R5*%
X62727064Y-76765000D02*
X62272936Y-76765000D01*
X62727064Y-78235000D02*
X62272936Y-78235000D01*
%TO.C,U1*%
X111760000Y-68580000D02*
X110300000Y-68580000D01*
X111760000Y-65420000D02*
X109600000Y-65420000D01*
X111760000Y-65420000D02*
X111760000Y-66350000D01*
X111760000Y-68580000D02*
X111760000Y-67650000D01*
%TO.C,SW1*%
X104940000Y-79150000D02*
X111060000Y-79150000D01*
X111060000Y-79150000D02*
X111060000Y-82850000D01*
X111060000Y-82850000D02*
X104940000Y-82850000D01*
X104940000Y-82850000D02*
X104940000Y-79150000D01*
%TO.C,J5*%
X108590000Y-75760000D02*
X108980000Y-75760000D01*
X108590000Y-75760000D02*
X108590000Y-75310000D01*
X107900000Y-70225000D02*
X107900000Y-70875000D01*
X109630000Y-70190000D02*
X107900000Y-70190000D01*
X113590000Y-77810000D02*
X113380000Y-77810000D01*
X113590000Y-70190000D02*
X113380000Y-70190000D01*
X109630000Y-77810000D02*
X107900000Y-77810000D01*
X107900000Y-77700000D02*
X107900000Y-77040000D01*
%TO.C,U2*%
X77880000Y-82120000D02*
X77880000Y-65880000D01*
X77880000Y-65880000D02*
X85500000Y-65880000D01*
X101500000Y-65880000D02*
X102120000Y-65880000D01*
X102120000Y-65880000D02*
X102120000Y-68000000D01*
X102120000Y-80000000D02*
X102120000Y-82120000D01*
X102120000Y-82120000D02*
X101500000Y-82120000D01*
X85500000Y-82120000D02*
X77880000Y-82120000D01*
X85500000Y-82120000D02*
X85500000Y-82730000D01*
%TO.C,J7*%
X71670000Y-67670000D02*
X73000000Y-67670000D01*
X71670000Y-69000000D02*
X71670000Y-67670000D01*
X74270000Y-67670000D02*
X76870000Y-67670000D01*
X74270000Y-70270000D02*
X74270000Y-67670000D01*
X71670000Y-70270000D02*
X74270000Y-70270000D01*
X76870000Y-67670000D02*
X76870000Y-75410000D01*
X71670000Y-70270000D02*
X71670000Y-75410000D01*
X71670000Y-75410000D02*
X76870000Y-75410000D01*
D10*
%TO.C,G1*%
G36*
X74936196Y-78174013D02*
G01*
X75160220Y-78403331D01*
X75291224Y-78570323D01*
X75353769Y-78719324D01*
X75372417Y-78894669D01*
X75373125Y-78962702D01*
X75373125Y-79319889D01*
X74937360Y-78889538D01*
X74501596Y-78459186D01*
X74221989Y-78730191D01*
X73942383Y-79001196D01*
X74822975Y-79891074D01*
X74800394Y-80784464D01*
X74777812Y-81677854D01*
X74559531Y-81449740D01*
X74442035Y-81309741D01*
X74376152Y-81164760D01*
X74347390Y-80962900D01*
X74341250Y-80668051D01*
X74341250Y-80114476D01*
X73825312Y-79603125D01*
X73597954Y-79369174D01*
X73421741Y-79171455D01*
X73322306Y-79039529D01*
X73309375Y-79008118D01*
X73362618Y-78920739D01*
X73506516Y-78750222D01*
X73717326Y-78523493D01*
X73904321Y-78333488D01*
X74499268Y-77742513D01*
X74936196Y-78174013D01*
G37*
X74936196Y-78174013D02*
X75160220Y-78403331D01*
X75291224Y-78570323D01*
X75353769Y-78719324D01*
X75372417Y-78894669D01*
X75373125Y-78962702D01*
X75373125Y-79319889D01*
X74937360Y-78889538D01*
X74501596Y-78459186D01*
X74221989Y-78730191D01*
X73942383Y-79001196D01*
X74822975Y-79891074D01*
X74800394Y-80784464D01*
X74777812Y-81677854D01*
X74559531Y-81449740D01*
X74442035Y-81309741D01*
X74376152Y-81164760D01*
X74347390Y-80962900D01*
X74341250Y-80668051D01*
X74341250Y-80114476D01*
X73825312Y-79603125D01*
X73597954Y-79369174D01*
X73421741Y-79171455D01*
X73322306Y-79039529D01*
X73309375Y-79008118D01*
X73362618Y-78920739D01*
X73506516Y-78750222D01*
X73717326Y-78523493D01*
X73904321Y-78333488D01*
X74499268Y-77742513D01*
X74936196Y-78174013D01*
G36*
X72993314Y-78374117D02*
G01*
X72996666Y-78377148D01*
X73101276Y-78494777D01*
X73087044Y-78599718D01*
X73030272Y-78683626D01*
X72746130Y-79184288D01*
X72613038Y-79699670D01*
X72629888Y-80211618D01*
X72795571Y-80701978D01*
X73108979Y-81152595D01*
X73185918Y-81233002D01*
X73635502Y-81586300D01*
X74110838Y-81785985D01*
X74597619Y-81832058D01*
X75081538Y-81724518D01*
X75548286Y-81463366D01*
X75814081Y-81233002D01*
X76155709Y-80792086D01*
X76349824Y-80307945D01*
X76395319Y-79798732D01*
X76291085Y-79282601D01*
X76036013Y-78777707D01*
X75969727Y-78683626D01*
X75892661Y-78550060D01*
X75929417Y-78449592D01*
X76003333Y-78377148D01*
X76095643Y-78305108D01*
X76169653Y-78306372D01*
X76258787Y-78401304D01*
X76396469Y-78610272D01*
X76403109Y-78620739D01*
X76654504Y-79105894D01*
X76775576Y-79587027D01*
X76781585Y-80121397D01*
X76659228Y-80698000D01*
X76396881Y-81216996D01*
X76009151Y-81656847D01*
X75510647Y-81996013D01*
X75509923Y-81996385D01*
X75157971Y-82119791D01*
X74726438Y-82189529D01*
X74281015Y-82201228D01*
X73887393Y-82150515D01*
X73761652Y-82112708D01*
X73222436Y-81834626D01*
X72782005Y-81449179D01*
X72455383Y-80977102D01*
X72257593Y-80439127D01*
X72202051Y-79960312D01*
X72239783Y-79469530D01*
X72374933Y-79030029D01*
X72597854Y-78619219D01*
X72737716Y-78406070D01*
X72827885Y-78307742D01*
X72901904Y-78303878D01*
X72993314Y-78374117D01*
G37*
X72993314Y-78374117D02*
X72996666Y-78377148D01*
X73101276Y-78494777D01*
X73087044Y-78599718D01*
X73030272Y-78683626D01*
X72746130Y-79184288D01*
X72613038Y-79699670D01*
X72629888Y-80211618D01*
X72795571Y-80701978D01*
X73108979Y-81152595D01*
X73185918Y-81233002D01*
X73635502Y-81586300D01*
X74110838Y-81785985D01*
X74597619Y-81832058D01*
X75081538Y-81724518D01*
X75548286Y-81463366D01*
X75814081Y-81233002D01*
X76155709Y-80792086D01*
X76349824Y-80307945D01*
X76395319Y-79798732D01*
X76291085Y-79282601D01*
X76036013Y-78777707D01*
X75969727Y-78683626D01*
X75892661Y-78550060D01*
X75929417Y-78449592D01*
X76003333Y-78377148D01*
X76095643Y-78305108D01*
X76169653Y-78306372D01*
X76258787Y-78401304D01*
X76396469Y-78610272D01*
X76403109Y-78620739D01*
X76654504Y-79105894D01*
X76775576Y-79587027D01*
X76781585Y-80121397D01*
X76659228Y-80698000D01*
X76396881Y-81216996D01*
X76009151Y-81656847D01*
X75510647Y-81996013D01*
X75509923Y-81996385D01*
X75157971Y-82119791D01*
X74726438Y-82189529D01*
X74281015Y-82201228D01*
X73887393Y-82150515D01*
X73761652Y-82112708D01*
X73222436Y-81834626D01*
X72782005Y-81449179D01*
X72455383Y-80977102D01*
X72257593Y-80439127D01*
X72202051Y-79960312D01*
X72239783Y-79469530D01*
X72374933Y-79030029D01*
X72597854Y-78619219D01*
X72737716Y-78406070D01*
X72827885Y-78307742D01*
X72901904Y-78303878D01*
X72993314Y-78374117D01*
D11*
%TO.C,R1*%
X105272936Y-69735000D02*
X105727064Y-69735000D01*
X105272936Y-68265000D02*
X105727064Y-68265000D01*
%TO.C,R5*%
X105727064Y-78235000D02*
X105272936Y-78235000D01*
X105727064Y-76765000D02*
X105272936Y-76765000D01*
%TO.C,C2*%
X106711252Y-67410000D02*
X105288748Y-67410000D01*
X106711252Y-65590000D02*
X105288748Y-65590000D01*
%TO.C,U2*%
X34880000Y-62120000D02*
X34880000Y-45880000D01*
X34880000Y-45880000D02*
X42500000Y-45880000D01*
X58500000Y-45880000D02*
X59120000Y-45880000D01*
X59120000Y-45880000D02*
X59120000Y-48000000D01*
X59120000Y-60000000D02*
X59120000Y-62120000D01*
X59120000Y-62120000D02*
X58500000Y-62120000D01*
X42500000Y-62120000D02*
X34880000Y-62120000D01*
X42500000Y-62120000D02*
X42500000Y-62730000D01*
%TO.C,U1*%
X68760000Y-48580000D02*
X67300000Y-48580000D01*
X68760000Y-45420000D02*
X66600000Y-45420000D01*
X68760000Y-45420000D02*
X68760000Y-46350000D01*
X68760000Y-48580000D02*
X68760000Y-47650000D01*
D10*
%TO.C,G1*%
G36*
X31936196Y-58174013D02*
G01*
X32160220Y-58403331D01*
X32291224Y-58570323D01*
X32353769Y-58719324D01*
X32372417Y-58894669D01*
X32373125Y-58962702D01*
X32373125Y-59319889D01*
X31937360Y-58889538D01*
X31501596Y-58459186D01*
X31221989Y-58730191D01*
X30942383Y-59001196D01*
X31822975Y-59891074D01*
X31800394Y-60784464D01*
X31777812Y-61677854D01*
X31559531Y-61449740D01*
X31442035Y-61309741D01*
X31376152Y-61164760D01*
X31347390Y-60962900D01*
X31341250Y-60668051D01*
X31341250Y-60114476D01*
X30825312Y-59603125D01*
X30597954Y-59369174D01*
X30421741Y-59171455D01*
X30322306Y-59039529D01*
X30309375Y-59008118D01*
X30362618Y-58920739D01*
X30506516Y-58750222D01*
X30717326Y-58523493D01*
X30904321Y-58333488D01*
X31499268Y-57742513D01*
X31936196Y-58174013D01*
G37*
X31936196Y-58174013D02*
X32160220Y-58403331D01*
X32291224Y-58570323D01*
X32353769Y-58719324D01*
X32372417Y-58894669D01*
X32373125Y-58962702D01*
X32373125Y-59319889D01*
X31937360Y-58889538D01*
X31501596Y-58459186D01*
X31221989Y-58730191D01*
X30942383Y-59001196D01*
X31822975Y-59891074D01*
X31800394Y-60784464D01*
X31777812Y-61677854D01*
X31559531Y-61449740D01*
X31442035Y-61309741D01*
X31376152Y-61164760D01*
X31347390Y-60962900D01*
X31341250Y-60668051D01*
X31341250Y-60114476D01*
X30825312Y-59603125D01*
X30597954Y-59369174D01*
X30421741Y-59171455D01*
X30322306Y-59039529D01*
X30309375Y-59008118D01*
X30362618Y-58920739D01*
X30506516Y-58750222D01*
X30717326Y-58523493D01*
X30904321Y-58333488D01*
X31499268Y-57742513D01*
X31936196Y-58174013D01*
G36*
X29993314Y-58374117D02*
G01*
X29996666Y-58377148D01*
X30101276Y-58494777D01*
X30087044Y-58599718D01*
X30030272Y-58683626D01*
X29746130Y-59184288D01*
X29613038Y-59699670D01*
X29629888Y-60211618D01*
X29795571Y-60701978D01*
X30108979Y-61152595D01*
X30185918Y-61233002D01*
X30635502Y-61586300D01*
X31110838Y-61785985D01*
X31597619Y-61832058D01*
X32081538Y-61724518D01*
X32548286Y-61463366D01*
X32814081Y-61233002D01*
X33155709Y-60792086D01*
X33349824Y-60307945D01*
X33395319Y-59798732D01*
X33291085Y-59282601D01*
X33036013Y-58777707D01*
X32969727Y-58683626D01*
X32892661Y-58550060D01*
X32929417Y-58449592D01*
X33003333Y-58377148D01*
X33095643Y-58305108D01*
X33169653Y-58306372D01*
X33258787Y-58401304D01*
X33396469Y-58610272D01*
X33403109Y-58620739D01*
X33654504Y-59105894D01*
X33775576Y-59587027D01*
X33781585Y-60121397D01*
X33659228Y-60698000D01*
X33396881Y-61216996D01*
X33009151Y-61656847D01*
X32510647Y-61996013D01*
X32509923Y-61996385D01*
X32157971Y-62119791D01*
X31726438Y-62189529D01*
X31281015Y-62201228D01*
X30887393Y-62150515D01*
X30761652Y-62112708D01*
X30222436Y-61834626D01*
X29782005Y-61449179D01*
X29455383Y-60977102D01*
X29257593Y-60439127D01*
X29202051Y-59960312D01*
X29239783Y-59469530D01*
X29374933Y-59030029D01*
X29597854Y-58619219D01*
X29737716Y-58406070D01*
X29827885Y-58307742D01*
X29901904Y-58303878D01*
X29993314Y-58374117D01*
G37*
X29993314Y-58374117D02*
X29996666Y-58377148D01*
X30101276Y-58494777D01*
X30087044Y-58599718D01*
X30030272Y-58683626D01*
X29746130Y-59184288D01*
X29613038Y-59699670D01*
X29629888Y-60211618D01*
X29795571Y-60701978D01*
X30108979Y-61152595D01*
X30185918Y-61233002D01*
X30635502Y-61586300D01*
X31110838Y-61785985D01*
X31597619Y-61832058D01*
X32081538Y-61724518D01*
X32548286Y-61463366D01*
X32814081Y-61233002D01*
X33155709Y-60792086D01*
X33349824Y-60307945D01*
X33395319Y-59798732D01*
X33291085Y-59282601D01*
X33036013Y-58777707D01*
X32969727Y-58683626D01*
X32892661Y-58550060D01*
X32929417Y-58449592D01*
X33003333Y-58377148D01*
X33095643Y-58305108D01*
X33169653Y-58306372D01*
X33258787Y-58401304D01*
X33396469Y-58610272D01*
X33403109Y-58620739D01*
X33654504Y-59105894D01*
X33775576Y-59587027D01*
X33781585Y-60121397D01*
X33659228Y-60698000D01*
X33396881Y-61216996D01*
X33009151Y-61656847D01*
X32510647Y-61996013D01*
X32509923Y-61996385D01*
X32157971Y-62119791D01*
X31726438Y-62189529D01*
X31281015Y-62201228D01*
X30887393Y-62150515D01*
X30761652Y-62112708D01*
X30222436Y-61834626D01*
X29782005Y-61449179D01*
X29455383Y-60977102D01*
X29257593Y-60439127D01*
X29202051Y-59960312D01*
X29239783Y-59469530D01*
X29374933Y-59030029D01*
X29597854Y-58619219D01*
X29737716Y-58406070D01*
X29827885Y-58307742D01*
X29901904Y-58303878D01*
X29993314Y-58374117D01*
D11*
%TO.C,SW1*%
X61940000Y-59150000D02*
X68060000Y-59150000D01*
X68060000Y-59150000D02*
X68060000Y-62850000D01*
X68060000Y-62850000D02*
X61940000Y-62850000D01*
X61940000Y-62850000D02*
X61940000Y-59150000D01*
%TO.C,R1*%
X62272936Y-49735000D02*
X62727064Y-49735000D01*
X62272936Y-48265000D02*
X62727064Y-48265000D01*
%TO.C,R5*%
X62727064Y-58235000D02*
X62272936Y-58235000D01*
X62727064Y-56765000D02*
X62272936Y-56765000D01*
%TO.C,J5*%
X65590000Y-55760000D02*
X65980000Y-55760000D01*
X65590000Y-55760000D02*
X65590000Y-55310000D01*
X64900000Y-50225000D02*
X64900000Y-50875000D01*
X66630000Y-50190000D02*
X64900000Y-50190000D01*
X70590000Y-57810000D02*
X70380000Y-57810000D01*
X70590000Y-50190000D02*
X70380000Y-50190000D01*
X66630000Y-57810000D02*
X64900000Y-57810000D01*
X64900000Y-57700000D02*
X64900000Y-57040000D01*
%TO.C,C2*%
X63711252Y-47410000D02*
X62288748Y-47410000D01*
X63711252Y-45590000D02*
X62288748Y-45590000D01*
%TO.C,J7*%
X28670000Y-47670000D02*
X30000000Y-47670000D01*
X28670000Y-49000000D02*
X28670000Y-47670000D01*
X31270000Y-47670000D02*
X33870000Y-47670000D01*
X31270000Y-50270000D02*
X31270000Y-47670000D01*
X28670000Y-50270000D02*
X31270000Y-50270000D01*
X33870000Y-47670000D02*
X33870000Y-55410000D01*
X28670000Y-50270000D02*
X28670000Y-55410000D01*
X28670000Y-55410000D02*
X33870000Y-55410000D01*
%TO.C,R1*%
X105272936Y-48265000D02*
X105727064Y-48265000D01*
X105272936Y-49735000D02*
X105727064Y-49735000D01*
%TO.C,U2*%
X85500000Y-62120000D02*
X85500000Y-62730000D01*
X85500000Y-62120000D02*
X77880000Y-62120000D01*
X102120000Y-62120000D02*
X101500000Y-62120000D01*
X102120000Y-60000000D02*
X102120000Y-62120000D01*
X102120000Y-45880000D02*
X102120000Y-48000000D01*
X101500000Y-45880000D02*
X102120000Y-45880000D01*
X77880000Y-45880000D02*
X85500000Y-45880000D01*
X77880000Y-62120000D02*
X77880000Y-45880000D01*
%TO.C,R5*%
X105727064Y-56765000D02*
X105272936Y-56765000D01*
X105727064Y-58235000D02*
X105272936Y-58235000D01*
%TO.C,C2*%
X106711252Y-45590000D02*
X105288748Y-45590000D01*
X106711252Y-47410000D02*
X105288748Y-47410000D01*
%TO.C,J7*%
X71670000Y-55410000D02*
X76870000Y-55410000D01*
X71670000Y-50270000D02*
X71670000Y-55410000D01*
X76870000Y-47670000D02*
X76870000Y-55410000D01*
X71670000Y-50270000D02*
X74270000Y-50270000D01*
X74270000Y-50270000D02*
X74270000Y-47670000D01*
X74270000Y-47670000D02*
X76870000Y-47670000D01*
X71670000Y-49000000D02*
X71670000Y-47670000D01*
X71670000Y-47670000D02*
X73000000Y-47670000D01*
%TO.C,U1*%
X111760000Y-48580000D02*
X111760000Y-47650000D01*
X111760000Y-45420000D02*
X111760000Y-46350000D01*
X111760000Y-45420000D02*
X109600000Y-45420000D01*
X111760000Y-48580000D02*
X110300000Y-48580000D01*
%TO.C,J5*%
X107900000Y-57700000D02*
X107900000Y-57040000D01*
X109630000Y-57810000D02*
X107900000Y-57810000D01*
X113590000Y-50190000D02*
X113380000Y-50190000D01*
X113590000Y-57810000D02*
X113380000Y-57810000D01*
X109630000Y-50190000D02*
X107900000Y-50190000D01*
X107900000Y-50225000D02*
X107900000Y-50875000D01*
X108590000Y-55760000D02*
X108590000Y-55310000D01*
X108590000Y-55760000D02*
X108980000Y-55760000D01*
%TO.C,SW1*%
X104940000Y-62850000D02*
X104940000Y-59150000D01*
X111060000Y-62850000D02*
X104940000Y-62850000D01*
X111060000Y-59150000D02*
X111060000Y-62850000D01*
X104940000Y-59150000D02*
X111060000Y-59150000D01*
D10*
%TO.C,G1*%
G36*
X72993314Y-58374117D02*
G01*
X72996666Y-58377148D01*
X73101276Y-58494777D01*
X73087044Y-58599718D01*
X73030272Y-58683626D01*
X72746130Y-59184288D01*
X72613038Y-59699670D01*
X72629888Y-60211618D01*
X72795571Y-60701978D01*
X73108979Y-61152595D01*
X73185918Y-61233002D01*
X73635502Y-61586300D01*
X74110838Y-61785985D01*
X74597619Y-61832058D01*
X75081538Y-61724518D01*
X75548286Y-61463366D01*
X75814081Y-61233002D01*
X76155709Y-60792086D01*
X76349824Y-60307945D01*
X76395319Y-59798732D01*
X76291085Y-59282601D01*
X76036013Y-58777707D01*
X75969727Y-58683626D01*
X75892661Y-58550060D01*
X75929417Y-58449592D01*
X76003333Y-58377148D01*
X76095643Y-58305108D01*
X76169653Y-58306372D01*
X76258787Y-58401304D01*
X76396469Y-58610272D01*
X76403109Y-58620739D01*
X76654504Y-59105894D01*
X76775576Y-59587027D01*
X76781585Y-60121397D01*
X76659228Y-60698000D01*
X76396881Y-61216996D01*
X76009151Y-61656847D01*
X75510647Y-61996013D01*
X75509923Y-61996385D01*
X75157971Y-62119791D01*
X74726438Y-62189529D01*
X74281015Y-62201228D01*
X73887393Y-62150515D01*
X73761652Y-62112708D01*
X73222436Y-61834626D01*
X72782005Y-61449179D01*
X72455383Y-60977102D01*
X72257593Y-60439127D01*
X72202051Y-59960312D01*
X72239783Y-59469530D01*
X72374933Y-59030029D01*
X72597854Y-58619219D01*
X72737716Y-58406070D01*
X72827885Y-58307742D01*
X72901904Y-58303878D01*
X72993314Y-58374117D01*
G37*
X72993314Y-58374117D02*
X72996666Y-58377148D01*
X73101276Y-58494777D01*
X73087044Y-58599718D01*
X73030272Y-58683626D01*
X72746130Y-59184288D01*
X72613038Y-59699670D01*
X72629888Y-60211618D01*
X72795571Y-60701978D01*
X73108979Y-61152595D01*
X73185918Y-61233002D01*
X73635502Y-61586300D01*
X74110838Y-61785985D01*
X74597619Y-61832058D01*
X75081538Y-61724518D01*
X75548286Y-61463366D01*
X75814081Y-61233002D01*
X76155709Y-60792086D01*
X76349824Y-60307945D01*
X76395319Y-59798732D01*
X76291085Y-59282601D01*
X76036013Y-58777707D01*
X75969727Y-58683626D01*
X75892661Y-58550060D01*
X75929417Y-58449592D01*
X76003333Y-58377148D01*
X76095643Y-58305108D01*
X76169653Y-58306372D01*
X76258787Y-58401304D01*
X76396469Y-58610272D01*
X76403109Y-58620739D01*
X76654504Y-59105894D01*
X76775576Y-59587027D01*
X76781585Y-60121397D01*
X76659228Y-60698000D01*
X76396881Y-61216996D01*
X76009151Y-61656847D01*
X75510647Y-61996013D01*
X75509923Y-61996385D01*
X75157971Y-62119791D01*
X74726438Y-62189529D01*
X74281015Y-62201228D01*
X73887393Y-62150515D01*
X73761652Y-62112708D01*
X73222436Y-61834626D01*
X72782005Y-61449179D01*
X72455383Y-60977102D01*
X72257593Y-60439127D01*
X72202051Y-59960312D01*
X72239783Y-59469530D01*
X72374933Y-59030029D01*
X72597854Y-58619219D01*
X72737716Y-58406070D01*
X72827885Y-58307742D01*
X72901904Y-58303878D01*
X72993314Y-58374117D01*
G36*
X74936196Y-58174013D02*
G01*
X75160220Y-58403331D01*
X75291224Y-58570323D01*
X75353769Y-58719324D01*
X75372417Y-58894669D01*
X75373125Y-58962702D01*
X75373125Y-59319889D01*
X74937360Y-58889538D01*
X74501596Y-58459186D01*
X74221989Y-58730191D01*
X73942383Y-59001196D01*
X74822975Y-59891074D01*
X74800394Y-60784464D01*
X74777812Y-61677854D01*
X74559531Y-61449740D01*
X74442035Y-61309741D01*
X74376152Y-61164760D01*
X74347390Y-60962900D01*
X74341250Y-60668051D01*
X74341250Y-60114476D01*
X73825312Y-59603125D01*
X73597954Y-59369174D01*
X73421741Y-59171455D01*
X73322306Y-59039529D01*
X73309375Y-59008118D01*
X73362618Y-58920739D01*
X73506516Y-58750222D01*
X73717326Y-58523493D01*
X73904321Y-58333488D01*
X74499268Y-57742513D01*
X74936196Y-58174013D01*
G37*
X74936196Y-58174013D02*
X75160220Y-58403331D01*
X75291224Y-58570323D01*
X75353769Y-58719324D01*
X75372417Y-58894669D01*
X75373125Y-58962702D01*
X75373125Y-59319889D01*
X74937360Y-58889538D01*
X74501596Y-58459186D01*
X74221989Y-58730191D01*
X73942383Y-59001196D01*
X74822975Y-59891074D01*
X74800394Y-60784464D01*
X74777812Y-61677854D01*
X74559531Y-61449740D01*
X74442035Y-61309741D01*
X74376152Y-61164760D01*
X74347390Y-60962900D01*
X74341250Y-60668051D01*
X74341250Y-60114476D01*
X73825312Y-59603125D01*
X73597954Y-59369174D01*
X73421741Y-59171455D01*
X73322306Y-59039529D01*
X73309375Y-59008118D01*
X73362618Y-58920739D01*
X73506516Y-58750222D01*
X73717326Y-58523493D01*
X73904321Y-58333488D01*
X74499268Y-57742513D01*
X74936196Y-58174013D01*
D11*
%TO.C,U2*%
X77880000Y-42120000D02*
X77880000Y-25880000D01*
X77880000Y-25880000D02*
X85500000Y-25880000D01*
X101500000Y-25880000D02*
X102120000Y-25880000D01*
X102120000Y-25880000D02*
X102120000Y-28000000D01*
X102120000Y-40000000D02*
X102120000Y-42120000D01*
X102120000Y-42120000D02*
X101500000Y-42120000D01*
X85500000Y-42120000D02*
X77880000Y-42120000D01*
X85500000Y-42120000D02*
X85500000Y-42730000D01*
%TO.C,U1*%
X111760000Y-28580000D02*
X110300000Y-28580000D01*
X111760000Y-25420000D02*
X109600000Y-25420000D01*
X111760000Y-25420000D02*
X111760000Y-26350000D01*
X111760000Y-28580000D02*
X111760000Y-27650000D01*
D10*
%TO.C,G1*%
G36*
X74936196Y-38174013D02*
G01*
X75160220Y-38403331D01*
X75291224Y-38570323D01*
X75353769Y-38719324D01*
X75372417Y-38894669D01*
X75373125Y-38962702D01*
X75373125Y-39319889D01*
X74937360Y-38889538D01*
X74501596Y-38459186D01*
X74221989Y-38730191D01*
X73942383Y-39001196D01*
X74822975Y-39891074D01*
X74800394Y-40784464D01*
X74777812Y-41677854D01*
X74559531Y-41449740D01*
X74442035Y-41309741D01*
X74376152Y-41164760D01*
X74347390Y-40962900D01*
X74341250Y-40668051D01*
X74341250Y-40114476D01*
X73825312Y-39603125D01*
X73597954Y-39369174D01*
X73421741Y-39171455D01*
X73322306Y-39039529D01*
X73309375Y-39008118D01*
X73362618Y-38920739D01*
X73506516Y-38750222D01*
X73717326Y-38523493D01*
X73904321Y-38333488D01*
X74499268Y-37742513D01*
X74936196Y-38174013D01*
G37*
X74936196Y-38174013D02*
X75160220Y-38403331D01*
X75291224Y-38570323D01*
X75353769Y-38719324D01*
X75372417Y-38894669D01*
X75373125Y-38962702D01*
X75373125Y-39319889D01*
X74937360Y-38889538D01*
X74501596Y-38459186D01*
X74221989Y-38730191D01*
X73942383Y-39001196D01*
X74822975Y-39891074D01*
X74800394Y-40784464D01*
X74777812Y-41677854D01*
X74559531Y-41449740D01*
X74442035Y-41309741D01*
X74376152Y-41164760D01*
X74347390Y-40962900D01*
X74341250Y-40668051D01*
X74341250Y-40114476D01*
X73825312Y-39603125D01*
X73597954Y-39369174D01*
X73421741Y-39171455D01*
X73322306Y-39039529D01*
X73309375Y-39008118D01*
X73362618Y-38920739D01*
X73506516Y-38750222D01*
X73717326Y-38523493D01*
X73904321Y-38333488D01*
X74499268Y-37742513D01*
X74936196Y-38174013D01*
G36*
X72993314Y-38374117D02*
G01*
X72996666Y-38377148D01*
X73101276Y-38494777D01*
X73087044Y-38599718D01*
X73030272Y-38683626D01*
X72746130Y-39184288D01*
X72613038Y-39699670D01*
X72629888Y-40211618D01*
X72795571Y-40701978D01*
X73108979Y-41152595D01*
X73185918Y-41233002D01*
X73635502Y-41586300D01*
X74110838Y-41785985D01*
X74597619Y-41832058D01*
X75081538Y-41724518D01*
X75548286Y-41463366D01*
X75814081Y-41233002D01*
X76155709Y-40792086D01*
X76349824Y-40307945D01*
X76395319Y-39798732D01*
X76291085Y-39282601D01*
X76036013Y-38777707D01*
X75969727Y-38683626D01*
X75892661Y-38550060D01*
X75929417Y-38449592D01*
X76003333Y-38377148D01*
X76095643Y-38305108D01*
X76169653Y-38306372D01*
X76258787Y-38401304D01*
X76396469Y-38610272D01*
X76403109Y-38620739D01*
X76654504Y-39105894D01*
X76775576Y-39587027D01*
X76781585Y-40121397D01*
X76659228Y-40698000D01*
X76396881Y-41216996D01*
X76009151Y-41656847D01*
X75510647Y-41996013D01*
X75509923Y-41996385D01*
X75157971Y-42119791D01*
X74726438Y-42189529D01*
X74281015Y-42201228D01*
X73887393Y-42150515D01*
X73761652Y-42112708D01*
X73222436Y-41834626D01*
X72782005Y-41449179D01*
X72455383Y-40977102D01*
X72257593Y-40439127D01*
X72202051Y-39960312D01*
X72239783Y-39469530D01*
X72374933Y-39030029D01*
X72597854Y-38619219D01*
X72737716Y-38406070D01*
X72827885Y-38307742D01*
X72901904Y-38303878D01*
X72993314Y-38374117D01*
G37*
X72993314Y-38374117D02*
X72996666Y-38377148D01*
X73101276Y-38494777D01*
X73087044Y-38599718D01*
X73030272Y-38683626D01*
X72746130Y-39184288D01*
X72613038Y-39699670D01*
X72629888Y-40211618D01*
X72795571Y-40701978D01*
X73108979Y-41152595D01*
X73185918Y-41233002D01*
X73635502Y-41586300D01*
X74110838Y-41785985D01*
X74597619Y-41832058D01*
X75081538Y-41724518D01*
X75548286Y-41463366D01*
X75814081Y-41233002D01*
X76155709Y-40792086D01*
X76349824Y-40307945D01*
X76395319Y-39798732D01*
X76291085Y-39282601D01*
X76036013Y-38777707D01*
X75969727Y-38683626D01*
X75892661Y-38550060D01*
X75929417Y-38449592D01*
X76003333Y-38377148D01*
X76095643Y-38305108D01*
X76169653Y-38306372D01*
X76258787Y-38401304D01*
X76396469Y-38610272D01*
X76403109Y-38620739D01*
X76654504Y-39105894D01*
X76775576Y-39587027D01*
X76781585Y-40121397D01*
X76659228Y-40698000D01*
X76396881Y-41216996D01*
X76009151Y-41656847D01*
X75510647Y-41996013D01*
X75509923Y-41996385D01*
X75157971Y-42119791D01*
X74726438Y-42189529D01*
X74281015Y-42201228D01*
X73887393Y-42150515D01*
X73761652Y-42112708D01*
X73222436Y-41834626D01*
X72782005Y-41449179D01*
X72455383Y-40977102D01*
X72257593Y-40439127D01*
X72202051Y-39960312D01*
X72239783Y-39469530D01*
X72374933Y-39030029D01*
X72597854Y-38619219D01*
X72737716Y-38406070D01*
X72827885Y-38307742D01*
X72901904Y-38303878D01*
X72993314Y-38374117D01*
D11*
%TO.C,SW1*%
X104940000Y-39150000D02*
X111060000Y-39150000D01*
X111060000Y-39150000D02*
X111060000Y-42850000D01*
X111060000Y-42850000D02*
X104940000Y-42850000D01*
X104940000Y-42850000D02*
X104940000Y-39150000D01*
%TO.C,R1*%
X105272936Y-29735000D02*
X105727064Y-29735000D01*
X105272936Y-28265000D02*
X105727064Y-28265000D01*
%TO.C,R5*%
X105727064Y-38235000D02*
X105272936Y-38235000D01*
X105727064Y-36765000D02*
X105272936Y-36765000D01*
%TO.C,J5*%
X108590000Y-35760000D02*
X108980000Y-35760000D01*
X108590000Y-35760000D02*
X108590000Y-35310000D01*
X107900000Y-30225000D02*
X107900000Y-30875000D01*
X109630000Y-30190000D02*
X107900000Y-30190000D01*
X113590000Y-37810000D02*
X113380000Y-37810000D01*
X113590000Y-30190000D02*
X113380000Y-30190000D01*
X109630000Y-37810000D02*
X107900000Y-37810000D01*
X107900000Y-37700000D02*
X107900000Y-37040000D01*
%TO.C,C2*%
X106711252Y-27410000D02*
X105288748Y-27410000D01*
X106711252Y-25590000D02*
X105288748Y-25590000D01*
%TO.C,J7*%
X71670000Y-27670000D02*
X73000000Y-27670000D01*
X71670000Y-29000000D02*
X71670000Y-27670000D01*
X74270000Y-27670000D02*
X76870000Y-27670000D01*
X74270000Y-30270000D02*
X74270000Y-27670000D01*
X71670000Y-30270000D02*
X74270000Y-30270000D01*
X76870000Y-27670000D02*
X76870000Y-35410000D01*
X71670000Y-30270000D02*
X71670000Y-35410000D01*
X71670000Y-35410000D02*
X76870000Y-35410000D01*
D10*
%TO.C,G1*%
G36*
X29993314Y-38374117D02*
G01*
X29996666Y-38377148D01*
X30101276Y-38494777D01*
X30087044Y-38599718D01*
X30030272Y-38683626D01*
X29746130Y-39184288D01*
X29613038Y-39699670D01*
X29629888Y-40211618D01*
X29795571Y-40701978D01*
X30108979Y-41152595D01*
X30185918Y-41233002D01*
X30635502Y-41586300D01*
X31110838Y-41785985D01*
X31597619Y-41832058D01*
X32081538Y-41724518D01*
X32548286Y-41463366D01*
X32814081Y-41233002D01*
X33155709Y-40792086D01*
X33349824Y-40307945D01*
X33395319Y-39798732D01*
X33291085Y-39282601D01*
X33036013Y-38777707D01*
X32969727Y-38683626D01*
X32892661Y-38550060D01*
X32929417Y-38449592D01*
X33003333Y-38377148D01*
X33095643Y-38305108D01*
X33169653Y-38306372D01*
X33258787Y-38401304D01*
X33396469Y-38610272D01*
X33403109Y-38620739D01*
X33654504Y-39105894D01*
X33775576Y-39587027D01*
X33781585Y-40121397D01*
X33659228Y-40698000D01*
X33396881Y-41216996D01*
X33009151Y-41656847D01*
X32510647Y-41996013D01*
X32509923Y-41996385D01*
X32157971Y-42119791D01*
X31726438Y-42189529D01*
X31281015Y-42201228D01*
X30887393Y-42150515D01*
X30761652Y-42112708D01*
X30222436Y-41834626D01*
X29782005Y-41449179D01*
X29455383Y-40977102D01*
X29257593Y-40439127D01*
X29202051Y-39960312D01*
X29239783Y-39469530D01*
X29374933Y-39030029D01*
X29597854Y-38619219D01*
X29737716Y-38406070D01*
X29827885Y-38307742D01*
X29901904Y-38303878D01*
X29993314Y-38374117D01*
G37*
X29993314Y-38374117D02*
X29996666Y-38377148D01*
X30101276Y-38494777D01*
X30087044Y-38599718D01*
X30030272Y-38683626D01*
X29746130Y-39184288D01*
X29613038Y-39699670D01*
X29629888Y-40211618D01*
X29795571Y-40701978D01*
X30108979Y-41152595D01*
X30185918Y-41233002D01*
X30635502Y-41586300D01*
X31110838Y-41785985D01*
X31597619Y-41832058D01*
X32081538Y-41724518D01*
X32548286Y-41463366D01*
X32814081Y-41233002D01*
X33155709Y-40792086D01*
X33349824Y-40307945D01*
X33395319Y-39798732D01*
X33291085Y-39282601D01*
X33036013Y-38777707D01*
X32969727Y-38683626D01*
X32892661Y-38550060D01*
X32929417Y-38449592D01*
X33003333Y-38377148D01*
X33095643Y-38305108D01*
X33169653Y-38306372D01*
X33258787Y-38401304D01*
X33396469Y-38610272D01*
X33403109Y-38620739D01*
X33654504Y-39105894D01*
X33775576Y-39587027D01*
X33781585Y-40121397D01*
X33659228Y-40698000D01*
X33396881Y-41216996D01*
X33009151Y-41656847D01*
X32510647Y-41996013D01*
X32509923Y-41996385D01*
X32157971Y-42119791D01*
X31726438Y-42189529D01*
X31281015Y-42201228D01*
X30887393Y-42150515D01*
X30761652Y-42112708D01*
X30222436Y-41834626D01*
X29782005Y-41449179D01*
X29455383Y-40977102D01*
X29257593Y-40439127D01*
X29202051Y-39960312D01*
X29239783Y-39469530D01*
X29374933Y-39030029D01*
X29597854Y-38619219D01*
X29737716Y-38406070D01*
X29827885Y-38307742D01*
X29901904Y-38303878D01*
X29993314Y-38374117D01*
G36*
X31936196Y-38174013D02*
G01*
X32160220Y-38403331D01*
X32291224Y-38570323D01*
X32353769Y-38719324D01*
X32372417Y-38894669D01*
X32373125Y-38962702D01*
X32373125Y-39319889D01*
X31937360Y-38889538D01*
X31501596Y-38459186D01*
X31221989Y-38730191D01*
X30942383Y-39001196D01*
X31822975Y-39891074D01*
X31800394Y-40784464D01*
X31777812Y-41677854D01*
X31559531Y-41449740D01*
X31442035Y-41309741D01*
X31376152Y-41164760D01*
X31347390Y-40962900D01*
X31341250Y-40668051D01*
X31341250Y-40114476D01*
X30825312Y-39603125D01*
X30597954Y-39369174D01*
X30421741Y-39171455D01*
X30322306Y-39039529D01*
X30309375Y-39008118D01*
X30362618Y-38920739D01*
X30506516Y-38750222D01*
X30717326Y-38523493D01*
X30904321Y-38333488D01*
X31499268Y-37742513D01*
X31936196Y-38174013D01*
G37*
X31936196Y-38174013D02*
X32160220Y-38403331D01*
X32291224Y-38570323D01*
X32353769Y-38719324D01*
X32372417Y-38894669D01*
X32373125Y-38962702D01*
X32373125Y-39319889D01*
X31937360Y-38889538D01*
X31501596Y-38459186D01*
X31221989Y-38730191D01*
X30942383Y-39001196D01*
X31822975Y-39891074D01*
X31800394Y-40784464D01*
X31777812Y-41677854D01*
X31559531Y-41449740D01*
X31442035Y-41309741D01*
X31376152Y-41164760D01*
X31347390Y-40962900D01*
X31341250Y-40668051D01*
X31341250Y-40114476D01*
X30825312Y-39603125D01*
X30597954Y-39369174D01*
X30421741Y-39171455D01*
X30322306Y-39039529D01*
X30309375Y-39008118D01*
X30362618Y-38920739D01*
X30506516Y-38750222D01*
X30717326Y-38523493D01*
X30904321Y-38333488D01*
X31499268Y-37742513D01*
X31936196Y-38174013D01*
D11*
%TO.C,J7*%
X28670000Y-35410000D02*
X33870000Y-35410000D01*
X28670000Y-30270000D02*
X28670000Y-35410000D01*
X33870000Y-27670000D02*
X33870000Y-35410000D01*
X28670000Y-30270000D02*
X31270000Y-30270000D01*
X31270000Y-30270000D02*
X31270000Y-27670000D01*
X31270000Y-27670000D02*
X33870000Y-27670000D01*
X28670000Y-29000000D02*
X28670000Y-27670000D01*
X28670000Y-27670000D02*
X30000000Y-27670000D01*
%TO.C,C2*%
X63711252Y-25590000D02*
X62288748Y-25590000D01*
X63711252Y-27410000D02*
X62288748Y-27410000D01*
%TO.C,J5*%
X64900000Y-37700000D02*
X64900000Y-37040000D01*
X66630000Y-37810000D02*
X64900000Y-37810000D01*
X70590000Y-30190000D02*
X70380000Y-30190000D01*
X70590000Y-37810000D02*
X70380000Y-37810000D01*
X66630000Y-30190000D02*
X64900000Y-30190000D01*
X64900000Y-30225000D02*
X64900000Y-30875000D01*
X65590000Y-35760000D02*
X65590000Y-35310000D01*
X65590000Y-35760000D02*
X65980000Y-35760000D01*
%TO.C,R1*%
X62272936Y-28265000D02*
X62727064Y-28265000D01*
X62272936Y-29735000D02*
X62727064Y-29735000D01*
%TO.C,R5*%
X62727064Y-36765000D02*
X62272936Y-36765000D01*
X62727064Y-38235000D02*
X62272936Y-38235000D01*
%TO.C,SW1*%
X61940000Y-42850000D02*
X61940000Y-39150000D01*
X68060000Y-42850000D02*
X61940000Y-42850000D01*
X68060000Y-39150000D02*
X68060000Y-42850000D01*
X61940000Y-39150000D02*
X68060000Y-39150000D01*
%TO.C,U1*%
X68760000Y-28580000D02*
X68760000Y-27650000D01*
X68760000Y-25420000D02*
X68760000Y-26350000D01*
X68760000Y-25420000D02*
X66600000Y-25420000D01*
X68760000Y-28580000D02*
X67300000Y-28580000D01*
%TO.C,U2*%
X42500000Y-42120000D02*
X42500000Y-42730000D01*
X42500000Y-42120000D02*
X34880000Y-42120000D01*
X59120000Y-42120000D02*
X58500000Y-42120000D01*
X59120000Y-40000000D02*
X59120000Y-42120000D01*
X59120000Y-25880000D02*
X59120000Y-28000000D01*
X58500000Y-25880000D02*
X59120000Y-25880000D01*
X34880000Y-25880000D02*
X42500000Y-25880000D01*
X34880000Y-42120000D02*
X34880000Y-25880000D01*
%TD*%
M02*
