%TF.GenerationSoftware,KiCad,Pcbnew,(5.1.9)-1*%
%TF.CreationDate,2021-05-04T17:37:26+02:00*%
%TF.ProjectId,IM350_AM550_5V_V2.0_Multi,494d3335-305f-4414-9d35-35305f35565f,rev?*%
%TF.SameCoordinates,Original*%
%TF.FileFunction,Legend,Top*%
%TF.FilePolarity,Positive*%
%FSLAX46Y46*%
G04 Gerber Fmt 4.6, Leading zero omitted, Abs format (unit mm)*
G04 Created by KiCad (PCBNEW (5.1.9)-1) date 2021-05-04 17:37:26*
%MOMM*%
%LPD*%
G01*
G04 APERTURE LIST*
%ADD10C,0.120000*%
%ADD11C,0.010000*%
G04 APERTURE END LIST*
D10*
%TO.C,U1*%
X68760000Y-104580000D02*
X68760000Y-103650000D01*
X68760000Y-101420000D02*
X68760000Y-102350000D01*
X68760000Y-101420000D02*
X66600000Y-101420000D01*
X68760000Y-104580000D02*
X67300000Y-104580000D01*
%TO.C,U2*%
X42500000Y-118120000D02*
X42500000Y-118730000D01*
X42500000Y-118120000D02*
X34880000Y-118120000D01*
X59120000Y-118120000D02*
X58500000Y-118120000D01*
X59120000Y-116000000D02*
X59120000Y-118120000D01*
X59120000Y-101880000D02*
X59120000Y-104000000D01*
X58500000Y-101880000D02*
X59120000Y-101880000D01*
X34880000Y-101880000D02*
X42500000Y-101880000D01*
X34880000Y-118120000D02*
X34880000Y-101880000D01*
%TO.C,R5*%
X62727064Y-112765000D02*
X62272936Y-112765000D01*
X62727064Y-114235000D02*
X62272936Y-114235000D01*
%TO.C,C2*%
X63711252Y-101590000D02*
X62288748Y-101590000D01*
X63711252Y-103410000D02*
X62288748Y-103410000D01*
%TO.C,J5*%
X64900000Y-113700000D02*
X64900000Y-113040000D01*
X66630000Y-113810000D02*
X64900000Y-113810000D01*
X70590000Y-106190000D02*
X70380000Y-106190000D01*
X70590000Y-113810000D02*
X70380000Y-113810000D01*
X66630000Y-106190000D02*
X64900000Y-106190000D01*
X64900000Y-106225000D02*
X64900000Y-106875000D01*
X65590000Y-111760000D02*
X65590000Y-111310000D01*
X65590000Y-111760000D02*
X65980000Y-111760000D01*
%TO.C,R1*%
X62272936Y-104265000D02*
X62727064Y-104265000D01*
X62272936Y-105735000D02*
X62727064Y-105735000D01*
%TO.C,U2*%
X76880000Y-118120000D02*
X76880000Y-101880000D01*
X76880000Y-101880000D02*
X84500000Y-101880000D01*
X100500000Y-101880000D02*
X101120000Y-101880000D01*
X101120000Y-101880000D02*
X101120000Y-104000000D01*
X101120000Y-116000000D02*
X101120000Y-118120000D01*
X101120000Y-118120000D02*
X100500000Y-118120000D01*
X84500000Y-118120000D02*
X76880000Y-118120000D01*
X84500000Y-118120000D02*
X84500000Y-118730000D01*
%TO.C,C2*%
X105711252Y-103410000D02*
X104288748Y-103410000D01*
X105711252Y-101590000D02*
X104288748Y-101590000D01*
%TO.C,SW1*%
X103940000Y-115150000D02*
X110060000Y-115150000D01*
X110060000Y-115150000D02*
X110060000Y-118850000D01*
X110060000Y-118850000D02*
X103940000Y-118850000D01*
X103940000Y-118850000D02*
X103940000Y-115150000D01*
X61940000Y-118850000D02*
X61940000Y-115150000D01*
X68060000Y-118850000D02*
X61940000Y-118850000D01*
X68060000Y-115150000D02*
X68060000Y-118850000D01*
X61940000Y-115150000D02*
X68060000Y-115150000D01*
D11*
%TO.C,G1*%
G36*
X73936196Y-114174013D02*
G01*
X74160220Y-114403331D01*
X74291224Y-114570323D01*
X74353769Y-114719324D01*
X74372417Y-114894669D01*
X74373125Y-114962702D01*
X74373125Y-115319889D01*
X73937360Y-114889538D01*
X73501596Y-114459186D01*
X73221989Y-114730191D01*
X72942383Y-115001196D01*
X73822975Y-115891074D01*
X73800394Y-116784464D01*
X73777812Y-117677854D01*
X73559531Y-117449740D01*
X73442035Y-117309741D01*
X73376152Y-117164760D01*
X73347390Y-116962900D01*
X73341250Y-116668051D01*
X73341250Y-116114476D01*
X72825312Y-115603125D01*
X72597954Y-115369174D01*
X72421741Y-115171455D01*
X72322306Y-115039529D01*
X72309375Y-115008118D01*
X72362618Y-114920739D01*
X72506516Y-114750222D01*
X72717326Y-114523493D01*
X72904321Y-114333488D01*
X73499268Y-113742513D01*
X73936196Y-114174013D01*
G37*
X73936196Y-114174013D02*
X74160220Y-114403331D01*
X74291224Y-114570323D01*
X74353769Y-114719324D01*
X74372417Y-114894669D01*
X74373125Y-114962702D01*
X74373125Y-115319889D01*
X73937360Y-114889538D01*
X73501596Y-114459186D01*
X73221989Y-114730191D01*
X72942383Y-115001196D01*
X73822975Y-115891074D01*
X73800394Y-116784464D01*
X73777812Y-117677854D01*
X73559531Y-117449740D01*
X73442035Y-117309741D01*
X73376152Y-117164760D01*
X73347390Y-116962900D01*
X73341250Y-116668051D01*
X73341250Y-116114476D01*
X72825312Y-115603125D01*
X72597954Y-115369174D01*
X72421741Y-115171455D01*
X72322306Y-115039529D01*
X72309375Y-115008118D01*
X72362618Y-114920739D01*
X72506516Y-114750222D01*
X72717326Y-114523493D01*
X72904321Y-114333488D01*
X73499268Y-113742513D01*
X73936196Y-114174013D01*
G36*
X71993314Y-114374117D02*
G01*
X71996666Y-114377148D01*
X72101276Y-114494777D01*
X72087044Y-114599718D01*
X72030272Y-114683626D01*
X71746130Y-115184288D01*
X71613038Y-115699670D01*
X71629888Y-116211618D01*
X71795571Y-116701978D01*
X72108979Y-117152595D01*
X72185918Y-117233002D01*
X72635502Y-117586300D01*
X73110838Y-117785985D01*
X73597619Y-117832058D01*
X74081538Y-117724518D01*
X74548286Y-117463366D01*
X74814081Y-117233002D01*
X75155709Y-116792086D01*
X75349824Y-116307945D01*
X75395319Y-115798732D01*
X75291085Y-115282601D01*
X75036013Y-114777707D01*
X74969727Y-114683626D01*
X74892661Y-114550060D01*
X74929417Y-114449592D01*
X75003333Y-114377148D01*
X75095643Y-114305108D01*
X75169653Y-114306372D01*
X75258787Y-114401304D01*
X75396469Y-114610272D01*
X75403109Y-114620739D01*
X75654504Y-115105894D01*
X75775576Y-115587027D01*
X75781585Y-116121397D01*
X75659228Y-116698000D01*
X75396881Y-117216996D01*
X75009151Y-117656847D01*
X74510647Y-117996013D01*
X74509923Y-117996385D01*
X74157971Y-118119791D01*
X73726438Y-118189529D01*
X73281015Y-118201228D01*
X72887393Y-118150515D01*
X72761652Y-118112708D01*
X72222436Y-117834626D01*
X71782005Y-117449179D01*
X71455383Y-116977102D01*
X71257593Y-116439127D01*
X71202051Y-115960312D01*
X71239783Y-115469530D01*
X71374933Y-115030029D01*
X71597854Y-114619219D01*
X71737716Y-114406070D01*
X71827885Y-114307742D01*
X71901904Y-114303878D01*
X71993314Y-114374117D01*
G37*
X71993314Y-114374117D02*
X71996666Y-114377148D01*
X72101276Y-114494777D01*
X72087044Y-114599718D01*
X72030272Y-114683626D01*
X71746130Y-115184288D01*
X71613038Y-115699670D01*
X71629888Y-116211618D01*
X71795571Y-116701978D01*
X72108979Y-117152595D01*
X72185918Y-117233002D01*
X72635502Y-117586300D01*
X73110838Y-117785985D01*
X73597619Y-117832058D01*
X74081538Y-117724518D01*
X74548286Y-117463366D01*
X74814081Y-117233002D01*
X75155709Y-116792086D01*
X75349824Y-116307945D01*
X75395319Y-115798732D01*
X75291085Y-115282601D01*
X75036013Y-114777707D01*
X74969727Y-114683626D01*
X74892661Y-114550060D01*
X74929417Y-114449592D01*
X75003333Y-114377148D01*
X75095643Y-114305108D01*
X75169653Y-114306372D01*
X75258787Y-114401304D01*
X75396469Y-114610272D01*
X75403109Y-114620739D01*
X75654504Y-115105894D01*
X75775576Y-115587027D01*
X75781585Y-116121397D01*
X75659228Y-116698000D01*
X75396881Y-117216996D01*
X75009151Y-117656847D01*
X74510647Y-117996013D01*
X74509923Y-117996385D01*
X74157971Y-118119791D01*
X73726438Y-118189529D01*
X73281015Y-118201228D01*
X72887393Y-118150515D01*
X72761652Y-118112708D01*
X72222436Y-117834626D01*
X71782005Y-117449179D01*
X71455383Y-116977102D01*
X71257593Y-116439127D01*
X71202051Y-115960312D01*
X71239783Y-115469530D01*
X71374933Y-115030029D01*
X71597854Y-114619219D01*
X71737716Y-114406070D01*
X71827885Y-114307742D01*
X71901904Y-114303878D01*
X71993314Y-114374117D01*
D10*
%TO.C,J7*%
X28670000Y-111410000D02*
X33870000Y-111410000D01*
X28670000Y-106270000D02*
X28670000Y-111410000D01*
X33870000Y-103670000D02*
X33870000Y-111410000D01*
X28670000Y-106270000D02*
X31270000Y-106270000D01*
X31270000Y-106270000D02*
X31270000Y-103670000D01*
X31270000Y-103670000D02*
X33870000Y-103670000D01*
X28670000Y-105000000D02*
X28670000Y-103670000D01*
X28670000Y-103670000D02*
X30000000Y-103670000D01*
D11*
%TO.C,G1*%
G36*
X29993314Y-114374117D02*
G01*
X29996666Y-114377148D01*
X30101276Y-114494777D01*
X30087044Y-114599718D01*
X30030272Y-114683626D01*
X29746130Y-115184288D01*
X29613038Y-115699670D01*
X29629888Y-116211618D01*
X29795571Y-116701978D01*
X30108979Y-117152595D01*
X30185918Y-117233002D01*
X30635502Y-117586300D01*
X31110838Y-117785985D01*
X31597619Y-117832058D01*
X32081538Y-117724518D01*
X32548286Y-117463366D01*
X32814081Y-117233002D01*
X33155709Y-116792086D01*
X33349824Y-116307945D01*
X33395319Y-115798732D01*
X33291085Y-115282601D01*
X33036013Y-114777707D01*
X32969727Y-114683626D01*
X32892661Y-114550060D01*
X32929417Y-114449592D01*
X33003333Y-114377148D01*
X33095643Y-114305108D01*
X33169653Y-114306372D01*
X33258787Y-114401304D01*
X33396469Y-114610272D01*
X33403109Y-114620739D01*
X33654504Y-115105894D01*
X33775576Y-115587027D01*
X33781585Y-116121397D01*
X33659228Y-116698000D01*
X33396881Y-117216996D01*
X33009151Y-117656847D01*
X32510647Y-117996013D01*
X32509923Y-117996385D01*
X32157971Y-118119791D01*
X31726438Y-118189529D01*
X31281015Y-118201228D01*
X30887393Y-118150515D01*
X30761652Y-118112708D01*
X30222436Y-117834626D01*
X29782005Y-117449179D01*
X29455383Y-116977102D01*
X29257593Y-116439127D01*
X29202051Y-115960312D01*
X29239783Y-115469530D01*
X29374933Y-115030029D01*
X29597854Y-114619219D01*
X29737716Y-114406070D01*
X29827885Y-114307742D01*
X29901904Y-114303878D01*
X29993314Y-114374117D01*
G37*
X29993314Y-114374117D02*
X29996666Y-114377148D01*
X30101276Y-114494777D01*
X30087044Y-114599718D01*
X30030272Y-114683626D01*
X29746130Y-115184288D01*
X29613038Y-115699670D01*
X29629888Y-116211618D01*
X29795571Y-116701978D01*
X30108979Y-117152595D01*
X30185918Y-117233002D01*
X30635502Y-117586300D01*
X31110838Y-117785985D01*
X31597619Y-117832058D01*
X32081538Y-117724518D01*
X32548286Y-117463366D01*
X32814081Y-117233002D01*
X33155709Y-116792086D01*
X33349824Y-116307945D01*
X33395319Y-115798732D01*
X33291085Y-115282601D01*
X33036013Y-114777707D01*
X32969727Y-114683626D01*
X32892661Y-114550060D01*
X32929417Y-114449592D01*
X33003333Y-114377148D01*
X33095643Y-114305108D01*
X33169653Y-114306372D01*
X33258787Y-114401304D01*
X33396469Y-114610272D01*
X33403109Y-114620739D01*
X33654504Y-115105894D01*
X33775576Y-115587027D01*
X33781585Y-116121397D01*
X33659228Y-116698000D01*
X33396881Y-117216996D01*
X33009151Y-117656847D01*
X32510647Y-117996013D01*
X32509923Y-117996385D01*
X32157971Y-118119791D01*
X31726438Y-118189529D01*
X31281015Y-118201228D01*
X30887393Y-118150515D01*
X30761652Y-118112708D01*
X30222436Y-117834626D01*
X29782005Y-117449179D01*
X29455383Y-116977102D01*
X29257593Y-116439127D01*
X29202051Y-115960312D01*
X29239783Y-115469530D01*
X29374933Y-115030029D01*
X29597854Y-114619219D01*
X29737716Y-114406070D01*
X29827885Y-114307742D01*
X29901904Y-114303878D01*
X29993314Y-114374117D01*
G36*
X31936196Y-114174013D02*
G01*
X32160220Y-114403331D01*
X32291224Y-114570323D01*
X32353769Y-114719324D01*
X32372417Y-114894669D01*
X32373125Y-114962702D01*
X32373125Y-115319889D01*
X31937360Y-114889538D01*
X31501596Y-114459186D01*
X31221989Y-114730191D01*
X30942383Y-115001196D01*
X31822975Y-115891074D01*
X31800394Y-116784464D01*
X31777812Y-117677854D01*
X31559531Y-117449740D01*
X31442035Y-117309741D01*
X31376152Y-117164760D01*
X31347390Y-116962900D01*
X31341250Y-116668051D01*
X31341250Y-116114476D01*
X30825312Y-115603125D01*
X30597954Y-115369174D01*
X30421741Y-115171455D01*
X30322306Y-115039529D01*
X30309375Y-115008118D01*
X30362618Y-114920739D01*
X30506516Y-114750222D01*
X30717326Y-114523493D01*
X30904321Y-114333488D01*
X31499268Y-113742513D01*
X31936196Y-114174013D01*
G37*
X31936196Y-114174013D02*
X32160220Y-114403331D01*
X32291224Y-114570323D01*
X32353769Y-114719324D01*
X32372417Y-114894669D01*
X32373125Y-114962702D01*
X32373125Y-115319889D01*
X31937360Y-114889538D01*
X31501596Y-114459186D01*
X31221989Y-114730191D01*
X30942383Y-115001196D01*
X31822975Y-115891074D01*
X31800394Y-116784464D01*
X31777812Y-117677854D01*
X31559531Y-117449740D01*
X31442035Y-117309741D01*
X31376152Y-117164760D01*
X31347390Y-116962900D01*
X31341250Y-116668051D01*
X31341250Y-116114476D01*
X30825312Y-115603125D01*
X30597954Y-115369174D01*
X30421741Y-115171455D01*
X30322306Y-115039529D01*
X30309375Y-115008118D01*
X30362618Y-114920739D01*
X30506516Y-114750222D01*
X30717326Y-114523493D01*
X30904321Y-114333488D01*
X31499268Y-113742513D01*
X31936196Y-114174013D01*
D10*
%TO.C,J5*%
X107590000Y-111760000D02*
X107980000Y-111760000D01*
X107590000Y-111760000D02*
X107590000Y-111310000D01*
X106900000Y-106225000D02*
X106900000Y-106875000D01*
X108630000Y-106190000D02*
X106900000Y-106190000D01*
X112590000Y-113810000D02*
X112380000Y-113810000D01*
X112590000Y-106190000D02*
X112380000Y-106190000D01*
X108630000Y-113810000D02*
X106900000Y-113810000D01*
X106900000Y-113700000D02*
X106900000Y-113040000D01*
%TO.C,J7*%
X70670000Y-103670000D02*
X72000000Y-103670000D01*
X70670000Y-105000000D02*
X70670000Y-103670000D01*
X73270000Y-103670000D02*
X75870000Y-103670000D01*
X73270000Y-106270000D02*
X73270000Y-103670000D01*
X70670000Y-106270000D02*
X73270000Y-106270000D01*
X75870000Y-103670000D02*
X75870000Y-111410000D01*
X70670000Y-106270000D02*
X70670000Y-111410000D01*
X70670000Y-111410000D02*
X75870000Y-111410000D01*
%TO.C,U1*%
X110760000Y-104580000D02*
X109300000Y-104580000D01*
X110760000Y-101420000D02*
X108600000Y-101420000D01*
X110760000Y-101420000D02*
X110760000Y-102350000D01*
X110760000Y-104580000D02*
X110760000Y-103650000D01*
%TO.C,R1*%
X104272936Y-105735000D02*
X104727064Y-105735000D01*
X104272936Y-104265000D02*
X104727064Y-104265000D01*
%TO.C,R5*%
X104727064Y-114235000D02*
X104272936Y-114235000D01*
X104727064Y-112765000D02*
X104272936Y-112765000D01*
%TO.C,J5*%
X106900000Y-94700000D02*
X106900000Y-94040000D01*
X108630000Y-94810000D02*
X106900000Y-94810000D01*
X112590000Y-87190000D02*
X112380000Y-87190000D01*
X112590000Y-94810000D02*
X112380000Y-94810000D01*
X108630000Y-87190000D02*
X106900000Y-87190000D01*
X106900000Y-87225000D02*
X106900000Y-87875000D01*
X107590000Y-92760000D02*
X107590000Y-92310000D01*
X107590000Y-92760000D02*
X107980000Y-92760000D01*
%TO.C,J7*%
X70670000Y-92410000D02*
X75870000Y-92410000D01*
X70670000Y-87270000D02*
X70670000Y-92410000D01*
X75870000Y-84670000D02*
X75870000Y-92410000D01*
X70670000Y-87270000D02*
X73270000Y-87270000D01*
X73270000Y-87270000D02*
X73270000Y-84670000D01*
X73270000Y-84670000D02*
X75870000Y-84670000D01*
X70670000Y-86000000D02*
X70670000Y-84670000D01*
X70670000Y-84670000D02*
X72000000Y-84670000D01*
%TO.C,R5*%
X104727064Y-93765000D02*
X104272936Y-93765000D01*
X104727064Y-95235000D02*
X104272936Y-95235000D01*
%TO.C,U1*%
X110760000Y-85580000D02*
X110760000Y-84650000D01*
X110760000Y-82420000D02*
X110760000Y-83350000D01*
X110760000Y-82420000D02*
X108600000Y-82420000D01*
X110760000Y-85580000D02*
X109300000Y-85580000D01*
%TO.C,SW1*%
X103940000Y-99850000D02*
X103940000Y-96150000D01*
X110060000Y-99850000D02*
X103940000Y-99850000D01*
X110060000Y-96150000D02*
X110060000Y-99850000D01*
X103940000Y-96150000D02*
X110060000Y-96150000D01*
D11*
%TO.C,G1*%
G36*
X71993314Y-95374117D02*
G01*
X71996666Y-95377148D01*
X72101276Y-95494777D01*
X72087044Y-95599718D01*
X72030272Y-95683626D01*
X71746130Y-96184288D01*
X71613038Y-96699670D01*
X71629888Y-97211618D01*
X71795571Y-97701978D01*
X72108979Y-98152595D01*
X72185918Y-98233002D01*
X72635502Y-98586300D01*
X73110838Y-98785985D01*
X73597619Y-98832058D01*
X74081538Y-98724518D01*
X74548286Y-98463366D01*
X74814081Y-98233002D01*
X75155709Y-97792086D01*
X75349824Y-97307945D01*
X75395319Y-96798732D01*
X75291085Y-96282601D01*
X75036013Y-95777707D01*
X74969727Y-95683626D01*
X74892661Y-95550060D01*
X74929417Y-95449592D01*
X75003333Y-95377148D01*
X75095643Y-95305108D01*
X75169653Y-95306372D01*
X75258787Y-95401304D01*
X75396469Y-95610272D01*
X75403109Y-95620739D01*
X75654504Y-96105894D01*
X75775576Y-96587027D01*
X75781585Y-97121397D01*
X75659228Y-97698000D01*
X75396881Y-98216996D01*
X75009151Y-98656847D01*
X74510647Y-98996013D01*
X74509923Y-98996385D01*
X74157971Y-99119791D01*
X73726438Y-99189529D01*
X73281015Y-99201228D01*
X72887393Y-99150515D01*
X72761652Y-99112708D01*
X72222436Y-98834626D01*
X71782005Y-98449179D01*
X71455383Y-97977102D01*
X71257593Y-97439127D01*
X71202051Y-96960312D01*
X71239783Y-96469530D01*
X71374933Y-96030029D01*
X71597854Y-95619219D01*
X71737716Y-95406070D01*
X71827885Y-95307742D01*
X71901904Y-95303878D01*
X71993314Y-95374117D01*
G37*
X71993314Y-95374117D02*
X71996666Y-95377148D01*
X72101276Y-95494777D01*
X72087044Y-95599718D01*
X72030272Y-95683626D01*
X71746130Y-96184288D01*
X71613038Y-96699670D01*
X71629888Y-97211618D01*
X71795571Y-97701978D01*
X72108979Y-98152595D01*
X72185918Y-98233002D01*
X72635502Y-98586300D01*
X73110838Y-98785985D01*
X73597619Y-98832058D01*
X74081538Y-98724518D01*
X74548286Y-98463366D01*
X74814081Y-98233002D01*
X75155709Y-97792086D01*
X75349824Y-97307945D01*
X75395319Y-96798732D01*
X75291085Y-96282601D01*
X75036013Y-95777707D01*
X74969727Y-95683626D01*
X74892661Y-95550060D01*
X74929417Y-95449592D01*
X75003333Y-95377148D01*
X75095643Y-95305108D01*
X75169653Y-95306372D01*
X75258787Y-95401304D01*
X75396469Y-95610272D01*
X75403109Y-95620739D01*
X75654504Y-96105894D01*
X75775576Y-96587027D01*
X75781585Y-97121397D01*
X75659228Y-97698000D01*
X75396881Y-98216996D01*
X75009151Y-98656847D01*
X74510647Y-98996013D01*
X74509923Y-98996385D01*
X74157971Y-99119791D01*
X73726438Y-99189529D01*
X73281015Y-99201228D01*
X72887393Y-99150515D01*
X72761652Y-99112708D01*
X72222436Y-98834626D01*
X71782005Y-98449179D01*
X71455383Y-97977102D01*
X71257593Y-97439127D01*
X71202051Y-96960312D01*
X71239783Y-96469530D01*
X71374933Y-96030029D01*
X71597854Y-95619219D01*
X71737716Y-95406070D01*
X71827885Y-95307742D01*
X71901904Y-95303878D01*
X71993314Y-95374117D01*
G36*
X73936196Y-95174013D02*
G01*
X74160220Y-95403331D01*
X74291224Y-95570323D01*
X74353769Y-95719324D01*
X74372417Y-95894669D01*
X74373125Y-95962702D01*
X74373125Y-96319889D01*
X73937360Y-95889538D01*
X73501596Y-95459186D01*
X73221989Y-95730191D01*
X72942383Y-96001196D01*
X73822975Y-96891074D01*
X73800394Y-97784464D01*
X73777812Y-98677854D01*
X73559531Y-98449740D01*
X73442035Y-98309741D01*
X73376152Y-98164760D01*
X73347390Y-97962900D01*
X73341250Y-97668051D01*
X73341250Y-97114476D01*
X72825312Y-96603125D01*
X72597954Y-96369174D01*
X72421741Y-96171455D01*
X72322306Y-96039529D01*
X72309375Y-96008118D01*
X72362618Y-95920739D01*
X72506516Y-95750222D01*
X72717326Y-95523493D01*
X72904321Y-95333488D01*
X73499268Y-94742513D01*
X73936196Y-95174013D01*
G37*
X73936196Y-95174013D02*
X74160220Y-95403331D01*
X74291224Y-95570323D01*
X74353769Y-95719324D01*
X74372417Y-95894669D01*
X74373125Y-95962702D01*
X74373125Y-96319889D01*
X73937360Y-95889538D01*
X73501596Y-95459186D01*
X73221989Y-95730191D01*
X72942383Y-96001196D01*
X73822975Y-96891074D01*
X73800394Y-97784464D01*
X73777812Y-98677854D01*
X73559531Y-98449740D01*
X73442035Y-98309741D01*
X73376152Y-98164760D01*
X73347390Y-97962900D01*
X73341250Y-97668051D01*
X73341250Y-97114476D01*
X72825312Y-96603125D01*
X72597954Y-96369174D01*
X72421741Y-96171455D01*
X72322306Y-96039529D01*
X72309375Y-96008118D01*
X72362618Y-95920739D01*
X72506516Y-95750222D01*
X72717326Y-95523493D01*
X72904321Y-95333488D01*
X73499268Y-94742513D01*
X73936196Y-95174013D01*
D10*
%TO.C,C2*%
X105711252Y-82590000D02*
X104288748Y-82590000D01*
X105711252Y-84410000D02*
X104288748Y-84410000D01*
D11*
%TO.C,G1*%
G36*
X31936196Y-95174013D02*
G01*
X32160220Y-95403331D01*
X32291224Y-95570323D01*
X32353769Y-95719324D01*
X32372417Y-95894669D01*
X32373125Y-95962702D01*
X32373125Y-96319889D01*
X31937360Y-95889538D01*
X31501596Y-95459186D01*
X31221989Y-95730191D01*
X30942383Y-96001196D01*
X31822975Y-96891074D01*
X31800394Y-97784464D01*
X31777812Y-98677854D01*
X31559531Y-98449740D01*
X31442035Y-98309741D01*
X31376152Y-98164760D01*
X31347390Y-97962900D01*
X31341250Y-97668051D01*
X31341250Y-97114476D01*
X30825312Y-96603125D01*
X30597954Y-96369174D01*
X30421741Y-96171455D01*
X30322306Y-96039529D01*
X30309375Y-96008118D01*
X30362618Y-95920739D01*
X30506516Y-95750222D01*
X30717326Y-95523493D01*
X30904321Y-95333488D01*
X31499268Y-94742513D01*
X31936196Y-95174013D01*
G37*
X31936196Y-95174013D02*
X32160220Y-95403331D01*
X32291224Y-95570323D01*
X32353769Y-95719324D01*
X32372417Y-95894669D01*
X32373125Y-95962702D01*
X32373125Y-96319889D01*
X31937360Y-95889538D01*
X31501596Y-95459186D01*
X31221989Y-95730191D01*
X30942383Y-96001196D01*
X31822975Y-96891074D01*
X31800394Y-97784464D01*
X31777812Y-98677854D01*
X31559531Y-98449740D01*
X31442035Y-98309741D01*
X31376152Y-98164760D01*
X31347390Y-97962900D01*
X31341250Y-97668051D01*
X31341250Y-97114476D01*
X30825312Y-96603125D01*
X30597954Y-96369174D01*
X30421741Y-96171455D01*
X30322306Y-96039529D01*
X30309375Y-96008118D01*
X30362618Y-95920739D01*
X30506516Y-95750222D01*
X30717326Y-95523493D01*
X30904321Y-95333488D01*
X31499268Y-94742513D01*
X31936196Y-95174013D01*
G36*
X29993314Y-95374117D02*
G01*
X29996666Y-95377148D01*
X30101276Y-95494777D01*
X30087044Y-95599718D01*
X30030272Y-95683626D01*
X29746130Y-96184288D01*
X29613038Y-96699670D01*
X29629888Y-97211618D01*
X29795571Y-97701978D01*
X30108979Y-98152595D01*
X30185918Y-98233002D01*
X30635502Y-98586300D01*
X31110838Y-98785985D01*
X31597619Y-98832058D01*
X32081538Y-98724518D01*
X32548286Y-98463366D01*
X32814081Y-98233002D01*
X33155709Y-97792086D01*
X33349824Y-97307945D01*
X33395319Y-96798732D01*
X33291085Y-96282601D01*
X33036013Y-95777707D01*
X32969727Y-95683626D01*
X32892661Y-95550060D01*
X32929417Y-95449592D01*
X33003333Y-95377148D01*
X33095643Y-95305108D01*
X33169653Y-95306372D01*
X33258787Y-95401304D01*
X33396469Y-95610272D01*
X33403109Y-95620739D01*
X33654504Y-96105894D01*
X33775576Y-96587027D01*
X33781585Y-97121397D01*
X33659228Y-97698000D01*
X33396881Y-98216996D01*
X33009151Y-98656847D01*
X32510647Y-98996013D01*
X32509923Y-98996385D01*
X32157971Y-99119791D01*
X31726438Y-99189529D01*
X31281015Y-99201228D01*
X30887393Y-99150515D01*
X30761652Y-99112708D01*
X30222436Y-98834626D01*
X29782005Y-98449179D01*
X29455383Y-97977102D01*
X29257593Y-97439127D01*
X29202051Y-96960312D01*
X29239783Y-96469530D01*
X29374933Y-96030029D01*
X29597854Y-95619219D01*
X29737716Y-95406070D01*
X29827885Y-95307742D01*
X29901904Y-95303878D01*
X29993314Y-95374117D01*
G37*
X29993314Y-95374117D02*
X29996666Y-95377148D01*
X30101276Y-95494777D01*
X30087044Y-95599718D01*
X30030272Y-95683626D01*
X29746130Y-96184288D01*
X29613038Y-96699670D01*
X29629888Y-97211618D01*
X29795571Y-97701978D01*
X30108979Y-98152595D01*
X30185918Y-98233002D01*
X30635502Y-98586300D01*
X31110838Y-98785985D01*
X31597619Y-98832058D01*
X32081538Y-98724518D01*
X32548286Y-98463366D01*
X32814081Y-98233002D01*
X33155709Y-97792086D01*
X33349824Y-97307945D01*
X33395319Y-96798732D01*
X33291085Y-96282601D01*
X33036013Y-95777707D01*
X32969727Y-95683626D01*
X32892661Y-95550060D01*
X32929417Y-95449592D01*
X33003333Y-95377148D01*
X33095643Y-95305108D01*
X33169653Y-95306372D01*
X33258787Y-95401304D01*
X33396469Y-95610272D01*
X33403109Y-95620739D01*
X33654504Y-96105894D01*
X33775576Y-96587027D01*
X33781585Y-97121397D01*
X33659228Y-97698000D01*
X33396881Y-98216996D01*
X33009151Y-98656847D01*
X32510647Y-98996013D01*
X32509923Y-98996385D01*
X32157971Y-99119791D01*
X31726438Y-99189529D01*
X31281015Y-99201228D01*
X30887393Y-99150515D01*
X30761652Y-99112708D01*
X30222436Y-98834626D01*
X29782005Y-98449179D01*
X29455383Y-97977102D01*
X29257593Y-97439127D01*
X29202051Y-96960312D01*
X29239783Y-96469530D01*
X29374933Y-96030029D01*
X29597854Y-95619219D01*
X29737716Y-95406070D01*
X29827885Y-95307742D01*
X29901904Y-95303878D01*
X29993314Y-95374117D01*
D10*
%TO.C,J7*%
X28670000Y-84670000D02*
X30000000Y-84670000D01*
X28670000Y-86000000D02*
X28670000Y-84670000D01*
X31270000Y-84670000D02*
X33870000Y-84670000D01*
X31270000Y-87270000D02*
X31270000Y-84670000D01*
X28670000Y-87270000D02*
X31270000Y-87270000D01*
X33870000Y-84670000D02*
X33870000Y-92410000D01*
X28670000Y-87270000D02*
X28670000Y-92410000D01*
X28670000Y-92410000D02*
X33870000Y-92410000D01*
%TO.C,R1*%
X104272936Y-85265000D02*
X104727064Y-85265000D01*
X104272936Y-86735000D02*
X104727064Y-86735000D01*
%TO.C,SW1*%
X61940000Y-96150000D02*
X68060000Y-96150000D01*
X68060000Y-96150000D02*
X68060000Y-99850000D01*
X68060000Y-99850000D02*
X61940000Y-99850000D01*
X61940000Y-99850000D02*
X61940000Y-96150000D01*
%TO.C,C2*%
X63711252Y-84410000D02*
X62288748Y-84410000D01*
X63711252Y-82590000D02*
X62288748Y-82590000D01*
%TO.C,J5*%
X65590000Y-92760000D02*
X65980000Y-92760000D01*
X65590000Y-92760000D02*
X65590000Y-92310000D01*
X64900000Y-87225000D02*
X64900000Y-87875000D01*
X66630000Y-87190000D02*
X64900000Y-87190000D01*
X70590000Y-94810000D02*
X70380000Y-94810000D01*
X70590000Y-87190000D02*
X70380000Y-87190000D01*
X66630000Y-94810000D02*
X64900000Y-94810000D01*
X64900000Y-94700000D02*
X64900000Y-94040000D01*
%TO.C,R1*%
X62272936Y-86735000D02*
X62727064Y-86735000D01*
X62272936Y-85265000D02*
X62727064Y-85265000D01*
%TO.C,U2*%
X84500000Y-99120000D02*
X84500000Y-99730000D01*
X84500000Y-99120000D02*
X76880000Y-99120000D01*
X101120000Y-99120000D02*
X100500000Y-99120000D01*
X101120000Y-97000000D02*
X101120000Y-99120000D01*
X101120000Y-82880000D02*
X101120000Y-85000000D01*
X100500000Y-82880000D02*
X101120000Y-82880000D01*
X76880000Y-82880000D02*
X84500000Y-82880000D01*
X76880000Y-99120000D02*
X76880000Y-82880000D01*
%TO.C,U1*%
X68760000Y-85580000D02*
X67300000Y-85580000D01*
X68760000Y-82420000D02*
X66600000Y-82420000D01*
X68760000Y-82420000D02*
X68760000Y-83350000D01*
X68760000Y-85580000D02*
X68760000Y-84650000D01*
%TO.C,R5*%
X62727064Y-95235000D02*
X62272936Y-95235000D01*
X62727064Y-93765000D02*
X62272936Y-93765000D01*
%TO.C,U2*%
X34880000Y-99120000D02*
X34880000Y-82880000D01*
X34880000Y-82880000D02*
X42500000Y-82880000D01*
X58500000Y-82880000D02*
X59120000Y-82880000D01*
X59120000Y-82880000D02*
X59120000Y-85000000D01*
X59120000Y-97000000D02*
X59120000Y-99120000D01*
X59120000Y-99120000D02*
X58500000Y-99120000D01*
X42500000Y-99120000D02*
X34880000Y-99120000D01*
X42500000Y-99120000D02*
X42500000Y-99730000D01*
X76880000Y-80120000D02*
X76880000Y-63880000D01*
X76880000Y-63880000D02*
X84500000Y-63880000D01*
X100500000Y-63880000D02*
X101120000Y-63880000D01*
X101120000Y-63880000D02*
X101120000Y-66000000D01*
X101120000Y-78000000D02*
X101120000Y-80120000D01*
X101120000Y-80120000D02*
X100500000Y-80120000D01*
X84500000Y-80120000D02*
X76880000Y-80120000D01*
X84500000Y-80120000D02*
X84500000Y-80730000D01*
%TO.C,U1*%
X68760000Y-66580000D02*
X68760000Y-65650000D01*
X68760000Y-63420000D02*
X68760000Y-64350000D01*
X68760000Y-63420000D02*
X66600000Y-63420000D01*
X68760000Y-66580000D02*
X67300000Y-66580000D01*
%TO.C,R5*%
X62727064Y-74765000D02*
X62272936Y-74765000D01*
X62727064Y-76235000D02*
X62272936Y-76235000D01*
%TO.C,C2*%
X63711252Y-63590000D02*
X62288748Y-63590000D01*
X63711252Y-65410000D02*
X62288748Y-65410000D01*
%TO.C,J5*%
X64900000Y-75700000D02*
X64900000Y-75040000D01*
X66630000Y-75810000D02*
X64900000Y-75810000D01*
X70590000Y-68190000D02*
X70380000Y-68190000D01*
X70590000Y-75810000D02*
X70380000Y-75810000D01*
X66630000Y-68190000D02*
X64900000Y-68190000D01*
X64900000Y-68225000D02*
X64900000Y-68875000D01*
X65590000Y-73760000D02*
X65590000Y-73310000D01*
X65590000Y-73760000D02*
X65980000Y-73760000D01*
%TO.C,U2*%
X42500000Y-80120000D02*
X42500000Y-80730000D01*
X42500000Y-80120000D02*
X34880000Y-80120000D01*
X59120000Y-80120000D02*
X58500000Y-80120000D01*
X59120000Y-78000000D02*
X59120000Y-80120000D01*
X59120000Y-63880000D02*
X59120000Y-66000000D01*
X58500000Y-63880000D02*
X59120000Y-63880000D01*
X34880000Y-63880000D02*
X42500000Y-63880000D01*
X34880000Y-80120000D02*
X34880000Y-63880000D01*
D11*
%TO.C,G1*%
G36*
X29993314Y-76374117D02*
G01*
X29996666Y-76377148D01*
X30101276Y-76494777D01*
X30087044Y-76599718D01*
X30030272Y-76683626D01*
X29746130Y-77184288D01*
X29613038Y-77699670D01*
X29629888Y-78211618D01*
X29795571Y-78701978D01*
X30108979Y-79152595D01*
X30185918Y-79233002D01*
X30635502Y-79586300D01*
X31110838Y-79785985D01*
X31597619Y-79832058D01*
X32081538Y-79724518D01*
X32548286Y-79463366D01*
X32814081Y-79233002D01*
X33155709Y-78792086D01*
X33349824Y-78307945D01*
X33395319Y-77798732D01*
X33291085Y-77282601D01*
X33036013Y-76777707D01*
X32969727Y-76683626D01*
X32892661Y-76550060D01*
X32929417Y-76449592D01*
X33003333Y-76377148D01*
X33095643Y-76305108D01*
X33169653Y-76306372D01*
X33258787Y-76401304D01*
X33396469Y-76610272D01*
X33403109Y-76620739D01*
X33654504Y-77105894D01*
X33775576Y-77587027D01*
X33781585Y-78121397D01*
X33659228Y-78698000D01*
X33396881Y-79216996D01*
X33009151Y-79656847D01*
X32510647Y-79996013D01*
X32509923Y-79996385D01*
X32157971Y-80119791D01*
X31726438Y-80189529D01*
X31281015Y-80201228D01*
X30887393Y-80150515D01*
X30761652Y-80112708D01*
X30222436Y-79834626D01*
X29782005Y-79449179D01*
X29455383Y-78977102D01*
X29257593Y-78439127D01*
X29202051Y-77960312D01*
X29239783Y-77469530D01*
X29374933Y-77030029D01*
X29597854Y-76619219D01*
X29737716Y-76406070D01*
X29827885Y-76307742D01*
X29901904Y-76303878D01*
X29993314Y-76374117D01*
G37*
X29993314Y-76374117D02*
X29996666Y-76377148D01*
X30101276Y-76494777D01*
X30087044Y-76599718D01*
X30030272Y-76683626D01*
X29746130Y-77184288D01*
X29613038Y-77699670D01*
X29629888Y-78211618D01*
X29795571Y-78701978D01*
X30108979Y-79152595D01*
X30185918Y-79233002D01*
X30635502Y-79586300D01*
X31110838Y-79785985D01*
X31597619Y-79832058D01*
X32081538Y-79724518D01*
X32548286Y-79463366D01*
X32814081Y-79233002D01*
X33155709Y-78792086D01*
X33349824Y-78307945D01*
X33395319Y-77798732D01*
X33291085Y-77282601D01*
X33036013Y-76777707D01*
X32969727Y-76683626D01*
X32892661Y-76550060D01*
X32929417Y-76449592D01*
X33003333Y-76377148D01*
X33095643Y-76305108D01*
X33169653Y-76306372D01*
X33258787Y-76401304D01*
X33396469Y-76610272D01*
X33403109Y-76620739D01*
X33654504Y-77105894D01*
X33775576Y-77587027D01*
X33781585Y-78121397D01*
X33659228Y-78698000D01*
X33396881Y-79216996D01*
X33009151Y-79656847D01*
X32510647Y-79996013D01*
X32509923Y-79996385D01*
X32157971Y-80119791D01*
X31726438Y-80189529D01*
X31281015Y-80201228D01*
X30887393Y-80150515D01*
X30761652Y-80112708D01*
X30222436Y-79834626D01*
X29782005Y-79449179D01*
X29455383Y-78977102D01*
X29257593Y-78439127D01*
X29202051Y-77960312D01*
X29239783Y-77469530D01*
X29374933Y-77030029D01*
X29597854Y-76619219D01*
X29737716Y-76406070D01*
X29827885Y-76307742D01*
X29901904Y-76303878D01*
X29993314Y-76374117D01*
G36*
X31936196Y-76174013D02*
G01*
X32160220Y-76403331D01*
X32291224Y-76570323D01*
X32353769Y-76719324D01*
X32372417Y-76894669D01*
X32373125Y-76962702D01*
X32373125Y-77319889D01*
X31937360Y-76889538D01*
X31501596Y-76459186D01*
X31221989Y-76730191D01*
X30942383Y-77001196D01*
X31822975Y-77891074D01*
X31800394Y-78784464D01*
X31777812Y-79677854D01*
X31559531Y-79449740D01*
X31442035Y-79309741D01*
X31376152Y-79164760D01*
X31347390Y-78962900D01*
X31341250Y-78668051D01*
X31341250Y-78114476D01*
X30825312Y-77603125D01*
X30597954Y-77369174D01*
X30421741Y-77171455D01*
X30322306Y-77039529D01*
X30309375Y-77008118D01*
X30362618Y-76920739D01*
X30506516Y-76750222D01*
X30717326Y-76523493D01*
X30904321Y-76333488D01*
X31499268Y-75742513D01*
X31936196Y-76174013D01*
G37*
X31936196Y-76174013D02*
X32160220Y-76403331D01*
X32291224Y-76570323D01*
X32353769Y-76719324D01*
X32372417Y-76894669D01*
X32373125Y-76962702D01*
X32373125Y-77319889D01*
X31937360Y-76889538D01*
X31501596Y-76459186D01*
X31221989Y-76730191D01*
X30942383Y-77001196D01*
X31822975Y-77891074D01*
X31800394Y-78784464D01*
X31777812Y-79677854D01*
X31559531Y-79449740D01*
X31442035Y-79309741D01*
X31376152Y-79164760D01*
X31347390Y-78962900D01*
X31341250Y-78668051D01*
X31341250Y-78114476D01*
X30825312Y-77603125D01*
X30597954Y-77369174D01*
X30421741Y-77171455D01*
X30322306Y-77039529D01*
X30309375Y-77008118D01*
X30362618Y-76920739D01*
X30506516Y-76750222D01*
X30717326Y-76523493D01*
X30904321Y-76333488D01*
X31499268Y-75742513D01*
X31936196Y-76174013D01*
D10*
%TO.C,SW1*%
X61940000Y-80850000D02*
X61940000Y-77150000D01*
X68060000Y-80850000D02*
X61940000Y-80850000D01*
X68060000Y-77150000D02*
X68060000Y-80850000D01*
X61940000Y-77150000D02*
X68060000Y-77150000D01*
%TO.C,R1*%
X62272936Y-66265000D02*
X62727064Y-66265000D01*
X62272936Y-67735000D02*
X62727064Y-67735000D01*
%TO.C,J7*%
X28670000Y-73410000D02*
X33870000Y-73410000D01*
X28670000Y-68270000D02*
X28670000Y-73410000D01*
X33870000Y-65670000D02*
X33870000Y-73410000D01*
X28670000Y-68270000D02*
X31270000Y-68270000D01*
X31270000Y-68270000D02*
X31270000Y-65670000D01*
X31270000Y-65670000D02*
X33870000Y-65670000D01*
X28670000Y-67000000D02*
X28670000Y-65670000D01*
X28670000Y-65670000D02*
X30000000Y-65670000D01*
%TO.C,R1*%
X104272936Y-67735000D02*
X104727064Y-67735000D01*
X104272936Y-66265000D02*
X104727064Y-66265000D01*
%TO.C,C2*%
X105711252Y-65410000D02*
X104288748Y-65410000D01*
X105711252Y-63590000D02*
X104288748Y-63590000D01*
%TO.C,J5*%
X107590000Y-73760000D02*
X107980000Y-73760000D01*
X107590000Y-73760000D02*
X107590000Y-73310000D01*
X106900000Y-68225000D02*
X106900000Y-68875000D01*
X108630000Y-68190000D02*
X106900000Y-68190000D01*
X112590000Y-75810000D02*
X112380000Y-75810000D01*
X112590000Y-68190000D02*
X112380000Y-68190000D01*
X108630000Y-75810000D02*
X106900000Y-75810000D01*
X106900000Y-75700000D02*
X106900000Y-75040000D01*
%TO.C,J7*%
X70670000Y-65670000D02*
X72000000Y-65670000D01*
X70670000Y-67000000D02*
X70670000Y-65670000D01*
X73270000Y-65670000D02*
X75870000Y-65670000D01*
X73270000Y-68270000D02*
X73270000Y-65670000D01*
X70670000Y-68270000D02*
X73270000Y-68270000D01*
X75870000Y-65670000D02*
X75870000Y-73410000D01*
X70670000Y-68270000D02*
X70670000Y-73410000D01*
X70670000Y-73410000D02*
X75870000Y-73410000D01*
%TO.C,R5*%
X104727064Y-76235000D02*
X104272936Y-76235000D01*
X104727064Y-74765000D02*
X104272936Y-74765000D01*
%TO.C,U1*%
X110760000Y-66580000D02*
X109300000Y-66580000D01*
X110760000Y-63420000D02*
X108600000Y-63420000D01*
X110760000Y-63420000D02*
X110760000Y-64350000D01*
X110760000Y-66580000D02*
X110760000Y-65650000D01*
%TO.C,SW1*%
X103940000Y-77150000D02*
X110060000Y-77150000D01*
X110060000Y-77150000D02*
X110060000Y-80850000D01*
X110060000Y-80850000D02*
X103940000Y-80850000D01*
X103940000Y-80850000D02*
X103940000Y-77150000D01*
D11*
%TO.C,G1*%
G36*
X73936196Y-76174013D02*
G01*
X74160220Y-76403331D01*
X74291224Y-76570323D01*
X74353769Y-76719324D01*
X74372417Y-76894669D01*
X74373125Y-76962702D01*
X74373125Y-77319889D01*
X73937360Y-76889538D01*
X73501596Y-76459186D01*
X73221989Y-76730191D01*
X72942383Y-77001196D01*
X73822975Y-77891074D01*
X73800394Y-78784464D01*
X73777812Y-79677854D01*
X73559531Y-79449740D01*
X73442035Y-79309741D01*
X73376152Y-79164760D01*
X73347390Y-78962900D01*
X73341250Y-78668051D01*
X73341250Y-78114476D01*
X72825312Y-77603125D01*
X72597954Y-77369174D01*
X72421741Y-77171455D01*
X72322306Y-77039529D01*
X72309375Y-77008118D01*
X72362618Y-76920739D01*
X72506516Y-76750222D01*
X72717326Y-76523493D01*
X72904321Y-76333488D01*
X73499268Y-75742513D01*
X73936196Y-76174013D01*
G37*
X73936196Y-76174013D02*
X74160220Y-76403331D01*
X74291224Y-76570323D01*
X74353769Y-76719324D01*
X74372417Y-76894669D01*
X74373125Y-76962702D01*
X74373125Y-77319889D01*
X73937360Y-76889538D01*
X73501596Y-76459186D01*
X73221989Y-76730191D01*
X72942383Y-77001196D01*
X73822975Y-77891074D01*
X73800394Y-78784464D01*
X73777812Y-79677854D01*
X73559531Y-79449740D01*
X73442035Y-79309741D01*
X73376152Y-79164760D01*
X73347390Y-78962900D01*
X73341250Y-78668051D01*
X73341250Y-78114476D01*
X72825312Y-77603125D01*
X72597954Y-77369174D01*
X72421741Y-77171455D01*
X72322306Y-77039529D01*
X72309375Y-77008118D01*
X72362618Y-76920739D01*
X72506516Y-76750222D01*
X72717326Y-76523493D01*
X72904321Y-76333488D01*
X73499268Y-75742513D01*
X73936196Y-76174013D01*
G36*
X71993314Y-76374117D02*
G01*
X71996666Y-76377148D01*
X72101276Y-76494777D01*
X72087044Y-76599718D01*
X72030272Y-76683626D01*
X71746130Y-77184288D01*
X71613038Y-77699670D01*
X71629888Y-78211618D01*
X71795571Y-78701978D01*
X72108979Y-79152595D01*
X72185918Y-79233002D01*
X72635502Y-79586300D01*
X73110838Y-79785985D01*
X73597619Y-79832058D01*
X74081538Y-79724518D01*
X74548286Y-79463366D01*
X74814081Y-79233002D01*
X75155709Y-78792086D01*
X75349824Y-78307945D01*
X75395319Y-77798732D01*
X75291085Y-77282601D01*
X75036013Y-76777707D01*
X74969727Y-76683626D01*
X74892661Y-76550060D01*
X74929417Y-76449592D01*
X75003333Y-76377148D01*
X75095643Y-76305108D01*
X75169653Y-76306372D01*
X75258787Y-76401304D01*
X75396469Y-76610272D01*
X75403109Y-76620739D01*
X75654504Y-77105894D01*
X75775576Y-77587027D01*
X75781585Y-78121397D01*
X75659228Y-78698000D01*
X75396881Y-79216996D01*
X75009151Y-79656847D01*
X74510647Y-79996013D01*
X74509923Y-79996385D01*
X74157971Y-80119791D01*
X73726438Y-80189529D01*
X73281015Y-80201228D01*
X72887393Y-80150515D01*
X72761652Y-80112708D01*
X72222436Y-79834626D01*
X71782005Y-79449179D01*
X71455383Y-78977102D01*
X71257593Y-78439127D01*
X71202051Y-77960312D01*
X71239783Y-77469530D01*
X71374933Y-77030029D01*
X71597854Y-76619219D01*
X71737716Y-76406070D01*
X71827885Y-76307742D01*
X71901904Y-76303878D01*
X71993314Y-76374117D01*
G37*
X71993314Y-76374117D02*
X71996666Y-76377148D01*
X72101276Y-76494777D01*
X72087044Y-76599718D01*
X72030272Y-76683626D01*
X71746130Y-77184288D01*
X71613038Y-77699670D01*
X71629888Y-78211618D01*
X71795571Y-78701978D01*
X72108979Y-79152595D01*
X72185918Y-79233002D01*
X72635502Y-79586300D01*
X73110838Y-79785985D01*
X73597619Y-79832058D01*
X74081538Y-79724518D01*
X74548286Y-79463366D01*
X74814081Y-79233002D01*
X75155709Y-78792086D01*
X75349824Y-78307945D01*
X75395319Y-77798732D01*
X75291085Y-77282601D01*
X75036013Y-76777707D01*
X74969727Y-76683626D01*
X74892661Y-76550060D01*
X74929417Y-76449592D01*
X75003333Y-76377148D01*
X75095643Y-76305108D01*
X75169653Y-76306372D01*
X75258787Y-76401304D01*
X75396469Y-76610272D01*
X75403109Y-76620739D01*
X75654504Y-77105894D01*
X75775576Y-77587027D01*
X75781585Y-78121397D01*
X75659228Y-78698000D01*
X75396881Y-79216996D01*
X75009151Y-79656847D01*
X74510647Y-79996013D01*
X74509923Y-79996385D01*
X74157971Y-80119791D01*
X73726438Y-80189529D01*
X73281015Y-80201228D01*
X72887393Y-80150515D01*
X72761652Y-80112708D01*
X72222436Y-79834626D01*
X71782005Y-79449179D01*
X71455383Y-78977102D01*
X71257593Y-78439127D01*
X71202051Y-77960312D01*
X71239783Y-77469530D01*
X71374933Y-77030029D01*
X71597854Y-76619219D01*
X71737716Y-76406070D01*
X71827885Y-76307742D01*
X71901904Y-76303878D01*
X71993314Y-76374117D01*
D10*
%TO.C,J7*%
X70670000Y-54410000D02*
X75870000Y-54410000D01*
X70670000Y-49270000D02*
X70670000Y-54410000D01*
X75870000Y-46670000D02*
X75870000Y-54410000D01*
X70670000Y-49270000D02*
X73270000Y-49270000D01*
X73270000Y-49270000D02*
X73270000Y-46670000D01*
X73270000Y-46670000D02*
X75870000Y-46670000D01*
X70670000Y-48000000D02*
X70670000Y-46670000D01*
X70670000Y-46670000D02*
X72000000Y-46670000D01*
%TO.C,C2*%
X105711252Y-44590000D02*
X104288748Y-44590000D01*
X105711252Y-46410000D02*
X104288748Y-46410000D01*
%TO.C,J5*%
X106900000Y-56700000D02*
X106900000Y-56040000D01*
X108630000Y-56810000D02*
X106900000Y-56810000D01*
X112590000Y-49190000D02*
X112380000Y-49190000D01*
X112590000Y-56810000D02*
X112380000Y-56810000D01*
X108630000Y-49190000D02*
X106900000Y-49190000D01*
X106900000Y-49225000D02*
X106900000Y-49875000D01*
X107590000Y-54760000D02*
X107590000Y-54310000D01*
X107590000Y-54760000D02*
X107980000Y-54760000D01*
%TO.C,U1*%
X110760000Y-47580000D02*
X110760000Y-46650000D01*
X110760000Y-44420000D02*
X110760000Y-45350000D01*
X110760000Y-44420000D02*
X108600000Y-44420000D01*
X110760000Y-47580000D02*
X109300000Y-47580000D01*
%TO.C,SW1*%
X103940000Y-61850000D02*
X103940000Y-58150000D01*
X110060000Y-61850000D02*
X103940000Y-61850000D01*
X110060000Y-58150000D02*
X110060000Y-61850000D01*
X103940000Y-58150000D02*
X110060000Y-58150000D01*
%TO.C,R5*%
X104727064Y-55765000D02*
X104272936Y-55765000D01*
X104727064Y-57235000D02*
X104272936Y-57235000D01*
D11*
%TO.C,G1*%
G36*
X71993314Y-57374117D02*
G01*
X71996666Y-57377148D01*
X72101276Y-57494777D01*
X72087044Y-57599718D01*
X72030272Y-57683626D01*
X71746130Y-58184288D01*
X71613038Y-58699670D01*
X71629888Y-59211618D01*
X71795571Y-59701978D01*
X72108979Y-60152595D01*
X72185918Y-60233002D01*
X72635502Y-60586300D01*
X73110838Y-60785985D01*
X73597619Y-60832058D01*
X74081538Y-60724518D01*
X74548286Y-60463366D01*
X74814081Y-60233002D01*
X75155709Y-59792086D01*
X75349824Y-59307945D01*
X75395319Y-58798732D01*
X75291085Y-58282601D01*
X75036013Y-57777707D01*
X74969727Y-57683626D01*
X74892661Y-57550060D01*
X74929417Y-57449592D01*
X75003333Y-57377148D01*
X75095643Y-57305108D01*
X75169653Y-57306372D01*
X75258787Y-57401304D01*
X75396469Y-57610272D01*
X75403109Y-57620739D01*
X75654504Y-58105894D01*
X75775576Y-58587027D01*
X75781585Y-59121397D01*
X75659228Y-59698000D01*
X75396881Y-60216996D01*
X75009151Y-60656847D01*
X74510647Y-60996013D01*
X74509923Y-60996385D01*
X74157971Y-61119791D01*
X73726438Y-61189529D01*
X73281015Y-61201228D01*
X72887393Y-61150515D01*
X72761652Y-61112708D01*
X72222436Y-60834626D01*
X71782005Y-60449179D01*
X71455383Y-59977102D01*
X71257593Y-59439127D01*
X71202051Y-58960312D01*
X71239783Y-58469530D01*
X71374933Y-58030029D01*
X71597854Y-57619219D01*
X71737716Y-57406070D01*
X71827885Y-57307742D01*
X71901904Y-57303878D01*
X71993314Y-57374117D01*
G37*
X71993314Y-57374117D02*
X71996666Y-57377148D01*
X72101276Y-57494777D01*
X72087044Y-57599718D01*
X72030272Y-57683626D01*
X71746130Y-58184288D01*
X71613038Y-58699670D01*
X71629888Y-59211618D01*
X71795571Y-59701978D01*
X72108979Y-60152595D01*
X72185918Y-60233002D01*
X72635502Y-60586300D01*
X73110838Y-60785985D01*
X73597619Y-60832058D01*
X74081538Y-60724518D01*
X74548286Y-60463366D01*
X74814081Y-60233002D01*
X75155709Y-59792086D01*
X75349824Y-59307945D01*
X75395319Y-58798732D01*
X75291085Y-58282601D01*
X75036013Y-57777707D01*
X74969727Y-57683626D01*
X74892661Y-57550060D01*
X74929417Y-57449592D01*
X75003333Y-57377148D01*
X75095643Y-57305108D01*
X75169653Y-57306372D01*
X75258787Y-57401304D01*
X75396469Y-57610272D01*
X75403109Y-57620739D01*
X75654504Y-58105894D01*
X75775576Y-58587027D01*
X75781585Y-59121397D01*
X75659228Y-59698000D01*
X75396881Y-60216996D01*
X75009151Y-60656847D01*
X74510647Y-60996013D01*
X74509923Y-60996385D01*
X74157971Y-61119791D01*
X73726438Y-61189529D01*
X73281015Y-61201228D01*
X72887393Y-61150515D01*
X72761652Y-61112708D01*
X72222436Y-60834626D01*
X71782005Y-60449179D01*
X71455383Y-59977102D01*
X71257593Y-59439127D01*
X71202051Y-58960312D01*
X71239783Y-58469530D01*
X71374933Y-58030029D01*
X71597854Y-57619219D01*
X71737716Y-57406070D01*
X71827885Y-57307742D01*
X71901904Y-57303878D01*
X71993314Y-57374117D01*
G36*
X73936196Y-57174013D02*
G01*
X74160220Y-57403331D01*
X74291224Y-57570323D01*
X74353769Y-57719324D01*
X74372417Y-57894669D01*
X74373125Y-57962702D01*
X74373125Y-58319889D01*
X73937360Y-57889538D01*
X73501596Y-57459186D01*
X73221989Y-57730191D01*
X72942383Y-58001196D01*
X73822975Y-58891074D01*
X73800394Y-59784464D01*
X73777812Y-60677854D01*
X73559531Y-60449740D01*
X73442035Y-60309741D01*
X73376152Y-60164760D01*
X73347390Y-59962900D01*
X73341250Y-59668051D01*
X73341250Y-59114476D01*
X72825312Y-58603125D01*
X72597954Y-58369174D01*
X72421741Y-58171455D01*
X72322306Y-58039529D01*
X72309375Y-58008118D01*
X72362618Y-57920739D01*
X72506516Y-57750222D01*
X72717326Y-57523493D01*
X72904321Y-57333488D01*
X73499268Y-56742513D01*
X73936196Y-57174013D01*
G37*
X73936196Y-57174013D02*
X74160220Y-57403331D01*
X74291224Y-57570323D01*
X74353769Y-57719324D01*
X74372417Y-57894669D01*
X74373125Y-57962702D01*
X74373125Y-58319889D01*
X73937360Y-57889538D01*
X73501596Y-57459186D01*
X73221989Y-57730191D01*
X72942383Y-58001196D01*
X73822975Y-58891074D01*
X73800394Y-59784464D01*
X73777812Y-60677854D01*
X73559531Y-60449740D01*
X73442035Y-60309741D01*
X73376152Y-60164760D01*
X73347390Y-59962900D01*
X73341250Y-59668051D01*
X73341250Y-59114476D01*
X72825312Y-58603125D01*
X72597954Y-58369174D01*
X72421741Y-58171455D01*
X72322306Y-58039529D01*
X72309375Y-58008118D01*
X72362618Y-57920739D01*
X72506516Y-57750222D01*
X72717326Y-57523493D01*
X72904321Y-57333488D01*
X73499268Y-56742513D01*
X73936196Y-57174013D01*
D10*
%TO.C,R1*%
X104272936Y-47265000D02*
X104727064Y-47265000D01*
X104272936Y-48735000D02*
X104727064Y-48735000D01*
%TO.C,U2*%
X84500000Y-61120000D02*
X84500000Y-61730000D01*
X84500000Y-61120000D02*
X76880000Y-61120000D01*
X101120000Y-61120000D02*
X100500000Y-61120000D01*
X101120000Y-59000000D02*
X101120000Y-61120000D01*
X101120000Y-44880000D02*
X101120000Y-47000000D01*
X100500000Y-44880000D02*
X101120000Y-44880000D01*
X76880000Y-44880000D02*
X84500000Y-44880000D01*
X76880000Y-61120000D02*
X76880000Y-44880000D01*
%TO.C,U1*%
X68760000Y-47580000D02*
X67300000Y-47580000D01*
X68760000Y-44420000D02*
X66600000Y-44420000D01*
X68760000Y-44420000D02*
X68760000Y-45350000D01*
X68760000Y-47580000D02*
X68760000Y-46650000D01*
D11*
%TO.C,G1*%
G36*
X31936196Y-57174013D02*
G01*
X32160220Y-57403331D01*
X32291224Y-57570323D01*
X32353769Y-57719324D01*
X32372417Y-57894669D01*
X32373125Y-57962702D01*
X32373125Y-58319889D01*
X31937360Y-57889538D01*
X31501596Y-57459186D01*
X31221989Y-57730191D01*
X30942383Y-58001196D01*
X31822975Y-58891074D01*
X31800394Y-59784464D01*
X31777812Y-60677854D01*
X31559531Y-60449740D01*
X31442035Y-60309741D01*
X31376152Y-60164760D01*
X31347390Y-59962900D01*
X31341250Y-59668051D01*
X31341250Y-59114476D01*
X30825312Y-58603125D01*
X30597954Y-58369174D01*
X30421741Y-58171455D01*
X30322306Y-58039529D01*
X30309375Y-58008118D01*
X30362618Y-57920739D01*
X30506516Y-57750222D01*
X30717326Y-57523493D01*
X30904321Y-57333488D01*
X31499268Y-56742513D01*
X31936196Y-57174013D01*
G37*
X31936196Y-57174013D02*
X32160220Y-57403331D01*
X32291224Y-57570323D01*
X32353769Y-57719324D01*
X32372417Y-57894669D01*
X32373125Y-57962702D01*
X32373125Y-58319889D01*
X31937360Y-57889538D01*
X31501596Y-57459186D01*
X31221989Y-57730191D01*
X30942383Y-58001196D01*
X31822975Y-58891074D01*
X31800394Y-59784464D01*
X31777812Y-60677854D01*
X31559531Y-60449740D01*
X31442035Y-60309741D01*
X31376152Y-60164760D01*
X31347390Y-59962900D01*
X31341250Y-59668051D01*
X31341250Y-59114476D01*
X30825312Y-58603125D01*
X30597954Y-58369174D01*
X30421741Y-58171455D01*
X30322306Y-58039529D01*
X30309375Y-58008118D01*
X30362618Y-57920739D01*
X30506516Y-57750222D01*
X30717326Y-57523493D01*
X30904321Y-57333488D01*
X31499268Y-56742513D01*
X31936196Y-57174013D01*
G36*
X29993314Y-57374117D02*
G01*
X29996666Y-57377148D01*
X30101276Y-57494777D01*
X30087044Y-57599718D01*
X30030272Y-57683626D01*
X29746130Y-58184288D01*
X29613038Y-58699670D01*
X29629888Y-59211618D01*
X29795571Y-59701978D01*
X30108979Y-60152595D01*
X30185918Y-60233002D01*
X30635502Y-60586300D01*
X31110838Y-60785985D01*
X31597619Y-60832058D01*
X32081538Y-60724518D01*
X32548286Y-60463366D01*
X32814081Y-60233002D01*
X33155709Y-59792086D01*
X33349824Y-59307945D01*
X33395319Y-58798732D01*
X33291085Y-58282601D01*
X33036013Y-57777707D01*
X32969727Y-57683626D01*
X32892661Y-57550060D01*
X32929417Y-57449592D01*
X33003333Y-57377148D01*
X33095643Y-57305108D01*
X33169653Y-57306372D01*
X33258787Y-57401304D01*
X33396469Y-57610272D01*
X33403109Y-57620739D01*
X33654504Y-58105894D01*
X33775576Y-58587027D01*
X33781585Y-59121397D01*
X33659228Y-59698000D01*
X33396881Y-60216996D01*
X33009151Y-60656847D01*
X32510647Y-60996013D01*
X32509923Y-60996385D01*
X32157971Y-61119791D01*
X31726438Y-61189529D01*
X31281015Y-61201228D01*
X30887393Y-61150515D01*
X30761652Y-61112708D01*
X30222436Y-60834626D01*
X29782005Y-60449179D01*
X29455383Y-59977102D01*
X29257593Y-59439127D01*
X29202051Y-58960312D01*
X29239783Y-58469530D01*
X29374933Y-58030029D01*
X29597854Y-57619219D01*
X29737716Y-57406070D01*
X29827885Y-57307742D01*
X29901904Y-57303878D01*
X29993314Y-57374117D01*
G37*
X29993314Y-57374117D02*
X29996666Y-57377148D01*
X30101276Y-57494777D01*
X30087044Y-57599718D01*
X30030272Y-57683626D01*
X29746130Y-58184288D01*
X29613038Y-58699670D01*
X29629888Y-59211618D01*
X29795571Y-59701978D01*
X30108979Y-60152595D01*
X30185918Y-60233002D01*
X30635502Y-60586300D01*
X31110838Y-60785985D01*
X31597619Y-60832058D01*
X32081538Y-60724518D01*
X32548286Y-60463366D01*
X32814081Y-60233002D01*
X33155709Y-59792086D01*
X33349824Y-59307945D01*
X33395319Y-58798732D01*
X33291085Y-58282601D01*
X33036013Y-57777707D01*
X32969727Y-57683626D01*
X32892661Y-57550060D01*
X32929417Y-57449592D01*
X33003333Y-57377148D01*
X33095643Y-57305108D01*
X33169653Y-57306372D01*
X33258787Y-57401304D01*
X33396469Y-57610272D01*
X33403109Y-57620739D01*
X33654504Y-58105894D01*
X33775576Y-58587027D01*
X33781585Y-59121397D01*
X33659228Y-59698000D01*
X33396881Y-60216996D01*
X33009151Y-60656847D01*
X32510647Y-60996013D01*
X32509923Y-60996385D01*
X32157971Y-61119791D01*
X31726438Y-61189529D01*
X31281015Y-61201228D01*
X30887393Y-61150515D01*
X30761652Y-61112708D01*
X30222436Y-60834626D01*
X29782005Y-60449179D01*
X29455383Y-59977102D01*
X29257593Y-59439127D01*
X29202051Y-58960312D01*
X29239783Y-58469530D01*
X29374933Y-58030029D01*
X29597854Y-57619219D01*
X29737716Y-57406070D01*
X29827885Y-57307742D01*
X29901904Y-57303878D01*
X29993314Y-57374117D01*
D10*
%TO.C,U2*%
X34880000Y-61120000D02*
X34880000Y-44880000D01*
X34880000Y-44880000D02*
X42500000Y-44880000D01*
X58500000Y-44880000D02*
X59120000Y-44880000D01*
X59120000Y-44880000D02*
X59120000Y-47000000D01*
X59120000Y-59000000D02*
X59120000Y-61120000D01*
X59120000Y-61120000D02*
X58500000Y-61120000D01*
X42500000Y-61120000D02*
X34880000Y-61120000D01*
X42500000Y-61120000D02*
X42500000Y-61730000D01*
%TO.C,SW1*%
X61940000Y-58150000D02*
X68060000Y-58150000D01*
X68060000Y-58150000D02*
X68060000Y-61850000D01*
X68060000Y-61850000D02*
X61940000Y-61850000D01*
X61940000Y-61850000D02*
X61940000Y-58150000D01*
%TO.C,R5*%
X62727064Y-57235000D02*
X62272936Y-57235000D01*
X62727064Y-55765000D02*
X62272936Y-55765000D01*
%TO.C,R1*%
X62272936Y-48735000D02*
X62727064Y-48735000D01*
X62272936Y-47265000D02*
X62727064Y-47265000D01*
%TO.C,C2*%
X63711252Y-46410000D02*
X62288748Y-46410000D01*
X63711252Y-44590000D02*
X62288748Y-44590000D01*
%TO.C,J5*%
X65590000Y-54760000D02*
X65980000Y-54760000D01*
X65590000Y-54760000D02*
X65590000Y-54310000D01*
X64900000Y-49225000D02*
X64900000Y-49875000D01*
X66630000Y-49190000D02*
X64900000Y-49190000D01*
X70590000Y-56810000D02*
X70380000Y-56810000D01*
X70590000Y-49190000D02*
X70380000Y-49190000D01*
X66630000Y-56810000D02*
X64900000Y-56810000D01*
X64900000Y-56700000D02*
X64900000Y-56040000D01*
%TO.C,J7*%
X28670000Y-46670000D02*
X30000000Y-46670000D01*
X28670000Y-48000000D02*
X28670000Y-46670000D01*
X31270000Y-46670000D02*
X33870000Y-46670000D01*
X31270000Y-49270000D02*
X31270000Y-46670000D01*
X28670000Y-49270000D02*
X31270000Y-49270000D01*
X33870000Y-46670000D02*
X33870000Y-54410000D01*
X28670000Y-49270000D02*
X28670000Y-54410000D01*
X28670000Y-54410000D02*
X33870000Y-54410000D01*
%TO.C,U1*%
X110760000Y-28580000D02*
X109300000Y-28580000D01*
X110760000Y-25420000D02*
X108600000Y-25420000D01*
X110760000Y-25420000D02*
X110760000Y-26350000D01*
X110760000Y-28580000D02*
X110760000Y-27650000D01*
D11*
%TO.C,G1*%
G36*
X73936196Y-38174013D02*
G01*
X74160220Y-38403331D01*
X74291224Y-38570323D01*
X74353769Y-38719324D01*
X74372417Y-38894669D01*
X74373125Y-38962702D01*
X74373125Y-39319889D01*
X73937360Y-38889538D01*
X73501596Y-38459186D01*
X73221989Y-38730191D01*
X72942383Y-39001196D01*
X73822975Y-39891074D01*
X73800394Y-40784464D01*
X73777812Y-41677854D01*
X73559531Y-41449740D01*
X73442035Y-41309741D01*
X73376152Y-41164760D01*
X73347390Y-40962900D01*
X73341250Y-40668051D01*
X73341250Y-40114476D01*
X72825312Y-39603125D01*
X72597954Y-39369174D01*
X72421741Y-39171455D01*
X72322306Y-39039529D01*
X72309375Y-39008118D01*
X72362618Y-38920739D01*
X72506516Y-38750222D01*
X72717326Y-38523493D01*
X72904321Y-38333488D01*
X73499268Y-37742513D01*
X73936196Y-38174013D01*
G37*
X73936196Y-38174013D02*
X74160220Y-38403331D01*
X74291224Y-38570323D01*
X74353769Y-38719324D01*
X74372417Y-38894669D01*
X74373125Y-38962702D01*
X74373125Y-39319889D01*
X73937360Y-38889538D01*
X73501596Y-38459186D01*
X73221989Y-38730191D01*
X72942383Y-39001196D01*
X73822975Y-39891074D01*
X73800394Y-40784464D01*
X73777812Y-41677854D01*
X73559531Y-41449740D01*
X73442035Y-41309741D01*
X73376152Y-41164760D01*
X73347390Y-40962900D01*
X73341250Y-40668051D01*
X73341250Y-40114476D01*
X72825312Y-39603125D01*
X72597954Y-39369174D01*
X72421741Y-39171455D01*
X72322306Y-39039529D01*
X72309375Y-39008118D01*
X72362618Y-38920739D01*
X72506516Y-38750222D01*
X72717326Y-38523493D01*
X72904321Y-38333488D01*
X73499268Y-37742513D01*
X73936196Y-38174013D01*
G36*
X71993314Y-38374117D02*
G01*
X71996666Y-38377148D01*
X72101276Y-38494777D01*
X72087044Y-38599718D01*
X72030272Y-38683626D01*
X71746130Y-39184288D01*
X71613038Y-39699670D01*
X71629888Y-40211618D01*
X71795571Y-40701978D01*
X72108979Y-41152595D01*
X72185918Y-41233002D01*
X72635502Y-41586300D01*
X73110838Y-41785985D01*
X73597619Y-41832058D01*
X74081538Y-41724518D01*
X74548286Y-41463366D01*
X74814081Y-41233002D01*
X75155709Y-40792086D01*
X75349824Y-40307945D01*
X75395319Y-39798732D01*
X75291085Y-39282601D01*
X75036013Y-38777707D01*
X74969727Y-38683626D01*
X74892661Y-38550060D01*
X74929417Y-38449592D01*
X75003333Y-38377148D01*
X75095643Y-38305108D01*
X75169653Y-38306372D01*
X75258787Y-38401304D01*
X75396469Y-38610272D01*
X75403109Y-38620739D01*
X75654504Y-39105894D01*
X75775576Y-39587027D01*
X75781585Y-40121397D01*
X75659228Y-40698000D01*
X75396881Y-41216996D01*
X75009151Y-41656847D01*
X74510647Y-41996013D01*
X74509923Y-41996385D01*
X74157971Y-42119791D01*
X73726438Y-42189529D01*
X73281015Y-42201228D01*
X72887393Y-42150515D01*
X72761652Y-42112708D01*
X72222436Y-41834626D01*
X71782005Y-41449179D01*
X71455383Y-40977102D01*
X71257593Y-40439127D01*
X71202051Y-39960312D01*
X71239783Y-39469530D01*
X71374933Y-39030029D01*
X71597854Y-38619219D01*
X71737716Y-38406070D01*
X71827885Y-38307742D01*
X71901904Y-38303878D01*
X71993314Y-38374117D01*
G37*
X71993314Y-38374117D02*
X71996666Y-38377148D01*
X72101276Y-38494777D01*
X72087044Y-38599718D01*
X72030272Y-38683626D01*
X71746130Y-39184288D01*
X71613038Y-39699670D01*
X71629888Y-40211618D01*
X71795571Y-40701978D01*
X72108979Y-41152595D01*
X72185918Y-41233002D01*
X72635502Y-41586300D01*
X73110838Y-41785985D01*
X73597619Y-41832058D01*
X74081538Y-41724518D01*
X74548286Y-41463366D01*
X74814081Y-41233002D01*
X75155709Y-40792086D01*
X75349824Y-40307945D01*
X75395319Y-39798732D01*
X75291085Y-39282601D01*
X75036013Y-38777707D01*
X74969727Y-38683626D01*
X74892661Y-38550060D01*
X74929417Y-38449592D01*
X75003333Y-38377148D01*
X75095643Y-38305108D01*
X75169653Y-38306372D01*
X75258787Y-38401304D01*
X75396469Y-38610272D01*
X75403109Y-38620739D01*
X75654504Y-39105894D01*
X75775576Y-39587027D01*
X75781585Y-40121397D01*
X75659228Y-40698000D01*
X75396881Y-41216996D01*
X75009151Y-41656847D01*
X74510647Y-41996013D01*
X74509923Y-41996385D01*
X74157971Y-42119791D01*
X73726438Y-42189529D01*
X73281015Y-42201228D01*
X72887393Y-42150515D01*
X72761652Y-42112708D01*
X72222436Y-41834626D01*
X71782005Y-41449179D01*
X71455383Y-40977102D01*
X71257593Y-40439127D01*
X71202051Y-39960312D01*
X71239783Y-39469530D01*
X71374933Y-39030029D01*
X71597854Y-38619219D01*
X71737716Y-38406070D01*
X71827885Y-38307742D01*
X71901904Y-38303878D01*
X71993314Y-38374117D01*
D10*
%TO.C,U2*%
X76880000Y-42120000D02*
X76880000Y-25880000D01*
X76880000Y-25880000D02*
X84500000Y-25880000D01*
X100500000Y-25880000D02*
X101120000Y-25880000D01*
X101120000Y-25880000D02*
X101120000Y-28000000D01*
X101120000Y-40000000D02*
X101120000Y-42120000D01*
X101120000Y-42120000D02*
X100500000Y-42120000D01*
X84500000Y-42120000D02*
X76880000Y-42120000D01*
X84500000Y-42120000D02*
X84500000Y-42730000D01*
%TO.C,SW1*%
X103940000Y-39150000D02*
X110060000Y-39150000D01*
X110060000Y-39150000D02*
X110060000Y-42850000D01*
X110060000Y-42850000D02*
X103940000Y-42850000D01*
X103940000Y-42850000D02*
X103940000Y-39150000D01*
%TO.C,R5*%
X104727064Y-38235000D02*
X104272936Y-38235000D01*
X104727064Y-36765000D02*
X104272936Y-36765000D01*
%TO.C,R1*%
X104272936Y-29735000D02*
X104727064Y-29735000D01*
X104272936Y-28265000D02*
X104727064Y-28265000D01*
%TO.C,C2*%
X105711252Y-27410000D02*
X104288748Y-27410000D01*
X105711252Y-25590000D02*
X104288748Y-25590000D01*
%TO.C,J5*%
X107590000Y-35760000D02*
X107980000Y-35760000D01*
X107590000Y-35760000D02*
X107590000Y-35310000D01*
X106900000Y-30225000D02*
X106900000Y-30875000D01*
X108630000Y-30190000D02*
X106900000Y-30190000D01*
X112590000Y-37810000D02*
X112380000Y-37810000D01*
X112590000Y-30190000D02*
X112380000Y-30190000D01*
X108630000Y-37810000D02*
X106900000Y-37810000D01*
X106900000Y-37700000D02*
X106900000Y-37040000D01*
%TO.C,J7*%
X70670000Y-27670000D02*
X72000000Y-27670000D01*
X70670000Y-29000000D02*
X70670000Y-27670000D01*
X73270000Y-27670000D02*
X75870000Y-27670000D01*
X73270000Y-30270000D02*
X73270000Y-27670000D01*
X70670000Y-30270000D02*
X73270000Y-30270000D01*
X75870000Y-27670000D02*
X75870000Y-35410000D01*
X70670000Y-30270000D02*
X70670000Y-35410000D01*
X70670000Y-35410000D02*
X75870000Y-35410000D01*
D11*
%TO.C,G1*%
G36*
X29993314Y-38374117D02*
G01*
X29996666Y-38377148D01*
X30101276Y-38494777D01*
X30087044Y-38599718D01*
X30030272Y-38683626D01*
X29746130Y-39184288D01*
X29613038Y-39699670D01*
X29629888Y-40211618D01*
X29795571Y-40701978D01*
X30108979Y-41152595D01*
X30185918Y-41233002D01*
X30635502Y-41586300D01*
X31110838Y-41785985D01*
X31597619Y-41832058D01*
X32081538Y-41724518D01*
X32548286Y-41463366D01*
X32814081Y-41233002D01*
X33155709Y-40792086D01*
X33349824Y-40307945D01*
X33395319Y-39798732D01*
X33291085Y-39282601D01*
X33036013Y-38777707D01*
X32969727Y-38683626D01*
X32892661Y-38550060D01*
X32929417Y-38449592D01*
X33003333Y-38377148D01*
X33095643Y-38305108D01*
X33169653Y-38306372D01*
X33258787Y-38401304D01*
X33396469Y-38610272D01*
X33403109Y-38620739D01*
X33654504Y-39105894D01*
X33775576Y-39587027D01*
X33781585Y-40121397D01*
X33659228Y-40698000D01*
X33396881Y-41216996D01*
X33009151Y-41656847D01*
X32510647Y-41996013D01*
X32509923Y-41996385D01*
X32157971Y-42119791D01*
X31726438Y-42189529D01*
X31281015Y-42201228D01*
X30887393Y-42150515D01*
X30761652Y-42112708D01*
X30222436Y-41834626D01*
X29782005Y-41449179D01*
X29455383Y-40977102D01*
X29257593Y-40439127D01*
X29202051Y-39960312D01*
X29239783Y-39469530D01*
X29374933Y-39030029D01*
X29597854Y-38619219D01*
X29737716Y-38406070D01*
X29827885Y-38307742D01*
X29901904Y-38303878D01*
X29993314Y-38374117D01*
G37*
X29993314Y-38374117D02*
X29996666Y-38377148D01*
X30101276Y-38494777D01*
X30087044Y-38599718D01*
X30030272Y-38683626D01*
X29746130Y-39184288D01*
X29613038Y-39699670D01*
X29629888Y-40211618D01*
X29795571Y-40701978D01*
X30108979Y-41152595D01*
X30185918Y-41233002D01*
X30635502Y-41586300D01*
X31110838Y-41785985D01*
X31597619Y-41832058D01*
X32081538Y-41724518D01*
X32548286Y-41463366D01*
X32814081Y-41233002D01*
X33155709Y-40792086D01*
X33349824Y-40307945D01*
X33395319Y-39798732D01*
X33291085Y-39282601D01*
X33036013Y-38777707D01*
X32969727Y-38683626D01*
X32892661Y-38550060D01*
X32929417Y-38449592D01*
X33003333Y-38377148D01*
X33095643Y-38305108D01*
X33169653Y-38306372D01*
X33258787Y-38401304D01*
X33396469Y-38610272D01*
X33403109Y-38620739D01*
X33654504Y-39105894D01*
X33775576Y-39587027D01*
X33781585Y-40121397D01*
X33659228Y-40698000D01*
X33396881Y-41216996D01*
X33009151Y-41656847D01*
X32510647Y-41996013D01*
X32509923Y-41996385D01*
X32157971Y-42119791D01*
X31726438Y-42189529D01*
X31281015Y-42201228D01*
X30887393Y-42150515D01*
X30761652Y-42112708D01*
X30222436Y-41834626D01*
X29782005Y-41449179D01*
X29455383Y-40977102D01*
X29257593Y-40439127D01*
X29202051Y-39960312D01*
X29239783Y-39469530D01*
X29374933Y-39030029D01*
X29597854Y-38619219D01*
X29737716Y-38406070D01*
X29827885Y-38307742D01*
X29901904Y-38303878D01*
X29993314Y-38374117D01*
G36*
X31936196Y-38174013D02*
G01*
X32160220Y-38403331D01*
X32291224Y-38570323D01*
X32353769Y-38719324D01*
X32372417Y-38894669D01*
X32373125Y-38962702D01*
X32373125Y-39319889D01*
X31937360Y-38889538D01*
X31501596Y-38459186D01*
X31221989Y-38730191D01*
X30942383Y-39001196D01*
X31822975Y-39891074D01*
X31800394Y-40784464D01*
X31777812Y-41677854D01*
X31559531Y-41449740D01*
X31442035Y-41309741D01*
X31376152Y-41164760D01*
X31347390Y-40962900D01*
X31341250Y-40668051D01*
X31341250Y-40114476D01*
X30825312Y-39603125D01*
X30597954Y-39369174D01*
X30421741Y-39171455D01*
X30322306Y-39039529D01*
X30309375Y-39008118D01*
X30362618Y-38920739D01*
X30506516Y-38750222D01*
X30717326Y-38523493D01*
X30904321Y-38333488D01*
X31499268Y-37742513D01*
X31936196Y-38174013D01*
G37*
X31936196Y-38174013D02*
X32160220Y-38403331D01*
X32291224Y-38570323D01*
X32353769Y-38719324D01*
X32372417Y-38894669D01*
X32373125Y-38962702D01*
X32373125Y-39319889D01*
X31937360Y-38889538D01*
X31501596Y-38459186D01*
X31221989Y-38730191D01*
X30942383Y-39001196D01*
X31822975Y-39891074D01*
X31800394Y-40784464D01*
X31777812Y-41677854D01*
X31559531Y-41449740D01*
X31442035Y-41309741D01*
X31376152Y-41164760D01*
X31347390Y-40962900D01*
X31341250Y-40668051D01*
X31341250Y-40114476D01*
X30825312Y-39603125D01*
X30597954Y-39369174D01*
X30421741Y-39171455D01*
X30322306Y-39039529D01*
X30309375Y-39008118D01*
X30362618Y-38920739D01*
X30506516Y-38750222D01*
X30717326Y-38523493D01*
X30904321Y-38333488D01*
X31499268Y-37742513D01*
X31936196Y-38174013D01*
D10*
%TO.C,J7*%
X28670000Y-35410000D02*
X33870000Y-35410000D01*
X28670000Y-30270000D02*
X28670000Y-35410000D01*
X33870000Y-27670000D02*
X33870000Y-35410000D01*
X28670000Y-30270000D02*
X31270000Y-30270000D01*
X31270000Y-30270000D02*
X31270000Y-27670000D01*
X31270000Y-27670000D02*
X33870000Y-27670000D01*
X28670000Y-29000000D02*
X28670000Y-27670000D01*
X28670000Y-27670000D02*
X30000000Y-27670000D01*
%TO.C,C2*%
X63711252Y-25590000D02*
X62288748Y-25590000D01*
X63711252Y-27410000D02*
X62288748Y-27410000D01*
%TO.C,J5*%
X64900000Y-37700000D02*
X64900000Y-37040000D01*
X66630000Y-37810000D02*
X64900000Y-37810000D01*
X70590000Y-30190000D02*
X70380000Y-30190000D01*
X70590000Y-37810000D02*
X70380000Y-37810000D01*
X66630000Y-30190000D02*
X64900000Y-30190000D01*
X64900000Y-30225000D02*
X64900000Y-30875000D01*
X65590000Y-35760000D02*
X65590000Y-35310000D01*
X65590000Y-35760000D02*
X65980000Y-35760000D01*
%TO.C,R1*%
X62272936Y-28265000D02*
X62727064Y-28265000D01*
X62272936Y-29735000D02*
X62727064Y-29735000D01*
%TO.C,R5*%
X62727064Y-36765000D02*
X62272936Y-36765000D01*
X62727064Y-38235000D02*
X62272936Y-38235000D01*
%TO.C,SW1*%
X61940000Y-42850000D02*
X61940000Y-39150000D01*
X68060000Y-42850000D02*
X61940000Y-42850000D01*
X68060000Y-39150000D02*
X68060000Y-42850000D01*
X61940000Y-39150000D02*
X68060000Y-39150000D01*
%TO.C,U1*%
X68760000Y-28580000D02*
X68760000Y-27650000D01*
X68760000Y-25420000D02*
X68760000Y-26350000D01*
X68760000Y-25420000D02*
X66600000Y-25420000D01*
X68760000Y-28580000D02*
X67300000Y-28580000D01*
%TO.C,U2*%
X42500000Y-42120000D02*
X42500000Y-42730000D01*
X42500000Y-42120000D02*
X34880000Y-42120000D01*
X59120000Y-42120000D02*
X58500000Y-42120000D01*
X59120000Y-40000000D02*
X59120000Y-42120000D01*
X59120000Y-25880000D02*
X59120000Y-28000000D01*
X58500000Y-25880000D02*
X59120000Y-25880000D01*
X34880000Y-25880000D02*
X42500000Y-25880000D01*
X34880000Y-42120000D02*
X34880000Y-25880000D01*
%TD*%
M02*
