%TF.GenerationSoftware,KiCad,Pcbnew,(5.1.9)-1*%
%TF.CreationDate,2021-05-04T17:37:26+02:00*%
%TF.ProjectId,IM350_AM550_5V_V2.0_Multi,494d3335-305f-4414-9d35-35305f35565f,rev?*%
%TF.SameCoordinates,Original*%
%TF.FileFunction,Copper,L2,Bot*%
%TF.FilePolarity,Positive*%
%FSLAX46Y46*%
G04 Gerber Fmt 4.6, Leading zero omitted, Abs format (unit mm)*
G04 Created by KiCad (PCBNEW (5.1.9)-1) date 2021-05-04 17:37:26*
%MOMM*%
%LPD*%
G01*
G04 APERTURE LIST*
%TA.AperFunction,ComponentPad*%
%ADD10O,1.900000X1.050000*%
%TD*%
%TA.AperFunction,ComponentPad*%
%ADD11O,1.700000X1.700000*%
%TD*%
%TA.AperFunction,ComponentPad*%
%ADD12R,1.700000X1.700000*%
%TD*%
%TA.AperFunction,ViaPad*%
%ADD13C,0.800000*%
%TD*%
%TA.AperFunction,Conductor*%
%ADD14C,0.250000*%
%TD*%
G04 APERTURE END LIST*
D10*
%TO.P,J5,*%
%TO.N,*%
X69200000Y-106425000D03*
X69200000Y-113575000D03*
%TD*%
D11*
%TO.P,J7,6*%
%TO.N,Net-(C2-Pad2)*%
X32540000Y-110080000D03*
%TO.P,J7,5*%
%TO.N,Net-(J7-Pad5)*%
X30000000Y-110080000D03*
%TO.P,J7,4*%
%TO.N,Net-(J7-Pad4)*%
X32540000Y-107540000D03*
%TO.P,J7,3*%
%TO.N,Net-(C2-Pad2)*%
X30000000Y-107540000D03*
%TO.P,J7,2*%
%TO.N,Net-(J7-Pad2)*%
X32540000Y-105000000D03*
D12*
%TO.P,J7,1*%
%TO.N,Net-(J7-Pad1)*%
X30000000Y-105000000D03*
%TD*%
D10*
%TO.P,J5,*%
%TO.N,*%
X111200000Y-113575000D03*
X111200000Y-106425000D03*
%TD*%
D12*
%TO.P,J7,1*%
%TO.N,Net-(J7-Pad1)*%
X72000000Y-105000000D03*
D11*
%TO.P,J7,2*%
%TO.N,Net-(J7-Pad2)*%
X74540000Y-105000000D03*
%TO.P,J7,3*%
%TO.N,Net-(C2-Pad2)*%
X72000000Y-107540000D03*
%TO.P,J7,4*%
%TO.N,Net-(J7-Pad4)*%
X74540000Y-107540000D03*
%TO.P,J7,5*%
%TO.N,Net-(J7-Pad5)*%
X72000000Y-110080000D03*
%TO.P,J7,6*%
%TO.N,Net-(C2-Pad2)*%
X74540000Y-110080000D03*
%TD*%
D10*
%TO.P,J5,*%
%TO.N,*%
X111200000Y-87425000D03*
X111200000Y-94575000D03*
%TD*%
D11*
%TO.P,J7,6*%
%TO.N,Net-(C2-Pad2)*%
X74540000Y-91080000D03*
%TO.P,J7,5*%
%TO.N,Net-(J7-Pad5)*%
X72000000Y-91080000D03*
%TO.P,J7,4*%
%TO.N,Net-(J7-Pad4)*%
X74540000Y-88540000D03*
%TO.P,J7,3*%
%TO.N,Net-(C2-Pad2)*%
X72000000Y-88540000D03*
%TO.P,J7,2*%
%TO.N,Net-(J7-Pad2)*%
X74540000Y-86000000D03*
D12*
%TO.P,J7,1*%
%TO.N,Net-(J7-Pad1)*%
X72000000Y-86000000D03*
%TD*%
%TO.P,J7,1*%
%TO.N,Net-(J7-Pad1)*%
X30000000Y-86000000D03*
D11*
%TO.P,J7,2*%
%TO.N,Net-(J7-Pad2)*%
X32540000Y-86000000D03*
%TO.P,J7,3*%
%TO.N,Net-(C2-Pad2)*%
X30000000Y-88540000D03*
%TO.P,J7,4*%
%TO.N,Net-(J7-Pad4)*%
X32540000Y-88540000D03*
%TO.P,J7,5*%
%TO.N,Net-(J7-Pad5)*%
X30000000Y-91080000D03*
%TO.P,J7,6*%
%TO.N,Net-(C2-Pad2)*%
X32540000Y-91080000D03*
%TD*%
D10*
%TO.P,J5,*%
%TO.N,*%
X69200000Y-94575000D03*
X69200000Y-87425000D03*
%TD*%
%TO.P,J5,*%
%TO.N,*%
X69200000Y-68425000D03*
X69200000Y-75575000D03*
%TD*%
D11*
%TO.P,J7,6*%
%TO.N,Net-(C2-Pad2)*%
X32540000Y-72080000D03*
%TO.P,J7,5*%
%TO.N,Net-(J7-Pad5)*%
X30000000Y-72080000D03*
%TO.P,J7,4*%
%TO.N,Net-(J7-Pad4)*%
X32540000Y-69540000D03*
%TO.P,J7,3*%
%TO.N,Net-(C2-Pad2)*%
X30000000Y-69540000D03*
%TO.P,J7,2*%
%TO.N,Net-(J7-Pad2)*%
X32540000Y-67000000D03*
D12*
%TO.P,J7,1*%
%TO.N,Net-(J7-Pad1)*%
X30000000Y-67000000D03*
%TD*%
D10*
%TO.P,J5,*%
%TO.N,*%
X111200000Y-75575000D03*
X111200000Y-68425000D03*
%TD*%
D12*
%TO.P,J7,1*%
%TO.N,Net-(J7-Pad1)*%
X72000000Y-67000000D03*
D11*
%TO.P,J7,2*%
%TO.N,Net-(J7-Pad2)*%
X74540000Y-67000000D03*
%TO.P,J7,3*%
%TO.N,Net-(C2-Pad2)*%
X72000000Y-69540000D03*
%TO.P,J7,4*%
%TO.N,Net-(J7-Pad4)*%
X74540000Y-69540000D03*
%TO.P,J7,5*%
%TO.N,Net-(J7-Pad5)*%
X72000000Y-72080000D03*
%TO.P,J7,6*%
%TO.N,Net-(C2-Pad2)*%
X74540000Y-72080000D03*
%TD*%
%TO.P,J7,6*%
%TO.N,Net-(C2-Pad2)*%
X74540000Y-53080000D03*
%TO.P,J7,5*%
%TO.N,Net-(J7-Pad5)*%
X72000000Y-53080000D03*
%TO.P,J7,4*%
%TO.N,Net-(J7-Pad4)*%
X74540000Y-50540000D03*
%TO.P,J7,3*%
%TO.N,Net-(C2-Pad2)*%
X72000000Y-50540000D03*
%TO.P,J7,2*%
%TO.N,Net-(J7-Pad2)*%
X74540000Y-48000000D03*
D12*
%TO.P,J7,1*%
%TO.N,Net-(J7-Pad1)*%
X72000000Y-48000000D03*
%TD*%
D10*
%TO.P,J5,*%
%TO.N,*%
X111200000Y-49425000D03*
X111200000Y-56575000D03*
%TD*%
%TO.P,J5,*%
%TO.N,*%
X69200000Y-56575000D03*
X69200000Y-49425000D03*
%TD*%
D12*
%TO.P,J7,1*%
%TO.N,Net-(J7-Pad1)*%
X30000000Y-48000000D03*
D11*
%TO.P,J7,2*%
%TO.N,Net-(J7-Pad2)*%
X32540000Y-48000000D03*
%TO.P,J7,3*%
%TO.N,Net-(C2-Pad2)*%
X30000000Y-50540000D03*
%TO.P,J7,4*%
%TO.N,Net-(J7-Pad4)*%
X32540000Y-50540000D03*
%TO.P,J7,5*%
%TO.N,Net-(J7-Pad5)*%
X30000000Y-53080000D03*
%TO.P,J7,6*%
%TO.N,Net-(C2-Pad2)*%
X32540000Y-53080000D03*
%TD*%
D10*
%TO.P,J5,*%
%TO.N,*%
X111200000Y-37575000D03*
X111200000Y-30425000D03*
%TD*%
D12*
%TO.P,J7,1*%
%TO.N,Net-(J7-Pad1)*%
X72000000Y-29000000D03*
D11*
%TO.P,J7,2*%
%TO.N,Net-(J7-Pad2)*%
X74540000Y-29000000D03*
%TO.P,J7,3*%
%TO.N,Net-(C2-Pad2)*%
X72000000Y-31540000D03*
%TO.P,J7,4*%
%TO.N,Net-(J7-Pad4)*%
X74540000Y-31540000D03*
%TO.P,J7,5*%
%TO.N,Net-(J7-Pad5)*%
X72000000Y-34080000D03*
%TO.P,J7,6*%
%TO.N,Net-(C2-Pad2)*%
X74540000Y-34080000D03*
%TD*%
%TO.P,J7,6*%
%TO.N,Net-(C2-Pad2)*%
X32540000Y-34080000D03*
%TO.P,J7,5*%
%TO.N,Net-(J7-Pad5)*%
X30000000Y-34080000D03*
%TO.P,J7,4*%
%TO.N,Net-(J7-Pad4)*%
X32540000Y-31540000D03*
%TO.P,J7,3*%
%TO.N,Net-(C2-Pad2)*%
X30000000Y-31540000D03*
%TO.P,J7,2*%
%TO.N,Net-(J7-Pad2)*%
X32540000Y-29000000D03*
D12*
%TO.P,J7,1*%
%TO.N,Net-(J7-Pad1)*%
X30000000Y-29000000D03*
%TD*%
D10*
%TO.P,J5,*%
%TO.N,*%
X69200000Y-30425000D03*
X69200000Y-37575000D03*
%TD*%
D13*
%TO.N,+3V3*%
X65545200Y-27950000D03*
X57289600Y-38993500D03*
X48478500Y-39936000D03*
X107545200Y-27950000D03*
X99289600Y-38993500D03*
X90478500Y-39936000D03*
X65545200Y-46950000D03*
X57289600Y-57993500D03*
X48478500Y-58936000D03*
X107545200Y-46950000D03*
X99289600Y-57993500D03*
X90478500Y-58936000D03*
X57289600Y-76993500D03*
X107545200Y-65950000D03*
X99289600Y-76993500D03*
X90478500Y-77936000D03*
X65545200Y-65950000D03*
X48478500Y-77936000D03*
X57289600Y-95993500D03*
X48478500Y-96936000D03*
X107545200Y-84950000D03*
X99289600Y-95993500D03*
X90478500Y-96936000D03*
X65545200Y-84950000D03*
X90478500Y-115936000D03*
X65545200Y-103950000D03*
X48478500Y-115936000D03*
X107545200Y-103950000D03*
X99289600Y-114993500D03*
X57289600Y-114993500D03*
%TO.N,Net-(C2-Pad2)*%
X59620500Y-42307500D03*
X101620500Y-42307500D03*
X59620500Y-61307500D03*
X101620500Y-61307500D03*
X101620500Y-80307500D03*
X59620500Y-80307500D03*
X59620500Y-99307500D03*
X101620500Y-99307500D03*
X59620500Y-118307500D03*
X101620500Y-118307500D03*
%TO.N,Net-(J7-Pad2)*%
X46835400Y-28261900D03*
X88835400Y-28261900D03*
X46835400Y-47261900D03*
X88835400Y-47261900D03*
X88835400Y-66261900D03*
X46835400Y-66261900D03*
X88835400Y-85261900D03*
X46835400Y-85261900D03*
X46835400Y-104261900D03*
X88835400Y-104261900D03*
%TO.N,Net-(J7-Pad1)*%
X45663800Y-37497900D03*
X87663800Y-37497900D03*
X45663800Y-56497900D03*
X87663800Y-56497900D03*
X45663800Y-75497900D03*
X87663800Y-75497900D03*
X87663800Y-94497900D03*
X45663800Y-94497900D03*
X45663800Y-113497900D03*
X87663800Y-113497900D03*
%TO.N,Net-(SW1-Pad1)*%
X58630500Y-40855200D03*
X56151700Y-39749600D03*
X98151700Y-39749600D03*
X100630500Y-40855200D03*
X56151700Y-58749600D03*
X58630500Y-59855200D03*
X100630500Y-59855200D03*
X98151700Y-58749600D03*
X100630500Y-78855200D03*
X56151700Y-77749600D03*
X58630500Y-78855200D03*
X98151700Y-77749600D03*
X56151700Y-96749600D03*
X58630500Y-97855200D03*
X100630500Y-97855200D03*
X98151700Y-96749600D03*
X98151700Y-115749600D03*
X56151700Y-115749600D03*
X58630500Y-116855200D03*
X100630500Y-116855200D03*
%TD*%
D14*
%TO.N,+3V3*%
X57289600Y-38993500D02*
X65545200Y-30737900D01*
X65545200Y-30737900D02*
X65545200Y-27950000D01*
X48478500Y-39936000D02*
X49421000Y-38993500D01*
X49421000Y-38993500D02*
X57289600Y-38993500D01*
X99289600Y-38993500D02*
X107545200Y-30737900D01*
X107545200Y-30737900D02*
X107545200Y-27950000D01*
X90478500Y-39936000D02*
X91421000Y-38993500D01*
X91421000Y-38993500D02*
X99289600Y-38993500D01*
X57289600Y-57993500D02*
X65545200Y-49737900D01*
X65545200Y-49737900D02*
X65545200Y-46950000D01*
X48478500Y-58936000D02*
X49421000Y-57993500D01*
X49421000Y-57993500D02*
X57289600Y-57993500D01*
X99289600Y-57993500D02*
X107545200Y-49737900D01*
X91421000Y-57993500D02*
X99289600Y-57993500D01*
X107545200Y-49737900D02*
X107545200Y-46950000D01*
X90478500Y-58936000D02*
X91421000Y-57993500D01*
X65545200Y-68737900D02*
X65545200Y-65950000D01*
X49421000Y-76993500D02*
X57289600Y-76993500D01*
X57289600Y-76993500D02*
X65545200Y-68737900D01*
X48478500Y-77936000D02*
X49421000Y-76993500D01*
X91421000Y-76993500D02*
X99289600Y-76993500D01*
X107545200Y-68737900D02*
X107545200Y-65950000D01*
X99289600Y-76993500D02*
X107545200Y-68737900D01*
X90478500Y-77936000D02*
X91421000Y-76993500D01*
X49421000Y-95993500D02*
X57289600Y-95993500D01*
X57289600Y-95993500D02*
X65545200Y-87737900D01*
X65545200Y-87737900D02*
X65545200Y-84950000D01*
X48478500Y-96936000D02*
X49421000Y-95993500D01*
X99289600Y-95993500D02*
X107545200Y-87737900D01*
X91421000Y-95993500D02*
X99289600Y-95993500D01*
X107545200Y-87737900D02*
X107545200Y-84950000D01*
X90478500Y-96936000D02*
X91421000Y-95993500D01*
X107545200Y-106737900D02*
X107545200Y-103950000D01*
X91421000Y-114993500D02*
X99289600Y-114993500D01*
X49421000Y-114993500D02*
X57289600Y-114993500D01*
X57289600Y-114993500D02*
X65545200Y-106737900D01*
X65545200Y-106737900D02*
X65545200Y-103950000D01*
X90478500Y-115936000D02*
X91421000Y-114993500D01*
X99289600Y-114993500D02*
X107545200Y-106737900D01*
X48478500Y-115936000D02*
X49421000Y-114993500D01*
%TO.N,Net-(C2-Pad2)*%
X32540000Y-34080000D02*
X33715300Y-34080000D01*
X59620500Y-42307500D02*
X41942800Y-42307500D01*
X41942800Y-42307500D02*
X33715300Y-34080000D01*
X32540000Y-34080000D02*
X32540000Y-32904700D01*
X30000000Y-31540000D02*
X31175300Y-31540000D01*
X31175300Y-31540000D02*
X31175300Y-31907300D01*
X31175300Y-31907300D02*
X32172700Y-32904700D01*
X32172700Y-32904700D02*
X32540000Y-32904700D01*
X74540000Y-34080000D02*
X75715300Y-34080000D01*
X74540000Y-34080000D02*
X74540000Y-32904700D01*
X101620500Y-42307500D02*
X83942800Y-42307500D01*
X72000000Y-31540000D02*
X73175300Y-31540000D01*
X73175300Y-31540000D02*
X73175300Y-31907300D01*
X73175300Y-31907300D02*
X74172700Y-32904700D01*
X83942800Y-42307500D02*
X75715300Y-34080000D01*
X74172700Y-32904700D02*
X74540000Y-32904700D01*
X32540000Y-53080000D02*
X33715300Y-53080000D01*
X32540000Y-53080000D02*
X32540000Y-51904700D01*
X59620500Y-61307500D02*
X41942800Y-61307500D01*
X30000000Y-50540000D02*
X31175300Y-50540000D01*
X31175300Y-50540000D02*
X31175300Y-50907300D01*
X31175300Y-50907300D02*
X32172700Y-51904700D01*
X41942800Y-61307500D02*
X33715300Y-53080000D01*
X32172700Y-51904700D02*
X32540000Y-51904700D01*
X74540000Y-53080000D02*
X75715300Y-53080000D01*
X101620500Y-61307500D02*
X83942800Y-61307500D01*
X72000000Y-50540000D02*
X73175300Y-50540000D01*
X74540000Y-53080000D02*
X74540000Y-51904700D01*
X73175300Y-50540000D02*
X73175300Y-50907300D01*
X73175300Y-50907300D02*
X74172700Y-51904700D01*
X83942800Y-61307500D02*
X75715300Y-53080000D01*
X74172700Y-51904700D02*
X74540000Y-51904700D01*
X30000000Y-69540000D02*
X31175300Y-69540000D01*
X31175300Y-69907300D02*
X32172700Y-70904700D01*
X41942800Y-80307500D02*
X33715300Y-72080000D01*
X32172700Y-70904700D02*
X32540000Y-70904700D01*
X31175300Y-69540000D02*
X31175300Y-69907300D01*
X32540000Y-72080000D02*
X32540000Y-70904700D01*
X59620500Y-80307500D02*
X41942800Y-80307500D01*
X32540000Y-72080000D02*
X33715300Y-72080000D01*
X74540000Y-72080000D02*
X75715300Y-72080000D01*
X101620500Y-80307500D02*
X83942800Y-80307500D01*
X72000000Y-69540000D02*
X73175300Y-69540000D01*
X74540000Y-72080000D02*
X74540000Y-70904700D01*
X73175300Y-69540000D02*
X73175300Y-69907300D01*
X73175300Y-69907300D02*
X74172700Y-70904700D01*
X74172700Y-70904700D02*
X74540000Y-70904700D01*
X83942800Y-80307500D02*
X75715300Y-72080000D01*
X32540000Y-91080000D02*
X33715300Y-91080000D01*
X30000000Y-88540000D02*
X31175300Y-88540000D01*
X41942800Y-99307500D02*
X33715300Y-91080000D01*
X31175300Y-88907300D02*
X32172700Y-89904700D01*
X32540000Y-91080000D02*
X32540000Y-89904700D01*
X59620500Y-99307500D02*
X41942800Y-99307500D01*
X31175300Y-88540000D02*
X31175300Y-88907300D01*
X32172700Y-89904700D02*
X32540000Y-89904700D01*
X73175300Y-88540000D02*
X73175300Y-88907300D01*
X74540000Y-91080000D02*
X75715300Y-91080000D01*
X73175300Y-88907300D02*
X74172700Y-89904700D01*
X74540000Y-91080000D02*
X74540000Y-89904700D01*
X101620500Y-99307500D02*
X83942800Y-99307500D01*
X72000000Y-88540000D02*
X73175300Y-88540000D01*
X83942800Y-99307500D02*
X75715300Y-91080000D01*
X74172700Y-89904700D02*
X74540000Y-89904700D01*
X72000000Y-107540000D02*
X73175300Y-107540000D01*
X83942800Y-118307500D02*
X75715300Y-110080000D01*
X30000000Y-107540000D02*
X31175300Y-107540000D01*
X59620500Y-118307500D02*
X41942800Y-118307500D01*
X41942800Y-118307500D02*
X33715300Y-110080000D01*
X32540000Y-110080000D02*
X32540000Y-108904700D01*
X31175300Y-107907300D02*
X32172700Y-108904700D01*
X32540000Y-110080000D02*
X33715300Y-110080000D01*
X74172700Y-108904700D02*
X74540000Y-108904700D01*
X74540000Y-110080000D02*
X75715300Y-110080000D01*
X73175300Y-107540000D02*
X73175300Y-107907300D01*
X101620500Y-118307500D02*
X83942800Y-118307500D01*
X74540000Y-110080000D02*
X74540000Y-108904700D01*
X31175300Y-107540000D02*
X31175300Y-107907300D01*
X32172700Y-108904700D02*
X32540000Y-108904700D01*
X73175300Y-107907300D02*
X74172700Y-108904700D01*
%TO.N,Net-(J7-Pad2)*%
X32540000Y-29000000D02*
X33715300Y-29000000D01*
X33715300Y-29000000D02*
X34453400Y-28261900D01*
X34453400Y-28261900D02*
X46835400Y-28261900D01*
X75715300Y-29000000D02*
X76453400Y-28261900D01*
X74540000Y-29000000D02*
X75715300Y-29000000D01*
X76453400Y-28261900D02*
X88835400Y-28261900D01*
X33715300Y-48000000D02*
X34453400Y-47261900D01*
X32540000Y-48000000D02*
X33715300Y-48000000D01*
X34453400Y-47261900D02*
X46835400Y-47261900D01*
X75715300Y-48000000D02*
X76453400Y-47261900D01*
X74540000Y-48000000D02*
X75715300Y-48000000D01*
X76453400Y-47261900D02*
X88835400Y-47261900D01*
X34453400Y-66261900D02*
X46835400Y-66261900D01*
X33715300Y-67000000D02*
X34453400Y-66261900D01*
X32540000Y-67000000D02*
X33715300Y-67000000D01*
X74540000Y-67000000D02*
X75715300Y-67000000D01*
X75715300Y-67000000D02*
X76453400Y-66261900D01*
X76453400Y-66261900D02*
X88835400Y-66261900D01*
X32540000Y-86000000D02*
X33715300Y-86000000D01*
X34453400Y-85261900D02*
X46835400Y-85261900D01*
X33715300Y-86000000D02*
X34453400Y-85261900D01*
X74540000Y-86000000D02*
X75715300Y-86000000D01*
X75715300Y-86000000D02*
X76453400Y-85261900D01*
X76453400Y-85261900D02*
X88835400Y-85261900D01*
X76453400Y-104261900D02*
X88835400Y-104261900D01*
X75715300Y-105000000D02*
X76453400Y-104261900D01*
X74540000Y-105000000D02*
X75715300Y-105000000D01*
X32540000Y-105000000D02*
X33715300Y-105000000D01*
X34453400Y-104261900D02*
X46835400Y-104261900D01*
X33715300Y-105000000D02*
X34453400Y-104261900D01*
%TO.N,Net-(J7-Pad1)*%
X30000000Y-29000000D02*
X31175300Y-29000000D01*
X45663800Y-37497900D02*
X38341200Y-30175300D01*
X38341200Y-30175300D02*
X31983200Y-30175300D01*
X31983200Y-30175300D02*
X31175300Y-29367400D01*
X31175300Y-29367400D02*
X31175300Y-29000000D01*
X87663800Y-37497900D02*
X80341200Y-30175300D01*
X73175300Y-29367400D02*
X73175300Y-29000000D01*
X80341200Y-30175300D02*
X73983200Y-30175300D01*
X73983200Y-30175300D02*
X73175300Y-29367400D01*
X72000000Y-29000000D02*
X73175300Y-29000000D01*
X45663800Y-56497900D02*
X38341200Y-49175300D01*
X31175300Y-48367400D02*
X31175300Y-48000000D01*
X38341200Y-49175300D02*
X31983200Y-49175300D01*
X31983200Y-49175300D02*
X31175300Y-48367400D01*
X30000000Y-48000000D02*
X31175300Y-48000000D01*
X73983200Y-49175300D02*
X73175300Y-48367400D01*
X87663800Y-56497900D02*
X80341200Y-49175300D01*
X73175300Y-48367400D02*
X73175300Y-48000000D01*
X80341200Y-49175300D02*
X73983200Y-49175300D01*
X72000000Y-48000000D02*
X73175300Y-48000000D01*
X45663800Y-75497900D02*
X38341200Y-68175300D01*
X31983200Y-68175300D02*
X31175300Y-67367400D01*
X38341200Y-68175300D02*
X31983200Y-68175300D01*
X31175300Y-67367400D02*
X31175300Y-67000000D01*
X30000000Y-67000000D02*
X31175300Y-67000000D01*
X87663800Y-75497900D02*
X80341200Y-68175300D01*
X73983200Y-68175300D02*
X73175300Y-67367400D01*
X73175300Y-67367400D02*
X73175300Y-67000000D01*
X80341200Y-68175300D02*
X73983200Y-68175300D01*
X72000000Y-67000000D02*
X73175300Y-67000000D01*
X45663800Y-94497900D02*
X38341200Y-87175300D01*
X31983200Y-87175300D02*
X31175300Y-86367400D01*
X30000000Y-86000000D02*
X31175300Y-86000000D01*
X38341200Y-87175300D02*
X31983200Y-87175300D01*
X31175300Y-86367400D02*
X31175300Y-86000000D01*
X73175300Y-86367400D02*
X73175300Y-86000000D01*
X80341200Y-87175300D02*
X73983200Y-87175300D01*
X73983200Y-87175300D02*
X73175300Y-86367400D01*
X87663800Y-94497900D02*
X80341200Y-87175300D01*
X72000000Y-86000000D02*
X73175300Y-86000000D01*
X73175300Y-105367400D02*
X73175300Y-105000000D01*
X80341200Y-106175300D02*
X73983200Y-106175300D01*
X31175300Y-105367400D02*
X31175300Y-105000000D01*
X45663800Y-113497900D02*
X38341200Y-106175300D01*
X31983200Y-106175300D02*
X31175300Y-105367400D01*
X73983200Y-106175300D02*
X73175300Y-105367400D01*
X87663800Y-113497900D02*
X80341200Y-106175300D01*
X72000000Y-105000000D02*
X73175300Y-105000000D01*
X30000000Y-105000000D02*
X31175300Y-105000000D01*
X38341200Y-106175300D02*
X31983200Y-106175300D01*
%TO.N,Net-(SW1-Pad1)*%
X56151700Y-39749600D02*
X57257300Y-40855200D01*
X57257300Y-40855200D02*
X58630500Y-40855200D01*
X98151700Y-39749600D02*
X99257300Y-40855200D01*
X99257300Y-40855200D02*
X100630500Y-40855200D01*
X56151700Y-58749600D02*
X57257300Y-59855200D01*
X57257300Y-59855200D02*
X58630500Y-59855200D01*
X98151700Y-58749600D02*
X99257300Y-59855200D01*
X99257300Y-59855200D02*
X100630500Y-59855200D01*
X57257300Y-78855200D02*
X58630500Y-78855200D01*
X56151700Y-77749600D02*
X57257300Y-78855200D01*
X98151700Y-77749600D02*
X99257300Y-78855200D01*
X99257300Y-78855200D02*
X100630500Y-78855200D01*
X57257300Y-97855200D02*
X58630500Y-97855200D01*
X56151700Y-96749600D02*
X57257300Y-97855200D01*
X98151700Y-96749600D02*
X99257300Y-97855200D01*
X99257300Y-97855200D02*
X100630500Y-97855200D01*
X56151700Y-115749600D02*
X57257300Y-116855200D01*
X57257300Y-116855200D02*
X58630500Y-116855200D01*
X98151700Y-115749600D02*
X99257300Y-116855200D01*
X99257300Y-116855200D02*
X100630500Y-116855200D01*
%TD*%
M02*
