%TF.GenerationSoftware,KiCad,Pcbnew,(5.1.9)-1*%
%TF.CreationDate,2021-05-03T13:14:33+02:00*%
%TF.ProjectId,IM350_AM550_5V_V2.0_Multi,494d3335-305f-4414-9d35-35305f35565f,rev?*%
%TF.SameCoordinates,Original*%
%TF.FileFunction,Profile,NP*%
%FSLAX46Y46*%
G04 Gerber Fmt 4.6, Leading zero omitted, Abs format (unit mm)*
G04 Created by KiCad (PCBNEW (5.1.9)-1) date 2021-05-03 13:14:33*
%MOMM*%
%LPD*%
G01*
G04 APERTURE LIST*
%TA.AperFunction,Profile*%
%ADD10C,0.050000*%
%TD*%
G04 APERTURE END LIST*
D10*
X121000000Y-79500000D02*
X121000000Y-68500000D01*
X122000000Y-79500000D02*
X121000000Y-79500000D01*
X122000000Y-68500000D02*
X122000000Y-79500000D01*
X121000000Y-68500000D02*
X122000000Y-68500000D01*
X121000000Y-99500000D02*
X121000000Y-88500000D01*
X122000000Y-99500000D02*
X121000000Y-99500000D01*
X122000000Y-88500000D02*
X122000000Y-99500000D01*
X121000000Y-88500000D02*
X122000000Y-88500000D01*
X121000000Y-119500000D02*
X121000000Y-108500000D01*
X122000000Y-119500000D02*
X121000000Y-119500000D01*
X122000000Y-108500000D02*
X122000000Y-119500000D01*
X121000000Y-108500000D02*
X122000000Y-108500000D01*
X121000000Y-104500000D02*
X121000000Y-103500000D01*
X122000000Y-104500000D02*
X121000000Y-104500000D01*
X122000000Y-103500000D02*
X122000000Y-104500000D01*
X121000000Y-103500000D02*
X122000000Y-103500000D01*
X121000000Y-84500000D02*
X121000000Y-83500000D01*
X122000000Y-84500000D02*
X121000000Y-84500000D01*
X122000000Y-83500000D02*
X122000000Y-84500000D01*
X121000000Y-83500000D02*
X122000000Y-83500000D01*
X121000000Y-59500000D02*
X121000000Y-48500000D01*
X122000000Y-59500000D02*
X121000000Y-59500000D01*
X122000000Y-48500000D02*
X122000000Y-59500000D01*
X121000000Y-48500000D02*
X122000000Y-48500000D01*
X121000000Y-64500000D02*
X121000000Y-63500000D01*
X122000000Y-64500000D02*
X121000000Y-64500000D01*
X122000000Y-63500000D02*
X122000000Y-64500000D01*
X121000000Y-63500000D02*
X122000000Y-63500000D01*
X121000000Y-44500000D02*
X121000000Y-43500000D01*
X122000000Y-44500000D02*
X121000000Y-44500000D01*
X122000000Y-43500000D02*
X122000000Y-44500000D01*
X121000000Y-43500000D02*
X122000000Y-43500000D01*
X121000000Y-39500000D02*
X121000000Y-28500000D01*
X122000000Y-39500000D02*
X121000000Y-39500000D01*
X122000000Y-28500000D02*
X122000000Y-39500000D01*
X121000000Y-28500000D02*
X122000000Y-28500000D01*
X113500000Y-119500000D02*
X113500000Y-108500000D01*
X114500000Y-119500000D02*
X113500000Y-119500000D01*
X114500000Y-108500000D02*
X114500000Y-119500000D01*
X113500000Y-108500000D02*
X114500000Y-108500000D01*
X113500000Y-99500000D02*
X113500000Y-88500000D01*
X114500000Y-99500000D02*
X113500000Y-99500000D01*
X114500000Y-88500000D02*
X114500000Y-99500000D01*
X113500000Y-88500000D02*
X114500000Y-88500000D01*
X113500000Y-79500000D02*
X113500000Y-68500000D01*
X114500000Y-79500000D02*
X113500000Y-79500000D01*
X114500000Y-68500000D02*
X114500000Y-79500000D01*
X113500000Y-68500000D02*
X114500000Y-68500000D01*
X113500000Y-59500000D02*
X113500000Y-48500000D01*
X114500000Y-59500000D02*
X113500000Y-59500000D01*
X114500000Y-48500000D02*
X114500000Y-59500000D01*
X113500000Y-48500000D02*
X114500000Y-48500000D01*
X70500000Y-119500000D02*
X70500000Y-108500000D01*
X71500000Y-119500000D02*
X70500000Y-119500000D01*
X71500000Y-108500000D02*
X71500000Y-119500000D01*
X70500000Y-108500000D02*
X71500000Y-108500000D01*
X70500000Y-99500000D02*
X70500000Y-88500000D01*
X71500000Y-99500000D02*
X70500000Y-99500000D01*
X71500000Y-88500000D02*
X71500000Y-99500000D01*
X70500000Y-88500000D02*
X71500000Y-88500000D01*
X75500000Y-104500000D02*
X75500000Y-103500000D01*
X109500000Y-104500000D02*
X75500000Y-104500000D01*
X109500000Y-103500000D02*
X109500000Y-104500000D01*
X75500000Y-103500000D02*
X109500000Y-103500000D01*
X32500000Y-104500000D02*
X32500000Y-103500000D01*
X66500000Y-104500000D02*
X32500000Y-104500000D01*
X66500000Y-103500000D02*
X66500000Y-104500000D01*
X32500000Y-103500000D02*
X66500000Y-103500000D01*
X32500000Y-63500000D02*
X32500000Y-64500000D01*
X75500000Y-84500000D02*
X75500000Y-83500000D01*
X109500000Y-84500000D02*
X75500000Y-84500000D01*
X109500000Y-83500000D02*
X109500000Y-84500000D01*
X75500000Y-83500000D02*
X109500000Y-83500000D01*
X70500000Y-79500000D02*
X70500000Y-68500000D01*
X71500000Y-79500000D02*
X70500000Y-79500000D01*
X71500000Y-68500000D02*
X71500000Y-79500000D01*
X70500000Y-68500000D02*
X71500000Y-68500000D01*
X32500000Y-84500000D02*
X32500000Y-83500000D01*
X66500000Y-84500000D02*
X32500000Y-84500000D01*
X66500000Y-83500000D02*
X66500000Y-84500000D01*
X32500000Y-83500000D02*
X66500000Y-83500000D01*
X75500000Y-64500000D02*
X75500000Y-63500000D01*
X109500000Y-64500000D02*
X75500000Y-64500000D01*
X109500000Y-63500000D02*
X109500000Y-64500000D01*
X75500000Y-63500000D02*
X109500000Y-63500000D01*
X66500000Y-64500000D02*
X32500000Y-64500000D01*
X66500000Y-63500000D02*
X66500000Y-64500000D01*
X32500000Y-63500000D02*
X66500000Y-63500000D01*
X70500000Y-59500000D02*
X70500000Y-48500000D01*
X71500000Y-59500000D02*
X70500000Y-59500000D01*
X71500000Y-48500000D02*
X71500000Y-59500000D01*
X70500000Y-48500000D02*
X71500000Y-48500000D01*
X114500000Y-63500000D02*
X113500000Y-63500000D01*
X114500000Y-64500000D02*
X114500000Y-63500000D01*
X113500000Y-64500000D02*
X114500000Y-64500000D01*
X113500000Y-63500000D02*
X113500000Y-64500000D01*
X75500000Y-44500000D02*
X75500000Y-43500000D01*
X109500000Y-44500000D02*
X75500000Y-44500000D01*
X109500000Y-43500000D02*
X109500000Y-44500000D01*
X75500000Y-43500000D02*
X109500000Y-43500000D01*
X114500000Y-44500000D02*
X114500000Y-43500000D01*
X113500000Y-44500000D02*
X114500000Y-44500000D01*
X113500000Y-43500000D02*
X113500000Y-44500000D01*
X114500000Y-43500000D02*
X113500000Y-43500000D01*
X113500000Y-28500000D02*
X114500000Y-28500000D01*
X113500000Y-39500000D02*
X113500000Y-28500000D01*
X114500000Y-39500000D02*
X113500000Y-39500000D01*
X114500000Y-28500000D02*
X114500000Y-39500000D01*
X70500000Y-39500000D02*
X71500000Y-39500000D01*
X70500000Y-28500000D02*
X70500000Y-39500000D01*
X71500000Y-28500000D02*
X70500000Y-28500000D01*
X71500000Y-39500000D02*
X71500000Y-28500000D01*
X32500000Y-44500000D02*
X32500000Y-43500000D01*
X66500000Y-44500000D02*
X32500000Y-44500000D01*
X66500000Y-43500000D02*
X66500000Y-44500000D01*
X32500000Y-43500000D02*
X66500000Y-43500000D01*
X71500000Y-43500000D02*
X70500000Y-43500000D01*
X71500000Y-44500000D02*
X71500000Y-43500000D01*
X70500000Y-44500000D02*
X71500000Y-44500000D01*
X70500000Y-43500000D02*
X70500000Y-44500000D01*
X113500000Y-104500000D02*
X113500000Y-103500000D01*
X114500000Y-104500000D02*
X113500000Y-104500000D01*
X114500000Y-103500000D02*
X114500000Y-104500000D01*
X113500000Y-103500000D02*
X114500000Y-103500000D01*
X70500000Y-104500000D02*
X70500000Y-103500000D01*
X71500000Y-104500000D02*
X70500000Y-104500000D01*
X71500000Y-103500000D02*
X71500000Y-104500000D01*
X70500000Y-103500000D02*
X71500000Y-103500000D01*
X113500000Y-84500000D02*
X113500000Y-83500000D01*
X114500000Y-84500000D02*
X113500000Y-84500000D01*
X114500000Y-83500000D02*
X114500000Y-84500000D01*
X113500000Y-83500000D02*
X114500000Y-83500000D01*
X70500000Y-84500000D02*
X70500000Y-83500000D01*
X71500000Y-84500000D02*
X70500000Y-84500000D01*
X71500000Y-83500000D02*
X71500000Y-84500000D01*
X70500000Y-83500000D02*
X71500000Y-83500000D01*
X70500000Y-64500000D02*
X70500000Y-63500000D01*
X71500000Y-64500000D02*
X70500000Y-64500000D01*
X71500000Y-63500000D02*
X71500000Y-64500000D01*
X70500000Y-63500000D02*
X71500000Y-63500000D01*
X28500000Y-123500000D02*
X28500000Y-24500000D01*
X128500000Y-123500000D02*
X28500000Y-123500000D01*
X128500000Y-24500000D02*
X128500000Y-123500000D01*
X28500000Y-24500000D02*
X128500000Y-24500000D01*
M02*
