%TF.GenerationSoftware,KiCad,Pcbnew,(5.1.9)-1*%
%TF.CreationDate,2021-05-04T17:37:26+02:00*%
%TF.ProjectId,IM350_AM550_5V_V2.0_Multi,494d3335-305f-4414-9d35-35305f35565f,rev?*%
%TF.SameCoordinates,Original*%
%TF.FileFunction,Copper,L1,Top*%
%TF.FilePolarity,Positive*%
%FSLAX46Y46*%
G04 Gerber Fmt 4.6, Leading zero omitted, Abs format (unit mm)*
G04 Created by KiCad (PCBNEW (5.1.9)-1) date 2021-05-04 17:37:26*
%MOMM*%
%LPD*%
G01*
G04 APERTURE LIST*
%TA.AperFunction,NonConductor*%
%ADD10C,0.150000*%
%TD*%
%TA.AperFunction,SMDPad,CuDef*%
%ADD11R,1.300000X0.800000*%
%TD*%
%TA.AperFunction,SMDPad,CuDef*%
%ADD12R,1.000000X2.500000*%
%TD*%
%TA.AperFunction,SMDPad,CuDef*%
%ADD13R,1.800000X1.000000*%
%TD*%
%TA.AperFunction,ComponentPad*%
%ADD14O,1.900000X1.050000*%
%TD*%
%TA.AperFunction,SMDPad,CuDef*%
%ADD15R,2.800000X0.600000*%
%TD*%
%TA.AperFunction,SMDPad,CuDef*%
%ADD16R,1.500000X1.500000*%
%TD*%
%TA.AperFunction,ComponentPad*%
%ADD17O,1.700000X1.700000*%
%TD*%
%TA.AperFunction,ComponentPad*%
%ADD18R,1.700000X1.700000*%
%TD*%
%TA.AperFunction,ViaPad*%
%ADD19C,0.800000*%
%TD*%
%TA.AperFunction,Conductor*%
%ADD20C,0.250000*%
%TD*%
G04 APERTURE END LIST*
D10*
X71976190Y-101452380D02*
X72309523Y-102452380D01*
X72642857Y-101452380D01*
X72928571Y-101547619D02*
X72976190Y-101500000D01*
X73071428Y-101452380D01*
X73309523Y-101452380D01*
X73404761Y-101500000D01*
X73452380Y-101547619D01*
X73500000Y-101642857D01*
X73500000Y-101738095D01*
X73452380Y-101880952D01*
X72880952Y-102452380D01*
X73500000Y-102452380D01*
X73928571Y-102357142D02*
X73976190Y-102404761D01*
X73928571Y-102452380D01*
X73880952Y-102404761D01*
X73928571Y-102357142D01*
X73928571Y-102452380D01*
X74595238Y-101452380D02*
X74690476Y-101452380D01*
X74785714Y-101500000D01*
X74833333Y-101547619D01*
X74880952Y-101642857D01*
X74928571Y-101833333D01*
X74928571Y-102071428D01*
X74880952Y-102261904D01*
X74833333Y-102357142D01*
X74785714Y-102404761D01*
X74690476Y-102452380D01*
X74595238Y-102452380D01*
X74500000Y-102404761D01*
X74452380Y-102357142D01*
X74404761Y-102261904D01*
X74357142Y-102071428D01*
X74357142Y-101833333D01*
X74404761Y-101642857D01*
X74452380Y-101547619D01*
X74500000Y-101500000D01*
X74595238Y-101452380D01*
X29976190Y-101452380D02*
X30309523Y-102452380D01*
X30642857Y-101452380D01*
X30928571Y-101547619D02*
X30976190Y-101500000D01*
X31071428Y-101452380D01*
X31309523Y-101452380D01*
X31404761Y-101500000D01*
X31452380Y-101547619D01*
X31500000Y-101642857D01*
X31500000Y-101738095D01*
X31452380Y-101880952D01*
X30880952Y-102452380D01*
X31500000Y-102452380D01*
X31928571Y-102357142D02*
X31976190Y-102404761D01*
X31928571Y-102452380D01*
X31880952Y-102404761D01*
X31928571Y-102357142D01*
X31928571Y-102452380D01*
X32595238Y-101452380D02*
X32690476Y-101452380D01*
X32785714Y-101500000D01*
X32833333Y-101547619D01*
X32880952Y-101642857D01*
X32928571Y-101833333D01*
X32928571Y-102071428D01*
X32880952Y-102261904D01*
X32833333Y-102357142D01*
X32785714Y-102404761D01*
X32690476Y-102452380D01*
X32595238Y-102452380D01*
X32500000Y-102404761D01*
X32452380Y-102357142D01*
X32404761Y-102261904D01*
X32357142Y-102071428D01*
X32357142Y-101833333D01*
X32404761Y-101642857D01*
X32452380Y-101547619D01*
X32500000Y-101500000D01*
X32595238Y-101452380D01*
X71976190Y-82452380D02*
X72309523Y-83452380D01*
X72642857Y-82452380D01*
X72928571Y-82547619D02*
X72976190Y-82500000D01*
X73071428Y-82452380D01*
X73309523Y-82452380D01*
X73404761Y-82500000D01*
X73452380Y-82547619D01*
X73500000Y-82642857D01*
X73500000Y-82738095D01*
X73452380Y-82880952D01*
X72880952Y-83452380D01*
X73500000Y-83452380D01*
X73928571Y-83357142D02*
X73976190Y-83404761D01*
X73928571Y-83452380D01*
X73880952Y-83404761D01*
X73928571Y-83357142D01*
X73928571Y-83452380D01*
X74595238Y-82452380D02*
X74690476Y-82452380D01*
X74785714Y-82500000D01*
X74833333Y-82547619D01*
X74880952Y-82642857D01*
X74928571Y-82833333D01*
X74928571Y-83071428D01*
X74880952Y-83261904D01*
X74833333Y-83357142D01*
X74785714Y-83404761D01*
X74690476Y-83452380D01*
X74595238Y-83452380D01*
X74500000Y-83404761D01*
X74452380Y-83357142D01*
X74404761Y-83261904D01*
X74357142Y-83071428D01*
X74357142Y-82833333D01*
X74404761Y-82642857D01*
X74452380Y-82547619D01*
X74500000Y-82500000D01*
X74595238Y-82452380D01*
X29976190Y-82452380D02*
X30309523Y-83452380D01*
X30642857Y-82452380D01*
X30928571Y-82547619D02*
X30976190Y-82500000D01*
X31071428Y-82452380D01*
X31309523Y-82452380D01*
X31404761Y-82500000D01*
X31452380Y-82547619D01*
X31500000Y-82642857D01*
X31500000Y-82738095D01*
X31452380Y-82880952D01*
X30880952Y-83452380D01*
X31500000Y-83452380D01*
X31928571Y-83357142D02*
X31976190Y-83404761D01*
X31928571Y-83452380D01*
X31880952Y-83404761D01*
X31928571Y-83357142D01*
X31928571Y-83452380D01*
X32595238Y-82452380D02*
X32690476Y-82452380D01*
X32785714Y-82500000D01*
X32833333Y-82547619D01*
X32880952Y-82642857D01*
X32928571Y-82833333D01*
X32928571Y-83071428D01*
X32880952Y-83261904D01*
X32833333Y-83357142D01*
X32785714Y-83404761D01*
X32690476Y-83452380D01*
X32595238Y-83452380D01*
X32500000Y-83404761D01*
X32452380Y-83357142D01*
X32404761Y-83261904D01*
X32357142Y-83071428D01*
X32357142Y-82833333D01*
X32404761Y-82642857D01*
X32452380Y-82547619D01*
X32500000Y-82500000D01*
X32595238Y-82452380D01*
X71976190Y-63452380D02*
X72309523Y-64452380D01*
X72642857Y-63452380D01*
X72928571Y-63547619D02*
X72976190Y-63500000D01*
X73071428Y-63452380D01*
X73309523Y-63452380D01*
X73404761Y-63500000D01*
X73452380Y-63547619D01*
X73500000Y-63642857D01*
X73500000Y-63738095D01*
X73452380Y-63880952D01*
X72880952Y-64452380D01*
X73500000Y-64452380D01*
X73928571Y-64357142D02*
X73976190Y-64404761D01*
X73928571Y-64452380D01*
X73880952Y-64404761D01*
X73928571Y-64357142D01*
X73928571Y-64452380D01*
X74595238Y-63452380D02*
X74690476Y-63452380D01*
X74785714Y-63500000D01*
X74833333Y-63547619D01*
X74880952Y-63642857D01*
X74928571Y-63833333D01*
X74928571Y-64071428D01*
X74880952Y-64261904D01*
X74833333Y-64357142D01*
X74785714Y-64404761D01*
X74690476Y-64452380D01*
X74595238Y-64452380D01*
X74500000Y-64404761D01*
X74452380Y-64357142D01*
X74404761Y-64261904D01*
X74357142Y-64071428D01*
X74357142Y-63833333D01*
X74404761Y-63642857D01*
X74452380Y-63547619D01*
X74500000Y-63500000D01*
X74595238Y-63452380D01*
X29976190Y-63452380D02*
X30309523Y-64452380D01*
X30642857Y-63452380D01*
X30928571Y-63547619D02*
X30976190Y-63500000D01*
X31071428Y-63452380D01*
X31309523Y-63452380D01*
X31404761Y-63500000D01*
X31452380Y-63547619D01*
X31500000Y-63642857D01*
X31500000Y-63738095D01*
X31452380Y-63880952D01*
X30880952Y-64452380D01*
X31500000Y-64452380D01*
X31928571Y-64357142D02*
X31976190Y-64404761D01*
X31928571Y-64452380D01*
X31880952Y-64404761D01*
X31928571Y-64357142D01*
X31928571Y-64452380D01*
X32595238Y-63452380D02*
X32690476Y-63452380D01*
X32785714Y-63500000D01*
X32833333Y-63547619D01*
X32880952Y-63642857D01*
X32928571Y-63833333D01*
X32928571Y-64071428D01*
X32880952Y-64261904D01*
X32833333Y-64357142D01*
X32785714Y-64404761D01*
X32690476Y-64452380D01*
X32595238Y-64452380D01*
X32500000Y-64404761D01*
X32452380Y-64357142D01*
X32404761Y-64261904D01*
X32357142Y-64071428D01*
X32357142Y-63833333D01*
X32404761Y-63642857D01*
X32452380Y-63547619D01*
X32500000Y-63500000D01*
X32595238Y-63452380D01*
X71976190Y-44452380D02*
X72309523Y-45452380D01*
X72642857Y-44452380D01*
X72928571Y-44547619D02*
X72976190Y-44500000D01*
X73071428Y-44452380D01*
X73309523Y-44452380D01*
X73404761Y-44500000D01*
X73452380Y-44547619D01*
X73500000Y-44642857D01*
X73500000Y-44738095D01*
X73452380Y-44880952D01*
X72880952Y-45452380D01*
X73500000Y-45452380D01*
X73928571Y-45357142D02*
X73976190Y-45404761D01*
X73928571Y-45452380D01*
X73880952Y-45404761D01*
X73928571Y-45357142D01*
X73928571Y-45452380D01*
X74595238Y-44452380D02*
X74690476Y-44452380D01*
X74785714Y-44500000D01*
X74833333Y-44547619D01*
X74880952Y-44642857D01*
X74928571Y-44833333D01*
X74928571Y-45071428D01*
X74880952Y-45261904D01*
X74833333Y-45357142D01*
X74785714Y-45404761D01*
X74690476Y-45452380D01*
X74595238Y-45452380D01*
X74500000Y-45404761D01*
X74452380Y-45357142D01*
X74404761Y-45261904D01*
X74357142Y-45071428D01*
X74357142Y-44833333D01*
X74404761Y-44642857D01*
X74452380Y-44547619D01*
X74500000Y-44500000D01*
X74595238Y-44452380D01*
X29976190Y-44452380D02*
X30309523Y-45452380D01*
X30642857Y-44452380D01*
X30928571Y-44547619D02*
X30976190Y-44500000D01*
X31071428Y-44452380D01*
X31309523Y-44452380D01*
X31404761Y-44500000D01*
X31452380Y-44547619D01*
X31500000Y-44642857D01*
X31500000Y-44738095D01*
X31452380Y-44880952D01*
X30880952Y-45452380D01*
X31500000Y-45452380D01*
X31928571Y-45357142D02*
X31976190Y-45404761D01*
X31928571Y-45452380D01*
X31880952Y-45404761D01*
X31928571Y-45357142D01*
X31928571Y-45452380D01*
X32595238Y-44452380D02*
X32690476Y-44452380D01*
X32785714Y-44500000D01*
X32833333Y-44547619D01*
X32880952Y-44642857D01*
X32928571Y-44833333D01*
X32928571Y-45071428D01*
X32880952Y-45261904D01*
X32833333Y-45357142D01*
X32785714Y-45404761D01*
X32690476Y-45452380D01*
X32595238Y-45452380D01*
X32500000Y-45404761D01*
X32452380Y-45357142D01*
X32404761Y-45261904D01*
X32357142Y-45071428D01*
X32357142Y-44833333D01*
X32404761Y-44642857D01*
X32452380Y-44547619D01*
X32500000Y-44500000D01*
X32595238Y-44452380D01*
X71976190Y-25452380D02*
X72309523Y-26452380D01*
X72642857Y-25452380D01*
X72928571Y-25547619D02*
X72976190Y-25500000D01*
X73071428Y-25452380D01*
X73309523Y-25452380D01*
X73404761Y-25500000D01*
X73452380Y-25547619D01*
X73500000Y-25642857D01*
X73500000Y-25738095D01*
X73452380Y-25880952D01*
X72880952Y-26452380D01*
X73500000Y-26452380D01*
X73928571Y-26357142D02*
X73976190Y-26404761D01*
X73928571Y-26452380D01*
X73880952Y-26404761D01*
X73928571Y-26357142D01*
X73928571Y-26452380D01*
X74595238Y-25452380D02*
X74690476Y-25452380D01*
X74785714Y-25500000D01*
X74833333Y-25547619D01*
X74880952Y-25642857D01*
X74928571Y-25833333D01*
X74928571Y-26071428D01*
X74880952Y-26261904D01*
X74833333Y-26357142D01*
X74785714Y-26404761D01*
X74690476Y-26452380D01*
X74595238Y-26452380D01*
X74500000Y-26404761D01*
X74452380Y-26357142D01*
X74404761Y-26261904D01*
X74357142Y-26071428D01*
X74357142Y-25833333D01*
X74404761Y-25642857D01*
X74452380Y-25547619D01*
X74500000Y-25500000D01*
X74595238Y-25452380D01*
X29976190Y-25452380D02*
X30309523Y-26452380D01*
X30642857Y-25452380D01*
X30928571Y-25547619D02*
X30976190Y-25500000D01*
X31071428Y-25452380D01*
X31309523Y-25452380D01*
X31404761Y-25500000D01*
X31452380Y-25547619D01*
X31500000Y-25642857D01*
X31500000Y-25738095D01*
X31452380Y-25880952D01*
X30880952Y-26452380D01*
X31500000Y-26452380D01*
X31928571Y-26357142D02*
X31976190Y-26404761D01*
X31928571Y-26452380D01*
X31880952Y-26404761D01*
X31928571Y-26357142D01*
X31928571Y-26452380D01*
X32595238Y-25452380D02*
X32690476Y-25452380D01*
X32785714Y-25500000D01*
X32833333Y-25547619D01*
X32880952Y-25642857D01*
X32928571Y-25833333D01*
X32928571Y-26071428D01*
X32880952Y-26261904D01*
X32833333Y-26357142D01*
X32785714Y-26404761D01*
X32690476Y-26452380D01*
X32595238Y-26452380D01*
X32500000Y-26404761D01*
X32452380Y-26357142D01*
X32404761Y-26261904D01*
X32357142Y-26071428D01*
X32357142Y-25833333D01*
X32404761Y-25642857D01*
X32452380Y-25547619D01*
X32500000Y-25500000D01*
X32595238Y-25452380D01*
D11*
%TO.P,U1,1*%
%TO.N,Net-(C2-Pad2)*%
X66800000Y-102050000D03*
%TO.P,U1,2*%
%TO.N,+3V3*%
X66800000Y-103950000D03*
%TO.P,U1,3*%
%TO.N,Net-(J5-Pad1)*%
X69200000Y-103000000D03*
%TD*%
D12*
%TO.P,U2,1*%
%TO.N,Net-(U2-Pad1)*%
X43500000Y-117600000D03*
%TO.P,U2,2*%
%TO.N,Net-(U2-Pad2)*%
X45500000Y-117600000D03*
%TO.P,U2,3*%
%TO.N,+3V3*%
X47500000Y-117600000D03*
%TO.P,U2,4*%
%TO.N,Net-(U2-Pad1)*%
X49500000Y-117600000D03*
%TO.P,U2,5*%
%TO.N,Net-(J7-Pad1)*%
X51500000Y-117600000D03*
%TO.P,U2,6*%
%TO.N,Net-(U2-Pad6)*%
X53500000Y-117600000D03*
%TO.P,U2,7*%
%TO.N,Net-(SW1-Pad1)*%
X55500000Y-117600000D03*
%TO.P,U2,8*%
%TO.N,+3V3*%
X57500000Y-117600000D03*
D13*
%TO.P,U2,9*%
%TO.N,Net-(U2-Pad9)*%
X59000000Y-115000000D03*
%TO.P,U2,10*%
%TO.N,Net-(U2-Pad10)*%
X59000000Y-113000000D03*
%TO.P,U2,11*%
%TO.N,Net-(U2-Pad11)*%
X59000000Y-111000000D03*
%TO.P,U2,12*%
%TO.N,Net-(U2-Pad12)*%
X59000000Y-109000000D03*
%TO.P,U2,13*%
%TO.N,Net-(U2-Pad13)*%
X59000000Y-107000000D03*
%TO.P,U2,14*%
%TO.N,Net-(U2-Pad14)*%
X59000000Y-105000000D03*
D12*
%TO.P,U2,15*%
%TO.N,Net-(C2-Pad2)*%
X57500000Y-102400000D03*
%TO.P,U2,16*%
%TO.N,Net-(R1-Pad1)*%
X55500000Y-102400000D03*
%TO.P,U2,17*%
%TO.N,Net-(U2-Pad17)*%
X53500000Y-102400000D03*
%TO.P,U2,18*%
%TO.N,Net-(U2-Pad18)*%
X51500000Y-102400000D03*
%TO.P,U2,19*%
%TO.N,/GPIO4*%
X49500000Y-102400000D03*
%TO.P,U2,20*%
%TO.N,Net-(J7-Pad2)*%
X47500000Y-102400000D03*
%TO.P,U2,21*%
%TO.N,/GPIO3*%
X45500000Y-102400000D03*
%TO.P,U2,22*%
%TO.N,Net-(U2-Pad22)*%
X43500000Y-102400000D03*
%TD*%
%TO.P,R5,1*%
%TO.N,Net-(J7-Pad1)*%
%TA.AperFunction,SMDPad,CuDef*%
G36*
G01*
X64100000Y-113049999D02*
X64100000Y-113950001D01*
G75*
G02*
X63850001Y-114200000I-249999J0D01*
G01*
X63149999Y-114200000D01*
G75*
G02*
X62900000Y-113950001I0J249999D01*
G01*
X62900000Y-113049999D01*
G75*
G02*
X63149999Y-112800000I249999J0D01*
G01*
X63850001Y-112800000D01*
G75*
G02*
X64100000Y-113049999I0J-249999D01*
G01*
G37*
%TD.AperFunction*%
%TO.P,R5,2*%
%TO.N,Net-(J7-Pad5)*%
%TA.AperFunction,SMDPad,CuDef*%
G36*
G01*
X62100000Y-113049999D02*
X62100000Y-113950001D01*
G75*
G02*
X61850001Y-114200000I-249999J0D01*
G01*
X61149999Y-114200000D01*
G75*
G02*
X60900000Y-113950001I0J249999D01*
G01*
X60900000Y-113049999D01*
G75*
G02*
X61149999Y-112800000I249999J0D01*
G01*
X61850001Y-112800000D01*
G75*
G02*
X62100000Y-113049999I0J-249999D01*
G01*
G37*
%TD.AperFunction*%
%TD*%
%TO.P,C2,1*%
%TO.N,+3V3*%
%TA.AperFunction,SMDPad,CuDef*%
G36*
G01*
X65225000Y-101849999D02*
X65225000Y-103150001D01*
G75*
G02*
X64975001Y-103400000I-249999J0D01*
G01*
X64149999Y-103400000D01*
G75*
G02*
X63900000Y-103150001I0J249999D01*
G01*
X63900000Y-101849999D01*
G75*
G02*
X64149999Y-101600000I249999J0D01*
G01*
X64975001Y-101600000D01*
G75*
G02*
X65225000Y-101849999I0J-249999D01*
G01*
G37*
%TD.AperFunction*%
%TO.P,C2,2*%
%TO.N,Net-(C2-Pad2)*%
%TA.AperFunction,SMDPad,CuDef*%
G36*
G01*
X62100000Y-101849999D02*
X62100000Y-103150001D01*
G75*
G02*
X61850001Y-103400000I-249999J0D01*
G01*
X61024999Y-103400000D01*
G75*
G02*
X60775000Y-103150001I0J249999D01*
G01*
X60775000Y-101849999D01*
G75*
G02*
X61024999Y-101600000I249999J0D01*
G01*
X61850001Y-101600000D01*
G75*
G02*
X62100000Y-101849999I0J-249999D01*
G01*
G37*
%TD.AperFunction*%
%TD*%
D14*
%TO.P,J5,*%
%TO.N,*%
X69200000Y-106425000D03*
X69200000Y-113575000D03*
D15*
%TO.P,J5,5*%
%TO.N,Net-(C2-Pad2)*%
X62850000Y-108700000D03*
%TO.P,J5,1*%
%TO.N,Net-(J5-Pad1)*%
X62850000Y-111300000D03*
%TD*%
%TO.P,R1,2*%
%TO.N,Net-(C2-Pad2)*%
%TA.AperFunction,SMDPad,CuDef*%
G36*
G01*
X62900000Y-105450001D02*
X62900000Y-104549999D01*
G75*
G02*
X63149999Y-104300000I249999J0D01*
G01*
X63850001Y-104300000D01*
G75*
G02*
X64100000Y-104549999I0J-249999D01*
G01*
X64100000Y-105450001D01*
G75*
G02*
X63850001Y-105700000I-249999J0D01*
G01*
X63149999Y-105700000D01*
G75*
G02*
X62900000Y-105450001I0J249999D01*
G01*
G37*
%TD.AperFunction*%
%TO.P,R1,1*%
%TO.N,Net-(R1-Pad1)*%
%TA.AperFunction,SMDPad,CuDef*%
G36*
G01*
X60900000Y-105450001D02*
X60900000Y-104549999D01*
G75*
G02*
X61149999Y-104300000I249999J0D01*
G01*
X61850001Y-104300000D01*
G75*
G02*
X62100000Y-104549999I0J-249999D01*
G01*
X62100000Y-105450001D01*
G75*
G02*
X61850001Y-105700000I-249999J0D01*
G01*
X61149999Y-105700000D01*
G75*
G02*
X60900000Y-105450001I0J249999D01*
G01*
G37*
%TD.AperFunction*%
%TD*%
D12*
%TO.P,U2,22*%
%TO.N,Net-(U2-Pad22)*%
X85500000Y-102400000D03*
%TO.P,U2,21*%
%TO.N,/GPIO3*%
X87500000Y-102400000D03*
%TO.P,U2,20*%
%TO.N,Net-(J7-Pad2)*%
X89500000Y-102400000D03*
%TO.P,U2,19*%
%TO.N,/GPIO4*%
X91500000Y-102400000D03*
%TO.P,U2,18*%
%TO.N,Net-(U2-Pad18)*%
X93500000Y-102400000D03*
%TO.P,U2,17*%
%TO.N,Net-(U2-Pad17)*%
X95500000Y-102400000D03*
%TO.P,U2,16*%
%TO.N,Net-(R1-Pad1)*%
X97500000Y-102400000D03*
%TO.P,U2,15*%
%TO.N,Net-(C2-Pad2)*%
X99500000Y-102400000D03*
D13*
%TO.P,U2,14*%
%TO.N,Net-(U2-Pad14)*%
X101000000Y-105000000D03*
%TO.P,U2,13*%
%TO.N,Net-(U2-Pad13)*%
X101000000Y-107000000D03*
%TO.P,U2,12*%
%TO.N,Net-(U2-Pad12)*%
X101000000Y-109000000D03*
%TO.P,U2,11*%
%TO.N,Net-(U2-Pad11)*%
X101000000Y-111000000D03*
%TO.P,U2,10*%
%TO.N,Net-(U2-Pad10)*%
X101000000Y-113000000D03*
%TO.P,U2,9*%
%TO.N,Net-(U2-Pad9)*%
X101000000Y-115000000D03*
D12*
%TO.P,U2,8*%
%TO.N,+3V3*%
X99500000Y-117600000D03*
%TO.P,U2,7*%
%TO.N,Net-(SW1-Pad1)*%
X97500000Y-117600000D03*
%TO.P,U2,6*%
%TO.N,Net-(U2-Pad6)*%
X95500000Y-117600000D03*
%TO.P,U2,5*%
%TO.N,Net-(J7-Pad1)*%
X93500000Y-117600000D03*
%TO.P,U2,4*%
%TO.N,Net-(U2-Pad1)*%
X91500000Y-117600000D03*
%TO.P,U2,3*%
%TO.N,+3V3*%
X89500000Y-117600000D03*
%TO.P,U2,2*%
%TO.N,Net-(U2-Pad2)*%
X87500000Y-117600000D03*
%TO.P,U2,1*%
%TO.N,Net-(U2-Pad1)*%
X85500000Y-117600000D03*
%TD*%
%TO.P,C2,2*%
%TO.N,Net-(C2-Pad2)*%
%TA.AperFunction,SMDPad,CuDef*%
G36*
G01*
X104100000Y-101849999D02*
X104100000Y-103150001D01*
G75*
G02*
X103850001Y-103400000I-249999J0D01*
G01*
X103024999Y-103400000D01*
G75*
G02*
X102775000Y-103150001I0J249999D01*
G01*
X102775000Y-101849999D01*
G75*
G02*
X103024999Y-101600000I249999J0D01*
G01*
X103850001Y-101600000D01*
G75*
G02*
X104100000Y-101849999I0J-249999D01*
G01*
G37*
%TD.AperFunction*%
%TO.P,C2,1*%
%TO.N,+3V3*%
%TA.AperFunction,SMDPad,CuDef*%
G36*
G01*
X107225000Y-101849999D02*
X107225000Y-103150001D01*
G75*
G02*
X106975001Y-103400000I-249999J0D01*
G01*
X106149999Y-103400000D01*
G75*
G02*
X105900000Y-103150001I0J249999D01*
G01*
X105900000Y-101849999D01*
G75*
G02*
X106149999Y-101600000I249999J0D01*
G01*
X106975001Y-101600000D01*
G75*
G02*
X107225000Y-101849999I0J-249999D01*
G01*
G37*
%TD.AperFunction*%
%TD*%
D16*
%TO.P,SW1,2*%
%TO.N,Net-(C2-Pad2)*%
X110900000Y-117000000D03*
%TO.P,SW1,1*%
%TO.N,Net-(SW1-Pad1)*%
X103100000Y-117000000D03*
%TD*%
%TO.P,SW1,1*%
%TO.N,Net-(SW1-Pad1)*%
X61100000Y-117000000D03*
%TO.P,SW1,2*%
%TO.N,Net-(C2-Pad2)*%
X68900000Y-117000000D03*
%TD*%
%TO.P,P4,2*%
%TO.N,/GPIO4*%
%TA.AperFunction,SMDPad,CuDef*%
G36*
G01*
X63590000Y-107100000D02*
X63590000Y-106900000D01*
G75*
G02*
X63690000Y-106800000I100000J0D01*
G01*
X64125000Y-106800000D01*
G75*
G02*
X64225000Y-106900000I0J-100000D01*
G01*
X64225000Y-107100000D01*
G75*
G02*
X64125000Y-107200000I-100000J0D01*
G01*
X63690000Y-107200000D01*
G75*
G02*
X63590000Y-107100000I0J100000D01*
G01*
G37*
%TD.AperFunction*%
%TO.P,P4,1*%
%TO.N,Net-(J7-Pad5)*%
%TA.AperFunction,SMDPad,CuDef*%
G36*
G01*
X62775000Y-107100000D02*
X62775000Y-106900000D01*
G75*
G02*
X62875000Y-106800000I100000J0D01*
G01*
X63310000Y-106800000D01*
G75*
G02*
X63410000Y-106900000I0J-100000D01*
G01*
X63410000Y-107100000D01*
G75*
G02*
X63310000Y-107200000I-100000J0D01*
G01*
X62875000Y-107200000D01*
G75*
G02*
X62775000Y-107100000I0J100000D01*
G01*
G37*
%TD.AperFunction*%
%TD*%
D17*
%TO.P,J7,6*%
%TO.N,Net-(C2-Pad2)*%
X32540000Y-110080000D03*
%TO.P,J7,5*%
%TO.N,Net-(J7-Pad5)*%
X30000000Y-110080000D03*
%TO.P,J7,4*%
%TO.N,Net-(J7-Pad4)*%
X32540000Y-107540000D03*
%TO.P,J7,3*%
%TO.N,Net-(C2-Pad2)*%
X30000000Y-107540000D03*
%TO.P,J7,2*%
%TO.N,Net-(J7-Pad2)*%
X32540000Y-105000000D03*
D18*
%TO.P,J7,1*%
%TO.N,Net-(J7-Pad1)*%
X30000000Y-105000000D03*
%TD*%
D15*
%TO.P,J5,1*%
%TO.N,Net-(J5-Pad1)*%
X104850000Y-111300000D03*
%TO.P,J5,5*%
%TO.N,Net-(C2-Pad2)*%
X104850000Y-108700000D03*
D14*
%TO.P,J5,*%
%TO.N,*%
X111200000Y-113575000D03*
X111200000Y-106425000D03*
%TD*%
%TO.P,P3,2*%
%TO.N,/GPIO3*%
%TA.AperFunction,SMDPad,CuDef*%
G36*
G01*
X103410000Y-106900000D02*
X103410000Y-107100000D01*
G75*
G02*
X103310000Y-107200000I-100000J0D01*
G01*
X102875000Y-107200000D01*
G75*
G02*
X102775000Y-107100000I0J100000D01*
G01*
X102775000Y-106900000D01*
G75*
G02*
X102875000Y-106800000I100000J0D01*
G01*
X103310000Y-106800000D01*
G75*
G02*
X103410000Y-106900000I0J-100000D01*
G01*
G37*
%TD.AperFunction*%
%TO.P,P3,1*%
%TO.N,Net-(J7-Pad5)*%
%TA.AperFunction,SMDPad,CuDef*%
G36*
G01*
X104225000Y-106900000D02*
X104225000Y-107100000D01*
G75*
G02*
X104125000Y-107200000I-100000J0D01*
G01*
X103690000Y-107200000D01*
G75*
G02*
X103590000Y-107100000I0J100000D01*
G01*
X103590000Y-106900000D01*
G75*
G02*
X103690000Y-106800000I100000J0D01*
G01*
X104125000Y-106800000D01*
G75*
G02*
X104225000Y-106900000I0J-100000D01*
G01*
G37*
%TD.AperFunction*%
%TD*%
%TO.P,P4,1*%
%TO.N,Net-(J7-Pad5)*%
%TA.AperFunction,SMDPad,CuDef*%
G36*
G01*
X104775000Y-107100000D02*
X104775000Y-106900000D01*
G75*
G02*
X104875000Y-106800000I100000J0D01*
G01*
X105310000Y-106800000D01*
G75*
G02*
X105410000Y-106900000I0J-100000D01*
G01*
X105410000Y-107100000D01*
G75*
G02*
X105310000Y-107200000I-100000J0D01*
G01*
X104875000Y-107200000D01*
G75*
G02*
X104775000Y-107100000I0J100000D01*
G01*
G37*
%TD.AperFunction*%
%TO.P,P4,2*%
%TO.N,/GPIO4*%
%TA.AperFunction,SMDPad,CuDef*%
G36*
G01*
X105590000Y-107100000D02*
X105590000Y-106900000D01*
G75*
G02*
X105690000Y-106800000I100000J0D01*
G01*
X106125000Y-106800000D01*
G75*
G02*
X106225000Y-106900000I0J-100000D01*
G01*
X106225000Y-107100000D01*
G75*
G02*
X106125000Y-107200000I-100000J0D01*
G01*
X105690000Y-107200000D01*
G75*
G02*
X105590000Y-107100000I0J100000D01*
G01*
G37*
%TD.AperFunction*%
%TD*%
D18*
%TO.P,J7,1*%
%TO.N,Net-(J7-Pad1)*%
X72000000Y-105000000D03*
D17*
%TO.P,J7,2*%
%TO.N,Net-(J7-Pad2)*%
X74540000Y-105000000D03*
%TO.P,J7,3*%
%TO.N,Net-(C2-Pad2)*%
X72000000Y-107540000D03*
%TO.P,J7,4*%
%TO.N,Net-(J7-Pad4)*%
X74540000Y-107540000D03*
%TO.P,J7,5*%
%TO.N,Net-(J7-Pad5)*%
X72000000Y-110080000D03*
%TO.P,J7,6*%
%TO.N,Net-(C2-Pad2)*%
X74540000Y-110080000D03*
%TD*%
D11*
%TO.P,U1,3*%
%TO.N,Net-(J5-Pad1)*%
X111200000Y-103000000D03*
%TO.P,U1,2*%
%TO.N,+3V3*%
X108800000Y-103950000D03*
%TO.P,U1,1*%
%TO.N,Net-(C2-Pad2)*%
X108800000Y-102050000D03*
%TD*%
%TO.P,P3,1*%
%TO.N,Net-(J7-Pad5)*%
%TA.AperFunction,SMDPad,CuDef*%
G36*
G01*
X62225000Y-106900000D02*
X62225000Y-107100000D01*
G75*
G02*
X62125000Y-107200000I-100000J0D01*
G01*
X61690000Y-107200000D01*
G75*
G02*
X61590000Y-107100000I0J100000D01*
G01*
X61590000Y-106900000D01*
G75*
G02*
X61690000Y-106800000I100000J0D01*
G01*
X62125000Y-106800000D01*
G75*
G02*
X62225000Y-106900000I0J-100000D01*
G01*
G37*
%TD.AperFunction*%
%TO.P,P3,2*%
%TO.N,/GPIO3*%
%TA.AperFunction,SMDPad,CuDef*%
G36*
G01*
X61410000Y-106900000D02*
X61410000Y-107100000D01*
G75*
G02*
X61310000Y-107200000I-100000J0D01*
G01*
X60875000Y-107200000D01*
G75*
G02*
X60775000Y-107100000I0J100000D01*
G01*
X60775000Y-106900000D01*
G75*
G02*
X60875000Y-106800000I100000J0D01*
G01*
X61310000Y-106800000D01*
G75*
G02*
X61410000Y-106900000I0J-100000D01*
G01*
G37*
%TD.AperFunction*%
%TD*%
%TO.P,R1,1*%
%TO.N,Net-(R1-Pad1)*%
%TA.AperFunction,SMDPad,CuDef*%
G36*
G01*
X102900000Y-105450001D02*
X102900000Y-104549999D01*
G75*
G02*
X103149999Y-104300000I249999J0D01*
G01*
X103850001Y-104300000D01*
G75*
G02*
X104100000Y-104549999I0J-249999D01*
G01*
X104100000Y-105450001D01*
G75*
G02*
X103850001Y-105700000I-249999J0D01*
G01*
X103149999Y-105700000D01*
G75*
G02*
X102900000Y-105450001I0J249999D01*
G01*
G37*
%TD.AperFunction*%
%TO.P,R1,2*%
%TO.N,Net-(C2-Pad2)*%
%TA.AperFunction,SMDPad,CuDef*%
G36*
G01*
X104900000Y-105450001D02*
X104900000Y-104549999D01*
G75*
G02*
X105149999Y-104300000I249999J0D01*
G01*
X105850001Y-104300000D01*
G75*
G02*
X106100000Y-104549999I0J-249999D01*
G01*
X106100000Y-105450001D01*
G75*
G02*
X105850001Y-105700000I-249999J0D01*
G01*
X105149999Y-105700000D01*
G75*
G02*
X104900000Y-105450001I0J249999D01*
G01*
G37*
%TD.AperFunction*%
%TD*%
%TO.P,R5,2*%
%TO.N,Net-(J7-Pad5)*%
%TA.AperFunction,SMDPad,CuDef*%
G36*
G01*
X104100000Y-113049999D02*
X104100000Y-113950001D01*
G75*
G02*
X103850001Y-114200000I-249999J0D01*
G01*
X103149999Y-114200000D01*
G75*
G02*
X102900000Y-113950001I0J249999D01*
G01*
X102900000Y-113049999D01*
G75*
G02*
X103149999Y-112800000I249999J0D01*
G01*
X103850001Y-112800000D01*
G75*
G02*
X104100000Y-113049999I0J-249999D01*
G01*
G37*
%TD.AperFunction*%
%TO.P,R5,1*%
%TO.N,Net-(J7-Pad1)*%
%TA.AperFunction,SMDPad,CuDef*%
G36*
G01*
X106100000Y-113049999D02*
X106100000Y-113950001D01*
G75*
G02*
X105850001Y-114200000I-249999J0D01*
G01*
X105149999Y-114200000D01*
G75*
G02*
X104900000Y-113950001I0J249999D01*
G01*
X104900000Y-113049999D01*
G75*
G02*
X105149999Y-112800000I249999J0D01*
G01*
X105850001Y-112800000D01*
G75*
G02*
X106100000Y-113049999I0J-249999D01*
G01*
G37*
%TD.AperFunction*%
%TD*%
%TO.P,P3,1*%
%TO.N,Net-(J7-Pad5)*%
%TA.AperFunction,SMDPad,CuDef*%
G36*
G01*
X104225000Y-87900000D02*
X104225000Y-88100000D01*
G75*
G02*
X104125000Y-88200000I-100000J0D01*
G01*
X103690000Y-88200000D01*
G75*
G02*
X103590000Y-88100000I0J100000D01*
G01*
X103590000Y-87900000D01*
G75*
G02*
X103690000Y-87800000I100000J0D01*
G01*
X104125000Y-87800000D01*
G75*
G02*
X104225000Y-87900000I0J-100000D01*
G01*
G37*
%TD.AperFunction*%
%TO.P,P3,2*%
%TO.N,/GPIO3*%
%TA.AperFunction,SMDPad,CuDef*%
G36*
G01*
X103410000Y-87900000D02*
X103410000Y-88100000D01*
G75*
G02*
X103310000Y-88200000I-100000J0D01*
G01*
X102875000Y-88200000D01*
G75*
G02*
X102775000Y-88100000I0J100000D01*
G01*
X102775000Y-87900000D01*
G75*
G02*
X102875000Y-87800000I100000J0D01*
G01*
X103310000Y-87800000D01*
G75*
G02*
X103410000Y-87900000I0J-100000D01*
G01*
G37*
%TD.AperFunction*%
%TD*%
%TO.P,P4,2*%
%TO.N,/GPIO4*%
%TA.AperFunction,SMDPad,CuDef*%
G36*
G01*
X105590000Y-88100000D02*
X105590000Y-87900000D01*
G75*
G02*
X105690000Y-87800000I100000J0D01*
G01*
X106125000Y-87800000D01*
G75*
G02*
X106225000Y-87900000I0J-100000D01*
G01*
X106225000Y-88100000D01*
G75*
G02*
X106125000Y-88200000I-100000J0D01*
G01*
X105690000Y-88200000D01*
G75*
G02*
X105590000Y-88100000I0J100000D01*
G01*
G37*
%TD.AperFunction*%
%TO.P,P4,1*%
%TO.N,Net-(J7-Pad5)*%
%TA.AperFunction,SMDPad,CuDef*%
G36*
G01*
X104775000Y-88100000D02*
X104775000Y-87900000D01*
G75*
G02*
X104875000Y-87800000I100000J0D01*
G01*
X105310000Y-87800000D01*
G75*
G02*
X105410000Y-87900000I0J-100000D01*
G01*
X105410000Y-88100000D01*
G75*
G02*
X105310000Y-88200000I-100000J0D01*
G01*
X104875000Y-88200000D01*
G75*
G02*
X104775000Y-88100000I0J100000D01*
G01*
G37*
%TD.AperFunction*%
%TD*%
D14*
%TO.P,J5,*%
%TO.N,*%
X111200000Y-87425000D03*
X111200000Y-94575000D03*
D15*
%TO.P,J5,5*%
%TO.N,Net-(C2-Pad2)*%
X104850000Y-89700000D03*
%TO.P,J5,1*%
%TO.N,Net-(J5-Pad1)*%
X104850000Y-92300000D03*
%TD*%
D17*
%TO.P,J7,6*%
%TO.N,Net-(C2-Pad2)*%
X74540000Y-91080000D03*
%TO.P,J7,5*%
%TO.N,Net-(J7-Pad5)*%
X72000000Y-91080000D03*
%TO.P,J7,4*%
%TO.N,Net-(J7-Pad4)*%
X74540000Y-88540000D03*
%TO.P,J7,3*%
%TO.N,Net-(C2-Pad2)*%
X72000000Y-88540000D03*
%TO.P,J7,2*%
%TO.N,Net-(J7-Pad2)*%
X74540000Y-86000000D03*
D18*
%TO.P,J7,1*%
%TO.N,Net-(J7-Pad1)*%
X72000000Y-86000000D03*
%TD*%
%TO.P,R5,1*%
%TO.N,Net-(J7-Pad1)*%
%TA.AperFunction,SMDPad,CuDef*%
G36*
G01*
X106100000Y-94049999D02*
X106100000Y-94950001D01*
G75*
G02*
X105850001Y-95200000I-249999J0D01*
G01*
X105149999Y-95200000D01*
G75*
G02*
X104900000Y-94950001I0J249999D01*
G01*
X104900000Y-94049999D01*
G75*
G02*
X105149999Y-93800000I249999J0D01*
G01*
X105850001Y-93800000D01*
G75*
G02*
X106100000Y-94049999I0J-249999D01*
G01*
G37*
%TD.AperFunction*%
%TO.P,R5,2*%
%TO.N,Net-(J7-Pad5)*%
%TA.AperFunction,SMDPad,CuDef*%
G36*
G01*
X104100000Y-94049999D02*
X104100000Y-94950001D01*
G75*
G02*
X103850001Y-95200000I-249999J0D01*
G01*
X103149999Y-95200000D01*
G75*
G02*
X102900000Y-94950001I0J249999D01*
G01*
X102900000Y-94049999D01*
G75*
G02*
X103149999Y-93800000I249999J0D01*
G01*
X103850001Y-93800000D01*
G75*
G02*
X104100000Y-94049999I0J-249999D01*
G01*
G37*
%TD.AperFunction*%
%TD*%
D11*
%TO.P,U1,1*%
%TO.N,Net-(C2-Pad2)*%
X108800000Y-83050000D03*
%TO.P,U1,2*%
%TO.N,+3V3*%
X108800000Y-84950000D03*
%TO.P,U1,3*%
%TO.N,Net-(J5-Pad1)*%
X111200000Y-84000000D03*
%TD*%
D16*
%TO.P,SW1,1*%
%TO.N,Net-(SW1-Pad1)*%
X103100000Y-98000000D03*
%TO.P,SW1,2*%
%TO.N,Net-(C2-Pad2)*%
X110900000Y-98000000D03*
%TD*%
%TO.P,C2,1*%
%TO.N,+3V3*%
%TA.AperFunction,SMDPad,CuDef*%
G36*
G01*
X107225000Y-82849999D02*
X107225000Y-84150001D01*
G75*
G02*
X106975001Y-84400000I-249999J0D01*
G01*
X106149999Y-84400000D01*
G75*
G02*
X105900000Y-84150001I0J249999D01*
G01*
X105900000Y-82849999D01*
G75*
G02*
X106149999Y-82600000I249999J0D01*
G01*
X106975001Y-82600000D01*
G75*
G02*
X107225000Y-82849999I0J-249999D01*
G01*
G37*
%TD.AperFunction*%
%TO.P,C2,2*%
%TO.N,Net-(C2-Pad2)*%
%TA.AperFunction,SMDPad,CuDef*%
G36*
G01*
X104100000Y-82849999D02*
X104100000Y-84150001D01*
G75*
G02*
X103850001Y-84400000I-249999J0D01*
G01*
X103024999Y-84400000D01*
G75*
G02*
X102775000Y-84150001I0J249999D01*
G01*
X102775000Y-82849999D01*
G75*
G02*
X103024999Y-82600000I249999J0D01*
G01*
X103850001Y-82600000D01*
G75*
G02*
X104100000Y-82849999I0J-249999D01*
G01*
G37*
%TD.AperFunction*%
%TD*%
%TO.P,P3,2*%
%TO.N,/GPIO3*%
%TA.AperFunction,SMDPad,CuDef*%
G36*
G01*
X61410000Y-87900000D02*
X61410000Y-88100000D01*
G75*
G02*
X61310000Y-88200000I-100000J0D01*
G01*
X60875000Y-88200000D01*
G75*
G02*
X60775000Y-88100000I0J100000D01*
G01*
X60775000Y-87900000D01*
G75*
G02*
X60875000Y-87800000I100000J0D01*
G01*
X61310000Y-87800000D01*
G75*
G02*
X61410000Y-87900000I0J-100000D01*
G01*
G37*
%TD.AperFunction*%
%TO.P,P3,1*%
%TO.N,Net-(J7-Pad5)*%
%TA.AperFunction,SMDPad,CuDef*%
G36*
G01*
X62225000Y-87900000D02*
X62225000Y-88100000D01*
G75*
G02*
X62125000Y-88200000I-100000J0D01*
G01*
X61690000Y-88200000D01*
G75*
G02*
X61590000Y-88100000I0J100000D01*
G01*
X61590000Y-87900000D01*
G75*
G02*
X61690000Y-87800000I100000J0D01*
G01*
X62125000Y-87800000D01*
G75*
G02*
X62225000Y-87900000I0J-100000D01*
G01*
G37*
%TD.AperFunction*%
%TD*%
%TO.P,P4,1*%
%TO.N,Net-(J7-Pad5)*%
%TA.AperFunction,SMDPad,CuDef*%
G36*
G01*
X62775000Y-88100000D02*
X62775000Y-87900000D01*
G75*
G02*
X62875000Y-87800000I100000J0D01*
G01*
X63310000Y-87800000D01*
G75*
G02*
X63410000Y-87900000I0J-100000D01*
G01*
X63410000Y-88100000D01*
G75*
G02*
X63310000Y-88200000I-100000J0D01*
G01*
X62875000Y-88200000D01*
G75*
G02*
X62775000Y-88100000I0J100000D01*
G01*
G37*
%TD.AperFunction*%
%TO.P,P4,2*%
%TO.N,/GPIO4*%
%TA.AperFunction,SMDPad,CuDef*%
G36*
G01*
X63590000Y-88100000D02*
X63590000Y-87900000D01*
G75*
G02*
X63690000Y-87800000I100000J0D01*
G01*
X64125000Y-87800000D01*
G75*
G02*
X64225000Y-87900000I0J-100000D01*
G01*
X64225000Y-88100000D01*
G75*
G02*
X64125000Y-88200000I-100000J0D01*
G01*
X63690000Y-88200000D01*
G75*
G02*
X63590000Y-88100000I0J100000D01*
G01*
G37*
%TD.AperFunction*%
%TD*%
D18*
%TO.P,J7,1*%
%TO.N,Net-(J7-Pad1)*%
X30000000Y-86000000D03*
D17*
%TO.P,J7,2*%
%TO.N,Net-(J7-Pad2)*%
X32540000Y-86000000D03*
%TO.P,J7,3*%
%TO.N,Net-(C2-Pad2)*%
X30000000Y-88540000D03*
%TO.P,J7,4*%
%TO.N,Net-(J7-Pad4)*%
X32540000Y-88540000D03*
%TO.P,J7,5*%
%TO.N,Net-(J7-Pad5)*%
X30000000Y-91080000D03*
%TO.P,J7,6*%
%TO.N,Net-(C2-Pad2)*%
X32540000Y-91080000D03*
%TD*%
%TO.P,R1,2*%
%TO.N,Net-(C2-Pad2)*%
%TA.AperFunction,SMDPad,CuDef*%
G36*
G01*
X104900000Y-86450001D02*
X104900000Y-85549999D01*
G75*
G02*
X105149999Y-85300000I249999J0D01*
G01*
X105850001Y-85300000D01*
G75*
G02*
X106100000Y-85549999I0J-249999D01*
G01*
X106100000Y-86450001D01*
G75*
G02*
X105850001Y-86700000I-249999J0D01*
G01*
X105149999Y-86700000D01*
G75*
G02*
X104900000Y-86450001I0J249999D01*
G01*
G37*
%TD.AperFunction*%
%TO.P,R1,1*%
%TO.N,Net-(R1-Pad1)*%
%TA.AperFunction,SMDPad,CuDef*%
G36*
G01*
X102900000Y-86450001D02*
X102900000Y-85549999D01*
G75*
G02*
X103149999Y-85300000I249999J0D01*
G01*
X103850001Y-85300000D01*
G75*
G02*
X104100000Y-85549999I0J-249999D01*
G01*
X104100000Y-86450001D01*
G75*
G02*
X103850001Y-86700000I-249999J0D01*
G01*
X103149999Y-86700000D01*
G75*
G02*
X102900000Y-86450001I0J249999D01*
G01*
G37*
%TD.AperFunction*%
%TD*%
D16*
%TO.P,SW1,2*%
%TO.N,Net-(C2-Pad2)*%
X68900000Y-98000000D03*
%TO.P,SW1,1*%
%TO.N,Net-(SW1-Pad1)*%
X61100000Y-98000000D03*
%TD*%
%TO.P,C2,2*%
%TO.N,Net-(C2-Pad2)*%
%TA.AperFunction,SMDPad,CuDef*%
G36*
G01*
X62100000Y-82849999D02*
X62100000Y-84150001D01*
G75*
G02*
X61850001Y-84400000I-249999J0D01*
G01*
X61024999Y-84400000D01*
G75*
G02*
X60775000Y-84150001I0J249999D01*
G01*
X60775000Y-82849999D01*
G75*
G02*
X61024999Y-82600000I249999J0D01*
G01*
X61850001Y-82600000D01*
G75*
G02*
X62100000Y-82849999I0J-249999D01*
G01*
G37*
%TD.AperFunction*%
%TO.P,C2,1*%
%TO.N,+3V3*%
%TA.AperFunction,SMDPad,CuDef*%
G36*
G01*
X65225000Y-82849999D02*
X65225000Y-84150001D01*
G75*
G02*
X64975001Y-84400000I-249999J0D01*
G01*
X64149999Y-84400000D01*
G75*
G02*
X63900000Y-84150001I0J249999D01*
G01*
X63900000Y-82849999D01*
G75*
G02*
X64149999Y-82600000I249999J0D01*
G01*
X64975001Y-82600000D01*
G75*
G02*
X65225000Y-82849999I0J-249999D01*
G01*
G37*
%TD.AperFunction*%
%TD*%
D15*
%TO.P,J5,1*%
%TO.N,Net-(J5-Pad1)*%
X62850000Y-92300000D03*
%TO.P,J5,5*%
%TO.N,Net-(C2-Pad2)*%
X62850000Y-89700000D03*
D14*
%TO.P,J5,*%
%TO.N,*%
X69200000Y-94575000D03*
X69200000Y-87425000D03*
%TD*%
%TO.P,R1,1*%
%TO.N,Net-(R1-Pad1)*%
%TA.AperFunction,SMDPad,CuDef*%
G36*
G01*
X60900000Y-86450001D02*
X60900000Y-85549999D01*
G75*
G02*
X61149999Y-85300000I249999J0D01*
G01*
X61850001Y-85300000D01*
G75*
G02*
X62100000Y-85549999I0J-249999D01*
G01*
X62100000Y-86450001D01*
G75*
G02*
X61850001Y-86700000I-249999J0D01*
G01*
X61149999Y-86700000D01*
G75*
G02*
X60900000Y-86450001I0J249999D01*
G01*
G37*
%TD.AperFunction*%
%TO.P,R1,2*%
%TO.N,Net-(C2-Pad2)*%
%TA.AperFunction,SMDPad,CuDef*%
G36*
G01*
X62900000Y-86450001D02*
X62900000Y-85549999D01*
G75*
G02*
X63149999Y-85300000I249999J0D01*
G01*
X63850001Y-85300000D01*
G75*
G02*
X64100000Y-85549999I0J-249999D01*
G01*
X64100000Y-86450001D01*
G75*
G02*
X63850001Y-86700000I-249999J0D01*
G01*
X63149999Y-86700000D01*
G75*
G02*
X62900000Y-86450001I0J249999D01*
G01*
G37*
%TD.AperFunction*%
%TD*%
D12*
%TO.P,U2,1*%
%TO.N,Net-(U2-Pad1)*%
X85500000Y-98600000D03*
%TO.P,U2,2*%
%TO.N,Net-(U2-Pad2)*%
X87500000Y-98600000D03*
%TO.P,U2,3*%
%TO.N,+3V3*%
X89500000Y-98600000D03*
%TO.P,U2,4*%
%TO.N,Net-(U2-Pad1)*%
X91500000Y-98600000D03*
%TO.P,U2,5*%
%TO.N,Net-(J7-Pad1)*%
X93500000Y-98600000D03*
%TO.P,U2,6*%
%TO.N,Net-(U2-Pad6)*%
X95500000Y-98600000D03*
%TO.P,U2,7*%
%TO.N,Net-(SW1-Pad1)*%
X97500000Y-98600000D03*
%TO.P,U2,8*%
%TO.N,+3V3*%
X99500000Y-98600000D03*
D13*
%TO.P,U2,9*%
%TO.N,Net-(U2-Pad9)*%
X101000000Y-96000000D03*
%TO.P,U2,10*%
%TO.N,Net-(U2-Pad10)*%
X101000000Y-94000000D03*
%TO.P,U2,11*%
%TO.N,Net-(U2-Pad11)*%
X101000000Y-92000000D03*
%TO.P,U2,12*%
%TO.N,Net-(U2-Pad12)*%
X101000000Y-90000000D03*
%TO.P,U2,13*%
%TO.N,Net-(U2-Pad13)*%
X101000000Y-88000000D03*
%TO.P,U2,14*%
%TO.N,Net-(U2-Pad14)*%
X101000000Y-86000000D03*
D12*
%TO.P,U2,15*%
%TO.N,Net-(C2-Pad2)*%
X99500000Y-83400000D03*
%TO.P,U2,16*%
%TO.N,Net-(R1-Pad1)*%
X97500000Y-83400000D03*
%TO.P,U2,17*%
%TO.N,Net-(U2-Pad17)*%
X95500000Y-83400000D03*
%TO.P,U2,18*%
%TO.N,Net-(U2-Pad18)*%
X93500000Y-83400000D03*
%TO.P,U2,19*%
%TO.N,/GPIO4*%
X91500000Y-83400000D03*
%TO.P,U2,20*%
%TO.N,Net-(J7-Pad2)*%
X89500000Y-83400000D03*
%TO.P,U2,21*%
%TO.N,/GPIO3*%
X87500000Y-83400000D03*
%TO.P,U2,22*%
%TO.N,Net-(U2-Pad22)*%
X85500000Y-83400000D03*
%TD*%
D11*
%TO.P,U1,3*%
%TO.N,Net-(J5-Pad1)*%
X69200000Y-84000000D03*
%TO.P,U1,2*%
%TO.N,+3V3*%
X66800000Y-84950000D03*
%TO.P,U1,1*%
%TO.N,Net-(C2-Pad2)*%
X66800000Y-83050000D03*
%TD*%
%TO.P,R5,2*%
%TO.N,Net-(J7-Pad5)*%
%TA.AperFunction,SMDPad,CuDef*%
G36*
G01*
X62100000Y-94049999D02*
X62100000Y-94950001D01*
G75*
G02*
X61850001Y-95200000I-249999J0D01*
G01*
X61149999Y-95200000D01*
G75*
G02*
X60900000Y-94950001I0J249999D01*
G01*
X60900000Y-94049999D01*
G75*
G02*
X61149999Y-93800000I249999J0D01*
G01*
X61850001Y-93800000D01*
G75*
G02*
X62100000Y-94049999I0J-249999D01*
G01*
G37*
%TD.AperFunction*%
%TO.P,R5,1*%
%TO.N,Net-(J7-Pad1)*%
%TA.AperFunction,SMDPad,CuDef*%
G36*
G01*
X64100000Y-94049999D02*
X64100000Y-94950001D01*
G75*
G02*
X63850001Y-95200000I-249999J0D01*
G01*
X63149999Y-95200000D01*
G75*
G02*
X62900000Y-94950001I0J249999D01*
G01*
X62900000Y-94049999D01*
G75*
G02*
X63149999Y-93800000I249999J0D01*
G01*
X63850001Y-93800000D01*
G75*
G02*
X64100000Y-94049999I0J-249999D01*
G01*
G37*
%TD.AperFunction*%
%TD*%
D12*
%TO.P,U2,22*%
%TO.N,Net-(U2-Pad22)*%
X43500000Y-83400000D03*
%TO.P,U2,21*%
%TO.N,/GPIO3*%
X45500000Y-83400000D03*
%TO.P,U2,20*%
%TO.N,Net-(J7-Pad2)*%
X47500000Y-83400000D03*
%TO.P,U2,19*%
%TO.N,/GPIO4*%
X49500000Y-83400000D03*
%TO.P,U2,18*%
%TO.N,Net-(U2-Pad18)*%
X51500000Y-83400000D03*
%TO.P,U2,17*%
%TO.N,Net-(U2-Pad17)*%
X53500000Y-83400000D03*
%TO.P,U2,16*%
%TO.N,Net-(R1-Pad1)*%
X55500000Y-83400000D03*
%TO.P,U2,15*%
%TO.N,Net-(C2-Pad2)*%
X57500000Y-83400000D03*
D13*
%TO.P,U2,14*%
%TO.N,Net-(U2-Pad14)*%
X59000000Y-86000000D03*
%TO.P,U2,13*%
%TO.N,Net-(U2-Pad13)*%
X59000000Y-88000000D03*
%TO.P,U2,12*%
%TO.N,Net-(U2-Pad12)*%
X59000000Y-90000000D03*
%TO.P,U2,11*%
%TO.N,Net-(U2-Pad11)*%
X59000000Y-92000000D03*
%TO.P,U2,10*%
%TO.N,Net-(U2-Pad10)*%
X59000000Y-94000000D03*
%TO.P,U2,9*%
%TO.N,Net-(U2-Pad9)*%
X59000000Y-96000000D03*
D12*
%TO.P,U2,8*%
%TO.N,+3V3*%
X57500000Y-98600000D03*
%TO.P,U2,7*%
%TO.N,Net-(SW1-Pad1)*%
X55500000Y-98600000D03*
%TO.P,U2,6*%
%TO.N,Net-(U2-Pad6)*%
X53500000Y-98600000D03*
%TO.P,U2,5*%
%TO.N,Net-(J7-Pad1)*%
X51500000Y-98600000D03*
%TO.P,U2,4*%
%TO.N,Net-(U2-Pad1)*%
X49500000Y-98600000D03*
%TO.P,U2,3*%
%TO.N,+3V3*%
X47500000Y-98600000D03*
%TO.P,U2,2*%
%TO.N,Net-(U2-Pad2)*%
X45500000Y-98600000D03*
%TO.P,U2,1*%
%TO.N,Net-(U2-Pad1)*%
X43500000Y-98600000D03*
%TD*%
%TO.P,U2,22*%
%TO.N,Net-(U2-Pad22)*%
X85500000Y-64400000D03*
%TO.P,U2,21*%
%TO.N,/GPIO3*%
X87500000Y-64400000D03*
%TO.P,U2,20*%
%TO.N,Net-(J7-Pad2)*%
X89500000Y-64400000D03*
%TO.P,U2,19*%
%TO.N,/GPIO4*%
X91500000Y-64400000D03*
%TO.P,U2,18*%
%TO.N,Net-(U2-Pad18)*%
X93500000Y-64400000D03*
%TO.P,U2,17*%
%TO.N,Net-(U2-Pad17)*%
X95500000Y-64400000D03*
%TO.P,U2,16*%
%TO.N,Net-(R1-Pad1)*%
X97500000Y-64400000D03*
%TO.P,U2,15*%
%TO.N,Net-(C2-Pad2)*%
X99500000Y-64400000D03*
D13*
%TO.P,U2,14*%
%TO.N,Net-(U2-Pad14)*%
X101000000Y-67000000D03*
%TO.P,U2,13*%
%TO.N,Net-(U2-Pad13)*%
X101000000Y-69000000D03*
%TO.P,U2,12*%
%TO.N,Net-(U2-Pad12)*%
X101000000Y-71000000D03*
%TO.P,U2,11*%
%TO.N,Net-(U2-Pad11)*%
X101000000Y-73000000D03*
%TO.P,U2,10*%
%TO.N,Net-(U2-Pad10)*%
X101000000Y-75000000D03*
%TO.P,U2,9*%
%TO.N,Net-(U2-Pad9)*%
X101000000Y-77000000D03*
D12*
%TO.P,U2,8*%
%TO.N,+3V3*%
X99500000Y-79600000D03*
%TO.P,U2,7*%
%TO.N,Net-(SW1-Pad1)*%
X97500000Y-79600000D03*
%TO.P,U2,6*%
%TO.N,Net-(U2-Pad6)*%
X95500000Y-79600000D03*
%TO.P,U2,5*%
%TO.N,Net-(J7-Pad1)*%
X93500000Y-79600000D03*
%TO.P,U2,4*%
%TO.N,Net-(U2-Pad1)*%
X91500000Y-79600000D03*
%TO.P,U2,3*%
%TO.N,+3V3*%
X89500000Y-79600000D03*
%TO.P,U2,2*%
%TO.N,Net-(U2-Pad2)*%
X87500000Y-79600000D03*
%TO.P,U2,1*%
%TO.N,Net-(U2-Pad1)*%
X85500000Y-79600000D03*
%TD*%
D11*
%TO.P,U1,1*%
%TO.N,Net-(C2-Pad2)*%
X66800000Y-64050000D03*
%TO.P,U1,2*%
%TO.N,+3V3*%
X66800000Y-65950000D03*
%TO.P,U1,3*%
%TO.N,Net-(J5-Pad1)*%
X69200000Y-65000000D03*
%TD*%
%TO.P,R5,1*%
%TO.N,Net-(J7-Pad1)*%
%TA.AperFunction,SMDPad,CuDef*%
G36*
G01*
X64100000Y-75049999D02*
X64100000Y-75950001D01*
G75*
G02*
X63850001Y-76200000I-249999J0D01*
G01*
X63149999Y-76200000D01*
G75*
G02*
X62900000Y-75950001I0J249999D01*
G01*
X62900000Y-75049999D01*
G75*
G02*
X63149999Y-74800000I249999J0D01*
G01*
X63850001Y-74800000D01*
G75*
G02*
X64100000Y-75049999I0J-249999D01*
G01*
G37*
%TD.AperFunction*%
%TO.P,R5,2*%
%TO.N,Net-(J7-Pad5)*%
%TA.AperFunction,SMDPad,CuDef*%
G36*
G01*
X62100000Y-75049999D02*
X62100000Y-75950001D01*
G75*
G02*
X61850001Y-76200000I-249999J0D01*
G01*
X61149999Y-76200000D01*
G75*
G02*
X60900000Y-75950001I0J249999D01*
G01*
X60900000Y-75049999D01*
G75*
G02*
X61149999Y-74800000I249999J0D01*
G01*
X61850001Y-74800000D01*
G75*
G02*
X62100000Y-75049999I0J-249999D01*
G01*
G37*
%TD.AperFunction*%
%TD*%
%TO.P,C2,1*%
%TO.N,+3V3*%
%TA.AperFunction,SMDPad,CuDef*%
G36*
G01*
X65225000Y-63849999D02*
X65225000Y-65150001D01*
G75*
G02*
X64975001Y-65400000I-249999J0D01*
G01*
X64149999Y-65400000D01*
G75*
G02*
X63900000Y-65150001I0J249999D01*
G01*
X63900000Y-63849999D01*
G75*
G02*
X64149999Y-63600000I249999J0D01*
G01*
X64975001Y-63600000D01*
G75*
G02*
X65225000Y-63849999I0J-249999D01*
G01*
G37*
%TD.AperFunction*%
%TO.P,C2,2*%
%TO.N,Net-(C2-Pad2)*%
%TA.AperFunction,SMDPad,CuDef*%
G36*
G01*
X62100000Y-63849999D02*
X62100000Y-65150001D01*
G75*
G02*
X61850001Y-65400000I-249999J0D01*
G01*
X61024999Y-65400000D01*
G75*
G02*
X60775000Y-65150001I0J249999D01*
G01*
X60775000Y-63849999D01*
G75*
G02*
X61024999Y-63600000I249999J0D01*
G01*
X61850001Y-63600000D01*
G75*
G02*
X62100000Y-63849999I0J-249999D01*
G01*
G37*
%TD.AperFunction*%
%TD*%
D14*
%TO.P,J5,*%
%TO.N,*%
X69200000Y-68425000D03*
X69200000Y-75575000D03*
D15*
%TO.P,J5,5*%
%TO.N,Net-(C2-Pad2)*%
X62850000Y-70700000D03*
%TO.P,J5,1*%
%TO.N,Net-(J5-Pad1)*%
X62850000Y-73300000D03*
%TD*%
D12*
%TO.P,U2,1*%
%TO.N,Net-(U2-Pad1)*%
X43500000Y-79600000D03*
%TO.P,U2,2*%
%TO.N,Net-(U2-Pad2)*%
X45500000Y-79600000D03*
%TO.P,U2,3*%
%TO.N,+3V3*%
X47500000Y-79600000D03*
%TO.P,U2,4*%
%TO.N,Net-(U2-Pad1)*%
X49500000Y-79600000D03*
%TO.P,U2,5*%
%TO.N,Net-(J7-Pad1)*%
X51500000Y-79600000D03*
%TO.P,U2,6*%
%TO.N,Net-(U2-Pad6)*%
X53500000Y-79600000D03*
%TO.P,U2,7*%
%TO.N,Net-(SW1-Pad1)*%
X55500000Y-79600000D03*
%TO.P,U2,8*%
%TO.N,+3V3*%
X57500000Y-79600000D03*
D13*
%TO.P,U2,9*%
%TO.N,Net-(U2-Pad9)*%
X59000000Y-77000000D03*
%TO.P,U2,10*%
%TO.N,Net-(U2-Pad10)*%
X59000000Y-75000000D03*
%TO.P,U2,11*%
%TO.N,Net-(U2-Pad11)*%
X59000000Y-73000000D03*
%TO.P,U2,12*%
%TO.N,Net-(U2-Pad12)*%
X59000000Y-71000000D03*
%TO.P,U2,13*%
%TO.N,Net-(U2-Pad13)*%
X59000000Y-69000000D03*
%TO.P,U2,14*%
%TO.N,Net-(U2-Pad14)*%
X59000000Y-67000000D03*
D12*
%TO.P,U2,15*%
%TO.N,Net-(C2-Pad2)*%
X57500000Y-64400000D03*
%TO.P,U2,16*%
%TO.N,Net-(R1-Pad1)*%
X55500000Y-64400000D03*
%TO.P,U2,17*%
%TO.N,Net-(U2-Pad17)*%
X53500000Y-64400000D03*
%TO.P,U2,18*%
%TO.N,Net-(U2-Pad18)*%
X51500000Y-64400000D03*
%TO.P,U2,19*%
%TO.N,/GPIO4*%
X49500000Y-64400000D03*
%TO.P,U2,20*%
%TO.N,Net-(J7-Pad2)*%
X47500000Y-64400000D03*
%TO.P,U2,21*%
%TO.N,/GPIO3*%
X45500000Y-64400000D03*
%TO.P,U2,22*%
%TO.N,Net-(U2-Pad22)*%
X43500000Y-64400000D03*
%TD*%
%TO.P,P4,2*%
%TO.N,/GPIO4*%
%TA.AperFunction,SMDPad,CuDef*%
G36*
G01*
X63590000Y-69100000D02*
X63590000Y-68900000D01*
G75*
G02*
X63690000Y-68800000I100000J0D01*
G01*
X64125000Y-68800000D01*
G75*
G02*
X64225000Y-68900000I0J-100000D01*
G01*
X64225000Y-69100000D01*
G75*
G02*
X64125000Y-69200000I-100000J0D01*
G01*
X63690000Y-69200000D01*
G75*
G02*
X63590000Y-69100000I0J100000D01*
G01*
G37*
%TD.AperFunction*%
%TO.P,P4,1*%
%TO.N,Net-(J7-Pad5)*%
%TA.AperFunction,SMDPad,CuDef*%
G36*
G01*
X62775000Y-69100000D02*
X62775000Y-68900000D01*
G75*
G02*
X62875000Y-68800000I100000J0D01*
G01*
X63310000Y-68800000D01*
G75*
G02*
X63410000Y-68900000I0J-100000D01*
G01*
X63410000Y-69100000D01*
G75*
G02*
X63310000Y-69200000I-100000J0D01*
G01*
X62875000Y-69200000D01*
G75*
G02*
X62775000Y-69100000I0J100000D01*
G01*
G37*
%TD.AperFunction*%
%TD*%
%TO.P,P3,1*%
%TO.N,Net-(J7-Pad5)*%
%TA.AperFunction,SMDPad,CuDef*%
G36*
G01*
X62225000Y-68900000D02*
X62225000Y-69100000D01*
G75*
G02*
X62125000Y-69200000I-100000J0D01*
G01*
X61690000Y-69200000D01*
G75*
G02*
X61590000Y-69100000I0J100000D01*
G01*
X61590000Y-68900000D01*
G75*
G02*
X61690000Y-68800000I100000J0D01*
G01*
X62125000Y-68800000D01*
G75*
G02*
X62225000Y-68900000I0J-100000D01*
G01*
G37*
%TD.AperFunction*%
%TO.P,P3,2*%
%TO.N,/GPIO3*%
%TA.AperFunction,SMDPad,CuDef*%
G36*
G01*
X61410000Y-68900000D02*
X61410000Y-69100000D01*
G75*
G02*
X61310000Y-69200000I-100000J0D01*
G01*
X60875000Y-69200000D01*
G75*
G02*
X60775000Y-69100000I0J100000D01*
G01*
X60775000Y-68900000D01*
G75*
G02*
X60875000Y-68800000I100000J0D01*
G01*
X61310000Y-68800000D01*
G75*
G02*
X61410000Y-68900000I0J-100000D01*
G01*
G37*
%TD.AperFunction*%
%TD*%
D16*
%TO.P,SW1,1*%
%TO.N,Net-(SW1-Pad1)*%
X61100000Y-79000000D03*
%TO.P,SW1,2*%
%TO.N,Net-(C2-Pad2)*%
X68900000Y-79000000D03*
%TD*%
%TO.P,R1,2*%
%TO.N,Net-(C2-Pad2)*%
%TA.AperFunction,SMDPad,CuDef*%
G36*
G01*
X62900000Y-67450001D02*
X62900000Y-66549999D01*
G75*
G02*
X63149999Y-66300000I249999J0D01*
G01*
X63850001Y-66300000D01*
G75*
G02*
X64100000Y-66549999I0J-249999D01*
G01*
X64100000Y-67450001D01*
G75*
G02*
X63850001Y-67700000I-249999J0D01*
G01*
X63149999Y-67700000D01*
G75*
G02*
X62900000Y-67450001I0J249999D01*
G01*
G37*
%TD.AperFunction*%
%TO.P,R1,1*%
%TO.N,Net-(R1-Pad1)*%
%TA.AperFunction,SMDPad,CuDef*%
G36*
G01*
X60900000Y-67450001D02*
X60900000Y-66549999D01*
G75*
G02*
X61149999Y-66300000I249999J0D01*
G01*
X61850001Y-66300000D01*
G75*
G02*
X62100000Y-66549999I0J-249999D01*
G01*
X62100000Y-67450001D01*
G75*
G02*
X61850001Y-67700000I-249999J0D01*
G01*
X61149999Y-67700000D01*
G75*
G02*
X60900000Y-67450001I0J249999D01*
G01*
G37*
%TD.AperFunction*%
%TD*%
D17*
%TO.P,J7,6*%
%TO.N,Net-(C2-Pad2)*%
X32540000Y-72080000D03*
%TO.P,J7,5*%
%TO.N,Net-(J7-Pad5)*%
X30000000Y-72080000D03*
%TO.P,J7,4*%
%TO.N,Net-(J7-Pad4)*%
X32540000Y-69540000D03*
%TO.P,J7,3*%
%TO.N,Net-(C2-Pad2)*%
X30000000Y-69540000D03*
%TO.P,J7,2*%
%TO.N,Net-(J7-Pad2)*%
X32540000Y-67000000D03*
D18*
%TO.P,J7,1*%
%TO.N,Net-(J7-Pad1)*%
X30000000Y-67000000D03*
%TD*%
%TO.P,R1,1*%
%TO.N,Net-(R1-Pad1)*%
%TA.AperFunction,SMDPad,CuDef*%
G36*
G01*
X102900000Y-67450001D02*
X102900000Y-66549999D01*
G75*
G02*
X103149999Y-66300000I249999J0D01*
G01*
X103850001Y-66300000D01*
G75*
G02*
X104100000Y-66549999I0J-249999D01*
G01*
X104100000Y-67450001D01*
G75*
G02*
X103850001Y-67700000I-249999J0D01*
G01*
X103149999Y-67700000D01*
G75*
G02*
X102900000Y-67450001I0J249999D01*
G01*
G37*
%TD.AperFunction*%
%TO.P,R1,2*%
%TO.N,Net-(C2-Pad2)*%
%TA.AperFunction,SMDPad,CuDef*%
G36*
G01*
X104900000Y-67450001D02*
X104900000Y-66549999D01*
G75*
G02*
X105149999Y-66300000I249999J0D01*
G01*
X105850001Y-66300000D01*
G75*
G02*
X106100000Y-66549999I0J-249999D01*
G01*
X106100000Y-67450001D01*
G75*
G02*
X105850001Y-67700000I-249999J0D01*
G01*
X105149999Y-67700000D01*
G75*
G02*
X104900000Y-67450001I0J249999D01*
G01*
G37*
%TD.AperFunction*%
%TD*%
%TO.P,C2,2*%
%TO.N,Net-(C2-Pad2)*%
%TA.AperFunction,SMDPad,CuDef*%
G36*
G01*
X104100000Y-63849999D02*
X104100000Y-65150001D01*
G75*
G02*
X103850001Y-65400000I-249999J0D01*
G01*
X103024999Y-65400000D01*
G75*
G02*
X102775000Y-65150001I0J249999D01*
G01*
X102775000Y-63849999D01*
G75*
G02*
X103024999Y-63600000I249999J0D01*
G01*
X103850001Y-63600000D01*
G75*
G02*
X104100000Y-63849999I0J-249999D01*
G01*
G37*
%TD.AperFunction*%
%TO.P,C2,1*%
%TO.N,+3V3*%
%TA.AperFunction,SMDPad,CuDef*%
G36*
G01*
X107225000Y-63849999D02*
X107225000Y-65150001D01*
G75*
G02*
X106975001Y-65400000I-249999J0D01*
G01*
X106149999Y-65400000D01*
G75*
G02*
X105900000Y-65150001I0J249999D01*
G01*
X105900000Y-63849999D01*
G75*
G02*
X106149999Y-63600000I249999J0D01*
G01*
X106975001Y-63600000D01*
G75*
G02*
X107225000Y-63849999I0J-249999D01*
G01*
G37*
%TD.AperFunction*%
%TD*%
%TO.P,P3,2*%
%TO.N,/GPIO3*%
%TA.AperFunction,SMDPad,CuDef*%
G36*
G01*
X103410000Y-68900000D02*
X103410000Y-69100000D01*
G75*
G02*
X103310000Y-69200000I-100000J0D01*
G01*
X102875000Y-69200000D01*
G75*
G02*
X102775000Y-69100000I0J100000D01*
G01*
X102775000Y-68900000D01*
G75*
G02*
X102875000Y-68800000I100000J0D01*
G01*
X103310000Y-68800000D01*
G75*
G02*
X103410000Y-68900000I0J-100000D01*
G01*
G37*
%TD.AperFunction*%
%TO.P,P3,1*%
%TO.N,Net-(J7-Pad5)*%
%TA.AperFunction,SMDPad,CuDef*%
G36*
G01*
X104225000Y-68900000D02*
X104225000Y-69100000D01*
G75*
G02*
X104125000Y-69200000I-100000J0D01*
G01*
X103690000Y-69200000D01*
G75*
G02*
X103590000Y-69100000I0J100000D01*
G01*
X103590000Y-68900000D01*
G75*
G02*
X103690000Y-68800000I100000J0D01*
G01*
X104125000Y-68800000D01*
G75*
G02*
X104225000Y-68900000I0J-100000D01*
G01*
G37*
%TD.AperFunction*%
%TD*%
D15*
%TO.P,J5,1*%
%TO.N,Net-(J5-Pad1)*%
X104850000Y-73300000D03*
%TO.P,J5,5*%
%TO.N,Net-(C2-Pad2)*%
X104850000Y-70700000D03*
D14*
%TO.P,J5,*%
%TO.N,*%
X111200000Y-75575000D03*
X111200000Y-68425000D03*
%TD*%
D18*
%TO.P,J7,1*%
%TO.N,Net-(J7-Pad1)*%
X72000000Y-67000000D03*
D17*
%TO.P,J7,2*%
%TO.N,Net-(J7-Pad2)*%
X74540000Y-67000000D03*
%TO.P,J7,3*%
%TO.N,Net-(C2-Pad2)*%
X72000000Y-69540000D03*
%TO.P,J7,4*%
%TO.N,Net-(J7-Pad4)*%
X74540000Y-69540000D03*
%TO.P,J7,5*%
%TO.N,Net-(J7-Pad5)*%
X72000000Y-72080000D03*
%TO.P,J7,6*%
%TO.N,Net-(C2-Pad2)*%
X74540000Y-72080000D03*
%TD*%
%TO.P,R5,2*%
%TO.N,Net-(J7-Pad5)*%
%TA.AperFunction,SMDPad,CuDef*%
G36*
G01*
X104100000Y-75049999D02*
X104100000Y-75950001D01*
G75*
G02*
X103850001Y-76200000I-249999J0D01*
G01*
X103149999Y-76200000D01*
G75*
G02*
X102900000Y-75950001I0J249999D01*
G01*
X102900000Y-75049999D01*
G75*
G02*
X103149999Y-74800000I249999J0D01*
G01*
X103850001Y-74800000D01*
G75*
G02*
X104100000Y-75049999I0J-249999D01*
G01*
G37*
%TD.AperFunction*%
%TO.P,R5,1*%
%TO.N,Net-(J7-Pad1)*%
%TA.AperFunction,SMDPad,CuDef*%
G36*
G01*
X106100000Y-75049999D02*
X106100000Y-75950001D01*
G75*
G02*
X105850001Y-76200000I-249999J0D01*
G01*
X105149999Y-76200000D01*
G75*
G02*
X104900000Y-75950001I0J249999D01*
G01*
X104900000Y-75049999D01*
G75*
G02*
X105149999Y-74800000I249999J0D01*
G01*
X105850001Y-74800000D01*
G75*
G02*
X106100000Y-75049999I0J-249999D01*
G01*
G37*
%TD.AperFunction*%
%TD*%
D11*
%TO.P,U1,3*%
%TO.N,Net-(J5-Pad1)*%
X111200000Y-65000000D03*
%TO.P,U1,2*%
%TO.N,+3V3*%
X108800000Y-65950000D03*
%TO.P,U1,1*%
%TO.N,Net-(C2-Pad2)*%
X108800000Y-64050000D03*
%TD*%
D16*
%TO.P,SW1,2*%
%TO.N,Net-(C2-Pad2)*%
X110900000Y-79000000D03*
%TO.P,SW1,1*%
%TO.N,Net-(SW1-Pad1)*%
X103100000Y-79000000D03*
%TD*%
%TO.P,P4,1*%
%TO.N,Net-(J7-Pad5)*%
%TA.AperFunction,SMDPad,CuDef*%
G36*
G01*
X104775000Y-69100000D02*
X104775000Y-68900000D01*
G75*
G02*
X104875000Y-68800000I100000J0D01*
G01*
X105310000Y-68800000D01*
G75*
G02*
X105410000Y-68900000I0J-100000D01*
G01*
X105410000Y-69100000D01*
G75*
G02*
X105310000Y-69200000I-100000J0D01*
G01*
X104875000Y-69200000D01*
G75*
G02*
X104775000Y-69100000I0J100000D01*
G01*
G37*
%TD.AperFunction*%
%TO.P,P4,2*%
%TO.N,/GPIO4*%
%TA.AperFunction,SMDPad,CuDef*%
G36*
G01*
X105590000Y-69100000D02*
X105590000Y-68900000D01*
G75*
G02*
X105690000Y-68800000I100000J0D01*
G01*
X106125000Y-68800000D01*
G75*
G02*
X106225000Y-68900000I0J-100000D01*
G01*
X106225000Y-69100000D01*
G75*
G02*
X106125000Y-69200000I-100000J0D01*
G01*
X105690000Y-69200000D01*
G75*
G02*
X105590000Y-69100000I0J100000D01*
G01*
G37*
%TD.AperFunction*%
%TD*%
D17*
%TO.P,J7,6*%
%TO.N,Net-(C2-Pad2)*%
X74540000Y-53080000D03*
%TO.P,J7,5*%
%TO.N,Net-(J7-Pad5)*%
X72000000Y-53080000D03*
%TO.P,J7,4*%
%TO.N,Net-(J7-Pad4)*%
X74540000Y-50540000D03*
%TO.P,J7,3*%
%TO.N,Net-(C2-Pad2)*%
X72000000Y-50540000D03*
%TO.P,J7,2*%
%TO.N,Net-(J7-Pad2)*%
X74540000Y-48000000D03*
D18*
%TO.P,J7,1*%
%TO.N,Net-(J7-Pad1)*%
X72000000Y-48000000D03*
%TD*%
%TO.P,C2,1*%
%TO.N,+3V3*%
%TA.AperFunction,SMDPad,CuDef*%
G36*
G01*
X107225000Y-44849999D02*
X107225000Y-46150001D01*
G75*
G02*
X106975001Y-46400000I-249999J0D01*
G01*
X106149999Y-46400000D01*
G75*
G02*
X105900000Y-46150001I0J249999D01*
G01*
X105900000Y-44849999D01*
G75*
G02*
X106149999Y-44600000I249999J0D01*
G01*
X106975001Y-44600000D01*
G75*
G02*
X107225000Y-44849999I0J-249999D01*
G01*
G37*
%TD.AperFunction*%
%TO.P,C2,2*%
%TO.N,Net-(C2-Pad2)*%
%TA.AperFunction,SMDPad,CuDef*%
G36*
G01*
X104100000Y-44849999D02*
X104100000Y-46150001D01*
G75*
G02*
X103850001Y-46400000I-249999J0D01*
G01*
X103024999Y-46400000D01*
G75*
G02*
X102775000Y-46150001I0J249999D01*
G01*
X102775000Y-44849999D01*
G75*
G02*
X103024999Y-44600000I249999J0D01*
G01*
X103850001Y-44600000D01*
G75*
G02*
X104100000Y-44849999I0J-249999D01*
G01*
G37*
%TD.AperFunction*%
%TD*%
D14*
%TO.P,J5,*%
%TO.N,*%
X111200000Y-49425000D03*
X111200000Y-56575000D03*
D15*
%TO.P,J5,5*%
%TO.N,Net-(C2-Pad2)*%
X104850000Y-51700000D03*
%TO.P,J5,1*%
%TO.N,Net-(J5-Pad1)*%
X104850000Y-54300000D03*
%TD*%
D11*
%TO.P,U1,1*%
%TO.N,Net-(C2-Pad2)*%
X108800000Y-45050000D03*
%TO.P,U1,2*%
%TO.N,+3V3*%
X108800000Y-46950000D03*
%TO.P,U1,3*%
%TO.N,Net-(J5-Pad1)*%
X111200000Y-46000000D03*
%TD*%
D16*
%TO.P,SW1,1*%
%TO.N,Net-(SW1-Pad1)*%
X103100000Y-60000000D03*
%TO.P,SW1,2*%
%TO.N,Net-(C2-Pad2)*%
X110900000Y-60000000D03*
%TD*%
%TO.P,P4,2*%
%TO.N,/GPIO4*%
%TA.AperFunction,SMDPad,CuDef*%
G36*
G01*
X105590000Y-50100000D02*
X105590000Y-49900000D01*
G75*
G02*
X105690000Y-49800000I100000J0D01*
G01*
X106125000Y-49800000D01*
G75*
G02*
X106225000Y-49900000I0J-100000D01*
G01*
X106225000Y-50100000D01*
G75*
G02*
X106125000Y-50200000I-100000J0D01*
G01*
X105690000Y-50200000D01*
G75*
G02*
X105590000Y-50100000I0J100000D01*
G01*
G37*
%TD.AperFunction*%
%TO.P,P4,1*%
%TO.N,Net-(J7-Pad5)*%
%TA.AperFunction,SMDPad,CuDef*%
G36*
G01*
X104775000Y-50100000D02*
X104775000Y-49900000D01*
G75*
G02*
X104875000Y-49800000I100000J0D01*
G01*
X105310000Y-49800000D01*
G75*
G02*
X105410000Y-49900000I0J-100000D01*
G01*
X105410000Y-50100000D01*
G75*
G02*
X105310000Y-50200000I-100000J0D01*
G01*
X104875000Y-50200000D01*
G75*
G02*
X104775000Y-50100000I0J100000D01*
G01*
G37*
%TD.AperFunction*%
%TD*%
%TO.P,R5,1*%
%TO.N,Net-(J7-Pad1)*%
%TA.AperFunction,SMDPad,CuDef*%
G36*
G01*
X106100000Y-56049999D02*
X106100000Y-56950001D01*
G75*
G02*
X105850001Y-57200000I-249999J0D01*
G01*
X105149999Y-57200000D01*
G75*
G02*
X104900000Y-56950001I0J249999D01*
G01*
X104900000Y-56049999D01*
G75*
G02*
X105149999Y-55800000I249999J0D01*
G01*
X105850001Y-55800000D01*
G75*
G02*
X106100000Y-56049999I0J-249999D01*
G01*
G37*
%TD.AperFunction*%
%TO.P,R5,2*%
%TO.N,Net-(J7-Pad5)*%
%TA.AperFunction,SMDPad,CuDef*%
G36*
G01*
X104100000Y-56049999D02*
X104100000Y-56950001D01*
G75*
G02*
X103850001Y-57200000I-249999J0D01*
G01*
X103149999Y-57200000D01*
G75*
G02*
X102900000Y-56950001I0J249999D01*
G01*
X102900000Y-56049999D01*
G75*
G02*
X103149999Y-55800000I249999J0D01*
G01*
X103850001Y-55800000D01*
G75*
G02*
X104100000Y-56049999I0J-249999D01*
G01*
G37*
%TD.AperFunction*%
%TD*%
%TO.P,R1,2*%
%TO.N,Net-(C2-Pad2)*%
%TA.AperFunction,SMDPad,CuDef*%
G36*
G01*
X104900000Y-48450001D02*
X104900000Y-47549999D01*
G75*
G02*
X105149999Y-47300000I249999J0D01*
G01*
X105850001Y-47300000D01*
G75*
G02*
X106100000Y-47549999I0J-249999D01*
G01*
X106100000Y-48450001D01*
G75*
G02*
X105850001Y-48700000I-249999J0D01*
G01*
X105149999Y-48700000D01*
G75*
G02*
X104900000Y-48450001I0J249999D01*
G01*
G37*
%TD.AperFunction*%
%TO.P,R1,1*%
%TO.N,Net-(R1-Pad1)*%
%TA.AperFunction,SMDPad,CuDef*%
G36*
G01*
X102900000Y-48450001D02*
X102900000Y-47549999D01*
G75*
G02*
X103149999Y-47300000I249999J0D01*
G01*
X103850001Y-47300000D01*
G75*
G02*
X104100000Y-47549999I0J-249999D01*
G01*
X104100000Y-48450001D01*
G75*
G02*
X103850001Y-48700000I-249999J0D01*
G01*
X103149999Y-48700000D01*
G75*
G02*
X102900000Y-48450001I0J249999D01*
G01*
G37*
%TD.AperFunction*%
%TD*%
%TO.P,P3,1*%
%TO.N,Net-(J7-Pad5)*%
%TA.AperFunction,SMDPad,CuDef*%
G36*
G01*
X104225000Y-49900000D02*
X104225000Y-50100000D01*
G75*
G02*
X104125000Y-50200000I-100000J0D01*
G01*
X103690000Y-50200000D01*
G75*
G02*
X103590000Y-50100000I0J100000D01*
G01*
X103590000Y-49900000D01*
G75*
G02*
X103690000Y-49800000I100000J0D01*
G01*
X104125000Y-49800000D01*
G75*
G02*
X104225000Y-49900000I0J-100000D01*
G01*
G37*
%TD.AperFunction*%
%TO.P,P3,2*%
%TO.N,/GPIO3*%
%TA.AperFunction,SMDPad,CuDef*%
G36*
G01*
X103410000Y-49900000D02*
X103410000Y-50100000D01*
G75*
G02*
X103310000Y-50200000I-100000J0D01*
G01*
X102875000Y-50200000D01*
G75*
G02*
X102775000Y-50100000I0J100000D01*
G01*
X102775000Y-49900000D01*
G75*
G02*
X102875000Y-49800000I100000J0D01*
G01*
X103310000Y-49800000D01*
G75*
G02*
X103410000Y-49900000I0J-100000D01*
G01*
G37*
%TD.AperFunction*%
%TD*%
D12*
%TO.P,U2,1*%
%TO.N,Net-(U2-Pad1)*%
X85500000Y-60600000D03*
%TO.P,U2,2*%
%TO.N,Net-(U2-Pad2)*%
X87500000Y-60600000D03*
%TO.P,U2,3*%
%TO.N,+3V3*%
X89500000Y-60600000D03*
%TO.P,U2,4*%
%TO.N,Net-(U2-Pad1)*%
X91500000Y-60600000D03*
%TO.P,U2,5*%
%TO.N,Net-(J7-Pad1)*%
X93500000Y-60600000D03*
%TO.P,U2,6*%
%TO.N,Net-(U2-Pad6)*%
X95500000Y-60600000D03*
%TO.P,U2,7*%
%TO.N,Net-(SW1-Pad1)*%
X97500000Y-60600000D03*
%TO.P,U2,8*%
%TO.N,+3V3*%
X99500000Y-60600000D03*
D13*
%TO.P,U2,9*%
%TO.N,Net-(U2-Pad9)*%
X101000000Y-58000000D03*
%TO.P,U2,10*%
%TO.N,Net-(U2-Pad10)*%
X101000000Y-56000000D03*
%TO.P,U2,11*%
%TO.N,Net-(U2-Pad11)*%
X101000000Y-54000000D03*
%TO.P,U2,12*%
%TO.N,Net-(U2-Pad12)*%
X101000000Y-52000000D03*
%TO.P,U2,13*%
%TO.N,Net-(U2-Pad13)*%
X101000000Y-50000000D03*
%TO.P,U2,14*%
%TO.N,Net-(U2-Pad14)*%
X101000000Y-48000000D03*
D12*
%TO.P,U2,15*%
%TO.N,Net-(C2-Pad2)*%
X99500000Y-45400000D03*
%TO.P,U2,16*%
%TO.N,Net-(R1-Pad1)*%
X97500000Y-45400000D03*
%TO.P,U2,17*%
%TO.N,Net-(U2-Pad17)*%
X95500000Y-45400000D03*
%TO.P,U2,18*%
%TO.N,Net-(U2-Pad18)*%
X93500000Y-45400000D03*
%TO.P,U2,19*%
%TO.N,/GPIO4*%
X91500000Y-45400000D03*
%TO.P,U2,20*%
%TO.N,Net-(J7-Pad2)*%
X89500000Y-45400000D03*
%TO.P,U2,21*%
%TO.N,/GPIO3*%
X87500000Y-45400000D03*
%TO.P,U2,22*%
%TO.N,Net-(U2-Pad22)*%
X85500000Y-45400000D03*
%TD*%
D11*
%TO.P,U1,3*%
%TO.N,Net-(J5-Pad1)*%
X69200000Y-46000000D03*
%TO.P,U1,2*%
%TO.N,+3V3*%
X66800000Y-46950000D03*
%TO.P,U1,1*%
%TO.N,Net-(C2-Pad2)*%
X66800000Y-45050000D03*
%TD*%
D12*
%TO.P,U2,22*%
%TO.N,Net-(U2-Pad22)*%
X43500000Y-45400000D03*
%TO.P,U2,21*%
%TO.N,/GPIO3*%
X45500000Y-45400000D03*
%TO.P,U2,20*%
%TO.N,Net-(J7-Pad2)*%
X47500000Y-45400000D03*
%TO.P,U2,19*%
%TO.N,/GPIO4*%
X49500000Y-45400000D03*
%TO.P,U2,18*%
%TO.N,Net-(U2-Pad18)*%
X51500000Y-45400000D03*
%TO.P,U2,17*%
%TO.N,Net-(U2-Pad17)*%
X53500000Y-45400000D03*
%TO.P,U2,16*%
%TO.N,Net-(R1-Pad1)*%
X55500000Y-45400000D03*
%TO.P,U2,15*%
%TO.N,Net-(C2-Pad2)*%
X57500000Y-45400000D03*
D13*
%TO.P,U2,14*%
%TO.N,Net-(U2-Pad14)*%
X59000000Y-48000000D03*
%TO.P,U2,13*%
%TO.N,Net-(U2-Pad13)*%
X59000000Y-50000000D03*
%TO.P,U2,12*%
%TO.N,Net-(U2-Pad12)*%
X59000000Y-52000000D03*
%TO.P,U2,11*%
%TO.N,Net-(U2-Pad11)*%
X59000000Y-54000000D03*
%TO.P,U2,10*%
%TO.N,Net-(U2-Pad10)*%
X59000000Y-56000000D03*
%TO.P,U2,9*%
%TO.N,Net-(U2-Pad9)*%
X59000000Y-58000000D03*
D12*
%TO.P,U2,8*%
%TO.N,+3V3*%
X57500000Y-60600000D03*
%TO.P,U2,7*%
%TO.N,Net-(SW1-Pad1)*%
X55500000Y-60600000D03*
%TO.P,U2,6*%
%TO.N,Net-(U2-Pad6)*%
X53500000Y-60600000D03*
%TO.P,U2,5*%
%TO.N,Net-(J7-Pad1)*%
X51500000Y-60600000D03*
%TO.P,U2,4*%
%TO.N,Net-(U2-Pad1)*%
X49500000Y-60600000D03*
%TO.P,U2,3*%
%TO.N,+3V3*%
X47500000Y-60600000D03*
%TO.P,U2,2*%
%TO.N,Net-(U2-Pad2)*%
X45500000Y-60600000D03*
%TO.P,U2,1*%
%TO.N,Net-(U2-Pad1)*%
X43500000Y-60600000D03*
%TD*%
D16*
%TO.P,SW1,2*%
%TO.N,Net-(C2-Pad2)*%
X68900000Y-60000000D03*
%TO.P,SW1,1*%
%TO.N,Net-(SW1-Pad1)*%
X61100000Y-60000000D03*
%TD*%
%TO.P,R5,2*%
%TO.N,Net-(J7-Pad5)*%
%TA.AperFunction,SMDPad,CuDef*%
G36*
G01*
X62100000Y-56049999D02*
X62100000Y-56950001D01*
G75*
G02*
X61850001Y-57200000I-249999J0D01*
G01*
X61149999Y-57200000D01*
G75*
G02*
X60900000Y-56950001I0J249999D01*
G01*
X60900000Y-56049999D01*
G75*
G02*
X61149999Y-55800000I249999J0D01*
G01*
X61850001Y-55800000D01*
G75*
G02*
X62100000Y-56049999I0J-249999D01*
G01*
G37*
%TD.AperFunction*%
%TO.P,R5,1*%
%TO.N,Net-(J7-Pad1)*%
%TA.AperFunction,SMDPad,CuDef*%
G36*
G01*
X64100000Y-56049999D02*
X64100000Y-56950001D01*
G75*
G02*
X63850001Y-57200000I-249999J0D01*
G01*
X63149999Y-57200000D01*
G75*
G02*
X62900000Y-56950001I0J249999D01*
G01*
X62900000Y-56049999D01*
G75*
G02*
X63149999Y-55800000I249999J0D01*
G01*
X63850001Y-55800000D01*
G75*
G02*
X64100000Y-56049999I0J-249999D01*
G01*
G37*
%TD.AperFunction*%
%TD*%
%TO.P,R1,1*%
%TO.N,Net-(R1-Pad1)*%
%TA.AperFunction,SMDPad,CuDef*%
G36*
G01*
X60900000Y-48450001D02*
X60900000Y-47549999D01*
G75*
G02*
X61149999Y-47300000I249999J0D01*
G01*
X61850001Y-47300000D01*
G75*
G02*
X62100000Y-47549999I0J-249999D01*
G01*
X62100000Y-48450001D01*
G75*
G02*
X61850001Y-48700000I-249999J0D01*
G01*
X61149999Y-48700000D01*
G75*
G02*
X60900000Y-48450001I0J249999D01*
G01*
G37*
%TD.AperFunction*%
%TO.P,R1,2*%
%TO.N,Net-(C2-Pad2)*%
%TA.AperFunction,SMDPad,CuDef*%
G36*
G01*
X62900000Y-48450001D02*
X62900000Y-47549999D01*
G75*
G02*
X63149999Y-47300000I249999J0D01*
G01*
X63850001Y-47300000D01*
G75*
G02*
X64100000Y-47549999I0J-249999D01*
G01*
X64100000Y-48450001D01*
G75*
G02*
X63850001Y-48700000I-249999J0D01*
G01*
X63149999Y-48700000D01*
G75*
G02*
X62900000Y-48450001I0J249999D01*
G01*
G37*
%TD.AperFunction*%
%TD*%
%TO.P,P4,1*%
%TO.N,Net-(J7-Pad5)*%
%TA.AperFunction,SMDPad,CuDef*%
G36*
G01*
X62775000Y-50100000D02*
X62775000Y-49900000D01*
G75*
G02*
X62875000Y-49800000I100000J0D01*
G01*
X63310000Y-49800000D01*
G75*
G02*
X63410000Y-49900000I0J-100000D01*
G01*
X63410000Y-50100000D01*
G75*
G02*
X63310000Y-50200000I-100000J0D01*
G01*
X62875000Y-50200000D01*
G75*
G02*
X62775000Y-50100000I0J100000D01*
G01*
G37*
%TD.AperFunction*%
%TO.P,P4,2*%
%TO.N,/GPIO4*%
%TA.AperFunction,SMDPad,CuDef*%
G36*
G01*
X63590000Y-50100000D02*
X63590000Y-49900000D01*
G75*
G02*
X63690000Y-49800000I100000J0D01*
G01*
X64125000Y-49800000D01*
G75*
G02*
X64225000Y-49900000I0J-100000D01*
G01*
X64225000Y-50100000D01*
G75*
G02*
X64125000Y-50200000I-100000J0D01*
G01*
X63690000Y-50200000D01*
G75*
G02*
X63590000Y-50100000I0J100000D01*
G01*
G37*
%TD.AperFunction*%
%TD*%
%TO.P,C2,2*%
%TO.N,Net-(C2-Pad2)*%
%TA.AperFunction,SMDPad,CuDef*%
G36*
G01*
X62100000Y-44849999D02*
X62100000Y-46150001D01*
G75*
G02*
X61850001Y-46400000I-249999J0D01*
G01*
X61024999Y-46400000D01*
G75*
G02*
X60775000Y-46150001I0J249999D01*
G01*
X60775000Y-44849999D01*
G75*
G02*
X61024999Y-44600000I249999J0D01*
G01*
X61850001Y-44600000D01*
G75*
G02*
X62100000Y-44849999I0J-249999D01*
G01*
G37*
%TD.AperFunction*%
%TO.P,C2,1*%
%TO.N,+3V3*%
%TA.AperFunction,SMDPad,CuDef*%
G36*
G01*
X65225000Y-44849999D02*
X65225000Y-46150001D01*
G75*
G02*
X64975001Y-46400000I-249999J0D01*
G01*
X64149999Y-46400000D01*
G75*
G02*
X63900000Y-46150001I0J249999D01*
G01*
X63900000Y-44849999D01*
G75*
G02*
X64149999Y-44600000I249999J0D01*
G01*
X64975001Y-44600000D01*
G75*
G02*
X65225000Y-44849999I0J-249999D01*
G01*
G37*
%TD.AperFunction*%
%TD*%
%TO.P,P3,2*%
%TO.N,/GPIO3*%
%TA.AperFunction,SMDPad,CuDef*%
G36*
G01*
X61410000Y-49900000D02*
X61410000Y-50100000D01*
G75*
G02*
X61310000Y-50200000I-100000J0D01*
G01*
X60875000Y-50200000D01*
G75*
G02*
X60775000Y-50100000I0J100000D01*
G01*
X60775000Y-49900000D01*
G75*
G02*
X60875000Y-49800000I100000J0D01*
G01*
X61310000Y-49800000D01*
G75*
G02*
X61410000Y-49900000I0J-100000D01*
G01*
G37*
%TD.AperFunction*%
%TO.P,P3,1*%
%TO.N,Net-(J7-Pad5)*%
%TA.AperFunction,SMDPad,CuDef*%
G36*
G01*
X62225000Y-49900000D02*
X62225000Y-50100000D01*
G75*
G02*
X62125000Y-50200000I-100000J0D01*
G01*
X61690000Y-50200000D01*
G75*
G02*
X61590000Y-50100000I0J100000D01*
G01*
X61590000Y-49900000D01*
G75*
G02*
X61690000Y-49800000I100000J0D01*
G01*
X62125000Y-49800000D01*
G75*
G02*
X62225000Y-49900000I0J-100000D01*
G01*
G37*
%TD.AperFunction*%
%TD*%
D15*
%TO.P,J5,1*%
%TO.N,Net-(J5-Pad1)*%
X62850000Y-54300000D03*
%TO.P,J5,5*%
%TO.N,Net-(C2-Pad2)*%
X62850000Y-51700000D03*
D14*
%TO.P,J5,*%
%TO.N,*%
X69200000Y-56575000D03*
X69200000Y-49425000D03*
%TD*%
D18*
%TO.P,J7,1*%
%TO.N,Net-(J7-Pad1)*%
X30000000Y-48000000D03*
D17*
%TO.P,J7,2*%
%TO.N,Net-(J7-Pad2)*%
X32540000Y-48000000D03*
%TO.P,J7,3*%
%TO.N,Net-(C2-Pad2)*%
X30000000Y-50540000D03*
%TO.P,J7,4*%
%TO.N,Net-(J7-Pad4)*%
X32540000Y-50540000D03*
%TO.P,J7,5*%
%TO.N,Net-(J7-Pad5)*%
X30000000Y-53080000D03*
%TO.P,J7,6*%
%TO.N,Net-(C2-Pad2)*%
X32540000Y-53080000D03*
%TD*%
D11*
%TO.P,U1,3*%
%TO.N,Net-(J5-Pad1)*%
X111200000Y-27000000D03*
%TO.P,U1,2*%
%TO.N,+3V3*%
X108800000Y-27950000D03*
%TO.P,U1,1*%
%TO.N,Net-(C2-Pad2)*%
X108800000Y-26050000D03*
%TD*%
D12*
%TO.P,U2,22*%
%TO.N,Net-(U2-Pad22)*%
X85500000Y-26400000D03*
%TO.P,U2,21*%
%TO.N,/GPIO3*%
X87500000Y-26400000D03*
%TO.P,U2,20*%
%TO.N,Net-(J7-Pad2)*%
X89500000Y-26400000D03*
%TO.P,U2,19*%
%TO.N,/GPIO4*%
X91500000Y-26400000D03*
%TO.P,U2,18*%
%TO.N,Net-(U2-Pad18)*%
X93500000Y-26400000D03*
%TO.P,U2,17*%
%TO.N,Net-(U2-Pad17)*%
X95500000Y-26400000D03*
%TO.P,U2,16*%
%TO.N,Net-(R1-Pad1)*%
X97500000Y-26400000D03*
%TO.P,U2,15*%
%TO.N,Net-(C2-Pad2)*%
X99500000Y-26400000D03*
D13*
%TO.P,U2,14*%
%TO.N,Net-(U2-Pad14)*%
X101000000Y-29000000D03*
%TO.P,U2,13*%
%TO.N,Net-(U2-Pad13)*%
X101000000Y-31000000D03*
%TO.P,U2,12*%
%TO.N,Net-(U2-Pad12)*%
X101000000Y-33000000D03*
%TO.P,U2,11*%
%TO.N,Net-(U2-Pad11)*%
X101000000Y-35000000D03*
%TO.P,U2,10*%
%TO.N,Net-(U2-Pad10)*%
X101000000Y-37000000D03*
%TO.P,U2,9*%
%TO.N,Net-(U2-Pad9)*%
X101000000Y-39000000D03*
D12*
%TO.P,U2,8*%
%TO.N,+3V3*%
X99500000Y-41600000D03*
%TO.P,U2,7*%
%TO.N,Net-(SW1-Pad1)*%
X97500000Y-41600000D03*
%TO.P,U2,6*%
%TO.N,Net-(U2-Pad6)*%
X95500000Y-41600000D03*
%TO.P,U2,5*%
%TO.N,Net-(J7-Pad1)*%
X93500000Y-41600000D03*
%TO.P,U2,4*%
%TO.N,Net-(U2-Pad1)*%
X91500000Y-41600000D03*
%TO.P,U2,3*%
%TO.N,+3V3*%
X89500000Y-41600000D03*
%TO.P,U2,2*%
%TO.N,Net-(U2-Pad2)*%
X87500000Y-41600000D03*
%TO.P,U2,1*%
%TO.N,Net-(U2-Pad1)*%
X85500000Y-41600000D03*
%TD*%
D16*
%TO.P,SW1,2*%
%TO.N,Net-(C2-Pad2)*%
X110900000Y-41000000D03*
%TO.P,SW1,1*%
%TO.N,Net-(SW1-Pad1)*%
X103100000Y-41000000D03*
%TD*%
%TO.P,R5,2*%
%TO.N,Net-(J7-Pad5)*%
%TA.AperFunction,SMDPad,CuDef*%
G36*
G01*
X104100000Y-37049999D02*
X104100000Y-37950001D01*
G75*
G02*
X103850001Y-38200000I-249999J0D01*
G01*
X103149999Y-38200000D01*
G75*
G02*
X102900000Y-37950001I0J249999D01*
G01*
X102900000Y-37049999D01*
G75*
G02*
X103149999Y-36800000I249999J0D01*
G01*
X103850001Y-36800000D01*
G75*
G02*
X104100000Y-37049999I0J-249999D01*
G01*
G37*
%TD.AperFunction*%
%TO.P,R5,1*%
%TO.N,Net-(J7-Pad1)*%
%TA.AperFunction,SMDPad,CuDef*%
G36*
G01*
X106100000Y-37049999D02*
X106100000Y-37950001D01*
G75*
G02*
X105850001Y-38200000I-249999J0D01*
G01*
X105149999Y-38200000D01*
G75*
G02*
X104900000Y-37950001I0J249999D01*
G01*
X104900000Y-37049999D01*
G75*
G02*
X105149999Y-36800000I249999J0D01*
G01*
X105850001Y-36800000D01*
G75*
G02*
X106100000Y-37049999I0J-249999D01*
G01*
G37*
%TD.AperFunction*%
%TD*%
%TO.P,R1,1*%
%TO.N,Net-(R1-Pad1)*%
%TA.AperFunction,SMDPad,CuDef*%
G36*
G01*
X102900000Y-29450001D02*
X102900000Y-28549999D01*
G75*
G02*
X103149999Y-28300000I249999J0D01*
G01*
X103850001Y-28300000D01*
G75*
G02*
X104100000Y-28549999I0J-249999D01*
G01*
X104100000Y-29450001D01*
G75*
G02*
X103850001Y-29700000I-249999J0D01*
G01*
X103149999Y-29700000D01*
G75*
G02*
X102900000Y-29450001I0J249999D01*
G01*
G37*
%TD.AperFunction*%
%TO.P,R1,2*%
%TO.N,Net-(C2-Pad2)*%
%TA.AperFunction,SMDPad,CuDef*%
G36*
G01*
X104900000Y-29450001D02*
X104900000Y-28549999D01*
G75*
G02*
X105149999Y-28300000I249999J0D01*
G01*
X105850001Y-28300000D01*
G75*
G02*
X106100000Y-28549999I0J-249999D01*
G01*
X106100000Y-29450001D01*
G75*
G02*
X105850001Y-29700000I-249999J0D01*
G01*
X105149999Y-29700000D01*
G75*
G02*
X104900000Y-29450001I0J249999D01*
G01*
G37*
%TD.AperFunction*%
%TD*%
%TO.P,P4,1*%
%TO.N,Net-(J7-Pad5)*%
%TA.AperFunction,SMDPad,CuDef*%
G36*
G01*
X104775000Y-31100000D02*
X104775000Y-30900000D01*
G75*
G02*
X104875000Y-30800000I100000J0D01*
G01*
X105310000Y-30800000D01*
G75*
G02*
X105410000Y-30900000I0J-100000D01*
G01*
X105410000Y-31100000D01*
G75*
G02*
X105310000Y-31200000I-100000J0D01*
G01*
X104875000Y-31200000D01*
G75*
G02*
X104775000Y-31100000I0J100000D01*
G01*
G37*
%TD.AperFunction*%
%TO.P,P4,2*%
%TO.N,/GPIO4*%
%TA.AperFunction,SMDPad,CuDef*%
G36*
G01*
X105590000Y-31100000D02*
X105590000Y-30900000D01*
G75*
G02*
X105690000Y-30800000I100000J0D01*
G01*
X106125000Y-30800000D01*
G75*
G02*
X106225000Y-30900000I0J-100000D01*
G01*
X106225000Y-31100000D01*
G75*
G02*
X106125000Y-31200000I-100000J0D01*
G01*
X105690000Y-31200000D01*
G75*
G02*
X105590000Y-31100000I0J100000D01*
G01*
G37*
%TD.AperFunction*%
%TD*%
%TO.P,C2,2*%
%TO.N,Net-(C2-Pad2)*%
%TA.AperFunction,SMDPad,CuDef*%
G36*
G01*
X104100000Y-25849999D02*
X104100000Y-27150001D01*
G75*
G02*
X103850001Y-27400000I-249999J0D01*
G01*
X103024999Y-27400000D01*
G75*
G02*
X102775000Y-27150001I0J249999D01*
G01*
X102775000Y-25849999D01*
G75*
G02*
X103024999Y-25600000I249999J0D01*
G01*
X103850001Y-25600000D01*
G75*
G02*
X104100000Y-25849999I0J-249999D01*
G01*
G37*
%TD.AperFunction*%
%TO.P,C2,1*%
%TO.N,+3V3*%
%TA.AperFunction,SMDPad,CuDef*%
G36*
G01*
X107225000Y-25849999D02*
X107225000Y-27150001D01*
G75*
G02*
X106975001Y-27400000I-249999J0D01*
G01*
X106149999Y-27400000D01*
G75*
G02*
X105900000Y-27150001I0J249999D01*
G01*
X105900000Y-25849999D01*
G75*
G02*
X106149999Y-25600000I249999J0D01*
G01*
X106975001Y-25600000D01*
G75*
G02*
X107225000Y-25849999I0J-249999D01*
G01*
G37*
%TD.AperFunction*%
%TD*%
%TO.P,P3,2*%
%TO.N,/GPIO3*%
%TA.AperFunction,SMDPad,CuDef*%
G36*
G01*
X103410000Y-30900000D02*
X103410000Y-31100000D01*
G75*
G02*
X103310000Y-31200000I-100000J0D01*
G01*
X102875000Y-31200000D01*
G75*
G02*
X102775000Y-31100000I0J100000D01*
G01*
X102775000Y-30900000D01*
G75*
G02*
X102875000Y-30800000I100000J0D01*
G01*
X103310000Y-30800000D01*
G75*
G02*
X103410000Y-30900000I0J-100000D01*
G01*
G37*
%TD.AperFunction*%
%TO.P,P3,1*%
%TO.N,Net-(J7-Pad5)*%
%TA.AperFunction,SMDPad,CuDef*%
G36*
G01*
X104225000Y-30900000D02*
X104225000Y-31100000D01*
G75*
G02*
X104125000Y-31200000I-100000J0D01*
G01*
X103690000Y-31200000D01*
G75*
G02*
X103590000Y-31100000I0J100000D01*
G01*
X103590000Y-30900000D01*
G75*
G02*
X103690000Y-30800000I100000J0D01*
G01*
X104125000Y-30800000D01*
G75*
G02*
X104225000Y-30900000I0J-100000D01*
G01*
G37*
%TD.AperFunction*%
%TD*%
D15*
%TO.P,J5,1*%
%TO.N,Net-(J5-Pad1)*%
X104850000Y-35300000D03*
%TO.P,J5,5*%
%TO.N,Net-(C2-Pad2)*%
X104850000Y-32700000D03*
D14*
%TO.P,J5,*%
%TO.N,*%
X111200000Y-37575000D03*
X111200000Y-30425000D03*
%TD*%
D18*
%TO.P,J7,1*%
%TO.N,Net-(J7-Pad1)*%
X72000000Y-29000000D03*
D17*
%TO.P,J7,2*%
%TO.N,Net-(J7-Pad2)*%
X74540000Y-29000000D03*
%TO.P,J7,3*%
%TO.N,Net-(C2-Pad2)*%
X72000000Y-31540000D03*
%TO.P,J7,4*%
%TO.N,Net-(J7-Pad4)*%
X74540000Y-31540000D03*
%TO.P,J7,5*%
%TO.N,Net-(J7-Pad5)*%
X72000000Y-34080000D03*
%TO.P,J7,6*%
%TO.N,Net-(C2-Pad2)*%
X74540000Y-34080000D03*
%TD*%
%TO.P,J7,6*%
%TO.N,Net-(C2-Pad2)*%
X32540000Y-34080000D03*
%TO.P,J7,5*%
%TO.N,Net-(J7-Pad5)*%
X30000000Y-34080000D03*
%TO.P,J7,4*%
%TO.N,Net-(J7-Pad4)*%
X32540000Y-31540000D03*
%TO.P,J7,3*%
%TO.N,Net-(C2-Pad2)*%
X30000000Y-31540000D03*
%TO.P,J7,2*%
%TO.N,Net-(J7-Pad2)*%
X32540000Y-29000000D03*
D18*
%TO.P,J7,1*%
%TO.N,Net-(J7-Pad1)*%
X30000000Y-29000000D03*
%TD*%
%TO.P,C2,1*%
%TO.N,+3V3*%
%TA.AperFunction,SMDPad,CuDef*%
G36*
G01*
X65225000Y-25849999D02*
X65225000Y-27150001D01*
G75*
G02*
X64975001Y-27400000I-249999J0D01*
G01*
X64149999Y-27400000D01*
G75*
G02*
X63900000Y-27150001I0J249999D01*
G01*
X63900000Y-25849999D01*
G75*
G02*
X64149999Y-25600000I249999J0D01*
G01*
X64975001Y-25600000D01*
G75*
G02*
X65225000Y-25849999I0J-249999D01*
G01*
G37*
%TD.AperFunction*%
%TO.P,C2,2*%
%TO.N,Net-(C2-Pad2)*%
%TA.AperFunction,SMDPad,CuDef*%
G36*
G01*
X62100000Y-25849999D02*
X62100000Y-27150001D01*
G75*
G02*
X61850001Y-27400000I-249999J0D01*
G01*
X61024999Y-27400000D01*
G75*
G02*
X60775000Y-27150001I0J249999D01*
G01*
X60775000Y-25849999D01*
G75*
G02*
X61024999Y-25600000I249999J0D01*
G01*
X61850001Y-25600000D01*
G75*
G02*
X62100000Y-25849999I0J-249999D01*
G01*
G37*
%TD.AperFunction*%
%TD*%
D14*
%TO.P,J5,*%
%TO.N,*%
X69200000Y-30425000D03*
X69200000Y-37575000D03*
D15*
%TO.P,J5,5*%
%TO.N,Net-(C2-Pad2)*%
X62850000Y-32700000D03*
%TO.P,J5,1*%
%TO.N,Net-(J5-Pad1)*%
X62850000Y-35300000D03*
%TD*%
%TO.P,P3,1*%
%TO.N,Net-(J7-Pad5)*%
%TA.AperFunction,SMDPad,CuDef*%
G36*
G01*
X62225000Y-30900000D02*
X62225000Y-31100000D01*
G75*
G02*
X62125000Y-31200000I-100000J0D01*
G01*
X61690000Y-31200000D01*
G75*
G02*
X61590000Y-31100000I0J100000D01*
G01*
X61590000Y-30900000D01*
G75*
G02*
X61690000Y-30800000I100000J0D01*
G01*
X62125000Y-30800000D01*
G75*
G02*
X62225000Y-30900000I0J-100000D01*
G01*
G37*
%TD.AperFunction*%
%TO.P,P3,2*%
%TO.N,/GPIO3*%
%TA.AperFunction,SMDPad,CuDef*%
G36*
G01*
X61410000Y-30900000D02*
X61410000Y-31100000D01*
G75*
G02*
X61310000Y-31200000I-100000J0D01*
G01*
X60875000Y-31200000D01*
G75*
G02*
X60775000Y-31100000I0J100000D01*
G01*
X60775000Y-30900000D01*
G75*
G02*
X60875000Y-30800000I100000J0D01*
G01*
X61310000Y-30800000D01*
G75*
G02*
X61410000Y-30900000I0J-100000D01*
G01*
G37*
%TD.AperFunction*%
%TD*%
%TO.P,P4,2*%
%TO.N,/GPIO4*%
%TA.AperFunction,SMDPad,CuDef*%
G36*
G01*
X63590000Y-31100000D02*
X63590000Y-30900000D01*
G75*
G02*
X63690000Y-30800000I100000J0D01*
G01*
X64125000Y-30800000D01*
G75*
G02*
X64225000Y-30900000I0J-100000D01*
G01*
X64225000Y-31100000D01*
G75*
G02*
X64125000Y-31200000I-100000J0D01*
G01*
X63690000Y-31200000D01*
G75*
G02*
X63590000Y-31100000I0J100000D01*
G01*
G37*
%TD.AperFunction*%
%TO.P,P4,1*%
%TO.N,Net-(J7-Pad5)*%
%TA.AperFunction,SMDPad,CuDef*%
G36*
G01*
X62775000Y-31100000D02*
X62775000Y-30900000D01*
G75*
G02*
X62875000Y-30800000I100000J0D01*
G01*
X63310000Y-30800000D01*
G75*
G02*
X63410000Y-30900000I0J-100000D01*
G01*
X63410000Y-31100000D01*
G75*
G02*
X63310000Y-31200000I-100000J0D01*
G01*
X62875000Y-31200000D01*
G75*
G02*
X62775000Y-31100000I0J100000D01*
G01*
G37*
%TD.AperFunction*%
%TD*%
%TO.P,R1,2*%
%TO.N,Net-(C2-Pad2)*%
%TA.AperFunction,SMDPad,CuDef*%
G36*
G01*
X62900000Y-29450001D02*
X62900000Y-28549999D01*
G75*
G02*
X63149999Y-28300000I249999J0D01*
G01*
X63850001Y-28300000D01*
G75*
G02*
X64100000Y-28549999I0J-249999D01*
G01*
X64100000Y-29450001D01*
G75*
G02*
X63850001Y-29700000I-249999J0D01*
G01*
X63149999Y-29700000D01*
G75*
G02*
X62900000Y-29450001I0J249999D01*
G01*
G37*
%TD.AperFunction*%
%TO.P,R1,1*%
%TO.N,Net-(R1-Pad1)*%
%TA.AperFunction,SMDPad,CuDef*%
G36*
G01*
X60900000Y-29450001D02*
X60900000Y-28549999D01*
G75*
G02*
X61149999Y-28300000I249999J0D01*
G01*
X61850001Y-28300000D01*
G75*
G02*
X62100000Y-28549999I0J-249999D01*
G01*
X62100000Y-29450001D01*
G75*
G02*
X61850001Y-29700000I-249999J0D01*
G01*
X61149999Y-29700000D01*
G75*
G02*
X60900000Y-29450001I0J249999D01*
G01*
G37*
%TD.AperFunction*%
%TD*%
%TO.P,R5,1*%
%TO.N,Net-(J7-Pad1)*%
%TA.AperFunction,SMDPad,CuDef*%
G36*
G01*
X64100000Y-37049999D02*
X64100000Y-37950001D01*
G75*
G02*
X63850001Y-38200000I-249999J0D01*
G01*
X63149999Y-38200000D01*
G75*
G02*
X62900000Y-37950001I0J249999D01*
G01*
X62900000Y-37049999D01*
G75*
G02*
X63149999Y-36800000I249999J0D01*
G01*
X63850001Y-36800000D01*
G75*
G02*
X64100000Y-37049999I0J-249999D01*
G01*
G37*
%TD.AperFunction*%
%TO.P,R5,2*%
%TO.N,Net-(J7-Pad5)*%
%TA.AperFunction,SMDPad,CuDef*%
G36*
G01*
X62100000Y-37049999D02*
X62100000Y-37950001D01*
G75*
G02*
X61850001Y-38200000I-249999J0D01*
G01*
X61149999Y-38200000D01*
G75*
G02*
X60900000Y-37950001I0J249999D01*
G01*
X60900000Y-37049999D01*
G75*
G02*
X61149999Y-36800000I249999J0D01*
G01*
X61850001Y-36800000D01*
G75*
G02*
X62100000Y-37049999I0J-249999D01*
G01*
G37*
%TD.AperFunction*%
%TD*%
D16*
%TO.P,SW1,1*%
%TO.N,Net-(SW1-Pad1)*%
X61100000Y-41000000D03*
%TO.P,SW1,2*%
%TO.N,Net-(C2-Pad2)*%
X68900000Y-41000000D03*
%TD*%
D11*
%TO.P,U1,1*%
%TO.N,Net-(C2-Pad2)*%
X66800000Y-26050000D03*
%TO.P,U1,2*%
%TO.N,+3V3*%
X66800000Y-27950000D03*
%TO.P,U1,3*%
%TO.N,Net-(J5-Pad1)*%
X69200000Y-27000000D03*
%TD*%
D12*
%TO.P,U2,1*%
%TO.N,Net-(U2-Pad1)*%
X43500000Y-41600000D03*
%TO.P,U2,2*%
%TO.N,Net-(U2-Pad2)*%
X45500000Y-41600000D03*
%TO.P,U2,3*%
%TO.N,+3V3*%
X47500000Y-41600000D03*
%TO.P,U2,4*%
%TO.N,Net-(U2-Pad1)*%
X49500000Y-41600000D03*
%TO.P,U2,5*%
%TO.N,Net-(J7-Pad1)*%
X51500000Y-41600000D03*
%TO.P,U2,6*%
%TO.N,Net-(U2-Pad6)*%
X53500000Y-41600000D03*
%TO.P,U2,7*%
%TO.N,Net-(SW1-Pad1)*%
X55500000Y-41600000D03*
%TO.P,U2,8*%
%TO.N,+3V3*%
X57500000Y-41600000D03*
D13*
%TO.P,U2,9*%
%TO.N,Net-(U2-Pad9)*%
X59000000Y-39000000D03*
%TO.P,U2,10*%
%TO.N,Net-(U2-Pad10)*%
X59000000Y-37000000D03*
%TO.P,U2,11*%
%TO.N,Net-(U2-Pad11)*%
X59000000Y-35000000D03*
%TO.P,U2,12*%
%TO.N,Net-(U2-Pad12)*%
X59000000Y-33000000D03*
%TO.P,U2,13*%
%TO.N,Net-(U2-Pad13)*%
X59000000Y-31000000D03*
%TO.P,U2,14*%
%TO.N,Net-(U2-Pad14)*%
X59000000Y-29000000D03*
D12*
%TO.P,U2,15*%
%TO.N,Net-(C2-Pad2)*%
X57500000Y-26400000D03*
%TO.P,U2,16*%
%TO.N,Net-(R1-Pad1)*%
X55500000Y-26400000D03*
%TO.P,U2,17*%
%TO.N,Net-(U2-Pad17)*%
X53500000Y-26400000D03*
%TO.P,U2,18*%
%TO.N,Net-(U2-Pad18)*%
X51500000Y-26400000D03*
%TO.P,U2,19*%
%TO.N,/GPIO4*%
X49500000Y-26400000D03*
%TO.P,U2,20*%
%TO.N,Net-(J7-Pad2)*%
X47500000Y-26400000D03*
%TO.P,U2,21*%
%TO.N,/GPIO3*%
X45500000Y-26400000D03*
%TO.P,U2,22*%
%TO.N,Net-(U2-Pad22)*%
X43500000Y-26400000D03*
%TD*%
D19*
%TO.N,+3V3*%
X65545200Y-27950000D03*
X57289600Y-38993500D03*
X48478500Y-39936000D03*
X107545200Y-27950000D03*
X99289600Y-38993500D03*
X90478500Y-39936000D03*
X65545200Y-46950000D03*
X57289600Y-57993500D03*
X48478500Y-58936000D03*
X107545200Y-46950000D03*
X99289600Y-57993500D03*
X90478500Y-58936000D03*
X57289600Y-76993500D03*
X107545200Y-65950000D03*
X99289600Y-76993500D03*
X90478500Y-77936000D03*
X65545200Y-65950000D03*
X48478500Y-77936000D03*
X57289600Y-95993500D03*
X48478500Y-96936000D03*
X107545200Y-84950000D03*
X99289600Y-95993500D03*
X90478500Y-96936000D03*
X65545200Y-84950000D03*
X90478500Y-115936000D03*
X65545200Y-103950000D03*
X48478500Y-115936000D03*
X107545200Y-103950000D03*
X99289600Y-114993500D03*
X57289600Y-114993500D03*
%TO.N,Net-(C2-Pad2)*%
X59620500Y-42307500D03*
X101620500Y-42307500D03*
X59620500Y-61307500D03*
X101620500Y-61307500D03*
X101620500Y-80307500D03*
X59620500Y-80307500D03*
X59620500Y-99307500D03*
X101620500Y-99307500D03*
X59620500Y-118307500D03*
X101620500Y-118307500D03*
%TO.N,Net-(J7-Pad2)*%
X46835400Y-28261900D03*
X88835400Y-28261900D03*
X46835400Y-47261900D03*
X88835400Y-47261900D03*
X88835400Y-66261900D03*
X46835400Y-66261900D03*
X88835400Y-85261900D03*
X46835400Y-85261900D03*
X46835400Y-104261900D03*
X88835400Y-104261900D03*
%TO.N,Net-(J7-Pad1)*%
X45663800Y-37497900D03*
X87663800Y-37497900D03*
X45663800Y-56497900D03*
X87663800Y-56497900D03*
X45663800Y-75497900D03*
X87663800Y-75497900D03*
X87663800Y-94497900D03*
X45663800Y-94497900D03*
X45663800Y-113497900D03*
X87663800Y-113497900D03*
%TO.N,Net-(SW1-Pad1)*%
X58630500Y-40855200D03*
X56151700Y-39749600D03*
X98151700Y-39749600D03*
X100630500Y-40855200D03*
X56151700Y-58749600D03*
X58630500Y-59855200D03*
X100630500Y-59855200D03*
X98151700Y-58749600D03*
X100630500Y-78855200D03*
X56151700Y-77749600D03*
X58630500Y-78855200D03*
X98151700Y-77749600D03*
X56151700Y-96749600D03*
X58630500Y-97855200D03*
X100630500Y-97855200D03*
X98151700Y-96749600D03*
X98151700Y-115749600D03*
X56151700Y-115749600D03*
X58630500Y-116855200D03*
X100630500Y-116855200D03*
%TD*%
D20*
%TO.N,+3V3*%
X65545200Y-27950000D02*
X65545200Y-27482700D01*
X65545200Y-27482700D02*
X64562500Y-26500000D01*
X65824700Y-27950000D02*
X65545200Y-27950000D01*
X66800000Y-27950000D02*
X65824700Y-27950000D01*
X57289600Y-38993500D02*
X57500000Y-39203900D01*
X57500000Y-39203900D02*
X57500000Y-40024700D01*
X57500000Y-41600000D02*
X57500000Y-40024700D01*
X47500000Y-41600000D02*
X47500000Y-40024700D01*
X48478500Y-39936000D02*
X48389800Y-40024700D01*
X48389800Y-40024700D02*
X47500000Y-40024700D01*
X99500000Y-41600000D02*
X99500000Y-40024700D01*
X89500000Y-41600000D02*
X89500000Y-40024700D01*
X90389800Y-40024700D02*
X89500000Y-40024700D01*
X90478500Y-39936000D02*
X90389800Y-40024700D01*
X99500000Y-39203900D02*
X99500000Y-40024700D01*
X107545200Y-27950000D02*
X107545200Y-27482700D01*
X107545200Y-27482700D02*
X106562500Y-26500000D01*
X107824700Y-27950000D02*
X107545200Y-27950000D01*
X108800000Y-27950000D02*
X107824700Y-27950000D01*
X99289600Y-38993500D02*
X99500000Y-39203900D01*
X57500000Y-60600000D02*
X57500000Y-59024700D01*
X47500000Y-60600000D02*
X47500000Y-59024700D01*
X48389800Y-59024700D02*
X47500000Y-59024700D01*
X48478500Y-58936000D02*
X48389800Y-59024700D01*
X57500000Y-58203900D02*
X57500000Y-59024700D01*
X65545200Y-46950000D02*
X65545200Y-46482700D01*
X65545200Y-46482700D02*
X64562500Y-45500000D01*
X65824700Y-46950000D02*
X65545200Y-46950000D01*
X66800000Y-46950000D02*
X65824700Y-46950000D01*
X57289600Y-57993500D02*
X57500000Y-58203900D01*
X99500000Y-60600000D02*
X99500000Y-59024700D01*
X99500000Y-58203900D02*
X99500000Y-59024700D01*
X107545200Y-46482700D02*
X106562500Y-45500000D01*
X89500000Y-60600000D02*
X89500000Y-59024700D01*
X107824700Y-46950000D02*
X107545200Y-46950000D01*
X90389800Y-59024700D02*
X89500000Y-59024700D01*
X99289600Y-57993500D02*
X99500000Y-58203900D01*
X107545200Y-46950000D02*
X107545200Y-46482700D01*
X90478500Y-58936000D02*
X90389800Y-59024700D01*
X108800000Y-46950000D02*
X107824700Y-46950000D01*
X57500000Y-79600000D02*
X57500000Y-78024700D01*
X47500000Y-79600000D02*
X47500000Y-78024700D01*
X48389800Y-78024700D02*
X47500000Y-78024700D01*
X48478500Y-77936000D02*
X48389800Y-78024700D01*
X57500000Y-77203900D02*
X57500000Y-78024700D01*
X65824700Y-65950000D02*
X65545200Y-65950000D01*
X66800000Y-65950000D02*
X65824700Y-65950000D01*
X57289600Y-76993500D02*
X57500000Y-77203900D01*
X65545200Y-65482700D02*
X64562500Y-64500000D01*
X65545200Y-65950000D02*
X65545200Y-65482700D01*
X89500000Y-79600000D02*
X89500000Y-78024700D01*
X107824700Y-65950000D02*
X107545200Y-65950000D01*
X99289600Y-76993500D02*
X99500000Y-77203900D01*
X99500000Y-77203900D02*
X99500000Y-78024700D01*
X90389800Y-78024700D02*
X89500000Y-78024700D01*
X107545200Y-65950000D02*
X107545200Y-65482700D01*
X107545200Y-65482700D02*
X106562500Y-64500000D01*
X99500000Y-79600000D02*
X99500000Y-78024700D01*
X90478500Y-77936000D02*
X90389800Y-78024700D01*
X108800000Y-65950000D02*
X107824700Y-65950000D01*
X48478500Y-96936000D02*
X48389800Y-97024700D01*
X57500000Y-98600000D02*
X57500000Y-97024700D01*
X47500000Y-98600000D02*
X47500000Y-97024700D01*
X48389800Y-97024700D02*
X47500000Y-97024700D01*
X65545200Y-84950000D02*
X65545200Y-84482700D01*
X66800000Y-84950000D02*
X65824700Y-84950000D01*
X57500000Y-96203900D02*
X57500000Y-97024700D01*
X65545200Y-84482700D02*
X64562500Y-83500000D01*
X65824700Y-84950000D02*
X65545200Y-84950000D01*
X57289600Y-95993500D02*
X57500000Y-96203900D01*
X107545200Y-84950000D02*
X107545200Y-84482700D01*
X89500000Y-98600000D02*
X89500000Y-97024700D01*
X99500000Y-98600000D02*
X99500000Y-97024700D01*
X90389800Y-97024700D02*
X89500000Y-97024700D01*
X107824700Y-84950000D02*
X107545200Y-84950000D01*
X99289600Y-95993500D02*
X99500000Y-96203900D01*
X90478500Y-96936000D02*
X90389800Y-97024700D01*
X107545200Y-84482700D02*
X106562500Y-83500000D01*
X99500000Y-96203900D02*
X99500000Y-97024700D01*
X108800000Y-84950000D02*
X107824700Y-84950000D01*
X47500000Y-117600000D02*
X47500000Y-116024700D01*
X48389800Y-116024700D02*
X47500000Y-116024700D01*
X48478500Y-115936000D02*
X48389800Y-116024700D01*
X57500000Y-117600000D02*
X57500000Y-116024700D01*
X108800000Y-103950000D02*
X107824700Y-103950000D01*
X99500000Y-115203900D02*
X99500000Y-116024700D01*
X65824700Y-103950000D02*
X65545200Y-103950000D01*
X65545200Y-103482700D02*
X64562500Y-102500000D01*
X57289600Y-114993500D02*
X57500000Y-115203900D01*
X57500000Y-115203900D02*
X57500000Y-116024700D01*
X65545200Y-103950000D02*
X65545200Y-103482700D01*
X66800000Y-103950000D02*
X65824700Y-103950000D01*
X107545200Y-103950000D02*
X107545200Y-103482700D01*
X99289600Y-114993500D02*
X99500000Y-115203900D01*
X107545200Y-103482700D02*
X106562500Y-102500000D01*
X107824700Y-103950000D02*
X107545200Y-103950000D01*
X90389800Y-116024700D02*
X89500000Y-116024700D01*
X89500000Y-117600000D02*
X89500000Y-116024700D01*
X99500000Y-117600000D02*
X99500000Y-116024700D01*
X90478500Y-115936000D02*
X90389800Y-116024700D01*
%TO.N,Net-(C2-Pad2)*%
X62024600Y-27087000D02*
X63500000Y-28562500D01*
X63500000Y-28562500D02*
X63500000Y-29000000D01*
X61437500Y-26500000D02*
X62024600Y-27087000D01*
X66800000Y-25324700D02*
X66074700Y-25324700D01*
X66074700Y-25324700D02*
X65984800Y-25234800D01*
X65984800Y-25234800D02*
X63876800Y-25234800D01*
X63876800Y-25234800D02*
X62024600Y-27087000D01*
X66800000Y-26050000D02*
X66800000Y-25324700D01*
X63500000Y-29000000D02*
X64575300Y-30075300D01*
X64575300Y-30075300D02*
X64575300Y-32700000D01*
X62850000Y-32700000D02*
X64575300Y-32700000D01*
X57500000Y-26400000D02*
X61337500Y-26400000D01*
X61337500Y-26400000D02*
X61437500Y-26500000D01*
X65450000Y-38625200D02*
X61767700Y-42307500D01*
X61767700Y-42307500D02*
X59620500Y-42307500D01*
X62850000Y-32700000D02*
X61124600Y-34425400D01*
X61124600Y-34425400D02*
X61124600Y-35785200D01*
X61124600Y-35785200D02*
X61813000Y-36473600D01*
X61813000Y-36473600D02*
X64104800Y-36473600D01*
X64104800Y-36473600D02*
X65450000Y-37818800D01*
X65450000Y-37818800D02*
X65450000Y-38625200D01*
X67824700Y-41000000D02*
X65450000Y-38625200D01*
X68900000Y-41000000D02*
X67824700Y-41000000D01*
X104024600Y-27087000D02*
X105500000Y-28562500D01*
X105876800Y-25234800D02*
X104024600Y-27087000D01*
X110900000Y-41000000D02*
X109824700Y-41000000D01*
X104850000Y-32700000D02*
X103124600Y-34425400D01*
X99500000Y-26400000D02*
X103337500Y-26400000D01*
X107450000Y-38625200D02*
X103767700Y-42307500D01*
X107984800Y-25234800D02*
X105876800Y-25234800D01*
X105500000Y-29000000D02*
X106575300Y-30075300D01*
X108800000Y-26050000D02*
X108800000Y-25324700D01*
X106104800Y-36473600D02*
X107450000Y-37818800D01*
X104850000Y-32700000D02*
X106575300Y-32700000D01*
X103767700Y-42307500D02*
X101620500Y-42307500D01*
X103437500Y-26500000D02*
X104024600Y-27087000D01*
X108800000Y-25324700D02*
X108074700Y-25324700D01*
X106575300Y-30075300D02*
X106575300Y-32700000D01*
X103337500Y-26400000D02*
X103437500Y-26500000D01*
X103124600Y-34425400D02*
X103124600Y-35785200D01*
X103124600Y-35785200D02*
X103813000Y-36473600D01*
X108074700Y-25324700D02*
X107984800Y-25234800D01*
X103813000Y-36473600D02*
X106104800Y-36473600D01*
X105500000Y-28562500D02*
X105500000Y-29000000D01*
X107450000Y-37818800D02*
X107450000Y-38625200D01*
X109824700Y-41000000D02*
X107450000Y-38625200D01*
X62024600Y-46087000D02*
X63500000Y-47562500D01*
X63876800Y-44234800D02*
X62024600Y-46087000D01*
X68900000Y-60000000D02*
X67824700Y-60000000D01*
X62850000Y-51700000D02*
X61124600Y-53425400D01*
X57500000Y-45400000D02*
X61337500Y-45400000D01*
X65450000Y-57625200D02*
X61767700Y-61307500D01*
X65984800Y-44234800D02*
X63876800Y-44234800D01*
X63500000Y-48000000D02*
X64575300Y-49075300D01*
X66800000Y-45050000D02*
X66800000Y-44324700D01*
X64104800Y-55473600D02*
X65450000Y-56818800D01*
X62850000Y-51700000D02*
X64575300Y-51700000D01*
X61767700Y-61307500D02*
X59620500Y-61307500D01*
X61437500Y-45500000D02*
X62024600Y-46087000D01*
X66800000Y-44324700D02*
X66074700Y-44324700D01*
X64575300Y-49075300D02*
X64575300Y-51700000D01*
X61337500Y-45400000D02*
X61437500Y-45500000D01*
X61124600Y-53425400D02*
X61124600Y-54785200D01*
X61124600Y-54785200D02*
X61813000Y-55473600D01*
X66074700Y-44324700D02*
X65984800Y-44234800D01*
X61813000Y-55473600D02*
X64104800Y-55473600D01*
X63500000Y-47562500D02*
X63500000Y-48000000D01*
X65450000Y-56818800D02*
X65450000Y-57625200D01*
X67824700Y-60000000D02*
X65450000Y-57625200D01*
X104024600Y-46087000D02*
X105500000Y-47562500D01*
X105876800Y-44234800D02*
X104024600Y-46087000D01*
X104850000Y-51700000D02*
X103124600Y-53425400D01*
X99500000Y-45400000D02*
X103337500Y-45400000D01*
X107450000Y-57625200D02*
X103767700Y-61307500D01*
X110900000Y-60000000D02*
X109824700Y-60000000D01*
X105500000Y-48000000D02*
X106575300Y-49075300D01*
X106104800Y-55473600D02*
X107450000Y-56818800D01*
X107984800Y-44234800D02*
X105876800Y-44234800D01*
X108800000Y-45050000D02*
X108800000Y-44324700D01*
X104850000Y-51700000D02*
X106575300Y-51700000D01*
X103767700Y-61307500D02*
X101620500Y-61307500D01*
X103437500Y-45500000D02*
X104024600Y-46087000D01*
X103124600Y-54785200D02*
X103813000Y-55473600D01*
X103124600Y-53425400D02*
X103124600Y-54785200D01*
X109824700Y-60000000D02*
X107450000Y-57625200D01*
X106575300Y-49075300D02*
X106575300Y-51700000D01*
X107450000Y-56818800D02*
X107450000Y-57625200D01*
X103337500Y-45400000D02*
X103437500Y-45500000D01*
X103813000Y-55473600D02*
X106104800Y-55473600D01*
X108800000Y-44324700D02*
X108074700Y-44324700D01*
X108074700Y-44324700D02*
X107984800Y-44234800D01*
X105500000Y-47562500D02*
X105500000Y-48000000D01*
X61813000Y-74473600D02*
X64104800Y-74473600D01*
X64104800Y-74473600D02*
X65450000Y-75818800D01*
X64575300Y-68075300D02*
X64575300Y-70700000D01*
X62850000Y-70700000D02*
X61124600Y-72425400D01*
X57500000Y-64400000D02*
X61337500Y-64400000D01*
X66800000Y-64050000D02*
X66800000Y-63324700D01*
X61124600Y-73785200D02*
X61813000Y-74473600D01*
X65450000Y-75818800D02*
X65450000Y-76625200D01*
X63500000Y-66562500D02*
X63500000Y-67000000D01*
X63500000Y-67000000D02*
X64575300Y-68075300D01*
X66800000Y-63324700D02*
X66074700Y-63324700D01*
X62850000Y-70700000D02*
X64575300Y-70700000D01*
X61767700Y-80307500D02*
X59620500Y-80307500D01*
X62024600Y-65087000D02*
X63500000Y-66562500D01*
X68900000Y-79000000D02*
X67824700Y-79000000D01*
X63876800Y-63234800D02*
X62024600Y-65087000D01*
X61437500Y-64500000D02*
X62024600Y-65087000D01*
X66074700Y-63324700D02*
X65984800Y-63234800D01*
X67824700Y-79000000D02*
X65450000Y-76625200D01*
X65450000Y-76625200D02*
X61767700Y-80307500D01*
X65984800Y-63234800D02*
X63876800Y-63234800D01*
X61124600Y-72425400D02*
X61124600Y-73785200D01*
X61337500Y-64400000D02*
X61437500Y-64500000D01*
X106104800Y-74473600D02*
X107450000Y-75818800D01*
X104024600Y-65087000D02*
X105500000Y-66562500D01*
X105876800Y-63234800D02*
X104024600Y-65087000D01*
X104850000Y-70700000D02*
X103124600Y-72425400D01*
X99500000Y-64400000D02*
X103337500Y-64400000D01*
X107450000Y-76625200D02*
X103767700Y-80307500D01*
X110900000Y-79000000D02*
X109824700Y-79000000D01*
X105500000Y-67000000D02*
X106575300Y-68075300D01*
X103767700Y-80307500D02*
X101620500Y-80307500D01*
X103124600Y-73785200D02*
X103813000Y-74473600D01*
X103813000Y-74473600D02*
X106104800Y-74473600D01*
X108800000Y-64050000D02*
X108800000Y-63324700D01*
X105500000Y-66562500D02*
X105500000Y-67000000D01*
X107984800Y-63234800D02*
X105876800Y-63234800D01*
X108800000Y-63324700D02*
X108074700Y-63324700D01*
X108074700Y-63324700D02*
X107984800Y-63234800D01*
X104850000Y-70700000D02*
X106575300Y-70700000D01*
X103124600Y-72425400D02*
X103124600Y-73785200D01*
X103437500Y-64500000D02*
X104024600Y-65087000D01*
X103337500Y-64400000D02*
X103437500Y-64500000D01*
X109824700Y-79000000D02*
X107450000Y-76625200D01*
X106575300Y-68075300D02*
X106575300Y-70700000D01*
X107450000Y-75818800D02*
X107450000Y-76625200D01*
X61813000Y-93473600D02*
X64104800Y-93473600D01*
X64104800Y-93473600D02*
X65450000Y-94818800D01*
X67824700Y-98000000D02*
X65450000Y-95625200D01*
X62024600Y-84087000D02*
X63500000Y-85562500D01*
X65984800Y-82234800D02*
X63876800Y-82234800D01*
X61124600Y-91425400D02*
X61124600Y-92785200D01*
X62850000Y-89700000D02*
X61124600Y-91425400D01*
X61337500Y-83400000D02*
X61437500Y-83500000D01*
X106104800Y-93473600D02*
X107450000Y-94818800D01*
X57500000Y-83400000D02*
X61337500Y-83400000D01*
X63876800Y-82234800D02*
X62024600Y-84087000D01*
X61437500Y-83500000D02*
X62024600Y-84087000D01*
X63500000Y-86000000D02*
X64575300Y-87075300D01*
X66800000Y-83050000D02*
X66800000Y-82324700D01*
X63500000Y-85562500D02*
X63500000Y-86000000D01*
X62850000Y-89700000D02*
X64575300Y-89700000D01*
X64575300Y-87075300D02*
X64575300Y-89700000D01*
X68900000Y-98000000D02*
X67824700Y-98000000D01*
X65450000Y-95625200D02*
X61767700Y-99307500D01*
X65450000Y-94818800D02*
X65450000Y-95625200D01*
X61767700Y-99307500D02*
X59620500Y-99307500D01*
X61124600Y-92785200D02*
X61813000Y-93473600D01*
X66800000Y-82324700D02*
X66074700Y-82324700D01*
X66074700Y-82324700D02*
X65984800Y-82234800D01*
X104024600Y-84087000D02*
X105500000Y-85562500D01*
X105876800Y-82234800D02*
X104024600Y-84087000D01*
X104850000Y-89700000D02*
X103124600Y-91425400D01*
X99500000Y-83400000D02*
X103337500Y-83400000D01*
X107450000Y-95625200D02*
X103767700Y-99307500D01*
X110900000Y-98000000D02*
X109824700Y-98000000D01*
X105500000Y-86000000D02*
X106575300Y-87075300D01*
X103767700Y-99307500D02*
X101620500Y-99307500D01*
X109824700Y-98000000D02*
X107450000Y-95625200D01*
X106575300Y-87075300D02*
X106575300Y-89700000D01*
X104850000Y-89700000D02*
X106575300Y-89700000D01*
X103337500Y-83400000D02*
X103437500Y-83500000D01*
X103124600Y-92785200D02*
X103813000Y-93473600D01*
X108074700Y-82324700D02*
X107984800Y-82234800D01*
X107450000Y-94818800D02*
X107450000Y-95625200D01*
X103124600Y-91425400D02*
X103124600Y-92785200D01*
X108800000Y-83050000D02*
X108800000Y-82324700D01*
X105500000Y-85562500D02*
X105500000Y-86000000D01*
X107984800Y-82234800D02*
X105876800Y-82234800D01*
X103813000Y-93473600D02*
X106104800Y-93473600D01*
X108800000Y-82324700D02*
X108074700Y-82324700D01*
X103437500Y-83500000D02*
X104024600Y-84087000D01*
X61813000Y-112473600D02*
X64104800Y-112473600D01*
X64104800Y-112473600D02*
X65450000Y-113818800D01*
X106575300Y-106075300D02*
X106575300Y-108700000D01*
X108074700Y-101324700D02*
X107984800Y-101234800D01*
X107450000Y-113818800D02*
X107450000Y-114625200D01*
X103124600Y-111785200D02*
X103813000Y-112473600D01*
X109824700Y-117000000D02*
X107450000Y-114625200D01*
X104850000Y-108700000D02*
X106575300Y-108700000D01*
X103337500Y-102400000D02*
X103437500Y-102500000D01*
X61337500Y-102400000D02*
X61437500Y-102500000D01*
X62024600Y-103087000D02*
X63500000Y-104562500D01*
X65450000Y-114625200D02*
X61767700Y-118307500D01*
X63500000Y-105000000D02*
X64575300Y-106075300D01*
X67824700Y-117000000D02*
X65450000Y-114625200D01*
X65450000Y-113818800D02*
X65450000Y-114625200D01*
X61124600Y-110425400D02*
X61124600Y-111785200D01*
X64575300Y-106075300D02*
X64575300Y-108700000D01*
X68900000Y-117000000D02*
X67824700Y-117000000D01*
X61767700Y-118307500D02*
X59620500Y-118307500D01*
X62850000Y-108700000D02*
X64575300Y-108700000D01*
X57500000Y-102400000D02*
X61337500Y-102400000D01*
X66800000Y-102050000D02*
X66800000Y-101324700D01*
X65984800Y-101234800D02*
X63876800Y-101234800D01*
X63876800Y-101234800D02*
X62024600Y-103087000D01*
X61437500Y-102500000D02*
X62024600Y-103087000D01*
X106104800Y-112473600D02*
X107450000Y-113818800D01*
X63500000Y-104562500D02*
X63500000Y-105000000D01*
X62850000Y-108700000D02*
X61124600Y-110425400D01*
X103124600Y-110425400D02*
X103124600Y-111785200D01*
X105500000Y-104562500D02*
X105500000Y-105000000D01*
X103437500Y-102500000D02*
X104024600Y-103087000D01*
X108800000Y-101324700D02*
X108074700Y-101324700D01*
X103813000Y-112473600D02*
X106104800Y-112473600D01*
X107984800Y-101234800D02*
X105876800Y-101234800D01*
X108800000Y-102050000D02*
X108800000Y-101324700D01*
X99500000Y-102400000D02*
X103337500Y-102400000D01*
X104850000Y-108700000D02*
X103124600Y-110425400D01*
X107450000Y-114625200D02*
X103767700Y-118307500D01*
X66800000Y-101324700D02*
X66074700Y-101324700D01*
X105876800Y-101234800D02*
X104024600Y-103087000D01*
X61124600Y-111785200D02*
X61813000Y-112473600D01*
X103767700Y-118307500D02*
X101620500Y-118307500D01*
X110900000Y-117000000D02*
X109824700Y-117000000D01*
X105500000Y-105000000D02*
X106575300Y-106075300D01*
X104024600Y-103087000D02*
X105500000Y-104562500D01*
X66074700Y-101324700D02*
X65984800Y-101234800D01*
%TO.N,/GPIO3*%
X45500000Y-27975300D02*
X49350100Y-31825400D01*
X49350100Y-31825400D02*
X60267100Y-31825400D01*
X60267100Y-31825400D02*
X61092500Y-31000000D01*
X45500000Y-26400000D02*
X45500000Y-27975300D01*
X91350100Y-31825400D02*
X102267100Y-31825400D01*
X87500000Y-27975300D02*
X91350100Y-31825400D01*
X102267100Y-31825400D02*
X103092500Y-31000000D01*
X87500000Y-26400000D02*
X87500000Y-27975300D01*
X49350100Y-50825400D02*
X60267100Y-50825400D01*
X45500000Y-46975300D02*
X49350100Y-50825400D01*
X60267100Y-50825400D02*
X61092500Y-50000000D01*
X45500000Y-45400000D02*
X45500000Y-46975300D01*
X87500000Y-46975300D02*
X91350100Y-50825400D01*
X87500000Y-45400000D02*
X87500000Y-46975300D01*
X102267100Y-50825400D02*
X103092500Y-50000000D01*
X91350100Y-50825400D02*
X102267100Y-50825400D01*
X49350100Y-69825400D02*
X60267100Y-69825400D01*
X45500000Y-64400000D02*
X45500000Y-65975300D01*
X60267100Y-69825400D02*
X61092500Y-69000000D01*
X45500000Y-65975300D02*
X49350100Y-69825400D01*
X87500000Y-65975300D02*
X91350100Y-69825400D01*
X87500000Y-64400000D02*
X87500000Y-65975300D01*
X91350100Y-69825400D02*
X102267100Y-69825400D01*
X102267100Y-69825400D02*
X103092500Y-69000000D01*
X49350100Y-88825400D02*
X60267100Y-88825400D01*
X45500000Y-84975300D02*
X49350100Y-88825400D01*
X60267100Y-88825400D02*
X61092500Y-88000000D01*
X45500000Y-83400000D02*
X45500000Y-84975300D01*
X102267100Y-88825400D02*
X103092500Y-88000000D01*
X91350100Y-88825400D02*
X102267100Y-88825400D01*
X87500000Y-83400000D02*
X87500000Y-84975300D01*
X87500000Y-84975300D02*
X91350100Y-88825400D01*
X60267100Y-107825400D02*
X61092500Y-107000000D01*
X45500000Y-102400000D02*
X45500000Y-103975300D01*
X102267100Y-107825400D02*
X103092500Y-107000000D01*
X87500000Y-102400000D02*
X87500000Y-103975300D01*
X91350100Y-107825400D02*
X102267100Y-107825400D01*
X49350100Y-107825400D02*
X60267100Y-107825400D01*
X87500000Y-103975300D02*
X91350100Y-107825400D01*
X45500000Y-103975300D02*
X49350100Y-107825400D01*
%TO.N,Net-(J5-Pad1)*%
X64575300Y-35300000D02*
X67118500Y-32756800D01*
X67118500Y-32756800D02*
X67118500Y-29806800D01*
X67118500Y-29806800D02*
X69200000Y-27725300D01*
X62850000Y-35300000D02*
X64575300Y-35300000D01*
X69200000Y-27000000D02*
X69200000Y-27725300D01*
X109118500Y-29806800D02*
X111200000Y-27725300D01*
X106575300Y-35300000D02*
X109118500Y-32756800D01*
X104850000Y-35300000D02*
X106575300Y-35300000D01*
X111200000Y-27000000D02*
X111200000Y-27725300D01*
X109118500Y-32756800D02*
X109118500Y-29806800D01*
X67118500Y-48806800D02*
X69200000Y-46725300D01*
X64575300Y-54300000D02*
X67118500Y-51756800D01*
X62850000Y-54300000D02*
X64575300Y-54300000D01*
X69200000Y-46000000D02*
X69200000Y-46725300D01*
X67118500Y-51756800D02*
X67118500Y-48806800D01*
X111200000Y-46000000D02*
X111200000Y-46725300D01*
X109118500Y-51756800D02*
X109118500Y-48806800D01*
X109118500Y-48806800D02*
X111200000Y-46725300D01*
X106575300Y-54300000D02*
X109118500Y-51756800D01*
X104850000Y-54300000D02*
X106575300Y-54300000D01*
X64575300Y-73300000D02*
X67118500Y-70756800D01*
X62850000Y-73300000D02*
X64575300Y-73300000D01*
X67118500Y-67806800D02*
X69200000Y-65725300D01*
X69200000Y-65000000D02*
X69200000Y-65725300D01*
X67118500Y-70756800D02*
X67118500Y-67806800D01*
X109118500Y-70756800D02*
X109118500Y-67806800D01*
X109118500Y-67806800D02*
X111200000Y-65725300D01*
X106575300Y-73300000D02*
X109118500Y-70756800D01*
X104850000Y-73300000D02*
X106575300Y-73300000D01*
X111200000Y-65000000D02*
X111200000Y-65725300D01*
X64575300Y-92300000D02*
X67118500Y-89756800D01*
X67118500Y-86806800D02*
X69200000Y-84725300D01*
X62850000Y-92300000D02*
X64575300Y-92300000D01*
X67118500Y-89756800D02*
X67118500Y-86806800D01*
X69200000Y-84000000D02*
X69200000Y-84725300D01*
X106575300Y-92300000D02*
X109118500Y-89756800D01*
X111200000Y-84000000D02*
X111200000Y-84725300D01*
X109118500Y-86806800D02*
X111200000Y-84725300D01*
X104850000Y-92300000D02*
X106575300Y-92300000D01*
X109118500Y-89756800D02*
X109118500Y-86806800D01*
X111200000Y-103000000D02*
X111200000Y-103725300D01*
X106575300Y-111300000D02*
X109118500Y-108756800D01*
X62850000Y-111300000D02*
X64575300Y-111300000D01*
X64575300Y-111300000D02*
X67118500Y-108756800D01*
X67118500Y-105806800D02*
X69200000Y-103725300D01*
X109118500Y-108756800D02*
X109118500Y-105806800D01*
X104850000Y-111300000D02*
X106575300Y-111300000D01*
X109118500Y-105806800D02*
X111200000Y-103725300D01*
X69200000Y-103000000D02*
X69200000Y-103725300D01*
X67118500Y-108756800D02*
X67118500Y-105806800D01*
%TO.N,Net-(J7-Pad5)*%
X60665800Y-33863100D02*
X60665800Y-36665800D01*
X60665800Y-36665800D02*
X61500000Y-37500000D01*
X61907500Y-31000000D02*
X61907500Y-31462500D01*
X61907500Y-31462500D02*
X60665800Y-32704200D01*
X60665800Y-32704200D02*
X60665800Y-33863100D01*
X60665800Y-33863100D02*
X40271300Y-33863100D01*
X40271300Y-33863100D02*
X39312900Y-32904700D01*
X39312900Y-32904700D02*
X31983200Y-32904700D01*
X31983200Y-32904700D02*
X31175300Y-33712600D01*
X31175300Y-33712600D02*
X31175300Y-34080000D01*
X30000000Y-34080000D02*
X31175300Y-34080000D01*
X63092500Y-31000000D02*
X61907500Y-31000000D01*
X102665800Y-33863100D02*
X102665800Y-36665800D01*
X73175300Y-33712600D02*
X73175300Y-34080000D01*
X103907500Y-31462500D02*
X102665800Y-32704200D01*
X81312900Y-32904700D02*
X73983200Y-32904700D01*
X102665800Y-32704200D02*
X102665800Y-33863100D01*
X105092500Y-31000000D02*
X103907500Y-31000000D01*
X72000000Y-34080000D02*
X73175300Y-34080000D01*
X102665800Y-36665800D02*
X103500000Y-37500000D01*
X82271300Y-33863100D02*
X81312900Y-32904700D01*
X103907500Y-31000000D02*
X103907500Y-31462500D01*
X73983200Y-32904700D02*
X73175300Y-33712600D01*
X102665800Y-33863100D02*
X82271300Y-33863100D01*
X60665800Y-52863100D02*
X60665800Y-55665800D01*
X31175300Y-52712600D02*
X31175300Y-53080000D01*
X61907500Y-50462500D02*
X60665800Y-51704200D01*
X39312900Y-51904700D02*
X31983200Y-51904700D01*
X60665800Y-51704200D02*
X60665800Y-52863100D01*
X63092500Y-50000000D02*
X61907500Y-50000000D01*
X30000000Y-53080000D02*
X31175300Y-53080000D01*
X60665800Y-55665800D02*
X61500000Y-56500000D01*
X40271300Y-52863100D02*
X39312900Y-51904700D01*
X61907500Y-50000000D02*
X61907500Y-50462500D01*
X31983200Y-51904700D02*
X31175300Y-52712600D01*
X60665800Y-52863100D02*
X40271300Y-52863100D01*
X72000000Y-53080000D02*
X73175300Y-53080000D01*
X82271300Y-52863100D02*
X81312900Y-51904700D01*
X105092500Y-50000000D02*
X103907500Y-50000000D01*
X73983200Y-51904700D02*
X73175300Y-52712600D01*
X103907500Y-50462500D02*
X102665800Y-51704200D01*
X102665800Y-51704200D02*
X102665800Y-52863100D01*
X73175300Y-52712600D02*
X73175300Y-53080000D01*
X103907500Y-50000000D02*
X103907500Y-50462500D01*
X102665800Y-52863100D02*
X102665800Y-55665800D01*
X102665800Y-55665800D02*
X103500000Y-56500000D01*
X81312900Y-51904700D02*
X73983200Y-51904700D01*
X102665800Y-52863100D02*
X82271300Y-52863100D01*
X39312900Y-70904700D02*
X31983200Y-70904700D01*
X61907500Y-69462500D02*
X60665800Y-70704200D01*
X60665800Y-70704200D02*
X60665800Y-71863100D01*
X60665800Y-71863100D02*
X60665800Y-74665800D01*
X31175300Y-71712600D02*
X31175300Y-72080000D01*
X63092500Y-69000000D02*
X61907500Y-69000000D01*
X61907500Y-69000000D02*
X61907500Y-69462500D01*
X40271300Y-71863100D02*
X39312900Y-70904700D01*
X31983200Y-70904700D02*
X31175300Y-71712600D01*
X30000000Y-72080000D02*
X31175300Y-72080000D01*
X60665800Y-74665800D02*
X61500000Y-75500000D01*
X60665800Y-71863100D02*
X40271300Y-71863100D01*
X72000000Y-72080000D02*
X73175300Y-72080000D01*
X73175300Y-71712600D02*
X73175300Y-72080000D01*
X103907500Y-69000000D02*
X103907500Y-69462500D01*
X102665800Y-70704200D02*
X102665800Y-71863100D01*
X102665800Y-71863100D02*
X102665800Y-74665800D01*
X73983200Y-70904700D02*
X73175300Y-71712600D01*
X105092500Y-69000000D02*
X103907500Y-69000000D01*
X103907500Y-69462500D02*
X102665800Y-70704200D01*
X82271300Y-71863100D02*
X81312900Y-70904700D01*
X102665800Y-71863100D02*
X82271300Y-71863100D01*
X102665800Y-74665800D02*
X103500000Y-75500000D01*
X81312900Y-70904700D02*
X73983200Y-70904700D01*
X63092500Y-88000000D02*
X61907500Y-88000000D01*
X31175300Y-90712600D02*
X31175300Y-91080000D01*
X61907500Y-88462500D02*
X60665800Y-89704200D01*
X60665800Y-90863100D02*
X60665800Y-93665800D01*
X39312900Y-89904700D02*
X31983200Y-89904700D01*
X60665800Y-89704200D02*
X60665800Y-90863100D01*
X61907500Y-88000000D02*
X61907500Y-88462500D01*
X40271300Y-90863100D02*
X39312900Y-89904700D01*
X31983200Y-89904700D02*
X31175300Y-90712600D01*
X30000000Y-91080000D02*
X31175300Y-91080000D01*
X60665800Y-93665800D02*
X61500000Y-94500000D01*
X60665800Y-90863100D02*
X40271300Y-90863100D01*
X105092500Y-88000000D02*
X103907500Y-88000000D01*
X82271300Y-90863100D02*
X81312900Y-89904700D01*
X103907500Y-88462500D02*
X102665800Y-89704200D01*
X103907500Y-88000000D02*
X103907500Y-88462500D01*
X102665800Y-89704200D02*
X102665800Y-90863100D01*
X72000000Y-91080000D02*
X73175300Y-91080000D01*
X73983200Y-89904700D02*
X73175300Y-90712600D01*
X102665800Y-90863100D02*
X82271300Y-90863100D01*
X102665800Y-90863100D02*
X102665800Y-93665800D01*
X73175300Y-90712600D02*
X73175300Y-91080000D01*
X102665800Y-93665800D02*
X103500000Y-94500000D01*
X81312900Y-89904700D02*
X73983200Y-89904700D01*
X82271300Y-109863100D02*
X81312900Y-108904700D01*
X103907500Y-107000000D02*
X103907500Y-107462500D01*
X103907500Y-107462500D02*
X102665800Y-108704200D01*
X102665800Y-108704200D02*
X102665800Y-109863100D01*
X72000000Y-110080000D02*
X73175300Y-110080000D01*
X73983200Y-108904700D02*
X73175300Y-109712600D01*
X60665800Y-112665800D02*
X61500000Y-113500000D01*
X60665800Y-109863100D02*
X40271300Y-109863100D01*
X105092500Y-107000000D02*
X103907500Y-107000000D01*
X60665800Y-109863100D02*
X60665800Y-112665800D01*
X63092500Y-107000000D02*
X61907500Y-107000000D01*
X39312900Y-108904700D02*
X31983200Y-108904700D01*
X61907500Y-107462500D02*
X60665800Y-108704200D01*
X31175300Y-109712600D02*
X31175300Y-110080000D01*
X81312900Y-108904700D02*
X73983200Y-108904700D01*
X102665800Y-109863100D02*
X102665800Y-112665800D01*
X102665800Y-109863100D02*
X82271300Y-109863100D01*
X102665800Y-112665800D02*
X103500000Y-113500000D01*
X73175300Y-109712600D02*
X73175300Y-110080000D01*
X30000000Y-110080000D02*
X31175300Y-110080000D01*
X40271300Y-109863100D02*
X39312900Y-108904700D01*
X31983200Y-108904700D02*
X31175300Y-109712600D01*
X60665800Y-108704200D02*
X60665800Y-109863100D01*
X61907500Y-107000000D02*
X61907500Y-107462500D01*
%TO.N,Net-(J7-Pad2)*%
X47500000Y-26400000D02*
X47500000Y-27975300D01*
X47500000Y-27975300D02*
X47122000Y-27975300D01*
X47122000Y-27975300D02*
X46835400Y-28261900D01*
X89122000Y-27975300D02*
X88835400Y-28261900D01*
X89500000Y-26400000D02*
X89500000Y-27975300D01*
X89500000Y-27975300D02*
X89122000Y-27975300D01*
X47122000Y-46975300D02*
X46835400Y-47261900D01*
X47500000Y-45400000D02*
X47500000Y-46975300D01*
X47500000Y-46975300D02*
X47122000Y-46975300D01*
X89500000Y-46975300D02*
X89122000Y-46975300D01*
X89500000Y-45400000D02*
X89500000Y-46975300D01*
X89122000Y-46975300D02*
X88835400Y-47261900D01*
X47122000Y-65975300D02*
X46835400Y-66261900D01*
X47500000Y-64400000D02*
X47500000Y-65975300D01*
X47500000Y-65975300D02*
X47122000Y-65975300D01*
X89500000Y-64400000D02*
X89500000Y-65975300D01*
X89500000Y-65975300D02*
X89122000Y-65975300D01*
X89122000Y-65975300D02*
X88835400Y-66261900D01*
X47122000Y-84975300D02*
X46835400Y-85261900D01*
X47500000Y-83400000D02*
X47500000Y-84975300D01*
X47500000Y-84975300D02*
X47122000Y-84975300D01*
X89500000Y-83400000D02*
X89500000Y-84975300D01*
X89500000Y-84975300D02*
X89122000Y-84975300D01*
X89122000Y-84975300D02*
X88835400Y-85261900D01*
X89500000Y-103975300D02*
X89122000Y-103975300D01*
X89500000Y-102400000D02*
X89500000Y-103975300D01*
X47122000Y-103975300D02*
X46835400Y-104261900D01*
X47500000Y-102400000D02*
X47500000Y-103975300D01*
X89122000Y-103975300D02*
X88835400Y-104261900D01*
X47500000Y-103975300D02*
X47122000Y-103975300D01*
%TO.N,Net-(J7-Pad1)*%
X51500000Y-38575200D02*
X46741100Y-38575200D01*
X46741100Y-38575200D02*
X45663800Y-37497900D01*
X63500000Y-37500000D02*
X62431300Y-38568700D01*
X62431300Y-38568700D02*
X60533000Y-38568700D01*
X60533000Y-38568700D02*
X60138900Y-38174600D01*
X60138900Y-38174600D02*
X51900600Y-38174600D01*
X51900600Y-38174600D02*
X51500000Y-38575200D01*
X51500000Y-40024700D02*
X51500000Y-38575200D01*
X51500000Y-41600000D02*
X51500000Y-40024700D01*
X104431300Y-38568700D02*
X102533000Y-38568700D01*
X105500000Y-37500000D02*
X104431300Y-38568700D01*
X102138900Y-38174600D02*
X93900600Y-38174600D01*
X102533000Y-38568700D02*
X102138900Y-38174600D01*
X93500000Y-40024700D02*
X93500000Y-38575200D01*
X88741100Y-38575200D02*
X87663800Y-37497900D01*
X93900600Y-38174600D02*
X93500000Y-38575200D01*
X93500000Y-41600000D02*
X93500000Y-40024700D01*
X93500000Y-38575200D02*
X88741100Y-38575200D01*
X62431300Y-57568700D02*
X60533000Y-57568700D01*
X63500000Y-56500000D02*
X62431300Y-57568700D01*
X60138900Y-57174600D02*
X51900600Y-57174600D01*
X60533000Y-57568700D02*
X60138900Y-57174600D01*
X51500000Y-59024700D02*
X51500000Y-57575200D01*
X46741100Y-57575200D02*
X45663800Y-56497900D01*
X51900600Y-57174600D02*
X51500000Y-57575200D01*
X51500000Y-60600000D02*
X51500000Y-59024700D01*
X51500000Y-57575200D02*
X46741100Y-57575200D01*
X102533000Y-57568700D02*
X102138900Y-57174600D01*
X88741100Y-57575200D02*
X87663800Y-56497900D01*
X93500000Y-59024700D02*
X93500000Y-57575200D01*
X93500000Y-60600000D02*
X93500000Y-59024700D01*
X93900600Y-57174600D02*
X93500000Y-57575200D01*
X105500000Y-56500000D02*
X104431300Y-57568700D01*
X102138900Y-57174600D02*
X93900600Y-57174600D01*
X104431300Y-57568700D02*
X102533000Y-57568700D01*
X93500000Y-57575200D02*
X88741100Y-57575200D01*
X62431300Y-76568700D02*
X60533000Y-76568700D01*
X60138900Y-76174600D02*
X51900600Y-76174600D01*
X63500000Y-75500000D02*
X62431300Y-76568700D01*
X51500000Y-79600000D02*
X51500000Y-78024700D01*
X60533000Y-76568700D02*
X60138900Y-76174600D01*
X51900600Y-76174600D02*
X51500000Y-76575200D01*
X51500000Y-78024700D02*
X51500000Y-76575200D01*
X51500000Y-76575200D02*
X46741100Y-76575200D01*
X46741100Y-76575200D02*
X45663800Y-75497900D01*
X93900600Y-76174600D02*
X93500000Y-76575200D01*
X93500000Y-79600000D02*
X93500000Y-78024700D01*
X105500000Y-75500000D02*
X104431300Y-76568700D01*
X102138900Y-76174600D02*
X93900600Y-76174600D01*
X102533000Y-76568700D02*
X102138900Y-76174600D01*
X93500000Y-78024700D02*
X93500000Y-76575200D01*
X88741100Y-76575200D02*
X87663800Y-75497900D01*
X93500000Y-76575200D02*
X88741100Y-76575200D01*
X104431300Y-76568700D02*
X102533000Y-76568700D01*
X62431300Y-95568700D02*
X60533000Y-95568700D01*
X60138900Y-95174600D02*
X51900600Y-95174600D01*
X63500000Y-94500000D02*
X62431300Y-95568700D01*
X51500000Y-95575200D02*
X46741100Y-95575200D01*
X51500000Y-98600000D02*
X51500000Y-97024700D01*
X46741100Y-95575200D02*
X45663800Y-94497900D01*
X93900600Y-95174600D02*
X93500000Y-95575200D01*
X60533000Y-95568700D02*
X60138900Y-95174600D01*
X51900600Y-95174600D02*
X51500000Y-95575200D01*
X51500000Y-97024700D02*
X51500000Y-95575200D01*
X93500000Y-97024700D02*
X93500000Y-95575200D01*
X102533000Y-95568700D02*
X102138900Y-95174600D01*
X88741100Y-95575200D02*
X87663800Y-94497900D01*
X93500000Y-95575200D02*
X88741100Y-95575200D01*
X93500000Y-98600000D02*
X93500000Y-97024700D01*
X105500000Y-94500000D02*
X104431300Y-95568700D01*
X102138900Y-95174600D02*
X93900600Y-95174600D01*
X104431300Y-95568700D02*
X102533000Y-95568700D01*
X62431300Y-114568700D02*
X60533000Y-114568700D01*
X88741100Y-114575200D02*
X87663800Y-113497900D01*
X93500000Y-114575200D02*
X88741100Y-114575200D01*
X93500000Y-116024700D02*
X93500000Y-114575200D01*
X51500000Y-116024700D02*
X51500000Y-114575200D01*
X102533000Y-114568700D02*
X102138900Y-114174600D01*
X63500000Y-113500000D02*
X62431300Y-114568700D01*
X60138900Y-114174600D02*
X51900600Y-114174600D01*
X105500000Y-113500000D02*
X104431300Y-114568700D01*
X102138900Y-114174600D02*
X93900600Y-114174600D01*
X104431300Y-114568700D02*
X102533000Y-114568700D01*
X93500000Y-117600000D02*
X93500000Y-116024700D01*
X51900600Y-114174600D02*
X51500000Y-114575200D01*
X51500000Y-114575200D02*
X46741100Y-114575200D01*
X51500000Y-117600000D02*
X51500000Y-116024700D01*
X46741100Y-114575200D02*
X45663800Y-113497900D01*
X93900600Y-114174600D02*
X93500000Y-114575200D01*
X60533000Y-114568700D02*
X60138900Y-114174600D01*
%TO.N,Net-(R1-Pad1)*%
X55500000Y-26400000D02*
X55500000Y-27975300D01*
X55500000Y-27975300D02*
X60475300Y-27975300D01*
X60475300Y-27975300D02*
X61500000Y-29000000D01*
X102475300Y-27975300D02*
X103500000Y-29000000D01*
X97500000Y-26400000D02*
X97500000Y-27975300D01*
X97500000Y-27975300D02*
X102475300Y-27975300D01*
X60475300Y-46975300D02*
X61500000Y-48000000D01*
X55500000Y-45400000D02*
X55500000Y-46975300D01*
X55500000Y-46975300D02*
X60475300Y-46975300D01*
X97500000Y-45400000D02*
X97500000Y-46975300D01*
X97500000Y-46975300D02*
X102475300Y-46975300D01*
X102475300Y-46975300D02*
X103500000Y-48000000D01*
X60475300Y-65975300D02*
X61500000Y-67000000D01*
X55500000Y-64400000D02*
X55500000Y-65975300D01*
X55500000Y-65975300D02*
X60475300Y-65975300D01*
X97500000Y-65975300D02*
X102475300Y-65975300D01*
X97500000Y-64400000D02*
X97500000Y-65975300D01*
X102475300Y-65975300D02*
X103500000Y-67000000D01*
X60475300Y-84975300D02*
X61500000Y-86000000D01*
X55500000Y-84975300D02*
X60475300Y-84975300D01*
X55500000Y-83400000D02*
X55500000Y-84975300D01*
X97500000Y-84975300D02*
X102475300Y-84975300D01*
X97500000Y-83400000D02*
X97500000Y-84975300D01*
X102475300Y-84975300D02*
X103500000Y-86000000D01*
X97500000Y-103975300D02*
X102475300Y-103975300D01*
X60475300Y-103975300D02*
X61500000Y-105000000D01*
X97500000Y-102400000D02*
X97500000Y-103975300D01*
X102475300Y-103975300D02*
X103500000Y-105000000D01*
X55500000Y-103975300D02*
X60475300Y-103975300D01*
X55500000Y-102400000D02*
X55500000Y-103975300D01*
%TO.N,/GPIO4*%
X49500000Y-26400000D02*
X49500000Y-27975300D01*
X49500000Y-27975300D02*
X51615700Y-30091000D01*
X51615700Y-30091000D02*
X63182800Y-30091000D01*
X63182800Y-30091000D02*
X63907500Y-30815700D01*
X63907500Y-30815700D02*
X63907500Y-31000000D01*
X91500000Y-27975300D02*
X93615700Y-30091000D01*
X93615700Y-30091000D02*
X105182800Y-30091000D01*
X105907500Y-30815700D02*
X105907500Y-31000000D01*
X91500000Y-26400000D02*
X91500000Y-27975300D01*
X105182800Y-30091000D02*
X105907500Y-30815700D01*
X49500000Y-46975300D02*
X51615700Y-49091000D01*
X51615700Y-49091000D02*
X63182800Y-49091000D01*
X63907500Y-49815700D02*
X63907500Y-50000000D01*
X49500000Y-45400000D02*
X49500000Y-46975300D01*
X63182800Y-49091000D02*
X63907500Y-49815700D01*
X91500000Y-45400000D02*
X91500000Y-46975300D01*
X93615700Y-49091000D02*
X105182800Y-49091000D01*
X91500000Y-46975300D02*
X93615700Y-49091000D01*
X105907500Y-49815700D02*
X105907500Y-50000000D01*
X105182800Y-49091000D02*
X105907500Y-49815700D01*
X63182800Y-68091000D02*
X63907500Y-68815700D01*
X49500000Y-65975300D02*
X51615700Y-68091000D01*
X51615700Y-68091000D02*
X63182800Y-68091000D01*
X63907500Y-68815700D02*
X63907500Y-69000000D01*
X49500000Y-64400000D02*
X49500000Y-65975300D01*
X91500000Y-64400000D02*
X91500000Y-65975300D01*
X93615700Y-68091000D02*
X105182800Y-68091000D01*
X91500000Y-65975300D02*
X93615700Y-68091000D01*
X105907500Y-68815700D02*
X105907500Y-69000000D01*
X105182800Y-68091000D02*
X105907500Y-68815700D01*
X49500000Y-83400000D02*
X49500000Y-84975300D01*
X63182800Y-87091000D02*
X63907500Y-87815700D01*
X49500000Y-84975300D02*
X51615700Y-87091000D01*
X51615700Y-87091000D02*
X63182800Y-87091000D01*
X63907500Y-87815700D02*
X63907500Y-88000000D01*
X91500000Y-83400000D02*
X91500000Y-84975300D01*
X93615700Y-87091000D02*
X105182800Y-87091000D01*
X91500000Y-84975300D02*
X93615700Y-87091000D01*
X105182800Y-87091000D02*
X105907500Y-87815700D01*
X105907500Y-87815700D02*
X105907500Y-88000000D01*
X49500000Y-103975300D02*
X51615700Y-106091000D01*
X93615700Y-106091000D02*
X105182800Y-106091000D01*
X63907500Y-106815700D02*
X63907500Y-107000000D01*
X91500000Y-102400000D02*
X91500000Y-103975300D01*
X51615700Y-106091000D02*
X63182800Y-106091000D01*
X91500000Y-103975300D02*
X93615700Y-106091000D01*
X105182800Y-106091000D02*
X105907500Y-106815700D01*
X105907500Y-106815700D02*
X105907500Y-107000000D01*
X49500000Y-102400000D02*
X49500000Y-103975300D01*
X63182800Y-106091000D02*
X63907500Y-106815700D01*
%TO.N,Net-(SW1-Pad1)*%
X55500000Y-41600000D02*
X55500000Y-40024700D01*
X60024700Y-41000000D02*
X59879900Y-40855200D01*
X59879900Y-40855200D02*
X58630500Y-40855200D01*
X61100000Y-41000000D02*
X60024700Y-41000000D01*
X55500000Y-40024700D02*
X55876600Y-40024700D01*
X55876600Y-40024700D02*
X56151700Y-39749600D01*
X103100000Y-41000000D02*
X102024700Y-41000000D01*
X97500000Y-41600000D02*
X97500000Y-40024700D01*
X101879900Y-40855200D02*
X100630500Y-40855200D01*
X97500000Y-40024700D02*
X97876600Y-40024700D01*
X102024700Y-41000000D02*
X101879900Y-40855200D01*
X97876600Y-40024700D02*
X98151700Y-39749600D01*
X61100000Y-60000000D02*
X60024700Y-60000000D01*
X55500000Y-60600000D02*
X55500000Y-59024700D01*
X59879900Y-59855200D02*
X58630500Y-59855200D01*
X55500000Y-59024700D02*
X55876600Y-59024700D01*
X60024700Y-60000000D02*
X59879900Y-59855200D01*
X55876600Y-59024700D02*
X56151700Y-58749600D01*
X101879900Y-59855200D02*
X100630500Y-59855200D01*
X97500000Y-59024700D02*
X97876600Y-59024700D01*
X103100000Y-60000000D02*
X102024700Y-60000000D01*
X97500000Y-60600000D02*
X97500000Y-59024700D01*
X102024700Y-60000000D02*
X101879900Y-59855200D01*
X97876600Y-59024700D02*
X98151700Y-58749600D01*
X61100000Y-79000000D02*
X60024700Y-79000000D01*
X55500000Y-78024700D02*
X55876600Y-78024700D01*
X59879900Y-78855200D02*
X58630500Y-78855200D01*
X55500000Y-79600000D02*
X55500000Y-78024700D01*
X55876600Y-78024700D02*
X56151700Y-77749600D01*
X60024700Y-79000000D02*
X59879900Y-78855200D01*
X101879900Y-78855200D02*
X100630500Y-78855200D01*
X103100000Y-79000000D02*
X102024700Y-79000000D01*
X97500000Y-78024700D02*
X97876600Y-78024700D01*
X97500000Y-79600000D02*
X97500000Y-78024700D01*
X97876600Y-78024700D02*
X98151700Y-77749600D01*
X102024700Y-79000000D02*
X101879900Y-78855200D01*
X61100000Y-98000000D02*
X60024700Y-98000000D01*
X60024700Y-98000000D02*
X59879900Y-97855200D01*
X55500000Y-97024700D02*
X55876600Y-97024700D01*
X59879900Y-97855200D02*
X58630500Y-97855200D01*
X55500000Y-98600000D02*
X55500000Y-97024700D01*
X55876600Y-97024700D02*
X56151700Y-96749600D01*
X103100000Y-98000000D02*
X102024700Y-98000000D01*
X97500000Y-97024700D02*
X97876600Y-97024700D01*
X101879900Y-97855200D02*
X100630500Y-97855200D01*
X97500000Y-98600000D02*
X97500000Y-97024700D01*
X102024700Y-98000000D02*
X101879900Y-97855200D01*
X97876600Y-97024700D02*
X98151700Y-96749600D01*
X97500000Y-116024700D02*
X97876600Y-116024700D01*
X103100000Y-117000000D02*
X102024700Y-117000000D01*
X61100000Y-117000000D02*
X60024700Y-117000000D01*
X101879900Y-116855200D02*
X100630500Y-116855200D01*
X97500000Y-117600000D02*
X97500000Y-116024700D01*
X102024700Y-117000000D02*
X101879900Y-116855200D01*
X97876600Y-116024700D02*
X98151700Y-115749600D01*
X59879900Y-116855200D02*
X58630500Y-116855200D01*
X55500000Y-117600000D02*
X55500000Y-116024700D01*
X55876600Y-116024700D02*
X56151700Y-115749600D01*
X60024700Y-117000000D02*
X59879900Y-116855200D01*
X55500000Y-116024700D02*
X55876600Y-116024700D01*
%TO.N,Net-(U2-Pad1)*%
X43500000Y-41600000D02*
X43500000Y-40024700D01*
X49500000Y-41600000D02*
X49500000Y-39868100D01*
X49500000Y-39868100D02*
X48832800Y-39200900D01*
X48832800Y-39200900D02*
X44323800Y-39200900D01*
X44323800Y-39200900D02*
X43500000Y-40024700D01*
X90832800Y-39200900D02*
X86323800Y-39200900D01*
X86323800Y-39200900D02*
X85500000Y-40024700D01*
X91500000Y-41600000D02*
X91500000Y-39868100D01*
X85500000Y-41600000D02*
X85500000Y-40024700D01*
X91500000Y-39868100D02*
X90832800Y-39200900D01*
X48832800Y-58200900D02*
X44323800Y-58200900D01*
X44323800Y-58200900D02*
X43500000Y-59024700D01*
X49500000Y-60600000D02*
X49500000Y-58868100D01*
X43500000Y-60600000D02*
X43500000Y-59024700D01*
X49500000Y-58868100D02*
X48832800Y-58200900D01*
X91500000Y-60600000D02*
X91500000Y-58868100D01*
X86323800Y-58200900D02*
X85500000Y-59024700D01*
X90832800Y-58200900D02*
X86323800Y-58200900D01*
X91500000Y-58868100D02*
X90832800Y-58200900D01*
X85500000Y-60600000D02*
X85500000Y-59024700D01*
X44323800Y-77200900D02*
X43500000Y-78024700D01*
X48832800Y-77200900D02*
X44323800Y-77200900D01*
X49500000Y-79600000D02*
X49500000Y-77868100D01*
X43500000Y-79600000D02*
X43500000Y-78024700D01*
X49500000Y-77868100D02*
X48832800Y-77200900D01*
X91500000Y-79600000D02*
X91500000Y-77868100D01*
X86323800Y-77200900D02*
X85500000Y-78024700D01*
X91500000Y-77868100D02*
X90832800Y-77200900D01*
X90832800Y-77200900D02*
X86323800Y-77200900D01*
X85500000Y-79600000D02*
X85500000Y-78024700D01*
X48832800Y-96200900D02*
X44323800Y-96200900D01*
X44323800Y-96200900D02*
X43500000Y-97024700D01*
X49500000Y-98600000D02*
X49500000Y-96868100D01*
X49500000Y-96868100D02*
X48832800Y-96200900D01*
X43500000Y-98600000D02*
X43500000Y-97024700D01*
X86323800Y-96200900D02*
X85500000Y-97024700D01*
X91500000Y-96868100D02*
X90832800Y-96200900D01*
X91500000Y-98600000D02*
X91500000Y-96868100D01*
X90832800Y-96200900D02*
X86323800Y-96200900D01*
X85500000Y-98600000D02*
X85500000Y-97024700D01*
X86323800Y-115200900D02*
X85500000Y-116024700D01*
X91500000Y-115868100D02*
X90832800Y-115200900D01*
X43500000Y-117600000D02*
X43500000Y-116024700D01*
X49500000Y-117600000D02*
X49500000Y-115868100D01*
X48832800Y-115200900D02*
X44323800Y-115200900D01*
X44323800Y-115200900D02*
X43500000Y-116024700D01*
X91500000Y-117600000D02*
X91500000Y-115868100D01*
X85500000Y-117600000D02*
X85500000Y-116024700D01*
X90832800Y-115200900D02*
X86323800Y-115200900D01*
X49500000Y-115868100D02*
X48832800Y-115200900D01*
%TD*%
M02*
