%TF.GenerationSoftware,KiCad,Pcbnew,(5.1.9)-1*%
%TF.CreationDate,2021-05-03T13:14:32+02:00*%
%TF.ProjectId,IM350_AM550_5V_V2.0_Multi,494d3335-305f-4414-9d35-35305f35565f,rev?*%
%TF.SameCoordinates,Original*%
%TF.FileFunction,Copper,L1,Top*%
%TF.FilePolarity,Positive*%
%FSLAX46Y46*%
G04 Gerber Fmt 4.6, Leading zero omitted, Abs format (unit mm)*
G04 Created by KiCad (PCBNEW (5.1.9)-1) date 2021-05-03 13:14:32*
%MOMM*%
%LPD*%
G01*
G04 APERTURE LIST*
%TA.AperFunction,NonConductor*%
%ADD10C,0.150000*%
%TD*%
%TA.AperFunction,SMDPad,CuDef*%
%ADD11R,1.300000X0.800000*%
%TD*%
%TA.AperFunction,ComponentPad*%
%ADD12R,1.700000X1.700000*%
%TD*%
%TA.AperFunction,ComponentPad*%
%ADD13O,1.700000X1.700000*%
%TD*%
%TA.AperFunction,SMDPad,CuDef*%
%ADD14R,2.800000X0.600000*%
%TD*%
%TA.AperFunction,ComponentPad*%
%ADD15O,1.900000X1.050000*%
%TD*%
%TA.AperFunction,SMDPad,CuDef*%
%ADD16R,1.500000X1.500000*%
%TD*%
%TA.AperFunction,SMDPad,CuDef*%
%ADD17R,1.000000X2.500000*%
%TD*%
%TA.AperFunction,SMDPad,CuDef*%
%ADD18R,1.800000X1.000000*%
%TD*%
%TA.AperFunction,ViaPad*%
%ADD19C,0.800000*%
%TD*%
%TA.AperFunction,Conductor*%
%ADD20C,0.250000*%
%TD*%
G04 APERTURE END LIST*
D10*
X119535714Y-120642857D02*
X120202380Y-120452380D01*
X119726190Y-120261904D01*
X120202380Y-120071428D01*
X119535714Y-119880952D01*
X119535714Y-119595238D02*
X120202380Y-119404761D01*
X119726190Y-119214285D01*
X120202380Y-119023809D01*
X119535714Y-118833333D01*
X119535714Y-118547619D02*
X120202380Y-118357142D01*
X119726190Y-118166666D01*
X120202380Y-117976190D01*
X119535714Y-117785714D01*
X120107142Y-117404761D02*
X120154761Y-117357142D01*
X120202380Y-117404761D01*
X120154761Y-117452380D01*
X120107142Y-117404761D01*
X120202380Y-117404761D01*
X120154761Y-116976190D02*
X120202380Y-116880952D01*
X120202380Y-116690476D01*
X120154761Y-116595238D01*
X120059523Y-116547619D01*
X120011904Y-116547619D01*
X119916666Y-116595238D01*
X119869047Y-116690476D01*
X119869047Y-116833333D01*
X119821428Y-116928571D01*
X119726190Y-116976190D01*
X119678571Y-116976190D01*
X119583333Y-116928571D01*
X119535714Y-116833333D01*
X119535714Y-116690476D01*
X119583333Y-116595238D01*
X120202380Y-116119047D02*
X119202380Y-116119047D01*
X120202380Y-115690476D02*
X119678571Y-115690476D01*
X119583333Y-115738095D01*
X119535714Y-115833333D01*
X119535714Y-115976190D01*
X119583333Y-116071428D01*
X119630952Y-116119047D01*
X120202380Y-115214285D02*
X119535714Y-115214285D01*
X119726190Y-115214285D02*
X119630952Y-115166666D01*
X119583333Y-115119047D01*
X119535714Y-115023809D01*
X119535714Y-114928571D01*
X120202380Y-114166666D02*
X119202380Y-114166666D01*
X120154761Y-114166666D02*
X120202380Y-114261904D01*
X120202380Y-114452380D01*
X120154761Y-114547619D01*
X120107142Y-114595238D01*
X120011904Y-114642857D01*
X119726190Y-114642857D01*
X119630952Y-114595238D01*
X119583333Y-114547619D01*
X119535714Y-114452380D01*
X119535714Y-114261904D01*
X119583333Y-114166666D01*
X119535714Y-113785714D02*
X119535714Y-113261904D01*
X120202380Y-113785714D01*
X120202380Y-113261904D01*
X120202380Y-112880952D02*
X119535714Y-112880952D01*
X119630952Y-112880952D02*
X119583333Y-112833333D01*
X119535714Y-112738095D01*
X119535714Y-112595238D01*
X119583333Y-112500000D01*
X119678571Y-112452380D01*
X120202380Y-112452380D01*
X119678571Y-112452380D02*
X119583333Y-112404761D01*
X119535714Y-112309523D01*
X119535714Y-112166666D01*
X119583333Y-112071428D01*
X119678571Y-112023809D01*
X120202380Y-112023809D01*
X120107142Y-111547619D02*
X120154761Y-111500000D01*
X120202380Y-111547619D01*
X120154761Y-111595238D01*
X120107142Y-111547619D01*
X120202380Y-111547619D01*
X120154761Y-110642857D02*
X120202380Y-110738095D01*
X120202380Y-110928571D01*
X120154761Y-111023809D01*
X120107142Y-111071428D01*
X120011904Y-111119047D01*
X119726190Y-111119047D01*
X119630952Y-111071428D01*
X119583333Y-111023809D01*
X119535714Y-110928571D01*
X119535714Y-110738095D01*
X119583333Y-110642857D01*
X120202380Y-110071428D02*
X120154761Y-110166666D01*
X120107142Y-110214285D01*
X120011904Y-110261904D01*
X119726190Y-110261904D01*
X119630952Y-110214285D01*
X119583333Y-110166666D01*
X119535714Y-110071428D01*
X119535714Y-109928571D01*
X119583333Y-109833333D01*
X119630952Y-109785714D01*
X119726190Y-109738095D01*
X120011904Y-109738095D01*
X120107142Y-109785714D01*
X120154761Y-109833333D01*
X120202380Y-109928571D01*
X120202380Y-110071428D01*
X120202380Y-109309523D02*
X119535714Y-109309523D01*
X119630952Y-109309523D02*
X119583333Y-109261904D01*
X119535714Y-109166666D01*
X119535714Y-109023809D01*
X119583333Y-108928571D01*
X119678571Y-108880952D01*
X120202380Y-108880952D01*
X119678571Y-108880952D02*
X119583333Y-108833333D01*
X119535714Y-108738095D01*
X119535714Y-108595238D01*
X119583333Y-108500000D01*
X119678571Y-108452380D01*
X120202380Y-108452380D01*
X127035714Y-120642857D02*
X127702380Y-120452380D01*
X127226190Y-120261904D01*
X127702380Y-120071428D01*
X127035714Y-119880952D01*
X127035714Y-119595238D02*
X127702380Y-119404761D01*
X127226190Y-119214285D01*
X127702380Y-119023809D01*
X127035714Y-118833333D01*
X127035714Y-118547619D02*
X127702380Y-118357142D01*
X127226190Y-118166666D01*
X127702380Y-117976190D01*
X127035714Y-117785714D01*
X127607142Y-117404761D02*
X127654761Y-117357142D01*
X127702380Y-117404761D01*
X127654761Y-117452380D01*
X127607142Y-117404761D01*
X127702380Y-117404761D01*
X127654761Y-116976190D02*
X127702380Y-116880952D01*
X127702380Y-116690476D01*
X127654761Y-116595238D01*
X127559523Y-116547619D01*
X127511904Y-116547619D01*
X127416666Y-116595238D01*
X127369047Y-116690476D01*
X127369047Y-116833333D01*
X127321428Y-116928571D01*
X127226190Y-116976190D01*
X127178571Y-116976190D01*
X127083333Y-116928571D01*
X127035714Y-116833333D01*
X127035714Y-116690476D01*
X127083333Y-116595238D01*
X127702380Y-116119047D02*
X126702380Y-116119047D01*
X127702380Y-115690476D02*
X127178571Y-115690476D01*
X127083333Y-115738095D01*
X127035714Y-115833333D01*
X127035714Y-115976190D01*
X127083333Y-116071428D01*
X127130952Y-116119047D01*
X127702380Y-115214285D02*
X127035714Y-115214285D01*
X127226190Y-115214285D02*
X127130952Y-115166666D01*
X127083333Y-115119047D01*
X127035714Y-115023809D01*
X127035714Y-114928571D01*
X127702380Y-114166666D02*
X126702380Y-114166666D01*
X127654761Y-114166666D02*
X127702380Y-114261904D01*
X127702380Y-114452380D01*
X127654761Y-114547619D01*
X127607142Y-114595238D01*
X127511904Y-114642857D01*
X127226190Y-114642857D01*
X127130952Y-114595238D01*
X127083333Y-114547619D01*
X127035714Y-114452380D01*
X127035714Y-114261904D01*
X127083333Y-114166666D01*
X127035714Y-113785714D02*
X127035714Y-113261904D01*
X127702380Y-113785714D01*
X127702380Y-113261904D01*
X127702380Y-112880952D02*
X127035714Y-112880952D01*
X127130952Y-112880952D02*
X127083333Y-112833333D01*
X127035714Y-112738095D01*
X127035714Y-112595238D01*
X127083333Y-112500000D01*
X127178571Y-112452380D01*
X127702380Y-112452380D01*
X127178571Y-112452380D02*
X127083333Y-112404761D01*
X127035714Y-112309523D01*
X127035714Y-112166666D01*
X127083333Y-112071428D01*
X127178571Y-112023809D01*
X127702380Y-112023809D01*
X127607142Y-111547619D02*
X127654761Y-111500000D01*
X127702380Y-111547619D01*
X127654761Y-111595238D01*
X127607142Y-111547619D01*
X127702380Y-111547619D01*
X127654761Y-110642857D02*
X127702380Y-110738095D01*
X127702380Y-110928571D01*
X127654761Y-111023809D01*
X127607142Y-111071428D01*
X127511904Y-111119047D01*
X127226190Y-111119047D01*
X127130952Y-111071428D01*
X127083333Y-111023809D01*
X127035714Y-110928571D01*
X127035714Y-110738095D01*
X127083333Y-110642857D01*
X127702380Y-110071428D02*
X127654761Y-110166666D01*
X127607142Y-110214285D01*
X127511904Y-110261904D01*
X127226190Y-110261904D01*
X127130952Y-110214285D01*
X127083333Y-110166666D01*
X127035714Y-110071428D01*
X127035714Y-109928571D01*
X127083333Y-109833333D01*
X127130952Y-109785714D01*
X127226190Y-109738095D01*
X127511904Y-109738095D01*
X127607142Y-109785714D01*
X127654761Y-109833333D01*
X127702380Y-109928571D01*
X127702380Y-110071428D01*
X127702380Y-109309523D02*
X127035714Y-109309523D01*
X127130952Y-109309523D02*
X127083333Y-109261904D01*
X127035714Y-109166666D01*
X127035714Y-109023809D01*
X127083333Y-108928571D01*
X127178571Y-108880952D01*
X127702380Y-108880952D01*
X127178571Y-108880952D02*
X127083333Y-108833333D01*
X127035714Y-108738095D01*
X127035714Y-108595238D01*
X127083333Y-108500000D01*
X127178571Y-108452380D01*
X127702380Y-108452380D01*
X119535714Y-100642857D02*
X120202380Y-100452380D01*
X119726190Y-100261904D01*
X120202380Y-100071428D01*
X119535714Y-99880952D01*
X119535714Y-99595238D02*
X120202380Y-99404761D01*
X119726190Y-99214285D01*
X120202380Y-99023809D01*
X119535714Y-98833333D01*
X119535714Y-98547619D02*
X120202380Y-98357142D01*
X119726190Y-98166666D01*
X120202380Y-97976190D01*
X119535714Y-97785714D01*
X120107142Y-97404761D02*
X120154761Y-97357142D01*
X120202380Y-97404761D01*
X120154761Y-97452380D01*
X120107142Y-97404761D01*
X120202380Y-97404761D01*
X120154761Y-96976190D02*
X120202380Y-96880952D01*
X120202380Y-96690476D01*
X120154761Y-96595238D01*
X120059523Y-96547619D01*
X120011904Y-96547619D01*
X119916666Y-96595238D01*
X119869047Y-96690476D01*
X119869047Y-96833333D01*
X119821428Y-96928571D01*
X119726190Y-96976190D01*
X119678571Y-96976190D01*
X119583333Y-96928571D01*
X119535714Y-96833333D01*
X119535714Y-96690476D01*
X119583333Y-96595238D01*
X120202380Y-96119047D02*
X119202380Y-96119047D01*
X120202380Y-95690476D02*
X119678571Y-95690476D01*
X119583333Y-95738095D01*
X119535714Y-95833333D01*
X119535714Y-95976190D01*
X119583333Y-96071428D01*
X119630952Y-96119047D01*
X120202380Y-95214285D02*
X119535714Y-95214285D01*
X119726190Y-95214285D02*
X119630952Y-95166666D01*
X119583333Y-95119047D01*
X119535714Y-95023809D01*
X119535714Y-94928571D01*
X120202380Y-94166666D02*
X119202380Y-94166666D01*
X120154761Y-94166666D02*
X120202380Y-94261904D01*
X120202380Y-94452380D01*
X120154761Y-94547619D01*
X120107142Y-94595238D01*
X120011904Y-94642857D01*
X119726190Y-94642857D01*
X119630952Y-94595238D01*
X119583333Y-94547619D01*
X119535714Y-94452380D01*
X119535714Y-94261904D01*
X119583333Y-94166666D01*
X119535714Y-93785714D02*
X119535714Y-93261904D01*
X120202380Y-93785714D01*
X120202380Y-93261904D01*
X120202380Y-92880952D02*
X119535714Y-92880952D01*
X119630952Y-92880952D02*
X119583333Y-92833333D01*
X119535714Y-92738095D01*
X119535714Y-92595238D01*
X119583333Y-92500000D01*
X119678571Y-92452380D01*
X120202380Y-92452380D01*
X119678571Y-92452380D02*
X119583333Y-92404761D01*
X119535714Y-92309523D01*
X119535714Y-92166666D01*
X119583333Y-92071428D01*
X119678571Y-92023809D01*
X120202380Y-92023809D01*
X120107142Y-91547619D02*
X120154761Y-91500000D01*
X120202380Y-91547619D01*
X120154761Y-91595238D01*
X120107142Y-91547619D01*
X120202380Y-91547619D01*
X120154761Y-90642857D02*
X120202380Y-90738095D01*
X120202380Y-90928571D01*
X120154761Y-91023809D01*
X120107142Y-91071428D01*
X120011904Y-91119047D01*
X119726190Y-91119047D01*
X119630952Y-91071428D01*
X119583333Y-91023809D01*
X119535714Y-90928571D01*
X119535714Y-90738095D01*
X119583333Y-90642857D01*
X120202380Y-90071428D02*
X120154761Y-90166666D01*
X120107142Y-90214285D01*
X120011904Y-90261904D01*
X119726190Y-90261904D01*
X119630952Y-90214285D01*
X119583333Y-90166666D01*
X119535714Y-90071428D01*
X119535714Y-89928571D01*
X119583333Y-89833333D01*
X119630952Y-89785714D01*
X119726190Y-89738095D01*
X120011904Y-89738095D01*
X120107142Y-89785714D01*
X120154761Y-89833333D01*
X120202380Y-89928571D01*
X120202380Y-90071428D01*
X120202380Y-89309523D02*
X119535714Y-89309523D01*
X119630952Y-89309523D02*
X119583333Y-89261904D01*
X119535714Y-89166666D01*
X119535714Y-89023809D01*
X119583333Y-88928571D01*
X119678571Y-88880952D01*
X120202380Y-88880952D01*
X119678571Y-88880952D02*
X119583333Y-88833333D01*
X119535714Y-88738095D01*
X119535714Y-88595238D01*
X119583333Y-88500000D01*
X119678571Y-88452380D01*
X120202380Y-88452380D01*
X127035714Y-100642857D02*
X127702380Y-100452380D01*
X127226190Y-100261904D01*
X127702380Y-100071428D01*
X127035714Y-99880952D01*
X127035714Y-99595238D02*
X127702380Y-99404761D01*
X127226190Y-99214285D01*
X127702380Y-99023809D01*
X127035714Y-98833333D01*
X127035714Y-98547619D02*
X127702380Y-98357142D01*
X127226190Y-98166666D01*
X127702380Y-97976190D01*
X127035714Y-97785714D01*
X127607142Y-97404761D02*
X127654761Y-97357142D01*
X127702380Y-97404761D01*
X127654761Y-97452380D01*
X127607142Y-97404761D01*
X127702380Y-97404761D01*
X127654761Y-96976190D02*
X127702380Y-96880952D01*
X127702380Y-96690476D01*
X127654761Y-96595238D01*
X127559523Y-96547619D01*
X127511904Y-96547619D01*
X127416666Y-96595238D01*
X127369047Y-96690476D01*
X127369047Y-96833333D01*
X127321428Y-96928571D01*
X127226190Y-96976190D01*
X127178571Y-96976190D01*
X127083333Y-96928571D01*
X127035714Y-96833333D01*
X127035714Y-96690476D01*
X127083333Y-96595238D01*
X127702380Y-96119047D02*
X126702380Y-96119047D01*
X127702380Y-95690476D02*
X127178571Y-95690476D01*
X127083333Y-95738095D01*
X127035714Y-95833333D01*
X127035714Y-95976190D01*
X127083333Y-96071428D01*
X127130952Y-96119047D01*
X127702380Y-95214285D02*
X127035714Y-95214285D01*
X127226190Y-95214285D02*
X127130952Y-95166666D01*
X127083333Y-95119047D01*
X127035714Y-95023809D01*
X127035714Y-94928571D01*
X127702380Y-94166666D02*
X126702380Y-94166666D01*
X127654761Y-94166666D02*
X127702380Y-94261904D01*
X127702380Y-94452380D01*
X127654761Y-94547619D01*
X127607142Y-94595238D01*
X127511904Y-94642857D01*
X127226190Y-94642857D01*
X127130952Y-94595238D01*
X127083333Y-94547619D01*
X127035714Y-94452380D01*
X127035714Y-94261904D01*
X127083333Y-94166666D01*
X127035714Y-93785714D02*
X127035714Y-93261904D01*
X127702380Y-93785714D01*
X127702380Y-93261904D01*
X127702380Y-92880952D02*
X127035714Y-92880952D01*
X127130952Y-92880952D02*
X127083333Y-92833333D01*
X127035714Y-92738095D01*
X127035714Y-92595238D01*
X127083333Y-92500000D01*
X127178571Y-92452380D01*
X127702380Y-92452380D01*
X127178571Y-92452380D02*
X127083333Y-92404761D01*
X127035714Y-92309523D01*
X127035714Y-92166666D01*
X127083333Y-92071428D01*
X127178571Y-92023809D01*
X127702380Y-92023809D01*
X127607142Y-91547619D02*
X127654761Y-91500000D01*
X127702380Y-91547619D01*
X127654761Y-91595238D01*
X127607142Y-91547619D01*
X127702380Y-91547619D01*
X127654761Y-90642857D02*
X127702380Y-90738095D01*
X127702380Y-90928571D01*
X127654761Y-91023809D01*
X127607142Y-91071428D01*
X127511904Y-91119047D01*
X127226190Y-91119047D01*
X127130952Y-91071428D01*
X127083333Y-91023809D01*
X127035714Y-90928571D01*
X127035714Y-90738095D01*
X127083333Y-90642857D01*
X127702380Y-90071428D02*
X127654761Y-90166666D01*
X127607142Y-90214285D01*
X127511904Y-90261904D01*
X127226190Y-90261904D01*
X127130952Y-90214285D01*
X127083333Y-90166666D01*
X127035714Y-90071428D01*
X127035714Y-89928571D01*
X127083333Y-89833333D01*
X127130952Y-89785714D01*
X127226190Y-89738095D01*
X127511904Y-89738095D01*
X127607142Y-89785714D01*
X127654761Y-89833333D01*
X127702380Y-89928571D01*
X127702380Y-90071428D01*
X127702380Y-89309523D02*
X127035714Y-89309523D01*
X127130952Y-89309523D02*
X127083333Y-89261904D01*
X127035714Y-89166666D01*
X127035714Y-89023809D01*
X127083333Y-88928571D01*
X127178571Y-88880952D01*
X127702380Y-88880952D01*
X127178571Y-88880952D02*
X127083333Y-88833333D01*
X127035714Y-88738095D01*
X127035714Y-88595238D01*
X127083333Y-88500000D01*
X127178571Y-88452380D01*
X127702380Y-88452380D01*
X127035714Y-80642857D02*
X127702380Y-80452380D01*
X127226190Y-80261904D01*
X127702380Y-80071428D01*
X127035714Y-79880952D01*
X127035714Y-79595238D02*
X127702380Y-79404761D01*
X127226190Y-79214285D01*
X127702380Y-79023809D01*
X127035714Y-78833333D01*
X127035714Y-78547619D02*
X127702380Y-78357142D01*
X127226190Y-78166666D01*
X127702380Y-77976190D01*
X127035714Y-77785714D01*
X127607142Y-77404761D02*
X127654761Y-77357142D01*
X127702380Y-77404761D01*
X127654761Y-77452380D01*
X127607142Y-77404761D01*
X127702380Y-77404761D01*
X127654761Y-76976190D02*
X127702380Y-76880952D01*
X127702380Y-76690476D01*
X127654761Y-76595238D01*
X127559523Y-76547619D01*
X127511904Y-76547619D01*
X127416666Y-76595238D01*
X127369047Y-76690476D01*
X127369047Y-76833333D01*
X127321428Y-76928571D01*
X127226190Y-76976190D01*
X127178571Y-76976190D01*
X127083333Y-76928571D01*
X127035714Y-76833333D01*
X127035714Y-76690476D01*
X127083333Y-76595238D01*
X127702380Y-76119047D02*
X126702380Y-76119047D01*
X127702380Y-75690476D02*
X127178571Y-75690476D01*
X127083333Y-75738095D01*
X127035714Y-75833333D01*
X127035714Y-75976190D01*
X127083333Y-76071428D01*
X127130952Y-76119047D01*
X127702380Y-75214285D02*
X127035714Y-75214285D01*
X127226190Y-75214285D02*
X127130952Y-75166666D01*
X127083333Y-75119047D01*
X127035714Y-75023809D01*
X127035714Y-74928571D01*
X127702380Y-74166666D02*
X126702380Y-74166666D01*
X127654761Y-74166666D02*
X127702380Y-74261904D01*
X127702380Y-74452380D01*
X127654761Y-74547619D01*
X127607142Y-74595238D01*
X127511904Y-74642857D01*
X127226190Y-74642857D01*
X127130952Y-74595238D01*
X127083333Y-74547619D01*
X127035714Y-74452380D01*
X127035714Y-74261904D01*
X127083333Y-74166666D01*
X127035714Y-73785714D02*
X127035714Y-73261904D01*
X127702380Y-73785714D01*
X127702380Y-73261904D01*
X127702380Y-72880952D02*
X127035714Y-72880952D01*
X127130952Y-72880952D02*
X127083333Y-72833333D01*
X127035714Y-72738095D01*
X127035714Y-72595238D01*
X127083333Y-72500000D01*
X127178571Y-72452380D01*
X127702380Y-72452380D01*
X127178571Y-72452380D02*
X127083333Y-72404761D01*
X127035714Y-72309523D01*
X127035714Y-72166666D01*
X127083333Y-72071428D01*
X127178571Y-72023809D01*
X127702380Y-72023809D01*
X127607142Y-71547619D02*
X127654761Y-71500000D01*
X127702380Y-71547619D01*
X127654761Y-71595238D01*
X127607142Y-71547619D01*
X127702380Y-71547619D01*
X127654761Y-70642857D02*
X127702380Y-70738095D01*
X127702380Y-70928571D01*
X127654761Y-71023809D01*
X127607142Y-71071428D01*
X127511904Y-71119047D01*
X127226190Y-71119047D01*
X127130952Y-71071428D01*
X127083333Y-71023809D01*
X127035714Y-70928571D01*
X127035714Y-70738095D01*
X127083333Y-70642857D01*
X127702380Y-70071428D02*
X127654761Y-70166666D01*
X127607142Y-70214285D01*
X127511904Y-70261904D01*
X127226190Y-70261904D01*
X127130952Y-70214285D01*
X127083333Y-70166666D01*
X127035714Y-70071428D01*
X127035714Y-69928571D01*
X127083333Y-69833333D01*
X127130952Y-69785714D01*
X127226190Y-69738095D01*
X127511904Y-69738095D01*
X127607142Y-69785714D01*
X127654761Y-69833333D01*
X127702380Y-69928571D01*
X127702380Y-70071428D01*
X127702380Y-69309523D02*
X127035714Y-69309523D01*
X127130952Y-69309523D02*
X127083333Y-69261904D01*
X127035714Y-69166666D01*
X127035714Y-69023809D01*
X127083333Y-68928571D01*
X127178571Y-68880952D01*
X127702380Y-68880952D01*
X127178571Y-68880952D02*
X127083333Y-68833333D01*
X127035714Y-68738095D01*
X127035714Y-68595238D01*
X127083333Y-68500000D01*
X127178571Y-68452380D01*
X127702380Y-68452380D01*
X119535714Y-80642857D02*
X120202380Y-80452380D01*
X119726190Y-80261904D01*
X120202380Y-80071428D01*
X119535714Y-79880952D01*
X119535714Y-79595238D02*
X120202380Y-79404761D01*
X119726190Y-79214285D01*
X120202380Y-79023809D01*
X119535714Y-78833333D01*
X119535714Y-78547619D02*
X120202380Y-78357142D01*
X119726190Y-78166666D01*
X120202380Y-77976190D01*
X119535714Y-77785714D01*
X120107142Y-77404761D02*
X120154761Y-77357142D01*
X120202380Y-77404761D01*
X120154761Y-77452380D01*
X120107142Y-77404761D01*
X120202380Y-77404761D01*
X120154761Y-76976190D02*
X120202380Y-76880952D01*
X120202380Y-76690476D01*
X120154761Y-76595238D01*
X120059523Y-76547619D01*
X120011904Y-76547619D01*
X119916666Y-76595238D01*
X119869047Y-76690476D01*
X119869047Y-76833333D01*
X119821428Y-76928571D01*
X119726190Y-76976190D01*
X119678571Y-76976190D01*
X119583333Y-76928571D01*
X119535714Y-76833333D01*
X119535714Y-76690476D01*
X119583333Y-76595238D01*
X120202380Y-76119047D02*
X119202380Y-76119047D01*
X120202380Y-75690476D02*
X119678571Y-75690476D01*
X119583333Y-75738095D01*
X119535714Y-75833333D01*
X119535714Y-75976190D01*
X119583333Y-76071428D01*
X119630952Y-76119047D01*
X120202380Y-75214285D02*
X119535714Y-75214285D01*
X119726190Y-75214285D02*
X119630952Y-75166666D01*
X119583333Y-75119047D01*
X119535714Y-75023809D01*
X119535714Y-74928571D01*
X120202380Y-74166666D02*
X119202380Y-74166666D01*
X120154761Y-74166666D02*
X120202380Y-74261904D01*
X120202380Y-74452380D01*
X120154761Y-74547619D01*
X120107142Y-74595238D01*
X120011904Y-74642857D01*
X119726190Y-74642857D01*
X119630952Y-74595238D01*
X119583333Y-74547619D01*
X119535714Y-74452380D01*
X119535714Y-74261904D01*
X119583333Y-74166666D01*
X119535714Y-73785714D02*
X119535714Y-73261904D01*
X120202380Y-73785714D01*
X120202380Y-73261904D01*
X120202380Y-72880952D02*
X119535714Y-72880952D01*
X119630952Y-72880952D02*
X119583333Y-72833333D01*
X119535714Y-72738095D01*
X119535714Y-72595238D01*
X119583333Y-72500000D01*
X119678571Y-72452380D01*
X120202380Y-72452380D01*
X119678571Y-72452380D02*
X119583333Y-72404761D01*
X119535714Y-72309523D01*
X119535714Y-72166666D01*
X119583333Y-72071428D01*
X119678571Y-72023809D01*
X120202380Y-72023809D01*
X120107142Y-71547619D02*
X120154761Y-71500000D01*
X120202380Y-71547619D01*
X120154761Y-71595238D01*
X120107142Y-71547619D01*
X120202380Y-71547619D01*
X120154761Y-70642857D02*
X120202380Y-70738095D01*
X120202380Y-70928571D01*
X120154761Y-71023809D01*
X120107142Y-71071428D01*
X120011904Y-71119047D01*
X119726190Y-71119047D01*
X119630952Y-71071428D01*
X119583333Y-71023809D01*
X119535714Y-70928571D01*
X119535714Y-70738095D01*
X119583333Y-70642857D01*
X120202380Y-70071428D02*
X120154761Y-70166666D01*
X120107142Y-70214285D01*
X120011904Y-70261904D01*
X119726190Y-70261904D01*
X119630952Y-70214285D01*
X119583333Y-70166666D01*
X119535714Y-70071428D01*
X119535714Y-69928571D01*
X119583333Y-69833333D01*
X119630952Y-69785714D01*
X119726190Y-69738095D01*
X120011904Y-69738095D01*
X120107142Y-69785714D01*
X120154761Y-69833333D01*
X120202380Y-69928571D01*
X120202380Y-70071428D01*
X120202380Y-69309523D02*
X119535714Y-69309523D01*
X119630952Y-69309523D02*
X119583333Y-69261904D01*
X119535714Y-69166666D01*
X119535714Y-69023809D01*
X119583333Y-68928571D01*
X119678571Y-68880952D01*
X120202380Y-68880952D01*
X119678571Y-68880952D02*
X119583333Y-68833333D01*
X119535714Y-68738095D01*
X119535714Y-68595238D01*
X119583333Y-68500000D01*
X119678571Y-68452380D01*
X120202380Y-68452380D01*
X119535714Y-60642857D02*
X120202380Y-60452380D01*
X119726190Y-60261904D01*
X120202380Y-60071428D01*
X119535714Y-59880952D01*
X119535714Y-59595238D02*
X120202380Y-59404761D01*
X119726190Y-59214285D01*
X120202380Y-59023809D01*
X119535714Y-58833333D01*
X119535714Y-58547619D02*
X120202380Y-58357142D01*
X119726190Y-58166666D01*
X120202380Y-57976190D01*
X119535714Y-57785714D01*
X120107142Y-57404761D02*
X120154761Y-57357142D01*
X120202380Y-57404761D01*
X120154761Y-57452380D01*
X120107142Y-57404761D01*
X120202380Y-57404761D01*
X120154761Y-56976190D02*
X120202380Y-56880952D01*
X120202380Y-56690476D01*
X120154761Y-56595238D01*
X120059523Y-56547619D01*
X120011904Y-56547619D01*
X119916666Y-56595238D01*
X119869047Y-56690476D01*
X119869047Y-56833333D01*
X119821428Y-56928571D01*
X119726190Y-56976190D01*
X119678571Y-56976190D01*
X119583333Y-56928571D01*
X119535714Y-56833333D01*
X119535714Y-56690476D01*
X119583333Y-56595238D01*
X120202380Y-56119047D02*
X119202380Y-56119047D01*
X120202380Y-55690476D02*
X119678571Y-55690476D01*
X119583333Y-55738095D01*
X119535714Y-55833333D01*
X119535714Y-55976190D01*
X119583333Y-56071428D01*
X119630952Y-56119047D01*
X120202380Y-55214285D02*
X119535714Y-55214285D01*
X119726190Y-55214285D02*
X119630952Y-55166666D01*
X119583333Y-55119047D01*
X119535714Y-55023809D01*
X119535714Y-54928571D01*
X120202380Y-54166666D02*
X119202380Y-54166666D01*
X120154761Y-54166666D02*
X120202380Y-54261904D01*
X120202380Y-54452380D01*
X120154761Y-54547619D01*
X120107142Y-54595238D01*
X120011904Y-54642857D01*
X119726190Y-54642857D01*
X119630952Y-54595238D01*
X119583333Y-54547619D01*
X119535714Y-54452380D01*
X119535714Y-54261904D01*
X119583333Y-54166666D01*
X119535714Y-53785714D02*
X119535714Y-53261904D01*
X120202380Y-53785714D01*
X120202380Y-53261904D01*
X120202380Y-52880952D02*
X119535714Y-52880952D01*
X119630952Y-52880952D02*
X119583333Y-52833333D01*
X119535714Y-52738095D01*
X119535714Y-52595238D01*
X119583333Y-52500000D01*
X119678571Y-52452380D01*
X120202380Y-52452380D01*
X119678571Y-52452380D02*
X119583333Y-52404761D01*
X119535714Y-52309523D01*
X119535714Y-52166666D01*
X119583333Y-52071428D01*
X119678571Y-52023809D01*
X120202380Y-52023809D01*
X120107142Y-51547619D02*
X120154761Y-51500000D01*
X120202380Y-51547619D01*
X120154761Y-51595238D01*
X120107142Y-51547619D01*
X120202380Y-51547619D01*
X120154761Y-50642857D02*
X120202380Y-50738095D01*
X120202380Y-50928571D01*
X120154761Y-51023809D01*
X120107142Y-51071428D01*
X120011904Y-51119047D01*
X119726190Y-51119047D01*
X119630952Y-51071428D01*
X119583333Y-51023809D01*
X119535714Y-50928571D01*
X119535714Y-50738095D01*
X119583333Y-50642857D01*
X120202380Y-50071428D02*
X120154761Y-50166666D01*
X120107142Y-50214285D01*
X120011904Y-50261904D01*
X119726190Y-50261904D01*
X119630952Y-50214285D01*
X119583333Y-50166666D01*
X119535714Y-50071428D01*
X119535714Y-49928571D01*
X119583333Y-49833333D01*
X119630952Y-49785714D01*
X119726190Y-49738095D01*
X120011904Y-49738095D01*
X120107142Y-49785714D01*
X120154761Y-49833333D01*
X120202380Y-49928571D01*
X120202380Y-50071428D01*
X120202380Y-49309523D02*
X119535714Y-49309523D01*
X119630952Y-49309523D02*
X119583333Y-49261904D01*
X119535714Y-49166666D01*
X119535714Y-49023809D01*
X119583333Y-48928571D01*
X119678571Y-48880952D01*
X120202380Y-48880952D01*
X119678571Y-48880952D02*
X119583333Y-48833333D01*
X119535714Y-48738095D01*
X119535714Y-48595238D01*
X119583333Y-48500000D01*
X119678571Y-48452380D01*
X120202380Y-48452380D01*
X127035714Y-60642857D02*
X127702380Y-60452380D01*
X127226190Y-60261904D01*
X127702380Y-60071428D01*
X127035714Y-59880952D01*
X127035714Y-59595238D02*
X127702380Y-59404761D01*
X127226190Y-59214285D01*
X127702380Y-59023809D01*
X127035714Y-58833333D01*
X127035714Y-58547619D02*
X127702380Y-58357142D01*
X127226190Y-58166666D01*
X127702380Y-57976190D01*
X127035714Y-57785714D01*
X127607142Y-57404761D02*
X127654761Y-57357142D01*
X127702380Y-57404761D01*
X127654761Y-57452380D01*
X127607142Y-57404761D01*
X127702380Y-57404761D01*
X127654761Y-56976190D02*
X127702380Y-56880952D01*
X127702380Y-56690476D01*
X127654761Y-56595238D01*
X127559523Y-56547619D01*
X127511904Y-56547619D01*
X127416666Y-56595238D01*
X127369047Y-56690476D01*
X127369047Y-56833333D01*
X127321428Y-56928571D01*
X127226190Y-56976190D01*
X127178571Y-56976190D01*
X127083333Y-56928571D01*
X127035714Y-56833333D01*
X127035714Y-56690476D01*
X127083333Y-56595238D01*
X127702380Y-56119047D02*
X126702380Y-56119047D01*
X127702380Y-55690476D02*
X127178571Y-55690476D01*
X127083333Y-55738095D01*
X127035714Y-55833333D01*
X127035714Y-55976190D01*
X127083333Y-56071428D01*
X127130952Y-56119047D01*
X127702380Y-55214285D02*
X127035714Y-55214285D01*
X127226190Y-55214285D02*
X127130952Y-55166666D01*
X127083333Y-55119047D01*
X127035714Y-55023809D01*
X127035714Y-54928571D01*
X127702380Y-54166666D02*
X126702380Y-54166666D01*
X127654761Y-54166666D02*
X127702380Y-54261904D01*
X127702380Y-54452380D01*
X127654761Y-54547619D01*
X127607142Y-54595238D01*
X127511904Y-54642857D01*
X127226190Y-54642857D01*
X127130952Y-54595238D01*
X127083333Y-54547619D01*
X127035714Y-54452380D01*
X127035714Y-54261904D01*
X127083333Y-54166666D01*
X127035714Y-53785714D02*
X127035714Y-53261904D01*
X127702380Y-53785714D01*
X127702380Y-53261904D01*
X127702380Y-52880952D02*
X127035714Y-52880952D01*
X127130952Y-52880952D02*
X127083333Y-52833333D01*
X127035714Y-52738095D01*
X127035714Y-52595238D01*
X127083333Y-52500000D01*
X127178571Y-52452380D01*
X127702380Y-52452380D01*
X127178571Y-52452380D02*
X127083333Y-52404761D01*
X127035714Y-52309523D01*
X127035714Y-52166666D01*
X127083333Y-52071428D01*
X127178571Y-52023809D01*
X127702380Y-52023809D01*
X127607142Y-51547619D02*
X127654761Y-51500000D01*
X127702380Y-51547619D01*
X127654761Y-51595238D01*
X127607142Y-51547619D01*
X127702380Y-51547619D01*
X127654761Y-50642857D02*
X127702380Y-50738095D01*
X127702380Y-50928571D01*
X127654761Y-51023809D01*
X127607142Y-51071428D01*
X127511904Y-51119047D01*
X127226190Y-51119047D01*
X127130952Y-51071428D01*
X127083333Y-51023809D01*
X127035714Y-50928571D01*
X127035714Y-50738095D01*
X127083333Y-50642857D01*
X127702380Y-50071428D02*
X127654761Y-50166666D01*
X127607142Y-50214285D01*
X127511904Y-50261904D01*
X127226190Y-50261904D01*
X127130952Y-50214285D01*
X127083333Y-50166666D01*
X127035714Y-50071428D01*
X127035714Y-49928571D01*
X127083333Y-49833333D01*
X127130952Y-49785714D01*
X127226190Y-49738095D01*
X127511904Y-49738095D01*
X127607142Y-49785714D01*
X127654761Y-49833333D01*
X127702380Y-49928571D01*
X127702380Y-50071428D01*
X127702380Y-49309523D02*
X127035714Y-49309523D01*
X127130952Y-49309523D02*
X127083333Y-49261904D01*
X127035714Y-49166666D01*
X127035714Y-49023809D01*
X127083333Y-48928571D01*
X127178571Y-48880952D01*
X127702380Y-48880952D01*
X127178571Y-48880952D02*
X127083333Y-48833333D01*
X127035714Y-48738095D01*
X127035714Y-48595238D01*
X127083333Y-48500000D01*
X127178571Y-48452380D01*
X127702380Y-48452380D01*
X127035714Y-40642857D02*
X127702380Y-40452380D01*
X127226190Y-40261904D01*
X127702380Y-40071428D01*
X127035714Y-39880952D01*
X127035714Y-39595238D02*
X127702380Y-39404761D01*
X127226190Y-39214285D01*
X127702380Y-39023809D01*
X127035714Y-38833333D01*
X127035714Y-38547619D02*
X127702380Y-38357142D01*
X127226190Y-38166666D01*
X127702380Y-37976190D01*
X127035714Y-37785714D01*
X127607142Y-37404761D02*
X127654761Y-37357142D01*
X127702380Y-37404761D01*
X127654761Y-37452380D01*
X127607142Y-37404761D01*
X127702380Y-37404761D01*
X127654761Y-36976190D02*
X127702380Y-36880952D01*
X127702380Y-36690476D01*
X127654761Y-36595238D01*
X127559523Y-36547619D01*
X127511904Y-36547619D01*
X127416666Y-36595238D01*
X127369047Y-36690476D01*
X127369047Y-36833333D01*
X127321428Y-36928571D01*
X127226190Y-36976190D01*
X127178571Y-36976190D01*
X127083333Y-36928571D01*
X127035714Y-36833333D01*
X127035714Y-36690476D01*
X127083333Y-36595238D01*
X127702380Y-36119047D02*
X126702380Y-36119047D01*
X127702380Y-35690476D02*
X127178571Y-35690476D01*
X127083333Y-35738095D01*
X127035714Y-35833333D01*
X127035714Y-35976190D01*
X127083333Y-36071428D01*
X127130952Y-36119047D01*
X127702380Y-35214285D02*
X127035714Y-35214285D01*
X127226190Y-35214285D02*
X127130952Y-35166666D01*
X127083333Y-35119047D01*
X127035714Y-35023809D01*
X127035714Y-34928571D01*
X127702380Y-34166666D02*
X126702380Y-34166666D01*
X127654761Y-34166666D02*
X127702380Y-34261904D01*
X127702380Y-34452380D01*
X127654761Y-34547619D01*
X127607142Y-34595238D01*
X127511904Y-34642857D01*
X127226190Y-34642857D01*
X127130952Y-34595238D01*
X127083333Y-34547619D01*
X127035714Y-34452380D01*
X127035714Y-34261904D01*
X127083333Y-34166666D01*
X127035714Y-33785714D02*
X127035714Y-33261904D01*
X127702380Y-33785714D01*
X127702380Y-33261904D01*
X127702380Y-32880952D02*
X127035714Y-32880952D01*
X127130952Y-32880952D02*
X127083333Y-32833333D01*
X127035714Y-32738095D01*
X127035714Y-32595238D01*
X127083333Y-32500000D01*
X127178571Y-32452380D01*
X127702380Y-32452380D01*
X127178571Y-32452380D02*
X127083333Y-32404761D01*
X127035714Y-32309523D01*
X127035714Y-32166666D01*
X127083333Y-32071428D01*
X127178571Y-32023809D01*
X127702380Y-32023809D01*
X127607142Y-31547619D02*
X127654761Y-31500000D01*
X127702380Y-31547619D01*
X127654761Y-31595238D01*
X127607142Y-31547619D01*
X127702380Y-31547619D01*
X127654761Y-30642857D02*
X127702380Y-30738095D01*
X127702380Y-30928571D01*
X127654761Y-31023809D01*
X127607142Y-31071428D01*
X127511904Y-31119047D01*
X127226190Y-31119047D01*
X127130952Y-31071428D01*
X127083333Y-31023809D01*
X127035714Y-30928571D01*
X127035714Y-30738095D01*
X127083333Y-30642857D01*
X127702380Y-30071428D02*
X127654761Y-30166666D01*
X127607142Y-30214285D01*
X127511904Y-30261904D01*
X127226190Y-30261904D01*
X127130952Y-30214285D01*
X127083333Y-30166666D01*
X127035714Y-30071428D01*
X127035714Y-29928571D01*
X127083333Y-29833333D01*
X127130952Y-29785714D01*
X127226190Y-29738095D01*
X127511904Y-29738095D01*
X127607142Y-29785714D01*
X127654761Y-29833333D01*
X127702380Y-29928571D01*
X127702380Y-30071428D01*
X127702380Y-29309523D02*
X127035714Y-29309523D01*
X127130952Y-29309523D02*
X127083333Y-29261904D01*
X127035714Y-29166666D01*
X127035714Y-29023809D01*
X127083333Y-28928571D01*
X127178571Y-28880952D01*
X127702380Y-28880952D01*
X127178571Y-28880952D02*
X127083333Y-28833333D01*
X127035714Y-28738095D01*
X127035714Y-28595238D01*
X127083333Y-28500000D01*
X127178571Y-28452380D01*
X127702380Y-28452380D01*
X119535714Y-40642857D02*
X120202380Y-40452380D01*
X119726190Y-40261904D01*
X120202380Y-40071428D01*
X119535714Y-39880952D01*
X119535714Y-39595238D02*
X120202380Y-39404761D01*
X119726190Y-39214285D01*
X120202380Y-39023809D01*
X119535714Y-38833333D01*
X119535714Y-38547619D02*
X120202380Y-38357142D01*
X119726190Y-38166666D01*
X120202380Y-37976190D01*
X119535714Y-37785714D01*
X120107142Y-37404761D02*
X120154761Y-37357142D01*
X120202380Y-37404761D01*
X120154761Y-37452380D01*
X120107142Y-37404761D01*
X120202380Y-37404761D01*
X120154761Y-36976190D02*
X120202380Y-36880952D01*
X120202380Y-36690476D01*
X120154761Y-36595238D01*
X120059523Y-36547619D01*
X120011904Y-36547619D01*
X119916666Y-36595238D01*
X119869047Y-36690476D01*
X119869047Y-36833333D01*
X119821428Y-36928571D01*
X119726190Y-36976190D01*
X119678571Y-36976190D01*
X119583333Y-36928571D01*
X119535714Y-36833333D01*
X119535714Y-36690476D01*
X119583333Y-36595238D01*
X120202380Y-36119047D02*
X119202380Y-36119047D01*
X120202380Y-35690476D02*
X119678571Y-35690476D01*
X119583333Y-35738095D01*
X119535714Y-35833333D01*
X119535714Y-35976190D01*
X119583333Y-36071428D01*
X119630952Y-36119047D01*
X120202380Y-35214285D02*
X119535714Y-35214285D01*
X119726190Y-35214285D02*
X119630952Y-35166666D01*
X119583333Y-35119047D01*
X119535714Y-35023809D01*
X119535714Y-34928571D01*
X120202380Y-34166666D02*
X119202380Y-34166666D01*
X120154761Y-34166666D02*
X120202380Y-34261904D01*
X120202380Y-34452380D01*
X120154761Y-34547619D01*
X120107142Y-34595238D01*
X120011904Y-34642857D01*
X119726190Y-34642857D01*
X119630952Y-34595238D01*
X119583333Y-34547619D01*
X119535714Y-34452380D01*
X119535714Y-34261904D01*
X119583333Y-34166666D01*
X119535714Y-33785714D02*
X119535714Y-33261904D01*
X120202380Y-33785714D01*
X120202380Y-33261904D01*
X120202380Y-32880952D02*
X119535714Y-32880952D01*
X119630952Y-32880952D02*
X119583333Y-32833333D01*
X119535714Y-32738095D01*
X119535714Y-32595238D01*
X119583333Y-32500000D01*
X119678571Y-32452380D01*
X120202380Y-32452380D01*
X119678571Y-32452380D02*
X119583333Y-32404761D01*
X119535714Y-32309523D01*
X119535714Y-32166666D01*
X119583333Y-32071428D01*
X119678571Y-32023809D01*
X120202380Y-32023809D01*
X120107142Y-31547619D02*
X120154761Y-31500000D01*
X120202380Y-31547619D01*
X120154761Y-31595238D01*
X120107142Y-31547619D01*
X120202380Y-31547619D01*
X120154761Y-30642857D02*
X120202380Y-30738095D01*
X120202380Y-30928571D01*
X120154761Y-31023809D01*
X120107142Y-31071428D01*
X120011904Y-31119047D01*
X119726190Y-31119047D01*
X119630952Y-31071428D01*
X119583333Y-31023809D01*
X119535714Y-30928571D01*
X119535714Y-30738095D01*
X119583333Y-30642857D01*
X120202380Y-30071428D02*
X120154761Y-30166666D01*
X120107142Y-30214285D01*
X120011904Y-30261904D01*
X119726190Y-30261904D01*
X119630952Y-30214285D01*
X119583333Y-30166666D01*
X119535714Y-30071428D01*
X119535714Y-29928571D01*
X119583333Y-29833333D01*
X119630952Y-29785714D01*
X119726190Y-29738095D01*
X120011904Y-29738095D01*
X120107142Y-29785714D01*
X120154761Y-29833333D01*
X120202380Y-29928571D01*
X120202380Y-30071428D01*
X120202380Y-29309523D02*
X119535714Y-29309523D01*
X119630952Y-29309523D02*
X119583333Y-29261904D01*
X119535714Y-29166666D01*
X119535714Y-29023809D01*
X119583333Y-28928571D01*
X119678571Y-28880952D01*
X120202380Y-28880952D01*
X119678571Y-28880952D02*
X119583333Y-28833333D01*
X119535714Y-28738095D01*
X119535714Y-28595238D01*
X119583333Y-28500000D01*
X119678571Y-28452380D01*
X120202380Y-28452380D01*
X72976190Y-105452380D02*
X73309523Y-106452380D01*
X73642857Y-105452380D01*
X73928571Y-105547619D02*
X73976190Y-105500000D01*
X74071428Y-105452380D01*
X74309523Y-105452380D01*
X74404761Y-105500000D01*
X74452380Y-105547619D01*
X74500000Y-105642857D01*
X74500000Y-105738095D01*
X74452380Y-105880952D01*
X73880952Y-106452380D01*
X74500000Y-106452380D01*
X74928571Y-106357142D02*
X74976190Y-106404761D01*
X74928571Y-106452380D01*
X74880952Y-106404761D01*
X74928571Y-106357142D01*
X74928571Y-106452380D01*
X75595238Y-105452380D02*
X75690476Y-105452380D01*
X75785714Y-105500000D01*
X75833333Y-105547619D01*
X75880952Y-105642857D01*
X75928571Y-105833333D01*
X75928571Y-106071428D01*
X75880952Y-106261904D01*
X75833333Y-106357142D01*
X75785714Y-106404761D01*
X75690476Y-106452380D01*
X75595238Y-106452380D01*
X75500000Y-106404761D01*
X75452380Y-106357142D01*
X75404761Y-106261904D01*
X75357142Y-106071428D01*
X75357142Y-105833333D01*
X75404761Y-105642857D01*
X75452380Y-105547619D01*
X75500000Y-105500000D01*
X75595238Y-105452380D01*
X29976190Y-105452380D02*
X30309523Y-106452380D01*
X30642857Y-105452380D01*
X30928571Y-105547619D02*
X30976190Y-105500000D01*
X31071428Y-105452380D01*
X31309523Y-105452380D01*
X31404761Y-105500000D01*
X31452380Y-105547619D01*
X31500000Y-105642857D01*
X31500000Y-105738095D01*
X31452380Y-105880952D01*
X30880952Y-106452380D01*
X31500000Y-106452380D01*
X31928571Y-106357142D02*
X31976190Y-106404761D01*
X31928571Y-106452380D01*
X31880952Y-106404761D01*
X31928571Y-106357142D01*
X31928571Y-106452380D01*
X32595238Y-105452380D02*
X32690476Y-105452380D01*
X32785714Y-105500000D01*
X32833333Y-105547619D01*
X32880952Y-105642857D01*
X32928571Y-105833333D01*
X32928571Y-106071428D01*
X32880952Y-106261904D01*
X32833333Y-106357142D01*
X32785714Y-106404761D01*
X32690476Y-106452380D01*
X32595238Y-106452380D01*
X32500000Y-106404761D01*
X32452380Y-106357142D01*
X32404761Y-106261904D01*
X32357142Y-106071428D01*
X32357142Y-105833333D01*
X32404761Y-105642857D01*
X32452380Y-105547619D01*
X32500000Y-105500000D01*
X32595238Y-105452380D01*
X72976190Y-85452380D02*
X73309523Y-86452380D01*
X73642857Y-85452380D01*
X73928571Y-85547619D02*
X73976190Y-85500000D01*
X74071428Y-85452380D01*
X74309523Y-85452380D01*
X74404761Y-85500000D01*
X74452380Y-85547619D01*
X74500000Y-85642857D01*
X74500000Y-85738095D01*
X74452380Y-85880952D01*
X73880952Y-86452380D01*
X74500000Y-86452380D01*
X74928571Y-86357142D02*
X74976190Y-86404761D01*
X74928571Y-86452380D01*
X74880952Y-86404761D01*
X74928571Y-86357142D01*
X74928571Y-86452380D01*
X75595238Y-85452380D02*
X75690476Y-85452380D01*
X75785714Y-85500000D01*
X75833333Y-85547619D01*
X75880952Y-85642857D01*
X75928571Y-85833333D01*
X75928571Y-86071428D01*
X75880952Y-86261904D01*
X75833333Y-86357142D01*
X75785714Y-86404761D01*
X75690476Y-86452380D01*
X75595238Y-86452380D01*
X75500000Y-86404761D01*
X75452380Y-86357142D01*
X75404761Y-86261904D01*
X75357142Y-86071428D01*
X75357142Y-85833333D01*
X75404761Y-85642857D01*
X75452380Y-85547619D01*
X75500000Y-85500000D01*
X75595238Y-85452380D01*
X29976190Y-85452380D02*
X30309523Y-86452380D01*
X30642857Y-85452380D01*
X30928571Y-85547619D02*
X30976190Y-85500000D01*
X31071428Y-85452380D01*
X31309523Y-85452380D01*
X31404761Y-85500000D01*
X31452380Y-85547619D01*
X31500000Y-85642857D01*
X31500000Y-85738095D01*
X31452380Y-85880952D01*
X30880952Y-86452380D01*
X31500000Y-86452380D01*
X31928571Y-86357142D02*
X31976190Y-86404761D01*
X31928571Y-86452380D01*
X31880952Y-86404761D01*
X31928571Y-86357142D01*
X31928571Y-86452380D01*
X32595238Y-85452380D02*
X32690476Y-85452380D01*
X32785714Y-85500000D01*
X32833333Y-85547619D01*
X32880952Y-85642857D01*
X32928571Y-85833333D01*
X32928571Y-86071428D01*
X32880952Y-86261904D01*
X32833333Y-86357142D01*
X32785714Y-86404761D01*
X32690476Y-86452380D01*
X32595238Y-86452380D01*
X32500000Y-86404761D01*
X32452380Y-86357142D01*
X32404761Y-86261904D01*
X32357142Y-86071428D01*
X32357142Y-85833333D01*
X32404761Y-85642857D01*
X32452380Y-85547619D01*
X32500000Y-85500000D01*
X32595238Y-85452380D01*
X72976190Y-65452380D02*
X73309523Y-66452380D01*
X73642857Y-65452380D01*
X73928571Y-65547619D02*
X73976190Y-65500000D01*
X74071428Y-65452380D01*
X74309523Y-65452380D01*
X74404761Y-65500000D01*
X74452380Y-65547619D01*
X74500000Y-65642857D01*
X74500000Y-65738095D01*
X74452380Y-65880952D01*
X73880952Y-66452380D01*
X74500000Y-66452380D01*
X74928571Y-66357142D02*
X74976190Y-66404761D01*
X74928571Y-66452380D01*
X74880952Y-66404761D01*
X74928571Y-66357142D01*
X74928571Y-66452380D01*
X75595238Y-65452380D02*
X75690476Y-65452380D01*
X75785714Y-65500000D01*
X75833333Y-65547619D01*
X75880952Y-65642857D01*
X75928571Y-65833333D01*
X75928571Y-66071428D01*
X75880952Y-66261904D01*
X75833333Y-66357142D01*
X75785714Y-66404761D01*
X75690476Y-66452380D01*
X75595238Y-66452380D01*
X75500000Y-66404761D01*
X75452380Y-66357142D01*
X75404761Y-66261904D01*
X75357142Y-66071428D01*
X75357142Y-65833333D01*
X75404761Y-65642857D01*
X75452380Y-65547619D01*
X75500000Y-65500000D01*
X75595238Y-65452380D01*
X29976190Y-65452380D02*
X30309523Y-66452380D01*
X30642857Y-65452380D01*
X30928571Y-65547619D02*
X30976190Y-65500000D01*
X31071428Y-65452380D01*
X31309523Y-65452380D01*
X31404761Y-65500000D01*
X31452380Y-65547619D01*
X31500000Y-65642857D01*
X31500000Y-65738095D01*
X31452380Y-65880952D01*
X30880952Y-66452380D01*
X31500000Y-66452380D01*
X31928571Y-66357142D02*
X31976190Y-66404761D01*
X31928571Y-66452380D01*
X31880952Y-66404761D01*
X31928571Y-66357142D01*
X31928571Y-66452380D01*
X32595238Y-65452380D02*
X32690476Y-65452380D01*
X32785714Y-65500000D01*
X32833333Y-65547619D01*
X32880952Y-65642857D01*
X32928571Y-65833333D01*
X32928571Y-66071428D01*
X32880952Y-66261904D01*
X32833333Y-66357142D01*
X32785714Y-66404761D01*
X32690476Y-66452380D01*
X32595238Y-66452380D01*
X32500000Y-66404761D01*
X32452380Y-66357142D01*
X32404761Y-66261904D01*
X32357142Y-66071428D01*
X32357142Y-65833333D01*
X32404761Y-65642857D01*
X32452380Y-65547619D01*
X32500000Y-65500000D01*
X32595238Y-65452380D01*
X72976190Y-45452380D02*
X73309523Y-46452380D01*
X73642857Y-45452380D01*
X73928571Y-45547619D02*
X73976190Y-45500000D01*
X74071428Y-45452380D01*
X74309523Y-45452380D01*
X74404761Y-45500000D01*
X74452380Y-45547619D01*
X74500000Y-45642857D01*
X74500000Y-45738095D01*
X74452380Y-45880952D01*
X73880952Y-46452380D01*
X74500000Y-46452380D01*
X74928571Y-46357142D02*
X74976190Y-46404761D01*
X74928571Y-46452380D01*
X74880952Y-46404761D01*
X74928571Y-46357142D01*
X74928571Y-46452380D01*
X75595238Y-45452380D02*
X75690476Y-45452380D01*
X75785714Y-45500000D01*
X75833333Y-45547619D01*
X75880952Y-45642857D01*
X75928571Y-45833333D01*
X75928571Y-46071428D01*
X75880952Y-46261904D01*
X75833333Y-46357142D01*
X75785714Y-46404761D01*
X75690476Y-46452380D01*
X75595238Y-46452380D01*
X75500000Y-46404761D01*
X75452380Y-46357142D01*
X75404761Y-46261904D01*
X75357142Y-46071428D01*
X75357142Y-45833333D01*
X75404761Y-45642857D01*
X75452380Y-45547619D01*
X75500000Y-45500000D01*
X75595238Y-45452380D01*
X29976190Y-45452380D02*
X30309523Y-46452380D01*
X30642857Y-45452380D01*
X30928571Y-45547619D02*
X30976190Y-45500000D01*
X31071428Y-45452380D01*
X31309523Y-45452380D01*
X31404761Y-45500000D01*
X31452380Y-45547619D01*
X31500000Y-45642857D01*
X31500000Y-45738095D01*
X31452380Y-45880952D01*
X30880952Y-46452380D01*
X31500000Y-46452380D01*
X31928571Y-46357142D02*
X31976190Y-46404761D01*
X31928571Y-46452380D01*
X31880952Y-46404761D01*
X31928571Y-46357142D01*
X31928571Y-46452380D01*
X32595238Y-45452380D02*
X32690476Y-45452380D01*
X32785714Y-45500000D01*
X32833333Y-45547619D01*
X32880952Y-45642857D01*
X32928571Y-45833333D01*
X32928571Y-46071428D01*
X32880952Y-46261904D01*
X32833333Y-46357142D01*
X32785714Y-46404761D01*
X32690476Y-46452380D01*
X32595238Y-46452380D01*
X32500000Y-46404761D01*
X32452380Y-46357142D01*
X32404761Y-46261904D01*
X32357142Y-46071428D01*
X32357142Y-45833333D01*
X32404761Y-45642857D01*
X32452380Y-45547619D01*
X32500000Y-45500000D01*
X32595238Y-45452380D01*
X72976190Y-25452380D02*
X73309523Y-26452380D01*
X73642857Y-25452380D01*
X73928571Y-25547619D02*
X73976190Y-25500000D01*
X74071428Y-25452380D01*
X74309523Y-25452380D01*
X74404761Y-25500000D01*
X74452380Y-25547619D01*
X74500000Y-25642857D01*
X74500000Y-25738095D01*
X74452380Y-25880952D01*
X73880952Y-26452380D01*
X74500000Y-26452380D01*
X74928571Y-26357142D02*
X74976190Y-26404761D01*
X74928571Y-26452380D01*
X74880952Y-26404761D01*
X74928571Y-26357142D01*
X74928571Y-26452380D01*
X75595238Y-25452380D02*
X75690476Y-25452380D01*
X75785714Y-25500000D01*
X75833333Y-25547619D01*
X75880952Y-25642857D01*
X75928571Y-25833333D01*
X75928571Y-26071428D01*
X75880952Y-26261904D01*
X75833333Y-26357142D01*
X75785714Y-26404761D01*
X75690476Y-26452380D01*
X75595238Y-26452380D01*
X75500000Y-26404761D01*
X75452380Y-26357142D01*
X75404761Y-26261904D01*
X75357142Y-26071428D01*
X75357142Y-25833333D01*
X75404761Y-25642857D01*
X75452380Y-25547619D01*
X75500000Y-25500000D01*
X75595238Y-25452380D01*
X29976190Y-25452380D02*
X30309523Y-26452380D01*
X30642857Y-25452380D01*
X30928571Y-25547619D02*
X30976190Y-25500000D01*
X31071428Y-25452380D01*
X31309523Y-25452380D01*
X31404761Y-25500000D01*
X31452380Y-25547619D01*
X31500000Y-25642857D01*
X31500000Y-25738095D01*
X31452380Y-25880952D01*
X30880952Y-26452380D01*
X31500000Y-26452380D01*
X31928571Y-26357142D02*
X31976190Y-26404761D01*
X31928571Y-26452380D01*
X31880952Y-26404761D01*
X31928571Y-26357142D01*
X31928571Y-26452380D01*
X32595238Y-25452380D02*
X32690476Y-25452380D01*
X32785714Y-25500000D01*
X32833333Y-25547619D01*
X32880952Y-25642857D01*
X32928571Y-25833333D01*
X32928571Y-26071428D01*
X32880952Y-26261904D01*
X32833333Y-26357142D01*
X32785714Y-26404761D01*
X32690476Y-26452380D01*
X32595238Y-26452380D01*
X32500000Y-26404761D01*
X32452380Y-26357142D01*
X32404761Y-26261904D01*
X32357142Y-26071428D01*
X32357142Y-25833333D01*
X32404761Y-25642857D01*
X32452380Y-25547619D01*
X32500000Y-25500000D01*
X32595238Y-25452380D01*
D11*
%TO.P,U1,1*%
%TO.N,Net-(C2-Pad2)*%
X66800000Y-106050000D03*
%TO.P,U1,2*%
%TO.N,+3V3*%
X66800000Y-107950000D03*
%TO.P,U1,3*%
%TO.N,Net-(J5-Pad1)*%
X69200000Y-107000000D03*
%TD*%
%TO.P,C2,1*%
%TO.N,+3V3*%
%TA.AperFunction,SMDPad,CuDef*%
G36*
G01*
X65225000Y-105849998D02*
X65225000Y-107150002D01*
G75*
G02*
X64975002Y-107400000I-249998J0D01*
G01*
X64149998Y-107400000D01*
G75*
G02*
X63900000Y-107150002I0J249998D01*
G01*
X63900000Y-105849998D01*
G75*
G02*
X64149998Y-105600000I249998J0D01*
G01*
X64975002Y-105600000D01*
G75*
G02*
X65225000Y-105849998I0J-249998D01*
G01*
G37*
%TD.AperFunction*%
%TO.P,C2,2*%
%TO.N,Net-(C2-Pad2)*%
%TA.AperFunction,SMDPad,CuDef*%
G36*
G01*
X62100000Y-105849998D02*
X62100000Y-107150002D01*
G75*
G02*
X61850002Y-107400000I-249998J0D01*
G01*
X61024998Y-107400000D01*
G75*
G02*
X60775000Y-107150002I0J249998D01*
G01*
X60775000Y-105849998D01*
G75*
G02*
X61024998Y-105600000I249998J0D01*
G01*
X61850002Y-105600000D01*
G75*
G02*
X62100000Y-105849998I0J-249998D01*
G01*
G37*
%TD.AperFunction*%
%TD*%
D12*
%TO.P,J7,1*%
%TO.N,Net-(J7-Pad1)*%
X73000000Y-109000000D03*
D13*
%TO.P,J7,2*%
%TO.N,Net-(J7-Pad2)*%
X75540000Y-109000000D03*
%TO.P,J7,3*%
%TO.N,Net-(C2-Pad2)*%
X73000000Y-111540000D03*
%TO.P,J7,4*%
%TO.N,Net-(J7-Pad4)*%
X75540000Y-111540000D03*
%TO.P,J7,5*%
%TO.N,Net-(J7-Pad5)*%
X73000000Y-114080000D03*
%TO.P,J7,6*%
%TO.N,Net-(C2-Pad2)*%
X75540000Y-114080000D03*
%TD*%
%TO.P,R5,2*%
%TO.N,Net-(J7-Pad5)*%
%TA.AperFunction,SMDPad,CuDef*%
G36*
G01*
X105100000Y-117049999D02*
X105100000Y-117950001D01*
G75*
G02*
X104850001Y-118200000I-249999J0D01*
G01*
X104149999Y-118200000D01*
G75*
G02*
X103900000Y-117950001I0J249999D01*
G01*
X103900000Y-117049999D01*
G75*
G02*
X104149999Y-116800000I249999J0D01*
G01*
X104850001Y-116800000D01*
G75*
G02*
X105100000Y-117049999I0J-249999D01*
G01*
G37*
%TD.AperFunction*%
%TO.P,R5,1*%
%TO.N,Net-(J7-Pad1)*%
%TA.AperFunction,SMDPad,CuDef*%
G36*
G01*
X107100000Y-117049999D02*
X107100000Y-117950001D01*
G75*
G02*
X106850001Y-118200000I-249999J0D01*
G01*
X106149999Y-118200000D01*
G75*
G02*
X105900000Y-117950001I0J249999D01*
G01*
X105900000Y-117049999D01*
G75*
G02*
X106149999Y-116800000I249999J0D01*
G01*
X106850001Y-116800000D01*
G75*
G02*
X107100000Y-117049999I0J-249999D01*
G01*
G37*
%TD.AperFunction*%
%TD*%
%TO.P,P4,1*%
%TO.N,Net-(J7-Pad5)*%
%TA.AperFunction,SMDPad,CuDef*%
G36*
G01*
X105775000Y-111100000D02*
X105775000Y-110900000D01*
G75*
G02*
X105875000Y-110800000I100000J0D01*
G01*
X106310000Y-110800000D01*
G75*
G02*
X106410000Y-110900000I0J-100000D01*
G01*
X106410000Y-111100000D01*
G75*
G02*
X106310000Y-111200000I-100000J0D01*
G01*
X105875000Y-111200000D01*
G75*
G02*
X105775000Y-111100000I0J100000D01*
G01*
G37*
%TD.AperFunction*%
%TO.P,P4,2*%
%TO.N,/GPIO4*%
%TA.AperFunction,SMDPad,CuDef*%
G36*
G01*
X106590000Y-111100000D02*
X106590000Y-110900000D01*
G75*
G02*
X106690000Y-110800000I100000J0D01*
G01*
X107125000Y-110800000D01*
G75*
G02*
X107225000Y-110900000I0J-100000D01*
G01*
X107225000Y-111100000D01*
G75*
G02*
X107125000Y-111200000I-100000J0D01*
G01*
X106690000Y-111200000D01*
G75*
G02*
X106590000Y-111100000I0J100000D01*
G01*
G37*
%TD.AperFunction*%
%TD*%
D14*
%TO.P,J5,1*%
%TO.N,Net-(J5-Pad1)*%
X105850000Y-115300000D03*
%TO.P,J5,5*%
%TO.N,Net-(C2-Pad2)*%
X105850000Y-112700000D03*
D15*
%TO.P,J5,*%
%TO.N,*%
X112200000Y-117575000D03*
X112200000Y-110425000D03*
%TD*%
%TO.P,J5,*%
%TO.N,*%
X69200000Y-110425000D03*
X69200000Y-117575000D03*
D14*
%TO.P,J5,5*%
%TO.N,Net-(C2-Pad2)*%
X62850000Y-112700000D03*
%TO.P,J5,1*%
%TO.N,Net-(J5-Pad1)*%
X62850000Y-115300000D03*
%TD*%
%TO.P,R5,1*%
%TO.N,Net-(J7-Pad1)*%
%TA.AperFunction,SMDPad,CuDef*%
G36*
G01*
X64100000Y-117049999D02*
X64100000Y-117950001D01*
G75*
G02*
X63850001Y-118200000I-249999J0D01*
G01*
X63149999Y-118200000D01*
G75*
G02*
X62900000Y-117950001I0J249999D01*
G01*
X62900000Y-117049999D01*
G75*
G02*
X63149999Y-116800000I249999J0D01*
G01*
X63850001Y-116800000D01*
G75*
G02*
X64100000Y-117049999I0J-249999D01*
G01*
G37*
%TD.AperFunction*%
%TO.P,R5,2*%
%TO.N,Net-(J7-Pad5)*%
%TA.AperFunction,SMDPad,CuDef*%
G36*
G01*
X62100000Y-117049999D02*
X62100000Y-117950001D01*
G75*
G02*
X61850001Y-118200000I-249999J0D01*
G01*
X61149999Y-118200000D01*
G75*
G02*
X60900000Y-117950001I0J249999D01*
G01*
X60900000Y-117049999D01*
G75*
G02*
X61149999Y-116800000I249999J0D01*
G01*
X61850001Y-116800000D01*
G75*
G02*
X62100000Y-117049999I0J-249999D01*
G01*
G37*
%TD.AperFunction*%
%TD*%
D16*
%TO.P,SW1,1*%
%TO.N,Net-(SW1-Pad1)*%
X61100000Y-121000000D03*
%TO.P,SW1,2*%
%TO.N,Net-(C2-Pad2)*%
X68900000Y-121000000D03*
%TD*%
%TO.P,R1,2*%
%TO.N,Net-(C2-Pad2)*%
%TA.AperFunction,SMDPad,CuDef*%
G36*
G01*
X62900000Y-109450001D02*
X62900000Y-108549999D01*
G75*
G02*
X63149999Y-108300000I249999J0D01*
G01*
X63850001Y-108300000D01*
G75*
G02*
X64100000Y-108549999I0J-249999D01*
G01*
X64100000Y-109450001D01*
G75*
G02*
X63850001Y-109700000I-249999J0D01*
G01*
X63149999Y-109700000D01*
G75*
G02*
X62900000Y-109450001I0J249999D01*
G01*
G37*
%TD.AperFunction*%
%TO.P,R1,1*%
%TO.N,Net-(R1-Pad1)*%
%TA.AperFunction,SMDPad,CuDef*%
G36*
G01*
X60900000Y-109450001D02*
X60900000Y-108549999D01*
G75*
G02*
X61149999Y-108300000I249999J0D01*
G01*
X61850001Y-108300000D01*
G75*
G02*
X62100000Y-108549999I0J-249999D01*
G01*
X62100000Y-109450001D01*
G75*
G02*
X61850001Y-109700000I-249999J0D01*
G01*
X61149999Y-109700000D01*
G75*
G02*
X60900000Y-109450001I0J249999D01*
G01*
G37*
%TD.AperFunction*%
%TD*%
%TO.P,SW1,2*%
%TO.N,Net-(C2-Pad2)*%
X111900000Y-121000000D03*
%TO.P,SW1,1*%
%TO.N,Net-(SW1-Pad1)*%
X104100000Y-121000000D03*
%TD*%
%TO.P,P3,2*%
%TO.N,/GPIO3*%
%TA.AperFunction,SMDPad,CuDef*%
G36*
G01*
X104410000Y-110900000D02*
X104410000Y-111100000D01*
G75*
G02*
X104310000Y-111200000I-100000J0D01*
G01*
X103875000Y-111200000D01*
G75*
G02*
X103775000Y-111100000I0J100000D01*
G01*
X103775000Y-110900000D01*
G75*
G02*
X103875000Y-110800000I100000J0D01*
G01*
X104310000Y-110800000D01*
G75*
G02*
X104410000Y-110900000I0J-100000D01*
G01*
G37*
%TD.AperFunction*%
%TO.P,P3,1*%
%TO.N,Net-(J7-Pad5)*%
%TA.AperFunction,SMDPad,CuDef*%
G36*
G01*
X105225000Y-110900000D02*
X105225000Y-111100000D01*
G75*
G02*
X105125000Y-111200000I-100000J0D01*
G01*
X104690000Y-111200000D01*
G75*
G02*
X104590000Y-111100000I0J100000D01*
G01*
X104590000Y-110900000D01*
G75*
G02*
X104690000Y-110800000I100000J0D01*
G01*
X105125000Y-110800000D01*
G75*
G02*
X105225000Y-110900000I0J-100000D01*
G01*
G37*
%TD.AperFunction*%
%TD*%
%TO.P,R1,1*%
%TO.N,Net-(R1-Pad1)*%
%TA.AperFunction,SMDPad,CuDef*%
G36*
G01*
X103900000Y-109450001D02*
X103900000Y-108549999D01*
G75*
G02*
X104149999Y-108300000I249999J0D01*
G01*
X104850001Y-108300000D01*
G75*
G02*
X105100000Y-108549999I0J-249999D01*
G01*
X105100000Y-109450001D01*
G75*
G02*
X104850001Y-109700000I-249999J0D01*
G01*
X104149999Y-109700000D01*
G75*
G02*
X103900000Y-109450001I0J249999D01*
G01*
G37*
%TD.AperFunction*%
%TO.P,R1,2*%
%TO.N,Net-(C2-Pad2)*%
%TA.AperFunction,SMDPad,CuDef*%
G36*
G01*
X105900000Y-109450001D02*
X105900000Y-108549999D01*
G75*
G02*
X106149999Y-108300000I249999J0D01*
G01*
X106850001Y-108300000D01*
G75*
G02*
X107100000Y-108549999I0J-249999D01*
G01*
X107100000Y-109450001D01*
G75*
G02*
X106850001Y-109700000I-249999J0D01*
G01*
X106149999Y-109700000D01*
G75*
G02*
X105900000Y-109450001I0J249999D01*
G01*
G37*
%TD.AperFunction*%
%TD*%
D11*
%TO.P,U1,3*%
%TO.N,Net-(J5-Pad1)*%
X112200000Y-107000000D03*
%TO.P,U1,2*%
%TO.N,+3V3*%
X109800000Y-107950000D03*
%TO.P,U1,1*%
%TO.N,Net-(C2-Pad2)*%
X109800000Y-106050000D03*
%TD*%
%TO.P,P4,2*%
%TO.N,/GPIO4*%
%TA.AperFunction,SMDPad,CuDef*%
G36*
G01*
X63590000Y-111100000D02*
X63590000Y-110900000D01*
G75*
G02*
X63690000Y-110800000I100000J0D01*
G01*
X64125000Y-110800000D01*
G75*
G02*
X64225000Y-110900000I0J-100000D01*
G01*
X64225000Y-111100000D01*
G75*
G02*
X64125000Y-111200000I-100000J0D01*
G01*
X63690000Y-111200000D01*
G75*
G02*
X63590000Y-111100000I0J100000D01*
G01*
G37*
%TD.AperFunction*%
%TO.P,P4,1*%
%TO.N,Net-(J7-Pad5)*%
%TA.AperFunction,SMDPad,CuDef*%
G36*
G01*
X62775000Y-111100000D02*
X62775000Y-110900000D01*
G75*
G02*
X62875000Y-110800000I100000J0D01*
G01*
X63310000Y-110800000D01*
G75*
G02*
X63410000Y-110900000I0J-100000D01*
G01*
X63410000Y-111100000D01*
G75*
G02*
X63310000Y-111200000I-100000J0D01*
G01*
X62875000Y-111200000D01*
G75*
G02*
X62775000Y-111100000I0J100000D01*
G01*
G37*
%TD.AperFunction*%
%TD*%
%TO.P,C2,2*%
%TO.N,Net-(C2-Pad2)*%
%TA.AperFunction,SMDPad,CuDef*%
G36*
G01*
X105100000Y-105849998D02*
X105100000Y-107150002D01*
G75*
G02*
X104850002Y-107400000I-249998J0D01*
G01*
X104024998Y-107400000D01*
G75*
G02*
X103775000Y-107150002I0J249998D01*
G01*
X103775000Y-105849998D01*
G75*
G02*
X104024998Y-105600000I249998J0D01*
G01*
X104850002Y-105600000D01*
G75*
G02*
X105100000Y-105849998I0J-249998D01*
G01*
G37*
%TD.AperFunction*%
%TO.P,C2,1*%
%TO.N,+3V3*%
%TA.AperFunction,SMDPad,CuDef*%
G36*
G01*
X108225000Y-105849998D02*
X108225000Y-107150002D01*
G75*
G02*
X107975002Y-107400000I-249998J0D01*
G01*
X107149998Y-107400000D01*
G75*
G02*
X106900000Y-107150002I0J249998D01*
G01*
X106900000Y-105849998D01*
G75*
G02*
X107149998Y-105600000I249998J0D01*
G01*
X107975002Y-105600000D01*
G75*
G02*
X108225000Y-105849998I0J-249998D01*
G01*
G37*
%TD.AperFunction*%
%TD*%
D17*
%TO.P,U2,22*%
%TO.N,Net-(U2-Pad22)*%
X86500000Y-106400000D03*
%TO.P,U2,21*%
%TO.N,/GPIO3*%
X88500000Y-106400000D03*
%TO.P,U2,20*%
%TO.N,Net-(J7-Pad2)*%
X90500000Y-106400000D03*
%TO.P,U2,19*%
%TO.N,/GPIO4*%
X92500000Y-106400000D03*
%TO.P,U2,18*%
%TO.N,Net-(U2-Pad18)*%
X94500000Y-106400000D03*
%TO.P,U2,17*%
%TO.N,Net-(U2-Pad17)*%
X96500000Y-106400000D03*
%TO.P,U2,16*%
%TO.N,Net-(R1-Pad1)*%
X98500000Y-106400000D03*
%TO.P,U2,15*%
%TO.N,Net-(C2-Pad2)*%
X100500000Y-106400000D03*
D18*
%TO.P,U2,14*%
%TO.N,Net-(U2-Pad14)*%
X102000000Y-109000000D03*
%TO.P,U2,13*%
%TO.N,Net-(U2-Pad13)*%
X102000000Y-111000000D03*
%TO.P,U2,12*%
%TO.N,Net-(U2-Pad12)*%
X102000000Y-113000000D03*
%TO.P,U2,11*%
%TO.N,Net-(U2-Pad11)*%
X102000000Y-115000000D03*
%TO.P,U2,10*%
%TO.N,Net-(U2-Pad10)*%
X102000000Y-117000000D03*
%TO.P,U2,9*%
%TO.N,Net-(U2-Pad9)*%
X102000000Y-119000000D03*
D17*
%TO.P,U2,8*%
%TO.N,+3V3*%
X100500000Y-121600000D03*
%TO.P,U2,7*%
%TO.N,Net-(SW1-Pad1)*%
X98500000Y-121600000D03*
%TO.P,U2,6*%
%TO.N,Net-(U2-Pad6)*%
X96500000Y-121600000D03*
%TO.P,U2,5*%
%TO.N,Net-(J7-Pad1)*%
X94500000Y-121600000D03*
%TO.P,U2,4*%
%TO.N,Net-(U2-Pad1)*%
X92500000Y-121600000D03*
%TO.P,U2,3*%
%TO.N,+3V3*%
X90500000Y-121600000D03*
%TO.P,U2,2*%
%TO.N,Net-(U2-Pad2)*%
X88500000Y-121600000D03*
%TO.P,U2,1*%
%TO.N,Net-(U2-Pad1)*%
X86500000Y-121600000D03*
%TD*%
%TO.P,U2,1*%
%TO.N,Net-(U2-Pad1)*%
X43500000Y-121600000D03*
%TO.P,U2,2*%
%TO.N,Net-(U2-Pad2)*%
X45500000Y-121600000D03*
%TO.P,U2,3*%
%TO.N,+3V3*%
X47500000Y-121600000D03*
%TO.P,U2,4*%
%TO.N,Net-(U2-Pad1)*%
X49500000Y-121600000D03*
%TO.P,U2,5*%
%TO.N,Net-(J7-Pad1)*%
X51500000Y-121600000D03*
%TO.P,U2,6*%
%TO.N,Net-(U2-Pad6)*%
X53500000Y-121600000D03*
%TO.P,U2,7*%
%TO.N,Net-(SW1-Pad1)*%
X55500000Y-121600000D03*
%TO.P,U2,8*%
%TO.N,+3V3*%
X57500000Y-121600000D03*
D18*
%TO.P,U2,9*%
%TO.N,Net-(U2-Pad9)*%
X59000000Y-119000000D03*
%TO.P,U2,10*%
%TO.N,Net-(U2-Pad10)*%
X59000000Y-117000000D03*
%TO.P,U2,11*%
%TO.N,Net-(U2-Pad11)*%
X59000000Y-115000000D03*
%TO.P,U2,12*%
%TO.N,Net-(U2-Pad12)*%
X59000000Y-113000000D03*
%TO.P,U2,13*%
%TO.N,Net-(U2-Pad13)*%
X59000000Y-111000000D03*
%TO.P,U2,14*%
%TO.N,Net-(U2-Pad14)*%
X59000000Y-109000000D03*
D17*
%TO.P,U2,15*%
%TO.N,Net-(C2-Pad2)*%
X57500000Y-106400000D03*
%TO.P,U2,16*%
%TO.N,Net-(R1-Pad1)*%
X55500000Y-106400000D03*
%TO.P,U2,17*%
%TO.N,Net-(U2-Pad17)*%
X53500000Y-106400000D03*
%TO.P,U2,18*%
%TO.N,Net-(U2-Pad18)*%
X51500000Y-106400000D03*
%TO.P,U2,19*%
%TO.N,/GPIO4*%
X49500000Y-106400000D03*
%TO.P,U2,20*%
%TO.N,Net-(J7-Pad2)*%
X47500000Y-106400000D03*
%TO.P,U2,21*%
%TO.N,/GPIO3*%
X45500000Y-106400000D03*
%TO.P,U2,22*%
%TO.N,Net-(U2-Pad22)*%
X43500000Y-106400000D03*
%TD*%
%TO.P,P3,1*%
%TO.N,Net-(J7-Pad5)*%
%TA.AperFunction,SMDPad,CuDef*%
G36*
G01*
X62225000Y-110900000D02*
X62225000Y-111100000D01*
G75*
G02*
X62125000Y-111200000I-100000J0D01*
G01*
X61690000Y-111200000D01*
G75*
G02*
X61590000Y-111100000I0J100000D01*
G01*
X61590000Y-110900000D01*
G75*
G02*
X61690000Y-110800000I100000J0D01*
G01*
X62125000Y-110800000D01*
G75*
G02*
X62225000Y-110900000I0J-100000D01*
G01*
G37*
%TD.AperFunction*%
%TO.P,P3,2*%
%TO.N,/GPIO3*%
%TA.AperFunction,SMDPad,CuDef*%
G36*
G01*
X61410000Y-110900000D02*
X61410000Y-111100000D01*
G75*
G02*
X61310000Y-111200000I-100000J0D01*
G01*
X60875000Y-111200000D01*
G75*
G02*
X60775000Y-111100000I0J100000D01*
G01*
X60775000Y-110900000D01*
G75*
G02*
X60875000Y-110800000I100000J0D01*
G01*
X61310000Y-110800000D01*
G75*
G02*
X61410000Y-110900000I0J-100000D01*
G01*
G37*
%TD.AperFunction*%
%TD*%
D13*
%TO.P,J7,6*%
%TO.N,Net-(C2-Pad2)*%
X32540000Y-114080000D03*
%TO.P,J7,5*%
%TO.N,Net-(J7-Pad5)*%
X30000000Y-114080000D03*
%TO.P,J7,4*%
%TO.N,Net-(J7-Pad4)*%
X32540000Y-111540000D03*
%TO.P,J7,3*%
%TO.N,Net-(C2-Pad2)*%
X30000000Y-111540000D03*
%TO.P,J7,2*%
%TO.N,Net-(J7-Pad2)*%
X32540000Y-109000000D03*
D12*
%TO.P,J7,1*%
%TO.N,Net-(J7-Pad1)*%
X30000000Y-109000000D03*
%TD*%
D14*
%TO.P,J5,1*%
%TO.N,Net-(J5-Pad1)*%
X62850000Y-95300000D03*
%TO.P,J5,5*%
%TO.N,Net-(C2-Pad2)*%
X62850000Y-92700000D03*
D15*
%TO.P,J5,*%
%TO.N,*%
X69200000Y-97575000D03*
X69200000Y-90425000D03*
%TD*%
D11*
%TO.P,U1,3*%
%TO.N,Net-(J5-Pad1)*%
X69200000Y-87000000D03*
%TO.P,U1,2*%
%TO.N,+3V3*%
X66800000Y-87950000D03*
%TO.P,U1,1*%
%TO.N,Net-(C2-Pad2)*%
X66800000Y-86050000D03*
%TD*%
%TO.P,R1,1*%
%TO.N,Net-(R1-Pad1)*%
%TA.AperFunction,SMDPad,CuDef*%
G36*
G01*
X60900000Y-89450001D02*
X60900000Y-88549999D01*
G75*
G02*
X61149999Y-88300000I249999J0D01*
G01*
X61850001Y-88300000D01*
G75*
G02*
X62100000Y-88549999I0J-249999D01*
G01*
X62100000Y-89450001D01*
G75*
G02*
X61850001Y-89700000I-249999J0D01*
G01*
X61149999Y-89700000D01*
G75*
G02*
X60900000Y-89450001I0J249999D01*
G01*
G37*
%TD.AperFunction*%
%TO.P,R1,2*%
%TO.N,Net-(C2-Pad2)*%
%TA.AperFunction,SMDPad,CuDef*%
G36*
G01*
X62900000Y-89450001D02*
X62900000Y-88549999D01*
G75*
G02*
X63149999Y-88300000I249999J0D01*
G01*
X63850001Y-88300000D01*
G75*
G02*
X64100000Y-88549999I0J-249999D01*
G01*
X64100000Y-89450001D01*
G75*
G02*
X63850001Y-89700000I-249999J0D01*
G01*
X63149999Y-89700000D01*
G75*
G02*
X62900000Y-89450001I0J249999D01*
G01*
G37*
%TD.AperFunction*%
%TD*%
D13*
%TO.P,J7,6*%
%TO.N,Net-(C2-Pad2)*%
X75540000Y-94080000D03*
%TO.P,J7,5*%
%TO.N,Net-(J7-Pad5)*%
X73000000Y-94080000D03*
%TO.P,J7,4*%
%TO.N,Net-(J7-Pad4)*%
X75540000Y-91540000D03*
%TO.P,J7,3*%
%TO.N,Net-(C2-Pad2)*%
X73000000Y-91540000D03*
%TO.P,J7,2*%
%TO.N,Net-(J7-Pad2)*%
X75540000Y-89000000D03*
D12*
%TO.P,J7,1*%
%TO.N,Net-(J7-Pad1)*%
X73000000Y-89000000D03*
%TD*%
%TO.P,R5,1*%
%TO.N,Net-(J7-Pad1)*%
%TA.AperFunction,SMDPad,CuDef*%
G36*
G01*
X107100000Y-97049999D02*
X107100000Y-97950001D01*
G75*
G02*
X106850001Y-98200000I-249999J0D01*
G01*
X106149999Y-98200000D01*
G75*
G02*
X105900000Y-97950001I0J249999D01*
G01*
X105900000Y-97049999D01*
G75*
G02*
X106149999Y-96800000I249999J0D01*
G01*
X106850001Y-96800000D01*
G75*
G02*
X107100000Y-97049999I0J-249999D01*
G01*
G37*
%TD.AperFunction*%
%TO.P,R5,2*%
%TO.N,Net-(J7-Pad5)*%
%TA.AperFunction,SMDPad,CuDef*%
G36*
G01*
X105100000Y-97049999D02*
X105100000Y-97950001D01*
G75*
G02*
X104850001Y-98200000I-249999J0D01*
G01*
X104149999Y-98200000D01*
G75*
G02*
X103900000Y-97950001I0J249999D01*
G01*
X103900000Y-97049999D01*
G75*
G02*
X104149999Y-96800000I249999J0D01*
G01*
X104850001Y-96800000D01*
G75*
G02*
X105100000Y-97049999I0J-249999D01*
G01*
G37*
%TD.AperFunction*%
%TD*%
%TO.P,R1,2*%
%TO.N,Net-(C2-Pad2)*%
%TA.AperFunction,SMDPad,CuDef*%
G36*
G01*
X105900000Y-89450001D02*
X105900000Y-88549999D01*
G75*
G02*
X106149999Y-88300000I249999J0D01*
G01*
X106850001Y-88300000D01*
G75*
G02*
X107100000Y-88549999I0J-249999D01*
G01*
X107100000Y-89450001D01*
G75*
G02*
X106850001Y-89700000I-249999J0D01*
G01*
X106149999Y-89700000D01*
G75*
G02*
X105900000Y-89450001I0J249999D01*
G01*
G37*
%TD.AperFunction*%
%TO.P,R1,1*%
%TO.N,Net-(R1-Pad1)*%
%TA.AperFunction,SMDPad,CuDef*%
G36*
G01*
X103900000Y-89450001D02*
X103900000Y-88549999D01*
G75*
G02*
X104149999Y-88300000I249999J0D01*
G01*
X104850001Y-88300000D01*
G75*
G02*
X105100000Y-88549999I0J-249999D01*
G01*
X105100000Y-89450001D01*
G75*
G02*
X104850001Y-89700000I-249999J0D01*
G01*
X104149999Y-89700000D01*
G75*
G02*
X103900000Y-89450001I0J249999D01*
G01*
G37*
%TD.AperFunction*%
%TD*%
%TO.P,R5,2*%
%TO.N,Net-(J7-Pad5)*%
%TA.AperFunction,SMDPad,CuDef*%
G36*
G01*
X62100000Y-97049999D02*
X62100000Y-97950001D01*
G75*
G02*
X61850001Y-98200000I-249999J0D01*
G01*
X61149999Y-98200000D01*
G75*
G02*
X60900000Y-97950001I0J249999D01*
G01*
X60900000Y-97049999D01*
G75*
G02*
X61149999Y-96800000I249999J0D01*
G01*
X61850001Y-96800000D01*
G75*
G02*
X62100000Y-97049999I0J-249999D01*
G01*
G37*
%TD.AperFunction*%
%TO.P,R5,1*%
%TO.N,Net-(J7-Pad1)*%
%TA.AperFunction,SMDPad,CuDef*%
G36*
G01*
X64100000Y-97049999D02*
X64100000Y-97950001D01*
G75*
G02*
X63850001Y-98200000I-249999J0D01*
G01*
X63149999Y-98200000D01*
G75*
G02*
X62900000Y-97950001I0J249999D01*
G01*
X62900000Y-97049999D01*
G75*
G02*
X63149999Y-96800000I249999J0D01*
G01*
X63850001Y-96800000D01*
G75*
G02*
X64100000Y-97049999I0J-249999D01*
G01*
G37*
%TD.AperFunction*%
%TD*%
D16*
%TO.P,SW1,1*%
%TO.N,Net-(SW1-Pad1)*%
X104100000Y-101000000D03*
%TO.P,SW1,2*%
%TO.N,Net-(C2-Pad2)*%
X111900000Y-101000000D03*
%TD*%
%TO.P,SW1,2*%
%TO.N,Net-(C2-Pad2)*%
X68900000Y-101000000D03*
%TO.P,SW1,1*%
%TO.N,Net-(SW1-Pad1)*%
X61100000Y-101000000D03*
%TD*%
%TO.P,C2,2*%
%TO.N,Net-(C2-Pad2)*%
%TA.AperFunction,SMDPad,CuDef*%
G36*
G01*
X62100000Y-85849998D02*
X62100000Y-87150002D01*
G75*
G02*
X61850002Y-87400000I-249998J0D01*
G01*
X61024998Y-87400000D01*
G75*
G02*
X60775000Y-87150002I0J249998D01*
G01*
X60775000Y-85849998D01*
G75*
G02*
X61024998Y-85600000I249998J0D01*
G01*
X61850002Y-85600000D01*
G75*
G02*
X62100000Y-85849998I0J-249998D01*
G01*
G37*
%TD.AperFunction*%
%TO.P,C2,1*%
%TO.N,+3V3*%
%TA.AperFunction,SMDPad,CuDef*%
G36*
G01*
X65225000Y-85849998D02*
X65225000Y-87150002D01*
G75*
G02*
X64975002Y-87400000I-249998J0D01*
G01*
X64149998Y-87400000D01*
G75*
G02*
X63900000Y-87150002I0J249998D01*
G01*
X63900000Y-85849998D01*
G75*
G02*
X64149998Y-85600000I249998J0D01*
G01*
X64975002Y-85600000D01*
G75*
G02*
X65225000Y-85849998I0J-249998D01*
G01*
G37*
%TD.AperFunction*%
%TD*%
%TO.P,P4,2*%
%TO.N,/GPIO4*%
%TA.AperFunction,SMDPad,CuDef*%
G36*
G01*
X106590000Y-91100000D02*
X106590000Y-90900000D01*
G75*
G02*
X106690000Y-90800000I100000J0D01*
G01*
X107125000Y-90800000D01*
G75*
G02*
X107225000Y-90900000I0J-100000D01*
G01*
X107225000Y-91100000D01*
G75*
G02*
X107125000Y-91200000I-100000J0D01*
G01*
X106690000Y-91200000D01*
G75*
G02*
X106590000Y-91100000I0J100000D01*
G01*
G37*
%TD.AperFunction*%
%TO.P,P4,1*%
%TO.N,Net-(J7-Pad5)*%
%TA.AperFunction,SMDPad,CuDef*%
G36*
G01*
X105775000Y-91100000D02*
X105775000Y-90900000D01*
G75*
G02*
X105875000Y-90800000I100000J0D01*
G01*
X106310000Y-90800000D01*
G75*
G02*
X106410000Y-90900000I0J-100000D01*
G01*
X106410000Y-91100000D01*
G75*
G02*
X106310000Y-91200000I-100000J0D01*
G01*
X105875000Y-91200000D01*
G75*
G02*
X105775000Y-91100000I0J100000D01*
G01*
G37*
%TD.AperFunction*%
%TD*%
D15*
%TO.P,J5,*%
%TO.N,*%
X112200000Y-90425000D03*
X112200000Y-97575000D03*
D14*
%TO.P,J5,5*%
%TO.N,Net-(C2-Pad2)*%
X105850000Y-92700000D03*
%TO.P,J5,1*%
%TO.N,Net-(J5-Pad1)*%
X105850000Y-95300000D03*
%TD*%
%TO.P,P3,1*%
%TO.N,Net-(J7-Pad5)*%
%TA.AperFunction,SMDPad,CuDef*%
G36*
G01*
X105225000Y-90900000D02*
X105225000Y-91100000D01*
G75*
G02*
X105125000Y-91200000I-100000J0D01*
G01*
X104690000Y-91200000D01*
G75*
G02*
X104590000Y-91100000I0J100000D01*
G01*
X104590000Y-90900000D01*
G75*
G02*
X104690000Y-90800000I100000J0D01*
G01*
X105125000Y-90800000D01*
G75*
G02*
X105225000Y-90900000I0J-100000D01*
G01*
G37*
%TD.AperFunction*%
%TO.P,P3,2*%
%TO.N,/GPIO3*%
%TA.AperFunction,SMDPad,CuDef*%
G36*
G01*
X104410000Y-90900000D02*
X104410000Y-91100000D01*
G75*
G02*
X104310000Y-91200000I-100000J0D01*
G01*
X103875000Y-91200000D01*
G75*
G02*
X103775000Y-91100000I0J100000D01*
G01*
X103775000Y-90900000D01*
G75*
G02*
X103875000Y-90800000I100000J0D01*
G01*
X104310000Y-90800000D01*
G75*
G02*
X104410000Y-90900000I0J-100000D01*
G01*
G37*
%TD.AperFunction*%
%TD*%
%TO.P,C2,1*%
%TO.N,+3V3*%
%TA.AperFunction,SMDPad,CuDef*%
G36*
G01*
X108225000Y-85849998D02*
X108225000Y-87150002D01*
G75*
G02*
X107975002Y-87400000I-249998J0D01*
G01*
X107149998Y-87400000D01*
G75*
G02*
X106900000Y-87150002I0J249998D01*
G01*
X106900000Y-85849998D01*
G75*
G02*
X107149998Y-85600000I249998J0D01*
G01*
X107975002Y-85600000D01*
G75*
G02*
X108225000Y-85849998I0J-249998D01*
G01*
G37*
%TD.AperFunction*%
%TO.P,C2,2*%
%TO.N,Net-(C2-Pad2)*%
%TA.AperFunction,SMDPad,CuDef*%
G36*
G01*
X105100000Y-85849998D02*
X105100000Y-87150002D01*
G75*
G02*
X104850002Y-87400000I-249998J0D01*
G01*
X104024998Y-87400000D01*
G75*
G02*
X103775000Y-87150002I0J249998D01*
G01*
X103775000Y-85849998D01*
G75*
G02*
X104024998Y-85600000I249998J0D01*
G01*
X104850002Y-85600000D01*
G75*
G02*
X105100000Y-85849998I0J-249998D01*
G01*
G37*
%TD.AperFunction*%
%TD*%
D17*
%TO.P,U2,22*%
%TO.N,Net-(U2-Pad22)*%
X43500000Y-86400000D03*
%TO.P,U2,21*%
%TO.N,/GPIO3*%
X45500000Y-86400000D03*
%TO.P,U2,20*%
%TO.N,Net-(J7-Pad2)*%
X47500000Y-86400000D03*
%TO.P,U2,19*%
%TO.N,/GPIO4*%
X49500000Y-86400000D03*
%TO.P,U2,18*%
%TO.N,Net-(U2-Pad18)*%
X51500000Y-86400000D03*
%TO.P,U2,17*%
%TO.N,Net-(U2-Pad17)*%
X53500000Y-86400000D03*
%TO.P,U2,16*%
%TO.N,Net-(R1-Pad1)*%
X55500000Y-86400000D03*
%TO.P,U2,15*%
%TO.N,Net-(C2-Pad2)*%
X57500000Y-86400000D03*
D18*
%TO.P,U2,14*%
%TO.N,Net-(U2-Pad14)*%
X59000000Y-89000000D03*
%TO.P,U2,13*%
%TO.N,Net-(U2-Pad13)*%
X59000000Y-91000000D03*
%TO.P,U2,12*%
%TO.N,Net-(U2-Pad12)*%
X59000000Y-93000000D03*
%TO.P,U2,11*%
%TO.N,Net-(U2-Pad11)*%
X59000000Y-95000000D03*
%TO.P,U2,10*%
%TO.N,Net-(U2-Pad10)*%
X59000000Y-97000000D03*
%TO.P,U2,9*%
%TO.N,Net-(U2-Pad9)*%
X59000000Y-99000000D03*
D17*
%TO.P,U2,8*%
%TO.N,+3V3*%
X57500000Y-101600000D03*
%TO.P,U2,7*%
%TO.N,Net-(SW1-Pad1)*%
X55500000Y-101600000D03*
%TO.P,U2,6*%
%TO.N,Net-(U2-Pad6)*%
X53500000Y-101600000D03*
%TO.P,U2,5*%
%TO.N,Net-(J7-Pad1)*%
X51500000Y-101600000D03*
%TO.P,U2,4*%
%TO.N,Net-(U2-Pad1)*%
X49500000Y-101600000D03*
%TO.P,U2,3*%
%TO.N,+3V3*%
X47500000Y-101600000D03*
%TO.P,U2,2*%
%TO.N,Net-(U2-Pad2)*%
X45500000Y-101600000D03*
%TO.P,U2,1*%
%TO.N,Net-(U2-Pad1)*%
X43500000Y-101600000D03*
%TD*%
%TO.P,U2,1*%
%TO.N,Net-(U2-Pad1)*%
X86500000Y-101600000D03*
%TO.P,U2,2*%
%TO.N,Net-(U2-Pad2)*%
X88500000Y-101600000D03*
%TO.P,U2,3*%
%TO.N,+3V3*%
X90500000Y-101600000D03*
%TO.P,U2,4*%
%TO.N,Net-(U2-Pad1)*%
X92500000Y-101600000D03*
%TO.P,U2,5*%
%TO.N,Net-(J7-Pad1)*%
X94500000Y-101600000D03*
%TO.P,U2,6*%
%TO.N,Net-(U2-Pad6)*%
X96500000Y-101600000D03*
%TO.P,U2,7*%
%TO.N,Net-(SW1-Pad1)*%
X98500000Y-101600000D03*
%TO.P,U2,8*%
%TO.N,+3V3*%
X100500000Y-101600000D03*
D18*
%TO.P,U2,9*%
%TO.N,Net-(U2-Pad9)*%
X102000000Y-99000000D03*
%TO.P,U2,10*%
%TO.N,Net-(U2-Pad10)*%
X102000000Y-97000000D03*
%TO.P,U2,11*%
%TO.N,Net-(U2-Pad11)*%
X102000000Y-95000000D03*
%TO.P,U2,12*%
%TO.N,Net-(U2-Pad12)*%
X102000000Y-93000000D03*
%TO.P,U2,13*%
%TO.N,Net-(U2-Pad13)*%
X102000000Y-91000000D03*
%TO.P,U2,14*%
%TO.N,Net-(U2-Pad14)*%
X102000000Y-89000000D03*
D17*
%TO.P,U2,15*%
%TO.N,Net-(C2-Pad2)*%
X100500000Y-86400000D03*
%TO.P,U2,16*%
%TO.N,Net-(R1-Pad1)*%
X98500000Y-86400000D03*
%TO.P,U2,17*%
%TO.N,Net-(U2-Pad17)*%
X96500000Y-86400000D03*
%TO.P,U2,18*%
%TO.N,Net-(U2-Pad18)*%
X94500000Y-86400000D03*
%TO.P,U2,19*%
%TO.N,/GPIO4*%
X92500000Y-86400000D03*
%TO.P,U2,20*%
%TO.N,Net-(J7-Pad2)*%
X90500000Y-86400000D03*
%TO.P,U2,21*%
%TO.N,/GPIO3*%
X88500000Y-86400000D03*
%TO.P,U2,22*%
%TO.N,Net-(U2-Pad22)*%
X86500000Y-86400000D03*
%TD*%
D12*
%TO.P,J7,1*%
%TO.N,Net-(J7-Pad1)*%
X30000000Y-89000000D03*
D13*
%TO.P,J7,2*%
%TO.N,Net-(J7-Pad2)*%
X32540000Y-89000000D03*
%TO.P,J7,3*%
%TO.N,Net-(C2-Pad2)*%
X30000000Y-91540000D03*
%TO.P,J7,4*%
%TO.N,Net-(J7-Pad4)*%
X32540000Y-91540000D03*
%TO.P,J7,5*%
%TO.N,Net-(J7-Pad5)*%
X30000000Y-94080000D03*
%TO.P,J7,6*%
%TO.N,Net-(C2-Pad2)*%
X32540000Y-94080000D03*
%TD*%
%TO.P,P3,2*%
%TO.N,/GPIO3*%
%TA.AperFunction,SMDPad,CuDef*%
G36*
G01*
X61410000Y-90900000D02*
X61410000Y-91100000D01*
G75*
G02*
X61310000Y-91200000I-100000J0D01*
G01*
X60875000Y-91200000D01*
G75*
G02*
X60775000Y-91100000I0J100000D01*
G01*
X60775000Y-90900000D01*
G75*
G02*
X60875000Y-90800000I100000J0D01*
G01*
X61310000Y-90800000D01*
G75*
G02*
X61410000Y-90900000I0J-100000D01*
G01*
G37*
%TD.AperFunction*%
%TO.P,P3,1*%
%TO.N,Net-(J7-Pad5)*%
%TA.AperFunction,SMDPad,CuDef*%
G36*
G01*
X62225000Y-90900000D02*
X62225000Y-91100000D01*
G75*
G02*
X62125000Y-91200000I-100000J0D01*
G01*
X61690000Y-91200000D01*
G75*
G02*
X61590000Y-91100000I0J100000D01*
G01*
X61590000Y-90900000D01*
G75*
G02*
X61690000Y-90800000I100000J0D01*
G01*
X62125000Y-90800000D01*
G75*
G02*
X62225000Y-90900000I0J-100000D01*
G01*
G37*
%TD.AperFunction*%
%TD*%
D11*
%TO.P,U1,1*%
%TO.N,Net-(C2-Pad2)*%
X109800000Y-86050000D03*
%TO.P,U1,2*%
%TO.N,+3V3*%
X109800000Y-87950000D03*
%TO.P,U1,3*%
%TO.N,Net-(J5-Pad1)*%
X112200000Y-87000000D03*
%TD*%
%TO.P,P4,1*%
%TO.N,Net-(J7-Pad5)*%
%TA.AperFunction,SMDPad,CuDef*%
G36*
G01*
X62775000Y-91100000D02*
X62775000Y-90900000D01*
G75*
G02*
X62875000Y-90800000I100000J0D01*
G01*
X63310000Y-90800000D01*
G75*
G02*
X63410000Y-90900000I0J-100000D01*
G01*
X63410000Y-91100000D01*
G75*
G02*
X63310000Y-91200000I-100000J0D01*
G01*
X62875000Y-91200000D01*
G75*
G02*
X62775000Y-91100000I0J100000D01*
G01*
G37*
%TD.AperFunction*%
%TO.P,P4,2*%
%TO.N,/GPIO4*%
%TA.AperFunction,SMDPad,CuDef*%
G36*
G01*
X63590000Y-91100000D02*
X63590000Y-90900000D01*
G75*
G02*
X63690000Y-90800000I100000J0D01*
G01*
X64125000Y-90800000D01*
G75*
G02*
X64225000Y-90900000I0J-100000D01*
G01*
X64225000Y-91100000D01*
G75*
G02*
X64125000Y-91200000I-100000J0D01*
G01*
X63690000Y-91200000D01*
G75*
G02*
X63590000Y-91100000I0J100000D01*
G01*
G37*
%TD.AperFunction*%
%TD*%
D15*
%TO.P,J5,*%
%TO.N,*%
X69200000Y-70425000D03*
X69200000Y-77575000D03*
D14*
%TO.P,J5,5*%
%TO.N,Net-(C2-Pad2)*%
X62850000Y-72700000D03*
%TO.P,J5,1*%
%TO.N,Net-(J5-Pad1)*%
X62850000Y-75300000D03*
%TD*%
D13*
%TO.P,J7,6*%
%TO.N,Net-(C2-Pad2)*%
X32540000Y-74080000D03*
%TO.P,J7,5*%
%TO.N,Net-(J7-Pad5)*%
X30000000Y-74080000D03*
%TO.P,J7,4*%
%TO.N,Net-(J7-Pad4)*%
X32540000Y-71540000D03*
%TO.P,J7,3*%
%TO.N,Net-(C2-Pad2)*%
X30000000Y-71540000D03*
%TO.P,J7,2*%
%TO.N,Net-(J7-Pad2)*%
X32540000Y-69000000D03*
D12*
%TO.P,J7,1*%
%TO.N,Net-(J7-Pad1)*%
X30000000Y-69000000D03*
%TD*%
D11*
%TO.P,U1,1*%
%TO.N,Net-(C2-Pad2)*%
X66800000Y-66050000D03*
%TO.P,U1,2*%
%TO.N,+3V3*%
X66800000Y-67950000D03*
%TO.P,U1,3*%
%TO.N,Net-(J5-Pad1)*%
X69200000Y-67000000D03*
%TD*%
%TO.P,P3,1*%
%TO.N,Net-(J7-Pad5)*%
%TA.AperFunction,SMDPad,CuDef*%
G36*
G01*
X62225000Y-70900000D02*
X62225000Y-71100000D01*
G75*
G02*
X62125000Y-71200000I-100000J0D01*
G01*
X61690000Y-71200000D01*
G75*
G02*
X61590000Y-71100000I0J100000D01*
G01*
X61590000Y-70900000D01*
G75*
G02*
X61690000Y-70800000I100000J0D01*
G01*
X62125000Y-70800000D01*
G75*
G02*
X62225000Y-70900000I0J-100000D01*
G01*
G37*
%TD.AperFunction*%
%TO.P,P3,2*%
%TO.N,/GPIO3*%
%TA.AperFunction,SMDPad,CuDef*%
G36*
G01*
X61410000Y-70900000D02*
X61410000Y-71100000D01*
G75*
G02*
X61310000Y-71200000I-100000J0D01*
G01*
X60875000Y-71200000D01*
G75*
G02*
X60775000Y-71100000I0J100000D01*
G01*
X60775000Y-70900000D01*
G75*
G02*
X60875000Y-70800000I100000J0D01*
G01*
X61310000Y-70800000D01*
G75*
G02*
X61410000Y-70900000I0J-100000D01*
G01*
G37*
%TD.AperFunction*%
%TD*%
%TO.P,R1,2*%
%TO.N,Net-(C2-Pad2)*%
%TA.AperFunction,SMDPad,CuDef*%
G36*
G01*
X62900000Y-69450001D02*
X62900000Y-68549999D01*
G75*
G02*
X63149999Y-68300000I249999J0D01*
G01*
X63850001Y-68300000D01*
G75*
G02*
X64100000Y-68549999I0J-249999D01*
G01*
X64100000Y-69450001D01*
G75*
G02*
X63850001Y-69700000I-249999J0D01*
G01*
X63149999Y-69700000D01*
G75*
G02*
X62900000Y-69450001I0J249999D01*
G01*
G37*
%TD.AperFunction*%
%TO.P,R1,1*%
%TO.N,Net-(R1-Pad1)*%
%TA.AperFunction,SMDPad,CuDef*%
G36*
G01*
X60900000Y-69450001D02*
X60900000Y-68549999D01*
G75*
G02*
X61149999Y-68300000I249999J0D01*
G01*
X61850001Y-68300000D01*
G75*
G02*
X62100000Y-68549999I0J-249999D01*
G01*
X62100000Y-69450001D01*
G75*
G02*
X61850001Y-69700000I-249999J0D01*
G01*
X61149999Y-69700000D01*
G75*
G02*
X60900000Y-69450001I0J249999D01*
G01*
G37*
%TD.AperFunction*%
%TD*%
D16*
%TO.P,SW1,1*%
%TO.N,Net-(SW1-Pad1)*%
X61100000Y-81000000D03*
%TO.P,SW1,2*%
%TO.N,Net-(C2-Pad2)*%
X68900000Y-81000000D03*
%TD*%
%TO.P,C2,1*%
%TO.N,+3V3*%
%TA.AperFunction,SMDPad,CuDef*%
G36*
G01*
X65225000Y-65849998D02*
X65225000Y-67150002D01*
G75*
G02*
X64975002Y-67400000I-249998J0D01*
G01*
X64149998Y-67400000D01*
G75*
G02*
X63900000Y-67150002I0J249998D01*
G01*
X63900000Y-65849998D01*
G75*
G02*
X64149998Y-65600000I249998J0D01*
G01*
X64975002Y-65600000D01*
G75*
G02*
X65225000Y-65849998I0J-249998D01*
G01*
G37*
%TD.AperFunction*%
%TO.P,C2,2*%
%TO.N,Net-(C2-Pad2)*%
%TA.AperFunction,SMDPad,CuDef*%
G36*
G01*
X62100000Y-65849998D02*
X62100000Y-67150002D01*
G75*
G02*
X61850002Y-67400000I-249998J0D01*
G01*
X61024998Y-67400000D01*
G75*
G02*
X60775000Y-67150002I0J249998D01*
G01*
X60775000Y-65849998D01*
G75*
G02*
X61024998Y-65600000I249998J0D01*
G01*
X61850002Y-65600000D01*
G75*
G02*
X62100000Y-65849998I0J-249998D01*
G01*
G37*
%TD.AperFunction*%
%TD*%
D17*
%TO.P,U2,1*%
%TO.N,Net-(U2-Pad1)*%
X43500000Y-81600000D03*
%TO.P,U2,2*%
%TO.N,Net-(U2-Pad2)*%
X45500000Y-81600000D03*
%TO.P,U2,3*%
%TO.N,+3V3*%
X47500000Y-81600000D03*
%TO.P,U2,4*%
%TO.N,Net-(U2-Pad1)*%
X49500000Y-81600000D03*
%TO.P,U2,5*%
%TO.N,Net-(J7-Pad1)*%
X51500000Y-81600000D03*
%TO.P,U2,6*%
%TO.N,Net-(U2-Pad6)*%
X53500000Y-81600000D03*
%TO.P,U2,7*%
%TO.N,Net-(SW1-Pad1)*%
X55500000Y-81600000D03*
%TO.P,U2,8*%
%TO.N,+3V3*%
X57500000Y-81600000D03*
D18*
%TO.P,U2,9*%
%TO.N,Net-(U2-Pad9)*%
X59000000Y-79000000D03*
%TO.P,U2,10*%
%TO.N,Net-(U2-Pad10)*%
X59000000Y-77000000D03*
%TO.P,U2,11*%
%TO.N,Net-(U2-Pad11)*%
X59000000Y-75000000D03*
%TO.P,U2,12*%
%TO.N,Net-(U2-Pad12)*%
X59000000Y-73000000D03*
%TO.P,U2,13*%
%TO.N,Net-(U2-Pad13)*%
X59000000Y-71000000D03*
%TO.P,U2,14*%
%TO.N,Net-(U2-Pad14)*%
X59000000Y-69000000D03*
D17*
%TO.P,U2,15*%
%TO.N,Net-(C2-Pad2)*%
X57500000Y-66400000D03*
%TO.P,U2,16*%
%TO.N,Net-(R1-Pad1)*%
X55500000Y-66400000D03*
%TO.P,U2,17*%
%TO.N,Net-(U2-Pad17)*%
X53500000Y-66400000D03*
%TO.P,U2,18*%
%TO.N,Net-(U2-Pad18)*%
X51500000Y-66400000D03*
%TO.P,U2,19*%
%TO.N,/GPIO4*%
X49500000Y-66400000D03*
%TO.P,U2,20*%
%TO.N,Net-(J7-Pad2)*%
X47500000Y-66400000D03*
%TO.P,U2,21*%
%TO.N,/GPIO3*%
X45500000Y-66400000D03*
%TO.P,U2,22*%
%TO.N,Net-(U2-Pad22)*%
X43500000Y-66400000D03*
%TD*%
%TO.P,R5,1*%
%TO.N,Net-(J7-Pad1)*%
%TA.AperFunction,SMDPad,CuDef*%
G36*
G01*
X64100000Y-77049999D02*
X64100000Y-77950001D01*
G75*
G02*
X63850001Y-78200000I-249999J0D01*
G01*
X63149999Y-78200000D01*
G75*
G02*
X62900000Y-77950001I0J249999D01*
G01*
X62900000Y-77049999D01*
G75*
G02*
X63149999Y-76800000I249999J0D01*
G01*
X63850001Y-76800000D01*
G75*
G02*
X64100000Y-77049999I0J-249999D01*
G01*
G37*
%TD.AperFunction*%
%TO.P,R5,2*%
%TO.N,Net-(J7-Pad5)*%
%TA.AperFunction,SMDPad,CuDef*%
G36*
G01*
X62100000Y-77049999D02*
X62100000Y-77950001D01*
G75*
G02*
X61850001Y-78200000I-249999J0D01*
G01*
X61149999Y-78200000D01*
G75*
G02*
X60900000Y-77950001I0J249999D01*
G01*
X60900000Y-77049999D01*
G75*
G02*
X61149999Y-76800000I249999J0D01*
G01*
X61850001Y-76800000D01*
G75*
G02*
X62100000Y-77049999I0J-249999D01*
G01*
G37*
%TD.AperFunction*%
%TD*%
D11*
%TO.P,U1,3*%
%TO.N,Net-(J5-Pad1)*%
X112200000Y-67000000D03*
%TO.P,U1,2*%
%TO.N,+3V3*%
X109800000Y-67950000D03*
%TO.P,U1,1*%
%TO.N,Net-(C2-Pad2)*%
X109800000Y-66050000D03*
%TD*%
D16*
%TO.P,SW1,2*%
%TO.N,Net-(C2-Pad2)*%
X111900000Y-81000000D03*
%TO.P,SW1,1*%
%TO.N,Net-(SW1-Pad1)*%
X104100000Y-81000000D03*
%TD*%
%TO.P,P4,1*%
%TO.N,Net-(J7-Pad5)*%
%TA.AperFunction,SMDPad,CuDef*%
G36*
G01*
X105775000Y-71100000D02*
X105775000Y-70900000D01*
G75*
G02*
X105875000Y-70800000I100000J0D01*
G01*
X106310000Y-70800000D01*
G75*
G02*
X106410000Y-70900000I0J-100000D01*
G01*
X106410000Y-71100000D01*
G75*
G02*
X106310000Y-71200000I-100000J0D01*
G01*
X105875000Y-71200000D01*
G75*
G02*
X105775000Y-71100000I0J100000D01*
G01*
G37*
%TD.AperFunction*%
%TO.P,P4,2*%
%TO.N,/GPIO4*%
%TA.AperFunction,SMDPad,CuDef*%
G36*
G01*
X106590000Y-71100000D02*
X106590000Y-70900000D01*
G75*
G02*
X106690000Y-70800000I100000J0D01*
G01*
X107125000Y-70800000D01*
G75*
G02*
X107225000Y-70900000I0J-100000D01*
G01*
X107225000Y-71100000D01*
G75*
G02*
X107125000Y-71200000I-100000J0D01*
G01*
X106690000Y-71200000D01*
G75*
G02*
X106590000Y-71100000I0J100000D01*
G01*
G37*
%TD.AperFunction*%
%TD*%
D14*
%TO.P,J5,1*%
%TO.N,Net-(J5-Pad1)*%
X105850000Y-75300000D03*
%TO.P,J5,5*%
%TO.N,Net-(C2-Pad2)*%
X105850000Y-72700000D03*
D15*
%TO.P,J5,*%
%TO.N,*%
X112200000Y-77575000D03*
X112200000Y-70425000D03*
%TD*%
D17*
%TO.P,U2,22*%
%TO.N,Net-(U2-Pad22)*%
X86500000Y-66400000D03*
%TO.P,U2,21*%
%TO.N,/GPIO3*%
X88500000Y-66400000D03*
%TO.P,U2,20*%
%TO.N,Net-(J7-Pad2)*%
X90500000Y-66400000D03*
%TO.P,U2,19*%
%TO.N,/GPIO4*%
X92500000Y-66400000D03*
%TO.P,U2,18*%
%TO.N,Net-(U2-Pad18)*%
X94500000Y-66400000D03*
%TO.P,U2,17*%
%TO.N,Net-(U2-Pad17)*%
X96500000Y-66400000D03*
%TO.P,U2,16*%
%TO.N,Net-(R1-Pad1)*%
X98500000Y-66400000D03*
%TO.P,U2,15*%
%TO.N,Net-(C2-Pad2)*%
X100500000Y-66400000D03*
D18*
%TO.P,U2,14*%
%TO.N,Net-(U2-Pad14)*%
X102000000Y-69000000D03*
%TO.P,U2,13*%
%TO.N,Net-(U2-Pad13)*%
X102000000Y-71000000D03*
%TO.P,U2,12*%
%TO.N,Net-(U2-Pad12)*%
X102000000Y-73000000D03*
%TO.P,U2,11*%
%TO.N,Net-(U2-Pad11)*%
X102000000Y-75000000D03*
%TO.P,U2,10*%
%TO.N,Net-(U2-Pad10)*%
X102000000Y-77000000D03*
%TO.P,U2,9*%
%TO.N,Net-(U2-Pad9)*%
X102000000Y-79000000D03*
D17*
%TO.P,U2,8*%
%TO.N,+3V3*%
X100500000Y-81600000D03*
%TO.P,U2,7*%
%TO.N,Net-(SW1-Pad1)*%
X98500000Y-81600000D03*
%TO.P,U2,6*%
%TO.N,Net-(U2-Pad6)*%
X96500000Y-81600000D03*
%TO.P,U2,5*%
%TO.N,Net-(J7-Pad1)*%
X94500000Y-81600000D03*
%TO.P,U2,4*%
%TO.N,Net-(U2-Pad1)*%
X92500000Y-81600000D03*
%TO.P,U2,3*%
%TO.N,+3V3*%
X90500000Y-81600000D03*
%TO.P,U2,2*%
%TO.N,Net-(U2-Pad2)*%
X88500000Y-81600000D03*
%TO.P,U2,1*%
%TO.N,Net-(U2-Pad1)*%
X86500000Y-81600000D03*
%TD*%
D12*
%TO.P,J7,1*%
%TO.N,Net-(J7-Pad1)*%
X73000000Y-69000000D03*
D13*
%TO.P,J7,2*%
%TO.N,Net-(J7-Pad2)*%
X75540000Y-69000000D03*
%TO.P,J7,3*%
%TO.N,Net-(C2-Pad2)*%
X73000000Y-71540000D03*
%TO.P,J7,4*%
%TO.N,Net-(J7-Pad4)*%
X75540000Y-71540000D03*
%TO.P,J7,5*%
%TO.N,Net-(J7-Pad5)*%
X73000000Y-74080000D03*
%TO.P,J7,6*%
%TO.N,Net-(C2-Pad2)*%
X75540000Y-74080000D03*
%TD*%
%TO.P,P3,2*%
%TO.N,/GPIO3*%
%TA.AperFunction,SMDPad,CuDef*%
G36*
G01*
X104410000Y-70900000D02*
X104410000Y-71100000D01*
G75*
G02*
X104310000Y-71200000I-100000J0D01*
G01*
X103875000Y-71200000D01*
G75*
G02*
X103775000Y-71100000I0J100000D01*
G01*
X103775000Y-70900000D01*
G75*
G02*
X103875000Y-70800000I100000J0D01*
G01*
X104310000Y-70800000D01*
G75*
G02*
X104410000Y-70900000I0J-100000D01*
G01*
G37*
%TD.AperFunction*%
%TO.P,P3,1*%
%TO.N,Net-(J7-Pad5)*%
%TA.AperFunction,SMDPad,CuDef*%
G36*
G01*
X105225000Y-70900000D02*
X105225000Y-71100000D01*
G75*
G02*
X105125000Y-71200000I-100000J0D01*
G01*
X104690000Y-71200000D01*
G75*
G02*
X104590000Y-71100000I0J100000D01*
G01*
X104590000Y-70900000D01*
G75*
G02*
X104690000Y-70800000I100000J0D01*
G01*
X105125000Y-70800000D01*
G75*
G02*
X105225000Y-70900000I0J-100000D01*
G01*
G37*
%TD.AperFunction*%
%TD*%
%TO.P,P4,2*%
%TO.N,/GPIO4*%
%TA.AperFunction,SMDPad,CuDef*%
G36*
G01*
X63590000Y-71100000D02*
X63590000Y-70900000D01*
G75*
G02*
X63690000Y-70800000I100000J0D01*
G01*
X64125000Y-70800000D01*
G75*
G02*
X64225000Y-70900000I0J-100000D01*
G01*
X64225000Y-71100000D01*
G75*
G02*
X64125000Y-71200000I-100000J0D01*
G01*
X63690000Y-71200000D01*
G75*
G02*
X63590000Y-71100000I0J100000D01*
G01*
G37*
%TD.AperFunction*%
%TO.P,P4,1*%
%TO.N,Net-(J7-Pad5)*%
%TA.AperFunction,SMDPad,CuDef*%
G36*
G01*
X62775000Y-71100000D02*
X62775000Y-70900000D01*
G75*
G02*
X62875000Y-70800000I100000J0D01*
G01*
X63310000Y-70800000D01*
G75*
G02*
X63410000Y-70900000I0J-100000D01*
G01*
X63410000Y-71100000D01*
G75*
G02*
X63310000Y-71200000I-100000J0D01*
G01*
X62875000Y-71200000D01*
G75*
G02*
X62775000Y-71100000I0J100000D01*
G01*
G37*
%TD.AperFunction*%
%TD*%
%TO.P,R1,1*%
%TO.N,Net-(R1-Pad1)*%
%TA.AperFunction,SMDPad,CuDef*%
G36*
G01*
X103900000Y-69450001D02*
X103900000Y-68549999D01*
G75*
G02*
X104149999Y-68300000I249999J0D01*
G01*
X104850001Y-68300000D01*
G75*
G02*
X105100000Y-68549999I0J-249999D01*
G01*
X105100000Y-69450001D01*
G75*
G02*
X104850001Y-69700000I-249999J0D01*
G01*
X104149999Y-69700000D01*
G75*
G02*
X103900000Y-69450001I0J249999D01*
G01*
G37*
%TD.AperFunction*%
%TO.P,R1,2*%
%TO.N,Net-(C2-Pad2)*%
%TA.AperFunction,SMDPad,CuDef*%
G36*
G01*
X105900000Y-69450001D02*
X105900000Y-68549999D01*
G75*
G02*
X106149999Y-68300000I249999J0D01*
G01*
X106850001Y-68300000D01*
G75*
G02*
X107100000Y-68549999I0J-249999D01*
G01*
X107100000Y-69450001D01*
G75*
G02*
X106850001Y-69700000I-249999J0D01*
G01*
X106149999Y-69700000D01*
G75*
G02*
X105900000Y-69450001I0J249999D01*
G01*
G37*
%TD.AperFunction*%
%TD*%
%TO.P,R5,2*%
%TO.N,Net-(J7-Pad5)*%
%TA.AperFunction,SMDPad,CuDef*%
G36*
G01*
X105100000Y-77049999D02*
X105100000Y-77950001D01*
G75*
G02*
X104850001Y-78200000I-249999J0D01*
G01*
X104149999Y-78200000D01*
G75*
G02*
X103900000Y-77950001I0J249999D01*
G01*
X103900000Y-77049999D01*
G75*
G02*
X104149999Y-76800000I249999J0D01*
G01*
X104850001Y-76800000D01*
G75*
G02*
X105100000Y-77049999I0J-249999D01*
G01*
G37*
%TD.AperFunction*%
%TO.P,R5,1*%
%TO.N,Net-(J7-Pad1)*%
%TA.AperFunction,SMDPad,CuDef*%
G36*
G01*
X107100000Y-77049999D02*
X107100000Y-77950001D01*
G75*
G02*
X106850001Y-78200000I-249999J0D01*
G01*
X106149999Y-78200000D01*
G75*
G02*
X105900000Y-77950001I0J249999D01*
G01*
X105900000Y-77049999D01*
G75*
G02*
X106149999Y-76800000I249999J0D01*
G01*
X106850001Y-76800000D01*
G75*
G02*
X107100000Y-77049999I0J-249999D01*
G01*
G37*
%TD.AperFunction*%
%TD*%
%TO.P,C2,2*%
%TO.N,Net-(C2-Pad2)*%
%TA.AperFunction,SMDPad,CuDef*%
G36*
G01*
X105100000Y-65849998D02*
X105100000Y-67150002D01*
G75*
G02*
X104850002Y-67400000I-249998J0D01*
G01*
X104024998Y-67400000D01*
G75*
G02*
X103775000Y-67150002I0J249998D01*
G01*
X103775000Y-65849998D01*
G75*
G02*
X104024998Y-65600000I249998J0D01*
G01*
X104850002Y-65600000D01*
G75*
G02*
X105100000Y-65849998I0J-249998D01*
G01*
G37*
%TD.AperFunction*%
%TO.P,C2,1*%
%TO.N,+3V3*%
%TA.AperFunction,SMDPad,CuDef*%
G36*
G01*
X108225000Y-65849998D02*
X108225000Y-67150002D01*
G75*
G02*
X107975002Y-67400000I-249998J0D01*
G01*
X107149998Y-67400000D01*
G75*
G02*
X106900000Y-67150002I0J249998D01*
G01*
X106900000Y-65849998D01*
G75*
G02*
X107149998Y-65600000I249998J0D01*
G01*
X107975002Y-65600000D01*
G75*
G02*
X108225000Y-65849998I0J-249998D01*
G01*
G37*
%TD.AperFunction*%
%TD*%
D17*
%TO.P,U2,22*%
%TO.N,Net-(U2-Pad22)*%
X43500000Y-46400000D03*
%TO.P,U2,21*%
%TO.N,/GPIO3*%
X45500000Y-46400000D03*
%TO.P,U2,20*%
%TO.N,Net-(J7-Pad2)*%
X47500000Y-46400000D03*
%TO.P,U2,19*%
%TO.N,/GPIO4*%
X49500000Y-46400000D03*
%TO.P,U2,18*%
%TO.N,Net-(U2-Pad18)*%
X51500000Y-46400000D03*
%TO.P,U2,17*%
%TO.N,Net-(U2-Pad17)*%
X53500000Y-46400000D03*
%TO.P,U2,16*%
%TO.N,Net-(R1-Pad1)*%
X55500000Y-46400000D03*
%TO.P,U2,15*%
%TO.N,Net-(C2-Pad2)*%
X57500000Y-46400000D03*
D18*
%TO.P,U2,14*%
%TO.N,Net-(U2-Pad14)*%
X59000000Y-49000000D03*
%TO.P,U2,13*%
%TO.N,Net-(U2-Pad13)*%
X59000000Y-51000000D03*
%TO.P,U2,12*%
%TO.N,Net-(U2-Pad12)*%
X59000000Y-53000000D03*
%TO.P,U2,11*%
%TO.N,Net-(U2-Pad11)*%
X59000000Y-55000000D03*
%TO.P,U2,10*%
%TO.N,Net-(U2-Pad10)*%
X59000000Y-57000000D03*
%TO.P,U2,9*%
%TO.N,Net-(U2-Pad9)*%
X59000000Y-59000000D03*
D17*
%TO.P,U2,8*%
%TO.N,+3V3*%
X57500000Y-61600000D03*
%TO.P,U2,7*%
%TO.N,Net-(SW1-Pad1)*%
X55500000Y-61600000D03*
%TO.P,U2,6*%
%TO.N,Net-(U2-Pad6)*%
X53500000Y-61600000D03*
%TO.P,U2,5*%
%TO.N,Net-(J7-Pad1)*%
X51500000Y-61600000D03*
%TO.P,U2,4*%
%TO.N,Net-(U2-Pad1)*%
X49500000Y-61600000D03*
%TO.P,U2,3*%
%TO.N,+3V3*%
X47500000Y-61600000D03*
%TO.P,U2,2*%
%TO.N,Net-(U2-Pad2)*%
X45500000Y-61600000D03*
%TO.P,U2,1*%
%TO.N,Net-(U2-Pad1)*%
X43500000Y-61600000D03*
%TD*%
D11*
%TO.P,U1,3*%
%TO.N,Net-(J5-Pad1)*%
X69200000Y-47000000D03*
%TO.P,U1,2*%
%TO.N,+3V3*%
X66800000Y-47950000D03*
%TO.P,U1,1*%
%TO.N,Net-(C2-Pad2)*%
X66800000Y-46050000D03*
%TD*%
D16*
%TO.P,SW1,2*%
%TO.N,Net-(C2-Pad2)*%
X68900000Y-61000000D03*
%TO.P,SW1,1*%
%TO.N,Net-(SW1-Pad1)*%
X61100000Y-61000000D03*
%TD*%
%TO.P,P3,2*%
%TO.N,/GPIO3*%
%TA.AperFunction,SMDPad,CuDef*%
G36*
G01*
X61410000Y-50900000D02*
X61410000Y-51100000D01*
G75*
G02*
X61310000Y-51200000I-100000J0D01*
G01*
X60875000Y-51200000D01*
G75*
G02*
X60775000Y-51100000I0J100000D01*
G01*
X60775000Y-50900000D01*
G75*
G02*
X60875000Y-50800000I100000J0D01*
G01*
X61310000Y-50800000D01*
G75*
G02*
X61410000Y-50900000I0J-100000D01*
G01*
G37*
%TD.AperFunction*%
%TO.P,P3,1*%
%TO.N,Net-(J7-Pad5)*%
%TA.AperFunction,SMDPad,CuDef*%
G36*
G01*
X62225000Y-50900000D02*
X62225000Y-51100000D01*
G75*
G02*
X62125000Y-51200000I-100000J0D01*
G01*
X61690000Y-51200000D01*
G75*
G02*
X61590000Y-51100000I0J100000D01*
G01*
X61590000Y-50900000D01*
G75*
G02*
X61690000Y-50800000I100000J0D01*
G01*
X62125000Y-50800000D01*
G75*
G02*
X62225000Y-50900000I0J-100000D01*
G01*
G37*
%TD.AperFunction*%
%TD*%
%TO.P,R1,1*%
%TO.N,Net-(R1-Pad1)*%
%TA.AperFunction,SMDPad,CuDef*%
G36*
G01*
X60900000Y-49450001D02*
X60900000Y-48549999D01*
G75*
G02*
X61149999Y-48300000I249999J0D01*
G01*
X61850001Y-48300000D01*
G75*
G02*
X62100000Y-48549999I0J-249999D01*
G01*
X62100000Y-49450001D01*
G75*
G02*
X61850001Y-49700000I-249999J0D01*
G01*
X61149999Y-49700000D01*
G75*
G02*
X60900000Y-49450001I0J249999D01*
G01*
G37*
%TD.AperFunction*%
%TO.P,R1,2*%
%TO.N,Net-(C2-Pad2)*%
%TA.AperFunction,SMDPad,CuDef*%
G36*
G01*
X62900000Y-49450001D02*
X62900000Y-48549999D01*
G75*
G02*
X63149999Y-48300000I249999J0D01*
G01*
X63850001Y-48300000D01*
G75*
G02*
X64100000Y-48549999I0J-249999D01*
G01*
X64100000Y-49450001D01*
G75*
G02*
X63850001Y-49700000I-249999J0D01*
G01*
X63149999Y-49700000D01*
G75*
G02*
X62900000Y-49450001I0J249999D01*
G01*
G37*
%TD.AperFunction*%
%TD*%
%TO.P,R5,2*%
%TO.N,Net-(J7-Pad5)*%
%TA.AperFunction,SMDPad,CuDef*%
G36*
G01*
X62100000Y-57049999D02*
X62100000Y-57950001D01*
G75*
G02*
X61850001Y-58200000I-249999J0D01*
G01*
X61149999Y-58200000D01*
G75*
G02*
X60900000Y-57950001I0J249999D01*
G01*
X60900000Y-57049999D01*
G75*
G02*
X61149999Y-56800000I249999J0D01*
G01*
X61850001Y-56800000D01*
G75*
G02*
X62100000Y-57049999I0J-249999D01*
G01*
G37*
%TD.AperFunction*%
%TO.P,R5,1*%
%TO.N,Net-(J7-Pad1)*%
%TA.AperFunction,SMDPad,CuDef*%
G36*
G01*
X64100000Y-57049999D02*
X64100000Y-57950001D01*
G75*
G02*
X63850001Y-58200000I-249999J0D01*
G01*
X63149999Y-58200000D01*
G75*
G02*
X62900000Y-57950001I0J249999D01*
G01*
X62900000Y-57049999D01*
G75*
G02*
X63149999Y-56800000I249999J0D01*
G01*
X63850001Y-56800000D01*
G75*
G02*
X64100000Y-57049999I0J-249999D01*
G01*
G37*
%TD.AperFunction*%
%TD*%
D14*
%TO.P,J5,1*%
%TO.N,Net-(J5-Pad1)*%
X62850000Y-55300000D03*
%TO.P,J5,5*%
%TO.N,Net-(C2-Pad2)*%
X62850000Y-52700000D03*
D15*
%TO.P,J5,*%
%TO.N,*%
X69200000Y-57575000D03*
X69200000Y-50425000D03*
%TD*%
%TO.P,C2,2*%
%TO.N,Net-(C2-Pad2)*%
%TA.AperFunction,SMDPad,CuDef*%
G36*
G01*
X62100000Y-45849998D02*
X62100000Y-47150002D01*
G75*
G02*
X61850002Y-47400000I-249998J0D01*
G01*
X61024998Y-47400000D01*
G75*
G02*
X60775000Y-47150002I0J249998D01*
G01*
X60775000Y-45849998D01*
G75*
G02*
X61024998Y-45600000I249998J0D01*
G01*
X61850002Y-45600000D01*
G75*
G02*
X62100000Y-45849998I0J-249998D01*
G01*
G37*
%TD.AperFunction*%
%TO.P,C2,1*%
%TO.N,+3V3*%
%TA.AperFunction,SMDPad,CuDef*%
G36*
G01*
X65225000Y-45849998D02*
X65225000Y-47150002D01*
G75*
G02*
X64975002Y-47400000I-249998J0D01*
G01*
X64149998Y-47400000D01*
G75*
G02*
X63900000Y-47150002I0J249998D01*
G01*
X63900000Y-45849998D01*
G75*
G02*
X64149998Y-45600000I249998J0D01*
G01*
X64975002Y-45600000D01*
G75*
G02*
X65225000Y-45849998I0J-249998D01*
G01*
G37*
%TD.AperFunction*%
%TD*%
D12*
%TO.P,J7,1*%
%TO.N,Net-(J7-Pad1)*%
X30000000Y-49000000D03*
D13*
%TO.P,J7,2*%
%TO.N,Net-(J7-Pad2)*%
X32540000Y-49000000D03*
%TO.P,J7,3*%
%TO.N,Net-(C2-Pad2)*%
X30000000Y-51540000D03*
%TO.P,J7,4*%
%TO.N,Net-(J7-Pad4)*%
X32540000Y-51540000D03*
%TO.P,J7,5*%
%TO.N,Net-(J7-Pad5)*%
X30000000Y-54080000D03*
%TO.P,J7,6*%
%TO.N,Net-(C2-Pad2)*%
X32540000Y-54080000D03*
%TD*%
%TO.P,P4,1*%
%TO.N,Net-(J7-Pad5)*%
%TA.AperFunction,SMDPad,CuDef*%
G36*
G01*
X62775000Y-51100000D02*
X62775000Y-50900000D01*
G75*
G02*
X62875000Y-50800000I100000J0D01*
G01*
X63310000Y-50800000D01*
G75*
G02*
X63410000Y-50900000I0J-100000D01*
G01*
X63410000Y-51100000D01*
G75*
G02*
X63310000Y-51200000I-100000J0D01*
G01*
X62875000Y-51200000D01*
G75*
G02*
X62775000Y-51100000I0J100000D01*
G01*
G37*
%TD.AperFunction*%
%TO.P,P4,2*%
%TO.N,/GPIO4*%
%TA.AperFunction,SMDPad,CuDef*%
G36*
G01*
X63590000Y-51100000D02*
X63590000Y-50900000D01*
G75*
G02*
X63690000Y-50800000I100000J0D01*
G01*
X64125000Y-50800000D01*
G75*
G02*
X64225000Y-50900000I0J-100000D01*
G01*
X64225000Y-51100000D01*
G75*
G02*
X64125000Y-51200000I-100000J0D01*
G01*
X63690000Y-51200000D01*
G75*
G02*
X63590000Y-51100000I0J100000D01*
G01*
G37*
%TD.AperFunction*%
%TD*%
%TO.P,P3,1*%
%TO.N,Net-(J7-Pad5)*%
%TA.AperFunction,SMDPad,CuDef*%
G36*
G01*
X105225000Y-50900000D02*
X105225000Y-51100000D01*
G75*
G02*
X105125000Y-51200000I-100000J0D01*
G01*
X104690000Y-51200000D01*
G75*
G02*
X104590000Y-51100000I0J100000D01*
G01*
X104590000Y-50900000D01*
G75*
G02*
X104690000Y-50800000I100000J0D01*
G01*
X105125000Y-50800000D01*
G75*
G02*
X105225000Y-50900000I0J-100000D01*
G01*
G37*
%TD.AperFunction*%
%TO.P,P3,2*%
%TO.N,/GPIO3*%
%TA.AperFunction,SMDPad,CuDef*%
G36*
G01*
X104410000Y-50900000D02*
X104410000Y-51100000D01*
G75*
G02*
X104310000Y-51200000I-100000J0D01*
G01*
X103875000Y-51200000D01*
G75*
G02*
X103775000Y-51100000I0J100000D01*
G01*
X103775000Y-50900000D01*
G75*
G02*
X103875000Y-50800000I100000J0D01*
G01*
X104310000Y-50800000D01*
G75*
G02*
X104410000Y-50900000I0J-100000D01*
G01*
G37*
%TD.AperFunction*%
%TD*%
%TO.P,R1,2*%
%TO.N,Net-(C2-Pad2)*%
%TA.AperFunction,SMDPad,CuDef*%
G36*
G01*
X105900000Y-49450001D02*
X105900000Y-48549999D01*
G75*
G02*
X106149999Y-48300000I249999J0D01*
G01*
X106850001Y-48300000D01*
G75*
G02*
X107100000Y-48549999I0J-249999D01*
G01*
X107100000Y-49450001D01*
G75*
G02*
X106850001Y-49700000I-249999J0D01*
G01*
X106149999Y-49700000D01*
G75*
G02*
X105900000Y-49450001I0J249999D01*
G01*
G37*
%TD.AperFunction*%
%TO.P,R1,1*%
%TO.N,Net-(R1-Pad1)*%
%TA.AperFunction,SMDPad,CuDef*%
G36*
G01*
X103900000Y-49450001D02*
X103900000Y-48549999D01*
G75*
G02*
X104149999Y-48300000I249999J0D01*
G01*
X104850001Y-48300000D01*
G75*
G02*
X105100000Y-48549999I0J-249999D01*
G01*
X105100000Y-49450001D01*
G75*
G02*
X104850001Y-49700000I-249999J0D01*
G01*
X104149999Y-49700000D01*
G75*
G02*
X103900000Y-49450001I0J249999D01*
G01*
G37*
%TD.AperFunction*%
%TD*%
D17*
%TO.P,U2,1*%
%TO.N,Net-(U2-Pad1)*%
X86500000Y-61600000D03*
%TO.P,U2,2*%
%TO.N,Net-(U2-Pad2)*%
X88500000Y-61600000D03*
%TO.P,U2,3*%
%TO.N,+3V3*%
X90500000Y-61600000D03*
%TO.P,U2,4*%
%TO.N,Net-(U2-Pad1)*%
X92500000Y-61600000D03*
%TO.P,U2,5*%
%TO.N,Net-(J7-Pad1)*%
X94500000Y-61600000D03*
%TO.P,U2,6*%
%TO.N,Net-(U2-Pad6)*%
X96500000Y-61600000D03*
%TO.P,U2,7*%
%TO.N,Net-(SW1-Pad1)*%
X98500000Y-61600000D03*
%TO.P,U2,8*%
%TO.N,+3V3*%
X100500000Y-61600000D03*
D18*
%TO.P,U2,9*%
%TO.N,Net-(U2-Pad9)*%
X102000000Y-59000000D03*
%TO.P,U2,10*%
%TO.N,Net-(U2-Pad10)*%
X102000000Y-57000000D03*
%TO.P,U2,11*%
%TO.N,Net-(U2-Pad11)*%
X102000000Y-55000000D03*
%TO.P,U2,12*%
%TO.N,Net-(U2-Pad12)*%
X102000000Y-53000000D03*
%TO.P,U2,13*%
%TO.N,Net-(U2-Pad13)*%
X102000000Y-51000000D03*
%TO.P,U2,14*%
%TO.N,Net-(U2-Pad14)*%
X102000000Y-49000000D03*
D17*
%TO.P,U2,15*%
%TO.N,Net-(C2-Pad2)*%
X100500000Y-46400000D03*
%TO.P,U2,16*%
%TO.N,Net-(R1-Pad1)*%
X98500000Y-46400000D03*
%TO.P,U2,17*%
%TO.N,Net-(U2-Pad17)*%
X96500000Y-46400000D03*
%TO.P,U2,18*%
%TO.N,Net-(U2-Pad18)*%
X94500000Y-46400000D03*
%TO.P,U2,19*%
%TO.N,/GPIO4*%
X92500000Y-46400000D03*
%TO.P,U2,20*%
%TO.N,Net-(J7-Pad2)*%
X90500000Y-46400000D03*
%TO.P,U2,21*%
%TO.N,/GPIO3*%
X88500000Y-46400000D03*
%TO.P,U2,22*%
%TO.N,Net-(U2-Pad22)*%
X86500000Y-46400000D03*
%TD*%
%TO.P,R5,1*%
%TO.N,Net-(J7-Pad1)*%
%TA.AperFunction,SMDPad,CuDef*%
G36*
G01*
X107100000Y-57049999D02*
X107100000Y-57950001D01*
G75*
G02*
X106850001Y-58200000I-249999J0D01*
G01*
X106149999Y-58200000D01*
G75*
G02*
X105900000Y-57950001I0J249999D01*
G01*
X105900000Y-57049999D01*
G75*
G02*
X106149999Y-56800000I249999J0D01*
G01*
X106850001Y-56800000D01*
G75*
G02*
X107100000Y-57049999I0J-249999D01*
G01*
G37*
%TD.AperFunction*%
%TO.P,R5,2*%
%TO.N,Net-(J7-Pad5)*%
%TA.AperFunction,SMDPad,CuDef*%
G36*
G01*
X105100000Y-57049999D02*
X105100000Y-57950001D01*
G75*
G02*
X104850001Y-58200000I-249999J0D01*
G01*
X104149999Y-58200000D01*
G75*
G02*
X103900000Y-57950001I0J249999D01*
G01*
X103900000Y-57049999D01*
G75*
G02*
X104149999Y-56800000I249999J0D01*
G01*
X104850001Y-56800000D01*
G75*
G02*
X105100000Y-57049999I0J-249999D01*
G01*
G37*
%TD.AperFunction*%
%TD*%
%TO.P,C2,1*%
%TO.N,+3V3*%
%TA.AperFunction,SMDPad,CuDef*%
G36*
G01*
X108225000Y-45849998D02*
X108225000Y-47150002D01*
G75*
G02*
X107975002Y-47400000I-249998J0D01*
G01*
X107149998Y-47400000D01*
G75*
G02*
X106900000Y-47150002I0J249998D01*
G01*
X106900000Y-45849998D01*
G75*
G02*
X107149998Y-45600000I249998J0D01*
G01*
X107975002Y-45600000D01*
G75*
G02*
X108225000Y-45849998I0J-249998D01*
G01*
G37*
%TD.AperFunction*%
%TO.P,C2,2*%
%TO.N,Net-(C2-Pad2)*%
%TA.AperFunction,SMDPad,CuDef*%
G36*
G01*
X105100000Y-45849998D02*
X105100000Y-47150002D01*
G75*
G02*
X104850002Y-47400000I-249998J0D01*
G01*
X104024998Y-47400000D01*
G75*
G02*
X103775000Y-47150002I0J249998D01*
G01*
X103775000Y-45849998D01*
G75*
G02*
X104024998Y-45600000I249998J0D01*
G01*
X104850002Y-45600000D01*
G75*
G02*
X105100000Y-45849998I0J-249998D01*
G01*
G37*
%TD.AperFunction*%
%TD*%
D13*
%TO.P,J7,6*%
%TO.N,Net-(C2-Pad2)*%
X75540000Y-54080000D03*
%TO.P,J7,5*%
%TO.N,Net-(J7-Pad5)*%
X73000000Y-54080000D03*
%TO.P,J7,4*%
%TO.N,Net-(J7-Pad4)*%
X75540000Y-51540000D03*
%TO.P,J7,3*%
%TO.N,Net-(C2-Pad2)*%
X73000000Y-51540000D03*
%TO.P,J7,2*%
%TO.N,Net-(J7-Pad2)*%
X75540000Y-49000000D03*
D12*
%TO.P,J7,1*%
%TO.N,Net-(J7-Pad1)*%
X73000000Y-49000000D03*
%TD*%
D11*
%TO.P,U1,1*%
%TO.N,Net-(C2-Pad2)*%
X109800000Y-46050000D03*
%TO.P,U1,2*%
%TO.N,+3V3*%
X109800000Y-47950000D03*
%TO.P,U1,3*%
%TO.N,Net-(J5-Pad1)*%
X112200000Y-47000000D03*
%TD*%
D15*
%TO.P,J5,*%
%TO.N,*%
X112200000Y-50425000D03*
X112200000Y-57575000D03*
D14*
%TO.P,J5,5*%
%TO.N,Net-(C2-Pad2)*%
X105850000Y-52700000D03*
%TO.P,J5,1*%
%TO.N,Net-(J5-Pad1)*%
X105850000Y-55300000D03*
%TD*%
D16*
%TO.P,SW1,1*%
%TO.N,Net-(SW1-Pad1)*%
X104100000Y-61000000D03*
%TO.P,SW1,2*%
%TO.N,Net-(C2-Pad2)*%
X111900000Y-61000000D03*
%TD*%
%TO.P,P4,2*%
%TO.N,/GPIO4*%
%TA.AperFunction,SMDPad,CuDef*%
G36*
G01*
X106590000Y-51100000D02*
X106590000Y-50900000D01*
G75*
G02*
X106690000Y-50800000I100000J0D01*
G01*
X107125000Y-50800000D01*
G75*
G02*
X107225000Y-50900000I0J-100000D01*
G01*
X107225000Y-51100000D01*
G75*
G02*
X107125000Y-51200000I-100000J0D01*
G01*
X106690000Y-51200000D01*
G75*
G02*
X106590000Y-51100000I0J100000D01*
G01*
G37*
%TD.AperFunction*%
%TO.P,P4,1*%
%TO.N,Net-(J7-Pad5)*%
%TA.AperFunction,SMDPad,CuDef*%
G36*
G01*
X105775000Y-51100000D02*
X105775000Y-50900000D01*
G75*
G02*
X105875000Y-50800000I100000J0D01*
G01*
X106310000Y-50800000D01*
G75*
G02*
X106410000Y-50900000I0J-100000D01*
G01*
X106410000Y-51100000D01*
G75*
G02*
X106310000Y-51200000I-100000J0D01*
G01*
X105875000Y-51200000D01*
G75*
G02*
X105775000Y-51100000I0J100000D01*
G01*
G37*
%TD.AperFunction*%
%TD*%
D17*
%TO.P,U2,22*%
%TO.N,Net-(U2-Pad22)*%
X86500000Y-26400000D03*
%TO.P,U2,21*%
%TO.N,/GPIO3*%
X88500000Y-26400000D03*
%TO.P,U2,20*%
%TO.N,Net-(J7-Pad2)*%
X90500000Y-26400000D03*
%TO.P,U2,19*%
%TO.N,/GPIO4*%
X92500000Y-26400000D03*
%TO.P,U2,18*%
%TO.N,Net-(U2-Pad18)*%
X94500000Y-26400000D03*
%TO.P,U2,17*%
%TO.N,Net-(U2-Pad17)*%
X96500000Y-26400000D03*
%TO.P,U2,16*%
%TO.N,Net-(R1-Pad1)*%
X98500000Y-26400000D03*
%TO.P,U2,15*%
%TO.N,Net-(C2-Pad2)*%
X100500000Y-26400000D03*
D18*
%TO.P,U2,14*%
%TO.N,Net-(U2-Pad14)*%
X102000000Y-29000000D03*
%TO.P,U2,13*%
%TO.N,Net-(U2-Pad13)*%
X102000000Y-31000000D03*
%TO.P,U2,12*%
%TO.N,Net-(U2-Pad12)*%
X102000000Y-33000000D03*
%TO.P,U2,11*%
%TO.N,Net-(U2-Pad11)*%
X102000000Y-35000000D03*
%TO.P,U2,10*%
%TO.N,Net-(U2-Pad10)*%
X102000000Y-37000000D03*
%TO.P,U2,9*%
%TO.N,Net-(U2-Pad9)*%
X102000000Y-39000000D03*
D17*
%TO.P,U2,8*%
%TO.N,+3V3*%
X100500000Y-41600000D03*
%TO.P,U2,7*%
%TO.N,Net-(SW1-Pad1)*%
X98500000Y-41600000D03*
%TO.P,U2,6*%
%TO.N,Net-(U2-Pad6)*%
X96500000Y-41600000D03*
%TO.P,U2,5*%
%TO.N,Net-(J7-Pad1)*%
X94500000Y-41600000D03*
%TO.P,U2,4*%
%TO.N,Net-(U2-Pad1)*%
X92500000Y-41600000D03*
%TO.P,U2,3*%
%TO.N,+3V3*%
X90500000Y-41600000D03*
%TO.P,U2,2*%
%TO.N,Net-(U2-Pad2)*%
X88500000Y-41600000D03*
%TO.P,U2,1*%
%TO.N,Net-(U2-Pad1)*%
X86500000Y-41600000D03*
%TD*%
D11*
%TO.P,U1,3*%
%TO.N,Net-(J5-Pad1)*%
X112200000Y-27000000D03*
%TO.P,U1,2*%
%TO.N,+3V3*%
X109800000Y-27950000D03*
%TO.P,U1,1*%
%TO.N,Net-(C2-Pad2)*%
X109800000Y-26050000D03*
%TD*%
D16*
%TO.P,SW1,2*%
%TO.N,Net-(C2-Pad2)*%
X111900000Y-41000000D03*
%TO.P,SW1,1*%
%TO.N,Net-(SW1-Pad1)*%
X104100000Y-41000000D03*
%TD*%
%TO.P,P3,2*%
%TO.N,/GPIO3*%
%TA.AperFunction,SMDPad,CuDef*%
G36*
G01*
X104410000Y-30900000D02*
X104410000Y-31100000D01*
G75*
G02*
X104310000Y-31200000I-100000J0D01*
G01*
X103875000Y-31200000D01*
G75*
G02*
X103775000Y-31100000I0J100000D01*
G01*
X103775000Y-30900000D01*
G75*
G02*
X103875000Y-30800000I100000J0D01*
G01*
X104310000Y-30800000D01*
G75*
G02*
X104410000Y-30900000I0J-100000D01*
G01*
G37*
%TD.AperFunction*%
%TO.P,P3,1*%
%TO.N,Net-(J7-Pad5)*%
%TA.AperFunction,SMDPad,CuDef*%
G36*
G01*
X105225000Y-30900000D02*
X105225000Y-31100000D01*
G75*
G02*
X105125000Y-31200000I-100000J0D01*
G01*
X104690000Y-31200000D01*
G75*
G02*
X104590000Y-31100000I0J100000D01*
G01*
X104590000Y-30900000D01*
G75*
G02*
X104690000Y-30800000I100000J0D01*
G01*
X105125000Y-30800000D01*
G75*
G02*
X105225000Y-30900000I0J-100000D01*
G01*
G37*
%TD.AperFunction*%
%TD*%
%TO.P,R1,1*%
%TO.N,Net-(R1-Pad1)*%
%TA.AperFunction,SMDPad,CuDef*%
G36*
G01*
X103900000Y-29450001D02*
X103900000Y-28549999D01*
G75*
G02*
X104149999Y-28300000I249999J0D01*
G01*
X104850001Y-28300000D01*
G75*
G02*
X105100000Y-28549999I0J-249999D01*
G01*
X105100000Y-29450001D01*
G75*
G02*
X104850001Y-29700000I-249999J0D01*
G01*
X104149999Y-29700000D01*
G75*
G02*
X103900000Y-29450001I0J249999D01*
G01*
G37*
%TD.AperFunction*%
%TO.P,R1,2*%
%TO.N,Net-(C2-Pad2)*%
%TA.AperFunction,SMDPad,CuDef*%
G36*
G01*
X105900000Y-29450001D02*
X105900000Y-28549999D01*
G75*
G02*
X106149999Y-28300000I249999J0D01*
G01*
X106850001Y-28300000D01*
G75*
G02*
X107100000Y-28549999I0J-249999D01*
G01*
X107100000Y-29450001D01*
G75*
G02*
X106850001Y-29700000I-249999J0D01*
G01*
X106149999Y-29700000D01*
G75*
G02*
X105900000Y-29450001I0J249999D01*
G01*
G37*
%TD.AperFunction*%
%TD*%
%TO.P,R5,2*%
%TO.N,Net-(J7-Pad5)*%
%TA.AperFunction,SMDPad,CuDef*%
G36*
G01*
X105100000Y-37049999D02*
X105100000Y-37950001D01*
G75*
G02*
X104850001Y-38200000I-249999J0D01*
G01*
X104149999Y-38200000D01*
G75*
G02*
X103900000Y-37950001I0J249999D01*
G01*
X103900000Y-37049999D01*
G75*
G02*
X104149999Y-36800000I249999J0D01*
G01*
X104850001Y-36800000D01*
G75*
G02*
X105100000Y-37049999I0J-249999D01*
G01*
G37*
%TD.AperFunction*%
%TO.P,R5,1*%
%TO.N,Net-(J7-Pad1)*%
%TA.AperFunction,SMDPad,CuDef*%
G36*
G01*
X107100000Y-37049999D02*
X107100000Y-37950001D01*
G75*
G02*
X106850001Y-38200000I-249999J0D01*
G01*
X106149999Y-38200000D01*
G75*
G02*
X105900000Y-37950001I0J249999D01*
G01*
X105900000Y-37049999D01*
G75*
G02*
X106149999Y-36800000I249999J0D01*
G01*
X106850001Y-36800000D01*
G75*
G02*
X107100000Y-37049999I0J-249999D01*
G01*
G37*
%TD.AperFunction*%
%TD*%
D14*
%TO.P,J5,1*%
%TO.N,Net-(J5-Pad1)*%
X105850000Y-35300000D03*
%TO.P,J5,5*%
%TO.N,Net-(C2-Pad2)*%
X105850000Y-32700000D03*
D15*
%TO.P,J5,*%
%TO.N,*%
X112200000Y-37575000D03*
X112200000Y-30425000D03*
%TD*%
%TO.P,C2,2*%
%TO.N,Net-(C2-Pad2)*%
%TA.AperFunction,SMDPad,CuDef*%
G36*
G01*
X105100000Y-25849998D02*
X105100000Y-27150002D01*
G75*
G02*
X104850002Y-27400000I-249998J0D01*
G01*
X104024998Y-27400000D01*
G75*
G02*
X103775000Y-27150002I0J249998D01*
G01*
X103775000Y-25849998D01*
G75*
G02*
X104024998Y-25600000I249998J0D01*
G01*
X104850002Y-25600000D01*
G75*
G02*
X105100000Y-25849998I0J-249998D01*
G01*
G37*
%TD.AperFunction*%
%TO.P,C2,1*%
%TO.N,+3V3*%
%TA.AperFunction,SMDPad,CuDef*%
G36*
G01*
X108225000Y-25849998D02*
X108225000Y-27150002D01*
G75*
G02*
X107975002Y-27400000I-249998J0D01*
G01*
X107149998Y-27400000D01*
G75*
G02*
X106900000Y-27150002I0J249998D01*
G01*
X106900000Y-25849998D01*
G75*
G02*
X107149998Y-25600000I249998J0D01*
G01*
X107975002Y-25600000D01*
G75*
G02*
X108225000Y-25849998I0J-249998D01*
G01*
G37*
%TD.AperFunction*%
%TD*%
D12*
%TO.P,J7,1*%
%TO.N,Net-(J7-Pad1)*%
X73000000Y-29000000D03*
D13*
%TO.P,J7,2*%
%TO.N,Net-(J7-Pad2)*%
X75540000Y-29000000D03*
%TO.P,J7,3*%
%TO.N,Net-(C2-Pad2)*%
X73000000Y-31540000D03*
%TO.P,J7,4*%
%TO.N,Net-(J7-Pad4)*%
X75540000Y-31540000D03*
%TO.P,J7,5*%
%TO.N,Net-(J7-Pad5)*%
X73000000Y-34080000D03*
%TO.P,J7,6*%
%TO.N,Net-(C2-Pad2)*%
X75540000Y-34080000D03*
%TD*%
%TO.P,P4,1*%
%TO.N,Net-(J7-Pad5)*%
%TA.AperFunction,SMDPad,CuDef*%
G36*
G01*
X105775000Y-31100000D02*
X105775000Y-30900000D01*
G75*
G02*
X105875000Y-30800000I100000J0D01*
G01*
X106310000Y-30800000D01*
G75*
G02*
X106410000Y-30900000I0J-100000D01*
G01*
X106410000Y-31100000D01*
G75*
G02*
X106310000Y-31200000I-100000J0D01*
G01*
X105875000Y-31200000D01*
G75*
G02*
X105775000Y-31100000I0J100000D01*
G01*
G37*
%TD.AperFunction*%
%TO.P,P4,2*%
%TO.N,/GPIO4*%
%TA.AperFunction,SMDPad,CuDef*%
G36*
G01*
X106590000Y-31100000D02*
X106590000Y-30900000D01*
G75*
G02*
X106690000Y-30800000I100000J0D01*
G01*
X107125000Y-30800000D01*
G75*
G02*
X107225000Y-30900000I0J-100000D01*
G01*
X107225000Y-31100000D01*
G75*
G02*
X107125000Y-31200000I-100000J0D01*
G01*
X106690000Y-31200000D01*
G75*
G02*
X106590000Y-31100000I0J100000D01*
G01*
G37*
%TD.AperFunction*%
%TD*%
%TO.P,J7,6*%
%TO.N,Net-(C2-Pad2)*%
X32540000Y-34080000D03*
%TO.P,J7,5*%
%TO.N,Net-(J7-Pad5)*%
X30000000Y-34080000D03*
%TO.P,J7,4*%
%TO.N,Net-(J7-Pad4)*%
X32540000Y-31540000D03*
%TO.P,J7,3*%
%TO.N,Net-(C2-Pad2)*%
X30000000Y-31540000D03*
%TO.P,J7,2*%
%TO.N,Net-(J7-Pad2)*%
X32540000Y-29000000D03*
D12*
%TO.P,J7,1*%
%TO.N,Net-(J7-Pad1)*%
X30000000Y-29000000D03*
%TD*%
%TO.P,C2,1*%
%TO.N,+3V3*%
%TA.AperFunction,SMDPad,CuDef*%
G36*
G01*
X65225000Y-25849998D02*
X65225000Y-27150002D01*
G75*
G02*
X64975002Y-27400000I-249998J0D01*
G01*
X64149998Y-27400000D01*
G75*
G02*
X63900000Y-27150002I0J249998D01*
G01*
X63900000Y-25849998D01*
G75*
G02*
X64149998Y-25600000I249998J0D01*
G01*
X64975002Y-25600000D01*
G75*
G02*
X65225000Y-25849998I0J-249998D01*
G01*
G37*
%TD.AperFunction*%
%TO.P,C2,2*%
%TO.N,Net-(C2-Pad2)*%
%TA.AperFunction,SMDPad,CuDef*%
G36*
G01*
X62100000Y-25849998D02*
X62100000Y-27150002D01*
G75*
G02*
X61850002Y-27400000I-249998J0D01*
G01*
X61024998Y-27400000D01*
G75*
G02*
X60775000Y-27150002I0J249998D01*
G01*
X60775000Y-25849998D01*
G75*
G02*
X61024998Y-25600000I249998J0D01*
G01*
X61850002Y-25600000D01*
G75*
G02*
X62100000Y-25849998I0J-249998D01*
G01*
G37*
%TD.AperFunction*%
%TD*%
D15*
%TO.P,J5,*%
%TO.N,*%
X69200000Y-30425000D03*
X69200000Y-37575000D03*
D14*
%TO.P,J5,5*%
%TO.N,Net-(C2-Pad2)*%
X62850000Y-32700000D03*
%TO.P,J5,1*%
%TO.N,Net-(J5-Pad1)*%
X62850000Y-35300000D03*
%TD*%
%TO.P,P3,1*%
%TO.N,Net-(J7-Pad5)*%
%TA.AperFunction,SMDPad,CuDef*%
G36*
G01*
X62225000Y-30900000D02*
X62225000Y-31100000D01*
G75*
G02*
X62125000Y-31200000I-100000J0D01*
G01*
X61690000Y-31200000D01*
G75*
G02*
X61590000Y-31100000I0J100000D01*
G01*
X61590000Y-30900000D01*
G75*
G02*
X61690000Y-30800000I100000J0D01*
G01*
X62125000Y-30800000D01*
G75*
G02*
X62225000Y-30900000I0J-100000D01*
G01*
G37*
%TD.AperFunction*%
%TO.P,P3,2*%
%TO.N,/GPIO3*%
%TA.AperFunction,SMDPad,CuDef*%
G36*
G01*
X61410000Y-30900000D02*
X61410000Y-31100000D01*
G75*
G02*
X61310000Y-31200000I-100000J0D01*
G01*
X60875000Y-31200000D01*
G75*
G02*
X60775000Y-31100000I0J100000D01*
G01*
X60775000Y-30900000D01*
G75*
G02*
X60875000Y-30800000I100000J0D01*
G01*
X61310000Y-30800000D01*
G75*
G02*
X61410000Y-30900000I0J-100000D01*
G01*
G37*
%TD.AperFunction*%
%TD*%
%TO.P,P4,2*%
%TO.N,/GPIO4*%
%TA.AperFunction,SMDPad,CuDef*%
G36*
G01*
X63590000Y-31100000D02*
X63590000Y-30900000D01*
G75*
G02*
X63690000Y-30800000I100000J0D01*
G01*
X64125000Y-30800000D01*
G75*
G02*
X64225000Y-30900000I0J-100000D01*
G01*
X64225000Y-31100000D01*
G75*
G02*
X64125000Y-31200000I-100000J0D01*
G01*
X63690000Y-31200000D01*
G75*
G02*
X63590000Y-31100000I0J100000D01*
G01*
G37*
%TD.AperFunction*%
%TO.P,P4,1*%
%TO.N,Net-(J7-Pad5)*%
%TA.AperFunction,SMDPad,CuDef*%
G36*
G01*
X62775000Y-31100000D02*
X62775000Y-30900000D01*
G75*
G02*
X62875000Y-30800000I100000J0D01*
G01*
X63310000Y-30800000D01*
G75*
G02*
X63410000Y-30900000I0J-100000D01*
G01*
X63410000Y-31100000D01*
G75*
G02*
X63310000Y-31200000I-100000J0D01*
G01*
X62875000Y-31200000D01*
G75*
G02*
X62775000Y-31100000I0J100000D01*
G01*
G37*
%TD.AperFunction*%
%TD*%
%TO.P,R1,2*%
%TO.N,Net-(C2-Pad2)*%
%TA.AperFunction,SMDPad,CuDef*%
G36*
G01*
X62900000Y-29450001D02*
X62900000Y-28549999D01*
G75*
G02*
X63149999Y-28300000I249999J0D01*
G01*
X63850001Y-28300000D01*
G75*
G02*
X64100000Y-28549999I0J-249999D01*
G01*
X64100000Y-29450001D01*
G75*
G02*
X63850001Y-29700000I-249999J0D01*
G01*
X63149999Y-29700000D01*
G75*
G02*
X62900000Y-29450001I0J249999D01*
G01*
G37*
%TD.AperFunction*%
%TO.P,R1,1*%
%TO.N,Net-(R1-Pad1)*%
%TA.AperFunction,SMDPad,CuDef*%
G36*
G01*
X60900000Y-29450001D02*
X60900000Y-28549999D01*
G75*
G02*
X61149999Y-28300000I249999J0D01*
G01*
X61850001Y-28300000D01*
G75*
G02*
X62100000Y-28549999I0J-249999D01*
G01*
X62100000Y-29450001D01*
G75*
G02*
X61850001Y-29700000I-249999J0D01*
G01*
X61149999Y-29700000D01*
G75*
G02*
X60900000Y-29450001I0J249999D01*
G01*
G37*
%TD.AperFunction*%
%TD*%
%TO.P,R5,1*%
%TO.N,Net-(J7-Pad1)*%
%TA.AperFunction,SMDPad,CuDef*%
G36*
G01*
X64100000Y-37049999D02*
X64100000Y-37950001D01*
G75*
G02*
X63850001Y-38200000I-249999J0D01*
G01*
X63149999Y-38200000D01*
G75*
G02*
X62900000Y-37950001I0J249999D01*
G01*
X62900000Y-37049999D01*
G75*
G02*
X63149999Y-36800000I249999J0D01*
G01*
X63850001Y-36800000D01*
G75*
G02*
X64100000Y-37049999I0J-249999D01*
G01*
G37*
%TD.AperFunction*%
%TO.P,R5,2*%
%TO.N,Net-(J7-Pad5)*%
%TA.AperFunction,SMDPad,CuDef*%
G36*
G01*
X62100000Y-37049999D02*
X62100000Y-37950001D01*
G75*
G02*
X61850001Y-38200000I-249999J0D01*
G01*
X61149999Y-38200000D01*
G75*
G02*
X60900000Y-37950001I0J249999D01*
G01*
X60900000Y-37049999D01*
G75*
G02*
X61149999Y-36800000I249999J0D01*
G01*
X61850001Y-36800000D01*
G75*
G02*
X62100000Y-37049999I0J-249999D01*
G01*
G37*
%TD.AperFunction*%
%TD*%
D16*
%TO.P,SW1,1*%
%TO.N,Net-(SW1-Pad1)*%
X61100000Y-41000000D03*
%TO.P,SW1,2*%
%TO.N,Net-(C2-Pad2)*%
X68900000Y-41000000D03*
%TD*%
D11*
%TO.P,U1,1*%
%TO.N,Net-(C2-Pad2)*%
X66800000Y-26050000D03*
%TO.P,U1,2*%
%TO.N,+3V3*%
X66800000Y-27950000D03*
%TO.P,U1,3*%
%TO.N,Net-(J5-Pad1)*%
X69200000Y-27000000D03*
%TD*%
D17*
%TO.P,U2,1*%
%TO.N,Net-(U2-Pad1)*%
X43500000Y-41600000D03*
%TO.P,U2,2*%
%TO.N,Net-(U2-Pad2)*%
X45500000Y-41600000D03*
%TO.P,U2,3*%
%TO.N,+3V3*%
X47500000Y-41600000D03*
%TO.P,U2,4*%
%TO.N,Net-(U2-Pad1)*%
X49500000Y-41600000D03*
%TO.P,U2,5*%
%TO.N,Net-(J7-Pad1)*%
X51500000Y-41600000D03*
%TO.P,U2,6*%
%TO.N,Net-(U2-Pad6)*%
X53500000Y-41600000D03*
%TO.P,U2,7*%
%TO.N,Net-(SW1-Pad1)*%
X55500000Y-41600000D03*
%TO.P,U2,8*%
%TO.N,+3V3*%
X57500000Y-41600000D03*
D18*
%TO.P,U2,9*%
%TO.N,Net-(U2-Pad9)*%
X59000000Y-39000000D03*
%TO.P,U2,10*%
%TO.N,Net-(U2-Pad10)*%
X59000000Y-37000000D03*
%TO.P,U2,11*%
%TO.N,Net-(U2-Pad11)*%
X59000000Y-35000000D03*
%TO.P,U2,12*%
%TO.N,Net-(U2-Pad12)*%
X59000000Y-33000000D03*
%TO.P,U2,13*%
%TO.N,Net-(U2-Pad13)*%
X59000000Y-31000000D03*
%TO.P,U2,14*%
%TO.N,Net-(U2-Pad14)*%
X59000000Y-29000000D03*
D17*
%TO.P,U2,15*%
%TO.N,Net-(C2-Pad2)*%
X57500000Y-26400000D03*
%TO.P,U2,16*%
%TO.N,Net-(R1-Pad1)*%
X55500000Y-26400000D03*
%TO.P,U2,17*%
%TO.N,Net-(U2-Pad17)*%
X53500000Y-26400000D03*
%TO.P,U2,18*%
%TO.N,Net-(U2-Pad18)*%
X51500000Y-26400000D03*
%TO.P,U2,19*%
%TO.N,/GPIO4*%
X49500000Y-26400000D03*
%TO.P,U2,20*%
%TO.N,Net-(J7-Pad2)*%
X47500000Y-26400000D03*
%TO.P,U2,21*%
%TO.N,/GPIO3*%
X45500000Y-26400000D03*
%TO.P,U2,22*%
%TO.N,Net-(U2-Pad22)*%
X43500000Y-26400000D03*
%TD*%
D19*
%TO.N,+3V3*%
X65545200Y-27950000D03*
X57289600Y-38993500D03*
X48478500Y-39936000D03*
X108545200Y-27950000D03*
X91478500Y-39936000D03*
X100289600Y-38993500D03*
X65545200Y-47950000D03*
X48478500Y-59936000D03*
X57289600Y-58993500D03*
X108545200Y-47950000D03*
X91478500Y-59936000D03*
X100289600Y-58993500D03*
X65545200Y-67950000D03*
X108545200Y-67950000D03*
X91478500Y-79936000D03*
X57289600Y-78993500D03*
X48478500Y-79936000D03*
X100289600Y-78993500D03*
X100289600Y-98993500D03*
X65545200Y-87950000D03*
X91478500Y-99936000D03*
X108545200Y-87950000D03*
X57289600Y-98993500D03*
X48478500Y-99936000D03*
X100289600Y-118993500D03*
X65545200Y-107950000D03*
X91478500Y-119936000D03*
X48478500Y-119936000D03*
X57289600Y-118993500D03*
X108545200Y-107950000D03*
%TO.N,Net-(C2-Pad2)*%
X59620500Y-42307500D03*
X102620500Y-42307500D03*
X59620500Y-62307500D03*
X102620500Y-62307500D03*
X102620500Y-82307500D03*
X59620500Y-82307500D03*
X102620500Y-102307500D03*
X59620500Y-102307500D03*
X102620500Y-122307500D03*
X59620500Y-122307500D03*
%TO.N,Net-(J7-Pad2)*%
X46835400Y-28261900D03*
X89835400Y-28261900D03*
X46835400Y-48261900D03*
X89835400Y-48261900D03*
X46835400Y-68261900D03*
X89835400Y-68261900D03*
X89835400Y-88261900D03*
X46835400Y-88261900D03*
X46835400Y-108261900D03*
X89835400Y-108261900D03*
%TO.N,Net-(J7-Pad1)*%
X45663800Y-37497900D03*
X88663800Y-37497900D03*
X45663800Y-57497900D03*
X88663800Y-57497900D03*
X45663800Y-77497900D03*
X88663800Y-77497900D03*
X88663800Y-97497900D03*
X45663800Y-97497900D03*
X88663800Y-117497900D03*
X45663800Y-117497900D03*
%TO.N,Net-(SW1-Pad1)*%
X58630500Y-40855200D03*
X56151700Y-39749600D03*
X101630500Y-40855200D03*
X99151700Y-39749600D03*
X58630500Y-60855200D03*
X56151700Y-59749600D03*
X101630500Y-60855200D03*
X99151700Y-59749600D03*
X56151700Y-79749600D03*
X101630500Y-80855200D03*
X58630500Y-80855200D03*
X99151700Y-79749600D03*
X56151700Y-99749600D03*
X101630500Y-100855200D03*
X99151700Y-99749600D03*
X58630500Y-100855200D03*
X56151700Y-119749600D03*
X101630500Y-120855200D03*
X99151700Y-119749600D03*
X58630500Y-120855200D03*
%TD*%
D20*
%TO.N,+3V3*%
X65545200Y-27950000D02*
X65545200Y-27482700D01*
X65545200Y-27482700D02*
X64562500Y-26500000D01*
X65824700Y-27950000D02*
X65545200Y-27950000D01*
X66800000Y-27950000D02*
X65824700Y-27950000D01*
X57289600Y-38993500D02*
X57500000Y-39203900D01*
X57500000Y-39203900D02*
X57500000Y-40024700D01*
X57500000Y-41600000D02*
X57500000Y-40024700D01*
X47500000Y-41600000D02*
X47500000Y-40024700D01*
X48478500Y-39936000D02*
X48389800Y-40024700D01*
X48389800Y-40024700D02*
X47500000Y-40024700D01*
X108545200Y-27482700D02*
X107562500Y-26500000D01*
X108824700Y-27950000D02*
X108545200Y-27950000D01*
X108545200Y-27950000D02*
X108545200Y-27482700D01*
X100289600Y-38993500D02*
X100500000Y-39203900D01*
X100500000Y-41600000D02*
X100500000Y-40024700D01*
X100500000Y-39203900D02*
X100500000Y-40024700D01*
X90500000Y-41600000D02*
X90500000Y-40024700D01*
X91478500Y-39936000D02*
X91389800Y-40024700D01*
X109800000Y-27950000D02*
X108824700Y-27950000D01*
X91389800Y-40024700D02*
X90500000Y-40024700D01*
X100500000Y-59203900D02*
X100500000Y-60024700D01*
X90500000Y-61600000D02*
X90500000Y-60024700D01*
X91478500Y-59936000D02*
X91389800Y-60024700D01*
X100289600Y-58993500D02*
X100500000Y-59203900D01*
X100500000Y-61600000D02*
X100500000Y-60024700D01*
X108824700Y-47950000D02*
X108545200Y-47950000D01*
X108545200Y-47482700D02*
X107562500Y-46500000D01*
X108545200Y-47950000D02*
X108545200Y-47482700D01*
X65545200Y-47482700D02*
X64562500Y-46500000D01*
X65824700Y-47950000D02*
X65545200Y-47950000D01*
X65545200Y-47950000D02*
X65545200Y-47482700D01*
X57289600Y-58993500D02*
X57500000Y-59203900D01*
X57500000Y-61600000D02*
X57500000Y-60024700D01*
X57500000Y-59203900D02*
X57500000Y-60024700D01*
X47500000Y-61600000D02*
X47500000Y-60024700D01*
X48478500Y-59936000D02*
X48389800Y-60024700D01*
X66800000Y-47950000D02*
X65824700Y-47950000D01*
X48389800Y-60024700D02*
X47500000Y-60024700D01*
X109800000Y-47950000D02*
X108824700Y-47950000D01*
X91389800Y-60024700D02*
X90500000Y-60024700D01*
X57289600Y-78993500D02*
X57500000Y-79203900D01*
X65824700Y-67950000D02*
X65545200Y-67950000D01*
X57500000Y-81600000D02*
X57500000Y-80024700D01*
X100289600Y-78993500D02*
X100500000Y-79203900D01*
X100500000Y-81600000D02*
X100500000Y-80024700D01*
X108824700Y-67950000D02*
X108545200Y-67950000D01*
X108545200Y-67482700D02*
X107562500Y-66500000D01*
X108545200Y-67950000D02*
X108545200Y-67482700D01*
X100500000Y-79203900D02*
X100500000Y-80024700D01*
X65545200Y-67482700D02*
X64562500Y-66500000D01*
X65545200Y-67950000D02*
X65545200Y-67482700D01*
X91478500Y-79936000D02*
X91389800Y-80024700D01*
X90500000Y-81600000D02*
X90500000Y-80024700D01*
X91389800Y-80024700D02*
X90500000Y-80024700D01*
X109800000Y-67950000D02*
X108824700Y-67950000D01*
X66800000Y-67950000D02*
X65824700Y-67950000D01*
X48389800Y-80024700D02*
X47500000Y-80024700D01*
X57500000Y-79203900D02*
X57500000Y-80024700D01*
X48478500Y-79936000D02*
X48389800Y-80024700D01*
X47500000Y-81600000D02*
X47500000Y-80024700D01*
X57500000Y-101600000D02*
X57500000Y-100024700D01*
X57289600Y-98993500D02*
X57500000Y-99203900D01*
X65824700Y-87950000D02*
X65545200Y-87950000D01*
X91389800Y-100024700D02*
X90500000Y-100024700D01*
X66800000Y-87950000D02*
X65824700Y-87950000D01*
X48389800Y-100024700D02*
X47500000Y-100024700D01*
X109800000Y-87950000D02*
X108824700Y-87950000D01*
X100500000Y-99203900D02*
X100500000Y-100024700D01*
X108545200Y-87482700D02*
X107562500Y-86500000D01*
X91478500Y-99936000D02*
X91389800Y-100024700D01*
X100289600Y-98993500D02*
X100500000Y-99203900D01*
X100500000Y-101600000D02*
X100500000Y-100024700D01*
X108824700Y-87950000D02*
X108545200Y-87950000D01*
X108545200Y-87950000D02*
X108545200Y-87482700D01*
X65545200Y-87482700D02*
X64562500Y-86500000D01*
X65545200Y-87950000D02*
X65545200Y-87482700D01*
X90500000Y-101600000D02*
X90500000Y-100024700D01*
X47500000Y-101600000D02*
X47500000Y-100024700D01*
X48478500Y-99936000D02*
X48389800Y-100024700D01*
X57500000Y-99203900D02*
X57500000Y-100024700D01*
X100289600Y-118993500D02*
X100500000Y-119203900D01*
X91478500Y-119936000D02*
X91389800Y-120024700D01*
X100500000Y-121600000D02*
X100500000Y-120024700D01*
X108545200Y-107482700D02*
X107562500Y-106500000D01*
X100500000Y-119203900D02*
X100500000Y-120024700D01*
X108824700Y-107950000D02*
X108545200Y-107950000D01*
X57500000Y-119203900D02*
X57500000Y-120024700D01*
X65545200Y-107482700D02*
X64562500Y-106500000D01*
X47500000Y-121600000D02*
X47500000Y-120024700D01*
X65545200Y-107950000D02*
X65545200Y-107482700D01*
X48478500Y-119936000D02*
X48389800Y-120024700D01*
X108545200Y-107950000D02*
X108545200Y-107482700D01*
X90500000Y-121600000D02*
X90500000Y-120024700D01*
X91389800Y-120024700D02*
X90500000Y-120024700D01*
X65824700Y-107950000D02*
X65545200Y-107950000D01*
X57500000Y-121600000D02*
X57500000Y-120024700D01*
X57289600Y-118993500D02*
X57500000Y-119203900D01*
X109800000Y-107950000D02*
X108824700Y-107950000D01*
X66800000Y-107950000D02*
X65824700Y-107950000D01*
X48389800Y-120024700D02*
X47500000Y-120024700D01*
%TO.N,Net-(C2-Pad2)*%
X62024600Y-27087000D02*
X63500000Y-28562500D01*
X63500000Y-28562500D02*
X63500000Y-29000000D01*
X61437500Y-26500000D02*
X62024600Y-27087000D01*
X66800000Y-25324700D02*
X66074700Y-25324700D01*
X66074700Y-25324700D02*
X65984800Y-25234800D01*
X65984800Y-25234800D02*
X63876800Y-25234800D01*
X63876800Y-25234800D02*
X62024600Y-27087000D01*
X66800000Y-26050000D02*
X66800000Y-25324700D01*
X63500000Y-29000000D02*
X64575300Y-30075300D01*
X64575300Y-30075300D02*
X64575300Y-32700000D01*
X62850000Y-32700000D02*
X64575300Y-32700000D01*
X57500000Y-26400000D02*
X61337500Y-26400000D01*
X61337500Y-26400000D02*
X61437500Y-26500000D01*
X65450000Y-38625200D02*
X61767700Y-42307500D01*
X61767700Y-42307500D02*
X59620500Y-42307500D01*
X62850000Y-32700000D02*
X61124600Y-34425400D01*
X61124600Y-34425400D02*
X61124600Y-35785200D01*
X61124600Y-35785200D02*
X61813000Y-36473600D01*
X61813000Y-36473600D02*
X64104800Y-36473600D01*
X64104800Y-36473600D02*
X65450000Y-37818800D01*
X65450000Y-37818800D02*
X65450000Y-38625200D01*
X67824700Y-41000000D02*
X65450000Y-38625200D01*
X68900000Y-41000000D02*
X67824700Y-41000000D01*
X106500000Y-29000000D02*
X107575300Y-30075300D01*
X109800000Y-25324700D02*
X109074700Y-25324700D01*
X105024600Y-27087000D02*
X106500000Y-28562500D01*
X104767700Y-42307500D02*
X102620500Y-42307500D01*
X104437500Y-26500000D02*
X105024600Y-27087000D01*
X100500000Y-26400000D02*
X104337500Y-26400000D01*
X104337500Y-26400000D02*
X104437500Y-26500000D01*
X104124600Y-34425400D02*
X104124600Y-35785200D01*
X111900000Y-41000000D02*
X110824700Y-41000000D01*
X108984800Y-25234800D02*
X106876800Y-25234800D01*
X110824700Y-41000000D02*
X108450000Y-38625200D01*
X105850000Y-32700000D02*
X104124600Y-34425400D01*
X109074700Y-25324700D02*
X108984800Y-25234800D01*
X108450000Y-38625200D02*
X104767700Y-42307500D01*
X105850000Y-32700000D02*
X107575300Y-32700000D01*
X106876800Y-25234800D02*
X105024600Y-27087000D01*
X107575300Y-30075300D02*
X107575300Y-32700000D01*
X106500000Y-28562500D02*
X106500000Y-29000000D01*
X107104800Y-36473600D02*
X108450000Y-37818800D01*
X108450000Y-37818800D02*
X108450000Y-38625200D01*
X104813000Y-36473600D02*
X107104800Y-36473600D01*
X104124600Y-35785200D02*
X104813000Y-36473600D01*
X109800000Y-26050000D02*
X109800000Y-25324700D01*
X108450000Y-57818800D02*
X108450000Y-58625200D01*
X104813000Y-56473600D02*
X107104800Y-56473600D01*
X109800000Y-46050000D02*
X109800000Y-45324700D01*
X104124600Y-55785200D02*
X104813000Y-56473600D01*
X111900000Y-61000000D02*
X110824700Y-61000000D01*
X100500000Y-46400000D02*
X104337500Y-46400000D01*
X108984800Y-45234800D02*
X106876800Y-45234800D01*
X104437500Y-46500000D02*
X105024600Y-47087000D01*
X108450000Y-58625200D02*
X104767700Y-62307500D01*
X104767700Y-62307500D02*
X102620500Y-62307500D01*
X104337500Y-46400000D02*
X104437500Y-46500000D01*
X104124600Y-54425400D02*
X104124600Y-55785200D01*
X110824700Y-61000000D02*
X108450000Y-58625200D01*
X105850000Y-52700000D02*
X104124600Y-54425400D01*
X109074700Y-45324700D02*
X108984800Y-45234800D01*
X105024600Y-47087000D02*
X106500000Y-48562500D01*
X106500000Y-49000000D02*
X107575300Y-50075300D01*
X109800000Y-45324700D02*
X109074700Y-45324700D01*
X63500000Y-49000000D02*
X64575300Y-50075300D01*
X66800000Y-45324700D02*
X66074700Y-45324700D01*
X62024600Y-47087000D02*
X63500000Y-48562500D01*
X61767700Y-62307500D02*
X59620500Y-62307500D01*
X61437500Y-46500000D02*
X62024600Y-47087000D01*
X57500000Y-46400000D02*
X61337500Y-46400000D01*
X61337500Y-46400000D02*
X61437500Y-46500000D01*
X61124600Y-54425400D02*
X61124600Y-55785200D01*
X68900000Y-61000000D02*
X67824700Y-61000000D01*
X65984800Y-45234800D02*
X63876800Y-45234800D01*
X67824700Y-61000000D02*
X65450000Y-58625200D01*
X62850000Y-52700000D02*
X61124600Y-54425400D01*
X66074700Y-45324700D02*
X65984800Y-45234800D01*
X65450000Y-58625200D02*
X61767700Y-62307500D01*
X62850000Y-52700000D02*
X64575300Y-52700000D01*
X63876800Y-45234800D02*
X62024600Y-47087000D01*
X64575300Y-50075300D02*
X64575300Y-52700000D01*
X63500000Y-48562500D02*
X63500000Y-49000000D01*
X64104800Y-56473600D02*
X65450000Y-57818800D01*
X65450000Y-57818800D02*
X65450000Y-58625200D01*
X61813000Y-56473600D02*
X64104800Y-56473600D01*
X61124600Y-55785200D02*
X61813000Y-56473600D01*
X66800000Y-46050000D02*
X66800000Y-45324700D01*
X107104800Y-56473600D02*
X108450000Y-57818800D01*
X106500000Y-48562500D02*
X106500000Y-49000000D01*
X107575300Y-50075300D02*
X107575300Y-52700000D01*
X106876800Y-45234800D02*
X105024600Y-47087000D01*
X105850000Y-52700000D02*
X107575300Y-52700000D01*
X105850000Y-72700000D02*
X104124600Y-74425400D01*
X110824700Y-81000000D02*
X108450000Y-78625200D01*
X104437500Y-66500000D02*
X105024600Y-67087000D01*
X106500000Y-69000000D02*
X107575300Y-70075300D01*
X63500000Y-69000000D02*
X64575300Y-70075300D01*
X104124600Y-74425400D02*
X104124600Y-75785200D01*
X104337500Y-66400000D02*
X104437500Y-66500000D01*
X108984800Y-65234800D02*
X106876800Y-65234800D01*
X104767700Y-82307500D02*
X102620500Y-82307500D01*
X105024600Y-67087000D02*
X106500000Y-68562500D01*
X104124600Y-75785200D02*
X104813000Y-76473600D01*
X109800000Y-65324700D02*
X109074700Y-65324700D01*
X100500000Y-66400000D02*
X104337500Y-66400000D01*
X109074700Y-65324700D02*
X108984800Y-65234800D01*
X111900000Y-81000000D02*
X110824700Y-81000000D01*
X108450000Y-78625200D02*
X104767700Y-82307500D01*
X105850000Y-72700000D02*
X107575300Y-72700000D01*
X107575300Y-70075300D02*
X107575300Y-72700000D01*
X106876800Y-65234800D02*
X105024600Y-67087000D01*
X106500000Y-68562500D02*
X106500000Y-69000000D01*
X107104800Y-76473600D02*
X108450000Y-77818800D01*
X109800000Y-66050000D02*
X109800000Y-65324700D01*
X108450000Y-77818800D02*
X108450000Y-78625200D01*
X104813000Y-76473600D02*
X107104800Y-76473600D01*
X65450000Y-78625200D02*
X61767700Y-82307500D01*
X64104800Y-76473600D02*
X65450000Y-77818800D01*
X65450000Y-77818800D02*
X65450000Y-78625200D01*
X66800000Y-66050000D02*
X66800000Y-65324700D01*
X63500000Y-68562500D02*
X63500000Y-69000000D01*
X63876800Y-65234800D02*
X62024600Y-67087000D01*
X62850000Y-72700000D02*
X64575300Y-72700000D01*
X61813000Y-76473600D02*
X64104800Y-76473600D01*
X61124600Y-75785200D02*
X61813000Y-76473600D01*
X64575300Y-70075300D02*
X64575300Y-72700000D01*
X68900000Y-81000000D02*
X67824700Y-81000000D01*
X65984800Y-65234800D02*
X63876800Y-65234800D01*
X57500000Y-66400000D02*
X61337500Y-66400000D01*
X61337500Y-66400000D02*
X61437500Y-66500000D01*
X61767700Y-82307500D02*
X59620500Y-82307500D01*
X62024600Y-67087000D02*
X63500000Y-68562500D01*
X66074700Y-65324700D02*
X65984800Y-65234800D01*
X61437500Y-66500000D02*
X62024600Y-67087000D01*
X66800000Y-65324700D02*
X66074700Y-65324700D01*
X67824700Y-81000000D02*
X65450000Y-78625200D01*
X62850000Y-72700000D02*
X61124600Y-74425400D01*
X61124600Y-74425400D02*
X61124600Y-75785200D01*
X104437500Y-86500000D02*
X105024600Y-87087000D01*
X106500000Y-89000000D02*
X107575300Y-90075300D01*
X104337500Y-86400000D02*
X104437500Y-86500000D01*
X63500000Y-89000000D02*
X64575300Y-90075300D01*
X105850000Y-92700000D02*
X104124600Y-94425400D01*
X104124600Y-94425400D02*
X104124600Y-95785200D01*
X108984800Y-85234800D02*
X106876800Y-85234800D01*
X110824700Y-101000000D02*
X108450000Y-98625200D01*
X105850000Y-92700000D02*
X107575300Y-92700000D01*
X107575300Y-90075300D02*
X107575300Y-92700000D01*
X106876800Y-85234800D02*
X105024600Y-87087000D01*
X63876800Y-85234800D02*
X62024600Y-87087000D01*
X62850000Y-92700000D02*
X64575300Y-92700000D01*
X61124600Y-95785200D02*
X61813000Y-96473600D01*
X107104800Y-96473600D02*
X108450000Y-97818800D01*
X63500000Y-88562500D02*
X63500000Y-89000000D01*
X104813000Y-96473600D02*
X107104800Y-96473600D01*
X109800000Y-86050000D02*
X109800000Y-85324700D01*
X108450000Y-97818800D02*
X108450000Y-98625200D01*
X66800000Y-86050000D02*
X66800000Y-85324700D01*
X61813000Y-96473600D02*
X64104800Y-96473600D01*
X65450000Y-98625200D02*
X61767700Y-102307500D01*
X64104800Y-96473600D02*
X65450000Y-97818800D01*
X106500000Y-88562500D02*
X106500000Y-89000000D01*
X65450000Y-97818800D02*
X65450000Y-98625200D01*
X105024600Y-87087000D02*
X106500000Y-88562500D01*
X108450000Y-98625200D02*
X104767700Y-102307500D01*
X109800000Y-85324700D02*
X109074700Y-85324700D01*
X104124600Y-95785200D02*
X104813000Y-96473600D01*
X111900000Y-101000000D02*
X110824700Y-101000000D01*
X109074700Y-85324700D02*
X108984800Y-85234800D01*
X100500000Y-86400000D02*
X104337500Y-86400000D01*
X104767700Y-102307500D02*
X102620500Y-102307500D01*
X62850000Y-92700000D02*
X61124600Y-94425400D01*
X61124600Y-94425400D02*
X61124600Y-95785200D01*
X66800000Y-85324700D02*
X66074700Y-85324700D01*
X66074700Y-85324700D02*
X65984800Y-85234800D01*
X67824700Y-101000000D02*
X65450000Y-98625200D01*
X61437500Y-86500000D02*
X62024600Y-87087000D01*
X65984800Y-85234800D02*
X63876800Y-85234800D01*
X68900000Y-101000000D02*
X67824700Y-101000000D01*
X64575300Y-90075300D02*
X64575300Y-92700000D01*
X57500000Y-86400000D02*
X61337500Y-86400000D01*
X61337500Y-86400000D02*
X61437500Y-86500000D01*
X61767700Y-102307500D02*
X59620500Y-102307500D01*
X62024600Y-87087000D02*
X63500000Y-88562500D01*
X66800000Y-106050000D02*
X66800000Y-105324700D01*
X108450000Y-117818800D02*
X108450000Y-118625200D01*
X106500000Y-108562500D02*
X106500000Y-109000000D01*
X108450000Y-118625200D02*
X104767700Y-122307500D01*
X64104800Y-116473600D02*
X65450000Y-117818800D01*
X65450000Y-117818800D02*
X65450000Y-118625200D01*
X61813000Y-116473600D02*
X64104800Y-116473600D01*
X105024600Y-107087000D02*
X106500000Y-108562500D01*
X65450000Y-118625200D02*
X61767700Y-122307500D01*
X62024600Y-107087000D02*
X63500000Y-108562500D01*
X61124600Y-114425400D02*
X61124600Y-115785200D01*
X111900000Y-121000000D02*
X110824700Y-121000000D01*
X65984800Y-105234800D02*
X63876800Y-105234800D01*
X61337500Y-106400000D02*
X61437500Y-106500000D01*
X104767700Y-122307500D02*
X102620500Y-122307500D01*
X64575300Y-110075300D02*
X64575300Y-112700000D01*
X61767700Y-122307500D02*
X59620500Y-122307500D01*
X100500000Y-106400000D02*
X104337500Y-106400000D01*
X68900000Y-121000000D02*
X67824700Y-121000000D01*
X104124600Y-115785200D02*
X104813000Y-116473600D01*
X62850000Y-112700000D02*
X61124600Y-114425400D01*
X67824700Y-121000000D02*
X65450000Y-118625200D01*
X109800000Y-105324700D02*
X109074700Y-105324700D01*
X109074700Y-105324700D02*
X108984800Y-105234800D01*
X66074700Y-105324700D02*
X65984800Y-105234800D01*
X61437500Y-106500000D02*
X62024600Y-107087000D01*
X57500000Y-106400000D02*
X61337500Y-106400000D01*
X66800000Y-105324700D02*
X66074700Y-105324700D01*
X104437500Y-106500000D02*
X105024600Y-107087000D01*
X105850000Y-112700000D02*
X107575300Y-112700000D01*
X107575300Y-110075300D02*
X107575300Y-112700000D01*
X63500000Y-109000000D02*
X64575300Y-110075300D01*
X104124600Y-114425400D02*
X104124600Y-115785200D01*
X108984800Y-105234800D02*
X106876800Y-105234800D01*
X104337500Y-106400000D02*
X104437500Y-106500000D01*
X110824700Y-121000000D02*
X108450000Y-118625200D01*
X106500000Y-109000000D02*
X107575300Y-110075300D01*
X105850000Y-112700000D02*
X104124600Y-114425400D01*
X63876800Y-105234800D02*
X62024600Y-107087000D01*
X104813000Y-116473600D02*
X107104800Y-116473600D01*
X109800000Y-106050000D02*
X109800000Y-105324700D01*
X62850000Y-112700000D02*
X64575300Y-112700000D01*
X61124600Y-115785200D02*
X61813000Y-116473600D01*
X107104800Y-116473600D02*
X108450000Y-117818800D01*
X106876800Y-105234800D02*
X105024600Y-107087000D01*
X63500000Y-108562500D02*
X63500000Y-109000000D01*
%TO.N,/GPIO3*%
X45500000Y-27975300D02*
X49350100Y-31825400D01*
X49350100Y-31825400D02*
X60267100Y-31825400D01*
X60267100Y-31825400D02*
X61092500Y-31000000D01*
X45500000Y-26400000D02*
X45500000Y-27975300D01*
X92350100Y-31825400D02*
X103267100Y-31825400D01*
X88500000Y-26400000D02*
X88500000Y-27975300D01*
X103267100Y-31825400D02*
X104092500Y-31000000D01*
X88500000Y-27975300D02*
X92350100Y-31825400D01*
X88500000Y-47975300D02*
X92350100Y-51825400D01*
X103267100Y-51825400D02*
X104092500Y-51000000D01*
X92350100Y-51825400D02*
X103267100Y-51825400D01*
X88500000Y-46400000D02*
X88500000Y-47975300D01*
X49350100Y-51825400D02*
X60267100Y-51825400D01*
X45500000Y-46400000D02*
X45500000Y-47975300D01*
X60267100Y-51825400D02*
X61092500Y-51000000D01*
X45500000Y-47975300D02*
X49350100Y-51825400D01*
X103267100Y-71825400D02*
X104092500Y-71000000D01*
X88500000Y-66400000D02*
X88500000Y-67975300D01*
X88500000Y-67975300D02*
X92350100Y-71825400D01*
X92350100Y-71825400D02*
X103267100Y-71825400D01*
X45500000Y-67975300D02*
X49350100Y-71825400D01*
X60267100Y-71825400D02*
X61092500Y-71000000D01*
X45500000Y-66400000D02*
X45500000Y-67975300D01*
X49350100Y-71825400D02*
X60267100Y-71825400D01*
X88500000Y-86400000D02*
X88500000Y-87975300D01*
X103267100Y-91825400D02*
X104092500Y-91000000D01*
X45500000Y-87975300D02*
X49350100Y-91825400D01*
X92350100Y-91825400D02*
X103267100Y-91825400D01*
X88500000Y-87975300D02*
X92350100Y-91825400D01*
X60267100Y-91825400D02*
X61092500Y-91000000D01*
X45500000Y-86400000D02*
X45500000Y-87975300D01*
X49350100Y-91825400D02*
X60267100Y-91825400D01*
X88500000Y-107975300D02*
X92350100Y-111825400D01*
X92350100Y-111825400D02*
X103267100Y-111825400D01*
X49350100Y-111825400D02*
X60267100Y-111825400D01*
X60267100Y-111825400D02*
X61092500Y-111000000D01*
X45500000Y-106400000D02*
X45500000Y-107975300D01*
X88500000Y-106400000D02*
X88500000Y-107975300D01*
X103267100Y-111825400D02*
X104092500Y-111000000D01*
X45500000Y-107975300D02*
X49350100Y-111825400D01*
%TO.N,Net-(J5-Pad1)*%
X64575300Y-35300000D02*
X67118500Y-32756800D01*
X67118500Y-32756800D02*
X67118500Y-29806800D01*
X67118500Y-29806800D02*
X69200000Y-27725300D01*
X62850000Y-35300000D02*
X64575300Y-35300000D01*
X69200000Y-27000000D02*
X69200000Y-27725300D01*
X107575300Y-35300000D02*
X110118500Y-32756800D01*
X110118500Y-32756800D02*
X110118500Y-29806800D01*
X110118500Y-29806800D02*
X112200000Y-27725300D01*
X105850000Y-35300000D02*
X107575300Y-35300000D01*
X112200000Y-27000000D02*
X112200000Y-27725300D01*
X110118500Y-52756800D02*
X110118500Y-49806800D01*
X107575300Y-55300000D02*
X110118500Y-52756800D01*
X64575300Y-55300000D02*
X67118500Y-52756800D01*
X67118500Y-52756800D02*
X67118500Y-49806800D01*
X67118500Y-49806800D02*
X69200000Y-47725300D01*
X62850000Y-55300000D02*
X64575300Y-55300000D01*
X69200000Y-47000000D02*
X69200000Y-47725300D01*
X110118500Y-49806800D02*
X112200000Y-47725300D01*
X112200000Y-47000000D02*
X112200000Y-47725300D01*
X105850000Y-55300000D02*
X107575300Y-55300000D01*
X107575300Y-75300000D02*
X110118500Y-72756800D01*
X110118500Y-72756800D02*
X110118500Y-69806800D01*
X112200000Y-67000000D02*
X112200000Y-67725300D01*
X110118500Y-69806800D02*
X112200000Y-67725300D01*
X105850000Y-75300000D02*
X107575300Y-75300000D01*
X67118500Y-69806800D02*
X69200000Y-67725300D01*
X69200000Y-67000000D02*
X69200000Y-67725300D01*
X62850000Y-75300000D02*
X64575300Y-75300000D01*
X64575300Y-75300000D02*
X67118500Y-72756800D01*
X67118500Y-72756800D02*
X67118500Y-69806800D01*
X107575300Y-95300000D02*
X110118500Y-92756800D01*
X112200000Y-87000000D02*
X112200000Y-87725300D01*
X110118500Y-89806800D02*
X112200000Y-87725300D01*
X105850000Y-95300000D02*
X107575300Y-95300000D01*
X67118500Y-89806800D02*
X69200000Y-87725300D01*
X69200000Y-87000000D02*
X69200000Y-87725300D01*
X110118500Y-92756800D02*
X110118500Y-89806800D01*
X67118500Y-92756800D02*
X67118500Y-89806800D01*
X64575300Y-95300000D02*
X67118500Y-92756800D01*
X62850000Y-95300000D02*
X64575300Y-95300000D01*
X62850000Y-115300000D02*
X64575300Y-115300000D01*
X110118500Y-112756800D02*
X110118500Y-109806800D01*
X67118500Y-112756800D02*
X67118500Y-109806800D01*
X64575300Y-115300000D02*
X67118500Y-112756800D01*
X112200000Y-107000000D02*
X112200000Y-107725300D01*
X110118500Y-109806800D02*
X112200000Y-107725300D01*
X107575300Y-115300000D02*
X110118500Y-112756800D01*
X69200000Y-107000000D02*
X69200000Y-107725300D01*
X105850000Y-115300000D02*
X107575300Y-115300000D01*
X67118500Y-109806800D02*
X69200000Y-107725300D01*
%TO.N,Net-(J7-Pad5)*%
X60665800Y-33863100D02*
X60665800Y-36665800D01*
X60665800Y-36665800D02*
X61500000Y-37500000D01*
X61907500Y-31000000D02*
X61907500Y-31462500D01*
X61907500Y-31462500D02*
X60665800Y-32704200D01*
X60665800Y-32704200D02*
X60665800Y-33863100D01*
X60665800Y-33863100D02*
X40271300Y-33863100D01*
X40271300Y-33863100D02*
X39312900Y-32904700D01*
X39312900Y-32904700D02*
X31983200Y-32904700D01*
X31983200Y-32904700D02*
X31175300Y-33712600D01*
X31175300Y-33712600D02*
X31175300Y-34080000D01*
X30000000Y-34080000D02*
X31175300Y-34080000D01*
X63092500Y-31000000D02*
X61907500Y-31000000D01*
X104907500Y-31462500D02*
X103665800Y-32704200D01*
X103665800Y-33863100D02*
X103665800Y-36665800D01*
X103665800Y-36665800D02*
X104500000Y-37500000D01*
X104907500Y-31000000D02*
X104907500Y-31462500D01*
X103665800Y-32704200D02*
X103665800Y-33863100D01*
X106092500Y-31000000D02*
X104907500Y-31000000D01*
X103665800Y-33863100D02*
X83271300Y-33863100D01*
X74175300Y-33712600D02*
X74175300Y-34080000D01*
X83271300Y-33863100D02*
X82312900Y-32904700D01*
X82312900Y-32904700D02*
X74983200Y-32904700D01*
X74983200Y-32904700D02*
X74175300Y-33712600D01*
X73000000Y-34080000D02*
X74175300Y-34080000D01*
X103665800Y-52704200D02*
X103665800Y-53863100D01*
X104907500Y-51000000D02*
X104907500Y-51462500D01*
X103665800Y-56665800D02*
X104500000Y-57500000D01*
X104907500Y-51462500D02*
X103665800Y-52704200D01*
X61907500Y-51462500D02*
X60665800Y-52704200D01*
X60665800Y-53863100D02*
X60665800Y-56665800D01*
X60665800Y-56665800D02*
X61500000Y-57500000D01*
X61907500Y-51000000D02*
X61907500Y-51462500D01*
X60665800Y-52704200D02*
X60665800Y-53863100D01*
X63092500Y-51000000D02*
X61907500Y-51000000D01*
X60665800Y-53863100D02*
X40271300Y-53863100D01*
X31175300Y-53712600D02*
X31175300Y-54080000D01*
X40271300Y-53863100D02*
X39312900Y-52904700D01*
X39312900Y-52904700D02*
X31983200Y-52904700D01*
X31983200Y-52904700D02*
X31175300Y-53712600D01*
X30000000Y-54080000D02*
X31175300Y-54080000D01*
X103665800Y-53863100D02*
X103665800Y-56665800D01*
X82312900Y-52904700D02*
X74983200Y-52904700D01*
X103665800Y-53863100D02*
X83271300Y-53863100D01*
X106092500Y-51000000D02*
X104907500Y-51000000D01*
X83271300Y-53863100D02*
X82312900Y-52904700D01*
X74983200Y-52904700D02*
X74175300Y-53712600D01*
X73000000Y-54080000D02*
X74175300Y-54080000D01*
X74175300Y-53712600D02*
X74175300Y-54080000D01*
X61907500Y-71462500D02*
X60665800Y-72704200D01*
X103665800Y-76665800D02*
X104500000Y-77500000D01*
X104907500Y-71462500D02*
X103665800Y-72704200D01*
X40271300Y-73863100D02*
X39312900Y-72904700D01*
X31175300Y-73712600D02*
X31175300Y-74080000D01*
X31983200Y-72904700D02*
X31175300Y-73712600D01*
X60665800Y-73863100D02*
X40271300Y-73863100D01*
X30000000Y-74080000D02*
X31175300Y-74080000D01*
X63092500Y-71000000D02*
X61907500Y-71000000D01*
X39312900Y-72904700D02*
X31983200Y-72904700D01*
X74175300Y-73712600D02*
X74175300Y-74080000D01*
X106092500Y-71000000D02*
X104907500Y-71000000D01*
X73000000Y-74080000D02*
X74175300Y-74080000D01*
X103665800Y-73863100D02*
X103665800Y-76665800D01*
X83271300Y-73863100D02*
X82312900Y-72904700D01*
X74983200Y-72904700D02*
X74175300Y-73712600D01*
X82312900Y-72904700D02*
X74983200Y-72904700D01*
X103665800Y-73863100D02*
X83271300Y-73863100D01*
X104907500Y-71000000D02*
X104907500Y-71462500D01*
X103665800Y-72704200D02*
X103665800Y-73863100D01*
X60665800Y-76665800D02*
X61500000Y-77500000D01*
X60665800Y-73863100D02*
X60665800Y-76665800D01*
X60665800Y-72704200D02*
X60665800Y-73863100D01*
X61907500Y-71000000D02*
X61907500Y-71462500D01*
X61907500Y-91462500D02*
X60665800Y-92704200D01*
X30000000Y-94080000D02*
X31175300Y-94080000D01*
X74175300Y-93712600D02*
X74175300Y-94080000D01*
X106092500Y-91000000D02*
X104907500Y-91000000D01*
X63092500Y-91000000D02*
X61907500Y-91000000D01*
X39312900Y-92904700D02*
X31983200Y-92904700D01*
X73000000Y-94080000D02*
X74175300Y-94080000D01*
X83271300Y-93863100D02*
X82312900Y-92904700D01*
X60665800Y-93863100D02*
X60665800Y-96665800D01*
X60665800Y-96665800D02*
X61500000Y-97500000D01*
X103665800Y-93863100D02*
X103665800Y-96665800D01*
X104907500Y-91000000D02*
X104907500Y-91462500D01*
X103665800Y-92704200D02*
X103665800Y-93863100D01*
X82312900Y-92904700D02*
X74983200Y-92904700D01*
X74983200Y-92904700D02*
X74175300Y-93712600D01*
X103665800Y-93863100D02*
X83271300Y-93863100D01*
X31983200Y-92904700D02*
X31175300Y-93712600D01*
X60665800Y-93863100D02*
X40271300Y-93863100D01*
X31175300Y-93712600D02*
X31175300Y-94080000D01*
X103665800Y-96665800D02*
X104500000Y-97500000D01*
X104907500Y-91462500D02*
X103665800Y-92704200D01*
X40271300Y-93863100D02*
X39312900Y-92904700D01*
X61907500Y-91000000D02*
X61907500Y-91462500D01*
X60665800Y-92704200D02*
X60665800Y-93863100D01*
X74983200Y-112904700D02*
X74175300Y-113712600D01*
X103665800Y-112704200D02*
X103665800Y-113863100D01*
X82312900Y-112904700D02*
X74983200Y-112904700D01*
X31983200Y-112904700D02*
X31175300Y-113712600D01*
X31175300Y-113712600D02*
X31175300Y-114080000D01*
X103665800Y-113863100D02*
X83271300Y-113863100D01*
X60665800Y-113863100D02*
X40271300Y-113863100D01*
X104907500Y-111462500D02*
X103665800Y-112704200D01*
X103665800Y-116665800D02*
X104500000Y-117500000D01*
X40271300Y-113863100D02*
X39312900Y-112904700D01*
X61907500Y-111000000D02*
X61907500Y-111462500D01*
X60665800Y-112704200D02*
X60665800Y-113863100D01*
X61907500Y-111462500D02*
X60665800Y-112704200D01*
X74175300Y-113712600D02*
X74175300Y-114080000D01*
X30000000Y-114080000D02*
X31175300Y-114080000D01*
X73000000Y-114080000D02*
X74175300Y-114080000D01*
X63092500Y-111000000D02*
X61907500Y-111000000D01*
X60665800Y-116665800D02*
X61500000Y-117500000D01*
X39312900Y-112904700D02*
X31983200Y-112904700D01*
X106092500Y-111000000D02*
X104907500Y-111000000D01*
X103665800Y-113863100D02*
X103665800Y-116665800D01*
X104907500Y-111000000D02*
X104907500Y-111462500D01*
X83271300Y-113863100D02*
X82312900Y-112904700D01*
X60665800Y-113863100D02*
X60665800Y-116665800D01*
%TO.N,Net-(J7-Pad2)*%
X47500000Y-26400000D02*
X47500000Y-27975300D01*
X47500000Y-27975300D02*
X47122000Y-27975300D01*
X47122000Y-27975300D02*
X46835400Y-28261900D01*
X90500000Y-27975300D02*
X90122000Y-27975300D01*
X90122000Y-27975300D02*
X89835400Y-28261900D01*
X90500000Y-26400000D02*
X90500000Y-27975300D01*
X90500000Y-47975300D02*
X90122000Y-47975300D01*
X47500000Y-47975300D02*
X47122000Y-47975300D01*
X47122000Y-47975300D02*
X46835400Y-48261900D01*
X47500000Y-46400000D02*
X47500000Y-47975300D01*
X90500000Y-46400000D02*
X90500000Y-47975300D01*
X90122000Y-47975300D02*
X89835400Y-48261900D01*
X90500000Y-67975300D02*
X90122000Y-67975300D01*
X47500000Y-66400000D02*
X47500000Y-67975300D01*
X47122000Y-67975300D02*
X46835400Y-68261900D01*
X90500000Y-66400000D02*
X90500000Y-67975300D01*
X90122000Y-67975300D02*
X89835400Y-68261900D01*
X47500000Y-67975300D02*
X47122000Y-67975300D01*
X90500000Y-87975300D02*
X90122000Y-87975300D01*
X47122000Y-87975300D02*
X46835400Y-88261900D01*
X90500000Y-86400000D02*
X90500000Y-87975300D01*
X90122000Y-87975300D02*
X89835400Y-88261900D01*
X47500000Y-87975300D02*
X47122000Y-87975300D01*
X47500000Y-86400000D02*
X47500000Y-87975300D01*
X47500000Y-106400000D02*
X47500000Y-107975300D01*
X47122000Y-107975300D02*
X46835400Y-108261900D01*
X90500000Y-107975300D02*
X90122000Y-107975300D01*
X90500000Y-106400000D02*
X90500000Y-107975300D01*
X47500000Y-107975300D02*
X47122000Y-107975300D01*
X90122000Y-107975300D02*
X89835400Y-108261900D01*
%TO.N,Net-(J7-Pad1)*%
X51500000Y-38575200D02*
X46741100Y-38575200D01*
X46741100Y-38575200D02*
X45663800Y-37497900D01*
X63500000Y-37500000D02*
X62431300Y-38568700D01*
X62431300Y-38568700D02*
X60533000Y-38568700D01*
X60533000Y-38568700D02*
X60138900Y-38174600D01*
X60138900Y-38174600D02*
X51900600Y-38174600D01*
X51900600Y-38174600D02*
X51500000Y-38575200D01*
X51500000Y-40024700D02*
X51500000Y-38575200D01*
X51500000Y-41600000D02*
X51500000Y-40024700D01*
X94500000Y-38575200D02*
X89741100Y-38575200D01*
X94500000Y-40024700D02*
X94500000Y-38575200D01*
X94500000Y-41600000D02*
X94500000Y-40024700D01*
X89741100Y-38575200D02*
X88663800Y-37497900D01*
X105431300Y-38568700D02*
X103533000Y-38568700D01*
X103533000Y-38568700D02*
X103138900Y-38174600D01*
X94900600Y-38174600D02*
X94500000Y-38575200D01*
X106500000Y-37500000D02*
X105431300Y-38568700D01*
X103138900Y-38174600D02*
X94900600Y-38174600D01*
X94500000Y-58575200D02*
X89741100Y-58575200D01*
X94500000Y-60024700D02*
X94500000Y-58575200D01*
X51500000Y-58575200D02*
X46741100Y-58575200D01*
X51500000Y-60024700D02*
X51500000Y-58575200D01*
X51500000Y-61600000D02*
X51500000Y-60024700D01*
X46741100Y-58575200D02*
X45663800Y-57497900D01*
X62431300Y-58568700D02*
X60533000Y-58568700D01*
X60533000Y-58568700D02*
X60138900Y-58174600D01*
X51900600Y-58174600D02*
X51500000Y-58575200D01*
X63500000Y-57500000D02*
X62431300Y-58568700D01*
X60138900Y-58174600D02*
X51900600Y-58174600D01*
X106500000Y-57500000D02*
X105431300Y-58568700D01*
X103138900Y-58174600D02*
X94900600Y-58174600D01*
X105431300Y-58568700D02*
X103533000Y-58568700D01*
X103533000Y-58568700D02*
X103138900Y-58174600D01*
X94900600Y-58174600D02*
X94500000Y-58575200D01*
X89741100Y-58575200D02*
X88663800Y-57497900D01*
X94500000Y-61600000D02*
X94500000Y-60024700D01*
X94500000Y-78575200D02*
X89741100Y-78575200D01*
X94500000Y-80024700D02*
X94500000Y-78575200D01*
X60533000Y-78568700D02*
X60138900Y-78174600D01*
X51500000Y-81600000D02*
X51500000Y-80024700D01*
X51900600Y-78174600D02*
X51500000Y-78575200D01*
X62431300Y-78568700D02*
X60533000Y-78568700D01*
X63500000Y-77500000D02*
X62431300Y-78568700D01*
X46741100Y-78575200D02*
X45663800Y-77497900D01*
X60138900Y-78174600D02*
X51900600Y-78174600D01*
X106500000Y-77500000D02*
X105431300Y-78568700D01*
X103533000Y-78568700D02*
X103138900Y-78174600D01*
X105431300Y-78568700D02*
X103533000Y-78568700D01*
X103138900Y-78174600D02*
X94900600Y-78174600D01*
X89741100Y-78575200D02*
X88663800Y-77497900D01*
X94900600Y-78174600D02*
X94500000Y-78575200D01*
X94500000Y-81600000D02*
X94500000Y-80024700D01*
X51500000Y-78575200D02*
X46741100Y-78575200D01*
X51500000Y-80024700D02*
X51500000Y-78575200D01*
X94500000Y-98575200D02*
X89741100Y-98575200D01*
X106500000Y-97500000D02*
X105431300Y-98568700D01*
X62431300Y-98568700D02*
X60533000Y-98568700D01*
X60138900Y-98174600D02*
X51900600Y-98174600D01*
X103533000Y-98568700D02*
X103138900Y-98174600D01*
X46741100Y-98575200D02*
X45663800Y-97497900D01*
X63500000Y-97500000D02*
X62431300Y-98568700D01*
X105431300Y-98568700D02*
X103533000Y-98568700D01*
X51500000Y-100024700D02*
X51500000Y-98575200D01*
X89741100Y-98575200D02*
X88663800Y-97497900D01*
X51500000Y-98575200D02*
X46741100Y-98575200D01*
X94900600Y-98174600D02*
X94500000Y-98575200D01*
X94500000Y-101600000D02*
X94500000Y-100024700D01*
X103138900Y-98174600D02*
X94900600Y-98174600D01*
X51500000Y-101600000D02*
X51500000Y-100024700D01*
X60533000Y-98568700D02*
X60138900Y-98174600D01*
X51900600Y-98174600D02*
X51500000Y-98575200D01*
X94500000Y-100024700D02*
X94500000Y-98575200D01*
X51500000Y-121600000D02*
X51500000Y-120024700D01*
X103138900Y-118174600D02*
X94900600Y-118174600D01*
X51900600Y-118174600D02*
X51500000Y-118575200D01*
X60533000Y-118568700D02*
X60138900Y-118174600D01*
X94500000Y-121600000D02*
X94500000Y-120024700D01*
X94500000Y-120024700D02*
X94500000Y-118575200D01*
X46741100Y-118575200D02*
X45663800Y-117497900D01*
X62431300Y-118568700D02*
X60533000Y-118568700D01*
X94500000Y-118575200D02*
X89741100Y-118575200D01*
X63500000Y-117500000D02*
X62431300Y-118568700D01*
X60138900Y-118174600D02*
X51900600Y-118174600D01*
X106500000Y-117500000D02*
X105431300Y-118568700D01*
X103533000Y-118568700D02*
X103138900Y-118174600D01*
X89741100Y-118575200D02*
X88663800Y-117497900D01*
X51500000Y-120024700D02*
X51500000Y-118575200D01*
X51500000Y-118575200D02*
X46741100Y-118575200D01*
X94900600Y-118174600D02*
X94500000Y-118575200D01*
X105431300Y-118568700D02*
X103533000Y-118568700D01*
%TO.N,Net-(R1-Pad1)*%
X55500000Y-26400000D02*
X55500000Y-27975300D01*
X55500000Y-27975300D02*
X60475300Y-27975300D01*
X60475300Y-27975300D02*
X61500000Y-29000000D01*
X98500000Y-26400000D02*
X98500000Y-27975300D01*
X98500000Y-27975300D02*
X103475300Y-27975300D01*
X103475300Y-27975300D02*
X104500000Y-29000000D01*
X55500000Y-46400000D02*
X55500000Y-47975300D01*
X55500000Y-47975300D02*
X60475300Y-47975300D01*
X60475300Y-47975300D02*
X61500000Y-49000000D01*
X103475300Y-47975300D02*
X104500000Y-49000000D01*
X98500000Y-47975300D02*
X103475300Y-47975300D01*
X98500000Y-46400000D02*
X98500000Y-47975300D01*
X55500000Y-67975300D02*
X60475300Y-67975300D01*
X60475300Y-67975300D02*
X61500000Y-69000000D01*
X55500000Y-66400000D02*
X55500000Y-67975300D01*
X103475300Y-67975300D02*
X104500000Y-69000000D01*
X98500000Y-66400000D02*
X98500000Y-67975300D01*
X98500000Y-67975300D02*
X103475300Y-67975300D01*
X55500000Y-86400000D02*
X55500000Y-87975300D01*
X98500000Y-86400000D02*
X98500000Y-87975300D01*
X98500000Y-87975300D02*
X103475300Y-87975300D01*
X103475300Y-87975300D02*
X104500000Y-89000000D01*
X60475300Y-87975300D02*
X61500000Y-89000000D01*
X55500000Y-87975300D02*
X60475300Y-87975300D01*
X60475300Y-107975300D02*
X61500000Y-109000000D01*
X55500000Y-107975300D02*
X60475300Y-107975300D01*
X55500000Y-106400000D02*
X55500000Y-107975300D01*
X98500000Y-107975300D02*
X103475300Y-107975300D01*
X103475300Y-107975300D02*
X104500000Y-109000000D01*
X98500000Y-106400000D02*
X98500000Y-107975300D01*
%TO.N,/GPIO4*%
X49500000Y-26400000D02*
X49500000Y-27975300D01*
X49500000Y-27975300D02*
X51615700Y-30091000D01*
X51615700Y-30091000D02*
X63182800Y-30091000D01*
X63182800Y-30091000D02*
X63907500Y-30815700D01*
X63907500Y-30815700D02*
X63907500Y-31000000D01*
X92500000Y-27975300D02*
X94615700Y-30091000D01*
X92500000Y-26400000D02*
X92500000Y-27975300D01*
X94615700Y-30091000D02*
X106182800Y-30091000D01*
X106182800Y-30091000D02*
X106907500Y-30815700D01*
X106907500Y-30815700D02*
X106907500Y-31000000D01*
X49500000Y-47975300D02*
X51615700Y-50091000D01*
X49500000Y-46400000D02*
X49500000Y-47975300D01*
X51615700Y-50091000D02*
X63182800Y-50091000D01*
X63182800Y-50091000D02*
X63907500Y-50815700D01*
X63907500Y-50815700D02*
X63907500Y-51000000D01*
X106907500Y-50815700D02*
X106907500Y-51000000D01*
X92500000Y-46400000D02*
X92500000Y-47975300D01*
X94615700Y-50091000D02*
X106182800Y-50091000D01*
X106182800Y-50091000D02*
X106907500Y-50815700D01*
X92500000Y-47975300D02*
X94615700Y-50091000D01*
X63182800Y-70091000D02*
X63907500Y-70815700D01*
X106907500Y-70815700D02*
X106907500Y-71000000D01*
X49500000Y-66400000D02*
X49500000Y-67975300D01*
X63907500Y-70815700D02*
X63907500Y-71000000D01*
X94615700Y-70091000D02*
X106182800Y-70091000D01*
X49500000Y-67975300D02*
X51615700Y-70091000D01*
X51615700Y-70091000D02*
X63182800Y-70091000D01*
X92500000Y-66400000D02*
X92500000Y-67975300D01*
X92500000Y-67975300D02*
X94615700Y-70091000D01*
X106182800Y-70091000D02*
X106907500Y-70815700D01*
X92500000Y-86400000D02*
X92500000Y-87975300D01*
X49500000Y-87975300D02*
X51615700Y-90091000D01*
X94615700Y-90091000D02*
X106182800Y-90091000D01*
X51615700Y-90091000D02*
X63182800Y-90091000D01*
X92500000Y-87975300D02*
X94615700Y-90091000D01*
X106182800Y-90091000D02*
X106907500Y-90815700D01*
X106907500Y-90815700D02*
X106907500Y-91000000D01*
X49500000Y-86400000D02*
X49500000Y-87975300D01*
X63182800Y-90091000D02*
X63907500Y-90815700D01*
X63907500Y-90815700D02*
X63907500Y-91000000D01*
X106182800Y-110091000D02*
X106907500Y-110815700D01*
X106907500Y-110815700D02*
X106907500Y-111000000D01*
X49500000Y-106400000D02*
X49500000Y-107975300D01*
X63182800Y-110091000D02*
X63907500Y-110815700D01*
X63907500Y-110815700D02*
X63907500Y-111000000D01*
X92500000Y-106400000D02*
X92500000Y-107975300D01*
X94615700Y-110091000D02*
X106182800Y-110091000D01*
X49500000Y-107975300D02*
X51615700Y-110091000D01*
X51615700Y-110091000D02*
X63182800Y-110091000D01*
X92500000Y-107975300D02*
X94615700Y-110091000D01*
%TO.N,Net-(SW1-Pad1)*%
X55500000Y-41600000D02*
X55500000Y-40024700D01*
X60024700Y-41000000D02*
X59879900Y-40855200D01*
X59879900Y-40855200D02*
X58630500Y-40855200D01*
X61100000Y-41000000D02*
X60024700Y-41000000D01*
X55500000Y-40024700D02*
X55876600Y-40024700D01*
X55876600Y-40024700D02*
X56151700Y-39749600D01*
X102879900Y-40855200D02*
X101630500Y-40855200D01*
X103024700Y-41000000D02*
X102879900Y-40855200D01*
X98500000Y-41600000D02*
X98500000Y-40024700D01*
X98500000Y-40024700D02*
X98876600Y-40024700D01*
X98876600Y-40024700D02*
X99151700Y-39749600D01*
X104100000Y-41000000D02*
X103024700Y-41000000D01*
X59879900Y-60855200D02*
X58630500Y-60855200D01*
X60024700Y-61000000D02*
X59879900Y-60855200D01*
X55500000Y-61600000D02*
X55500000Y-60024700D01*
X55500000Y-60024700D02*
X55876600Y-60024700D01*
X55876600Y-60024700D02*
X56151700Y-59749600D01*
X61100000Y-61000000D02*
X60024700Y-61000000D01*
X98876600Y-60024700D02*
X99151700Y-59749600D01*
X98500000Y-61600000D02*
X98500000Y-60024700D01*
X98500000Y-60024700D02*
X98876600Y-60024700D01*
X103024700Y-61000000D02*
X102879900Y-60855200D01*
X104100000Y-61000000D02*
X103024700Y-61000000D01*
X102879900Y-60855200D02*
X101630500Y-60855200D01*
X55500000Y-81600000D02*
X55500000Y-80024700D01*
X98876600Y-80024700D02*
X99151700Y-79749600D01*
X60024700Y-81000000D02*
X59879900Y-80855200D01*
X55876600Y-80024700D02*
X56151700Y-79749600D01*
X98500000Y-81600000D02*
X98500000Y-80024700D01*
X59879900Y-80855200D02*
X58630500Y-80855200D01*
X55500000Y-80024700D02*
X55876600Y-80024700D01*
X61100000Y-81000000D02*
X60024700Y-81000000D01*
X98500000Y-80024700D02*
X98876600Y-80024700D01*
X102879900Y-80855200D02*
X101630500Y-80855200D01*
X103024700Y-81000000D02*
X102879900Y-80855200D01*
X104100000Y-81000000D02*
X103024700Y-81000000D01*
X61100000Y-101000000D02*
X60024700Y-101000000D01*
X102879900Y-100855200D02*
X101630500Y-100855200D01*
X59879900Y-100855200D02*
X58630500Y-100855200D01*
X55876600Y-100024700D02*
X56151700Y-99749600D01*
X60024700Y-101000000D02*
X59879900Y-100855200D01*
X98500000Y-100024700D02*
X98876600Y-100024700D01*
X98500000Y-101600000D02*
X98500000Y-100024700D01*
X55500000Y-100024700D02*
X55876600Y-100024700D01*
X104100000Y-101000000D02*
X103024700Y-101000000D01*
X103024700Y-101000000D02*
X102879900Y-100855200D01*
X98876600Y-100024700D02*
X99151700Y-99749600D01*
X55500000Y-101600000D02*
X55500000Y-100024700D01*
X98876600Y-120024700D02*
X99151700Y-119749600D01*
X55500000Y-121600000D02*
X55500000Y-120024700D01*
X103024700Y-121000000D02*
X102879900Y-120855200D01*
X55876600Y-120024700D02*
X56151700Y-119749600D01*
X59879900Y-120855200D02*
X58630500Y-120855200D01*
X61100000Y-121000000D02*
X60024700Y-121000000D01*
X60024700Y-121000000D02*
X59879900Y-120855200D01*
X102879900Y-120855200D02*
X101630500Y-120855200D01*
X98500000Y-120024700D02*
X98876600Y-120024700D01*
X98500000Y-121600000D02*
X98500000Y-120024700D01*
X55500000Y-120024700D02*
X55876600Y-120024700D01*
X104100000Y-121000000D02*
X103024700Y-121000000D01*
%TO.N,Net-(U2-Pad1)*%
X43500000Y-41600000D02*
X43500000Y-40024700D01*
X49500000Y-41600000D02*
X49500000Y-39868100D01*
X49500000Y-39868100D02*
X48832800Y-39200900D01*
X48832800Y-39200900D02*
X44323800Y-39200900D01*
X44323800Y-39200900D02*
X43500000Y-40024700D01*
X87323800Y-39200900D02*
X86500000Y-40024700D01*
X91832800Y-39200900D02*
X87323800Y-39200900D01*
X86500000Y-41600000D02*
X86500000Y-40024700D01*
X92500000Y-39868100D02*
X91832800Y-39200900D01*
X92500000Y-41600000D02*
X92500000Y-39868100D01*
X44323800Y-59200900D02*
X43500000Y-60024700D01*
X48832800Y-59200900D02*
X44323800Y-59200900D01*
X43500000Y-61600000D02*
X43500000Y-60024700D01*
X49500000Y-59868100D02*
X48832800Y-59200900D01*
X49500000Y-61600000D02*
X49500000Y-59868100D01*
X92500000Y-61600000D02*
X92500000Y-59868100D01*
X91832800Y-59200900D02*
X87323800Y-59200900D01*
X92500000Y-59868100D02*
X91832800Y-59200900D01*
X86500000Y-61600000D02*
X86500000Y-60024700D01*
X87323800Y-59200900D02*
X86500000Y-60024700D01*
X49500000Y-79868100D02*
X48832800Y-79200900D01*
X91832800Y-79200900D02*
X87323800Y-79200900D01*
X43500000Y-81600000D02*
X43500000Y-80024700D01*
X49500000Y-81600000D02*
X49500000Y-79868100D01*
X92500000Y-81600000D02*
X92500000Y-79868100D01*
X92500000Y-79868100D02*
X91832800Y-79200900D01*
X86500000Y-81600000D02*
X86500000Y-80024700D01*
X48832800Y-79200900D02*
X44323800Y-79200900D01*
X44323800Y-79200900D02*
X43500000Y-80024700D01*
X87323800Y-79200900D02*
X86500000Y-80024700D01*
X44323800Y-99200900D02*
X43500000Y-100024700D01*
X48832800Y-99200900D02*
X44323800Y-99200900D01*
X87323800Y-99200900D02*
X86500000Y-100024700D01*
X92500000Y-101600000D02*
X92500000Y-99868100D01*
X92500000Y-99868100D02*
X91832800Y-99200900D01*
X91832800Y-99200900D02*
X87323800Y-99200900D01*
X86500000Y-101600000D02*
X86500000Y-100024700D01*
X49500000Y-99868100D02*
X48832800Y-99200900D01*
X43500000Y-101600000D02*
X43500000Y-100024700D01*
X49500000Y-101600000D02*
X49500000Y-99868100D01*
X86500000Y-121600000D02*
X86500000Y-120024700D01*
X92500000Y-119868100D02*
X91832800Y-119200900D01*
X49500000Y-119868100D02*
X48832800Y-119200900D01*
X91832800Y-119200900D02*
X87323800Y-119200900D01*
X92500000Y-121600000D02*
X92500000Y-119868100D01*
X49500000Y-121600000D02*
X49500000Y-119868100D01*
X43500000Y-121600000D02*
X43500000Y-120024700D01*
X87323800Y-119200900D02*
X86500000Y-120024700D01*
X48832800Y-119200900D02*
X44323800Y-119200900D01*
X44323800Y-119200900D02*
X43500000Y-120024700D01*
%TD*%
M02*
