M48
; DRILL file {KiCad (5.1.9)-1} date 05/03/21 13:14:44
; FORMAT={3:3/ absolute / metric / suppress leading zeros}
; #@! TF.CreationDate,2021-05-03T13:14:44+02:00
; #@! TF.GenerationSoftware,Kicad,Pcbnew,(5.1.9)-1
; #@! TF.FileFunction,Plated,1,2,PTH
FMAT,2
METRIC,TZ
T1C0.400
T2C0.450
T3C1.000
%
G90
G05
T1
X45664Y-37498
X45664Y-57498
X45664Y-77498
X45664Y-97498
X45664Y-117498
X46835Y-28262
X46835Y-48262
X46835Y-68262
X46835Y-88262
X46835Y-108262
X48478Y-39936
X48478Y-59936
X48478Y-79936
X48478Y-99936
X48478Y-119936
X56152Y-39750
X56152Y-59750
X56152Y-79750
X56152Y-99750
X56152Y-119750
X57290Y-38993
X57290Y-58993
X57290Y-78994
X57290Y-98993
X57290Y-118993
X58630Y-40855
X58630Y-60855
X58630Y-80855
X58630Y-100855
X58630Y-120855
X59621Y-42308
X59621Y-62307
X59621Y-82308
X59621Y-102308
X59621Y-122307
X65545Y-27950
X65545Y-47950
X65545Y-67950
X65545Y-87950
X65545Y-107950
X88664Y-37498
X88664Y-57498
X88664Y-77498
X88664Y-97498
X88664Y-117498
X89835Y-28262
X89835Y-48262
X89835Y-68262
X89835Y-88262
X89835Y-108262
X91479Y-39936
X91479Y-59936
X91479Y-79936
X91479Y-99936
X91479Y-119936
X99152Y-39750
X99152Y-59750
X99152Y-79750
X99152Y-99750
X99152Y-119750
X100290Y-38993
X100290Y-58993
X100290Y-78994
X100290Y-98993
X100290Y-118993
X101631Y-40855
X101631Y-60855
X101631Y-80855
X101631Y-100855
X101631Y-120855
X102621Y-42308
X102621Y-62307
X102621Y-82308
X102621Y-102308
X102621Y-122307
X108545Y-27950
X108545Y-47950
X108545Y-67950
X108545Y-87950
X108545Y-107950
T3
X30000Y-29000
X30000Y-31540
X30000Y-34080
X30000Y-49000
X30000Y-51540
X30000Y-54080
X30000Y-69000
X30000Y-71540
X30000Y-74080
X30000Y-89000
X30000Y-91540
X30000Y-94080
X30000Y-109000
X30000Y-111540
X30000Y-114080
X32540Y-29000
X32540Y-31540
X32540Y-34080
X32540Y-49000
X32540Y-51540
X32540Y-54080
X32540Y-69000
X32540Y-71540
X32540Y-74080
X32540Y-89000
X32540Y-91540
X32540Y-94080
X32540Y-109000
X32540Y-111540
X32540Y-114080
X73000Y-29000
X73000Y-31540
X73000Y-34080
X73000Y-49000
X73000Y-51540
X73000Y-54080
X73000Y-69000
X73000Y-71540
X73000Y-74080
X73000Y-89000
X73000Y-91540
X73000Y-94080
X73000Y-109000
X73000Y-111540
X73000Y-114080
X75540Y-29000
X75540Y-31540
X75540Y-34080
X75540Y-49000
X75540Y-51540
X75540Y-54080
X75540Y-69000
X75540Y-71540
X75540Y-74080
X75540Y-89000
X75540Y-91540
X75540Y-94080
X75540Y-109000
X75540Y-111540
X75540Y-114080
T2
G00X68800Y-30425
M15
G01X69600Y-30425
M16
G05
G00X69600Y-37575
M15
G01X68800Y-37575
M16
G05
G00X68800Y-50425
M15
G01X69600Y-50425
M16
G05
G00X69600Y-57575
M15
G01X68800Y-57575
M16
G05
G00X68800Y-70425
M15
G01X69600Y-70425
M16
G05
G00X69600Y-77575
M15
G01X68800Y-77575
M16
G05
G00X68800Y-90425
M15
G01X69600Y-90425
M16
G05
G00X69600Y-97575
M15
G01X68800Y-97575
M16
G05
G00X68800Y-110425
M15
G01X69600Y-110425
M16
G05
G00X69600Y-117575
M15
G01X68800Y-117575
M16
G05
G00X111800Y-30425
M15
G01X112600Y-30425
M16
G05
G00X112600Y-37575
M15
G01X111800Y-37575
M16
G05
G00X111800Y-50425
M15
G01X112600Y-50425
M16
G05
G00X112600Y-57575
M15
G01X111800Y-57575
M16
G05
G00X111800Y-70425
M15
G01X112600Y-70425
M16
G05
G00X112600Y-77575
M15
G01X111800Y-77575
M16
G05
G00X111800Y-90425
M15
G01X112600Y-90425
M16
G05
G00X112600Y-97575
M15
G01X111800Y-97575
M16
G05
G00X111800Y-110425
M15
G01X112600Y-110425
M16
G05
G00X112600Y-117575
M15
G01X111800Y-117575
M16
G05
T0
M30
