%TF.GenerationSoftware,KiCad,Pcbnew,(5.1.9)-1*%
%TF.CreationDate,2021-09-18T19:38:26+02:00*%
%TF.ProjectId,IM350_AM550_5V_V4.0_multi,494d3335-305f-4414-9d35-35305f35565f,rev?*%
%TF.SameCoordinates,Original*%
%TF.FileFunction,Legend,Bot*%
%TF.FilePolarity,Positive*%
%FSLAX46Y46*%
G04 Gerber Fmt 4.6, Leading zero omitted, Abs format (unit mm)*
G04 Created by KiCad (PCBNEW (5.1.9)-1) date 2021-09-18 19:38:26*
%MOMM*%
%LPD*%
G01*
G04 APERTURE LIST*
%ADD10C,0.300000*%
%ADD11C,0.010000*%
%ADD12C,0.120000*%
G04 APERTURE END LIST*
D10*
X154464285Y-133928571D02*
X154178571Y-134928571D01*
X153892857Y-134214285D01*
X153607142Y-134928571D01*
X153321428Y-133928571D01*
X152892857Y-133928571D02*
X152607142Y-134928571D01*
X152321428Y-134214285D01*
X152035714Y-134928571D01*
X151750000Y-133928571D01*
X151321428Y-133928571D02*
X151035714Y-134928571D01*
X150750000Y-134214285D01*
X150464285Y-134928571D01*
X150178571Y-133928571D01*
X149607142Y-134785714D02*
X149535714Y-134857142D01*
X149607142Y-134928571D01*
X149678571Y-134857142D01*
X149607142Y-134785714D01*
X149607142Y-134928571D01*
X148964285Y-134857142D02*
X148821428Y-134928571D01*
X148535714Y-134928571D01*
X148392857Y-134857142D01*
X148321428Y-134714285D01*
X148321428Y-134642857D01*
X148392857Y-134500000D01*
X148535714Y-134428571D01*
X148750000Y-134428571D01*
X148892857Y-134357142D01*
X148964285Y-134214285D01*
X148964285Y-134142857D01*
X148892857Y-134000000D01*
X148750000Y-133928571D01*
X148535714Y-133928571D01*
X148392857Y-134000000D01*
X147678571Y-134928571D02*
X147678571Y-133428571D01*
X147035714Y-134928571D02*
X147035714Y-134142857D01*
X147107142Y-134000000D01*
X147250000Y-133928571D01*
X147464285Y-133928571D01*
X147607142Y-134000000D01*
X147678571Y-134071428D01*
X146321428Y-134928571D02*
X146321428Y-133928571D01*
X146321428Y-134214285D02*
X146250000Y-134071428D01*
X146178571Y-134000000D01*
X146035714Y-133928571D01*
X145892857Y-133928571D01*
X144750000Y-134928571D02*
X144750000Y-133428571D01*
X144750000Y-134857142D02*
X144892857Y-134928571D01*
X145178571Y-134928571D01*
X145321428Y-134857142D01*
X145392857Y-134785714D01*
X145464285Y-134642857D01*
X145464285Y-134214285D01*
X145392857Y-134071428D01*
X145321428Y-134000000D01*
X145178571Y-133928571D01*
X144892857Y-133928571D01*
X144750000Y-134000000D01*
X144178571Y-133928571D02*
X143392857Y-133928571D01*
X144178571Y-134928571D01*
X143392857Y-134928571D01*
X142821428Y-134928571D02*
X142821428Y-133928571D01*
X142821428Y-134071428D02*
X142750000Y-134000000D01*
X142607142Y-133928571D01*
X142392857Y-133928571D01*
X142250000Y-134000000D01*
X142178571Y-134142857D01*
X142178571Y-134928571D01*
X142178571Y-134142857D02*
X142107142Y-134000000D01*
X141964285Y-133928571D01*
X141750000Y-133928571D01*
X141607142Y-134000000D01*
X141535714Y-134142857D01*
X141535714Y-134928571D01*
X140821428Y-134785714D02*
X140750000Y-134857142D01*
X140821428Y-134928571D01*
X140892857Y-134857142D01*
X140821428Y-134785714D01*
X140821428Y-134928571D01*
X139464285Y-134857142D02*
X139607142Y-134928571D01*
X139892857Y-134928571D01*
X140035714Y-134857142D01*
X140107142Y-134785714D01*
X140178571Y-134642857D01*
X140178571Y-134214285D01*
X140107142Y-134071428D01*
X140035714Y-134000000D01*
X139892857Y-133928571D01*
X139607142Y-133928571D01*
X139464285Y-134000000D01*
X138607142Y-134928571D02*
X138750000Y-134857142D01*
X138821428Y-134785714D01*
X138892857Y-134642857D01*
X138892857Y-134214285D01*
X138821428Y-134071428D01*
X138750000Y-134000000D01*
X138607142Y-133928571D01*
X138392857Y-133928571D01*
X138250000Y-134000000D01*
X138178571Y-134071428D01*
X138107142Y-134214285D01*
X138107142Y-134642857D01*
X138178571Y-134785714D01*
X138250000Y-134857142D01*
X138392857Y-134928571D01*
X138607142Y-134928571D01*
X137464285Y-134928571D02*
X137464285Y-133928571D01*
X137464285Y-134071428D02*
X137392857Y-134000000D01*
X137250000Y-133928571D01*
X137035714Y-133928571D01*
X136892857Y-134000000D01*
X136821428Y-134142857D01*
X136821428Y-134928571D01*
X136821428Y-134142857D02*
X136750000Y-134000000D01*
X136607142Y-133928571D01*
X136392857Y-133928571D01*
X136250000Y-134000000D01*
X136178571Y-134142857D01*
X136178571Y-134928571D01*
X104464285Y-133928571D02*
X104178571Y-134928571D01*
X103892857Y-134214285D01*
X103607142Y-134928571D01*
X103321428Y-133928571D01*
X102892857Y-133928571D02*
X102607142Y-134928571D01*
X102321428Y-134214285D01*
X102035714Y-134928571D01*
X101750000Y-133928571D01*
X101321428Y-133928571D02*
X101035714Y-134928571D01*
X100750000Y-134214285D01*
X100464285Y-134928571D01*
X100178571Y-133928571D01*
X99607142Y-134785714D02*
X99535714Y-134857142D01*
X99607142Y-134928571D01*
X99678571Y-134857142D01*
X99607142Y-134785714D01*
X99607142Y-134928571D01*
X98964285Y-134857142D02*
X98821428Y-134928571D01*
X98535714Y-134928571D01*
X98392857Y-134857142D01*
X98321428Y-134714285D01*
X98321428Y-134642857D01*
X98392857Y-134500000D01*
X98535714Y-134428571D01*
X98750000Y-134428571D01*
X98892857Y-134357142D01*
X98964285Y-134214285D01*
X98964285Y-134142857D01*
X98892857Y-134000000D01*
X98750000Y-133928571D01*
X98535714Y-133928571D01*
X98392857Y-134000000D01*
X97678571Y-134928571D02*
X97678571Y-133428571D01*
X97035714Y-134928571D02*
X97035714Y-134142857D01*
X97107142Y-134000000D01*
X97250000Y-133928571D01*
X97464285Y-133928571D01*
X97607142Y-134000000D01*
X97678571Y-134071428D01*
X96321428Y-134928571D02*
X96321428Y-133928571D01*
X96321428Y-134214285D02*
X96250000Y-134071428D01*
X96178571Y-134000000D01*
X96035714Y-133928571D01*
X95892857Y-133928571D01*
X94750000Y-134928571D02*
X94750000Y-133428571D01*
X94750000Y-134857142D02*
X94892857Y-134928571D01*
X95178571Y-134928571D01*
X95321428Y-134857142D01*
X95392857Y-134785714D01*
X95464285Y-134642857D01*
X95464285Y-134214285D01*
X95392857Y-134071428D01*
X95321428Y-134000000D01*
X95178571Y-133928571D01*
X94892857Y-133928571D01*
X94750000Y-134000000D01*
X94178571Y-133928571D02*
X93392857Y-133928571D01*
X94178571Y-134928571D01*
X93392857Y-134928571D01*
X92821428Y-134928571D02*
X92821428Y-133928571D01*
X92821428Y-134071428D02*
X92750000Y-134000000D01*
X92607142Y-133928571D01*
X92392857Y-133928571D01*
X92250000Y-134000000D01*
X92178571Y-134142857D01*
X92178571Y-134928571D01*
X92178571Y-134142857D02*
X92107142Y-134000000D01*
X91964285Y-133928571D01*
X91750000Y-133928571D01*
X91607142Y-134000000D01*
X91535714Y-134142857D01*
X91535714Y-134928571D01*
X90821428Y-134785714D02*
X90750000Y-134857142D01*
X90821428Y-134928571D01*
X90892857Y-134857142D01*
X90821428Y-134785714D01*
X90821428Y-134928571D01*
X89464285Y-134857142D02*
X89607142Y-134928571D01*
X89892857Y-134928571D01*
X90035714Y-134857142D01*
X90107142Y-134785714D01*
X90178571Y-134642857D01*
X90178571Y-134214285D01*
X90107142Y-134071428D01*
X90035714Y-134000000D01*
X89892857Y-133928571D01*
X89607142Y-133928571D01*
X89464285Y-134000000D01*
X88607142Y-134928571D02*
X88750000Y-134857142D01*
X88821428Y-134785714D01*
X88892857Y-134642857D01*
X88892857Y-134214285D01*
X88821428Y-134071428D01*
X88750000Y-134000000D01*
X88607142Y-133928571D01*
X88392857Y-133928571D01*
X88250000Y-134000000D01*
X88178571Y-134071428D01*
X88107142Y-134214285D01*
X88107142Y-134642857D01*
X88178571Y-134785714D01*
X88250000Y-134857142D01*
X88392857Y-134928571D01*
X88607142Y-134928571D01*
X87464285Y-134928571D02*
X87464285Y-133928571D01*
X87464285Y-134071428D02*
X87392857Y-134000000D01*
X87250000Y-133928571D01*
X87035714Y-133928571D01*
X86892857Y-134000000D01*
X86821428Y-134142857D01*
X86821428Y-134928571D01*
X86821428Y-134142857D02*
X86750000Y-134000000D01*
X86607142Y-133928571D01*
X86392857Y-133928571D01*
X86250000Y-134000000D01*
X86178571Y-134142857D01*
X86178571Y-134928571D01*
X154464285Y-113928571D02*
X154178571Y-114928571D01*
X153892857Y-114214285D01*
X153607142Y-114928571D01*
X153321428Y-113928571D01*
X152892857Y-113928571D02*
X152607142Y-114928571D01*
X152321428Y-114214285D01*
X152035714Y-114928571D01*
X151750000Y-113928571D01*
X151321428Y-113928571D02*
X151035714Y-114928571D01*
X150750000Y-114214285D01*
X150464285Y-114928571D01*
X150178571Y-113928571D01*
X149607142Y-114785714D02*
X149535714Y-114857142D01*
X149607142Y-114928571D01*
X149678571Y-114857142D01*
X149607142Y-114785714D01*
X149607142Y-114928571D01*
X148964285Y-114857142D02*
X148821428Y-114928571D01*
X148535714Y-114928571D01*
X148392857Y-114857142D01*
X148321428Y-114714285D01*
X148321428Y-114642857D01*
X148392857Y-114500000D01*
X148535714Y-114428571D01*
X148750000Y-114428571D01*
X148892857Y-114357142D01*
X148964285Y-114214285D01*
X148964285Y-114142857D01*
X148892857Y-114000000D01*
X148750000Y-113928571D01*
X148535714Y-113928571D01*
X148392857Y-114000000D01*
X147678571Y-114928571D02*
X147678571Y-113428571D01*
X147035714Y-114928571D02*
X147035714Y-114142857D01*
X147107142Y-114000000D01*
X147250000Y-113928571D01*
X147464285Y-113928571D01*
X147607142Y-114000000D01*
X147678571Y-114071428D01*
X146321428Y-114928571D02*
X146321428Y-113928571D01*
X146321428Y-114214285D02*
X146250000Y-114071428D01*
X146178571Y-114000000D01*
X146035714Y-113928571D01*
X145892857Y-113928571D01*
X144750000Y-114928571D02*
X144750000Y-113428571D01*
X144750000Y-114857142D02*
X144892857Y-114928571D01*
X145178571Y-114928571D01*
X145321428Y-114857142D01*
X145392857Y-114785714D01*
X145464285Y-114642857D01*
X145464285Y-114214285D01*
X145392857Y-114071428D01*
X145321428Y-114000000D01*
X145178571Y-113928571D01*
X144892857Y-113928571D01*
X144750000Y-114000000D01*
X144178571Y-113928571D02*
X143392857Y-113928571D01*
X144178571Y-114928571D01*
X143392857Y-114928571D01*
X142821428Y-114928571D02*
X142821428Y-113928571D01*
X142821428Y-114071428D02*
X142750000Y-114000000D01*
X142607142Y-113928571D01*
X142392857Y-113928571D01*
X142250000Y-114000000D01*
X142178571Y-114142857D01*
X142178571Y-114928571D01*
X142178571Y-114142857D02*
X142107142Y-114000000D01*
X141964285Y-113928571D01*
X141750000Y-113928571D01*
X141607142Y-114000000D01*
X141535714Y-114142857D01*
X141535714Y-114928571D01*
X140821428Y-114785714D02*
X140750000Y-114857142D01*
X140821428Y-114928571D01*
X140892857Y-114857142D01*
X140821428Y-114785714D01*
X140821428Y-114928571D01*
X139464285Y-114857142D02*
X139607142Y-114928571D01*
X139892857Y-114928571D01*
X140035714Y-114857142D01*
X140107142Y-114785714D01*
X140178571Y-114642857D01*
X140178571Y-114214285D01*
X140107142Y-114071428D01*
X140035714Y-114000000D01*
X139892857Y-113928571D01*
X139607142Y-113928571D01*
X139464285Y-114000000D01*
X138607142Y-114928571D02*
X138750000Y-114857142D01*
X138821428Y-114785714D01*
X138892857Y-114642857D01*
X138892857Y-114214285D01*
X138821428Y-114071428D01*
X138750000Y-114000000D01*
X138607142Y-113928571D01*
X138392857Y-113928571D01*
X138250000Y-114000000D01*
X138178571Y-114071428D01*
X138107142Y-114214285D01*
X138107142Y-114642857D01*
X138178571Y-114785714D01*
X138250000Y-114857142D01*
X138392857Y-114928571D01*
X138607142Y-114928571D01*
X137464285Y-114928571D02*
X137464285Y-113928571D01*
X137464285Y-114071428D02*
X137392857Y-114000000D01*
X137250000Y-113928571D01*
X137035714Y-113928571D01*
X136892857Y-114000000D01*
X136821428Y-114142857D01*
X136821428Y-114928571D01*
X136821428Y-114142857D02*
X136750000Y-114000000D01*
X136607142Y-113928571D01*
X136392857Y-113928571D01*
X136250000Y-114000000D01*
X136178571Y-114142857D01*
X136178571Y-114928571D01*
X104464285Y-113928571D02*
X104178571Y-114928571D01*
X103892857Y-114214285D01*
X103607142Y-114928571D01*
X103321428Y-113928571D01*
X102892857Y-113928571D02*
X102607142Y-114928571D01*
X102321428Y-114214285D01*
X102035714Y-114928571D01*
X101750000Y-113928571D01*
X101321428Y-113928571D02*
X101035714Y-114928571D01*
X100750000Y-114214285D01*
X100464285Y-114928571D01*
X100178571Y-113928571D01*
X99607142Y-114785714D02*
X99535714Y-114857142D01*
X99607142Y-114928571D01*
X99678571Y-114857142D01*
X99607142Y-114785714D01*
X99607142Y-114928571D01*
X98964285Y-114857142D02*
X98821428Y-114928571D01*
X98535714Y-114928571D01*
X98392857Y-114857142D01*
X98321428Y-114714285D01*
X98321428Y-114642857D01*
X98392857Y-114500000D01*
X98535714Y-114428571D01*
X98750000Y-114428571D01*
X98892857Y-114357142D01*
X98964285Y-114214285D01*
X98964285Y-114142857D01*
X98892857Y-114000000D01*
X98750000Y-113928571D01*
X98535714Y-113928571D01*
X98392857Y-114000000D01*
X97678571Y-114928571D02*
X97678571Y-113428571D01*
X97035714Y-114928571D02*
X97035714Y-114142857D01*
X97107142Y-114000000D01*
X97250000Y-113928571D01*
X97464285Y-113928571D01*
X97607142Y-114000000D01*
X97678571Y-114071428D01*
X96321428Y-114928571D02*
X96321428Y-113928571D01*
X96321428Y-114214285D02*
X96250000Y-114071428D01*
X96178571Y-114000000D01*
X96035714Y-113928571D01*
X95892857Y-113928571D01*
X94750000Y-114928571D02*
X94750000Y-113428571D01*
X94750000Y-114857142D02*
X94892857Y-114928571D01*
X95178571Y-114928571D01*
X95321428Y-114857142D01*
X95392857Y-114785714D01*
X95464285Y-114642857D01*
X95464285Y-114214285D01*
X95392857Y-114071428D01*
X95321428Y-114000000D01*
X95178571Y-113928571D01*
X94892857Y-113928571D01*
X94750000Y-114000000D01*
X94178571Y-113928571D02*
X93392857Y-113928571D01*
X94178571Y-114928571D01*
X93392857Y-114928571D01*
X92821428Y-114928571D02*
X92821428Y-113928571D01*
X92821428Y-114071428D02*
X92750000Y-114000000D01*
X92607142Y-113928571D01*
X92392857Y-113928571D01*
X92250000Y-114000000D01*
X92178571Y-114142857D01*
X92178571Y-114928571D01*
X92178571Y-114142857D02*
X92107142Y-114000000D01*
X91964285Y-113928571D01*
X91750000Y-113928571D01*
X91607142Y-114000000D01*
X91535714Y-114142857D01*
X91535714Y-114928571D01*
X90821428Y-114785714D02*
X90750000Y-114857142D01*
X90821428Y-114928571D01*
X90892857Y-114857142D01*
X90821428Y-114785714D01*
X90821428Y-114928571D01*
X89464285Y-114857142D02*
X89607142Y-114928571D01*
X89892857Y-114928571D01*
X90035714Y-114857142D01*
X90107142Y-114785714D01*
X90178571Y-114642857D01*
X90178571Y-114214285D01*
X90107142Y-114071428D01*
X90035714Y-114000000D01*
X89892857Y-113928571D01*
X89607142Y-113928571D01*
X89464285Y-114000000D01*
X88607142Y-114928571D02*
X88750000Y-114857142D01*
X88821428Y-114785714D01*
X88892857Y-114642857D01*
X88892857Y-114214285D01*
X88821428Y-114071428D01*
X88750000Y-114000000D01*
X88607142Y-113928571D01*
X88392857Y-113928571D01*
X88250000Y-114000000D01*
X88178571Y-114071428D01*
X88107142Y-114214285D01*
X88107142Y-114642857D01*
X88178571Y-114785714D01*
X88250000Y-114857142D01*
X88392857Y-114928571D01*
X88607142Y-114928571D01*
X87464285Y-114928571D02*
X87464285Y-113928571D01*
X87464285Y-114071428D02*
X87392857Y-114000000D01*
X87250000Y-113928571D01*
X87035714Y-113928571D01*
X86892857Y-114000000D01*
X86821428Y-114142857D01*
X86821428Y-114928571D01*
X86821428Y-114142857D02*
X86750000Y-114000000D01*
X86607142Y-113928571D01*
X86392857Y-113928571D01*
X86250000Y-114000000D01*
X86178571Y-114142857D01*
X86178571Y-114928571D01*
X154464285Y-93928571D02*
X154178571Y-94928571D01*
X153892857Y-94214285D01*
X153607142Y-94928571D01*
X153321428Y-93928571D01*
X152892857Y-93928571D02*
X152607142Y-94928571D01*
X152321428Y-94214285D01*
X152035714Y-94928571D01*
X151750000Y-93928571D01*
X151321428Y-93928571D02*
X151035714Y-94928571D01*
X150750000Y-94214285D01*
X150464285Y-94928571D01*
X150178571Y-93928571D01*
X149607142Y-94785714D02*
X149535714Y-94857142D01*
X149607142Y-94928571D01*
X149678571Y-94857142D01*
X149607142Y-94785714D01*
X149607142Y-94928571D01*
X148964285Y-94857142D02*
X148821428Y-94928571D01*
X148535714Y-94928571D01*
X148392857Y-94857142D01*
X148321428Y-94714285D01*
X148321428Y-94642857D01*
X148392857Y-94500000D01*
X148535714Y-94428571D01*
X148750000Y-94428571D01*
X148892857Y-94357142D01*
X148964285Y-94214285D01*
X148964285Y-94142857D01*
X148892857Y-94000000D01*
X148750000Y-93928571D01*
X148535714Y-93928571D01*
X148392857Y-94000000D01*
X147678571Y-94928571D02*
X147678571Y-93428571D01*
X147035714Y-94928571D02*
X147035714Y-94142857D01*
X147107142Y-94000000D01*
X147250000Y-93928571D01*
X147464285Y-93928571D01*
X147607142Y-94000000D01*
X147678571Y-94071428D01*
X146321428Y-94928571D02*
X146321428Y-93928571D01*
X146321428Y-94214285D02*
X146250000Y-94071428D01*
X146178571Y-94000000D01*
X146035714Y-93928571D01*
X145892857Y-93928571D01*
X144750000Y-94928571D02*
X144750000Y-93428571D01*
X144750000Y-94857142D02*
X144892857Y-94928571D01*
X145178571Y-94928571D01*
X145321428Y-94857142D01*
X145392857Y-94785714D01*
X145464285Y-94642857D01*
X145464285Y-94214285D01*
X145392857Y-94071428D01*
X145321428Y-94000000D01*
X145178571Y-93928571D01*
X144892857Y-93928571D01*
X144750000Y-94000000D01*
X144178571Y-93928571D02*
X143392857Y-93928571D01*
X144178571Y-94928571D01*
X143392857Y-94928571D01*
X142821428Y-94928571D02*
X142821428Y-93928571D01*
X142821428Y-94071428D02*
X142750000Y-94000000D01*
X142607142Y-93928571D01*
X142392857Y-93928571D01*
X142250000Y-94000000D01*
X142178571Y-94142857D01*
X142178571Y-94928571D01*
X142178571Y-94142857D02*
X142107142Y-94000000D01*
X141964285Y-93928571D01*
X141750000Y-93928571D01*
X141607142Y-94000000D01*
X141535714Y-94142857D01*
X141535714Y-94928571D01*
X140821428Y-94785714D02*
X140750000Y-94857142D01*
X140821428Y-94928571D01*
X140892857Y-94857142D01*
X140821428Y-94785714D01*
X140821428Y-94928571D01*
X139464285Y-94857142D02*
X139607142Y-94928571D01*
X139892857Y-94928571D01*
X140035714Y-94857142D01*
X140107142Y-94785714D01*
X140178571Y-94642857D01*
X140178571Y-94214285D01*
X140107142Y-94071428D01*
X140035714Y-94000000D01*
X139892857Y-93928571D01*
X139607142Y-93928571D01*
X139464285Y-94000000D01*
X138607142Y-94928571D02*
X138750000Y-94857142D01*
X138821428Y-94785714D01*
X138892857Y-94642857D01*
X138892857Y-94214285D01*
X138821428Y-94071428D01*
X138750000Y-94000000D01*
X138607142Y-93928571D01*
X138392857Y-93928571D01*
X138250000Y-94000000D01*
X138178571Y-94071428D01*
X138107142Y-94214285D01*
X138107142Y-94642857D01*
X138178571Y-94785714D01*
X138250000Y-94857142D01*
X138392857Y-94928571D01*
X138607142Y-94928571D01*
X137464285Y-94928571D02*
X137464285Y-93928571D01*
X137464285Y-94071428D02*
X137392857Y-94000000D01*
X137250000Y-93928571D01*
X137035714Y-93928571D01*
X136892857Y-94000000D01*
X136821428Y-94142857D01*
X136821428Y-94928571D01*
X136821428Y-94142857D02*
X136750000Y-94000000D01*
X136607142Y-93928571D01*
X136392857Y-93928571D01*
X136250000Y-94000000D01*
X136178571Y-94142857D01*
X136178571Y-94928571D01*
X104464285Y-93928571D02*
X104178571Y-94928571D01*
X103892857Y-94214285D01*
X103607142Y-94928571D01*
X103321428Y-93928571D01*
X102892857Y-93928571D02*
X102607142Y-94928571D01*
X102321428Y-94214285D01*
X102035714Y-94928571D01*
X101750000Y-93928571D01*
X101321428Y-93928571D02*
X101035714Y-94928571D01*
X100750000Y-94214285D01*
X100464285Y-94928571D01*
X100178571Y-93928571D01*
X99607142Y-94785714D02*
X99535714Y-94857142D01*
X99607142Y-94928571D01*
X99678571Y-94857142D01*
X99607142Y-94785714D01*
X99607142Y-94928571D01*
X98964285Y-94857142D02*
X98821428Y-94928571D01*
X98535714Y-94928571D01*
X98392857Y-94857142D01*
X98321428Y-94714285D01*
X98321428Y-94642857D01*
X98392857Y-94500000D01*
X98535714Y-94428571D01*
X98750000Y-94428571D01*
X98892857Y-94357142D01*
X98964285Y-94214285D01*
X98964285Y-94142857D01*
X98892857Y-94000000D01*
X98750000Y-93928571D01*
X98535714Y-93928571D01*
X98392857Y-94000000D01*
X97678571Y-94928571D02*
X97678571Y-93428571D01*
X97035714Y-94928571D02*
X97035714Y-94142857D01*
X97107142Y-94000000D01*
X97250000Y-93928571D01*
X97464285Y-93928571D01*
X97607142Y-94000000D01*
X97678571Y-94071428D01*
X96321428Y-94928571D02*
X96321428Y-93928571D01*
X96321428Y-94214285D02*
X96250000Y-94071428D01*
X96178571Y-94000000D01*
X96035714Y-93928571D01*
X95892857Y-93928571D01*
X94750000Y-94928571D02*
X94750000Y-93428571D01*
X94750000Y-94857142D02*
X94892857Y-94928571D01*
X95178571Y-94928571D01*
X95321428Y-94857142D01*
X95392857Y-94785714D01*
X95464285Y-94642857D01*
X95464285Y-94214285D01*
X95392857Y-94071428D01*
X95321428Y-94000000D01*
X95178571Y-93928571D01*
X94892857Y-93928571D01*
X94750000Y-94000000D01*
X94178571Y-93928571D02*
X93392857Y-93928571D01*
X94178571Y-94928571D01*
X93392857Y-94928571D01*
X92821428Y-94928571D02*
X92821428Y-93928571D01*
X92821428Y-94071428D02*
X92750000Y-94000000D01*
X92607142Y-93928571D01*
X92392857Y-93928571D01*
X92250000Y-94000000D01*
X92178571Y-94142857D01*
X92178571Y-94928571D01*
X92178571Y-94142857D02*
X92107142Y-94000000D01*
X91964285Y-93928571D01*
X91750000Y-93928571D01*
X91607142Y-94000000D01*
X91535714Y-94142857D01*
X91535714Y-94928571D01*
X90821428Y-94785714D02*
X90750000Y-94857142D01*
X90821428Y-94928571D01*
X90892857Y-94857142D01*
X90821428Y-94785714D01*
X90821428Y-94928571D01*
X89464285Y-94857142D02*
X89607142Y-94928571D01*
X89892857Y-94928571D01*
X90035714Y-94857142D01*
X90107142Y-94785714D01*
X90178571Y-94642857D01*
X90178571Y-94214285D01*
X90107142Y-94071428D01*
X90035714Y-94000000D01*
X89892857Y-93928571D01*
X89607142Y-93928571D01*
X89464285Y-94000000D01*
X88607142Y-94928571D02*
X88750000Y-94857142D01*
X88821428Y-94785714D01*
X88892857Y-94642857D01*
X88892857Y-94214285D01*
X88821428Y-94071428D01*
X88750000Y-94000000D01*
X88607142Y-93928571D01*
X88392857Y-93928571D01*
X88250000Y-94000000D01*
X88178571Y-94071428D01*
X88107142Y-94214285D01*
X88107142Y-94642857D01*
X88178571Y-94785714D01*
X88250000Y-94857142D01*
X88392857Y-94928571D01*
X88607142Y-94928571D01*
X87464285Y-94928571D02*
X87464285Y-93928571D01*
X87464285Y-94071428D02*
X87392857Y-94000000D01*
X87250000Y-93928571D01*
X87035714Y-93928571D01*
X86892857Y-94000000D01*
X86821428Y-94142857D01*
X86821428Y-94928571D01*
X86821428Y-94142857D02*
X86750000Y-94000000D01*
X86607142Y-93928571D01*
X86392857Y-93928571D01*
X86250000Y-94000000D01*
X86178571Y-94142857D01*
X86178571Y-94928571D01*
X154464285Y-73928571D02*
X154178571Y-74928571D01*
X153892857Y-74214285D01*
X153607142Y-74928571D01*
X153321428Y-73928571D01*
X152892857Y-73928571D02*
X152607142Y-74928571D01*
X152321428Y-74214285D01*
X152035714Y-74928571D01*
X151750000Y-73928571D01*
X151321428Y-73928571D02*
X151035714Y-74928571D01*
X150750000Y-74214285D01*
X150464285Y-74928571D01*
X150178571Y-73928571D01*
X149607142Y-74785714D02*
X149535714Y-74857142D01*
X149607142Y-74928571D01*
X149678571Y-74857142D01*
X149607142Y-74785714D01*
X149607142Y-74928571D01*
X148964285Y-74857142D02*
X148821428Y-74928571D01*
X148535714Y-74928571D01*
X148392857Y-74857142D01*
X148321428Y-74714285D01*
X148321428Y-74642857D01*
X148392857Y-74500000D01*
X148535714Y-74428571D01*
X148750000Y-74428571D01*
X148892857Y-74357142D01*
X148964285Y-74214285D01*
X148964285Y-74142857D01*
X148892857Y-74000000D01*
X148750000Y-73928571D01*
X148535714Y-73928571D01*
X148392857Y-74000000D01*
X147678571Y-74928571D02*
X147678571Y-73428571D01*
X147035714Y-74928571D02*
X147035714Y-74142857D01*
X147107142Y-74000000D01*
X147250000Y-73928571D01*
X147464285Y-73928571D01*
X147607142Y-74000000D01*
X147678571Y-74071428D01*
X146321428Y-74928571D02*
X146321428Y-73928571D01*
X146321428Y-74214285D02*
X146250000Y-74071428D01*
X146178571Y-74000000D01*
X146035714Y-73928571D01*
X145892857Y-73928571D01*
X144750000Y-74928571D02*
X144750000Y-73428571D01*
X144750000Y-74857142D02*
X144892857Y-74928571D01*
X145178571Y-74928571D01*
X145321428Y-74857142D01*
X145392857Y-74785714D01*
X145464285Y-74642857D01*
X145464285Y-74214285D01*
X145392857Y-74071428D01*
X145321428Y-74000000D01*
X145178571Y-73928571D01*
X144892857Y-73928571D01*
X144750000Y-74000000D01*
X144178571Y-73928571D02*
X143392857Y-73928571D01*
X144178571Y-74928571D01*
X143392857Y-74928571D01*
X142821428Y-74928571D02*
X142821428Y-73928571D01*
X142821428Y-74071428D02*
X142750000Y-74000000D01*
X142607142Y-73928571D01*
X142392857Y-73928571D01*
X142250000Y-74000000D01*
X142178571Y-74142857D01*
X142178571Y-74928571D01*
X142178571Y-74142857D02*
X142107142Y-74000000D01*
X141964285Y-73928571D01*
X141750000Y-73928571D01*
X141607142Y-74000000D01*
X141535714Y-74142857D01*
X141535714Y-74928571D01*
X140821428Y-74785714D02*
X140750000Y-74857142D01*
X140821428Y-74928571D01*
X140892857Y-74857142D01*
X140821428Y-74785714D01*
X140821428Y-74928571D01*
X139464285Y-74857142D02*
X139607142Y-74928571D01*
X139892857Y-74928571D01*
X140035714Y-74857142D01*
X140107142Y-74785714D01*
X140178571Y-74642857D01*
X140178571Y-74214285D01*
X140107142Y-74071428D01*
X140035714Y-74000000D01*
X139892857Y-73928571D01*
X139607142Y-73928571D01*
X139464285Y-74000000D01*
X138607142Y-74928571D02*
X138750000Y-74857142D01*
X138821428Y-74785714D01*
X138892857Y-74642857D01*
X138892857Y-74214285D01*
X138821428Y-74071428D01*
X138750000Y-74000000D01*
X138607142Y-73928571D01*
X138392857Y-73928571D01*
X138250000Y-74000000D01*
X138178571Y-74071428D01*
X138107142Y-74214285D01*
X138107142Y-74642857D01*
X138178571Y-74785714D01*
X138250000Y-74857142D01*
X138392857Y-74928571D01*
X138607142Y-74928571D01*
X137464285Y-74928571D02*
X137464285Y-73928571D01*
X137464285Y-74071428D02*
X137392857Y-74000000D01*
X137250000Y-73928571D01*
X137035714Y-73928571D01*
X136892857Y-74000000D01*
X136821428Y-74142857D01*
X136821428Y-74928571D01*
X136821428Y-74142857D02*
X136750000Y-74000000D01*
X136607142Y-73928571D01*
X136392857Y-73928571D01*
X136250000Y-74000000D01*
X136178571Y-74142857D01*
X136178571Y-74928571D01*
X104464285Y-73928571D02*
X104178571Y-74928571D01*
X103892857Y-74214285D01*
X103607142Y-74928571D01*
X103321428Y-73928571D01*
X102892857Y-73928571D02*
X102607142Y-74928571D01*
X102321428Y-74214285D01*
X102035714Y-74928571D01*
X101750000Y-73928571D01*
X101321428Y-73928571D02*
X101035714Y-74928571D01*
X100750000Y-74214285D01*
X100464285Y-74928571D01*
X100178571Y-73928571D01*
X99607142Y-74785714D02*
X99535714Y-74857142D01*
X99607142Y-74928571D01*
X99678571Y-74857142D01*
X99607142Y-74785714D01*
X99607142Y-74928571D01*
X98964285Y-74857142D02*
X98821428Y-74928571D01*
X98535714Y-74928571D01*
X98392857Y-74857142D01*
X98321428Y-74714285D01*
X98321428Y-74642857D01*
X98392857Y-74500000D01*
X98535714Y-74428571D01*
X98750000Y-74428571D01*
X98892857Y-74357142D01*
X98964285Y-74214285D01*
X98964285Y-74142857D01*
X98892857Y-74000000D01*
X98750000Y-73928571D01*
X98535714Y-73928571D01*
X98392857Y-74000000D01*
X97678571Y-74928571D02*
X97678571Y-73428571D01*
X97035714Y-74928571D02*
X97035714Y-74142857D01*
X97107142Y-74000000D01*
X97250000Y-73928571D01*
X97464285Y-73928571D01*
X97607142Y-74000000D01*
X97678571Y-74071428D01*
X96321428Y-74928571D02*
X96321428Y-73928571D01*
X96321428Y-74214285D02*
X96250000Y-74071428D01*
X96178571Y-74000000D01*
X96035714Y-73928571D01*
X95892857Y-73928571D01*
X94750000Y-74928571D02*
X94750000Y-73428571D01*
X94750000Y-74857142D02*
X94892857Y-74928571D01*
X95178571Y-74928571D01*
X95321428Y-74857142D01*
X95392857Y-74785714D01*
X95464285Y-74642857D01*
X95464285Y-74214285D01*
X95392857Y-74071428D01*
X95321428Y-74000000D01*
X95178571Y-73928571D01*
X94892857Y-73928571D01*
X94750000Y-74000000D01*
X94178571Y-73928571D02*
X93392857Y-73928571D01*
X94178571Y-74928571D01*
X93392857Y-74928571D01*
X92821428Y-74928571D02*
X92821428Y-73928571D01*
X92821428Y-74071428D02*
X92750000Y-74000000D01*
X92607142Y-73928571D01*
X92392857Y-73928571D01*
X92250000Y-74000000D01*
X92178571Y-74142857D01*
X92178571Y-74928571D01*
X92178571Y-74142857D02*
X92107142Y-74000000D01*
X91964285Y-73928571D01*
X91750000Y-73928571D01*
X91607142Y-74000000D01*
X91535714Y-74142857D01*
X91535714Y-74928571D01*
X90821428Y-74785714D02*
X90750000Y-74857142D01*
X90821428Y-74928571D01*
X90892857Y-74857142D01*
X90821428Y-74785714D01*
X90821428Y-74928571D01*
X89464285Y-74857142D02*
X89607142Y-74928571D01*
X89892857Y-74928571D01*
X90035714Y-74857142D01*
X90107142Y-74785714D01*
X90178571Y-74642857D01*
X90178571Y-74214285D01*
X90107142Y-74071428D01*
X90035714Y-74000000D01*
X89892857Y-73928571D01*
X89607142Y-73928571D01*
X89464285Y-74000000D01*
X88607142Y-74928571D02*
X88750000Y-74857142D01*
X88821428Y-74785714D01*
X88892857Y-74642857D01*
X88892857Y-74214285D01*
X88821428Y-74071428D01*
X88750000Y-74000000D01*
X88607142Y-73928571D01*
X88392857Y-73928571D01*
X88250000Y-74000000D01*
X88178571Y-74071428D01*
X88107142Y-74214285D01*
X88107142Y-74642857D01*
X88178571Y-74785714D01*
X88250000Y-74857142D01*
X88392857Y-74928571D01*
X88607142Y-74928571D01*
X87464285Y-74928571D02*
X87464285Y-73928571D01*
X87464285Y-74071428D02*
X87392857Y-74000000D01*
X87250000Y-73928571D01*
X87035714Y-73928571D01*
X86892857Y-74000000D01*
X86821428Y-74142857D01*
X86821428Y-74928571D01*
X86821428Y-74142857D02*
X86750000Y-74000000D01*
X86607142Y-73928571D01*
X86392857Y-73928571D01*
X86250000Y-74000000D01*
X86178571Y-74142857D01*
X86178571Y-74928571D01*
X154464285Y-53928571D02*
X154178571Y-54928571D01*
X153892857Y-54214285D01*
X153607142Y-54928571D01*
X153321428Y-53928571D01*
X152892857Y-53928571D02*
X152607142Y-54928571D01*
X152321428Y-54214285D01*
X152035714Y-54928571D01*
X151750000Y-53928571D01*
X151321428Y-53928571D02*
X151035714Y-54928571D01*
X150750000Y-54214285D01*
X150464285Y-54928571D01*
X150178571Y-53928571D01*
X149607142Y-54785714D02*
X149535714Y-54857142D01*
X149607142Y-54928571D01*
X149678571Y-54857142D01*
X149607142Y-54785714D01*
X149607142Y-54928571D01*
X148964285Y-54857142D02*
X148821428Y-54928571D01*
X148535714Y-54928571D01*
X148392857Y-54857142D01*
X148321428Y-54714285D01*
X148321428Y-54642857D01*
X148392857Y-54500000D01*
X148535714Y-54428571D01*
X148750000Y-54428571D01*
X148892857Y-54357142D01*
X148964285Y-54214285D01*
X148964285Y-54142857D01*
X148892857Y-54000000D01*
X148750000Y-53928571D01*
X148535714Y-53928571D01*
X148392857Y-54000000D01*
X147678571Y-54928571D02*
X147678571Y-53428571D01*
X147035714Y-54928571D02*
X147035714Y-54142857D01*
X147107142Y-54000000D01*
X147250000Y-53928571D01*
X147464285Y-53928571D01*
X147607142Y-54000000D01*
X147678571Y-54071428D01*
X146321428Y-54928571D02*
X146321428Y-53928571D01*
X146321428Y-54214285D02*
X146250000Y-54071428D01*
X146178571Y-54000000D01*
X146035714Y-53928571D01*
X145892857Y-53928571D01*
X144750000Y-54928571D02*
X144750000Y-53428571D01*
X144750000Y-54857142D02*
X144892857Y-54928571D01*
X145178571Y-54928571D01*
X145321428Y-54857142D01*
X145392857Y-54785714D01*
X145464285Y-54642857D01*
X145464285Y-54214285D01*
X145392857Y-54071428D01*
X145321428Y-54000000D01*
X145178571Y-53928571D01*
X144892857Y-53928571D01*
X144750000Y-54000000D01*
X144178571Y-53928571D02*
X143392857Y-53928571D01*
X144178571Y-54928571D01*
X143392857Y-54928571D01*
X142821428Y-54928571D02*
X142821428Y-53928571D01*
X142821428Y-54071428D02*
X142750000Y-54000000D01*
X142607142Y-53928571D01*
X142392857Y-53928571D01*
X142250000Y-54000000D01*
X142178571Y-54142857D01*
X142178571Y-54928571D01*
X142178571Y-54142857D02*
X142107142Y-54000000D01*
X141964285Y-53928571D01*
X141750000Y-53928571D01*
X141607142Y-54000000D01*
X141535714Y-54142857D01*
X141535714Y-54928571D01*
X140821428Y-54785714D02*
X140750000Y-54857142D01*
X140821428Y-54928571D01*
X140892857Y-54857142D01*
X140821428Y-54785714D01*
X140821428Y-54928571D01*
X139464285Y-54857142D02*
X139607142Y-54928571D01*
X139892857Y-54928571D01*
X140035714Y-54857142D01*
X140107142Y-54785714D01*
X140178571Y-54642857D01*
X140178571Y-54214285D01*
X140107142Y-54071428D01*
X140035714Y-54000000D01*
X139892857Y-53928571D01*
X139607142Y-53928571D01*
X139464285Y-54000000D01*
X138607142Y-54928571D02*
X138750000Y-54857142D01*
X138821428Y-54785714D01*
X138892857Y-54642857D01*
X138892857Y-54214285D01*
X138821428Y-54071428D01*
X138750000Y-54000000D01*
X138607142Y-53928571D01*
X138392857Y-53928571D01*
X138250000Y-54000000D01*
X138178571Y-54071428D01*
X138107142Y-54214285D01*
X138107142Y-54642857D01*
X138178571Y-54785714D01*
X138250000Y-54857142D01*
X138392857Y-54928571D01*
X138607142Y-54928571D01*
X137464285Y-54928571D02*
X137464285Y-53928571D01*
X137464285Y-54071428D02*
X137392857Y-54000000D01*
X137250000Y-53928571D01*
X137035714Y-53928571D01*
X136892857Y-54000000D01*
X136821428Y-54142857D01*
X136821428Y-54928571D01*
X136821428Y-54142857D02*
X136750000Y-54000000D01*
X136607142Y-53928571D01*
X136392857Y-53928571D01*
X136250000Y-54000000D01*
X136178571Y-54142857D01*
X136178571Y-54928571D01*
X104464285Y-53928571D02*
X104178571Y-54928571D01*
X103892857Y-54214285D01*
X103607142Y-54928571D01*
X103321428Y-53928571D01*
X102892857Y-53928571D02*
X102607142Y-54928571D01*
X102321428Y-54214285D01*
X102035714Y-54928571D01*
X101750000Y-53928571D01*
X101321428Y-53928571D02*
X101035714Y-54928571D01*
X100750000Y-54214285D01*
X100464285Y-54928571D01*
X100178571Y-53928571D01*
X99607142Y-54785714D02*
X99535714Y-54857142D01*
X99607142Y-54928571D01*
X99678571Y-54857142D01*
X99607142Y-54785714D01*
X99607142Y-54928571D01*
X98964285Y-54857142D02*
X98821428Y-54928571D01*
X98535714Y-54928571D01*
X98392857Y-54857142D01*
X98321428Y-54714285D01*
X98321428Y-54642857D01*
X98392857Y-54500000D01*
X98535714Y-54428571D01*
X98750000Y-54428571D01*
X98892857Y-54357142D01*
X98964285Y-54214285D01*
X98964285Y-54142857D01*
X98892857Y-54000000D01*
X98750000Y-53928571D01*
X98535714Y-53928571D01*
X98392857Y-54000000D01*
X97678571Y-54928571D02*
X97678571Y-53428571D01*
X97035714Y-54928571D02*
X97035714Y-54142857D01*
X97107142Y-54000000D01*
X97250000Y-53928571D01*
X97464285Y-53928571D01*
X97607142Y-54000000D01*
X97678571Y-54071428D01*
X96321428Y-54928571D02*
X96321428Y-53928571D01*
X96321428Y-54214285D02*
X96250000Y-54071428D01*
X96178571Y-54000000D01*
X96035714Y-53928571D01*
X95892857Y-53928571D01*
X94750000Y-54928571D02*
X94750000Y-53428571D01*
X94750000Y-54857142D02*
X94892857Y-54928571D01*
X95178571Y-54928571D01*
X95321428Y-54857142D01*
X95392857Y-54785714D01*
X95464285Y-54642857D01*
X95464285Y-54214285D01*
X95392857Y-54071428D01*
X95321428Y-54000000D01*
X95178571Y-53928571D01*
X94892857Y-53928571D01*
X94750000Y-54000000D01*
X94178571Y-53928571D02*
X93392857Y-53928571D01*
X94178571Y-54928571D01*
X93392857Y-54928571D01*
X92821428Y-54928571D02*
X92821428Y-53928571D01*
X92821428Y-54071428D02*
X92750000Y-54000000D01*
X92607142Y-53928571D01*
X92392857Y-53928571D01*
X92250000Y-54000000D01*
X92178571Y-54142857D01*
X92178571Y-54928571D01*
X92178571Y-54142857D02*
X92107142Y-54000000D01*
X91964285Y-53928571D01*
X91750000Y-53928571D01*
X91607142Y-54000000D01*
X91535714Y-54142857D01*
X91535714Y-54928571D01*
X90821428Y-54785714D02*
X90750000Y-54857142D01*
X90821428Y-54928571D01*
X90892857Y-54857142D01*
X90821428Y-54785714D01*
X90821428Y-54928571D01*
X89464285Y-54857142D02*
X89607142Y-54928571D01*
X89892857Y-54928571D01*
X90035714Y-54857142D01*
X90107142Y-54785714D01*
X90178571Y-54642857D01*
X90178571Y-54214285D01*
X90107142Y-54071428D01*
X90035714Y-54000000D01*
X89892857Y-53928571D01*
X89607142Y-53928571D01*
X89464285Y-54000000D01*
X88607142Y-54928571D02*
X88750000Y-54857142D01*
X88821428Y-54785714D01*
X88892857Y-54642857D01*
X88892857Y-54214285D01*
X88821428Y-54071428D01*
X88750000Y-54000000D01*
X88607142Y-53928571D01*
X88392857Y-53928571D01*
X88250000Y-54000000D01*
X88178571Y-54071428D01*
X88107142Y-54214285D01*
X88107142Y-54642857D01*
X88178571Y-54785714D01*
X88250000Y-54857142D01*
X88392857Y-54928571D01*
X88607142Y-54928571D01*
X87464285Y-54928571D02*
X87464285Y-53928571D01*
X87464285Y-54071428D02*
X87392857Y-54000000D01*
X87250000Y-53928571D01*
X87035714Y-53928571D01*
X86892857Y-54000000D01*
X86821428Y-54142857D01*
X86821428Y-54928571D01*
X86821428Y-54142857D02*
X86750000Y-54000000D01*
X86607142Y-53928571D01*
X86392857Y-53928571D01*
X86250000Y-54000000D01*
X86178571Y-54142857D01*
X86178571Y-54928571D01*
D11*
%TO.C,G1*%
G36*
X139911550Y-126144707D02*
G01*
X138832084Y-126340377D01*
X137833879Y-126522039D01*
X136962911Y-126681269D01*
X136265160Y-126809640D01*
X135786604Y-126898729D01*
X135589696Y-126936623D01*
X135312589Y-127031269D01*
X135192331Y-127229158D01*
X135166363Y-127626776D01*
X135188528Y-128007971D01*
X135243768Y-128216807D01*
X135264360Y-128230303D01*
X135435570Y-128203450D01*
X135869893Y-128127650D01*
X136527714Y-128010036D01*
X137369419Y-127857745D01*
X138355393Y-127677911D01*
X139446021Y-127477669D01*
X139574663Y-127453968D01*
X143786969Y-126677634D01*
X147999276Y-127453968D01*
X149104042Y-127656459D01*
X150113046Y-127839259D01*
X150985726Y-127995193D01*
X151681519Y-128117081D01*
X152159864Y-128197748D01*
X152380199Y-128230014D01*
X152386549Y-128230303D01*
X152503464Y-128094969D01*
X152560375Y-127761512D01*
X152561515Y-127700600D01*
X152523638Y-127319329D01*
X152431152Y-127092479D01*
X152418231Y-127082343D01*
X152234780Y-127032464D01*
X151788462Y-126935885D01*
X151119400Y-126800543D01*
X150267718Y-126634377D01*
X149273540Y-126445327D01*
X148176990Y-126241329D01*
X148042509Y-126216604D01*
X143810070Y-125439420D01*
X139911550Y-126144707D01*
G37*
X139911550Y-126144707D02*
X138832084Y-126340377D01*
X137833879Y-126522039D01*
X136962911Y-126681269D01*
X136265160Y-126809640D01*
X135786604Y-126898729D01*
X135589696Y-126936623D01*
X135312589Y-127031269D01*
X135192331Y-127229158D01*
X135166363Y-127626776D01*
X135188528Y-128007971D01*
X135243768Y-128216807D01*
X135264360Y-128230303D01*
X135435570Y-128203450D01*
X135869893Y-128127650D01*
X136527714Y-128010036D01*
X137369419Y-127857745D01*
X138355393Y-127677911D01*
X139446021Y-127477669D01*
X139574663Y-127453968D01*
X143786969Y-126677634D01*
X147999276Y-127453968D01*
X149104042Y-127656459D01*
X150113046Y-127839259D01*
X150985726Y-127995193D01*
X151681519Y-128117081D01*
X152159864Y-128197748D01*
X152380199Y-128230014D01*
X152386549Y-128230303D01*
X152503464Y-128094969D01*
X152560375Y-127761512D01*
X152561515Y-127700600D01*
X152523638Y-127319329D01*
X152431152Y-127092479D01*
X152418231Y-127082343D01*
X152234780Y-127032464D01*
X151788462Y-126935885D01*
X151119400Y-126800543D01*
X150267718Y-126634377D01*
X149273540Y-126445327D01*
X148176990Y-126241329D01*
X148042509Y-126216604D01*
X143810070Y-125439420D01*
X139911550Y-126144707D01*
G36*
X137986380Y-129330757D02*
G01*
X137774967Y-129447322D01*
X137598353Y-129729463D01*
X137446399Y-130077575D01*
X137250072Y-130504146D01*
X137084895Y-130783649D01*
X137013636Y-130847272D01*
X136897089Y-130717378D01*
X136717194Y-130383147D01*
X136580873Y-130077575D01*
X136378929Y-129630791D01*
X136200796Y-129401604D01*
X135965477Y-129318124D01*
X135713682Y-129307878D01*
X135166363Y-129307878D01*
X135166363Y-132694545D01*
X135544468Y-132694545D01*
X135740176Y-132676699D01*
X135857127Y-132579298D01*
X135920276Y-132336552D01*
X135954578Y-131882668D01*
X135967801Y-131578484D01*
X136013030Y-130462424D01*
X136378350Y-131270606D01*
X136671514Y-131808425D01*
X136932577Y-132060581D01*
X137013636Y-132078787D01*
X137261024Y-131928941D01*
X137544287Y-131488630D01*
X137648922Y-131270606D01*
X138014242Y-130462424D01*
X138059471Y-131578484D01*
X138088841Y-132154028D01*
X138135356Y-132487584D01*
X138223972Y-132644945D01*
X138379644Y-132691902D01*
X138482804Y-132694545D01*
X138860909Y-132694545D01*
X138860909Y-129307878D01*
X138313590Y-129307878D01*
X137986380Y-129330757D01*
G37*
X137986380Y-129330757D02*
X137774967Y-129447322D01*
X137598353Y-129729463D01*
X137446399Y-130077575D01*
X137250072Y-130504146D01*
X137084895Y-130783649D01*
X137013636Y-130847272D01*
X136897089Y-130717378D01*
X136717194Y-130383147D01*
X136580873Y-130077575D01*
X136378929Y-129630791D01*
X136200796Y-129401604D01*
X135965477Y-129318124D01*
X135713682Y-129307878D01*
X135166363Y-129307878D01*
X135166363Y-132694545D01*
X135544468Y-132694545D01*
X135740176Y-132676699D01*
X135857127Y-132579298D01*
X135920276Y-132336552D01*
X135954578Y-131882668D01*
X135967801Y-131578484D01*
X136013030Y-130462424D01*
X136378350Y-131270606D01*
X136671514Y-131808425D01*
X136932577Y-132060581D01*
X137013636Y-132078787D01*
X137261024Y-131928941D01*
X137544287Y-131488630D01*
X137648922Y-131270606D01*
X138014242Y-130462424D01*
X138059471Y-131578484D01*
X138088841Y-132154028D01*
X138135356Y-132487584D01*
X138223972Y-132644945D01*
X138379644Y-132691902D01*
X138482804Y-132694545D01*
X138860909Y-132694545D01*
X138860909Y-129307878D01*
X138313590Y-129307878D01*
X137986380Y-129330757D01*
G36*
X140241556Y-129324563D02*
G01*
X139760835Y-129397713D01*
X139552993Y-129561976D01*
X139601955Y-129851995D01*
X139891647Y-130302417D01*
X140306545Y-130826753D01*
X140691725Y-131307948D01*
X140988368Y-131698313D01*
X141151800Y-131938158D01*
X141170000Y-131980469D01*
X141030751Y-132034323D01*
X140671561Y-132070034D01*
X140323333Y-132078787D01*
X139834046Y-132092151D01*
X139579155Y-132149929D01*
X139485696Y-132278654D01*
X139476666Y-132386666D01*
X139498749Y-132529762D01*
X139603072Y-132620073D01*
X139846746Y-132669624D01*
X140286880Y-132690438D01*
X140939090Y-132694545D01*
X141622668Y-132688681D01*
X142054507Y-132664080D01*
X142290639Y-132610229D01*
X142387096Y-132516613D01*
X142401515Y-132420136D01*
X142307511Y-132182397D01*
X142056804Y-131785351D01*
X141696352Y-131300582D01*
X141543189Y-131111651D01*
X140684864Y-130077575D01*
X141543189Y-130077575D01*
X142032249Y-130067900D01*
X142288396Y-130016496D01*
X142386489Y-129889801D01*
X142401515Y-129692727D01*
X142390541Y-129510799D01*
X142318190Y-129397724D01*
X142125320Y-129337130D01*
X141752785Y-129312646D01*
X141141444Y-129307900D01*
X141011229Y-129307878D01*
X140241556Y-129324563D01*
G37*
X140241556Y-129324563D02*
X139760835Y-129397713D01*
X139552993Y-129561976D01*
X139601955Y-129851995D01*
X139891647Y-130302417D01*
X140306545Y-130826753D01*
X140691725Y-131307948D01*
X140988368Y-131698313D01*
X141151800Y-131938158D01*
X141170000Y-131980469D01*
X141030751Y-132034323D01*
X140671561Y-132070034D01*
X140323333Y-132078787D01*
X139834046Y-132092151D01*
X139579155Y-132149929D01*
X139485696Y-132278654D01*
X139476666Y-132386666D01*
X139498749Y-132529762D01*
X139603072Y-132620073D01*
X139846746Y-132669624D01*
X140286880Y-132690438D01*
X140939090Y-132694545D01*
X141622668Y-132688681D01*
X142054507Y-132664080D01*
X142290639Y-132610229D01*
X142387096Y-132516613D01*
X142401515Y-132420136D01*
X142307511Y-132182397D01*
X142056804Y-131785351D01*
X141696352Y-131300582D01*
X141543189Y-131111651D01*
X140684864Y-130077575D01*
X141543189Y-130077575D01*
X142032249Y-130067900D01*
X142288396Y-130016496D01*
X142386489Y-129889801D01*
X142401515Y-129692727D01*
X142390541Y-129510799D01*
X142318190Y-129397724D01*
X142125320Y-129337130D01*
X141752785Y-129312646D01*
X141141444Y-129307900D01*
X141011229Y-129307878D01*
X140241556Y-129324563D01*
G36*
X145287878Y-129308737D02*
G01*
X144321988Y-129402391D01*
X143596338Y-129678210D01*
X143115671Y-130132748D01*
X142884733Y-130762560D01*
X142863333Y-131069914D01*
X142983661Y-131744473D01*
X143346950Y-132237267D01*
X143956656Y-132550801D01*
X144816235Y-132687580D01*
X145105475Y-132694545D01*
X145942121Y-132694545D01*
X145942121Y-131081114D01*
X145018484Y-131081114D01*
X145018484Y-132084653D01*
X144595151Y-131983524D01*
X144211115Y-131855649D01*
X143979393Y-131730833D01*
X143828422Y-131446134D01*
X143795651Y-131018098D01*
X143876210Y-130585602D01*
X144028874Y-130319480D01*
X144372390Y-130126027D01*
X144644632Y-130077575D01*
X144845454Y-130096460D01*
X144957442Y-130199363D01*
X145006441Y-130455657D01*
X145018295Y-130934715D01*
X145018484Y-131081114D01*
X145942121Y-131081114D01*
X145942121Y-129307878D01*
X145287878Y-129308737D01*
G37*
X145287878Y-129308737D02*
X144321988Y-129402391D01*
X143596338Y-129678210D01*
X143115671Y-130132748D01*
X142884733Y-130762560D01*
X142863333Y-131069914D01*
X142983661Y-131744473D01*
X143346950Y-132237267D01*
X143956656Y-132550801D01*
X144816235Y-132687580D01*
X145105475Y-132694545D01*
X145942121Y-132694545D01*
X145942121Y-131081114D01*
X145018484Y-131081114D01*
X145018484Y-132084653D01*
X144595151Y-131983524D01*
X144211115Y-131855649D01*
X143979393Y-131730833D01*
X143828422Y-131446134D01*
X143795651Y-131018098D01*
X143876210Y-130585602D01*
X144028874Y-130319480D01*
X144372390Y-130126027D01*
X144644632Y-130077575D01*
X144845454Y-130096460D01*
X144957442Y-130199363D01*
X145006441Y-130455657D01*
X145018295Y-130934715D01*
X145018484Y-131081114D01*
X145942121Y-131081114D01*
X145942121Y-129307878D01*
X145287878Y-129308737D01*
G36*
X148011891Y-129364157D02*
G01*
X147426456Y-129517601D01*
X147045358Y-129745123D01*
X146986702Y-129817812D01*
X146872926Y-130255003D01*
X147001502Y-130713021D01*
X147110068Y-130862081D01*
X147244110Y-131051740D01*
X147236149Y-131247786D01*
X147068135Y-131550589D01*
X146956128Y-131718119D01*
X146660165Y-132208523D01*
X146580986Y-132512364D01*
X146719438Y-132662528D01*
X146981212Y-132694129D01*
X147306406Y-132624237D01*
X147564776Y-132367405D01*
X147712424Y-132118673D01*
X147965180Y-131746889D01*
X148221816Y-131518078D01*
X148289696Y-131492044D01*
X148464385Y-131513209D01*
X148543196Y-131712421D01*
X148559090Y-132067500D01*
X148576485Y-132466995D01*
X148671636Y-132646410D01*
X148908995Y-132693258D01*
X149020909Y-132694545D01*
X149482727Y-132694545D01*
X149482727Y-130473130D01*
X148559090Y-130473130D01*
X148508836Y-130761451D01*
X148305968Y-130829190D01*
X148212727Y-130819494D01*
X147901515Y-130644194D01*
X147817172Y-130423939D01*
X147837820Y-130165224D01*
X148057492Y-130080681D01*
X148163535Y-130077575D01*
X148461204Y-130136573D01*
X148556171Y-130375294D01*
X148559090Y-130473130D01*
X149482727Y-130473130D01*
X149482727Y-129307878D01*
X148723051Y-129307878D01*
X148011891Y-129364157D01*
G37*
X148011891Y-129364157D02*
X147426456Y-129517601D01*
X147045358Y-129745123D01*
X146986702Y-129817812D01*
X146872926Y-130255003D01*
X147001502Y-130713021D01*
X147110068Y-130862081D01*
X147244110Y-131051740D01*
X147236149Y-131247786D01*
X147068135Y-131550589D01*
X146956128Y-131718119D01*
X146660165Y-132208523D01*
X146580986Y-132512364D01*
X146719438Y-132662528D01*
X146981212Y-132694129D01*
X147306406Y-132624237D01*
X147564776Y-132367405D01*
X147712424Y-132118673D01*
X147965180Y-131746889D01*
X148221816Y-131518078D01*
X148289696Y-131492044D01*
X148464385Y-131513209D01*
X148543196Y-131712421D01*
X148559090Y-132067500D01*
X148576485Y-132466995D01*
X148671636Y-132646410D01*
X148908995Y-132693258D01*
X149020909Y-132694545D01*
X149482727Y-132694545D01*
X149482727Y-130473130D01*
X148559090Y-130473130D01*
X148508836Y-130761451D01*
X148305968Y-130829190D01*
X148212727Y-130819494D01*
X147901515Y-130644194D01*
X147817172Y-130423939D01*
X147837820Y-130165224D01*
X148057492Y-130080681D01*
X148163535Y-130077575D01*
X148461204Y-130136573D01*
X148556171Y-130375294D01*
X148559090Y-130473130D01*
X149482727Y-130473130D01*
X149482727Y-129307878D01*
X148723051Y-129307878D01*
X148011891Y-129364157D01*
G36*
X152573272Y-129332194D02*
G01*
X152441634Y-129463962D01*
X152408304Y-129791414D01*
X152407575Y-129923636D01*
X152407575Y-130539394D01*
X151176060Y-130539394D01*
X151176060Y-129913411D01*
X151159970Y-129516795D01*
X151072498Y-129347616D01*
X150854841Y-129325687D01*
X150752727Y-129336138D01*
X150329393Y-129384848D01*
X150285701Y-131039697D01*
X150242008Y-132694545D01*
X150709034Y-132694545D01*
X150996185Y-132674901D01*
X151132186Y-132560245D01*
X151173389Y-132266991D01*
X151176060Y-132001818D01*
X151176060Y-131309090D01*
X152407575Y-131309090D01*
X152407575Y-132001818D01*
X152420963Y-132427786D01*
X152498259Y-132629539D01*
X152695168Y-132690629D01*
X152869393Y-132694545D01*
X153331212Y-132694545D01*
X153331212Y-129307878D01*
X152869393Y-129307878D01*
X152573272Y-129332194D01*
G37*
X152573272Y-129332194D02*
X152441634Y-129463962D01*
X152408304Y-129791414D01*
X152407575Y-129923636D01*
X152407575Y-130539394D01*
X151176060Y-130539394D01*
X151176060Y-129913411D01*
X151159970Y-129516795D01*
X151072498Y-129347616D01*
X150854841Y-129325687D01*
X150752727Y-129336138D01*
X150329393Y-129384848D01*
X150285701Y-131039697D01*
X150242008Y-132694545D01*
X150709034Y-132694545D01*
X150996185Y-132674901D01*
X151132186Y-132560245D01*
X151173389Y-132266991D01*
X151176060Y-132001818D01*
X151176060Y-131309090D01*
X152407575Y-131309090D01*
X152407575Y-132001818D01*
X152420963Y-132427786D01*
X152498259Y-132629539D01*
X152695168Y-132690629D01*
X152869393Y-132694545D01*
X153331212Y-132694545D01*
X153331212Y-129307878D01*
X152869393Y-129307878D01*
X152573272Y-129332194D01*
G36*
X154139393Y-126173146D02*
G01*
X153709882Y-126560202D01*
X153467448Y-126847202D01*
X153359048Y-127126787D01*
X153331642Y-127491599D01*
X153331212Y-127584661D01*
X153331212Y-128296755D01*
X154143288Y-127494766D01*
X154955365Y-126692777D01*
X155451025Y-127188438D01*
X155946686Y-127684098D01*
X155095270Y-128544492D01*
X154243854Y-129404885D01*
X154287836Y-131060399D01*
X154331818Y-132715914D01*
X154755151Y-132273473D01*
X154983883Y-132000547D01*
X155111695Y-131717593D01*
X155167059Y-131323211D01*
X155178484Y-130765742D01*
X155178484Y-129700453D01*
X157179686Y-127683799D01*
X156063631Y-126578762D01*
X154947575Y-125473725D01*
X154139393Y-126173146D01*
G37*
X154139393Y-126173146D02*
X153709882Y-126560202D01*
X153467448Y-126847202D01*
X153359048Y-127126787D01*
X153331642Y-127491599D01*
X153331212Y-127584661D01*
X153331212Y-128296755D01*
X154143288Y-127494766D01*
X154955365Y-126692777D01*
X155451025Y-127188438D01*
X155946686Y-127684098D01*
X155095270Y-128544492D01*
X154243854Y-129404885D01*
X154287836Y-131060399D01*
X154331818Y-132715914D01*
X154755151Y-132273473D01*
X154983883Y-132000547D01*
X155111695Y-131717593D01*
X155167059Y-131323211D01*
X155178484Y-130765742D01*
X155178484Y-129700453D01*
X157179686Y-127683799D01*
X156063631Y-126578762D01*
X154947575Y-125473725D01*
X154139393Y-126173146D01*
G36*
X104139393Y-126173146D02*
G01*
X103709882Y-126560202D01*
X103467448Y-126847202D01*
X103359048Y-127126787D01*
X103331642Y-127491599D01*
X103331212Y-127584661D01*
X103331212Y-128296755D01*
X104143288Y-127494766D01*
X104955365Y-126692777D01*
X105451025Y-127188438D01*
X105946686Y-127684098D01*
X105095270Y-128544492D01*
X104243854Y-129404885D01*
X104287836Y-131060399D01*
X104331818Y-132715914D01*
X104755151Y-132273473D01*
X104983883Y-132000547D01*
X105111695Y-131717593D01*
X105167059Y-131323211D01*
X105178484Y-130765742D01*
X105178484Y-129700453D01*
X107179686Y-127683799D01*
X106063631Y-126578762D01*
X104947575Y-125473725D01*
X104139393Y-126173146D01*
G37*
X104139393Y-126173146D02*
X103709882Y-126560202D01*
X103467448Y-126847202D01*
X103359048Y-127126787D01*
X103331642Y-127491599D01*
X103331212Y-127584661D01*
X103331212Y-128296755D01*
X104143288Y-127494766D01*
X104955365Y-126692777D01*
X105451025Y-127188438D01*
X105946686Y-127684098D01*
X105095270Y-128544492D01*
X104243854Y-129404885D01*
X104287836Y-131060399D01*
X104331818Y-132715914D01*
X104755151Y-132273473D01*
X104983883Y-132000547D01*
X105111695Y-131717593D01*
X105167059Y-131323211D01*
X105178484Y-130765742D01*
X105178484Y-129700453D01*
X107179686Y-127683799D01*
X106063631Y-126578762D01*
X104947575Y-125473725D01*
X104139393Y-126173146D01*
G36*
X102573272Y-129332194D02*
G01*
X102441634Y-129463962D01*
X102408304Y-129791414D01*
X102407575Y-129923636D01*
X102407575Y-130539394D01*
X101176060Y-130539394D01*
X101176060Y-129913411D01*
X101159970Y-129516795D01*
X101072498Y-129347616D01*
X100854841Y-129325687D01*
X100752727Y-129336138D01*
X100329393Y-129384848D01*
X100285701Y-131039697D01*
X100242008Y-132694545D01*
X100709034Y-132694545D01*
X100996185Y-132674901D01*
X101132186Y-132560245D01*
X101173389Y-132266991D01*
X101176060Y-132001818D01*
X101176060Y-131309090D01*
X102407575Y-131309090D01*
X102407575Y-132001818D01*
X102420963Y-132427786D01*
X102498259Y-132629539D01*
X102695168Y-132690629D01*
X102869393Y-132694545D01*
X103331212Y-132694545D01*
X103331212Y-129307878D01*
X102869393Y-129307878D01*
X102573272Y-129332194D01*
G37*
X102573272Y-129332194D02*
X102441634Y-129463962D01*
X102408304Y-129791414D01*
X102407575Y-129923636D01*
X102407575Y-130539394D01*
X101176060Y-130539394D01*
X101176060Y-129913411D01*
X101159970Y-129516795D01*
X101072498Y-129347616D01*
X100854841Y-129325687D01*
X100752727Y-129336138D01*
X100329393Y-129384848D01*
X100285701Y-131039697D01*
X100242008Y-132694545D01*
X100709034Y-132694545D01*
X100996185Y-132674901D01*
X101132186Y-132560245D01*
X101173389Y-132266991D01*
X101176060Y-132001818D01*
X101176060Y-131309090D01*
X102407575Y-131309090D01*
X102407575Y-132001818D01*
X102420963Y-132427786D01*
X102498259Y-132629539D01*
X102695168Y-132690629D01*
X102869393Y-132694545D01*
X103331212Y-132694545D01*
X103331212Y-129307878D01*
X102869393Y-129307878D01*
X102573272Y-129332194D01*
G36*
X98011891Y-129364157D02*
G01*
X97426456Y-129517601D01*
X97045358Y-129745123D01*
X96986702Y-129817812D01*
X96872926Y-130255003D01*
X97001502Y-130713021D01*
X97110068Y-130862081D01*
X97244110Y-131051740D01*
X97236149Y-131247786D01*
X97068135Y-131550589D01*
X96956128Y-131718119D01*
X96660165Y-132208523D01*
X96580986Y-132512364D01*
X96719438Y-132662528D01*
X96981212Y-132694129D01*
X97306406Y-132624237D01*
X97564776Y-132367405D01*
X97712424Y-132118673D01*
X97965180Y-131746889D01*
X98221816Y-131518078D01*
X98289696Y-131492044D01*
X98464385Y-131513209D01*
X98543196Y-131712421D01*
X98559090Y-132067500D01*
X98576485Y-132466995D01*
X98671636Y-132646410D01*
X98908995Y-132693258D01*
X99020909Y-132694545D01*
X99482727Y-132694545D01*
X99482727Y-130473130D01*
X98559090Y-130473130D01*
X98508836Y-130761451D01*
X98305968Y-130829190D01*
X98212727Y-130819494D01*
X97901515Y-130644194D01*
X97817172Y-130423939D01*
X97837820Y-130165224D01*
X98057492Y-130080681D01*
X98163535Y-130077575D01*
X98461204Y-130136573D01*
X98556171Y-130375294D01*
X98559090Y-130473130D01*
X99482727Y-130473130D01*
X99482727Y-129307878D01*
X98723051Y-129307878D01*
X98011891Y-129364157D01*
G37*
X98011891Y-129364157D02*
X97426456Y-129517601D01*
X97045358Y-129745123D01*
X96986702Y-129817812D01*
X96872926Y-130255003D01*
X97001502Y-130713021D01*
X97110068Y-130862081D01*
X97244110Y-131051740D01*
X97236149Y-131247786D01*
X97068135Y-131550589D01*
X96956128Y-131718119D01*
X96660165Y-132208523D01*
X96580986Y-132512364D01*
X96719438Y-132662528D01*
X96981212Y-132694129D01*
X97306406Y-132624237D01*
X97564776Y-132367405D01*
X97712424Y-132118673D01*
X97965180Y-131746889D01*
X98221816Y-131518078D01*
X98289696Y-131492044D01*
X98464385Y-131513209D01*
X98543196Y-131712421D01*
X98559090Y-132067500D01*
X98576485Y-132466995D01*
X98671636Y-132646410D01*
X98908995Y-132693258D01*
X99020909Y-132694545D01*
X99482727Y-132694545D01*
X99482727Y-130473130D01*
X98559090Y-130473130D01*
X98508836Y-130761451D01*
X98305968Y-130829190D01*
X98212727Y-130819494D01*
X97901515Y-130644194D01*
X97817172Y-130423939D01*
X97837820Y-130165224D01*
X98057492Y-130080681D01*
X98163535Y-130077575D01*
X98461204Y-130136573D01*
X98556171Y-130375294D01*
X98559090Y-130473130D01*
X99482727Y-130473130D01*
X99482727Y-129307878D01*
X98723051Y-129307878D01*
X98011891Y-129364157D01*
G36*
X95287878Y-129308737D02*
G01*
X94321988Y-129402391D01*
X93596338Y-129678210D01*
X93115671Y-130132748D01*
X92884733Y-130762560D01*
X92863333Y-131069914D01*
X92983661Y-131744473D01*
X93346950Y-132237267D01*
X93956656Y-132550801D01*
X94816235Y-132687580D01*
X95105475Y-132694545D01*
X95942121Y-132694545D01*
X95942121Y-131081114D01*
X95018484Y-131081114D01*
X95018484Y-132084653D01*
X94595151Y-131983524D01*
X94211115Y-131855649D01*
X93979393Y-131730833D01*
X93828422Y-131446134D01*
X93795651Y-131018098D01*
X93876210Y-130585602D01*
X94028874Y-130319480D01*
X94372390Y-130126027D01*
X94644632Y-130077575D01*
X94845454Y-130096460D01*
X94957442Y-130199363D01*
X95006441Y-130455657D01*
X95018295Y-130934715D01*
X95018484Y-131081114D01*
X95942121Y-131081114D01*
X95942121Y-129307878D01*
X95287878Y-129308737D01*
G37*
X95287878Y-129308737D02*
X94321988Y-129402391D01*
X93596338Y-129678210D01*
X93115671Y-130132748D01*
X92884733Y-130762560D01*
X92863333Y-131069914D01*
X92983661Y-131744473D01*
X93346950Y-132237267D01*
X93956656Y-132550801D01*
X94816235Y-132687580D01*
X95105475Y-132694545D01*
X95942121Y-132694545D01*
X95942121Y-131081114D01*
X95018484Y-131081114D01*
X95018484Y-132084653D01*
X94595151Y-131983524D01*
X94211115Y-131855649D01*
X93979393Y-131730833D01*
X93828422Y-131446134D01*
X93795651Y-131018098D01*
X93876210Y-130585602D01*
X94028874Y-130319480D01*
X94372390Y-130126027D01*
X94644632Y-130077575D01*
X94845454Y-130096460D01*
X94957442Y-130199363D01*
X95006441Y-130455657D01*
X95018295Y-130934715D01*
X95018484Y-131081114D01*
X95942121Y-131081114D01*
X95942121Y-129307878D01*
X95287878Y-129308737D01*
G36*
X90241556Y-129324563D02*
G01*
X89760835Y-129397713D01*
X89552993Y-129561976D01*
X89601955Y-129851995D01*
X89891647Y-130302417D01*
X90306545Y-130826753D01*
X90691725Y-131307948D01*
X90988368Y-131698313D01*
X91151800Y-131938158D01*
X91170000Y-131980469D01*
X91030751Y-132034323D01*
X90671561Y-132070034D01*
X90323333Y-132078787D01*
X89834046Y-132092151D01*
X89579155Y-132149929D01*
X89485696Y-132278654D01*
X89476666Y-132386666D01*
X89498749Y-132529762D01*
X89603072Y-132620073D01*
X89846746Y-132669624D01*
X90286880Y-132690438D01*
X90939090Y-132694545D01*
X91622668Y-132688681D01*
X92054507Y-132664080D01*
X92290639Y-132610229D01*
X92387096Y-132516613D01*
X92401515Y-132420136D01*
X92307511Y-132182397D01*
X92056804Y-131785351D01*
X91696352Y-131300582D01*
X91543189Y-131111651D01*
X90684864Y-130077575D01*
X91543189Y-130077575D01*
X92032249Y-130067900D01*
X92288396Y-130016496D01*
X92386489Y-129889801D01*
X92401515Y-129692727D01*
X92390541Y-129510799D01*
X92318190Y-129397724D01*
X92125320Y-129337130D01*
X91752785Y-129312646D01*
X91141444Y-129307900D01*
X91011229Y-129307878D01*
X90241556Y-129324563D01*
G37*
X90241556Y-129324563D02*
X89760835Y-129397713D01*
X89552993Y-129561976D01*
X89601955Y-129851995D01*
X89891647Y-130302417D01*
X90306545Y-130826753D01*
X90691725Y-131307948D01*
X90988368Y-131698313D01*
X91151800Y-131938158D01*
X91170000Y-131980469D01*
X91030751Y-132034323D01*
X90671561Y-132070034D01*
X90323333Y-132078787D01*
X89834046Y-132092151D01*
X89579155Y-132149929D01*
X89485696Y-132278654D01*
X89476666Y-132386666D01*
X89498749Y-132529762D01*
X89603072Y-132620073D01*
X89846746Y-132669624D01*
X90286880Y-132690438D01*
X90939090Y-132694545D01*
X91622668Y-132688681D01*
X92054507Y-132664080D01*
X92290639Y-132610229D01*
X92387096Y-132516613D01*
X92401515Y-132420136D01*
X92307511Y-132182397D01*
X92056804Y-131785351D01*
X91696352Y-131300582D01*
X91543189Y-131111651D01*
X90684864Y-130077575D01*
X91543189Y-130077575D01*
X92032249Y-130067900D01*
X92288396Y-130016496D01*
X92386489Y-129889801D01*
X92401515Y-129692727D01*
X92390541Y-129510799D01*
X92318190Y-129397724D01*
X92125320Y-129337130D01*
X91752785Y-129312646D01*
X91141444Y-129307900D01*
X91011229Y-129307878D01*
X90241556Y-129324563D01*
G36*
X87986380Y-129330757D02*
G01*
X87774967Y-129447322D01*
X87598353Y-129729463D01*
X87446399Y-130077575D01*
X87250072Y-130504146D01*
X87084895Y-130783649D01*
X87013636Y-130847272D01*
X86897089Y-130717378D01*
X86717194Y-130383147D01*
X86580873Y-130077575D01*
X86378929Y-129630791D01*
X86200796Y-129401604D01*
X85965477Y-129318124D01*
X85713682Y-129307878D01*
X85166363Y-129307878D01*
X85166363Y-132694545D01*
X85544468Y-132694545D01*
X85740176Y-132676699D01*
X85857127Y-132579298D01*
X85920276Y-132336552D01*
X85954578Y-131882668D01*
X85967801Y-131578484D01*
X86013030Y-130462424D01*
X86378350Y-131270606D01*
X86671514Y-131808425D01*
X86932577Y-132060581D01*
X87013636Y-132078787D01*
X87261024Y-131928941D01*
X87544287Y-131488630D01*
X87648922Y-131270606D01*
X88014242Y-130462424D01*
X88059471Y-131578484D01*
X88088841Y-132154028D01*
X88135356Y-132487584D01*
X88223972Y-132644945D01*
X88379644Y-132691902D01*
X88482804Y-132694545D01*
X88860909Y-132694545D01*
X88860909Y-129307878D01*
X88313590Y-129307878D01*
X87986380Y-129330757D01*
G37*
X87986380Y-129330757D02*
X87774967Y-129447322D01*
X87598353Y-129729463D01*
X87446399Y-130077575D01*
X87250072Y-130504146D01*
X87084895Y-130783649D01*
X87013636Y-130847272D01*
X86897089Y-130717378D01*
X86717194Y-130383147D01*
X86580873Y-130077575D01*
X86378929Y-129630791D01*
X86200796Y-129401604D01*
X85965477Y-129318124D01*
X85713682Y-129307878D01*
X85166363Y-129307878D01*
X85166363Y-132694545D01*
X85544468Y-132694545D01*
X85740176Y-132676699D01*
X85857127Y-132579298D01*
X85920276Y-132336552D01*
X85954578Y-131882668D01*
X85967801Y-131578484D01*
X86013030Y-130462424D01*
X86378350Y-131270606D01*
X86671514Y-131808425D01*
X86932577Y-132060581D01*
X87013636Y-132078787D01*
X87261024Y-131928941D01*
X87544287Y-131488630D01*
X87648922Y-131270606D01*
X88014242Y-130462424D01*
X88059471Y-131578484D01*
X88088841Y-132154028D01*
X88135356Y-132487584D01*
X88223972Y-132644945D01*
X88379644Y-132691902D01*
X88482804Y-132694545D01*
X88860909Y-132694545D01*
X88860909Y-129307878D01*
X88313590Y-129307878D01*
X87986380Y-129330757D01*
G36*
X89911550Y-126144707D02*
G01*
X88832084Y-126340377D01*
X87833879Y-126522039D01*
X86962911Y-126681269D01*
X86265160Y-126809640D01*
X85786604Y-126898729D01*
X85589696Y-126936623D01*
X85312589Y-127031269D01*
X85192331Y-127229158D01*
X85166363Y-127626776D01*
X85188528Y-128007971D01*
X85243768Y-128216807D01*
X85264360Y-128230303D01*
X85435570Y-128203450D01*
X85869893Y-128127650D01*
X86527714Y-128010036D01*
X87369419Y-127857745D01*
X88355393Y-127677911D01*
X89446021Y-127477669D01*
X89574663Y-127453968D01*
X93786969Y-126677634D01*
X97999276Y-127453968D01*
X99104042Y-127656459D01*
X100113046Y-127839259D01*
X100985726Y-127995193D01*
X101681519Y-128117081D01*
X102159864Y-128197748D01*
X102380199Y-128230014D01*
X102386549Y-128230303D01*
X102503464Y-128094969D01*
X102560375Y-127761512D01*
X102561515Y-127700600D01*
X102523638Y-127319329D01*
X102431152Y-127092479D01*
X102418231Y-127082343D01*
X102234780Y-127032464D01*
X101788462Y-126935885D01*
X101119400Y-126800543D01*
X100267718Y-126634377D01*
X99273540Y-126445327D01*
X98176990Y-126241329D01*
X98042509Y-126216604D01*
X93810070Y-125439420D01*
X89911550Y-126144707D01*
G37*
X89911550Y-126144707D02*
X88832084Y-126340377D01*
X87833879Y-126522039D01*
X86962911Y-126681269D01*
X86265160Y-126809640D01*
X85786604Y-126898729D01*
X85589696Y-126936623D01*
X85312589Y-127031269D01*
X85192331Y-127229158D01*
X85166363Y-127626776D01*
X85188528Y-128007971D01*
X85243768Y-128216807D01*
X85264360Y-128230303D01*
X85435570Y-128203450D01*
X85869893Y-128127650D01*
X86527714Y-128010036D01*
X87369419Y-127857745D01*
X88355393Y-127677911D01*
X89446021Y-127477669D01*
X89574663Y-127453968D01*
X93786969Y-126677634D01*
X97999276Y-127453968D01*
X99104042Y-127656459D01*
X100113046Y-127839259D01*
X100985726Y-127995193D01*
X101681519Y-128117081D01*
X102159864Y-128197748D01*
X102380199Y-128230014D01*
X102386549Y-128230303D01*
X102503464Y-128094969D01*
X102560375Y-127761512D01*
X102561515Y-127700600D01*
X102523638Y-127319329D01*
X102431152Y-127092479D01*
X102418231Y-127082343D01*
X102234780Y-127032464D01*
X101788462Y-126935885D01*
X101119400Y-126800543D01*
X100267718Y-126634377D01*
X99273540Y-126445327D01*
X98176990Y-126241329D01*
X98042509Y-126216604D01*
X93810070Y-125439420D01*
X89911550Y-126144707D01*
G36*
X154139393Y-106173146D02*
G01*
X153709882Y-106560202D01*
X153467448Y-106847202D01*
X153359048Y-107126787D01*
X153331642Y-107491599D01*
X153331212Y-107584661D01*
X153331212Y-108296755D01*
X154143288Y-107494766D01*
X154955365Y-106692777D01*
X155451025Y-107188438D01*
X155946686Y-107684098D01*
X155095270Y-108544492D01*
X154243854Y-109404885D01*
X154287836Y-111060399D01*
X154331818Y-112715914D01*
X154755151Y-112273473D01*
X154983883Y-112000547D01*
X155111695Y-111717593D01*
X155167059Y-111323211D01*
X155178484Y-110765742D01*
X155178484Y-109700453D01*
X157179686Y-107683799D01*
X156063631Y-106578762D01*
X154947575Y-105473725D01*
X154139393Y-106173146D01*
G37*
X154139393Y-106173146D02*
X153709882Y-106560202D01*
X153467448Y-106847202D01*
X153359048Y-107126787D01*
X153331642Y-107491599D01*
X153331212Y-107584661D01*
X153331212Y-108296755D01*
X154143288Y-107494766D01*
X154955365Y-106692777D01*
X155451025Y-107188438D01*
X155946686Y-107684098D01*
X155095270Y-108544492D01*
X154243854Y-109404885D01*
X154287836Y-111060399D01*
X154331818Y-112715914D01*
X154755151Y-112273473D01*
X154983883Y-112000547D01*
X155111695Y-111717593D01*
X155167059Y-111323211D01*
X155178484Y-110765742D01*
X155178484Y-109700453D01*
X157179686Y-107683799D01*
X156063631Y-106578762D01*
X154947575Y-105473725D01*
X154139393Y-106173146D01*
G36*
X152573272Y-109332194D02*
G01*
X152441634Y-109463962D01*
X152408304Y-109791414D01*
X152407575Y-109923636D01*
X152407575Y-110539394D01*
X151176060Y-110539394D01*
X151176060Y-109913411D01*
X151159970Y-109516795D01*
X151072498Y-109347616D01*
X150854841Y-109325687D01*
X150752727Y-109336138D01*
X150329393Y-109384848D01*
X150285701Y-111039697D01*
X150242008Y-112694545D01*
X150709034Y-112694545D01*
X150996185Y-112674901D01*
X151132186Y-112560245D01*
X151173389Y-112266991D01*
X151176060Y-112001818D01*
X151176060Y-111309090D01*
X152407575Y-111309090D01*
X152407575Y-112001818D01*
X152420963Y-112427786D01*
X152498259Y-112629539D01*
X152695168Y-112690629D01*
X152869393Y-112694545D01*
X153331212Y-112694545D01*
X153331212Y-109307878D01*
X152869393Y-109307878D01*
X152573272Y-109332194D01*
G37*
X152573272Y-109332194D02*
X152441634Y-109463962D01*
X152408304Y-109791414D01*
X152407575Y-109923636D01*
X152407575Y-110539394D01*
X151176060Y-110539394D01*
X151176060Y-109913411D01*
X151159970Y-109516795D01*
X151072498Y-109347616D01*
X150854841Y-109325687D01*
X150752727Y-109336138D01*
X150329393Y-109384848D01*
X150285701Y-111039697D01*
X150242008Y-112694545D01*
X150709034Y-112694545D01*
X150996185Y-112674901D01*
X151132186Y-112560245D01*
X151173389Y-112266991D01*
X151176060Y-112001818D01*
X151176060Y-111309090D01*
X152407575Y-111309090D01*
X152407575Y-112001818D01*
X152420963Y-112427786D01*
X152498259Y-112629539D01*
X152695168Y-112690629D01*
X152869393Y-112694545D01*
X153331212Y-112694545D01*
X153331212Y-109307878D01*
X152869393Y-109307878D01*
X152573272Y-109332194D01*
G36*
X148011891Y-109364157D02*
G01*
X147426456Y-109517601D01*
X147045358Y-109745123D01*
X146986702Y-109817812D01*
X146872926Y-110255003D01*
X147001502Y-110713021D01*
X147110068Y-110862081D01*
X147244110Y-111051740D01*
X147236149Y-111247786D01*
X147068135Y-111550589D01*
X146956128Y-111718119D01*
X146660165Y-112208523D01*
X146580986Y-112512364D01*
X146719438Y-112662528D01*
X146981212Y-112694129D01*
X147306406Y-112624237D01*
X147564776Y-112367405D01*
X147712424Y-112118673D01*
X147965180Y-111746889D01*
X148221816Y-111518078D01*
X148289696Y-111492044D01*
X148464385Y-111513209D01*
X148543196Y-111712421D01*
X148559090Y-112067500D01*
X148576485Y-112466995D01*
X148671636Y-112646410D01*
X148908995Y-112693258D01*
X149020909Y-112694545D01*
X149482727Y-112694545D01*
X149482727Y-110473130D01*
X148559090Y-110473130D01*
X148508836Y-110761451D01*
X148305968Y-110829190D01*
X148212727Y-110819494D01*
X147901515Y-110644194D01*
X147817172Y-110423939D01*
X147837820Y-110165224D01*
X148057492Y-110080681D01*
X148163535Y-110077575D01*
X148461204Y-110136573D01*
X148556171Y-110375294D01*
X148559090Y-110473130D01*
X149482727Y-110473130D01*
X149482727Y-109307878D01*
X148723051Y-109307878D01*
X148011891Y-109364157D01*
G37*
X148011891Y-109364157D02*
X147426456Y-109517601D01*
X147045358Y-109745123D01*
X146986702Y-109817812D01*
X146872926Y-110255003D01*
X147001502Y-110713021D01*
X147110068Y-110862081D01*
X147244110Y-111051740D01*
X147236149Y-111247786D01*
X147068135Y-111550589D01*
X146956128Y-111718119D01*
X146660165Y-112208523D01*
X146580986Y-112512364D01*
X146719438Y-112662528D01*
X146981212Y-112694129D01*
X147306406Y-112624237D01*
X147564776Y-112367405D01*
X147712424Y-112118673D01*
X147965180Y-111746889D01*
X148221816Y-111518078D01*
X148289696Y-111492044D01*
X148464385Y-111513209D01*
X148543196Y-111712421D01*
X148559090Y-112067500D01*
X148576485Y-112466995D01*
X148671636Y-112646410D01*
X148908995Y-112693258D01*
X149020909Y-112694545D01*
X149482727Y-112694545D01*
X149482727Y-110473130D01*
X148559090Y-110473130D01*
X148508836Y-110761451D01*
X148305968Y-110829190D01*
X148212727Y-110819494D01*
X147901515Y-110644194D01*
X147817172Y-110423939D01*
X147837820Y-110165224D01*
X148057492Y-110080681D01*
X148163535Y-110077575D01*
X148461204Y-110136573D01*
X148556171Y-110375294D01*
X148559090Y-110473130D01*
X149482727Y-110473130D01*
X149482727Y-109307878D01*
X148723051Y-109307878D01*
X148011891Y-109364157D01*
G36*
X145287878Y-109308737D02*
G01*
X144321988Y-109402391D01*
X143596338Y-109678210D01*
X143115671Y-110132748D01*
X142884733Y-110762560D01*
X142863333Y-111069914D01*
X142983661Y-111744473D01*
X143346950Y-112237267D01*
X143956656Y-112550801D01*
X144816235Y-112687580D01*
X145105475Y-112694545D01*
X145942121Y-112694545D01*
X145942121Y-111081114D01*
X145018484Y-111081114D01*
X145018484Y-112084653D01*
X144595151Y-111983524D01*
X144211115Y-111855649D01*
X143979393Y-111730833D01*
X143828422Y-111446134D01*
X143795651Y-111018098D01*
X143876210Y-110585602D01*
X144028874Y-110319480D01*
X144372390Y-110126027D01*
X144644632Y-110077575D01*
X144845454Y-110096460D01*
X144957442Y-110199363D01*
X145006441Y-110455657D01*
X145018295Y-110934715D01*
X145018484Y-111081114D01*
X145942121Y-111081114D01*
X145942121Y-109307878D01*
X145287878Y-109308737D01*
G37*
X145287878Y-109308737D02*
X144321988Y-109402391D01*
X143596338Y-109678210D01*
X143115671Y-110132748D01*
X142884733Y-110762560D01*
X142863333Y-111069914D01*
X142983661Y-111744473D01*
X143346950Y-112237267D01*
X143956656Y-112550801D01*
X144816235Y-112687580D01*
X145105475Y-112694545D01*
X145942121Y-112694545D01*
X145942121Y-111081114D01*
X145018484Y-111081114D01*
X145018484Y-112084653D01*
X144595151Y-111983524D01*
X144211115Y-111855649D01*
X143979393Y-111730833D01*
X143828422Y-111446134D01*
X143795651Y-111018098D01*
X143876210Y-110585602D01*
X144028874Y-110319480D01*
X144372390Y-110126027D01*
X144644632Y-110077575D01*
X144845454Y-110096460D01*
X144957442Y-110199363D01*
X145006441Y-110455657D01*
X145018295Y-110934715D01*
X145018484Y-111081114D01*
X145942121Y-111081114D01*
X145942121Y-109307878D01*
X145287878Y-109308737D01*
G36*
X140241556Y-109324563D02*
G01*
X139760835Y-109397713D01*
X139552993Y-109561976D01*
X139601955Y-109851995D01*
X139891647Y-110302417D01*
X140306545Y-110826753D01*
X140691725Y-111307948D01*
X140988368Y-111698313D01*
X141151800Y-111938158D01*
X141170000Y-111980469D01*
X141030751Y-112034323D01*
X140671561Y-112070034D01*
X140323333Y-112078787D01*
X139834046Y-112092151D01*
X139579155Y-112149929D01*
X139485696Y-112278654D01*
X139476666Y-112386666D01*
X139498749Y-112529762D01*
X139603072Y-112620073D01*
X139846746Y-112669624D01*
X140286880Y-112690438D01*
X140939090Y-112694545D01*
X141622668Y-112688681D01*
X142054507Y-112664080D01*
X142290639Y-112610229D01*
X142387096Y-112516613D01*
X142401515Y-112420136D01*
X142307511Y-112182397D01*
X142056804Y-111785351D01*
X141696352Y-111300582D01*
X141543189Y-111111651D01*
X140684864Y-110077575D01*
X141543189Y-110077575D01*
X142032249Y-110067900D01*
X142288396Y-110016496D01*
X142386489Y-109889801D01*
X142401515Y-109692727D01*
X142390541Y-109510799D01*
X142318190Y-109397724D01*
X142125320Y-109337130D01*
X141752785Y-109312646D01*
X141141444Y-109307900D01*
X141011229Y-109307878D01*
X140241556Y-109324563D01*
G37*
X140241556Y-109324563D02*
X139760835Y-109397713D01*
X139552993Y-109561976D01*
X139601955Y-109851995D01*
X139891647Y-110302417D01*
X140306545Y-110826753D01*
X140691725Y-111307948D01*
X140988368Y-111698313D01*
X141151800Y-111938158D01*
X141170000Y-111980469D01*
X141030751Y-112034323D01*
X140671561Y-112070034D01*
X140323333Y-112078787D01*
X139834046Y-112092151D01*
X139579155Y-112149929D01*
X139485696Y-112278654D01*
X139476666Y-112386666D01*
X139498749Y-112529762D01*
X139603072Y-112620073D01*
X139846746Y-112669624D01*
X140286880Y-112690438D01*
X140939090Y-112694545D01*
X141622668Y-112688681D01*
X142054507Y-112664080D01*
X142290639Y-112610229D01*
X142387096Y-112516613D01*
X142401515Y-112420136D01*
X142307511Y-112182397D01*
X142056804Y-111785351D01*
X141696352Y-111300582D01*
X141543189Y-111111651D01*
X140684864Y-110077575D01*
X141543189Y-110077575D01*
X142032249Y-110067900D01*
X142288396Y-110016496D01*
X142386489Y-109889801D01*
X142401515Y-109692727D01*
X142390541Y-109510799D01*
X142318190Y-109397724D01*
X142125320Y-109337130D01*
X141752785Y-109312646D01*
X141141444Y-109307900D01*
X141011229Y-109307878D01*
X140241556Y-109324563D01*
G36*
X137986380Y-109330757D02*
G01*
X137774967Y-109447322D01*
X137598353Y-109729463D01*
X137446399Y-110077575D01*
X137250072Y-110504146D01*
X137084895Y-110783649D01*
X137013636Y-110847272D01*
X136897089Y-110717378D01*
X136717194Y-110383147D01*
X136580873Y-110077575D01*
X136378929Y-109630791D01*
X136200796Y-109401604D01*
X135965477Y-109318124D01*
X135713682Y-109307878D01*
X135166363Y-109307878D01*
X135166363Y-112694545D01*
X135544468Y-112694545D01*
X135740176Y-112676699D01*
X135857127Y-112579298D01*
X135920276Y-112336552D01*
X135954578Y-111882668D01*
X135967801Y-111578484D01*
X136013030Y-110462424D01*
X136378350Y-111270606D01*
X136671514Y-111808425D01*
X136932577Y-112060581D01*
X137013636Y-112078787D01*
X137261024Y-111928941D01*
X137544287Y-111488630D01*
X137648922Y-111270606D01*
X138014242Y-110462424D01*
X138059471Y-111578484D01*
X138088841Y-112154028D01*
X138135356Y-112487584D01*
X138223972Y-112644945D01*
X138379644Y-112691902D01*
X138482804Y-112694545D01*
X138860909Y-112694545D01*
X138860909Y-109307878D01*
X138313590Y-109307878D01*
X137986380Y-109330757D01*
G37*
X137986380Y-109330757D02*
X137774967Y-109447322D01*
X137598353Y-109729463D01*
X137446399Y-110077575D01*
X137250072Y-110504146D01*
X137084895Y-110783649D01*
X137013636Y-110847272D01*
X136897089Y-110717378D01*
X136717194Y-110383147D01*
X136580873Y-110077575D01*
X136378929Y-109630791D01*
X136200796Y-109401604D01*
X135965477Y-109318124D01*
X135713682Y-109307878D01*
X135166363Y-109307878D01*
X135166363Y-112694545D01*
X135544468Y-112694545D01*
X135740176Y-112676699D01*
X135857127Y-112579298D01*
X135920276Y-112336552D01*
X135954578Y-111882668D01*
X135967801Y-111578484D01*
X136013030Y-110462424D01*
X136378350Y-111270606D01*
X136671514Y-111808425D01*
X136932577Y-112060581D01*
X137013636Y-112078787D01*
X137261024Y-111928941D01*
X137544287Y-111488630D01*
X137648922Y-111270606D01*
X138014242Y-110462424D01*
X138059471Y-111578484D01*
X138088841Y-112154028D01*
X138135356Y-112487584D01*
X138223972Y-112644945D01*
X138379644Y-112691902D01*
X138482804Y-112694545D01*
X138860909Y-112694545D01*
X138860909Y-109307878D01*
X138313590Y-109307878D01*
X137986380Y-109330757D01*
G36*
X139911550Y-106144707D02*
G01*
X138832084Y-106340377D01*
X137833879Y-106522039D01*
X136962911Y-106681269D01*
X136265160Y-106809640D01*
X135786604Y-106898729D01*
X135589696Y-106936623D01*
X135312589Y-107031269D01*
X135192331Y-107229158D01*
X135166363Y-107626776D01*
X135188528Y-108007971D01*
X135243768Y-108216807D01*
X135264360Y-108230303D01*
X135435570Y-108203450D01*
X135869893Y-108127650D01*
X136527714Y-108010036D01*
X137369419Y-107857745D01*
X138355393Y-107677911D01*
X139446021Y-107477669D01*
X139574663Y-107453968D01*
X143786969Y-106677634D01*
X147999276Y-107453968D01*
X149104042Y-107656459D01*
X150113046Y-107839259D01*
X150985726Y-107995193D01*
X151681519Y-108117081D01*
X152159864Y-108197748D01*
X152380199Y-108230014D01*
X152386549Y-108230303D01*
X152503464Y-108094969D01*
X152560375Y-107761512D01*
X152561515Y-107700600D01*
X152523638Y-107319329D01*
X152431152Y-107092479D01*
X152418231Y-107082343D01*
X152234780Y-107032464D01*
X151788462Y-106935885D01*
X151119400Y-106800543D01*
X150267718Y-106634377D01*
X149273540Y-106445327D01*
X148176990Y-106241329D01*
X148042509Y-106216604D01*
X143810070Y-105439420D01*
X139911550Y-106144707D01*
G37*
X139911550Y-106144707D02*
X138832084Y-106340377D01*
X137833879Y-106522039D01*
X136962911Y-106681269D01*
X136265160Y-106809640D01*
X135786604Y-106898729D01*
X135589696Y-106936623D01*
X135312589Y-107031269D01*
X135192331Y-107229158D01*
X135166363Y-107626776D01*
X135188528Y-108007971D01*
X135243768Y-108216807D01*
X135264360Y-108230303D01*
X135435570Y-108203450D01*
X135869893Y-108127650D01*
X136527714Y-108010036D01*
X137369419Y-107857745D01*
X138355393Y-107677911D01*
X139446021Y-107477669D01*
X139574663Y-107453968D01*
X143786969Y-106677634D01*
X147999276Y-107453968D01*
X149104042Y-107656459D01*
X150113046Y-107839259D01*
X150985726Y-107995193D01*
X151681519Y-108117081D01*
X152159864Y-108197748D01*
X152380199Y-108230014D01*
X152386549Y-108230303D01*
X152503464Y-108094969D01*
X152560375Y-107761512D01*
X152561515Y-107700600D01*
X152523638Y-107319329D01*
X152431152Y-107092479D01*
X152418231Y-107082343D01*
X152234780Y-107032464D01*
X151788462Y-106935885D01*
X151119400Y-106800543D01*
X150267718Y-106634377D01*
X149273540Y-106445327D01*
X148176990Y-106241329D01*
X148042509Y-106216604D01*
X143810070Y-105439420D01*
X139911550Y-106144707D01*
G36*
X89911550Y-106144707D02*
G01*
X88832084Y-106340377D01*
X87833879Y-106522039D01*
X86962911Y-106681269D01*
X86265160Y-106809640D01*
X85786604Y-106898729D01*
X85589696Y-106936623D01*
X85312589Y-107031269D01*
X85192331Y-107229158D01*
X85166363Y-107626776D01*
X85188528Y-108007971D01*
X85243768Y-108216807D01*
X85264360Y-108230303D01*
X85435570Y-108203450D01*
X85869893Y-108127650D01*
X86527714Y-108010036D01*
X87369419Y-107857745D01*
X88355393Y-107677911D01*
X89446021Y-107477669D01*
X89574663Y-107453968D01*
X93786969Y-106677634D01*
X97999276Y-107453968D01*
X99104042Y-107656459D01*
X100113046Y-107839259D01*
X100985726Y-107995193D01*
X101681519Y-108117081D01*
X102159864Y-108197748D01*
X102380199Y-108230014D01*
X102386549Y-108230303D01*
X102503464Y-108094969D01*
X102560375Y-107761512D01*
X102561515Y-107700600D01*
X102523638Y-107319329D01*
X102431152Y-107092479D01*
X102418231Y-107082343D01*
X102234780Y-107032464D01*
X101788462Y-106935885D01*
X101119400Y-106800543D01*
X100267718Y-106634377D01*
X99273540Y-106445327D01*
X98176990Y-106241329D01*
X98042509Y-106216604D01*
X93810070Y-105439420D01*
X89911550Y-106144707D01*
G37*
X89911550Y-106144707D02*
X88832084Y-106340377D01*
X87833879Y-106522039D01*
X86962911Y-106681269D01*
X86265160Y-106809640D01*
X85786604Y-106898729D01*
X85589696Y-106936623D01*
X85312589Y-107031269D01*
X85192331Y-107229158D01*
X85166363Y-107626776D01*
X85188528Y-108007971D01*
X85243768Y-108216807D01*
X85264360Y-108230303D01*
X85435570Y-108203450D01*
X85869893Y-108127650D01*
X86527714Y-108010036D01*
X87369419Y-107857745D01*
X88355393Y-107677911D01*
X89446021Y-107477669D01*
X89574663Y-107453968D01*
X93786969Y-106677634D01*
X97999276Y-107453968D01*
X99104042Y-107656459D01*
X100113046Y-107839259D01*
X100985726Y-107995193D01*
X101681519Y-108117081D01*
X102159864Y-108197748D01*
X102380199Y-108230014D01*
X102386549Y-108230303D01*
X102503464Y-108094969D01*
X102560375Y-107761512D01*
X102561515Y-107700600D01*
X102523638Y-107319329D01*
X102431152Y-107092479D01*
X102418231Y-107082343D01*
X102234780Y-107032464D01*
X101788462Y-106935885D01*
X101119400Y-106800543D01*
X100267718Y-106634377D01*
X99273540Y-106445327D01*
X98176990Y-106241329D01*
X98042509Y-106216604D01*
X93810070Y-105439420D01*
X89911550Y-106144707D01*
G36*
X87986380Y-109330757D02*
G01*
X87774967Y-109447322D01*
X87598353Y-109729463D01*
X87446399Y-110077575D01*
X87250072Y-110504146D01*
X87084895Y-110783649D01*
X87013636Y-110847272D01*
X86897089Y-110717378D01*
X86717194Y-110383147D01*
X86580873Y-110077575D01*
X86378929Y-109630791D01*
X86200796Y-109401604D01*
X85965477Y-109318124D01*
X85713682Y-109307878D01*
X85166363Y-109307878D01*
X85166363Y-112694545D01*
X85544468Y-112694545D01*
X85740176Y-112676699D01*
X85857127Y-112579298D01*
X85920276Y-112336552D01*
X85954578Y-111882668D01*
X85967801Y-111578484D01*
X86013030Y-110462424D01*
X86378350Y-111270606D01*
X86671514Y-111808425D01*
X86932577Y-112060581D01*
X87013636Y-112078787D01*
X87261024Y-111928941D01*
X87544287Y-111488630D01*
X87648922Y-111270606D01*
X88014242Y-110462424D01*
X88059471Y-111578484D01*
X88088841Y-112154028D01*
X88135356Y-112487584D01*
X88223972Y-112644945D01*
X88379644Y-112691902D01*
X88482804Y-112694545D01*
X88860909Y-112694545D01*
X88860909Y-109307878D01*
X88313590Y-109307878D01*
X87986380Y-109330757D01*
G37*
X87986380Y-109330757D02*
X87774967Y-109447322D01*
X87598353Y-109729463D01*
X87446399Y-110077575D01*
X87250072Y-110504146D01*
X87084895Y-110783649D01*
X87013636Y-110847272D01*
X86897089Y-110717378D01*
X86717194Y-110383147D01*
X86580873Y-110077575D01*
X86378929Y-109630791D01*
X86200796Y-109401604D01*
X85965477Y-109318124D01*
X85713682Y-109307878D01*
X85166363Y-109307878D01*
X85166363Y-112694545D01*
X85544468Y-112694545D01*
X85740176Y-112676699D01*
X85857127Y-112579298D01*
X85920276Y-112336552D01*
X85954578Y-111882668D01*
X85967801Y-111578484D01*
X86013030Y-110462424D01*
X86378350Y-111270606D01*
X86671514Y-111808425D01*
X86932577Y-112060581D01*
X87013636Y-112078787D01*
X87261024Y-111928941D01*
X87544287Y-111488630D01*
X87648922Y-111270606D01*
X88014242Y-110462424D01*
X88059471Y-111578484D01*
X88088841Y-112154028D01*
X88135356Y-112487584D01*
X88223972Y-112644945D01*
X88379644Y-112691902D01*
X88482804Y-112694545D01*
X88860909Y-112694545D01*
X88860909Y-109307878D01*
X88313590Y-109307878D01*
X87986380Y-109330757D01*
G36*
X90241556Y-109324563D02*
G01*
X89760835Y-109397713D01*
X89552993Y-109561976D01*
X89601955Y-109851995D01*
X89891647Y-110302417D01*
X90306545Y-110826753D01*
X90691725Y-111307948D01*
X90988368Y-111698313D01*
X91151800Y-111938158D01*
X91170000Y-111980469D01*
X91030751Y-112034323D01*
X90671561Y-112070034D01*
X90323333Y-112078787D01*
X89834046Y-112092151D01*
X89579155Y-112149929D01*
X89485696Y-112278654D01*
X89476666Y-112386666D01*
X89498749Y-112529762D01*
X89603072Y-112620073D01*
X89846746Y-112669624D01*
X90286880Y-112690438D01*
X90939090Y-112694545D01*
X91622668Y-112688681D01*
X92054507Y-112664080D01*
X92290639Y-112610229D01*
X92387096Y-112516613D01*
X92401515Y-112420136D01*
X92307511Y-112182397D01*
X92056804Y-111785351D01*
X91696352Y-111300582D01*
X91543189Y-111111651D01*
X90684864Y-110077575D01*
X91543189Y-110077575D01*
X92032249Y-110067900D01*
X92288396Y-110016496D01*
X92386489Y-109889801D01*
X92401515Y-109692727D01*
X92390541Y-109510799D01*
X92318190Y-109397724D01*
X92125320Y-109337130D01*
X91752785Y-109312646D01*
X91141444Y-109307900D01*
X91011229Y-109307878D01*
X90241556Y-109324563D01*
G37*
X90241556Y-109324563D02*
X89760835Y-109397713D01*
X89552993Y-109561976D01*
X89601955Y-109851995D01*
X89891647Y-110302417D01*
X90306545Y-110826753D01*
X90691725Y-111307948D01*
X90988368Y-111698313D01*
X91151800Y-111938158D01*
X91170000Y-111980469D01*
X91030751Y-112034323D01*
X90671561Y-112070034D01*
X90323333Y-112078787D01*
X89834046Y-112092151D01*
X89579155Y-112149929D01*
X89485696Y-112278654D01*
X89476666Y-112386666D01*
X89498749Y-112529762D01*
X89603072Y-112620073D01*
X89846746Y-112669624D01*
X90286880Y-112690438D01*
X90939090Y-112694545D01*
X91622668Y-112688681D01*
X92054507Y-112664080D01*
X92290639Y-112610229D01*
X92387096Y-112516613D01*
X92401515Y-112420136D01*
X92307511Y-112182397D01*
X92056804Y-111785351D01*
X91696352Y-111300582D01*
X91543189Y-111111651D01*
X90684864Y-110077575D01*
X91543189Y-110077575D01*
X92032249Y-110067900D01*
X92288396Y-110016496D01*
X92386489Y-109889801D01*
X92401515Y-109692727D01*
X92390541Y-109510799D01*
X92318190Y-109397724D01*
X92125320Y-109337130D01*
X91752785Y-109312646D01*
X91141444Y-109307900D01*
X91011229Y-109307878D01*
X90241556Y-109324563D01*
G36*
X95287878Y-109308737D02*
G01*
X94321988Y-109402391D01*
X93596338Y-109678210D01*
X93115671Y-110132748D01*
X92884733Y-110762560D01*
X92863333Y-111069914D01*
X92983661Y-111744473D01*
X93346950Y-112237267D01*
X93956656Y-112550801D01*
X94816235Y-112687580D01*
X95105475Y-112694545D01*
X95942121Y-112694545D01*
X95942121Y-111081114D01*
X95018484Y-111081114D01*
X95018484Y-112084653D01*
X94595151Y-111983524D01*
X94211115Y-111855649D01*
X93979393Y-111730833D01*
X93828422Y-111446134D01*
X93795651Y-111018098D01*
X93876210Y-110585602D01*
X94028874Y-110319480D01*
X94372390Y-110126027D01*
X94644632Y-110077575D01*
X94845454Y-110096460D01*
X94957442Y-110199363D01*
X95006441Y-110455657D01*
X95018295Y-110934715D01*
X95018484Y-111081114D01*
X95942121Y-111081114D01*
X95942121Y-109307878D01*
X95287878Y-109308737D01*
G37*
X95287878Y-109308737D02*
X94321988Y-109402391D01*
X93596338Y-109678210D01*
X93115671Y-110132748D01*
X92884733Y-110762560D01*
X92863333Y-111069914D01*
X92983661Y-111744473D01*
X93346950Y-112237267D01*
X93956656Y-112550801D01*
X94816235Y-112687580D01*
X95105475Y-112694545D01*
X95942121Y-112694545D01*
X95942121Y-111081114D01*
X95018484Y-111081114D01*
X95018484Y-112084653D01*
X94595151Y-111983524D01*
X94211115Y-111855649D01*
X93979393Y-111730833D01*
X93828422Y-111446134D01*
X93795651Y-111018098D01*
X93876210Y-110585602D01*
X94028874Y-110319480D01*
X94372390Y-110126027D01*
X94644632Y-110077575D01*
X94845454Y-110096460D01*
X94957442Y-110199363D01*
X95006441Y-110455657D01*
X95018295Y-110934715D01*
X95018484Y-111081114D01*
X95942121Y-111081114D01*
X95942121Y-109307878D01*
X95287878Y-109308737D01*
G36*
X98011891Y-109364157D02*
G01*
X97426456Y-109517601D01*
X97045358Y-109745123D01*
X96986702Y-109817812D01*
X96872926Y-110255003D01*
X97001502Y-110713021D01*
X97110068Y-110862081D01*
X97244110Y-111051740D01*
X97236149Y-111247786D01*
X97068135Y-111550589D01*
X96956128Y-111718119D01*
X96660165Y-112208523D01*
X96580986Y-112512364D01*
X96719438Y-112662528D01*
X96981212Y-112694129D01*
X97306406Y-112624237D01*
X97564776Y-112367405D01*
X97712424Y-112118673D01*
X97965180Y-111746889D01*
X98221816Y-111518078D01*
X98289696Y-111492044D01*
X98464385Y-111513209D01*
X98543196Y-111712421D01*
X98559090Y-112067500D01*
X98576485Y-112466995D01*
X98671636Y-112646410D01*
X98908995Y-112693258D01*
X99020909Y-112694545D01*
X99482727Y-112694545D01*
X99482727Y-110473130D01*
X98559090Y-110473130D01*
X98508836Y-110761451D01*
X98305968Y-110829190D01*
X98212727Y-110819494D01*
X97901515Y-110644194D01*
X97817172Y-110423939D01*
X97837820Y-110165224D01*
X98057492Y-110080681D01*
X98163535Y-110077575D01*
X98461204Y-110136573D01*
X98556171Y-110375294D01*
X98559090Y-110473130D01*
X99482727Y-110473130D01*
X99482727Y-109307878D01*
X98723051Y-109307878D01*
X98011891Y-109364157D01*
G37*
X98011891Y-109364157D02*
X97426456Y-109517601D01*
X97045358Y-109745123D01*
X96986702Y-109817812D01*
X96872926Y-110255003D01*
X97001502Y-110713021D01*
X97110068Y-110862081D01*
X97244110Y-111051740D01*
X97236149Y-111247786D01*
X97068135Y-111550589D01*
X96956128Y-111718119D01*
X96660165Y-112208523D01*
X96580986Y-112512364D01*
X96719438Y-112662528D01*
X96981212Y-112694129D01*
X97306406Y-112624237D01*
X97564776Y-112367405D01*
X97712424Y-112118673D01*
X97965180Y-111746889D01*
X98221816Y-111518078D01*
X98289696Y-111492044D01*
X98464385Y-111513209D01*
X98543196Y-111712421D01*
X98559090Y-112067500D01*
X98576485Y-112466995D01*
X98671636Y-112646410D01*
X98908995Y-112693258D01*
X99020909Y-112694545D01*
X99482727Y-112694545D01*
X99482727Y-110473130D01*
X98559090Y-110473130D01*
X98508836Y-110761451D01*
X98305968Y-110829190D01*
X98212727Y-110819494D01*
X97901515Y-110644194D01*
X97817172Y-110423939D01*
X97837820Y-110165224D01*
X98057492Y-110080681D01*
X98163535Y-110077575D01*
X98461204Y-110136573D01*
X98556171Y-110375294D01*
X98559090Y-110473130D01*
X99482727Y-110473130D01*
X99482727Y-109307878D01*
X98723051Y-109307878D01*
X98011891Y-109364157D01*
G36*
X102573272Y-109332194D02*
G01*
X102441634Y-109463962D01*
X102408304Y-109791414D01*
X102407575Y-109923636D01*
X102407575Y-110539394D01*
X101176060Y-110539394D01*
X101176060Y-109913411D01*
X101159970Y-109516795D01*
X101072498Y-109347616D01*
X100854841Y-109325687D01*
X100752727Y-109336138D01*
X100329393Y-109384848D01*
X100285701Y-111039697D01*
X100242008Y-112694545D01*
X100709034Y-112694545D01*
X100996185Y-112674901D01*
X101132186Y-112560245D01*
X101173389Y-112266991D01*
X101176060Y-112001818D01*
X101176060Y-111309090D01*
X102407575Y-111309090D01*
X102407575Y-112001818D01*
X102420963Y-112427786D01*
X102498259Y-112629539D01*
X102695168Y-112690629D01*
X102869393Y-112694545D01*
X103331212Y-112694545D01*
X103331212Y-109307878D01*
X102869393Y-109307878D01*
X102573272Y-109332194D01*
G37*
X102573272Y-109332194D02*
X102441634Y-109463962D01*
X102408304Y-109791414D01*
X102407575Y-109923636D01*
X102407575Y-110539394D01*
X101176060Y-110539394D01*
X101176060Y-109913411D01*
X101159970Y-109516795D01*
X101072498Y-109347616D01*
X100854841Y-109325687D01*
X100752727Y-109336138D01*
X100329393Y-109384848D01*
X100285701Y-111039697D01*
X100242008Y-112694545D01*
X100709034Y-112694545D01*
X100996185Y-112674901D01*
X101132186Y-112560245D01*
X101173389Y-112266991D01*
X101176060Y-112001818D01*
X101176060Y-111309090D01*
X102407575Y-111309090D01*
X102407575Y-112001818D01*
X102420963Y-112427786D01*
X102498259Y-112629539D01*
X102695168Y-112690629D01*
X102869393Y-112694545D01*
X103331212Y-112694545D01*
X103331212Y-109307878D01*
X102869393Y-109307878D01*
X102573272Y-109332194D01*
G36*
X104139393Y-106173146D02*
G01*
X103709882Y-106560202D01*
X103467448Y-106847202D01*
X103359048Y-107126787D01*
X103331642Y-107491599D01*
X103331212Y-107584661D01*
X103331212Y-108296755D01*
X104143288Y-107494766D01*
X104955365Y-106692777D01*
X105451025Y-107188438D01*
X105946686Y-107684098D01*
X105095270Y-108544492D01*
X104243854Y-109404885D01*
X104287836Y-111060399D01*
X104331818Y-112715914D01*
X104755151Y-112273473D01*
X104983883Y-112000547D01*
X105111695Y-111717593D01*
X105167059Y-111323211D01*
X105178484Y-110765742D01*
X105178484Y-109700453D01*
X107179686Y-107683799D01*
X106063631Y-106578762D01*
X104947575Y-105473725D01*
X104139393Y-106173146D01*
G37*
X104139393Y-106173146D02*
X103709882Y-106560202D01*
X103467448Y-106847202D01*
X103359048Y-107126787D01*
X103331642Y-107491599D01*
X103331212Y-107584661D01*
X103331212Y-108296755D01*
X104143288Y-107494766D01*
X104955365Y-106692777D01*
X105451025Y-107188438D01*
X105946686Y-107684098D01*
X105095270Y-108544492D01*
X104243854Y-109404885D01*
X104287836Y-111060399D01*
X104331818Y-112715914D01*
X104755151Y-112273473D01*
X104983883Y-112000547D01*
X105111695Y-111717593D01*
X105167059Y-111323211D01*
X105178484Y-110765742D01*
X105178484Y-109700453D01*
X107179686Y-107683799D01*
X106063631Y-106578762D01*
X104947575Y-105473725D01*
X104139393Y-106173146D01*
G36*
X139911550Y-86144707D02*
G01*
X138832084Y-86340377D01*
X137833879Y-86522039D01*
X136962911Y-86681269D01*
X136265160Y-86809640D01*
X135786604Y-86898729D01*
X135589696Y-86936623D01*
X135312589Y-87031269D01*
X135192331Y-87229158D01*
X135166363Y-87626776D01*
X135188528Y-88007971D01*
X135243768Y-88216807D01*
X135264360Y-88230303D01*
X135435570Y-88203450D01*
X135869893Y-88127650D01*
X136527714Y-88010036D01*
X137369419Y-87857745D01*
X138355393Y-87677911D01*
X139446021Y-87477669D01*
X139574663Y-87453968D01*
X143786969Y-86677634D01*
X147999276Y-87453968D01*
X149104042Y-87656459D01*
X150113046Y-87839259D01*
X150985726Y-87995193D01*
X151681519Y-88117081D01*
X152159864Y-88197748D01*
X152380199Y-88230014D01*
X152386549Y-88230303D01*
X152503464Y-88094969D01*
X152560375Y-87761512D01*
X152561515Y-87700600D01*
X152523638Y-87319329D01*
X152431152Y-87092479D01*
X152418231Y-87082343D01*
X152234780Y-87032464D01*
X151788462Y-86935885D01*
X151119400Y-86800543D01*
X150267718Y-86634377D01*
X149273540Y-86445327D01*
X148176990Y-86241329D01*
X148042509Y-86216604D01*
X143810070Y-85439420D01*
X139911550Y-86144707D01*
G37*
X139911550Y-86144707D02*
X138832084Y-86340377D01*
X137833879Y-86522039D01*
X136962911Y-86681269D01*
X136265160Y-86809640D01*
X135786604Y-86898729D01*
X135589696Y-86936623D01*
X135312589Y-87031269D01*
X135192331Y-87229158D01*
X135166363Y-87626776D01*
X135188528Y-88007971D01*
X135243768Y-88216807D01*
X135264360Y-88230303D01*
X135435570Y-88203450D01*
X135869893Y-88127650D01*
X136527714Y-88010036D01*
X137369419Y-87857745D01*
X138355393Y-87677911D01*
X139446021Y-87477669D01*
X139574663Y-87453968D01*
X143786969Y-86677634D01*
X147999276Y-87453968D01*
X149104042Y-87656459D01*
X150113046Y-87839259D01*
X150985726Y-87995193D01*
X151681519Y-88117081D01*
X152159864Y-88197748D01*
X152380199Y-88230014D01*
X152386549Y-88230303D01*
X152503464Y-88094969D01*
X152560375Y-87761512D01*
X152561515Y-87700600D01*
X152523638Y-87319329D01*
X152431152Y-87092479D01*
X152418231Y-87082343D01*
X152234780Y-87032464D01*
X151788462Y-86935885D01*
X151119400Y-86800543D01*
X150267718Y-86634377D01*
X149273540Y-86445327D01*
X148176990Y-86241329D01*
X148042509Y-86216604D01*
X143810070Y-85439420D01*
X139911550Y-86144707D01*
G36*
X137986380Y-89330757D02*
G01*
X137774967Y-89447322D01*
X137598353Y-89729463D01*
X137446399Y-90077575D01*
X137250072Y-90504146D01*
X137084895Y-90783649D01*
X137013636Y-90847272D01*
X136897089Y-90717378D01*
X136717194Y-90383147D01*
X136580873Y-90077575D01*
X136378929Y-89630791D01*
X136200796Y-89401604D01*
X135965477Y-89318124D01*
X135713682Y-89307878D01*
X135166363Y-89307878D01*
X135166363Y-92694545D01*
X135544468Y-92694545D01*
X135740176Y-92676699D01*
X135857127Y-92579298D01*
X135920276Y-92336552D01*
X135954578Y-91882668D01*
X135967801Y-91578484D01*
X136013030Y-90462424D01*
X136378350Y-91270606D01*
X136671514Y-91808425D01*
X136932577Y-92060581D01*
X137013636Y-92078787D01*
X137261024Y-91928941D01*
X137544287Y-91488630D01*
X137648922Y-91270606D01*
X138014242Y-90462424D01*
X138059471Y-91578484D01*
X138088841Y-92154028D01*
X138135356Y-92487584D01*
X138223972Y-92644945D01*
X138379644Y-92691902D01*
X138482804Y-92694545D01*
X138860909Y-92694545D01*
X138860909Y-89307878D01*
X138313590Y-89307878D01*
X137986380Y-89330757D01*
G37*
X137986380Y-89330757D02*
X137774967Y-89447322D01*
X137598353Y-89729463D01*
X137446399Y-90077575D01*
X137250072Y-90504146D01*
X137084895Y-90783649D01*
X137013636Y-90847272D01*
X136897089Y-90717378D01*
X136717194Y-90383147D01*
X136580873Y-90077575D01*
X136378929Y-89630791D01*
X136200796Y-89401604D01*
X135965477Y-89318124D01*
X135713682Y-89307878D01*
X135166363Y-89307878D01*
X135166363Y-92694545D01*
X135544468Y-92694545D01*
X135740176Y-92676699D01*
X135857127Y-92579298D01*
X135920276Y-92336552D01*
X135954578Y-91882668D01*
X135967801Y-91578484D01*
X136013030Y-90462424D01*
X136378350Y-91270606D01*
X136671514Y-91808425D01*
X136932577Y-92060581D01*
X137013636Y-92078787D01*
X137261024Y-91928941D01*
X137544287Y-91488630D01*
X137648922Y-91270606D01*
X138014242Y-90462424D01*
X138059471Y-91578484D01*
X138088841Y-92154028D01*
X138135356Y-92487584D01*
X138223972Y-92644945D01*
X138379644Y-92691902D01*
X138482804Y-92694545D01*
X138860909Y-92694545D01*
X138860909Y-89307878D01*
X138313590Y-89307878D01*
X137986380Y-89330757D01*
G36*
X140241556Y-89324563D02*
G01*
X139760835Y-89397713D01*
X139552993Y-89561976D01*
X139601955Y-89851995D01*
X139891647Y-90302417D01*
X140306545Y-90826753D01*
X140691725Y-91307948D01*
X140988368Y-91698313D01*
X141151800Y-91938158D01*
X141170000Y-91980469D01*
X141030751Y-92034323D01*
X140671561Y-92070034D01*
X140323333Y-92078787D01*
X139834046Y-92092151D01*
X139579155Y-92149929D01*
X139485696Y-92278654D01*
X139476666Y-92386666D01*
X139498749Y-92529762D01*
X139603072Y-92620073D01*
X139846746Y-92669624D01*
X140286880Y-92690438D01*
X140939090Y-92694545D01*
X141622668Y-92688681D01*
X142054507Y-92664080D01*
X142290639Y-92610229D01*
X142387096Y-92516613D01*
X142401515Y-92420136D01*
X142307511Y-92182397D01*
X142056804Y-91785351D01*
X141696352Y-91300582D01*
X141543189Y-91111651D01*
X140684864Y-90077575D01*
X141543189Y-90077575D01*
X142032249Y-90067900D01*
X142288396Y-90016496D01*
X142386489Y-89889801D01*
X142401515Y-89692727D01*
X142390541Y-89510799D01*
X142318190Y-89397724D01*
X142125320Y-89337130D01*
X141752785Y-89312646D01*
X141141444Y-89307900D01*
X141011229Y-89307878D01*
X140241556Y-89324563D01*
G37*
X140241556Y-89324563D02*
X139760835Y-89397713D01*
X139552993Y-89561976D01*
X139601955Y-89851995D01*
X139891647Y-90302417D01*
X140306545Y-90826753D01*
X140691725Y-91307948D01*
X140988368Y-91698313D01*
X141151800Y-91938158D01*
X141170000Y-91980469D01*
X141030751Y-92034323D01*
X140671561Y-92070034D01*
X140323333Y-92078787D01*
X139834046Y-92092151D01*
X139579155Y-92149929D01*
X139485696Y-92278654D01*
X139476666Y-92386666D01*
X139498749Y-92529762D01*
X139603072Y-92620073D01*
X139846746Y-92669624D01*
X140286880Y-92690438D01*
X140939090Y-92694545D01*
X141622668Y-92688681D01*
X142054507Y-92664080D01*
X142290639Y-92610229D01*
X142387096Y-92516613D01*
X142401515Y-92420136D01*
X142307511Y-92182397D01*
X142056804Y-91785351D01*
X141696352Y-91300582D01*
X141543189Y-91111651D01*
X140684864Y-90077575D01*
X141543189Y-90077575D01*
X142032249Y-90067900D01*
X142288396Y-90016496D01*
X142386489Y-89889801D01*
X142401515Y-89692727D01*
X142390541Y-89510799D01*
X142318190Y-89397724D01*
X142125320Y-89337130D01*
X141752785Y-89312646D01*
X141141444Y-89307900D01*
X141011229Y-89307878D01*
X140241556Y-89324563D01*
G36*
X145287878Y-89308737D02*
G01*
X144321988Y-89402391D01*
X143596338Y-89678210D01*
X143115671Y-90132748D01*
X142884733Y-90762560D01*
X142863333Y-91069914D01*
X142983661Y-91744473D01*
X143346950Y-92237267D01*
X143956656Y-92550801D01*
X144816235Y-92687580D01*
X145105475Y-92694545D01*
X145942121Y-92694545D01*
X145942121Y-91081114D01*
X145018484Y-91081114D01*
X145018484Y-92084653D01*
X144595151Y-91983524D01*
X144211115Y-91855649D01*
X143979393Y-91730833D01*
X143828422Y-91446134D01*
X143795651Y-91018098D01*
X143876210Y-90585602D01*
X144028874Y-90319480D01*
X144372390Y-90126027D01*
X144644632Y-90077575D01*
X144845454Y-90096460D01*
X144957442Y-90199363D01*
X145006441Y-90455657D01*
X145018295Y-90934715D01*
X145018484Y-91081114D01*
X145942121Y-91081114D01*
X145942121Y-89307878D01*
X145287878Y-89308737D01*
G37*
X145287878Y-89308737D02*
X144321988Y-89402391D01*
X143596338Y-89678210D01*
X143115671Y-90132748D01*
X142884733Y-90762560D01*
X142863333Y-91069914D01*
X142983661Y-91744473D01*
X143346950Y-92237267D01*
X143956656Y-92550801D01*
X144816235Y-92687580D01*
X145105475Y-92694545D01*
X145942121Y-92694545D01*
X145942121Y-91081114D01*
X145018484Y-91081114D01*
X145018484Y-92084653D01*
X144595151Y-91983524D01*
X144211115Y-91855649D01*
X143979393Y-91730833D01*
X143828422Y-91446134D01*
X143795651Y-91018098D01*
X143876210Y-90585602D01*
X144028874Y-90319480D01*
X144372390Y-90126027D01*
X144644632Y-90077575D01*
X144845454Y-90096460D01*
X144957442Y-90199363D01*
X145006441Y-90455657D01*
X145018295Y-90934715D01*
X145018484Y-91081114D01*
X145942121Y-91081114D01*
X145942121Y-89307878D01*
X145287878Y-89308737D01*
G36*
X148011891Y-89364157D02*
G01*
X147426456Y-89517601D01*
X147045358Y-89745123D01*
X146986702Y-89817812D01*
X146872926Y-90255003D01*
X147001502Y-90713021D01*
X147110068Y-90862081D01*
X147244110Y-91051740D01*
X147236149Y-91247786D01*
X147068135Y-91550589D01*
X146956128Y-91718119D01*
X146660165Y-92208523D01*
X146580986Y-92512364D01*
X146719438Y-92662528D01*
X146981212Y-92694129D01*
X147306406Y-92624237D01*
X147564776Y-92367405D01*
X147712424Y-92118673D01*
X147965180Y-91746889D01*
X148221816Y-91518078D01*
X148289696Y-91492044D01*
X148464385Y-91513209D01*
X148543196Y-91712421D01*
X148559090Y-92067500D01*
X148576485Y-92466995D01*
X148671636Y-92646410D01*
X148908995Y-92693258D01*
X149020909Y-92694545D01*
X149482727Y-92694545D01*
X149482727Y-90473130D01*
X148559090Y-90473130D01*
X148508836Y-90761451D01*
X148305968Y-90829190D01*
X148212727Y-90819494D01*
X147901515Y-90644194D01*
X147817172Y-90423939D01*
X147837820Y-90165224D01*
X148057492Y-90080681D01*
X148163535Y-90077575D01*
X148461204Y-90136573D01*
X148556171Y-90375294D01*
X148559090Y-90473130D01*
X149482727Y-90473130D01*
X149482727Y-89307878D01*
X148723051Y-89307878D01*
X148011891Y-89364157D01*
G37*
X148011891Y-89364157D02*
X147426456Y-89517601D01*
X147045358Y-89745123D01*
X146986702Y-89817812D01*
X146872926Y-90255003D01*
X147001502Y-90713021D01*
X147110068Y-90862081D01*
X147244110Y-91051740D01*
X147236149Y-91247786D01*
X147068135Y-91550589D01*
X146956128Y-91718119D01*
X146660165Y-92208523D01*
X146580986Y-92512364D01*
X146719438Y-92662528D01*
X146981212Y-92694129D01*
X147306406Y-92624237D01*
X147564776Y-92367405D01*
X147712424Y-92118673D01*
X147965180Y-91746889D01*
X148221816Y-91518078D01*
X148289696Y-91492044D01*
X148464385Y-91513209D01*
X148543196Y-91712421D01*
X148559090Y-92067500D01*
X148576485Y-92466995D01*
X148671636Y-92646410D01*
X148908995Y-92693258D01*
X149020909Y-92694545D01*
X149482727Y-92694545D01*
X149482727Y-90473130D01*
X148559090Y-90473130D01*
X148508836Y-90761451D01*
X148305968Y-90829190D01*
X148212727Y-90819494D01*
X147901515Y-90644194D01*
X147817172Y-90423939D01*
X147837820Y-90165224D01*
X148057492Y-90080681D01*
X148163535Y-90077575D01*
X148461204Y-90136573D01*
X148556171Y-90375294D01*
X148559090Y-90473130D01*
X149482727Y-90473130D01*
X149482727Y-89307878D01*
X148723051Y-89307878D01*
X148011891Y-89364157D01*
G36*
X152573272Y-89332194D02*
G01*
X152441634Y-89463962D01*
X152408304Y-89791414D01*
X152407575Y-89923636D01*
X152407575Y-90539394D01*
X151176060Y-90539394D01*
X151176060Y-89913411D01*
X151159970Y-89516795D01*
X151072498Y-89347616D01*
X150854841Y-89325687D01*
X150752727Y-89336138D01*
X150329393Y-89384848D01*
X150285701Y-91039697D01*
X150242008Y-92694545D01*
X150709034Y-92694545D01*
X150996185Y-92674901D01*
X151132186Y-92560245D01*
X151173389Y-92266991D01*
X151176060Y-92001818D01*
X151176060Y-91309090D01*
X152407575Y-91309090D01*
X152407575Y-92001818D01*
X152420963Y-92427786D01*
X152498259Y-92629539D01*
X152695168Y-92690629D01*
X152869393Y-92694545D01*
X153331212Y-92694545D01*
X153331212Y-89307878D01*
X152869393Y-89307878D01*
X152573272Y-89332194D01*
G37*
X152573272Y-89332194D02*
X152441634Y-89463962D01*
X152408304Y-89791414D01*
X152407575Y-89923636D01*
X152407575Y-90539394D01*
X151176060Y-90539394D01*
X151176060Y-89913411D01*
X151159970Y-89516795D01*
X151072498Y-89347616D01*
X150854841Y-89325687D01*
X150752727Y-89336138D01*
X150329393Y-89384848D01*
X150285701Y-91039697D01*
X150242008Y-92694545D01*
X150709034Y-92694545D01*
X150996185Y-92674901D01*
X151132186Y-92560245D01*
X151173389Y-92266991D01*
X151176060Y-92001818D01*
X151176060Y-91309090D01*
X152407575Y-91309090D01*
X152407575Y-92001818D01*
X152420963Y-92427786D01*
X152498259Y-92629539D01*
X152695168Y-92690629D01*
X152869393Y-92694545D01*
X153331212Y-92694545D01*
X153331212Y-89307878D01*
X152869393Y-89307878D01*
X152573272Y-89332194D01*
G36*
X154139393Y-86173146D02*
G01*
X153709882Y-86560202D01*
X153467448Y-86847202D01*
X153359048Y-87126787D01*
X153331642Y-87491599D01*
X153331212Y-87584661D01*
X153331212Y-88296755D01*
X154143288Y-87494766D01*
X154955365Y-86692777D01*
X155451025Y-87188438D01*
X155946686Y-87684098D01*
X155095270Y-88544492D01*
X154243854Y-89404885D01*
X154287836Y-91060399D01*
X154331818Y-92715914D01*
X154755151Y-92273473D01*
X154983883Y-92000547D01*
X155111695Y-91717593D01*
X155167059Y-91323211D01*
X155178484Y-90765742D01*
X155178484Y-89700453D01*
X157179686Y-87683799D01*
X156063631Y-86578762D01*
X154947575Y-85473725D01*
X154139393Y-86173146D01*
G37*
X154139393Y-86173146D02*
X153709882Y-86560202D01*
X153467448Y-86847202D01*
X153359048Y-87126787D01*
X153331642Y-87491599D01*
X153331212Y-87584661D01*
X153331212Y-88296755D01*
X154143288Y-87494766D01*
X154955365Y-86692777D01*
X155451025Y-87188438D01*
X155946686Y-87684098D01*
X155095270Y-88544492D01*
X154243854Y-89404885D01*
X154287836Y-91060399D01*
X154331818Y-92715914D01*
X154755151Y-92273473D01*
X154983883Y-92000547D01*
X155111695Y-91717593D01*
X155167059Y-91323211D01*
X155178484Y-90765742D01*
X155178484Y-89700453D01*
X157179686Y-87683799D01*
X156063631Y-86578762D01*
X154947575Y-85473725D01*
X154139393Y-86173146D01*
G36*
X104139393Y-86173146D02*
G01*
X103709882Y-86560202D01*
X103467448Y-86847202D01*
X103359048Y-87126787D01*
X103331642Y-87491599D01*
X103331212Y-87584661D01*
X103331212Y-88296755D01*
X104143288Y-87494766D01*
X104955365Y-86692777D01*
X105451025Y-87188438D01*
X105946686Y-87684098D01*
X105095270Y-88544492D01*
X104243854Y-89404885D01*
X104287836Y-91060399D01*
X104331818Y-92715914D01*
X104755151Y-92273473D01*
X104983883Y-92000547D01*
X105111695Y-91717593D01*
X105167059Y-91323211D01*
X105178484Y-90765742D01*
X105178484Y-89700453D01*
X107179686Y-87683799D01*
X106063631Y-86578762D01*
X104947575Y-85473725D01*
X104139393Y-86173146D01*
G37*
X104139393Y-86173146D02*
X103709882Y-86560202D01*
X103467448Y-86847202D01*
X103359048Y-87126787D01*
X103331642Y-87491599D01*
X103331212Y-87584661D01*
X103331212Y-88296755D01*
X104143288Y-87494766D01*
X104955365Y-86692777D01*
X105451025Y-87188438D01*
X105946686Y-87684098D01*
X105095270Y-88544492D01*
X104243854Y-89404885D01*
X104287836Y-91060399D01*
X104331818Y-92715914D01*
X104755151Y-92273473D01*
X104983883Y-92000547D01*
X105111695Y-91717593D01*
X105167059Y-91323211D01*
X105178484Y-90765742D01*
X105178484Y-89700453D01*
X107179686Y-87683799D01*
X106063631Y-86578762D01*
X104947575Y-85473725D01*
X104139393Y-86173146D01*
G36*
X102573272Y-89332194D02*
G01*
X102441634Y-89463962D01*
X102408304Y-89791414D01*
X102407575Y-89923636D01*
X102407575Y-90539394D01*
X101176060Y-90539394D01*
X101176060Y-89913411D01*
X101159970Y-89516795D01*
X101072498Y-89347616D01*
X100854841Y-89325687D01*
X100752727Y-89336138D01*
X100329393Y-89384848D01*
X100285701Y-91039697D01*
X100242008Y-92694545D01*
X100709034Y-92694545D01*
X100996185Y-92674901D01*
X101132186Y-92560245D01*
X101173389Y-92266991D01*
X101176060Y-92001818D01*
X101176060Y-91309090D01*
X102407575Y-91309090D01*
X102407575Y-92001818D01*
X102420963Y-92427786D01*
X102498259Y-92629539D01*
X102695168Y-92690629D01*
X102869393Y-92694545D01*
X103331212Y-92694545D01*
X103331212Y-89307878D01*
X102869393Y-89307878D01*
X102573272Y-89332194D01*
G37*
X102573272Y-89332194D02*
X102441634Y-89463962D01*
X102408304Y-89791414D01*
X102407575Y-89923636D01*
X102407575Y-90539394D01*
X101176060Y-90539394D01*
X101176060Y-89913411D01*
X101159970Y-89516795D01*
X101072498Y-89347616D01*
X100854841Y-89325687D01*
X100752727Y-89336138D01*
X100329393Y-89384848D01*
X100285701Y-91039697D01*
X100242008Y-92694545D01*
X100709034Y-92694545D01*
X100996185Y-92674901D01*
X101132186Y-92560245D01*
X101173389Y-92266991D01*
X101176060Y-92001818D01*
X101176060Y-91309090D01*
X102407575Y-91309090D01*
X102407575Y-92001818D01*
X102420963Y-92427786D01*
X102498259Y-92629539D01*
X102695168Y-92690629D01*
X102869393Y-92694545D01*
X103331212Y-92694545D01*
X103331212Y-89307878D01*
X102869393Y-89307878D01*
X102573272Y-89332194D01*
G36*
X98011891Y-89364157D02*
G01*
X97426456Y-89517601D01*
X97045358Y-89745123D01*
X96986702Y-89817812D01*
X96872926Y-90255003D01*
X97001502Y-90713021D01*
X97110068Y-90862081D01*
X97244110Y-91051740D01*
X97236149Y-91247786D01*
X97068135Y-91550589D01*
X96956128Y-91718119D01*
X96660165Y-92208523D01*
X96580986Y-92512364D01*
X96719438Y-92662528D01*
X96981212Y-92694129D01*
X97306406Y-92624237D01*
X97564776Y-92367405D01*
X97712424Y-92118673D01*
X97965180Y-91746889D01*
X98221816Y-91518078D01*
X98289696Y-91492044D01*
X98464385Y-91513209D01*
X98543196Y-91712421D01*
X98559090Y-92067500D01*
X98576485Y-92466995D01*
X98671636Y-92646410D01*
X98908995Y-92693258D01*
X99020909Y-92694545D01*
X99482727Y-92694545D01*
X99482727Y-90473130D01*
X98559090Y-90473130D01*
X98508836Y-90761451D01*
X98305968Y-90829190D01*
X98212727Y-90819494D01*
X97901515Y-90644194D01*
X97817172Y-90423939D01*
X97837820Y-90165224D01*
X98057492Y-90080681D01*
X98163535Y-90077575D01*
X98461204Y-90136573D01*
X98556171Y-90375294D01*
X98559090Y-90473130D01*
X99482727Y-90473130D01*
X99482727Y-89307878D01*
X98723051Y-89307878D01*
X98011891Y-89364157D01*
G37*
X98011891Y-89364157D02*
X97426456Y-89517601D01*
X97045358Y-89745123D01*
X96986702Y-89817812D01*
X96872926Y-90255003D01*
X97001502Y-90713021D01*
X97110068Y-90862081D01*
X97244110Y-91051740D01*
X97236149Y-91247786D01*
X97068135Y-91550589D01*
X96956128Y-91718119D01*
X96660165Y-92208523D01*
X96580986Y-92512364D01*
X96719438Y-92662528D01*
X96981212Y-92694129D01*
X97306406Y-92624237D01*
X97564776Y-92367405D01*
X97712424Y-92118673D01*
X97965180Y-91746889D01*
X98221816Y-91518078D01*
X98289696Y-91492044D01*
X98464385Y-91513209D01*
X98543196Y-91712421D01*
X98559090Y-92067500D01*
X98576485Y-92466995D01*
X98671636Y-92646410D01*
X98908995Y-92693258D01*
X99020909Y-92694545D01*
X99482727Y-92694545D01*
X99482727Y-90473130D01*
X98559090Y-90473130D01*
X98508836Y-90761451D01*
X98305968Y-90829190D01*
X98212727Y-90819494D01*
X97901515Y-90644194D01*
X97817172Y-90423939D01*
X97837820Y-90165224D01*
X98057492Y-90080681D01*
X98163535Y-90077575D01*
X98461204Y-90136573D01*
X98556171Y-90375294D01*
X98559090Y-90473130D01*
X99482727Y-90473130D01*
X99482727Y-89307878D01*
X98723051Y-89307878D01*
X98011891Y-89364157D01*
G36*
X95287878Y-89308737D02*
G01*
X94321988Y-89402391D01*
X93596338Y-89678210D01*
X93115671Y-90132748D01*
X92884733Y-90762560D01*
X92863333Y-91069914D01*
X92983661Y-91744473D01*
X93346950Y-92237267D01*
X93956656Y-92550801D01*
X94816235Y-92687580D01*
X95105475Y-92694545D01*
X95942121Y-92694545D01*
X95942121Y-91081114D01*
X95018484Y-91081114D01*
X95018484Y-92084653D01*
X94595151Y-91983524D01*
X94211115Y-91855649D01*
X93979393Y-91730833D01*
X93828422Y-91446134D01*
X93795651Y-91018098D01*
X93876210Y-90585602D01*
X94028874Y-90319480D01*
X94372390Y-90126027D01*
X94644632Y-90077575D01*
X94845454Y-90096460D01*
X94957442Y-90199363D01*
X95006441Y-90455657D01*
X95018295Y-90934715D01*
X95018484Y-91081114D01*
X95942121Y-91081114D01*
X95942121Y-89307878D01*
X95287878Y-89308737D01*
G37*
X95287878Y-89308737D02*
X94321988Y-89402391D01*
X93596338Y-89678210D01*
X93115671Y-90132748D01*
X92884733Y-90762560D01*
X92863333Y-91069914D01*
X92983661Y-91744473D01*
X93346950Y-92237267D01*
X93956656Y-92550801D01*
X94816235Y-92687580D01*
X95105475Y-92694545D01*
X95942121Y-92694545D01*
X95942121Y-91081114D01*
X95018484Y-91081114D01*
X95018484Y-92084653D01*
X94595151Y-91983524D01*
X94211115Y-91855649D01*
X93979393Y-91730833D01*
X93828422Y-91446134D01*
X93795651Y-91018098D01*
X93876210Y-90585602D01*
X94028874Y-90319480D01*
X94372390Y-90126027D01*
X94644632Y-90077575D01*
X94845454Y-90096460D01*
X94957442Y-90199363D01*
X95006441Y-90455657D01*
X95018295Y-90934715D01*
X95018484Y-91081114D01*
X95942121Y-91081114D01*
X95942121Y-89307878D01*
X95287878Y-89308737D01*
G36*
X90241556Y-89324563D02*
G01*
X89760835Y-89397713D01*
X89552993Y-89561976D01*
X89601955Y-89851995D01*
X89891647Y-90302417D01*
X90306545Y-90826753D01*
X90691725Y-91307948D01*
X90988368Y-91698313D01*
X91151800Y-91938158D01*
X91170000Y-91980469D01*
X91030751Y-92034323D01*
X90671561Y-92070034D01*
X90323333Y-92078787D01*
X89834046Y-92092151D01*
X89579155Y-92149929D01*
X89485696Y-92278654D01*
X89476666Y-92386666D01*
X89498749Y-92529762D01*
X89603072Y-92620073D01*
X89846746Y-92669624D01*
X90286880Y-92690438D01*
X90939090Y-92694545D01*
X91622668Y-92688681D01*
X92054507Y-92664080D01*
X92290639Y-92610229D01*
X92387096Y-92516613D01*
X92401515Y-92420136D01*
X92307511Y-92182397D01*
X92056804Y-91785351D01*
X91696352Y-91300582D01*
X91543189Y-91111651D01*
X90684864Y-90077575D01*
X91543189Y-90077575D01*
X92032249Y-90067900D01*
X92288396Y-90016496D01*
X92386489Y-89889801D01*
X92401515Y-89692727D01*
X92390541Y-89510799D01*
X92318190Y-89397724D01*
X92125320Y-89337130D01*
X91752785Y-89312646D01*
X91141444Y-89307900D01*
X91011229Y-89307878D01*
X90241556Y-89324563D01*
G37*
X90241556Y-89324563D02*
X89760835Y-89397713D01*
X89552993Y-89561976D01*
X89601955Y-89851995D01*
X89891647Y-90302417D01*
X90306545Y-90826753D01*
X90691725Y-91307948D01*
X90988368Y-91698313D01*
X91151800Y-91938158D01*
X91170000Y-91980469D01*
X91030751Y-92034323D01*
X90671561Y-92070034D01*
X90323333Y-92078787D01*
X89834046Y-92092151D01*
X89579155Y-92149929D01*
X89485696Y-92278654D01*
X89476666Y-92386666D01*
X89498749Y-92529762D01*
X89603072Y-92620073D01*
X89846746Y-92669624D01*
X90286880Y-92690438D01*
X90939090Y-92694545D01*
X91622668Y-92688681D01*
X92054507Y-92664080D01*
X92290639Y-92610229D01*
X92387096Y-92516613D01*
X92401515Y-92420136D01*
X92307511Y-92182397D01*
X92056804Y-91785351D01*
X91696352Y-91300582D01*
X91543189Y-91111651D01*
X90684864Y-90077575D01*
X91543189Y-90077575D01*
X92032249Y-90067900D01*
X92288396Y-90016496D01*
X92386489Y-89889801D01*
X92401515Y-89692727D01*
X92390541Y-89510799D01*
X92318190Y-89397724D01*
X92125320Y-89337130D01*
X91752785Y-89312646D01*
X91141444Y-89307900D01*
X91011229Y-89307878D01*
X90241556Y-89324563D01*
G36*
X87986380Y-89330757D02*
G01*
X87774967Y-89447322D01*
X87598353Y-89729463D01*
X87446399Y-90077575D01*
X87250072Y-90504146D01*
X87084895Y-90783649D01*
X87013636Y-90847272D01*
X86897089Y-90717378D01*
X86717194Y-90383147D01*
X86580873Y-90077575D01*
X86378929Y-89630791D01*
X86200796Y-89401604D01*
X85965477Y-89318124D01*
X85713682Y-89307878D01*
X85166363Y-89307878D01*
X85166363Y-92694545D01*
X85544468Y-92694545D01*
X85740176Y-92676699D01*
X85857127Y-92579298D01*
X85920276Y-92336552D01*
X85954578Y-91882668D01*
X85967801Y-91578484D01*
X86013030Y-90462424D01*
X86378350Y-91270606D01*
X86671514Y-91808425D01*
X86932577Y-92060581D01*
X87013636Y-92078787D01*
X87261024Y-91928941D01*
X87544287Y-91488630D01*
X87648922Y-91270606D01*
X88014242Y-90462424D01*
X88059471Y-91578484D01*
X88088841Y-92154028D01*
X88135356Y-92487584D01*
X88223972Y-92644945D01*
X88379644Y-92691902D01*
X88482804Y-92694545D01*
X88860909Y-92694545D01*
X88860909Y-89307878D01*
X88313590Y-89307878D01*
X87986380Y-89330757D01*
G37*
X87986380Y-89330757D02*
X87774967Y-89447322D01*
X87598353Y-89729463D01*
X87446399Y-90077575D01*
X87250072Y-90504146D01*
X87084895Y-90783649D01*
X87013636Y-90847272D01*
X86897089Y-90717378D01*
X86717194Y-90383147D01*
X86580873Y-90077575D01*
X86378929Y-89630791D01*
X86200796Y-89401604D01*
X85965477Y-89318124D01*
X85713682Y-89307878D01*
X85166363Y-89307878D01*
X85166363Y-92694545D01*
X85544468Y-92694545D01*
X85740176Y-92676699D01*
X85857127Y-92579298D01*
X85920276Y-92336552D01*
X85954578Y-91882668D01*
X85967801Y-91578484D01*
X86013030Y-90462424D01*
X86378350Y-91270606D01*
X86671514Y-91808425D01*
X86932577Y-92060581D01*
X87013636Y-92078787D01*
X87261024Y-91928941D01*
X87544287Y-91488630D01*
X87648922Y-91270606D01*
X88014242Y-90462424D01*
X88059471Y-91578484D01*
X88088841Y-92154028D01*
X88135356Y-92487584D01*
X88223972Y-92644945D01*
X88379644Y-92691902D01*
X88482804Y-92694545D01*
X88860909Y-92694545D01*
X88860909Y-89307878D01*
X88313590Y-89307878D01*
X87986380Y-89330757D01*
G36*
X89911550Y-86144707D02*
G01*
X88832084Y-86340377D01*
X87833879Y-86522039D01*
X86962911Y-86681269D01*
X86265160Y-86809640D01*
X85786604Y-86898729D01*
X85589696Y-86936623D01*
X85312589Y-87031269D01*
X85192331Y-87229158D01*
X85166363Y-87626776D01*
X85188528Y-88007971D01*
X85243768Y-88216807D01*
X85264360Y-88230303D01*
X85435570Y-88203450D01*
X85869893Y-88127650D01*
X86527714Y-88010036D01*
X87369419Y-87857745D01*
X88355393Y-87677911D01*
X89446021Y-87477669D01*
X89574663Y-87453968D01*
X93786969Y-86677634D01*
X97999276Y-87453968D01*
X99104042Y-87656459D01*
X100113046Y-87839259D01*
X100985726Y-87995193D01*
X101681519Y-88117081D01*
X102159864Y-88197748D01*
X102380199Y-88230014D01*
X102386549Y-88230303D01*
X102503464Y-88094969D01*
X102560375Y-87761512D01*
X102561515Y-87700600D01*
X102523638Y-87319329D01*
X102431152Y-87092479D01*
X102418231Y-87082343D01*
X102234780Y-87032464D01*
X101788462Y-86935885D01*
X101119400Y-86800543D01*
X100267718Y-86634377D01*
X99273540Y-86445327D01*
X98176990Y-86241329D01*
X98042509Y-86216604D01*
X93810070Y-85439420D01*
X89911550Y-86144707D01*
G37*
X89911550Y-86144707D02*
X88832084Y-86340377D01*
X87833879Y-86522039D01*
X86962911Y-86681269D01*
X86265160Y-86809640D01*
X85786604Y-86898729D01*
X85589696Y-86936623D01*
X85312589Y-87031269D01*
X85192331Y-87229158D01*
X85166363Y-87626776D01*
X85188528Y-88007971D01*
X85243768Y-88216807D01*
X85264360Y-88230303D01*
X85435570Y-88203450D01*
X85869893Y-88127650D01*
X86527714Y-88010036D01*
X87369419Y-87857745D01*
X88355393Y-87677911D01*
X89446021Y-87477669D01*
X89574663Y-87453968D01*
X93786969Y-86677634D01*
X97999276Y-87453968D01*
X99104042Y-87656459D01*
X100113046Y-87839259D01*
X100985726Y-87995193D01*
X101681519Y-88117081D01*
X102159864Y-88197748D01*
X102380199Y-88230014D01*
X102386549Y-88230303D01*
X102503464Y-88094969D01*
X102560375Y-87761512D01*
X102561515Y-87700600D01*
X102523638Y-87319329D01*
X102431152Y-87092479D01*
X102418231Y-87082343D01*
X102234780Y-87032464D01*
X101788462Y-86935885D01*
X101119400Y-86800543D01*
X100267718Y-86634377D01*
X99273540Y-86445327D01*
X98176990Y-86241329D01*
X98042509Y-86216604D01*
X93810070Y-85439420D01*
X89911550Y-86144707D01*
G36*
X89911550Y-66144707D02*
G01*
X88832084Y-66340377D01*
X87833879Y-66522039D01*
X86962911Y-66681269D01*
X86265160Y-66809640D01*
X85786604Y-66898729D01*
X85589696Y-66936623D01*
X85312589Y-67031269D01*
X85192331Y-67229158D01*
X85166363Y-67626776D01*
X85188528Y-68007971D01*
X85243768Y-68216807D01*
X85264360Y-68230303D01*
X85435570Y-68203450D01*
X85869893Y-68127650D01*
X86527714Y-68010036D01*
X87369419Y-67857745D01*
X88355393Y-67677911D01*
X89446021Y-67477669D01*
X89574663Y-67453968D01*
X93786969Y-66677634D01*
X97999276Y-67453968D01*
X99104042Y-67656459D01*
X100113046Y-67839259D01*
X100985726Y-67995193D01*
X101681519Y-68117081D01*
X102159864Y-68197748D01*
X102380199Y-68230014D01*
X102386549Y-68230303D01*
X102503464Y-68094969D01*
X102560375Y-67761512D01*
X102561515Y-67700600D01*
X102523638Y-67319329D01*
X102431152Y-67092479D01*
X102418231Y-67082343D01*
X102234780Y-67032464D01*
X101788462Y-66935885D01*
X101119400Y-66800543D01*
X100267718Y-66634377D01*
X99273540Y-66445327D01*
X98176990Y-66241329D01*
X98042509Y-66216604D01*
X93810070Y-65439420D01*
X89911550Y-66144707D01*
G37*
X89911550Y-66144707D02*
X88832084Y-66340377D01*
X87833879Y-66522039D01*
X86962911Y-66681269D01*
X86265160Y-66809640D01*
X85786604Y-66898729D01*
X85589696Y-66936623D01*
X85312589Y-67031269D01*
X85192331Y-67229158D01*
X85166363Y-67626776D01*
X85188528Y-68007971D01*
X85243768Y-68216807D01*
X85264360Y-68230303D01*
X85435570Y-68203450D01*
X85869893Y-68127650D01*
X86527714Y-68010036D01*
X87369419Y-67857745D01*
X88355393Y-67677911D01*
X89446021Y-67477669D01*
X89574663Y-67453968D01*
X93786969Y-66677634D01*
X97999276Y-67453968D01*
X99104042Y-67656459D01*
X100113046Y-67839259D01*
X100985726Y-67995193D01*
X101681519Y-68117081D01*
X102159864Y-68197748D01*
X102380199Y-68230014D01*
X102386549Y-68230303D01*
X102503464Y-68094969D01*
X102560375Y-67761512D01*
X102561515Y-67700600D01*
X102523638Y-67319329D01*
X102431152Y-67092479D01*
X102418231Y-67082343D01*
X102234780Y-67032464D01*
X101788462Y-66935885D01*
X101119400Y-66800543D01*
X100267718Y-66634377D01*
X99273540Y-66445327D01*
X98176990Y-66241329D01*
X98042509Y-66216604D01*
X93810070Y-65439420D01*
X89911550Y-66144707D01*
G36*
X87986380Y-69330757D02*
G01*
X87774967Y-69447322D01*
X87598353Y-69729463D01*
X87446399Y-70077575D01*
X87250072Y-70504146D01*
X87084895Y-70783649D01*
X87013636Y-70847272D01*
X86897089Y-70717378D01*
X86717194Y-70383147D01*
X86580873Y-70077575D01*
X86378929Y-69630791D01*
X86200796Y-69401604D01*
X85965477Y-69318124D01*
X85713682Y-69307878D01*
X85166363Y-69307878D01*
X85166363Y-72694545D01*
X85544468Y-72694545D01*
X85740176Y-72676699D01*
X85857127Y-72579298D01*
X85920276Y-72336552D01*
X85954578Y-71882668D01*
X85967801Y-71578484D01*
X86013030Y-70462424D01*
X86378350Y-71270606D01*
X86671514Y-71808425D01*
X86932577Y-72060581D01*
X87013636Y-72078787D01*
X87261024Y-71928941D01*
X87544287Y-71488630D01*
X87648922Y-71270606D01*
X88014242Y-70462424D01*
X88059471Y-71578484D01*
X88088841Y-72154028D01*
X88135356Y-72487584D01*
X88223972Y-72644945D01*
X88379644Y-72691902D01*
X88482804Y-72694545D01*
X88860909Y-72694545D01*
X88860909Y-69307878D01*
X88313590Y-69307878D01*
X87986380Y-69330757D01*
G37*
X87986380Y-69330757D02*
X87774967Y-69447322D01*
X87598353Y-69729463D01*
X87446399Y-70077575D01*
X87250072Y-70504146D01*
X87084895Y-70783649D01*
X87013636Y-70847272D01*
X86897089Y-70717378D01*
X86717194Y-70383147D01*
X86580873Y-70077575D01*
X86378929Y-69630791D01*
X86200796Y-69401604D01*
X85965477Y-69318124D01*
X85713682Y-69307878D01*
X85166363Y-69307878D01*
X85166363Y-72694545D01*
X85544468Y-72694545D01*
X85740176Y-72676699D01*
X85857127Y-72579298D01*
X85920276Y-72336552D01*
X85954578Y-71882668D01*
X85967801Y-71578484D01*
X86013030Y-70462424D01*
X86378350Y-71270606D01*
X86671514Y-71808425D01*
X86932577Y-72060581D01*
X87013636Y-72078787D01*
X87261024Y-71928941D01*
X87544287Y-71488630D01*
X87648922Y-71270606D01*
X88014242Y-70462424D01*
X88059471Y-71578484D01*
X88088841Y-72154028D01*
X88135356Y-72487584D01*
X88223972Y-72644945D01*
X88379644Y-72691902D01*
X88482804Y-72694545D01*
X88860909Y-72694545D01*
X88860909Y-69307878D01*
X88313590Y-69307878D01*
X87986380Y-69330757D01*
G36*
X90241556Y-69324563D02*
G01*
X89760835Y-69397713D01*
X89552993Y-69561976D01*
X89601955Y-69851995D01*
X89891647Y-70302417D01*
X90306545Y-70826753D01*
X90691725Y-71307948D01*
X90988368Y-71698313D01*
X91151800Y-71938158D01*
X91170000Y-71980469D01*
X91030751Y-72034323D01*
X90671561Y-72070034D01*
X90323333Y-72078787D01*
X89834046Y-72092151D01*
X89579155Y-72149929D01*
X89485696Y-72278654D01*
X89476666Y-72386666D01*
X89498749Y-72529762D01*
X89603072Y-72620073D01*
X89846746Y-72669624D01*
X90286880Y-72690438D01*
X90939090Y-72694545D01*
X91622668Y-72688681D01*
X92054507Y-72664080D01*
X92290639Y-72610229D01*
X92387096Y-72516613D01*
X92401515Y-72420136D01*
X92307511Y-72182397D01*
X92056804Y-71785351D01*
X91696352Y-71300582D01*
X91543189Y-71111651D01*
X90684864Y-70077575D01*
X91543189Y-70077575D01*
X92032249Y-70067900D01*
X92288396Y-70016496D01*
X92386489Y-69889801D01*
X92401515Y-69692727D01*
X92390541Y-69510799D01*
X92318190Y-69397724D01*
X92125320Y-69337130D01*
X91752785Y-69312646D01*
X91141444Y-69307900D01*
X91011229Y-69307878D01*
X90241556Y-69324563D01*
G37*
X90241556Y-69324563D02*
X89760835Y-69397713D01*
X89552993Y-69561976D01*
X89601955Y-69851995D01*
X89891647Y-70302417D01*
X90306545Y-70826753D01*
X90691725Y-71307948D01*
X90988368Y-71698313D01*
X91151800Y-71938158D01*
X91170000Y-71980469D01*
X91030751Y-72034323D01*
X90671561Y-72070034D01*
X90323333Y-72078787D01*
X89834046Y-72092151D01*
X89579155Y-72149929D01*
X89485696Y-72278654D01*
X89476666Y-72386666D01*
X89498749Y-72529762D01*
X89603072Y-72620073D01*
X89846746Y-72669624D01*
X90286880Y-72690438D01*
X90939090Y-72694545D01*
X91622668Y-72688681D01*
X92054507Y-72664080D01*
X92290639Y-72610229D01*
X92387096Y-72516613D01*
X92401515Y-72420136D01*
X92307511Y-72182397D01*
X92056804Y-71785351D01*
X91696352Y-71300582D01*
X91543189Y-71111651D01*
X90684864Y-70077575D01*
X91543189Y-70077575D01*
X92032249Y-70067900D01*
X92288396Y-70016496D01*
X92386489Y-69889801D01*
X92401515Y-69692727D01*
X92390541Y-69510799D01*
X92318190Y-69397724D01*
X92125320Y-69337130D01*
X91752785Y-69312646D01*
X91141444Y-69307900D01*
X91011229Y-69307878D01*
X90241556Y-69324563D01*
G36*
X95287878Y-69308737D02*
G01*
X94321988Y-69402391D01*
X93596338Y-69678210D01*
X93115671Y-70132748D01*
X92884733Y-70762560D01*
X92863333Y-71069914D01*
X92983661Y-71744473D01*
X93346950Y-72237267D01*
X93956656Y-72550801D01*
X94816235Y-72687580D01*
X95105475Y-72694545D01*
X95942121Y-72694545D01*
X95942121Y-71081114D01*
X95018484Y-71081114D01*
X95018484Y-72084653D01*
X94595151Y-71983524D01*
X94211115Y-71855649D01*
X93979393Y-71730833D01*
X93828422Y-71446134D01*
X93795651Y-71018098D01*
X93876210Y-70585602D01*
X94028874Y-70319480D01*
X94372390Y-70126027D01*
X94644632Y-70077575D01*
X94845454Y-70096460D01*
X94957442Y-70199363D01*
X95006441Y-70455657D01*
X95018295Y-70934715D01*
X95018484Y-71081114D01*
X95942121Y-71081114D01*
X95942121Y-69307878D01*
X95287878Y-69308737D01*
G37*
X95287878Y-69308737D02*
X94321988Y-69402391D01*
X93596338Y-69678210D01*
X93115671Y-70132748D01*
X92884733Y-70762560D01*
X92863333Y-71069914D01*
X92983661Y-71744473D01*
X93346950Y-72237267D01*
X93956656Y-72550801D01*
X94816235Y-72687580D01*
X95105475Y-72694545D01*
X95942121Y-72694545D01*
X95942121Y-71081114D01*
X95018484Y-71081114D01*
X95018484Y-72084653D01*
X94595151Y-71983524D01*
X94211115Y-71855649D01*
X93979393Y-71730833D01*
X93828422Y-71446134D01*
X93795651Y-71018098D01*
X93876210Y-70585602D01*
X94028874Y-70319480D01*
X94372390Y-70126027D01*
X94644632Y-70077575D01*
X94845454Y-70096460D01*
X94957442Y-70199363D01*
X95006441Y-70455657D01*
X95018295Y-70934715D01*
X95018484Y-71081114D01*
X95942121Y-71081114D01*
X95942121Y-69307878D01*
X95287878Y-69308737D01*
G36*
X98011891Y-69364157D02*
G01*
X97426456Y-69517601D01*
X97045358Y-69745123D01*
X96986702Y-69817812D01*
X96872926Y-70255003D01*
X97001502Y-70713021D01*
X97110068Y-70862081D01*
X97244110Y-71051740D01*
X97236149Y-71247786D01*
X97068135Y-71550589D01*
X96956128Y-71718119D01*
X96660165Y-72208523D01*
X96580986Y-72512364D01*
X96719438Y-72662528D01*
X96981212Y-72694129D01*
X97306406Y-72624237D01*
X97564776Y-72367405D01*
X97712424Y-72118673D01*
X97965180Y-71746889D01*
X98221816Y-71518078D01*
X98289696Y-71492044D01*
X98464385Y-71513209D01*
X98543196Y-71712421D01*
X98559090Y-72067500D01*
X98576485Y-72466995D01*
X98671636Y-72646410D01*
X98908995Y-72693258D01*
X99020909Y-72694545D01*
X99482727Y-72694545D01*
X99482727Y-70473130D01*
X98559090Y-70473130D01*
X98508836Y-70761451D01*
X98305968Y-70829190D01*
X98212727Y-70819494D01*
X97901515Y-70644194D01*
X97817172Y-70423939D01*
X97837820Y-70165224D01*
X98057492Y-70080681D01*
X98163535Y-70077575D01*
X98461204Y-70136573D01*
X98556171Y-70375294D01*
X98559090Y-70473130D01*
X99482727Y-70473130D01*
X99482727Y-69307878D01*
X98723051Y-69307878D01*
X98011891Y-69364157D01*
G37*
X98011891Y-69364157D02*
X97426456Y-69517601D01*
X97045358Y-69745123D01*
X96986702Y-69817812D01*
X96872926Y-70255003D01*
X97001502Y-70713021D01*
X97110068Y-70862081D01*
X97244110Y-71051740D01*
X97236149Y-71247786D01*
X97068135Y-71550589D01*
X96956128Y-71718119D01*
X96660165Y-72208523D01*
X96580986Y-72512364D01*
X96719438Y-72662528D01*
X96981212Y-72694129D01*
X97306406Y-72624237D01*
X97564776Y-72367405D01*
X97712424Y-72118673D01*
X97965180Y-71746889D01*
X98221816Y-71518078D01*
X98289696Y-71492044D01*
X98464385Y-71513209D01*
X98543196Y-71712421D01*
X98559090Y-72067500D01*
X98576485Y-72466995D01*
X98671636Y-72646410D01*
X98908995Y-72693258D01*
X99020909Y-72694545D01*
X99482727Y-72694545D01*
X99482727Y-70473130D01*
X98559090Y-70473130D01*
X98508836Y-70761451D01*
X98305968Y-70829190D01*
X98212727Y-70819494D01*
X97901515Y-70644194D01*
X97817172Y-70423939D01*
X97837820Y-70165224D01*
X98057492Y-70080681D01*
X98163535Y-70077575D01*
X98461204Y-70136573D01*
X98556171Y-70375294D01*
X98559090Y-70473130D01*
X99482727Y-70473130D01*
X99482727Y-69307878D01*
X98723051Y-69307878D01*
X98011891Y-69364157D01*
G36*
X102573272Y-69332194D02*
G01*
X102441634Y-69463962D01*
X102408304Y-69791414D01*
X102407575Y-69923636D01*
X102407575Y-70539394D01*
X101176060Y-70539394D01*
X101176060Y-69913411D01*
X101159970Y-69516795D01*
X101072498Y-69347616D01*
X100854841Y-69325687D01*
X100752727Y-69336138D01*
X100329393Y-69384848D01*
X100285701Y-71039697D01*
X100242008Y-72694545D01*
X100709034Y-72694545D01*
X100996185Y-72674901D01*
X101132186Y-72560245D01*
X101173389Y-72266991D01*
X101176060Y-72001818D01*
X101176060Y-71309090D01*
X102407575Y-71309090D01*
X102407575Y-72001818D01*
X102420963Y-72427786D01*
X102498259Y-72629539D01*
X102695168Y-72690629D01*
X102869393Y-72694545D01*
X103331212Y-72694545D01*
X103331212Y-69307878D01*
X102869393Y-69307878D01*
X102573272Y-69332194D01*
G37*
X102573272Y-69332194D02*
X102441634Y-69463962D01*
X102408304Y-69791414D01*
X102407575Y-69923636D01*
X102407575Y-70539394D01*
X101176060Y-70539394D01*
X101176060Y-69913411D01*
X101159970Y-69516795D01*
X101072498Y-69347616D01*
X100854841Y-69325687D01*
X100752727Y-69336138D01*
X100329393Y-69384848D01*
X100285701Y-71039697D01*
X100242008Y-72694545D01*
X100709034Y-72694545D01*
X100996185Y-72674901D01*
X101132186Y-72560245D01*
X101173389Y-72266991D01*
X101176060Y-72001818D01*
X101176060Y-71309090D01*
X102407575Y-71309090D01*
X102407575Y-72001818D01*
X102420963Y-72427786D01*
X102498259Y-72629539D01*
X102695168Y-72690629D01*
X102869393Y-72694545D01*
X103331212Y-72694545D01*
X103331212Y-69307878D01*
X102869393Y-69307878D01*
X102573272Y-69332194D01*
G36*
X104139393Y-66173146D02*
G01*
X103709882Y-66560202D01*
X103467448Y-66847202D01*
X103359048Y-67126787D01*
X103331642Y-67491599D01*
X103331212Y-67584661D01*
X103331212Y-68296755D01*
X104143288Y-67494766D01*
X104955365Y-66692777D01*
X105451025Y-67188438D01*
X105946686Y-67684098D01*
X105095270Y-68544492D01*
X104243854Y-69404885D01*
X104287836Y-71060399D01*
X104331818Y-72715914D01*
X104755151Y-72273473D01*
X104983883Y-72000547D01*
X105111695Y-71717593D01*
X105167059Y-71323211D01*
X105178484Y-70765742D01*
X105178484Y-69700453D01*
X107179686Y-67683799D01*
X106063631Y-66578762D01*
X104947575Y-65473725D01*
X104139393Y-66173146D01*
G37*
X104139393Y-66173146D02*
X103709882Y-66560202D01*
X103467448Y-66847202D01*
X103359048Y-67126787D01*
X103331642Y-67491599D01*
X103331212Y-67584661D01*
X103331212Y-68296755D01*
X104143288Y-67494766D01*
X104955365Y-66692777D01*
X105451025Y-67188438D01*
X105946686Y-67684098D01*
X105095270Y-68544492D01*
X104243854Y-69404885D01*
X104287836Y-71060399D01*
X104331818Y-72715914D01*
X104755151Y-72273473D01*
X104983883Y-72000547D01*
X105111695Y-71717593D01*
X105167059Y-71323211D01*
X105178484Y-70765742D01*
X105178484Y-69700453D01*
X107179686Y-67683799D01*
X106063631Y-66578762D01*
X104947575Y-65473725D01*
X104139393Y-66173146D01*
G36*
X154139393Y-66173146D02*
G01*
X153709882Y-66560202D01*
X153467448Y-66847202D01*
X153359048Y-67126787D01*
X153331642Y-67491599D01*
X153331212Y-67584661D01*
X153331212Y-68296755D01*
X154143288Y-67494766D01*
X154955365Y-66692777D01*
X155451025Y-67188438D01*
X155946686Y-67684098D01*
X155095270Y-68544492D01*
X154243854Y-69404885D01*
X154287836Y-71060399D01*
X154331818Y-72715914D01*
X154755151Y-72273473D01*
X154983883Y-72000547D01*
X155111695Y-71717593D01*
X155167059Y-71323211D01*
X155178484Y-70765742D01*
X155178484Y-69700453D01*
X157179686Y-67683799D01*
X156063631Y-66578762D01*
X154947575Y-65473725D01*
X154139393Y-66173146D01*
G37*
X154139393Y-66173146D02*
X153709882Y-66560202D01*
X153467448Y-66847202D01*
X153359048Y-67126787D01*
X153331642Y-67491599D01*
X153331212Y-67584661D01*
X153331212Y-68296755D01*
X154143288Y-67494766D01*
X154955365Y-66692777D01*
X155451025Y-67188438D01*
X155946686Y-67684098D01*
X155095270Y-68544492D01*
X154243854Y-69404885D01*
X154287836Y-71060399D01*
X154331818Y-72715914D01*
X154755151Y-72273473D01*
X154983883Y-72000547D01*
X155111695Y-71717593D01*
X155167059Y-71323211D01*
X155178484Y-70765742D01*
X155178484Y-69700453D01*
X157179686Y-67683799D01*
X156063631Y-66578762D01*
X154947575Y-65473725D01*
X154139393Y-66173146D01*
G36*
X152573272Y-69332194D02*
G01*
X152441634Y-69463962D01*
X152408304Y-69791414D01*
X152407575Y-69923636D01*
X152407575Y-70539394D01*
X151176060Y-70539394D01*
X151176060Y-69913411D01*
X151159970Y-69516795D01*
X151072498Y-69347616D01*
X150854841Y-69325687D01*
X150752727Y-69336138D01*
X150329393Y-69384848D01*
X150285701Y-71039697D01*
X150242008Y-72694545D01*
X150709034Y-72694545D01*
X150996185Y-72674901D01*
X151132186Y-72560245D01*
X151173389Y-72266991D01*
X151176060Y-72001818D01*
X151176060Y-71309090D01*
X152407575Y-71309090D01*
X152407575Y-72001818D01*
X152420963Y-72427786D01*
X152498259Y-72629539D01*
X152695168Y-72690629D01*
X152869393Y-72694545D01*
X153331212Y-72694545D01*
X153331212Y-69307878D01*
X152869393Y-69307878D01*
X152573272Y-69332194D01*
G37*
X152573272Y-69332194D02*
X152441634Y-69463962D01*
X152408304Y-69791414D01*
X152407575Y-69923636D01*
X152407575Y-70539394D01*
X151176060Y-70539394D01*
X151176060Y-69913411D01*
X151159970Y-69516795D01*
X151072498Y-69347616D01*
X150854841Y-69325687D01*
X150752727Y-69336138D01*
X150329393Y-69384848D01*
X150285701Y-71039697D01*
X150242008Y-72694545D01*
X150709034Y-72694545D01*
X150996185Y-72674901D01*
X151132186Y-72560245D01*
X151173389Y-72266991D01*
X151176060Y-72001818D01*
X151176060Y-71309090D01*
X152407575Y-71309090D01*
X152407575Y-72001818D01*
X152420963Y-72427786D01*
X152498259Y-72629539D01*
X152695168Y-72690629D01*
X152869393Y-72694545D01*
X153331212Y-72694545D01*
X153331212Y-69307878D01*
X152869393Y-69307878D01*
X152573272Y-69332194D01*
G36*
X148011891Y-69364157D02*
G01*
X147426456Y-69517601D01*
X147045358Y-69745123D01*
X146986702Y-69817812D01*
X146872926Y-70255003D01*
X147001502Y-70713021D01*
X147110068Y-70862081D01*
X147244110Y-71051740D01*
X147236149Y-71247786D01*
X147068135Y-71550589D01*
X146956128Y-71718119D01*
X146660165Y-72208523D01*
X146580986Y-72512364D01*
X146719438Y-72662528D01*
X146981212Y-72694129D01*
X147306406Y-72624237D01*
X147564776Y-72367405D01*
X147712424Y-72118673D01*
X147965180Y-71746889D01*
X148221816Y-71518078D01*
X148289696Y-71492044D01*
X148464385Y-71513209D01*
X148543196Y-71712421D01*
X148559090Y-72067500D01*
X148576485Y-72466995D01*
X148671636Y-72646410D01*
X148908995Y-72693258D01*
X149020909Y-72694545D01*
X149482727Y-72694545D01*
X149482727Y-70473130D01*
X148559090Y-70473130D01*
X148508836Y-70761451D01*
X148305968Y-70829190D01*
X148212727Y-70819494D01*
X147901515Y-70644194D01*
X147817172Y-70423939D01*
X147837820Y-70165224D01*
X148057492Y-70080681D01*
X148163535Y-70077575D01*
X148461204Y-70136573D01*
X148556171Y-70375294D01*
X148559090Y-70473130D01*
X149482727Y-70473130D01*
X149482727Y-69307878D01*
X148723051Y-69307878D01*
X148011891Y-69364157D01*
G37*
X148011891Y-69364157D02*
X147426456Y-69517601D01*
X147045358Y-69745123D01*
X146986702Y-69817812D01*
X146872926Y-70255003D01*
X147001502Y-70713021D01*
X147110068Y-70862081D01*
X147244110Y-71051740D01*
X147236149Y-71247786D01*
X147068135Y-71550589D01*
X146956128Y-71718119D01*
X146660165Y-72208523D01*
X146580986Y-72512364D01*
X146719438Y-72662528D01*
X146981212Y-72694129D01*
X147306406Y-72624237D01*
X147564776Y-72367405D01*
X147712424Y-72118673D01*
X147965180Y-71746889D01*
X148221816Y-71518078D01*
X148289696Y-71492044D01*
X148464385Y-71513209D01*
X148543196Y-71712421D01*
X148559090Y-72067500D01*
X148576485Y-72466995D01*
X148671636Y-72646410D01*
X148908995Y-72693258D01*
X149020909Y-72694545D01*
X149482727Y-72694545D01*
X149482727Y-70473130D01*
X148559090Y-70473130D01*
X148508836Y-70761451D01*
X148305968Y-70829190D01*
X148212727Y-70819494D01*
X147901515Y-70644194D01*
X147817172Y-70423939D01*
X147837820Y-70165224D01*
X148057492Y-70080681D01*
X148163535Y-70077575D01*
X148461204Y-70136573D01*
X148556171Y-70375294D01*
X148559090Y-70473130D01*
X149482727Y-70473130D01*
X149482727Y-69307878D01*
X148723051Y-69307878D01*
X148011891Y-69364157D01*
G36*
X145287878Y-69308737D02*
G01*
X144321988Y-69402391D01*
X143596338Y-69678210D01*
X143115671Y-70132748D01*
X142884733Y-70762560D01*
X142863333Y-71069914D01*
X142983661Y-71744473D01*
X143346950Y-72237267D01*
X143956656Y-72550801D01*
X144816235Y-72687580D01*
X145105475Y-72694545D01*
X145942121Y-72694545D01*
X145942121Y-71081114D01*
X145018484Y-71081114D01*
X145018484Y-72084653D01*
X144595151Y-71983524D01*
X144211115Y-71855649D01*
X143979393Y-71730833D01*
X143828422Y-71446134D01*
X143795651Y-71018098D01*
X143876210Y-70585602D01*
X144028874Y-70319480D01*
X144372390Y-70126027D01*
X144644632Y-70077575D01*
X144845454Y-70096460D01*
X144957442Y-70199363D01*
X145006441Y-70455657D01*
X145018295Y-70934715D01*
X145018484Y-71081114D01*
X145942121Y-71081114D01*
X145942121Y-69307878D01*
X145287878Y-69308737D01*
G37*
X145287878Y-69308737D02*
X144321988Y-69402391D01*
X143596338Y-69678210D01*
X143115671Y-70132748D01*
X142884733Y-70762560D01*
X142863333Y-71069914D01*
X142983661Y-71744473D01*
X143346950Y-72237267D01*
X143956656Y-72550801D01*
X144816235Y-72687580D01*
X145105475Y-72694545D01*
X145942121Y-72694545D01*
X145942121Y-71081114D01*
X145018484Y-71081114D01*
X145018484Y-72084653D01*
X144595151Y-71983524D01*
X144211115Y-71855649D01*
X143979393Y-71730833D01*
X143828422Y-71446134D01*
X143795651Y-71018098D01*
X143876210Y-70585602D01*
X144028874Y-70319480D01*
X144372390Y-70126027D01*
X144644632Y-70077575D01*
X144845454Y-70096460D01*
X144957442Y-70199363D01*
X145006441Y-70455657D01*
X145018295Y-70934715D01*
X145018484Y-71081114D01*
X145942121Y-71081114D01*
X145942121Y-69307878D01*
X145287878Y-69308737D01*
G36*
X140241556Y-69324563D02*
G01*
X139760835Y-69397713D01*
X139552993Y-69561976D01*
X139601955Y-69851995D01*
X139891647Y-70302417D01*
X140306545Y-70826753D01*
X140691725Y-71307948D01*
X140988368Y-71698313D01*
X141151800Y-71938158D01*
X141170000Y-71980469D01*
X141030751Y-72034323D01*
X140671561Y-72070034D01*
X140323333Y-72078787D01*
X139834046Y-72092151D01*
X139579155Y-72149929D01*
X139485696Y-72278654D01*
X139476666Y-72386666D01*
X139498749Y-72529762D01*
X139603072Y-72620073D01*
X139846746Y-72669624D01*
X140286880Y-72690438D01*
X140939090Y-72694545D01*
X141622668Y-72688681D01*
X142054507Y-72664080D01*
X142290639Y-72610229D01*
X142387096Y-72516613D01*
X142401515Y-72420136D01*
X142307511Y-72182397D01*
X142056804Y-71785351D01*
X141696352Y-71300582D01*
X141543189Y-71111651D01*
X140684864Y-70077575D01*
X141543189Y-70077575D01*
X142032249Y-70067900D01*
X142288396Y-70016496D01*
X142386489Y-69889801D01*
X142401515Y-69692727D01*
X142390541Y-69510799D01*
X142318190Y-69397724D01*
X142125320Y-69337130D01*
X141752785Y-69312646D01*
X141141444Y-69307900D01*
X141011229Y-69307878D01*
X140241556Y-69324563D01*
G37*
X140241556Y-69324563D02*
X139760835Y-69397713D01*
X139552993Y-69561976D01*
X139601955Y-69851995D01*
X139891647Y-70302417D01*
X140306545Y-70826753D01*
X140691725Y-71307948D01*
X140988368Y-71698313D01*
X141151800Y-71938158D01*
X141170000Y-71980469D01*
X141030751Y-72034323D01*
X140671561Y-72070034D01*
X140323333Y-72078787D01*
X139834046Y-72092151D01*
X139579155Y-72149929D01*
X139485696Y-72278654D01*
X139476666Y-72386666D01*
X139498749Y-72529762D01*
X139603072Y-72620073D01*
X139846746Y-72669624D01*
X140286880Y-72690438D01*
X140939090Y-72694545D01*
X141622668Y-72688681D01*
X142054507Y-72664080D01*
X142290639Y-72610229D01*
X142387096Y-72516613D01*
X142401515Y-72420136D01*
X142307511Y-72182397D01*
X142056804Y-71785351D01*
X141696352Y-71300582D01*
X141543189Y-71111651D01*
X140684864Y-70077575D01*
X141543189Y-70077575D01*
X142032249Y-70067900D01*
X142288396Y-70016496D01*
X142386489Y-69889801D01*
X142401515Y-69692727D01*
X142390541Y-69510799D01*
X142318190Y-69397724D01*
X142125320Y-69337130D01*
X141752785Y-69312646D01*
X141141444Y-69307900D01*
X141011229Y-69307878D01*
X140241556Y-69324563D01*
G36*
X137986380Y-69330757D02*
G01*
X137774967Y-69447322D01*
X137598353Y-69729463D01*
X137446399Y-70077575D01*
X137250072Y-70504146D01*
X137084895Y-70783649D01*
X137013636Y-70847272D01*
X136897089Y-70717378D01*
X136717194Y-70383147D01*
X136580873Y-70077575D01*
X136378929Y-69630791D01*
X136200796Y-69401604D01*
X135965477Y-69318124D01*
X135713682Y-69307878D01*
X135166363Y-69307878D01*
X135166363Y-72694545D01*
X135544468Y-72694545D01*
X135740176Y-72676699D01*
X135857127Y-72579298D01*
X135920276Y-72336552D01*
X135954578Y-71882668D01*
X135967801Y-71578484D01*
X136013030Y-70462424D01*
X136378350Y-71270606D01*
X136671514Y-71808425D01*
X136932577Y-72060581D01*
X137013636Y-72078787D01*
X137261024Y-71928941D01*
X137544287Y-71488630D01*
X137648922Y-71270606D01*
X138014242Y-70462424D01*
X138059471Y-71578484D01*
X138088841Y-72154028D01*
X138135356Y-72487584D01*
X138223972Y-72644945D01*
X138379644Y-72691902D01*
X138482804Y-72694545D01*
X138860909Y-72694545D01*
X138860909Y-69307878D01*
X138313590Y-69307878D01*
X137986380Y-69330757D01*
G37*
X137986380Y-69330757D02*
X137774967Y-69447322D01*
X137598353Y-69729463D01*
X137446399Y-70077575D01*
X137250072Y-70504146D01*
X137084895Y-70783649D01*
X137013636Y-70847272D01*
X136897089Y-70717378D01*
X136717194Y-70383147D01*
X136580873Y-70077575D01*
X136378929Y-69630791D01*
X136200796Y-69401604D01*
X135965477Y-69318124D01*
X135713682Y-69307878D01*
X135166363Y-69307878D01*
X135166363Y-72694545D01*
X135544468Y-72694545D01*
X135740176Y-72676699D01*
X135857127Y-72579298D01*
X135920276Y-72336552D01*
X135954578Y-71882668D01*
X135967801Y-71578484D01*
X136013030Y-70462424D01*
X136378350Y-71270606D01*
X136671514Y-71808425D01*
X136932577Y-72060581D01*
X137013636Y-72078787D01*
X137261024Y-71928941D01*
X137544287Y-71488630D01*
X137648922Y-71270606D01*
X138014242Y-70462424D01*
X138059471Y-71578484D01*
X138088841Y-72154028D01*
X138135356Y-72487584D01*
X138223972Y-72644945D01*
X138379644Y-72691902D01*
X138482804Y-72694545D01*
X138860909Y-72694545D01*
X138860909Y-69307878D01*
X138313590Y-69307878D01*
X137986380Y-69330757D01*
G36*
X139911550Y-66144707D02*
G01*
X138832084Y-66340377D01*
X137833879Y-66522039D01*
X136962911Y-66681269D01*
X136265160Y-66809640D01*
X135786604Y-66898729D01*
X135589696Y-66936623D01*
X135312589Y-67031269D01*
X135192331Y-67229158D01*
X135166363Y-67626776D01*
X135188528Y-68007971D01*
X135243768Y-68216807D01*
X135264360Y-68230303D01*
X135435570Y-68203450D01*
X135869893Y-68127650D01*
X136527714Y-68010036D01*
X137369419Y-67857745D01*
X138355393Y-67677911D01*
X139446021Y-67477669D01*
X139574663Y-67453968D01*
X143786969Y-66677634D01*
X147999276Y-67453968D01*
X149104042Y-67656459D01*
X150113046Y-67839259D01*
X150985726Y-67995193D01*
X151681519Y-68117081D01*
X152159864Y-68197748D01*
X152380199Y-68230014D01*
X152386549Y-68230303D01*
X152503464Y-68094969D01*
X152560375Y-67761512D01*
X152561515Y-67700600D01*
X152523638Y-67319329D01*
X152431152Y-67092479D01*
X152418231Y-67082343D01*
X152234780Y-67032464D01*
X151788462Y-66935885D01*
X151119400Y-66800543D01*
X150267718Y-66634377D01*
X149273540Y-66445327D01*
X148176990Y-66241329D01*
X148042509Y-66216604D01*
X143810070Y-65439420D01*
X139911550Y-66144707D01*
G37*
X139911550Y-66144707D02*
X138832084Y-66340377D01*
X137833879Y-66522039D01*
X136962911Y-66681269D01*
X136265160Y-66809640D01*
X135786604Y-66898729D01*
X135589696Y-66936623D01*
X135312589Y-67031269D01*
X135192331Y-67229158D01*
X135166363Y-67626776D01*
X135188528Y-68007971D01*
X135243768Y-68216807D01*
X135264360Y-68230303D01*
X135435570Y-68203450D01*
X135869893Y-68127650D01*
X136527714Y-68010036D01*
X137369419Y-67857745D01*
X138355393Y-67677911D01*
X139446021Y-67477669D01*
X139574663Y-67453968D01*
X143786969Y-66677634D01*
X147999276Y-67453968D01*
X149104042Y-67656459D01*
X150113046Y-67839259D01*
X150985726Y-67995193D01*
X151681519Y-68117081D01*
X152159864Y-68197748D01*
X152380199Y-68230014D01*
X152386549Y-68230303D01*
X152503464Y-68094969D01*
X152560375Y-67761512D01*
X152561515Y-67700600D01*
X152523638Y-67319329D01*
X152431152Y-67092479D01*
X152418231Y-67082343D01*
X152234780Y-67032464D01*
X151788462Y-66935885D01*
X151119400Y-66800543D01*
X150267718Y-66634377D01*
X149273540Y-66445327D01*
X148176990Y-66241329D01*
X148042509Y-66216604D01*
X143810070Y-65439420D01*
X139911550Y-66144707D01*
G36*
X139911550Y-46144707D02*
G01*
X138832084Y-46340377D01*
X137833879Y-46522039D01*
X136962911Y-46681269D01*
X136265160Y-46809640D01*
X135786604Y-46898729D01*
X135589696Y-46936623D01*
X135312589Y-47031269D01*
X135192331Y-47229158D01*
X135166363Y-47626776D01*
X135188528Y-48007971D01*
X135243768Y-48216807D01*
X135264360Y-48230303D01*
X135435570Y-48203450D01*
X135869893Y-48127650D01*
X136527714Y-48010036D01*
X137369419Y-47857745D01*
X138355393Y-47677911D01*
X139446021Y-47477669D01*
X139574663Y-47453968D01*
X143786969Y-46677634D01*
X147999276Y-47453968D01*
X149104042Y-47656459D01*
X150113046Y-47839259D01*
X150985726Y-47995193D01*
X151681519Y-48117081D01*
X152159864Y-48197748D01*
X152380199Y-48230014D01*
X152386549Y-48230303D01*
X152503464Y-48094969D01*
X152560375Y-47761512D01*
X152561515Y-47700600D01*
X152523638Y-47319329D01*
X152431152Y-47092479D01*
X152418231Y-47082343D01*
X152234780Y-47032464D01*
X151788462Y-46935885D01*
X151119400Y-46800543D01*
X150267718Y-46634377D01*
X149273540Y-46445327D01*
X148176990Y-46241329D01*
X148042509Y-46216604D01*
X143810070Y-45439420D01*
X139911550Y-46144707D01*
G37*
X139911550Y-46144707D02*
X138832084Y-46340377D01*
X137833879Y-46522039D01*
X136962911Y-46681269D01*
X136265160Y-46809640D01*
X135786604Y-46898729D01*
X135589696Y-46936623D01*
X135312589Y-47031269D01*
X135192331Y-47229158D01*
X135166363Y-47626776D01*
X135188528Y-48007971D01*
X135243768Y-48216807D01*
X135264360Y-48230303D01*
X135435570Y-48203450D01*
X135869893Y-48127650D01*
X136527714Y-48010036D01*
X137369419Y-47857745D01*
X138355393Y-47677911D01*
X139446021Y-47477669D01*
X139574663Y-47453968D01*
X143786969Y-46677634D01*
X147999276Y-47453968D01*
X149104042Y-47656459D01*
X150113046Y-47839259D01*
X150985726Y-47995193D01*
X151681519Y-48117081D01*
X152159864Y-48197748D01*
X152380199Y-48230014D01*
X152386549Y-48230303D01*
X152503464Y-48094969D01*
X152560375Y-47761512D01*
X152561515Y-47700600D01*
X152523638Y-47319329D01*
X152431152Y-47092479D01*
X152418231Y-47082343D01*
X152234780Y-47032464D01*
X151788462Y-46935885D01*
X151119400Y-46800543D01*
X150267718Y-46634377D01*
X149273540Y-46445327D01*
X148176990Y-46241329D01*
X148042509Y-46216604D01*
X143810070Y-45439420D01*
X139911550Y-46144707D01*
G36*
X137986380Y-49330757D02*
G01*
X137774967Y-49447322D01*
X137598353Y-49729463D01*
X137446399Y-50077575D01*
X137250072Y-50504146D01*
X137084895Y-50783649D01*
X137013636Y-50847272D01*
X136897089Y-50717378D01*
X136717194Y-50383147D01*
X136580873Y-50077575D01*
X136378929Y-49630791D01*
X136200796Y-49401604D01*
X135965477Y-49318124D01*
X135713682Y-49307878D01*
X135166363Y-49307878D01*
X135166363Y-52694545D01*
X135544468Y-52694545D01*
X135740176Y-52676699D01*
X135857127Y-52579298D01*
X135920276Y-52336552D01*
X135954578Y-51882668D01*
X135967801Y-51578484D01*
X136013030Y-50462424D01*
X136378350Y-51270606D01*
X136671514Y-51808425D01*
X136932577Y-52060581D01*
X137013636Y-52078787D01*
X137261024Y-51928941D01*
X137544287Y-51488630D01*
X137648922Y-51270606D01*
X138014242Y-50462424D01*
X138059471Y-51578484D01*
X138088841Y-52154028D01*
X138135356Y-52487584D01*
X138223972Y-52644945D01*
X138379644Y-52691902D01*
X138482804Y-52694545D01*
X138860909Y-52694545D01*
X138860909Y-49307878D01*
X138313590Y-49307878D01*
X137986380Y-49330757D01*
G37*
X137986380Y-49330757D02*
X137774967Y-49447322D01*
X137598353Y-49729463D01*
X137446399Y-50077575D01*
X137250072Y-50504146D01*
X137084895Y-50783649D01*
X137013636Y-50847272D01*
X136897089Y-50717378D01*
X136717194Y-50383147D01*
X136580873Y-50077575D01*
X136378929Y-49630791D01*
X136200796Y-49401604D01*
X135965477Y-49318124D01*
X135713682Y-49307878D01*
X135166363Y-49307878D01*
X135166363Y-52694545D01*
X135544468Y-52694545D01*
X135740176Y-52676699D01*
X135857127Y-52579298D01*
X135920276Y-52336552D01*
X135954578Y-51882668D01*
X135967801Y-51578484D01*
X136013030Y-50462424D01*
X136378350Y-51270606D01*
X136671514Y-51808425D01*
X136932577Y-52060581D01*
X137013636Y-52078787D01*
X137261024Y-51928941D01*
X137544287Y-51488630D01*
X137648922Y-51270606D01*
X138014242Y-50462424D01*
X138059471Y-51578484D01*
X138088841Y-52154028D01*
X138135356Y-52487584D01*
X138223972Y-52644945D01*
X138379644Y-52691902D01*
X138482804Y-52694545D01*
X138860909Y-52694545D01*
X138860909Y-49307878D01*
X138313590Y-49307878D01*
X137986380Y-49330757D01*
G36*
X140241556Y-49324563D02*
G01*
X139760835Y-49397713D01*
X139552993Y-49561976D01*
X139601955Y-49851995D01*
X139891647Y-50302417D01*
X140306545Y-50826753D01*
X140691725Y-51307948D01*
X140988368Y-51698313D01*
X141151800Y-51938158D01*
X141170000Y-51980469D01*
X141030751Y-52034323D01*
X140671561Y-52070034D01*
X140323333Y-52078787D01*
X139834046Y-52092151D01*
X139579155Y-52149929D01*
X139485696Y-52278654D01*
X139476666Y-52386666D01*
X139498749Y-52529762D01*
X139603072Y-52620073D01*
X139846746Y-52669624D01*
X140286880Y-52690438D01*
X140939090Y-52694545D01*
X141622668Y-52688681D01*
X142054507Y-52664080D01*
X142290639Y-52610229D01*
X142387096Y-52516613D01*
X142401515Y-52420136D01*
X142307511Y-52182397D01*
X142056804Y-51785351D01*
X141696352Y-51300582D01*
X141543189Y-51111651D01*
X140684864Y-50077575D01*
X141543189Y-50077575D01*
X142032249Y-50067900D01*
X142288396Y-50016496D01*
X142386489Y-49889801D01*
X142401515Y-49692727D01*
X142390541Y-49510799D01*
X142318190Y-49397724D01*
X142125320Y-49337130D01*
X141752785Y-49312646D01*
X141141444Y-49307900D01*
X141011229Y-49307878D01*
X140241556Y-49324563D01*
G37*
X140241556Y-49324563D02*
X139760835Y-49397713D01*
X139552993Y-49561976D01*
X139601955Y-49851995D01*
X139891647Y-50302417D01*
X140306545Y-50826753D01*
X140691725Y-51307948D01*
X140988368Y-51698313D01*
X141151800Y-51938158D01*
X141170000Y-51980469D01*
X141030751Y-52034323D01*
X140671561Y-52070034D01*
X140323333Y-52078787D01*
X139834046Y-52092151D01*
X139579155Y-52149929D01*
X139485696Y-52278654D01*
X139476666Y-52386666D01*
X139498749Y-52529762D01*
X139603072Y-52620073D01*
X139846746Y-52669624D01*
X140286880Y-52690438D01*
X140939090Y-52694545D01*
X141622668Y-52688681D01*
X142054507Y-52664080D01*
X142290639Y-52610229D01*
X142387096Y-52516613D01*
X142401515Y-52420136D01*
X142307511Y-52182397D01*
X142056804Y-51785351D01*
X141696352Y-51300582D01*
X141543189Y-51111651D01*
X140684864Y-50077575D01*
X141543189Y-50077575D01*
X142032249Y-50067900D01*
X142288396Y-50016496D01*
X142386489Y-49889801D01*
X142401515Y-49692727D01*
X142390541Y-49510799D01*
X142318190Y-49397724D01*
X142125320Y-49337130D01*
X141752785Y-49312646D01*
X141141444Y-49307900D01*
X141011229Y-49307878D01*
X140241556Y-49324563D01*
G36*
X145287878Y-49308737D02*
G01*
X144321988Y-49402391D01*
X143596338Y-49678210D01*
X143115671Y-50132748D01*
X142884733Y-50762560D01*
X142863333Y-51069914D01*
X142983661Y-51744473D01*
X143346950Y-52237267D01*
X143956656Y-52550801D01*
X144816235Y-52687580D01*
X145105475Y-52694545D01*
X145942121Y-52694545D01*
X145942121Y-51081114D01*
X145018484Y-51081114D01*
X145018484Y-52084653D01*
X144595151Y-51983524D01*
X144211115Y-51855649D01*
X143979393Y-51730833D01*
X143828422Y-51446134D01*
X143795651Y-51018098D01*
X143876210Y-50585602D01*
X144028874Y-50319480D01*
X144372390Y-50126027D01*
X144644632Y-50077575D01*
X144845454Y-50096460D01*
X144957442Y-50199363D01*
X145006441Y-50455657D01*
X145018295Y-50934715D01*
X145018484Y-51081114D01*
X145942121Y-51081114D01*
X145942121Y-49307878D01*
X145287878Y-49308737D01*
G37*
X145287878Y-49308737D02*
X144321988Y-49402391D01*
X143596338Y-49678210D01*
X143115671Y-50132748D01*
X142884733Y-50762560D01*
X142863333Y-51069914D01*
X142983661Y-51744473D01*
X143346950Y-52237267D01*
X143956656Y-52550801D01*
X144816235Y-52687580D01*
X145105475Y-52694545D01*
X145942121Y-52694545D01*
X145942121Y-51081114D01*
X145018484Y-51081114D01*
X145018484Y-52084653D01*
X144595151Y-51983524D01*
X144211115Y-51855649D01*
X143979393Y-51730833D01*
X143828422Y-51446134D01*
X143795651Y-51018098D01*
X143876210Y-50585602D01*
X144028874Y-50319480D01*
X144372390Y-50126027D01*
X144644632Y-50077575D01*
X144845454Y-50096460D01*
X144957442Y-50199363D01*
X145006441Y-50455657D01*
X145018295Y-50934715D01*
X145018484Y-51081114D01*
X145942121Y-51081114D01*
X145942121Y-49307878D01*
X145287878Y-49308737D01*
G36*
X148011891Y-49364157D02*
G01*
X147426456Y-49517601D01*
X147045358Y-49745123D01*
X146986702Y-49817812D01*
X146872926Y-50255003D01*
X147001502Y-50713021D01*
X147110068Y-50862081D01*
X147244110Y-51051740D01*
X147236149Y-51247786D01*
X147068135Y-51550589D01*
X146956128Y-51718119D01*
X146660165Y-52208523D01*
X146580986Y-52512364D01*
X146719438Y-52662528D01*
X146981212Y-52694129D01*
X147306406Y-52624237D01*
X147564776Y-52367405D01*
X147712424Y-52118673D01*
X147965180Y-51746889D01*
X148221816Y-51518078D01*
X148289696Y-51492044D01*
X148464385Y-51513209D01*
X148543196Y-51712421D01*
X148559090Y-52067500D01*
X148576485Y-52466995D01*
X148671636Y-52646410D01*
X148908995Y-52693258D01*
X149020909Y-52694545D01*
X149482727Y-52694545D01*
X149482727Y-50473130D01*
X148559090Y-50473130D01*
X148508836Y-50761451D01*
X148305968Y-50829190D01*
X148212727Y-50819494D01*
X147901515Y-50644194D01*
X147817172Y-50423939D01*
X147837820Y-50165224D01*
X148057492Y-50080681D01*
X148163535Y-50077575D01*
X148461204Y-50136573D01*
X148556171Y-50375294D01*
X148559090Y-50473130D01*
X149482727Y-50473130D01*
X149482727Y-49307878D01*
X148723051Y-49307878D01*
X148011891Y-49364157D01*
G37*
X148011891Y-49364157D02*
X147426456Y-49517601D01*
X147045358Y-49745123D01*
X146986702Y-49817812D01*
X146872926Y-50255003D01*
X147001502Y-50713021D01*
X147110068Y-50862081D01*
X147244110Y-51051740D01*
X147236149Y-51247786D01*
X147068135Y-51550589D01*
X146956128Y-51718119D01*
X146660165Y-52208523D01*
X146580986Y-52512364D01*
X146719438Y-52662528D01*
X146981212Y-52694129D01*
X147306406Y-52624237D01*
X147564776Y-52367405D01*
X147712424Y-52118673D01*
X147965180Y-51746889D01*
X148221816Y-51518078D01*
X148289696Y-51492044D01*
X148464385Y-51513209D01*
X148543196Y-51712421D01*
X148559090Y-52067500D01*
X148576485Y-52466995D01*
X148671636Y-52646410D01*
X148908995Y-52693258D01*
X149020909Y-52694545D01*
X149482727Y-52694545D01*
X149482727Y-50473130D01*
X148559090Y-50473130D01*
X148508836Y-50761451D01*
X148305968Y-50829190D01*
X148212727Y-50819494D01*
X147901515Y-50644194D01*
X147817172Y-50423939D01*
X147837820Y-50165224D01*
X148057492Y-50080681D01*
X148163535Y-50077575D01*
X148461204Y-50136573D01*
X148556171Y-50375294D01*
X148559090Y-50473130D01*
X149482727Y-50473130D01*
X149482727Y-49307878D01*
X148723051Y-49307878D01*
X148011891Y-49364157D01*
G36*
X152573272Y-49332194D02*
G01*
X152441634Y-49463962D01*
X152408304Y-49791414D01*
X152407575Y-49923636D01*
X152407575Y-50539394D01*
X151176060Y-50539394D01*
X151176060Y-49913411D01*
X151159970Y-49516795D01*
X151072498Y-49347616D01*
X150854841Y-49325687D01*
X150752727Y-49336138D01*
X150329393Y-49384848D01*
X150285701Y-51039697D01*
X150242008Y-52694545D01*
X150709034Y-52694545D01*
X150996185Y-52674901D01*
X151132186Y-52560245D01*
X151173389Y-52266991D01*
X151176060Y-52001818D01*
X151176060Y-51309090D01*
X152407575Y-51309090D01*
X152407575Y-52001818D01*
X152420963Y-52427786D01*
X152498259Y-52629539D01*
X152695168Y-52690629D01*
X152869393Y-52694545D01*
X153331212Y-52694545D01*
X153331212Y-49307878D01*
X152869393Y-49307878D01*
X152573272Y-49332194D01*
G37*
X152573272Y-49332194D02*
X152441634Y-49463962D01*
X152408304Y-49791414D01*
X152407575Y-49923636D01*
X152407575Y-50539394D01*
X151176060Y-50539394D01*
X151176060Y-49913411D01*
X151159970Y-49516795D01*
X151072498Y-49347616D01*
X150854841Y-49325687D01*
X150752727Y-49336138D01*
X150329393Y-49384848D01*
X150285701Y-51039697D01*
X150242008Y-52694545D01*
X150709034Y-52694545D01*
X150996185Y-52674901D01*
X151132186Y-52560245D01*
X151173389Y-52266991D01*
X151176060Y-52001818D01*
X151176060Y-51309090D01*
X152407575Y-51309090D01*
X152407575Y-52001818D01*
X152420963Y-52427786D01*
X152498259Y-52629539D01*
X152695168Y-52690629D01*
X152869393Y-52694545D01*
X153331212Y-52694545D01*
X153331212Y-49307878D01*
X152869393Y-49307878D01*
X152573272Y-49332194D01*
G36*
X154139393Y-46173146D02*
G01*
X153709882Y-46560202D01*
X153467448Y-46847202D01*
X153359048Y-47126787D01*
X153331642Y-47491599D01*
X153331212Y-47584661D01*
X153331212Y-48296755D01*
X154143288Y-47494766D01*
X154955365Y-46692777D01*
X155451025Y-47188438D01*
X155946686Y-47684098D01*
X155095270Y-48544492D01*
X154243854Y-49404885D01*
X154287836Y-51060399D01*
X154331818Y-52715914D01*
X154755151Y-52273473D01*
X154983883Y-52000547D01*
X155111695Y-51717593D01*
X155167059Y-51323211D01*
X155178484Y-50765742D01*
X155178484Y-49700453D01*
X157179686Y-47683799D01*
X156063631Y-46578762D01*
X154947575Y-45473725D01*
X154139393Y-46173146D01*
G37*
X154139393Y-46173146D02*
X153709882Y-46560202D01*
X153467448Y-46847202D01*
X153359048Y-47126787D01*
X153331642Y-47491599D01*
X153331212Y-47584661D01*
X153331212Y-48296755D01*
X154143288Y-47494766D01*
X154955365Y-46692777D01*
X155451025Y-47188438D01*
X155946686Y-47684098D01*
X155095270Y-48544492D01*
X154243854Y-49404885D01*
X154287836Y-51060399D01*
X154331818Y-52715914D01*
X154755151Y-52273473D01*
X154983883Y-52000547D01*
X155111695Y-51717593D01*
X155167059Y-51323211D01*
X155178484Y-50765742D01*
X155178484Y-49700453D01*
X157179686Y-47683799D01*
X156063631Y-46578762D01*
X154947575Y-45473725D01*
X154139393Y-46173146D01*
D12*
%TO.C,R5*%
X167022936Y-135515000D02*
X167477064Y-135515000D01*
X167022936Y-136985000D02*
X167477064Y-136985000D01*
%TO.C,C1*%
X112788748Y-131090000D02*
X114211252Y-131090000D01*
X112788748Y-132910000D02*
X114211252Y-132910000D01*
%TO.C,U1*%
X115910000Y-129850000D02*
X115910000Y-123840000D01*
X109090000Y-127600000D02*
X109090000Y-123840000D01*
X115910000Y-123840000D02*
X114650000Y-123840000D01*
X109090000Y-123840000D02*
X110350000Y-123840000D01*
%TO.C,R3*%
X162272936Y-136985000D02*
X162727064Y-136985000D01*
X162272936Y-135515000D02*
X162727064Y-135515000D01*
%TO.C,U1*%
X159090000Y-123840000D02*
X160350000Y-123840000D01*
X165910000Y-123840000D02*
X164650000Y-123840000D01*
X159090000Y-127600000D02*
X159090000Y-123840000D01*
X165910000Y-129850000D02*
X165910000Y-123840000D01*
%TO.C,R3*%
X112272936Y-135515000D02*
X112727064Y-135515000D01*
X112272936Y-136985000D02*
X112727064Y-136985000D01*
%TO.C,C1*%
X162788748Y-132910000D02*
X164211252Y-132910000D01*
X162788748Y-131090000D02*
X164211252Y-131090000D01*
%TO.C,R5*%
X117022936Y-136985000D02*
X117477064Y-136985000D01*
X117022936Y-135515000D02*
X117477064Y-135515000D01*
X117022936Y-115515000D02*
X117477064Y-115515000D01*
X117022936Y-116985000D02*
X117477064Y-116985000D01*
%TO.C,C1*%
X162788748Y-111090000D02*
X164211252Y-111090000D01*
X162788748Y-112910000D02*
X164211252Y-112910000D01*
%TO.C,U1*%
X165910000Y-109850000D02*
X165910000Y-103840000D01*
X159090000Y-107600000D02*
X159090000Y-103840000D01*
X165910000Y-103840000D02*
X164650000Y-103840000D01*
X159090000Y-103840000D02*
X160350000Y-103840000D01*
%TO.C,R3*%
X112272936Y-116985000D02*
X112727064Y-116985000D01*
X112272936Y-115515000D02*
X112727064Y-115515000D01*
%TO.C,U1*%
X109090000Y-103840000D02*
X110350000Y-103840000D01*
X115910000Y-103840000D02*
X114650000Y-103840000D01*
X109090000Y-107600000D02*
X109090000Y-103840000D01*
X115910000Y-109850000D02*
X115910000Y-103840000D01*
%TO.C,R3*%
X162272936Y-115515000D02*
X162727064Y-115515000D01*
X162272936Y-116985000D02*
X162727064Y-116985000D01*
%TO.C,C1*%
X112788748Y-112910000D02*
X114211252Y-112910000D01*
X112788748Y-111090000D02*
X114211252Y-111090000D01*
%TO.C,R5*%
X167022936Y-116985000D02*
X167477064Y-116985000D01*
X167022936Y-115515000D02*
X167477064Y-115515000D01*
%TO.C,R3*%
X162272936Y-96985000D02*
X162727064Y-96985000D01*
X162272936Y-95515000D02*
X162727064Y-95515000D01*
%TO.C,C1*%
X112788748Y-91090000D02*
X114211252Y-91090000D01*
X112788748Y-92910000D02*
X114211252Y-92910000D01*
%TO.C,R3*%
X112272936Y-95515000D02*
X112727064Y-95515000D01*
X112272936Y-96985000D02*
X112727064Y-96985000D01*
%TO.C,U1*%
X115910000Y-89850000D02*
X115910000Y-83840000D01*
X109090000Y-87600000D02*
X109090000Y-83840000D01*
X115910000Y-83840000D02*
X114650000Y-83840000D01*
X109090000Y-83840000D02*
X110350000Y-83840000D01*
%TO.C,R5*%
X117022936Y-96985000D02*
X117477064Y-96985000D01*
X117022936Y-95515000D02*
X117477064Y-95515000D01*
%TO.C,C1*%
X162788748Y-92910000D02*
X164211252Y-92910000D01*
X162788748Y-91090000D02*
X164211252Y-91090000D01*
%TO.C,U1*%
X159090000Y-83840000D02*
X160350000Y-83840000D01*
X165910000Y-83840000D02*
X164650000Y-83840000D01*
X159090000Y-87600000D02*
X159090000Y-83840000D01*
X165910000Y-89850000D02*
X165910000Y-83840000D01*
%TO.C,R5*%
X167022936Y-95515000D02*
X167477064Y-95515000D01*
X167022936Y-96985000D02*
X167477064Y-96985000D01*
%TO.C,U1*%
X109090000Y-63840000D02*
X110350000Y-63840000D01*
X115910000Y-63840000D02*
X114650000Y-63840000D01*
X109090000Y-67600000D02*
X109090000Y-63840000D01*
X115910000Y-69850000D02*
X115910000Y-63840000D01*
%TO.C,R5*%
X117022936Y-75515000D02*
X117477064Y-75515000D01*
X117022936Y-76985000D02*
X117477064Y-76985000D01*
%TO.C,C1*%
X112788748Y-72910000D02*
X114211252Y-72910000D01*
X112788748Y-71090000D02*
X114211252Y-71090000D01*
%TO.C,R3*%
X112272936Y-76985000D02*
X112727064Y-76985000D01*
X112272936Y-75515000D02*
X112727064Y-75515000D01*
X162272936Y-75515000D02*
X162727064Y-75515000D01*
X162272936Y-76985000D02*
X162727064Y-76985000D01*
%TO.C,C1*%
X162788748Y-71090000D02*
X164211252Y-71090000D01*
X162788748Y-72910000D02*
X164211252Y-72910000D01*
%TO.C,U1*%
X165910000Y-69850000D02*
X165910000Y-63840000D01*
X159090000Y-67600000D02*
X159090000Y-63840000D01*
X165910000Y-63840000D02*
X164650000Y-63840000D01*
X159090000Y-63840000D02*
X160350000Y-63840000D01*
%TO.C,R5*%
X167022936Y-76985000D02*
X167477064Y-76985000D01*
X167022936Y-75515000D02*
X167477064Y-75515000D01*
%TO.C,U1*%
X159090000Y-43840000D02*
X160350000Y-43840000D01*
X165910000Y-43840000D02*
X164650000Y-43840000D01*
X159090000Y-47600000D02*
X159090000Y-43840000D01*
X165910000Y-49850000D02*
X165910000Y-43840000D01*
%TO.C,R5*%
X167022936Y-55515000D02*
X167477064Y-55515000D01*
X167022936Y-56985000D02*
X167477064Y-56985000D01*
%TO.C,C1*%
X162788748Y-52910000D02*
X164211252Y-52910000D01*
X162788748Y-51090000D02*
X164211252Y-51090000D01*
%TO.C,R3*%
X162272936Y-56985000D02*
X162727064Y-56985000D01*
X162272936Y-55515000D02*
X162727064Y-55515000D01*
D11*
%TO.C,G1*%
G36*
X104139393Y-46173146D02*
G01*
X103709882Y-46560202D01*
X103467448Y-46847202D01*
X103359048Y-47126787D01*
X103331642Y-47491599D01*
X103331212Y-47584661D01*
X103331212Y-48296755D01*
X104143288Y-47494766D01*
X104955365Y-46692777D01*
X105451025Y-47188438D01*
X105946686Y-47684098D01*
X105095270Y-48544492D01*
X104243854Y-49404885D01*
X104287836Y-51060399D01*
X104331818Y-52715914D01*
X104755151Y-52273473D01*
X104983883Y-52000547D01*
X105111695Y-51717593D01*
X105167059Y-51323211D01*
X105178484Y-50765742D01*
X105178484Y-49700453D01*
X107179686Y-47683799D01*
X106063631Y-46578762D01*
X104947575Y-45473725D01*
X104139393Y-46173146D01*
G37*
X104139393Y-46173146D02*
X103709882Y-46560202D01*
X103467448Y-46847202D01*
X103359048Y-47126787D01*
X103331642Y-47491599D01*
X103331212Y-47584661D01*
X103331212Y-48296755D01*
X104143288Y-47494766D01*
X104955365Y-46692777D01*
X105451025Y-47188438D01*
X105946686Y-47684098D01*
X105095270Y-48544492D01*
X104243854Y-49404885D01*
X104287836Y-51060399D01*
X104331818Y-52715914D01*
X104755151Y-52273473D01*
X104983883Y-52000547D01*
X105111695Y-51717593D01*
X105167059Y-51323211D01*
X105178484Y-50765742D01*
X105178484Y-49700453D01*
X107179686Y-47683799D01*
X106063631Y-46578762D01*
X104947575Y-45473725D01*
X104139393Y-46173146D01*
G36*
X102573272Y-49332194D02*
G01*
X102441634Y-49463962D01*
X102408304Y-49791414D01*
X102407575Y-49923636D01*
X102407575Y-50539394D01*
X101176060Y-50539394D01*
X101176060Y-49913411D01*
X101159970Y-49516795D01*
X101072498Y-49347616D01*
X100854841Y-49325687D01*
X100752727Y-49336138D01*
X100329393Y-49384848D01*
X100285701Y-51039697D01*
X100242008Y-52694545D01*
X100709034Y-52694545D01*
X100996185Y-52674901D01*
X101132186Y-52560245D01*
X101173389Y-52266991D01*
X101176060Y-52001818D01*
X101176060Y-51309090D01*
X102407575Y-51309090D01*
X102407575Y-52001818D01*
X102420963Y-52427786D01*
X102498259Y-52629539D01*
X102695168Y-52690629D01*
X102869393Y-52694545D01*
X103331212Y-52694545D01*
X103331212Y-49307878D01*
X102869393Y-49307878D01*
X102573272Y-49332194D01*
G37*
X102573272Y-49332194D02*
X102441634Y-49463962D01*
X102408304Y-49791414D01*
X102407575Y-49923636D01*
X102407575Y-50539394D01*
X101176060Y-50539394D01*
X101176060Y-49913411D01*
X101159970Y-49516795D01*
X101072498Y-49347616D01*
X100854841Y-49325687D01*
X100752727Y-49336138D01*
X100329393Y-49384848D01*
X100285701Y-51039697D01*
X100242008Y-52694545D01*
X100709034Y-52694545D01*
X100996185Y-52674901D01*
X101132186Y-52560245D01*
X101173389Y-52266991D01*
X101176060Y-52001818D01*
X101176060Y-51309090D01*
X102407575Y-51309090D01*
X102407575Y-52001818D01*
X102420963Y-52427786D01*
X102498259Y-52629539D01*
X102695168Y-52690629D01*
X102869393Y-52694545D01*
X103331212Y-52694545D01*
X103331212Y-49307878D01*
X102869393Y-49307878D01*
X102573272Y-49332194D01*
G36*
X98011891Y-49364157D02*
G01*
X97426456Y-49517601D01*
X97045358Y-49745123D01*
X96986702Y-49817812D01*
X96872926Y-50255003D01*
X97001502Y-50713021D01*
X97110068Y-50862081D01*
X97244110Y-51051740D01*
X97236149Y-51247786D01*
X97068135Y-51550589D01*
X96956128Y-51718119D01*
X96660165Y-52208523D01*
X96580986Y-52512364D01*
X96719438Y-52662528D01*
X96981212Y-52694129D01*
X97306406Y-52624237D01*
X97564776Y-52367405D01*
X97712424Y-52118673D01*
X97965180Y-51746889D01*
X98221816Y-51518078D01*
X98289696Y-51492044D01*
X98464385Y-51513209D01*
X98543196Y-51712421D01*
X98559090Y-52067500D01*
X98576485Y-52466995D01*
X98671636Y-52646410D01*
X98908995Y-52693258D01*
X99020909Y-52694545D01*
X99482727Y-52694545D01*
X99482727Y-50473130D01*
X98559090Y-50473130D01*
X98508836Y-50761451D01*
X98305968Y-50829190D01*
X98212727Y-50819494D01*
X97901515Y-50644194D01*
X97817172Y-50423939D01*
X97837820Y-50165224D01*
X98057492Y-50080681D01*
X98163535Y-50077575D01*
X98461204Y-50136573D01*
X98556171Y-50375294D01*
X98559090Y-50473130D01*
X99482727Y-50473130D01*
X99482727Y-49307878D01*
X98723051Y-49307878D01*
X98011891Y-49364157D01*
G37*
X98011891Y-49364157D02*
X97426456Y-49517601D01*
X97045358Y-49745123D01*
X96986702Y-49817812D01*
X96872926Y-50255003D01*
X97001502Y-50713021D01*
X97110068Y-50862081D01*
X97244110Y-51051740D01*
X97236149Y-51247786D01*
X97068135Y-51550589D01*
X96956128Y-51718119D01*
X96660165Y-52208523D01*
X96580986Y-52512364D01*
X96719438Y-52662528D01*
X96981212Y-52694129D01*
X97306406Y-52624237D01*
X97564776Y-52367405D01*
X97712424Y-52118673D01*
X97965180Y-51746889D01*
X98221816Y-51518078D01*
X98289696Y-51492044D01*
X98464385Y-51513209D01*
X98543196Y-51712421D01*
X98559090Y-52067500D01*
X98576485Y-52466995D01*
X98671636Y-52646410D01*
X98908995Y-52693258D01*
X99020909Y-52694545D01*
X99482727Y-52694545D01*
X99482727Y-50473130D01*
X98559090Y-50473130D01*
X98508836Y-50761451D01*
X98305968Y-50829190D01*
X98212727Y-50819494D01*
X97901515Y-50644194D01*
X97817172Y-50423939D01*
X97837820Y-50165224D01*
X98057492Y-50080681D01*
X98163535Y-50077575D01*
X98461204Y-50136573D01*
X98556171Y-50375294D01*
X98559090Y-50473130D01*
X99482727Y-50473130D01*
X99482727Y-49307878D01*
X98723051Y-49307878D01*
X98011891Y-49364157D01*
G36*
X95287878Y-49308737D02*
G01*
X94321988Y-49402391D01*
X93596338Y-49678210D01*
X93115671Y-50132748D01*
X92884733Y-50762560D01*
X92863333Y-51069914D01*
X92983661Y-51744473D01*
X93346950Y-52237267D01*
X93956656Y-52550801D01*
X94816235Y-52687580D01*
X95105475Y-52694545D01*
X95942121Y-52694545D01*
X95942121Y-51081114D01*
X95018484Y-51081114D01*
X95018484Y-52084653D01*
X94595151Y-51983524D01*
X94211115Y-51855649D01*
X93979393Y-51730833D01*
X93828422Y-51446134D01*
X93795651Y-51018098D01*
X93876210Y-50585602D01*
X94028874Y-50319480D01*
X94372390Y-50126027D01*
X94644632Y-50077575D01*
X94845454Y-50096460D01*
X94957442Y-50199363D01*
X95006441Y-50455657D01*
X95018295Y-50934715D01*
X95018484Y-51081114D01*
X95942121Y-51081114D01*
X95942121Y-49307878D01*
X95287878Y-49308737D01*
G37*
X95287878Y-49308737D02*
X94321988Y-49402391D01*
X93596338Y-49678210D01*
X93115671Y-50132748D01*
X92884733Y-50762560D01*
X92863333Y-51069914D01*
X92983661Y-51744473D01*
X93346950Y-52237267D01*
X93956656Y-52550801D01*
X94816235Y-52687580D01*
X95105475Y-52694545D01*
X95942121Y-52694545D01*
X95942121Y-51081114D01*
X95018484Y-51081114D01*
X95018484Y-52084653D01*
X94595151Y-51983524D01*
X94211115Y-51855649D01*
X93979393Y-51730833D01*
X93828422Y-51446134D01*
X93795651Y-51018098D01*
X93876210Y-50585602D01*
X94028874Y-50319480D01*
X94372390Y-50126027D01*
X94644632Y-50077575D01*
X94845454Y-50096460D01*
X94957442Y-50199363D01*
X95006441Y-50455657D01*
X95018295Y-50934715D01*
X95018484Y-51081114D01*
X95942121Y-51081114D01*
X95942121Y-49307878D01*
X95287878Y-49308737D01*
G36*
X90241556Y-49324563D02*
G01*
X89760835Y-49397713D01*
X89552993Y-49561976D01*
X89601955Y-49851995D01*
X89891647Y-50302417D01*
X90306545Y-50826753D01*
X90691725Y-51307948D01*
X90988368Y-51698313D01*
X91151800Y-51938158D01*
X91170000Y-51980469D01*
X91030751Y-52034323D01*
X90671561Y-52070034D01*
X90323333Y-52078787D01*
X89834046Y-52092151D01*
X89579155Y-52149929D01*
X89485696Y-52278654D01*
X89476666Y-52386666D01*
X89498749Y-52529762D01*
X89603072Y-52620073D01*
X89846746Y-52669624D01*
X90286880Y-52690438D01*
X90939090Y-52694545D01*
X91622668Y-52688681D01*
X92054507Y-52664080D01*
X92290639Y-52610229D01*
X92387096Y-52516613D01*
X92401515Y-52420136D01*
X92307511Y-52182397D01*
X92056804Y-51785351D01*
X91696352Y-51300582D01*
X91543189Y-51111651D01*
X90684864Y-50077575D01*
X91543189Y-50077575D01*
X92032249Y-50067900D01*
X92288396Y-50016496D01*
X92386489Y-49889801D01*
X92401515Y-49692727D01*
X92390541Y-49510799D01*
X92318190Y-49397724D01*
X92125320Y-49337130D01*
X91752785Y-49312646D01*
X91141444Y-49307900D01*
X91011229Y-49307878D01*
X90241556Y-49324563D01*
G37*
X90241556Y-49324563D02*
X89760835Y-49397713D01*
X89552993Y-49561976D01*
X89601955Y-49851995D01*
X89891647Y-50302417D01*
X90306545Y-50826753D01*
X90691725Y-51307948D01*
X90988368Y-51698313D01*
X91151800Y-51938158D01*
X91170000Y-51980469D01*
X91030751Y-52034323D01*
X90671561Y-52070034D01*
X90323333Y-52078787D01*
X89834046Y-52092151D01*
X89579155Y-52149929D01*
X89485696Y-52278654D01*
X89476666Y-52386666D01*
X89498749Y-52529762D01*
X89603072Y-52620073D01*
X89846746Y-52669624D01*
X90286880Y-52690438D01*
X90939090Y-52694545D01*
X91622668Y-52688681D01*
X92054507Y-52664080D01*
X92290639Y-52610229D01*
X92387096Y-52516613D01*
X92401515Y-52420136D01*
X92307511Y-52182397D01*
X92056804Y-51785351D01*
X91696352Y-51300582D01*
X91543189Y-51111651D01*
X90684864Y-50077575D01*
X91543189Y-50077575D01*
X92032249Y-50067900D01*
X92288396Y-50016496D01*
X92386489Y-49889801D01*
X92401515Y-49692727D01*
X92390541Y-49510799D01*
X92318190Y-49397724D01*
X92125320Y-49337130D01*
X91752785Y-49312646D01*
X91141444Y-49307900D01*
X91011229Y-49307878D01*
X90241556Y-49324563D01*
G36*
X87986380Y-49330757D02*
G01*
X87774967Y-49447322D01*
X87598353Y-49729463D01*
X87446399Y-50077575D01*
X87250072Y-50504146D01*
X87084895Y-50783649D01*
X87013636Y-50847272D01*
X86897089Y-50717378D01*
X86717194Y-50383147D01*
X86580873Y-50077575D01*
X86378929Y-49630791D01*
X86200796Y-49401604D01*
X85965477Y-49318124D01*
X85713682Y-49307878D01*
X85166363Y-49307878D01*
X85166363Y-52694545D01*
X85544468Y-52694545D01*
X85740176Y-52676699D01*
X85857127Y-52579298D01*
X85920276Y-52336552D01*
X85954578Y-51882668D01*
X85967801Y-51578484D01*
X86013030Y-50462424D01*
X86378350Y-51270606D01*
X86671514Y-51808425D01*
X86932577Y-52060581D01*
X87013636Y-52078787D01*
X87261024Y-51928941D01*
X87544287Y-51488630D01*
X87648922Y-51270606D01*
X88014242Y-50462424D01*
X88059471Y-51578484D01*
X88088841Y-52154028D01*
X88135356Y-52487584D01*
X88223972Y-52644945D01*
X88379644Y-52691902D01*
X88482804Y-52694545D01*
X88860909Y-52694545D01*
X88860909Y-49307878D01*
X88313590Y-49307878D01*
X87986380Y-49330757D01*
G37*
X87986380Y-49330757D02*
X87774967Y-49447322D01*
X87598353Y-49729463D01*
X87446399Y-50077575D01*
X87250072Y-50504146D01*
X87084895Y-50783649D01*
X87013636Y-50847272D01*
X86897089Y-50717378D01*
X86717194Y-50383147D01*
X86580873Y-50077575D01*
X86378929Y-49630791D01*
X86200796Y-49401604D01*
X85965477Y-49318124D01*
X85713682Y-49307878D01*
X85166363Y-49307878D01*
X85166363Y-52694545D01*
X85544468Y-52694545D01*
X85740176Y-52676699D01*
X85857127Y-52579298D01*
X85920276Y-52336552D01*
X85954578Y-51882668D01*
X85967801Y-51578484D01*
X86013030Y-50462424D01*
X86378350Y-51270606D01*
X86671514Y-51808425D01*
X86932577Y-52060581D01*
X87013636Y-52078787D01*
X87261024Y-51928941D01*
X87544287Y-51488630D01*
X87648922Y-51270606D01*
X88014242Y-50462424D01*
X88059471Y-51578484D01*
X88088841Y-52154028D01*
X88135356Y-52487584D01*
X88223972Y-52644945D01*
X88379644Y-52691902D01*
X88482804Y-52694545D01*
X88860909Y-52694545D01*
X88860909Y-49307878D01*
X88313590Y-49307878D01*
X87986380Y-49330757D01*
G36*
X89911550Y-46144707D02*
G01*
X88832084Y-46340377D01*
X87833879Y-46522039D01*
X86962911Y-46681269D01*
X86265160Y-46809640D01*
X85786604Y-46898729D01*
X85589696Y-46936623D01*
X85312589Y-47031269D01*
X85192331Y-47229158D01*
X85166363Y-47626776D01*
X85188528Y-48007971D01*
X85243768Y-48216807D01*
X85264360Y-48230303D01*
X85435570Y-48203450D01*
X85869893Y-48127650D01*
X86527714Y-48010036D01*
X87369419Y-47857745D01*
X88355393Y-47677911D01*
X89446021Y-47477669D01*
X89574663Y-47453968D01*
X93786969Y-46677634D01*
X97999276Y-47453968D01*
X99104042Y-47656459D01*
X100113046Y-47839259D01*
X100985726Y-47995193D01*
X101681519Y-48117081D01*
X102159864Y-48197748D01*
X102380199Y-48230014D01*
X102386549Y-48230303D01*
X102503464Y-48094969D01*
X102560375Y-47761512D01*
X102561515Y-47700600D01*
X102523638Y-47319329D01*
X102431152Y-47092479D01*
X102418231Y-47082343D01*
X102234780Y-47032464D01*
X101788462Y-46935885D01*
X101119400Y-46800543D01*
X100267718Y-46634377D01*
X99273540Y-46445327D01*
X98176990Y-46241329D01*
X98042509Y-46216604D01*
X93810070Y-45439420D01*
X89911550Y-46144707D01*
G37*
X89911550Y-46144707D02*
X88832084Y-46340377D01*
X87833879Y-46522039D01*
X86962911Y-46681269D01*
X86265160Y-46809640D01*
X85786604Y-46898729D01*
X85589696Y-46936623D01*
X85312589Y-47031269D01*
X85192331Y-47229158D01*
X85166363Y-47626776D01*
X85188528Y-48007971D01*
X85243768Y-48216807D01*
X85264360Y-48230303D01*
X85435570Y-48203450D01*
X85869893Y-48127650D01*
X86527714Y-48010036D01*
X87369419Y-47857745D01*
X88355393Y-47677911D01*
X89446021Y-47477669D01*
X89574663Y-47453968D01*
X93786969Y-46677634D01*
X97999276Y-47453968D01*
X99104042Y-47656459D01*
X100113046Y-47839259D01*
X100985726Y-47995193D01*
X101681519Y-48117081D01*
X102159864Y-48197748D01*
X102380199Y-48230014D01*
X102386549Y-48230303D01*
X102503464Y-48094969D01*
X102560375Y-47761512D01*
X102561515Y-47700600D01*
X102523638Y-47319329D01*
X102431152Y-47092479D01*
X102418231Y-47082343D01*
X102234780Y-47032464D01*
X101788462Y-46935885D01*
X101119400Y-46800543D01*
X100267718Y-46634377D01*
X99273540Y-46445327D01*
X98176990Y-46241329D01*
X98042509Y-46216604D01*
X93810070Y-45439420D01*
X89911550Y-46144707D01*
D12*
%TO.C,C1*%
X112788748Y-51090000D02*
X114211252Y-51090000D01*
X112788748Y-52910000D02*
X114211252Y-52910000D01*
%TO.C,R3*%
X112272936Y-55515000D02*
X112727064Y-55515000D01*
X112272936Y-56985000D02*
X112727064Y-56985000D01*
%TO.C,R5*%
X117022936Y-56985000D02*
X117477064Y-56985000D01*
X117022936Y-55515000D02*
X117477064Y-55515000D01*
%TO.C,U1*%
X115910000Y-49850000D02*
X115910000Y-43840000D01*
X109090000Y-47600000D02*
X109090000Y-43840000D01*
X115910000Y-43840000D02*
X114650000Y-43840000D01*
X109090000Y-43840000D02*
X110350000Y-43840000D01*
%TD*%
M02*
