M48
; DRILL file {KiCad (5.1.9)-1} date 09/18/21 19:38:33
; FORMAT={3:3/ absolute / metric / suppress leading zeros}
; #@! TF.CreationDate,2021-09-18T19:38:33+02:00
; #@! TF.GenerationSoftware,Kicad,Pcbnew,(5.1.9)-1
; #@! TF.FileFunction,NonPlated,1,2,NPTH
FMAT,2
METRIC,TZ
T1C3.250
%
G90
G05
T1
X72610Y-44840
X72610Y-55000
X72610Y-64840
X72610Y-75000
X72610Y-84840
X72610Y-95000
X72610Y-104840
X72610Y-115000
X72610Y-124840
X72610Y-135000
X122610Y-44840
X122610Y-55000
X122610Y-64840
X122610Y-75000
X122610Y-84840
X122610Y-95000
X122610Y-104840
X122610Y-115000
X122610Y-124840
X122610Y-135000
T0
M30
