%TF.GenerationSoftware,KiCad,Pcbnew,(5.1.9)-1*%
%TF.CreationDate,2021-09-18T19:38:26+02:00*%
%TF.ProjectId,IM350_AM550_5V_V4.0_multi,494d3335-305f-4414-9d35-35305f35565f,rev?*%
%TF.SameCoordinates,Original*%
%TF.FileFunction,Paste,Top*%
%TF.FilePolarity,Positive*%
%FSLAX46Y46*%
G04 Gerber Fmt 4.6, Leading zero omitted, Abs format (unit mm)*
G04 Created by KiCad (PCBNEW (5.1.9)-1) date 2021-09-18 19:38:26*
%MOMM*%
%LPD*%
G01*
G04 APERTURE LIST*
%ADD10R,0.900000X0.800000*%
%ADD11R,1.500000X1.500000*%
%ADD12R,1.000000X2.500000*%
%ADD13R,1.800000X1.000000*%
%ADD14R,2.800000X0.600000*%
G04 APERTURE END LIST*
D10*
%TO.C,Q1*%
X163000000Y-123250000D03*
X165000000Y-122300000D03*
X165000000Y-124200000D03*
%TD*%
%TO.C,R4*%
G36*
G01*
X111200001Y-124850000D02*
X110299999Y-124850000D01*
G75*
G02*
X110050000Y-124600001I0J249999D01*
G01*
X110050000Y-123899999D01*
G75*
G02*
X110299999Y-123650000I249999J0D01*
G01*
X111200001Y-123650000D01*
G75*
G02*
X111450000Y-123899999I0J-249999D01*
G01*
X111450000Y-124600001D01*
G75*
G02*
X111200001Y-124850000I-249999J0D01*
G01*
G37*
G36*
G01*
X111200001Y-122850000D02*
X110299999Y-122850000D01*
G75*
G02*
X110050000Y-122600001I0J249999D01*
G01*
X110050000Y-121899999D01*
G75*
G02*
X110299999Y-121650000I249999J0D01*
G01*
X111200001Y-121650000D01*
G75*
G02*
X111450000Y-121899999I0J-249999D01*
G01*
X111450000Y-122600001D01*
G75*
G02*
X111200001Y-122850000I-249999J0D01*
G01*
G37*
%TD*%
D11*
%TO.C,SW1*%
X118150000Y-136750000D03*
X110350000Y-136750000D03*
%TD*%
D12*
%TO.C,U2*%
X142750000Y-122650000D03*
X144750000Y-122650000D03*
X146750000Y-122650000D03*
X148750000Y-122650000D03*
X150750000Y-122650000D03*
X152750000Y-122650000D03*
X154750000Y-122650000D03*
X156750000Y-122650000D03*
D13*
X158250000Y-125250000D03*
X158250000Y-127250000D03*
X158250000Y-129250000D03*
X158250000Y-131250000D03*
X158250000Y-133250000D03*
X158250000Y-135250000D03*
D12*
X156750000Y-137850000D03*
X154750000Y-137850000D03*
X152750000Y-137850000D03*
X150750000Y-137850000D03*
X148750000Y-137850000D03*
X146750000Y-137850000D03*
X144750000Y-137850000D03*
X142750000Y-137850000D03*
%TD*%
D11*
%TO.C,SW1*%
X160350000Y-136750000D03*
X168150000Y-136750000D03*
%TD*%
%TO.C,P4*%
G36*
G01*
X161088500Y-132840000D02*
X161088500Y-132660000D01*
G75*
G02*
X161178500Y-132570000I90000J0D01*
G01*
X161456500Y-132570000D01*
G75*
G02*
X161546500Y-132660000I0J-90000D01*
G01*
X161546500Y-132840000D01*
G75*
G02*
X161456500Y-132930000I-90000J0D01*
G01*
X161178500Y-132930000D01*
G75*
G02*
X161088500Y-132840000I0J90000D01*
G01*
G37*
G36*
G01*
X161953500Y-132840000D02*
X161953500Y-132660000D01*
G75*
G02*
X162043500Y-132570000I90000J0D01*
G01*
X162321500Y-132570000D01*
G75*
G02*
X162411500Y-132660000I0J-90000D01*
G01*
X162411500Y-132840000D01*
G75*
G02*
X162321500Y-132930000I-90000J0D01*
G01*
X162043500Y-132930000D01*
G75*
G02*
X161953500Y-132840000I0J90000D01*
G01*
G37*
%TD*%
%TO.C,R4*%
G36*
G01*
X161200001Y-122850000D02*
X160299999Y-122850000D01*
G75*
G02*
X160050000Y-122600001I0J249999D01*
G01*
X160050000Y-121899999D01*
G75*
G02*
X160299999Y-121650000I249999J0D01*
G01*
X161200001Y-121650000D01*
G75*
G02*
X161450000Y-121899999I0J-249999D01*
G01*
X161450000Y-122600001D01*
G75*
G02*
X161200001Y-122850000I-249999J0D01*
G01*
G37*
G36*
G01*
X161200001Y-124850000D02*
X160299999Y-124850000D01*
G75*
G02*
X160050000Y-124600001I0J249999D01*
G01*
X160050000Y-123899999D01*
G75*
G02*
X160299999Y-123650000I249999J0D01*
G01*
X161200001Y-123650000D01*
G75*
G02*
X161450000Y-123899999I0J-249999D01*
G01*
X161450000Y-124600001D01*
G75*
G02*
X161200001Y-124850000I-249999J0D01*
G01*
G37*
%TD*%
D10*
%TO.C,Q1*%
X115000000Y-124200000D03*
X115000000Y-122300000D03*
X113000000Y-123250000D03*
%TD*%
D12*
%TO.C,U2*%
X92750000Y-137850000D03*
X94750000Y-137850000D03*
X96750000Y-137850000D03*
X98750000Y-137850000D03*
X100750000Y-137850000D03*
X102750000Y-137850000D03*
X104750000Y-137850000D03*
X106750000Y-137850000D03*
D13*
X108250000Y-135250000D03*
X108250000Y-133250000D03*
X108250000Y-131250000D03*
X108250000Y-129250000D03*
X108250000Y-127250000D03*
X108250000Y-125250000D03*
D12*
X106750000Y-122650000D03*
X104750000Y-122650000D03*
X102750000Y-122650000D03*
X100750000Y-122650000D03*
X98750000Y-122650000D03*
X96750000Y-122650000D03*
X94750000Y-122650000D03*
X92750000Y-122650000D03*
%TD*%
D14*
%TO.C,J1*%
X112100000Y-128700000D03*
X112100000Y-131300000D03*
%TD*%
%TO.C,P4*%
G36*
G01*
X111953500Y-132840000D02*
X111953500Y-132660000D01*
G75*
G02*
X112043500Y-132570000I90000J0D01*
G01*
X112321500Y-132570000D01*
G75*
G02*
X112411500Y-132660000I0J-90000D01*
G01*
X112411500Y-132840000D01*
G75*
G02*
X112321500Y-132930000I-90000J0D01*
G01*
X112043500Y-132930000D01*
G75*
G02*
X111953500Y-132840000I0J90000D01*
G01*
G37*
G36*
G01*
X111088500Y-132840000D02*
X111088500Y-132660000D01*
G75*
G02*
X111178500Y-132570000I90000J0D01*
G01*
X111456500Y-132570000D01*
G75*
G02*
X111546500Y-132660000I0J-90000D01*
G01*
X111546500Y-132840000D01*
G75*
G02*
X111456500Y-132930000I-90000J0D01*
G01*
X111178500Y-132930000D01*
G75*
G02*
X111088500Y-132840000I0J90000D01*
G01*
G37*
%TD*%
%TO.C,J1*%
X162100000Y-131300000D03*
X162100000Y-128700000D03*
%TD*%
%TO.C,P3*%
G36*
G01*
X161953500Y-127090000D02*
X161953500Y-126910000D01*
G75*
G02*
X162043500Y-126820000I90000J0D01*
G01*
X162321500Y-126820000D01*
G75*
G02*
X162411500Y-126910000I0J-90000D01*
G01*
X162411500Y-127090000D01*
G75*
G02*
X162321500Y-127180000I-90000J0D01*
G01*
X162043500Y-127180000D01*
G75*
G02*
X161953500Y-127090000I0J90000D01*
G01*
G37*
G36*
G01*
X161088500Y-127090000D02*
X161088500Y-126910000D01*
G75*
G02*
X161178500Y-126820000I90000J0D01*
G01*
X161456500Y-126820000D01*
G75*
G02*
X161546500Y-126910000I0J-90000D01*
G01*
X161546500Y-127090000D01*
G75*
G02*
X161456500Y-127180000I-90000J0D01*
G01*
X161178500Y-127180000D01*
G75*
G02*
X161088500Y-127090000I0J90000D01*
G01*
G37*
%TD*%
%TO.C,P3*%
G36*
G01*
X111088500Y-127090000D02*
X111088500Y-126910000D01*
G75*
G02*
X111178500Y-126820000I90000J0D01*
G01*
X111456500Y-126820000D01*
G75*
G02*
X111546500Y-126910000I0J-90000D01*
G01*
X111546500Y-127090000D01*
G75*
G02*
X111456500Y-127180000I-90000J0D01*
G01*
X111178500Y-127180000D01*
G75*
G02*
X111088500Y-127090000I0J90000D01*
G01*
G37*
G36*
G01*
X111953500Y-127090000D02*
X111953500Y-126910000D01*
G75*
G02*
X112043500Y-126820000I90000J0D01*
G01*
X112321500Y-126820000D01*
G75*
G02*
X112411500Y-126910000I0J-90000D01*
G01*
X112411500Y-127090000D01*
G75*
G02*
X112321500Y-127180000I-90000J0D01*
G01*
X112043500Y-127180000D01*
G75*
G02*
X111953500Y-127090000I0J90000D01*
G01*
G37*
%TD*%
%TO.C,P3*%
G36*
G01*
X111953500Y-107090000D02*
X111953500Y-106910000D01*
G75*
G02*
X112043500Y-106820000I90000J0D01*
G01*
X112321500Y-106820000D01*
G75*
G02*
X112411500Y-106910000I0J-90000D01*
G01*
X112411500Y-107090000D01*
G75*
G02*
X112321500Y-107180000I-90000J0D01*
G01*
X112043500Y-107180000D01*
G75*
G02*
X111953500Y-107090000I0J90000D01*
G01*
G37*
G36*
G01*
X111088500Y-107090000D02*
X111088500Y-106910000D01*
G75*
G02*
X111178500Y-106820000I90000J0D01*
G01*
X111456500Y-106820000D01*
G75*
G02*
X111546500Y-106910000I0J-90000D01*
G01*
X111546500Y-107090000D01*
G75*
G02*
X111456500Y-107180000I-90000J0D01*
G01*
X111178500Y-107180000D01*
G75*
G02*
X111088500Y-107090000I0J90000D01*
G01*
G37*
%TD*%
D12*
%TO.C,U2*%
X92750000Y-102650000D03*
X94750000Y-102650000D03*
X96750000Y-102650000D03*
X98750000Y-102650000D03*
X100750000Y-102650000D03*
X102750000Y-102650000D03*
X104750000Y-102650000D03*
X106750000Y-102650000D03*
D13*
X108250000Y-105250000D03*
X108250000Y-107250000D03*
X108250000Y-109250000D03*
X108250000Y-111250000D03*
X108250000Y-113250000D03*
X108250000Y-115250000D03*
D12*
X106750000Y-117850000D03*
X104750000Y-117850000D03*
X102750000Y-117850000D03*
X100750000Y-117850000D03*
X98750000Y-117850000D03*
X96750000Y-117850000D03*
X94750000Y-117850000D03*
X92750000Y-117850000D03*
%TD*%
%TO.C,P3*%
G36*
G01*
X161088500Y-107090000D02*
X161088500Y-106910000D01*
G75*
G02*
X161178500Y-106820000I90000J0D01*
G01*
X161456500Y-106820000D01*
G75*
G02*
X161546500Y-106910000I0J-90000D01*
G01*
X161546500Y-107090000D01*
G75*
G02*
X161456500Y-107180000I-90000J0D01*
G01*
X161178500Y-107180000D01*
G75*
G02*
X161088500Y-107090000I0J90000D01*
G01*
G37*
G36*
G01*
X161953500Y-107090000D02*
X161953500Y-106910000D01*
G75*
G02*
X162043500Y-106820000I90000J0D01*
G01*
X162321500Y-106820000D01*
G75*
G02*
X162411500Y-106910000I0J-90000D01*
G01*
X162411500Y-107090000D01*
G75*
G02*
X162321500Y-107180000I-90000J0D01*
G01*
X162043500Y-107180000D01*
G75*
G02*
X161953500Y-107090000I0J90000D01*
G01*
G37*
%TD*%
%TO.C,P4*%
G36*
G01*
X111088500Y-112840000D02*
X111088500Y-112660000D01*
G75*
G02*
X111178500Y-112570000I90000J0D01*
G01*
X111456500Y-112570000D01*
G75*
G02*
X111546500Y-112660000I0J-90000D01*
G01*
X111546500Y-112840000D01*
G75*
G02*
X111456500Y-112930000I-90000J0D01*
G01*
X111178500Y-112930000D01*
G75*
G02*
X111088500Y-112840000I0J90000D01*
G01*
G37*
G36*
G01*
X111953500Y-112840000D02*
X111953500Y-112660000D01*
G75*
G02*
X112043500Y-112570000I90000J0D01*
G01*
X112321500Y-112570000D01*
G75*
G02*
X112411500Y-112660000I0J-90000D01*
G01*
X112411500Y-112840000D01*
G75*
G02*
X112321500Y-112930000I-90000J0D01*
G01*
X112043500Y-112930000D01*
G75*
G02*
X111953500Y-112840000I0J90000D01*
G01*
G37*
%TD*%
D14*
%TO.C,J1*%
X162100000Y-108700000D03*
X162100000Y-111300000D03*
%TD*%
D10*
%TO.C,Q1*%
X113000000Y-103250000D03*
X115000000Y-102300000D03*
X115000000Y-104200000D03*
%TD*%
D14*
%TO.C,J1*%
X112100000Y-111300000D03*
X112100000Y-108700000D03*
%TD*%
D11*
%TO.C,SW1*%
X110350000Y-116750000D03*
X118150000Y-116750000D03*
%TD*%
%TO.C,R4*%
G36*
G01*
X111200001Y-102850000D02*
X110299999Y-102850000D01*
G75*
G02*
X110050000Y-102600001I0J249999D01*
G01*
X110050000Y-101899999D01*
G75*
G02*
X110299999Y-101650000I249999J0D01*
G01*
X111200001Y-101650000D01*
G75*
G02*
X111450000Y-101899999I0J-249999D01*
G01*
X111450000Y-102600001D01*
G75*
G02*
X111200001Y-102850000I-249999J0D01*
G01*
G37*
G36*
G01*
X111200001Y-104850000D02*
X110299999Y-104850000D01*
G75*
G02*
X110050000Y-104600001I0J249999D01*
G01*
X110050000Y-103899999D01*
G75*
G02*
X110299999Y-103650000I249999J0D01*
G01*
X111200001Y-103650000D01*
G75*
G02*
X111450000Y-103899999I0J-249999D01*
G01*
X111450000Y-104600001D01*
G75*
G02*
X111200001Y-104850000I-249999J0D01*
G01*
G37*
%TD*%
D12*
%TO.C,U2*%
X142750000Y-117850000D03*
X144750000Y-117850000D03*
X146750000Y-117850000D03*
X148750000Y-117850000D03*
X150750000Y-117850000D03*
X152750000Y-117850000D03*
X154750000Y-117850000D03*
X156750000Y-117850000D03*
D13*
X158250000Y-115250000D03*
X158250000Y-113250000D03*
X158250000Y-111250000D03*
X158250000Y-109250000D03*
X158250000Y-107250000D03*
X158250000Y-105250000D03*
D12*
X156750000Y-102650000D03*
X154750000Y-102650000D03*
X152750000Y-102650000D03*
X150750000Y-102650000D03*
X148750000Y-102650000D03*
X146750000Y-102650000D03*
X144750000Y-102650000D03*
X142750000Y-102650000D03*
%TD*%
%TO.C,P4*%
G36*
G01*
X161953500Y-112840000D02*
X161953500Y-112660000D01*
G75*
G02*
X162043500Y-112570000I90000J0D01*
G01*
X162321500Y-112570000D01*
G75*
G02*
X162411500Y-112660000I0J-90000D01*
G01*
X162411500Y-112840000D01*
G75*
G02*
X162321500Y-112930000I-90000J0D01*
G01*
X162043500Y-112930000D01*
G75*
G02*
X161953500Y-112840000I0J90000D01*
G01*
G37*
G36*
G01*
X161088500Y-112840000D02*
X161088500Y-112660000D01*
G75*
G02*
X161178500Y-112570000I90000J0D01*
G01*
X161456500Y-112570000D01*
G75*
G02*
X161546500Y-112660000I0J-90000D01*
G01*
X161546500Y-112840000D01*
G75*
G02*
X161456500Y-112930000I-90000J0D01*
G01*
X161178500Y-112930000D01*
G75*
G02*
X161088500Y-112840000I0J90000D01*
G01*
G37*
%TD*%
D11*
%TO.C,SW1*%
X168150000Y-116750000D03*
X160350000Y-116750000D03*
%TD*%
D10*
%TO.C,Q1*%
X165000000Y-104200000D03*
X165000000Y-102300000D03*
X163000000Y-103250000D03*
%TD*%
%TO.C,R4*%
G36*
G01*
X161200001Y-104850000D02*
X160299999Y-104850000D01*
G75*
G02*
X160050000Y-104600001I0J249999D01*
G01*
X160050000Y-103899999D01*
G75*
G02*
X160299999Y-103650000I249999J0D01*
G01*
X161200001Y-103650000D01*
G75*
G02*
X161450000Y-103899999I0J-249999D01*
G01*
X161450000Y-104600001D01*
G75*
G02*
X161200001Y-104850000I-249999J0D01*
G01*
G37*
G36*
G01*
X161200001Y-102850000D02*
X160299999Y-102850000D01*
G75*
G02*
X160050000Y-102600001I0J249999D01*
G01*
X160050000Y-101899999D01*
G75*
G02*
X160299999Y-101650000I249999J0D01*
G01*
X161200001Y-101650000D01*
G75*
G02*
X161450000Y-101899999I0J-249999D01*
G01*
X161450000Y-102600001D01*
G75*
G02*
X161200001Y-102850000I-249999J0D01*
G01*
G37*
%TD*%
D12*
%TO.C,U2*%
X92750000Y-97850000D03*
X94750000Y-97850000D03*
X96750000Y-97850000D03*
X98750000Y-97850000D03*
X100750000Y-97850000D03*
X102750000Y-97850000D03*
X104750000Y-97850000D03*
X106750000Y-97850000D03*
D13*
X108250000Y-95250000D03*
X108250000Y-93250000D03*
X108250000Y-91250000D03*
X108250000Y-89250000D03*
X108250000Y-87250000D03*
X108250000Y-85250000D03*
D12*
X106750000Y-82650000D03*
X104750000Y-82650000D03*
X102750000Y-82650000D03*
X100750000Y-82650000D03*
X98750000Y-82650000D03*
X96750000Y-82650000D03*
X94750000Y-82650000D03*
X92750000Y-82650000D03*
%TD*%
%TO.C,P3*%
G36*
G01*
X111088500Y-87090000D02*
X111088500Y-86910000D01*
G75*
G02*
X111178500Y-86820000I90000J0D01*
G01*
X111456500Y-86820000D01*
G75*
G02*
X111546500Y-86910000I0J-90000D01*
G01*
X111546500Y-87090000D01*
G75*
G02*
X111456500Y-87180000I-90000J0D01*
G01*
X111178500Y-87180000D01*
G75*
G02*
X111088500Y-87090000I0J90000D01*
G01*
G37*
G36*
G01*
X111953500Y-87090000D02*
X111953500Y-86910000D01*
G75*
G02*
X112043500Y-86820000I90000J0D01*
G01*
X112321500Y-86820000D01*
G75*
G02*
X112411500Y-86910000I0J-90000D01*
G01*
X112411500Y-87090000D01*
G75*
G02*
X112321500Y-87180000I-90000J0D01*
G01*
X112043500Y-87180000D01*
G75*
G02*
X111953500Y-87090000I0J90000D01*
G01*
G37*
%TD*%
D10*
%TO.C,Q1*%
X115000000Y-84200000D03*
X115000000Y-82300000D03*
X113000000Y-83250000D03*
%TD*%
%TO.C,R4*%
G36*
G01*
X111200001Y-84850000D02*
X110299999Y-84850000D01*
G75*
G02*
X110050000Y-84600001I0J249999D01*
G01*
X110050000Y-83899999D01*
G75*
G02*
X110299999Y-83650000I249999J0D01*
G01*
X111200001Y-83650000D01*
G75*
G02*
X111450000Y-83899999I0J-249999D01*
G01*
X111450000Y-84600001D01*
G75*
G02*
X111200001Y-84850000I-249999J0D01*
G01*
G37*
G36*
G01*
X111200001Y-82850000D02*
X110299999Y-82850000D01*
G75*
G02*
X110050000Y-82600001I0J249999D01*
G01*
X110050000Y-81899999D01*
G75*
G02*
X110299999Y-81650000I249999J0D01*
G01*
X111200001Y-81650000D01*
G75*
G02*
X111450000Y-81899999I0J-249999D01*
G01*
X111450000Y-82600001D01*
G75*
G02*
X111200001Y-82850000I-249999J0D01*
G01*
G37*
%TD*%
%TO.C,P4*%
G36*
G01*
X111953500Y-92840000D02*
X111953500Y-92660000D01*
G75*
G02*
X112043500Y-92570000I90000J0D01*
G01*
X112321500Y-92570000D01*
G75*
G02*
X112411500Y-92660000I0J-90000D01*
G01*
X112411500Y-92840000D01*
G75*
G02*
X112321500Y-92930000I-90000J0D01*
G01*
X112043500Y-92930000D01*
G75*
G02*
X111953500Y-92840000I0J90000D01*
G01*
G37*
G36*
G01*
X111088500Y-92840000D02*
X111088500Y-92660000D01*
G75*
G02*
X111178500Y-92570000I90000J0D01*
G01*
X111456500Y-92570000D01*
G75*
G02*
X111546500Y-92660000I0J-90000D01*
G01*
X111546500Y-92840000D01*
G75*
G02*
X111456500Y-92930000I-90000J0D01*
G01*
X111178500Y-92930000D01*
G75*
G02*
X111088500Y-92840000I0J90000D01*
G01*
G37*
%TD*%
D14*
%TO.C,J1*%
X162100000Y-91300000D03*
X162100000Y-88700000D03*
%TD*%
%TO.C,J1*%
X112100000Y-88700000D03*
X112100000Y-91300000D03*
%TD*%
%TO.C,P3*%
G36*
G01*
X161953500Y-87090000D02*
X161953500Y-86910000D01*
G75*
G02*
X162043500Y-86820000I90000J0D01*
G01*
X162321500Y-86820000D01*
G75*
G02*
X162411500Y-86910000I0J-90000D01*
G01*
X162411500Y-87090000D01*
G75*
G02*
X162321500Y-87180000I-90000J0D01*
G01*
X162043500Y-87180000D01*
G75*
G02*
X161953500Y-87090000I0J90000D01*
G01*
G37*
G36*
G01*
X161088500Y-87090000D02*
X161088500Y-86910000D01*
G75*
G02*
X161178500Y-86820000I90000J0D01*
G01*
X161456500Y-86820000D01*
G75*
G02*
X161546500Y-86910000I0J-90000D01*
G01*
X161546500Y-87090000D01*
G75*
G02*
X161456500Y-87180000I-90000J0D01*
G01*
X161178500Y-87180000D01*
G75*
G02*
X161088500Y-87090000I0J90000D01*
G01*
G37*
%TD*%
D11*
%TO.C,SW1*%
X118150000Y-96750000D03*
X110350000Y-96750000D03*
%TD*%
D12*
%TO.C,U2*%
X142750000Y-82650000D03*
X144750000Y-82650000D03*
X146750000Y-82650000D03*
X148750000Y-82650000D03*
X150750000Y-82650000D03*
X152750000Y-82650000D03*
X154750000Y-82650000D03*
X156750000Y-82650000D03*
D13*
X158250000Y-85250000D03*
X158250000Y-87250000D03*
X158250000Y-89250000D03*
X158250000Y-91250000D03*
X158250000Y-93250000D03*
X158250000Y-95250000D03*
D12*
X156750000Y-97850000D03*
X154750000Y-97850000D03*
X152750000Y-97850000D03*
X150750000Y-97850000D03*
X148750000Y-97850000D03*
X146750000Y-97850000D03*
X144750000Y-97850000D03*
X142750000Y-97850000D03*
%TD*%
%TO.C,P4*%
G36*
G01*
X161088500Y-92840000D02*
X161088500Y-92660000D01*
G75*
G02*
X161178500Y-92570000I90000J0D01*
G01*
X161456500Y-92570000D01*
G75*
G02*
X161546500Y-92660000I0J-90000D01*
G01*
X161546500Y-92840000D01*
G75*
G02*
X161456500Y-92930000I-90000J0D01*
G01*
X161178500Y-92930000D01*
G75*
G02*
X161088500Y-92840000I0J90000D01*
G01*
G37*
G36*
G01*
X161953500Y-92840000D02*
X161953500Y-92660000D01*
G75*
G02*
X162043500Y-92570000I90000J0D01*
G01*
X162321500Y-92570000D01*
G75*
G02*
X162411500Y-92660000I0J-90000D01*
G01*
X162411500Y-92840000D01*
G75*
G02*
X162321500Y-92930000I-90000J0D01*
G01*
X162043500Y-92930000D01*
G75*
G02*
X161953500Y-92840000I0J90000D01*
G01*
G37*
%TD*%
D11*
%TO.C,SW1*%
X160350000Y-96750000D03*
X168150000Y-96750000D03*
%TD*%
D10*
%TO.C,Q1*%
X163000000Y-83250000D03*
X165000000Y-82300000D03*
X165000000Y-84200000D03*
%TD*%
%TO.C,R4*%
G36*
G01*
X161200001Y-82850000D02*
X160299999Y-82850000D01*
G75*
G02*
X160050000Y-82600001I0J249999D01*
G01*
X160050000Y-81899999D01*
G75*
G02*
X160299999Y-81650000I249999J0D01*
G01*
X161200001Y-81650000D01*
G75*
G02*
X161450000Y-81899999I0J-249999D01*
G01*
X161450000Y-82600001D01*
G75*
G02*
X161200001Y-82850000I-249999J0D01*
G01*
G37*
G36*
G01*
X161200001Y-84850000D02*
X160299999Y-84850000D01*
G75*
G02*
X160050000Y-84600001I0J249999D01*
G01*
X160050000Y-83899999D01*
G75*
G02*
X160299999Y-83650000I249999J0D01*
G01*
X161200001Y-83650000D01*
G75*
G02*
X161450000Y-83899999I0J-249999D01*
G01*
X161450000Y-84600001D01*
G75*
G02*
X161200001Y-84850000I-249999J0D01*
G01*
G37*
%TD*%
%TO.C,P3*%
G36*
G01*
X111953500Y-67090000D02*
X111953500Y-66910000D01*
G75*
G02*
X112043500Y-66820000I90000J0D01*
G01*
X112321500Y-66820000D01*
G75*
G02*
X112411500Y-66910000I0J-90000D01*
G01*
X112411500Y-67090000D01*
G75*
G02*
X112321500Y-67180000I-90000J0D01*
G01*
X112043500Y-67180000D01*
G75*
G02*
X111953500Y-67090000I0J90000D01*
G01*
G37*
G36*
G01*
X111088500Y-67090000D02*
X111088500Y-66910000D01*
G75*
G02*
X111178500Y-66820000I90000J0D01*
G01*
X111456500Y-66820000D01*
G75*
G02*
X111546500Y-66910000I0J-90000D01*
G01*
X111546500Y-67090000D01*
G75*
G02*
X111456500Y-67180000I-90000J0D01*
G01*
X111178500Y-67180000D01*
G75*
G02*
X111088500Y-67090000I0J90000D01*
G01*
G37*
%TD*%
D14*
%TO.C,J1*%
X112100000Y-71300000D03*
X112100000Y-68700000D03*
%TD*%
%TO.C,R4*%
G36*
G01*
X111200001Y-62850000D02*
X110299999Y-62850000D01*
G75*
G02*
X110050000Y-62600001I0J249999D01*
G01*
X110050000Y-61899999D01*
G75*
G02*
X110299999Y-61650000I249999J0D01*
G01*
X111200001Y-61650000D01*
G75*
G02*
X111450000Y-61899999I0J-249999D01*
G01*
X111450000Y-62600001D01*
G75*
G02*
X111200001Y-62850000I-249999J0D01*
G01*
G37*
G36*
G01*
X111200001Y-64850000D02*
X110299999Y-64850000D01*
G75*
G02*
X110050000Y-64600001I0J249999D01*
G01*
X110050000Y-63899999D01*
G75*
G02*
X110299999Y-63650000I249999J0D01*
G01*
X111200001Y-63650000D01*
G75*
G02*
X111450000Y-63899999I0J-249999D01*
G01*
X111450000Y-64600001D01*
G75*
G02*
X111200001Y-64850000I-249999J0D01*
G01*
G37*
%TD*%
D11*
%TO.C,SW1*%
X110350000Y-76750000D03*
X118150000Y-76750000D03*
%TD*%
D12*
%TO.C,U2*%
X92750000Y-62650000D03*
X94750000Y-62650000D03*
X96750000Y-62650000D03*
X98750000Y-62650000D03*
X100750000Y-62650000D03*
X102750000Y-62650000D03*
X104750000Y-62650000D03*
X106750000Y-62650000D03*
D13*
X108250000Y-65250000D03*
X108250000Y-67250000D03*
X108250000Y-69250000D03*
X108250000Y-71250000D03*
X108250000Y-73250000D03*
X108250000Y-75250000D03*
D12*
X106750000Y-77850000D03*
X104750000Y-77850000D03*
X102750000Y-77850000D03*
X100750000Y-77850000D03*
X98750000Y-77850000D03*
X96750000Y-77850000D03*
X94750000Y-77850000D03*
X92750000Y-77850000D03*
%TD*%
%TO.C,P4*%
G36*
G01*
X111088500Y-72840000D02*
X111088500Y-72660000D01*
G75*
G02*
X111178500Y-72570000I90000J0D01*
G01*
X111456500Y-72570000D01*
G75*
G02*
X111546500Y-72660000I0J-90000D01*
G01*
X111546500Y-72840000D01*
G75*
G02*
X111456500Y-72930000I-90000J0D01*
G01*
X111178500Y-72930000D01*
G75*
G02*
X111088500Y-72840000I0J90000D01*
G01*
G37*
G36*
G01*
X111953500Y-72840000D02*
X111953500Y-72660000D01*
G75*
G02*
X112043500Y-72570000I90000J0D01*
G01*
X112321500Y-72570000D01*
G75*
G02*
X112411500Y-72660000I0J-90000D01*
G01*
X112411500Y-72840000D01*
G75*
G02*
X112321500Y-72930000I-90000J0D01*
G01*
X112043500Y-72930000D01*
G75*
G02*
X111953500Y-72840000I0J90000D01*
G01*
G37*
%TD*%
D10*
%TO.C,Q1*%
X113000000Y-63250000D03*
X115000000Y-62300000D03*
X115000000Y-64200000D03*
%TD*%
%TO.C,P3*%
G36*
G01*
X161088500Y-67090000D02*
X161088500Y-66910000D01*
G75*
G02*
X161178500Y-66820000I90000J0D01*
G01*
X161456500Y-66820000D01*
G75*
G02*
X161546500Y-66910000I0J-90000D01*
G01*
X161546500Y-67090000D01*
G75*
G02*
X161456500Y-67180000I-90000J0D01*
G01*
X161178500Y-67180000D01*
G75*
G02*
X161088500Y-67090000I0J90000D01*
G01*
G37*
G36*
G01*
X161953500Y-67090000D02*
X161953500Y-66910000D01*
G75*
G02*
X162043500Y-66820000I90000J0D01*
G01*
X162321500Y-66820000D01*
G75*
G02*
X162411500Y-66910000I0J-90000D01*
G01*
X162411500Y-67090000D01*
G75*
G02*
X162321500Y-67180000I-90000J0D01*
G01*
X162043500Y-67180000D01*
G75*
G02*
X161953500Y-67090000I0J90000D01*
G01*
G37*
%TD*%
D14*
%TO.C,J1*%
X162100000Y-68700000D03*
X162100000Y-71300000D03*
%TD*%
%TO.C,P4*%
G36*
G01*
X161953500Y-72840000D02*
X161953500Y-72660000D01*
G75*
G02*
X162043500Y-72570000I90000J0D01*
G01*
X162321500Y-72570000D01*
G75*
G02*
X162411500Y-72660000I0J-90000D01*
G01*
X162411500Y-72840000D01*
G75*
G02*
X162321500Y-72930000I-90000J0D01*
G01*
X162043500Y-72930000D01*
G75*
G02*
X161953500Y-72840000I0J90000D01*
G01*
G37*
G36*
G01*
X161088500Y-72840000D02*
X161088500Y-72660000D01*
G75*
G02*
X161178500Y-72570000I90000J0D01*
G01*
X161456500Y-72570000D01*
G75*
G02*
X161546500Y-72660000I0J-90000D01*
G01*
X161546500Y-72840000D01*
G75*
G02*
X161456500Y-72930000I-90000J0D01*
G01*
X161178500Y-72930000D01*
G75*
G02*
X161088500Y-72840000I0J90000D01*
G01*
G37*
%TD*%
%TO.C,R4*%
G36*
G01*
X161200001Y-64850000D02*
X160299999Y-64850000D01*
G75*
G02*
X160050000Y-64600001I0J249999D01*
G01*
X160050000Y-63899999D01*
G75*
G02*
X160299999Y-63650000I249999J0D01*
G01*
X161200001Y-63650000D01*
G75*
G02*
X161450000Y-63899999I0J-249999D01*
G01*
X161450000Y-64600001D01*
G75*
G02*
X161200001Y-64850000I-249999J0D01*
G01*
G37*
G36*
G01*
X161200001Y-62850000D02*
X160299999Y-62850000D01*
G75*
G02*
X160050000Y-62600001I0J249999D01*
G01*
X160050000Y-61899999D01*
G75*
G02*
X160299999Y-61650000I249999J0D01*
G01*
X161200001Y-61650000D01*
G75*
G02*
X161450000Y-61899999I0J-249999D01*
G01*
X161450000Y-62600001D01*
G75*
G02*
X161200001Y-62850000I-249999J0D01*
G01*
G37*
%TD*%
D11*
%TO.C,SW1*%
X168150000Y-76750000D03*
X160350000Y-76750000D03*
%TD*%
D12*
%TO.C,U2*%
X142750000Y-77850000D03*
X144750000Y-77850000D03*
X146750000Y-77850000D03*
X148750000Y-77850000D03*
X150750000Y-77850000D03*
X152750000Y-77850000D03*
X154750000Y-77850000D03*
X156750000Y-77850000D03*
D13*
X158250000Y-75250000D03*
X158250000Y-73250000D03*
X158250000Y-71250000D03*
X158250000Y-69250000D03*
X158250000Y-67250000D03*
X158250000Y-65250000D03*
D12*
X156750000Y-62650000D03*
X154750000Y-62650000D03*
X152750000Y-62650000D03*
X150750000Y-62650000D03*
X148750000Y-62650000D03*
X146750000Y-62650000D03*
X144750000Y-62650000D03*
X142750000Y-62650000D03*
%TD*%
D10*
%TO.C,Q1*%
X165000000Y-64200000D03*
X165000000Y-62300000D03*
X163000000Y-63250000D03*
%TD*%
%TO.C,P3*%
G36*
G01*
X161953500Y-47090000D02*
X161953500Y-46910000D01*
G75*
G02*
X162043500Y-46820000I90000J0D01*
G01*
X162321500Y-46820000D01*
G75*
G02*
X162411500Y-46910000I0J-90000D01*
G01*
X162411500Y-47090000D01*
G75*
G02*
X162321500Y-47180000I-90000J0D01*
G01*
X162043500Y-47180000D01*
G75*
G02*
X161953500Y-47090000I0J90000D01*
G01*
G37*
G36*
G01*
X161088500Y-47090000D02*
X161088500Y-46910000D01*
G75*
G02*
X161178500Y-46820000I90000J0D01*
G01*
X161456500Y-46820000D01*
G75*
G02*
X161546500Y-46910000I0J-90000D01*
G01*
X161546500Y-47090000D01*
G75*
G02*
X161456500Y-47180000I-90000J0D01*
G01*
X161178500Y-47180000D01*
G75*
G02*
X161088500Y-47090000I0J90000D01*
G01*
G37*
%TD*%
D14*
%TO.C,J1*%
X162100000Y-51300000D03*
X162100000Y-48700000D03*
%TD*%
%TO.C,R4*%
G36*
G01*
X161200001Y-42850000D02*
X160299999Y-42850000D01*
G75*
G02*
X160050000Y-42600001I0J249999D01*
G01*
X160050000Y-41899999D01*
G75*
G02*
X160299999Y-41650000I249999J0D01*
G01*
X161200001Y-41650000D01*
G75*
G02*
X161450000Y-41899999I0J-249999D01*
G01*
X161450000Y-42600001D01*
G75*
G02*
X161200001Y-42850000I-249999J0D01*
G01*
G37*
G36*
G01*
X161200001Y-44850000D02*
X160299999Y-44850000D01*
G75*
G02*
X160050000Y-44600001I0J249999D01*
G01*
X160050000Y-43899999D01*
G75*
G02*
X160299999Y-43650000I249999J0D01*
G01*
X161200001Y-43650000D01*
G75*
G02*
X161450000Y-43899999I0J-249999D01*
G01*
X161450000Y-44600001D01*
G75*
G02*
X161200001Y-44850000I-249999J0D01*
G01*
G37*
%TD*%
D11*
%TO.C,SW1*%
X160350000Y-56750000D03*
X168150000Y-56750000D03*
%TD*%
D12*
%TO.C,U2*%
X142750000Y-42650000D03*
X144750000Y-42650000D03*
X146750000Y-42650000D03*
X148750000Y-42650000D03*
X150750000Y-42650000D03*
X152750000Y-42650000D03*
X154750000Y-42650000D03*
X156750000Y-42650000D03*
D13*
X158250000Y-45250000D03*
X158250000Y-47250000D03*
X158250000Y-49250000D03*
X158250000Y-51250000D03*
X158250000Y-53250000D03*
X158250000Y-55250000D03*
D12*
X156750000Y-57850000D03*
X154750000Y-57850000D03*
X152750000Y-57850000D03*
X150750000Y-57850000D03*
X148750000Y-57850000D03*
X146750000Y-57850000D03*
X144750000Y-57850000D03*
X142750000Y-57850000D03*
%TD*%
%TO.C,P4*%
G36*
G01*
X161088500Y-52840000D02*
X161088500Y-52660000D01*
G75*
G02*
X161178500Y-52570000I90000J0D01*
G01*
X161456500Y-52570000D01*
G75*
G02*
X161546500Y-52660000I0J-90000D01*
G01*
X161546500Y-52840000D01*
G75*
G02*
X161456500Y-52930000I-90000J0D01*
G01*
X161178500Y-52930000D01*
G75*
G02*
X161088500Y-52840000I0J90000D01*
G01*
G37*
G36*
G01*
X161953500Y-52840000D02*
X161953500Y-52660000D01*
G75*
G02*
X162043500Y-52570000I90000J0D01*
G01*
X162321500Y-52570000D01*
G75*
G02*
X162411500Y-52660000I0J-90000D01*
G01*
X162411500Y-52840000D01*
G75*
G02*
X162321500Y-52930000I-90000J0D01*
G01*
X162043500Y-52930000D01*
G75*
G02*
X161953500Y-52840000I0J90000D01*
G01*
G37*
%TD*%
D10*
%TO.C,Q1*%
X163000000Y-43250000D03*
X165000000Y-42300000D03*
X165000000Y-44200000D03*
%TD*%
D11*
%TO.C,SW1*%
X118150000Y-56750000D03*
X110350000Y-56750000D03*
%TD*%
D14*
%TO.C,J1*%
X112100000Y-48700000D03*
X112100000Y-51300000D03*
%TD*%
D10*
%TO.C,Q1*%
X115000000Y-44200000D03*
X115000000Y-42300000D03*
X113000000Y-43250000D03*
%TD*%
%TO.C,P3*%
G36*
G01*
X111088500Y-47090000D02*
X111088500Y-46910000D01*
G75*
G02*
X111178500Y-46820000I90000J0D01*
G01*
X111456500Y-46820000D01*
G75*
G02*
X111546500Y-46910000I0J-90000D01*
G01*
X111546500Y-47090000D01*
G75*
G02*
X111456500Y-47180000I-90000J0D01*
G01*
X111178500Y-47180000D01*
G75*
G02*
X111088500Y-47090000I0J90000D01*
G01*
G37*
G36*
G01*
X111953500Y-47090000D02*
X111953500Y-46910000D01*
G75*
G02*
X112043500Y-46820000I90000J0D01*
G01*
X112321500Y-46820000D01*
G75*
G02*
X112411500Y-46910000I0J-90000D01*
G01*
X112411500Y-47090000D01*
G75*
G02*
X112321500Y-47180000I-90000J0D01*
G01*
X112043500Y-47180000D01*
G75*
G02*
X111953500Y-47090000I0J90000D01*
G01*
G37*
%TD*%
%TO.C,P4*%
G36*
G01*
X111953500Y-52840000D02*
X111953500Y-52660000D01*
G75*
G02*
X112043500Y-52570000I90000J0D01*
G01*
X112321500Y-52570000D01*
G75*
G02*
X112411500Y-52660000I0J-90000D01*
G01*
X112411500Y-52840000D01*
G75*
G02*
X112321500Y-52930000I-90000J0D01*
G01*
X112043500Y-52930000D01*
G75*
G02*
X111953500Y-52840000I0J90000D01*
G01*
G37*
G36*
G01*
X111088500Y-52840000D02*
X111088500Y-52660000D01*
G75*
G02*
X111178500Y-52570000I90000J0D01*
G01*
X111456500Y-52570000D01*
G75*
G02*
X111546500Y-52660000I0J-90000D01*
G01*
X111546500Y-52840000D01*
G75*
G02*
X111456500Y-52930000I-90000J0D01*
G01*
X111178500Y-52930000D01*
G75*
G02*
X111088500Y-52840000I0J90000D01*
G01*
G37*
%TD*%
%TO.C,R4*%
G36*
G01*
X111200001Y-44850000D02*
X110299999Y-44850000D01*
G75*
G02*
X110050000Y-44600001I0J249999D01*
G01*
X110050000Y-43899999D01*
G75*
G02*
X110299999Y-43650000I249999J0D01*
G01*
X111200001Y-43650000D01*
G75*
G02*
X111450000Y-43899999I0J-249999D01*
G01*
X111450000Y-44600001D01*
G75*
G02*
X111200001Y-44850000I-249999J0D01*
G01*
G37*
G36*
G01*
X111200001Y-42850000D02*
X110299999Y-42850000D01*
G75*
G02*
X110050000Y-42600001I0J249999D01*
G01*
X110050000Y-41899999D01*
G75*
G02*
X110299999Y-41650000I249999J0D01*
G01*
X111200001Y-41650000D01*
G75*
G02*
X111450000Y-41899999I0J-249999D01*
G01*
X111450000Y-42600001D01*
G75*
G02*
X111200001Y-42850000I-249999J0D01*
G01*
G37*
%TD*%
D12*
%TO.C,U2*%
X92750000Y-57850000D03*
X94750000Y-57850000D03*
X96750000Y-57850000D03*
X98750000Y-57850000D03*
X100750000Y-57850000D03*
X102750000Y-57850000D03*
X104750000Y-57850000D03*
X106750000Y-57850000D03*
D13*
X108250000Y-55250000D03*
X108250000Y-53250000D03*
X108250000Y-51250000D03*
X108250000Y-49250000D03*
X108250000Y-47250000D03*
X108250000Y-45250000D03*
D12*
X106750000Y-42650000D03*
X104750000Y-42650000D03*
X102750000Y-42650000D03*
X100750000Y-42650000D03*
X98750000Y-42650000D03*
X96750000Y-42650000D03*
X94750000Y-42650000D03*
X92750000Y-42650000D03*
%TD*%
M02*
