M48
; DRILL file {KiCad (5.1.9)-1} date 09/18/21 19:38:33
; FORMAT={3:3/ absolute / metric / suppress leading zeros}
; #@! TF.CreationDate,2021-09-18T19:38:33+02:00
; #@! TF.GenerationSoftware,Kicad,Pcbnew,(5.1.9)-1
; #@! TF.FileFunction,Plated,1,2,PTH
FMAT,2
METRIC,TZ
T1C0.400
T2C0.450
T3C0.760
%
G90
G05
T1
X101748Y-56223
X101748Y-76223
X101748Y-96223
X101748Y-116223
X101748Y-136223
X105128Y-45679
X105128Y-65679
X105128Y-85679
X105128Y-105679
X105128Y-125679
X112229Y-44250
X112229Y-64250
X112229Y-84250
X112229Y-104250
X112229Y-124250
X112739Y-53508
X112739Y-73508
X112739Y-93508
X112739Y-113508
X112739Y-133508
X113423Y-54920
X113423Y-74920
X113423Y-94920
X113423Y-114920
X113423Y-134920
X151748Y-56223
X151748Y-76223
X151748Y-96223
X151748Y-116223
X151748Y-136223
X155128Y-45679
X155128Y-65679
X155128Y-85679
X155128Y-105679
X155128Y-125679
X162229Y-44250
X162229Y-64250
X162229Y-84250
X162229Y-104250
X162229Y-124250
X162739Y-53508
X162739Y-73508
X162739Y-93508
X162739Y-113508
X162739Y-133508
X163423Y-54920
X163423Y-74920
X163423Y-94920
X163423Y-114920
X163423Y-134920
T3
X78960Y-48020
X78960Y-50560
X78960Y-53100
X78960Y-68020
X78960Y-70560
X78960Y-73100
X78960Y-88020
X78960Y-90560
X78960Y-93100
X78960Y-108020
X78960Y-110560
X78960Y-113100
X78960Y-128020
X78960Y-130560
X78960Y-133100
X81500Y-46750
X81500Y-49290
X81500Y-51830
X81500Y-66750
X81500Y-69290
X81500Y-71830
X81500Y-86750
X81500Y-89290
X81500Y-91830
X81500Y-106750
X81500Y-109290
X81500Y-111830
X81500Y-126750
X81500Y-129290
X81500Y-131830
X128960Y-48020
X128960Y-50560
X128960Y-53100
X128960Y-68020
X128960Y-70560
X128960Y-73100
X128960Y-88020
X128960Y-90560
X128960Y-93100
X128960Y-108020
X128960Y-110560
X128960Y-113100
X128960Y-128020
X128960Y-130560
X128960Y-133100
X131500Y-46750
X131500Y-49290
X131500Y-51830
X131500Y-66750
X131500Y-69290
X131500Y-71830
X131500Y-86750
X131500Y-89290
X131500Y-91830
X131500Y-106750
X131500Y-109290
X131500Y-111830
X131500Y-126750
X131500Y-129290
X131500Y-131830
T2
G00X118050Y-46425
M15
G01X118850Y-46425
M16
G05
G00X118850Y-53575
M15
G01X118050Y-53575
M16
G05
G00X118050Y-66425
M15
G01X118850Y-66425
M16
G05
G00X118850Y-73575
M15
G01X118050Y-73575
M16
G05
G00X118050Y-86425
M15
G01X118850Y-86425
M16
G05
G00X118850Y-93575
M15
G01X118050Y-93575
M16
G05
G00X118050Y-106425
M15
G01X118850Y-106425
M16
G05
G00X118850Y-113575
M15
G01X118050Y-113575
M16
G05
G00X118050Y-126425
M15
G01X118850Y-126425
M16
G05
G00X118850Y-133575
M15
G01X118050Y-133575
M16
G05
G00X168050Y-46425
M15
G01X168850Y-46425
M16
G05
G00X168850Y-53575
M15
G01X168050Y-53575
M16
G05
G00X168050Y-66425
M15
G01X168850Y-66425
M16
G05
G00X168850Y-73575
M15
G01X168050Y-73575
M16
G05
G00X168050Y-86425
M15
G01X168850Y-86425
M16
G05
G00X168850Y-93575
M15
G01X168050Y-93575
M16
G05
G00X168050Y-106425
M15
G01X168850Y-106425
M16
G05
G00X168850Y-113575
M15
G01X168050Y-113575
M16
G05
G00X168050Y-126425
M15
G01X168850Y-126425
M16
G05
G00X168850Y-133575
M15
G01X168050Y-133575
M16
G05
T0
M30
