%TF.GenerationSoftware,KiCad,Pcbnew,(5.1.9)-1*%
%TF.CreationDate,2021-09-18T19:38:26+02:00*%
%TF.ProjectId,IM350_AM550_5V_V4.0_multi,494d3335-305f-4414-9d35-35305f35565f,rev?*%
%TF.SameCoordinates,Original*%
%TF.FileFunction,Copper,L1,Top*%
%TF.FilePolarity,Positive*%
%FSLAX46Y46*%
G04 Gerber Fmt 4.6, Leading zero omitted, Abs format (unit mm)*
G04 Created by KiCad (PCBNEW (5.1.9)-1) date 2021-09-18 19:38:26*
%MOMM*%
%LPD*%
G01*
G04 APERTURE LIST*
%TA.AperFunction,SMDPad,CuDef*%
%ADD10R,0.900000X0.800000*%
%TD*%
%TA.AperFunction,SMDPad,CuDef*%
%ADD11R,1.500000X1.500000*%
%TD*%
%TA.AperFunction,SMDPad,CuDef*%
%ADD12R,1.000000X2.500000*%
%TD*%
%TA.AperFunction,SMDPad,CuDef*%
%ADD13R,1.800000X1.000000*%
%TD*%
%TA.AperFunction,ComponentPad*%
%ADD14R,1.520000X1.520000*%
%TD*%
%TA.AperFunction,ComponentPad*%
%ADD15C,1.520000*%
%TD*%
%TA.AperFunction,ComponentPad*%
%ADD16O,1.900000X1.050000*%
%TD*%
%TA.AperFunction,SMDPad,CuDef*%
%ADD17R,2.800000X0.600000*%
%TD*%
%TA.AperFunction,ViaPad*%
%ADD18C,0.800000*%
%TD*%
%TA.AperFunction,Conductor*%
%ADD19C,0.250000*%
%TD*%
G04 APERTURE END LIST*
D10*
%TO.P,Q1,3*%
%TO.N,Net-(Q1-Pad3)*%
X163000000Y-123250000D03*
%TO.P,Q1,2*%
%TO.N,Net-(C1-Pad2)*%
X165000000Y-122300000D03*
%TO.P,Q1,1*%
%TO.N,Net-(J2-Pad5)*%
X165000000Y-124200000D03*
%TD*%
%TO.P,R4,1*%
%TO.N,Net-(R4-Pad1)*%
%TA.AperFunction,SMDPad,CuDef*%
G36*
G01*
X111200001Y-124850000D02*
X110299999Y-124850000D01*
G75*
G02*
X110050000Y-124600001I0J249999D01*
G01*
X110050000Y-123899999D01*
G75*
G02*
X110299999Y-123650000I249999J0D01*
G01*
X111200001Y-123650000D01*
G75*
G02*
X111450000Y-123899999I0J-249999D01*
G01*
X111450000Y-124600001D01*
G75*
G02*
X111200001Y-124850000I-249999J0D01*
G01*
G37*
%TD.AperFunction*%
%TO.P,R4,2*%
%TO.N,Net-(Q1-Pad3)*%
%TA.AperFunction,SMDPad,CuDef*%
G36*
G01*
X111200001Y-122850000D02*
X110299999Y-122850000D01*
G75*
G02*
X110050000Y-122600001I0J249999D01*
G01*
X110050000Y-121899999D01*
G75*
G02*
X110299999Y-121650000I249999J0D01*
G01*
X111200001Y-121650000D01*
G75*
G02*
X111450000Y-121899999I0J-249999D01*
G01*
X111450000Y-122600001D01*
G75*
G02*
X111200001Y-122850000I-249999J0D01*
G01*
G37*
%TD.AperFunction*%
%TD*%
D11*
%TO.P,SW1,2*%
%TO.N,Net-(C1-Pad2)*%
X118150000Y-136750000D03*
%TO.P,SW1,1*%
%TO.N,Net-(SW1-Pad1)*%
X110350000Y-136750000D03*
%TD*%
D12*
%TO.P,U2,22*%
%TO.N,Net-(U2-Pad22)*%
X142750000Y-122650000D03*
%TO.P,U2,21*%
%TO.N,Net-(R1-Pad2)*%
X144750000Y-122650000D03*
%TO.P,U2,20*%
%TO.N,Net-(J2-Pad2)*%
X146750000Y-122650000D03*
%TO.P,U2,19*%
%TO.N,Net-(R2-Pad2)*%
X148750000Y-122650000D03*
%TO.P,U2,18*%
%TO.N,Net-(U2-Pad18)*%
X150750000Y-122650000D03*
%TO.P,U2,17*%
%TO.N,Net-(U2-Pad17)*%
X152750000Y-122650000D03*
%TO.P,U2,16*%
%TO.N,Net-(R3-Pad1)*%
X154750000Y-122650000D03*
%TO.P,U2,15*%
%TO.N,Net-(C1-Pad2)*%
X156750000Y-122650000D03*
D13*
%TO.P,U2,14*%
%TO.N,Net-(U2-Pad14)*%
X158250000Y-125250000D03*
%TO.P,U2,13*%
%TO.N,Net-(U2-Pad13)*%
X158250000Y-127250000D03*
%TO.P,U2,12*%
%TO.N,Net-(U2-Pad12)*%
X158250000Y-129250000D03*
%TO.P,U2,11*%
%TO.N,Net-(U2-Pad11)*%
X158250000Y-131250000D03*
%TO.P,U2,10*%
%TO.N,Net-(U2-Pad10)*%
X158250000Y-133250000D03*
%TO.P,U2,9*%
%TO.N,Net-(U2-Pad9)*%
X158250000Y-135250000D03*
D12*
%TO.P,U2,8*%
%TO.N,Net-(C1-Pad1)*%
X156750000Y-137850000D03*
%TO.P,U2,7*%
%TO.N,Net-(SW1-Pad1)*%
X154750000Y-137850000D03*
%TO.P,U2,6*%
%TO.N,Net-(U2-Pad6)*%
X152750000Y-137850000D03*
%TO.P,U2,5*%
%TO.N,Net-(R4-Pad1)*%
X150750000Y-137850000D03*
%TO.P,U2,4*%
%TO.N,Net-(U2-Pad1)*%
X148750000Y-137850000D03*
%TO.P,U2,3*%
%TO.N,Net-(C1-Pad1)*%
X146750000Y-137850000D03*
%TO.P,U2,2*%
%TO.N,Net-(U2-Pad2)*%
X144750000Y-137850000D03*
%TO.P,U2,1*%
%TO.N,Net-(U2-Pad1)*%
X142750000Y-137850000D03*
%TD*%
D14*
%TO.P,J2,1*%
%TO.N,Net-(J1-Pad1)*%
X81500000Y-126750000D03*
D15*
%TO.P,J2,2*%
%TO.N,Net-(J2-Pad2)*%
X78960000Y-128020000D03*
%TO.P,J2,3*%
%TO.N,Net-(C1-Pad2)*%
X81500000Y-129290000D03*
%TO.P,J2,4*%
%TO.N,Net-(J2-Pad4)*%
X78960000Y-130560000D03*
%TO.P,J2,5*%
%TO.N,Net-(J2-Pad5)*%
X81500000Y-131830000D03*
%TO.P,J2,6*%
%TO.N,Net-(C1-Pad2)*%
X78960000Y-133100000D03*
%TD*%
D11*
%TO.P,SW1,1*%
%TO.N,Net-(SW1-Pad1)*%
X160350000Y-136750000D03*
%TO.P,SW1,2*%
%TO.N,Net-(C1-Pad2)*%
X168150000Y-136750000D03*
%TD*%
%TO.P,P4,1*%
%TO.N,Net-(Q1-Pad3)*%
%TA.AperFunction,SMDPad,CuDef*%
G36*
G01*
X161025000Y-132850000D02*
X161025000Y-132650000D01*
G75*
G02*
X161125000Y-132550000I100000J0D01*
G01*
X161560000Y-132550000D01*
G75*
G02*
X161660000Y-132650000I0J-100000D01*
G01*
X161660000Y-132850000D01*
G75*
G02*
X161560000Y-132950000I-100000J0D01*
G01*
X161125000Y-132950000D01*
G75*
G02*
X161025000Y-132850000I0J100000D01*
G01*
G37*
%TD.AperFunction*%
%TO.P,P4,2*%
%TO.N,Net-(R2-Pad2)*%
%TA.AperFunction,SMDPad,CuDef*%
G36*
G01*
X161840000Y-132850000D02*
X161840000Y-132650000D01*
G75*
G02*
X161940000Y-132550000I100000J0D01*
G01*
X162375000Y-132550000D01*
G75*
G02*
X162475000Y-132650000I0J-100000D01*
G01*
X162475000Y-132850000D01*
G75*
G02*
X162375000Y-132950000I-100000J0D01*
G01*
X161940000Y-132950000D01*
G75*
G02*
X161840000Y-132850000I0J100000D01*
G01*
G37*
%TD.AperFunction*%
%TD*%
%TO.P,R4,2*%
%TO.N,Net-(Q1-Pad3)*%
%TA.AperFunction,SMDPad,CuDef*%
G36*
G01*
X161200001Y-122850000D02*
X160299999Y-122850000D01*
G75*
G02*
X160050000Y-122600001I0J249999D01*
G01*
X160050000Y-121899999D01*
G75*
G02*
X160299999Y-121650000I249999J0D01*
G01*
X161200001Y-121650000D01*
G75*
G02*
X161450000Y-121899999I0J-249999D01*
G01*
X161450000Y-122600001D01*
G75*
G02*
X161200001Y-122850000I-249999J0D01*
G01*
G37*
%TD.AperFunction*%
%TO.P,R4,1*%
%TO.N,Net-(R4-Pad1)*%
%TA.AperFunction,SMDPad,CuDef*%
G36*
G01*
X161200001Y-124850000D02*
X160299999Y-124850000D01*
G75*
G02*
X160050000Y-124600001I0J249999D01*
G01*
X160050000Y-123899999D01*
G75*
G02*
X160299999Y-123650000I249999J0D01*
G01*
X161200001Y-123650000D01*
G75*
G02*
X161450000Y-123899999I0J-249999D01*
G01*
X161450000Y-124600001D01*
G75*
G02*
X161200001Y-124850000I-249999J0D01*
G01*
G37*
%TD.AperFunction*%
%TD*%
D15*
%TO.P,J2,6*%
%TO.N,Net-(C1-Pad2)*%
X128960000Y-133100000D03*
%TO.P,J2,5*%
%TO.N,Net-(J2-Pad5)*%
X131500000Y-131830000D03*
%TO.P,J2,4*%
%TO.N,Net-(J2-Pad4)*%
X128960000Y-130560000D03*
%TO.P,J2,3*%
%TO.N,Net-(C1-Pad2)*%
X131500000Y-129290000D03*
%TO.P,J2,2*%
%TO.N,Net-(J2-Pad2)*%
X128960000Y-128020000D03*
D14*
%TO.P,J2,1*%
%TO.N,Net-(J1-Pad1)*%
X131500000Y-126750000D03*
%TD*%
D10*
%TO.P,Q1,1*%
%TO.N,Net-(J2-Pad5)*%
X115000000Y-124200000D03*
%TO.P,Q1,2*%
%TO.N,Net-(C1-Pad2)*%
X115000000Y-122300000D03*
%TO.P,Q1,3*%
%TO.N,Net-(Q1-Pad3)*%
X113000000Y-123250000D03*
%TD*%
D12*
%TO.P,U2,1*%
%TO.N,Net-(U2-Pad1)*%
X92750000Y-137850000D03*
%TO.P,U2,2*%
%TO.N,Net-(U2-Pad2)*%
X94750000Y-137850000D03*
%TO.P,U2,3*%
%TO.N,Net-(C1-Pad1)*%
X96750000Y-137850000D03*
%TO.P,U2,4*%
%TO.N,Net-(U2-Pad1)*%
X98750000Y-137850000D03*
%TO.P,U2,5*%
%TO.N,Net-(R4-Pad1)*%
X100750000Y-137850000D03*
%TO.P,U2,6*%
%TO.N,Net-(U2-Pad6)*%
X102750000Y-137850000D03*
%TO.P,U2,7*%
%TO.N,Net-(SW1-Pad1)*%
X104750000Y-137850000D03*
%TO.P,U2,8*%
%TO.N,Net-(C1-Pad1)*%
X106750000Y-137850000D03*
D13*
%TO.P,U2,9*%
%TO.N,Net-(U2-Pad9)*%
X108250000Y-135250000D03*
%TO.P,U2,10*%
%TO.N,Net-(U2-Pad10)*%
X108250000Y-133250000D03*
%TO.P,U2,11*%
%TO.N,Net-(U2-Pad11)*%
X108250000Y-131250000D03*
%TO.P,U2,12*%
%TO.N,Net-(U2-Pad12)*%
X108250000Y-129250000D03*
%TO.P,U2,13*%
%TO.N,Net-(U2-Pad13)*%
X108250000Y-127250000D03*
%TO.P,U2,14*%
%TO.N,Net-(U2-Pad14)*%
X108250000Y-125250000D03*
D12*
%TO.P,U2,15*%
%TO.N,Net-(C1-Pad2)*%
X106750000Y-122650000D03*
%TO.P,U2,16*%
%TO.N,Net-(R3-Pad1)*%
X104750000Y-122650000D03*
%TO.P,U2,17*%
%TO.N,Net-(U2-Pad17)*%
X102750000Y-122650000D03*
%TO.P,U2,18*%
%TO.N,Net-(U2-Pad18)*%
X100750000Y-122650000D03*
%TO.P,U2,19*%
%TO.N,Net-(R2-Pad2)*%
X98750000Y-122650000D03*
%TO.P,U2,20*%
%TO.N,Net-(J2-Pad2)*%
X96750000Y-122650000D03*
%TO.P,U2,21*%
%TO.N,Net-(R1-Pad2)*%
X94750000Y-122650000D03*
%TO.P,U2,22*%
%TO.N,Net-(U2-Pad22)*%
X92750000Y-122650000D03*
%TD*%
D16*
%TO.P,J1,*%
%TO.N,*%
X118450000Y-126425000D03*
X118450000Y-133575000D03*
D17*
%TO.P,J1,5*%
%TO.N,Net-(C1-Pad2)*%
X112100000Y-128700000D03*
%TO.P,J1,1*%
%TO.N,Net-(J1-Pad1)*%
X112100000Y-131300000D03*
%TD*%
%TO.P,P4,2*%
%TO.N,Net-(R2-Pad2)*%
%TA.AperFunction,SMDPad,CuDef*%
G36*
G01*
X111840000Y-132850000D02*
X111840000Y-132650000D01*
G75*
G02*
X111940000Y-132550000I100000J0D01*
G01*
X112375000Y-132550000D01*
G75*
G02*
X112475000Y-132650000I0J-100000D01*
G01*
X112475000Y-132850000D01*
G75*
G02*
X112375000Y-132950000I-100000J0D01*
G01*
X111940000Y-132950000D01*
G75*
G02*
X111840000Y-132850000I0J100000D01*
G01*
G37*
%TD.AperFunction*%
%TO.P,P4,1*%
%TO.N,Net-(Q1-Pad3)*%
%TA.AperFunction,SMDPad,CuDef*%
G36*
G01*
X111025000Y-132850000D02*
X111025000Y-132650000D01*
G75*
G02*
X111125000Y-132550000I100000J0D01*
G01*
X111560000Y-132550000D01*
G75*
G02*
X111660000Y-132650000I0J-100000D01*
G01*
X111660000Y-132850000D01*
G75*
G02*
X111560000Y-132950000I-100000J0D01*
G01*
X111125000Y-132950000D01*
G75*
G02*
X111025000Y-132850000I0J100000D01*
G01*
G37*
%TD.AperFunction*%
%TD*%
%TO.P,J1,1*%
%TO.N,Net-(J1-Pad1)*%
X162100000Y-131300000D03*
%TO.P,J1,5*%
%TO.N,Net-(C1-Pad2)*%
X162100000Y-128700000D03*
D16*
%TO.P,J1,*%
%TO.N,*%
X168450000Y-133575000D03*
X168450000Y-126425000D03*
%TD*%
%TO.P,P3,2*%
%TO.N,Net-(R1-Pad2)*%
%TA.AperFunction,SMDPad,CuDef*%
G36*
G01*
X161840000Y-127100000D02*
X161840000Y-126900000D01*
G75*
G02*
X161940000Y-126800000I100000J0D01*
G01*
X162375000Y-126800000D01*
G75*
G02*
X162475000Y-126900000I0J-100000D01*
G01*
X162475000Y-127100000D01*
G75*
G02*
X162375000Y-127200000I-100000J0D01*
G01*
X161940000Y-127200000D01*
G75*
G02*
X161840000Y-127100000I0J100000D01*
G01*
G37*
%TD.AperFunction*%
%TO.P,P3,1*%
%TO.N,Net-(Q1-Pad3)*%
%TA.AperFunction,SMDPad,CuDef*%
G36*
G01*
X161025000Y-127100000D02*
X161025000Y-126900000D01*
G75*
G02*
X161125000Y-126800000I100000J0D01*
G01*
X161560000Y-126800000D01*
G75*
G02*
X161660000Y-126900000I0J-100000D01*
G01*
X161660000Y-127100000D01*
G75*
G02*
X161560000Y-127200000I-100000J0D01*
G01*
X161125000Y-127200000D01*
G75*
G02*
X161025000Y-127100000I0J100000D01*
G01*
G37*
%TD.AperFunction*%
%TD*%
%TO.P,P3,1*%
%TO.N,Net-(Q1-Pad3)*%
%TA.AperFunction,SMDPad,CuDef*%
G36*
G01*
X111025000Y-127100000D02*
X111025000Y-126900000D01*
G75*
G02*
X111125000Y-126800000I100000J0D01*
G01*
X111560000Y-126800000D01*
G75*
G02*
X111660000Y-126900000I0J-100000D01*
G01*
X111660000Y-127100000D01*
G75*
G02*
X111560000Y-127200000I-100000J0D01*
G01*
X111125000Y-127200000D01*
G75*
G02*
X111025000Y-127100000I0J100000D01*
G01*
G37*
%TD.AperFunction*%
%TO.P,P3,2*%
%TO.N,Net-(R1-Pad2)*%
%TA.AperFunction,SMDPad,CuDef*%
G36*
G01*
X111840000Y-127100000D02*
X111840000Y-126900000D01*
G75*
G02*
X111940000Y-126800000I100000J0D01*
G01*
X112375000Y-126800000D01*
G75*
G02*
X112475000Y-126900000I0J-100000D01*
G01*
X112475000Y-127100000D01*
G75*
G02*
X112375000Y-127200000I-100000J0D01*
G01*
X111940000Y-127200000D01*
G75*
G02*
X111840000Y-127100000I0J100000D01*
G01*
G37*
%TD.AperFunction*%
%TD*%
%TO.P,P3,2*%
%TO.N,Net-(R1-Pad2)*%
%TA.AperFunction,SMDPad,CuDef*%
G36*
G01*
X111840000Y-107100000D02*
X111840000Y-106900000D01*
G75*
G02*
X111940000Y-106800000I100000J0D01*
G01*
X112375000Y-106800000D01*
G75*
G02*
X112475000Y-106900000I0J-100000D01*
G01*
X112475000Y-107100000D01*
G75*
G02*
X112375000Y-107200000I-100000J0D01*
G01*
X111940000Y-107200000D01*
G75*
G02*
X111840000Y-107100000I0J100000D01*
G01*
G37*
%TD.AperFunction*%
%TO.P,P3,1*%
%TO.N,Net-(Q1-Pad3)*%
%TA.AperFunction,SMDPad,CuDef*%
G36*
G01*
X111025000Y-107100000D02*
X111025000Y-106900000D01*
G75*
G02*
X111125000Y-106800000I100000J0D01*
G01*
X111560000Y-106800000D01*
G75*
G02*
X111660000Y-106900000I0J-100000D01*
G01*
X111660000Y-107100000D01*
G75*
G02*
X111560000Y-107200000I-100000J0D01*
G01*
X111125000Y-107200000D01*
G75*
G02*
X111025000Y-107100000I0J100000D01*
G01*
G37*
%TD.AperFunction*%
%TD*%
D12*
%TO.P,U2,22*%
%TO.N,Net-(U2-Pad22)*%
X92750000Y-102650000D03*
%TO.P,U2,21*%
%TO.N,Net-(R1-Pad2)*%
X94750000Y-102650000D03*
%TO.P,U2,20*%
%TO.N,Net-(J2-Pad2)*%
X96750000Y-102650000D03*
%TO.P,U2,19*%
%TO.N,Net-(R2-Pad2)*%
X98750000Y-102650000D03*
%TO.P,U2,18*%
%TO.N,Net-(U2-Pad18)*%
X100750000Y-102650000D03*
%TO.P,U2,17*%
%TO.N,Net-(U2-Pad17)*%
X102750000Y-102650000D03*
%TO.P,U2,16*%
%TO.N,Net-(R3-Pad1)*%
X104750000Y-102650000D03*
%TO.P,U2,15*%
%TO.N,Net-(C1-Pad2)*%
X106750000Y-102650000D03*
D13*
%TO.P,U2,14*%
%TO.N,Net-(U2-Pad14)*%
X108250000Y-105250000D03*
%TO.P,U2,13*%
%TO.N,Net-(U2-Pad13)*%
X108250000Y-107250000D03*
%TO.P,U2,12*%
%TO.N,Net-(U2-Pad12)*%
X108250000Y-109250000D03*
%TO.P,U2,11*%
%TO.N,Net-(U2-Pad11)*%
X108250000Y-111250000D03*
%TO.P,U2,10*%
%TO.N,Net-(U2-Pad10)*%
X108250000Y-113250000D03*
%TO.P,U2,9*%
%TO.N,Net-(U2-Pad9)*%
X108250000Y-115250000D03*
D12*
%TO.P,U2,8*%
%TO.N,Net-(C1-Pad1)*%
X106750000Y-117850000D03*
%TO.P,U2,7*%
%TO.N,Net-(SW1-Pad1)*%
X104750000Y-117850000D03*
%TO.P,U2,6*%
%TO.N,Net-(U2-Pad6)*%
X102750000Y-117850000D03*
%TO.P,U2,5*%
%TO.N,Net-(R4-Pad1)*%
X100750000Y-117850000D03*
%TO.P,U2,4*%
%TO.N,Net-(U2-Pad1)*%
X98750000Y-117850000D03*
%TO.P,U2,3*%
%TO.N,Net-(C1-Pad1)*%
X96750000Y-117850000D03*
%TO.P,U2,2*%
%TO.N,Net-(U2-Pad2)*%
X94750000Y-117850000D03*
%TO.P,U2,1*%
%TO.N,Net-(U2-Pad1)*%
X92750000Y-117850000D03*
%TD*%
D14*
%TO.P,J2,1*%
%TO.N,Net-(J1-Pad1)*%
X131500000Y-106750000D03*
D15*
%TO.P,J2,2*%
%TO.N,Net-(J2-Pad2)*%
X128960000Y-108020000D03*
%TO.P,J2,3*%
%TO.N,Net-(C1-Pad2)*%
X131500000Y-109290000D03*
%TO.P,J2,4*%
%TO.N,Net-(J2-Pad4)*%
X128960000Y-110560000D03*
%TO.P,J2,5*%
%TO.N,Net-(J2-Pad5)*%
X131500000Y-111830000D03*
%TO.P,J2,6*%
%TO.N,Net-(C1-Pad2)*%
X128960000Y-113100000D03*
%TD*%
%TO.P,P3,1*%
%TO.N,Net-(Q1-Pad3)*%
%TA.AperFunction,SMDPad,CuDef*%
G36*
G01*
X161025000Y-107100000D02*
X161025000Y-106900000D01*
G75*
G02*
X161125000Y-106800000I100000J0D01*
G01*
X161560000Y-106800000D01*
G75*
G02*
X161660000Y-106900000I0J-100000D01*
G01*
X161660000Y-107100000D01*
G75*
G02*
X161560000Y-107200000I-100000J0D01*
G01*
X161125000Y-107200000D01*
G75*
G02*
X161025000Y-107100000I0J100000D01*
G01*
G37*
%TD.AperFunction*%
%TO.P,P3,2*%
%TO.N,Net-(R1-Pad2)*%
%TA.AperFunction,SMDPad,CuDef*%
G36*
G01*
X161840000Y-107100000D02*
X161840000Y-106900000D01*
G75*
G02*
X161940000Y-106800000I100000J0D01*
G01*
X162375000Y-106800000D01*
G75*
G02*
X162475000Y-106900000I0J-100000D01*
G01*
X162475000Y-107100000D01*
G75*
G02*
X162375000Y-107200000I-100000J0D01*
G01*
X161940000Y-107200000D01*
G75*
G02*
X161840000Y-107100000I0J100000D01*
G01*
G37*
%TD.AperFunction*%
%TD*%
%TO.P,P4,1*%
%TO.N,Net-(Q1-Pad3)*%
%TA.AperFunction,SMDPad,CuDef*%
G36*
G01*
X111025000Y-112850000D02*
X111025000Y-112650000D01*
G75*
G02*
X111125000Y-112550000I100000J0D01*
G01*
X111560000Y-112550000D01*
G75*
G02*
X111660000Y-112650000I0J-100000D01*
G01*
X111660000Y-112850000D01*
G75*
G02*
X111560000Y-112950000I-100000J0D01*
G01*
X111125000Y-112950000D01*
G75*
G02*
X111025000Y-112850000I0J100000D01*
G01*
G37*
%TD.AperFunction*%
%TO.P,P4,2*%
%TO.N,Net-(R2-Pad2)*%
%TA.AperFunction,SMDPad,CuDef*%
G36*
G01*
X111840000Y-112850000D02*
X111840000Y-112650000D01*
G75*
G02*
X111940000Y-112550000I100000J0D01*
G01*
X112375000Y-112550000D01*
G75*
G02*
X112475000Y-112650000I0J-100000D01*
G01*
X112475000Y-112850000D01*
G75*
G02*
X112375000Y-112950000I-100000J0D01*
G01*
X111940000Y-112950000D01*
G75*
G02*
X111840000Y-112850000I0J100000D01*
G01*
G37*
%TD.AperFunction*%
%TD*%
D16*
%TO.P,J1,*%
%TO.N,*%
X168450000Y-106425000D03*
X168450000Y-113575000D03*
D17*
%TO.P,J1,5*%
%TO.N,Net-(C1-Pad2)*%
X162100000Y-108700000D03*
%TO.P,J1,1*%
%TO.N,Net-(J1-Pad1)*%
X162100000Y-111300000D03*
%TD*%
D10*
%TO.P,Q1,3*%
%TO.N,Net-(Q1-Pad3)*%
X113000000Y-103250000D03*
%TO.P,Q1,2*%
%TO.N,Net-(C1-Pad2)*%
X115000000Y-102300000D03*
%TO.P,Q1,1*%
%TO.N,Net-(J2-Pad5)*%
X115000000Y-104200000D03*
%TD*%
D17*
%TO.P,J1,1*%
%TO.N,Net-(J1-Pad1)*%
X112100000Y-111300000D03*
%TO.P,J1,5*%
%TO.N,Net-(C1-Pad2)*%
X112100000Y-108700000D03*
D16*
%TO.P,J1,*%
%TO.N,*%
X118450000Y-113575000D03*
X118450000Y-106425000D03*
%TD*%
D15*
%TO.P,J2,6*%
%TO.N,Net-(C1-Pad2)*%
X78960000Y-113100000D03*
%TO.P,J2,5*%
%TO.N,Net-(J2-Pad5)*%
X81500000Y-111830000D03*
%TO.P,J2,4*%
%TO.N,Net-(J2-Pad4)*%
X78960000Y-110560000D03*
%TO.P,J2,3*%
%TO.N,Net-(C1-Pad2)*%
X81500000Y-109290000D03*
%TO.P,J2,2*%
%TO.N,Net-(J2-Pad2)*%
X78960000Y-108020000D03*
D14*
%TO.P,J2,1*%
%TO.N,Net-(J1-Pad1)*%
X81500000Y-106750000D03*
%TD*%
D11*
%TO.P,SW1,1*%
%TO.N,Net-(SW1-Pad1)*%
X110350000Y-116750000D03*
%TO.P,SW1,2*%
%TO.N,Net-(C1-Pad2)*%
X118150000Y-116750000D03*
%TD*%
%TO.P,R4,2*%
%TO.N,Net-(Q1-Pad3)*%
%TA.AperFunction,SMDPad,CuDef*%
G36*
G01*
X111200001Y-102850000D02*
X110299999Y-102850000D01*
G75*
G02*
X110050000Y-102600001I0J249999D01*
G01*
X110050000Y-101899999D01*
G75*
G02*
X110299999Y-101650000I249999J0D01*
G01*
X111200001Y-101650000D01*
G75*
G02*
X111450000Y-101899999I0J-249999D01*
G01*
X111450000Y-102600001D01*
G75*
G02*
X111200001Y-102850000I-249999J0D01*
G01*
G37*
%TD.AperFunction*%
%TO.P,R4,1*%
%TO.N,Net-(R4-Pad1)*%
%TA.AperFunction,SMDPad,CuDef*%
G36*
G01*
X111200001Y-104850000D02*
X110299999Y-104850000D01*
G75*
G02*
X110050000Y-104600001I0J249999D01*
G01*
X110050000Y-103899999D01*
G75*
G02*
X110299999Y-103650000I249999J0D01*
G01*
X111200001Y-103650000D01*
G75*
G02*
X111450000Y-103899999I0J-249999D01*
G01*
X111450000Y-104600001D01*
G75*
G02*
X111200001Y-104850000I-249999J0D01*
G01*
G37*
%TD.AperFunction*%
%TD*%
D12*
%TO.P,U2,1*%
%TO.N,Net-(U2-Pad1)*%
X142750000Y-117850000D03*
%TO.P,U2,2*%
%TO.N,Net-(U2-Pad2)*%
X144750000Y-117850000D03*
%TO.P,U2,3*%
%TO.N,Net-(C1-Pad1)*%
X146750000Y-117850000D03*
%TO.P,U2,4*%
%TO.N,Net-(U2-Pad1)*%
X148750000Y-117850000D03*
%TO.P,U2,5*%
%TO.N,Net-(R4-Pad1)*%
X150750000Y-117850000D03*
%TO.P,U2,6*%
%TO.N,Net-(U2-Pad6)*%
X152750000Y-117850000D03*
%TO.P,U2,7*%
%TO.N,Net-(SW1-Pad1)*%
X154750000Y-117850000D03*
%TO.P,U2,8*%
%TO.N,Net-(C1-Pad1)*%
X156750000Y-117850000D03*
D13*
%TO.P,U2,9*%
%TO.N,Net-(U2-Pad9)*%
X158250000Y-115250000D03*
%TO.P,U2,10*%
%TO.N,Net-(U2-Pad10)*%
X158250000Y-113250000D03*
%TO.P,U2,11*%
%TO.N,Net-(U2-Pad11)*%
X158250000Y-111250000D03*
%TO.P,U2,12*%
%TO.N,Net-(U2-Pad12)*%
X158250000Y-109250000D03*
%TO.P,U2,13*%
%TO.N,Net-(U2-Pad13)*%
X158250000Y-107250000D03*
%TO.P,U2,14*%
%TO.N,Net-(U2-Pad14)*%
X158250000Y-105250000D03*
D12*
%TO.P,U2,15*%
%TO.N,Net-(C1-Pad2)*%
X156750000Y-102650000D03*
%TO.P,U2,16*%
%TO.N,Net-(R3-Pad1)*%
X154750000Y-102650000D03*
%TO.P,U2,17*%
%TO.N,Net-(U2-Pad17)*%
X152750000Y-102650000D03*
%TO.P,U2,18*%
%TO.N,Net-(U2-Pad18)*%
X150750000Y-102650000D03*
%TO.P,U2,19*%
%TO.N,Net-(R2-Pad2)*%
X148750000Y-102650000D03*
%TO.P,U2,20*%
%TO.N,Net-(J2-Pad2)*%
X146750000Y-102650000D03*
%TO.P,U2,21*%
%TO.N,Net-(R1-Pad2)*%
X144750000Y-102650000D03*
%TO.P,U2,22*%
%TO.N,Net-(U2-Pad22)*%
X142750000Y-102650000D03*
%TD*%
%TO.P,P4,2*%
%TO.N,Net-(R2-Pad2)*%
%TA.AperFunction,SMDPad,CuDef*%
G36*
G01*
X161840000Y-112850000D02*
X161840000Y-112650000D01*
G75*
G02*
X161940000Y-112550000I100000J0D01*
G01*
X162375000Y-112550000D01*
G75*
G02*
X162475000Y-112650000I0J-100000D01*
G01*
X162475000Y-112850000D01*
G75*
G02*
X162375000Y-112950000I-100000J0D01*
G01*
X161940000Y-112950000D01*
G75*
G02*
X161840000Y-112850000I0J100000D01*
G01*
G37*
%TD.AperFunction*%
%TO.P,P4,1*%
%TO.N,Net-(Q1-Pad3)*%
%TA.AperFunction,SMDPad,CuDef*%
G36*
G01*
X161025000Y-112850000D02*
X161025000Y-112650000D01*
G75*
G02*
X161125000Y-112550000I100000J0D01*
G01*
X161560000Y-112550000D01*
G75*
G02*
X161660000Y-112650000I0J-100000D01*
G01*
X161660000Y-112850000D01*
G75*
G02*
X161560000Y-112950000I-100000J0D01*
G01*
X161125000Y-112950000D01*
G75*
G02*
X161025000Y-112850000I0J100000D01*
G01*
G37*
%TD.AperFunction*%
%TD*%
D11*
%TO.P,SW1,2*%
%TO.N,Net-(C1-Pad2)*%
X168150000Y-116750000D03*
%TO.P,SW1,1*%
%TO.N,Net-(SW1-Pad1)*%
X160350000Y-116750000D03*
%TD*%
D10*
%TO.P,Q1,1*%
%TO.N,Net-(J2-Pad5)*%
X165000000Y-104200000D03*
%TO.P,Q1,2*%
%TO.N,Net-(C1-Pad2)*%
X165000000Y-102300000D03*
%TO.P,Q1,3*%
%TO.N,Net-(Q1-Pad3)*%
X163000000Y-103250000D03*
%TD*%
%TO.P,R4,1*%
%TO.N,Net-(R4-Pad1)*%
%TA.AperFunction,SMDPad,CuDef*%
G36*
G01*
X161200001Y-104850000D02*
X160299999Y-104850000D01*
G75*
G02*
X160050000Y-104600001I0J249999D01*
G01*
X160050000Y-103899999D01*
G75*
G02*
X160299999Y-103650000I249999J0D01*
G01*
X161200001Y-103650000D01*
G75*
G02*
X161450000Y-103899999I0J-249999D01*
G01*
X161450000Y-104600001D01*
G75*
G02*
X161200001Y-104850000I-249999J0D01*
G01*
G37*
%TD.AperFunction*%
%TO.P,R4,2*%
%TO.N,Net-(Q1-Pad3)*%
%TA.AperFunction,SMDPad,CuDef*%
G36*
G01*
X161200001Y-102850000D02*
X160299999Y-102850000D01*
G75*
G02*
X160050000Y-102600001I0J249999D01*
G01*
X160050000Y-101899999D01*
G75*
G02*
X160299999Y-101650000I249999J0D01*
G01*
X161200001Y-101650000D01*
G75*
G02*
X161450000Y-101899999I0J-249999D01*
G01*
X161450000Y-102600001D01*
G75*
G02*
X161200001Y-102850000I-249999J0D01*
G01*
G37*
%TD.AperFunction*%
%TD*%
D12*
%TO.P,U2,1*%
%TO.N,Net-(U2-Pad1)*%
X92750000Y-97850000D03*
%TO.P,U2,2*%
%TO.N,Net-(U2-Pad2)*%
X94750000Y-97850000D03*
%TO.P,U2,3*%
%TO.N,Net-(C1-Pad1)*%
X96750000Y-97850000D03*
%TO.P,U2,4*%
%TO.N,Net-(U2-Pad1)*%
X98750000Y-97850000D03*
%TO.P,U2,5*%
%TO.N,Net-(R4-Pad1)*%
X100750000Y-97850000D03*
%TO.P,U2,6*%
%TO.N,Net-(U2-Pad6)*%
X102750000Y-97850000D03*
%TO.P,U2,7*%
%TO.N,Net-(SW1-Pad1)*%
X104750000Y-97850000D03*
%TO.P,U2,8*%
%TO.N,Net-(C1-Pad1)*%
X106750000Y-97850000D03*
D13*
%TO.P,U2,9*%
%TO.N,Net-(U2-Pad9)*%
X108250000Y-95250000D03*
%TO.P,U2,10*%
%TO.N,Net-(U2-Pad10)*%
X108250000Y-93250000D03*
%TO.P,U2,11*%
%TO.N,Net-(U2-Pad11)*%
X108250000Y-91250000D03*
%TO.P,U2,12*%
%TO.N,Net-(U2-Pad12)*%
X108250000Y-89250000D03*
%TO.P,U2,13*%
%TO.N,Net-(U2-Pad13)*%
X108250000Y-87250000D03*
%TO.P,U2,14*%
%TO.N,Net-(U2-Pad14)*%
X108250000Y-85250000D03*
D12*
%TO.P,U2,15*%
%TO.N,Net-(C1-Pad2)*%
X106750000Y-82650000D03*
%TO.P,U2,16*%
%TO.N,Net-(R3-Pad1)*%
X104750000Y-82650000D03*
%TO.P,U2,17*%
%TO.N,Net-(U2-Pad17)*%
X102750000Y-82650000D03*
%TO.P,U2,18*%
%TO.N,Net-(U2-Pad18)*%
X100750000Y-82650000D03*
%TO.P,U2,19*%
%TO.N,Net-(R2-Pad2)*%
X98750000Y-82650000D03*
%TO.P,U2,20*%
%TO.N,Net-(J2-Pad2)*%
X96750000Y-82650000D03*
%TO.P,U2,21*%
%TO.N,Net-(R1-Pad2)*%
X94750000Y-82650000D03*
%TO.P,U2,22*%
%TO.N,Net-(U2-Pad22)*%
X92750000Y-82650000D03*
%TD*%
%TO.P,P3,1*%
%TO.N,Net-(Q1-Pad3)*%
%TA.AperFunction,SMDPad,CuDef*%
G36*
G01*
X111025000Y-87100000D02*
X111025000Y-86900000D01*
G75*
G02*
X111125000Y-86800000I100000J0D01*
G01*
X111560000Y-86800000D01*
G75*
G02*
X111660000Y-86900000I0J-100000D01*
G01*
X111660000Y-87100000D01*
G75*
G02*
X111560000Y-87200000I-100000J0D01*
G01*
X111125000Y-87200000D01*
G75*
G02*
X111025000Y-87100000I0J100000D01*
G01*
G37*
%TD.AperFunction*%
%TO.P,P3,2*%
%TO.N,Net-(R1-Pad2)*%
%TA.AperFunction,SMDPad,CuDef*%
G36*
G01*
X111840000Y-87100000D02*
X111840000Y-86900000D01*
G75*
G02*
X111940000Y-86800000I100000J0D01*
G01*
X112375000Y-86800000D01*
G75*
G02*
X112475000Y-86900000I0J-100000D01*
G01*
X112475000Y-87100000D01*
G75*
G02*
X112375000Y-87200000I-100000J0D01*
G01*
X111940000Y-87200000D01*
G75*
G02*
X111840000Y-87100000I0J100000D01*
G01*
G37*
%TD.AperFunction*%
%TD*%
D10*
%TO.P,Q1,1*%
%TO.N,Net-(J2-Pad5)*%
X115000000Y-84200000D03*
%TO.P,Q1,2*%
%TO.N,Net-(C1-Pad2)*%
X115000000Y-82300000D03*
%TO.P,Q1,3*%
%TO.N,Net-(Q1-Pad3)*%
X113000000Y-83250000D03*
%TD*%
%TO.P,R4,1*%
%TO.N,Net-(R4-Pad1)*%
%TA.AperFunction,SMDPad,CuDef*%
G36*
G01*
X111200001Y-84850000D02*
X110299999Y-84850000D01*
G75*
G02*
X110050000Y-84600001I0J249999D01*
G01*
X110050000Y-83899999D01*
G75*
G02*
X110299999Y-83650000I249999J0D01*
G01*
X111200001Y-83650000D01*
G75*
G02*
X111450000Y-83899999I0J-249999D01*
G01*
X111450000Y-84600001D01*
G75*
G02*
X111200001Y-84850000I-249999J0D01*
G01*
G37*
%TD.AperFunction*%
%TO.P,R4,2*%
%TO.N,Net-(Q1-Pad3)*%
%TA.AperFunction,SMDPad,CuDef*%
G36*
G01*
X111200001Y-82850000D02*
X110299999Y-82850000D01*
G75*
G02*
X110050000Y-82600001I0J249999D01*
G01*
X110050000Y-81899999D01*
G75*
G02*
X110299999Y-81650000I249999J0D01*
G01*
X111200001Y-81650000D01*
G75*
G02*
X111450000Y-81899999I0J-249999D01*
G01*
X111450000Y-82600001D01*
G75*
G02*
X111200001Y-82850000I-249999J0D01*
G01*
G37*
%TD.AperFunction*%
%TD*%
D15*
%TO.P,J2,6*%
%TO.N,Net-(C1-Pad2)*%
X128960000Y-93100000D03*
%TO.P,J2,5*%
%TO.N,Net-(J2-Pad5)*%
X131500000Y-91830000D03*
%TO.P,J2,4*%
%TO.N,Net-(J2-Pad4)*%
X128960000Y-90560000D03*
%TO.P,J2,3*%
%TO.N,Net-(C1-Pad2)*%
X131500000Y-89290000D03*
%TO.P,J2,2*%
%TO.N,Net-(J2-Pad2)*%
X128960000Y-88020000D03*
D14*
%TO.P,J2,1*%
%TO.N,Net-(J1-Pad1)*%
X131500000Y-86750000D03*
%TD*%
%TO.P,P4,2*%
%TO.N,Net-(R2-Pad2)*%
%TA.AperFunction,SMDPad,CuDef*%
G36*
G01*
X111840000Y-92850000D02*
X111840000Y-92650000D01*
G75*
G02*
X111940000Y-92550000I100000J0D01*
G01*
X112375000Y-92550000D01*
G75*
G02*
X112475000Y-92650000I0J-100000D01*
G01*
X112475000Y-92850000D01*
G75*
G02*
X112375000Y-92950000I-100000J0D01*
G01*
X111940000Y-92950000D01*
G75*
G02*
X111840000Y-92850000I0J100000D01*
G01*
G37*
%TD.AperFunction*%
%TO.P,P4,1*%
%TO.N,Net-(Q1-Pad3)*%
%TA.AperFunction,SMDPad,CuDef*%
G36*
G01*
X111025000Y-92850000D02*
X111025000Y-92650000D01*
G75*
G02*
X111125000Y-92550000I100000J0D01*
G01*
X111560000Y-92550000D01*
G75*
G02*
X111660000Y-92650000I0J-100000D01*
G01*
X111660000Y-92850000D01*
G75*
G02*
X111560000Y-92950000I-100000J0D01*
G01*
X111125000Y-92950000D01*
G75*
G02*
X111025000Y-92850000I0J100000D01*
G01*
G37*
%TD.AperFunction*%
%TD*%
D17*
%TO.P,J1,1*%
%TO.N,Net-(J1-Pad1)*%
X162100000Y-91300000D03*
%TO.P,J1,5*%
%TO.N,Net-(C1-Pad2)*%
X162100000Y-88700000D03*
D16*
%TO.P,J1,*%
%TO.N,*%
X168450000Y-93575000D03*
X168450000Y-86425000D03*
%TD*%
%TO.P,J1,*%
%TO.N,*%
X118450000Y-86425000D03*
X118450000Y-93575000D03*
D17*
%TO.P,J1,5*%
%TO.N,Net-(C1-Pad2)*%
X112100000Y-88700000D03*
%TO.P,J1,1*%
%TO.N,Net-(J1-Pad1)*%
X112100000Y-91300000D03*
%TD*%
%TO.P,P3,2*%
%TO.N,Net-(R1-Pad2)*%
%TA.AperFunction,SMDPad,CuDef*%
G36*
G01*
X161840000Y-87100000D02*
X161840000Y-86900000D01*
G75*
G02*
X161940000Y-86800000I100000J0D01*
G01*
X162375000Y-86800000D01*
G75*
G02*
X162475000Y-86900000I0J-100000D01*
G01*
X162475000Y-87100000D01*
G75*
G02*
X162375000Y-87200000I-100000J0D01*
G01*
X161940000Y-87200000D01*
G75*
G02*
X161840000Y-87100000I0J100000D01*
G01*
G37*
%TD.AperFunction*%
%TO.P,P3,1*%
%TO.N,Net-(Q1-Pad3)*%
%TA.AperFunction,SMDPad,CuDef*%
G36*
G01*
X161025000Y-87100000D02*
X161025000Y-86900000D01*
G75*
G02*
X161125000Y-86800000I100000J0D01*
G01*
X161560000Y-86800000D01*
G75*
G02*
X161660000Y-86900000I0J-100000D01*
G01*
X161660000Y-87100000D01*
G75*
G02*
X161560000Y-87200000I-100000J0D01*
G01*
X161125000Y-87200000D01*
G75*
G02*
X161025000Y-87100000I0J100000D01*
G01*
G37*
%TD.AperFunction*%
%TD*%
D14*
%TO.P,J2,1*%
%TO.N,Net-(J1-Pad1)*%
X81500000Y-86750000D03*
D15*
%TO.P,J2,2*%
%TO.N,Net-(J2-Pad2)*%
X78960000Y-88020000D03*
%TO.P,J2,3*%
%TO.N,Net-(C1-Pad2)*%
X81500000Y-89290000D03*
%TO.P,J2,4*%
%TO.N,Net-(J2-Pad4)*%
X78960000Y-90560000D03*
%TO.P,J2,5*%
%TO.N,Net-(J2-Pad5)*%
X81500000Y-91830000D03*
%TO.P,J2,6*%
%TO.N,Net-(C1-Pad2)*%
X78960000Y-93100000D03*
%TD*%
D11*
%TO.P,SW1,2*%
%TO.N,Net-(C1-Pad2)*%
X118150000Y-96750000D03*
%TO.P,SW1,1*%
%TO.N,Net-(SW1-Pad1)*%
X110350000Y-96750000D03*
%TD*%
D12*
%TO.P,U2,22*%
%TO.N,Net-(U2-Pad22)*%
X142750000Y-82650000D03*
%TO.P,U2,21*%
%TO.N,Net-(R1-Pad2)*%
X144750000Y-82650000D03*
%TO.P,U2,20*%
%TO.N,Net-(J2-Pad2)*%
X146750000Y-82650000D03*
%TO.P,U2,19*%
%TO.N,Net-(R2-Pad2)*%
X148750000Y-82650000D03*
%TO.P,U2,18*%
%TO.N,Net-(U2-Pad18)*%
X150750000Y-82650000D03*
%TO.P,U2,17*%
%TO.N,Net-(U2-Pad17)*%
X152750000Y-82650000D03*
%TO.P,U2,16*%
%TO.N,Net-(R3-Pad1)*%
X154750000Y-82650000D03*
%TO.P,U2,15*%
%TO.N,Net-(C1-Pad2)*%
X156750000Y-82650000D03*
D13*
%TO.P,U2,14*%
%TO.N,Net-(U2-Pad14)*%
X158250000Y-85250000D03*
%TO.P,U2,13*%
%TO.N,Net-(U2-Pad13)*%
X158250000Y-87250000D03*
%TO.P,U2,12*%
%TO.N,Net-(U2-Pad12)*%
X158250000Y-89250000D03*
%TO.P,U2,11*%
%TO.N,Net-(U2-Pad11)*%
X158250000Y-91250000D03*
%TO.P,U2,10*%
%TO.N,Net-(U2-Pad10)*%
X158250000Y-93250000D03*
%TO.P,U2,9*%
%TO.N,Net-(U2-Pad9)*%
X158250000Y-95250000D03*
D12*
%TO.P,U2,8*%
%TO.N,Net-(C1-Pad1)*%
X156750000Y-97850000D03*
%TO.P,U2,7*%
%TO.N,Net-(SW1-Pad1)*%
X154750000Y-97850000D03*
%TO.P,U2,6*%
%TO.N,Net-(U2-Pad6)*%
X152750000Y-97850000D03*
%TO.P,U2,5*%
%TO.N,Net-(R4-Pad1)*%
X150750000Y-97850000D03*
%TO.P,U2,4*%
%TO.N,Net-(U2-Pad1)*%
X148750000Y-97850000D03*
%TO.P,U2,3*%
%TO.N,Net-(C1-Pad1)*%
X146750000Y-97850000D03*
%TO.P,U2,2*%
%TO.N,Net-(U2-Pad2)*%
X144750000Y-97850000D03*
%TO.P,U2,1*%
%TO.N,Net-(U2-Pad1)*%
X142750000Y-97850000D03*
%TD*%
%TO.P,P4,1*%
%TO.N,Net-(Q1-Pad3)*%
%TA.AperFunction,SMDPad,CuDef*%
G36*
G01*
X161025000Y-92850000D02*
X161025000Y-92650000D01*
G75*
G02*
X161125000Y-92550000I100000J0D01*
G01*
X161560000Y-92550000D01*
G75*
G02*
X161660000Y-92650000I0J-100000D01*
G01*
X161660000Y-92850000D01*
G75*
G02*
X161560000Y-92950000I-100000J0D01*
G01*
X161125000Y-92950000D01*
G75*
G02*
X161025000Y-92850000I0J100000D01*
G01*
G37*
%TD.AperFunction*%
%TO.P,P4,2*%
%TO.N,Net-(R2-Pad2)*%
%TA.AperFunction,SMDPad,CuDef*%
G36*
G01*
X161840000Y-92850000D02*
X161840000Y-92650000D01*
G75*
G02*
X161940000Y-92550000I100000J0D01*
G01*
X162375000Y-92550000D01*
G75*
G02*
X162475000Y-92650000I0J-100000D01*
G01*
X162475000Y-92850000D01*
G75*
G02*
X162375000Y-92950000I-100000J0D01*
G01*
X161940000Y-92950000D01*
G75*
G02*
X161840000Y-92850000I0J100000D01*
G01*
G37*
%TD.AperFunction*%
%TD*%
D11*
%TO.P,SW1,1*%
%TO.N,Net-(SW1-Pad1)*%
X160350000Y-96750000D03*
%TO.P,SW1,2*%
%TO.N,Net-(C1-Pad2)*%
X168150000Y-96750000D03*
%TD*%
D10*
%TO.P,Q1,3*%
%TO.N,Net-(Q1-Pad3)*%
X163000000Y-83250000D03*
%TO.P,Q1,2*%
%TO.N,Net-(C1-Pad2)*%
X165000000Y-82300000D03*
%TO.P,Q1,1*%
%TO.N,Net-(J2-Pad5)*%
X165000000Y-84200000D03*
%TD*%
%TO.P,R4,2*%
%TO.N,Net-(Q1-Pad3)*%
%TA.AperFunction,SMDPad,CuDef*%
G36*
G01*
X161200001Y-82850000D02*
X160299999Y-82850000D01*
G75*
G02*
X160050000Y-82600001I0J249999D01*
G01*
X160050000Y-81899999D01*
G75*
G02*
X160299999Y-81650000I249999J0D01*
G01*
X161200001Y-81650000D01*
G75*
G02*
X161450000Y-81899999I0J-249999D01*
G01*
X161450000Y-82600001D01*
G75*
G02*
X161200001Y-82850000I-249999J0D01*
G01*
G37*
%TD.AperFunction*%
%TO.P,R4,1*%
%TO.N,Net-(R4-Pad1)*%
%TA.AperFunction,SMDPad,CuDef*%
G36*
G01*
X161200001Y-84850000D02*
X160299999Y-84850000D01*
G75*
G02*
X160050000Y-84600001I0J249999D01*
G01*
X160050000Y-83899999D01*
G75*
G02*
X160299999Y-83650000I249999J0D01*
G01*
X161200001Y-83650000D01*
G75*
G02*
X161450000Y-83899999I0J-249999D01*
G01*
X161450000Y-84600001D01*
G75*
G02*
X161200001Y-84850000I-249999J0D01*
G01*
G37*
%TD.AperFunction*%
%TD*%
%TO.P,P3,2*%
%TO.N,Net-(R1-Pad2)*%
%TA.AperFunction,SMDPad,CuDef*%
G36*
G01*
X111840000Y-67100000D02*
X111840000Y-66900000D01*
G75*
G02*
X111940000Y-66800000I100000J0D01*
G01*
X112375000Y-66800000D01*
G75*
G02*
X112475000Y-66900000I0J-100000D01*
G01*
X112475000Y-67100000D01*
G75*
G02*
X112375000Y-67200000I-100000J0D01*
G01*
X111940000Y-67200000D01*
G75*
G02*
X111840000Y-67100000I0J100000D01*
G01*
G37*
%TD.AperFunction*%
%TO.P,P3,1*%
%TO.N,Net-(Q1-Pad3)*%
%TA.AperFunction,SMDPad,CuDef*%
G36*
G01*
X111025000Y-67100000D02*
X111025000Y-66900000D01*
G75*
G02*
X111125000Y-66800000I100000J0D01*
G01*
X111560000Y-66800000D01*
G75*
G02*
X111660000Y-66900000I0J-100000D01*
G01*
X111660000Y-67100000D01*
G75*
G02*
X111560000Y-67200000I-100000J0D01*
G01*
X111125000Y-67200000D01*
G75*
G02*
X111025000Y-67100000I0J100000D01*
G01*
G37*
%TD.AperFunction*%
%TD*%
D17*
%TO.P,J1,1*%
%TO.N,Net-(J1-Pad1)*%
X112100000Y-71300000D03*
%TO.P,J1,5*%
%TO.N,Net-(C1-Pad2)*%
X112100000Y-68700000D03*
D16*
%TO.P,J1,*%
%TO.N,*%
X118450000Y-73575000D03*
X118450000Y-66425000D03*
%TD*%
%TO.P,R4,2*%
%TO.N,Net-(Q1-Pad3)*%
%TA.AperFunction,SMDPad,CuDef*%
G36*
G01*
X111200001Y-62850000D02*
X110299999Y-62850000D01*
G75*
G02*
X110050000Y-62600001I0J249999D01*
G01*
X110050000Y-61899999D01*
G75*
G02*
X110299999Y-61650000I249999J0D01*
G01*
X111200001Y-61650000D01*
G75*
G02*
X111450000Y-61899999I0J-249999D01*
G01*
X111450000Y-62600001D01*
G75*
G02*
X111200001Y-62850000I-249999J0D01*
G01*
G37*
%TD.AperFunction*%
%TO.P,R4,1*%
%TO.N,Net-(R4-Pad1)*%
%TA.AperFunction,SMDPad,CuDef*%
G36*
G01*
X111200001Y-64850000D02*
X110299999Y-64850000D01*
G75*
G02*
X110050000Y-64600001I0J249999D01*
G01*
X110050000Y-63899999D01*
G75*
G02*
X110299999Y-63650000I249999J0D01*
G01*
X111200001Y-63650000D01*
G75*
G02*
X111450000Y-63899999I0J-249999D01*
G01*
X111450000Y-64600001D01*
G75*
G02*
X111200001Y-64850000I-249999J0D01*
G01*
G37*
%TD.AperFunction*%
%TD*%
D11*
%TO.P,SW1,1*%
%TO.N,Net-(SW1-Pad1)*%
X110350000Y-76750000D03*
%TO.P,SW1,2*%
%TO.N,Net-(C1-Pad2)*%
X118150000Y-76750000D03*
%TD*%
D15*
%TO.P,J2,6*%
%TO.N,Net-(C1-Pad2)*%
X78960000Y-73100000D03*
%TO.P,J2,5*%
%TO.N,Net-(J2-Pad5)*%
X81500000Y-71830000D03*
%TO.P,J2,4*%
%TO.N,Net-(J2-Pad4)*%
X78960000Y-70560000D03*
%TO.P,J2,3*%
%TO.N,Net-(C1-Pad2)*%
X81500000Y-69290000D03*
%TO.P,J2,2*%
%TO.N,Net-(J2-Pad2)*%
X78960000Y-68020000D03*
D14*
%TO.P,J2,1*%
%TO.N,Net-(J1-Pad1)*%
X81500000Y-66750000D03*
%TD*%
D12*
%TO.P,U2,22*%
%TO.N,Net-(U2-Pad22)*%
X92750000Y-62650000D03*
%TO.P,U2,21*%
%TO.N,Net-(R1-Pad2)*%
X94750000Y-62650000D03*
%TO.P,U2,20*%
%TO.N,Net-(J2-Pad2)*%
X96750000Y-62650000D03*
%TO.P,U2,19*%
%TO.N,Net-(R2-Pad2)*%
X98750000Y-62650000D03*
%TO.P,U2,18*%
%TO.N,Net-(U2-Pad18)*%
X100750000Y-62650000D03*
%TO.P,U2,17*%
%TO.N,Net-(U2-Pad17)*%
X102750000Y-62650000D03*
%TO.P,U2,16*%
%TO.N,Net-(R3-Pad1)*%
X104750000Y-62650000D03*
%TO.P,U2,15*%
%TO.N,Net-(C1-Pad2)*%
X106750000Y-62650000D03*
D13*
%TO.P,U2,14*%
%TO.N,Net-(U2-Pad14)*%
X108250000Y-65250000D03*
%TO.P,U2,13*%
%TO.N,Net-(U2-Pad13)*%
X108250000Y-67250000D03*
%TO.P,U2,12*%
%TO.N,Net-(U2-Pad12)*%
X108250000Y-69250000D03*
%TO.P,U2,11*%
%TO.N,Net-(U2-Pad11)*%
X108250000Y-71250000D03*
%TO.P,U2,10*%
%TO.N,Net-(U2-Pad10)*%
X108250000Y-73250000D03*
%TO.P,U2,9*%
%TO.N,Net-(U2-Pad9)*%
X108250000Y-75250000D03*
D12*
%TO.P,U2,8*%
%TO.N,Net-(C1-Pad1)*%
X106750000Y-77850000D03*
%TO.P,U2,7*%
%TO.N,Net-(SW1-Pad1)*%
X104750000Y-77850000D03*
%TO.P,U2,6*%
%TO.N,Net-(U2-Pad6)*%
X102750000Y-77850000D03*
%TO.P,U2,5*%
%TO.N,Net-(R4-Pad1)*%
X100750000Y-77850000D03*
%TO.P,U2,4*%
%TO.N,Net-(U2-Pad1)*%
X98750000Y-77850000D03*
%TO.P,U2,3*%
%TO.N,Net-(C1-Pad1)*%
X96750000Y-77850000D03*
%TO.P,U2,2*%
%TO.N,Net-(U2-Pad2)*%
X94750000Y-77850000D03*
%TO.P,U2,1*%
%TO.N,Net-(U2-Pad1)*%
X92750000Y-77850000D03*
%TD*%
%TO.P,P4,1*%
%TO.N,Net-(Q1-Pad3)*%
%TA.AperFunction,SMDPad,CuDef*%
G36*
G01*
X111025000Y-72850000D02*
X111025000Y-72650000D01*
G75*
G02*
X111125000Y-72550000I100000J0D01*
G01*
X111560000Y-72550000D01*
G75*
G02*
X111660000Y-72650000I0J-100000D01*
G01*
X111660000Y-72850000D01*
G75*
G02*
X111560000Y-72950000I-100000J0D01*
G01*
X111125000Y-72950000D01*
G75*
G02*
X111025000Y-72850000I0J100000D01*
G01*
G37*
%TD.AperFunction*%
%TO.P,P4,2*%
%TO.N,Net-(R2-Pad2)*%
%TA.AperFunction,SMDPad,CuDef*%
G36*
G01*
X111840000Y-72850000D02*
X111840000Y-72650000D01*
G75*
G02*
X111940000Y-72550000I100000J0D01*
G01*
X112375000Y-72550000D01*
G75*
G02*
X112475000Y-72650000I0J-100000D01*
G01*
X112475000Y-72850000D01*
G75*
G02*
X112375000Y-72950000I-100000J0D01*
G01*
X111940000Y-72950000D01*
G75*
G02*
X111840000Y-72850000I0J100000D01*
G01*
G37*
%TD.AperFunction*%
%TD*%
D10*
%TO.P,Q1,3*%
%TO.N,Net-(Q1-Pad3)*%
X113000000Y-63250000D03*
%TO.P,Q1,2*%
%TO.N,Net-(C1-Pad2)*%
X115000000Y-62300000D03*
%TO.P,Q1,1*%
%TO.N,Net-(J2-Pad5)*%
X115000000Y-64200000D03*
%TD*%
%TO.P,P3,1*%
%TO.N,Net-(Q1-Pad3)*%
%TA.AperFunction,SMDPad,CuDef*%
G36*
G01*
X161025000Y-67100000D02*
X161025000Y-66900000D01*
G75*
G02*
X161125000Y-66800000I100000J0D01*
G01*
X161560000Y-66800000D01*
G75*
G02*
X161660000Y-66900000I0J-100000D01*
G01*
X161660000Y-67100000D01*
G75*
G02*
X161560000Y-67200000I-100000J0D01*
G01*
X161125000Y-67200000D01*
G75*
G02*
X161025000Y-67100000I0J100000D01*
G01*
G37*
%TD.AperFunction*%
%TO.P,P3,2*%
%TO.N,Net-(R1-Pad2)*%
%TA.AperFunction,SMDPad,CuDef*%
G36*
G01*
X161840000Y-67100000D02*
X161840000Y-66900000D01*
G75*
G02*
X161940000Y-66800000I100000J0D01*
G01*
X162375000Y-66800000D01*
G75*
G02*
X162475000Y-66900000I0J-100000D01*
G01*
X162475000Y-67100000D01*
G75*
G02*
X162375000Y-67200000I-100000J0D01*
G01*
X161940000Y-67200000D01*
G75*
G02*
X161840000Y-67100000I0J100000D01*
G01*
G37*
%TD.AperFunction*%
%TD*%
D14*
%TO.P,J2,1*%
%TO.N,Net-(J1-Pad1)*%
X131500000Y-66750000D03*
D15*
%TO.P,J2,2*%
%TO.N,Net-(J2-Pad2)*%
X128960000Y-68020000D03*
%TO.P,J2,3*%
%TO.N,Net-(C1-Pad2)*%
X131500000Y-69290000D03*
%TO.P,J2,4*%
%TO.N,Net-(J2-Pad4)*%
X128960000Y-70560000D03*
%TO.P,J2,5*%
%TO.N,Net-(J2-Pad5)*%
X131500000Y-71830000D03*
%TO.P,J2,6*%
%TO.N,Net-(C1-Pad2)*%
X128960000Y-73100000D03*
%TD*%
D16*
%TO.P,J1,*%
%TO.N,*%
X168450000Y-66425000D03*
X168450000Y-73575000D03*
D17*
%TO.P,J1,5*%
%TO.N,Net-(C1-Pad2)*%
X162100000Y-68700000D03*
%TO.P,J1,1*%
%TO.N,Net-(J1-Pad1)*%
X162100000Y-71300000D03*
%TD*%
%TO.P,P4,2*%
%TO.N,Net-(R2-Pad2)*%
%TA.AperFunction,SMDPad,CuDef*%
G36*
G01*
X161840000Y-72850000D02*
X161840000Y-72650000D01*
G75*
G02*
X161940000Y-72550000I100000J0D01*
G01*
X162375000Y-72550000D01*
G75*
G02*
X162475000Y-72650000I0J-100000D01*
G01*
X162475000Y-72850000D01*
G75*
G02*
X162375000Y-72950000I-100000J0D01*
G01*
X161940000Y-72950000D01*
G75*
G02*
X161840000Y-72850000I0J100000D01*
G01*
G37*
%TD.AperFunction*%
%TO.P,P4,1*%
%TO.N,Net-(Q1-Pad3)*%
%TA.AperFunction,SMDPad,CuDef*%
G36*
G01*
X161025000Y-72850000D02*
X161025000Y-72650000D01*
G75*
G02*
X161125000Y-72550000I100000J0D01*
G01*
X161560000Y-72550000D01*
G75*
G02*
X161660000Y-72650000I0J-100000D01*
G01*
X161660000Y-72850000D01*
G75*
G02*
X161560000Y-72950000I-100000J0D01*
G01*
X161125000Y-72950000D01*
G75*
G02*
X161025000Y-72850000I0J100000D01*
G01*
G37*
%TD.AperFunction*%
%TD*%
%TO.P,R4,1*%
%TO.N,Net-(R4-Pad1)*%
%TA.AperFunction,SMDPad,CuDef*%
G36*
G01*
X161200001Y-64850000D02*
X160299999Y-64850000D01*
G75*
G02*
X160050000Y-64600001I0J249999D01*
G01*
X160050000Y-63899999D01*
G75*
G02*
X160299999Y-63650000I249999J0D01*
G01*
X161200001Y-63650000D01*
G75*
G02*
X161450000Y-63899999I0J-249999D01*
G01*
X161450000Y-64600001D01*
G75*
G02*
X161200001Y-64850000I-249999J0D01*
G01*
G37*
%TD.AperFunction*%
%TO.P,R4,2*%
%TO.N,Net-(Q1-Pad3)*%
%TA.AperFunction,SMDPad,CuDef*%
G36*
G01*
X161200001Y-62850000D02*
X160299999Y-62850000D01*
G75*
G02*
X160050000Y-62600001I0J249999D01*
G01*
X160050000Y-61899999D01*
G75*
G02*
X160299999Y-61650000I249999J0D01*
G01*
X161200001Y-61650000D01*
G75*
G02*
X161450000Y-61899999I0J-249999D01*
G01*
X161450000Y-62600001D01*
G75*
G02*
X161200001Y-62850000I-249999J0D01*
G01*
G37*
%TD.AperFunction*%
%TD*%
D11*
%TO.P,SW1,2*%
%TO.N,Net-(C1-Pad2)*%
X168150000Y-76750000D03*
%TO.P,SW1,1*%
%TO.N,Net-(SW1-Pad1)*%
X160350000Y-76750000D03*
%TD*%
D12*
%TO.P,U2,1*%
%TO.N,Net-(U2-Pad1)*%
X142750000Y-77850000D03*
%TO.P,U2,2*%
%TO.N,Net-(U2-Pad2)*%
X144750000Y-77850000D03*
%TO.P,U2,3*%
%TO.N,Net-(C1-Pad1)*%
X146750000Y-77850000D03*
%TO.P,U2,4*%
%TO.N,Net-(U2-Pad1)*%
X148750000Y-77850000D03*
%TO.P,U2,5*%
%TO.N,Net-(R4-Pad1)*%
X150750000Y-77850000D03*
%TO.P,U2,6*%
%TO.N,Net-(U2-Pad6)*%
X152750000Y-77850000D03*
%TO.P,U2,7*%
%TO.N,Net-(SW1-Pad1)*%
X154750000Y-77850000D03*
%TO.P,U2,8*%
%TO.N,Net-(C1-Pad1)*%
X156750000Y-77850000D03*
D13*
%TO.P,U2,9*%
%TO.N,Net-(U2-Pad9)*%
X158250000Y-75250000D03*
%TO.P,U2,10*%
%TO.N,Net-(U2-Pad10)*%
X158250000Y-73250000D03*
%TO.P,U2,11*%
%TO.N,Net-(U2-Pad11)*%
X158250000Y-71250000D03*
%TO.P,U2,12*%
%TO.N,Net-(U2-Pad12)*%
X158250000Y-69250000D03*
%TO.P,U2,13*%
%TO.N,Net-(U2-Pad13)*%
X158250000Y-67250000D03*
%TO.P,U2,14*%
%TO.N,Net-(U2-Pad14)*%
X158250000Y-65250000D03*
D12*
%TO.P,U2,15*%
%TO.N,Net-(C1-Pad2)*%
X156750000Y-62650000D03*
%TO.P,U2,16*%
%TO.N,Net-(R3-Pad1)*%
X154750000Y-62650000D03*
%TO.P,U2,17*%
%TO.N,Net-(U2-Pad17)*%
X152750000Y-62650000D03*
%TO.P,U2,18*%
%TO.N,Net-(U2-Pad18)*%
X150750000Y-62650000D03*
%TO.P,U2,19*%
%TO.N,Net-(R2-Pad2)*%
X148750000Y-62650000D03*
%TO.P,U2,20*%
%TO.N,Net-(J2-Pad2)*%
X146750000Y-62650000D03*
%TO.P,U2,21*%
%TO.N,Net-(R1-Pad2)*%
X144750000Y-62650000D03*
%TO.P,U2,22*%
%TO.N,Net-(U2-Pad22)*%
X142750000Y-62650000D03*
%TD*%
D10*
%TO.P,Q1,1*%
%TO.N,Net-(J2-Pad5)*%
X165000000Y-64200000D03*
%TO.P,Q1,2*%
%TO.N,Net-(C1-Pad2)*%
X165000000Y-62300000D03*
%TO.P,Q1,3*%
%TO.N,Net-(Q1-Pad3)*%
X163000000Y-63250000D03*
%TD*%
%TO.P,P3,2*%
%TO.N,Net-(R1-Pad2)*%
%TA.AperFunction,SMDPad,CuDef*%
G36*
G01*
X161840000Y-47100000D02*
X161840000Y-46900000D01*
G75*
G02*
X161940000Y-46800000I100000J0D01*
G01*
X162375000Y-46800000D01*
G75*
G02*
X162475000Y-46900000I0J-100000D01*
G01*
X162475000Y-47100000D01*
G75*
G02*
X162375000Y-47200000I-100000J0D01*
G01*
X161940000Y-47200000D01*
G75*
G02*
X161840000Y-47100000I0J100000D01*
G01*
G37*
%TD.AperFunction*%
%TO.P,P3,1*%
%TO.N,Net-(Q1-Pad3)*%
%TA.AperFunction,SMDPad,CuDef*%
G36*
G01*
X161025000Y-47100000D02*
X161025000Y-46900000D01*
G75*
G02*
X161125000Y-46800000I100000J0D01*
G01*
X161560000Y-46800000D01*
G75*
G02*
X161660000Y-46900000I0J-100000D01*
G01*
X161660000Y-47100000D01*
G75*
G02*
X161560000Y-47200000I-100000J0D01*
G01*
X161125000Y-47200000D01*
G75*
G02*
X161025000Y-47100000I0J100000D01*
G01*
G37*
%TD.AperFunction*%
%TD*%
D17*
%TO.P,J1,1*%
%TO.N,Net-(J1-Pad1)*%
X162100000Y-51300000D03*
%TO.P,J1,5*%
%TO.N,Net-(C1-Pad2)*%
X162100000Y-48700000D03*
D16*
%TO.P,J1,*%
%TO.N,*%
X168450000Y-53575000D03*
X168450000Y-46425000D03*
%TD*%
%TO.P,R4,2*%
%TO.N,Net-(Q1-Pad3)*%
%TA.AperFunction,SMDPad,CuDef*%
G36*
G01*
X161200001Y-42850000D02*
X160299999Y-42850000D01*
G75*
G02*
X160050000Y-42600001I0J249999D01*
G01*
X160050000Y-41899999D01*
G75*
G02*
X160299999Y-41650000I249999J0D01*
G01*
X161200001Y-41650000D01*
G75*
G02*
X161450000Y-41899999I0J-249999D01*
G01*
X161450000Y-42600001D01*
G75*
G02*
X161200001Y-42850000I-249999J0D01*
G01*
G37*
%TD.AperFunction*%
%TO.P,R4,1*%
%TO.N,Net-(R4-Pad1)*%
%TA.AperFunction,SMDPad,CuDef*%
G36*
G01*
X161200001Y-44850000D02*
X160299999Y-44850000D01*
G75*
G02*
X160050000Y-44600001I0J249999D01*
G01*
X160050000Y-43899999D01*
G75*
G02*
X160299999Y-43650000I249999J0D01*
G01*
X161200001Y-43650000D01*
G75*
G02*
X161450000Y-43899999I0J-249999D01*
G01*
X161450000Y-44600001D01*
G75*
G02*
X161200001Y-44850000I-249999J0D01*
G01*
G37*
%TD.AperFunction*%
%TD*%
D11*
%TO.P,SW1,1*%
%TO.N,Net-(SW1-Pad1)*%
X160350000Y-56750000D03*
%TO.P,SW1,2*%
%TO.N,Net-(C1-Pad2)*%
X168150000Y-56750000D03*
%TD*%
D15*
%TO.P,J2,6*%
%TO.N,Net-(C1-Pad2)*%
X128960000Y-53100000D03*
%TO.P,J2,5*%
%TO.N,Net-(J2-Pad5)*%
X131500000Y-51830000D03*
%TO.P,J2,4*%
%TO.N,Net-(J2-Pad4)*%
X128960000Y-50560000D03*
%TO.P,J2,3*%
%TO.N,Net-(C1-Pad2)*%
X131500000Y-49290000D03*
%TO.P,J2,2*%
%TO.N,Net-(J2-Pad2)*%
X128960000Y-48020000D03*
D14*
%TO.P,J2,1*%
%TO.N,Net-(J1-Pad1)*%
X131500000Y-46750000D03*
%TD*%
D12*
%TO.P,U2,22*%
%TO.N,Net-(U2-Pad22)*%
X142750000Y-42650000D03*
%TO.P,U2,21*%
%TO.N,Net-(R1-Pad2)*%
X144750000Y-42650000D03*
%TO.P,U2,20*%
%TO.N,Net-(J2-Pad2)*%
X146750000Y-42650000D03*
%TO.P,U2,19*%
%TO.N,Net-(R2-Pad2)*%
X148750000Y-42650000D03*
%TO.P,U2,18*%
%TO.N,Net-(U2-Pad18)*%
X150750000Y-42650000D03*
%TO.P,U2,17*%
%TO.N,Net-(U2-Pad17)*%
X152750000Y-42650000D03*
%TO.P,U2,16*%
%TO.N,Net-(R3-Pad1)*%
X154750000Y-42650000D03*
%TO.P,U2,15*%
%TO.N,Net-(C1-Pad2)*%
X156750000Y-42650000D03*
D13*
%TO.P,U2,14*%
%TO.N,Net-(U2-Pad14)*%
X158250000Y-45250000D03*
%TO.P,U2,13*%
%TO.N,Net-(U2-Pad13)*%
X158250000Y-47250000D03*
%TO.P,U2,12*%
%TO.N,Net-(U2-Pad12)*%
X158250000Y-49250000D03*
%TO.P,U2,11*%
%TO.N,Net-(U2-Pad11)*%
X158250000Y-51250000D03*
%TO.P,U2,10*%
%TO.N,Net-(U2-Pad10)*%
X158250000Y-53250000D03*
%TO.P,U2,9*%
%TO.N,Net-(U2-Pad9)*%
X158250000Y-55250000D03*
D12*
%TO.P,U2,8*%
%TO.N,Net-(C1-Pad1)*%
X156750000Y-57850000D03*
%TO.P,U2,7*%
%TO.N,Net-(SW1-Pad1)*%
X154750000Y-57850000D03*
%TO.P,U2,6*%
%TO.N,Net-(U2-Pad6)*%
X152750000Y-57850000D03*
%TO.P,U2,5*%
%TO.N,Net-(R4-Pad1)*%
X150750000Y-57850000D03*
%TO.P,U2,4*%
%TO.N,Net-(U2-Pad1)*%
X148750000Y-57850000D03*
%TO.P,U2,3*%
%TO.N,Net-(C1-Pad1)*%
X146750000Y-57850000D03*
%TO.P,U2,2*%
%TO.N,Net-(U2-Pad2)*%
X144750000Y-57850000D03*
%TO.P,U2,1*%
%TO.N,Net-(U2-Pad1)*%
X142750000Y-57850000D03*
%TD*%
%TO.P,P4,1*%
%TO.N,Net-(Q1-Pad3)*%
%TA.AperFunction,SMDPad,CuDef*%
G36*
G01*
X161025000Y-52850000D02*
X161025000Y-52650000D01*
G75*
G02*
X161125000Y-52550000I100000J0D01*
G01*
X161560000Y-52550000D01*
G75*
G02*
X161660000Y-52650000I0J-100000D01*
G01*
X161660000Y-52850000D01*
G75*
G02*
X161560000Y-52950000I-100000J0D01*
G01*
X161125000Y-52950000D01*
G75*
G02*
X161025000Y-52850000I0J100000D01*
G01*
G37*
%TD.AperFunction*%
%TO.P,P4,2*%
%TO.N,Net-(R2-Pad2)*%
%TA.AperFunction,SMDPad,CuDef*%
G36*
G01*
X161840000Y-52850000D02*
X161840000Y-52650000D01*
G75*
G02*
X161940000Y-52550000I100000J0D01*
G01*
X162375000Y-52550000D01*
G75*
G02*
X162475000Y-52650000I0J-100000D01*
G01*
X162475000Y-52850000D01*
G75*
G02*
X162375000Y-52950000I-100000J0D01*
G01*
X161940000Y-52950000D01*
G75*
G02*
X161840000Y-52850000I0J100000D01*
G01*
G37*
%TD.AperFunction*%
%TD*%
D10*
%TO.P,Q1,3*%
%TO.N,Net-(Q1-Pad3)*%
X163000000Y-43250000D03*
%TO.P,Q1,2*%
%TO.N,Net-(C1-Pad2)*%
X165000000Y-42300000D03*
%TO.P,Q1,1*%
%TO.N,Net-(J2-Pad5)*%
X165000000Y-44200000D03*
%TD*%
D14*
%TO.P,J2,1*%
%TO.N,Net-(J1-Pad1)*%
X81500000Y-46750000D03*
D15*
%TO.P,J2,2*%
%TO.N,Net-(J2-Pad2)*%
X78960000Y-48020000D03*
%TO.P,J2,3*%
%TO.N,Net-(C1-Pad2)*%
X81500000Y-49290000D03*
%TO.P,J2,4*%
%TO.N,Net-(J2-Pad4)*%
X78960000Y-50560000D03*
%TO.P,J2,5*%
%TO.N,Net-(J2-Pad5)*%
X81500000Y-51830000D03*
%TO.P,J2,6*%
%TO.N,Net-(C1-Pad2)*%
X78960000Y-53100000D03*
%TD*%
D11*
%TO.P,SW1,2*%
%TO.N,Net-(C1-Pad2)*%
X118150000Y-56750000D03*
%TO.P,SW1,1*%
%TO.N,Net-(SW1-Pad1)*%
X110350000Y-56750000D03*
%TD*%
D16*
%TO.P,J1,*%
%TO.N,*%
X118450000Y-46425000D03*
X118450000Y-53575000D03*
D17*
%TO.P,J1,5*%
%TO.N,Net-(C1-Pad2)*%
X112100000Y-48700000D03*
%TO.P,J1,1*%
%TO.N,Net-(J1-Pad1)*%
X112100000Y-51300000D03*
%TD*%
D10*
%TO.P,Q1,1*%
%TO.N,Net-(J2-Pad5)*%
X115000000Y-44200000D03*
%TO.P,Q1,2*%
%TO.N,Net-(C1-Pad2)*%
X115000000Y-42300000D03*
%TO.P,Q1,3*%
%TO.N,Net-(Q1-Pad3)*%
X113000000Y-43250000D03*
%TD*%
%TO.P,P3,1*%
%TO.N,Net-(Q1-Pad3)*%
%TA.AperFunction,SMDPad,CuDef*%
G36*
G01*
X111025000Y-47100000D02*
X111025000Y-46900000D01*
G75*
G02*
X111125000Y-46800000I100000J0D01*
G01*
X111560000Y-46800000D01*
G75*
G02*
X111660000Y-46900000I0J-100000D01*
G01*
X111660000Y-47100000D01*
G75*
G02*
X111560000Y-47200000I-100000J0D01*
G01*
X111125000Y-47200000D01*
G75*
G02*
X111025000Y-47100000I0J100000D01*
G01*
G37*
%TD.AperFunction*%
%TO.P,P3,2*%
%TO.N,Net-(R1-Pad2)*%
%TA.AperFunction,SMDPad,CuDef*%
G36*
G01*
X111840000Y-47100000D02*
X111840000Y-46900000D01*
G75*
G02*
X111940000Y-46800000I100000J0D01*
G01*
X112375000Y-46800000D01*
G75*
G02*
X112475000Y-46900000I0J-100000D01*
G01*
X112475000Y-47100000D01*
G75*
G02*
X112375000Y-47200000I-100000J0D01*
G01*
X111940000Y-47200000D01*
G75*
G02*
X111840000Y-47100000I0J100000D01*
G01*
G37*
%TD.AperFunction*%
%TD*%
%TO.P,P4,2*%
%TO.N,Net-(R2-Pad2)*%
%TA.AperFunction,SMDPad,CuDef*%
G36*
G01*
X111840000Y-52850000D02*
X111840000Y-52650000D01*
G75*
G02*
X111940000Y-52550000I100000J0D01*
G01*
X112375000Y-52550000D01*
G75*
G02*
X112475000Y-52650000I0J-100000D01*
G01*
X112475000Y-52850000D01*
G75*
G02*
X112375000Y-52950000I-100000J0D01*
G01*
X111940000Y-52950000D01*
G75*
G02*
X111840000Y-52850000I0J100000D01*
G01*
G37*
%TD.AperFunction*%
%TO.P,P4,1*%
%TO.N,Net-(Q1-Pad3)*%
%TA.AperFunction,SMDPad,CuDef*%
G36*
G01*
X111025000Y-52850000D02*
X111025000Y-52650000D01*
G75*
G02*
X111125000Y-52550000I100000J0D01*
G01*
X111560000Y-52550000D01*
G75*
G02*
X111660000Y-52650000I0J-100000D01*
G01*
X111660000Y-52850000D01*
G75*
G02*
X111560000Y-52950000I-100000J0D01*
G01*
X111125000Y-52950000D01*
G75*
G02*
X111025000Y-52850000I0J100000D01*
G01*
G37*
%TD.AperFunction*%
%TD*%
%TO.P,R4,1*%
%TO.N,Net-(R4-Pad1)*%
%TA.AperFunction,SMDPad,CuDef*%
G36*
G01*
X111200001Y-44850000D02*
X110299999Y-44850000D01*
G75*
G02*
X110050000Y-44600001I0J249999D01*
G01*
X110050000Y-43899999D01*
G75*
G02*
X110299999Y-43650000I249999J0D01*
G01*
X111200001Y-43650000D01*
G75*
G02*
X111450000Y-43899999I0J-249999D01*
G01*
X111450000Y-44600001D01*
G75*
G02*
X111200001Y-44850000I-249999J0D01*
G01*
G37*
%TD.AperFunction*%
%TO.P,R4,2*%
%TO.N,Net-(Q1-Pad3)*%
%TA.AperFunction,SMDPad,CuDef*%
G36*
G01*
X111200001Y-42850000D02*
X110299999Y-42850000D01*
G75*
G02*
X110050000Y-42600001I0J249999D01*
G01*
X110050000Y-41899999D01*
G75*
G02*
X110299999Y-41650000I249999J0D01*
G01*
X111200001Y-41650000D01*
G75*
G02*
X111450000Y-41899999I0J-249999D01*
G01*
X111450000Y-42600001D01*
G75*
G02*
X111200001Y-42850000I-249999J0D01*
G01*
G37*
%TD.AperFunction*%
%TD*%
D12*
%TO.P,U2,1*%
%TO.N,Net-(U2-Pad1)*%
X92750000Y-57850000D03*
%TO.P,U2,2*%
%TO.N,Net-(U2-Pad2)*%
X94750000Y-57850000D03*
%TO.P,U2,3*%
%TO.N,Net-(C1-Pad1)*%
X96750000Y-57850000D03*
%TO.P,U2,4*%
%TO.N,Net-(U2-Pad1)*%
X98750000Y-57850000D03*
%TO.P,U2,5*%
%TO.N,Net-(R4-Pad1)*%
X100750000Y-57850000D03*
%TO.P,U2,6*%
%TO.N,Net-(U2-Pad6)*%
X102750000Y-57850000D03*
%TO.P,U2,7*%
%TO.N,Net-(SW1-Pad1)*%
X104750000Y-57850000D03*
%TO.P,U2,8*%
%TO.N,Net-(C1-Pad1)*%
X106750000Y-57850000D03*
D13*
%TO.P,U2,9*%
%TO.N,Net-(U2-Pad9)*%
X108250000Y-55250000D03*
%TO.P,U2,10*%
%TO.N,Net-(U2-Pad10)*%
X108250000Y-53250000D03*
%TO.P,U2,11*%
%TO.N,Net-(U2-Pad11)*%
X108250000Y-51250000D03*
%TO.P,U2,12*%
%TO.N,Net-(U2-Pad12)*%
X108250000Y-49250000D03*
%TO.P,U2,13*%
%TO.N,Net-(U2-Pad13)*%
X108250000Y-47250000D03*
%TO.P,U2,14*%
%TO.N,Net-(U2-Pad14)*%
X108250000Y-45250000D03*
D12*
%TO.P,U2,15*%
%TO.N,Net-(C1-Pad2)*%
X106750000Y-42650000D03*
%TO.P,U2,16*%
%TO.N,Net-(R3-Pad1)*%
X104750000Y-42650000D03*
%TO.P,U2,17*%
%TO.N,Net-(U2-Pad17)*%
X102750000Y-42650000D03*
%TO.P,U2,18*%
%TO.N,Net-(U2-Pad18)*%
X100750000Y-42650000D03*
%TO.P,U2,19*%
%TO.N,Net-(R2-Pad2)*%
X98750000Y-42650000D03*
%TO.P,U2,20*%
%TO.N,Net-(J2-Pad2)*%
X96750000Y-42650000D03*
%TO.P,U2,21*%
%TO.N,Net-(R1-Pad2)*%
X94750000Y-42650000D03*
%TO.P,U2,22*%
%TO.N,Net-(U2-Pad22)*%
X92750000Y-42650000D03*
%TD*%
D18*
%TO.N,Net-(C1-Pad1)*%
X113423300Y-54919900D03*
X163423300Y-54919900D03*
X113423300Y-74919900D03*
X163423300Y-74919900D03*
X113423300Y-94919900D03*
X163423300Y-94919900D03*
X113423300Y-114919900D03*
X163423300Y-114919900D03*
X113423300Y-134919900D03*
X163423300Y-134919900D03*
%TO.N,Net-(J1-Pad1)*%
X112738800Y-53507700D03*
X162738800Y-53507700D03*
X112738800Y-73507700D03*
X162738800Y-73507700D03*
X162738800Y-93507700D03*
X112738800Y-93507700D03*
X162738800Y-113507700D03*
X112738800Y-113507700D03*
X162738800Y-133507700D03*
X112738800Y-133507700D03*
%TO.N,Net-(R3-Pad1)*%
X105128200Y-45678600D03*
X155128200Y-45678600D03*
X105128200Y-65678600D03*
X155128200Y-65678600D03*
X155128200Y-85678600D03*
X105128200Y-85678600D03*
X155128200Y-105678600D03*
X105128200Y-105678600D03*
X155128200Y-125678600D03*
X105128200Y-125678600D03*
%TO.N,Net-(R4-Pad1)*%
X112228900Y-44250000D03*
X101748200Y-56223200D03*
X151748200Y-56223200D03*
X162228900Y-44250000D03*
X101748200Y-76223200D03*
X112228900Y-64250000D03*
X162228900Y-64250000D03*
X151748200Y-76223200D03*
X162228900Y-84250000D03*
X112228900Y-84250000D03*
X151748200Y-96223200D03*
X101748200Y-96223200D03*
X162228900Y-104250000D03*
X112228900Y-104250000D03*
X101748200Y-116223200D03*
X151748200Y-116223200D03*
X112228900Y-124250000D03*
X162228900Y-124250000D03*
X101748200Y-136223200D03*
X151748200Y-136223200D03*
%TD*%
D19*
%TO.N,Net-(C1-Pad1)*%
X106750000Y-58243800D02*
X105568500Y-59425300D01*
X105568500Y-59425300D02*
X96750000Y-59425300D01*
X113423300Y-54919900D02*
X113423300Y-55665800D01*
X113423300Y-55665800D02*
X110845300Y-58243800D01*
X110845300Y-58243800D02*
X106750000Y-58243800D01*
X96750000Y-57850000D02*
X96750000Y-59425300D01*
X106750000Y-57850000D02*
X106750000Y-58243800D01*
X155568500Y-59425300D02*
X146750000Y-59425300D01*
X156750000Y-58243800D02*
X155568500Y-59425300D01*
X163423300Y-55665800D02*
X160845300Y-58243800D01*
X163423300Y-54919900D02*
X163423300Y-55665800D01*
X146750000Y-57850000D02*
X146750000Y-59425300D01*
X156750000Y-57850000D02*
X156750000Y-58243800D01*
X160845300Y-58243800D02*
X156750000Y-58243800D01*
X105568500Y-79425300D02*
X96750000Y-79425300D01*
X106750000Y-78243800D02*
X105568500Y-79425300D01*
X113423300Y-75665800D02*
X110845300Y-78243800D01*
X113423300Y-74919900D02*
X113423300Y-75665800D01*
X96750000Y-77850000D02*
X96750000Y-79425300D01*
X106750000Y-77850000D02*
X106750000Y-78243800D01*
X110845300Y-78243800D02*
X106750000Y-78243800D01*
X160845300Y-78243800D02*
X156750000Y-78243800D01*
X156750000Y-78243800D02*
X155568500Y-79425300D01*
X156750000Y-77850000D02*
X156750000Y-78243800D01*
X163423300Y-74919900D02*
X163423300Y-75665800D01*
X146750000Y-77850000D02*
X146750000Y-79425300D01*
X163423300Y-75665800D02*
X160845300Y-78243800D01*
X155568500Y-79425300D02*
X146750000Y-79425300D01*
X113423300Y-95665800D02*
X110845300Y-98243800D01*
X156750000Y-98243800D02*
X155568500Y-99425300D01*
X106750000Y-98243800D02*
X105568500Y-99425300D01*
X110845300Y-98243800D02*
X106750000Y-98243800D01*
X106750000Y-97850000D02*
X106750000Y-98243800D01*
X105568500Y-99425300D02*
X96750000Y-99425300D01*
X160845300Y-98243800D02*
X156750000Y-98243800D01*
X113423300Y-94919900D02*
X113423300Y-95665800D01*
X96750000Y-97850000D02*
X96750000Y-99425300D01*
X163423300Y-94919900D02*
X163423300Y-95665800D01*
X163423300Y-95665800D02*
X160845300Y-98243800D01*
X146750000Y-97850000D02*
X146750000Y-99425300D01*
X156750000Y-97850000D02*
X156750000Y-98243800D01*
X155568500Y-99425300D02*
X146750000Y-99425300D01*
X113423300Y-115665800D02*
X110845300Y-118243800D01*
X106750000Y-117850000D02*
X106750000Y-118243800D01*
X106750000Y-118243800D02*
X105568500Y-119425300D01*
X156750000Y-118243800D02*
X155568500Y-119425300D01*
X163423300Y-114919900D02*
X163423300Y-115665800D01*
X160845300Y-118243800D02*
X156750000Y-118243800D01*
X163423300Y-115665800D02*
X160845300Y-118243800D01*
X105568500Y-119425300D02*
X96750000Y-119425300D01*
X113423300Y-114919900D02*
X113423300Y-115665800D01*
X96750000Y-117850000D02*
X96750000Y-119425300D01*
X110845300Y-118243800D02*
X106750000Y-118243800D01*
X146750000Y-117850000D02*
X146750000Y-119425300D01*
X156750000Y-117850000D02*
X156750000Y-118243800D01*
X155568500Y-119425300D02*
X146750000Y-119425300D01*
X113423300Y-135665800D02*
X110845300Y-138243800D01*
X106750000Y-137850000D02*
X106750000Y-138243800D01*
X163423300Y-135665800D02*
X160845300Y-138243800D01*
X156750000Y-138243800D02*
X155568500Y-139425300D01*
X163423300Y-134919900D02*
X163423300Y-135665800D01*
X106750000Y-138243800D02*
X105568500Y-139425300D01*
X160845300Y-138243800D02*
X156750000Y-138243800D01*
X156750000Y-137850000D02*
X156750000Y-138243800D01*
X155568500Y-139425300D02*
X146750000Y-139425300D01*
X146750000Y-137850000D02*
X146750000Y-139425300D01*
X110845300Y-138243800D02*
X106750000Y-138243800D01*
X105568500Y-139425300D02*
X96750000Y-139425300D01*
X113423300Y-134919900D02*
X113423300Y-135665800D01*
X96750000Y-137850000D02*
X96750000Y-139425300D01*
%TO.N,Net-(C1-Pad2)*%
X114281300Y-54165800D02*
X113151700Y-54165800D01*
X113151700Y-54165800D02*
X113066300Y-54251200D01*
X113066300Y-54251200D02*
X86461200Y-54251200D01*
X86461200Y-54251200D02*
X81500000Y-49290000D01*
X114281300Y-54165800D02*
X114281300Y-49156000D01*
X114281300Y-49156000D02*
X113825300Y-48700000D01*
X118150000Y-55674700D02*
X116641100Y-54165800D01*
X116641100Y-54165800D02*
X114281300Y-54165800D01*
X114112300Y-42300000D02*
X114112300Y-48361900D01*
X114112300Y-48361900D02*
X113774200Y-48700000D01*
X106750000Y-41074700D02*
X112887000Y-41074700D01*
X112887000Y-41074700D02*
X114112300Y-42300000D01*
X114112300Y-42300000D02*
X115000000Y-42300000D01*
X113774200Y-48700000D02*
X113825300Y-48700000D01*
X112100000Y-48700000D02*
X113774200Y-48700000D01*
X106750000Y-42650000D02*
X106750000Y-41074700D01*
X118150000Y-56750000D02*
X118150000Y-55674700D01*
X163066300Y-54251200D02*
X136461200Y-54251200D01*
X164281300Y-54165800D02*
X164281300Y-49156000D01*
X163151700Y-54165800D02*
X163066300Y-54251200D01*
X162887000Y-41074700D02*
X164112300Y-42300000D01*
X163774200Y-48700000D02*
X163825300Y-48700000D01*
X164112300Y-48361900D02*
X163774200Y-48700000D01*
X156750000Y-42650000D02*
X156750000Y-41074700D01*
X164281300Y-54165800D02*
X163151700Y-54165800D01*
X136461200Y-54251200D02*
X131500000Y-49290000D01*
X168150000Y-55674700D02*
X166641100Y-54165800D01*
X164112300Y-42300000D02*
X164112300Y-48361900D01*
X166641100Y-54165800D02*
X164281300Y-54165800D01*
X164281300Y-49156000D02*
X163825300Y-48700000D01*
X164112300Y-42300000D02*
X165000000Y-42300000D01*
X162100000Y-48700000D02*
X163774200Y-48700000D01*
X156750000Y-41074700D02*
X162887000Y-41074700D01*
X168150000Y-56750000D02*
X168150000Y-55674700D01*
X164112300Y-62300000D02*
X164112300Y-68361900D01*
X156750000Y-61074700D02*
X162887000Y-61074700D01*
X162100000Y-68700000D02*
X163774200Y-68700000D01*
X168150000Y-76750000D02*
X168150000Y-75674700D01*
X136461200Y-74251200D02*
X131500000Y-69290000D01*
X163151700Y-74165800D02*
X163066300Y-74251200D01*
X166641100Y-74165800D02*
X164281300Y-74165800D01*
X163774200Y-68700000D02*
X163825300Y-68700000D01*
X163066300Y-74251200D02*
X136461200Y-74251200D01*
X164281300Y-74165800D02*
X164281300Y-69156000D01*
X162887000Y-61074700D02*
X164112300Y-62300000D01*
X164281300Y-69156000D02*
X163825300Y-68700000D01*
X164112300Y-62300000D02*
X165000000Y-62300000D01*
X164112300Y-68361900D02*
X163774200Y-68700000D01*
X156750000Y-62650000D02*
X156750000Y-61074700D01*
X168150000Y-75674700D02*
X166641100Y-74165800D01*
X164281300Y-74165800D02*
X163151700Y-74165800D01*
X113066300Y-74251200D02*
X86461200Y-74251200D01*
X114281300Y-74165800D02*
X114281300Y-69156000D01*
X113151700Y-74165800D02*
X113066300Y-74251200D01*
X112887000Y-61074700D02*
X114112300Y-62300000D01*
X113774200Y-68700000D02*
X113825300Y-68700000D01*
X114112300Y-68361900D02*
X113774200Y-68700000D01*
X106750000Y-62650000D02*
X106750000Y-61074700D01*
X114281300Y-74165800D02*
X113151700Y-74165800D01*
X86461200Y-74251200D02*
X81500000Y-69290000D01*
X118150000Y-75674700D02*
X116641100Y-74165800D01*
X114112300Y-62300000D02*
X114112300Y-68361900D01*
X116641100Y-74165800D02*
X114281300Y-74165800D01*
X114281300Y-69156000D02*
X113825300Y-68700000D01*
X114112300Y-62300000D02*
X115000000Y-62300000D01*
X112100000Y-68700000D02*
X113774200Y-68700000D01*
X106750000Y-61074700D02*
X112887000Y-61074700D01*
X118150000Y-76750000D02*
X118150000Y-75674700D01*
X162100000Y-88700000D02*
X163774200Y-88700000D01*
X136461200Y-94251200D02*
X131500000Y-89290000D01*
X163151700Y-94165800D02*
X163066300Y-94251200D01*
X163774200Y-88700000D02*
X163825300Y-88700000D01*
X163066300Y-94251200D02*
X136461200Y-94251200D01*
X168150000Y-96750000D02*
X168150000Y-95674700D01*
X164281300Y-94165800D02*
X164281300Y-89156000D01*
X162887000Y-81074700D02*
X164112300Y-82300000D01*
X164281300Y-89156000D02*
X163825300Y-88700000D01*
X166641100Y-94165800D02*
X164281300Y-94165800D01*
X156750000Y-81074700D02*
X162887000Y-81074700D01*
X164112300Y-82300000D02*
X164112300Y-88361900D01*
X118150000Y-95674700D02*
X116641100Y-94165800D01*
X164281300Y-94165800D02*
X163151700Y-94165800D01*
X113774200Y-88700000D02*
X113825300Y-88700000D01*
X156750000Y-82650000D02*
X156750000Y-81074700D01*
X118150000Y-96750000D02*
X118150000Y-95674700D01*
X113151700Y-94165800D02*
X113066300Y-94251200D01*
X112887000Y-81074700D02*
X114112300Y-82300000D01*
X114112300Y-82300000D02*
X114112300Y-88361900D01*
X114281300Y-94165800D02*
X114281300Y-89156000D01*
X168150000Y-95674700D02*
X166641100Y-94165800D01*
X106750000Y-82650000D02*
X106750000Y-81074700D01*
X114281300Y-94165800D02*
X113151700Y-94165800D01*
X164112300Y-82300000D02*
X165000000Y-82300000D01*
X86461200Y-94251200D02*
X81500000Y-89290000D01*
X113066300Y-94251200D02*
X86461200Y-94251200D01*
X112100000Y-88700000D02*
X113774200Y-88700000D01*
X114281300Y-89156000D02*
X113825300Y-88700000D01*
X116641100Y-94165800D02*
X114281300Y-94165800D01*
X114112300Y-88361900D02*
X113774200Y-88700000D01*
X164112300Y-88361900D02*
X163774200Y-88700000D01*
X114112300Y-82300000D02*
X115000000Y-82300000D01*
X106750000Y-81074700D02*
X112887000Y-81074700D01*
X162100000Y-108700000D02*
X163774200Y-108700000D01*
X136461200Y-114251200D02*
X131500000Y-109290000D01*
X162887000Y-101074700D02*
X164112300Y-102300000D01*
X164281300Y-114165800D02*
X163151700Y-114165800D01*
X156750000Y-101074700D02*
X162887000Y-101074700D01*
X164281300Y-109156000D02*
X163825300Y-108700000D01*
X164112300Y-102300000D02*
X164112300Y-108361900D01*
X163151700Y-114165800D02*
X163066300Y-114251200D01*
X156750000Y-102650000D02*
X156750000Y-101074700D01*
X118150000Y-116750000D02*
X118150000Y-115674700D01*
X168150000Y-116750000D02*
X168150000Y-115674700D01*
X164281300Y-114165800D02*
X164281300Y-109156000D01*
X163066300Y-114251200D02*
X136461200Y-114251200D01*
X166641100Y-114165800D02*
X164281300Y-114165800D01*
X163774200Y-108700000D02*
X163825300Y-108700000D01*
X118150000Y-115674700D02*
X116641100Y-114165800D01*
X113774200Y-108700000D02*
X113825300Y-108700000D01*
X112100000Y-108700000D02*
X113774200Y-108700000D01*
X168150000Y-115674700D02*
X166641100Y-114165800D01*
X116641100Y-114165800D02*
X114281300Y-114165800D01*
X114281300Y-114165800D02*
X114281300Y-109156000D01*
X114112300Y-102300000D02*
X115000000Y-102300000D01*
X114112300Y-102300000D02*
X114112300Y-108361900D01*
X114281300Y-109156000D02*
X113825300Y-108700000D01*
X86461200Y-114251200D02*
X81500000Y-109290000D01*
X106750000Y-102650000D02*
X106750000Y-101074700D01*
X112887000Y-101074700D02*
X114112300Y-102300000D01*
X164112300Y-102300000D02*
X165000000Y-102300000D01*
X164112300Y-108361900D02*
X163774200Y-108700000D01*
X114281300Y-114165800D02*
X113151700Y-114165800D01*
X106750000Y-101074700D02*
X112887000Y-101074700D01*
X114112300Y-108361900D02*
X113774200Y-108700000D01*
X113151700Y-114165800D02*
X113066300Y-114251200D01*
X113066300Y-114251200D02*
X86461200Y-114251200D01*
X162887000Y-121074700D02*
X164112300Y-122300000D01*
X136461200Y-134251200D02*
X131500000Y-129290000D01*
X162100000Y-128700000D02*
X163774200Y-128700000D01*
X118150000Y-136750000D02*
X118150000Y-135674700D01*
X163151700Y-134165800D02*
X163066300Y-134251200D01*
X156750000Y-122650000D02*
X156750000Y-121074700D01*
X164281300Y-134165800D02*
X163151700Y-134165800D01*
X164112300Y-122300000D02*
X164112300Y-128361900D01*
X156750000Y-121074700D02*
X162887000Y-121074700D01*
X164281300Y-129156000D02*
X163825300Y-128700000D01*
X114112300Y-128361900D02*
X113774200Y-128700000D01*
X114281300Y-134165800D02*
X113151700Y-134165800D01*
X106750000Y-121074700D02*
X112887000Y-121074700D01*
X113151700Y-134165800D02*
X113066300Y-134251200D01*
X113066300Y-134251200D02*
X86461200Y-134251200D01*
X114281300Y-134165800D02*
X114281300Y-129156000D01*
X114112300Y-122300000D02*
X114112300Y-128361900D01*
X114281300Y-129156000D02*
X113825300Y-128700000D01*
X114112300Y-122300000D02*
X115000000Y-122300000D01*
X86461200Y-134251200D02*
X81500000Y-129290000D01*
X116641100Y-134165800D02*
X114281300Y-134165800D01*
X164112300Y-122300000D02*
X165000000Y-122300000D01*
X106750000Y-122650000D02*
X106750000Y-121074700D01*
X112887000Y-121074700D02*
X114112300Y-122300000D01*
X164112300Y-128361900D02*
X163774200Y-128700000D01*
X163066300Y-134251200D02*
X136461200Y-134251200D01*
X164281300Y-134165800D02*
X164281300Y-129156000D01*
X168150000Y-136750000D02*
X168150000Y-135674700D01*
X163774200Y-128700000D02*
X163825300Y-128700000D01*
X166641100Y-134165800D02*
X164281300Y-134165800D01*
X118150000Y-135674700D02*
X116641100Y-134165800D01*
X113774200Y-128700000D02*
X113825300Y-128700000D01*
X112100000Y-128700000D02*
X113774200Y-128700000D01*
X168150000Y-135674700D02*
X166641100Y-134165800D01*
%TO.N,Net-(J1-Pad1)*%
X113825300Y-51300000D02*
X113825300Y-52421200D01*
X113825300Y-52421200D02*
X112738800Y-53507700D01*
X112100000Y-51300000D02*
X113825300Y-51300000D01*
X163825300Y-52421200D02*
X162738800Y-53507700D01*
X162100000Y-51300000D02*
X163825300Y-51300000D01*
X163825300Y-51300000D02*
X163825300Y-52421200D01*
X113825300Y-72421200D02*
X112738800Y-73507700D01*
X112100000Y-71300000D02*
X113825300Y-71300000D01*
X113825300Y-71300000D02*
X113825300Y-72421200D01*
X163825300Y-72421200D02*
X162738800Y-73507700D01*
X163825300Y-71300000D02*
X163825300Y-72421200D01*
X162100000Y-71300000D02*
X163825300Y-71300000D01*
X113825300Y-91300000D02*
X113825300Y-92421200D01*
X113825300Y-92421200D02*
X112738800Y-93507700D01*
X112100000Y-91300000D02*
X113825300Y-91300000D01*
X163825300Y-92421200D02*
X162738800Y-93507700D01*
X162100000Y-91300000D02*
X163825300Y-91300000D01*
X163825300Y-91300000D02*
X163825300Y-92421200D01*
X163825300Y-112421200D02*
X162738800Y-113507700D01*
X162100000Y-111300000D02*
X163825300Y-111300000D01*
X163825300Y-111300000D02*
X163825300Y-112421200D01*
X113825300Y-111300000D02*
X113825300Y-112421200D01*
X113825300Y-112421200D02*
X112738800Y-113507700D01*
X112100000Y-111300000D02*
X113825300Y-111300000D01*
X113825300Y-132421200D02*
X112738800Y-133507700D01*
X112100000Y-131300000D02*
X113825300Y-131300000D01*
X163825300Y-131300000D02*
X163825300Y-132421200D01*
X163825300Y-132421200D02*
X162738800Y-133507700D01*
X162100000Y-131300000D02*
X163825300Y-131300000D01*
X113825300Y-131300000D02*
X113825300Y-132421200D01*
%TO.N,Net-(J2-Pad5)*%
X115000000Y-44200000D02*
X115000000Y-43474700D01*
X115000000Y-43474700D02*
X115181300Y-43474700D01*
X115181300Y-43474700D02*
X115775400Y-42880600D01*
X115775400Y-42880600D02*
X115775400Y-41754500D01*
X115775400Y-41754500D02*
X114613400Y-40592500D01*
X114613400Y-40592500D02*
X84826300Y-40592500D01*
X84826300Y-40592500D02*
X77832800Y-47586000D01*
X77832800Y-47586000D02*
X77832800Y-48427700D01*
X77832800Y-48427700D02*
X78535700Y-49130600D01*
X78535700Y-49130600D02*
X79122900Y-49130600D01*
X79122900Y-49130600D02*
X81500000Y-51507700D01*
X81500000Y-51507700D02*
X81500000Y-51830000D01*
X129122900Y-49130600D02*
X131500000Y-51507700D01*
X128535700Y-49130600D02*
X129122900Y-49130600D01*
X127832800Y-48427700D02*
X128535700Y-49130600D01*
X164613400Y-40592500D02*
X134826300Y-40592500D01*
X134826300Y-40592500D02*
X127832800Y-47586000D01*
X165775400Y-41754500D02*
X164613400Y-40592500D01*
X165000000Y-43474700D02*
X165181300Y-43474700D01*
X127832800Y-47586000D02*
X127832800Y-48427700D01*
X165000000Y-44200000D02*
X165000000Y-43474700D01*
X165181300Y-43474700D02*
X165775400Y-42880600D01*
X165775400Y-42880600D02*
X165775400Y-41754500D01*
X131500000Y-51507700D02*
X131500000Y-51830000D01*
X79122900Y-69130600D02*
X81500000Y-71507700D01*
X78535700Y-69130600D02*
X79122900Y-69130600D01*
X77832800Y-68427700D02*
X78535700Y-69130600D01*
X114613400Y-60592500D02*
X84826300Y-60592500D01*
X84826300Y-60592500D02*
X77832800Y-67586000D01*
X115775400Y-61754500D02*
X114613400Y-60592500D01*
X115000000Y-63474700D02*
X115181300Y-63474700D01*
X77832800Y-67586000D02*
X77832800Y-68427700D01*
X115000000Y-64200000D02*
X115000000Y-63474700D01*
X115181300Y-63474700D02*
X115775400Y-62880600D01*
X115775400Y-62880600D02*
X115775400Y-61754500D01*
X81500000Y-71507700D02*
X81500000Y-71830000D01*
X129122900Y-69130600D02*
X131500000Y-71507700D01*
X165000000Y-64200000D02*
X165000000Y-63474700D01*
X131500000Y-71507700D02*
X131500000Y-71830000D01*
X165181300Y-63474700D02*
X165775400Y-62880600D01*
X165775400Y-61754500D02*
X164613400Y-60592500D01*
X165775400Y-62880600D02*
X165775400Y-61754500D01*
X128535700Y-69130600D02*
X129122900Y-69130600D01*
X164613400Y-60592500D02*
X134826300Y-60592500D01*
X127832800Y-68427700D02*
X128535700Y-69130600D01*
X165000000Y-63474700D02*
X165181300Y-63474700D01*
X134826300Y-60592500D02*
X127832800Y-67586000D01*
X127832800Y-67586000D02*
X127832800Y-68427700D01*
X79122900Y-89130600D02*
X81500000Y-91507700D01*
X81500000Y-91507700D02*
X81500000Y-91830000D01*
X77832800Y-88427700D02*
X78535700Y-89130600D01*
X115000000Y-83474700D02*
X115181300Y-83474700D01*
X78535700Y-89130600D02*
X79122900Y-89130600D01*
X84826300Y-80592500D02*
X77832800Y-87586000D01*
X115181300Y-83474700D02*
X115775400Y-82880600D01*
X114613400Y-80592500D02*
X84826300Y-80592500D01*
X77832800Y-87586000D02*
X77832800Y-88427700D01*
X115775400Y-81754500D02*
X114613400Y-80592500D01*
X115000000Y-84200000D02*
X115000000Y-83474700D01*
X115775400Y-82880600D02*
X115775400Y-81754500D01*
X165181300Y-83474700D02*
X165775400Y-82880600D01*
X128535700Y-89130600D02*
X129122900Y-89130600D01*
X129122900Y-89130600D02*
X131500000Y-91507700D01*
X131500000Y-91507700D02*
X131500000Y-91830000D01*
X165775400Y-82880600D02*
X165775400Y-81754500D01*
X165000000Y-84200000D02*
X165000000Y-83474700D01*
X165775400Y-81754500D02*
X164613400Y-80592500D01*
X164613400Y-80592500D02*
X134826300Y-80592500D01*
X127832800Y-88427700D02*
X128535700Y-89130600D01*
X127832800Y-87586000D02*
X127832800Y-88427700D01*
X134826300Y-80592500D02*
X127832800Y-87586000D01*
X165000000Y-83474700D02*
X165181300Y-83474700D01*
X77832800Y-107586000D02*
X77832800Y-108427700D01*
X115775400Y-101754500D02*
X114613400Y-100592500D01*
X128535700Y-109130600D02*
X129122900Y-109130600D01*
X165181300Y-103474700D02*
X165775400Y-102880600D01*
X129122900Y-109130600D02*
X131500000Y-111507700D01*
X115000000Y-104200000D02*
X115000000Y-103474700D01*
X115775400Y-102880600D02*
X115775400Y-101754500D01*
X131500000Y-111507700D02*
X131500000Y-111830000D01*
X165000000Y-104200000D02*
X165000000Y-103474700D01*
X165775400Y-102880600D02*
X165775400Y-101754500D01*
X79122900Y-109130600D02*
X81500000Y-111507700D01*
X81500000Y-111507700D02*
X81500000Y-111830000D01*
X77832800Y-108427700D02*
X78535700Y-109130600D01*
X115000000Y-103474700D02*
X115181300Y-103474700D01*
X78535700Y-109130600D02*
X79122900Y-109130600D01*
X114613400Y-100592500D02*
X84826300Y-100592500D01*
X84826300Y-100592500D02*
X77832800Y-107586000D01*
X115181300Y-103474700D02*
X115775400Y-102880600D01*
X134826300Y-100592500D02*
X127832800Y-107586000D01*
X127832800Y-107586000D02*
X127832800Y-108427700D01*
X165000000Y-103474700D02*
X165181300Y-103474700D01*
X165775400Y-101754500D02*
X164613400Y-100592500D01*
X164613400Y-100592500D02*
X134826300Y-100592500D01*
X127832800Y-108427700D02*
X128535700Y-109130600D01*
X79122900Y-129130600D02*
X81500000Y-131507700D01*
X114613400Y-120592500D02*
X84826300Y-120592500D01*
X78535700Y-129130600D02*
X79122900Y-129130600D01*
X165775400Y-122880600D02*
X165775400Y-121754500D01*
X115775400Y-122880600D02*
X115775400Y-121754500D01*
X165000000Y-124200000D02*
X165000000Y-123474700D01*
X131500000Y-131507700D02*
X131500000Y-131830000D01*
X165181300Y-123474700D02*
X165775400Y-122880600D01*
X129122900Y-129130600D02*
X131500000Y-131507700D01*
X128535700Y-129130600D02*
X129122900Y-129130600D01*
X115000000Y-124200000D02*
X115000000Y-123474700D01*
X115000000Y-123474700D02*
X115181300Y-123474700D01*
X77832800Y-128427700D02*
X78535700Y-129130600D01*
X81500000Y-131507700D02*
X81500000Y-131830000D01*
X77832800Y-127586000D02*
X77832800Y-128427700D01*
X115775400Y-121754500D02*
X114613400Y-120592500D01*
X127832800Y-128427700D02*
X128535700Y-129130600D01*
X84826300Y-120592500D02*
X77832800Y-127586000D01*
X115181300Y-123474700D02*
X115775400Y-122880600D01*
X164613400Y-120592500D02*
X134826300Y-120592500D01*
X134826300Y-120592500D02*
X127832800Y-127586000D01*
X165775400Y-121754500D02*
X164613400Y-120592500D01*
X127832800Y-127586000D02*
X127832800Y-128427700D01*
X165000000Y-123474700D02*
X165181300Y-123474700D01*
%TO.N,Net-(J2-Pad2)*%
X78960000Y-48020000D02*
X85149400Y-48020000D01*
X85149400Y-48020000D02*
X92094700Y-41074700D01*
X92094700Y-41074700D02*
X96750000Y-41074700D01*
X96750000Y-42650000D02*
X96750000Y-41074700D01*
X135149400Y-48020000D02*
X142094700Y-41074700D01*
X146750000Y-42650000D02*
X146750000Y-41074700D01*
X142094700Y-41074700D02*
X146750000Y-41074700D01*
X128960000Y-48020000D02*
X135149400Y-48020000D01*
X135149400Y-68020000D02*
X142094700Y-61074700D01*
X85149400Y-68020000D02*
X92094700Y-61074700D01*
X96750000Y-62650000D02*
X96750000Y-61074700D01*
X92094700Y-61074700D02*
X96750000Y-61074700D01*
X78960000Y-68020000D02*
X85149400Y-68020000D01*
X146750000Y-62650000D02*
X146750000Y-61074700D01*
X128960000Y-68020000D02*
X135149400Y-68020000D01*
X142094700Y-61074700D02*
X146750000Y-61074700D01*
X135149400Y-88020000D02*
X142094700Y-81074700D01*
X85149400Y-88020000D02*
X92094700Y-81074700D01*
X92094700Y-81074700D02*
X96750000Y-81074700D01*
X96750000Y-82650000D02*
X96750000Y-81074700D01*
X78960000Y-88020000D02*
X85149400Y-88020000D01*
X146750000Y-82650000D02*
X146750000Y-81074700D01*
X128960000Y-88020000D02*
X135149400Y-88020000D01*
X142094700Y-81074700D02*
X146750000Y-81074700D01*
X146750000Y-102650000D02*
X146750000Y-101074700D01*
X78960000Y-108020000D02*
X85149400Y-108020000D01*
X128960000Y-108020000D02*
X135149400Y-108020000D01*
X135149400Y-108020000D02*
X142094700Y-101074700D01*
X85149400Y-108020000D02*
X92094700Y-101074700D01*
X92094700Y-101074700D02*
X96750000Y-101074700D01*
X96750000Y-102650000D02*
X96750000Y-101074700D01*
X142094700Y-101074700D02*
X146750000Y-101074700D01*
X135149400Y-128020000D02*
X142094700Y-121074700D01*
X96750000Y-122650000D02*
X96750000Y-121074700D01*
X92094700Y-121074700D02*
X96750000Y-121074700D01*
X128960000Y-128020000D02*
X135149400Y-128020000D01*
X78960000Y-128020000D02*
X85149400Y-128020000D01*
X146750000Y-122650000D02*
X146750000Y-121074700D01*
X85149400Y-128020000D02*
X92094700Y-121074700D01*
X142094700Y-121074700D02*
X146750000Y-121074700D01*
%TO.N,Net-(Q1-Pad3)*%
X111342500Y-47528700D02*
X112572100Y-47528700D01*
X112572100Y-47528700D02*
X112954300Y-47146500D01*
X112954300Y-47146500D02*
X112954300Y-43250000D01*
X111342500Y-52750000D02*
X110357000Y-51764500D01*
X110357000Y-51764500D02*
X110357000Y-48237300D01*
X110357000Y-48237300D02*
X111065600Y-47528700D01*
X111065600Y-47528700D02*
X111342500Y-47528700D01*
X111342500Y-47528700D02*
X111342500Y-47000000D01*
X112954300Y-43250000D02*
X113000000Y-43250000D01*
X110750000Y-42250000D02*
X111750000Y-43250000D01*
X111750000Y-43250000D02*
X112954300Y-43250000D01*
X161342500Y-47528700D02*
X161342500Y-47000000D01*
X161342500Y-52750000D02*
X160357000Y-51764500D01*
X161065600Y-47528700D02*
X161342500Y-47528700D01*
X160750000Y-42250000D02*
X161750000Y-43250000D01*
X162954300Y-43250000D02*
X163000000Y-43250000D01*
X161342500Y-47528700D02*
X162572100Y-47528700D01*
X160357000Y-48237300D02*
X161065600Y-47528700D01*
X160357000Y-51764500D02*
X160357000Y-48237300D01*
X161750000Y-43250000D02*
X162954300Y-43250000D01*
X162572100Y-47528700D02*
X162954300Y-47146500D01*
X162954300Y-47146500D02*
X162954300Y-43250000D01*
X161342500Y-67528700D02*
X161342500Y-67000000D01*
X111342500Y-67528700D02*
X111342500Y-67000000D01*
X111342500Y-72750000D02*
X110357000Y-71764500D01*
X111065600Y-67528700D02*
X111342500Y-67528700D01*
X110750000Y-62250000D02*
X111750000Y-63250000D01*
X112954300Y-63250000D02*
X113000000Y-63250000D01*
X111342500Y-67528700D02*
X112572100Y-67528700D01*
X110357000Y-68237300D02*
X111065600Y-67528700D01*
X110357000Y-71764500D02*
X110357000Y-68237300D01*
X111750000Y-63250000D02*
X112954300Y-63250000D01*
X112572100Y-67528700D02*
X112954300Y-67146500D01*
X112954300Y-67146500D02*
X112954300Y-63250000D01*
X161065600Y-67528700D02*
X161342500Y-67528700D01*
X162954300Y-63250000D02*
X163000000Y-63250000D01*
X160750000Y-62250000D02*
X161750000Y-63250000D01*
X161342500Y-72750000D02*
X160357000Y-71764500D01*
X162572100Y-67528700D02*
X162954300Y-67146500D01*
X161342500Y-67528700D02*
X162572100Y-67528700D01*
X160357000Y-71764500D02*
X160357000Y-68237300D01*
X161750000Y-63250000D02*
X162954300Y-63250000D01*
X160357000Y-68237300D02*
X161065600Y-67528700D01*
X162954300Y-67146500D02*
X162954300Y-63250000D01*
X161342500Y-87528700D02*
X161342500Y-87000000D01*
X111065600Y-87528700D02*
X111342500Y-87528700D01*
X110750000Y-82250000D02*
X111750000Y-83250000D01*
X111342500Y-92750000D02*
X110357000Y-91764500D01*
X111342500Y-87528700D02*
X111342500Y-87000000D01*
X111342500Y-87528700D02*
X112572100Y-87528700D01*
X110357000Y-88237300D02*
X111065600Y-87528700D01*
X112572100Y-87528700D02*
X112954300Y-87146500D01*
X111750000Y-83250000D02*
X112954300Y-83250000D01*
X112954300Y-83250000D02*
X113000000Y-83250000D01*
X110357000Y-91764500D02*
X110357000Y-88237300D01*
X112954300Y-87146500D02*
X112954300Y-83250000D01*
X160357000Y-91764500D02*
X160357000Y-88237300D01*
X161342500Y-92750000D02*
X160357000Y-91764500D01*
X161342500Y-87528700D02*
X162572100Y-87528700D01*
X161065600Y-87528700D02*
X161342500Y-87528700D01*
X162954300Y-83250000D02*
X163000000Y-83250000D01*
X160357000Y-88237300D02*
X161065600Y-87528700D01*
X160750000Y-82250000D02*
X161750000Y-83250000D01*
X161750000Y-83250000D02*
X162954300Y-83250000D01*
X162572100Y-87528700D02*
X162954300Y-87146500D01*
X162954300Y-87146500D02*
X162954300Y-83250000D01*
X112954300Y-107146500D02*
X112954300Y-103250000D01*
X161342500Y-107528700D02*
X162572100Y-107528700D01*
X161065600Y-107528700D02*
X161342500Y-107528700D01*
X162954300Y-103250000D02*
X163000000Y-103250000D01*
X160357000Y-111764500D02*
X160357000Y-108237300D01*
X161342500Y-112750000D02*
X160357000Y-111764500D01*
X160357000Y-108237300D02*
X161065600Y-107528700D01*
X160750000Y-102250000D02*
X161750000Y-103250000D01*
X161750000Y-103250000D02*
X162954300Y-103250000D01*
X161342500Y-107528700D02*
X161342500Y-107000000D01*
X111065600Y-107528700D02*
X111342500Y-107528700D01*
X111342500Y-107528700D02*
X112572100Y-107528700D01*
X111342500Y-107528700D02*
X111342500Y-107000000D01*
X110750000Y-102250000D02*
X111750000Y-103250000D01*
X111342500Y-112750000D02*
X110357000Y-111764500D01*
X110357000Y-111764500D02*
X110357000Y-108237300D01*
X111750000Y-103250000D02*
X112954300Y-103250000D01*
X112954300Y-103250000D02*
X113000000Y-103250000D01*
X110357000Y-108237300D02*
X111065600Y-107528700D01*
X112572100Y-107528700D02*
X112954300Y-107146500D01*
X162954300Y-107146500D02*
X162954300Y-103250000D01*
X162572100Y-107528700D02*
X162954300Y-107146500D01*
X161342500Y-127528700D02*
X161342500Y-127000000D01*
X111750000Y-123250000D02*
X112954300Y-123250000D01*
X112954300Y-123250000D02*
X113000000Y-123250000D01*
X110357000Y-131764500D02*
X110357000Y-128237300D01*
X160750000Y-122250000D02*
X161750000Y-123250000D01*
X161342500Y-132750000D02*
X160357000Y-131764500D01*
X160357000Y-128237300D02*
X161065600Y-127528700D01*
X160357000Y-131764500D02*
X160357000Y-128237300D01*
X161750000Y-123250000D02*
X162954300Y-123250000D01*
X161065600Y-127528700D02*
X161342500Y-127528700D01*
X162954300Y-123250000D02*
X163000000Y-123250000D01*
X161342500Y-127528700D02*
X162572100Y-127528700D01*
X111342500Y-132750000D02*
X110357000Y-131764500D01*
X111342500Y-127528700D02*
X111342500Y-127000000D01*
X110750000Y-122250000D02*
X111750000Y-123250000D01*
X111065600Y-127528700D02*
X111342500Y-127528700D01*
X111342500Y-127528700D02*
X112572100Y-127528700D01*
X112954300Y-127146500D02*
X112954300Y-123250000D01*
X112572100Y-127528700D02*
X112954300Y-127146500D01*
X110357000Y-128237300D02*
X111065600Y-127528700D01*
X162954300Y-127146500D02*
X162954300Y-123250000D01*
X162572100Y-127528700D02*
X162954300Y-127146500D01*
%TO.N,Net-(R1-Pad2)*%
X94750000Y-42650000D02*
X94750000Y-44225300D01*
X94750000Y-44225300D02*
X97384800Y-44225300D01*
X97384800Y-44225300D02*
X97575400Y-44034700D01*
X97575400Y-44034700D02*
X97575400Y-41601400D01*
X97575400Y-41601400D02*
X98102200Y-41074600D01*
X98102200Y-41074600D02*
X99391300Y-41074600D01*
X99391300Y-41074600D02*
X99575400Y-41258700D01*
X99575400Y-41258700D02*
X99575400Y-43691200D01*
X99575400Y-43691200D02*
X102308700Y-46424500D01*
X102308700Y-46424500D02*
X111781300Y-46424500D01*
X111781300Y-46424500D02*
X112157500Y-46800700D01*
X112157500Y-46800700D02*
X112157500Y-47000000D01*
X162157500Y-46800700D02*
X162157500Y-47000000D01*
X148102200Y-41074600D02*
X149391300Y-41074600D01*
X147575400Y-44034700D02*
X147575400Y-41601400D01*
X147575400Y-41601400D02*
X148102200Y-41074600D01*
X152308700Y-46424500D02*
X161781300Y-46424500D01*
X147384800Y-44225300D02*
X147575400Y-44034700D01*
X144750000Y-42650000D02*
X144750000Y-44225300D01*
X144750000Y-44225300D02*
X147384800Y-44225300D01*
X149391300Y-41074600D02*
X149575400Y-41258700D01*
X149575400Y-41258700D02*
X149575400Y-43691200D01*
X149575400Y-43691200D02*
X152308700Y-46424500D01*
X161781300Y-46424500D02*
X162157500Y-46800700D01*
X148102200Y-61074600D02*
X149391300Y-61074600D01*
X162157500Y-66800700D02*
X162157500Y-67000000D01*
X112157500Y-66800700D02*
X112157500Y-67000000D01*
X98102200Y-61074600D02*
X99391300Y-61074600D01*
X97575400Y-64034700D02*
X97575400Y-61601400D01*
X97575400Y-61601400D02*
X98102200Y-61074600D01*
X102308700Y-66424500D02*
X111781300Y-66424500D01*
X97384800Y-64225300D02*
X97575400Y-64034700D01*
X94750000Y-62650000D02*
X94750000Y-64225300D01*
X94750000Y-64225300D02*
X97384800Y-64225300D01*
X99391300Y-61074600D02*
X99575400Y-61258700D01*
X99575400Y-61258700D02*
X99575400Y-63691200D01*
X99575400Y-63691200D02*
X102308700Y-66424500D01*
X111781300Y-66424500D02*
X112157500Y-66800700D01*
X147575400Y-61601400D02*
X148102200Y-61074600D01*
X147575400Y-64034700D02*
X147575400Y-61601400D01*
X149391300Y-61074600D02*
X149575400Y-61258700D01*
X144750000Y-62650000D02*
X144750000Y-64225300D01*
X147384800Y-64225300D02*
X147575400Y-64034700D01*
X149575400Y-63691200D02*
X152308700Y-66424500D01*
X161781300Y-66424500D02*
X162157500Y-66800700D01*
X152308700Y-66424500D02*
X161781300Y-66424500D01*
X149575400Y-61258700D02*
X149575400Y-63691200D01*
X144750000Y-64225300D02*
X147384800Y-64225300D01*
X148102200Y-81074600D02*
X149391300Y-81074600D01*
X162157500Y-86800700D02*
X162157500Y-87000000D01*
X112157500Y-86800700D02*
X112157500Y-87000000D01*
X98102200Y-81074600D02*
X99391300Y-81074600D01*
X97575400Y-84034700D02*
X97575400Y-81601400D01*
X94750000Y-82650000D02*
X94750000Y-84225300D01*
X99575400Y-83691200D02*
X102308700Y-86424500D01*
X102308700Y-86424500D02*
X111781300Y-86424500D01*
X97384800Y-84225300D02*
X97575400Y-84034700D01*
X97575400Y-81601400D02*
X98102200Y-81074600D01*
X99391300Y-81074600D02*
X99575400Y-81258700D01*
X111781300Y-86424500D02*
X112157500Y-86800700D01*
X94750000Y-84225300D02*
X97384800Y-84225300D01*
X99575400Y-81258700D02*
X99575400Y-83691200D01*
X149575400Y-83691200D02*
X152308700Y-86424500D01*
X152308700Y-86424500D02*
X161781300Y-86424500D01*
X149575400Y-81258700D02*
X149575400Y-83691200D01*
X144750000Y-82650000D02*
X144750000Y-84225300D01*
X147384800Y-84225300D02*
X147575400Y-84034700D01*
X147575400Y-81601400D02*
X148102200Y-81074600D01*
X149391300Y-81074600D02*
X149575400Y-81258700D01*
X161781300Y-86424500D02*
X162157500Y-86800700D01*
X147575400Y-84034700D02*
X147575400Y-81601400D01*
X144750000Y-84225300D02*
X147384800Y-84225300D01*
X149575400Y-101258700D02*
X149575400Y-103691200D01*
X144750000Y-102650000D02*
X144750000Y-104225300D01*
X147384800Y-104225300D02*
X147575400Y-104034700D01*
X99575400Y-101258700D02*
X99575400Y-103691200D01*
X149575400Y-103691200D02*
X152308700Y-106424500D01*
X152308700Y-106424500D02*
X161781300Y-106424500D01*
X149391300Y-101074600D02*
X149575400Y-101258700D01*
X147575400Y-101601400D02*
X148102200Y-101074600D01*
X161781300Y-106424500D02*
X162157500Y-106800700D01*
X147575400Y-104034700D02*
X147575400Y-101601400D01*
X148102200Y-101074600D02*
X149391300Y-101074600D01*
X112157500Y-106800700D02*
X112157500Y-107000000D01*
X98102200Y-101074600D02*
X99391300Y-101074600D01*
X162157500Y-106800700D02*
X162157500Y-107000000D01*
X97575400Y-104034700D02*
X97575400Y-101601400D01*
X94750000Y-102650000D02*
X94750000Y-104225300D01*
X99575400Y-103691200D02*
X102308700Y-106424500D01*
X99391300Y-101074600D02*
X99575400Y-101258700D01*
X111781300Y-106424500D02*
X112157500Y-106800700D01*
X94750000Y-104225300D02*
X97384800Y-104225300D01*
X97384800Y-104225300D02*
X97575400Y-104034700D01*
X102308700Y-106424500D02*
X111781300Y-106424500D01*
X97575400Y-101601400D02*
X98102200Y-101074600D01*
X144750000Y-104225300D02*
X147384800Y-104225300D01*
X148102200Y-121074600D02*
X149391300Y-121074600D01*
X147575400Y-124034700D02*
X147575400Y-121601400D01*
X112157500Y-126800700D02*
X112157500Y-127000000D01*
X98102200Y-121074600D02*
X99391300Y-121074600D01*
X111781300Y-126424500D02*
X112157500Y-126800700D01*
X97384800Y-124225300D02*
X97575400Y-124034700D01*
X99391300Y-121074600D02*
X99575400Y-121258700D01*
X94750000Y-124225300D02*
X97384800Y-124225300D01*
X149575400Y-123691200D02*
X152308700Y-126424500D01*
X147575400Y-121601400D02*
X148102200Y-121074600D01*
X161781300Y-126424500D02*
X162157500Y-126800700D01*
X152308700Y-126424500D02*
X161781300Y-126424500D01*
X149391300Y-121074600D02*
X149575400Y-121258700D01*
X149575400Y-121258700D02*
X149575400Y-123691200D01*
X144750000Y-122650000D02*
X144750000Y-124225300D01*
X99575400Y-121258700D02*
X99575400Y-123691200D01*
X147384800Y-124225300D02*
X147575400Y-124034700D01*
X99575400Y-123691200D02*
X102308700Y-126424500D01*
X94750000Y-122650000D02*
X94750000Y-124225300D01*
X97575400Y-124034700D02*
X97575400Y-121601400D01*
X162157500Y-126800700D02*
X162157500Y-127000000D01*
X97575400Y-121601400D02*
X98102200Y-121074600D01*
X102308700Y-126424500D02*
X111781300Y-126424500D01*
X144750000Y-124225300D02*
X147384800Y-124225300D01*
%TO.N,Net-(R2-Pad2)*%
X98750000Y-42650000D02*
X98750000Y-44225300D01*
X98750000Y-44225300D02*
X106600100Y-52075400D01*
X106600100Y-52075400D02*
X109335900Y-52075400D01*
X109335900Y-52075400D02*
X110536300Y-53275800D01*
X110536300Y-53275800D02*
X111760700Y-53275800D01*
X111760700Y-53275800D02*
X112157500Y-52879000D01*
X112157500Y-52879000D02*
X112157500Y-52750000D01*
X148750000Y-42650000D02*
X148750000Y-44225300D01*
X159335900Y-52075400D02*
X160536300Y-53275800D01*
X160536300Y-53275800D02*
X161760700Y-53275800D01*
X161760700Y-53275800D02*
X162157500Y-52879000D01*
X156600100Y-52075400D02*
X159335900Y-52075400D01*
X148750000Y-44225300D02*
X156600100Y-52075400D01*
X162157500Y-52879000D02*
X162157500Y-52750000D01*
X98750000Y-62650000D02*
X98750000Y-64225300D01*
X109335900Y-72075400D02*
X110536300Y-73275800D01*
X110536300Y-73275800D02*
X111760700Y-73275800D01*
X111760700Y-73275800D02*
X112157500Y-72879000D01*
X106600100Y-72075400D02*
X109335900Y-72075400D01*
X98750000Y-64225300D02*
X106600100Y-72075400D01*
X112157500Y-72879000D02*
X112157500Y-72750000D01*
X148750000Y-62650000D02*
X148750000Y-64225300D01*
X159335900Y-72075400D02*
X160536300Y-73275800D01*
X160536300Y-73275800D02*
X161760700Y-73275800D01*
X161760700Y-73275800D02*
X162157500Y-72879000D01*
X156600100Y-72075400D02*
X159335900Y-72075400D01*
X148750000Y-64225300D02*
X156600100Y-72075400D01*
X162157500Y-72879000D02*
X162157500Y-72750000D01*
X98750000Y-82650000D02*
X98750000Y-84225300D01*
X109335900Y-92075400D02*
X110536300Y-93275800D01*
X110536300Y-93275800D02*
X111760700Y-93275800D01*
X111760700Y-93275800D02*
X112157500Y-92879000D01*
X98750000Y-84225300D02*
X106600100Y-92075400D01*
X112157500Y-92879000D02*
X112157500Y-92750000D01*
X106600100Y-92075400D02*
X109335900Y-92075400D01*
X159335900Y-92075400D02*
X160536300Y-93275800D01*
X161760700Y-93275800D02*
X162157500Y-92879000D01*
X160536300Y-93275800D02*
X161760700Y-93275800D01*
X148750000Y-82650000D02*
X148750000Y-84225300D01*
X156600100Y-92075400D02*
X159335900Y-92075400D01*
X148750000Y-84225300D02*
X156600100Y-92075400D01*
X162157500Y-92879000D02*
X162157500Y-92750000D01*
X160536300Y-113275800D02*
X161760700Y-113275800D01*
X159335900Y-112075400D02*
X160536300Y-113275800D01*
X161760700Y-113275800D02*
X162157500Y-112879000D01*
X148750000Y-102650000D02*
X148750000Y-104225300D01*
X98750000Y-102650000D02*
X98750000Y-104225300D01*
X109335900Y-112075400D02*
X110536300Y-113275800D01*
X110536300Y-113275800D02*
X111760700Y-113275800D01*
X111760700Y-113275800D02*
X112157500Y-112879000D01*
X98750000Y-104225300D02*
X106600100Y-112075400D01*
X112157500Y-112879000D02*
X112157500Y-112750000D01*
X106600100Y-112075400D02*
X109335900Y-112075400D01*
X148750000Y-104225300D02*
X156600100Y-112075400D01*
X162157500Y-112879000D02*
X162157500Y-112750000D01*
X156600100Y-112075400D02*
X159335900Y-112075400D01*
X109335900Y-132075400D02*
X110536300Y-133275800D01*
X98750000Y-122650000D02*
X98750000Y-124225300D01*
X106600100Y-132075400D02*
X109335900Y-132075400D01*
X161760700Y-133275800D02*
X162157500Y-132879000D01*
X148750000Y-122650000D02*
X148750000Y-124225300D01*
X159335900Y-132075400D02*
X160536300Y-133275800D01*
X160536300Y-133275800D02*
X161760700Y-133275800D01*
X112157500Y-132879000D02*
X112157500Y-132750000D01*
X98750000Y-124225300D02*
X106600100Y-132075400D01*
X111760700Y-133275800D02*
X112157500Y-132879000D01*
X110536300Y-133275800D02*
X111760700Y-133275800D01*
X156600100Y-132075400D02*
X159335900Y-132075400D01*
X148750000Y-124225300D02*
X156600100Y-132075400D01*
X162157500Y-132879000D02*
X162157500Y-132750000D01*
%TO.N,Net-(R3-Pad1)*%
X104750000Y-42650000D02*
X104750000Y-44225300D01*
X104750000Y-44225300D02*
X105128200Y-44603500D01*
X105128200Y-44603500D02*
X105128200Y-45678600D01*
X154750000Y-42650000D02*
X154750000Y-44225300D01*
X154750000Y-44225300D02*
X155128200Y-44603500D01*
X155128200Y-44603500D02*
X155128200Y-45678600D01*
X104750000Y-62650000D02*
X104750000Y-64225300D01*
X104750000Y-64225300D02*
X105128200Y-64603500D01*
X105128200Y-64603500D02*
X105128200Y-65678600D01*
X154750000Y-62650000D02*
X154750000Y-64225300D01*
X154750000Y-64225300D02*
X155128200Y-64603500D01*
X155128200Y-64603500D02*
X155128200Y-65678600D01*
X104750000Y-82650000D02*
X104750000Y-84225300D01*
X104750000Y-84225300D02*
X105128200Y-84603500D01*
X105128200Y-84603500D02*
X105128200Y-85678600D01*
X154750000Y-84225300D02*
X155128200Y-84603500D01*
X154750000Y-82650000D02*
X154750000Y-84225300D01*
X155128200Y-84603500D02*
X155128200Y-85678600D01*
X154750000Y-104225300D02*
X155128200Y-104603500D01*
X104750000Y-102650000D02*
X104750000Y-104225300D01*
X104750000Y-104225300D02*
X105128200Y-104603500D01*
X105128200Y-104603500D02*
X105128200Y-105678600D01*
X155128200Y-104603500D02*
X155128200Y-105678600D01*
X154750000Y-102650000D02*
X154750000Y-104225300D01*
X104750000Y-124225300D02*
X105128200Y-124603500D01*
X154750000Y-124225300D02*
X155128200Y-124603500D01*
X104750000Y-122650000D02*
X104750000Y-124225300D01*
X155128200Y-124603500D02*
X155128200Y-125678600D01*
X154750000Y-122650000D02*
X154750000Y-124225300D01*
X105128200Y-124603500D02*
X105128200Y-125678600D01*
%TO.N,Net-(R4-Pad1)*%
X100750000Y-56274700D02*
X101696700Y-56274700D01*
X101696700Y-56274700D02*
X101748200Y-56223200D01*
X110750000Y-44250000D02*
X112228900Y-44250000D01*
X100750000Y-57850000D02*
X100750000Y-56274700D01*
X160750000Y-44250000D02*
X162228900Y-44250000D01*
X150750000Y-56274700D02*
X151696700Y-56274700D01*
X150750000Y-57850000D02*
X150750000Y-56274700D01*
X151696700Y-56274700D02*
X151748200Y-56223200D01*
X110750000Y-64250000D02*
X112228900Y-64250000D01*
X100750000Y-76274700D02*
X101696700Y-76274700D01*
X100750000Y-77850000D02*
X100750000Y-76274700D01*
X101696700Y-76274700D02*
X101748200Y-76223200D01*
X150750000Y-76274700D02*
X151696700Y-76274700D01*
X160750000Y-64250000D02*
X162228900Y-64250000D01*
X150750000Y-77850000D02*
X150750000Y-76274700D01*
X151696700Y-76274700D02*
X151748200Y-76223200D01*
X110750000Y-84250000D02*
X112228900Y-84250000D01*
X100750000Y-96274700D02*
X101696700Y-96274700D01*
X100750000Y-97850000D02*
X100750000Y-96274700D01*
X101696700Y-96274700D02*
X101748200Y-96223200D01*
X160750000Y-84250000D02*
X162228900Y-84250000D01*
X150750000Y-96274700D02*
X151696700Y-96274700D01*
X150750000Y-97850000D02*
X150750000Y-96274700D01*
X151696700Y-96274700D02*
X151748200Y-96223200D01*
X160750000Y-104250000D02*
X162228900Y-104250000D01*
X150750000Y-116274700D02*
X151696700Y-116274700D01*
X100750000Y-116274700D02*
X101696700Y-116274700D01*
X110750000Y-104250000D02*
X112228900Y-104250000D01*
X100750000Y-117850000D02*
X100750000Y-116274700D01*
X101696700Y-116274700D02*
X101748200Y-116223200D01*
X151696700Y-116274700D02*
X151748200Y-116223200D01*
X150750000Y-117850000D02*
X150750000Y-116274700D01*
X101696700Y-136274700D02*
X101748200Y-136223200D01*
X150750000Y-136274700D02*
X151696700Y-136274700D01*
X160750000Y-124250000D02*
X162228900Y-124250000D01*
X100750000Y-137850000D02*
X100750000Y-136274700D01*
X100750000Y-136274700D02*
X101696700Y-136274700D01*
X110750000Y-124250000D02*
X112228900Y-124250000D01*
X151696700Y-136274700D02*
X151748200Y-136223200D01*
X150750000Y-137850000D02*
X150750000Y-136274700D01*
%TO.N,Net-(SW1-Pad1)*%
X110350000Y-56750000D02*
X109274700Y-56750000D01*
X104750000Y-57850000D02*
X104750000Y-56274700D01*
X104750000Y-56274700D02*
X108799400Y-56274700D01*
X108799400Y-56274700D02*
X109274700Y-56750000D01*
X158799400Y-56274700D02*
X159274700Y-56750000D01*
X154750000Y-57850000D02*
X154750000Y-56274700D01*
X154750000Y-56274700D02*
X158799400Y-56274700D01*
X160350000Y-56750000D02*
X159274700Y-56750000D01*
X108799400Y-76274700D02*
X109274700Y-76750000D01*
X104750000Y-77850000D02*
X104750000Y-76274700D01*
X104750000Y-76274700D02*
X108799400Y-76274700D01*
X110350000Y-76750000D02*
X109274700Y-76750000D01*
X158799400Y-76274700D02*
X159274700Y-76750000D01*
X154750000Y-77850000D02*
X154750000Y-76274700D01*
X160350000Y-76750000D02*
X159274700Y-76750000D01*
X154750000Y-76274700D02*
X158799400Y-76274700D01*
X104750000Y-96274700D02*
X108799400Y-96274700D01*
X104750000Y-97850000D02*
X104750000Y-96274700D01*
X110350000Y-96750000D02*
X109274700Y-96750000D01*
X158799400Y-96274700D02*
X159274700Y-96750000D01*
X108799400Y-96274700D02*
X109274700Y-96750000D01*
X154750000Y-97850000D02*
X154750000Y-96274700D01*
X154750000Y-96274700D02*
X158799400Y-96274700D01*
X160350000Y-96750000D02*
X159274700Y-96750000D01*
X104750000Y-116274700D02*
X108799400Y-116274700D01*
X104750000Y-117850000D02*
X104750000Y-116274700D01*
X158799400Y-116274700D02*
X159274700Y-116750000D01*
X110350000Y-116750000D02*
X109274700Y-116750000D01*
X108799400Y-116274700D02*
X109274700Y-116750000D01*
X160350000Y-116750000D02*
X159274700Y-116750000D01*
X154750000Y-116274700D02*
X158799400Y-116274700D01*
X154750000Y-117850000D02*
X154750000Y-116274700D01*
X108799400Y-136274700D02*
X109274700Y-136750000D01*
X104750000Y-136274700D02*
X108799400Y-136274700D01*
X158799400Y-136274700D02*
X159274700Y-136750000D01*
X110350000Y-136750000D02*
X109274700Y-136750000D01*
X104750000Y-137850000D02*
X104750000Y-136274700D01*
X154750000Y-137850000D02*
X154750000Y-136274700D01*
X160350000Y-136750000D02*
X159274700Y-136750000D01*
X154750000Y-136274700D02*
X158799400Y-136274700D01*
%TO.N,Net-(U2-Pad1)*%
X92750000Y-57850000D02*
X92750000Y-56274700D01*
X98750000Y-57850000D02*
X98750000Y-56274700D01*
X98750000Y-56274700D02*
X92750000Y-56274700D01*
X148750000Y-56274700D02*
X142750000Y-56274700D01*
X148750000Y-57850000D02*
X148750000Y-56274700D01*
X142750000Y-57850000D02*
X142750000Y-56274700D01*
X98750000Y-76274700D02*
X92750000Y-76274700D01*
X98750000Y-77850000D02*
X98750000Y-76274700D01*
X92750000Y-77850000D02*
X92750000Y-76274700D01*
X148750000Y-77850000D02*
X148750000Y-76274700D01*
X142750000Y-77850000D02*
X142750000Y-76274700D01*
X148750000Y-76274700D02*
X142750000Y-76274700D01*
X98750000Y-96274700D02*
X92750000Y-96274700D01*
X92750000Y-97850000D02*
X92750000Y-96274700D01*
X98750000Y-97850000D02*
X98750000Y-96274700D01*
X142750000Y-97850000D02*
X142750000Y-96274700D01*
X148750000Y-97850000D02*
X148750000Y-96274700D01*
X148750000Y-96274700D02*
X142750000Y-96274700D01*
X142750000Y-117850000D02*
X142750000Y-116274700D01*
X98750000Y-116274700D02*
X92750000Y-116274700D01*
X98750000Y-117850000D02*
X98750000Y-116274700D01*
X92750000Y-117850000D02*
X92750000Y-116274700D01*
X148750000Y-116274700D02*
X142750000Y-116274700D01*
X148750000Y-117850000D02*
X148750000Y-116274700D01*
X92750000Y-137850000D02*
X92750000Y-136274700D01*
X98750000Y-137850000D02*
X98750000Y-136274700D01*
X142750000Y-137850000D02*
X142750000Y-136274700D01*
X98750000Y-136274700D02*
X92750000Y-136274700D01*
X148750000Y-136274700D02*
X142750000Y-136274700D01*
X148750000Y-137850000D02*
X148750000Y-136274700D01*
%TD*%
M02*
