solid Bottom
facet normal -2.2850584857877464e-17 -1.1961479010182674e-16 1.0
  outer loop
    vertex 0.0 0.8000000000000002 21.0
    vertex 2.200000000000001 2.199999999999999 21.000000000000004
    vertex 0.0 22.2 21.0
  endloop
endfacet
facet normal -2.2850584857877464e-17 -1.1961479010182674e-16 1.0
  outer loop
    vertex 2.200000000000001 2.199999999999999 21.000000000000004
    vertex 0.0 0.8000000000000002 21.0
    vertex 77.39999999999996 0.8000000000000002 21.0
  endloop
endfacet
facet normal -2.2850584857877464e-17 -1.1961479010182674e-16 1.0
  outer loop
    vertex 2.200000000000001 2.199999999999999 21.000000000000004
    vertex 77.39999999999996 0.8000000000000002 21.0
    vertex 75.19999999999996 2.199999999999999 21.0
  endloop
endfacet
facet normal -2.2850584857877464e-17 -1.1961479010182674e-16 1.0
  outer loop
    vertex 75.19999999999996 2.199999999999999 21.0
    vertex 77.39999999999996 0.8000000000000002 21.0
    vertex 75.19999999999996 16.900000000000002 21.000000000000007
  endloop
endfacet
facet normal -2.2850584857877464e-17 -1.1961479010182674e-16 1.0
  outer loop
    vertex 75.19999999999996 16.900000000000002 21.000000000000007
    vertex 77.39999999999996 0.8000000000000002 21.0
    vertex 75.19999999999996 19.316114305939113 21.000000000000007
  endloop
endfacet
facet normal -2.2850584857877464e-17 -1.1961479010182674e-16 1.0
  outer loop
    vertex 75.19999999999996 19.316114305939113 21.000000000000007
    vertex 77.39999999999996 0.8000000000000002 21.0
    vertex 75.19999999999996 20.8 21.000000000000004
  endloop
endfacet
facet normal -2.2850584857877464e-17 -1.1961479010182674e-16 1.0
  outer loop
    vertex 0.0 22.2 21.0
    vertex 2.200000000000001 20.8 21.000000000000004
    vertex 77.39999999999996 22.2 21.0
  endloop
endfacet
facet normal -2.2850584857877464e-17 -1.1961479010182674e-16 1.0
  outer loop
    vertex 2.200000000000001 20.8 21.000000000000004
    vertex 0.0 22.2 21.0
    vertex 2.200000000000001 2.199999999999999 21.000000000000004
  endloop
endfacet
facet normal -2.2850584857877464e-17 -1.1961479010182674e-16 1.0
  outer loop
    vertex 77.39999999999996 22.2 21.0
    vertex 2.200000000000001 20.8 21.000000000000004
    vertex 75.19999999999996 20.8 21.000000000000004
  endloop
endfacet
facet normal -2.2850584857877464e-17 -1.1961479010182674e-16 1.0
  outer loop
    vertex 77.39999999999996 22.2 21.0
    vertex 75.19999999999996 20.8 21.000000000000004
    vertex 77.39999999999996 0.8000000000000002 21.0
  endloop
endfacet
facet normal -0.0 -1.0 -0.0
  outer loop
    vertex 77.39999999999996 0.8000000000000002 21.0
    vertex 1.023801110313739e-18 0.8000000000000002 0.4000000000000001
    vertex 77.39999999999996 0.8000000000000002 0.4000000000000001
  endloop
endfacet
facet normal -0.0 -1.0 -0.0
  outer loop
    vertex 1.023801110313739e-18 0.8000000000000002 0.4000000000000001
    vertex 77.39999999999996 0.8000000000000002 21.0
    vertex 0.0 0.8000000000000002 21.0
  endloop
endfacet
facet normal 0.0 1.0 0.0
  outer loop
    vertex 0.0 22.2 21.0
    vertex 77.39999999999996 22.2 0.4000000000000001
    vertex 1.023801110313739e-18 22.2 0.4000000000000001
  endloop
endfacet
facet normal 0.0 1.0 0.0
  outer loop
    vertex 77.39999999999996 22.2 0.4000000000000001
    vertex 0.0 22.2 21.0
    vertex 77.39999999999996 22.2 21.0
  endloop
endfacet
facet normal 3.847734734085741e-18 1.0 -2.1721435621733736e-17
  outer loop
    vertex 2.200000000000001 2.199999999999999 21.000000000000004
    vertex 66.00000000000001 2.1999999999999997 2.400000000000004
    vertex 2.200000000000001 2.199999999999999 2.4000000000000012
  endloop
endfacet
facet normal 3.847734734085741e-18 1.0 -2.1721435621733736e-17
  outer loop
    vertex 66.00000000000001 2.1999999999999997 2.400000000000004
    vertex 2.200000000000001 2.199999999999999 21.000000000000004
    vertex 75.19999999999996 2.199999999999999 21.0
  endloop
endfacet
facet normal 3.847734734085741e-18 1.0 -2.1721435621733736e-17
  outer loop
    vertex 66.00000000000001 2.1999999999999993 0.40000000000000774
    vertex 75.19999999999996 2.199999999999999 21.0
    vertex 75.19999999999996 2.199999999999998 0.4000000000000025
  endloop
endfacet
facet normal 3.847734734085741e-18 1.0 -2.1721435621733736e-17
  outer loop
    vertex 75.19999999999996 2.199999999999999 21.0
    vertex 66.00000000000001 2.1999999999999993 0.40000000000000774
    vertex 66.00000000000001 2.1999999999999997 2.400000000000004
  endloop
endfacet
facet normal -4.017809388128652e-17 -7.553481649681865e-17 1.0
  outer loop
    vertex 66.00000000000003 13.8 2.4000000000000057
    vertex 2.200000000000001 20.8 2.4000000000000012
    vertex 2.1999999999999984 13.8 2.400000000000002
  endloop
endfacet
facet normal -4.017809388128652e-17 -7.553481649681865e-17 1.0
  outer loop
    vertex 2.200000000000001 20.8 2.4000000000000012
    vertex 66.00000000000003 13.8 2.4000000000000057
    vertex 66.00000000000003 20.8 2.400000000000008
  endloop
endfacet
facet normal -2.6785395920857688e-18 -2.2660444949045597e-16 1.0
  outer loop
    vertex 2.200000000000001 2.199999999999999 2.4000000000000012
    vertex 66.00000000000003 9.200000000000001 2.4000000000000057
    vertex 2.1999999999999975 9.2 2.4000000000000026
  endloop
endfacet
facet normal -2.6785395920857688e-18 -2.2660444949045597e-16 1.0
  outer loop
    vertex 66.00000000000003 9.200000000000001 2.4000000000000057
    vertex 2.200000000000001 2.199999999999999 2.4000000000000012
    vertex 66.00000000000001 2.1999999999999997 2.400000000000004
  endloop
endfacet
facet normal 1.0 -5.884487190821885e-16 -1.174986034394959e-15
  outer loop
    vertex 66.00000000000003 20.8 0.40000000000001196
    vertex 66.00000000000001 2.1999999999999997 2.400000000000004
    vertex 66.00000000000001 2.1999999999999993 0.40000000000000774
  endloop
endfacet
facet normal 1.0 -5.884487190821885e-16 -1.174986034394959e-15
  outer loop
    vertex 66.00000000000001 2.1999999999999997 2.400000000000004
    vertex 66.00000000000003 20.8 0.40000000000001196
    vertex 66.00000000000003 11.500000000000002 1.6000000000000059
  endloop
endfacet
facet normal 1.0 -5.884487190821885e-16 -1.174986034394959e-15
  outer loop
    vertex 66.00000000000001 2.1999999999999997 2.400000000000004
    vertex 66.00000000000003 11.500000000000002 1.6000000000000059
    vertex 66.00000000000003 9.200000000000001 2.4000000000000057
  endloop
endfacet
facet normal 1.0 -5.884487190821885e-16 -1.174986034394959e-15
  outer loop
    vertex 66.00000000000003 11.500000000000002 1.6000000000000059
    vertex 66.00000000000003 20.8 0.40000000000001196
    vertex 66.00000000000003 13.8 2.4000000000000057
  endloop
endfacet
facet normal 1.0 -5.884487190821885e-16 -1.174986034394959e-15
  outer loop
    vertex 66.00000000000003 13.8 2.4000000000000057
    vertex 66.00000000000003 20.8 0.40000000000001196
    vertex 66.00000000000003 20.8 2.400000000000008
  endloop
endfacet
facet normal -5.85946052646392e-18 0.32852062494127254 0.9444967967061593
  outer loop
    vertex 2.1999999999999975 9.2 2.4000000000000026
    vertex 66.00000000000003 11.500000000000002 1.6000000000000059
    vertex 2.199999999999997 11.5 1.600000000000003
  endloop
endfacet
facet normal -5.85946052646392e-18 0.32852062494127254 0.9444967967061593
  outer loop
    vertex 66.00000000000003 11.500000000000002 1.6000000000000059
    vertex 2.1999999999999975 9.2 2.4000000000000026
    vertex 66.00000000000003 9.200000000000001 2.4000000000000057
  endloop
endfacet
facet normal -1.0742344298517186e-17 -0.3285206249412726 0.9444967967061593
  outer loop
    vertex 66.00000000000003 11.500000000000002 1.6000000000000059
    vertex 2.1999999999999984 13.8 2.400000000000002
    vertex 2.199999999999997 11.5 1.600000000000003
  endloop
endfacet
facet normal -1.0742344298517186e-17 -0.3285206249412726 0.9444967967061593
  outer loop
    vertex 2.1999999999999984 13.8 2.400000000000002
    vertex 66.00000000000003 11.500000000000002 1.6000000000000059
    vertex 66.00000000000003 13.8 2.4000000000000057
  endloop
endfacet
facet normal 1.0 -4.547822761723907e-18 -1.0449923481862636e-16
  outer loop
    vertex 2.1999999999999975 9.2 2.4000000000000026
    vertex 2.200000000000001 2.199999999999999 21.000000000000004
    vertex 2.200000000000001 2.199999999999999 2.4000000000000012
  endloop
endfacet
facet normal 1.0 -4.547822761723907e-18 -1.0449923481862636e-16
  outer loop
    vertex 2.200000000000001 2.199999999999999 21.000000000000004
    vertex 2.1999999999999975 9.2 2.4000000000000026
    vertex 2.1999999999999953 8.799999999999999 8.000000000000002
  endloop
endfacet
facet normal 1.0 -4.547822761723907e-18 -1.0449923481862636e-16
  outer loop
    vertex 2.1999999999999953 8.799999999999999 8.000000000000002
    vertex 2.1999999999999975 9.2 2.4000000000000026
    vertex 2.1999999999999984 14.2 8.000000000000002
  endloop
endfacet
facet normal 1.0 -4.547822761723907e-18 -1.0449923481862636e-16
  outer loop
    vertex 2.1999999999999984 14.2 8.000000000000002
    vertex 2.1999999999999975 9.2 2.4000000000000026
    vertex 2.199999999999997 11.5 1.600000000000003
  endloop
endfacet
facet normal 1.0 -4.547822761723907e-18 -1.0449923481862636e-16
  outer loop
    vertex 2.1999999999999984 14.2 8.000000000000002
    vertex 2.199999999999997 11.5 1.600000000000003
    vertex 2.1999999999999984 13.8 2.400000000000002
  endloop
endfacet
facet normal 1.0 -4.547822761723907e-18 -1.0449923481862636e-16
  outer loop
    vertex 2.1999999999999984 14.2 8.000000000000002
    vertex 2.1999999999999984 13.8 2.400000000000002
    vertex 2.200000000000001 20.8 2.4000000000000012
  endloop
endfacet
facet normal 1.0 -4.547822761723907e-18 -1.0449923481862636e-16
  outer loop
    vertex 2.1999999999999984 14.2 8.000000000000002
    vertex 2.200000000000001 20.8 2.4000000000000012
    vertex 2.199999999999995 14.2 9.600000000000005
  endloop
endfacet
facet normal 1.0 -4.547822761723907e-18 -1.0449923481862636e-16
  outer loop
    vertex 2.199999999999995 14.2 9.600000000000005
    vertex 2.200000000000001 20.8 2.4000000000000012
    vertex 2.199999999999999 14.2 12.999999999999993
  endloop
endfacet
facet normal 1.0 -4.547822761723907e-18 -1.0449923481862636e-16
  outer loop
    vertex 2.199999999999999 14.2 12.999999999999993
    vertex 2.200000000000001 20.8 2.4000000000000012
    vertex 2.1999999999999953 14.2 14.600000000000001
  endloop
endfacet
facet normal 1.0 -4.547822761723907e-18 -1.0449923481862636e-16
  outer loop
    vertex 2.200000000000001 2.199999999999999 21.000000000000004
    vertex 2.1999999999999953 8.799999999999999 14.600000000000001
    vertex 2.200000000000001 20.8 21.000000000000004
  endloop
endfacet
facet normal 1.0 -4.547822761723907e-18 -1.0449923481862636e-16
  outer loop
    vertex 2.1999999999999953 8.799999999999999 14.600000000000001
    vertex 2.200000000000001 2.199999999999999 21.000000000000004
    vertex 2.1999999999999953 8.799999999999999 8.000000000000002
  endloop
endfacet
facet normal 1.0 -4.547822761723907e-18 -1.0449923481862636e-16
  outer loop
    vertex 2.1999999999999953 8.799999999999999 14.600000000000001
    vertex 2.1999999999999953 8.799999999999999 8.000000000000002
    vertex 2.199999999999995 8.799999999999999 9.600000000000005
  endloop
endfacet
facet normal 1.0 -4.547822761723907e-18 -1.0449923481862636e-16
  outer loop
    vertex 2.1999999999999953 8.799999999999999 14.600000000000001
    vertex 2.199999999999995 8.799999999999999 9.600000000000005
    vertex 2.1999999999999953 8.799999999999999 12.999999999999993
  endloop
endfacet
facet normal 1.0 -4.547822761723907e-18 -1.0449923481862636e-16
  outer loop
    vertex 2.200000000000001 20.8 21.000000000000004
    vertex 2.1999999999999953 8.799999999999999 14.600000000000001
    vertex 2.1999999999999953 14.2 14.600000000000001
  endloop
endfacet
facet normal 1.0 -4.547822761723907e-18 -1.0449923481862636e-16
  outer loop
    vertex 2.200000000000001 20.8 21.000000000000004
    vertex 2.1999999999999953 14.2 14.600000000000001
    vertex 2.200000000000001 20.8 2.4000000000000012
  endloop
endfacet
facet normal 1.0 -4.547822761723907e-18 -1.0449923481862636e-16
  outer loop
    vertex 2.199999999999995 14.2 9.600000000000005
    vertex 2.1999999999999953 8.799999999999999 12.999999999999993
    vertex 2.199999999999995 8.799999999999999 9.600000000000005
  endloop
endfacet
facet normal 1.0 -4.547822761723907e-18 -1.0449923481862636e-16
  outer loop
    vertex 2.1999999999999953 8.799999999999999 12.999999999999993
    vertex 2.199999999999995 14.2 9.600000000000005
    vertex 2.199999999999999 14.2 12.999999999999993
  endloop
endfacet
facet normal 3.263850095541548e-16 1.0 0.0
  outer loop
    vertex -9.50342729186109e-15 8.799999999999999 14.599999999999998
    vertex 0.7999999999999912 8.799999999999999 12.999999999999993
    vertex -8.915934274663619e-15 8.799999999999999 12.999999999999991
  endloop
endfacet
facet normal 3.263850095541548e-16 1.0 0.0
  outer loop
    vertex 0.7999999999999912 8.799999999999999 12.999999999999993
    vertex -9.50342729186109e-15 8.799999999999999 14.599999999999998
    vertex 2.1999999999999953 8.799999999999999 12.999999999999993
  endloop
endfacet
facet normal 3.263850095541548e-16 1.0 0.0
  outer loop
    vertex 2.1999999999999953 8.799999999999999 12.999999999999993
    vertex -9.50342729186109e-15 8.799999999999999 14.599999999999998
    vertex 2.1999999999999953 8.799999999999999 14.600000000000001
  endloop
endfacet
facet normal -1.4687325429936923e-15 9.587445701549888e-31 1.0
  outer loop
    vertex 2.1999999999999953 8.799999999999999 12.999999999999993
    vertex 0.7999999999999946 14.2 12.999999999999993
    vertex 0.7999999999999912 8.799999999999999 12.999999999999993
  endloop
endfacet
facet normal -1.4687325429936923e-15 9.587445701549888e-31 1.0
  outer loop
    vertex 0.7999999999999946 14.2 12.999999999999993
    vertex 2.1999999999999953 8.799999999999999 12.999999999999993
    vertex 2.199999999999999 14.2 12.999999999999993
  endloop
endfacet
facet normal -3.263850095541548e-16 -1.0 -9.58744570154989e-31
  outer loop
    vertex 2.1999999999999953 14.2 14.600000000000001
    vertex 0.7999999999999946 14.2 12.999999999999993
    vertex 2.199999999999999 14.2 12.999999999999993
  endloop
endfacet
facet normal -3.263850095541548e-16 -1.0 -9.58744570154989e-31
  outer loop
    vertex 0.7999999999999946 14.2 12.999999999999993
    vertex 2.1999999999999953 14.2 14.600000000000001
    vertex -9.50342729186109e-15 14.2 14.599999999999998
  endloop
endfacet
facet normal -3.263850095541548e-16 -1.0 -9.58744570154989e-31
  outer loop
    vertex -9.50342729186109e-15 14.2 14.599999999999998
    vertex -5.390976171478744e-15 14.2 12.999999999999991
    vertex 0.7999999999999946 14.2 12.999999999999993
  endloop
endfacet
facet normal 1.4687325429936923e-15 0.0 -1.0
  outer loop
    vertex 2.1999999999999953 14.2 14.600000000000001
    vertex -9.50342729186109e-15 8.799999999999999 14.599999999999998
    vertex -9.50342729186109e-15 14.2 14.599999999999998
  endloop
endfacet
facet normal 1.4687325429936923e-15 0.0 -1.0
  outer loop
    vertex -9.50342729186109e-15 8.799999999999999 14.599999999999998
    vertex 2.1999999999999953 14.2 14.600000000000001
    vertex 2.1999999999999953 8.799999999999999 14.600000000000001
  endloop
endfacet
facet normal -0.0 -0.0 1.0
  outer loop
    vertex 1.3784848930483895e-15 8.799999999999999 8.000000000000002
    vertex 0.7999999999999999 9.499999999999998 8.000000000000002
    vertex -1.7234688493668955e-16 9.499999999999998 8.000000000000002
  endloop
endfacet
facet normal -0.0 -0.0 1.0
  outer loop
    vertex 0.7999999999999999 9.499999999999998 8.000000000000002
    vertex 1.3784848930483895e-15 8.799999999999999 8.000000000000002
    vertex 2.1999999999999953 8.799999999999999 8.000000000000002
  endloop
endfacet
facet normal -0.0 -0.0 1.0
  outer loop
    vertex 0.7999999999999999 9.499999999999998 8.000000000000002
    vertex 2.1999999999999953 8.799999999999999 8.000000000000002
    vertex 0.800000000000002 13.499999999999998 8.000000000000002
  endloop
endfacet
facet normal -0.0 -0.0 1.0
  outer loop
    vertex 0.800000000000002 13.499999999999998 8.000000000000002
    vertex 4.198451375596283e-15 14.2 8.000000000000002
    vertex 1.9165171762098984e-15 13.499999999999998 8.000000000000002
  endloop
endfacet
facet normal -0.0 -0.0 1.0
  outer loop
    vertex 4.198451375596283e-15 14.2 8.000000000000002
    vertex 0.800000000000002 13.499999999999998 8.000000000000002
    vertex 2.1999999999999984 14.2 8.000000000000002
  endloop
endfacet
facet normal -0.0 -0.0 1.0
  outer loop
    vertex 2.1999999999999984 14.2 8.000000000000002
    vertex 0.800000000000002 13.499999999999998 8.000000000000002
    vertex 2.1999999999999953 8.799999999999999 8.000000000000002
  endloop
endfacet
facet normal -2.937465085987394e-16 -1.0 -7.76583101825542e-31
  outer loop
    vertex 2.199999999999995 14.2 9.600000000000005
    vertex 4.198451375596283e-15 14.2 8.000000000000002
    vertex 2.1999999999999984 14.2 8.000000000000002
  endloop
endfacet
facet normal -2.937465085987394e-16 -1.0 -7.76583101825542e-31
  outer loop
    vertex 4.198451375596283e-15 14.2 8.000000000000002
    vertex 2.199999999999995 14.2 9.600000000000005
    vertex 8.49741177570662e-16 14.2 9.600000000000005
  endloop
endfacet
facet normal -2.937465085987394e-16 -1.0 -7.76583101825542e-31
  outer loop
    vertex 8.49741177570662e-16 14.2 9.600000000000005
    vertex 2.199999999999995 14.2 9.600000000000005
    vertex 0.800000000000001 14.2 9.600000000000007
  endloop
endfacet
facet normal 1.3218592886943242e-15 0.0 -1.0
  outer loop
    vertex 2.199999999999995 14.2 9.600000000000005
    vertex 0.800000000000001 8.799999999999999 9.600000000000007
    vertex 0.800000000000001 14.2 9.600000000000007
  endloop
endfacet
facet normal 1.3218592886943242e-15 0.0 -1.0
  outer loop
    vertex 0.800000000000001 8.799999999999999 9.600000000000007
    vertex 2.199999999999995 14.2 9.600000000000005
    vertex 2.199999999999995 8.799999999999999 9.600000000000005
  endloop
endfacet
facet normal 2.937465085987394e-16 1.0 0.0
  outer loop
    vertex 8.49741177570662e-16 8.799999999999999 9.600000000000005
    vertex 2.1999999999999953 8.799999999999999 8.000000000000002
    vertex 1.3784848930483895e-15 8.799999999999999 8.000000000000002
  endloop
endfacet
facet normal 2.937465085987394e-16 1.0 0.0
  outer loop
    vertex 2.1999999999999953 8.799999999999999 8.000000000000002
    vertex 8.49741177570662e-16 8.799999999999999 9.600000000000005
    vertex 2.199999999999995 8.799999999999999 9.600000000000005
  endloop
endfacet
facet normal 2.937465085987394e-16 1.0 0.0
  outer loop
    vertex 2.199999999999995 8.799999999999999 9.600000000000005
    vertex 8.49741177570662e-16 8.799999999999999 9.600000000000005
    vertex 0.800000000000001 8.799999999999999 9.600000000000007
  endloop
endfacet
facet normal 1.0 0.0 0.0
  outer loop
    vertex 77.39999999999996 7.499999999999999 0.40000000000000807
    vertex 77.39999999999996 0.8000000000000002 21.0
    vertex 77.39999999999996 0.8000000000000002 0.4000000000000001
  endloop
endfacet
facet normal 1.0 0.0 0.0
  outer loop
    vertex 77.39999999999996 0.8000000000000002 21.0
    vertex 77.39999999999996 7.499999999999999 0.40000000000000807
    vertex 77.39999999999996 22.2 21.0
  endloop
endfacet
facet normal 1.0 0.0 0.0
  outer loop
    vertex 77.39999999999996 22.2 21.0
    vertex 77.39999999999996 7.499999999999999 0.40000000000000807
    vertex 77.39999999999996 15.499999999999995 0.40000000000000807
  endloop
endfacet
facet normal 1.0 0.0 0.0
  outer loop
    vertex 77.39999999999996 22.2 21.0
    vertex 77.39999999999996 15.499999999999995 0.40000000000000807
    vertex 77.39999999999996 22.2 0.4000000000000001
  endloop
endfacet
facet normal -1.0 0.0 0.0
  outer loop
    vertex 75.19999999999996 2.199999999999999 21.0
    vertex 75.19999999999996 16.900000000000002 0.4000000000000176
    vertex 75.19999999999996 2.199999999999998 0.4000000000000025
  endloop
endfacet
facet normal -1.0 0.0 0.0
  outer loop
    vertex 75.19999999999996 16.900000000000002 0.4000000000000176
    vertex 75.19999999999996 2.199999999999999 21.0
    vertex 75.19999999999996 16.900000000000002 21.000000000000007
  endloop
endfacet
facet normal 6.839901321592394e-17 -1.9788437716484418e-16 1.0
  outer loop
    vertex 71.39999999999999 4.199999999999998 21.0
    vertex 70.19999999999999 16.900000000000002 21.000000000000007
    vertex 70.19999999999999 4.1999999999999975 21.000000000000007
  endloop
endfacet
facet normal 6.839901321592394e-17 -1.9788437716484418e-16 1.0
  outer loop
    vertex 70.19999999999999 16.900000000000002 21.000000000000007
    vertex 71.39999999999999 4.199999999999998 21.0
    vertex 70.30562993850388 17.70233903981781 21.000000000000007
  endloop
endfacet
facet normal 6.839901321592394e-17 -1.9788437716484418e-16 1.0
  outer loop
    vertex 70.30562993850388 17.70233903981781 21.000000000000007
    vertex 71.39999999999999 4.199999999999998 21.0
    vertex 70.61532124826823 18.449999999999996 21.000000000000007
  endloop
endfacet
facet normal 6.839901321592394e-17 -1.9788437716484418e-16 1.0
  outer loop
    vertex 70.61532124826823 18.449999999999996 21.000000000000007
    vertex 71.39999999999999 4.199999999999998 21.0
    vertex 71.1079689783217 19.092031021678288 21.000000000000007
  endloop
endfacet
facet normal 6.839901321592394e-17 -1.9788437716484418e-16 1.0
  outer loop
    vertex 71.1079689783217 19.092031021678288 21.000000000000007
    vertex 71.39999999999999 4.199999999999998 21.0
    vertex 71.39999999999999 16.900000000000002 21.000000000000007
  endloop
endfacet
facet normal 6.839901321592394e-17 -1.9788437716484418e-16 1.0
  outer loop
    vertex 71.1079689783217 19.092031021678288 21.000000000000007
    vertex 71.39999999999999 16.900000000000002 21.000000000000007
    vertex 71.74999999999999 19.584678751731747 21.000000000000007
  endloop
endfacet
facet normal 6.839901321592394e-17 -1.9788437716484418e-16 1.0
  outer loop
    vertex 71.74999999999999 19.584678751731747 21.000000000000007
    vertex 71.39999999999999 16.900000000000002 21.000000000000007
    vertex 71.46474093005077 17.39175618569479 21.000000000000007
  endloop
endfacet
facet normal 6.839901321592394e-17 -1.9788437716484418e-16 1.0
  outer loop
    vertex 71.74999999999999 19.584678751731747 21.000000000000007
    vertex 71.46474093005077 17.39175618569479 21.000000000000007
    vertex 71.65455173280955 17.849999999999994 21.000000000000007
  endloop
endfacet
facet normal 6.839901321592394e-17 -1.9788437716484418e-16 1.0
  outer loop
    vertex 71.74999999999999 19.584678751731747 21.000000000000007
    vertex 71.65455173280955 17.849999999999994 21.000000000000007
    vertex 71.95649711574555 18.243502884254433 21.000000000000007
  endloop
endfacet
facet normal 6.839901321592394e-17 -1.9788437716484418e-16 1.0
  outer loop
    vertex 71.74999999999999 19.584678751731747 21.000000000000007
    vertex 71.95649711574555 18.243502884254433 21.000000000000007
    vertex 72.49766096018217 19.894370061496097 21.000000000000007
  endloop
endfacet
facet normal 6.839901321592394e-17 -1.9788437716484418e-16 1.0
  outer loop
    vertex 72.49766096018217 19.894370061496097 21.000000000000007
    vertex 71.95649711574555 18.243502884254433 21.000000000000007
    vertex 72.34999999999998 18.545448267190423 21.000000000000007
  endloop
endfacet
facet normal 6.839901321592394e-17 -1.9788437716484418e-16 1.0
  outer loop
    vertex 72.49766096018217 19.894370061496097 21.000000000000007
    vertex 72.34999999999998 18.545448267190423 21.000000000000007
    vertex 72.8082438143052 18.73525906994922 21.000000000000007
  endloop
endfacet
facet normal 6.839901321592394e-17 -1.9788437716484418e-16 1.0
  outer loop
    vertex 72.49766096018217 19.894370061496097 21.000000000000007
    vertex 72.8082438143052 18.73525906994922 21.000000000000007
    vertex 73.29999999999998 19.999999999999986 21.000000000000007
  endloop
endfacet
facet normal 6.839901321592394e-17 -1.9788437716484418e-16 1.0
  outer loop
    vertex 73.29999999999998 19.999999999999986 21.000000000000007
    vertex 72.8082438143052 18.73525906994922 21.000000000000007
    vertex 73.29999999999998 18.799999999999986 21.000000000000007
  endloop
endfacet
facet normal 6.839901321592394e-17 -1.9788437716484418e-16 1.0
  outer loop
    vertex 73.29999999999998 19.999999999999986 21.000000000000007
    vertex 73.29999999999998 18.799999999999986 21.000000000000007
    vertex 73.79175618569477 18.73525906994922 21.000000000000007
  endloop
endfacet
facet normal 6.839901321592394e-17 -1.9788437716484418e-16 1.0
  outer loop
    vertex 73.29999999999998 19.999999999999986 21.000000000000007
    vertex 73.79175618569477 18.73525906994922 21.000000000000007
    vertex 74.10233903981779 19.894370061496097 21.000000000000007
  endloop
endfacet
facet normal 6.839901321592394e-17 -1.9788437716484418e-16 1.0
  outer loop
    vertex 74.10233903981779 19.894370061496097 21.000000000000007
    vertex 73.79175618569477 18.73525906994922 21.000000000000007
    vertex 74.24999999999997 18.545448267190423 21.000000000000007
  endloop
endfacet
facet normal 6.839901321592394e-17 -1.9788437716484418e-16 1.0
  outer loop
    vertex 74.10233903981779 19.894370061496097 21.000000000000007
    vertex 74.24999999999997 18.545448267190423 21.000000000000007
    vertex 74.84999999999997 19.584678751731747 21.000000000000007
  endloop
endfacet
facet normal 6.839901321592394e-17 -1.9788437716484418e-16 1.0
  outer loop
    vertex 74.84999999999997 19.584678751731747 21.000000000000007
    vertex 74.24999999999997 18.545448267190423 21.000000000000007
    vertex 74.6435028842544 18.243502884254433 21.000000000000007
  endloop
endfacet
facet normal 6.839901321592394e-17 -1.9788437716484418e-16 1.0
  outer loop
    vertex 74.84999999999997 19.584678751731747 21.000000000000007
    vertex 74.6435028842544 18.243502884254433 21.000000000000007
    vertex 74.9454482671904 17.849999999999994 21.000000000000007
  endloop
endfacet
facet normal 6.839901321592394e-17 -1.9788437716484418e-16 1.0
  outer loop
    vertex 74.84999999999997 19.584678751731747 21.000000000000007
    vertex 74.9454482671904 17.849999999999994 21.000000000000007
    vertex 75.19999999999996 19.316114305939113 21.000000000000007
  endloop
endfacet
facet normal 6.839901321592394e-17 -1.9788437716484418e-16 1.0
  outer loop
    vertex 75.19999999999996 19.316114305939113 21.000000000000007
    vertex 74.9454482671904 17.849999999999994 21.000000000000007
    vertex 75.13525906994919 17.39175618569479 21.000000000000007
  endloop
endfacet
facet normal 6.839901321592394e-17 -1.9788437716484418e-16 1.0
  outer loop
    vertex 75.19999999999996 19.316114305939113 21.000000000000007
    vertex 75.13525906994919 17.39175618569479 21.000000000000007
    vertex 75.19999999999996 16.900000000000002 21.000000000000007
  endloop
endfacet
facet normal -6.839901321592398e-17 1.9788437716484426e-16 -1.0
  outer loop
    vertex 71.74999999999999 19.584678751731747 0.4000000000000176
    vertex 71.39999999999999 16.900000000000002 0.4000000000000176
    vertex 71.1079689783217 19.092031021678288 0.4000000000000176
  endloop
endfacet
facet normal -6.839901321592398e-17 1.9788437716484426e-16 -1.0
  outer loop
    vertex 71.39999999999999 16.900000000000002 0.4000000000000176
    vertex 71.74999999999999 19.584678751731747 0.4000000000000176
    vertex 71.46474093005077 17.39175618569479 0.4000000000000176
  endloop
endfacet
facet normal -6.839901321592398e-17 1.9788437716484426e-16 -1.0
  outer loop
    vertex 71.46474093005077 17.39175618569479 0.4000000000000176
    vertex 71.74999999999999 19.584678751731747 0.4000000000000176
    vertex 71.65455173280955 17.849999999999994 0.4000000000000176
  endloop
endfacet
facet normal -6.839901321592398e-17 1.9788437716484426e-16 -1.0
  outer loop
    vertex 71.65455173280955 17.849999999999994 0.4000000000000176
    vertex 71.74999999999999 19.584678751731747 0.4000000000000176
    vertex 71.95649711574555 18.243502884254433 0.4000000000000176
  endloop
endfacet
facet normal -6.839901321592398e-17 1.9788437716484426e-16 -1.0
  outer loop
    vertex 71.95649711574555 18.243502884254433 0.4000000000000176
    vertex 71.74999999999999 19.584678751731747 0.4000000000000176
    vertex 72.49766096018217 19.894370061496097 0.4000000000000176
  endloop
endfacet
facet normal -6.839901321592398e-17 1.9788437716484426e-16 -1.0
  outer loop
    vertex 71.95649711574555 18.243502884254433 0.4000000000000176
    vertex 72.49766096018217 19.894370061496097 0.4000000000000176
    vertex 72.34999999999998 18.545448267190423 0.4000000000000176
  endloop
endfacet
facet normal -6.839901321592398e-17 1.9788437716484426e-16 -1.0
  outer loop
    vertex 72.34999999999998 18.545448267190423 0.4000000000000176
    vertex 72.49766096018217 19.894370061496097 0.4000000000000176
    vertex 72.8082438143052 18.73525906994922 0.4000000000000176
  endloop
endfacet
facet normal -6.839901321592398e-17 1.9788437716484426e-16 -1.0
  outer loop
    vertex 72.8082438143052 18.73525906994922 0.4000000000000176
    vertex 72.49766096018217 19.894370061496097 0.4000000000000176
    vertex 73.29999999999998 19.999999999999986 0.4000000000000176
  endloop
endfacet
facet normal -6.839901321592398e-17 1.9788437716484426e-16 -1.0
  outer loop
    vertex 72.8082438143052 18.73525906994922 0.4000000000000176
    vertex 73.29999999999998 19.999999999999986 0.4000000000000176
    vertex 73.29999999999998 18.799999999999986 0.4000000000000176
  endloop
endfacet
facet normal -6.839901321592398e-17 1.9788437716484426e-16 -1.0
  outer loop
    vertex 73.29999999999998 18.799999999999986 0.4000000000000176
    vertex 73.29999999999998 19.999999999999986 0.4000000000000176
    vertex 74.10233903981779 19.894370061496097 0.4000000000000176
  endloop
endfacet
facet normal -6.839901321592398e-17 1.9788437716484426e-16 -1.0
  outer loop
    vertex 73.29999999999998 18.799999999999986 0.4000000000000176
    vertex 74.10233903981779 19.894370061496097 0.4000000000000176
    vertex 73.79175618569477 18.73525906994922 0.4000000000000176
  endloop
endfacet
facet normal -6.839901321592398e-17 1.9788437716484426e-16 -1.0
  outer loop
    vertex 73.79175618569477 18.73525906994922 0.4000000000000176
    vertex 74.10233903981779 19.894370061496097 0.4000000000000176
    vertex 74.24999999999997 18.545448267190423 0.4000000000000176
  endloop
endfacet
facet normal -6.839901321592398e-17 1.9788437716484426e-16 -1.0
  outer loop
    vertex 74.24999999999997 18.545448267190423 0.4000000000000176
    vertex 74.10233903981779 19.894370061496097 0.4000000000000176
    vertex 74.84999999999997 19.584678751731747 0.4000000000000176
  endloop
endfacet
facet normal -6.839901321592398e-17 1.9788437716484426e-16 -1.0
  outer loop
    vertex 74.24999999999997 18.545448267190423 0.4000000000000176
    vertex 74.84999999999997 19.584678751731747 0.4000000000000176
    vertex 74.6435028842544 18.243502884254433 0.4000000000000176
  endloop
endfacet
facet normal -6.839901321592398e-17 1.9788437716484426e-16 -1.0
  outer loop
    vertex 74.6435028842544 18.243502884254433 0.4000000000000176
    vertex 74.84999999999997 19.584678751731747 0.4000000000000176
    vertex 74.9454482671904 17.849999999999994 0.4000000000000176
  endloop
endfacet
facet normal -6.839901321592398e-17 1.9788437716484426e-16 -1.0
  outer loop
    vertex 74.9454482671904 17.849999999999994 0.4000000000000176
    vertex 74.84999999999997 19.584678751731747 0.4000000000000176
    vertex 75.19999999999996 19.316114305939113 0.4000000000000176
  endloop
endfacet
facet normal -6.839901321592398e-17 1.9788437716484426e-16 -1.0
  outer loop
    vertex 74.9454482671904 17.849999999999994 0.4000000000000176
    vertex 75.19999999999996 19.316114305939113 0.4000000000000176
    vertex 75.13525906994919 17.39175618569479 0.4000000000000176
  endloop
endfacet
facet normal -6.839901321592398e-17 1.9788437716484426e-16 -1.0
  outer loop
    vertex 75.13525906994919 17.39175618569479 0.4000000000000176
    vertex 75.19999999999996 19.316114305939113 0.4000000000000176
    vertex 75.19999999999996 16.900000000000002 0.4000000000000176
  endloop
endfacet
facet normal -6.839901321592398e-17 1.9788437716484426e-16 -1.0
  outer loop
    vertex 70.30562993850388 17.70233903981781 0.4000000000000176
    vertex 70.19999999999999 4.199999999999999 0.4000000000000176
    vertex 70.19999999999999 16.900000000000002 0.4000000000000176
  endloop
endfacet
facet normal -6.839901321592398e-17 1.9788437716484426e-16 -1.0
  outer loop
    vertex 70.19999999999999 4.199999999999999 0.4000000000000176
    vertex 70.30562993850388 17.70233903981781 0.4000000000000176
    vertex 71.39999999999999 4.2 0.40000000000001196
  endloop
endfacet
facet normal -6.839901321592398e-17 1.9788437716484426e-16 -1.0
  outer loop
    vertex 71.39999999999999 4.2 0.40000000000001196
    vertex 70.30562993850388 17.70233903981781 0.4000000000000176
    vertex 70.61532124826823 18.449999999999996 0.4000000000000176
  endloop
endfacet
facet normal -6.839901321592398e-17 1.9788437716484426e-16 -1.0
  outer loop
    vertex 71.39999999999999 4.2 0.40000000000001196
    vertex 70.61532124826823 18.449999999999996 0.4000000000000176
    vertex 71.1079689783217 19.092031021678288 0.4000000000000176
  endloop
endfacet
facet normal -6.839901321592398e-17 1.9788437716484426e-16 -1.0
  outer loop
    vertex 71.39999999999999 4.2 0.40000000000001196
    vertex 71.1079689783217 19.092031021678288 0.4000000000000176
    vertex 71.39999999999999 16.900000000000002 0.4000000000000176
  endloop
endfacet
facet normal -1.0 0.0 6.839901321592394e-17
  outer loop
    vertex 70.19999999999999 4.1999999999999975 21.000000000000007
    vertex 70.19999999999999 8.799999999999999 14.600000000000007
    vertex 70.19999999999999 4.199999999999999 0.4000000000000176
  endloop
endfacet
facet normal -1.0 0.0 6.839901321592394e-17
  outer loop
    vertex 70.19999999999999 8.799999999999999 14.600000000000007
    vertex 70.19999999999999 4.1999999999999975 21.000000000000007
    vertex 70.19999999999999 16.900000000000002 21.000000000000007
  endloop
endfacet
facet normal -1.0 0.0 6.839901321592394e-17
  outer loop
    vertex 70.19999999999999 8.799999999999999 14.600000000000007
    vertex 70.19999999999999 16.900000000000002 21.000000000000007
    vertex 70.19999999999999 14.200000000000005 14.600000000000007
  endloop
endfacet
facet normal -1.0 0.0 6.839901321592394e-17
  outer loop
    vertex 70.19999999999999 14.200000000000005 14.600000000000007
    vertex 70.19999999999999 16.900000000000002 21.000000000000007
    vertex 70.19999999999999 14.200000000000005 13.000000000000007
  endloop
endfacet
facet normal -1.0 0.0 6.839901321592394e-17
  outer loop
    vertex 70.19999999999999 14.200000000000005 13.000000000000007
    vertex 70.19999999999999 16.900000000000002 21.000000000000007
    vertex 70.19999999999999 14.200000000000008 9.600000000000009
  endloop
endfacet
facet normal -1.0 0.0 6.839901321592394e-17
  outer loop
    vertex 70.19999999999999 14.200000000000008 9.600000000000009
    vertex 70.19999999999999 16.900000000000002 21.000000000000007
    vertex 70.19999999999999 14.200000000000008 8.000000000000007
  endloop
endfacet
facet normal -1.0 0.0 6.839901321592394e-17
  outer loop
    vertex 70.19999999999999 4.199999999999999 0.4000000000000176
    vertex 70.19999999999999 8.799999999999999 8.000000000000007
    vertex 70.19999999999999 16.900000000000002 0.4000000000000176
  endloop
endfacet
facet normal -1.0 0.0 6.839901321592394e-17
  outer loop
    vertex 70.19999999999999 8.799999999999999 8.000000000000007
    vertex 70.19999999999999 4.199999999999999 0.4000000000000176
    vertex 70.19999999999999 8.799999999999999 14.600000000000007
  endloop
endfacet
facet normal -1.0 0.0 6.839901321592394e-17
  outer loop
    vertex 70.19999999999999 8.799999999999999 8.000000000000007
    vertex 70.19999999999999 8.799999999999999 14.600000000000007
    vertex 70.19999999999999 8.799999999999999 13.000000000000007
  endloop
endfacet
facet normal -1.0 0.0 6.839901321592394e-17
  outer loop
    vertex 70.19999999999999 8.799999999999999 8.000000000000007
    vertex 70.19999999999999 8.799999999999999 13.000000000000007
    vertex 70.19999999999999 8.799999999999999 9.600000000000009
  endloop
endfacet
facet normal -1.0 0.0 6.839901321592394e-17
  outer loop
    vertex 70.19999999999999 16.900000000000002 0.4000000000000176
    vertex 70.19999999999999 8.799999999999999 8.000000000000007
    vertex 70.19999999999999 14.200000000000008 8.000000000000007
  endloop
endfacet
facet normal -1.0 0.0 6.839901321592394e-17
  outer loop
    vertex 70.19999999999999 16.900000000000002 0.4000000000000176
    vertex 70.19999999999999 14.200000000000008 8.000000000000007
    vertex 70.19999999999999 16.900000000000002 21.000000000000007
  endloop
endfacet
facet normal -1.0 0.0 6.839901321592394e-17
  outer loop
    vertex 70.19999999999999 14.200000000000005 13.000000000000007
    vertex 70.19999999999999 8.799999999999999 9.600000000000009
    vertex 70.19999999999999 8.799999999999999 13.000000000000007
  endloop
endfacet
facet normal -1.0 0.0 6.839901321592394e-17
  outer loop
    vertex 70.19999999999999 8.799999999999999 9.600000000000009
    vertex 70.19999999999999 14.200000000000005 13.000000000000007
    vertex 70.19999999999999 14.200000000000008 9.600000000000009
  endloop
endfacet
facet normal -0.9914448613738102 0.13052619222005443 9.364294442713133e-17
  outer loop
    vertex 70.30562993850388 17.70233903981781 21.000000000000007
    vertex 70.19999999999999 16.900000000000002 0.4000000000000176
    vertex 70.19999999999999 16.900000000000002 21.000000000000007
  endloop
endfacet
facet normal -0.9914448613738102 0.13052619222005443 9.364294442713133e-17
  outer loop
    vertex 70.19999999999999 16.900000000000002 0.4000000000000176
    vertex 70.30562993850388 17.70233903981781 21.000000000000007
    vertex 70.30562993850388 17.70233903981781 0.4000000000000176
  endloop
endfacet
facet normal -0.9238795325112882 0.3826834323650863 1.389195210190311e-16
  outer loop
    vertex 70.61532124826823 18.449999999999996 21.000000000000007
    vertex 70.30562993850388 17.70233903981781 0.4000000000000176
    vertex 70.30562993850388 17.70233903981781 21.000000000000007
  endloop
endfacet
facet normal -0.9238795325112882 0.3826834323650863 1.389195210190311e-16
  outer loop
    vertex 70.30562993850388 17.70233903981781 0.4000000000000176
    vertex 70.61532124826823 18.449999999999996 21.000000000000007
    vertex 70.61532124826823 18.449999999999996 0.4000000000000176
  endloop
endfacet
facet normal -0.793353340291233 0.6087614290087238 1.7472896182884927e-16
  outer loop
    vertex 71.1079689783217 19.092031021678288 21.000000000000007
    vertex 70.61532124826823 18.449999999999996 0.4000000000000176
    vertex 70.61532124826823 18.449999999999996 21.000000000000007
  endloop
endfacet
facet normal -0.793353340291233 0.6087614290087238 1.7472896182884927e-16
  outer loop
    vertex 70.61532124826823 18.449999999999996 0.4000000000000176
    vertex 71.1079689783217 19.092031021678288 21.000000000000007
    vertex 71.1079689783217 19.092031021678288 0.4000000000000176
  endloop
endfacet
facet normal -0.6087614290087265 0.7933533402912306 1.9863091264329147e-16
  outer loop
    vertex 71.1079689783217 19.092031021678288 21.000000000000007
    vertex 71.74999999999999 19.584678751731747 0.4000000000000176
    vertex 71.1079689783217 19.092031021678288 0.4000000000000176
  endloop
endfacet
facet normal -0.6087614290087265 0.7933533402912306 1.9863091264329147e-16
  outer loop
    vertex 71.74999999999999 19.584678751731747 0.4000000000000176
    vertex 71.1079689783217 19.092031021678288 21.000000000000007
    vertex 71.74999999999999 19.584678751731747 21.000000000000007
  endloop
endfacet
facet normal -0.3826834323650869 0.9238795325112882 2.089964950141984e-16
  outer loop
    vertex 71.74999999999999 19.584678751731747 21.000000000000007
    vertex 72.49766096018217 19.894370061496097 0.4000000000000176
    vertex 71.74999999999999 19.584678751731747 0.4000000000000176
  endloop
endfacet
facet normal -0.3826834323650869 0.9238795325112882 2.089964950141984e-16
  outer loop
    vertex 72.49766096018217 19.894370061496097 0.4000000000000176
    vertex 71.74999999999999 19.584678751731747 21.000000000000007
    vertex 72.49766096018217 19.894370061496097 21.000000000000007
  endloop
endfacet
facet normal -0.13052619222005102 0.9914448613738105 2.0511931163292528e-16
  outer loop
    vertex 72.49766096018217 19.894370061496097 21.000000000000007
    vertex 73.29999999999998 19.999999999999986 0.4000000000000176
    vertex 72.49766096018217 19.894370061496097 0.4000000000000176
  endloop
endfacet
facet normal -0.13052619222005102 0.9914448613738105 2.0511931163292528e-16
  outer loop
    vertex 73.29999999999998 19.999999999999986 0.4000000000000176
    vertex 72.49766096018217 19.894370061496097 21.000000000000007
    vertex 73.29999999999998 19.999999999999986 21.000000000000007
  endloop
endfacet
facet normal 0.13052619222005102 0.9914448613738105 1.8726358613955827e-16
  outer loop
    vertex 73.29999999999998 19.999999999999986 21.000000000000007
    vertex 74.10233903981779 19.894370061496097 0.4000000000000176
    vertex 73.29999999999998 19.999999999999986 0.4000000000000176
  endloop
endfacet
facet normal 0.13052619222005102 0.9914448613738105 1.8726358613955827e-16
  outer loop
    vertex 74.10233903981779 19.894370061496097 0.4000000000000176
    vertex 73.29999999999998 19.999999999999986 21.000000000000007
    vertex 74.10233903981779 19.894370061496097 21.000000000000007
  endloop
endfacet
facet normal 0.3826834323650917 0.923879532511286 1.5664615671848817e-16
  outer loop
    vertex 74.10233903981779 19.894370061496097 21.000000000000007
    vertex 74.84999999999997 19.584678751731747 0.4000000000000176
    vertex 74.10233903981779 19.894370061496097 0.4000000000000176
  endloop
endfacet
facet normal 0.3826834323650917 0.923879532511286 1.5664615671848817e-16
  outer loop
    vertex 74.84999999999997 19.584678751731747 0.4000000000000176
    vertex 74.10233903981779 19.894370061496097 21.000000000000007
    vertex 74.84999999999997 19.584678751731747 21.000000000000007
  endloop
endfacet
facet normal 0.6087614290087189 0.7933533402912367 -4.0137506123269884e-19
  outer loop
    vertex 74.84999999999997 19.584678751731747 21.000000000000007
    vertex 75.19999999999996 19.316114305939113 0.4000000000000176
    vertex 74.84999999999997 19.584678751731747 0.4000000000000176
  endloop
endfacet
facet normal 0.6087614290087189 0.7933533402912367 -4.0137506123269884e-19
  outer loop
    vertex 75.19999999999996 19.316114305939113 0.4000000000000176
    vertex 74.84999999999997 19.584678751731747 21.000000000000007
    vertex 75.19999999999996 19.316114305939113 21.000000000000007
  endloop
endfacet
facet normal -0.9914448613738094 -0.13052619222006034 0.0
  outer loop
    vertex 75.13525906994919 17.39175618569479 21.000000000000007
    vertex 75.19999999999996 16.900000000000002 0.4000000000000176
    vertex 75.19999999999996 16.900000000000002 21.000000000000007
  endloop
endfacet
facet normal -0.9914448613738094 -0.13052619222006034 0.0
  outer loop
    vertex 75.19999999999996 16.900000000000002 0.4000000000000176
    vertex 75.13525906994919 17.39175618569479 21.000000000000007
    vertex 75.13525906994919 17.39175618569479 0.4000000000000176
  endloop
endfacet
facet normal -0.9238795325112903 -0.38268343236508123 -1.2534624310707497e-17
  outer loop
    vertex 74.9454482671904 17.849999999999994 21.000000000000007
    vertex 75.13525906994919 17.39175618569479 0.4000000000000176
    vertex 75.13525906994919 17.39175618569479 21.000000000000007
  endloop
endfacet
facet normal -0.9238795325112903 -0.38268343236508123 -1.2534624310707497e-17
  outer loop
    vertex 75.13525906994919 17.39175618569479 0.4000000000000176
    vertex 74.9454482671904 17.849999999999994 21.000000000000007
    vertex 74.9454482671904 17.849999999999994 0.4000000000000176
  endloop
endfacet
facet normal -0.7933533402912348 -0.6087614290087211 -6.619979061389371e-17
  outer loop
    vertex 74.6435028842544 18.243502884254433 21.000000000000007
    vertex 74.9454482671904 17.849999999999994 0.4000000000000176
    vertex 74.9454482671904 17.849999999999994 21.000000000000007
  endloop
endfacet
facet normal -0.7933533402912348 -0.6087614290087211 -6.619979061389371e-17
  outer loop
    vertex 74.9454482671904 17.849999999999994 0.4000000000000176
    vertex 74.6435028842544 18.243502884254433 21.000000000000007
    vertex 74.6435028842544 18.243502884254433 0.4000000000000176
  endloop
endfacet
facet normal -0.6087614290087157 -0.7933533402912392 -1.1535355058706865e-16
  outer loop
    vertex 74.6435028842544 18.243502884254433 21.000000000000007
    vertex 74.24999999999997 18.545448267190423 0.4000000000000176
    vertex 74.6435028842544 18.243502884254433 0.4000000000000176
  endloop
endfacet
facet normal -0.6087614290087157 -0.7933533402912392 -1.1535355058706865e-16
  outer loop
    vertex 74.24999999999997 18.545448267190423 0.4000000000000176
    vertex 74.6435028842544 18.243502884254433 21.000000000000007
    vertex 74.24999999999997 18.545448267190423 21.000000000000007
  endloop
endfacet
facet normal -0.3826834323650909 -0.9238795325112863 -1.5664615671848831e-16
  outer loop
    vertex 74.24999999999997 18.545448267190423 21.000000000000007
    vertex 73.79175618569477 18.73525906994922 0.4000000000000176
    vertex 74.24999999999997 18.545448267190423 0.4000000000000176
  endloop
endfacet
facet normal -0.3826834323650909 -0.9238795325112863 -1.5664615671848831e-16
  outer loop
    vertex 73.79175618569477 18.73525906994922 0.4000000000000176
    vertex 74.24999999999997 18.545448267190423 21.000000000000007
    vertex 73.79175618569477 18.73525906994922 21.000000000000007
  endloop
endfacet
facet normal -0.13052619222005066 -0.9914448613738107 -1.872635861395584e-16
  outer loop
    vertex 73.79175618569477 18.73525906994922 21.000000000000007
    vertex 73.29999999999998 18.799999999999986 0.4000000000000176
    vertex 73.79175618569477 18.73525906994922 0.4000000000000176
  endloop
endfacet
facet normal -0.13052619222005066 -0.9914448613738107 -1.872635861395584e-16
  outer loop
    vertex 73.29999999999998 18.799999999999986 0.4000000000000176
    vertex 73.79175618569477 18.73525906994922 21.000000000000007
    vertex 73.29999999999998 18.799999999999986 21.000000000000007
  endloop
endfacet
facet normal 0.13052619222005066 -0.9914448613738107 -2.0511931163292528e-16
  outer loop
    vertex 73.29999999999998 18.799999999999986 21.000000000000007
    vertex 72.8082438143052 18.73525906994922 0.4000000000000176
    vertex 73.29999999999998 18.799999999999986 0.4000000000000176
  endloop
endfacet
facet normal 0.13052619222005066 -0.9914448613738107 -2.0511931163292528e-16
  outer loop
    vertex 72.8082438143052 18.73525906994922 0.4000000000000176
    vertex 73.29999999999998 18.799999999999986 21.000000000000007
    vertex 72.8082438143052 18.73525906994922 21.000000000000007
  endloop
endfacet
facet normal 0.3826834323650829 -0.9238795325112896 -2.089964950141984e-16
  outer loop
    vertex 72.8082438143052 18.73525906994922 21.000000000000007
    vertex 72.34999999999998 18.545448267190423 0.4000000000000176
    vertex 72.8082438143052 18.73525906994922 0.4000000000000176
  endloop
endfacet
facet normal 0.3826834323650829 -0.9238795325112896 -2.089964950141984e-16
  outer loop
    vertex 72.34999999999998 18.545448267190423 0.4000000000000176
    vertex 72.8082438143052 18.73525906994922 21.000000000000007
    vertex 72.34999999999998 18.545448267190423 21.000000000000007
  endloop
endfacet
facet normal 0.6087614290087267 -0.7933533402912307 -1.986309126432915e-16
  outer loop
    vertex 72.34999999999998 18.545448267190423 21.000000000000007
    vertex 71.95649711574555 18.243502884254433 0.4000000000000176
    vertex 72.34999999999998 18.545448267190423 0.4000000000000176
  endloop
endfacet
facet normal 0.6087614290087267 -0.7933533402912307 -1.986309126432915e-16
  outer loop
    vertex 71.95649711574555 18.243502884254433 0.4000000000000176
    vertex 72.34999999999998 18.545448267190423 21.000000000000007
    vertex 71.95649711574555 18.243502884254433 21.000000000000007
  endloop
endfacet
facet normal 0.7933533402912348 -0.6087614290087211 -1.7472896182884887e-16
  outer loop
    vertex 71.95649711574555 18.243502884254433 0.4000000000000176
    vertex 71.65455173280955 17.849999999999994 21.000000000000007
    vertex 71.65455173280955 17.849999999999994 0.4000000000000176
  endloop
endfacet
facet normal 0.7933533402912348 -0.6087614290087211 -1.7472896182884887e-16
  outer loop
    vertex 71.65455173280955 17.849999999999994 21.000000000000007
    vertex 71.95649711574555 18.243502884254433 0.4000000000000176
    vertex 71.95649711574555 18.243502884254433 21.000000000000007
  endloop
endfacet
facet normal 0.9238795325112903 -0.38268343236508123 -1.3891952101903026e-16
  outer loop
    vertex 71.65455173280955 17.849999999999994 0.4000000000000176
    vertex 71.46474093005077 17.39175618569479 21.000000000000007
    vertex 71.46474093005077 17.39175618569479 0.4000000000000176
  endloop
endfacet
facet normal 0.9238795325112903 -0.38268343236508123 -1.3891952101903026e-16
  outer loop
    vertex 71.46474093005077 17.39175618569479 21.000000000000007
    vertex 71.65455173280955 17.849999999999994 0.4000000000000176
    vertex 71.65455173280955 17.849999999999994 21.000000000000007
  endloop
endfacet
facet normal 0.9914448613738094 -0.13052619222006034 -9.364294442713246e-17
  outer loop
    vertex 71.46474093005077 17.39175618569479 0.4000000000000176
    vertex 71.39999999999999 16.900000000000002 21.000000000000007
    vertex 71.39999999999999 16.900000000000002 0.4000000000000176
  endloop
endfacet
facet normal 0.9914448613738094 -0.13052619222006034 -9.364294442713246e-17
  outer loop
    vertex 71.39999999999999 16.900000000000002 21.000000000000007
    vertex 71.46474093005077 17.39175618569479 0.4000000000000176
    vertex 71.46474093005077 17.39175618569479 21.000000000000007
  endloop
endfacet
facet normal 1.0 3.037526373358364e-32 -6.839901321592394e-17
  outer loop
    vertex 71.39999999999999 14.200000000000008 9.600000000000009
    vertex 71.39999999999999 8.799999999999999 13.000000000000007
    vertex 71.39999999999999 8.799999999999999 9.600000000000009
  endloop
endfacet
facet normal 1.0 3.037526373358364e-32 -6.839901321592394e-17
  outer loop
    vertex 71.39999999999999 8.799999999999999 13.000000000000007
    vertex 71.39999999999999 14.200000000000008 9.600000000000009
    vertex 71.39999999999999 14.200000000000005 13.000000000000007
  endloop
endfacet
facet normal 1.0 3.037526373358364e-32 -6.839901321592394e-17
  outer loop
    vertex 71.39999999999999 14.200000000000005 13.000000000000007
    vertex 71.39999999999999 14.200000000000008 9.600000000000009
    vertex 71.39999999999999 14.200000000000005 14.600000000000007
  endloop
endfacet
facet normal 1.0 3.037526373358364e-32 -6.839901321592394e-17
  outer loop
    vertex 71.39999999999999 16.900000000000002 0.4000000000000176
    vertex 71.39999999999999 8.799999999999999 8.000000000000007
    vertex 71.39999999999999 4.2 0.40000000000001196
  endloop
endfacet
facet normal 1.0 3.037526373358364e-32 -6.839901321592394e-17
  outer loop
    vertex 71.39999999999999 8.799999999999999 8.000000000000007
    vertex 71.39999999999999 16.900000000000002 0.4000000000000176
    vertex 71.39999999999999 14.200000000000008 8.000000000000007
  endloop
endfacet
facet normal 1.0 3.037526373358364e-32 -6.839901321592394e-17
  outer loop
    vertex 71.39999999999999 14.200000000000008 8.000000000000007
    vertex 71.39999999999999 16.900000000000002 0.4000000000000176
    vertex 71.39999999999999 14.200000000000008 9.600000000000009
  endloop
endfacet
facet normal 1.0 3.037526373358364e-32 -6.839901321592394e-17
  outer loop
    vertex 71.39999999999999 4.199999999999998 21.0
    vertex 71.39999999999999 8.799999999999999 14.600000000000007
    vertex 71.39999999999999 16.900000000000002 21.000000000000007
  endloop
endfacet
facet normal 1.0 3.037526373358364e-32 -6.839901321592394e-17
  outer loop
    vertex 71.39999999999999 8.799999999999999 14.600000000000007
    vertex 71.39999999999999 4.199999999999998 21.0
    vertex 71.39999999999999 4.2 0.40000000000001196
  endloop
endfacet
facet normal 1.0 3.037526373358364e-32 -6.839901321592394e-17
  outer loop
    vertex 71.39999999999999 8.799999999999999 14.600000000000007
    vertex 71.39999999999999 4.2 0.40000000000001196
    vertex 71.39999999999999 8.799999999999999 8.000000000000007
  endloop
endfacet
facet normal 1.0 3.037526373358364e-32 -6.839901321592394e-17
  outer loop
    vertex 71.39999999999999 8.799999999999999 14.600000000000007
    vertex 71.39999999999999 8.799999999999999 8.000000000000007
    vertex 71.39999999999999 8.799999999999999 9.600000000000009
  endloop
endfacet
facet normal 1.0 3.037526373358364e-32 -6.839901321592394e-17
  outer loop
    vertex 71.39999999999999 8.799999999999999 14.600000000000007
    vertex 71.39999999999999 8.799999999999999 9.600000000000009
    vertex 71.39999999999999 8.799999999999999 13.000000000000007
  endloop
endfacet
facet normal 1.0 3.037526373358364e-32 -6.839901321592394e-17
  outer loop
    vertex 71.39999999999999 16.900000000000002 21.000000000000007
    vertex 71.39999999999999 8.799999999999999 14.600000000000007
    vertex 71.39999999999999 14.200000000000005 14.600000000000007
  endloop
endfacet
facet normal 1.0 3.037526373358364e-32 -6.839901321592394e-17
  outer loop
    vertex 71.39999999999999 16.900000000000002 21.000000000000007
    vertex 71.39999999999999 14.200000000000005 14.600000000000007
    vertex 71.39999999999999 14.200000000000008 9.600000000000009
  endloop
endfacet
facet normal 1.0 3.037526373358364e-32 -6.839901321592394e-17
  outer loop
    vertex 71.39999999999999 16.900000000000002 21.000000000000007
    vertex 71.39999999999999 14.200000000000008 9.600000000000009
    vertex 71.39999999999999 16.900000000000002 0.4000000000000176
  endloop
endfacet
facet normal 5.874930171974788e-16 -1.0 -1.978843771648442e-16
  outer loop
    vertex 71.39999999999999 4.199999999999998 21.0
    vertex 70.19999999999999 4.199999999999999 0.4000000000000176
    vertex 71.39999999999999 4.2 0.40000000000001196
  endloop
endfacet
facet normal 5.874930171974788e-16 -1.0 -1.978843771648442e-16
  outer loop
    vertex 70.19999999999999 4.199999999999999 0.4000000000000176
    vertex 71.39999999999999 4.199999999999998 21.0
    vertex 70.19999999999999 4.1999999999999975 21.000000000000007
  endloop
endfacet
facet normal -1.0 0.0 0.0
  outer loop
    vertex 75.19999999999996 19.316114305939113 21.000000000000007
    vertex 75.19999999999996 16.900000000000002 0.4000000000000176
    vertex 75.19999999999996 16.900000000000002 21.000000000000007
  endloop
endfacet
facet normal -1.0 0.0 0.0
  outer loop
    vertex 75.19999999999996 16.900000000000002 0.4000000000000176
    vertex 75.19999999999996 19.316114305939113 21.000000000000007
    vertex 75.19999999999996 19.316114305939113 0.4000000000000176
  endloop
endfacet
facet normal -1.0 0.0 0.0
  outer loop
    vertex 75.19999999999996 20.8 21.000000000000004
    vertex 75.19999999999996 19.316114305939113 0.4000000000000176
    vertex 75.19999999999996 19.316114305939113 21.000000000000007
  endloop
endfacet
facet normal -1.0 0.0 0.0
  outer loop
    vertex 75.19999999999996 19.316114305939113 0.4000000000000176
    vertex 75.19999999999996 20.8 21.000000000000004
    vertex 75.19999999999996 20.80000000000001 0.40000000000000535
  endloop
endfacet
facet normal 3.1473986137280035e-17 -1.0 -1.1053613941962362e-16
  outer loop
    vertex 75.19999999999996 20.8 21.000000000000004
    vertex 66.00000000000003 20.8 0.40000000000001196
    vertex 75.19999999999996 20.80000000000001 0.40000000000000535
  endloop
endfacet
facet normal 3.1473986137280035e-17 -1.0 -1.1053613941962362e-16
  outer loop
    vertex 66.00000000000003 20.8 0.40000000000001196
    vertex 75.19999999999996 20.8 21.000000000000004
    vertex 66.00000000000003 20.8 2.400000000000008
  endloop
endfacet
facet normal 3.1473986137280035e-17 -1.0 -1.1053613941962362e-16
  outer loop
    vertex 66.00000000000003 20.8 2.400000000000008
    vertex 2.200000000000001 20.8 21.000000000000004
    vertex 2.200000000000001 20.8 2.4000000000000012
  endloop
endfacet
facet normal 3.1473986137280035e-17 -1.0 -1.1053613941962362e-16
  outer loop
    vertex 2.200000000000001 20.8 21.000000000000004
    vertex 66.00000000000003 20.8 2.400000000000008
    vertex 75.19999999999996 20.8 21.000000000000004
  endloop
endfacet
facet normal -0.0 1.0 -0.0
  outer loop
    vertex 70.19999999999999 8.799999999999999 14.600000000000007
    vertex 71.39999999999999 8.799999999999999 13.000000000000007
    vertex 70.19999999999999 8.799999999999999 13.000000000000007
  endloop
endfacet
facet normal -0.0 1.0 -0.0
  outer loop
    vertex 71.39999999999999 8.799999999999999 13.000000000000007
    vertex 70.19999999999999 8.799999999999999 14.600000000000007
    vertex 71.39999999999999 8.799999999999999 14.600000000000007
  endloop
endfacet
facet normal -0.0 0.0 -1.0
  outer loop
    vertex 71.39999999999999 14.200000000000005 14.600000000000007
    vertex 70.19999999999999 8.799999999999999 14.600000000000007
    vertex 70.19999999999999 14.200000000000005 14.600000000000007
  endloop
endfacet
facet normal -0.0 0.0 -1.0
  outer loop
    vertex 70.19999999999999 8.799999999999999 14.600000000000007
    vertex 71.39999999999999 14.200000000000005 14.600000000000007
    vertex 71.39999999999999 8.799999999999999 14.600000000000007
  endloop
endfacet
facet normal -0.0 -1.0 -0.0
  outer loop
    vertex 71.39999999999999 14.200000000000005 14.600000000000007
    vertex 70.19999999999999 14.200000000000005 13.000000000000007
    vertex 71.39999999999999 14.200000000000005 13.000000000000007
  endloop
endfacet
facet normal -0.0 -1.0 -0.0
  outer loop
    vertex 70.19999999999999 14.200000000000005 13.000000000000007
    vertex 71.39999999999999 14.200000000000005 14.600000000000007
    vertex 70.19999999999999 14.200000000000005 14.600000000000007
  endloop
endfacet
facet normal 0.0 0.0 1.0
  outer loop
    vertex 71.39999999999999 8.799999999999999 13.000000000000007
    vertex 70.19999999999999 14.200000000000005 13.000000000000007
    vertex 70.19999999999999 8.799999999999999 13.000000000000007
  endloop
endfacet
facet normal 0.0 0.0 1.0
  outer loop
    vertex 70.19999999999999 14.200000000000005 13.000000000000007
    vertex 71.39999999999999 8.799999999999999 13.000000000000007
    vertex 71.39999999999999 14.200000000000005 13.000000000000007
  endloop
endfacet
facet normal -0.0 0.0 -1.0
  outer loop
    vertex 71.39999999999999 14.200000000000008 9.600000000000009
    vertex 70.19999999999999 8.799999999999999 9.600000000000009
    vertex 70.19999999999999 14.200000000000008 9.600000000000009
  endloop
endfacet
facet normal -0.0 0.0 -1.0
  outer loop
    vertex 70.19999999999999 8.799999999999999 9.600000000000009
    vertex 71.39999999999999 14.200000000000008 9.600000000000009
    vertex 71.39999999999999 8.799999999999999 9.600000000000009
  endloop
endfacet
facet normal -0.0 -1.0 -0.0
  outer loop
    vertex 71.39999999999999 14.200000000000008 9.600000000000009
    vertex 70.19999999999999 14.200000000000008 8.000000000000007
    vertex 71.39999999999999 14.200000000000008 8.000000000000007
  endloop
endfacet
facet normal -0.0 -1.0 -0.0
  outer loop
    vertex 70.19999999999999 14.200000000000008 8.000000000000007
    vertex 71.39999999999999 14.200000000000008 9.600000000000009
    vertex 70.19999999999999 14.200000000000008 9.600000000000009
  endloop
endfacet
facet normal 0.0 0.0 1.0
  outer loop
    vertex 71.39999999999999 8.799999999999999 8.000000000000007
    vertex 70.19999999999999 14.200000000000008 8.000000000000007
    vertex 70.19999999999999 8.799999999999999 8.000000000000007
  endloop
endfacet
facet normal 0.0 0.0 1.0
  outer loop
    vertex 70.19999999999999 14.200000000000008 8.000000000000007
    vertex 71.39999999999999 8.799999999999999 8.000000000000007
    vertex 71.39999999999999 14.200000000000008 8.000000000000007
  endloop
endfacet
facet normal -0.0 1.0 -0.0
  outer loop
    vertex 70.19999999999999 8.799999999999999 9.600000000000009
    vertex 71.39999999999999 8.799999999999999 8.000000000000007
    vertex 70.19999999999999 8.799999999999999 8.000000000000007
  endloop
endfacet
facet normal -0.0 1.0 -0.0
  outer loop
    vertex 71.39999999999999 8.799999999999999 8.000000000000007
    vertex 70.19999999999999 8.799999999999999 9.600000000000009
    vertex 71.39999999999999 8.799999999999999 9.600000000000009
  endloop
endfacet
facet normal 0.0 -1.0 0.0
  outer loop
    vertex 2.417355193382684 8.799999999999999 10.375366622445764
    vertex 2.1999999999999953 8.799999999999999 12.300000000000004
    vertex 2.199999999999996 8.799999999999999 10.300000000000004
  endloop
endfacet
facet normal 0.0 -1.0 0.0
  outer loop
    vertex 2.1999999999999953 8.799999999999999 12.300000000000004
    vertex 2.417355193382684 8.799999999999999 10.375366622445764
    vertex 2.612427512930751 8.799999999999999 10.497310043815856
  endloop
endfacet
facet normal 0.0 -1.0 0.0
  outer loop
    vertex 2.1999999999999953 8.799999999999999 12.300000000000004
    vertex 2.612427512930751 8.799999999999999 10.497310043815856
    vertex 2.7753905296791013 8.799999999999999 10.65968757625672
  endloop
endfacet
facet normal 0.0 -1.0 0.0
  outer loop
    vertex 2.1999999999999953 8.799999999999999 12.300000000000004
    vertex 2.7753905296791013 8.799999999999999 10.65968757625672
    vertex 2.898035264969331 8.799999999999999 10.85431973386408
  endloop
endfacet
facet normal 0.0 -1.0 0.0
  outer loop
    vertex 2.1999999999999953 8.799999999999999 12.300000000000004
    vertex 2.898035264969331 8.799999999999999 10.85431973386408
    vertex 2.9741837034783822 8.799999999999999 11.071402260065387
  endloop
endfacet
facet normal 0.0 -1.0 0.0
  outer loop
    vertex 2.1999999999999953 8.799999999999999 12.300000000000004
    vertex 2.9741837034783822 8.799999999999999 11.071402260065387
    vertex 2.9999999999999956 8.799999999999999 11.300000000000004
  endloop
endfacet
facet normal 0.0 -1.0 0.0
  outer loop
    vertex 2.1999999999999953 8.799999999999999 12.300000000000004
    vertex 2.9999999999999956 8.799999999999999 11.300000000000004
    vertex 2.9741837034783827 8.799999999999999 11.528597739934623
  endloop
endfacet
facet normal 0.0 -1.0 0.0
  outer loop
    vertex 2.1999999999999953 8.799999999999999 12.300000000000004
    vertex 2.9741837034783827 8.799999999999999 11.528597739934623
    vertex 2.8980352649693315 8.799999999999999 11.745680266135928
  endloop
endfacet
facet normal 0.0 -1.0 0.0
  outer loop
    vertex 2.1999999999999953 8.799999999999999 12.300000000000004
    vertex 2.8980352649693315 8.799999999999999 11.745680266135928
    vertex 2.7753905296791013 8.799999999999999 11.94031242374329
  endloop
endfacet
facet normal 0.0 -1.0 0.0
  outer loop
    vertex 2.1999999999999953 8.799999999999999 12.300000000000004
    vertex 2.7753905296791013 8.799999999999999 11.94031242374329
    vertex 2.612427512930751 8.799999999999999 12.102689956184152
  endloop
endfacet
facet normal 0.0 -1.0 0.0
  outer loop
    vertex 2.1999999999999953 8.799999999999999 12.300000000000004
    vertex 2.612427512930751 8.799999999999999 12.102689956184152
    vertex 2.4173551933826833 8.799999999999999 12.224633377554246
  endloop
endfacet
facet normal 0.0 1.0 0.0
  outer loop
    vertex 2.1999999999999953 14.19999999999999 12.300000000000004
    vertex 2.417355193382684 14.19999999999999 10.375366622445764
    vertex 2.199999999999996 14.19999999999999 10.300000000000004
  endloop
endfacet
facet normal 0.0 1.0 0.0
  outer loop
    vertex 2.417355193382684 14.19999999999999 10.375366622445764
    vertex 2.1999999999999953 14.19999999999999 12.300000000000004
    vertex 2.612427512930751 14.19999999999999 10.497310043815856
  endloop
endfacet
facet normal 0.0 1.0 0.0
  outer loop
    vertex 2.612427512930751 14.19999999999999 10.497310043815856
    vertex 2.1999999999999953 14.19999999999999 12.300000000000004
    vertex 2.7753905296791013 14.19999999999999 10.65968757625672
  endloop
endfacet
facet normal 0.0 1.0 0.0
  outer loop
    vertex 2.7753905296791013 14.19999999999999 10.65968757625672
    vertex 2.1999999999999953 14.19999999999999 12.300000000000004
    vertex 2.898035264969331 14.19999999999999 10.85431973386408
  endloop
endfacet
facet normal 0.0 1.0 0.0
  outer loop
    vertex 2.898035264969331 14.19999999999999 10.85431973386408
    vertex 2.1999999999999953 14.19999999999999 12.300000000000004
    vertex 2.9741837034783822 14.19999999999999 11.071402260065387
  endloop
endfacet
facet normal 0.0 1.0 0.0
  outer loop
    vertex 2.9741837034783822 14.19999999999999 11.071402260065387
    vertex 2.1999999999999953 14.19999999999999 12.300000000000004
    vertex 2.9999999999999956 14.19999999999999 11.300000000000004
  endloop
endfacet
facet normal 0.0 1.0 0.0
  outer loop
    vertex 2.9999999999999956 14.19999999999999 11.300000000000004
    vertex 2.1999999999999953 14.19999999999999 12.300000000000004
    vertex 2.9741837034783827 14.19999999999999 11.528597739934623
  endloop
endfacet
facet normal 0.0 1.0 0.0
  outer loop
    vertex 2.9741837034783827 14.19999999999999 11.528597739934623
    vertex 2.1999999999999953 14.19999999999999 12.300000000000004
    vertex 2.8980352649693315 14.19999999999999 11.745680266135928
  endloop
endfacet
facet normal 0.0 1.0 0.0
  outer loop
    vertex 2.8980352649693315 14.19999999999999 11.745680266135928
    vertex 2.1999999999999953 14.19999999999999 12.300000000000004
    vertex 2.7753905296791013 14.19999999999999 11.94031242374329
  endloop
endfacet
facet normal 0.0 1.0 0.0
  outer loop
    vertex 2.7753905296791013 14.19999999999999 11.94031242374329
    vertex 2.1999999999999953 14.19999999999999 12.300000000000004
    vertex 2.612427512930751 14.19999999999999 12.102689956184152
  endloop
endfacet
facet normal 0.0 1.0 0.0
  outer loop
    vertex 2.612427512930751 14.19999999999999 12.102689956184152
    vertex 2.1999999999999953 14.19999999999999 12.300000000000004
    vertex 2.4173551933826833 14.19999999999999 12.224633377554246
  endloop
endfacet
facet normal -1.0 -0.0 -3.5249581031848733e-16
  outer loop
    vertex 2.1999999999999953 14.19999999999999 12.300000000000004
    vertex 2.199999999999996 8.799999999999999 10.300000000000004
    vertex 2.1999999999999953 8.799999999999999 12.300000000000004
  endloop
endfacet
facet normal -1.0 -0.0 -3.5249581031848733e-16
  outer loop
    vertex 2.199999999999996 8.799999999999999 10.300000000000004
    vertex 2.1999999999999953 14.19999999999999 12.300000000000004
    vertex 2.199999999999996 14.19999999999999 10.300000000000004
  endloop
endfacet
facet normal 0.3276084929716514 0.0 -0.9448135664419959
  outer loop
    vertex 2.417355193382684 14.19999999999999 10.375366622445764
    vertex 2.199999999999996 8.799999999999999 10.300000000000004
    vertex 2.199999999999996 14.19999999999999 10.300000000000004
  endloop
endfacet
facet normal 0.3276084929716514 0.0 -0.9448135664419959
  outer loop
    vertex 2.199999999999996 8.799999999999999 10.300000000000004
    vertex 2.417355193382684 14.19999999999999 10.375366622445764
    vertex 2.417355193382684 8.799999999999999 10.375366622445764
  endloop
endfacet
facet normal 0.5300715251186318 0.0 -0.847952933987735
  outer loop
    vertex 2.612427512930751 14.19999999999999 10.497310043815856
    vertex 2.417355193382684 8.799999999999999 10.375366622445764
    vertex 2.417355193382684 14.19999999999999 10.375366622445764
  endloop
endfacet
facet normal 0.5300715251186318 0.0 -0.847952933987735
  outer loop
    vertex 2.417355193382684 8.799999999999999 10.375366622445764
    vertex 2.612427512930751 14.19999999999999 10.497310043815856
    vertex 2.612427512930751 8.799999999999999 10.497310043815856
  endloop
endfacet
facet normal 0.7058331257141381 0.0 -0.7083781466452855
  outer loop
    vertex 2.7753905296791013 14.19999999999999 10.65968757625672
    vertex 2.612427512930751 8.799999999999999 10.497310043815856
    vertex 2.612427512930751 14.19999999999999 10.497310043815856
  endloop
endfacet
facet normal 0.7058331257141381 0.0 -0.7083781466452855
  outer loop
    vertex 2.612427512930751 8.799999999999999 10.497310043815856
    vertex 2.7753905296791013 14.19999999999999 10.65968757625672
    vertex 2.7753905296791013 8.799999999999999 10.65968757625672
  endloop
endfacet
facet normal 0.8460396096887457 0.0 -0.5331200416770268
  outer loop
    vertex 2.7753905296791013 14.19999999999999 10.65968757625672
    vertex 2.898035264969331 8.799999999999999 10.85431973386408
    vertex 2.7753905296791013 8.799999999999999 10.65968757625672
  endloop
endfacet
facet normal 0.8460396096887457 0.0 -0.5331200416770268
  outer loop
    vertex 2.898035264969331 8.799999999999999 10.85431973386408
    vertex 2.7753905296791013 14.19999999999999 10.65968757625672
    vertex 2.898035264969331 14.19999999999999 10.85431973386408
  endloop
endfacet
facet normal 0.9436283191604179 0.0 -0.33100694143550036
  outer loop
    vertex 2.898035264969331 14.19999999999999 10.85431973386408
    vertex 2.9741837034783822 8.799999999999999 11.071402260065387
    vertex 2.898035264969331 8.799999999999999 10.85431973386408
  endloop
endfacet
facet normal 0.9436283191604179 0.0 -0.33100694143550036
  outer loop
    vertex 2.9741837034783822 8.799999999999999 11.071402260065387
    vertex 2.898035264969331 14.19999999999999 10.85431973386408
    vertex 2.9741837034783822 14.19999999999999 11.071402260065387
  endloop
endfacet
facet normal 0.9936833925469437 0.0 -0.11221994197288124
  outer loop
    vertex 2.9741837034783822 14.19999999999999 11.071402260065387
    vertex 2.9999999999999956 8.799999999999999 11.300000000000004
    vertex 2.9741837034783822 8.799999999999999 11.071402260065387
  endloop
endfacet
facet normal 0.9936833925469437 0.0 -0.11221994197288124
  outer loop
    vertex 2.9999999999999956 8.799999999999999 11.300000000000004
    vertex 2.9741837034783822 14.19999999999999 11.071402260065387
    vertex 2.9999999999999956 14.19999999999999 11.300000000000004
  endloop
endfacet
facet normal 0.9936833925469438 0.0 0.11221994197287972
  outer loop
    vertex 2.9999999999999956 14.19999999999999 11.300000000000004
    vertex 2.9741837034783827 8.799999999999999 11.528597739934623
    vertex 2.9999999999999956 8.799999999999999 11.300000000000004
  endloop
endfacet
facet normal 0.9936833925469438 0.0 0.11221994197287972
  outer loop
    vertex 2.9741837034783827 8.799999999999999 11.528597739934623
    vertex 2.9999999999999956 14.19999999999999 11.300000000000004
    vertex 2.9741837034783827 14.19999999999999 11.528597739934623
  endloop
endfacet
facet normal 0.9436283191604172 0.0 0.33100694143550224
  outer loop
    vertex 2.9741837034783827 14.19999999999999 11.528597739934623
    vertex 2.8980352649693315 8.799999999999999 11.745680266135928
    vertex 2.9741837034783827 8.799999999999999 11.528597739934623
  endloop
endfacet
facet normal 0.9436283191604172 0.0 0.33100694143550224
  outer loop
    vertex 2.8980352649693315 8.799999999999999 11.745680266135928
    vertex 2.9741837034783827 14.19999999999999 11.528597739934623
    vertex 2.8980352649693315 14.19999999999999 11.745680266135928
  endloop
endfacet
facet normal 0.8460396096887468 0.0 0.5331200416770251
  outer loop
    vertex 2.8980352649693315 14.19999999999999 11.745680266135928
    vertex 2.7753905296791013 8.799999999999999 11.94031242374329
    vertex 2.8980352649693315 8.799999999999999 11.745680266135928
  endloop
endfacet
facet normal 0.8460396096887468 0.0 0.5331200416770251
  outer loop
    vertex 2.7753905296791013 8.799999999999999 11.94031242374329
    vertex 2.8980352649693315 14.19999999999999 11.745680266135928
    vertex 2.7753905296791013 14.19999999999999 11.94031242374329
  endloop
endfacet
facet normal 0.7058331257141381 0.0 0.7083781466452855
  outer loop
    vertex 2.7753905296791013 8.799999999999999 11.94031242374329
    vertex 2.612427512930751 14.19999999999999 12.102689956184152
    vertex 2.612427512930751 8.799999999999999 12.102689956184152
  endloop
endfacet
facet normal 0.7058331257141381 0.0 0.7083781466452855
  outer loop
    vertex 2.612427512930751 14.19999999999999 12.102689956184152
    vertex 2.7753905296791013 8.799999999999999 11.94031242374329
    vertex 2.7753905296791013 14.19999999999999 11.94031242374329
  endloop
endfacet
facet normal 0.5300715251186311 0.0 0.8479529339877354
  outer loop
    vertex 2.612427512930751 8.799999999999999 12.102689956184152
    vertex 2.4173551933826833 14.19999999999999 12.224633377554246
    vertex 2.4173551933826833 8.799999999999999 12.224633377554246
  endloop
endfacet
facet normal 0.5300715251186311 0.0 0.8479529339877354
  outer loop
    vertex 2.4173551933826833 14.19999999999999 12.224633377554246
    vertex 2.612427512930751 8.799999999999999 12.102689956184152
    vertex 2.612427512930751 14.19999999999999 12.102689956184152
  endloop
endfacet
facet normal 0.3276084929716509 0.0 0.9448135664419959
  outer loop
    vertex 2.4173551933826833 8.799999999999999 12.224633377554246
    vertex 2.1999999999999953 14.19999999999999 12.300000000000004
    vertex 2.1999999999999953 8.799999999999999 12.300000000000004
  endloop
endfacet
facet normal 0.3276084929716509 0.0 0.9448135664419959
  outer loop
    vertex 2.1999999999999953 14.19999999999999 12.300000000000004
    vertex 2.4173551933826833 8.799999999999999 12.224633377554246
    vertex 2.4173551933826833 14.19999999999999 12.224633377554246
  endloop
endfacet
facet normal -0.0 1.0 -0.0
  outer loop
    vertex 69.8816766867534 14.200000000000008 10.430848242662579
    vertex 70.2 14.200000000000008 12.300000000000008
    vertex 70.19999999999999 14.200000000000008 10.300000000000008
  endloop
endfacet
facet normal -0.0 1.0 -0.0
  outer loop
    vertex 70.2 14.200000000000008 12.300000000000008
    vertex 69.8816766867534 14.200000000000008 10.430848242662579
    vertex 69.62460947032089 14.200000000000008 10.659687576256726
  endloop
endfacet
facet normal -0.0 1.0 -0.0
  outer loop
    vertex 70.2 14.200000000000008 12.300000000000008
    vertex 69.62460947032089 14.200000000000008 10.659687576256726
    vertex 69.45778097286058 14.200000000000008 10.960717885028624
  endloop
endfacet
facet normal -0.0 1.0 -0.0
  outer loop
    vertex 70.2 14.200000000000008 12.300000000000008
    vertex 69.45778097286058 14.200000000000008 10.960717885028624
    vertex 69.39999999999999 14.200000000000008 11.300000000000011
  endloop
endfacet
facet normal -0.0 1.0 -0.0
  outer loop
    vertex 70.2 14.200000000000008 12.300000000000008
    vertex 69.39999999999999 14.200000000000008 11.300000000000011
    vertex 69.45778097286058 14.200000000000008 11.6392821149714
  endloop
endfacet
facet normal -0.0 1.0 -0.0
  outer loop
    vertex 70.2 14.200000000000008 12.300000000000008
    vertex 69.45778097286058 14.200000000000008 11.6392821149714
    vertex 69.6246094703209 14.200000000000008 11.940312423743295
  endloop
endfacet
facet normal -0.0 1.0 -0.0
  outer loop
    vertex 70.2 14.200000000000008 12.300000000000008
    vertex 69.6246094703209 14.200000000000008 11.940312423743295
    vertex 69.88167668675341 14.200000000000008 12.16915175733744
  endloop
endfacet
facet normal -0.0 -1.0 -0.0
  outer loop
    vertex 70.2 8.799999999999997 12.300000000000008
    vertex 69.8816766867534 8.799999999999997 10.430848242662579
    vertex 70.19999999999999 8.799999999999997 10.300000000000008
  endloop
endfacet
facet normal -0.0 -1.0 -0.0
  outer loop
    vertex 69.8816766867534 8.799999999999997 10.430848242662579
    vertex 70.2 8.799999999999997 12.300000000000008
    vertex 69.62460947032089 8.799999999999997 10.659687576256726
  endloop
endfacet
facet normal -0.0 -1.0 -0.0
  outer loop
    vertex 69.62460947032089 8.799999999999997 10.659687576256726
    vertex 70.2 8.799999999999997 12.300000000000008
    vertex 69.45778097286058 8.799999999999997 10.960717885028624
  endloop
endfacet
facet normal -0.0 -1.0 -0.0
  outer loop
    vertex 69.45778097286058 8.799999999999997 10.960717885028624
    vertex 70.2 8.799999999999997 12.300000000000008
    vertex 69.39999999999999 8.799999999999997 11.300000000000011
  endloop
endfacet
facet normal -0.0 -1.0 -0.0
  outer loop
    vertex 69.39999999999999 8.799999999999997 11.300000000000011
    vertex 70.2 8.799999999999997 12.300000000000008
    vertex 69.45778097286058 8.799999999999997 11.6392821149714
  endloop
endfacet
facet normal -0.0 -1.0 -0.0
  outer loop
    vertex 69.45778097286058 8.799999999999997 11.6392821149714
    vertex 70.2 8.799999999999997 12.300000000000008
    vertex 69.6246094703209 8.799999999999997 11.940312423743295
  endloop
endfacet
facet normal -0.0 -1.0 -0.0
  outer loop
    vertex 69.6246094703209 8.799999999999997 11.940312423743295
    vertex 70.2 8.799999999999997 12.300000000000008
    vertex 69.88167668675341 8.799999999999997 12.16915175733744
  endloop
endfacet
facet normal 1.0 0.0 -5.639932965095797e-15
  outer loop
    vertex 70.19999999999999 14.200000000000008 10.300000000000008
    vertex 70.2 8.799999999999997 12.300000000000008
    vertex 70.19999999999999 8.799999999999997 10.300000000000008
  endloop
endfacet
facet normal 1.0 0.0 -5.639932965095797e-15
  outer loop
    vertex 70.2 8.799999999999997 12.300000000000008
    vertex 70.19999999999999 14.200000000000008 10.300000000000008
    vertex 70.2 14.200000000000008 12.300000000000008
  endloop
endfacet
facet normal -0.38018811721333784 -0.0 -0.9249091823145543
  outer loop
    vertex 70.19999999999999 14.200000000000008 10.300000000000008
    vertex 69.8816766867534 8.799999999999997 10.430848242662579
    vertex 69.8816766867534 14.200000000000008 10.430848242662579
  endloop
endfacet
facet normal -0.38018811721333784 -0.0 -0.9249091823145543
  outer loop
    vertex 69.8816766867534 8.799999999999997 10.430848242662579
    vertex 70.19999999999999 14.200000000000008 10.300000000000008
    vertex 70.19999999999999 8.799999999999997 10.300000000000008
  endloop
endfacet
facet normal -0.6649076335543467 -0.0 -0.7469255912346013
  outer loop
    vertex 69.8816766867534 14.200000000000008 10.430848242662579
    vertex 69.62460947032089 8.799999999999997 10.659687576256726
    vertex 69.62460947032089 14.200000000000008 10.659687576256726
  endloop
endfacet
facet normal -0.6649076335543467 -0.0 -0.7469255912346013
  outer loop
    vertex 69.62460947032089 8.799999999999997 10.659687576256726
    vertex 69.8816766867534 14.200000000000008 10.430848242662579
    vertex 69.8816766867534 8.799999999999997 10.430848242662579
  endloop
endfacet
facet normal -0.8746632280822814 -0.0 -0.4847310980746783
  outer loop
    vertex 69.45778097286058 14.200000000000008 10.960717885028624
    vertex 69.62460947032089 8.799999999999997 10.659687576256726
    vertex 69.45778097286058 8.799999999999997 10.960717885028624
  endloop
endfacet
facet normal -0.8746632280822814 -0.0 -0.4847310980746783
  outer loop
    vertex 69.62460947032089 8.799999999999997 10.659687576256726
    vertex 69.45778097286058 14.200000000000008 10.960717885028624
    vertex 69.62460947032089 14.200000000000008 10.659687576256726
  endloop
endfacet
facet normal -0.9858063499390775 -0.0 -0.16788639140738437
  outer loop
    vertex 69.39999999999999 14.200000000000008 11.300000000000011
    vertex 69.45778097286058 8.799999999999997 10.960717885028624
    vertex 69.39999999999999 8.799999999999997 11.300000000000011
  endloop
endfacet
facet normal -0.9858063499390775 -0.0 -0.16788639140738437
  outer loop
    vertex 69.45778097286058 8.799999999999997 10.960717885028624
    vertex 69.39999999999999 14.200000000000008 11.300000000000011
    vertex 69.45778097286058 14.200000000000008 10.960717885028624
  endloop
endfacet
facet normal -0.9858063499390775 0.0 0.16788639140738437
  outer loop
    vertex 69.45778097286058 14.200000000000008 11.6392821149714
    vertex 69.39999999999999 8.799999999999997 11.300000000000011
    vertex 69.45778097286058 8.799999999999997 11.6392821149714
  endloop
endfacet
facet normal -0.9858063499390775 0.0 0.16788639140738437
  outer loop
    vertex 69.39999999999999 8.799999999999997 11.300000000000011
    vertex 69.45778097286058 14.200000000000008 11.6392821149714
    vertex 69.39999999999999 14.200000000000008 11.300000000000011
  endloop
endfacet
facet normal -0.8746632280822654 0.0 0.48473109807470677
  outer loop
    vertex 69.6246094703209 14.200000000000008 11.940312423743295
    vertex 69.45778097286058 8.799999999999997 11.6392821149714
    vertex 69.6246094703209 8.799999999999997 11.940312423743295
  endloop
endfacet
facet normal -0.8746632280822654 0.0 0.48473109807470677
  outer loop
    vertex 69.45778097286058 8.799999999999997 11.6392821149714
    vertex 69.6246094703209 14.200000000000008 11.940312423743295
    vertex 69.45778097286058 14.200000000000008 11.6392821149714
  endloop
endfacet
facet normal -0.6649076335543443 0.0 0.7469255912346033
  outer loop
    vertex 69.88167668675341 8.799999999999997 12.16915175733744
    vertex 69.6246094703209 14.200000000000008 11.940312423743295
    vertex 69.6246094703209 8.799999999999997 11.940312423743295
  endloop
endfacet
facet normal -0.6649076335543443 0.0 0.7469255912346033
  outer loop
    vertex 69.6246094703209 14.200000000000008 11.940312423743295
    vertex 69.88167668675341 8.799999999999997 12.16915175733744
    vertex 69.88167668675341 14.200000000000008 12.16915175733744
  endloop
endfacet
facet normal -0.3801881172133273 0.0 0.9249091823145587
  outer loop
    vertex 70.2 8.799999999999997 12.300000000000008
    vertex 69.88167668675341 14.200000000000008 12.16915175733744
    vertex 69.88167668675341 8.799999999999997 12.16915175733744
  endloop
endfacet
facet normal -0.3801881172133273 0.0 0.9249091823145587
  outer loop
    vertex 69.88167668675341 14.200000000000008 12.16915175733744
    vertex 70.2 8.799999999999997 12.300000000000008
    vertex 70.2 14.200000000000008 12.300000000000008
  endloop
endfacet
facet normal -1.0 4.456289923326443e-17 -2.431388113026247e-16
  outer loop
    vertex 0.0 0.8000000000000002 21.0
    vertex -9.50342729186109e-15 8.799999999999999 14.599999999999998
    vertex 1.023801110313739e-18 0.8000000000000002 0.4000000000000001
  endloop
endfacet
facet normal -1.0 4.456289923326443e-17 -2.431388113026247e-16
  outer loop
    vertex -9.50342729186109e-15 8.799999999999999 14.599999999999998
    vertex 0.0 0.8000000000000002 21.0
    vertex 0.0 22.2 21.0
  endloop
endfacet
facet normal -1.0 4.456289923326443e-17 -2.431388113026247e-16
  outer loop
    vertex 1.023801110313739e-18 0.8000000000000002 0.4000000000000001
    vertex -9.50342729186109e-15 8.799999999999999 14.599999999999998
    vertex 0.0 7.5000000000000036 0.39999999999999786
  endloop
endfacet
facet normal -1.0 4.456289923326443e-17 -2.431388113026247e-16
  outer loop
    vertex -9.50342729186109e-15 8.799999999999999 14.599999999999998
    vertex 0.0 22.2 21.0
    vertex -9.50342729186109e-15 14.2 14.599999999999998
  endloop
endfacet
facet normal -1.0 4.456289923326443e-17 -2.431388113026247e-16
  outer loop
    vertex -9.50342729186109e-15 14.2 14.599999999999998
    vertex 0.0 22.2 21.0
    vertex -5.390976171478744e-15 14.2 12.999999999999991
  endloop
endfacet
facet normal -1.0 4.456289923326443e-17 -2.431388113026247e-16
  outer loop
    vertex -5.390976171478744e-15 14.2 12.999999999999991
    vertex 0.0 22.2 21.0
    vertex 8.49741177570662e-16 14.2 9.600000000000005
  endloop
endfacet
facet normal -1.0 4.456289923326443e-17 -2.431388113026247e-16
  outer loop
    vertex 8.49741177570662e-16 14.2 9.600000000000005
    vertex 0.0 22.2 21.0
    vertex 4.198451375596283e-15 14.2 8.000000000000002
  endloop
endfacet
facet normal -1.0 4.456289923326443e-17 -2.431388113026247e-16
  outer loop
    vertex 4.198451375596283e-15 14.2 8.000000000000002
    vertex 0.0 22.2 21.0
    vertex 1.023801110313739e-18 15.499999999999991 0.4000000000000001
  endloop
endfacet
facet normal -1.0 4.456289923326443e-17 -2.431388113026247e-16
  outer loop
    vertex 1.023801110313739e-18 15.499999999999991 0.4000000000000001
    vertex 0.0 22.2 21.0
    vertex 1.023801110313739e-18 22.2 0.4000000000000001
  endloop
endfacet
facet normal -1.0 4.456289923326443e-17 -2.431388113026247e-16
  outer loop
    vertex 4.198451375596283e-15 14.2 8.000000000000002
    vertex 1.9168004609831406e-15 13.499999999999998 0.39999999999999786
    vertex 1.9165171762098984e-15 13.499999999999998 8.000000000000002
  endloop
endfacet
facet normal -1.0 4.456289923326443e-17 -2.431388113026247e-16
  outer loop
    vertex 1.9168004609831406e-15 13.499999999999998 0.39999999999999786
    vertex 4.198451375596283e-15 14.2 8.000000000000002
    vertex 1.023801110313739e-18 15.499999999999991 0.4000000000000001
  endloop
endfacet
facet normal -1.0 4.456289923326443e-17 -2.431388113026247e-16
  outer loop
    vertex 0.0 7.5000000000000036 0.39999999999999786
    vertex 1.3784848930483895e-15 8.799999999999999 8.000000000000002
    vertex 3.83925416367652e-19 9.499999999999998 0.39999999999999847
  endloop
endfacet
facet normal -1.0 4.456289923326443e-17 -2.431388113026247e-16
  outer loop
    vertex 1.3784848930483895e-15 8.799999999999999 8.000000000000002
    vertex 0.0 7.5000000000000036 0.39999999999999786
    vertex -9.50342729186109e-15 8.799999999999999 14.599999999999998
  endloop
endfacet
facet normal -1.0 4.456289923326443e-17 -2.431388113026247e-16
  outer loop
    vertex 1.3784848930483895e-15 8.799999999999999 8.000000000000002
    vertex -9.50342729186109e-15 8.799999999999999 14.599999999999998
    vertex -8.915934274663619e-15 8.799999999999999 12.999999999999991
  endloop
endfacet
facet normal -1.0 4.456289923326443e-17 -2.431388113026247e-16
  outer loop
    vertex 1.3784848930483895e-15 8.799999999999999 8.000000000000002
    vertex -8.915934274663619e-15 8.799999999999999 12.999999999999991
    vertex 8.49741177570662e-16 8.799999999999999 9.600000000000005
  endloop
endfacet
facet normal -1.0 4.456289923326443e-17 -2.431388113026247e-16
  outer loop
    vertex 3.83925416367652e-19 9.499999999999998 0.39999999999999847
    vertex 1.3784848930483895e-15 8.799999999999999 8.000000000000002
    vertex -1.7234688493668955e-16 9.499999999999998 8.000000000000002
  endloop
endfacet
facet normal 6.470772573137608e-17 1.4300437621419444e-17 -1.0
  outer loop
    vertex 77.39999999999996 22.2 0.4000000000000001
    vertex 1.023801110313739e-18 15.499999999999991 0.4000000000000001
    vertex 1.023801110313739e-18 22.2 0.4000000000000001
  endloop
endfacet
facet normal 6.470772573137608e-17 1.4300437621419444e-17 -1.0
  outer loop
    vertex 1.023801110313739e-18 15.499999999999991 0.4000000000000001
    vertex 77.39999999999996 22.2 0.4000000000000001
    vertex 1.9168004609831406e-15 13.499999999999998 0.39999999999999786
  endloop
endfacet
facet normal 6.470772573137608e-17 1.4300437621419444e-17 -1.0
  outer loop
    vertex 1.9168004609831406e-15 13.499999999999998 0.39999999999999786
    vertex 77.39999999999996 22.2 0.4000000000000001
    vertex 0.800000000000002 13.499999999999998 0.39999999999999786
  endloop
endfacet
facet normal 6.470772573137608e-17 1.4300437621419444e-17 -1.0
  outer loop
    vertex 0.800000000000002 13.499999999999998 0.39999999999999786
    vertex 77.39999999999996 22.2 0.4000000000000001
    vertex 66.00000000000003 20.8 0.40000000000001196
  endloop
endfacet
facet normal 6.470772573137608e-17 1.4300437621419444e-17 -1.0
  outer loop
    vertex 0.800000000000002 13.499999999999998 0.39999999999999786
    vertex 66.00000000000003 20.8 0.40000000000001196
    vertex 66.00000000000001 2.1999999999999993 0.40000000000000774
  endloop
endfacet
facet normal 6.470772573137608e-17 1.4300437621419444e-17 -1.0
  outer loop
    vertex 66.00000000000003 20.8 0.40000000000001196
    vertex 77.39999999999996 22.2 0.4000000000000001
    vertex 75.19999999999996 20.80000000000001 0.40000000000000535
  endloop
endfacet
facet normal 6.470772573137608e-17 1.4300437621419444e-17 -1.0
  outer loop
    vertex 75.19999999999996 20.80000000000001 0.40000000000000535
    vertex 77.39999999999996 22.2 0.4000000000000001
    vertex 75.19999999999996 19.316114305939113 0.4000000000000176
  endloop
endfacet
facet normal 6.470772573137608e-17 1.4300437621419444e-17 -1.0
  outer loop
    vertex 75.19999999999996 19.316114305939113 0.4000000000000176
    vertex 77.39999999999996 22.2 0.4000000000000001
    vertex 75.19999999999996 16.900000000000002 0.4000000000000176
  endloop
endfacet
facet normal 6.470772573137608e-17 1.4300437621419444e-17 -1.0
  outer loop
    vertex 75.19999999999996 16.900000000000002 0.4000000000000176
    vertex 77.39999999999996 22.2 0.4000000000000001
    vertex 75.19999999999996 2.199999999999998 0.4000000000000025
  endloop
endfacet
facet normal 6.470772573137608e-17 1.4300437621419444e-17 -1.0
  outer loop
    vertex 3.83925416367652e-19 9.499999999999998 0.39999999999999847
    vertex 1.023801110313739e-18 0.8000000000000002 0.4000000000000001
    vertex 0.0 7.5000000000000036 0.39999999999999786
  endloop
endfacet
facet normal 6.470772573137608e-17 1.4300437621419444e-17 -1.0
  outer loop
    vertex 1.023801110313739e-18 0.8000000000000002 0.4000000000000001
    vertex 3.83925416367652e-19 9.499999999999998 0.39999999999999847
    vertex 0.8000000000000002 9.499999999999998 0.39999999999999847
  endloop
endfacet
facet normal 6.470772573137608e-17 1.4300437621419444e-17 -1.0
  outer loop
    vertex 1.023801110313739e-18 0.8000000000000002 0.4000000000000001
    vertex 0.8000000000000002 9.499999999999998 0.39999999999999847
    vertex 77.39999999999996 0.8000000000000002 0.4000000000000001
  endloop
endfacet
facet normal 6.470772573137608e-17 1.4300437621419444e-17 -1.0
  outer loop
    vertex 77.39999999999996 0.8000000000000002 0.4000000000000001
    vertex 0.8000000000000002 9.499999999999998 0.39999999999999847
    vertex 66.00000000000001 2.1999999999999993 0.40000000000000774
  endloop
endfacet
facet normal 6.470772573137608e-17 1.4300437621419444e-17 -1.0
  outer loop
    vertex 66.00000000000001 2.1999999999999993 0.40000000000000774
    vertex 0.8000000000000002 9.499999999999998 0.39999999999999847
    vertex 0.800000000000002 13.499999999999998 0.39999999999999786
  endloop
endfacet
facet normal 6.470772573137608e-17 1.4300437621419444e-17 -1.0
  outer loop
    vertex 77.39999999999996 0.8000000000000002 0.4000000000000001
    vertex 66.00000000000001 2.1999999999999993 0.40000000000000774
    vertex 75.19999999999996 2.199999999999998 0.4000000000000025
  endloop
endfacet
facet normal 6.470772573137608e-17 1.4300437621419444e-17 -1.0
  outer loop
    vertex 77.39999999999996 0.8000000000000002 0.4000000000000001
    vertex 75.19999999999996 2.199999999999998 0.4000000000000025
    vertex 77.39999999999996 22.2 0.4000000000000001
  endloop
endfacet
facet normal 6.470772573137608e-17 1.4300437621419444e-17 -1.0
  outer loop
    vertex 77.39999999999996 0.8000000000000002 0.4000000000000001
    vertex 77.39999999999996 22.2 0.4000000000000001
    vertex 77.39999999999996 15.499999999999995 0.40000000000000807
  endloop
endfacet
facet normal 6.470772573137608e-17 1.4300437621419444e-17 -1.0
  outer loop
    vertex 77.39999999999996 0.8000000000000002 0.4000000000000001
    vertex 77.39999999999996 15.499999999999995 0.40000000000000807
    vertex 77.39999999999996 7.499999999999999 0.40000000000000807
  endloop
endfacet
facet normal -1.0 3.2638500955415507e-16 -2.353881294306435e-15
  outer loop
    vertex 0.7999999999999946 14.2 12.999999999999993
    vertex 0.800000000000001 8.799999999999999 9.600000000000007
    vertex 0.7999999999999912 8.799999999999999 12.999999999999993
  endloop
endfacet
facet normal -1.0 3.2638500955415507e-16 -2.353881294306435e-15
  outer loop
    vertex 0.800000000000001 8.799999999999999 9.600000000000007
    vertex 0.7999999999999946 14.2 12.999999999999993
    vertex 0.800000000000001 14.2 9.600000000000007
  endloop
endfacet
facet normal 3.2638500955415507e-16 1.0 9.374617869941993e-31
  outer loop
    vertex -8.915934274663619e-15 8.799999999999999 12.999999999999991
    vertex 0.800000000000001 8.799999999999999 9.600000000000007
    vertex 8.49741177570662e-16 8.799999999999999 9.600000000000005
  endloop
endfacet
facet normal 3.2638500955415507e-16 1.0 9.374617869941993e-31
  outer loop
    vertex 0.800000000000001 8.799999999999999 9.600000000000007
    vertex -8.915934274663619e-15 8.799999999999999 12.999999999999991
    vertex 0.7999999999999912 8.799999999999999 12.999999999999993
  endloop
endfacet
facet normal -3.2638500955415507e-16 -1.0 -5.990813504689061e-31
  outer loop
    vertex 0.800000000000001 14.2 9.600000000000007
    vertex -5.390976171478744e-15 14.2 12.999999999999991
    vertex 8.49741177570662e-16 14.2 9.600000000000005
  endloop
endfacet
facet normal -3.2638500955415507e-16 -1.0 -5.990813504689061e-31
  outer loop
    vertex -5.390976171478744e-15 14.2 12.999999999999991
    vertex 0.800000000000001 14.2 9.600000000000007
    vertex 0.7999999999999946 14.2 12.999999999999993
  endloop
endfacet
facet normal -1.0 5.006600745891701e-16 -1.1382506258309156e-17
  outer loop
    vertex 0.800000000000002 13.499999999999998 8.000000000000002
    vertex 0.8000000000000002 9.499999999999998 0.39999999999999847
    vertex 0.7999999999999999 9.499999999999998 8.000000000000002
  endloop
endfacet
facet normal -1.0 5.006600745891701e-16 -1.1382506258309156e-17
  outer loop
    vertex 0.8000000000000002 9.499999999999998 0.39999999999999847
    vertex 0.800000000000002 13.499999999999998 8.000000000000002
    vertex 0.800000000000002 13.499999999999998 0.39999999999999786
  endloop
endfacet
facet normal 5.006600745891701e-16 1.0 1.1378871104632812e-32
  outer loop
    vertex -1.7234688493668955e-16 9.499999999999998 8.000000000000002
    vertex 0.8000000000000002 9.499999999999998 0.39999999999999847
    vertex 3.83925416367652e-19 9.499999999999998 0.39999999999999847
  endloop
endfacet
facet normal 5.006600745891701e-16 1.0 1.1378871104632812e-32
  outer loop
    vertex 0.8000000000000002 9.499999999999998 0.39999999999999847
    vertex -1.7234688493668955e-16 9.499999999999998 8.000000000000002
    vertex 0.7999999999999999 9.499999999999998 8.000000000000002
  endloop
endfacet
facet normal -5.006600745891701e-16 -1.0 -1.8661759960708614e-35
  outer loop
    vertex 0.800000000000002 13.499999999999998 8.000000000000002
    vertex 1.9168004609831406e-15 13.499999999999998 0.39999999999999786
    vertex 0.800000000000002 13.499999999999998 0.39999999999999786
  endloop
endfacet
facet normal -5.006600745891701e-16 -1.0 -1.8661759960708614e-35
  outer loop
    vertex 1.9168004609831406e-15 13.499999999999998 0.39999999999999786
    vertex 0.800000000000002 13.499999999999998 8.000000000000002
    vertex 1.9165171762098984e-15 13.499999999999998 8.000000000000002
  endloop
endfacet
endsolid Bottom
