%TF.GenerationSoftware,KiCad,Pcbnew,(5.1.9)-1*%
%TF.CreationDate,2021-10-26T13:29:38+02:00*%
%TF.ProjectId,Smartmeter_IR_V11_multi,536d6172-746d-4657-9465-725f49525f56,rev?*%
%TF.SameCoordinates,Original*%
%TF.FileFunction,Profile,NP*%
%FSLAX46Y46*%
G04 Gerber Fmt 4.6, Leading zero omitted, Abs format (unit mm)*
G04 Created by KiCad (PCBNEW (5.1.9)-1) date 2021-10-26 13:29:38*
%MOMM*%
%LPD*%
G01*
G04 APERTURE LIST*
%TA.AperFunction,Profile*%
%ADD10C,0.050000*%
%TD*%
G04 APERTURE END LIST*
D10*
X55000000Y-142499999D02*
G75*
G02*
X47500001Y-134999999I5000000J12499999D01*
G01*
X47500001Y-125000000D02*
G75*
G02*
X55000001Y-117500001I12499999J-5000000D01*
G01*
X55000000Y-142499999D02*
X64999999Y-142499999D01*
X65000000Y-117500001D02*
G75*
G02*
X72499999Y-125000001I-5000000J-12499999D01*
G01*
X97499999Y-135000000D02*
G75*
G02*
X89999999Y-142499999I-12499999J5000000D01*
G01*
X105000000Y-142499999D02*
X114999999Y-142499999D01*
X90000000Y-117500001D02*
G75*
G02*
X97499999Y-125000001I-5000000J-12499999D01*
G01*
X80000000Y-142499999D02*
X89999999Y-142499999D01*
X115000000Y-117500001D02*
G75*
G02*
X122499999Y-125000001I-5000000J-12499999D01*
G01*
X147499999Y-135000000D02*
X147499999Y-125000001D01*
X72499999Y-135000000D02*
G75*
G02*
X64999999Y-142499999I-12499999J5000000D01*
G01*
X97500001Y-125000000D02*
G75*
G02*
X105000001Y-117500001I12499999J-5000000D01*
G01*
X72500001Y-125000000D02*
G75*
G02*
X80000001Y-117500001I12499999J-5000000D01*
G01*
X80000000Y-142499999D02*
G75*
G02*
X72500001Y-134999999I5000000J12499999D01*
G01*
X122500001Y-125000000D02*
G75*
G02*
X130000001Y-117500001I12499999J-5000000D01*
G01*
X105000000Y-142499999D02*
G75*
G02*
X97500001Y-134999999I5000000J12499999D01*
G01*
X147499999Y-135000000D02*
G75*
G02*
X139999999Y-142499999I-12499999J5000000D01*
G01*
X122499999Y-135000000D02*
G75*
G02*
X114999999Y-142499999I-12499999J5000000D01*
G01*
X47500001Y-125000000D02*
X47500001Y-134999999D01*
X130000000Y-142499999D02*
X139999999Y-142499999D01*
X130000000Y-142499999D02*
G75*
G02*
X122500001Y-134999999I5000000J12499999D01*
G01*
X140000000Y-117500001D02*
G75*
G02*
X147499999Y-125000001I-5000000J-12499999D01*
G01*
X72500001Y-100000000D02*
G75*
G02*
X80000001Y-92500001I12499999J-5000000D01*
G01*
X147499999Y-110000000D02*
X147499999Y-100000001D01*
X80000000Y-117499999D02*
G75*
G02*
X72500001Y-109999999I5000000J12499999D01*
G01*
X97499999Y-110000000D02*
G75*
G02*
X89999999Y-117499999I-12499999J5000000D01*
G01*
X122499999Y-110000000D02*
G75*
G02*
X114999999Y-117499999I-12499999J5000000D01*
G01*
X105000000Y-117499999D02*
G75*
G02*
X97500001Y-109999999I5000000J12499999D01*
G01*
X122500001Y-100000000D02*
G75*
G02*
X130000001Y-92500001I12499999J-5000000D01*
G01*
X90000000Y-92500001D02*
G75*
G02*
X97499999Y-100000001I-5000000J-12499999D01*
G01*
X97500001Y-100000000D02*
G75*
G02*
X105000001Y-92500001I12499999J-5000000D01*
G01*
X115000000Y-92500001D02*
G75*
G02*
X122499999Y-100000001I-5000000J-12499999D01*
G01*
X140000000Y-92500001D02*
G75*
G02*
X147499999Y-100000001I-5000000J-12499999D01*
G01*
X147499999Y-110000000D02*
G75*
G02*
X139999999Y-117499999I-12499999J5000000D01*
G01*
X72499999Y-110000000D02*
G75*
G02*
X64999999Y-117499999I-12499999J5000000D01*
G01*
X47500001Y-100000000D02*
X47500001Y-109999999D01*
X130000000Y-117499999D02*
G75*
G02*
X122500001Y-109999999I5000000J12499999D01*
G01*
X55000000Y-117499999D02*
G75*
G02*
X47500001Y-109999999I5000000J12499999D01*
G01*
X47500001Y-100000000D02*
G75*
G02*
X55000001Y-92500001I12499999J-5000000D01*
G01*
X65000000Y-92500001D02*
G75*
G02*
X72499999Y-100000001I-5000000J-12499999D01*
G01*
X97499999Y-85000000D02*
G75*
G02*
X89999999Y-92499999I-12499999J5000000D01*
G01*
X72500001Y-75000000D02*
G75*
G02*
X80000001Y-67500001I12499999J-5000000D01*
G01*
X90000000Y-67500001D02*
G75*
G02*
X97499999Y-75000001I-5000000J-12499999D01*
G01*
X122499999Y-85000000D02*
G75*
G02*
X114999999Y-92499999I-12499999J5000000D01*
G01*
X97500001Y-75000000D02*
G75*
G02*
X105000001Y-67500001I12499999J-5000000D01*
G01*
X115000000Y-67500001D02*
G75*
G02*
X122499999Y-75000001I-5000000J-12499999D01*
G01*
X105000000Y-92499999D02*
G75*
G02*
X97500001Y-84999999I5000000J12499999D01*
G01*
X80000000Y-92499999D02*
G75*
G02*
X72500001Y-84999999I5000000J12499999D01*
G01*
X147499999Y-85000000D02*
G75*
G02*
X139999999Y-92499999I-12499999J5000000D01*
G01*
X122500001Y-75000000D02*
G75*
G02*
X130000001Y-67500001I12499999J-5000000D01*
G01*
X140000000Y-67500001D02*
G75*
G02*
X147499999Y-75000001I-5000000J-12499999D01*
G01*
X147499999Y-85000000D02*
X147499999Y-75000001D01*
X130000000Y-92499999D02*
G75*
G02*
X122500001Y-84999999I5000000J12499999D01*
G01*
X47500001Y-75000000D02*
X47500001Y-84999999D01*
X55000000Y-92499999D02*
G75*
G02*
X47500001Y-84999999I5000000J12499999D01*
G01*
X47500001Y-75000000D02*
G75*
G02*
X55000001Y-67500001I12499999J-5000000D01*
G01*
X72499999Y-85000000D02*
G75*
G02*
X64999999Y-92499999I-12499999J5000000D01*
G01*
X65000000Y-67500001D02*
G75*
G02*
X72499999Y-75000001I-5000000J-12499999D01*
G01*
X147499999Y-60000000D02*
G75*
G02*
X139999999Y-67499999I-12499999J5000000D01*
G01*
X122500001Y-50000000D02*
G75*
G02*
X130000001Y-42500001I12499999J-5000000D01*
G01*
X140000000Y-42500001D02*
G75*
G02*
X147499999Y-50000001I-5000000J-12499999D01*
G01*
X147499999Y-60000000D02*
X147499999Y-50000001D01*
X130000000Y-67499999D02*
G75*
G02*
X122500001Y-59999999I5000000J12499999D01*
G01*
X140000000Y-42500001D02*
X130000001Y-42500001D01*
X115000000Y-42500001D02*
X105000001Y-42500001D01*
X122499999Y-60000000D02*
G75*
G02*
X114999999Y-67499999I-12499999J5000000D01*
G01*
X97500001Y-50000000D02*
G75*
G02*
X105000001Y-42500001I12499999J-5000000D01*
G01*
X115000000Y-42500001D02*
G75*
G02*
X122499999Y-50000001I-5000000J-12499999D01*
G01*
X105000000Y-67499999D02*
G75*
G02*
X97500001Y-59999999I5000000J12499999D01*
G01*
X90000000Y-42500001D02*
X80000001Y-42500001D01*
X80000000Y-67499999D02*
G75*
G02*
X72500001Y-59999999I5000000J12499999D01*
G01*
X72500001Y-50000000D02*
G75*
G02*
X80000001Y-42500001I12499999J-5000000D01*
G01*
X97499999Y-60000000D02*
G75*
G02*
X89999999Y-67499999I-12499999J5000000D01*
G01*
X90000000Y-42500001D02*
G75*
G02*
X97499999Y-50000001I-5000000J-12499999D01*
G01*
X65000000Y-42500001D02*
X55000001Y-42500001D01*
X47500001Y-50000000D02*
X47500001Y-59999999D01*
X72499999Y-60000000D02*
G75*
G02*
X64999999Y-67499999I-12499999J5000000D01*
G01*
X65000000Y-42500001D02*
G75*
G02*
X72499999Y-50000001I-5000000J-12499999D01*
G01*
X55000000Y-67499999D02*
G75*
G02*
X47500001Y-59999999I5000000J12499999D01*
G01*
X47500001Y-50000000D02*
G75*
G02*
X55000001Y-42500001I12499999J-5000000D01*
G01*
M02*
