M48
; DRILL file {KiCad (5.1.9)-1} date 10/26/21 13:29:22
; FORMAT={3:3/ absolute / metric / suppress leading zeros}
; #@! TF.CreationDate,2021-10-26T13:29:22+02:00
; #@! TF.GenerationSoftware,Kicad,Pcbnew,(5.1.9)-1
; #@! TF.FileFunction,Plated,1,2,PTH
FMAT,2
METRIC,TZ
T1C0.400
T2C0.760
T3C0.900
%
G90
G05
T1
X63263Y-51840
X63263Y-76840
X63263Y-101840
X63263Y-126840
X88263Y-51840
X88263Y-76840
X88263Y-101840
X88263Y-126840
X113263Y-51840
X113263Y-76840
X113263Y-101840
X113263Y-126840
X138263Y-51840
X138263Y-76840
X138263Y-101840
X138263Y-126840
T2
X56750Y-63000
X56750Y-88000
X56750Y-113000
X56750Y-138000
X58020Y-65540
X58020Y-90540
X58020Y-115540
X58020Y-140540
X59290Y-63000
X59290Y-88000
X59290Y-113000
X59290Y-138000
X60560Y-65540
X60560Y-90540
X60560Y-115540
X60560Y-140540
X61830Y-63000
X61830Y-88000
X61830Y-113000
X61830Y-138000
X63100Y-65540
X63100Y-90540
X63100Y-115540
X63100Y-140540
X81750Y-63000
X81750Y-88000
X81750Y-113000
X81750Y-138000
X83020Y-65540
X83020Y-90540
X83020Y-115540
X83020Y-140540
X84290Y-63000
X84290Y-88000
X84290Y-113000
X84290Y-138000
X85560Y-65540
X85560Y-90540
X85560Y-115540
X85560Y-140540
X86830Y-63000
X86830Y-88000
X86830Y-113000
X86830Y-138000
X88100Y-65540
X88100Y-90540
X88100Y-115540
X88100Y-140540
X106750Y-63000
X106750Y-88000
X106750Y-113000
X106750Y-138000
X108020Y-65540
X108020Y-90540
X108020Y-115540
X108020Y-140540
X109290Y-63000
X109290Y-88000
X109290Y-113000
X109290Y-138000
X110560Y-65540
X110560Y-90540
X110560Y-115540
X110560Y-140540
X111830Y-63000
X111830Y-88000
X111830Y-113000
X111830Y-138000
X113100Y-65540
X113100Y-90540
X113100Y-115540
X113100Y-140540
X131750Y-63000
X131750Y-88000
X131750Y-113000
X131750Y-138000
X133020Y-65540
X133020Y-90540
X133020Y-115540
X133020Y-140540
X134290Y-63000
X134290Y-88000
X134290Y-113000
X134290Y-138000
X135560Y-65540
X135560Y-90540
X135560Y-115540
X135560Y-140540
X136830Y-63000
X136830Y-88000
X136830Y-113000
X136830Y-138000
X138100Y-65540
X138100Y-90540
X138100Y-115540
X138100Y-140540
T3
X55500Y-55000
X55500Y-80000
X55500Y-105000
X55500Y-130000
X58040Y-55000
X58040Y-80000
X58040Y-105000
X58040Y-130000
X61960Y-55000
X61960Y-80000
X61960Y-105000
X61960Y-130000
X64500Y-55000
X64500Y-80000
X64500Y-105000
X64500Y-130000
X80500Y-55000
X80500Y-80000
X80500Y-105000
X80500Y-130000
X83040Y-55000
X83040Y-80000
X83040Y-105000
X83040Y-130000
X86960Y-55000
X86960Y-80000
X86960Y-105000
X86960Y-130000
X89500Y-55000
X89500Y-80000
X89500Y-105000
X89500Y-130000
X105500Y-55000
X105500Y-80000
X105500Y-105000
X105500Y-130000
X108040Y-55000
X108040Y-80000
X108040Y-105000
X108040Y-130000
X111960Y-55000
X111960Y-80000
X111960Y-105000
X111960Y-130000
X114500Y-55000
X114500Y-80000
X114500Y-105000
X114500Y-130000
X130500Y-55000
X130500Y-80000
X130500Y-105000
X130500Y-130000
X133040Y-55000
X133040Y-80000
X133040Y-105000
X133040Y-130000
X136960Y-55000
X136960Y-80000
X136960Y-105000
X136960Y-130000
X139500Y-55000
X139500Y-80000
X139500Y-105000
X139500Y-130000
T0
M30
