%TF.GenerationSoftware,KiCad,Pcbnew,(5.1.9)-1*%
%TF.CreationDate,2021-10-26T13:29:38+02:00*%
%TF.ProjectId,Smartmeter_IR_V11_multi,536d6172-746d-4657-9465-725f49525f56,rev?*%
%TF.SameCoordinates,Original*%
%TF.FileFunction,Soldermask,Bot*%
%TF.FilePolarity,Negative*%
%FSLAX46Y46*%
G04 Gerber Fmt 4.6, Leading zero omitted, Abs format (unit mm)*
G04 Created by KiCad (PCBNEW (5.1.9)-1) date 2021-10-26 13:29:38*
%MOMM*%
%LPD*%
G01*
G04 APERTURE LIST*
%ADD10R,1.800000X1.800000*%
%ADD11C,1.800000*%
%ADD12R,1.520000X1.520000*%
%ADD13C,1.520000*%
G04 APERTURE END LIST*
D10*
%TO.C,T1*%
X130500000Y-130000000D03*
D11*
X133040000Y-130000000D03*
%TD*%
D12*
%TO.C,J1*%
X56750000Y-138000000D03*
D13*
X58020000Y-140540000D03*
X59290000Y-138000000D03*
X60560000Y-140540000D03*
X61830000Y-138000000D03*
X63100000Y-140540000D03*
%TD*%
%TO.C,J1*%
X88100000Y-140540000D03*
X86830000Y-138000000D03*
X85560000Y-140540000D03*
X84290000Y-138000000D03*
X83020000Y-140540000D03*
D12*
X81750000Y-138000000D03*
%TD*%
D11*
%TO.C,T1*%
X108040000Y-130000000D03*
D10*
X105500000Y-130000000D03*
%TD*%
D13*
%TO.C,J1*%
X138100000Y-140540000D03*
X136830000Y-138000000D03*
X135560000Y-140540000D03*
X134290000Y-138000000D03*
X133020000Y-140540000D03*
D12*
X131750000Y-138000000D03*
%TD*%
D10*
%TO.C,T1*%
X80500000Y-130000000D03*
D11*
X83040000Y-130000000D03*
%TD*%
%TO.C,T1*%
X58040000Y-130000000D03*
D10*
X55500000Y-130000000D03*
%TD*%
%TO.C,D1*%
X114500000Y-130000000D03*
D11*
X111960000Y-130000000D03*
%TD*%
%TO.C,D1*%
X86960000Y-130000000D03*
D10*
X89500000Y-130000000D03*
%TD*%
%TO.C,D1*%
X64500000Y-130000000D03*
D11*
X61960000Y-130000000D03*
%TD*%
%TO.C,D1*%
X136960000Y-130000000D03*
D10*
X139500000Y-130000000D03*
%TD*%
D12*
%TO.C,J1*%
X106750000Y-138000000D03*
D13*
X108020000Y-140540000D03*
X109290000Y-138000000D03*
X110560000Y-140540000D03*
X111830000Y-138000000D03*
X113100000Y-140540000D03*
%TD*%
D10*
%TO.C,D1*%
X89500000Y-105000000D03*
D11*
X86960000Y-105000000D03*
%TD*%
%TO.C,D1*%
X61960000Y-105000000D03*
D10*
X64500000Y-105000000D03*
%TD*%
D13*
%TO.C,J1*%
X113100000Y-115540000D03*
X111830000Y-113000000D03*
X110560000Y-115540000D03*
X109290000Y-113000000D03*
X108020000Y-115540000D03*
D12*
X106750000Y-113000000D03*
%TD*%
D11*
%TO.C,D1*%
X111960000Y-105000000D03*
D10*
X114500000Y-105000000D03*
%TD*%
%TO.C,D1*%
X139500000Y-105000000D03*
D11*
X136960000Y-105000000D03*
%TD*%
D10*
%TO.C,T1*%
X105500000Y-105000000D03*
D11*
X108040000Y-105000000D03*
%TD*%
D12*
%TO.C,J1*%
X81750000Y-113000000D03*
D13*
X83020000Y-115540000D03*
X84290000Y-113000000D03*
X85560000Y-115540000D03*
X86830000Y-113000000D03*
X88100000Y-115540000D03*
%TD*%
D12*
%TO.C,J1*%
X131750000Y-113000000D03*
D13*
X133020000Y-115540000D03*
X134290000Y-113000000D03*
X135560000Y-115540000D03*
X136830000Y-113000000D03*
X138100000Y-115540000D03*
%TD*%
D11*
%TO.C,T1*%
X133040000Y-105000000D03*
D10*
X130500000Y-105000000D03*
%TD*%
D13*
%TO.C,J1*%
X63100000Y-115540000D03*
X61830000Y-113000000D03*
X60560000Y-115540000D03*
X59290000Y-113000000D03*
X58020000Y-115540000D03*
D12*
X56750000Y-113000000D03*
%TD*%
D11*
%TO.C,T1*%
X83040000Y-105000000D03*
D10*
X80500000Y-105000000D03*
%TD*%
%TO.C,T1*%
X55500000Y-105000000D03*
D11*
X58040000Y-105000000D03*
%TD*%
D12*
%TO.C,J1*%
X106750000Y-88000000D03*
D13*
X108020000Y-90540000D03*
X109290000Y-88000000D03*
X110560000Y-90540000D03*
X111830000Y-88000000D03*
X113100000Y-90540000D03*
%TD*%
D10*
%TO.C,D1*%
X114500000Y-80000000D03*
D11*
X111960000Y-80000000D03*
%TD*%
%TO.C,T1*%
X108040000Y-80000000D03*
D10*
X105500000Y-80000000D03*
%TD*%
D11*
%TO.C,D1*%
X86960000Y-80000000D03*
D10*
X89500000Y-80000000D03*
%TD*%
%TO.C,D1*%
X64500000Y-80000000D03*
D11*
X61960000Y-80000000D03*
%TD*%
%TO.C,D1*%
X136960000Y-80000000D03*
D10*
X139500000Y-80000000D03*
%TD*%
%TO.C,T1*%
X130500000Y-80000000D03*
D11*
X133040000Y-80000000D03*
%TD*%
D13*
%TO.C,J1*%
X138100000Y-90540000D03*
X136830000Y-88000000D03*
X135560000Y-90540000D03*
X134290000Y-88000000D03*
X133020000Y-90540000D03*
D12*
X131750000Y-88000000D03*
%TD*%
D13*
%TO.C,J1*%
X88100000Y-90540000D03*
X86830000Y-88000000D03*
X85560000Y-90540000D03*
X84290000Y-88000000D03*
X83020000Y-90540000D03*
D12*
X81750000Y-88000000D03*
%TD*%
%TO.C,J1*%
X56750000Y-88000000D03*
D13*
X58020000Y-90540000D03*
X59290000Y-88000000D03*
X60560000Y-90540000D03*
X61830000Y-88000000D03*
X63100000Y-90540000D03*
%TD*%
D10*
%TO.C,T1*%
X80500000Y-80000000D03*
D11*
X83040000Y-80000000D03*
%TD*%
%TO.C,T1*%
X58040000Y-80000000D03*
D10*
X55500000Y-80000000D03*
%TD*%
D12*
%TO.C,J1*%
X131750000Y-63000000D03*
D13*
X133020000Y-65540000D03*
X134290000Y-63000000D03*
X135560000Y-65540000D03*
X136830000Y-63000000D03*
X138100000Y-65540000D03*
%TD*%
D10*
%TO.C,D1*%
X139500000Y-55000000D03*
D11*
X136960000Y-55000000D03*
%TD*%
%TO.C,T1*%
X133040000Y-55000000D03*
D10*
X130500000Y-55000000D03*
%TD*%
D11*
%TO.C,D1*%
X111960000Y-55000000D03*
D10*
X114500000Y-55000000D03*
%TD*%
D13*
%TO.C,J1*%
X113100000Y-65540000D03*
X111830000Y-63000000D03*
X110560000Y-65540000D03*
X109290000Y-63000000D03*
X108020000Y-65540000D03*
D12*
X106750000Y-63000000D03*
%TD*%
D10*
%TO.C,T1*%
X105500000Y-55000000D03*
D11*
X108040000Y-55000000D03*
%TD*%
D10*
%TO.C,D1*%
X89500000Y-55000000D03*
D11*
X86960000Y-55000000D03*
%TD*%
D12*
%TO.C,J1*%
X81750000Y-63000000D03*
D13*
X83020000Y-65540000D03*
X84290000Y-63000000D03*
X85560000Y-65540000D03*
X86830000Y-63000000D03*
X88100000Y-65540000D03*
%TD*%
D11*
%TO.C,T1*%
X83040000Y-55000000D03*
D10*
X80500000Y-55000000D03*
%TD*%
D11*
%TO.C,D1*%
X61960000Y-55000000D03*
D10*
X64500000Y-55000000D03*
%TD*%
D13*
%TO.C,J1*%
X63100000Y-65540000D03*
X61830000Y-63000000D03*
X60560000Y-65540000D03*
X59290000Y-63000000D03*
X58020000Y-65540000D03*
D12*
X56750000Y-63000000D03*
%TD*%
D10*
%TO.C,T1*%
X55500000Y-55000000D03*
D11*
X58040000Y-55000000D03*
%TD*%
M02*
