%TF.GenerationSoftware,KiCad,Pcbnew,(5.1.9)-1*%
%TF.CreationDate,2021-10-26T13:29:37+02:00*%
%TF.ProjectId,Smartmeter_IR_V11_multi,536d6172-746d-4657-9465-725f49525f56,rev?*%
%TF.SameCoordinates,Original*%
%TF.FileFunction,Copper,L2,Bot*%
%TF.FilePolarity,Positive*%
%FSLAX46Y46*%
G04 Gerber Fmt 4.6, Leading zero omitted, Abs format (unit mm)*
G04 Created by KiCad (PCBNEW (5.1.9)-1) date 2021-10-26 13:29:37*
%MOMM*%
%LPD*%
G01*
G04 APERTURE LIST*
%TA.AperFunction,ComponentPad*%
%ADD10R,1.800000X1.800000*%
%TD*%
%TA.AperFunction,ComponentPad*%
%ADD11C,1.800000*%
%TD*%
%TA.AperFunction,ComponentPad*%
%ADD12R,1.520000X1.520000*%
%TD*%
%TA.AperFunction,ComponentPad*%
%ADD13C,1.520000*%
%TD*%
%TA.AperFunction,ViaPad*%
%ADD14C,0.800000*%
%TD*%
%TA.AperFunction,Conductor*%
%ADD15C,0.250000*%
%TD*%
G04 APERTURE END LIST*
D10*
%TO.P,T1,1*%
%TO.N,Net-(R1-Pad1)*%
X130500000Y-130000000D03*
D11*
%TO.P,T1,2*%
%TO.N,PWR*%
X133040000Y-130000000D03*
%TD*%
D12*
%TO.P,J1,1*%
%TO.N,Net-(D2-Pad2)*%
X56750000Y-138000000D03*
D13*
%TO.P,J1,2*%
%TO.N,Net-(J1-Pad2)*%
X58020000Y-140540000D03*
%TO.P,J1,3*%
%TO.N,Net-(J1-Pad3)*%
X59290000Y-138000000D03*
%TO.P,J1,4*%
%TO.N,Net-(IC1-Pad2)*%
X60560000Y-140540000D03*
%TO.P,J1,5*%
%TO.N,Net-(IC2-Pad4)*%
X61830000Y-138000000D03*
%TO.P,J1,6*%
%TO.N,GND*%
X63100000Y-140540000D03*
%TD*%
%TO.P,J1,6*%
%TO.N,GND*%
X88100000Y-140540000D03*
%TO.P,J1,5*%
%TO.N,Net-(IC2-Pad4)*%
X86830000Y-138000000D03*
%TO.P,J1,4*%
%TO.N,Net-(IC1-Pad2)*%
X85560000Y-140540000D03*
%TO.P,J1,3*%
%TO.N,Net-(J1-Pad3)*%
X84290000Y-138000000D03*
%TO.P,J1,2*%
%TO.N,Net-(J1-Pad2)*%
X83020000Y-140540000D03*
D12*
%TO.P,J1,1*%
%TO.N,Net-(D2-Pad2)*%
X81750000Y-138000000D03*
%TD*%
D11*
%TO.P,T1,2*%
%TO.N,PWR*%
X108040000Y-130000000D03*
D10*
%TO.P,T1,1*%
%TO.N,Net-(R1-Pad1)*%
X105500000Y-130000000D03*
%TD*%
D13*
%TO.P,J1,6*%
%TO.N,GND*%
X138100000Y-140540000D03*
%TO.P,J1,5*%
%TO.N,Net-(IC2-Pad4)*%
X136830000Y-138000000D03*
%TO.P,J1,4*%
%TO.N,Net-(IC1-Pad2)*%
X135560000Y-140540000D03*
%TO.P,J1,3*%
%TO.N,Net-(J1-Pad3)*%
X134290000Y-138000000D03*
%TO.P,J1,2*%
%TO.N,Net-(J1-Pad2)*%
X133020000Y-140540000D03*
D12*
%TO.P,J1,1*%
%TO.N,Net-(D2-Pad2)*%
X131750000Y-138000000D03*
%TD*%
D10*
%TO.P,T1,1*%
%TO.N,Net-(R1-Pad1)*%
X80500000Y-130000000D03*
D11*
%TO.P,T1,2*%
%TO.N,PWR*%
X83040000Y-130000000D03*
%TD*%
%TO.P,T1,2*%
%TO.N,PWR*%
X58040000Y-130000000D03*
D10*
%TO.P,T1,1*%
%TO.N,Net-(R1-Pad1)*%
X55500000Y-130000000D03*
%TD*%
%TO.P,D1,1*%
%TO.N,Net-(D1-Pad1)*%
X114500000Y-130000000D03*
D11*
%TO.P,D1,2*%
%TO.N,Net-(D1-Pad2)*%
X111960000Y-130000000D03*
%TD*%
%TO.P,D1,2*%
%TO.N,Net-(D1-Pad2)*%
X86960000Y-130000000D03*
D10*
%TO.P,D1,1*%
%TO.N,Net-(D1-Pad1)*%
X89500000Y-130000000D03*
%TD*%
%TO.P,D1,1*%
%TO.N,Net-(D1-Pad1)*%
X64500000Y-130000000D03*
D11*
%TO.P,D1,2*%
%TO.N,Net-(D1-Pad2)*%
X61960000Y-130000000D03*
%TD*%
%TO.P,D1,2*%
%TO.N,Net-(D1-Pad2)*%
X136960000Y-130000000D03*
D10*
%TO.P,D1,1*%
%TO.N,Net-(D1-Pad1)*%
X139500000Y-130000000D03*
%TD*%
D12*
%TO.P,J1,1*%
%TO.N,Net-(D2-Pad2)*%
X106750000Y-138000000D03*
D13*
%TO.P,J1,2*%
%TO.N,Net-(J1-Pad2)*%
X108020000Y-140540000D03*
%TO.P,J1,3*%
%TO.N,Net-(J1-Pad3)*%
X109290000Y-138000000D03*
%TO.P,J1,4*%
%TO.N,Net-(IC1-Pad2)*%
X110560000Y-140540000D03*
%TO.P,J1,5*%
%TO.N,Net-(IC2-Pad4)*%
X111830000Y-138000000D03*
%TO.P,J1,6*%
%TO.N,GND*%
X113100000Y-140540000D03*
%TD*%
D10*
%TO.P,D1,1*%
%TO.N,Net-(D1-Pad1)*%
X89500000Y-105000000D03*
D11*
%TO.P,D1,2*%
%TO.N,Net-(D1-Pad2)*%
X86960000Y-105000000D03*
%TD*%
%TO.P,D1,2*%
%TO.N,Net-(D1-Pad2)*%
X61960000Y-105000000D03*
D10*
%TO.P,D1,1*%
%TO.N,Net-(D1-Pad1)*%
X64500000Y-105000000D03*
%TD*%
D13*
%TO.P,J1,6*%
%TO.N,GND*%
X113100000Y-115540000D03*
%TO.P,J1,5*%
%TO.N,Net-(IC2-Pad4)*%
X111830000Y-113000000D03*
%TO.P,J1,4*%
%TO.N,Net-(IC1-Pad2)*%
X110560000Y-115540000D03*
%TO.P,J1,3*%
%TO.N,Net-(J1-Pad3)*%
X109290000Y-113000000D03*
%TO.P,J1,2*%
%TO.N,Net-(J1-Pad2)*%
X108020000Y-115540000D03*
D12*
%TO.P,J1,1*%
%TO.N,Net-(D2-Pad2)*%
X106750000Y-113000000D03*
%TD*%
D11*
%TO.P,D1,2*%
%TO.N,Net-(D1-Pad2)*%
X111960000Y-105000000D03*
D10*
%TO.P,D1,1*%
%TO.N,Net-(D1-Pad1)*%
X114500000Y-105000000D03*
%TD*%
%TO.P,D1,1*%
%TO.N,Net-(D1-Pad1)*%
X139500000Y-105000000D03*
D11*
%TO.P,D1,2*%
%TO.N,Net-(D1-Pad2)*%
X136960000Y-105000000D03*
%TD*%
D10*
%TO.P,T1,1*%
%TO.N,Net-(R1-Pad1)*%
X105500000Y-105000000D03*
D11*
%TO.P,T1,2*%
%TO.N,PWR*%
X108040000Y-105000000D03*
%TD*%
D12*
%TO.P,J1,1*%
%TO.N,Net-(D2-Pad2)*%
X81750000Y-113000000D03*
D13*
%TO.P,J1,2*%
%TO.N,Net-(J1-Pad2)*%
X83020000Y-115540000D03*
%TO.P,J1,3*%
%TO.N,Net-(J1-Pad3)*%
X84290000Y-113000000D03*
%TO.P,J1,4*%
%TO.N,Net-(IC1-Pad2)*%
X85560000Y-115540000D03*
%TO.P,J1,5*%
%TO.N,Net-(IC2-Pad4)*%
X86830000Y-113000000D03*
%TO.P,J1,6*%
%TO.N,GND*%
X88100000Y-115540000D03*
%TD*%
D12*
%TO.P,J1,1*%
%TO.N,Net-(D2-Pad2)*%
X131750000Y-113000000D03*
D13*
%TO.P,J1,2*%
%TO.N,Net-(J1-Pad2)*%
X133020000Y-115540000D03*
%TO.P,J1,3*%
%TO.N,Net-(J1-Pad3)*%
X134290000Y-113000000D03*
%TO.P,J1,4*%
%TO.N,Net-(IC1-Pad2)*%
X135560000Y-115540000D03*
%TO.P,J1,5*%
%TO.N,Net-(IC2-Pad4)*%
X136830000Y-113000000D03*
%TO.P,J1,6*%
%TO.N,GND*%
X138100000Y-115540000D03*
%TD*%
D11*
%TO.P,T1,2*%
%TO.N,PWR*%
X133040000Y-105000000D03*
D10*
%TO.P,T1,1*%
%TO.N,Net-(R1-Pad1)*%
X130500000Y-105000000D03*
%TD*%
D13*
%TO.P,J1,6*%
%TO.N,GND*%
X63100000Y-115540000D03*
%TO.P,J1,5*%
%TO.N,Net-(IC2-Pad4)*%
X61830000Y-113000000D03*
%TO.P,J1,4*%
%TO.N,Net-(IC1-Pad2)*%
X60560000Y-115540000D03*
%TO.P,J1,3*%
%TO.N,Net-(J1-Pad3)*%
X59290000Y-113000000D03*
%TO.P,J1,2*%
%TO.N,Net-(J1-Pad2)*%
X58020000Y-115540000D03*
D12*
%TO.P,J1,1*%
%TO.N,Net-(D2-Pad2)*%
X56750000Y-113000000D03*
%TD*%
D11*
%TO.P,T1,2*%
%TO.N,PWR*%
X83040000Y-105000000D03*
D10*
%TO.P,T1,1*%
%TO.N,Net-(R1-Pad1)*%
X80500000Y-105000000D03*
%TD*%
%TO.P,T1,1*%
%TO.N,Net-(R1-Pad1)*%
X55500000Y-105000000D03*
D11*
%TO.P,T1,2*%
%TO.N,PWR*%
X58040000Y-105000000D03*
%TD*%
D12*
%TO.P,J1,1*%
%TO.N,Net-(D2-Pad2)*%
X106750000Y-88000000D03*
D13*
%TO.P,J1,2*%
%TO.N,Net-(J1-Pad2)*%
X108020000Y-90540000D03*
%TO.P,J1,3*%
%TO.N,Net-(J1-Pad3)*%
X109290000Y-88000000D03*
%TO.P,J1,4*%
%TO.N,Net-(IC1-Pad2)*%
X110560000Y-90540000D03*
%TO.P,J1,5*%
%TO.N,Net-(IC2-Pad4)*%
X111830000Y-88000000D03*
%TO.P,J1,6*%
%TO.N,GND*%
X113100000Y-90540000D03*
%TD*%
D10*
%TO.P,D1,1*%
%TO.N,Net-(D1-Pad1)*%
X114500000Y-80000000D03*
D11*
%TO.P,D1,2*%
%TO.N,Net-(D1-Pad2)*%
X111960000Y-80000000D03*
%TD*%
%TO.P,T1,2*%
%TO.N,PWR*%
X108040000Y-80000000D03*
D10*
%TO.P,T1,1*%
%TO.N,Net-(R1-Pad1)*%
X105500000Y-80000000D03*
%TD*%
D11*
%TO.P,D1,2*%
%TO.N,Net-(D1-Pad2)*%
X86960000Y-80000000D03*
D10*
%TO.P,D1,1*%
%TO.N,Net-(D1-Pad1)*%
X89500000Y-80000000D03*
%TD*%
%TO.P,D1,1*%
%TO.N,Net-(D1-Pad1)*%
X64500000Y-80000000D03*
D11*
%TO.P,D1,2*%
%TO.N,Net-(D1-Pad2)*%
X61960000Y-80000000D03*
%TD*%
%TO.P,D1,2*%
%TO.N,Net-(D1-Pad2)*%
X136960000Y-80000000D03*
D10*
%TO.P,D1,1*%
%TO.N,Net-(D1-Pad1)*%
X139500000Y-80000000D03*
%TD*%
%TO.P,T1,1*%
%TO.N,Net-(R1-Pad1)*%
X130500000Y-80000000D03*
D11*
%TO.P,T1,2*%
%TO.N,PWR*%
X133040000Y-80000000D03*
%TD*%
D13*
%TO.P,J1,6*%
%TO.N,GND*%
X138100000Y-90540000D03*
%TO.P,J1,5*%
%TO.N,Net-(IC2-Pad4)*%
X136830000Y-88000000D03*
%TO.P,J1,4*%
%TO.N,Net-(IC1-Pad2)*%
X135560000Y-90540000D03*
%TO.P,J1,3*%
%TO.N,Net-(J1-Pad3)*%
X134290000Y-88000000D03*
%TO.P,J1,2*%
%TO.N,Net-(J1-Pad2)*%
X133020000Y-90540000D03*
D12*
%TO.P,J1,1*%
%TO.N,Net-(D2-Pad2)*%
X131750000Y-88000000D03*
%TD*%
D13*
%TO.P,J1,6*%
%TO.N,GND*%
X88100000Y-90540000D03*
%TO.P,J1,5*%
%TO.N,Net-(IC2-Pad4)*%
X86830000Y-88000000D03*
%TO.P,J1,4*%
%TO.N,Net-(IC1-Pad2)*%
X85560000Y-90540000D03*
%TO.P,J1,3*%
%TO.N,Net-(J1-Pad3)*%
X84290000Y-88000000D03*
%TO.P,J1,2*%
%TO.N,Net-(J1-Pad2)*%
X83020000Y-90540000D03*
D12*
%TO.P,J1,1*%
%TO.N,Net-(D2-Pad2)*%
X81750000Y-88000000D03*
%TD*%
%TO.P,J1,1*%
%TO.N,Net-(D2-Pad2)*%
X56750000Y-88000000D03*
D13*
%TO.P,J1,2*%
%TO.N,Net-(J1-Pad2)*%
X58020000Y-90540000D03*
%TO.P,J1,3*%
%TO.N,Net-(J1-Pad3)*%
X59290000Y-88000000D03*
%TO.P,J1,4*%
%TO.N,Net-(IC1-Pad2)*%
X60560000Y-90540000D03*
%TO.P,J1,5*%
%TO.N,Net-(IC2-Pad4)*%
X61830000Y-88000000D03*
%TO.P,J1,6*%
%TO.N,GND*%
X63100000Y-90540000D03*
%TD*%
D10*
%TO.P,T1,1*%
%TO.N,Net-(R1-Pad1)*%
X80500000Y-80000000D03*
D11*
%TO.P,T1,2*%
%TO.N,PWR*%
X83040000Y-80000000D03*
%TD*%
%TO.P,T1,2*%
%TO.N,PWR*%
X58040000Y-80000000D03*
D10*
%TO.P,T1,1*%
%TO.N,Net-(R1-Pad1)*%
X55500000Y-80000000D03*
%TD*%
D12*
%TO.P,J1,1*%
%TO.N,Net-(D2-Pad2)*%
X131750000Y-63000000D03*
D13*
%TO.P,J1,2*%
%TO.N,Net-(J1-Pad2)*%
X133020000Y-65540000D03*
%TO.P,J1,3*%
%TO.N,Net-(J1-Pad3)*%
X134290000Y-63000000D03*
%TO.P,J1,4*%
%TO.N,Net-(IC1-Pad2)*%
X135560000Y-65540000D03*
%TO.P,J1,5*%
%TO.N,Net-(IC2-Pad4)*%
X136830000Y-63000000D03*
%TO.P,J1,6*%
%TO.N,GND*%
X138100000Y-65540000D03*
%TD*%
D10*
%TO.P,D1,1*%
%TO.N,Net-(D1-Pad1)*%
X139500000Y-55000000D03*
D11*
%TO.P,D1,2*%
%TO.N,Net-(D1-Pad2)*%
X136960000Y-55000000D03*
%TD*%
%TO.P,T1,2*%
%TO.N,PWR*%
X133040000Y-55000000D03*
D10*
%TO.P,T1,1*%
%TO.N,Net-(R1-Pad1)*%
X130500000Y-55000000D03*
%TD*%
D11*
%TO.P,D1,2*%
%TO.N,Net-(D1-Pad2)*%
X111960000Y-55000000D03*
D10*
%TO.P,D1,1*%
%TO.N,Net-(D1-Pad1)*%
X114500000Y-55000000D03*
%TD*%
D13*
%TO.P,J1,6*%
%TO.N,GND*%
X113100000Y-65540000D03*
%TO.P,J1,5*%
%TO.N,Net-(IC2-Pad4)*%
X111830000Y-63000000D03*
%TO.P,J1,4*%
%TO.N,Net-(IC1-Pad2)*%
X110560000Y-65540000D03*
%TO.P,J1,3*%
%TO.N,Net-(J1-Pad3)*%
X109290000Y-63000000D03*
%TO.P,J1,2*%
%TO.N,Net-(J1-Pad2)*%
X108020000Y-65540000D03*
D12*
%TO.P,J1,1*%
%TO.N,Net-(D2-Pad2)*%
X106750000Y-63000000D03*
%TD*%
D10*
%TO.P,T1,1*%
%TO.N,Net-(R1-Pad1)*%
X105500000Y-55000000D03*
D11*
%TO.P,T1,2*%
%TO.N,PWR*%
X108040000Y-55000000D03*
%TD*%
D10*
%TO.P,D1,1*%
%TO.N,Net-(D1-Pad1)*%
X89500000Y-55000000D03*
D11*
%TO.P,D1,2*%
%TO.N,Net-(D1-Pad2)*%
X86960000Y-55000000D03*
%TD*%
D12*
%TO.P,J1,1*%
%TO.N,Net-(D2-Pad2)*%
X81750000Y-63000000D03*
D13*
%TO.P,J1,2*%
%TO.N,Net-(J1-Pad2)*%
X83020000Y-65540000D03*
%TO.P,J1,3*%
%TO.N,Net-(J1-Pad3)*%
X84290000Y-63000000D03*
%TO.P,J1,4*%
%TO.N,Net-(IC1-Pad2)*%
X85560000Y-65540000D03*
%TO.P,J1,5*%
%TO.N,Net-(IC2-Pad4)*%
X86830000Y-63000000D03*
%TO.P,J1,6*%
%TO.N,GND*%
X88100000Y-65540000D03*
%TD*%
D11*
%TO.P,T1,2*%
%TO.N,PWR*%
X83040000Y-55000000D03*
D10*
%TO.P,T1,1*%
%TO.N,Net-(R1-Pad1)*%
X80500000Y-55000000D03*
%TD*%
D11*
%TO.P,D1,2*%
%TO.N,Net-(D1-Pad2)*%
X61960000Y-55000000D03*
D10*
%TO.P,D1,1*%
%TO.N,Net-(D1-Pad1)*%
X64500000Y-55000000D03*
%TD*%
D13*
%TO.P,J1,6*%
%TO.N,GND*%
X63100000Y-65540000D03*
%TO.P,J1,5*%
%TO.N,Net-(IC2-Pad4)*%
X61830000Y-63000000D03*
%TO.P,J1,4*%
%TO.N,Net-(IC1-Pad2)*%
X60560000Y-65540000D03*
%TO.P,J1,3*%
%TO.N,Net-(J1-Pad3)*%
X59290000Y-63000000D03*
%TO.P,J1,2*%
%TO.N,Net-(J1-Pad2)*%
X58020000Y-65540000D03*
D12*
%TO.P,J1,1*%
%TO.N,Net-(D2-Pad2)*%
X56750000Y-63000000D03*
%TD*%
D10*
%TO.P,T1,1*%
%TO.N,Net-(R1-Pad1)*%
X55500000Y-55000000D03*
D11*
%TO.P,T1,2*%
%TO.N,PWR*%
X58040000Y-55000000D03*
%TD*%
D14*
%TO.N,PWR*%
X63263000Y-51839600D03*
X88263000Y-51839600D03*
X113263000Y-51839600D03*
X138263000Y-51839600D03*
X63263000Y-76839600D03*
X88263000Y-76839600D03*
X113263000Y-76839600D03*
X138263000Y-76839600D03*
X63263000Y-101839600D03*
X88263000Y-101839600D03*
X113263000Y-101839600D03*
X138263000Y-101839600D03*
X113263000Y-126839600D03*
X63263000Y-126839600D03*
X88263000Y-126839600D03*
X138263000Y-126839600D03*
%TD*%
D15*
%TO.N,PWR*%
X58040000Y-55000000D02*
X61200400Y-51839600D01*
X61200400Y-51839600D02*
X63263000Y-51839600D01*
X86200400Y-51839600D02*
X88263000Y-51839600D01*
X83040000Y-55000000D02*
X86200400Y-51839600D01*
X111200400Y-51839600D02*
X113263000Y-51839600D01*
X108040000Y-55000000D02*
X111200400Y-51839600D01*
X133040000Y-55000000D02*
X136200400Y-51839600D01*
X136200400Y-51839600D02*
X138263000Y-51839600D01*
X133040000Y-80000000D02*
X136200400Y-76839600D01*
X136200400Y-76839600D02*
X138263000Y-76839600D01*
X108040000Y-80000000D02*
X111200400Y-76839600D01*
X61200400Y-76839600D02*
X63263000Y-76839600D01*
X58040000Y-80000000D02*
X61200400Y-76839600D01*
X86200400Y-76839600D02*
X88263000Y-76839600D01*
X83040000Y-80000000D02*
X86200400Y-76839600D01*
X111200400Y-76839600D02*
X113263000Y-76839600D01*
X83040000Y-105000000D02*
X86200400Y-101839600D01*
X111200400Y-101839600D02*
X113263000Y-101839600D01*
X58040000Y-105000000D02*
X61200400Y-101839600D01*
X61200400Y-101839600D02*
X63263000Y-101839600D01*
X86200400Y-101839600D02*
X88263000Y-101839600D01*
X133040000Y-105000000D02*
X136200400Y-101839600D01*
X136200400Y-101839600D02*
X138263000Y-101839600D01*
X108040000Y-105000000D02*
X111200400Y-101839600D01*
X83040000Y-130000000D02*
X86200400Y-126839600D01*
X111200400Y-126839600D02*
X113263000Y-126839600D01*
X61200400Y-126839600D02*
X63263000Y-126839600D01*
X58040000Y-130000000D02*
X61200400Y-126839600D01*
X86200400Y-126839600D02*
X88263000Y-126839600D01*
X133040000Y-130000000D02*
X136200400Y-126839600D01*
X136200400Y-126839600D02*
X138263000Y-126839600D01*
X108040000Y-130000000D02*
X111200400Y-126839600D01*
%TD*%
M02*
