%TF.GenerationSoftware,KiCad,Pcbnew,(5.1.9)-1*%
%TF.CreationDate,2021-10-26T13:29:37+02:00*%
%TF.ProjectId,Smartmeter_IR_V11_multi,536d6172-746d-4657-9465-725f49525f56,rev?*%
%TF.SameCoordinates,Original*%
%TF.FileFunction,Paste,Top*%
%TF.FilePolarity,Positive*%
%FSLAX46Y46*%
G04 Gerber Fmt 4.6, Leading zero omitted, Abs format (unit mm)*
G04 Created by KiCad (PCBNEW (5.1.9)-1) date 2021-10-26 13:29:37*
%MOMM*%
%LPD*%
G01*
G04 APERTURE LIST*
%ADD10R,0.650000X1.060000*%
%ADD11R,0.800000X0.900000*%
%ADD12R,1.060000X0.650000*%
%ADD13R,0.900000X0.800000*%
%ADD14R,1.200000X0.900000*%
G04 APERTURE END LIST*
D10*
%TO.C,IC1*%
X104550000Y-126100000D03*
X105500000Y-126100000D03*
X106450000Y-126100000D03*
X106450000Y-123900000D03*
X104550000Y-123900000D03*
%TD*%
D11*
%TO.C,T3*%
X65500000Y-133000000D03*
X66450000Y-135000000D03*
X64550000Y-135000000D03*
%TD*%
%TO.C,R1*%
G36*
G01*
X105262500Y-132600000D02*
X105737500Y-132600000D01*
G75*
G02*
X105975000Y-132837500I0J-237500D01*
G01*
X105975000Y-133337500D01*
G75*
G02*
X105737500Y-133575000I-237500J0D01*
G01*
X105262500Y-133575000D01*
G75*
G02*
X105025000Y-133337500I0J237500D01*
G01*
X105025000Y-132837500D01*
G75*
G02*
X105262500Y-132600000I237500J0D01*
G01*
G37*
G36*
G01*
X105262500Y-134425000D02*
X105737500Y-134425000D01*
G75*
G02*
X105975000Y-134662500I0J-237500D01*
G01*
X105975000Y-135162500D01*
G75*
G02*
X105737500Y-135400000I-237500J0D01*
G01*
X105262500Y-135400000D01*
G75*
G02*
X105025000Y-135162500I0J237500D01*
G01*
X105025000Y-134662500D01*
G75*
G02*
X105262500Y-134425000I237500J0D01*
G01*
G37*
%TD*%
%TO.C,C1*%
G36*
G01*
X103737500Y-130400000D02*
X103262500Y-130400000D01*
G75*
G02*
X103025000Y-130162500I0J237500D01*
G01*
X103025000Y-129562500D01*
G75*
G02*
X103262500Y-129325000I237500J0D01*
G01*
X103737500Y-129325000D01*
G75*
G02*
X103975000Y-129562500I0J-237500D01*
G01*
X103975000Y-130162500D01*
G75*
G02*
X103737500Y-130400000I-237500J0D01*
G01*
G37*
G36*
G01*
X103737500Y-128675000D02*
X103262500Y-128675000D01*
G75*
G02*
X103025000Y-128437500I0J237500D01*
G01*
X103025000Y-127837500D01*
G75*
G02*
X103262500Y-127600000I237500J0D01*
G01*
X103737500Y-127600000D01*
G75*
G02*
X103975000Y-127837500I0J-237500D01*
G01*
X103975000Y-128437500D01*
G75*
G02*
X103737500Y-128675000I-237500J0D01*
G01*
G37*
%TD*%
D12*
%TO.C,IC2*%
X64300000Y-126000000D03*
X64300000Y-124100000D03*
X66500000Y-124100000D03*
X66500000Y-125050000D03*
X66500000Y-126000000D03*
%TD*%
D11*
%TO.C,T3*%
X139550000Y-135000000D03*
X141450000Y-135000000D03*
X140500000Y-133000000D03*
%TD*%
%TO.C,R1*%
G36*
G01*
X55262500Y-132600000D02*
X55737500Y-132600000D01*
G75*
G02*
X55975000Y-132837500I0J-237500D01*
G01*
X55975000Y-133337500D01*
G75*
G02*
X55737500Y-133575000I-237500J0D01*
G01*
X55262500Y-133575000D01*
G75*
G02*
X55025000Y-133337500I0J237500D01*
G01*
X55025000Y-132837500D01*
G75*
G02*
X55262500Y-132600000I237500J0D01*
G01*
G37*
G36*
G01*
X55262500Y-134425000D02*
X55737500Y-134425000D01*
G75*
G02*
X55975000Y-134662500I0J-237500D01*
G01*
X55975000Y-135162500D01*
G75*
G02*
X55737500Y-135400000I-237500J0D01*
G01*
X55262500Y-135400000D01*
G75*
G02*
X55025000Y-135162500I0J237500D01*
G01*
X55025000Y-134662500D01*
G75*
G02*
X55262500Y-134425000I237500J0D01*
G01*
G37*
%TD*%
%TO.C,R4*%
G36*
G01*
X62737500Y-124575000D02*
X62262500Y-124575000D01*
G75*
G02*
X62025000Y-124337500I0J237500D01*
G01*
X62025000Y-123837500D01*
G75*
G02*
X62262500Y-123600000I237500J0D01*
G01*
X62737500Y-123600000D01*
G75*
G02*
X62975000Y-123837500I0J-237500D01*
G01*
X62975000Y-124337500D01*
G75*
G02*
X62737500Y-124575000I-237500J0D01*
G01*
G37*
G36*
G01*
X62737500Y-126400000D02*
X62262500Y-126400000D01*
G75*
G02*
X62025000Y-126162500I0J237500D01*
G01*
X62025000Y-125662500D01*
G75*
G02*
X62262500Y-125425000I237500J0D01*
G01*
X62737500Y-125425000D01*
G75*
G02*
X62975000Y-125662500I0J-237500D01*
G01*
X62975000Y-126162500D01*
G75*
G02*
X62737500Y-126400000I-237500J0D01*
G01*
G37*
%TD*%
D13*
%TO.C,T2*%
X58500000Y-124050000D03*
X58500000Y-125950000D03*
X60500000Y-125000000D03*
%TD*%
%TO.C,R3*%
G36*
G01*
X132100000Y-122237500D02*
X132100000Y-121762500D01*
G75*
G02*
X132337500Y-121525000I237500J0D01*
G01*
X132837500Y-121525000D01*
G75*
G02*
X133075000Y-121762500I0J-237500D01*
G01*
X133075000Y-122237500D01*
G75*
G02*
X132837500Y-122475000I-237500J0D01*
G01*
X132337500Y-122475000D01*
G75*
G02*
X132100000Y-122237500I0J237500D01*
G01*
G37*
G36*
G01*
X133925000Y-122237500D02*
X133925000Y-121762500D01*
G75*
G02*
X134162500Y-121525000I237500J0D01*
G01*
X134662500Y-121525000D01*
G75*
G02*
X134900000Y-121762500I0J-237500D01*
G01*
X134900000Y-122237500D01*
G75*
G02*
X134662500Y-122475000I-237500J0D01*
G01*
X134162500Y-122475000D01*
G75*
G02*
X133925000Y-122237500I0J237500D01*
G01*
G37*
%TD*%
%TO.C,T2*%
X135500000Y-125000000D03*
X133500000Y-125950000D03*
X133500000Y-124050000D03*
%TD*%
%TO.C,R2*%
G36*
G01*
X112237500Y-135400000D02*
X111762500Y-135400000D01*
G75*
G02*
X111525000Y-135162500I0J237500D01*
G01*
X111525000Y-134662500D01*
G75*
G02*
X111762500Y-134425000I237500J0D01*
G01*
X112237500Y-134425000D01*
G75*
G02*
X112475000Y-134662500I0J-237500D01*
G01*
X112475000Y-135162500D01*
G75*
G02*
X112237500Y-135400000I-237500J0D01*
G01*
G37*
G36*
G01*
X112237500Y-133575000D02*
X111762500Y-133575000D01*
G75*
G02*
X111525000Y-133337500I0J237500D01*
G01*
X111525000Y-132837500D01*
G75*
G02*
X111762500Y-132600000I237500J0D01*
G01*
X112237500Y-132600000D01*
G75*
G02*
X112475000Y-132837500I0J-237500D01*
G01*
X112475000Y-133337500D01*
G75*
G02*
X112237500Y-133575000I-237500J0D01*
G01*
G37*
%TD*%
%TO.C,C3*%
G36*
G01*
X116762500Y-129325000D02*
X117237500Y-129325000D01*
G75*
G02*
X117475000Y-129562500I0J-237500D01*
G01*
X117475000Y-130162500D01*
G75*
G02*
X117237500Y-130400000I-237500J0D01*
G01*
X116762500Y-130400000D01*
G75*
G02*
X116525000Y-130162500I0J237500D01*
G01*
X116525000Y-129562500D01*
G75*
G02*
X116762500Y-129325000I237500J0D01*
G01*
G37*
G36*
G01*
X116762500Y-127600000D02*
X117237500Y-127600000D01*
G75*
G02*
X117475000Y-127837500I0J-237500D01*
G01*
X117475000Y-128437500D01*
G75*
G02*
X117237500Y-128675000I-237500J0D01*
G01*
X116762500Y-128675000D01*
G75*
G02*
X116525000Y-128437500I0J237500D01*
G01*
X116525000Y-127837500D01*
G75*
G02*
X116762500Y-127600000I237500J0D01*
G01*
G37*
%TD*%
%TO.C,R2*%
G36*
G01*
X137237500Y-133575000D02*
X136762500Y-133575000D01*
G75*
G02*
X136525000Y-133337500I0J237500D01*
G01*
X136525000Y-132837500D01*
G75*
G02*
X136762500Y-132600000I237500J0D01*
G01*
X137237500Y-132600000D01*
G75*
G02*
X137475000Y-132837500I0J-237500D01*
G01*
X137475000Y-133337500D01*
G75*
G02*
X137237500Y-133575000I-237500J0D01*
G01*
G37*
G36*
G01*
X137237500Y-135400000D02*
X136762500Y-135400000D01*
G75*
G02*
X136525000Y-135162500I0J237500D01*
G01*
X136525000Y-134662500D01*
G75*
G02*
X136762500Y-134425000I237500J0D01*
G01*
X137237500Y-134425000D01*
G75*
G02*
X137475000Y-134662500I0J-237500D01*
G01*
X137475000Y-135162500D01*
G75*
G02*
X137237500Y-135400000I-237500J0D01*
G01*
G37*
%TD*%
%TO.C,R2*%
G36*
G01*
X62237500Y-135400000D02*
X61762500Y-135400000D01*
G75*
G02*
X61525000Y-135162500I0J237500D01*
G01*
X61525000Y-134662500D01*
G75*
G02*
X61762500Y-134425000I237500J0D01*
G01*
X62237500Y-134425000D01*
G75*
G02*
X62475000Y-134662500I0J-237500D01*
G01*
X62475000Y-135162500D01*
G75*
G02*
X62237500Y-135400000I-237500J0D01*
G01*
G37*
G36*
G01*
X62237500Y-133575000D02*
X61762500Y-133575000D01*
G75*
G02*
X61525000Y-133337500I0J237500D01*
G01*
X61525000Y-132837500D01*
G75*
G02*
X61762500Y-132600000I237500J0D01*
G01*
X62237500Y-132600000D01*
G75*
G02*
X62475000Y-132837500I0J-237500D01*
G01*
X62475000Y-133337500D01*
G75*
G02*
X62237500Y-133575000I-237500J0D01*
G01*
G37*
%TD*%
%TO.C,R2*%
G36*
G01*
X87237500Y-133575000D02*
X86762500Y-133575000D01*
G75*
G02*
X86525000Y-133337500I0J237500D01*
G01*
X86525000Y-132837500D01*
G75*
G02*
X86762500Y-132600000I237500J0D01*
G01*
X87237500Y-132600000D01*
G75*
G02*
X87475000Y-132837500I0J-237500D01*
G01*
X87475000Y-133337500D01*
G75*
G02*
X87237500Y-133575000I-237500J0D01*
G01*
G37*
G36*
G01*
X87237500Y-135400000D02*
X86762500Y-135400000D01*
G75*
G02*
X86525000Y-135162500I0J237500D01*
G01*
X86525000Y-134662500D01*
G75*
G02*
X86762500Y-134425000I237500J0D01*
G01*
X87237500Y-134425000D01*
G75*
G02*
X87475000Y-134662500I0J-237500D01*
G01*
X87475000Y-135162500D01*
G75*
G02*
X87237500Y-135400000I-237500J0D01*
G01*
G37*
%TD*%
%TO.C,R1*%
G36*
G01*
X80262500Y-134425000D02*
X80737500Y-134425000D01*
G75*
G02*
X80975000Y-134662500I0J-237500D01*
G01*
X80975000Y-135162500D01*
G75*
G02*
X80737500Y-135400000I-237500J0D01*
G01*
X80262500Y-135400000D01*
G75*
G02*
X80025000Y-135162500I0J237500D01*
G01*
X80025000Y-134662500D01*
G75*
G02*
X80262500Y-134425000I237500J0D01*
G01*
G37*
G36*
G01*
X80262500Y-132600000D02*
X80737500Y-132600000D01*
G75*
G02*
X80975000Y-132837500I0J-237500D01*
G01*
X80975000Y-133337500D01*
G75*
G02*
X80737500Y-133575000I-237500J0D01*
G01*
X80262500Y-133575000D01*
G75*
G02*
X80025000Y-133337500I0J237500D01*
G01*
X80025000Y-132837500D01*
G75*
G02*
X80262500Y-132600000I237500J0D01*
G01*
G37*
%TD*%
%TO.C,C1*%
G36*
G01*
X128737500Y-128675000D02*
X128262500Y-128675000D01*
G75*
G02*
X128025000Y-128437500I0J237500D01*
G01*
X128025000Y-127837500D01*
G75*
G02*
X128262500Y-127600000I237500J0D01*
G01*
X128737500Y-127600000D01*
G75*
G02*
X128975000Y-127837500I0J-237500D01*
G01*
X128975000Y-128437500D01*
G75*
G02*
X128737500Y-128675000I-237500J0D01*
G01*
G37*
G36*
G01*
X128737500Y-130400000D02*
X128262500Y-130400000D01*
G75*
G02*
X128025000Y-130162500I0J237500D01*
G01*
X128025000Y-129562500D01*
G75*
G02*
X128262500Y-129325000I237500J0D01*
G01*
X128737500Y-129325000D01*
G75*
G02*
X128975000Y-129562500I0J-237500D01*
G01*
X128975000Y-130162500D01*
G75*
G02*
X128737500Y-130400000I-237500J0D01*
G01*
G37*
%TD*%
D14*
%TO.C,D2*%
X53000000Y-135150000D03*
X53000000Y-131850000D03*
%TD*%
%TO.C,R3*%
G36*
G01*
X82100000Y-122237500D02*
X82100000Y-121762500D01*
G75*
G02*
X82337500Y-121525000I237500J0D01*
G01*
X82837500Y-121525000D01*
G75*
G02*
X83075000Y-121762500I0J-237500D01*
G01*
X83075000Y-122237500D01*
G75*
G02*
X82837500Y-122475000I-237500J0D01*
G01*
X82337500Y-122475000D01*
G75*
G02*
X82100000Y-122237500I0J237500D01*
G01*
G37*
G36*
G01*
X83925000Y-122237500D02*
X83925000Y-121762500D01*
G75*
G02*
X84162500Y-121525000I237500J0D01*
G01*
X84662500Y-121525000D01*
G75*
G02*
X84900000Y-121762500I0J-237500D01*
G01*
X84900000Y-122237500D01*
G75*
G02*
X84662500Y-122475000I-237500J0D01*
G01*
X84162500Y-122475000D01*
G75*
G02*
X83925000Y-122237500I0J237500D01*
G01*
G37*
%TD*%
%TO.C,C1*%
G36*
G01*
X53737500Y-130400000D02*
X53262500Y-130400000D01*
G75*
G02*
X53025000Y-130162500I0J237500D01*
G01*
X53025000Y-129562500D01*
G75*
G02*
X53262500Y-129325000I237500J0D01*
G01*
X53737500Y-129325000D01*
G75*
G02*
X53975000Y-129562500I0J-237500D01*
G01*
X53975000Y-130162500D01*
G75*
G02*
X53737500Y-130400000I-237500J0D01*
G01*
G37*
G36*
G01*
X53737500Y-128675000D02*
X53262500Y-128675000D01*
G75*
G02*
X53025000Y-128437500I0J237500D01*
G01*
X53025000Y-127837500D01*
G75*
G02*
X53262500Y-127600000I237500J0D01*
G01*
X53737500Y-127600000D01*
G75*
G02*
X53975000Y-127837500I0J-237500D01*
G01*
X53975000Y-128437500D01*
G75*
G02*
X53737500Y-128675000I-237500J0D01*
G01*
G37*
%TD*%
%TO.C,D2*%
X78000000Y-131850000D03*
X78000000Y-135150000D03*
%TD*%
%TO.C,D2*%
X103000000Y-135150000D03*
X103000000Y-131850000D03*
%TD*%
D13*
%TO.C,T2*%
X85500000Y-125000000D03*
X83500000Y-125950000D03*
X83500000Y-124050000D03*
%TD*%
D12*
%TO.C,IC2*%
X91500000Y-126000000D03*
X91500000Y-125050000D03*
X91500000Y-124100000D03*
X89300000Y-124100000D03*
X89300000Y-126000000D03*
%TD*%
%TO.C,R4*%
G36*
G01*
X137737500Y-126400000D02*
X137262500Y-126400000D01*
G75*
G02*
X137025000Y-126162500I0J237500D01*
G01*
X137025000Y-125662500D01*
G75*
G02*
X137262500Y-125425000I237500J0D01*
G01*
X137737500Y-125425000D01*
G75*
G02*
X137975000Y-125662500I0J-237500D01*
G01*
X137975000Y-126162500D01*
G75*
G02*
X137737500Y-126400000I-237500J0D01*
G01*
G37*
G36*
G01*
X137737500Y-124575000D02*
X137262500Y-124575000D01*
G75*
G02*
X137025000Y-124337500I0J237500D01*
G01*
X137025000Y-123837500D01*
G75*
G02*
X137262500Y-123600000I237500J0D01*
G01*
X137737500Y-123600000D01*
G75*
G02*
X137975000Y-123837500I0J-237500D01*
G01*
X137975000Y-124337500D01*
G75*
G02*
X137737500Y-124575000I-237500J0D01*
G01*
G37*
%TD*%
%TO.C,C2*%
G36*
G01*
X107762500Y-134325000D02*
X108237500Y-134325000D01*
G75*
G02*
X108475000Y-134562500I0J-237500D01*
G01*
X108475000Y-135162500D01*
G75*
G02*
X108237500Y-135400000I-237500J0D01*
G01*
X107762500Y-135400000D01*
G75*
G02*
X107525000Y-135162500I0J237500D01*
G01*
X107525000Y-134562500D01*
G75*
G02*
X107762500Y-134325000I237500J0D01*
G01*
G37*
G36*
G01*
X107762500Y-132600000D02*
X108237500Y-132600000D01*
G75*
G02*
X108475000Y-132837500I0J-237500D01*
G01*
X108475000Y-133437500D01*
G75*
G02*
X108237500Y-133675000I-237500J0D01*
G01*
X107762500Y-133675000D01*
G75*
G02*
X107525000Y-133437500I0J237500D01*
G01*
X107525000Y-132837500D01*
G75*
G02*
X107762500Y-132600000I237500J0D01*
G01*
G37*
%TD*%
%TO.C,R3*%
G36*
G01*
X58925000Y-122237500D02*
X58925000Y-121762500D01*
G75*
G02*
X59162500Y-121525000I237500J0D01*
G01*
X59662500Y-121525000D01*
G75*
G02*
X59900000Y-121762500I0J-237500D01*
G01*
X59900000Y-122237500D01*
G75*
G02*
X59662500Y-122475000I-237500J0D01*
G01*
X59162500Y-122475000D01*
G75*
G02*
X58925000Y-122237500I0J237500D01*
G01*
G37*
G36*
G01*
X57100000Y-122237500D02*
X57100000Y-121762500D01*
G75*
G02*
X57337500Y-121525000I237500J0D01*
G01*
X57837500Y-121525000D01*
G75*
G02*
X58075000Y-121762500I0J-237500D01*
G01*
X58075000Y-122237500D01*
G75*
G02*
X57837500Y-122475000I-237500J0D01*
G01*
X57337500Y-122475000D01*
G75*
G02*
X57100000Y-122237500I0J237500D01*
G01*
G37*
%TD*%
%TO.C,R4*%
G36*
G01*
X87737500Y-126400000D02*
X87262500Y-126400000D01*
G75*
G02*
X87025000Y-126162500I0J237500D01*
G01*
X87025000Y-125662500D01*
G75*
G02*
X87262500Y-125425000I237500J0D01*
G01*
X87737500Y-125425000D01*
G75*
G02*
X87975000Y-125662500I0J-237500D01*
G01*
X87975000Y-126162500D01*
G75*
G02*
X87737500Y-126400000I-237500J0D01*
G01*
G37*
G36*
G01*
X87737500Y-124575000D02*
X87262500Y-124575000D01*
G75*
G02*
X87025000Y-124337500I0J237500D01*
G01*
X87025000Y-123837500D01*
G75*
G02*
X87262500Y-123600000I237500J0D01*
G01*
X87737500Y-123600000D01*
G75*
G02*
X87975000Y-123837500I0J-237500D01*
G01*
X87975000Y-124337500D01*
G75*
G02*
X87737500Y-124575000I-237500J0D01*
G01*
G37*
%TD*%
D11*
%TO.C,T3*%
X89550000Y-135000000D03*
X91450000Y-135000000D03*
X90500000Y-133000000D03*
%TD*%
D14*
%TO.C,D2*%
X128000000Y-131850000D03*
X128000000Y-135150000D03*
%TD*%
D13*
%TO.C,T2*%
X108500000Y-124050000D03*
X108500000Y-125950000D03*
X110500000Y-125000000D03*
%TD*%
D11*
%TO.C,T3*%
X115500000Y-133000000D03*
X116450000Y-135000000D03*
X114550000Y-135000000D03*
%TD*%
D12*
%TO.C,IC2*%
X141500000Y-126000000D03*
X141500000Y-125050000D03*
X141500000Y-124100000D03*
X139300000Y-124100000D03*
X139300000Y-126000000D03*
%TD*%
%TO.C,C1*%
G36*
G01*
X78737500Y-128675000D02*
X78262500Y-128675000D01*
G75*
G02*
X78025000Y-128437500I0J237500D01*
G01*
X78025000Y-127837500D01*
G75*
G02*
X78262500Y-127600000I237500J0D01*
G01*
X78737500Y-127600000D01*
G75*
G02*
X78975000Y-127837500I0J-237500D01*
G01*
X78975000Y-128437500D01*
G75*
G02*
X78737500Y-128675000I-237500J0D01*
G01*
G37*
G36*
G01*
X78737500Y-130400000D02*
X78262500Y-130400000D01*
G75*
G02*
X78025000Y-130162500I0J237500D01*
G01*
X78025000Y-129562500D01*
G75*
G02*
X78262500Y-129325000I237500J0D01*
G01*
X78737500Y-129325000D01*
G75*
G02*
X78975000Y-129562500I0J-237500D01*
G01*
X78975000Y-130162500D01*
G75*
G02*
X78737500Y-130400000I-237500J0D01*
G01*
G37*
%TD*%
%TO.C,C2*%
G36*
G01*
X132762500Y-132600000D02*
X133237500Y-132600000D01*
G75*
G02*
X133475000Y-132837500I0J-237500D01*
G01*
X133475000Y-133437500D01*
G75*
G02*
X133237500Y-133675000I-237500J0D01*
G01*
X132762500Y-133675000D01*
G75*
G02*
X132525000Y-133437500I0J237500D01*
G01*
X132525000Y-132837500D01*
G75*
G02*
X132762500Y-132600000I237500J0D01*
G01*
G37*
G36*
G01*
X132762500Y-134325000D02*
X133237500Y-134325000D01*
G75*
G02*
X133475000Y-134562500I0J-237500D01*
G01*
X133475000Y-135162500D01*
G75*
G02*
X133237500Y-135400000I-237500J0D01*
G01*
X132762500Y-135400000D01*
G75*
G02*
X132525000Y-135162500I0J237500D01*
G01*
X132525000Y-134562500D01*
G75*
G02*
X132762500Y-134325000I237500J0D01*
G01*
G37*
%TD*%
D10*
%TO.C,IC1*%
X129550000Y-123900000D03*
X131450000Y-123900000D03*
X131450000Y-126100000D03*
X130500000Y-126100000D03*
X129550000Y-126100000D03*
%TD*%
%TO.C,IC1*%
X79550000Y-123900000D03*
X81450000Y-123900000D03*
X81450000Y-126100000D03*
X80500000Y-126100000D03*
X79550000Y-126100000D03*
%TD*%
%TO.C,C3*%
G36*
G01*
X141762500Y-127600000D02*
X142237500Y-127600000D01*
G75*
G02*
X142475000Y-127837500I0J-237500D01*
G01*
X142475000Y-128437500D01*
G75*
G02*
X142237500Y-128675000I-237500J0D01*
G01*
X141762500Y-128675000D01*
G75*
G02*
X141525000Y-128437500I0J237500D01*
G01*
X141525000Y-127837500D01*
G75*
G02*
X141762500Y-127600000I237500J0D01*
G01*
G37*
G36*
G01*
X141762500Y-129325000D02*
X142237500Y-129325000D01*
G75*
G02*
X142475000Y-129562500I0J-237500D01*
G01*
X142475000Y-130162500D01*
G75*
G02*
X142237500Y-130400000I-237500J0D01*
G01*
X141762500Y-130400000D01*
G75*
G02*
X141525000Y-130162500I0J237500D01*
G01*
X141525000Y-129562500D01*
G75*
G02*
X141762500Y-129325000I237500J0D01*
G01*
G37*
%TD*%
%TO.C,C3*%
G36*
G01*
X66762500Y-129325000D02*
X67237500Y-129325000D01*
G75*
G02*
X67475000Y-129562500I0J-237500D01*
G01*
X67475000Y-130162500D01*
G75*
G02*
X67237500Y-130400000I-237500J0D01*
G01*
X66762500Y-130400000D01*
G75*
G02*
X66525000Y-130162500I0J237500D01*
G01*
X66525000Y-129562500D01*
G75*
G02*
X66762500Y-129325000I237500J0D01*
G01*
G37*
G36*
G01*
X66762500Y-127600000D02*
X67237500Y-127600000D01*
G75*
G02*
X67475000Y-127837500I0J-237500D01*
G01*
X67475000Y-128437500D01*
G75*
G02*
X67237500Y-128675000I-237500J0D01*
G01*
X66762500Y-128675000D01*
G75*
G02*
X66525000Y-128437500I0J237500D01*
G01*
X66525000Y-127837500D01*
G75*
G02*
X66762500Y-127600000I237500J0D01*
G01*
G37*
%TD*%
%TO.C,C2*%
G36*
G01*
X82762500Y-132600000D02*
X83237500Y-132600000D01*
G75*
G02*
X83475000Y-132837500I0J-237500D01*
G01*
X83475000Y-133437500D01*
G75*
G02*
X83237500Y-133675000I-237500J0D01*
G01*
X82762500Y-133675000D01*
G75*
G02*
X82525000Y-133437500I0J237500D01*
G01*
X82525000Y-132837500D01*
G75*
G02*
X82762500Y-132600000I237500J0D01*
G01*
G37*
G36*
G01*
X82762500Y-134325000D02*
X83237500Y-134325000D01*
G75*
G02*
X83475000Y-134562500I0J-237500D01*
G01*
X83475000Y-135162500D01*
G75*
G02*
X83237500Y-135400000I-237500J0D01*
G01*
X82762500Y-135400000D01*
G75*
G02*
X82525000Y-135162500I0J237500D01*
G01*
X82525000Y-134562500D01*
G75*
G02*
X82762500Y-134325000I237500J0D01*
G01*
G37*
%TD*%
%TO.C,C3*%
G36*
G01*
X91762500Y-127600000D02*
X92237500Y-127600000D01*
G75*
G02*
X92475000Y-127837500I0J-237500D01*
G01*
X92475000Y-128437500D01*
G75*
G02*
X92237500Y-128675000I-237500J0D01*
G01*
X91762500Y-128675000D01*
G75*
G02*
X91525000Y-128437500I0J237500D01*
G01*
X91525000Y-127837500D01*
G75*
G02*
X91762500Y-127600000I237500J0D01*
G01*
G37*
G36*
G01*
X91762500Y-129325000D02*
X92237500Y-129325000D01*
G75*
G02*
X92475000Y-129562500I0J-237500D01*
G01*
X92475000Y-130162500D01*
G75*
G02*
X92237500Y-130400000I-237500J0D01*
G01*
X91762500Y-130400000D01*
G75*
G02*
X91525000Y-130162500I0J237500D01*
G01*
X91525000Y-129562500D01*
G75*
G02*
X91762500Y-129325000I237500J0D01*
G01*
G37*
%TD*%
%TO.C,C2*%
G36*
G01*
X57762500Y-134325000D02*
X58237500Y-134325000D01*
G75*
G02*
X58475000Y-134562500I0J-237500D01*
G01*
X58475000Y-135162500D01*
G75*
G02*
X58237500Y-135400000I-237500J0D01*
G01*
X57762500Y-135400000D01*
G75*
G02*
X57525000Y-135162500I0J237500D01*
G01*
X57525000Y-134562500D01*
G75*
G02*
X57762500Y-134325000I237500J0D01*
G01*
G37*
G36*
G01*
X57762500Y-132600000D02*
X58237500Y-132600000D01*
G75*
G02*
X58475000Y-132837500I0J-237500D01*
G01*
X58475000Y-133437500D01*
G75*
G02*
X58237500Y-133675000I-237500J0D01*
G01*
X57762500Y-133675000D01*
G75*
G02*
X57525000Y-133437500I0J237500D01*
G01*
X57525000Y-132837500D01*
G75*
G02*
X57762500Y-132600000I237500J0D01*
G01*
G37*
%TD*%
%TO.C,R3*%
G36*
G01*
X108925000Y-122237500D02*
X108925000Y-121762500D01*
G75*
G02*
X109162500Y-121525000I237500J0D01*
G01*
X109662500Y-121525000D01*
G75*
G02*
X109900000Y-121762500I0J-237500D01*
G01*
X109900000Y-122237500D01*
G75*
G02*
X109662500Y-122475000I-237500J0D01*
G01*
X109162500Y-122475000D01*
G75*
G02*
X108925000Y-122237500I0J237500D01*
G01*
G37*
G36*
G01*
X107100000Y-122237500D02*
X107100000Y-121762500D01*
G75*
G02*
X107337500Y-121525000I237500J0D01*
G01*
X107837500Y-121525000D01*
G75*
G02*
X108075000Y-121762500I0J-237500D01*
G01*
X108075000Y-122237500D01*
G75*
G02*
X107837500Y-122475000I-237500J0D01*
G01*
X107337500Y-122475000D01*
G75*
G02*
X107100000Y-122237500I0J237500D01*
G01*
G37*
%TD*%
%TO.C,IC1*%
X54550000Y-126100000D03*
X55500000Y-126100000D03*
X56450000Y-126100000D03*
X56450000Y-123900000D03*
X54550000Y-123900000D03*
%TD*%
%TO.C,R1*%
G36*
G01*
X130262500Y-134425000D02*
X130737500Y-134425000D01*
G75*
G02*
X130975000Y-134662500I0J-237500D01*
G01*
X130975000Y-135162500D01*
G75*
G02*
X130737500Y-135400000I-237500J0D01*
G01*
X130262500Y-135400000D01*
G75*
G02*
X130025000Y-135162500I0J237500D01*
G01*
X130025000Y-134662500D01*
G75*
G02*
X130262500Y-134425000I237500J0D01*
G01*
G37*
G36*
G01*
X130262500Y-132600000D02*
X130737500Y-132600000D01*
G75*
G02*
X130975000Y-132837500I0J-237500D01*
G01*
X130975000Y-133337500D01*
G75*
G02*
X130737500Y-133575000I-237500J0D01*
G01*
X130262500Y-133575000D01*
G75*
G02*
X130025000Y-133337500I0J237500D01*
G01*
X130025000Y-132837500D01*
G75*
G02*
X130262500Y-132600000I237500J0D01*
G01*
G37*
%TD*%
%TO.C,R4*%
G36*
G01*
X112737500Y-124575000D02*
X112262500Y-124575000D01*
G75*
G02*
X112025000Y-124337500I0J237500D01*
G01*
X112025000Y-123837500D01*
G75*
G02*
X112262500Y-123600000I237500J0D01*
G01*
X112737500Y-123600000D01*
G75*
G02*
X112975000Y-123837500I0J-237500D01*
G01*
X112975000Y-124337500D01*
G75*
G02*
X112737500Y-124575000I-237500J0D01*
G01*
G37*
G36*
G01*
X112737500Y-126400000D02*
X112262500Y-126400000D01*
G75*
G02*
X112025000Y-126162500I0J237500D01*
G01*
X112025000Y-125662500D01*
G75*
G02*
X112262500Y-125425000I237500J0D01*
G01*
X112737500Y-125425000D01*
G75*
G02*
X112975000Y-125662500I0J-237500D01*
G01*
X112975000Y-126162500D01*
G75*
G02*
X112737500Y-126400000I-237500J0D01*
G01*
G37*
%TD*%
D12*
%TO.C,IC2*%
X114300000Y-126000000D03*
X114300000Y-124100000D03*
X116500000Y-124100000D03*
X116500000Y-125050000D03*
X116500000Y-126000000D03*
%TD*%
D10*
%TO.C,IC1*%
X79550000Y-101100000D03*
X80500000Y-101100000D03*
X81450000Y-101100000D03*
X81450000Y-98900000D03*
X79550000Y-98900000D03*
%TD*%
%TO.C,C3*%
G36*
G01*
X66762500Y-102600000D02*
X67237500Y-102600000D01*
G75*
G02*
X67475000Y-102837500I0J-237500D01*
G01*
X67475000Y-103437500D01*
G75*
G02*
X67237500Y-103675000I-237500J0D01*
G01*
X66762500Y-103675000D01*
G75*
G02*
X66525000Y-103437500I0J237500D01*
G01*
X66525000Y-102837500D01*
G75*
G02*
X66762500Y-102600000I237500J0D01*
G01*
G37*
G36*
G01*
X66762500Y-104325000D02*
X67237500Y-104325000D01*
G75*
G02*
X67475000Y-104562500I0J-237500D01*
G01*
X67475000Y-105162500D01*
G75*
G02*
X67237500Y-105400000I-237500J0D01*
G01*
X66762500Y-105400000D01*
G75*
G02*
X66525000Y-105162500I0J237500D01*
G01*
X66525000Y-104562500D01*
G75*
G02*
X66762500Y-104325000I237500J0D01*
G01*
G37*
%TD*%
%TO.C,C2*%
G36*
G01*
X82762500Y-109325000D02*
X83237500Y-109325000D01*
G75*
G02*
X83475000Y-109562500I0J-237500D01*
G01*
X83475000Y-110162500D01*
G75*
G02*
X83237500Y-110400000I-237500J0D01*
G01*
X82762500Y-110400000D01*
G75*
G02*
X82525000Y-110162500I0J237500D01*
G01*
X82525000Y-109562500D01*
G75*
G02*
X82762500Y-109325000I237500J0D01*
G01*
G37*
G36*
G01*
X82762500Y-107600000D02*
X83237500Y-107600000D01*
G75*
G02*
X83475000Y-107837500I0J-237500D01*
G01*
X83475000Y-108437500D01*
G75*
G02*
X83237500Y-108675000I-237500J0D01*
G01*
X82762500Y-108675000D01*
G75*
G02*
X82525000Y-108437500I0J237500D01*
G01*
X82525000Y-107837500D01*
G75*
G02*
X82762500Y-107600000I237500J0D01*
G01*
G37*
%TD*%
%TO.C,C3*%
G36*
G01*
X91762500Y-104325000D02*
X92237500Y-104325000D01*
G75*
G02*
X92475000Y-104562500I0J-237500D01*
G01*
X92475000Y-105162500D01*
G75*
G02*
X92237500Y-105400000I-237500J0D01*
G01*
X91762500Y-105400000D01*
G75*
G02*
X91525000Y-105162500I0J237500D01*
G01*
X91525000Y-104562500D01*
G75*
G02*
X91762500Y-104325000I237500J0D01*
G01*
G37*
G36*
G01*
X91762500Y-102600000D02*
X92237500Y-102600000D01*
G75*
G02*
X92475000Y-102837500I0J-237500D01*
G01*
X92475000Y-103437500D01*
G75*
G02*
X92237500Y-103675000I-237500J0D01*
G01*
X91762500Y-103675000D01*
G75*
G02*
X91525000Y-103437500I0J237500D01*
G01*
X91525000Y-102837500D01*
G75*
G02*
X91762500Y-102600000I237500J0D01*
G01*
G37*
%TD*%
D11*
%TO.C,T3*%
X90500000Y-108000000D03*
X91450000Y-110000000D03*
X89550000Y-110000000D03*
%TD*%
D14*
%TO.C,D2*%
X128000000Y-110150000D03*
X128000000Y-106850000D03*
%TD*%
D13*
%TO.C,T2*%
X110500000Y-100000000D03*
X108500000Y-100950000D03*
X108500000Y-99050000D03*
%TD*%
%TO.C,C3*%
G36*
G01*
X141762500Y-104325000D02*
X142237500Y-104325000D01*
G75*
G02*
X142475000Y-104562500I0J-237500D01*
G01*
X142475000Y-105162500D01*
G75*
G02*
X142237500Y-105400000I-237500J0D01*
G01*
X141762500Y-105400000D01*
G75*
G02*
X141525000Y-105162500I0J237500D01*
G01*
X141525000Y-104562500D01*
G75*
G02*
X141762500Y-104325000I237500J0D01*
G01*
G37*
G36*
G01*
X141762500Y-102600000D02*
X142237500Y-102600000D01*
G75*
G02*
X142475000Y-102837500I0J-237500D01*
G01*
X142475000Y-103437500D01*
G75*
G02*
X142237500Y-103675000I-237500J0D01*
G01*
X141762500Y-103675000D01*
G75*
G02*
X141525000Y-103437500I0J237500D01*
G01*
X141525000Y-102837500D01*
G75*
G02*
X141762500Y-102600000I237500J0D01*
G01*
G37*
%TD*%
D11*
%TO.C,T3*%
X114550000Y-110000000D03*
X116450000Y-110000000D03*
X115500000Y-108000000D03*
%TD*%
%TO.C,C2*%
G36*
G01*
X57762500Y-107600000D02*
X58237500Y-107600000D01*
G75*
G02*
X58475000Y-107837500I0J-237500D01*
G01*
X58475000Y-108437500D01*
G75*
G02*
X58237500Y-108675000I-237500J0D01*
G01*
X57762500Y-108675000D01*
G75*
G02*
X57525000Y-108437500I0J237500D01*
G01*
X57525000Y-107837500D01*
G75*
G02*
X57762500Y-107600000I237500J0D01*
G01*
G37*
G36*
G01*
X57762500Y-109325000D02*
X58237500Y-109325000D01*
G75*
G02*
X58475000Y-109562500I0J-237500D01*
G01*
X58475000Y-110162500D01*
G75*
G02*
X58237500Y-110400000I-237500J0D01*
G01*
X57762500Y-110400000D01*
G75*
G02*
X57525000Y-110162500I0J237500D01*
G01*
X57525000Y-109562500D01*
G75*
G02*
X57762500Y-109325000I237500J0D01*
G01*
G37*
%TD*%
%TO.C,C1*%
G36*
G01*
X78737500Y-105400000D02*
X78262500Y-105400000D01*
G75*
G02*
X78025000Y-105162500I0J237500D01*
G01*
X78025000Y-104562500D01*
G75*
G02*
X78262500Y-104325000I237500J0D01*
G01*
X78737500Y-104325000D01*
G75*
G02*
X78975000Y-104562500I0J-237500D01*
G01*
X78975000Y-105162500D01*
G75*
G02*
X78737500Y-105400000I-237500J0D01*
G01*
G37*
G36*
G01*
X78737500Y-103675000D02*
X78262500Y-103675000D01*
G75*
G02*
X78025000Y-103437500I0J237500D01*
G01*
X78025000Y-102837500D01*
G75*
G02*
X78262500Y-102600000I237500J0D01*
G01*
X78737500Y-102600000D01*
G75*
G02*
X78975000Y-102837500I0J-237500D01*
G01*
X78975000Y-103437500D01*
G75*
G02*
X78737500Y-103675000I-237500J0D01*
G01*
G37*
%TD*%
D10*
%TO.C,IC1*%
X54550000Y-98900000D03*
X56450000Y-98900000D03*
X56450000Y-101100000D03*
X55500000Y-101100000D03*
X54550000Y-101100000D03*
%TD*%
%TO.C,R1*%
G36*
G01*
X130262500Y-107600000D02*
X130737500Y-107600000D01*
G75*
G02*
X130975000Y-107837500I0J-237500D01*
G01*
X130975000Y-108337500D01*
G75*
G02*
X130737500Y-108575000I-237500J0D01*
G01*
X130262500Y-108575000D01*
G75*
G02*
X130025000Y-108337500I0J237500D01*
G01*
X130025000Y-107837500D01*
G75*
G02*
X130262500Y-107600000I237500J0D01*
G01*
G37*
G36*
G01*
X130262500Y-109425000D02*
X130737500Y-109425000D01*
G75*
G02*
X130975000Y-109662500I0J-237500D01*
G01*
X130975000Y-110162500D01*
G75*
G02*
X130737500Y-110400000I-237500J0D01*
G01*
X130262500Y-110400000D01*
G75*
G02*
X130025000Y-110162500I0J237500D01*
G01*
X130025000Y-109662500D01*
G75*
G02*
X130262500Y-109425000I237500J0D01*
G01*
G37*
%TD*%
%TO.C,C2*%
G36*
G01*
X132762500Y-109325000D02*
X133237500Y-109325000D01*
G75*
G02*
X133475000Y-109562500I0J-237500D01*
G01*
X133475000Y-110162500D01*
G75*
G02*
X133237500Y-110400000I-237500J0D01*
G01*
X132762500Y-110400000D01*
G75*
G02*
X132525000Y-110162500I0J237500D01*
G01*
X132525000Y-109562500D01*
G75*
G02*
X132762500Y-109325000I237500J0D01*
G01*
G37*
G36*
G01*
X132762500Y-107600000D02*
X133237500Y-107600000D01*
G75*
G02*
X133475000Y-107837500I0J-237500D01*
G01*
X133475000Y-108437500D01*
G75*
G02*
X133237500Y-108675000I-237500J0D01*
G01*
X132762500Y-108675000D01*
G75*
G02*
X132525000Y-108437500I0J237500D01*
G01*
X132525000Y-107837500D01*
G75*
G02*
X132762500Y-107600000I237500J0D01*
G01*
G37*
%TD*%
%TO.C,R4*%
G36*
G01*
X112737500Y-101400000D02*
X112262500Y-101400000D01*
G75*
G02*
X112025000Y-101162500I0J237500D01*
G01*
X112025000Y-100662500D01*
G75*
G02*
X112262500Y-100425000I237500J0D01*
G01*
X112737500Y-100425000D01*
G75*
G02*
X112975000Y-100662500I0J-237500D01*
G01*
X112975000Y-101162500D01*
G75*
G02*
X112737500Y-101400000I-237500J0D01*
G01*
G37*
G36*
G01*
X112737500Y-99575000D02*
X112262500Y-99575000D01*
G75*
G02*
X112025000Y-99337500I0J237500D01*
G01*
X112025000Y-98837500D01*
G75*
G02*
X112262500Y-98600000I237500J0D01*
G01*
X112737500Y-98600000D01*
G75*
G02*
X112975000Y-98837500I0J-237500D01*
G01*
X112975000Y-99337500D01*
G75*
G02*
X112737500Y-99575000I-237500J0D01*
G01*
G37*
%TD*%
D12*
%TO.C,IC2*%
X116500000Y-101000000D03*
X116500000Y-100050000D03*
X116500000Y-99100000D03*
X114300000Y-99100000D03*
X114300000Y-101000000D03*
%TD*%
D10*
%TO.C,IC1*%
X129550000Y-101100000D03*
X130500000Y-101100000D03*
X131450000Y-101100000D03*
X131450000Y-98900000D03*
X129550000Y-98900000D03*
%TD*%
D12*
%TO.C,IC2*%
X139300000Y-101000000D03*
X139300000Y-99100000D03*
X141500000Y-99100000D03*
X141500000Y-100050000D03*
X141500000Y-101000000D03*
%TD*%
%TO.C,R3*%
G36*
G01*
X107100000Y-97237500D02*
X107100000Y-96762500D01*
G75*
G02*
X107337500Y-96525000I237500J0D01*
G01*
X107837500Y-96525000D01*
G75*
G02*
X108075000Y-96762500I0J-237500D01*
G01*
X108075000Y-97237500D01*
G75*
G02*
X107837500Y-97475000I-237500J0D01*
G01*
X107337500Y-97475000D01*
G75*
G02*
X107100000Y-97237500I0J237500D01*
G01*
G37*
G36*
G01*
X108925000Y-97237500D02*
X108925000Y-96762500D01*
G75*
G02*
X109162500Y-96525000I237500J0D01*
G01*
X109662500Y-96525000D01*
G75*
G02*
X109900000Y-96762500I0J-237500D01*
G01*
X109900000Y-97237500D01*
G75*
G02*
X109662500Y-97475000I-237500J0D01*
G01*
X109162500Y-97475000D01*
G75*
G02*
X108925000Y-97237500I0J237500D01*
G01*
G37*
%TD*%
%TO.C,R2*%
G36*
G01*
X112237500Y-108575000D02*
X111762500Y-108575000D01*
G75*
G02*
X111525000Y-108337500I0J237500D01*
G01*
X111525000Y-107837500D01*
G75*
G02*
X111762500Y-107600000I237500J0D01*
G01*
X112237500Y-107600000D01*
G75*
G02*
X112475000Y-107837500I0J-237500D01*
G01*
X112475000Y-108337500D01*
G75*
G02*
X112237500Y-108575000I-237500J0D01*
G01*
G37*
G36*
G01*
X112237500Y-110400000D02*
X111762500Y-110400000D01*
G75*
G02*
X111525000Y-110162500I0J237500D01*
G01*
X111525000Y-109662500D01*
G75*
G02*
X111762500Y-109425000I237500J0D01*
G01*
X112237500Y-109425000D01*
G75*
G02*
X112475000Y-109662500I0J-237500D01*
G01*
X112475000Y-110162500D01*
G75*
G02*
X112237500Y-110400000I-237500J0D01*
G01*
G37*
%TD*%
D14*
%TO.C,D2*%
X53000000Y-106850000D03*
X53000000Y-110150000D03*
%TD*%
%TO.C,C1*%
G36*
G01*
X53737500Y-103675000D02*
X53262500Y-103675000D01*
G75*
G02*
X53025000Y-103437500I0J237500D01*
G01*
X53025000Y-102837500D01*
G75*
G02*
X53262500Y-102600000I237500J0D01*
G01*
X53737500Y-102600000D01*
G75*
G02*
X53975000Y-102837500I0J-237500D01*
G01*
X53975000Y-103437500D01*
G75*
G02*
X53737500Y-103675000I-237500J0D01*
G01*
G37*
G36*
G01*
X53737500Y-105400000D02*
X53262500Y-105400000D01*
G75*
G02*
X53025000Y-105162500I0J237500D01*
G01*
X53025000Y-104562500D01*
G75*
G02*
X53262500Y-104325000I237500J0D01*
G01*
X53737500Y-104325000D01*
G75*
G02*
X53975000Y-104562500I0J-237500D01*
G01*
X53975000Y-105162500D01*
G75*
G02*
X53737500Y-105400000I-237500J0D01*
G01*
G37*
%TD*%
%TO.C,D2*%
X78000000Y-110150000D03*
X78000000Y-106850000D03*
%TD*%
%TO.C,R1*%
G36*
G01*
X105262500Y-109425000D02*
X105737500Y-109425000D01*
G75*
G02*
X105975000Y-109662500I0J-237500D01*
G01*
X105975000Y-110162500D01*
G75*
G02*
X105737500Y-110400000I-237500J0D01*
G01*
X105262500Y-110400000D01*
G75*
G02*
X105025000Y-110162500I0J237500D01*
G01*
X105025000Y-109662500D01*
G75*
G02*
X105262500Y-109425000I237500J0D01*
G01*
G37*
G36*
G01*
X105262500Y-107600000D02*
X105737500Y-107600000D01*
G75*
G02*
X105975000Y-107837500I0J-237500D01*
G01*
X105975000Y-108337500D01*
G75*
G02*
X105737500Y-108575000I-237500J0D01*
G01*
X105262500Y-108575000D01*
G75*
G02*
X105025000Y-108337500I0J237500D01*
G01*
X105025000Y-107837500D01*
G75*
G02*
X105262500Y-107600000I237500J0D01*
G01*
G37*
%TD*%
%TO.C,R1*%
G36*
G01*
X55262500Y-109425000D02*
X55737500Y-109425000D01*
G75*
G02*
X55975000Y-109662500I0J-237500D01*
G01*
X55975000Y-110162500D01*
G75*
G02*
X55737500Y-110400000I-237500J0D01*
G01*
X55262500Y-110400000D01*
G75*
G02*
X55025000Y-110162500I0J237500D01*
G01*
X55025000Y-109662500D01*
G75*
G02*
X55262500Y-109425000I237500J0D01*
G01*
G37*
G36*
G01*
X55262500Y-107600000D02*
X55737500Y-107600000D01*
G75*
G02*
X55975000Y-107837500I0J-237500D01*
G01*
X55975000Y-108337500D01*
G75*
G02*
X55737500Y-108575000I-237500J0D01*
G01*
X55262500Y-108575000D01*
G75*
G02*
X55025000Y-108337500I0J237500D01*
G01*
X55025000Y-107837500D01*
G75*
G02*
X55262500Y-107600000I237500J0D01*
G01*
G37*
%TD*%
D13*
%TO.C,T2*%
X83500000Y-99050000D03*
X83500000Y-100950000D03*
X85500000Y-100000000D03*
%TD*%
D12*
%TO.C,IC2*%
X66500000Y-101000000D03*
X66500000Y-100050000D03*
X66500000Y-99100000D03*
X64300000Y-99100000D03*
X64300000Y-101000000D03*
%TD*%
%TO.C,R2*%
G36*
G01*
X62237500Y-108575000D02*
X61762500Y-108575000D01*
G75*
G02*
X61525000Y-108337500I0J237500D01*
G01*
X61525000Y-107837500D01*
G75*
G02*
X61762500Y-107600000I237500J0D01*
G01*
X62237500Y-107600000D01*
G75*
G02*
X62475000Y-107837500I0J-237500D01*
G01*
X62475000Y-108337500D01*
G75*
G02*
X62237500Y-108575000I-237500J0D01*
G01*
G37*
G36*
G01*
X62237500Y-110400000D02*
X61762500Y-110400000D01*
G75*
G02*
X61525000Y-110162500I0J237500D01*
G01*
X61525000Y-109662500D01*
G75*
G02*
X61762500Y-109425000I237500J0D01*
G01*
X62237500Y-109425000D01*
G75*
G02*
X62475000Y-109662500I0J-237500D01*
G01*
X62475000Y-110162500D01*
G75*
G02*
X62237500Y-110400000I-237500J0D01*
G01*
G37*
%TD*%
%TO.C,IC2*%
X89300000Y-101000000D03*
X89300000Y-99100000D03*
X91500000Y-99100000D03*
X91500000Y-100050000D03*
X91500000Y-101000000D03*
%TD*%
D13*
%TO.C,T2*%
X60500000Y-100000000D03*
X58500000Y-100950000D03*
X58500000Y-99050000D03*
%TD*%
%TO.C,R2*%
G36*
G01*
X87237500Y-110400000D02*
X86762500Y-110400000D01*
G75*
G02*
X86525000Y-110162500I0J237500D01*
G01*
X86525000Y-109662500D01*
G75*
G02*
X86762500Y-109425000I237500J0D01*
G01*
X87237500Y-109425000D01*
G75*
G02*
X87475000Y-109662500I0J-237500D01*
G01*
X87475000Y-110162500D01*
G75*
G02*
X87237500Y-110400000I-237500J0D01*
G01*
G37*
G36*
G01*
X87237500Y-108575000D02*
X86762500Y-108575000D01*
G75*
G02*
X86525000Y-108337500I0J237500D01*
G01*
X86525000Y-107837500D01*
G75*
G02*
X86762500Y-107600000I237500J0D01*
G01*
X87237500Y-107600000D01*
G75*
G02*
X87475000Y-107837500I0J-237500D01*
G01*
X87475000Y-108337500D01*
G75*
G02*
X87237500Y-108575000I-237500J0D01*
G01*
G37*
%TD*%
%TO.C,R1*%
G36*
G01*
X80262500Y-107600000D02*
X80737500Y-107600000D01*
G75*
G02*
X80975000Y-107837500I0J-237500D01*
G01*
X80975000Y-108337500D01*
G75*
G02*
X80737500Y-108575000I-237500J0D01*
G01*
X80262500Y-108575000D01*
G75*
G02*
X80025000Y-108337500I0J237500D01*
G01*
X80025000Y-107837500D01*
G75*
G02*
X80262500Y-107600000I237500J0D01*
G01*
G37*
G36*
G01*
X80262500Y-109425000D02*
X80737500Y-109425000D01*
G75*
G02*
X80975000Y-109662500I0J-237500D01*
G01*
X80975000Y-110162500D01*
G75*
G02*
X80737500Y-110400000I-237500J0D01*
G01*
X80262500Y-110400000D01*
G75*
G02*
X80025000Y-110162500I0J237500D01*
G01*
X80025000Y-109662500D01*
G75*
G02*
X80262500Y-109425000I237500J0D01*
G01*
G37*
%TD*%
%TO.C,C1*%
G36*
G01*
X103737500Y-103675000D02*
X103262500Y-103675000D01*
G75*
G02*
X103025000Y-103437500I0J237500D01*
G01*
X103025000Y-102837500D01*
G75*
G02*
X103262500Y-102600000I237500J0D01*
G01*
X103737500Y-102600000D01*
G75*
G02*
X103975000Y-102837500I0J-237500D01*
G01*
X103975000Y-103437500D01*
G75*
G02*
X103737500Y-103675000I-237500J0D01*
G01*
G37*
G36*
G01*
X103737500Y-105400000D02*
X103262500Y-105400000D01*
G75*
G02*
X103025000Y-105162500I0J237500D01*
G01*
X103025000Y-104562500D01*
G75*
G02*
X103262500Y-104325000I237500J0D01*
G01*
X103737500Y-104325000D01*
G75*
G02*
X103975000Y-104562500I0J-237500D01*
G01*
X103975000Y-105162500D01*
G75*
G02*
X103737500Y-105400000I-237500J0D01*
G01*
G37*
%TD*%
%TO.C,R3*%
G36*
G01*
X133925000Y-97237500D02*
X133925000Y-96762500D01*
G75*
G02*
X134162500Y-96525000I237500J0D01*
G01*
X134662500Y-96525000D01*
G75*
G02*
X134900000Y-96762500I0J-237500D01*
G01*
X134900000Y-97237500D01*
G75*
G02*
X134662500Y-97475000I-237500J0D01*
G01*
X134162500Y-97475000D01*
G75*
G02*
X133925000Y-97237500I0J237500D01*
G01*
G37*
G36*
G01*
X132100000Y-97237500D02*
X132100000Y-96762500D01*
G75*
G02*
X132337500Y-96525000I237500J0D01*
G01*
X132837500Y-96525000D01*
G75*
G02*
X133075000Y-96762500I0J-237500D01*
G01*
X133075000Y-97237500D01*
G75*
G02*
X132837500Y-97475000I-237500J0D01*
G01*
X132337500Y-97475000D01*
G75*
G02*
X132100000Y-97237500I0J237500D01*
G01*
G37*
%TD*%
%TO.C,R4*%
G36*
G01*
X137737500Y-99575000D02*
X137262500Y-99575000D01*
G75*
G02*
X137025000Y-99337500I0J237500D01*
G01*
X137025000Y-98837500D01*
G75*
G02*
X137262500Y-98600000I237500J0D01*
G01*
X137737500Y-98600000D01*
G75*
G02*
X137975000Y-98837500I0J-237500D01*
G01*
X137975000Y-99337500D01*
G75*
G02*
X137737500Y-99575000I-237500J0D01*
G01*
G37*
G36*
G01*
X137737500Y-101400000D02*
X137262500Y-101400000D01*
G75*
G02*
X137025000Y-101162500I0J237500D01*
G01*
X137025000Y-100662500D01*
G75*
G02*
X137262500Y-100425000I237500J0D01*
G01*
X137737500Y-100425000D01*
G75*
G02*
X137975000Y-100662500I0J-237500D01*
G01*
X137975000Y-101162500D01*
G75*
G02*
X137737500Y-101400000I-237500J0D01*
G01*
G37*
%TD*%
%TO.C,R2*%
G36*
G01*
X137237500Y-110400000D02*
X136762500Y-110400000D01*
G75*
G02*
X136525000Y-110162500I0J237500D01*
G01*
X136525000Y-109662500D01*
G75*
G02*
X136762500Y-109425000I237500J0D01*
G01*
X137237500Y-109425000D01*
G75*
G02*
X137475000Y-109662500I0J-237500D01*
G01*
X137475000Y-110162500D01*
G75*
G02*
X137237500Y-110400000I-237500J0D01*
G01*
G37*
G36*
G01*
X137237500Y-108575000D02*
X136762500Y-108575000D01*
G75*
G02*
X136525000Y-108337500I0J237500D01*
G01*
X136525000Y-107837500D01*
G75*
G02*
X136762500Y-107600000I237500J0D01*
G01*
X137237500Y-107600000D01*
G75*
G02*
X137475000Y-107837500I0J-237500D01*
G01*
X137475000Y-108337500D01*
G75*
G02*
X137237500Y-108575000I-237500J0D01*
G01*
G37*
%TD*%
D11*
%TO.C,T3*%
X64550000Y-110000000D03*
X66450000Y-110000000D03*
X65500000Y-108000000D03*
%TD*%
%TO.C,R4*%
G36*
G01*
X62737500Y-101400000D02*
X62262500Y-101400000D01*
G75*
G02*
X62025000Y-101162500I0J237500D01*
G01*
X62025000Y-100662500D01*
G75*
G02*
X62262500Y-100425000I237500J0D01*
G01*
X62737500Y-100425000D01*
G75*
G02*
X62975000Y-100662500I0J-237500D01*
G01*
X62975000Y-101162500D01*
G75*
G02*
X62737500Y-101400000I-237500J0D01*
G01*
G37*
G36*
G01*
X62737500Y-99575000D02*
X62262500Y-99575000D01*
G75*
G02*
X62025000Y-99337500I0J237500D01*
G01*
X62025000Y-98837500D01*
G75*
G02*
X62262500Y-98600000I237500J0D01*
G01*
X62737500Y-98600000D01*
G75*
G02*
X62975000Y-98837500I0J-237500D01*
G01*
X62975000Y-99337500D01*
G75*
G02*
X62737500Y-99575000I-237500J0D01*
G01*
G37*
%TD*%
%TO.C,C2*%
G36*
G01*
X107762500Y-107600000D02*
X108237500Y-107600000D01*
G75*
G02*
X108475000Y-107837500I0J-237500D01*
G01*
X108475000Y-108437500D01*
G75*
G02*
X108237500Y-108675000I-237500J0D01*
G01*
X107762500Y-108675000D01*
G75*
G02*
X107525000Y-108437500I0J237500D01*
G01*
X107525000Y-107837500D01*
G75*
G02*
X107762500Y-107600000I237500J0D01*
G01*
G37*
G36*
G01*
X107762500Y-109325000D02*
X108237500Y-109325000D01*
G75*
G02*
X108475000Y-109562500I0J-237500D01*
G01*
X108475000Y-110162500D01*
G75*
G02*
X108237500Y-110400000I-237500J0D01*
G01*
X107762500Y-110400000D01*
G75*
G02*
X107525000Y-110162500I0J237500D01*
G01*
X107525000Y-109562500D01*
G75*
G02*
X107762500Y-109325000I237500J0D01*
G01*
G37*
%TD*%
D13*
%TO.C,T2*%
X133500000Y-99050000D03*
X133500000Y-100950000D03*
X135500000Y-100000000D03*
%TD*%
%TO.C,R3*%
G36*
G01*
X83925000Y-97237500D02*
X83925000Y-96762500D01*
G75*
G02*
X84162500Y-96525000I237500J0D01*
G01*
X84662500Y-96525000D01*
G75*
G02*
X84900000Y-96762500I0J-237500D01*
G01*
X84900000Y-97237500D01*
G75*
G02*
X84662500Y-97475000I-237500J0D01*
G01*
X84162500Y-97475000D01*
G75*
G02*
X83925000Y-97237500I0J237500D01*
G01*
G37*
G36*
G01*
X82100000Y-97237500D02*
X82100000Y-96762500D01*
G75*
G02*
X82337500Y-96525000I237500J0D01*
G01*
X82837500Y-96525000D01*
G75*
G02*
X83075000Y-96762500I0J-237500D01*
G01*
X83075000Y-97237500D01*
G75*
G02*
X82837500Y-97475000I-237500J0D01*
G01*
X82337500Y-97475000D01*
G75*
G02*
X82100000Y-97237500I0J237500D01*
G01*
G37*
%TD*%
D14*
%TO.C,D2*%
X103000000Y-106850000D03*
X103000000Y-110150000D03*
%TD*%
D10*
%TO.C,IC1*%
X104550000Y-98900000D03*
X106450000Y-98900000D03*
X106450000Y-101100000D03*
X105500000Y-101100000D03*
X104550000Y-101100000D03*
%TD*%
D11*
%TO.C,T3*%
X140500000Y-108000000D03*
X141450000Y-110000000D03*
X139550000Y-110000000D03*
%TD*%
%TO.C,C1*%
G36*
G01*
X128737500Y-105400000D02*
X128262500Y-105400000D01*
G75*
G02*
X128025000Y-105162500I0J237500D01*
G01*
X128025000Y-104562500D01*
G75*
G02*
X128262500Y-104325000I237500J0D01*
G01*
X128737500Y-104325000D01*
G75*
G02*
X128975000Y-104562500I0J-237500D01*
G01*
X128975000Y-105162500D01*
G75*
G02*
X128737500Y-105400000I-237500J0D01*
G01*
G37*
G36*
G01*
X128737500Y-103675000D02*
X128262500Y-103675000D01*
G75*
G02*
X128025000Y-103437500I0J237500D01*
G01*
X128025000Y-102837500D01*
G75*
G02*
X128262500Y-102600000I237500J0D01*
G01*
X128737500Y-102600000D01*
G75*
G02*
X128975000Y-102837500I0J-237500D01*
G01*
X128975000Y-103437500D01*
G75*
G02*
X128737500Y-103675000I-237500J0D01*
G01*
G37*
%TD*%
%TO.C,C3*%
G36*
G01*
X116762500Y-102600000D02*
X117237500Y-102600000D01*
G75*
G02*
X117475000Y-102837500I0J-237500D01*
G01*
X117475000Y-103437500D01*
G75*
G02*
X117237500Y-103675000I-237500J0D01*
G01*
X116762500Y-103675000D01*
G75*
G02*
X116525000Y-103437500I0J237500D01*
G01*
X116525000Y-102837500D01*
G75*
G02*
X116762500Y-102600000I237500J0D01*
G01*
G37*
G36*
G01*
X116762500Y-104325000D02*
X117237500Y-104325000D01*
G75*
G02*
X117475000Y-104562500I0J-237500D01*
G01*
X117475000Y-105162500D01*
G75*
G02*
X117237500Y-105400000I-237500J0D01*
G01*
X116762500Y-105400000D01*
G75*
G02*
X116525000Y-105162500I0J237500D01*
G01*
X116525000Y-104562500D01*
G75*
G02*
X116762500Y-104325000I237500J0D01*
G01*
G37*
%TD*%
%TO.C,R4*%
G36*
G01*
X87737500Y-99575000D02*
X87262500Y-99575000D01*
G75*
G02*
X87025000Y-99337500I0J237500D01*
G01*
X87025000Y-98837500D01*
G75*
G02*
X87262500Y-98600000I237500J0D01*
G01*
X87737500Y-98600000D01*
G75*
G02*
X87975000Y-98837500I0J-237500D01*
G01*
X87975000Y-99337500D01*
G75*
G02*
X87737500Y-99575000I-237500J0D01*
G01*
G37*
G36*
G01*
X87737500Y-101400000D02*
X87262500Y-101400000D01*
G75*
G02*
X87025000Y-101162500I0J237500D01*
G01*
X87025000Y-100662500D01*
G75*
G02*
X87262500Y-100425000I237500J0D01*
G01*
X87737500Y-100425000D01*
G75*
G02*
X87975000Y-100662500I0J-237500D01*
G01*
X87975000Y-101162500D01*
G75*
G02*
X87737500Y-101400000I-237500J0D01*
G01*
G37*
%TD*%
%TO.C,R3*%
G36*
G01*
X57100000Y-97237500D02*
X57100000Y-96762500D01*
G75*
G02*
X57337500Y-96525000I237500J0D01*
G01*
X57837500Y-96525000D01*
G75*
G02*
X58075000Y-96762500I0J-237500D01*
G01*
X58075000Y-97237500D01*
G75*
G02*
X57837500Y-97475000I-237500J0D01*
G01*
X57337500Y-97475000D01*
G75*
G02*
X57100000Y-97237500I0J237500D01*
G01*
G37*
G36*
G01*
X58925000Y-97237500D02*
X58925000Y-96762500D01*
G75*
G02*
X59162500Y-96525000I237500J0D01*
G01*
X59662500Y-96525000D01*
G75*
G02*
X59900000Y-96762500I0J-237500D01*
G01*
X59900000Y-97237500D01*
G75*
G02*
X59662500Y-97475000I-237500J0D01*
G01*
X59162500Y-97475000D01*
G75*
G02*
X58925000Y-97237500I0J237500D01*
G01*
G37*
%TD*%
%TO.C,R4*%
G36*
G01*
X112737500Y-74575000D02*
X112262500Y-74575000D01*
G75*
G02*
X112025000Y-74337500I0J237500D01*
G01*
X112025000Y-73837500D01*
G75*
G02*
X112262500Y-73600000I237500J0D01*
G01*
X112737500Y-73600000D01*
G75*
G02*
X112975000Y-73837500I0J-237500D01*
G01*
X112975000Y-74337500D01*
G75*
G02*
X112737500Y-74575000I-237500J0D01*
G01*
G37*
G36*
G01*
X112737500Y-76400000D02*
X112262500Y-76400000D01*
G75*
G02*
X112025000Y-76162500I0J237500D01*
G01*
X112025000Y-75662500D01*
G75*
G02*
X112262500Y-75425000I237500J0D01*
G01*
X112737500Y-75425000D01*
G75*
G02*
X112975000Y-75662500I0J-237500D01*
G01*
X112975000Y-76162500D01*
G75*
G02*
X112737500Y-76400000I-237500J0D01*
G01*
G37*
%TD*%
%TO.C,R3*%
G36*
G01*
X108925000Y-72237500D02*
X108925000Y-71762500D01*
G75*
G02*
X109162500Y-71525000I237500J0D01*
G01*
X109662500Y-71525000D01*
G75*
G02*
X109900000Y-71762500I0J-237500D01*
G01*
X109900000Y-72237500D01*
G75*
G02*
X109662500Y-72475000I-237500J0D01*
G01*
X109162500Y-72475000D01*
G75*
G02*
X108925000Y-72237500I0J237500D01*
G01*
G37*
G36*
G01*
X107100000Y-72237500D02*
X107100000Y-71762500D01*
G75*
G02*
X107337500Y-71525000I237500J0D01*
G01*
X107837500Y-71525000D01*
G75*
G02*
X108075000Y-71762500I0J-237500D01*
G01*
X108075000Y-72237500D01*
G75*
G02*
X107837500Y-72475000I-237500J0D01*
G01*
X107337500Y-72475000D01*
G75*
G02*
X107100000Y-72237500I0J237500D01*
G01*
G37*
%TD*%
%TO.C,R2*%
G36*
G01*
X112237500Y-85400000D02*
X111762500Y-85400000D01*
G75*
G02*
X111525000Y-85162500I0J237500D01*
G01*
X111525000Y-84662500D01*
G75*
G02*
X111762500Y-84425000I237500J0D01*
G01*
X112237500Y-84425000D01*
G75*
G02*
X112475000Y-84662500I0J-237500D01*
G01*
X112475000Y-85162500D01*
G75*
G02*
X112237500Y-85400000I-237500J0D01*
G01*
G37*
G36*
G01*
X112237500Y-83575000D02*
X111762500Y-83575000D01*
G75*
G02*
X111525000Y-83337500I0J237500D01*
G01*
X111525000Y-82837500D01*
G75*
G02*
X111762500Y-82600000I237500J0D01*
G01*
X112237500Y-82600000D01*
G75*
G02*
X112475000Y-82837500I0J-237500D01*
G01*
X112475000Y-83337500D01*
G75*
G02*
X112237500Y-83575000I-237500J0D01*
G01*
G37*
%TD*%
D12*
%TO.C,IC2*%
X114300000Y-76000000D03*
X114300000Y-74100000D03*
X116500000Y-74100000D03*
X116500000Y-75050000D03*
X116500000Y-76000000D03*
%TD*%
D13*
%TO.C,T2*%
X108500000Y-74050000D03*
X108500000Y-75950000D03*
X110500000Y-75000000D03*
%TD*%
%TO.C,R1*%
G36*
G01*
X105262500Y-82600000D02*
X105737500Y-82600000D01*
G75*
G02*
X105975000Y-82837500I0J-237500D01*
G01*
X105975000Y-83337500D01*
G75*
G02*
X105737500Y-83575000I-237500J0D01*
G01*
X105262500Y-83575000D01*
G75*
G02*
X105025000Y-83337500I0J237500D01*
G01*
X105025000Y-82837500D01*
G75*
G02*
X105262500Y-82600000I237500J0D01*
G01*
G37*
G36*
G01*
X105262500Y-84425000D02*
X105737500Y-84425000D01*
G75*
G02*
X105975000Y-84662500I0J-237500D01*
G01*
X105975000Y-85162500D01*
G75*
G02*
X105737500Y-85400000I-237500J0D01*
G01*
X105262500Y-85400000D01*
G75*
G02*
X105025000Y-85162500I0J237500D01*
G01*
X105025000Y-84662500D01*
G75*
G02*
X105262500Y-84425000I237500J0D01*
G01*
G37*
%TD*%
D11*
%TO.C,T3*%
X115500000Y-83000000D03*
X116450000Y-85000000D03*
X114550000Y-85000000D03*
%TD*%
%TO.C,C3*%
G36*
G01*
X91762500Y-77600000D02*
X92237500Y-77600000D01*
G75*
G02*
X92475000Y-77837500I0J-237500D01*
G01*
X92475000Y-78437500D01*
G75*
G02*
X92237500Y-78675000I-237500J0D01*
G01*
X91762500Y-78675000D01*
G75*
G02*
X91525000Y-78437500I0J237500D01*
G01*
X91525000Y-77837500D01*
G75*
G02*
X91762500Y-77600000I237500J0D01*
G01*
G37*
G36*
G01*
X91762500Y-79325000D02*
X92237500Y-79325000D01*
G75*
G02*
X92475000Y-79562500I0J-237500D01*
G01*
X92475000Y-80162500D01*
G75*
G02*
X92237500Y-80400000I-237500J0D01*
G01*
X91762500Y-80400000D01*
G75*
G02*
X91525000Y-80162500I0J237500D01*
G01*
X91525000Y-79562500D01*
G75*
G02*
X91762500Y-79325000I237500J0D01*
G01*
G37*
%TD*%
%TO.C,C2*%
G36*
G01*
X82762500Y-82600000D02*
X83237500Y-82600000D01*
G75*
G02*
X83475000Y-82837500I0J-237500D01*
G01*
X83475000Y-83437500D01*
G75*
G02*
X83237500Y-83675000I-237500J0D01*
G01*
X82762500Y-83675000D01*
G75*
G02*
X82525000Y-83437500I0J237500D01*
G01*
X82525000Y-82837500D01*
G75*
G02*
X82762500Y-82600000I237500J0D01*
G01*
G37*
G36*
G01*
X82762500Y-84325000D02*
X83237500Y-84325000D01*
G75*
G02*
X83475000Y-84562500I0J-237500D01*
G01*
X83475000Y-85162500D01*
G75*
G02*
X83237500Y-85400000I-237500J0D01*
G01*
X82762500Y-85400000D01*
G75*
G02*
X82525000Y-85162500I0J237500D01*
G01*
X82525000Y-84562500D01*
G75*
G02*
X82762500Y-84325000I237500J0D01*
G01*
G37*
%TD*%
D14*
%TO.C,D2*%
X78000000Y-81850000D03*
X78000000Y-85150000D03*
%TD*%
%TO.C,C1*%
G36*
G01*
X78737500Y-78675000D02*
X78262500Y-78675000D01*
G75*
G02*
X78025000Y-78437500I0J237500D01*
G01*
X78025000Y-77837500D01*
G75*
G02*
X78262500Y-77600000I237500J0D01*
G01*
X78737500Y-77600000D01*
G75*
G02*
X78975000Y-77837500I0J-237500D01*
G01*
X78975000Y-78437500D01*
G75*
G02*
X78737500Y-78675000I-237500J0D01*
G01*
G37*
G36*
G01*
X78737500Y-80400000D02*
X78262500Y-80400000D01*
G75*
G02*
X78025000Y-80162500I0J237500D01*
G01*
X78025000Y-79562500D01*
G75*
G02*
X78262500Y-79325000I237500J0D01*
G01*
X78737500Y-79325000D01*
G75*
G02*
X78975000Y-79562500I0J-237500D01*
G01*
X78975000Y-80162500D01*
G75*
G02*
X78737500Y-80400000I-237500J0D01*
G01*
G37*
%TD*%
D10*
%TO.C,IC1*%
X79550000Y-73900000D03*
X81450000Y-73900000D03*
X81450000Y-76100000D03*
X80500000Y-76100000D03*
X79550000Y-76100000D03*
%TD*%
D11*
%TO.C,T3*%
X89550000Y-85000000D03*
X91450000Y-85000000D03*
X90500000Y-83000000D03*
%TD*%
D14*
%TO.C,D2*%
X53000000Y-85150000D03*
X53000000Y-81850000D03*
%TD*%
%TO.C,C3*%
G36*
G01*
X66762500Y-79325000D02*
X67237500Y-79325000D01*
G75*
G02*
X67475000Y-79562500I0J-237500D01*
G01*
X67475000Y-80162500D01*
G75*
G02*
X67237500Y-80400000I-237500J0D01*
G01*
X66762500Y-80400000D01*
G75*
G02*
X66525000Y-80162500I0J237500D01*
G01*
X66525000Y-79562500D01*
G75*
G02*
X66762500Y-79325000I237500J0D01*
G01*
G37*
G36*
G01*
X66762500Y-77600000D02*
X67237500Y-77600000D01*
G75*
G02*
X67475000Y-77837500I0J-237500D01*
G01*
X67475000Y-78437500D01*
G75*
G02*
X67237500Y-78675000I-237500J0D01*
G01*
X66762500Y-78675000D01*
G75*
G02*
X66525000Y-78437500I0J237500D01*
G01*
X66525000Y-77837500D01*
G75*
G02*
X66762500Y-77600000I237500J0D01*
G01*
G37*
%TD*%
%TO.C,C2*%
G36*
G01*
X57762500Y-84325000D02*
X58237500Y-84325000D01*
G75*
G02*
X58475000Y-84562500I0J-237500D01*
G01*
X58475000Y-85162500D01*
G75*
G02*
X58237500Y-85400000I-237500J0D01*
G01*
X57762500Y-85400000D01*
G75*
G02*
X57525000Y-85162500I0J237500D01*
G01*
X57525000Y-84562500D01*
G75*
G02*
X57762500Y-84325000I237500J0D01*
G01*
G37*
G36*
G01*
X57762500Y-82600000D02*
X58237500Y-82600000D01*
G75*
G02*
X58475000Y-82837500I0J-237500D01*
G01*
X58475000Y-83437500D01*
G75*
G02*
X58237500Y-83675000I-237500J0D01*
G01*
X57762500Y-83675000D01*
G75*
G02*
X57525000Y-83437500I0J237500D01*
G01*
X57525000Y-82837500D01*
G75*
G02*
X57762500Y-82600000I237500J0D01*
G01*
G37*
%TD*%
%TO.C,C1*%
G36*
G01*
X53737500Y-80400000D02*
X53262500Y-80400000D01*
G75*
G02*
X53025000Y-80162500I0J237500D01*
G01*
X53025000Y-79562500D01*
G75*
G02*
X53262500Y-79325000I237500J0D01*
G01*
X53737500Y-79325000D01*
G75*
G02*
X53975000Y-79562500I0J-237500D01*
G01*
X53975000Y-80162500D01*
G75*
G02*
X53737500Y-80400000I-237500J0D01*
G01*
G37*
G36*
G01*
X53737500Y-78675000D02*
X53262500Y-78675000D01*
G75*
G02*
X53025000Y-78437500I0J237500D01*
G01*
X53025000Y-77837500D01*
G75*
G02*
X53262500Y-77600000I237500J0D01*
G01*
X53737500Y-77600000D01*
G75*
G02*
X53975000Y-77837500I0J-237500D01*
G01*
X53975000Y-78437500D01*
G75*
G02*
X53737500Y-78675000I-237500J0D01*
G01*
G37*
%TD*%
D10*
%TO.C,IC1*%
X54550000Y-76100000D03*
X55500000Y-76100000D03*
X56450000Y-76100000D03*
X56450000Y-73900000D03*
X54550000Y-73900000D03*
%TD*%
%TO.C,C2*%
G36*
G01*
X132762500Y-82600000D02*
X133237500Y-82600000D01*
G75*
G02*
X133475000Y-82837500I0J-237500D01*
G01*
X133475000Y-83437500D01*
G75*
G02*
X133237500Y-83675000I-237500J0D01*
G01*
X132762500Y-83675000D01*
G75*
G02*
X132525000Y-83437500I0J237500D01*
G01*
X132525000Y-82837500D01*
G75*
G02*
X132762500Y-82600000I237500J0D01*
G01*
G37*
G36*
G01*
X132762500Y-84325000D02*
X133237500Y-84325000D01*
G75*
G02*
X133475000Y-84562500I0J-237500D01*
G01*
X133475000Y-85162500D01*
G75*
G02*
X133237500Y-85400000I-237500J0D01*
G01*
X132762500Y-85400000D01*
G75*
G02*
X132525000Y-85162500I0J237500D01*
G01*
X132525000Y-84562500D01*
G75*
G02*
X132762500Y-84325000I237500J0D01*
G01*
G37*
%TD*%
%TO.C,C3*%
G36*
G01*
X141762500Y-77600000D02*
X142237500Y-77600000D01*
G75*
G02*
X142475000Y-77837500I0J-237500D01*
G01*
X142475000Y-78437500D01*
G75*
G02*
X142237500Y-78675000I-237500J0D01*
G01*
X141762500Y-78675000D01*
G75*
G02*
X141525000Y-78437500I0J237500D01*
G01*
X141525000Y-77837500D01*
G75*
G02*
X141762500Y-77600000I237500J0D01*
G01*
G37*
G36*
G01*
X141762500Y-79325000D02*
X142237500Y-79325000D01*
G75*
G02*
X142475000Y-79562500I0J-237500D01*
G01*
X142475000Y-80162500D01*
G75*
G02*
X142237500Y-80400000I-237500J0D01*
G01*
X141762500Y-80400000D01*
G75*
G02*
X141525000Y-80162500I0J237500D01*
G01*
X141525000Y-79562500D01*
G75*
G02*
X141762500Y-79325000I237500J0D01*
G01*
G37*
%TD*%
%TO.C,IC1*%
X129550000Y-73900000D03*
X131450000Y-73900000D03*
X131450000Y-76100000D03*
X130500000Y-76100000D03*
X129550000Y-76100000D03*
%TD*%
D12*
%TO.C,IC2*%
X141500000Y-76000000D03*
X141500000Y-75050000D03*
X141500000Y-74100000D03*
X139300000Y-74100000D03*
X139300000Y-76000000D03*
%TD*%
%TO.C,R1*%
G36*
G01*
X130262500Y-84425000D02*
X130737500Y-84425000D01*
G75*
G02*
X130975000Y-84662500I0J-237500D01*
G01*
X130975000Y-85162500D01*
G75*
G02*
X130737500Y-85400000I-237500J0D01*
G01*
X130262500Y-85400000D01*
G75*
G02*
X130025000Y-85162500I0J237500D01*
G01*
X130025000Y-84662500D01*
G75*
G02*
X130262500Y-84425000I237500J0D01*
G01*
G37*
G36*
G01*
X130262500Y-82600000D02*
X130737500Y-82600000D01*
G75*
G02*
X130975000Y-82837500I0J-237500D01*
G01*
X130975000Y-83337500D01*
G75*
G02*
X130737500Y-83575000I-237500J0D01*
G01*
X130262500Y-83575000D01*
G75*
G02*
X130025000Y-83337500I0J237500D01*
G01*
X130025000Y-82837500D01*
G75*
G02*
X130262500Y-82600000I237500J0D01*
G01*
G37*
%TD*%
D14*
%TO.C,D2*%
X128000000Y-81850000D03*
X128000000Y-85150000D03*
%TD*%
D11*
%TO.C,T3*%
X139550000Y-85000000D03*
X141450000Y-85000000D03*
X140500000Y-83000000D03*
%TD*%
%TO.C,R3*%
G36*
G01*
X132100000Y-72237500D02*
X132100000Y-71762500D01*
G75*
G02*
X132337500Y-71525000I237500J0D01*
G01*
X132837500Y-71525000D01*
G75*
G02*
X133075000Y-71762500I0J-237500D01*
G01*
X133075000Y-72237500D01*
G75*
G02*
X132837500Y-72475000I-237500J0D01*
G01*
X132337500Y-72475000D01*
G75*
G02*
X132100000Y-72237500I0J237500D01*
G01*
G37*
G36*
G01*
X133925000Y-72237500D02*
X133925000Y-71762500D01*
G75*
G02*
X134162500Y-71525000I237500J0D01*
G01*
X134662500Y-71525000D01*
G75*
G02*
X134900000Y-71762500I0J-237500D01*
G01*
X134900000Y-72237500D01*
G75*
G02*
X134662500Y-72475000I-237500J0D01*
G01*
X134162500Y-72475000D01*
G75*
G02*
X133925000Y-72237500I0J237500D01*
G01*
G37*
%TD*%
%TO.C,R2*%
G36*
G01*
X137237500Y-83575000D02*
X136762500Y-83575000D01*
G75*
G02*
X136525000Y-83337500I0J237500D01*
G01*
X136525000Y-82837500D01*
G75*
G02*
X136762500Y-82600000I237500J0D01*
G01*
X137237500Y-82600000D01*
G75*
G02*
X137475000Y-82837500I0J-237500D01*
G01*
X137475000Y-83337500D01*
G75*
G02*
X137237500Y-83575000I-237500J0D01*
G01*
G37*
G36*
G01*
X137237500Y-85400000D02*
X136762500Y-85400000D01*
G75*
G02*
X136525000Y-85162500I0J237500D01*
G01*
X136525000Y-84662500D01*
G75*
G02*
X136762500Y-84425000I237500J0D01*
G01*
X137237500Y-84425000D01*
G75*
G02*
X137475000Y-84662500I0J-237500D01*
G01*
X137475000Y-85162500D01*
G75*
G02*
X137237500Y-85400000I-237500J0D01*
G01*
G37*
%TD*%
D13*
%TO.C,T2*%
X135500000Y-75000000D03*
X133500000Y-75950000D03*
X133500000Y-74050000D03*
%TD*%
%TO.C,R4*%
G36*
G01*
X137737500Y-76400000D02*
X137262500Y-76400000D01*
G75*
G02*
X137025000Y-76162500I0J237500D01*
G01*
X137025000Y-75662500D01*
G75*
G02*
X137262500Y-75425000I237500J0D01*
G01*
X137737500Y-75425000D01*
G75*
G02*
X137975000Y-75662500I0J-237500D01*
G01*
X137975000Y-76162500D01*
G75*
G02*
X137737500Y-76400000I-237500J0D01*
G01*
G37*
G36*
G01*
X137737500Y-74575000D02*
X137262500Y-74575000D01*
G75*
G02*
X137025000Y-74337500I0J237500D01*
G01*
X137025000Y-73837500D01*
G75*
G02*
X137262500Y-73600000I237500J0D01*
G01*
X137737500Y-73600000D01*
G75*
G02*
X137975000Y-73837500I0J-237500D01*
G01*
X137975000Y-74337500D01*
G75*
G02*
X137737500Y-74575000I-237500J0D01*
G01*
G37*
%TD*%
%TO.C,C1*%
G36*
G01*
X128737500Y-78675000D02*
X128262500Y-78675000D01*
G75*
G02*
X128025000Y-78437500I0J237500D01*
G01*
X128025000Y-77837500D01*
G75*
G02*
X128262500Y-77600000I237500J0D01*
G01*
X128737500Y-77600000D01*
G75*
G02*
X128975000Y-77837500I0J-237500D01*
G01*
X128975000Y-78437500D01*
G75*
G02*
X128737500Y-78675000I-237500J0D01*
G01*
G37*
G36*
G01*
X128737500Y-80400000D02*
X128262500Y-80400000D01*
G75*
G02*
X128025000Y-80162500I0J237500D01*
G01*
X128025000Y-79562500D01*
G75*
G02*
X128262500Y-79325000I237500J0D01*
G01*
X128737500Y-79325000D01*
G75*
G02*
X128975000Y-79562500I0J-237500D01*
G01*
X128975000Y-80162500D01*
G75*
G02*
X128737500Y-80400000I-237500J0D01*
G01*
G37*
%TD*%
D10*
%TO.C,IC1*%
X104550000Y-76100000D03*
X105500000Y-76100000D03*
X106450000Y-76100000D03*
X106450000Y-73900000D03*
X104550000Y-73900000D03*
%TD*%
%TO.C,C1*%
G36*
G01*
X103737500Y-80400000D02*
X103262500Y-80400000D01*
G75*
G02*
X103025000Y-80162500I0J237500D01*
G01*
X103025000Y-79562500D01*
G75*
G02*
X103262500Y-79325000I237500J0D01*
G01*
X103737500Y-79325000D01*
G75*
G02*
X103975000Y-79562500I0J-237500D01*
G01*
X103975000Y-80162500D01*
G75*
G02*
X103737500Y-80400000I-237500J0D01*
G01*
G37*
G36*
G01*
X103737500Y-78675000D02*
X103262500Y-78675000D01*
G75*
G02*
X103025000Y-78437500I0J237500D01*
G01*
X103025000Y-77837500D01*
G75*
G02*
X103262500Y-77600000I237500J0D01*
G01*
X103737500Y-77600000D01*
G75*
G02*
X103975000Y-77837500I0J-237500D01*
G01*
X103975000Y-78437500D01*
G75*
G02*
X103737500Y-78675000I-237500J0D01*
G01*
G37*
%TD*%
D14*
%TO.C,D2*%
X103000000Y-85150000D03*
X103000000Y-81850000D03*
%TD*%
%TO.C,C2*%
G36*
G01*
X107762500Y-84325000D02*
X108237500Y-84325000D01*
G75*
G02*
X108475000Y-84562500I0J-237500D01*
G01*
X108475000Y-85162500D01*
G75*
G02*
X108237500Y-85400000I-237500J0D01*
G01*
X107762500Y-85400000D01*
G75*
G02*
X107525000Y-85162500I0J237500D01*
G01*
X107525000Y-84562500D01*
G75*
G02*
X107762500Y-84325000I237500J0D01*
G01*
G37*
G36*
G01*
X107762500Y-82600000D02*
X108237500Y-82600000D01*
G75*
G02*
X108475000Y-82837500I0J-237500D01*
G01*
X108475000Y-83437500D01*
G75*
G02*
X108237500Y-83675000I-237500J0D01*
G01*
X107762500Y-83675000D01*
G75*
G02*
X107525000Y-83437500I0J237500D01*
G01*
X107525000Y-82837500D01*
G75*
G02*
X107762500Y-82600000I237500J0D01*
G01*
G37*
%TD*%
%TO.C,C3*%
G36*
G01*
X116762500Y-79325000D02*
X117237500Y-79325000D01*
G75*
G02*
X117475000Y-79562500I0J-237500D01*
G01*
X117475000Y-80162500D01*
G75*
G02*
X117237500Y-80400000I-237500J0D01*
G01*
X116762500Y-80400000D01*
G75*
G02*
X116525000Y-80162500I0J237500D01*
G01*
X116525000Y-79562500D01*
G75*
G02*
X116762500Y-79325000I237500J0D01*
G01*
G37*
G36*
G01*
X116762500Y-77600000D02*
X117237500Y-77600000D01*
G75*
G02*
X117475000Y-77837500I0J-237500D01*
G01*
X117475000Y-78437500D01*
G75*
G02*
X117237500Y-78675000I-237500J0D01*
G01*
X116762500Y-78675000D01*
G75*
G02*
X116525000Y-78437500I0J237500D01*
G01*
X116525000Y-77837500D01*
G75*
G02*
X116762500Y-77600000I237500J0D01*
G01*
G37*
%TD*%
%TO.C,R3*%
G36*
G01*
X82100000Y-72237500D02*
X82100000Y-71762500D01*
G75*
G02*
X82337500Y-71525000I237500J0D01*
G01*
X82837500Y-71525000D01*
G75*
G02*
X83075000Y-71762500I0J-237500D01*
G01*
X83075000Y-72237500D01*
G75*
G02*
X82837500Y-72475000I-237500J0D01*
G01*
X82337500Y-72475000D01*
G75*
G02*
X82100000Y-72237500I0J237500D01*
G01*
G37*
G36*
G01*
X83925000Y-72237500D02*
X83925000Y-71762500D01*
G75*
G02*
X84162500Y-71525000I237500J0D01*
G01*
X84662500Y-71525000D01*
G75*
G02*
X84900000Y-71762500I0J-237500D01*
G01*
X84900000Y-72237500D01*
G75*
G02*
X84662500Y-72475000I-237500J0D01*
G01*
X84162500Y-72475000D01*
G75*
G02*
X83925000Y-72237500I0J237500D01*
G01*
G37*
%TD*%
D11*
%TO.C,T3*%
X65500000Y-83000000D03*
X66450000Y-85000000D03*
X64550000Y-85000000D03*
%TD*%
%TO.C,R4*%
G36*
G01*
X62737500Y-74575000D02*
X62262500Y-74575000D01*
G75*
G02*
X62025000Y-74337500I0J237500D01*
G01*
X62025000Y-73837500D01*
G75*
G02*
X62262500Y-73600000I237500J0D01*
G01*
X62737500Y-73600000D01*
G75*
G02*
X62975000Y-73837500I0J-237500D01*
G01*
X62975000Y-74337500D01*
G75*
G02*
X62737500Y-74575000I-237500J0D01*
G01*
G37*
G36*
G01*
X62737500Y-76400000D02*
X62262500Y-76400000D01*
G75*
G02*
X62025000Y-76162500I0J237500D01*
G01*
X62025000Y-75662500D01*
G75*
G02*
X62262500Y-75425000I237500J0D01*
G01*
X62737500Y-75425000D01*
G75*
G02*
X62975000Y-75662500I0J-237500D01*
G01*
X62975000Y-76162500D01*
G75*
G02*
X62737500Y-76400000I-237500J0D01*
G01*
G37*
%TD*%
%TO.C,R1*%
G36*
G01*
X55262500Y-82600000D02*
X55737500Y-82600000D01*
G75*
G02*
X55975000Y-82837500I0J-237500D01*
G01*
X55975000Y-83337500D01*
G75*
G02*
X55737500Y-83575000I-237500J0D01*
G01*
X55262500Y-83575000D01*
G75*
G02*
X55025000Y-83337500I0J237500D01*
G01*
X55025000Y-82837500D01*
G75*
G02*
X55262500Y-82600000I237500J0D01*
G01*
G37*
G36*
G01*
X55262500Y-84425000D02*
X55737500Y-84425000D01*
G75*
G02*
X55975000Y-84662500I0J-237500D01*
G01*
X55975000Y-85162500D01*
G75*
G02*
X55737500Y-85400000I-237500J0D01*
G01*
X55262500Y-85400000D01*
G75*
G02*
X55025000Y-85162500I0J237500D01*
G01*
X55025000Y-84662500D01*
G75*
G02*
X55262500Y-84425000I237500J0D01*
G01*
G37*
%TD*%
D13*
%TO.C,T2*%
X85500000Y-75000000D03*
X83500000Y-75950000D03*
X83500000Y-74050000D03*
%TD*%
D12*
%TO.C,IC2*%
X64300000Y-76000000D03*
X64300000Y-74100000D03*
X66500000Y-74100000D03*
X66500000Y-75050000D03*
X66500000Y-76000000D03*
%TD*%
%TO.C,R2*%
G36*
G01*
X62237500Y-85400000D02*
X61762500Y-85400000D01*
G75*
G02*
X61525000Y-85162500I0J237500D01*
G01*
X61525000Y-84662500D01*
G75*
G02*
X61762500Y-84425000I237500J0D01*
G01*
X62237500Y-84425000D01*
G75*
G02*
X62475000Y-84662500I0J-237500D01*
G01*
X62475000Y-85162500D01*
G75*
G02*
X62237500Y-85400000I-237500J0D01*
G01*
G37*
G36*
G01*
X62237500Y-83575000D02*
X61762500Y-83575000D01*
G75*
G02*
X61525000Y-83337500I0J237500D01*
G01*
X61525000Y-82837500D01*
G75*
G02*
X61762500Y-82600000I237500J0D01*
G01*
X62237500Y-82600000D01*
G75*
G02*
X62475000Y-82837500I0J-237500D01*
G01*
X62475000Y-83337500D01*
G75*
G02*
X62237500Y-83575000I-237500J0D01*
G01*
G37*
%TD*%
%TO.C,R1*%
G36*
G01*
X80262500Y-84425000D02*
X80737500Y-84425000D01*
G75*
G02*
X80975000Y-84662500I0J-237500D01*
G01*
X80975000Y-85162500D01*
G75*
G02*
X80737500Y-85400000I-237500J0D01*
G01*
X80262500Y-85400000D01*
G75*
G02*
X80025000Y-85162500I0J237500D01*
G01*
X80025000Y-84662500D01*
G75*
G02*
X80262500Y-84425000I237500J0D01*
G01*
G37*
G36*
G01*
X80262500Y-82600000D02*
X80737500Y-82600000D01*
G75*
G02*
X80975000Y-82837500I0J-237500D01*
G01*
X80975000Y-83337500D01*
G75*
G02*
X80737500Y-83575000I-237500J0D01*
G01*
X80262500Y-83575000D01*
G75*
G02*
X80025000Y-83337500I0J237500D01*
G01*
X80025000Y-82837500D01*
G75*
G02*
X80262500Y-82600000I237500J0D01*
G01*
G37*
%TD*%
%TO.C,IC2*%
X91500000Y-76000000D03*
X91500000Y-75050000D03*
X91500000Y-74100000D03*
X89300000Y-74100000D03*
X89300000Y-76000000D03*
%TD*%
D13*
%TO.C,T2*%
X58500000Y-74050000D03*
X58500000Y-75950000D03*
X60500000Y-75000000D03*
%TD*%
%TO.C,R2*%
G36*
G01*
X87237500Y-83575000D02*
X86762500Y-83575000D01*
G75*
G02*
X86525000Y-83337500I0J237500D01*
G01*
X86525000Y-82837500D01*
G75*
G02*
X86762500Y-82600000I237500J0D01*
G01*
X87237500Y-82600000D01*
G75*
G02*
X87475000Y-82837500I0J-237500D01*
G01*
X87475000Y-83337500D01*
G75*
G02*
X87237500Y-83575000I-237500J0D01*
G01*
G37*
G36*
G01*
X87237500Y-85400000D02*
X86762500Y-85400000D01*
G75*
G02*
X86525000Y-85162500I0J237500D01*
G01*
X86525000Y-84662500D01*
G75*
G02*
X86762500Y-84425000I237500J0D01*
G01*
X87237500Y-84425000D01*
G75*
G02*
X87475000Y-84662500I0J-237500D01*
G01*
X87475000Y-85162500D01*
G75*
G02*
X87237500Y-85400000I-237500J0D01*
G01*
G37*
%TD*%
%TO.C,R3*%
G36*
G01*
X58925000Y-72237500D02*
X58925000Y-71762500D01*
G75*
G02*
X59162500Y-71525000I237500J0D01*
G01*
X59662500Y-71525000D01*
G75*
G02*
X59900000Y-71762500I0J-237500D01*
G01*
X59900000Y-72237500D01*
G75*
G02*
X59662500Y-72475000I-237500J0D01*
G01*
X59162500Y-72475000D01*
G75*
G02*
X58925000Y-72237500I0J237500D01*
G01*
G37*
G36*
G01*
X57100000Y-72237500D02*
X57100000Y-71762500D01*
G75*
G02*
X57337500Y-71525000I237500J0D01*
G01*
X57837500Y-71525000D01*
G75*
G02*
X58075000Y-71762500I0J-237500D01*
G01*
X58075000Y-72237500D01*
G75*
G02*
X57837500Y-72475000I-237500J0D01*
G01*
X57337500Y-72475000D01*
G75*
G02*
X57100000Y-72237500I0J237500D01*
G01*
G37*
%TD*%
%TO.C,R4*%
G36*
G01*
X87737500Y-76400000D02*
X87262500Y-76400000D01*
G75*
G02*
X87025000Y-76162500I0J237500D01*
G01*
X87025000Y-75662500D01*
G75*
G02*
X87262500Y-75425000I237500J0D01*
G01*
X87737500Y-75425000D01*
G75*
G02*
X87975000Y-75662500I0J-237500D01*
G01*
X87975000Y-76162500D01*
G75*
G02*
X87737500Y-76400000I-237500J0D01*
G01*
G37*
G36*
G01*
X87737500Y-74575000D02*
X87262500Y-74575000D01*
G75*
G02*
X87025000Y-74337500I0J237500D01*
G01*
X87025000Y-73837500D01*
G75*
G02*
X87262500Y-73600000I237500J0D01*
G01*
X87737500Y-73600000D01*
G75*
G02*
X87975000Y-73837500I0J-237500D01*
G01*
X87975000Y-74337500D01*
G75*
G02*
X87737500Y-74575000I-237500J0D01*
G01*
G37*
%TD*%
%TO.C,R4*%
G36*
G01*
X137737500Y-49575000D02*
X137262500Y-49575000D01*
G75*
G02*
X137025000Y-49337500I0J237500D01*
G01*
X137025000Y-48837500D01*
G75*
G02*
X137262500Y-48600000I237500J0D01*
G01*
X137737500Y-48600000D01*
G75*
G02*
X137975000Y-48837500I0J-237500D01*
G01*
X137975000Y-49337500D01*
G75*
G02*
X137737500Y-49575000I-237500J0D01*
G01*
G37*
G36*
G01*
X137737500Y-51400000D02*
X137262500Y-51400000D01*
G75*
G02*
X137025000Y-51162500I0J237500D01*
G01*
X137025000Y-50662500D01*
G75*
G02*
X137262500Y-50425000I237500J0D01*
G01*
X137737500Y-50425000D01*
G75*
G02*
X137975000Y-50662500I0J-237500D01*
G01*
X137975000Y-51162500D01*
G75*
G02*
X137737500Y-51400000I-237500J0D01*
G01*
G37*
%TD*%
%TO.C,R3*%
G36*
G01*
X133925000Y-47237500D02*
X133925000Y-46762500D01*
G75*
G02*
X134162500Y-46525000I237500J0D01*
G01*
X134662500Y-46525000D01*
G75*
G02*
X134900000Y-46762500I0J-237500D01*
G01*
X134900000Y-47237500D01*
G75*
G02*
X134662500Y-47475000I-237500J0D01*
G01*
X134162500Y-47475000D01*
G75*
G02*
X133925000Y-47237500I0J237500D01*
G01*
G37*
G36*
G01*
X132100000Y-47237500D02*
X132100000Y-46762500D01*
G75*
G02*
X132337500Y-46525000I237500J0D01*
G01*
X132837500Y-46525000D01*
G75*
G02*
X133075000Y-46762500I0J-237500D01*
G01*
X133075000Y-47237500D01*
G75*
G02*
X132837500Y-47475000I-237500J0D01*
G01*
X132337500Y-47475000D01*
G75*
G02*
X132100000Y-47237500I0J237500D01*
G01*
G37*
%TD*%
%TO.C,R2*%
G36*
G01*
X137237500Y-60400000D02*
X136762500Y-60400000D01*
G75*
G02*
X136525000Y-60162500I0J237500D01*
G01*
X136525000Y-59662500D01*
G75*
G02*
X136762500Y-59425000I237500J0D01*
G01*
X137237500Y-59425000D01*
G75*
G02*
X137475000Y-59662500I0J-237500D01*
G01*
X137475000Y-60162500D01*
G75*
G02*
X137237500Y-60400000I-237500J0D01*
G01*
G37*
G36*
G01*
X137237500Y-58575000D02*
X136762500Y-58575000D01*
G75*
G02*
X136525000Y-58337500I0J237500D01*
G01*
X136525000Y-57837500D01*
G75*
G02*
X136762500Y-57600000I237500J0D01*
G01*
X137237500Y-57600000D01*
G75*
G02*
X137475000Y-57837500I0J-237500D01*
G01*
X137475000Y-58337500D01*
G75*
G02*
X137237500Y-58575000I-237500J0D01*
G01*
G37*
%TD*%
D12*
%TO.C,IC2*%
X139300000Y-51000000D03*
X139300000Y-49100000D03*
X141500000Y-49100000D03*
X141500000Y-50050000D03*
X141500000Y-51000000D03*
%TD*%
D13*
%TO.C,T2*%
X133500000Y-49050000D03*
X133500000Y-50950000D03*
X135500000Y-50000000D03*
%TD*%
%TO.C,R1*%
G36*
G01*
X130262500Y-57600000D02*
X130737500Y-57600000D01*
G75*
G02*
X130975000Y-57837500I0J-237500D01*
G01*
X130975000Y-58337500D01*
G75*
G02*
X130737500Y-58575000I-237500J0D01*
G01*
X130262500Y-58575000D01*
G75*
G02*
X130025000Y-58337500I0J237500D01*
G01*
X130025000Y-57837500D01*
G75*
G02*
X130262500Y-57600000I237500J0D01*
G01*
G37*
G36*
G01*
X130262500Y-59425000D02*
X130737500Y-59425000D01*
G75*
G02*
X130975000Y-59662500I0J-237500D01*
G01*
X130975000Y-60162500D01*
G75*
G02*
X130737500Y-60400000I-237500J0D01*
G01*
X130262500Y-60400000D01*
G75*
G02*
X130025000Y-60162500I0J237500D01*
G01*
X130025000Y-59662500D01*
G75*
G02*
X130262500Y-59425000I237500J0D01*
G01*
G37*
%TD*%
D11*
%TO.C,T3*%
X140500000Y-58000000D03*
X141450000Y-60000000D03*
X139550000Y-60000000D03*
%TD*%
D10*
%TO.C,IC1*%
X129550000Y-51100000D03*
X130500000Y-51100000D03*
X131450000Y-51100000D03*
X131450000Y-48900000D03*
X129550000Y-48900000D03*
%TD*%
%TO.C,C1*%
G36*
G01*
X128737500Y-55400000D02*
X128262500Y-55400000D01*
G75*
G02*
X128025000Y-55162500I0J237500D01*
G01*
X128025000Y-54562500D01*
G75*
G02*
X128262500Y-54325000I237500J0D01*
G01*
X128737500Y-54325000D01*
G75*
G02*
X128975000Y-54562500I0J-237500D01*
G01*
X128975000Y-55162500D01*
G75*
G02*
X128737500Y-55400000I-237500J0D01*
G01*
G37*
G36*
G01*
X128737500Y-53675000D02*
X128262500Y-53675000D01*
G75*
G02*
X128025000Y-53437500I0J237500D01*
G01*
X128025000Y-52837500D01*
G75*
G02*
X128262500Y-52600000I237500J0D01*
G01*
X128737500Y-52600000D01*
G75*
G02*
X128975000Y-52837500I0J-237500D01*
G01*
X128975000Y-53437500D01*
G75*
G02*
X128737500Y-53675000I-237500J0D01*
G01*
G37*
%TD*%
D14*
%TO.C,D2*%
X128000000Y-60150000D03*
X128000000Y-56850000D03*
%TD*%
%TO.C,C2*%
G36*
G01*
X132762500Y-59325000D02*
X133237500Y-59325000D01*
G75*
G02*
X133475000Y-59562500I0J-237500D01*
G01*
X133475000Y-60162500D01*
G75*
G02*
X133237500Y-60400000I-237500J0D01*
G01*
X132762500Y-60400000D01*
G75*
G02*
X132525000Y-60162500I0J237500D01*
G01*
X132525000Y-59562500D01*
G75*
G02*
X132762500Y-59325000I237500J0D01*
G01*
G37*
G36*
G01*
X132762500Y-57600000D02*
X133237500Y-57600000D01*
G75*
G02*
X133475000Y-57837500I0J-237500D01*
G01*
X133475000Y-58437500D01*
G75*
G02*
X133237500Y-58675000I-237500J0D01*
G01*
X132762500Y-58675000D01*
G75*
G02*
X132525000Y-58437500I0J237500D01*
G01*
X132525000Y-57837500D01*
G75*
G02*
X132762500Y-57600000I237500J0D01*
G01*
G37*
%TD*%
%TO.C,C3*%
G36*
G01*
X141762500Y-54325000D02*
X142237500Y-54325000D01*
G75*
G02*
X142475000Y-54562500I0J-237500D01*
G01*
X142475000Y-55162500D01*
G75*
G02*
X142237500Y-55400000I-237500J0D01*
G01*
X141762500Y-55400000D01*
G75*
G02*
X141525000Y-55162500I0J237500D01*
G01*
X141525000Y-54562500D01*
G75*
G02*
X141762500Y-54325000I237500J0D01*
G01*
G37*
G36*
G01*
X141762500Y-52600000D02*
X142237500Y-52600000D01*
G75*
G02*
X142475000Y-52837500I0J-237500D01*
G01*
X142475000Y-53437500D01*
G75*
G02*
X142237500Y-53675000I-237500J0D01*
G01*
X141762500Y-53675000D01*
G75*
G02*
X141525000Y-53437500I0J237500D01*
G01*
X141525000Y-52837500D01*
G75*
G02*
X141762500Y-52600000I237500J0D01*
G01*
G37*
%TD*%
%TO.C,C3*%
G36*
G01*
X116762500Y-52600000D02*
X117237500Y-52600000D01*
G75*
G02*
X117475000Y-52837500I0J-237500D01*
G01*
X117475000Y-53437500D01*
G75*
G02*
X117237500Y-53675000I-237500J0D01*
G01*
X116762500Y-53675000D01*
G75*
G02*
X116525000Y-53437500I0J237500D01*
G01*
X116525000Y-52837500D01*
G75*
G02*
X116762500Y-52600000I237500J0D01*
G01*
G37*
G36*
G01*
X116762500Y-54325000D02*
X117237500Y-54325000D01*
G75*
G02*
X117475000Y-54562500I0J-237500D01*
G01*
X117475000Y-55162500D01*
G75*
G02*
X117237500Y-55400000I-237500J0D01*
G01*
X116762500Y-55400000D01*
G75*
G02*
X116525000Y-55162500I0J237500D01*
G01*
X116525000Y-54562500D01*
G75*
G02*
X116762500Y-54325000I237500J0D01*
G01*
G37*
%TD*%
%TO.C,C2*%
G36*
G01*
X107762500Y-57600000D02*
X108237500Y-57600000D01*
G75*
G02*
X108475000Y-57837500I0J-237500D01*
G01*
X108475000Y-58437500D01*
G75*
G02*
X108237500Y-58675000I-237500J0D01*
G01*
X107762500Y-58675000D01*
G75*
G02*
X107525000Y-58437500I0J237500D01*
G01*
X107525000Y-57837500D01*
G75*
G02*
X107762500Y-57600000I237500J0D01*
G01*
G37*
G36*
G01*
X107762500Y-59325000D02*
X108237500Y-59325000D01*
G75*
G02*
X108475000Y-59562500I0J-237500D01*
G01*
X108475000Y-60162500D01*
G75*
G02*
X108237500Y-60400000I-237500J0D01*
G01*
X107762500Y-60400000D01*
G75*
G02*
X107525000Y-60162500I0J237500D01*
G01*
X107525000Y-59562500D01*
G75*
G02*
X107762500Y-59325000I237500J0D01*
G01*
G37*
%TD*%
%TO.C,D2*%
X103000000Y-56850000D03*
X103000000Y-60150000D03*
%TD*%
%TO.C,C1*%
G36*
G01*
X103737500Y-53675000D02*
X103262500Y-53675000D01*
G75*
G02*
X103025000Y-53437500I0J237500D01*
G01*
X103025000Y-52837500D01*
G75*
G02*
X103262500Y-52600000I237500J0D01*
G01*
X103737500Y-52600000D01*
G75*
G02*
X103975000Y-52837500I0J-237500D01*
G01*
X103975000Y-53437500D01*
G75*
G02*
X103737500Y-53675000I-237500J0D01*
G01*
G37*
G36*
G01*
X103737500Y-55400000D02*
X103262500Y-55400000D01*
G75*
G02*
X103025000Y-55162500I0J237500D01*
G01*
X103025000Y-54562500D01*
G75*
G02*
X103262500Y-54325000I237500J0D01*
G01*
X103737500Y-54325000D01*
G75*
G02*
X103975000Y-54562500I0J-237500D01*
G01*
X103975000Y-55162500D01*
G75*
G02*
X103737500Y-55400000I-237500J0D01*
G01*
G37*
%TD*%
D10*
%TO.C,IC1*%
X104550000Y-48900000D03*
X106450000Y-48900000D03*
X106450000Y-51100000D03*
X105500000Y-51100000D03*
X104550000Y-51100000D03*
%TD*%
D11*
%TO.C,T3*%
X114550000Y-60000000D03*
X116450000Y-60000000D03*
X115500000Y-58000000D03*
%TD*%
%TO.C,R3*%
G36*
G01*
X107100000Y-47237500D02*
X107100000Y-46762500D01*
G75*
G02*
X107337500Y-46525000I237500J0D01*
G01*
X107837500Y-46525000D01*
G75*
G02*
X108075000Y-46762500I0J-237500D01*
G01*
X108075000Y-47237500D01*
G75*
G02*
X107837500Y-47475000I-237500J0D01*
G01*
X107337500Y-47475000D01*
G75*
G02*
X107100000Y-47237500I0J237500D01*
G01*
G37*
G36*
G01*
X108925000Y-47237500D02*
X108925000Y-46762500D01*
G75*
G02*
X109162500Y-46525000I237500J0D01*
G01*
X109662500Y-46525000D01*
G75*
G02*
X109900000Y-46762500I0J-237500D01*
G01*
X109900000Y-47237500D01*
G75*
G02*
X109662500Y-47475000I-237500J0D01*
G01*
X109162500Y-47475000D01*
G75*
G02*
X108925000Y-47237500I0J237500D01*
G01*
G37*
%TD*%
D13*
%TO.C,T2*%
X110500000Y-50000000D03*
X108500000Y-50950000D03*
X108500000Y-49050000D03*
%TD*%
%TO.C,R1*%
G36*
G01*
X105262500Y-59425000D02*
X105737500Y-59425000D01*
G75*
G02*
X105975000Y-59662500I0J-237500D01*
G01*
X105975000Y-60162500D01*
G75*
G02*
X105737500Y-60400000I-237500J0D01*
G01*
X105262500Y-60400000D01*
G75*
G02*
X105025000Y-60162500I0J237500D01*
G01*
X105025000Y-59662500D01*
G75*
G02*
X105262500Y-59425000I237500J0D01*
G01*
G37*
G36*
G01*
X105262500Y-57600000D02*
X105737500Y-57600000D01*
G75*
G02*
X105975000Y-57837500I0J-237500D01*
G01*
X105975000Y-58337500D01*
G75*
G02*
X105737500Y-58575000I-237500J0D01*
G01*
X105262500Y-58575000D01*
G75*
G02*
X105025000Y-58337500I0J237500D01*
G01*
X105025000Y-57837500D01*
G75*
G02*
X105262500Y-57600000I237500J0D01*
G01*
G37*
%TD*%
D12*
%TO.C,IC2*%
X116500000Y-51000000D03*
X116500000Y-50050000D03*
X116500000Y-49100000D03*
X114300000Y-49100000D03*
X114300000Y-51000000D03*
%TD*%
%TO.C,R2*%
G36*
G01*
X112237500Y-58575000D02*
X111762500Y-58575000D01*
G75*
G02*
X111525000Y-58337500I0J237500D01*
G01*
X111525000Y-57837500D01*
G75*
G02*
X111762500Y-57600000I237500J0D01*
G01*
X112237500Y-57600000D01*
G75*
G02*
X112475000Y-57837500I0J-237500D01*
G01*
X112475000Y-58337500D01*
G75*
G02*
X112237500Y-58575000I-237500J0D01*
G01*
G37*
G36*
G01*
X112237500Y-60400000D02*
X111762500Y-60400000D01*
G75*
G02*
X111525000Y-60162500I0J237500D01*
G01*
X111525000Y-59662500D01*
G75*
G02*
X111762500Y-59425000I237500J0D01*
G01*
X112237500Y-59425000D01*
G75*
G02*
X112475000Y-59662500I0J-237500D01*
G01*
X112475000Y-60162500D01*
G75*
G02*
X112237500Y-60400000I-237500J0D01*
G01*
G37*
%TD*%
%TO.C,R4*%
G36*
G01*
X112737500Y-51400000D02*
X112262500Y-51400000D01*
G75*
G02*
X112025000Y-51162500I0J237500D01*
G01*
X112025000Y-50662500D01*
G75*
G02*
X112262500Y-50425000I237500J0D01*
G01*
X112737500Y-50425000D01*
G75*
G02*
X112975000Y-50662500I0J-237500D01*
G01*
X112975000Y-51162500D01*
G75*
G02*
X112737500Y-51400000I-237500J0D01*
G01*
G37*
G36*
G01*
X112737500Y-49575000D02*
X112262500Y-49575000D01*
G75*
G02*
X112025000Y-49337500I0J237500D01*
G01*
X112025000Y-48837500D01*
G75*
G02*
X112262500Y-48600000I237500J0D01*
G01*
X112737500Y-48600000D01*
G75*
G02*
X112975000Y-48837500I0J-237500D01*
G01*
X112975000Y-49337500D01*
G75*
G02*
X112737500Y-49575000I-237500J0D01*
G01*
G37*
%TD*%
D14*
%TO.C,D2*%
X78000000Y-60150000D03*
X78000000Y-56850000D03*
%TD*%
%TO.C,C3*%
G36*
G01*
X91762500Y-54325000D02*
X92237500Y-54325000D01*
G75*
G02*
X92475000Y-54562500I0J-237500D01*
G01*
X92475000Y-55162500D01*
G75*
G02*
X92237500Y-55400000I-237500J0D01*
G01*
X91762500Y-55400000D01*
G75*
G02*
X91525000Y-55162500I0J237500D01*
G01*
X91525000Y-54562500D01*
G75*
G02*
X91762500Y-54325000I237500J0D01*
G01*
G37*
G36*
G01*
X91762500Y-52600000D02*
X92237500Y-52600000D01*
G75*
G02*
X92475000Y-52837500I0J-237500D01*
G01*
X92475000Y-53437500D01*
G75*
G02*
X92237500Y-53675000I-237500J0D01*
G01*
X91762500Y-53675000D01*
G75*
G02*
X91525000Y-53437500I0J237500D01*
G01*
X91525000Y-52837500D01*
G75*
G02*
X91762500Y-52600000I237500J0D01*
G01*
G37*
%TD*%
%TO.C,C2*%
G36*
G01*
X82762500Y-59325000D02*
X83237500Y-59325000D01*
G75*
G02*
X83475000Y-59562500I0J-237500D01*
G01*
X83475000Y-60162500D01*
G75*
G02*
X83237500Y-60400000I-237500J0D01*
G01*
X82762500Y-60400000D01*
G75*
G02*
X82525000Y-60162500I0J237500D01*
G01*
X82525000Y-59562500D01*
G75*
G02*
X82762500Y-59325000I237500J0D01*
G01*
G37*
G36*
G01*
X82762500Y-57600000D02*
X83237500Y-57600000D01*
G75*
G02*
X83475000Y-57837500I0J-237500D01*
G01*
X83475000Y-58437500D01*
G75*
G02*
X83237500Y-58675000I-237500J0D01*
G01*
X82762500Y-58675000D01*
G75*
G02*
X82525000Y-58437500I0J237500D01*
G01*
X82525000Y-57837500D01*
G75*
G02*
X82762500Y-57600000I237500J0D01*
G01*
G37*
%TD*%
%TO.C,C1*%
G36*
G01*
X78737500Y-55400000D02*
X78262500Y-55400000D01*
G75*
G02*
X78025000Y-55162500I0J237500D01*
G01*
X78025000Y-54562500D01*
G75*
G02*
X78262500Y-54325000I237500J0D01*
G01*
X78737500Y-54325000D01*
G75*
G02*
X78975000Y-54562500I0J-237500D01*
G01*
X78975000Y-55162500D01*
G75*
G02*
X78737500Y-55400000I-237500J0D01*
G01*
G37*
G36*
G01*
X78737500Y-53675000D02*
X78262500Y-53675000D01*
G75*
G02*
X78025000Y-53437500I0J237500D01*
G01*
X78025000Y-52837500D01*
G75*
G02*
X78262500Y-52600000I237500J0D01*
G01*
X78737500Y-52600000D01*
G75*
G02*
X78975000Y-52837500I0J-237500D01*
G01*
X78975000Y-53437500D01*
G75*
G02*
X78737500Y-53675000I-237500J0D01*
G01*
G37*
%TD*%
D10*
%TO.C,IC1*%
X79550000Y-51100000D03*
X80500000Y-51100000D03*
X81450000Y-51100000D03*
X81450000Y-48900000D03*
X79550000Y-48900000D03*
%TD*%
D11*
%TO.C,T3*%
X90500000Y-58000000D03*
X91450000Y-60000000D03*
X89550000Y-60000000D03*
%TD*%
%TO.C,R4*%
G36*
G01*
X87737500Y-49575000D02*
X87262500Y-49575000D01*
G75*
G02*
X87025000Y-49337500I0J237500D01*
G01*
X87025000Y-48837500D01*
G75*
G02*
X87262500Y-48600000I237500J0D01*
G01*
X87737500Y-48600000D01*
G75*
G02*
X87975000Y-48837500I0J-237500D01*
G01*
X87975000Y-49337500D01*
G75*
G02*
X87737500Y-49575000I-237500J0D01*
G01*
G37*
G36*
G01*
X87737500Y-51400000D02*
X87262500Y-51400000D01*
G75*
G02*
X87025000Y-51162500I0J237500D01*
G01*
X87025000Y-50662500D01*
G75*
G02*
X87262500Y-50425000I237500J0D01*
G01*
X87737500Y-50425000D01*
G75*
G02*
X87975000Y-50662500I0J-237500D01*
G01*
X87975000Y-51162500D01*
G75*
G02*
X87737500Y-51400000I-237500J0D01*
G01*
G37*
%TD*%
%TO.C,R1*%
G36*
G01*
X80262500Y-57600000D02*
X80737500Y-57600000D01*
G75*
G02*
X80975000Y-57837500I0J-237500D01*
G01*
X80975000Y-58337500D01*
G75*
G02*
X80737500Y-58575000I-237500J0D01*
G01*
X80262500Y-58575000D01*
G75*
G02*
X80025000Y-58337500I0J237500D01*
G01*
X80025000Y-57837500D01*
G75*
G02*
X80262500Y-57600000I237500J0D01*
G01*
G37*
G36*
G01*
X80262500Y-59425000D02*
X80737500Y-59425000D01*
G75*
G02*
X80975000Y-59662500I0J-237500D01*
G01*
X80975000Y-60162500D01*
G75*
G02*
X80737500Y-60400000I-237500J0D01*
G01*
X80262500Y-60400000D01*
G75*
G02*
X80025000Y-60162500I0J237500D01*
G01*
X80025000Y-59662500D01*
G75*
G02*
X80262500Y-59425000I237500J0D01*
G01*
G37*
%TD*%
D12*
%TO.C,IC2*%
X89300000Y-51000000D03*
X89300000Y-49100000D03*
X91500000Y-49100000D03*
X91500000Y-50050000D03*
X91500000Y-51000000D03*
%TD*%
%TO.C,R2*%
G36*
G01*
X87237500Y-60400000D02*
X86762500Y-60400000D01*
G75*
G02*
X86525000Y-60162500I0J237500D01*
G01*
X86525000Y-59662500D01*
G75*
G02*
X86762500Y-59425000I237500J0D01*
G01*
X87237500Y-59425000D01*
G75*
G02*
X87475000Y-59662500I0J-237500D01*
G01*
X87475000Y-60162500D01*
G75*
G02*
X87237500Y-60400000I-237500J0D01*
G01*
G37*
G36*
G01*
X87237500Y-58575000D02*
X86762500Y-58575000D01*
G75*
G02*
X86525000Y-58337500I0J237500D01*
G01*
X86525000Y-57837500D01*
G75*
G02*
X86762500Y-57600000I237500J0D01*
G01*
X87237500Y-57600000D01*
G75*
G02*
X87475000Y-57837500I0J-237500D01*
G01*
X87475000Y-58337500D01*
G75*
G02*
X87237500Y-58575000I-237500J0D01*
G01*
G37*
%TD*%
D13*
%TO.C,T2*%
X83500000Y-49050000D03*
X83500000Y-50950000D03*
X85500000Y-50000000D03*
%TD*%
%TO.C,R3*%
G36*
G01*
X83925000Y-47237500D02*
X83925000Y-46762500D01*
G75*
G02*
X84162500Y-46525000I237500J0D01*
G01*
X84662500Y-46525000D01*
G75*
G02*
X84900000Y-46762500I0J-237500D01*
G01*
X84900000Y-47237500D01*
G75*
G02*
X84662500Y-47475000I-237500J0D01*
G01*
X84162500Y-47475000D01*
G75*
G02*
X83925000Y-47237500I0J237500D01*
G01*
G37*
G36*
G01*
X82100000Y-47237500D02*
X82100000Y-46762500D01*
G75*
G02*
X82337500Y-46525000I237500J0D01*
G01*
X82837500Y-46525000D01*
G75*
G02*
X83075000Y-46762500I0J-237500D01*
G01*
X83075000Y-47237500D01*
G75*
G02*
X82837500Y-47475000I-237500J0D01*
G01*
X82337500Y-47475000D01*
G75*
G02*
X82100000Y-47237500I0J237500D01*
G01*
G37*
%TD*%
%TO.C,C1*%
G36*
G01*
X53737500Y-53675000D02*
X53262500Y-53675000D01*
G75*
G02*
X53025000Y-53437500I0J237500D01*
G01*
X53025000Y-52837500D01*
G75*
G02*
X53262500Y-52600000I237500J0D01*
G01*
X53737500Y-52600000D01*
G75*
G02*
X53975000Y-52837500I0J-237500D01*
G01*
X53975000Y-53437500D01*
G75*
G02*
X53737500Y-53675000I-237500J0D01*
G01*
G37*
G36*
G01*
X53737500Y-55400000D02*
X53262500Y-55400000D01*
G75*
G02*
X53025000Y-55162500I0J237500D01*
G01*
X53025000Y-54562500D01*
G75*
G02*
X53262500Y-54325000I237500J0D01*
G01*
X53737500Y-54325000D01*
G75*
G02*
X53975000Y-54562500I0J-237500D01*
G01*
X53975000Y-55162500D01*
G75*
G02*
X53737500Y-55400000I-237500J0D01*
G01*
G37*
%TD*%
%TO.C,C2*%
G36*
G01*
X57762500Y-57600000D02*
X58237500Y-57600000D01*
G75*
G02*
X58475000Y-57837500I0J-237500D01*
G01*
X58475000Y-58437500D01*
G75*
G02*
X58237500Y-58675000I-237500J0D01*
G01*
X57762500Y-58675000D01*
G75*
G02*
X57525000Y-58437500I0J237500D01*
G01*
X57525000Y-57837500D01*
G75*
G02*
X57762500Y-57600000I237500J0D01*
G01*
G37*
G36*
G01*
X57762500Y-59325000D02*
X58237500Y-59325000D01*
G75*
G02*
X58475000Y-59562500I0J-237500D01*
G01*
X58475000Y-60162500D01*
G75*
G02*
X58237500Y-60400000I-237500J0D01*
G01*
X57762500Y-60400000D01*
G75*
G02*
X57525000Y-60162500I0J237500D01*
G01*
X57525000Y-59562500D01*
G75*
G02*
X57762500Y-59325000I237500J0D01*
G01*
G37*
%TD*%
%TO.C,C3*%
G36*
G01*
X66762500Y-52600000D02*
X67237500Y-52600000D01*
G75*
G02*
X67475000Y-52837500I0J-237500D01*
G01*
X67475000Y-53437500D01*
G75*
G02*
X67237500Y-53675000I-237500J0D01*
G01*
X66762500Y-53675000D01*
G75*
G02*
X66525000Y-53437500I0J237500D01*
G01*
X66525000Y-52837500D01*
G75*
G02*
X66762500Y-52600000I237500J0D01*
G01*
G37*
G36*
G01*
X66762500Y-54325000D02*
X67237500Y-54325000D01*
G75*
G02*
X67475000Y-54562500I0J-237500D01*
G01*
X67475000Y-55162500D01*
G75*
G02*
X67237500Y-55400000I-237500J0D01*
G01*
X66762500Y-55400000D01*
G75*
G02*
X66525000Y-55162500I0J237500D01*
G01*
X66525000Y-54562500D01*
G75*
G02*
X66762500Y-54325000I237500J0D01*
G01*
G37*
%TD*%
D14*
%TO.C,D2*%
X53000000Y-56850000D03*
X53000000Y-60150000D03*
%TD*%
D10*
%TO.C,IC1*%
X54550000Y-48900000D03*
X56450000Y-48900000D03*
X56450000Y-51100000D03*
X55500000Y-51100000D03*
X54550000Y-51100000D03*
%TD*%
D12*
%TO.C,IC2*%
X66500000Y-51000000D03*
X66500000Y-50050000D03*
X66500000Y-49100000D03*
X64300000Y-49100000D03*
X64300000Y-51000000D03*
%TD*%
%TO.C,R1*%
G36*
G01*
X55262500Y-59425000D02*
X55737500Y-59425000D01*
G75*
G02*
X55975000Y-59662500I0J-237500D01*
G01*
X55975000Y-60162500D01*
G75*
G02*
X55737500Y-60400000I-237500J0D01*
G01*
X55262500Y-60400000D01*
G75*
G02*
X55025000Y-60162500I0J237500D01*
G01*
X55025000Y-59662500D01*
G75*
G02*
X55262500Y-59425000I237500J0D01*
G01*
G37*
G36*
G01*
X55262500Y-57600000D02*
X55737500Y-57600000D01*
G75*
G02*
X55975000Y-57837500I0J-237500D01*
G01*
X55975000Y-58337500D01*
G75*
G02*
X55737500Y-58575000I-237500J0D01*
G01*
X55262500Y-58575000D01*
G75*
G02*
X55025000Y-58337500I0J237500D01*
G01*
X55025000Y-57837500D01*
G75*
G02*
X55262500Y-57600000I237500J0D01*
G01*
G37*
%TD*%
%TO.C,R2*%
G36*
G01*
X62237500Y-58575000D02*
X61762500Y-58575000D01*
G75*
G02*
X61525000Y-58337500I0J237500D01*
G01*
X61525000Y-57837500D01*
G75*
G02*
X61762500Y-57600000I237500J0D01*
G01*
X62237500Y-57600000D01*
G75*
G02*
X62475000Y-57837500I0J-237500D01*
G01*
X62475000Y-58337500D01*
G75*
G02*
X62237500Y-58575000I-237500J0D01*
G01*
G37*
G36*
G01*
X62237500Y-60400000D02*
X61762500Y-60400000D01*
G75*
G02*
X61525000Y-60162500I0J237500D01*
G01*
X61525000Y-59662500D01*
G75*
G02*
X61762500Y-59425000I237500J0D01*
G01*
X62237500Y-59425000D01*
G75*
G02*
X62475000Y-59662500I0J-237500D01*
G01*
X62475000Y-60162500D01*
G75*
G02*
X62237500Y-60400000I-237500J0D01*
G01*
G37*
%TD*%
%TO.C,R3*%
G36*
G01*
X57100000Y-47237500D02*
X57100000Y-46762500D01*
G75*
G02*
X57337500Y-46525000I237500J0D01*
G01*
X57837500Y-46525000D01*
G75*
G02*
X58075000Y-46762500I0J-237500D01*
G01*
X58075000Y-47237500D01*
G75*
G02*
X57837500Y-47475000I-237500J0D01*
G01*
X57337500Y-47475000D01*
G75*
G02*
X57100000Y-47237500I0J237500D01*
G01*
G37*
G36*
G01*
X58925000Y-47237500D02*
X58925000Y-46762500D01*
G75*
G02*
X59162500Y-46525000I237500J0D01*
G01*
X59662500Y-46525000D01*
G75*
G02*
X59900000Y-46762500I0J-237500D01*
G01*
X59900000Y-47237500D01*
G75*
G02*
X59662500Y-47475000I-237500J0D01*
G01*
X59162500Y-47475000D01*
G75*
G02*
X58925000Y-47237500I0J237500D01*
G01*
G37*
%TD*%
%TO.C,R4*%
G36*
G01*
X62737500Y-51400000D02*
X62262500Y-51400000D01*
G75*
G02*
X62025000Y-51162500I0J237500D01*
G01*
X62025000Y-50662500D01*
G75*
G02*
X62262500Y-50425000I237500J0D01*
G01*
X62737500Y-50425000D01*
G75*
G02*
X62975000Y-50662500I0J-237500D01*
G01*
X62975000Y-51162500D01*
G75*
G02*
X62737500Y-51400000I-237500J0D01*
G01*
G37*
G36*
G01*
X62737500Y-49575000D02*
X62262500Y-49575000D01*
G75*
G02*
X62025000Y-49337500I0J237500D01*
G01*
X62025000Y-48837500D01*
G75*
G02*
X62262500Y-48600000I237500J0D01*
G01*
X62737500Y-48600000D01*
G75*
G02*
X62975000Y-48837500I0J-237500D01*
G01*
X62975000Y-49337500D01*
G75*
G02*
X62737500Y-49575000I-237500J0D01*
G01*
G37*
%TD*%
D13*
%TO.C,T2*%
X60500000Y-50000000D03*
X58500000Y-50950000D03*
X58500000Y-49050000D03*
%TD*%
D11*
%TO.C,T3*%
X64550000Y-60000000D03*
X66450000Y-60000000D03*
X65500000Y-58000000D03*
%TD*%
M02*
