%TF.GenerationSoftware,KiCad,Pcbnew,(5.1.9)-1*%
%TF.CreationDate,2021-10-14T17:35:56+02:00*%
%TF.ProjectId,IM350_AM550_T210_5V_V5.0,494d3335-305f-4414-9d35-35305f543231,rev?*%
%TF.SameCoordinates,Original*%
%TF.FileFunction,Legend,Top*%
%TF.FilePolarity,Positive*%
%FSLAX46Y46*%
G04 Gerber Fmt 4.6, Leading zero omitted, Abs format (unit mm)*
G04 Created by KiCad (PCBNEW (5.1.9)-1) date 2021-10-14 17:35:56*
%MOMM*%
%LPD*%
G01*
G04 APERTURE LIST*
%ADD10C,0.120000*%
%ADD11C,0.100000*%
G04 APERTURE END LIST*
D10*
X85000000Y-25000000D02*
X85000000Y-125000000D01*
X35000000Y-105000000D02*
X135000000Y-105000000D01*
X35000000Y-85000000D02*
X85000000Y-85000000D01*
X35000000Y-65000000D02*
X135000000Y-65000000D01*
X35000000Y-45000000D02*
X135000000Y-45000000D01*
%TO.C,J1*%
X79840000Y-116760000D02*
X80230000Y-116760000D01*
X79840000Y-116760000D02*
X79840000Y-116310000D01*
X79150000Y-111225000D02*
X79150000Y-111875000D01*
X80880000Y-111190000D02*
X79150000Y-111190000D01*
X84840000Y-118810000D02*
X84630000Y-118810000D01*
X84840000Y-111190000D02*
X84630000Y-111190000D01*
X80880000Y-118810000D02*
X79150000Y-118810000D01*
X79150000Y-118700000D02*
X79150000Y-118040000D01*
%TO.C,R9*%
X129165000Y-107572936D02*
X129165000Y-108027064D01*
X130635000Y-107572936D02*
X130635000Y-108027064D01*
%TO.C,U2*%
X48380000Y-123120000D02*
X48380000Y-106880000D01*
X48380000Y-106880000D02*
X56000000Y-106880000D01*
X72000000Y-106880000D02*
X72620000Y-106880000D01*
X72620000Y-106880000D02*
X72620000Y-109000000D01*
X72620000Y-121000000D02*
X72620000Y-123120000D01*
X72620000Y-123120000D02*
X72000000Y-123120000D01*
X56000000Y-123120000D02*
X48380000Y-123120000D01*
X56000000Y-123120000D02*
X56000000Y-123730000D01*
%TO.C,SW1*%
X76240000Y-119900000D02*
X82360000Y-119900000D01*
X82360000Y-119900000D02*
X82360000Y-123600000D01*
X82360000Y-123600000D02*
X76240000Y-123600000D01*
X76240000Y-123600000D02*
X76240000Y-119900000D01*
%TO.C,R3*%
X124465000Y-107572936D02*
X124465000Y-108027064D01*
X125935000Y-107572936D02*
X125935000Y-108027064D01*
%TO.C,J2*%
X95480000Y-108100000D02*
X97010000Y-108100000D01*
X88460000Y-108570000D02*
X97480000Y-108570000D01*
D11*
X88530000Y-108570000D02*
X88460000Y-108570000D01*
D10*
X97480000Y-121770000D02*
X88460000Y-121770000D01*
X97480000Y-108570000D02*
X97480000Y-121770000D01*
X47480000Y-108570000D02*
X47480000Y-121770000D01*
X47480000Y-121770000D02*
X38460000Y-121770000D01*
D11*
X38530000Y-108570000D02*
X38460000Y-108570000D01*
D10*
X38460000Y-108570000D02*
X47480000Y-108570000D01*
X45480000Y-108100000D02*
X47010000Y-108100000D01*
%TO.C,R8*%
X76765000Y-108027064D02*
X76765000Y-107572936D01*
X78235000Y-108027064D02*
X78235000Y-107572936D01*
%TO.C,U2*%
X106000000Y-123120000D02*
X106000000Y-123730000D01*
X106000000Y-123120000D02*
X98380000Y-123120000D01*
X122620000Y-123120000D02*
X122000000Y-123120000D01*
X122620000Y-121000000D02*
X122620000Y-123120000D01*
X122620000Y-106880000D02*
X122620000Y-109000000D01*
X122000000Y-106880000D02*
X122620000Y-106880000D01*
X98380000Y-106880000D02*
X106000000Y-106880000D01*
X98380000Y-123120000D02*
X98380000Y-106880000D01*
%TO.C,R8*%
X128235000Y-108027064D02*
X128235000Y-107572936D01*
X126765000Y-108027064D02*
X126765000Y-107572936D01*
%TO.C,Q1*%
X132140000Y-106320000D02*
X133600000Y-106320000D01*
X132140000Y-109480000D02*
X134300000Y-109480000D01*
X132140000Y-109480000D02*
X132140000Y-108550000D01*
X132140000Y-106320000D02*
X132140000Y-107250000D01*
X82140000Y-106320000D02*
X82140000Y-107250000D01*
X82140000Y-109480000D02*
X82140000Y-108550000D01*
X82140000Y-109480000D02*
X84300000Y-109480000D01*
X82140000Y-106320000D02*
X83600000Y-106320000D01*
%TO.C,J1*%
X129150000Y-118700000D02*
X129150000Y-118040000D01*
X130880000Y-118810000D02*
X129150000Y-118810000D01*
X134840000Y-111190000D02*
X134630000Y-111190000D01*
X134840000Y-118810000D02*
X134630000Y-118810000D01*
X130880000Y-111190000D02*
X129150000Y-111190000D01*
X129150000Y-111225000D02*
X129150000Y-111875000D01*
X129840000Y-116760000D02*
X129840000Y-116310000D01*
X129840000Y-116760000D02*
X130230000Y-116760000D01*
%TO.C,SW1*%
X126240000Y-123600000D02*
X126240000Y-119900000D01*
X132360000Y-123600000D02*
X126240000Y-123600000D01*
X132360000Y-119900000D02*
X132360000Y-123600000D01*
X126240000Y-119900000D02*
X132360000Y-119900000D01*
%TO.C,R9*%
X80635000Y-107572936D02*
X80635000Y-108027064D01*
X79165000Y-107572936D02*
X79165000Y-108027064D01*
%TO.C,R3*%
X75935000Y-107572936D02*
X75935000Y-108027064D01*
X74465000Y-107572936D02*
X74465000Y-108027064D01*
%TO.C,U2*%
X56000000Y-103120000D02*
X56000000Y-103730000D01*
X56000000Y-103120000D02*
X48380000Y-103120000D01*
X72620000Y-103120000D02*
X72000000Y-103120000D01*
X72620000Y-101000000D02*
X72620000Y-103120000D01*
X72620000Y-86880000D02*
X72620000Y-89000000D01*
X72000000Y-86880000D02*
X72620000Y-86880000D01*
X48380000Y-86880000D02*
X56000000Y-86880000D01*
X48380000Y-103120000D02*
X48380000Y-86880000D01*
%TO.C,R9*%
X130635000Y-87572936D02*
X130635000Y-88027064D01*
X129165000Y-87572936D02*
X129165000Y-88027064D01*
%TO.C,SW1*%
X76240000Y-103600000D02*
X76240000Y-99900000D01*
X82360000Y-103600000D02*
X76240000Y-103600000D01*
X82360000Y-99900000D02*
X82360000Y-103600000D01*
X76240000Y-99900000D02*
X82360000Y-99900000D01*
%TO.C,J1*%
X79150000Y-98700000D02*
X79150000Y-98040000D01*
X80880000Y-98810000D02*
X79150000Y-98810000D01*
X84840000Y-91190000D02*
X84630000Y-91190000D01*
X84840000Y-98810000D02*
X84630000Y-98810000D01*
X80880000Y-91190000D02*
X79150000Y-91190000D01*
X79150000Y-91225000D02*
X79150000Y-91875000D01*
X79840000Y-96760000D02*
X79840000Y-96310000D01*
X79840000Y-96760000D02*
X80230000Y-96760000D01*
%TO.C,R3*%
X125935000Y-87572936D02*
X125935000Y-88027064D01*
X124465000Y-87572936D02*
X124465000Y-88027064D01*
%TO.C,J2*%
X45480000Y-88100000D02*
X47010000Y-88100000D01*
X38460000Y-88570000D02*
X47480000Y-88570000D01*
D11*
X38530000Y-88570000D02*
X38460000Y-88570000D01*
D10*
X47480000Y-101770000D02*
X38460000Y-101770000D01*
X47480000Y-88570000D02*
X47480000Y-101770000D01*
%TO.C,U2*%
X98380000Y-103120000D02*
X98380000Y-86880000D01*
X98380000Y-86880000D02*
X106000000Y-86880000D01*
X122000000Y-86880000D02*
X122620000Y-86880000D01*
X122620000Y-86880000D02*
X122620000Y-89000000D01*
X122620000Y-101000000D02*
X122620000Y-103120000D01*
X122620000Y-103120000D02*
X122000000Y-103120000D01*
X106000000Y-103120000D02*
X98380000Y-103120000D01*
X106000000Y-103120000D02*
X106000000Y-103730000D01*
%TO.C,R8*%
X126765000Y-88027064D02*
X126765000Y-87572936D01*
X128235000Y-88027064D02*
X128235000Y-87572936D01*
%TO.C,Q1*%
X132140000Y-86320000D02*
X132140000Y-87250000D01*
X132140000Y-89480000D02*
X132140000Y-88550000D01*
X132140000Y-89480000D02*
X134300000Y-89480000D01*
X132140000Y-86320000D02*
X133600000Y-86320000D01*
%TO.C,J2*%
X97480000Y-88570000D02*
X97480000Y-101770000D01*
X97480000Y-101770000D02*
X88460000Y-101770000D01*
D11*
X88530000Y-88570000D02*
X88460000Y-88570000D01*
D10*
X88460000Y-88570000D02*
X97480000Y-88570000D01*
X95480000Y-88100000D02*
X97010000Y-88100000D01*
%TO.C,R8*%
X78235000Y-88027064D02*
X78235000Y-87572936D01*
X76765000Y-88027064D02*
X76765000Y-87572936D01*
%TO.C,R9*%
X79165000Y-87572936D02*
X79165000Y-88027064D01*
X80635000Y-87572936D02*
X80635000Y-88027064D01*
%TO.C,R3*%
X74465000Y-87572936D02*
X74465000Y-88027064D01*
X75935000Y-87572936D02*
X75935000Y-88027064D01*
%TO.C,J1*%
X129840000Y-96760000D02*
X130230000Y-96760000D01*
X129840000Y-96760000D02*
X129840000Y-96310000D01*
X129150000Y-91225000D02*
X129150000Y-91875000D01*
X130880000Y-91190000D02*
X129150000Y-91190000D01*
X134840000Y-98810000D02*
X134630000Y-98810000D01*
X134840000Y-91190000D02*
X134630000Y-91190000D01*
X130880000Y-98810000D02*
X129150000Y-98810000D01*
X129150000Y-98700000D02*
X129150000Y-98040000D01*
%TO.C,SW1*%
X126240000Y-99900000D02*
X132360000Y-99900000D01*
X132360000Y-99900000D02*
X132360000Y-103600000D01*
X132360000Y-103600000D02*
X126240000Y-103600000D01*
X126240000Y-103600000D02*
X126240000Y-99900000D01*
%TO.C,Q1*%
X82140000Y-86320000D02*
X83600000Y-86320000D01*
X82140000Y-89480000D02*
X84300000Y-89480000D01*
X82140000Y-89480000D02*
X82140000Y-88550000D01*
X82140000Y-86320000D02*
X82140000Y-87250000D01*
%TO.C,R8*%
X128235000Y-68027064D02*
X128235000Y-67572936D01*
X126765000Y-68027064D02*
X126765000Y-67572936D01*
%TO.C,R3*%
X124465000Y-67572936D02*
X124465000Y-68027064D01*
X125935000Y-67572936D02*
X125935000Y-68027064D01*
%TO.C,R9*%
X129165000Y-67572936D02*
X129165000Y-68027064D01*
X130635000Y-67572936D02*
X130635000Y-68027064D01*
%TO.C,U2*%
X106000000Y-83120000D02*
X106000000Y-83730000D01*
X106000000Y-83120000D02*
X98380000Y-83120000D01*
X122620000Y-83120000D02*
X122000000Y-83120000D01*
X122620000Y-81000000D02*
X122620000Y-83120000D01*
X122620000Y-66880000D02*
X122620000Y-69000000D01*
X122000000Y-66880000D02*
X122620000Y-66880000D01*
X98380000Y-66880000D02*
X106000000Y-66880000D01*
X98380000Y-83120000D02*
X98380000Y-66880000D01*
%TO.C,J2*%
X95480000Y-68100000D02*
X97010000Y-68100000D01*
X88460000Y-68570000D02*
X97480000Y-68570000D01*
D11*
X88530000Y-68570000D02*
X88460000Y-68570000D01*
D10*
X97480000Y-81770000D02*
X88460000Y-81770000D01*
X97480000Y-68570000D02*
X97480000Y-81770000D01*
%TO.C,Q1*%
X132140000Y-66320000D02*
X133600000Y-66320000D01*
X132140000Y-69480000D02*
X134300000Y-69480000D01*
X132140000Y-69480000D02*
X132140000Y-68550000D01*
X132140000Y-66320000D02*
X132140000Y-67250000D01*
%TO.C,U2*%
X48380000Y-83120000D02*
X48380000Y-66880000D01*
X48380000Y-66880000D02*
X56000000Y-66880000D01*
X72000000Y-66880000D02*
X72620000Y-66880000D01*
X72620000Y-66880000D02*
X72620000Y-69000000D01*
X72620000Y-81000000D02*
X72620000Y-83120000D01*
X72620000Y-83120000D02*
X72000000Y-83120000D01*
X56000000Y-83120000D02*
X48380000Y-83120000D01*
X56000000Y-83120000D02*
X56000000Y-83730000D01*
%TO.C,SW1*%
X76240000Y-79900000D02*
X82360000Y-79900000D01*
X82360000Y-79900000D02*
X82360000Y-83600000D01*
X82360000Y-83600000D02*
X76240000Y-83600000D01*
X76240000Y-83600000D02*
X76240000Y-79900000D01*
%TO.C,J2*%
X47480000Y-68570000D02*
X47480000Y-81770000D01*
X47480000Y-81770000D02*
X38460000Y-81770000D01*
D11*
X38530000Y-68570000D02*
X38460000Y-68570000D01*
D10*
X38460000Y-68570000D02*
X47480000Y-68570000D01*
X45480000Y-68100000D02*
X47010000Y-68100000D01*
%TO.C,J1*%
X79840000Y-76760000D02*
X80230000Y-76760000D01*
X79840000Y-76760000D02*
X79840000Y-76310000D01*
X79150000Y-71225000D02*
X79150000Y-71875000D01*
X80880000Y-71190000D02*
X79150000Y-71190000D01*
X84840000Y-78810000D02*
X84630000Y-78810000D01*
X84840000Y-71190000D02*
X84630000Y-71190000D01*
X80880000Y-78810000D02*
X79150000Y-78810000D01*
X79150000Y-78700000D02*
X79150000Y-78040000D01*
%TO.C,R9*%
X80635000Y-67572936D02*
X80635000Y-68027064D01*
X79165000Y-67572936D02*
X79165000Y-68027064D01*
%TO.C,R8*%
X76765000Y-68027064D02*
X76765000Y-67572936D01*
X78235000Y-68027064D02*
X78235000Y-67572936D01*
%TO.C,R3*%
X75935000Y-67572936D02*
X75935000Y-68027064D01*
X74465000Y-67572936D02*
X74465000Y-68027064D01*
%TO.C,Q1*%
X82140000Y-66320000D02*
X82140000Y-67250000D01*
X82140000Y-69480000D02*
X82140000Y-68550000D01*
X82140000Y-69480000D02*
X84300000Y-69480000D01*
X82140000Y-66320000D02*
X83600000Y-66320000D01*
%TO.C,J1*%
X129150000Y-78700000D02*
X129150000Y-78040000D01*
X130880000Y-78810000D02*
X129150000Y-78810000D01*
X134840000Y-71190000D02*
X134630000Y-71190000D01*
X134840000Y-78810000D02*
X134630000Y-78810000D01*
X130880000Y-71190000D02*
X129150000Y-71190000D01*
X129150000Y-71225000D02*
X129150000Y-71875000D01*
X129840000Y-76760000D02*
X129840000Y-76310000D01*
X129840000Y-76760000D02*
X130230000Y-76760000D01*
%TO.C,SW1*%
X126240000Y-83600000D02*
X126240000Y-79900000D01*
X132360000Y-83600000D02*
X126240000Y-83600000D01*
X132360000Y-79900000D02*
X132360000Y-83600000D01*
X126240000Y-79900000D02*
X132360000Y-79900000D01*
X126240000Y-59900000D02*
X132360000Y-59900000D01*
X132360000Y-59900000D02*
X132360000Y-63600000D01*
X132360000Y-63600000D02*
X126240000Y-63600000D01*
X126240000Y-63600000D02*
X126240000Y-59900000D01*
%TO.C,J1*%
X129840000Y-56760000D02*
X130230000Y-56760000D01*
X129840000Y-56760000D02*
X129840000Y-56310000D01*
X129150000Y-51225000D02*
X129150000Y-51875000D01*
X130880000Y-51190000D02*
X129150000Y-51190000D01*
X134840000Y-58810000D02*
X134630000Y-58810000D01*
X134840000Y-51190000D02*
X134630000Y-51190000D01*
X130880000Y-58810000D02*
X129150000Y-58810000D01*
X129150000Y-58700000D02*
X129150000Y-58040000D01*
%TO.C,U2*%
X98380000Y-63120000D02*
X98380000Y-46880000D01*
X98380000Y-46880000D02*
X106000000Y-46880000D01*
X122000000Y-46880000D02*
X122620000Y-46880000D01*
X122620000Y-46880000D02*
X122620000Y-49000000D01*
X122620000Y-61000000D02*
X122620000Y-63120000D01*
X122620000Y-63120000D02*
X122000000Y-63120000D01*
X106000000Y-63120000D02*
X98380000Y-63120000D01*
X106000000Y-63120000D02*
X106000000Y-63730000D01*
%TO.C,J2*%
X97480000Y-48570000D02*
X97480000Y-61770000D01*
X97480000Y-61770000D02*
X88460000Y-61770000D01*
D11*
X88530000Y-48570000D02*
X88460000Y-48570000D01*
D10*
X88460000Y-48570000D02*
X97480000Y-48570000D01*
X95480000Y-48100000D02*
X97010000Y-48100000D01*
%TO.C,R9*%
X130635000Y-47572936D02*
X130635000Y-48027064D01*
X129165000Y-47572936D02*
X129165000Y-48027064D01*
%TO.C,Q1*%
X132140000Y-46320000D02*
X132140000Y-47250000D01*
X132140000Y-49480000D02*
X132140000Y-48550000D01*
X132140000Y-49480000D02*
X134300000Y-49480000D01*
X132140000Y-46320000D02*
X133600000Y-46320000D01*
%TO.C,R3*%
X125935000Y-47572936D02*
X125935000Y-48027064D01*
X124465000Y-47572936D02*
X124465000Y-48027064D01*
%TO.C,R8*%
X126765000Y-48027064D02*
X126765000Y-47572936D01*
X128235000Y-48027064D02*
X128235000Y-47572936D01*
%TO.C,SW1*%
X76240000Y-63600000D02*
X76240000Y-59900000D01*
X82360000Y-63600000D02*
X76240000Y-63600000D01*
X82360000Y-59900000D02*
X82360000Y-63600000D01*
X76240000Y-59900000D02*
X82360000Y-59900000D01*
%TO.C,U2*%
X56000000Y-63120000D02*
X56000000Y-63730000D01*
X56000000Y-63120000D02*
X48380000Y-63120000D01*
X72620000Y-63120000D02*
X72000000Y-63120000D01*
X72620000Y-61000000D02*
X72620000Y-63120000D01*
X72620000Y-46880000D02*
X72620000Y-49000000D01*
X72000000Y-46880000D02*
X72620000Y-46880000D01*
X48380000Y-46880000D02*
X56000000Y-46880000D01*
X48380000Y-63120000D02*
X48380000Y-46880000D01*
%TO.C,R9*%
X79165000Y-47572936D02*
X79165000Y-48027064D01*
X80635000Y-47572936D02*
X80635000Y-48027064D01*
%TO.C,R8*%
X78235000Y-48027064D02*
X78235000Y-47572936D01*
X76765000Y-48027064D02*
X76765000Y-47572936D01*
%TO.C,J1*%
X79150000Y-58700000D02*
X79150000Y-58040000D01*
X80880000Y-58810000D02*
X79150000Y-58810000D01*
X84840000Y-51190000D02*
X84630000Y-51190000D01*
X84840000Y-58810000D02*
X84630000Y-58810000D01*
X80880000Y-51190000D02*
X79150000Y-51190000D01*
X79150000Y-51225000D02*
X79150000Y-51875000D01*
X79840000Y-56760000D02*
X79840000Y-56310000D01*
X79840000Y-56760000D02*
X80230000Y-56760000D01*
%TO.C,R3*%
X74465000Y-47572936D02*
X74465000Y-48027064D01*
X75935000Y-47572936D02*
X75935000Y-48027064D01*
%TO.C,Q1*%
X82140000Y-46320000D02*
X83600000Y-46320000D01*
X82140000Y-49480000D02*
X84300000Y-49480000D01*
X82140000Y-49480000D02*
X82140000Y-48550000D01*
X82140000Y-46320000D02*
X82140000Y-47250000D01*
%TO.C,J2*%
X45480000Y-48100000D02*
X47010000Y-48100000D01*
X38460000Y-48570000D02*
X47480000Y-48570000D01*
D11*
X38530000Y-48570000D02*
X38460000Y-48570000D01*
D10*
X47480000Y-61770000D02*
X38460000Y-61770000D01*
X47480000Y-48570000D02*
X47480000Y-61770000D01*
%TO.C,SW1*%
X126240000Y-43600000D02*
X126240000Y-39900000D01*
X132360000Y-43600000D02*
X126240000Y-43600000D01*
X132360000Y-39900000D02*
X132360000Y-43600000D01*
X126240000Y-39900000D02*
X132360000Y-39900000D01*
%TO.C,U2*%
X106000000Y-43120000D02*
X106000000Y-43730000D01*
X106000000Y-43120000D02*
X98380000Y-43120000D01*
X122620000Y-43120000D02*
X122000000Y-43120000D01*
X122620000Y-41000000D02*
X122620000Y-43120000D01*
X122620000Y-26880000D02*
X122620000Y-29000000D01*
X122000000Y-26880000D02*
X122620000Y-26880000D01*
X98380000Y-26880000D02*
X106000000Y-26880000D01*
X98380000Y-43120000D02*
X98380000Y-26880000D01*
%TO.C,R9*%
X129165000Y-27572936D02*
X129165000Y-28027064D01*
X130635000Y-27572936D02*
X130635000Y-28027064D01*
%TO.C,R8*%
X128235000Y-28027064D02*
X128235000Y-27572936D01*
X126765000Y-28027064D02*
X126765000Y-27572936D01*
%TO.C,J1*%
X129150000Y-38700000D02*
X129150000Y-38040000D01*
X130880000Y-38810000D02*
X129150000Y-38810000D01*
X134840000Y-31190000D02*
X134630000Y-31190000D01*
X134840000Y-38810000D02*
X134630000Y-38810000D01*
X130880000Y-31190000D02*
X129150000Y-31190000D01*
X129150000Y-31225000D02*
X129150000Y-31875000D01*
X129840000Y-36760000D02*
X129840000Y-36310000D01*
X129840000Y-36760000D02*
X130230000Y-36760000D01*
%TO.C,R3*%
X124465000Y-27572936D02*
X124465000Y-28027064D01*
X125935000Y-27572936D02*
X125935000Y-28027064D01*
%TO.C,Q1*%
X132140000Y-26320000D02*
X133600000Y-26320000D01*
X132140000Y-29480000D02*
X134300000Y-29480000D01*
X132140000Y-29480000D02*
X132140000Y-28550000D01*
X132140000Y-26320000D02*
X132140000Y-27250000D01*
%TO.C,J2*%
X95480000Y-28100000D02*
X97010000Y-28100000D01*
X88460000Y-28570000D02*
X97480000Y-28570000D01*
D11*
X88530000Y-28570000D02*
X88460000Y-28570000D01*
D10*
X97480000Y-41770000D02*
X88460000Y-41770000D01*
X97480000Y-28570000D02*
X97480000Y-41770000D01*
X47480000Y-28570000D02*
X47480000Y-41770000D01*
X47480000Y-41770000D02*
X38460000Y-41770000D01*
D11*
X38530000Y-28570000D02*
X38460000Y-28570000D01*
D10*
X38460000Y-28570000D02*
X47480000Y-28570000D01*
X45480000Y-28100000D02*
X47010000Y-28100000D01*
%TO.C,U2*%
X48380000Y-43120000D02*
X48380000Y-26880000D01*
X48380000Y-26880000D02*
X56000000Y-26880000D01*
X72000000Y-26880000D02*
X72620000Y-26880000D01*
X72620000Y-26880000D02*
X72620000Y-29000000D01*
X72620000Y-41000000D02*
X72620000Y-43120000D01*
X72620000Y-43120000D02*
X72000000Y-43120000D01*
X56000000Y-43120000D02*
X48380000Y-43120000D01*
X56000000Y-43120000D02*
X56000000Y-43730000D01*
%TO.C,SW1*%
X76240000Y-39900000D02*
X82360000Y-39900000D01*
X82360000Y-39900000D02*
X82360000Y-43600000D01*
X82360000Y-43600000D02*
X76240000Y-43600000D01*
X76240000Y-43600000D02*
X76240000Y-39900000D01*
%TO.C,R9*%
X80635000Y-27572936D02*
X80635000Y-28027064D01*
X79165000Y-27572936D02*
X79165000Y-28027064D01*
%TO.C,R8*%
X76765000Y-28027064D02*
X76765000Y-27572936D01*
X78235000Y-28027064D02*
X78235000Y-27572936D01*
%TO.C,R3*%
X75935000Y-27572936D02*
X75935000Y-28027064D01*
X74465000Y-27572936D02*
X74465000Y-28027064D01*
%TO.C,Q1*%
X82140000Y-26320000D02*
X82140000Y-27250000D01*
X82140000Y-29480000D02*
X82140000Y-28550000D01*
X82140000Y-29480000D02*
X84300000Y-29480000D01*
X82140000Y-26320000D02*
X83600000Y-26320000D01*
%TO.C,J1*%
X79840000Y-36760000D02*
X80230000Y-36760000D01*
X79840000Y-36760000D02*
X79840000Y-36310000D01*
X79150000Y-31225000D02*
X79150000Y-31875000D01*
X80880000Y-31190000D02*
X79150000Y-31190000D01*
X84840000Y-38810000D02*
X84630000Y-38810000D01*
X84840000Y-31190000D02*
X84630000Y-31190000D01*
X80880000Y-38810000D02*
X79150000Y-38810000D01*
X79150000Y-38700000D02*
X79150000Y-38040000D01*
%TO.C,R7*%
X74819047Y-119361904D02*
X74819047Y-118561904D01*
X75123809Y-118561904D01*
X75200000Y-118600000D01*
X75238095Y-118638095D01*
X75276190Y-118714285D01*
X75276190Y-118828571D01*
X75238095Y-118904761D01*
X75200000Y-118942857D01*
X75123809Y-118980952D01*
X74819047Y-118980952D01*
X76038095Y-119361904D02*
X75580952Y-119361904D01*
X75809523Y-119361904D02*
X75809523Y-118561904D01*
X75733333Y-118676190D01*
X75657142Y-118752380D01*
X75580952Y-118790476D01*
X76190476Y-119438095D02*
X76800000Y-119438095D01*
X76876190Y-118561904D02*
X77333333Y-118561904D01*
X77104761Y-119361904D02*
X77104761Y-118561904D01*
X77523809Y-118561904D02*
X78057142Y-119361904D01*
X78057142Y-118561904D02*
X77523809Y-119361904D01*
%TO.C,R2*%
X126309523Y-112261904D02*
X126309523Y-111461904D01*
X126614285Y-111461904D01*
X126690476Y-111500000D01*
X126728571Y-111538095D01*
X126766666Y-111614285D01*
X126766666Y-111728571D01*
X126728571Y-111804761D01*
X126690476Y-111842857D01*
X126614285Y-111880952D01*
X126309523Y-111880952D01*
X127452380Y-111728571D02*
X127452380Y-112261904D01*
X127261904Y-111423809D02*
X127071428Y-111995238D01*
X127566666Y-111995238D01*
X76309523Y-112261904D02*
X76309523Y-111461904D01*
X76614285Y-111461904D01*
X76690476Y-111500000D01*
X76728571Y-111538095D01*
X76766666Y-111614285D01*
X76766666Y-111728571D01*
X76728571Y-111804761D01*
X76690476Y-111842857D01*
X76614285Y-111880952D01*
X76309523Y-111880952D01*
X77452380Y-111728571D02*
X77452380Y-112261904D01*
X77261904Y-111423809D02*
X77071428Y-111995238D01*
X77566666Y-111995238D01*
%TO.C,R1*%
X126309523Y-110861904D02*
X126309523Y-110061904D01*
X126614285Y-110061904D01*
X126690476Y-110100000D01*
X126728571Y-110138095D01*
X126766666Y-110214285D01*
X126766666Y-110328571D01*
X126728571Y-110404761D01*
X126690476Y-110442857D01*
X126614285Y-110480952D01*
X126309523Y-110480952D01*
X127033333Y-110061904D02*
X127528571Y-110061904D01*
X127261904Y-110366666D01*
X127376190Y-110366666D01*
X127452380Y-110404761D01*
X127490476Y-110442857D01*
X127528571Y-110519047D01*
X127528571Y-110709523D01*
X127490476Y-110785714D01*
X127452380Y-110823809D01*
X127376190Y-110861904D01*
X127147619Y-110861904D01*
X127071428Y-110823809D01*
X127033333Y-110785714D01*
X76309523Y-110861904D02*
X76309523Y-110061904D01*
X76614285Y-110061904D01*
X76690476Y-110100000D01*
X76728571Y-110138095D01*
X76766666Y-110214285D01*
X76766666Y-110328571D01*
X76728571Y-110404761D01*
X76690476Y-110442857D01*
X76614285Y-110480952D01*
X76309523Y-110480952D01*
X77033333Y-110061904D02*
X77528571Y-110061904D01*
X77261904Y-110366666D01*
X77376190Y-110366666D01*
X77452380Y-110404761D01*
X77490476Y-110442857D01*
X77528571Y-110519047D01*
X77528571Y-110709523D01*
X77490476Y-110785714D01*
X77452380Y-110823809D01*
X77376190Y-110861904D01*
X77147619Y-110861904D01*
X77071428Y-110823809D01*
X77033333Y-110785714D01*
%TO.C,R7*%
X124819047Y-119361904D02*
X124819047Y-118561904D01*
X125123809Y-118561904D01*
X125200000Y-118600000D01*
X125238095Y-118638095D01*
X125276190Y-118714285D01*
X125276190Y-118828571D01*
X125238095Y-118904761D01*
X125200000Y-118942857D01*
X125123809Y-118980952D01*
X124819047Y-118980952D01*
X126038095Y-119361904D02*
X125580952Y-119361904D01*
X125809523Y-119361904D02*
X125809523Y-118561904D01*
X125733333Y-118676190D01*
X125657142Y-118752380D01*
X125580952Y-118790476D01*
X126190476Y-119438095D02*
X126800000Y-119438095D01*
X126876190Y-118561904D02*
X127333333Y-118561904D01*
X127104761Y-119361904D02*
X127104761Y-118561904D01*
X127523809Y-118561904D02*
X128057142Y-119361904D01*
X128057142Y-118561904D02*
X127523809Y-119361904D01*
X74819047Y-99361904D02*
X74819047Y-98561904D01*
X75123809Y-98561904D01*
X75200000Y-98600000D01*
X75238095Y-98638095D01*
X75276190Y-98714285D01*
X75276190Y-98828571D01*
X75238095Y-98904761D01*
X75200000Y-98942857D01*
X75123809Y-98980952D01*
X74819047Y-98980952D01*
X76038095Y-99361904D02*
X75580952Y-99361904D01*
X75809523Y-99361904D02*
X75809523Y-98561904D01*
X75733333Y-98676190D01*
X75657142Y-98752380D01*
X75580952Y-98790476D01*
X76190476Y-99438095D02*
X76800000Y-99438095D01*
X76876190Y-98561904D02*
X77333333Y-98561904D01*
X77104761Y-99361904D02*
X77104761Y-98561904D01*
X77523809Y-98561904D02*
X78057142Y-99361904D01*
X78057142Y-98561904D02*
X77523809Y-99361904D01*
%TO.C,R2*%
X126309523Y-92261904D02*
X126309523Y-91461904D01*
X126614285Y-91461904D01*
X126690476Y-91500000D01*
X126728571Y-91538095D01*
X126766666Y-91614285D01*
X126766666Y-91728571D01*
X126728571Y-91804761D01*
X126690476Y-91842857D01*
X126614285Y-91880952D01*
X126309523Y-91880952D01*
X127452380Y-91728571D02*
X127452380Y-92261904D01*
X127261904Y-91423809D02*
X127071428Y-91995238D01*
X127566666Y-91995238D01*
%TO.C,R1*%
X76309523Y-90861904D02*
X76309523Y-90061904D01*
X76614285Y-90061904D01*
X76690476Y-90100000D01*
X76728571Y-90138095D01*
X76766666Y-90214285D01*
X76766666Y-90328571D01*
X76728571Y-90404761D01*
X76690476Y-90442857D01*
X76614285Y-90480952D01*
X76309523Y-90480952D01*
X77033333Y-90061904D02*
X77528571Y-90061904D01*
X77261904Y-90366666D01*
X77376190Y-90366666D01*
X77452380Y-90404761D01*
X77490476Y-90442857D01*
X77528571Y-90519047D01*
X77528571Y-90709523D01*
X77490476Y-90785714D01*
X77452380Y-90823809D01*
X77376190Y-90861904D01*
X77147619Y-90861904D01*
X77071428Y-90823809D01*
X77033333Y-90785714D01*
X126309523Y-90861904D02*
X126309523Y-90061904D01*
X126614285Y-90061904D01*
X126690476Y-90100000D01*
X126728571Y-90138095D01*
X126766666Y-90214285D01*
X126766666Y-90328571D01*
X126728571Y-90404761D01*
X126690476Y-90442857D01*
X126614285Y-90480952D01*
X126309523Y-90480952D01*
X127033333Y-90061904D02*
X127528571Y-90061904D01*
X127261904Y-90366666D01*
X127376190Y-90366666D01*
X127452380Y-90404761D01*
X127490476Y-90442857D01*
X127528571Y-90519047D01*
X127528571Y-90709523D01*
X127490476Y-90785714D01*
X127452380Y-90823809D01*
X127376190Y-90861904D01*
X127147619Y-90861904D01*
X127071428Y-90823809D01*
X127033333Y-90785714D01*
%TO.C,R7*%
X124819047Y-99361904D02*
X124819047Y-98561904D01*
X125123809Y-98561904D01*
X125200000Y-98600000D01*
X125238095Y-98638095D01*
X125276190Y-98714285D01*
X125276190Y-98828571D01*
X125238095Y-98904761D01*
X125200000Y-98942857D01*
X125123809Y-98980952D01*
X124819047Y-98980952D01*
X126038095Y-99361904D02*
X125580952Y-99361904D01*
X125809523Y-99361904D02*
X125809523Y-98561904D01*
X125733333Y-98676190D01*
X125657142Y-98752380D01*
X125580952Y-98790476D01*
X126190476Y-99438095D02*
X126800000Y-99438095D01*
X126876190Y-98561904D02*
X127333333Y-98561904D01*
X127104761Y-99361904D02*
X127104761Y-98561904D01*
X127523809Y-98561904D02*
X128057142Y-99361904D01*
X128057142Y-98561904D02*
X127523809Y-99361904D01*
%TO.C,R2*%
X76309523Y-92261904D02*
X76309523Y-91461904D01*
X76614285Y-91461904D01*
X76690476Y-91500000D01*
X76728571Y-91538095D01*
X76766666Y-91614285D01*
X76766666Y-91728571D01*
X76728571Y-91804761D01*
X76690476Y-91842857D01*
X76614285Y-91880952D01*
X76309523Y-91880952D01*
X77452380Y-91728571D02*
X77452380Y-92261904D01*
X77261904Y-91423809D02*
X77071428Y-91995238D01*
X77566666Y-91995238D01*
%TO.C,R7*%
X74819047Y-79361904D02*
X74819047Y-78561904D01*
X75123809Y-78561904D01*
X75200000Y-78600000D01*
X75238095Y-78638095D01*
X75276190Y-78714285D01*
X75276190Y-78828571D01*
X75238095Y-78904761D01*
X75200000Y-78942857D01*
X75123809Y-78980952D01*
X74819047Y-78980952D01*
X76038095Y-79361904D02*
X75580952Y-79361904D01*
X75809523Y-79361904D02*
X75809523Y-78561904D01*
X75733333Y-78676190D01*
X75657142Y-78752380D01*
X75580952Y-78790476D01*
X76190476Y-79438095D02*
X76800000Y-79438095D01*
X76876190Y-78561904D02*
X77333333Y-78561904D01*
X77104761Y-79361904D02*
X77104761Y-78561904D01*
X77523809Y-78561904D02*
X78057142Y-79361904D01*
X78057142Y-78561904D02*
X77523809Y-79361904D01*
%TO.C,R2*%
X126309523Y-72261904D02*
X126309523Y-71461904D01*
X126614285Y-71461904D01*
X126690476Y-71500000D01*
X126728571Y-71538095D01*
X126766666Y-71614285D01*
X126766666Y-71728571D01*
X126728571Y-71804761D01*
X126690476Y-71842857D01*
X126614285Y-71880952D01*
X126309523Y-71880952D01*
X127452380Y-71728571D02*
X127452380Y-72261904D01*
X127261904Y-71423809D02*
X127071428Y-71995238D01*
X127566666Y-71995238D01*
%TO.C,R1*%
X76309523Y-70861904D02*
X76309523Y-70061904D01*
X76614285Y-70061904D01*
X76690476Y-70100000D01*
X76728571Y-70138095D01*
X76766666Y-70214285D01*
X76766666Y-70328571D01*
X76728571Y-70404761D01*
X76690476Y-70442857D01*
X76614285Y-70480952D01*
X76309523Y-70480952D01*
X77033333Y-70061904D02*
X77528571Y-70061904D01*
X77261904Y-70366666D01*
X77376190Y-70366666D01*
X77452380Y-70404761D01*
X77490476Y-70442857D01*
X77528571Y-70519047D01*
X77528571Y-70709523D01*
X77490476Y-70785714D01*
X77452380Y-70823809D01*
X77376190Y-70861904D01*
X77147619Y-70861904D01*
X77071428Y-70823809D01*
X77033333Y-70785714D01*
X126309523Y-70861904D02*
X126309523Y-70061904D01*
X126614285Y-70061904D01*
X126690476Y-70100000D01*
X126728571Y-70138095D01*
X126766666Y-70214285D01*
X126766666Y-70328571D01*
X126728571Y-70404761D01*
X126690476Y-70442857D01*
X126614285Y-70480952D01*
X126309523Y-70480952D01*
X127033333Y-70061904D02*
X127528571Y-70061904D01*
X127261904Y-70366666D01*
X127376190Y-70366666D01*
X127452380Y-70404761D01*
X127490476Y-70442857D01*
X127528571Y-70519047D01*
X127528571Y-70709523D01*
X127490476Y-70785714D01*
X127452380Y-70823809D01*
X127376190Y-70861904D01*
X127147619Y-70861904D01*
X127071428Y-70823809D01*
X127033333Y-70785714D01*
%TO.C,R7*%
X124819047Y-79361904D02*
X124819047Y-78561904D01*
X125123809Y-78561904D01*
X125200000Y-78600000D01*
X125238095Y-78638095D01*
X125276190Y-78714285D01*
X125276190Y-78828571D01*
X125238095Y-78904761D01*
X125200000Y-78942857D01*
X125123809Y-78980952D01*
X124819047Y-78980952D01*
X126038095Y-79361904D02*
X125580952Y-79361904D01*
X125809523Y-79361904D02*
X125809523Y-78561904D01*
X125733333Y-78676190D01*
X125657142Y-78752380D01*
X125580952Y-78790476D01*
X126190476Y-79438095D02*
X126800000Y-79438095D01*
X126876190Y-78561904D02*
X127333333Y-78561904D01*
X127104761Y-79361904D02*
X127104761Y-78561904D01*
X127523809Y-78561904D02*
X128057142Y-79361904D01*
X128057142Y-78561904D02*
X127523809Y-79361904D01*
%TO.C,R2*%
X76309523Y-72261904D02*
X76309523Y-71461904D01*
X76614285Y-71461904D01*
X76690476Y-71500000D01*
X76728571Y-71538095D01*
X76766666Y-71614285D01*
X76766666Y-71728571D01*
X76728571Y-71804761D01*
X76690476Y-71842857D01*
X76614285Y-71880952D01*
X76309523Y-71880952D01*
X77452380Y-71728571D02*
X77452380Y-72261904D01*
X77261904Y-71423809D02*
X77071428Y-71995238D01*
X77566666Y-71995238D01*
%TO.C,R1*%
X76309523Y-50861904D02*
X76309523Y-50061904D01*
X76614285Y-50061904D01*
X76690476Y-50100000D01*
X76728571Y-50138095D01*
X76766666Y-50214285D01*
X76766666Y-50328571D01*
X76728571Y-50404761D01*
X76690476Y-50442857D01*
X76614285Y-50480952D01*
X76309523Y-50480952D01*
X77033333Y-50061904D02*
X77528571Y-50061904D01*
X77261904Y-50366666D01*
X77376190Y-50366666D01*
X77452380Y-50404761D01*
X77490476Y-50442857D01*
X77528571Y-50519047D01*
X77528571Y-50709523D01*
X77490476Y-50785714D01*
X77452380Y-50823809D01*
X77376190Y-50861904D01*
X77147619Y-50861904D01*
X77071428Y-50823809D01*
X77033333Y-50785714D01*
%TO.C,R2*%
X76309523Y-52261904D02*
X76309523Y-51461904D01*
X76614285Y-51461904D01*
X76690476Y-51500000D01*
X76728571Y-51538095D01*
X76766666Y-51614285D01*
X76766666Y-51728571D01*
X76728571Y-51804761D01*
X76690476Y-51842857D01*
X76614285Y-51880952D01*
X76309523Y-51880952D01*
X77452380Y-51728571D02*
X77452380Y-52261904D01*
X77261904Y-51423809D02*
X77071428Y-51995238D01*
X77566666Y-51995238D01*
%TO.C,R1*%
X126309523Y-50861904D02*
X126309523Y-50061904D01*
X126614285Y-50061904D01*
X126690476Y-50100000D01*
X126728571Y-50138095D01*
X126766666Y-50214285D01*
X126766666Y-50328571D01*
X126728571Y-50404761D01*
X126690476Y-50442857D01*
X126614285Y-50480952D01*
X126309523Y-50480952D01*
X127033333Y-50061904D02*
X127528571Y-50061904D01*
X127261904Y-50366666D01*
X127376190Y-50366666D01*
X127452380Y-50404761D01*
X127490476Y-50442857D01*
X127528571Y-50519047D01*
X127528571Y-50709523D01*
X127490476Y-50785714D01*
X127452380Y-50823809D01*
X127376190Y-50861904D01*
X127147619Y-50861904D01*
X127071428Y-50823809D01*
X127033333Y-50785714D01*
%TO.C,R7*%
X124819047Y-59361904D02*
X124819047Y-58561904D01*
X125123809Y-58561904D01*
X125200000Y-58600000D01*
X125238095Y-58638095D01*
X125276190Y-58714285D01*
X125276190Y-58828571D01*
X125238095Y-58904761D01*
X125200000Y-58942857D01*
X125123809Y-58980952D01*
X124819047Y-58980952D01*
X126038095Y-59361904D02*
X125580952Y-59361904D01*
X125809523Y-59361904D02*
X125809523Y-58561904D01*
X125733333Y-58676190D01*
X125657142Y-58752380D01*
X125580952Y-58790476D01*
X126190476Y-59438095D02*
X126800000Y-59438095D01*
X126876190Y-58561904D02*
X127333333Y-58561904D01*
X127104761Y-59361904D02*
X127104761Y-58561904D01*
X127523809Y-58561904D02*
X128057142Y-59361904D01*
X128057142Y-58561904D02*
X127523809Y-59361904D01*
%TO.C,R2*%
X126309523Y-52261904D02*
X126309523Y-51461904D01*
X126614285Y-51461904D01*
X126690476Y-51500000D01*
X126728571Y-51538095D01*
X126766666Y-51614285D01*
X126766666Y-51728571D01*
X126728571Y-51804761D01*
X126690476Y-51842857D01*
X126614285Y-51880952D01*
X126309523Y-51880952D01*
X127452380Y-51728571D02*
X127452380Y-52261904D01*
X127261904Y-51423809D02*
X127071428Y-51995238D01*
X127566666Y-51995238D01*
%TO.C,R7*%
X74819047Y-59361904D02*
X74819047Y-58561904D01*
X75123809Y-58561904D01*
X75200000Y-58600000D01*
X75238095Y-58638095D01*
X75276190Y-58714285D01*
X75276190Y-58828571D01*
X75238095Y-58904761D01*
X75200000Y-58942857D01*
X75123809Y-58980952D01*
X74819047Y-58980952D01*
X76038095Y-59361904D02*
X75580952Y-59361904D01*
X75809523Y-59361904D02*
X75809523Y-58561904D01*
X75733333Y-58676190D01*
X75657142Y-58752380D01*
X75580952Y-58790476D01*
X76190476Y-59438095D02*
X76800000Y-59438095D01*
X76876190Y-58561904D02*
X77333333Y-58561904D01*
X77104761Y-59361904D02*
X77104761Y-58561904D01*
X77523809Y-58561904D02*
X78057142Y-59361904D01*
X78057142Y-58561904D02*
X77523809Y-59361904D01*
%TO.C,R1*%
X126309523Y-30861904D02*
X126309523Y-30061904D01*
X126614285Y-30061904D01*
X126690476Y-30100000D01*
X126728571Y-30138095D01*
X126766666Y-30214285D01*
X126766666Y-30328571D01*
X126728571Y-30404761D01*
X126690476Y-30442857D01*
X126614285Y-30480952D01*
X126309523Y-30480952D01*
X127033333Y-30061904D02*
X127528571Y-30061904D01*
X127261904Y-30366666D01*
X127376190Y-30366666D01*
X127452380Y-30404761D01*
X127490476Y-30442857D01*
X127528571Y-30519047D01*
X127528571Y-30709523D01*
X127490476Y-30785714D01*
X127452380Y-30823809D01*
X127376190Y-30861904D01*
X127147619Y-30861904D01*
X127071428Y-30823809D01*
X127033333Y-30785714D01*
%TO.C,R2*%
X126309523Y-32261904D02*
X126309523Y-31461904D01*
X126614285Y-31461904D01*
X126690476Y-31500000D01*
X126728571Y-31538095D01*
X126766666Y-31614285D01*
X126766666Y-31728571D01*
X126728571Y-31804761D01*
X126690476Y-31842857D01*
X126614285Y-31880952D01*
X126309523Y-31880952D01*
X127452380Y-31728571D02*
X127452380Y-32261904D01*
X127261904Y-31423809D02*
X127071428Y-31995238D01*
X127566666Y-31995238D01*
%TO.C,R7*%
X124819047Y-39361904D02*
X124819047Y-38561904D01*
X125123809Y-38561904D01*
X125200000Y-38600000D01*
X125238095Y-38638095D01*
X125276190Y-38714285D01*
X125276190Y-38828571D01*
X125238095Y-38904761D01*
X125200000Y-38942857D01*
X125123809Y-38980952D01*
X124819047Y-38980952D01*
X126038095Y-39361904D02*
X125580952Y-39361904D01*
X125809523Y-39361904D02*
X125809523Y-38561904D01*
X125733333Y-38676190D01*
X125657142Y-38752380D01*
X125580952Y-38790476D01*
X126190476Y-39438095D02*
X126800000Y-39438095D01*
X126876190Y-38561904D02*
X127333333Y-38561904D01*
X127104761Y-39361904D02*
X127104761Y-38561904D01*
X127523809Y-38561904D02*
X128057142Y-39361904D01*
X128057142Y-38561904D02*
X127523809Y-39361904D01*
%TO.C,R2*%
X76309523Y-32261904D02*
X76309523Y-31461904D01*
X76614285Y-31461904D01*
X76690476Y-31500000D01*
X76728571Y-31538095D01*
X76766666Y-31614285D01*
X76766666Y-31728571D01*
X76728571Y-31804761D01*
X76690476Y-31842857D01*
X76614285Y-31880952D01*
X76309523Y-31880952D01*
X77452380Y-31728571D02*
X77452380Y-32261904D01*
X77261904Y-31423809D02*
X77071428Y-31995238D01*
X77566666Y-31995238D01*
%TO.C,R1*%
X76309523Y-30861904D02*
X76309523Y-30061904D01*
X76614285Y-30061904D01*
X76690476Y-30100000D01*
X76728571Y-30138095D01*
X76766666Y-30214285D01*
X76766666Y-30328571D01*
X76728571Y-30404761D01*
X76690476Y-30442857D01*
X76614285Y-30480952D01*
X76309523Y-30480952D01*
X77033333Y-30061904D02*
X77528571Y-30061904D01*
X77261904Y-30366666D01*
X77376190Y-30366666D01*
X77452380Y-30404761D01*
X77490476Y-30442857D01*
X77528571Y-30519047D01*
X77528571Y-30709523D01*
X77490476Y-30785714D01*
X77452380Y-30823809D01*
X77376190Y-30861904D01*
X77147619Y-30861904D01*
X77071428Y-30823809D01*
X77033333Y-30785714D01*
%TO.C,R7*%
X74819047Y-39361904D02*
X74819047Y-38561904D01*
X75123809Y-38561904D01*
X75200000Y-38600000D01*
X75238095Y-38638095D01*
X75276190Y-38714285D01*
X75276190Y-38828571D01*
X75238095Y-38904761D01*
X75200000Y-38942857D01*
X75123809Y-38980952D01*
X74819047Y-38980952D01*
X76038095Y-39361904D02*
X75580952Y-39361904D01*
X75809523Y-39361904D02*
X75809523Y-38561904D01*
X75733333Y-38676190D01*
X75657142Y-38752380D01*
X75580952Y-38790476D01*
X76190476Y-39438095D02*
X76800000Y-39438095D01*
X76876190Y-38561904D02*
X77333333Y-38561904D01*
X77104761Y-39361904D02*
X77104761Y-38561904D01*
X77523809Y-38561904D02*
X78057142Y-39361904D01*
X78057142Y-38561904D02*
X77523809Y-39361904D01*
%TD*%
M02*
