%TF.GenerationSoftware,KiCad,Pcbnew,(5.1.9)-1*%
%TF.CreationDate,2021-10-14T17:35:56+02:00*%
%TF.ProjectId,IM350_AM550_T210_5V_V5.0,494d3335-305f-4414-9d35-35305f543231,rev?*%
%TF.SameCoordinates,Original*%
%TF.FileFunction,Copper,L1,Top*%
%TF.FilePolarity,Positive*%
%FSLAX46Y46*%
G04 Gerber Fmt 4.6, Leading zero omitted, Abs format (unit mm)*
G04 Created by KiCad (PCBNEW (5.1.9)-1) date 2021-10-14 17:35:56*
%MOMM*%
%LPD*%
G01*
G04 APERTURE LIST*
%TA.AperFunction,SMDPad,CuDef*%
%ADD10R,2.800000X0.600000*%
%TD*%
%TA.AperFunction,ComponentPad*%
%ADD11O,1.900000X1.050000*%
%TD*%
%TA.AperFunction,SMDPad,CuDef*%
%ADD12R,1.000000X2.500000*%
%TD*%
%TA.AperFunction,SMDPad,CuDef*%
%ADD13R,1.800000X1.000000*%
%TD*%
%TA.AperFunction,SMDPad,CuDef*%
%ADD14R,1.500000X1.500000*%
%TD*%
%TA.AperFunction,ComponentPad*%
%ADD15C,1.520000*%
%TD*%
%TA.AperFunction,ComponentPad*%
%ADD16R,1.520000X1.520000*%
%TD*%
%TA.AperFunction,SMDPad,CuDef*%
%ADD17R,0.900000X0.800000*%
%TD*%
%TA.AperFunction,ViaPad*%
%ADD18C,0.800000*%
%TD*%
%TA.AperFunction,Conductor*%
%ADD19C,0.250000*%
%TD*%
G04 APERTURE END LIST*
D10*
%TO.P,J1,1*%
%TO.N,+5V*%
X77100000Y-116300000D03*
%TO.P,J1,5*%
%TO.N,GND*%
X77100000Y-113700000D03*
D11*
%TO.P,J1,*%
%TO.N,*%
X83450000Y-118575000D03*
X83450000Y-111425000D03*
%TD*%
%TO.P,R9,1*%
%TO.N,Net-(R8-Pad1)*%
%TA.AperFunction,SMDPad,CuDef*%
G36*
G01*
X129449999Y-106200000D02*
X130350001Y-106200000D01*
G75*
G02*
X130600000Y-106449999I0J-249999D01*
G01*
X130600000Y-107150001D01*
G75*
G02*
X130350001Y-107400000I-249999J0D01*
G01*
X129449999Y-107400000D01*
G75*
G02*
X129200000Y-107150001I0J249999D01*
G01*
X129200000Y-106449999D01*
G75*
G02*
X129449999Y-106200000I249999J0D01*
G01*
G37*
%TD.AperFunction*%
%TO.P,R9,2*%
%TO.N,/DATA*%
%TA.AperFunction,SMDPad,CuDef*%
G36*
G01*
X129449999Y-108200000D02*
X130350001Y-108200000D01*
G75*
G02*
X130600000Y-108449999I0J-249999D01*
G01*
X130600000Y-109150001D01*
G75*
G02*
X130350001Y-109400000I-249999J0D01*
G01*
X129449999Y-109400000D01*
G75*
G02*
X129200000Y-109150001I0J249999D01*
G01*
X129200000Y-108449999D01*
G75*
G02*
X129449999Y-108200000I249999J0D01*
G01*
G37*
%TD.AperFunction*%
%TD*%
D12*
%TO.P,U2,22*%
%TO.N,Net-(R18-Pad1)*%
X57000000Y-107400000D03*
%TO.P,U2,21*%
%TO.N,Net-(R1-Pad2)*%
X59000000Y-107400000D03*
%TO.P,U2,20*%
%TO.N,/TRIGGER*%
X61000000Y-107400000D03*
%TO.P,U2,19*%
%TO.N,Net-(R2-Pad2)*%
X63000000Y-107400000D03*
%TO.P,U2,18*%
%TO.N,Net-(U2-Pad18)*%
X65000000Y-107400000D03*
%TO.P,U2,17*%
%TO.N,Net-(U2-Pad17)*%
X67000000Y-107400000D03*
%TO.P,U2,16*%
%TO.N,Net-(R3-Pad1)*%
X69000000Y-107400000D03*
%TO.P,U2,15*%
%TO.N,GND*%
X71000000Y-107400000D03*
D13*
%TO.P,U2,14*%
%TO.N,Net-(U2-Pad14)*%
X72500000Y-110000000D03*
%TO.P,U2,13*%
%TO.N,Net-(U2-Pad13)*%
X72500000Y-112000000D03*
%TO.P,U2,12*%
%TO.N,Net-(U2-Pad12)*%
X72500000Y-114000000D03*
%TO.P,U2,11*%
%TO.N,Net-(U2-Pad11)*%
X72500000Y-116000000D03*
%TO.P,U2,10*%
%TO.N,Net-(U2-Pad10)*%
X72500000Y-118000000D03*
%TO.P,U2,9*%
%TO.N,Net-(U2-Pad9)*%
X72500000Y-120000000D03*
D12*
%TO.P,U2,8*%
%TO.N,+3V3*%
X71000000Y-122600000D03*
%TO.P,U2,7*%
%TO.N,Net-(SW1-Pad1)*%
X69000000Y-122600000D03*
%TO.P,U2,6*%
%TO.N,Net-(U2-Pad6)*%
X67000000Y-122600000D03*
%TO.P,U2,5*%
%TO.N,Net-(R8-Pad1)*%
X65000000Y-122600000D03*
%TO.P,U2,4*%
%TO.N,Net-(U2-Pad1)*%
X63000000Y-122600000D03*
%TO.P,U2,3*%
%TO.N,+3V3*%
X61000000Y-122600000D03*
%TO.P,U2,2*%
%TO.N,Net-(U2-Pad2)*%
X59000000Y-122600000D03*
%TO.P,U2,1*%
%TO.N,Net-(U2-Pad1)*%
X57000000Y-122600000D03*
%TD*%
D14*
%TO.P,SW1,2*%
%TO.N,GND*%
X83200000Y-121750000D03*
%TO.P,SW1,1*%
%TO.N,Net-(SW1-Pad1)*%
X75400000Y-121750000D03*
%TD*%
%TO.P,R3,1*%
%TO.N,Net-(R3-Pad1)*%
%TA.AperFunction,SMDPad,CuDef*%
G36*
G01*
X124749999Y-106200000D02*
X125650001Y-106200000D01*
G75*
G02*
X125900000Y-106449999I0J-249999D01*
G01*
X125900000Y-107150001D01*
G75*
G02*
X125650001Y-107400000I-249999J0D01*
G01*
X124749999Y-107400000D01*
G75*
G02*
X124500000Y-107150001I0J249999D01*
G01*
X124500000Y-106449999D01*
G75*
G02*
X124749999Y-106200000I249999J0D01*
G01*
G37*
%TD.AperFunction*%
%TO.P,R3,2*%
%TO.N,GND*%
%TA.AperFunction,SMDPad,CuDef*%
G36*
G01*
X124749999Y-108200000D02*
X125650001Y-108200000D01*
G75*
G02*
X125900000Y-108449999I0J-249999D01*
G01*
X125900000Y-109150001D01*
G75*
G02*
X125650001Y-109400000I-249999J0D01*
G01*
X124749999Y-109400000D01*
G75*
G02*
X124500000Y-109150001I0J249999D01*
G01*
X124500000Y-108449999D01*
G75*
G02*
X124749999Y-108200000I249999J0D01*
G01*
G37*
%TD.AperFunction*%
%TD*%
%TO.P,R7,2*%
%TO.N,Net-(Q1-Pad3)*%
%TA.AperFunction,SMDPad,CuDef*%
G36*
G01*
X75290000Y-118100000D02*
X75290000Y-117900000D01*
G75*
G02*
X75390000Y-117800000I100000J0D01*
G01*
X75825000Y-117800000D01*
G75*
G02*
X75925000Y-117900000I0J-100000D01*
G01*
X75925000Y-118100000D01*
G75*
G02*
X75825000Y-118200000I-100000J0D01*
G01*
X75390000Y-118200000D01*
G75*
G02*
X75290000Y-118100000I0J100000D01*
G01*
G37*
%TD.AperFunction*%
%TO.P,R7,1*%
%TO.N,Net-(R1-Pad1)*%
%TA.AperFunction,SMDPad,CuDef*%
G36*
G01*
X74475000Y-118100000D02*
X74475000Y-117900000D01*
G75*
G02*
X74575000Y-117800000I100000J0D01*
G01*
X75010000Y-117800000D01*
G75*
G02*
X75110000Y-117900000I0J-100000D01*
G01*
X75110000Y-118100000D01*
G75*
G02*
X75010000Y-118200000I-100000J0D01*
G01*
X74575000Y-118200000D01*
G75*
G02*
X74475000Y-118100000I0J100000D01*
G01*
G37*
%TD.AperFunction*%
%TD*%
D15*
%TO.P,J2,6*%
%TO.N,GND*%
X93710000Y-118350000D03*
%TO.P,J2,5*%
%TO.N,/DATA*%
X96250000Y-117080000D03*
%TO.P,J2,4*%
%TO.N,Net-(J2-Pad4)*%
X93710000Y-115810000D03*
%TO.P,J2,3*%
%TO.N,Net-(J2-Pad3)*%
X96250000Y-114540000D03*
%TO.P,J2,2*%
%TO.N,/TRIGGER*%
X93710000Y-113270000D03*
D16*
%TO.P,J2,1*%
%TO.N,+5V*%
X96250000Y-112000000D03*
%TD*%
%TO.P,R13,1*%
%TO.N,GND*%
%TA.AperFunction,SMDPad,CuDef*%
G36*
G01*
X126675000Y-118100000D02*
X126675000Y-117900000D01*
G75*
G02*
X126775000Y-117800000I100000J0D01*
G01*
X127210000Y-117800000D01*
G75*
G02*
X127310000Y-117900000I0J-100000D01*
G01*
X127310000Y-118100000D01*
G75*
G02*
X127210000Y-118200000I-100000J0D01*
G01*
X126775000Y-118200000D01*
G75*
G02*
X126675000Y-118100000I0J100000D01*
G01*
G37*
%TD.AperFunction*%
%TO.P,R13,2*%
%TO.N,Net-(J2-Pad3)*%
%TA.AperFunction,SMDPad,CuDef*%
G36*
G01*
X127490000Y-118100000D02*
X127490000Y-117900000D01*
G75*
G02*
X127590000Y-117800000I100000J0D01*
G01*
X128025000Y-117800000D01*
G75*
G02*
X128125000Y-117900000I0J-100000D01*
G01*
X128125000Y-118100000D01*
G75*
G02*
X128025000Y-118200000I-100000J0D01*
G01*
X127590000Y-118200000D01*
G75*
G02*
X127490000Y-118100000I0J100000D01*
G01*
G37*
%TD.AperFunction*%
%TD*%
%TO.P,J2,1*%
%TO.N,+5V*%
X46250000Y-112000000D03*
D15*
%TO.P,J2,2*%
%TO.N,/TRIGGER*%
X43710000Y-113270000D03*
%TO.P,J2,3*%
%TO.N,Net-(J2-Pad3)*%
X46250000Y-114540000D03*
%TO.P,J2,4*%
%TO.N,Net-(J2-Pad4)*%
X43710000Y-115810000D03*
%TO.P,J2,5*%
%TO.N,/DATA*%
X46250000Y-117080000D03*
%TO.P,J2,6*%
%TO.N,GND*%
X43710000Y-118350000D03*
%TD*%
%TO.P,R8,2*%
%TO.N,Net-(Q1-Pad3)*%
%TA.AperFunction,SMDPad,CuDef*%
G36*
G01*
X77950001Y-107400000D02*
X77049999Y-107400000D01*
G75*
G02*
X76800000Y-107150001I0J249999D01*
G01*
X76800000Y-106449999D01*
G75*
G02*
X77049999Y-106200000I249999J0D01*
G01*
X77950001Y-106200000D01*
G75*
G02*
X78200000Y-106449999I0J-249999D01*
G01*
X78200000Y-107150001D01*
G75*
G02*
X77950001Y-107400000I-249999J0D01*
G01*
G37*
%TD.AperFunction*%
%TO.P,R8,1*%
%TO.N,Net-(R8-Pad1)*%
%TA.AperFunction,SMDPad,CuDef*%
G36*
G01*
X77950001Y-109400000D02*
X77049999Y-109400000D01*
G75*
G02*
X76800000Y-109150001I0J249999D01*
G01*
X76800000Y-108449999D01*
G75*
G02*
X77049999Y-108200000I249999J0D01*
G01*
X77950001Y-108200000D01*
G75*
G02*
X78200000Y-108449999I0J-249999D01*
G01*
X78200000Y-109150001D01*
G75*
G02*
X77950001Y-109400000I-249999J0D01*
G01*
G37*
%TD.AperFunction*%
%TD*%
D12*
%TO.P,U2,1*%
%TO.N,Net-(U2-Pad1)*%
X107000000Y-122600000D03*
%TO.P,U2,2*%
%TO.N,Net-(U2-Pad2)*%
X109000000Y-122600000D03*
%TO.P,U2,3*%
%TO.N,+3V3*%
X111000000Y-122600000D03*
%TO.P,U2,4*%
%TO.N,Net-(U2-Pad1)*%
X113000000Y-122600000D03*
%TO.P,U2,5*%
%TO.N,Net-(R8-Pad1)*%
X115000000Y-122600000D03*
%TO.P,U2,6*%
%TO.N,Net-(U2-Pad6)*%
X117000000Y-122600000D03*
%TO.P,U2,7*%
%TO.N,Net-(SW1-Pad1)*%
X119000000Y-122600000D03*
%TO.P,U2,8*%
%TO.N,+3V3*%
X121000000Y-122600000D03*
D13*
%TO.P,U2,9*%
%TO.N,Net-(U2-Pad9)*%
X122500000Y-120000000D03*
%TO.P,U2,10*%
%TO.N,Net-(U2-Pad10)*%
X122500000Y-118000000D03*
%TO.P,U2,11*%
%TO.N,Net-(U2-Pad11)*%
X122500000Y-116000000D03*
%TO.P,U2,12*%
%TO.N,Net-(U2-Pad12)*%
X122500000Y-114000000D03*
%TO.P,U2,13*%
%TO.N,Net-(U2-Pad13)*%
X122500000Y-112000000D03*
%TO.P,U2,14*%
%TO.N,Net-(U2-Pad14)*%
X122500000Y-110000000D03*
D12*
%TO.P,U2,15*%
%TO.N,GND*%
X121000000Y-107400000D03*
%TO.P,U2,16*%
%TO.N,Net-(R3-Pad1)*%
X119000000Y-107400000D03*
%TO.P,U2,17*%
%TO.N,Net-(U2-Pad17)*%
X117000000Y-107400000D03*
%TO.P,U2,18*%
%TO.N,Net-(U2-Pad18)*%
X115000000Y-107400000D03*
%TO.P,U2,19*%
%TO.N,Net-(R2-Pad2)*%
X113000000Y-107400000D03*
%TO.P,U2,20*%
%TO.N,/TRIGGER*%
X111000000Y-107400000D03*
%TO.P,U2,21*%
%TO.N,Net-(R1-Pad2)*%
X109000000Y-107400000D03*
%TO.P,U2,22*%
%TO.N,Net-(R18-Pad1)*%
X107000000Y-107400000D03*
%TD*%
%TO.P,R13,2*%
%TO.N,Net-(J2-Pad3)*%
%TA.AperFunction,SMDPad,CuDef*%
G36*
G01*
X77490000Y-118100000D02*
X77490000Y-117900000D01*
G75*
G02*
X77590000Y-117800000I100000J0D01*
G01*
X78025000Y-117800000D01*
G75*
G02*
X78125000Y-117900000I0J-100000D01*
G01*
X78125000Y-118100000D01*
G75*
G02*
X78025000Y-118200000I-100000J0D01*
G01*
X77590000Y-118200000D01*
G75*
G02*
X77490000Y-118100000I0J100000D01*
G01*
G37*
%TD.AperFunction*%
%TO.P,R13,1*%
%TO.N,GND*%
%TA.AperFunction,SMDPad,CuDef*%
G36*
G01*
X76675000Y-118100000D02*
X76675000Y-117900000D01*
G75*
G02*
X76775000Y-117800000I100000J0D01*
G01*
X77210000Y-117800000D01*
G75*
G02*
X77310000Y-117900000I0J-100000D01*
G01*
X77310000Y-118100000D01*
G75*
G02*
X77210000Y-118200000I-100000J0D01*
G01*
X76775000Y-118200000D01*
G75*
G02*
X76675000Y-118100000I0J100000D01*
G01*
G37*
%TD.AperFunction*%
%TD*%
%TO.P,R8,1*%
%TO.N,Net-(R8-Pad1)*%
%TA.AperFunction,SMDPad,CuDef*%
G36*
G01*
X127950001Y-109400000D02*
X127049999Y-109400000D01*
G75*
G02*
X126800000Y-109150001I0J249999D01*
G01*
X126800000Y-108449999D01*
G75*
G02*
X127049999Y-108200000I249999J0D01*
G01*
X127950001Y-108200000D01*
G75*
G02*
X128200000Y-108449999I0J-249999D01*
G01*
X128200000Y-109150001D01*
G75*
G02*
X127950001Y-109400000I-249999J0D01*
G01*
G37*
%TD.AperFunction*%
%TO.P,R8,2*%
%TO.N,Net-(Q1-Pad3)*%
%TA.AperFunction,SMDPad,CuDef*%
G36*
G01*
X127950001Y-107400000D02*
X127049999Y-107400000D01*
G75*
G02*
X126800000Y-107150001I0J249999D01*
G01*
X126800000Y-106449999D01*
G75*
G02*
X127049999Y-106200000I249999J0D01*
G01*
X127950001Y-106200000D01*
G75*
G02*
X128200000Y-106449999I0J-249999D01*
G01*
X128200000Y-107150001D01*
G75*
G02*
X127950001Y-107400000I-249999J0D01*
G01*
G37*
%TD.AperFunction*%
%TD*%
D17*
%TO.P,Q1,1*%
%TO.N,/DATA*%
X133900000Y-108850000D03*
%TO.P,Q1,2*%
%TO.N,GND*%
X133900000Y-106950000D03*
%TO.P,Q1,3*%
%TO.N,Net-(Q1-Pad3)*%
X131900000Y-107900000D03*
%TD*%
%TO.P,R2,1*%
%TO.N,Net-(R1-Pad1)*%
%TA.AperFunction,SMDPad,CuDef*%
G36*
G01*
X124475000Y-112000000D02*
X124475000Y-111800000D01*
G75*
G02*
X124575000Y-111700000I100000J0D01*
G01*
X125010000Y-111700000D01*
G75*
G02*
X125110000Y-111800000I0J-100000D01*
G01*
X125110000Y-112000000D01*
G75*
G02*
X125010000Y-112100000I-100000J0D01*
G01*
X124575000Y-112100000D01*
G75*
G02*
X124475000Y-112000000I0J100000D01*
G01*
G37*
%TD.AperFunction*%
%TO.P,R2,2*%
%TO.N,Net-(R2-Pad2)*%
%TA.AperFunction,SMDPad,CuDef*%
G36*
G01*
X125290000Y-112000000D02*
X125290000Y-111800000D01*
G75*
G02*
X125390000Y-111700000I100000J0D01*
G01*
X125825000Y-111700000D01*
G75*
G02*
X125925000Y-111800000I0J-100000D01*
G01*
X125925000Y-112000000D01*
G75*
G02*
X125825000Y-112100000I-100000J0D01*
G01*
X125390000Y-112100000D01*
G75*
G02*
X125290000Y-112000000I0J100000D01*
G01*
G37*
%TD.AperFunction*%
%TD*%
%TO.P,R2,2*%
%TO.N,Net-(R2-Pad2)*%
%TA.AperFunction,SMDPad,CuDef*%
G36*
G01*
X75290000Y-112000000D02*
X75290000Y-111800000D01*
G75*
G02*
X75390000Y-111700000I100000J0D01*
G01*
X75825000Y-111700000D01*
G75*
G02*
X75925000Y-111800000I0J-100000D01*
G01*
X75925000Y-112000000D01*
G75*
G02*
X75825000Y-112100000I-100000J0D01*
G01*
X75390000Y-112100000D01*
G75*
G02*
X75290000Y-112000000I0J100000D01*
G01*
G37*
%TD.AperFunction*%
%TO.P,R2,1*%
%TO.N,Net-(R1-Pad1)*%
%TA.AperFunction,SMDPad,CuDef*%
G36*
G01*
X74475000Y-112000000D02*
X74475000Y-111800000D01*
G75*
G02*
X74575000Y-111700000I100000J0D01*
G01*
X75010000Y-111700000D01*
G75*
G02*
X75110000Y-111800000I0J-100000D01*
G01*
X75110000Y-112000000D01*
G75*
G02*
X75010000Y-112100000I-100000J0D01*
G01*
X74575000Y-112100000D01*
G75*
G02*
X74475000Y-112000000I0J100000D01*
G01*
G37*
%TD.AperFunction*%
%TD*%
%TO.P,Q1,3*%
%TO.N,Net-(Q1-Pad3)*%
X81900000Y-107900000D03*
%TO.P,Q1,2*%
%TO.N,GND*%
X83900000Y-106950000D03*
%TO.P,Q1,1*%
%TO.N,/DATA*%
X83900000Y-108850000D03*
%TD*%
%TO.P,R1,1*%
%TO.N,Net-(R1-Pad1)*%
%TA.AperFunction,SMDPad,CuDef*%
G36*
G01*
X124475000Y-110600000D02*
X124475000Y-110400000D01*
G75*
G02*
X124575000Y-110300000I100000J0D01*
G01*
X125010000Y-110300000D01*
G75*
G02*
X125110000Y-110400000I0J-100000D01*
G01*
X125110000Y-110600000D01*
G75*
G02*
X125010000Y-110700000I-100000J0D01*
G01*
X124575000Y-110700000D01*
G75*
G02*
X124475000Y-110600000I0J100000D01*
G01*
G37*
%TD.AperFunction*%
%TO.P,R1,2*%
%TO.N,Net-(R1-Pad2)*%
%TA.AperFunction,SMDPad,CuDef*%
G36*
G01*
X125290000Y-110600000D02*
X125290000Y-110400000D01*
G75*
G02*
X125390000Y-110300000I100000J0D01*
G01*
X125825000Y-110300000D01*
G75*
G02*
X125925000Y-110400000I0J-100000D01*
G01*
X125925000Y-110600000D01*
G75*
G02*
X125825000Y-110700000I-100000J0D01*
G01*
X125390000Y-110700000D01*
G75*
G02*
X125290000Y-110600000I0J100000D01*
G01*
G37*
%TD.AperFunction*%
%TD*%
D11*
%TO.P,J1,*%
%TO.N,*%
X133450000Y-111425000D03*
X133450000Y-118575000D03*
D10*
%TO.P,J1,5*%
%TO.N,GND*%
X127100000Y-113700000D03*
%TO.P,J1,1*%
%TO.N,+5V*%
X127100000Y-116300000D03*
%TD*%
D14*
%TO.P,SW1,1*%
%TO.N,Net-(SW1-Pad1)*%
X125400000Y-121750000D03*
%TO.P,SW1,2*%
%TO.N,GND*%
X133200000Y-121750000D03*
%TD*%
%TO.P,R9,2*%
%TO.N,/DATA*%
%TA.AperFunction,SMDPad,CuDef*%
G36*
G01*
X79449999Y-108200000D02*
X80350001Y-108200000D01*
G75*
G02*
X80600000Y-108449999I0J-249999D01*
G01*
X80600000Y-109150001D01*
G75*
G02*
X80350001Y-109400000I-249999J0D01*
G01*
X79449999Y-109400000D01*
G75*
G02*
X79200000Y-109150001I0J249999D01*
G01*
X79200000Y-108449999D01*
G75*
G02*
X79449999Y-108200000I249999J0D01*
G01*
G37*
%TD.AperFunction*%
%TO.P,R9,1*%
%TO.N,Net-(R8-Pad1)*%
%TA.AperFunction,SMDPad,CuDef*%
G36*
G01*
X79449999Y-106200000D02*
X80350001Y-106200000D01*
G75*
G02*
X80600000Y-106449999I0J-249999D01*
G01*
X80600000Y-107150001D01*
G75*
G02*
X80350001Y-107400000I-249999J0D01*
G01*
X79449999Y-107400000D01*
G75*
G02*
X79200000Y-107150001I0J249999D01*
G01*
X79200000Y-106449999D01*
G75*
G02*
X79449999Y-106200000I249999J0D01*
G01*
G37*
%TD.AperFunction*%
%TD*%
%TO.P,R3,2*%
%TO.N,GND*%
%TA.AperFunction,SMDPad,CuDef*%
G36*
G01*
X74749999Y-108200000D02*
X75650001Y-108200000D01*
G75*
G02*
X75900000Y-108449999I0J-249999D01*
G01*
X75900000Y-109150001D01*
G75*
G02*
X75650001Y-109400000I-249999J0D01*
G01*
X74749999Y-109400000D01*
G75*
G02*
X74500000Y-109150001I0J249999D01*
G01*
X74500000Y-108449999D01*
G75*
G02*
X74749999Y-108200000I249999J0D01*
G01*
G37*
%TD.AperFunction*%
%TO.P,R3,1*%
%TO.N,Net-(R3-Pad1)*%
%TA.AperFunction,SMDPad,CuDef*%
G36*
G01*
X74749999Y-106200000D02*
X75650001Y-106200000D01*
G75*
G02*
X75900000Y-106449999I0J-249999D01*
G01*
X75900000Y-107150001D01*
G75*
G02*
X75650001Y-107400000I-249999J0D01*
G01*
X74749999Y-107400000D01*
G75*
G02*
X74500000Y-107150001I0J249999D01*
G01*
X74500000Y-106449999D01*
G75*
G02*
X74749999Y-106200000I249999J0D01*
G01*
G37*
%TD.AperFunction*%
%TD*%
%TO.P,R1,2*%
%TO.N,Net-(R1-Pad2)*%
%TA.AperFunction,SMDPad,CuDef*%
G36*
G01*
X75290000Y-110600000D02*
X75290000Y-110400000D01*
G75*
G02*
X75390000Y-110300000I100000J0D01*
G01*
X75825000Y-110300000D01*
G75*
G02*
X75925000Y-110400000I0J-100000D01*
G01*
X75925000Y-110600000D01*
G75*
G02*
X75825000Y-110700000I-100000J0D01*
G01*
X75390000Y-110700000D01*
G75*
G02*
X75290000Y-110600000I0J100000D01*
G01*
G37*
%TD.AperFunction*%
%TO.P,R1,1*%
%TO.N,Net-(R1-Pad1)*%
%TA.AperFunction,SMDPad,CuDef*%
G36*
G01*
X74475000Y-110600000D02*
X74475000Y-110400000D01*
G75*
G02*
X74575000Y-110300000I100000J0D01*
G01*
X75010000Y-110300000D01*
G75*
G02*
X75110000Y-110400000I0J-100000D01*
G01*
X75110000Y-110600000D01*
G75*
G02*
X75010000Y-110700000I-100000J0D01*
G01*
X74575000Y-110700000D01*
G75*
G02*
X74475000Y-110600000I0J100000D01*
G01*
G37*
%TD.AperFunction*%
%TD*%
%TO.P,R7,1*%
%TO.N,Net-(R1-Pad1)*%
%TA.AperFunction,SMDPad,CuDef*%
G36*
G01*
X124475000Y-118100000D02*
X124475000Y-117900000D01*
G75*
G02*
X124575000Y-117800000I100000J0D01*
G01*
X125010000Y-117800000D01*
G75*
G02*
X125110000Y-117900000I0J-100000D01*
G01*
X125110000Y-118100000D01*
G75*
G02*
X125010000Y-118200000I-100000J0D01*
G01*
X124575000Y-118200000D01*
G75*
G02*
X124475000Y-118100000I0J100000D01*
G01*
G37*
%TD.AperFunction*%
%TO.P,R7,2*%
%TO.N,Net-(Q1-Pad3)*%
%TA.AperFunction,SMDPad,CuDef*%
G36*
G01*
X125290000Y-118100000D02*
X125290000Y-117900000D01*
G75*
G02*
X125390000Y-117800000I100000J0D01*
G01*
X125825000Y-117800000D01*
G75*
G02*
X125925000Y-117900000I0J-100000D01*
G01*
X125925000Y-118100000D01*
G75*
G02*
X125825000Y-118200000I-100000J0D01*
G01*
X125390000Y-118200000D01*
G75*
G02*
X125290000Y-118100000I0J100000D01*
G01*
G37*
%TD.AperFunction*%
%TD*%
D12*
%TO.P,U2,1*%
%TO.N,Net-(U2-Pad1)*%
X57000000Y-102600000D03*
%TO.P,U2,2*%
%TO.N,Net-(U2-Pad2)*%
X59000000Y-102600000D03*
%TO.P,U2,3*%
%TO.N,+3V3*%
X61000000Y-102600000D03*
%TO.P,U2,4*%
%TO.N,Net-(U2-Pad1)*%
X63000000Y-102600000D03*
%TO.P,U2,5*%
%TO.N,Net-(R8-Pad1)*%
X65000000Y-102600000D03*
%TO.P,U2,6*%
%TO.N,Net-(U2-Pad6)*%
X67000000Y-102600000D03*
%TO.P,U2,7*%
%TO.N,Net-(SW1-Pad1)*%
X69000000Y-102600000D03*
%TO.P,U2,8*%
%TO.N,+3V3*%
X71000000Y-102600000D03*
D13*
%TO.P,U2,9*%
%TO.N,Net-(U2-Pad9)*%
X72500000Y-100000000D03*
%TO.P,U2,10*%
%TO.N,Net-(U2-Pad10)*%
X72500000Y-98000000D03*
%TO.P,U2,11*%
%TO.N,Net-(U2-Pad11)*%
X72500000Y-96000000D03*
%TO.P,U2,12*%
%TO.N,Net-(U2-Pad12)*%
X72500000Y-94000000D03*
%TO.P,U2,13*%
%TO.N,Net-(U2-Pad13)*%
X72500000Y-92000000D03*
%TO.P,U2,14*%
%TO.N,Net-(U2-Pad14)*%
X72500000Y-90000000D03*
D12*
%TO.P,U2,15*%
%TO.N,GND*%
X71000000Y-87400000D03*
%TO.P,U2,16*%
%TO.N,Net-(R3-Pad1)*%
X69000000Y-87400000D03*
%TO.P,U2,17*%
%TO.N,Net-(U2-Pad17)*%
X67000000Y-87400000D03*
%TO.P,U2,18*%
%TO.N,Net-(U2-Pad18)*%
X65000000Y-87400000D03*
%TO.P,U2,19*%
%TO.N,Net-(R2-Pad2)*%
X63000000Y-87400000D03*
%TO.P,U2,20*%
%TO.N,/TRIGGER*%
X61000000Y-87400000D03*
%TO.P,U2,21*%
%TO.N,Net-(R1-Pad2)*%
X59000000Y-87400000D03*
%TO.P,U2,22*%
%TO.N,Net-(R18-Pad1)*%
X57000000Y-87400000D03*
%TD*%
%TO.P,R9,2*%
%TO.N,/DATA*%
%TA.AperFunction,SMDPad,CuDef*%
G36*
G01*
X129449999Y-88200000D02*
X130350001Y-88200000D01*
G75*
G02*
X130600000Y-88449999I0J-249999D01*
G01*
X130600000Y-89150001D01*
G75*
G02*
X130350001Y-89400000I-249999J0D01*
G01*
X129449999Y-89400000D01*
G75*
G02*
X129200000Y-89150001I0J249999D01*
G01*
X129200000Y-88449999D01*
G75*
G02*
X129449999Y-88200000I249999J0D01*
G01*
G37*
%TD.AperFunction*%
%TO.P,R9,1*%
%TO.N,Net-(R8-Pad1)*%
%TA.AperFunction,SMDPad,CuDef*%
G36*
G01*
X129449999Y-86200000D02*
X130350001Y-86200000D01*
G75*
G02*
X130600000Y-86449999I0J-249999D01*
G01*
X130600000Y-87150001D01*
G75*
G02*
X130350001Y-87400000I-249999J0D01*
G01*
X129449999Y-87400000D01*
G75*
G02*
X129200000Y-87150001I0J249999D01*
G01*
X129200000Y-86449999D01*
G75*
G02*
X129449999Y-86200000I249999J0D01*
G01*
G37*
%TD.AperFunction*%
%TD*%
D14*
%TO.P,SW1,1*%
%TO.N,Net-(SW1-Pad1)*%
X75400000Y-101750000D03*
%TO.P,SW1,2*%
%TO.N,GND*%
X83200000Y-101750000D03*
%TD*%
D11*
%TO.P,J1,*%
%TO.N,*%
X83450000Y-91425000D03*
X83450000Y-98575000D03*
D10*
%TO.P,J1,5*%
%TO.N,GND*%
X77100000Y-93700000D03*
%TO.P,J1,1*%
%TO.N,+5V*%
X77100000Y-96300000D03*
%TD*%
%TO.P,R13,2*%
%TO.N,Net-(J2-Pad3)*%
%TA.AperFunction,SMDPad,CuDef*%
G36*
G01*
X127490000Y-98100000D02*
X127490000Y-97900000D01*
G75*
G02*
X127590000Y-97800000I100000J0D01*
G01*
X128025000Y-97800000D01*
G75*
G02*
X128125000Y-97900000I0J-100000D01*
G01*
X128125000Y-98100000D01*
G75*
G02*
X128025000Y-98200000I-100000J0D01*
G01*
X127590000Y-98200000D01*
G75*
G02*
X127490000Y-98100000I0J100000D01*
G01*
G37*
%TD.AperFunction*%
%TO.P,R13,1*%
%TO.N,GND*%
%TA.AperFunction,SMDPad,CuDef*%
G36*
G01*
X126675000Y-98100000D02*
X126675000Y-97900000D01*
G75*
G02*
X126775000Y-97800000I100000J0D01*
G01*
X127210000Y-97800000D01*
G75*
G02*
X127310000Y-97900000I0J-100000D01*
G01*
X127310000Y-98100000D01*
G75*
G02*
X127210000Y-98200000I-100000J0D01*
G01*
X126775000Y-98200000D01*
G75*
G02*
X126675000Y-98100000I0J100000D01*
G01*
G37*
%TD.AperFunction*%
%TD*%
%TO.P,R3,2*%
%TO.N,GND*%
%TA.AperFunction,SMDPad,CuDef*%
G36*
G01*
X124749999Y-88200000D02*
X125650001Y-88200000D01*
G75*
G02*
X125900000Y-88449999I0J-249999D01*
G01*
X125900000Y-89150001D01*
G75*
G02*
X125650001Y-89400000I-249999J0D01*
G01*
X124749999Y-89400000D01*
G75*
G02*
X124500000Y-89150001I0J249999D01*
G01*
X124500000Y-88449999D01*
G75*
G02*
X124749999Y-88200000I249999J0D01*
G01*
G37*
%TD.AperFunction*%
%TO.P,R3,1*%
%TO.N,Net-(R3-Pad1)*%
%TA.AperFunction,SMDPad,CuDef*%
G36*
G01*
X124749999Y-86200000D02*
X125650001Y-86200000D01*
G75*
G02*
X125900000Y-86449999I0J-249999D01*
G01*
X125900000Y-87150001D01*
G75*
G02*
X125650001Y-87400000I-249999J0D01*
G01*
X124749999Y-87400000D01*
G75*
G02*
X124500000Y-87150001I0J249999D01*
G01*
X124500000Y-86449999D01*
G75*
G02*
X124749999Y-86200000I249999J0D01*
G01*
G37*
%TD.AperFunction*%
%TD*%
%TO.P,R13,1*%
%TO.N,GND*%
%TA.AperFunction,SMDPad,CuDef*%
G36*
G01*
X76675000Y-98100000D02*
X76675000Y-97900000D01*
G75*
G02*
X76775000Y-97800000I100000J0D01*
G01*
X77210000Y-97800000D01*
G75*
G02*
X77310000Y-97900000I0J-100000D01*
G01*
X77310000Y-98100000D01*
G75*
G02*
X77210000Y-98200000I-100000J0D01*
G01*
X76775000Y-98200000D01*
G75*
G02*
X76675000Y-98100000I0J100000D01*
G01*
G37*
%TD.AperFunction*%
%TO.P,R13,2*%
%TO.N,Net-(J2-Pad3)*%
%TA.AperFunction,SMDPad,CuDef*%
G36*
G01*
X77490000Y-98100000D02*
X77490000Y-97900000D01*
G75*
G02*
X77590000Y-97800000I100000J0D01*
G01*
X78025000Y-97800000D01*
G75*
G02*
X78125000Y-97900000I0J-100000D01*
G01*
X78125000Y-98100000D01*
G75*
G02*
X78025000Y-98200000I-100000J0D01*
G01*
X77590000Y-98200000D01*
G75*
G02*
X77490000Y-98100000I0J100000D01*
G01*
G37*
%TD.AperFunction*%
%TD*%
D15*
%TO.P,J2,6*%
%TO.N,GND*%
X43710000Y-98350000D03*
%TO.P,J2,5*%
%TO.N,/DATA*%
X46250000Y-97080000D03*
%TO.P,J2,4*%
%TO.N,Net-(J2-Pad4)*%
X43710000Y-95810000D03*
%TO.P,J2,3*%
%TO.N,Net-(J2-Pad3)*%
X46250000Y-94540000D03*
%TO.P,J2,2*%
%TO.N,/TRIGGER*%
X43710000Y-93270000D03*
D16*
%TO.P,J2,1*%
%TO.N,+5V*%
X46250000Y-92000000D03*
%TD*%
D12*
%TO.P,U2,22*%
%TO.N,Net-(R18-Pad1)*%
X107000000Y-87400000D03*
%TO.P,U2,21*%
%TO.N,Net-(R1-Pad2)*%
X109000000Y-87400000D03*
%TO.P,U2,20*%
%TO.N,/TRIGGER*%
X111000000Y-87400000D03*
%TO.P,U2,19*%
%TO.N,Net-(R2-Pad2)*%
X113000000Y-87400000D03*
%TO.P,U2,18*%
%TO.N,Net-(U2-Pad18)*%
X115000000Y-87400000D03*
%TO.P,U2,17*%
%TO.N,Net-(U2-Pad17)*%
X117000000Y-87400000D03*
%TO.P,U2,16*%
%TO.N,Net-(R3-Pad1)*%
X119000000Y-87400000D03*
%TO.P,U2,15*%
%TO.N,GND*%
X121000000Y-87400000D03*
D13*
%TO.P,U2,14*%
%TO.N,Net-(U2-Pad14)*%
X122500000Y-90000000D03*
%TO.P,U2,13*%
%TO.N,Net-(U2-Pad13)*%
X122500000Y-92000000D03*
%TO.P,U2,12*%
%TO.N,Net-(U2-Pad12)*%
X122500000Y-94000000D03*
%TO.P,U2,11*%
%TO.N,Net-(U2-Pad11)*%
X122500000Y-96000000D03*
%TO.P,U2,10*%
%TO.N,Net-(U2-Pad10)*%
X122500000Y-98000000D03*
%TO.P,U2,9*%
%TO.N,Net-(U2-Pad9)*%
X122500000Y-100000000D03*
D12*
%TO.P,U2,8*%
%TO.N,+3V3*%
X121000000Y-102600000D03*
%TO.P,U2,7*%
%TO.N,Net-(SW1-Pad1)*%
X119000000Y-102600000D03*
%TO.P,U2,6*%
%TO.N,Net-(U2-Pad6)*%
X117000000Y-102600000D03*
%TO.P,U2,5*%
%TO.N,Net-(R8-Pad1)*%
X115000000Y-102600000D03*
%TO.P,U2,4*%
%TO.N,Net-(U2-Pad1)*%
X113000000Y-102600000D03*
%TO.P,U2,3*%
%TO.N,+3V3*%
X111000000Y-102600000D03*
%TO.P,U2,2*%
%TO.N,Net-(U2-Pad2)*%
X109000000Y-102600000D03*
%TO.P,U2,1*%
%TO.N,Net-(U2-Pad1)*%
X107000000Y-102600000D03*
%TD*%
%TO.P,R8,2*%
%TO.N,Net-(Q1-Pad3)*%
%TA.AperFunction,SMDPad,CuDef*%
G36*
G01*
X127950001Y-87400000D02*
X127049999Y-87400000D01*
G75*
G02*
X126800000Y-87150001I0J249999D01*
G01*
X126800000Y-86449999D01*
G75*
G02*
X127049999Y-86200000I249999J0D01*
G01*
X127950001Y-86200000D01*
G75*
G02*
X128200000Y-86449999I0J-249999D01*
G01*
X128200000Y-87150001D01*
G75*
G02*
X127950001Y-87400000I-249999J0D01*
G01*
G37*
%TD.AperFunction*%
%TO.P,R8,1*%
%TO.N,Net-(R8-Pad1)*%
%TA.AperFunction,SMDPad,CuDef*%
G36*
G01*
X127950001Y-89400000D02*
X127049999Y-89400000D01*
G75*
G02*
X126800000Y-89150001I0J249999D01*
G01*
X126800000Y-88449999D01*
G75*
G02*
X127049999Y-88200000I249999J0D01*
G01*
X127950001Y-88200000D01*
G75*
G02*
X128200000Y-88449999I0J-249999D01*
G01*
X128200000Y-89150001D01*
G75*
G02*
X127950001Y-89400000I-249999J0D01*
G01*
G37*
%TD.AperFunction*%
%TD*%
%TO.P,R7,1*%
%TO.N,Net-(R1-Pad1)*%
%TA.AperFunction,SMDPad,CuDef*%
G36*
G01*
X74475000Y-98100000D02*
X74475000Y-97900000D01*
G75*
G02*
X74575000Y-97800000I100000J0D01*
G01*
X75010000Y-97800000D01*
G75*
G02*
X75110000Y-97900000I0J-100000D01*
G01*
X75110000Y-98100000D01*
G75*
G02*
X75010000Y-98200000I-100000J0D01*
G01*
X74575000Y-98200000D01*
G75*
G02*
X74475000Y-98100000I0J100000D01*
G01*
G37*
%TD.AperFunction*%
%TO.P,R7,2*%
%TO.N,Net-(Q1-Pad3)*%
%TA.AperFunction,SMDPad,CuDef*%
G36*
G01*
X75290000Y-98100000D02*
X75290000Y-97900000D01*
G75*
G02*
X75390000Y-97800000I100000J0D01*
G01*
X75825000Y-97800000D01*
G75*
G02*
X75925000Y-97900000I0J-100000D01*
G01*
X75925000Y-98100000D01*
G75*
G02*
X75825000Y-98200000I-100000J0D01*
G01*
X75390000Y-98200000D01*
G75*
G02*
X75290000Y-98100000I0J100000D01*
G01*
G37*
%TD.AperFunction*%
%TD*%
D17*
%TO.P,Q1,3*%
%TO.N,Net-(Q1-Pad3)*%
X131900000Y-87900000D03*
%TO.P,Q1,2*%
%TO.N,GND*%
X133900000Y-86950000D03*
%TO.P,Q1,1*%
%TO.N,/DATA*%
X133900000Y-88850000D03*
%TD*%
D16*
%TO.P,J2,1*%
%TO.N,+5V*%
X96250000Y-92000000D03*
D15*
%TO.P,J2,2*%
%TO.N,/TRIGGER*%
X93710000Y-93270000D03*
%TO.P,J2,3*%
%TO.N,Net-(J2-Pad3)*%
X96250000Y-94540000D03*
%TO.P,J2,4*%
%TO.N,Net-(J2-Pad4)*%
X93710000Y-95810000D03*
%TO.P,J2,5*%
%TO.N,/DATA*%
X96250000Y-97080000D03*
%TO.P,J2,6*%
%TO.N,GND*%
X93710000Y-98350000D03*
%TD*%
%TO.P,R2,2*%
%TO.N,Net-(R2-Pad2)*%
%TA.AperFunction,SMDPad,CuDef*%
G36*
G01*
X125290000Y-92000000D02*
X125290000Y-91800000D01*
G75*
G02*
X125390000Y-91700000I100000J0D01*
G01*
X125825000Y-91700000D01*
G75*
G02*
X125925000Y-91800000I0J-100000D01*
G01*
X125925000Y-92000000D01*
G75*
G02*
X125825000Y-92100000I-100000J0D01*
G01*
X125390000Y-92100000D01*
G75*
G02*
X125290000Y-92000000I0J100000D01*
G01*
G37*
%TD.AperFunction*%
%TO.P,R2,1*%
%TO.N,Net-(R1-Pad1)*%
%TA.AperFunction,SMDPad,CuDef*%
G36*
G01*
X124475000Y-92000000D02*
X124475000Y-91800000D01*
G75*
G02*
X124575000Y-91700000I100000J0D01*
G01*
X125010000Y-91700000D01*
G75*
G02*
X125110000Y-91800000I0J-100000D01*
G01*
X125110000Y-92000000D01*
G75*
G02*
X125010000Y-92100000I-100000J0D01*
G01*
X124575000Y-92100000D01*
G75*
G02*
X124475000Y-92000000I0J100000D01*
G01*
G37*
%TD.AperFunction*%
%TD*%
%TO.P,R8,1*%
%TO.N,Net-(R8-Pad1)*%
%TA.AperFunction,SMDPad,CuDef*%
G36*
G01*
X77950001Y-89400000D02*
X77049999Y-89400000D01*
G75*
G02*
X76800000Y-89150001I0J249999D01*
G01*
X76800000Y-88449999D01*
G75*
G02*
X77049999Y-88200000I249999J0D01*
G01*
X77950001Y-88200000D01*
G75*
G02*
X78200000Y-88449999I0J-249999D01*
G01*
X78200000Y-89150001D01*
G75*
G02*
X77950001Y-89400000I-249999J0D01*
G01*
G37*
%TD.AperFunction*%
%TO.P,R8,2*%
%TO.N,Net-(Q1-Pad3)*%
%TA.AperFunction,SMDPad,CuDef*%
G36*
G01*
X77950001Y-87400000D02*
X77049999Y-87400000D01*
G75*
G02*
X76800000Y-87150001I0J249999D01*
G01*
X76800000Y-86449999D01*
G75*
G02*
X77049999Y-86200000I249999J0D01*
G01*
X77950001Y-86200000D01*
G75*
G02*
X78200000Y-86449999I0J-249999D01*
G01*
X78200000Y-87150001D01*
G75*
G02*
X77950001Y-87400000I-249999J0D01*
G01*
G37*
%TD.AperFunction*%
%TD*%
%TO.P,R9,1*%
%TO.N,Net-(R8-Pad1)*%
%TA.AperFunction,SMDPad,CuDef*%
G36*
G01*
X79449999Y-86200000D02*
X80350001Y-86200000D01*
G75*
G02*
X80600000Y-86449999I0J-249999D01*
G01*
X80600000Y-87150001D01*
G75*
G02*
X80350001Y-87400000I-249999J0D01*
G01*
X79449999Y-87400000D01*
G75*
G02*
X79200000Y-87150001I0J249999D01*
G01*
X79200000Y-86449999D01*
G75*
G02*
X79449999Y-86200000I249999J0D01*
G01*
G37*
%TD.AperFunction*%
%TO.P,R9,2*%
%TO.N,/DATA*%
%TA.AperFunction,SMDPad,CuDef*%
G36*
G01*
X79449999Y-88200000D02*
X80350001Y-88200000D01*
G75*
G02*
X80600000Y-88449999I0J-249999D01*
G01*
X80600000Y-89150001D01*
G75*
G02*
X80350001Y-89400000I-249999J0D01*
G01*
X79449999Y-89400000D01*
G75*
G02*
X79200000Y-89150001I0J249999D01*
G01*
X79200000Y-88449999D01*
G75*
G02*
X79449999Y-88200000I249999J0D01*
G01*
G37*
%TD.AperFunction*%
%TD*%
%TO.P,R3,1*%
%TO.N,Net-(R3-Pad1)*%
%TA.AperFunction,SMDPad,CuDef*%
G36*
G01*
X74749999Y-86200000D02*
X75650001Y-86200000D01*
G75*
G02*
X75900000Y-86449999I0J-249999D01*
G01*
X75900000Y-87150001D01*
G75*
G02*
X75650001Y-87400000I-249999J0D01*
G01*
X74749999Y-87400000D01*
G75*
G02*
X74500000Y-87150001I0J249999D01*
G01*
X74500000Y-86449999D01*
G75*
G02*
X74749999Y-86200000I249999J0D01*
G01*
G37*
%TD.AperFunction*%
%TO.P,R3,2*%
%TO.N,GND*%
%TA.AperFunction,SMDPad,CuDef*%
G36*
G01*
X74749999Y-88200000D02*
X75650001Y-88200000D01*
G75*
G02*
X75900000Y-88449999I0J-249999D01*
G01*
X75900000Y-89150001D01*
G75*
G02*
X75650001Y-89400000I-249999J0D01*
G01*
X74749999Y-89400000D01*
G75*
G02*
X74500000Y-89150001I0J249999D01*
G01*
X74500000Y-88449999D01*
G75*
G02*
X74749999Y-88200000I249999J0D01*
G01*
G37*
%TD.AperFunction*%
%TD*%
%TO.P,R1,1*%
%TO.N,Net-(R1-Pad1)*%
%TA.AperFunction,SMDPad,CuDef*%
G36*
G01*
X74475000Y-90600000D02*
X74475000Y-90400000D01*
G75*
G02*
X74575000Y-90300000I100000J0D01*
G01*
X75010000Y-90300000D01*
G75*
G02*
X75110000Y-90400000I0J-100000D01*
G01*
X75110000Y-90600000D01*
G75*
G02*
X75010000Y-90700000I-100000J0D01*
G01*
X74575000Y-90700000D01*
G75*
G02*
X74475000Y-90600000I0J100000D01*
G01*
G37*
%TD.AperFunction*%
%TO.P,R1,2*%
%TO.N,Net-(R1-Pad2)*%
%TA.AperFunction,SMDPad,CuDef*%
G36*
G01*
X75290000Y-90600000D02*
X75290000Y-90400000D01*
G75*
G02*
X75390000Y-90300000I100000J0D01*
G01*
X75825000Y-90300000D01*
G75*
G02*
X75925000Y-90400000I0J-100000D01*
G01*
X75925000Y-90600000D01*
G75*
G02*
X75825000Y-90700000I-100000J0D01*
G01*
X75390000Y-90700000D01*
G75*
G02*
X75290000Y-90600000I0J100000D01*
G01*
G37*
%TD.AperFunction*%
%TD*%
%TO.P,R1,2*%
%TO.N,Net-(R1-Pad2)*%
%TA.AperFunction,SMDPad,CuDef*%
G36*
G01*
X125290000Y-90600000D02*
X125290000Y-90400000D01*
G75*
G02*
X125390000Y-90300000I100000J0D01*
G01*
X125825000Y-90300000D01*
G75*
G02*
X125925000Y-90400000I0J-100000D01*
G01*
X125925000Y-90600000D01*
G75*
G02*
X125825000Y-90700000I-100000J0D01*
G01*
X125390000Y-90700000D01*
G75*
G02*
X125290000Y-90600000I0J100000D01*
G01*
G37*
%TD.AperFunction*%
%TO.P,R1,1*%
%TO.N,Net-(R1-Pad1)*%
%TA.AperFunction,SMDPad,CuDef*%
G36*
G01*
X124475000Y-90600000D02*
X124475000Y-90400000D01*
G75*
G02*
X124575000Y-90300000I100000J0D01*
G01*
X125010000Y-90300000D01*
G75*
G02*
X125110000Y-90400000I0J-100000D01*
G01*
X125110000Y-90600000D01*
G75*
G02*
X125010000Y-90700000I-100000J0D01*
G01*
X124575000Y-90700000D01*
G75*
G02*
X124475000Y-90600000I0J100000D01*
G01*
G37*
%TD.AperFunction*%
%TD*%
%TO.P,R7,2*%
%TO.N,Net-(Q1-Pad3)*%
%TA.AperFunction,SMDPad,CuDef*%
G36*
G01*
X125290000Y-98100000D02*
X125290000Y-97900000D01*
G75*
G02*
X125390000Y-97800000I100000J0D01*
G01*
X125825000Y-97800000D01*
G75*
G02*
X125925000Y-97900000I0J-100000D01*
G01*
X125925000Y-98100000D01*
G75*
G02*
X125825000Y-98200000I-100000J0D01*
G01*
X125390000Y-98200000D01*
G75*
G02*
X125290000Y-98100000I0J100000D01*
G01*
G37*
%TD.AperFunction*%
%TO.P,R7,1*%
%TO.N,Net-(R1-Pad1)*%
%TA.AperFunction,SMDPad,CuDef*%
G36*
G01*
X124475000Y-98100000D02*
X124475000Y-97900000D01*
G75*
G02*
X124575000Y-97800000I100000J0D01*
G01*
X125010000Y-97800000D01*
G75*
G02*
X125110000Y-97900000I0J-100000D01*
G01*
X125110000Y-98100000D01*
G75*
G02*
X125010000Y-98200000I-100000J0D01*
G01*
X124575000Y-98200000D01*
G75*
G02*
X124475000Y-98100000I0J100000D01*
G01*
G37*
%TD.AperFunction*%
%TD*%
D10*
%TO.P,J1,1*%
%TO.N,+5V*%
X127100000Y-96300000D03*
%TO.P,J1,5*%
%TO.N,GND*%
X127100000Y-93700000D03*
D11*
%TO.P,J1,*%
%TO.N,*%
X133450000Y-98575000D03*
X133450000Y-91425000D03*
%TD*%
%TO.P,R2,1*%
%TO.N,Net-(R1-Pad1)*%
%TA.AperFunction,SMDPad,CuDef*%
G36*
G01*
X74475000Y-92000000D02*
X74475000Y-91800000D01*
G75*
G02*
X74575000Y-91700000I100000J0D01*
G01*
X75010000Y-91700000D01*
G75*
G02*
X75110000Y-91800000I0J-100000D01*
G01*
X75110000Y-92000000D01*
G75*
G02*
X75010000Y-92100000I-100000J0D01*
G01*
X74575000Y-92100000D01*
G75*
G02*
X74475000Y-92000000I0J100000D01*
G01*
G37*
%TD.AperFunction*%
%TO.P,R2,2*%
%TO.N,Net-(R2-Pad2)*%
%TA.AperFunction,SMDPad,CuDef*%
G36*
G01*
X75290000Y-92000000D02*
X75290000Y-91800000D01*
G75*
G02*
X75390000Y-91700000I100000J0D01*
G01*
X75825000Y-91700000D01*
G75*
G02*
X75925000Y-91800000I0J-100000D01*
G01*
X75925000Y-92000000D01*
G75*
G02*
X75825000Y-92100000I-100000J0D01*
G01*
X75390000Y-92100000D01*
G75*
G02*
X75290000Y-92000000I0J100000D01*
G01*
G37*
%TD.AperFunction*%
%TD*%
D14*
%TO.P,SW1,2*%
%TO.N,GND*%
X133200000Y-101750000D03*
%TO.P,SW1,1*%
%TO.N,Net-(SW1-Pad1)*%
X125400000Y-101750000D03*
%TD*%
D17*
%TO.P,Q1,1*%
%TO.N,/DATA*%
X83900000Y-88850000D03*
%TO.P,Q1,2*%
%TO.N,GND*%
X83900000Y-86950000D03*
%TO.P,Q1,3*%
%TO.N,Net-(Q1-Pad3)*%
X81900000Y-87900000D03*
%TD*%
%TO.P,R8,1*%
%TO.N,Net-(R8-Pad1)*%
%TA.AperFunction,SMDPad,CuDef*%
G36*
G01*
X127950001Y-69400000D02*
X127049999Y-69400000D01*
G75*
G02*
X126800000Y-69150001I0J249999D01*
G01*
X126800000Y-68449999D01*
G75*
G02*
X127049999Y-68200000I249999J0D01*
G01*
X127950001Y-68200000D01*
G75*
G02*
X128200000Y-68449999I0J-249999D01*
G01*
X128200000Y-69150001D01*
G75*
G02*
X127950001Y-69400000I-249999J0D01*
G01*
G37*
%TD.AperFunction*%
%TO.P,R8,2*%
%TO.N,Net-(Q1-Pad3)*%
%TA.AperFunction,SMDPad,CuDef*%
G36*
G01*
X127950001Y-67400000D02*
X127049999Y-67400000D01*
G75*
G02*
X126800000Y-67150001I0J249999D01*
G01*
X126800000Y-66449999D01*
G75*
G02*
X127049999Y-66200000I249999J0D01*
G01*
X127950001Y-66200000D01*
G75*
G02*
X128200000Y-66449999I0J-249999D01*
G01*
X128200000Y-67150001D01*
G75*
G02*
X127950001Y-67400000I-249999J0D01*
G01*
G37*
%TD.AperFunction*%
%TD*%
%TO.P,R3,1*%
%TO.N,Net-(R3-Pad1)*%
%TA.AperFunction,SMDPad,CuDef*%
G36*
G01*
X124749999Y-66200000D02*
X125650001Y-66200000D01*
G75*
G02*
X125900000Y-66449999I0J-249999D01*
G01*
X125900000Y-67150001D01*
G75*
G02*
X125650001Y-67400000I-249999J0D01*
G01*
X124749999Y-67400000D01*
G75*
G02*
X124500000Y-67150001I0J249999D01*
G01*
X124500000Y-66449999D01*
G75*
G02*
X124749999Y-66200000I249999J0D01*
G01*
G37*
%TD.AperFunction*%
%TO.P,R3,2*%
%TO.N,GND*%
%TA.AperFunction,SMDPad,CuDef*%
G36*
G01*
X124749999Y-68200000D02*
X125650001Y-68200000D01*
G75*
G02*
X125900000Y-68449999I0J-249999D01*
G01*
X125900000Y-69150001D01*
G75*
G02*
X125650001Y-69400000I-249999J0D01*
G01*
X124749999Y-69400000D01*
G75*
G02*
X124500000Y-69150001I0J249999D01*
G01*
X124500000Y-68449999D01*
G75*
G02*
X124749999Y-68200000I249999J0D01*
G01*
G37*
%TD.AperFunction*%
%TD*%
%TO.P,R9,1*%
%TO.N,Net-(R8-Pad1)*%
%TA.AperFunction,SMDPad,CuDef*%
G36*
G01*
X129449999Y-66200000D02*
X130350001Y-66200000D01*
G75*
G02*
X130600000Y-66449999I0J-249999D01*
G01*
X130600000Y-67150001D01*
G75*
G02*
X130350001Y-67400000I-249999J0D01*
G01*
X129449999Y-67400000D01*
G75*
G02*
X129200000Y-67150001I0J249999D01*
G01*
X129200000Y-66449999D01*
G75*
G02*
X129449999Y-66200000I249999J0D01*
G01*
G37*
%TD.AperFunction*%
%TO.P,R9,2*%
%TO.N,/DATA*%
%TA.AperFunction,SMDPad,CuDef*%
G36*
G01*
X129449999Y-68200000D02*
X130350001Y-68200000D01*
G75*
G02*
X130600000Y-68449999I0J-249999D01*
G01*
X130600000Y-69150001D01*
G75*
G02*
X130350001Y-69400000I-249999J0D01*
G01*
X129449999Y-69400000D01*
G75*
G02*
X129200000Y-69150001I0J249999D01*
G01*
X129200000Y-68449999D01*
G75*
G02*
X129449999Y-68200000I249999J0D01*
G01*
G37*
%TD.AperFunction*%
%TD*%
D12*
%TO.P,U2,1*%
%TO.N,Net-(U2-Pad1)*%
X107000000Y-82600000D03*
%TO.P,U2,2*%
%TO.N,Net-(U2-Pad2)*%
X109000000Y-82600000D03*
%TO.P,U2,3*%
%TO.N,+3V3*%
X111000000Y-82600000D03*
%TO.P,U2,4*%
%TO.N,Net-(U2-Pad1)*%
X113000000Y-82600000D03*
%TO.P,U2,5*%
%TO.N,Net-(R8-Pad1)*%
X115000000Y-82600000D03*
%TO.P,U2,6*%
%TO.N,Net-(U2-Pad6)*%
X117000000Y-82600000D03*
%TO.P,U2,7*%
%TO.N,Net-(SW1-Pad1)*%
X119000000Y-82600000D03*
%TO.P,U2,8*%
%TO.N,+3V3*%
X121000000Y-82600000D03*
D13*
%TO.P,U2,9*%
%TO.N,Net-(U2-Pad9)*%
X122500000Y-80000000D03*
%TO.P,U2,10*%
%TO.N,Net-(U2-Pad10)*%
X122500000Y-78000000D03*
%TO.P,U2,11*%
%TO.N,Net-(U2-Pad11)*%
X122500000Y-76000000D03*
%TO.P,U2,12*%
%TO.N,Net-(U2-Pad12)*%
X122500000Y-74000000D03*
%TO.P,U2,13*%
%TO.N,Net-(U2-Pad13)*%
X122500000Y-72000000D03*
%TO.P,U2,14*%
%TO.N,Net-(U2-Pad14)*%
X122500000Y-70000000D03*
D12*
%TO.P,U2,15*%
%TO.N,GND*%
X121000000Y-67400000D03*
%TO.P,U2,16*%
%TO.N,Net-(R3-Pad1)*%
X119000000Y-67400000D03*
%TO.P,U2,17*%
%TO.N,Net-(U2-Pad17)*%
X117000000Y-67400000D03*
%TO.P,U2,18*%
%TO.N,Net-(U2-Pad18)*%
X115000000Y-67400000D03*
%TO.P,U2,19*%
%TO.N,Net-(R2-Pad2)*%
X113000000Y-67400000D03*
%TO.P,U2,20*%
%TO.N,/TRIGGER*%
X111000000Y-67400000D03*
%TO.P,U2,21*%
%TO.N,Net-(R1-Pad2)*%
X109000000Y-67400000D03*
%TO.P,U2,22*%
%TO.N,Net-(R18-Pad1)*%
X107000000Y-67400000D03*
%TD*%
D15*
%TO.P,J2,6*%
%TO.N,GND*%
X93710000Y-78350000D03*
%TO.P,J2,5*%
%TO.N,/DATA*%
X96250000Y-77080000D03*
%TO.P,J2,4*%
%TO.N,Net-(J2-Pad4)*%
X93710000Y-75810000D03*
%TO.P,J2,3*%
%TO.N,Net-(J2-Pad3)*%
X96250000Y-74540000D03*
%TO.P,J2,2*%
%TO.N,/TRIGGER*%
X93710000Y-73270000D03*
D16*
%TO.P,J2,1*%
%TO.N,+5V*%
X96250000Y-72000000D03*
%TD*%
%TO.P,R13,1*%
%TO.N,GND*%
%TA.AperFunction,SMDPad,CuDef*%
G36*
G01*
X126675000Y-78100000D02*
X126675000Y-77900000D01*
G75*
G02*
X126775000Y-77800000I100000J0D01*
G01*
X127210000Y-77800000D01*
G75*
G02*
X127310000Y-77900000I0J-100000D01*
G01*
X127310000Y-78100000D01*
G75*
G02*
X127210000Y-78200000I-100000J0D01*
G01*
X126775000Y-78200000D01*
G75*
G02*
X126675000Y-78100000I0J100000D01*
G01*
G37*
%TD.AperFunction*%
%TO.P,R13,2*%
%TO.N,Net-(J2-Pad3)*%
%TA.AperFunction,SMDPad,CuDef*%
G36*
G01*
X127490000Y-78100000D02*
X127490000Y-77900000D01*
G75*
G02*
X127590000Y-77800000I100000J0D01*
G01*
X128025000Y-77800000D01*
G75*
G02*
X128125000Y-77900000I0J-100000D01*
G01*
X128125000Y-78100000D01*
G75*
G02*
X128025000Y-78200000I-100000J0D01*
G01*
X127590000Y-78200000D01*
G75*
G02*
X127490000Y-78100000I0J100000D01*
G01*
G37*
%TD.AperFunction*%
%TD*%
D17*
%TO.P,Q1,1*%
%TO.N,/DATA*%
X133900000Y-68850000D03*
%TO.P,Q1,2*%
%TO.N,GND*%
X133900000Y-66950000D03*
%TO.P,Q1,3*%
%TO.N,Net-(Q1-Pad3)*%
X131900000Y-67900000D03*
%TD*%
D12*
%TO.P,U2,22*%
%TO.N,Net-(R18-Pad1)*%
X57000000Y-67400000D03*
%TO.P,U2,21*%
%TO.N,Net-(R1-Pad2)*%
X59000000Y-67400000D03*
%TO.P,U2,20*%
%TO.N,/TRIGGER*%
X61000000Y-67400000D03*
%TO.P,U2,19*%
%TO.N,Net-(R2-Pad2)*%
X63000000Y-67400000D03*
%TO.P,U2,18*%
%TO.N,Net-(U2-Pad18)*%
X65000000Y-67400000D03*
%TO.P,U2,17*%
%TO.N,Net-(U2-Pad17)*%
X67000000Y-67400000D03*
%TO.P,U2,16*%
%TO.N,Net-(R3-Pad1)*%
X69000000Y-67400000D03*
%TO.P,U2,15*%
%TO.N,GND*%
X71000000Y-67400000D03*
D13*
%TO.P,U2,14*%
%TO.N,Net-(U2-Pad14)*%
X72500000Y-70000000D03*
%TO.P,U2,13*%
%TO.N,Net-(U2-Pad13)*%
X72500000Y-72000000D03*
%TO.P,U2,12*%
%TO.N,Net-(U2-Pad12)*%
X72500000Y-74000000D03*
%TO.P,U2,11*%
%TO.N,Net-(U2-Pad11)*%
X72500000Y-76000000D03*
%TO.P,U2,10*%
%TO.N,Net-(U2-Pad10)*%
X72500000Y-78000000D03*
%TO.P,U2,9*%
%TO.N,Net-(U2-Pad9)*%
X72500000Y-80000000D03*
D12*
%TO.P,U2,8*%
%TO.N,+3V3*%
X71000000Y-82600000D03*
%TO.P,U2,7*%
%TO.N,Net-(SW1-Pad1)*%
X69000000Y-82600000D03*
%TO.P,U2,6*%
%TO.N,Net-(U2-Pad6)*%
X67000000Y-82600000D03*
%TO.P,U2,5*%
%TO.N,Net-(R8-Pad1)*%
X65000000Y-82600000D03*
%TO.P,U2,4*%
%TO.N,Net-(U2-Pad1)*%
X63000000Y-82600000D03*
%TO.P,U2,3*%
%TO.N,+3V3*%
X61000000Y-82600000D03*
%TO.P,U2,2*%
%TO.N,Net-(U2-Pad2)*%
X59000000Y-82600000D03*
%TO.P,U2,1*%
%TO.N,Net-(U2-Pad1)*%
X57000000Y-82600000D03*
%TD*%
D14*
%TO.P,SW1,2*%
%TO.N,GND*%
X83200000Y-81750000D03*
%TO.P,SW1,1*%
%TO.N,Net-(SW1-Pad1)*%
X75400000Y-81750000D03*
%TD*%
%TO.P,R13,2*%
%TO.N,Net-(J2-Pad3)*%
%TA.AperFunction,SMDPad,CuDef*%
G36*
G01*
X77490000Y-78100000D02*
X77490000Y-77900000D01*
G75*
G02*
X77590000Y-77800000I100000J0D01*
G01*
X78025000Y-77800000D01*
G75*
G02*
X78125000Y-77900000I0J-100000D01*
G01*
X78125000Y-78100000D01*
G75*
G02*
X78025000Y-78200000I-100000J0D01*
G01*
X77590000Y-78200000D01*
G75*
G02*
X77490000Y-78100000I0J100000D01*
G01*
G37*
%TD.AperFunction*%
%TO.P,R13,1*%
%TO.N,GND*%
%TA.AperFunction,SMDPad,CuDef*%
G36*
G01*
X76675000Y-78100000D02*
X76675000Y-77900000D01*
G75*
G02*
X76775000Y-77800000I100000J0D01*
G01*
X77210000Y-77800000D01*
G75*
G02*
X77310000Y-77900000I0J-100000D01*
G01*
X77310000Y-78100000D01*
G75*
G02*
X77210000Y-78200000I-100000J0D01*
G01*
X76775000Y-78200000D01*
G75*
G02*
X76675000Y-78100000I0J100000D01*
G01*
G37*
%TD.AperFunction*%
%TD*%
D16*
%TO.P,J2,1*%
%TO.N,+5V*%
X46250000Y-72000000D03*
D15*
%TO.P,J2,2*%
%TO.N,/TRIGGER*%
X43710000Y-73270000D03*
%TO.P,J2,3*%
%TO.N,Net-(J2-Pad3)*%
X46250000Y-74540000D03*
%TO.P,J2,4*%
%TO.N,Net-(J2-Pad4)*%
X43710000Y-75810000D03*
%TO.P,J2,5*%
%TO.N,/DATA*%
X46250000Y-77080000D03*
%TO.P,J2,6*%
%TO.N,GND*%
X43710000Y-78350000D03*
%TD*%
D10*
%TO.P,J1,1*%
%TO.N,+5V*%
X77100000Y-76300000D03*
%TO.P,J1,5*%
%TO.N,GND*%
X77100000Y-73700000D03*
D11*
%TO.P,J1,*%
%TO.N,*%
X83450000Y-78575000D03*
X83450000Y-71425000D03*
%TD*%
%TO.P,R7,2*%
%TO.N,Net-(Q1-Pad3)*%
%TA.AperFunction,SMDPad,CuDef*%
G36*
G01*
X75290000Y-78100000D02*
X75290000Y-77900000D01*
G75*
G02*
X75390000Y-77800000I100000J0D01*
G01*
X75825000Y-77800000D01*
G75*
G02*
X75925000Y-77900000I0J-100000D01*
G01*
X75925000Y-78100000D01*
G75*
G02*
X75825000Y-78200000I-100000J0D01*
G01*
X75390000Y-78200000D01*
G75*
G02*
X75290000Y-78100000I0J100000D01*
G01*
G37*
%TD.AperFunction*%
%TO.P,R7,1*%
%TO.N,Net-(R1-Pad1)*%
%TA.AperFunction,SMDPad,CuDef*%
G36*
G01*
X74475000Y-78100000D02*
X74475000Y-77900000D01*
G75*
G02*
X74575000Y-77800000I100000J0D01*
G01*
X75010000Y-77800000D01*
G75*
G02*
X75110000Y-77900000I0J-100000D01*
G01*
X75110000Y-78100000D01*
G75*
G02*
X75010000Y-78200000I-100000J0D01*
G01*
X74575000Y-78200000D01*
G75*
G02*
X74475000Y-78100000I0J100000D01*
G01*
G37*
%TD.AperFunction*%
%TD*%
%TO.P,R2,1*%
%TO.N,Net-(R1-Pad1)*%
%TA.AperFunction,SMDPad,CuDef*%
G36*
G01*
X124475000Y-72000000D02*
X124475000Y-71800000D01*
G75*
G02*
X124575000Y-71700000I100000J0D01*
G01*
X125010000Y-71700000D01*
G75*
G02*
X125110000Y-71800000I0J-100000D01*
G01*
X125110000Y-72000000D01*
G75*
G02*
X125010000Y-72100000I-100000J0D01*
G01*
X124575000Y-72100000D01*
G75*
G02*
X124475000Y-72000000I0J100000D01*
G01*
G37*
%TD.AperFunction*%
%TO.P,R2,2*%
%TO.N,Net-(R2-Pad2)*%
%TA.AperFunction,SMDPad,CuDef*%
G36*
G01*
X125290000Y-72000000D02*
X125290000Y-71800000D01*
G75*
G02*
X125390000Y-71700000I100000J0D01*
G01*
X125825000Y-71700000D01*
G75*
G02*
X125925000Y-71800000I0J-100000D01*
G01*
X125925000Y-72000000D01*
G75*
G02*
X125825000Y-72100000I-100000J0D01*
G01*
X125390000Y-72100000D01*
G75*
G02*
X125290000Y-72000000I0J100000D01*
G01*
G37*
%TD.AperFunction*%
%TD*%
%TO.P,R9,2*%
%TO.N,/DATA*%
%TA.AperFunction,SMDPad,CuDef*%
G36*
G01*
X79449999Y-68200000D02*
X80350001Y-68200000D01*
G75*
G02*
X80600000Y-68449999I0J-249999D01*
G01*
X80600000Y-69150001D01*
G75*
G02*
X80350001Y-69400000I-249999J0D01*
G01*
X79449999Y-69400000D01*
G75*
G02*
X79200000Y-69150001I0J249999D01*
G01*
X79200000Y-68449999D01*
G75*
G02*
X79449999Y-68200000I249999J0D01*
G01*
G37*
%TD.AperFunction*%
%TO.P,R9,1*%
%TO.N,Net-(R8-Pad1)*%
%TA.AperFunction,SMDPad,CuDef*%
G36*
G01*
X79449999Y-66200000D02*
X80350001Y-66200000D01*
G75*
G02*
X80600000Y-66449999I0J-249999D01*
G01*
X80600000Y-67150001D01*
G75*
G02*
X80350001Y-67400000I-249999J0D01*
G01*
X79449999Y-67400000D01*
G75*
G02*
X79200000Y-67150001I0J249999D01*
G01*
X79200000Y-66449999D01*
G75*
G02*
X79449999Y-66200000I249999J0D01*
G01*
G37*
%TD.AperFunction*%
%TD*%
%TO.P,R8,2*%
%TO.N,Net-(Q1-Pad3)*%
%TA.AperFunction,SMDPad,CuDef*%
G36*
G01*
X77950001Y-67400000D02*
X77049999Y-67400000D01*
G75*
G02*
X76800000Y-67150001I0J249999D01*
G01*
X76800000Y-66449999D01*
G75*
G02*
X77049999Y-66200000I249999J0D01*
G01*
X77950001Y-66200000D01*
G75*
G02*
X78200000Y-66449999I0J-249999D01*
G01*
X78200000Y-67150001D01*
G75*
G02*
X77950001Y-67400000I-249999J0D01*
G01*
G37*
%TD.AperFunction*%
%TO.P,R8,1*%
%TO.N,Net-(R8-Pad1)*%
%TA.AperFunction,SMDPad,CuDef*%
G36*
G01*
X77950001Y-69400000D02*
X77049999Y-69400000D01*
G75*
G02*
X76800000Y-69150001I0J249999D01*
G01*
X76800000Y-68449999D01*
G75*
G02*
X77049999Y-68200000I249999J0D01*
G01*
X77950001Y-68200000D01*
G75*
G02*
X78200000Y-68449999I0J-249999D01*
G01*
X78200000Y-69150001D01*
G75*
G02*
X77950001Y-69400000I-249999J0D01*
G01*
G37*
%TD.AperFunction*%
%TD*%
%TO.P,R3,2*%
%TO.N,GND*%
%TA.AperFunction,SMDPad,CuDef*%
G36*
G01*
X74749999Y-68200000D02*
X75650001Y-68200000D01*
G75*
G02*
X75900000Y-68449999I0J-249999D01*
G01*
X75900000Y-69150001D01*
G75*
G02*
X75650001Y-69400000I-249999J0D01*
G01*
X74749999Y-69400000D01*
G75*
G02*
X74500000Y-69150001I0J249999D01*
G01*
X74500000Y-68449999D01*
G75*
G02*
X74749999Y-68200000I249999J0D01*
G01*
G37*
%TD.AperFunction*%
%TO.P,R3,1*%
%TO.N,Net-(R3-Pad1)*%
%TA.AperFunction,SMDPad,CuDef*%
G36*
G01*
X74749999Y-66200000D02*
X75650001Y-66200000D01*
G75*
G02*
X75900000Y-66449999I0J-249999D01*
G01*
X75900000Y-67150001D01*
G75*
G02*
X75650001Y-67400000I-249999J0D01*
G01*
X74749999Y-67400000D01*
G75*
G02*
X74500000Y-67150001I0J249999D01*
G01*
X74500000Y-66449999D01*
G75*
G02*
X74749999Y-66200000I249999J0D01*
G01*
G37*
%TD.AperFunction*%
%TD*%
D17*
%TO.P,Q1,3*%
%TO.N,Net-(Q1-Pad3)*%
X81900000Y-67900000D03*
%TO.P,Q1,2*%
%TO.N,GND*%
X83900000Y-66950000D03*
%TO.P,Q1,1*%
%TO.N,/DATA*%
X83900000Y-68850000D03*
%TD*%
%TO.P,R1,2*%
%TO.N,Net-(R1-Pad2)*%
%TA.AperFunction,SMDPad,CuDef*%
G36*
G01*
X75290000Y-70600000D02*
X75290000Y-70400000D01*
G75*
G02*
X75390000Y-70300000I100000J0D01*
G01*
X75825000Y-70300000D01*
G75*
G02*
X75925000Y-70400000I0J-100000D01*
G01*
X75925000Y-70600000D01*
G75*
G02*
X75825000Y-70700000I-100000J0D01*
G01*
X75390000Y-70700000D01*
G75*
G02*
X75290000Y-70600000I0J100000D01*
G01*
G37*
%TD.AperFunction*%
%TO.P,R1,1*%
%TO.N,Net-(R1-Pad1)*%
%TA.AperFunction,SMDPad,CuDef*%
G36*
G01*
X74475000Y-70600000D02*
X74475000Y-70400000D01*
G75*
G02*
X74575000Y-70300000I100000J0D01*
G01*
X75010000Y-70300000D01*
G75*
G02*
X75110000Y-70400000I0J-100000D01*
G01*
X75110000Y-70600000D01*
G75*
G02*
X75010000Y-70700000I-100000J0D01*
G01*
X74575000Y-70700000D01*
G75*
G02*
X74475000Y-70600000I0J100000D01*
G01*
G37*
%TD.AperFunction*%
%TD*%
%TO.P,R1,1*%
%TO.N,Net-(R1-Pad1)*%
%TA.AperFunction,SMDPad,CuDef*%
G36*
G01*
X124475000Y-70600000D02*
X124475000Y-70400000D01*
G75*
G02*
X124575000Y-70300000I100000J0D01*
G01*
X125010000Y-70300000D01*
G75*
G02*
X125110000Y-70400000I0J-100000D01*
G01*
X125110000Y-70600000D01*
G75*
G02*
X125010000Y-70700000I-100000J0D01*
G01*
X124575000Y-70700000D01*
G75*
G02*
X124475000Y-70600000I0J100000D01*
G01*
G37*
%TD.AperFunction*%
%TO.P,R1,2*%
%TO.N,Net-(R1-Pad2)*%
%TA.AperFunction,SMDPad,CuDef*%
G36*
G01*
X125290000Y-70600000D02*
X125290000Y-70400000D01*
G75*
G02*
X125390000Y-70300000I100000J0D01*
G01*
X125825000Y-70300000D01*
G75*
G02*
X125925000Y-70400000I0J-100000D01*
G01*
X125925000Y-70600000D01*
G75*
G02*
X125825000Y-70700000I-100000J0D01*
G01*
X125390000Y-70700000D01*
G75*
G02*
X125290000Y-70600000I0J100000D01*
G01*
G37*
%TD.AperFunction*%
%TD*%
%TO.P,R7,1*%
%TO.N,Net-(R1-Pad1)*%
%TA.AperFunction,SMDPad,CuDef*%
G36*
G01*
X124475000Y-78100000D02*
X124475000Y-77900000D01*
G75*
G02*
X124575000Y-77800000I100000J0D01*
G01*
X125010000Y-77800000D01*
G75*
G02*
X125110000Y-77900000I0J-100000D01*
G01*
X125110000Y-78100000D01*
G75*
G02*
X125010000Y-78200000I-100000J0D01*
G01*
X124575000Y-78200000D01*
G75*
G02*
X124475000Y-78100000I0J100000D01*
G01*
G37*
%TD.AperFunction*%
%TO.P,R7,2*%
%TO.N,Net-(Q1-Pad3)*%
%TA.AperFunction,SMDPad,CuDef*%
G36*
G01*
X125290000Y-78100000D02*
X125290000Y-77900000D01*
G75*
G02*
X125390000Y-77800000I100000J0D01*
G01*
X125825000Y-77800000D01*
G75*
G02*
X125925000Y-77900000I0J-100000D01*
G01*
X125925000Y-78100000D01*
G75*
G02*
X125825000Y-78200000I-100000J0D01*
G01*
X125390000Y-78200000D01*
G75*
G02*
X125290000Y-78100000I0J100000D01*
G01*
G37*
%TD.AperFunction*%
%TD*%
D11*
%TO.P,J1,*%
%TO.N,*%
X133450000Y-71425000D03*
X133450000Y-78575000D03*
D10*
%TO.P,J1,5*%
%TO.N,GND*%
X127100000Y-73700000D03*
%TO.P,J1,1*%
%TO.N,+5V*%
X127100000Y-76300000D03*
%TD*%
%TO.P,R2,2*%
%TO.N,Net-(R2-Pad2)*%
%TA.AperFunction,SMDPad,CuDef*%
G36*
G01*
X75290000Y-72000000D02*
X75290000Y-71800000D01*
G75*
G02*
X75390000Y-71700000I100000J0D01*
G01*
X75825000Y-71700000D01*
G75*
G02*
X75925000Y-71800000I0J-100000D01*
G01*
X75925000Y-72000000D01*
G75*
G02*
X75825000Y-72100000I-100000J0D01*
G01*
X75390000Y-72100000D01*
G75*
G02*
X75290000Y-72000000I0J100000D01*
G01*
G37*
%TD.AperFunction*%
%TO.P,R2,1*%
%TO.N,Net-(R1-Pad1)*%
%TA.AperFunction,SMDPad,CuDef*%
G36*
G01*
X74475000Y-72000000D02*
X74475000Y-71800000D01*
G75*
G02*
X74575000Y-71700000I100000J0D01*
G01*
X75010000Y-71700000D01*
G75*
G02*
X75110000Y-71800000I0J-100000D01*
G01*
X75110000Y-72000000D01*
G75*
G02*
X75010000Y-72100000I-100000J0D01*
G01*
X74575000Y-72100000D01*
G75*
G02*
X74475000Y-72000000I0J100000D01*
G01*
G37*
%TD.AperFunction*%
%TD*%
D14*
%TO.P,SW1,1*%
%TO.N,Net-(SW1-Pad1)*%
X125400000Y-81750000D03*
%TO.P,SW1,2*%
%TO.N,GND*%
X133200000Y-81750000D03*
%TD*%
%TO.P,R1,1*%
%TO.N,Net-(R1-Pad1)*%
%TA.AperFunction,SMDPad,CuDef*%
G36*
G01*
X74475000Y-50600000D02*
X74475000Y-50400000D01*
G75*
G02*
X74575000Y-50300000I100000J0D01*
G01*
X75010000Y-50300000D01*
G75*
G02*
X75110000Y-50400000I0J-100000D01*
G01*
X75110000Y-50600000D01*
G75*
G02*
X75010000Y-50700000I-100000J0D01*
G01*
X74575000Y-50700000D01*
G75*
G02*
X74475000Y-50600000I0J100000D01*
G01*
G37*
%TD.AperFunction*%
%TO.P,R1,2*%
%TO.N,Net-(R1-Pad2)*%
%TA.AperFunction,SMDPad,CuDef*%
G36*
G01*
X75290000Y-50600000D02*
X75290000Y-50400000D01*
G75*
G02*
X75390000Y-50300000I100000J0D01*
G01*
X75825000Y-50300000D01*
G75*
G02*
X75925000Y-50400000I0J-100000D01*
G01*
X75925000Y-50600000D01*
G75*
G02*
X75825000Y-50700000I-100000J0D01*
G01*
X75390000Y-50700000D01*
G75*
G02*
X75290000Y-50600000I0J100000D01*
G01*
G37*
%TD.AperFunction*%
%TD*%
%TO.P,R2,1*%
%TO.N,Net-(R1-Pad1)*%
%TA.AperFunction,SMDPad,CuDef*%
G36*
G01*
X74475000Y-52000000D02*
X74475000Y-51800000D01*
G75*
G02*
X74575000Y-51700000I100000J0D01*
G01*
X75010000Y-51700000D01*
G75*
G02*
X75110000Y-51800000I0J-100000D01*
G01*
X75110000Y-52000000D01*
G75*
G02*
X75010000Y-52100000I-100000J0D01*
G01*
X74575000Y-52100000D01*
G75*
G02*
X74475000Y-52000000I0J100000D01*
G01*
G37*
%TD.AperFunction*%
%TO.P,R2,2*%
%TO.N,Net-(R2-Pad2)*%
%TA.AperFunction,SMDPad,CuDef*%
G36*
G01*
X75290000Y-52000000D02*
X75290000Y-51800000D01*
G75*
G02*
X75390000Y-51700000I100000J0D01*
G01*
X75825000Y-51700000D01*
G75*
G02*
X75925000Y-51800000I0J-100000D01*
G01*
X75925000Y-52000000D01*
G75*
G02*
X75825000Y-52100000I-100000J0D01*
G01*
X75390000Y-52100000D01*
G75*
G02*
X75290000Y-52000000I0J100000D01*
G01*
G37*
%TD.AperFunction*%
%TD*%
%TO.P,R1,2*%
%TO.N,Net-(R1-Pad2)*%
%TA.AperFunction,SMDPad,CuDef*%
G36*
G01*
X125290000Y-50600000D02*
X125290000Y-50400000D01*
G75*
G02*
X125390000Y-50300000I100000J0D01*
G01*
X125825000Y-50300000D01*
G75*
G02*
X125925000Y-50400000I0J-100000D01*
G01*
X125925000Y-50600000D01*
G75*
G02*
X125825000Y-50700000I-100000J0D01*
G01*
X125390000Y-50700000D01*
G75*
G02*
X125290000Y-50600000I0J100000D01*
G01*
G37*
%TD.AperFunction*%
%TO.P,R1,1*%
%TO.N,Net-(R1-Pad1)*%
%TA.AperFunction,SMDPad,CuDef*%
G36*
G01*
X124475000Y-50600000D02*
X124475000Y-50400000D01*
G75*
G02*
X124575000Y-50300000I100000J0D01*
G01*
X125010000Y-50300000D01*
G75*
G02*
X125110000Y-50400000I0J-100000D01*
G01*
X125110000Y-50600000D01*
G75*
G02*
X125010000Y-50700000I-100000J0D01*
G01*
X124575000Y-50700000D01*
G75*
G02*
X124475000Y-50600000I0J100000D01*
G01*
G37*
%TD.AperFunction*%
%TD*%
%TO.P,SW1,2*%
%TO.N,GND*%
X133200000Y-61750000D03*
%TO.P,SW1,1*%
%TO.N,Net-(SW1-Pad1)*%
X125400000Y-61750000D03*
%TD*%
D10*
%TO.P,J1,1*%
%TO.N,+5V*%
X127100000Y-56300000D03*
%TO.P,J1,5*%
%TO.N,GND*%
X127100000Y-53700000D03*
D11*
%TO.P,J1,*%
%TO.N,*%
X133450000Y-58575000D03*
X133450000Y-51425000D03*
%TD*%
%TO.P,R7,2*%
%TO.N,Net-(Q1-Pad3)*%
%TA.AperFunction,SMDPad,CuDef*%
G36*
G01*
X125290000Y-58100000D02*
X125290000Y-57900000D01*
G75*
G02*
X125390000Y-57800000I100000J0D01*
G01*
X125825000Y-57800000D01*
G75*
G02*
X125925000Y-57900000I0J-100000D01*
G01*
X125925000Y-58100000D01*
G75*
G02*
X125825000Y-58200000I-100000J0D01*
G01*
X125390000Y-58200000D01*
G75*
G02*
X125290000Y-58100000I0J100000D01*
G01*
G37*
%TD.AperFunction*%
%TO.P,R7,1*%
%TO.N,Net-(R1-Pad1)*%
%TA.AperFunction,SMDPad,CuDef*%
G36*
G01*
X124475000Y-58100000D02*
X124475000Y-57900000D01*
G75*
G02*
X124575000Y-57800000I100000J0D01*
G01*
X125010000Y-57800000D01*
G75*
G02*
X125110000Y-57900000I0J-100000D01*
G01*
X125110000Y-58100000D01*
G75*
G02*
X125010000Y-58200000I-100000J0D01*
G01*
X124575000Y-58200000D01*
G75*
G02*
X124475000Y-58100000I0J100000D01*
G01*
G37*
%TD.AperFunction*%
%TD*%
D12*
%TO.P,U2,22*%
%TO.N,Net-(R18-Pad1)*%
X107000000Y-47400000D03*
%TO.P,U2,21*%
%TO.N,Net-(R1-Pad2)*%
X109000000Y-47400000D03*
%TO.P,U2,20*%
%TO.N,/TRIGGER*%
X111000000Y-47400000D03*
%TO.P,U2,19*%
%TO.N,Net-(R2-Pad2)*%
X113000000Y-47400000D03*
%TO.P,U2,18*%
%TO.N,Net-(U2-Pad18)*%
X115000000Y-47400000D03*
%TO.P,U2,17*%
%TO.N,Net-(U2-Pad17)*%
X117000000Y-47400000D03*
%TO.P,U2,16*%
%TO.N,Net-(R3-Pad1)*%
X119000000Y-47400000D03*
%TO.P,U2,15*%
%TO.N,GND*%
X121000000Y-47400000D03*
D13*
%TO.P,U2,14*%
%TO.N,Net-(U2-Pad14)*%
X122500000Y-50000000D03*
%TO.P,U2,13*%
%TO.N,Net-(U2-Pad13)*%
X122500000Y-52000000D03*
%TO.P,U2,12*%
%TO.N,Net-(U2-Pad12)*%
X122500000Y-54000000D03*
%TO.P,U2,11*%
%TO.N,Net-(U2-Pad11)*%
X122500000Y-56000000D03*
%TO.P,U2,10*%
%TO.N,Net-(U2-Pad10)*%
X122500000Y-58000000D03*
%TO.P,U2,9*%
%TO.N,Net-(U2-Pad9)*%
X122500000Y-60000000D03*
D12*
%TO.P,U2,8*%
%TO.N,+3V3*%
X121000000Y-62600000D03*
%TO.P,U2,7*%
%TO.N,Net-(SW1-Pad1)*%
X119000000Y-62600000D03*
%TO.P,U2,6*%
%TO.N,Net-(U2-Pad6)*%
X117000000Y-62600000D03*
%TO.P,U2,5*%
%TO.N,Net-(R8-Pad1)*%
X115000000Y-62600000D03*
%TO.P,U2,4*%
%TO.N,Net-(U2-Pad1)*%
X113000000Y-62600000D03*
%TO.P,U2,3*%
%TO.N,+3V3*%
X111000000Y-62600000D03*
%TO.P,U2,2*%
%TO.N,Net-(U2-Pad2)*%
X109000000Y-62600000D03*
%TO.P,U2,1*%
%TO.N,Net-(U2-Pad1)*%
X107000000Y-62600000D03*
%TD*%
D16*
%TO.P,J2,1*%
%TO.N,+5V*%
X96250000Y-52000000D03*
D15*
%TO.P,J2,2*%
%TO.N,/TRIGGER*%
X93710000Y-53270000D03*
%TO.P,J2,3*%
%TO.N,Net-(J2-Pad3)*%
X96250000Y-54540000D03*
%TO.P,J2,4*%
%TO.N,Net-(J2-Pad4)*%
X93710000Y-55810000D03*
%TO.P,J2,5*%
%TO.N,/DATA*%
X96250000Y-57080000D03*
%TO.P,J2,6*%
%TO.N,GND*%
X93710000Y-58350000D03*
%TD*%
%TO.P,R9,2*%
%TO.N,/DATA*%
%TA.AperFunction,SMDPad,CuDef*%
G36*
G01*
X129449999Y-48200000D02*
X130350001Y-48200000D01*
G75*
G02*
X130600000Y-48449999I0J-249999D01*
G01*
X130600000Y-49150001D01*
G75*
G02*
X130350001Y-49400000I-249999J0D01*
G01*
X129449999Y-49400000D01*
G75*
G02*
X129200000Y-49150001I0J249999D01*
G01*
X129200000Y-48449999D01*
G75*
G02*
X129449999Y-48200000I249999J0D01*
G01*
G37*
%TD.AperFunction*%
%TO.P,R9,1*%
%TO.N,Net-(R8-Pad1)*%
%TA.AperFunction,SMDPad,CuDef*%
G36*
G01*
X129449999Y-46200000D02*
X130350001Y-46200000D01*
G75*
G02*
X130600000Y-46449999I0J-249999D01*
G01*
X130600000Y-47150001D01*
G75*
G02*
X130350001Y-47400000I-249999J0D01*
G01*
X129449999Y-47400000D01*
G75*
G02*
X129200000Y-47150001I0J249999D01*
G01*
X129200000Y-46449999D01*
G75*
G02*
X129449999Y-46200000I249999J0D01*
G01*
G37*
%TD.AperFunction*%
%TD*%
D17*
%TO.P,Q1,3*%
%TO.N,Net-(Q1-Pad3)*%
X131900000Y-47900000D03*
%TO.P,Q1,2*%
%TO.N,GND*%
X133900000Y-46950000D03*
%TO.P,Q1,1*%
%TO.N,/DATA*%
X133900000Y-48850000D03*
%TD*%
%TO.P,R13,2*%
%TO.N,Net-(J2-Pad3)*%
%TA.AperFunction,SMDPad,CuDef*%
G36*
G01*
X127490000Y-58100000D02*
X127490000Y-57900000D01*
G75*
G02*
X127590000Y-57800000I100000J0D01*
G01*
X128025000Y-57800000D01*
G75*
G02*
X128125000Y-57900000I0J-100000D01*
G01*
X128125000Y-58100000D01*
G75*
G02*
X128025000Y-58200000I-100000J0D01*
G01*
X127590000Y-58200000D01*
G75*
G02*
X127490000Y-58100000I0J100000D01*
G01*
G37*
%TD.AperFunction*%
%TO.P,R13,1*%
%TO.N,GND*%
%TA.AperFunction,SMDPad,CuDef*%
G36*
G01*
X126675000Y-58100000D02*
X126675000Y-57900000D01*
G75*
G02*
X126775000Y-57800000I100000J0D01*
G01*
X127210000Y-57800000D01*
G75*
G02*
X127310000Y-57900000I0J-100000D01*
G01*
X127310000Y-58100000D01*
G75*
G02*
X127210000Y-58200000I-100000J0D01*
G01*
X126775000Y-58200000D01*
G75*
G02*
X126675000Y-58100000I0J100000D01*
G01*
G37*
%TD.AperFunction*%
%TD*%
%TO.P,R3,2*%
%TO.N,GND*%
%TA.AperFunction,SMDPad,CuDef*%
G36*
G01*
X124749999Y-48200000D02*
X125650001Y-48200000D01*
G75*
G02*
X125900000Y-48449999I0J-249999D01*
G01*
X125900000Y-49150001D01*
G75*
G02*
X125650001Y-49400000I-249999J0D01*
G01*
X124749999Y-49400000D01*
G75*
G02*
X124500000Y-49150001I0J249999D01*
G01*
X124500000Y-48449999D01*
G75*
G02*
X124749999Y-48200000I249999J0D01*
G01*
G37*
%TD.AperFunction*%
%TO.P,R3,1*%
%TO.N,Net-(R3-Pad1)*%
%TA.AperFunction,SMDPad,CuDef*%
G36*
G01*
X124749999Y-46200000D02*
X125650001Y-46200000D01*
G75*
G02*
X125900000Y-46449999I0J-249999D01*
G01*
X125900000Y-47150001D01*
G75*
G02*
X125650001Y-47400000I-249999J0D01*
G01*
X124749999Y-47400000D01*
G75*
G02*
X124500000Y-47150001I0J249999D01*
G01*
X124500000Y-46449999D01*
G75*
G02*
X124749999Y-46200000I249999J0D01*
G01*
G37*
%TD.AperFunction*%
%TD*%
%TO.P,R8,2*%
%TO.N,Net-(Q1-Pad3)*%
%TA.AperFunction,SMDPad,CuDef*%
G36*
G01*
X127950001Y-47400000D02*
X127049999Y-47400000D01*
G75*
G02*
X126800000Y-47150001I0J249999D01*
G01*
X126800000Y-46449999D01*
G75*
G02*
X127049999Y-46200000I249999J0D01*
G01*
X127950001Y-46200000D01*
G75*
G02*
X128200000Y-46449999I0J-249999D01*
G01*
X128200000Y-47150001D01*
G75*
G02*
X127950001Y-47400000I-249999J0D01*
G01*
G37*
%TD.AperFunction*%
%TO.P,R8,1*%
%TO.N,Net-(R8-Pad1)*%
%TA.AperFunction,SMDPad,CuDef*%
G36*
G01*
X127950001Y-49400000D02*
X127049999Y-49400000D01*
G75*
G02*
X126800000Y-49150001I0J249999D01*
G01*
X126800000Y-48449999D01*
G75*
G02*
X127049999Y-48200000I249999J0D01*
G01*
X127950001Y-48200000D01*
G75*
G02*
X128200000Y-48449999I0J-249999D01*
G01*
X128200000Y-49150001D01*
G75*
G02*
X127950001Y-49400000I-249999J0D01*
G01*
G37*
%TD.AperFunction*%
%TD*%
%TO.P,R2,2*%
%TO.N,Net-(R2-Pad2)*%
%TA.AperFunction,SMDPad,CuDef*%
G36*
G01*
X125290000Y-52000000D02*
X125290000Y-51800000D01*
G75*
G02*
X125390000Y-51700000I100000J0D01*
G01*
X125825000Y-51700000D01*
G75*
G02*
X125925000Y-51800000I0J-100000D01*
G01*
X125925000Y-52000000D01*
G75*
G02*
X125825000Y-52100000I-100000J0D01*
G01*
X125390000Y-52100000D01*
G75*
G02*
X125290000Y-52000000I0J100000D01*
G01*
G37*
%TD.AperFunction*%
%TO.P,R2,1*%
%TO.N,Net-(R1-Pad1)*%
%TA.AperFunction,SMDPad,CuDef*%
G36*
G01*
X124475000Y-52000000D02*
X124475000Y-51800000D01*
G75*
G02*
X124575000Y-51700000I100000J0D01*
G01*
X125010000Y-51700000D01*
G75*
G02*
X125110000Y-51800000I0J-100000D01*
G01*
X125110000Y-52000000D01*
G75*
G02*
X125010000Y-52100000I-100000J0D01*
G01*
X124575000Y-52100000D01*
G75*
G02*
X124475000Y-52000000I0J100000D01*
G01*
G37*
%TD.AperFunction*%
%TD*%
D14*
%TO.P,SW1,1*%
%TO.N,Net-(SW1-Pad1)*%
X75400000Y-61750000D03*
%TO.P,SW1,2*%
%TO.N,GND*%
X83200000Y-61750000D03*
%TD*%
D12*
%TO.P,U2,1*%
%TO.N,Net-(U2-Pad1)*%
X57000000Y-62600000D03*
%TO.P,U2,2*%
%TO.N,Net-(U2-Pad2)*%
X59000000Y-62600000D03*
%TO.P,U2,3*%
%TO.N,+3V3*%
X61000000Y-62600000D03*
%TO.P,U2,4*%
%TO.N,Net-(U2-Pad1)*%
X63000000Y-62600000D03*
%TO.P,U2,5*%
%TO.N,Net-(R8-Pad1)*%
X65000000Y-62600000D03*
%TO.P,U2,6*%
%TO.N,Net-(U2-Pad6)*%
X67000000Y-62600000D03*
%TO.P,U2,7*%
%TO.N,Net-(SW1-Pad1)*%
X69000000Y-62600000D03*
%TO.P,U2,8*%
%TO.N,+3V3*%
X71000000Y-62600000D03*
D13*
%TO.P,U2,9*%
%TO.N,Net-(U2-Pad9)*%
X72500000Y-60000000D03*
%TO.P,U2,10*%
%TO.N,Net-(U2-Pad10)*%
X72500000Y-58000000D03*
%TO.P,U2,11*%
%TO.N,Net-(U2-Pad11)*%
X72500000Y-56000000D03*
%TO.P,U2,12*%
%TO.N,Net-(U2-Pad12)*%
X72500000Y-54000000D03*
%TO.P,U2,13*%
%TO.N,Net-(U2-Pad13)*%
X72500000Y-52000000D03*
%TO.P,U2,14*%
%TO.N,Net-(U2-Pad14)*%
X72500000Y-50000000D03*
D12*
%TO.P,U2,15*%
%TO.N,GND*%
X71000000Y-47400000D03*
%TO.P,U2,16*%
%TO.N,Net-(R3-Pad1)*%
X69000000Y-47400000D03*
%TO.P,U2,17*%
%TO.N,Net-(U2-Pad17)*%
X67000000Y-47400000D03*
%TO.P,U2,18*%
%TO.N,Net-(U2-Pad18)*%
X65000000Y-47400000D03*
%TO.P,U2,19*%
%TO.N,Net-(R2-Pad2)*%
X63000000Y-47400000D03*
%TO.P,U2,20*%
%TO.N,/TRIGGER*%
X61000000Y-47400000D03*
%TO.P,U2,21*%
%TO.N,Net-(R1-Pad2)*%
X59000000Y-47400000D03*
%TO.P,U2,22*%
%TO.N,Net-(R18-Pad1)*%
X57000000Y-47400000D03*
%TD*%
%TO.P,R13,1*%
%TO.N,GND*%
%TA.AperFunction,SMDPad,CuDef*%
G36*
G01*
X76675000Y-58100000D02*
X76675000Y-57900000D01*
G75*
G02*
X76775000Y-57800000I100000J0D01*
G01*
X77210000Y-57800000D01*
G75*
G02*
X77310000Y-57900000I0J-100000D01*
G01*
X77310000Y-58100000D01*
G75*
G02*
X77210000Y-58200000I-100000J0D01*
G01*
X76775000Y-58200000D01*
G75*
G02*
X76675000Y-58100000I0J100000D01*
G01*
G37*
%TD.AperFunction*%
%TO.P,R13,2*%
%TO.N,Net-(J2-Pad3)*%
%TA.AperFunction,SMDPad,CuDef*%
G36*
G01*
X77490000Y-58100000D02*
X77490000Y-57900000D01*
G75*
G02*
X77590000Y-57800000I100000J0D01*
G01*
X78025000Y-57800000D01*
G75*
G02*
X78125000Y-57900000I0J-100000D01*
G01*
X78125000Y-58100000D01*
G75*
G02*
X78025000Y-58200000I-100000J0D01*
G01*
X77590000Y-58200000D01*
G75*
G02*
X77490000Y-58100000I0J100000D01*
G01*
G37*
%TD.AperFunction*%
%TD*%
%TO.P,R9,1*%
%TO.N,Net-(R8-Pad1)*%
%TA.AperFunction,SMDPad,CuDef*%
G36*
G01*
X79449999Y-46200000D02*
X80350001Y-46200000D01*
G75*
G02*
X80600000Y-46449999I0J-249999D01*
G01*
X80600000Y-47150001D01*
G75*
G02*
X80350001Y-47400000I-249999J0D01*
G01*
X79449999Y-47400000D01*
G75*
G02*
X79200000Y-47150001I0J249999D01*
G01*
X79200000Y-46449999D01*
G75*
G02*
X79449999Y-46200000I249999J0D01*
G01*
G37*
%TD.AperFunction*%
%TO.P,R9,2*%
%TO.N,/DATA*%
%TA.AperFunction,SMDPad,CuDef*%
G36*
G01*
X79449999Y-48200000D02*
X80350001Y-48200000D01*
G75*
G02*
X80600000Y-48449999I0J-249999D01*
G01*
X80600000Y-49150001D01*
G75*
G02*
X80350001Y-49400000I-249999J0D01*
G01*
X79449999Y-49400000D01*
G75*
G02*
X79200000Y-49150001I0J249999D01*
G01*
X79200000Y-48449999D01*
G75*
G02*
X79449999Y-48200000I249999J0D01*
G01*
G37*
%TD.AperFunction*%
%TD*%
%TO.P,R8,1*%
%TO.N,Net-(R8-Pad1)*%
%TA.AperFunction,SMDPad,CuDef*%
G36*
G01*
X77950001Y-49400000D02*
X77049999Y-49400000D01*
G75*
G02*
X76800000Y-49150001I0J249999D01*
G01*
X76800000Y-48449999D01*
G75*
G02*
X77049999Y-48200000I249999J0D01*
G01*
X77950001Y-48200000D01*
G75*
G02*
X78200000Y-48449999I0J-249999D01*
G01*
X78200000Y-49150001D01*
G75*
G02*
X77950001Y-49400000I-249999J0D01*
G01*
G37*
%TD.AperFunction*%
%TO.P,R8,2*%
%TO.N,Net-(Q1-Pad3)*%
%TA.AperFunction,SMDPad,CuDef*%
G36*
G01*
X77950001Y-47400000D02*
X77049999Y-47400000D01*
G75*
G02*
X76800000Y-47150001I0J249999D01*
G01*
X76800000Y-46449999D01*
G75*
G02*
X77049999Y-46200000I249999J0D01*
G01*
X77950001Y-46200000D01*
G75*
G02*
X78200000Y-46449999I0J-249999D01*
G01*
X78200000Y-47150001D01*
G75*
G02*
X77950001Y-47400000I-249999J0D01*
G01*
G37*
%TD.AperFunction*%
%TD*%
D11*
%TO.P,J1,*%
%TO.N,*%
X83450000Y-51425000D03*
X83450000Y-58575000D03*
D10*
%TO.P,J1,5*%
%TO.N,GND*%
X77100000Y-53700000D03*
%TO.P,J1,1*%
%TO.N,+5V*%
X77100000Y-56300000D03*
%TD*%
%TO.P,R7,1*%
%TO.N,Net-(R1-Pad1)*%
%TA.AperFunction,SMDPad,CuDef*%
G36*
G01*
X74475000Y-58100000D02*
X74475000Y-57900000D01*
G75*
G02*
X74575000Y-57800000I100000J0D01*
G01*
X75010000Y-57800000D01*
G75*
G02*
X75110000Y-57900000I0J-100000D01*
G01*
X75110000Y-58100000D01*
G75*
G02*
X75010000Y-58200000I-100000J0D01*
G01*
X74575000Y-58200000D01*
G75*
G02*
X74475000Y-58100000I0J100000D01*
G01*
G37*
%TD.AperFunction*%
%TO.P,R7,2*%
%TO.N,Net-(Q1-Pad3)*%
%TA.AperFunction,SMDPad,CuDef*%
G36*
G01*
X75290000Y-58100000D02*
X75290000Y-57900000D01*
G75*
G02*
X75390000Y-57800000I100000J0D01*
G01*
X75825000Y-57800000D01*
G75*
G02*
X75925000Y-57900000I0J-100000D01*
G01*
X75925000Y-58100000D01*
G75*
G02*
X75825000Y-58200000I-100000J0D01*
G01*
X75390000Y-58200000D01*
G75*
G02*
X75290000Y-58100000I0J100000D01*
G01*
G37*
%TD.AperFunction*%
%TD*%
%TO.P,R3,1*%
%TO.N,Net-(R3-Pad1)*%
%TA.AperFunction,SMDPad,CuDef*%
G36*
G01*
X74749999Y-46200000D02*
X75650001Y-46200000D01*
G75*
G02*
X75900000Y-46449999I0J-249999D01*
G01*
X75900000Y-47150001D01*
G75*
G02*
X75650001Y-47400000I-249999J0D01*
G01*
X74749999Y-47400000D01*
G75*
G02*
X74500000Y-47150001I0J249999D01*
G01*
X74500000Y-46449999D01*
G75*
G02*
X74749999Y-46200000I249999J0D01*
G01*
G37*
%TD.AperFunction*%
%TO.P,R3,2*%
%TO.N,GND*%
%TA.AperFunction,SMDPad,CuDef*%
G36*
G01*
X74749999Y-48200000D02*
X75650001Y-48200000D01*
G75*
G02*
X75900000Y-48449999I0J-249999D01*
G01*
X75900000Y-49150001D01*
G75*
G02*
X75650001Y-49400000I-249999J0D01*
G01*
X74749999Y-49400000D01*
G75*
G02*
X74500000Y-49150001I0J249999D01*
G01*
X74500000Y-48449999D01*
G75*
G02*
X74749999Y-48200000I249999J0D01*
G01*
G37*
%TD.AperFunction*%
%TD*%
D17*
%TO.P,Q1,1*%
%TO.N,/DATA*%
X83900000Y-48850000D03*
%TO.P,Q1,2*%
%TO.N,GND*%
X83900000Y-46950000D03*
%TO.P,Q1,3*%
%TO.N,Net-(Q1-Pad3)*%
X81900000Y-47900000D03*
%TD*%
D15*
%TO.P,J2,6*%
%TO.N,GND*%
X43710000Y-58350000D03*
%TO.P,J2,5*%
%TO.N,/DATA*%
X46250000Y-57080000D03*
%TO.P,J2,4*%
%TO.N,Net-(J2-Pad4)*%
X43710000Y-55810000D03*
%TO.P,J2,3*%
%TO.N,Net-(J2-Pad3)*%
X46250000Y-54540000D03*
%TO.P,J2,2*%
%TO.N,/TRIGGER*%
X43710000Y-53270000D03*
D16*
%TO.P,J2,1*%
%TO.N,+5V*%
X46250000Y-52000000D03*
%TD*%
%TO.P,R1,1*%
%TO.N,Net-(R1-Pad1)*%
%TA.AperFunction,SMDPad,CuDef*%
G36*
G01*
X124475000Y-30600000D02*
X124475000Y-30400000D01*
G75*
G02*
X124575000Y-30300000I100000J0D01*
G01*
X125010000Y-30300000D01*
G75*
G02*
X125110000Y-30400000I0J-100000D01*
G01*
X125110000Y-30600000D01*
G75*
G02*
X125010000Y-30700000I-100000J0D01*
G01*
X124575000Y-30700000D01*
G75*
G02*
X124475000Y-30600000I0J100000D01*
G01*
G37*
%TD.AperFunction*%
%TO.P,R1,2*%
%TO.N,Net-(R1-Pad2)*%
%TA.AperFunction,SMDPad,CuDef*%
G36*
G01*
X125290000Y-30600000D02*
X125290000Y-30400000D01*
G75*
G02*
X125390000Y-30300000I100000J0D01*
G01*
X125825000Y-30300000D01*
G75*
G02*
X125925000Y-30400000I0J-100000D01*
G01*
X125925000Y-30600000D01*
G75*
G02*
X125825000Y-30700000I-100000J0D01*
G01*
X125390000Y-30700000D01*
G75*
G02*
X125290000Y-30600000I0J100000D01*
G01*
G37*
%TD.AperFunction*%
%TD*%
%TO.P,R2,1*%
%TO.N,Net-(R1-Pad1)*%
%TA.AperFunction,SMDPad,CuDef*%
G36*
G01*
X124475000Y-32000000D02*
X124475000Y-31800000D01*
G75*
G02*
X124575000Y-31700000I100000J0D01*
G01*
X125010000Y-31700000D01*
G75*
G02*
X125110000Y-31800000I0J-100000D01*
G01*
X125110000Y-32000000D01*
G75*
G02*
X125010000Y-32100000I-100000J0D01*
G01*
X124575000Y-32100000D01*
G75*
G02*
X124475000Y-32000000I0J100000D01*
G01*
G37*
%TD.AperFunction*%
%TO.P,R2,2*%
%TO.N,Net-(R2-Pad2)*%
%TA.AperFunction,SMDPad,CuDef*%
G36*
G01*
X125290000Y-32000000D02*
X125290000Y-31800000D01*
G75*
G02*
X125390000Y-31700000I100000J0D01*
G01*
X125825000Y-31700000D01*
G75*
G02*
X125925000Y-31800000I0J-100000D01*
G01*
X125925000Y-32000000D01*
G75*
G02*
X125825000Y-32100000I-100000J0D01*
G01*
X125390000Y-32100000D01*
G75*
G02*
X125290000Y-32000000I0J100000D01*
G01*
G37*
%TD.AperFunction*%
%TD*%
D14*
%TO.P,SW1,1*%
%TO.N,Net-(SW1-Pad1)*%
X125400000Y-41750000D03*
%TO.P,SW1,2*%
%TO.N,GND*%
X133200000Y-41750000D03*
%TD*%
D12*
%TO.P,U2,1*%
%TO.N,Net-(U2-Pad1)*%
X107000000Y-42600000D03*
%TO.P,U2,2*%
%TO.N,Net-(U2-Pad2)*%
X109000000Y-42600000D03*
%TO.P,U2,3*%
%TO.N,+3V3*%
X111000000Y-42600000D03*
%TO.P,U2,4*%
%TO.N,Net-(U2-Pad1)*%
X113000000Y-42600000D03*
%TO.P,U2,5*%
%TO.N,Net-(R8-Pad1)*%
X115000000Y-42600000D03*
%TO.P,U2,6*%
%TO.N,Net-(U2-Pad6)*%
X117000000Y-42600000D03*
%TO.P,U2,7*%
%TO.N,Net-(SW1-Pad1)*%
X119000000Y-42600000D03*
%TO.P,U2,8*%
%TO.N,+3V3*%
X121000000Y-42600000D03*
D13*
%TO.P,U2,9*%
%TO.N,Net-(U2-Pad9)*%
X122500000Y-40000000D03*
%TO.P,U2,10*%
%TO.N,Net-(U2-Pad10)*%
X122500000Y-38000000D03*
%TO.P,U2,11*%
%TO.N,Net-(U2-Pad11)*%
X122500000Y-36000000D03*
%TO.P,U2,12*%
%TO.N,Net-(U2-Pad12)*%
X122500000Y-34000000D03*
%TO.P,U2,13*%
%TO.N,Net-(U2-Pad13)*%
X122500000Y-32000000D03*
%TO.P,U2,14*%
%TO.N,Net-(U2-Pad14)*%
X122500000Y-30000000D03*
D12*
%TO.P,U2,15*%
%TO.N,GND*%
X121000000Y-27400000D03*
%TO.P,U2,16*%
%TO.N,Net-(R3-Pad1)*%
X119000000Y-27400000D03*
%TO.P,U2,17*%
%TO.N,Net-(U2-Pad17)*%
X117000000Y-27400000D03*
%TO.P,U2,18*%
%TO.N,Net-(U2-Pad18)*%
X115000000Y-27400000D03*
%TO.P,U2,19*%
%TO.N,Net-(R2-Pad2)*%
X113000000Y-27400000D03*
%TO.P,U2,20*%
%TO.N,/TRIGGER*%
X111000000Y-27400000D03*
%TO.P,U2,21*%
%TO.N,Net-(R1-Pad2)*%
X109000000Y-27400000D03*
%TO.P,U2,22*%
%TO.N,Net-(R18-Pad1)*%
X107000000Y-27400000D03*
%TD*%
%TO.P,R13,1*%
%TO.N,GND*%
%TA.AperFunction,SMDPad,CuDef*%
G36*
G01*
X126675000Y-38100000D02*
X126675000Y-37900000D01*
G75*
G02*
X126775000Y-37800000I100000J0D01*
G01*
X127210000Y-37800000D01*
G75*
G02*
X127310000Y-37900000I0J-100000D01*
G01*
X127310000Y-38100000D01*
G75*
G02*
X127210000Y-38200000I-100000J0D01*
G01*
X126775000Y-38200000D01*
G75*
G02*
X126675000Y-38100000I0J100000D01*
G01*
G37*
%TD.AperFunction*%
%TO.P,R13,2*%
%TO.N,Net-(J2-Pad3)*%
%TA.AperFunction,SMDPad,CuDef*%
G36*
G01*
X127490000Y-38100000D02*
X127490000Y-37900000D01*
G75*
G02*
X127590000Y-37800000I100000J0D01*
G01*
X128025000Y-37800000D01*
G75*
G02*
X128125000Y-37900000I0J-100000D01*
G01*
X128125000Y-38100000D01*
G75*
G02*
X128025000Y-38200000I-100000J0D01*
G01*
X127590000Y-38200000D01*
G75*
G02*
X127490000Y-38100000I0J100000D01*
G01*
G37*
%TD.AperFunction*%
%TD*%
%TO.P,R9,1*%
%TO.N,Net-(R8-Pad1)*%
%TA.AperFunction,SMDPad,CuDef*%
G36*
G01*
X129449999Y-26200000D02*
X130350001Y-26200000D01*
G75*
G02*
X130600000Y-26449999I0J-249999D01*
G01*
X130600000Y-27150001D01*
G75*
G02*
X130350001Y-27400000I-249999J0D01*
G01*
X129449999Y-27400000D01*
G75*
G02*
X129200000Y-27150001I0J249999D01*
G01*
X129200000Y-26449999D01*
G75*
G02*
X129449999Y-26200000I249999J0D01*
G01*
G37*
%TD.AperFunction*%
%TO.P,R9,2*%
%TO.N,/DATA*%
%TA.AperFunction,SMDPad,CuDef*%
G36*
G01*
X129449999Y-28200000D02*
X130350001Y-28200000D01*
G75*
G02*
X130600000Y-28449999I0J-249999D01*
G01*
X130600000Y-29150001D01*
G75*
G02*
X130350001Y-29400000I-249999J0D01*
G01*
X129449999Y-29400000D01*
G75*
G02*
X129200000Y-29150001I0J249999D01*
G01*
X129200000Y-28449999D01*
G75*
G02*
X129449999Y-28200000I249999J0D01*
G01*
G37*
%TD.AperFunction*%
%TD*%
%TO.P,R8,1*%
%TO.N,Net-(R8-Pad1)*%
%TA.AperFunction,SMDPad,CuDef*%
G36*
G01*
X127950001Y-29400000D02*
X127049999Y-29400000D01*
G75*
G02*
X126800000Y-29150001I0J249999D01*
G01*
X126800000Y-28449999D01*
G75*
G02*
X127049999Y-28200000I249999J0D01*
G01*
X127950001Y-28200000D01*
G75*
G02*
X128200000Y-28449999I0J-249999D01*
G01*
X128200000Y-29150001D01*
G75*
G02*
X127950001Y-29400000I-249999J0D01*
G01*
G37*
%TD.AperFunction*%
%TO.P,R8,2*%
%TO.N,Net-(Q1-Pad3)*%
%TA.AperFunction,SMDPad,CuDef*%
G36*
G01*
X127950001Y-27400000D02*
X127049999Y-27400000D01*
G75*
G02*
X126800000Y-27150001I0J249999D01*
G01*
X126800000Y-26449999D01*
G75*
G02*
X127049999Y-26200000I249999J0D01*
G01*
X127950001Y-26200000D01*
G75*
G02*
X128200000Y-26449999I0J-249999D01*
G01*
X128200000Y-27150001D01*
G75*
G02*
X127950001Y-27400000I-249999J0D01*
G01*
G37*
%TD.AperFunction*%
%TD*%
D11*
%TO.P,J1,*%
%TO.N,*%
X133450000Y-31425000D03*
X133450000Y-38575000D03*
D10*
%TO.P,J1,5*%
%TO.N,GND*%
X127100000Y-33700000D03*
%TO.P,J1,1*%
%TO.N,+5V*%
X127100000Y-36300000D03*
%TD*%
%TO.P,R7,1*%
%TO.N,Net-(R1-Pad1)*%
%TA.AperFunction,SMDPad,CuDef*%
G36*
G01*
X124475000Y-38100000D02*
X124475000Y-37900000D01*
G75*
G02*
X124575000Y-37800000I100000J0D01*
G01*
X125010000Y-37800000D01*
G75*
G02*
X125110000Y-37900000I0J-100000D01*
G01*
X125110000Y-38100000D01*
G75*
G02*
X125010000Y-38200000I-100000J0D01*
G01*
X124575000Y-38200000D01*
G75*
G02*
X124475000Y-38100000I0J100000D01*
G01*
G37*
%TD.AperFunction*%
%TO.P,R7,2*%
%TO.N,Net-(Q1-Pad3)*%
%TA.AperFunction,SMDPad,CuDef*%
G36*
G01*
X125290000Y-38100000D02*
X125290000Y-37900000D01*
G75*
G02*
X125390000Y-37800000I100000J0D01*
G01*
X125825000Y-37800000D01*
G75*
G02*
X125925000Y-37900000I0J-100000D01*
G01*
X125925000Y-38100000D01*
G75*
G02*
X125825000Y-38200000I-100000J0D01*
G01*
X125390000Y-38200000D01*
G75*
G02*
X125290000Y-38100000I0J100000D01*
G01*
G37*
%TD.AperFunction*%
%TD*%
%TO.P,R3,1*%
%TO.N,Net-(R3-Pad1)*%
%TA.AperFunction,SMDPad,CuDef*%
G36*
G01*
X124749999Y-26200000D02*
X125650001Y-26200000D01*
G75*
G02*
X125900000Y-26449999I0J-249999D01*
G01*
X125900000Y-27150001D01*
G75*
G02*
X125650001Y-27400000I-249999J0D01*
G01*
X124749999Y-27400000D01*
G75*
G02*
X124500000Y-27150001I0J249999D01*
G01*
X124500000Y-26449999D01*
G75*
G02*
X124749999Y-26200000I249999J0D01*
G01*
G37*
%TD.AperFunction*%
%TO.P,R3,2*%
%TO.N,GND*%
%TA.AperFunction,SMDPad,CuDef*%
G36*
G01*
X124749999Y-28200000D02*
X125650001Y-28200000D01*
G75*
G02*
X125900000Y-28449999I0J-249999D01*
G01*
X125900000Y-29150001D01*
G75*
G02*
X125650001Y-29400000I-249999J0D01*
G01*
X124749999Y-29400000D01*
G75*
G02*
X124500000Y-29150001I0J249999D01*
G01*
X124500000Y-28449999D01*
G75*
G02*
X124749999Y-28200000I249999J0D01*
G01*
G37*
%TD.AperFunction*%
%TD*%
D17*
%TO.P,Q1,1*%
%TO.N,/DATA*%
X133900000Y-28850000D03*
%TO.P,Q1,2*%
%TO.N,GND*%
X133900000Y-26950000D03*
%TO.P,Q1,3*%
%TO.N,Net-(Q1-Pad3)*%
X131900000Y-27900000D03*
%TD*%
D15*
%TO.P,J2,6*%
%TO.N,GND*%
X93710000Y-38350000D03*
%TO.P,J2,5*%
%TO.N,/DATA*%
X96250000Y-37080000D03*
%TO.P,J2,4*%
%TO.N,Net-(J2-Pad4)*%
X93710000Y-35810000D03*
%TO.P,J2,3*%
%TO.N,Net-(J2-Pad3)*%
X96250000Y-34540000D03*
%TO.P,J2,2*%
%TO.N,/TRIGGER*%
X93710000Y-33270000D03*
D16*
%TO.P,J2,1*%
%TO.N,+5V*%
X96250000Y-32000000D03*
%TD*%
%TO.P,J2,1*%
%TO.N,+5V*%
X46250000Y-32000000D03*
D15*
%TO.P,J2,2*%
%TO.N,/TRIGGER*%
X43710000Y-33270000D03*
%TO.P,J2,3*%
%TO.N,Net-(J2-Pad3)*%
X46250000Y-34540000D03*
%TO.P,J2,4*%
%TO.N,Net-(J2-Pad4)*%
X43710000Y-35810000D03*
%TO.P,J2,5*%
%TO.N,/DATA*%
X46250000Y-37080000D03*
%TO.P,J2,6*%
%TO.N,GND*%
X43710000Y-38350000D03*
%TD*%
%TO.P,R2,2*%
%TO.N,Net-(R2-Pad2)*%
%TA.AperFunction,SMDPad,CuDef*%
G36*
G01*
X75290000Y-32000000D02*
X75290000Y-31800000D01*
G75*
G02*
X75390000Y-31700000I100000J0D01*
G01*
X75825000Y-31700000D01*
G75*
G02*
X75925000Y-31800000I0J-100000D01*
G01*
X75925000Y-32000000D01*
G75*
G02*
X75825000Y-32100000I-100000J0D01*
G01*
X75390000Y-32100000D01*
G75*
G02*
X75290000Y-32000000I0J100000D01*
G01*
G37*
%TD.AperFunction*%
%TO.P,R2,1*%
%TO.N,Net-(R1-Pad1)*%
%TA.AperFunction,SMDPad,CuDef*%
G36*
G01*
X74475000Y-32000000D02*
X74475000Y-31800000D01*
G75*
G02*
X74575000Y-31700000I100000J0D01*
G01*
X75010000Y-31700000D01*
G75*
G02*
X75110000Y-31800000I0J-100000D01*
G01*
X75110000Y-32000000D01*
G75*
G02*
X75010000Y-32100000I-100000J0D01*
G01*
X74575000Y-32100000D01*
G75*
G02*
X74475000Y-32000000I0J100000D01*
G01*
G37*
%TD.AperFunction*%
%TD*%
%TO.P,R1,2*%
%TO.N,Net-(R1-Pad2)*%
%TA.AperFunction,SMDPad,CuDef*%
G36*
G01*
X75290000Y-30600000D02*
X75290000Y-30400000D01*
G75*
G02*
X75390000Y-30300000I100000J0D01*
G01*
X75825000Y-30300000D01*
G75*
G02*
X75925000Y-30400000I0J-100000D01*
G01*
X75925000Y-30600000D01*
G75*
G02*
X75825000Y-30700000I-100000J0D01*
G01*
X75390000Y-30700000D01*
G75*
G02*
X75290000Y-30600000I0J100000D01*
G01*
G37*
%TD.AperFunction*%
%TO.P,R1,1*%
%TO.N,Net-(R1-Pad1)*%
%TA.AperFunction,SMDPad,CuDef*%
G36*
G01*
X74475000Y-30600000D02*
X74475000Y-30400000D01*
G75*
G02*
X74575000Y-30300000I100000J0D01*
G01*
X75010000Y-30300000D01*
G75*
G02*
X75110000Y-30400000I0J-100000D01*
G01*
X75110000Y-30600000D01*
G75*
G02*
X75010000Y-30700000I-100000J0D01*
G01*
X74575000Y-30700000D01*
G75*
G02*
X74475000Y-30600000I0J100000D01*
G01*
G37*
%TD.AperFunction*%
%TD*%
D12*
%TO.P,U2,22*%
%TO.N,Net-(R18-Pad1)*%
X57000000Y-27400000D03*
%TO.P,U2,21*%
%TO.N,Net-(R1-Pad2)*%
X59000000Y-27400000D03*
%TO.P,U2,20*%
%TO.N,/TRIGGER*%
X61000000Y-27400000D03*
%TO.P,U2,19*%
%TO.N,Net-(R2-Pad2)*%
X63000000Y-27400000D03*
%TO.P,U2,18*%
%TO.N,Net-(U2-Pad18)*%
X65000000Y-27400000D03*
%TO.P,U2,17*%
%TO.N,Net-(U2-Pad17)*%
X67000000Y-27400000D03*
%TO.P,U2,16*%
%TO.N,Net-(R3-Pad1)*%
X69000000Y-27400000D03*
%TO.P,U2,15*%
%TO.N,GND*%
X71000000Y-27400000D03*
D13*
%TO.P,U2,14*%
%TO.N,Net-(U2-Pad14)*%
X72500000Y-30000000D03*
%TO.P,U2,13*%
%TO.N,Net-(U2-Pad13)*%
X72500000Y-32000000D03*
%TO.P,U2,12*%
%TO.N,Net-(U2-Pad12)*%
X72500000Y-34000000D03*
%TO.P,U2,11*%
%TO.N,Net-(U2-Pad11)*%
X72500000Y-36000000D03*
%TO.P,U2,10*%
%TO.N,Net-(U2-Pad10)*%
X72500000Y-38000000D03*
%TO.P,U2,9*%
%TO.N,Net-(U2-Pad9)*%
X72500000Y-40000000D03*
D12*
%TO.P,U2,8*%
%TO.N,+3V3*%
X71000000Y-42600000D03*
%TO.P,U2,7*%
%TO.N,Net-(SW1-Pad1)*%
X69000000Y-42600000D03*
%TO.P,U2,6*%
%TO.N,Net-(U2-Pad6)*%
X67000000Y-42600000D03*
%TO.P,U2,5*%
%TO.N,Net-(R8-Pad1)*%
X65000000Y-42600000D03*
%TO.P,U2,4*%
%TO.N,Net-(U2-Pad1)*%
X63000000Y-42600000D03*
%TO.P,U2,3*%
%TO.N,+3V3*%
X61000000Y-42600000D03*
%TO.P,U2,2*%
%TO.N,Net-(U2-Pad2)*%
X59000000Y-42600000D03*
%TO.P,U2,1*%
%TO.N,Net-(U2-Pad1)*%
X57000000Y-42600000D03*
%TD*%
D14*
%TO.P,SW1,2*%
%TO.N,GND*%
X83200000Y-41750000D03*
%TO.P,SW1,1*%
%TO.N,Net-(SW1-Pad1)*%
X75400000Y-41750000D03*
%TD*%
%TO.P,R13,2*%
%TO.N,Net-(J2-Pad3)*%
%TA.AperFunction,SMDPad,CuDef*%
G36*
G01*
X77490000Y-38100000D02*
X77490000Y-37900000D01*
G75*
G02*
X77590000Y-37800000I100000J0D01*
G01*
X78025000Y-37800000D01*
G75*
G02*
X78125000Y-37900000I0J-100000D01*
G01*
X78125000Y-38100000D01*
G75*
G02*
X78025000Y-38200000I-100000J0D01*
G01*
X77590000Y-38200000D01*
G75*
G02*
X77490000Y-38100000I0J100000D01*
G01*
G37*
%TD.AperFunction*%
%TO.P,R13,1*%
%TO.N,GND*%
%TA.AperFunction,SMDPad,CuDef*%
G36*
G01*
X76675000Y-38100000D02*
X76675000Y-37900000D01*
G75*
G02*
X76775000Y-37800000I100000J0D01*
G01*
X77210000Y-37800000D01*
G75*
G02*
X77310000Y-37900000I0J-100000D01*
G01*
X77310000Y-38100000D01*
G75*
G02*
X77210000Y-38200000I-100000J0D01*
G01*
X76775000Y-38200000D01*
G75*
G02*
X76675000Y-38100000I0J100000D01*
G01*
G37*
%TD.AperFunction*%
%TD*%
%TO.P,R9,2*%
%TO.N,/DATA*%
%TA.AperFunction,SMDPad,CuDef*%
G36*
G01*
X79449999Y-28200000D02*
X80350001Y-28200000D01*
G75*
G02*
X80600000Y-28449999I0J-249999D01*
G01*
X80600000Y-29150001D01*
G75*
G02*
X80350001Y-29400000I-249999J0D01*
G01*
X79449999Y-29400000D01*
G75*
G02*
X79200000Y-29150001I0J249999D01*
G01*
X79200000Y-28449999D01*
G75*
G02*
X79449999Y-28200000I249999J0D01*
G01*
G37*
%TD.AperFunction*%
%TO.P,R9,1*%
%TO.N,Net-(R8-Pad1)*%
%TA.AperFunction,SMDPad,CuDef*%
G36*
G01*
X79449999Y-26200000D02*
X80350001Y-26200000D01*
G75*
G02*
X80600000Y-26449999I0J-249999D01*
G01*
X80600000Y-27150001D01*
G75*
G02*
X80350001Y-27400000I-249999J0D01*
G01*
X79449999Y-27400000D01*
G75*
G02*
X79200000Y-27150001I0J249999D01*
G01*
X79200000Y-26449999D01*
G75*
G02*
X79449999Y-26200000I249999J0D01*
G01*
G37*
%TD.AperFunction*%
%TD*%
%TO.P,R8,2*%
%TO.N,Net-(Q1-Pad3)*%
%TA.AperFunction,SMDPad,CuDef*%
G36*
G01*
X77950001Y-27400000D02*
X77049999Y-27400000D01*
G75*
G02*
X76800000Y-27150001I0J249999D01*
G01*
X76800000Y-26449999D01*
G75*
G02*
X77049999Y-26200000I249999J0D01*
G01*
X77950001Y-26200000D01*
G75*
G02*
X78200000Y-26449999I0J-249999D01*
G01*
X78200000Y-27150001D01*
G75*
G02*
X77950001Y-27400000I-249999J0D01*
G01*
G37*
%TD.AperFunction*%
%TO.P,R8,1*%
%TO.N,Net-(R8-Pad1)*%
%TA.AperFunction,SMDPad,CuDef*%
G36*
G01*
X77950001Y-29400000D02*
X77049999Y-29400000D01*
G75*
G02*
X76800000Y-29150001I0J249999D01*
G01*
X76800000Y-28449999D01*
G75*
G02*
X77049999Y-28200000I249999J0D01*
G01*
X77950001Y-28200000D01*
G75*
G02*
X78200000Y-28449999I0J-249999D01*
G01*
X78200000Y-29150001D01*
G75*
G02*
X77950001Y-29400000I-249999J0D01*
G01*
G37*
%TD.AperFunction*%
%TD*%
%TO.P,R7,2*%
%TO.N,Net-(Q1-Pad3)*%
%TA.AperFunction,SMDPad,CuDef*%
G36*
G01*
X75290000Y-38100000D02*
X75290000Y-37900000D01*
G75*
G02*
X75390000Y-37800000I100000J0D01*
G01*
X75825000Y-37800000D01*
G75*
G02*
X75925000Y-37900000I0J-100000D01*
G01*
X75925000Y-38100000D01*
G75*
G02*
X75825000Y-38200000I-100000J0D01*
G01*
X75390000Y-38200000D01*
G75*
G02*
X75290000Y-38100000I0J100000D01*
G01*
G37*
%TD.AperFunction*%
%TO.P,R7,1*%
%TO.N,Net-(R1-Pad1)*%
%TA.AperFunction,SMDPad,CuDef*%
G36*
G01*
X74475000Y-38100000D02*
X74475000Y-37900000D01*
G75*
G02*
X74575000Y-37800000I100000J0D01*
G01*
X75010000Y-37800000D01*
G75*
G02*
X75110000Y-37900000I0J-100000D01*
G01*
X75110000Y-38100000D01*
G75*
G02*
X75010000Y-38200000I-100000J0D01*
G01*
X74575000Y-38200000D01*
G75*
G02*
X74475000Y-38100000I0J100000D01*
G01*
G37*
%TD.AperFunction*%
%TD*%
%TO.P,R3,2*%
%TO.N,GND*%
%TA.AperFunction,SMDPad,CuDef*%
G36*
G01*
X74749999Y-28200000D02*
X75650001Y-28200000D01*
G75*
G02*
X75900000Y-28449999I0J-249999D01*
G01*
X75900000Y-29150001D01*
G75*
G02*
X75650001Y-29400000I-249999J0D01*
G01*
X74749999Y-29400000D01*
G75*
G02*
X74500000Y-29150001I0J249999D01*
G01*
X74500000Y-28449999D01*
G75*
G02*
X74749999Y-28200000I249999J0D01*
G01*
G37*
%TD.AperFunction*%
%TO.P,R3,1*%
%TO.N,Net-(R3-Pad1)*%
%TA.AperFunction,SMDPad,CuDef*%
G36*
G01*
X74749999Y-26200000D02*
X75650001Y-26200000D01*
G75*
G02*
X75900000Y-26449999I0J-249999D01*
G01*
X75900000Y-27150001D01*
G75*
G02*
X75650001Y-27400000I-249999J0D01*
G01*
X74749999Y-27400000D01*
G75*
G02*
X74500000Y-27150001I0J249999D01*
G01*
X74500000Y-26449999D01*
G75*
G02*
X74749999Y-26200000I249999J0D01*
G01*
G37*
%TD.AperFunction*%
%TD*%
D17*
%TO.P,Q1,3*%
%TO.N,Net-(Q1-Pad3)*%
X81900000Y-27900000D03*
%TO.P,Q1,2*%
%TO.N,GND*%
X83900000Y-26950000D03*
%TO.P,Q1,1*%
%TO.N,/DATA*%
X83900000Y-28850000D03*
%TD*%
D10*
%TO.P,J1,1*%
%TO.N,+5V*%
X77100000Y-36300000D03*
%TO.P,J1,5*%
%TO.N,GND*%
X77100000Y-33700000D03*
D11*
%TO.P,J1,*%
%TO.N,*%
X83450000Y-38575000D03*
X83450000Y-31425000D03*
%TD*%
D18*
%TO.N,+3V3*%
X72508000Y-43436700D03*
X122508000Y-43436700D03*
X72508000Y-63436700D03*
X122508000Y-63436700D03*
X122508000Y-83436700D03*
X72508000Y-83436700D03*
X122508000Y-103436700D03*
X72508000Y-103436700D03*
X72508000Y-123436700D03*
X122508000Y-123436700D03*
%TO.N,GND*%
X83507500Y-25918800D03*
X72437000Y-28883200D03*
X79579900Y-39883000D03*
X133507500Y-25918800D03*
X129579900Y-39883000D03*
X122437000Y-28883200D03*
X83507500Y-45918800D03*
X79579900Y-59883000D03*
X72437000Y-48883200D03*
X133507500Y-45918800D03*
X122437000Y-48883200D03*
X129579900Y-59883000D03*
X83507500Y-65918800D03*
X129579900Y-79883000D03*
X79579900Y-79883000D03*
X133507500Y-65918800D03*
X122437000Y-68883200D03*
X72437000Y-68883200D03*
X72437000Y-88883200D03*
X122437000Y-88883200D03*
X79579900Y-99883000D03*
X129579900Y-99883000D03*
X133507500Y-85918800D03*
X83507500Y-85918800D03*
X122437000Y-108883200D03*
X79579900Y-119883000D03*
X129579900Y-119883000D03*
X72437000Y-108883200D03*
X83507500Y-105918800D03*
X133507500Y-105918800D03*
%TO.N,+5V*%
X77162500Y-35390200D03*
X70627200Y-33975100D03*
X127162500Y-35390200D03*
X120627200Y-33975100D03*
X77162500Y-55390200D03*
X70627200Y-53975100D03*
X127162500Y-55390200D03*
X120627200Y-53975100D03*
X127162500Y-75390200D03*
X120627200Y-73975100D03*
X77162500Y-75390200D03*
X70627200Y-73975100D03*
X127162500Y-95390200D03*
X120627200Y-93975100D03*
X77162500Y-95390200D03*
X70627200Y-93975100D03*
X127162500Y-115390200D03*
X120627200Y-113975100D03*
X77162500Y-115390200D03*
X70627200Y-113975100D03*
%TO.N,Net-(C4-Pad1)*%
X56014900Y-31236300D03*
X62565000Y-31317300D03*
X106014900Y-31236300D03*
X112565000Y-31317300D03*
X56014900Y-51236300D03*
X62565000Y-51317300D03*
X112565000Y-51317300D03*
X106014900Y-51236300D03*
X112565000Y-71317300D03*
X106014900Y-71236300D03*
X62565000Y-71317300D03*
X56014900Y-71236300D03*
X106014900Y-91236300D03*
X56014900Y-91236300D03*
X112565000Y-91317300D03*
X62565000Y-91317300D03*
X56014900Y-111236300D03*
X62565000Y-111317300D03*
X112565000Y-111317300D03*
X106014900Y-111236300D03*
%TO.N,/DATA*%
X81215300Y-28917100D03*
X131215300Y-28917100D03*
X81215300Y-48917100D03*
X131215300Y-48917100D03*
X131215300Y-68917100D03*
X81215300Y-68917100D03*
X81215300Y-88917100D03*
X131215300Y-88917100D03*
X131215300Y-108917100D03*
X81215300Y-108917100D03*
%TO.N,Net-(Q1-Pad3)*%
X80834600Y-39660700D03*
X78486200Y-25783500D03*
X130834600Y-39660700D03*
X128486200Y-25783500D03*
X80834600Y-59660700D03*
X78486200Y-45783500D03*
X128486200Y-45783500D03*
X130834600Y-59660700D03*
X80834600Y-79660700D03*
X78486200Y-65783500D03*
X130834600Y-79660700D03*
X128486200Y-65783500D03*
X78486200Y-85783500D03*
X130834600Y-99660700D03*
X128486200Y-85783500D03*
X80834600Y-99660700D03*
X130834600Y-119660700D03*
X78486200Y-105783500D03*
X128486200Y-105783500D03*
X80834600Y-119660700D03*
%TO.N,Net-(R1-Pad1)*%
X50933600Y-30914400D03*
X100933600Y-30914400D03*
X50933600Y-50914400D03*
X100933600Y-50914400D03*
X100933600Y-70914400D03*
X50933600Y-70914400D03*
X50933600Y-90914400D03*
X100933600Y-90914400D03*
X50933600Y-110914400D03*
X100933600Y-110914400D03*
%TO.N,/UART_RXI*%
X56761000Y-40032900D03*
X66576000Y-40274300D03*
X106761000Y-40032900D03*
X116576000Y-40274300D03*
X56761000Y-60032900D03*
X66576000Y-60274300D03*
X116576000Y-60274300D03*
X106761000Y-60032900D03*
X106761000Y-80032900D03*
X116576000Y-80274300D03*
X56761000Y-80032900D03*
X66576000Y-80274300D03*
X56761000Y-100032900D03*
X106761000Y-100032900D03*
X116576000Y-100274300D03*
X66576000Y-100274300D03*
X56761000Y-120032900D03*
X106761000Y-120032900D03*
X116576000Y-120274300D03*
X66576000Y-120274300D03*
%TO.N,/MBUS_RX*%
X50703500Y-33059700D03*
X63749600Y-39862400D03*
X100703500Y-33059700D03*
X113749600Y-39862400D03*
X50703500Y-53059700D03*
X63749600Y-59862400D03*
X113749600Y-59862400D03*
X100703500Y-53059700D03*
X63749600Y-79862400D03*
X100703500Y-73059700D03*
X113749600Y-79862400D03*
X50703500Y-73059700D03*
X50703500Y-93059700D03*
X113749600Y-99862400D03*
X100703500Y-93059700D03*
X63749600Y-99862400D03*
X63749600Y-119862400D03*
X100703500Y-113059700D03*
X113749600Y-119862400D03*
X50703500Y-113059700D03*
%TO.N,Net-(R18-Pad1)*%
X54614500Y-27400000D03*
X104614500Y-27400000D03*
X54614500Y-47400000D03*
X104614500Y-47400000D03*
X104614500Y-67400000D03*
X54614500Y-67400000D03*
X104614500Y-87400000D03*
X54614500Y-87400000D03*
X104614500Y-107400000D03*
X54614500Y-107400000D03*
%TD*%
D19*
%TO.N,+3V3*%
X71000000Y-43436700D02*
X71000000Y-44175300D01*
X71000000Y-42600000D02*
X71000000Y-43436700D01*
X72508000Y-43436700D02*
X71000000Y-43436700D01*
X71000000Y-44175300D02*
X68365200Y-44175300D01*
X68365200Y-44175300D02*
X67838200Y-43648300D01*
X67838200Y-43648300D02*
X67838200Y-41150700D01*
X67838200Y-41150700D02*
X67712200Y-41024700D01*
X67712200Y-41024700D02*
X64320900Y-41024700D01*
X64320900Y-41024700D02*
X64174600Y-41171000D01*
X64174600Y-41171000D02*
X64174600Y-43648600D01*
X64174600Y-43648600D02*
X63647900Y-44175300D01*
X63647900Y-44175300D02*
X61000000Y-44175300D01*
X61000000Y-42600000D02*
X61000000Y-44175300D01*
X121000000Y-43436700D02*
X121000000Y-44175300D01*
X121000000Y-44175300D02*
X118365200Y-44175300D01*
X118365200Y-44175300D02*
X117838200Y-43648300D01*
X122508000Y-43436700D02*
X121000000Y-43436700D01*
X117838200Y-43648300D02*
X117838200Y-41150700D01*
X117838200Y-41150700D02*
X117712200Y-41024700D01*
X117712200Y-41024700D02*
X114320900Y-41024700D01*
X121000000Y-42600000D02*
X121000000Y-43436700D01*
X114320900Y-41024700D02*
X114174600Y-41171000D01*
X114174600Y-41171000D02*
X114174600Y-43648600D01*
X114174600Y-43648600D02*
X113647900Y-44175300D01*
X113647900Y-44175300D02*
X111000000Y-44175300D01*
X111000000Y-42600000D02*
X111000000Y-44175300D01*
X121000000Y-63436700D02*
X121000000Y-64175300D01*
X117712200Y-61024700D02*
X114320900Y-61024700D01*
X113647900Y-64175300D02*
X111000000Y-64175300D01*
X117838200Y-61150700D02*
X117712200Y-61024700D01*
X117838200Y-63648300D02*
X117838200Y-61150700D01*
X114174600Y-61171000D02*
X114174600Y-63648600D01*
X121000000Y-62600000D02*
X121000000Y-63436700D01*
X121000000Y-64175300D02*
X118365200Y-64175300D01*
X114320900Y-61024700D02*
X114174600Y-61171000D01*
X114174600Y-63648600D02*
X113647900Y-64175300D01*
X118365200Y-64175300D02*
X117838200Y-63648300D01*
X122508000Y-63436700D02*
X121000000Y-63436700D01*
X111000000Y-62600000D02*
X111000000Y-64175300D01*
X71000000Y-63436700D02*
X71000000Y-64175300D01*
X71000000Y-64175300D02*
X68365200Y-64175300D01*
X68365200Y-64175300D02*
X67838200Y-63648300D01*
X72508000Y-63436700D02*
X71000000Y-63436700D01*
X67838200Y-63648300D02*
X67838200Y-61150700D01*
X67838200Y-61150700D02*
X67712200Y-61024700D01*
X67712200Y-61024700D02*
X64320900Y-61024700D01*
X71000000Y-62600000D02*
X71000000Y-63436700D01*
X64320900Y-61024700D02*
X64174600Y-61171000D01*
X64174600Y-61171000D02*
X64174600Y-63648600D01*
X64174600Y-63648600D02*
X63647900Y-64175300D01*
X63647900Y-64175300D02*
X61000000Y-64175300D01*
X61000000Y-62600000D02*
X61000000Y-64175300D01*
X64320900Y-81024700D02*
X64174600Y-81171000D01*
X64174600Y-83648600D02*
X63647900Y-84175300D01*
X72508000Y-83436700D02*
X71000000Y-83436700D01*
X71000000Y-84175300D02*
X68365200Y-84175300D01*
X67712200Y-81024700D02*
X64320900Y-81024700D01*
X63647900Y-84175300D02*
X61000000Y-84175300D01*
X71000000Y-82600000D02*
X71000000Y-83436700D01*
X67838200Y-81150700D02*
X67712200Y-81024700D01*
X64174600Y-81171000D02*
X64174600Y-83648600D01*
X67838200Y-83648300D02*
X67838200Y-81150700D01*
X71000000Y-83436700D02*
X71000000Y-84175300D01*
X68365200Y-84175300D02*
X67838200Y-83648300D01*
X61000000Y-82600000D02*
X61000000Y-84175300D01*
X122508000Y-83436700D02*
X121000000Y-83436700D01*
X117838200Y-81150700D02*
X117712200Y-81024700D01*
X117838200Y-83648300D02*
X117838200Y-81150700D01*
X114174600Y-81171000D02*
X114174600Y-83648600D01*
X121000000Y-83436700D02*
X121000000Y-84175300D01*
X121000000Y-82600000D02*
X121000000Y-83436700D01*
X121000000Y-84175300D02*
X118365200Y-84175300D01*
X118365200Y-84175300D02*
X117838200Y-83648300D01*
X114174600Y-83648600D02*
X113647900Y-84175300D01*
X113647900Y-84175300D02*
X111000000Y-84175300D01*
X114320900Y-81024700D02*
X114174600Y-81171000D01*
X117712200Y-81024700D02*
X114320900Y-81024700D01*
X111000000Y-82600000D02*
X111000000Y-84175300D01*
X72508000Y-103436700D02*
X71000000Y-103436700D01*
X64320900Y-101024700D02*
X64174600Y-101171000D01*
X63647900Y-104175300D02*
X61000000Y-104175300D01*
X68365200Y-104175300D02*
X67838200Y-103648300D01*
X67712200Y-101024700D02*
X64320900Y-101024700D01*
X71000000Y-104175300D02*
X68365200Y-104175300D01*
X64174600Y-101171000D02*
X64174600Y-103648600D01*
X64174600Y-103648600D02*
X63647900Y-104175300D01*
X67838200Y-103648300D02*
X67838200Y-101150700D01*
X67838200Y-101150700D02*
X67712200Y-101024700D01*
X71000000Y-102600000D02*
X71000000Y-103436700D01*
X71000000Y-103436700D02*
X71000000Y-104175300D01*
X61000000Y-102600000D02*
X61000000Y-104175300D01*
X121000000Y-104175300D02*
X118365200Y-104175300D01*
X117838200Y-103648300D02*
X117838200Y-101150700D01*
X118365200Y-104175300D02*
X117838200Y-103648300D01*
X117838200Y-101150700D02*
X117712200Y-101024700D01*
X121000000Y-102600000D02*
X121000000Y-103436700D01*
X114174600Y-101171000D02*
X114174600Y-103648600D01*
X114174600Y-103648600D02*
X113647900Y-104175300D01*
X121000000Y-103436700D02*
X121000000Y-104175300D01*
X113647900Y-104175300D02*
X111000000Y-104175300D01*
X122508000Y-103436700D02*
X121000000Y-103436700D01*
X114320900Y-101024700D02*
X114174600Y-101171000D01*
X117712200Y-101024700D02*
X114320900Y-101024700D01*
X111000000Y-102600000D02*
X111000000Y-104175300D01*
X63647900Y-124175300D02*
X61000000Y-124175300D01*
X72508000Y-123436700D02*
X71000000Y-123436700D01*
X64320900Y-121024700D02*
X64174600Y-121171000D01*
X68365200Y-124175300D02*
X67838200Y-123648300D01*
X67838200Y-121150700D02*
X67712200Y-121024700D01*
X64174600Y-123648600D02*
X63647900Y-124175300D01*
X71000000Y-122600000D02*
X71000000Y-123436700D01*
X64174600Y-121171000D02*
X64174600Y-123648600D01*
X67712200Y-121024700D02*
X64320900Y-121024700D01*
X71000000Y-124175300D02*
X68365200Y-124175300D01*
X67838200Y-123648300D02*
X67838200Y-121150700D01*
X71000000Y-123436700D02*
X71000000Y-124175300D01*
X121000000Y-122600000D02*
X121000000Y-123436700D01*
X117838200Y-123648300D02*
X117838200Y-121150700D01*
X121000000Y-124175300D02*
X118365200Y-124175300D01*
X118365200Y-124175300D02*
X117838200Y-123648300D01*
X114174600Y-123648600D02*
X113647900Y-124175300D01*
X114174600Y-121171000D02*
X114174600Y-123648600D01*
X117838200Y-121150700D02*
X117712200Y-121024700D01*
X122508000Y-123436700D02*
X121000000Y-123436700D01*
X117712200Y-121024700D02*
X114320900Y-121024700D01*
X114320900Y-121024700D02*
X114174600Y-121171000D01*
X113647900Y-124175300D02*
X111000000Y-124175300D01*
X121000000Y-123436700D02*
X121000000Y-124175300D01*
X111000000Y-122600000D02*
X111000000Y-124175300D01*
X61000000Y-122600000D02*
X61000000Y-124175300D01*
%TO.N,GND*%
X83900000Y-26950000D02*
X83900000Y-26224700D01*
X83900000Y-26224700D02*
X83813400Y-26224700D01*
X83813400Y-26224700D02*
X83507500Y-25918800D01*
X78267400Y-38525800D02*
X78850500Y-37942700D01*
X78850500Y-37942700D02*
X78850500Y-35450500D01*
X78850500Y-35450500D02*
X77100000Y-33700000D01*
X78267400Y-38525800D02*
X77410500Y-38525800D01*
X77410500Y-38525800D02*
X76992500Y-38107800D01*
X76992500Y-38107800D02*
X76992500Y-38000000D01*
X79579900Y-39883000D02*
X78267400Y-38570500D01*
X78267400Y-38570500D02*
X78267400Y-38525800D01*
X82124700Y-41750000D02*
X81446900Y-41750000D01*
X81446900Y-41750000D02*
X79579900Y-39883000D01*
X75200000Y-28800000D02*
X72520200Y-28800000D01*
X72520200Y-28800000D02*
X72437000Y-28883200D01*
X71000000Y-27400000D02*
X71000000Y-28975300D01*
X72437000Y-28883200D02*
X72344900Y-28975300D01*
X72344900Y-28975300D02*
X71000000Y-28975300D01*
X83200000Y-41750000D02*
X82124700Y-41750000D01*
X133900000Y-26224700D02*
X133813400Y-26224700D01*
X133900000Y-26950000D02*
X133900000Y-26224700D01*
X131446900Y-41750000D02*
X129579900Y-39883000D01*
X133813400Y-26224700D02*
X133507500Y-25918800D01*
X128267400Y-38525800D02*
X127410500Y-38525800D01*
X128267400Y-38525800D02*
X128850500Y-37942700D01*
X125200000Y-28800000D02*
X122520200Y-28800000D01*
X122437000Y-28883200D02*
X122344900Y-28975300D01*
X129579900Y-39883000D02*
X128267400Y-38570500D01*
X126992500Y-38107800D02*
X126992500Y-38000000D01*
X122344900Y-28975300D02*
X121000000Y-28975300D01*
X133200000Y-41750000D02*
X132124700Y-41750000D01*
X122520200Y-28800000D02*
X122437000Y-28883200D01*
X128267400Y-38570500D02*
X128267400Y-38525800D01*
X128850500Y-37942700D02*
X128850500Y-35450500D01*
X128850500Y-35450500D02*
X127100000Y-33700000D01*
X121000000Y-27400000D02*
X121000000Y-28975300D01*
X127410500Y-38525800D02*
X126992500Y-38107800D01*
X132124700Y-41750000D02*
X131446900Y-41750000D01*
X122520200Y-48800000D02*
X122437000Y-48883200D01*
X128267400Y-58570500D02*
X128267400Y-58525800D01*
X122344900Y-48975300D02*
X121000000Y-48975300D01*
X133813400Y-46224700D02*
X133507500Y-45918800D01*
X133900000Y-46224700D02*
X133813400Y-46224700D01*
X131446900Y-61750000D02*
X129579900Y-59883000D01*
X125200000Y-48800000D02*
X122520200Y-48800000D01*
X128267400Y-58525800D02*
X128850500Y-57942700D01*
X133900000Y-46950000D02*
X133900000Y-46224700D01*
X122437000Y-48883200D02*
X122344900Y-48975300D01*
X133200000Y-61750000D02*
X132124700Y-61750000D01*
X128267400Y-58525800D02*
X127410500Y-58525800D01*
X129579900Y-59883000D02*
X128267400Y-58570500D01*
X126992500Y-58107800D02*
X126992500Y-58000000D01*
X128850500Y-55450500D02*
X127100000Y-53700000D01*
X128850500Y-57942700D02*
X128850500Y-55450500D01*
X121000000Y-47400000D02*
X121000000Y-48975300D01*
X127410500Y-58525800D02*
X126992500Y-58107800D01*
X132124700Y-61750000D02*
X131446900Y-61750000D01*
X83900000Y-46224700D02*
X83813400Y-46224700D01*
X83900000Y-46950000D02*
X83900000Y-46224700D01*
X81446900Y-61750000D02*
X79579900Y-59883000D01*
X83813400Y-46224700D02*
X83507500Y-45918800D01*
X78267400Y-58525800D02*
X77410500Y-58525800D01*
X78267400Y-58525800D02*
X78850500Y-57942700D01*
X75200000Y-48800000D02*
X72520200Y-48800000D01*
X72437000Y-48883200D02*
X72344900Y-48975300D01*
X79579900Y-59883000D02*
X78267400Y-58570500D01*
X76992500Y-58107800D02*
X76992500Y-58000000D01*
X72344900Y-48975300D02*
X71000000Y-48975300D01*
X83200000Y-61750000D02*
X82124700Y-61750000D01*
X72520200Y-48800000D02*
X72437000Y-48883200D01*
X78267400Y-58570500D02*
X78267400Y-58525800D01*
X78850500Y-57942700D02*
X78850500Y-55450500D01*
X78850500Y-55450500D02*
X77100000Y-53700000D01*
X71000000Y-47400000D02*
X71000000Y-48975300D01*
X77410500Y-58525800D02*
X76992500Y-58107800D01*
X82124700Y-61750000D02*
X81446900Y-61750000D01*
X83900000Y-66950000D02*
X83900000Y-66224700D01*
X81446900Y-81750000D02*
X79579900Y-79883000D01*
X83813400Y-66224700D02*
X83507500Y-65918800D01*
X78267400Y-78525800D02*
X77410500Y-78525800D01*
X78267400Y-78525800D02*
X78850500Y-77942700D01*
X75200000Y-68800000D02*
X72520200Y-68800000D01*
X83900000Y-66224700D02*
X83813400Y-66224700D01*
X78850500Y-77942700D02*
X78850500Y-75450500D01*
X78267400Y-78570500D02*
X78267400Y-78525800D01*
X71000000Y-67400000D02*
X71000000Y-68975300D01*
X72344900Y-68975300D02*
X71000000Y-68975300D01*
X79579900Y-79883000D02*
X78267400Y-78570500D01*
X83200000Y-81750000D02*
X82124700Y-81750000D01*
X72520200Y-68800000D02*
X72437000Y-68883200D01*
X77410500Y-78525800D02*
X76992500Y-78107800D01*
X72437000Y-68883200D02*
X72344900Y-68975300D01*
X78850500Y-75450500D02*
X77100000Y-73700000D01*
X82124700Y-81750000D02*
X81446900Y-81750000D01*
X76992500Y-78107800D02*
X76992500Y-78000000D01*
X122344900Y-68975300D02*
X121000000Y-68975300D01*
X128267400Y-78525800D02*
X128850500Y-77942700D01*
X133900000Y-66224700D02*
X133813400Y-66224700D01*
X128267400Y-78570500D02*
X128267400Y-78525800D01*
X133200000Y-81750000D02*
X132124700Y-81750000D01*
X128267400Y-78525800D02*
X127410500Y-78525800D01*
X129579900Y-79883000D02*
X128267400Y-78570500D01*
X131446900Y-81750000D02*
X129579900Y-79883000D01*
X122520200Y-68800000D02*
X122437000Y-68883200D01*
X126992500Y-78107800D02*
X126992500Y-78000000D01*
X125200000Y-68800000D02*
X122520200Y-68800000D01*
X133900000Y-66950000D02*
X133900000Y-66224700D01*
X122437000Y-68883200D02*
X122344900Y-68975300D01*
X133813400Y-66224700D02*
X133507500Y-65918800D01*
X132124700Y-81750000D02*
X131446900Y-81750000D01*
X127410500Y-78525800D02*
X126992500Y-78107800D01*
X128850500Y-77942700D02*
X128850500Y-75450500D01*
X128850500Y-75450500D02*
X127100000Y-73700000D01*
X121000000Y-67400000D02*
X121000000Y-68975300D01*
X83900000Y-86950000D02*
X83900000Y-86224700D01*
X81446900Y-101750000D02*
X79579900Y-99883000D01*
X75200000Y-88800000D02*
X72520200Y-88800000D01*
X79579900Y-99883000D02*
X78267400Y-98570500D01*
X83900000Y-86224700D02*
X83813400Y-86224700D01*
X78267400Y-98525800D02*
X77410500Y-98525800D01*
X78850500Y-97942700D02*
X78850500Y-95450500D01*
X78267400Y-98525800D02*
X78850500Y-97942700D01*
X78267400Y-98570500D02*
X78267400Y-98525800D01*
X83813400Y-86224700D02*
X83507500Y-85918800D01*
X71000000Y-87400000D02*
X71000000Y-88975300D01*
X72344900Y-88975300D02*
X71000000Y-88975300D01*
X83200000Y-101750000D02*
X82124700Y-101750000D01*
X78850500Y-95450500D02*
X77100000Y-93700000D01*
X77410500Y-98525800D02*
X76992500Y-98107800D01*
X72520200Y-88800000D02*
X72437000Y-88883200D01*
X72437000Y-88883200D02*
X72344900Y-88975300D01*
X82124700Y-101750000D02*
X81446900Y-101750000D01*
X76992500Y-98107800D02*
X76992500Y-98000000D01*
X128267400Y-98570500D02*
X128267400Y-98525800D01*
X133900000Y-86224700D02*
X133813400Y-86224700D01*
X122344900Y-88975300D02*
X121000000Y-88975300D01*
X128267400Y-98525800D02*
X127410500Y-98525800D01*
X131446900Y-101750000D02*
X129579900Y-99883000D01*
X122520200Y-88800000D02*
X122437000Y-88883200D01*
X129579900Y-99883000D02*
X128267400Y-98570500D01*
X126992500Y-98107800D02*
X126992500Y-98000000D01*
X128267400Y-98525800D02*
X128850500Y-97942700D01*
X133200000Y-101750000D02*
X132124700Y-101750000D01*
X132124700Y-101750000D02*
X131446900Y-101750000D01*
X125200000Y-88800000D02*
X122520200Y-88800000D01*
X133813400Y-86224700D02*
X133507500Y-85918800D01*
X127410500Y-98525800D02*
X126992500Y-98107800D01*
X128850500Y-97942700D02*
X128850500Y-95450500D01*
X122437000Y-88883200D02*
X122344900Y-88975300D01*
X133900000Y-86950000D02*
X133900000Y-86224700D01*
X128850500Y-95450500D02*
X127100000Y-93700000D01*
X121000000Y-87400000D02*
X121000000Y-88975300D01*
X83900000Y-106950000D02*
X83900000Y-106224700D01*
X82124700Y-121750000D02*
X81446900Y-121750000D01*
X72437000Y-108883200D02*
X72344900Y-108975300D01*
X72520200Y-108800000D02*
X72437000Y-108883200D01*
X76992500Y-118107800D02*
X76992500Y-118000000D01*
X83200000Y-121750000D02*
X82124700Y-121750000D01*
X78850500Y-115450500D02*
X77100000Y-113700000D01*
X77410500Y-118525800D02*
X76992500Y-118107800D01*
X128267400Y-118525800D02*
X127410500Y-118525800D01*
X131446900Y-121750000D02*
X129579900Y-119883000D01*
X122520200Y-108800000D02*
X122437000Y-108883200D01*
X128267400Y-118570500D02*
X128267400Y-118525800D01*
X129579900Y-119883000D02*
X128267400Y-118570500D01*
X122344900Y-108975300D02*
X121000000Y-108975300D01*
X133900000Y-106224700D02*
X133813400Y-106224700D01*
X133200000Y-121750000D02*
X132124700Y-121750000D01*
X132124700Y-121750000D02*
X131446900Y-121750000D01*
X133813400Y-106224700D02*
X133507500Y-105918800D01*
X125200000Y-108800000D02*
X122520200Y-108800000D01*
X127410500Y-118525800D02*
X126992500Y-118107800D01*
X126992500Y-118107800D02*
X126992500Y-118000000D01*
X128267400Y-118525800D02*
X128850500Y-117942700D01*
X121000000Y-107400000D02*
X121000000Y-108975300D01*
X122437000Y-108883200D02*
X122344900Y-108975300D01*
X128850500Y-115450500D02*
X127100000Y-113700000D01*
X133900000Y-106950000D02*
X133900000Y-106224700D01*
X128850500Y-117942700D02*
X128850500Y-115450500D01*
X81446900Y-121750000D02*
X79579900Y-119883000D01*
X79579900Y-119883000D02*
X78267400Y-118570500D01*
X75200000Y-108800000D02*
X72520200Y-108800000D01*
X78267400Y-118525800D02*
X77410500Y-118525800D01*
X83900000Y-106224700D02*
X83813400Y-106224700D01*
X72344900Y-108975300D02*
X71000000Y-108975300D01*
X78267400Y-118525800D02*
X78850500Y-117942700D01*
X83813400Y-106224700D02*
X83507500Y-105918800D01*
X78850500Y-117942700D02*
X78850500Y-115450500D01*
X78267400Y-118570500D02*
X78267400Y-118525800D01*
X71000000Y-107400000D02*
X71000000Y-108975300D01*
%TO.N,+5V*%
X70627200Y-33975100D02*
X52831100Y-33975100D01*
X52831100Y-33975100D02*
X50856000Y-32000000D01*
X50856000Y-32000000D02*
X46250000Y-32000000D01*
X77100000Y-36300000D02*
X77100000Y-35452700D01*
X77100000Y-35452700D02*
X77162500Y-35390200D01*
X102831100Y-33975100D02*
X100856000Y-32000000D01*
X100856000Y-32000000D02*
X96250000Y-32000000D01*
X127100000Y-36300000D02*
X127100000Y-35452700D01*
X120627200Y-33975100D02*
X102831100Y-33975100D01*
X127100000Y-35452700D02*
X127162500Y-35390200D01*
X102831100Y-53975100D02*
X100856000Y-52000000D01*
X120627200Y-53975100D02*
X102831100Y-53975100D01*
X100856000Y-52000000D02*
X96250000Y-52000000D01*
X127100000Y-56300000D02*
X127100000Y-55452700D01*
X127100000Y-55452700D02*
X127162500Y-55390200D01*
X52831100Y-53975100D02*
X50856000Y-52000000D01*
X50856000Y-52000000D02*
X46250000Y-52000000D01*
X77100000Y-56300000D02*
X77100000Y-55452700D01*
X70627200Y-53975100D02*
X52831100Y-53975100D01*
X77100000Y-55452700D02*
X77162500Y-55390200D01*
X50856000Y-72000000D02*
X46250000Y-72000000D01*
X77100000Y-76300000D02*
X77100000Y-75452700D01*
X52831100Y-73975100D02*
X50856000Y-72000000D01*
X77100000Y-75452700D02*
X77162500Y-75390200D01*
X70627200Y-73975100D02*
X52831100Y-73975100D01*
X102831100Y-73975100D02*
X100856000Y-72000000D01*
X120627200Y-73975100D02*
X102831100Y-73975100D01*
X100856000Y-72000000D02*
X96250000Y-72000000D01*
X127100000Y-76300000D02*
X127100000Y-75452700D01*
X127100000Y-75452700D02*
X127162500Y-75390200D01*
X50856000Y-92000000D02*
X46250000Y-92000000D01*
X77100000Y-95452700D02*
X77162500Y-95390200D01*
X77100000Y-96300000D02*
X77100000Y-95452700D01*
X52831100Y-93975100D02*
X50856000Y-92000000D01*
X70627200Y-93975100D02*
X52831100Y-93975100D01*
X120627200Y-93975100D02*
X102831100Y-93975100D01*
X100856000Y-92000000D02*
X96250000Y-92000000D01*
X102831100Y-93975100D02*
X100856000Y-92000000D01*
X127100000Y-96300000D02*
X127100000Y-95452700D01*
X127100000Y-95452700D02*
X127162500Y-95390200D01*
X70627200Y-113975100D02*
X52831100Y-113975100D01*
X120627200Y-113975100D02*
X102831100Y-113975100D01*
X100856000Y-112000000D02*
X96250000Y-112000000D01*
X102831100Y-113975100D02*
X100856000Y-112000000D01*
X127100000Y-116300000D02*
X127100000Y-115452700D01*
X127100000Y-115452700D02*
X127162500Y-115390200D01*
X50856000Y-112000000D02*
X46250000Y-112000000D01*
X52831100Y-113975100D02*
X50856000Y-112000000D01*
X77100000Y-115452700D02*
X77162500Y-115390200D01*
X77100000Y-116300000D02*
X77100000Y-115452700D01*
%TO.N,Net-(C4-Pad1)*%
X56014900Y-31236300D02*
X56095900Y-31317300D01*
X56095900Y-31317300D02*
X62565000Y-31317300D01*
X106014900Y-31236300D02*
X106095900Y-31317300D01*
X106095900Y-31317300D02*
X112565000Y-31317300D01*
X106014900Y-51236300D02*
X106095900Y-51317300D01*
X106095900Y-51317300D02*
X112565000Y-51317300D01*
X56014900Y-51236300D02*
X56095900Y-51317300D01*
X56095900Y-51317300D02*
X62565000Y-51317300D01*
X56095900Y-71317300D02*
X62565000Y-71317300D01*
X56014900Y-71236300D02*
X56095900Y-71317300D01*
X106014900Y-71236300D02*
X106095900Y-71317300D01*
X106095900Y-71317300D02*
X112565000Y-71317300D01*
X56095900Y-91317300D02*
X62565000Y-91317300D01*
X56014900Y-91236300D02*
X56095900Y-91317300D01*
X106014900Y-91236300D02*
X106095900Y-91317300D01*
X106095900Y-91317300D02*
X112565000Y-91317300D01*
X56014900Y-111236300D02*
X56095900Y-111317300D01*
X56095900Y-111317300D02*
X62565000Y-111317300D01*
X106014900Y-111236300D02*
X106095900Y-111317300D01*
X106095900Y-111317300D02*
X112565000Y-111317300D01*
%TO.N,/DATA*%
X83900000Y-28850000D02*
X81282400Y-28850000D01*
X81282400Y-28850000D02*
X81215300Y-28917100D01*
X81215300Y-28917100D02*
X80017100Y-28917100D01*
X80017100Y-28917100D02*
X79900000Y-28800000D01*
X130017100Y-28917100D02*
X129900000Y-28800000D01*
X133900000Y-28850000D02*
X131282400Y-28850000D01*
X131215300Y-28917100D02*
X130017100Y-28917100D01*
X131282400Y-28850000D02*
X131215300Y-28917100D01*
X131215300Y-48917100D02*
X130017100Y-48917100D01*
X130017100Y-48917100D02*
X129900000Y-48800000D01*
X133900000Y-48850000D02*
X131282400Y-48850000D01*
X131282400Y-48850000D02*
X131215300Y-48917100D01*
X80017100Y-48917100D02*
X79900000Y-48800000D01*
X83900000Y-48850000D02*
X81282400Y-48850000D01*
X81215300Y-48917100D02*
X80017100Y-48917100D01*
X81282400Y-48850000D02*
X81215300Y-48917100D01*
X81215300Y-68917100D02*
X80017100Y-68917100D01*
X80017100Y-68917100D02*
X79900000Y-68800000D01*
X81282400Y-68850000D02*
X81215300Y-68917100D01*
X83900000Y-68850000D02*
X81282400Y-68850000D01*
X130017100Y-68917100D02*
X129900000Y-68800000D01*
X133900000Y-68850000D02*
X131282400Y-68850000D01*
X131282400Y-68850000D02*
X131215300Y-68917100D01*
X131215300Y-68917100D02*
X130017100Y-68917100D01*
X81282400Y-88850000D02*
X81215300Y-88917100D01*
X81215300Y-88917100D02*
X80017100Y-88917100D01*
X80017100Y-88917100D02*
X79900000Y-88800000D01*
X83900000Y-88850000D02*
X81282400Y-88850000D01*
X131215300Y-88917100D02*
X130017100Y-88917100D01*
X133900000Y-88850000D02*
X131282400Y-88850000D01*
X131282400Y-88850000D02*
X131215300Y-88917100D01*
X130017100Y-88917100D02*
X129900000Y-88800000D01*
X80017100Y-108917100D02*
X79900000Y-108800000D01*
X81282400Y-108850000D02*
X81215300Y-108917100D01*
X81215300Y-108917100D02*
X80017100Y-108917100D01*
X83900000Y-108850000D02*
X81282400Y-108850000D01*
X131215300Y-108917100D02*
X130017100Y-108917100D01*
X133900000Y-108850000D02*
X131282400Y-108850000D01*
X130017100Y-108917100D02*
X129900000Y-108800000D01*
X131282400Y-108850000D02*
X131215300Y-108917100D01*
%TO.N,Net-(J2-Pad3)*%
X46250000Y-34540000D02*
X59453100Y-34540000D01*
X59453100Y-34540000D02*
X63738500Y-38825400D01*
X63738500Y-38825400D02*
X75725900Y-38825400D01*
X75725900Y-38825400D02*
X76309700Y-38241600D01*
X76309700Y-38241600D02*
X76309700Y-37739400D01*
X76309700Y-37739400D02*
X76630900Y-37418200D01*
X76630900Y-37418200D02*
X77380200Y-37418200D01*
X77380200Y-37418200D02*
X77807500Y-37845500D01*
X77807500Y-37845500D02*
X77807500Y-38000000D01*
X109453100Y-34540000D02*
X113738500Y-38825400D01*
X126309700Y-37739400D02*
X126630900Y-37418200D01*
X126630900Y-37418200D02*
X127380200Y-37418200D01*
X127807500Y-37845500D02*
X127807500Y-38000000D01*
X126309700Y-38241600D02*
X126309700Y-37739400D01*
X113738500Y-38825400D02*
X125725900Y-38825400D01*
X125725900Y-38825400D02*
X126309700Y-38241600D01*
X127380200Y-37418200D02*
X127807500Y-37845500D01*
X96250000Y-34540000D02*
X109453100Y-34540000D01*
X126309700Y-57739400D02*
X126630900Y-57418200D01*
X109453100Y-54540000D02*
X113738500Y-58825400D01*
X113738500Y-58825400D02*
X125725900Y-58825400D01*
X127807500Y-57845500D02*
X127807500Y-58000000D01*
X126630900Y-57418200D02*
X127380200Y-57418200D01*
X126309700Y-58241600D02*
X126309700Y-57739400D01*
X125725900Y-58825400D02*
X126309700Y-58241600D01*
X96250000Y-54540000D02*
X109453100Y-54540000D01*
X127380200Y-57418200D02*
X127807500Y-57845500D01*
X59453100Y-54540000D02*
X63738500Y-58825400D01*
X76309700Y-57739400D02*
X76630900Y-57418200D01*
X76630900Y-57418200D02*
X77380200Y-57418200D01*
X77807500Y-57845500D02*
X77807500Y-58000000D01*
X76309700Y-58241600D02*
X76309700Y-57739400D01*
X63738500Y-58825400D02*
X75725900Y-58825400D01*
X75725900Y-58825400D02*
X76309700Y-58241600D01*
X77380200Y-57418200D02*
X77807500Y-57845500D01*
X46250000Y-54540000D02*
X59453100Y-54540000D01*
X59453100Y-74540000D02*
X63738500Y-78825400D01*
X76309700Y-77739400D02*
X76630900Y-77418200D01*
X76630900Y-77418200D02*
X77380200Y-77418200D01*
X63738500Y-78825400D02*
X75725900Y-78825400D01*
X77380200Y-77418200D02*
X77807500Y-77845500D01*
X75725900Y-78825400D02*
X76309700Y-78241600D01*
X46250000Y-74540000D02*
X59453100Y-74540000D01*
X77807500Y-77845500D02*
X77807500Y-78000000D01*
X76309700Y-78241600D02*
X76309700Y-77739400D01*
X126630900Y-77418200D02*
X127380200Y-77418200D01*
X126309700Y-77739400D02*
X126630900Y-77418200D01*
X113738500Y-78825400D02*
X125725900Y-78825400D01*
X109453100Y-74540000D02*
X113738500Y-78825400D01*
X127807500Y-77845500D02*
X127807500Y-78000000D01*
X126309700Y-78241600D02*
X126309700Y-77739400D01*
X127380200Y-77418200D02*
X127807500Y-77845500D01*
X96250000Y-74540000D02*
X109453100Y-74540000D01*
X125725900Y-78825400D02*
X126309700Y-78241600D01*
X76630900Y-97418200D02*
X77380200Y-97418200D01*
X59453100Y-94540000D02*
X63738500Y-98825400D01*
X76309700Y-97739400D02*
X76630900Y-97418200D01*
X77380200Y-97418200D02*
X77807500Y-97845500D01*
X46250000Y-94540000D02*
X59453100Y-94540000D01*
X75725900Y-98825400D02*
X76309700Y-98241600D01*
X77807500Y-97845500D02*
X77807500Y-98000000D01*
X63738500Y-98825400D02*
X75725900Y-98825400D01*
X76309700Y-98241600D02*
X76309700Y-97739400D01*
X126309700Y-97739400D02*
X126630900Y-97418200D01*
X113738500Y-98825400D02*
X125725900Y-98825400D01*
X109453100Y-94540000D02*
X113738500Y-98825400D01*
X126630900Y-97418200D02*
X127380200Y-97418200D01*
X127807500Y-97845500D02*
X127807500Y-98000000D01*
X127380200Y-97418200D02*
X127807500Y-97845500D01*
X126309700Y-98241600D02*
X126309700Y-97739400D01*
X125725900Y-98825400D02*
X126309700Y-98241600D01*
X96250000Y-94540000D02*
X109453100Y-94540000D01*
X77380200Y-117418200D02*
X77807500Y-117845500D01*
X59453100Y-114540000D02*
X63738500Y-118825400D01*
X76309700Y-117739400D02*
X76630900Y-117418200D01*
X76630900Y-117418200D02*
X77380200Y-117418200D01*
X46250000Y-114540000D02*
X59453100Y-114540000D01*
X76309700Y-118241600D02*
X76309700Y-117739400D01*
X75725900Y-118825400D02*
X76309700Y-118241600D01*
X77807500Y-117845500D02*
X77807500Y-118000000D01*
X63738500Y-118825400D02*
X75725900Y-118825400D01*
X126309700Y-117739400D02*
X126630900Y-117418200D01*
X113738500Y-118825400D02*
X125725900Y-118825400D01*
X127380200Y-117418200D02*
X127807500Y-117845500D01*
X127807500Y-117845500D02*
X127807500Y-118000000D01*
X126309700Y-118241600D02*
X126309700Y-117739400D01*
X125725900Y-118825400D02*
X126309700Y-118241600D01*
X126630900Y-117418200D02*
X127380200Y-117418200D01*
X109453100Y-114540000D02*
X113738500Y-118825400D01*
X96250000Y-114540000D02*
X109453100Y-114540000D01*
%TO.N,/TRIGGER*%
X61000000Y-27400000D02*
X61000000Y-25824700D01*
X43710000Y-33270000D02*
X43710000Y-32559200D01*
X43710000Y-32559200D02*
X50444500Y-25824700D01*
X50444500Y-25824700D02*
X61000000Y-25824700D01*
X111000000Y-27400000D02*
X111000000Y-25824700D01*
X93710000Y-33270000D02*
X93710000Y-32559200D01*
X100444500Y-25824700D02*
X111000000Y-25824700D01*
X93710000Y-32559200D02*
X100444500Y-25824700D01*
X93710000Y-52559200D02*
X100444500Y-45824700D01*
X111000000Y-47400000D02*
X111000000Y-45824700D01*
X100444500Y-45824700D02*
X111000000Y-45824700D01*
X93710000Y-53270000D02*
X93710000Y-52559200D01*
X61000000Y-47400000D02*
X61000000Y-45824700D01*
X43710000Y-53270000D02*
X43710000Y-52559200D01*
X50444500Y-45824700D02*
X61000000Y-45824700D01*
X43710000Y-52559200D02*
X50444500Y-45824700D01*
X50444500Y-65824700D02*
X61000000Y-65824700D01*
X43710000Y-73270000D02*
X43710000Y-72559200D01*
X43710000Y-72559200D02*
X50444500Y-65824700D01*
X61000000Y-67400000D02*
X61000000Y-65824700D01*
X93710000Y-73270000D02*
X93710000Y-72559200D01*
X100444500Y-65824700D02*
X111000000Y-65824700D01*
X93710000Y-72559200D02*
X100444500Y-65824700D01*
X111000000Y-67400000D02*
X111000000Y-65824700D01*
X50444500Y-85824700D02*
X61000000Y-85824700D01*
X43710000Y-93270000D02*
X43710000Y-92559200D01*
X61000000Y-87400000D02*
X61000000Y-85824700D01*
X43710000Y-92559200D02*
X50444500Y-85824700D01*
X93710000Y-93270000D02*
X93710000Y-92559200D01*
X100444500Y-85824700D02*
X111000000Y-85824700D01*
X93710000Y-92559200D02*
X100444500Y-85824700D01*
X111000000Y-87400000D02*
X111000000Y-85824700D01*
X43710000Y-113270000D02*
X43710000Y-112559200D01*
X50444500Y-105824700D02*
X61000000Y-105824700D01*
X61000000Y-107400000D02*
X61000000Y-105824700D01*
X43710000Y-112559200D02*
X50444500Y-105824700D01*
X93710000Y-113270000D02*
X93710000Y-112559200D01*
X100444500Y-105824700D02*
X111000000Y-105824700D01*
X93710000Y-112559200D02*
X100444500Y-105824700D01*
X111000000Y-107400000D02*
X111000000Y-105824700D01*
%TO.N,Net-(Q1-Pad3)*%
X78486200Y-25869300D02*
X78486200Y-25783500D01*
X80834600Y-39660700D02*
X80834600Y-35202300D01*
X80834600Y-35202300D02*
X78706900Y-33074600D01*
X78706900Y-33074600D02*
X75534700Y-33074600D01*
X75534700Y-33074600D02*
X75349200Y-33260100D01*
X75349200Y-33260100D02*
X75349200Y-37123500D01*
X75349200Y-37123500D02*
X75607500Y-37381800D01*
X75607500Y-37381800D02*
X75607500Y-38000000D01*
X78486200Y-25869300D02*
X78430700Y-25869300D01*
X78430700Y-25869300D02*
X77500000Y-26800000D01*
X81124700Y-27900000D02*
X81124700Y-26385700D01*
X81124700Y-26385700D02*
X80608300Y-25869300D01*
X80608300Y-25869300D02*
X78486200Y-25869300D01*
X81900000Y-27900000D02*
X81124700Y-27900000D01*
X128486200Y-25869300D02*
X128486200Y-25783500D01*
X130834600Y-39660700D02*
X130834600Y-35202300D01*
X130834600Y-35202300D02*
X128706900Y-33074600D01*
X125349200Y-33260100D02*
X125349200Y-37123500D01*
X125534700Y-33074600D02*
X125349200Y-33260100D01*
X125349200Y-37123500D02*
X125607500Y-37381800D01*
X125607500Y-37381800D02*
X125607500Y-38000000D01*
X131124700Y-27900000D02*
X131124700Y-26385700D01*
X131124700Y-26385700D02*
X130608300Y-25869300D01*
X128706900Y-33074600D02*
X125534700Y-33074600D01*
X130608300Y-25869300D02*
X128486200Y-25869300D01*
X128486200Y-25869300D02*
X128430700Y-25869300D01*
X131900000Y-27900000D02*
X131124700Y-27900000D01*
X128430700Y-25869300D02*
X127500000Y-26800000D01*
X131900000Y-47900000D02*
X131124700Y-47900000D01*
X131124700Y-47900000D02*
X131124700Y-46385700D01*
X125349200Y-53260100D02*
X125349200Y-57123500D01*
X131124700Y-46385700D02*
X130608300Y-45869300D01*
X125349200Y-57123500D02*
X125607500Y-57381800D01*
X125607500Y-57381800D02*
X125607500Y-58000000D01*
X130834600Y-55202300D02*
X128706900Y-53074600D01*
X125534700Y-53074600D02*
X125349200Y-53260100D01*
X130834600Y-59660700D02*
X130834600Y-55202300D01*
X128706900Y-53074600D02*
X125534700Y-53074600D01*
X128486200Y-45869300D02*
X128486200Y-45783500D01*
X128486200Y-45869300D02*
X128430700Y-45869300D01*
X130608300Y-45869300D02*
X128486200Y-45869300D01*
X128430700Y-45869300D02*
X127500000Y-46800000D01*
X78486200Y-45869300D02*
X78486200Y-45783500D01*
X80834600Y-59660700D02*
X80834600Y-55202300D01*
X80834600Y-55202300D02*
X78706900Y-53074600D01*
X75349200Y-53260100D02*
X75349200Y-57123500D01*
X75534700Y-53074600D02*
X75349200Y-53260100D01*
X75349200Y-57123500D02*
X75607500Y-57381800D01*
X75607500Y-57381800D02*
X75607500Y-58000000D01*
X81124700Y-47900000D02*
X81124700Y-46385700D01*
X81124700Y-46385700D02*
X80608300Y-45869300D01*
X78706900Y-53074600D02*
X75534700Y-53074600D01*
X80608300Y-45869300D02*
X78486200Y-45869300D01*
X78486200Y-45869300D02*
X78430700Y-45869300D01*
X81900000Y-47900000D02*
X81124700Y-47900000D01*
X78430700Y-45869300D02*
X77500000Y-46800000D01*
X78486200Y-65869300D02*
X78486200Y-65783500D01*
X80834600Y-75202300D02*
X78706900Y-73074600D01*
X75349200Y-73260100D02*
X75349200Y-77123500D01*
X80834600Y-79660700D02*
X80834600Y-75202300D01*
X75534700Y-73074600D02*
X75349200Y-73260100D01*
X80608300Y-65869300D02*
X78486200Y-65869300D01*
X81900000Y-67900000D02*
X81124700Y-67900000D01*
X78430700Y-65869300D02*
X77500000Y-66800000D01*
X75349200Y-77123500D02*
X75607500Y-77381800D01*
X81124700Y-66385700D02*
X80608300Y-65869300D01*
X78706900Y-73074600D02*
X75534700Y-73074600D01*
X78486200Y-65869300D02*
X78430700Y-65869300D01*
X81124700Y-67900000D02*
X81124700Y-66385700D01*
X75607500Y-77381800D02*
X75607500Y-78000000D01*
X128486200Y-65869300D02*
X128486200Y-65783500D01*
X130834600Y-75202300D02*
X128706900Y-73074600D01*
X125534700Y-73074600D02*
X125349200Y-73260100D01*
X131124700Y-67900000D02*
X131124700Y-66385700D01*
X131900000Y-67900000D02*
X131124700Y-67900000D01*
X125607500Y-77381800D02*
X125607500Y-78000000D01*
X128706900Y-73074600D02*
X125534700Y-73074600D01*
X131124700Y-66385700D02*
X130608300Y-65869300D01*
X130834600Y-79660700D02*
X130834600Y-75202300D01*
X125349200Y-77123500D02*
X125607500Y-77381800D01*
X125349200Y-73260100D02*
X125349200Y-77123500D01*
X128486200Y-65869300D02*
X128430700Y-65869300D01*
X128430700Y-65869300D02*
X127500000Y-66800000D01*
X130608300Y-65869300D02*
X128486200Y-65869300D01*
X78486200Y-85869300D02*
X78486200Y-85783500D01*
X75349200Y-93260100D02*
X75349200Y-97123500D01*
X80608300Y-85869300D02*
X78486200Y-85869300D01*
X80834600Y-95202300D02*
X78706900Y-93074600D01*
X80834600Y-99660700D02*
X80834600Y-95202300D01*
X81900000Y-87900000D02*
X81124700Y-87900000D01*
X81124700Y-86385700D02*
X80608300Y-85869300D01*
X78706900Y-93074600D02*
X75534700Y-93074600D01*
X75534700Y-93074600D02*
X75349200Y-93260100D01*
X75349200Y-97123500D02*
X75607500Y-97381800D01*
X78430700Y-85869300D02*
X77500000Y-86800000D01*
X75607500Y-97381800D02*
X75607500Y-98000000D01*
X81124700Y-87900000D02*
X81124700Y-86385700D01*
X78486200Y-85869300D02*
X78430700Y-85869300D01*
X125349200Y-97123500D02*
X125607500Y-97381800D01*
X131124700Y-87900000D02*
X131124700Y-86385700D01*
X125534700Y-93074600D02*
X125349200Y-93260100D01*
X131124700Y-86385700D02*
X130608300Y-85869300D01*
X130834600Y-99660700D02*
X130834600Y-95202300D01*
X128706900Y-93074600D02*
X125534700Y-93074600D01*
X128486200Y-85869300D02*
X128486200Y-85783500D01*
X130834600Y-95202300D02*
X128706900Y-93074600D01*
X131900000Y-87900000D02*
X131124700Y-87900000D01*
X125607500Y-97381800D02*
X125607500Y-98000000D01*
X128430700Y-85869300D02*
X127500000Y-86800000D01*
X130608300Y-85869300D02*
X128486200Y-85869300D01*
X128486200Y-85869300D02*
X128430700Y-85869300D01*
X125349200Y-93260100D02*
X125349200Y-97123500D01*
X80834600Y-119660700D02*
X80834600Y-115202300D01*
X75349200Y-113260100D02*
X75349200Y-117123500D01*
X80834600Y-115202300D02*
X78706900Y-113074600D01*
X81900000Y-107900000D02*
X81124700Y-107900000D01*
X81124700Y-106385700D02*
X80608300Y-105869300D01*
X78486200Y-105869300D02*
X78486200Y-105783500D01*
X80608300Y-105869300D02*
X78486200Y-105869300D01*
X75349200Y-117123500D02*
X75607500Y-117381800D01*
X75534700Y-113074600D02*
X75349200Y-113260100D01*
X78706900Y-113074600D02*
X75534700Y-113074600D01*
X78430700Y-105869300D02*
X77500000Y-106800000D01*
X75607500Y-117381800D02*
X75607500Y-118000000D01*
X81124700Y-107900000D02*
X81124700Y-106385700D01*
X78486200Y-105869300D02*
X78430700Y-105869300D01*
X130834600Y-119660700D02*
X130834600Y-115202300D01*
X131124700Y-107900000D02*
X131124700Y-106385700D01*
X125534700Y-113074600D02*
X125349200Y-113260100D01*
X125349200Y-117123500D02*
X125607500Y-117381800D01*
X131124700Y-106385700D02*
X130608300Y-105869300D01*
X128706900Y-113074600D02*
X125534700Y-113074600D01*
X130834600Y-115202300D02*
X128706900Y-113074600D01*
X125607500Y-117381800D02*
X125607500Y-118000000D01*
X130608300Y-105869300D02*
X128486200Y-105869300D01*
X131900000Y-107900000D02*
X131124700Y-107900000D01*
X128430700Y-105869300D02*
X127500000Y-106800000D01*
X128486200Y-105869300D02*
X128486200Y-105783500D01*
X125349200Y-113260100D02*
X125349200Y-117123500D01*
X128486200Y-105869300D02*
X128430700Y-105869300D01*
%TO.N,Net-(R1-Pad2)*%
X59000000Y-27400000D02*
X59000000Y-28975300D01*
X59000000Y-28975300D02*
X61440300Y-28975300D01*
X61440300Y-28975300D02*
X63325200Y-30860200D01*
X63325200Y-30860200D02*
X73513100Y-30860200D01*
X73513100Y-30860200D02*
X74418800Y-29954500D01*
X74418800Y-29954500D02*
X75212600Y-29954500D01*
X75212600Y-29954500D02*
X75607500Y-30349400D01*
X75607500Y-30349400D02*
X75607500Y-30500000D01*
X125212600Y-29954500D02*
X125607500Y-30349400D01*
X125607500Y-30349400D02*
X125607500Y-30500000D01*
X109000000Y-28975300D02*
X111440300Y-28975300D01*
X111440300Y-28975300D02*
X113325200Y-30860200D01*
X113325200Y-30860200D02*
X123513100Y-30860200D01*
X123513100Y-30860200D02*
X124418800Y-29954500D01*
X124418800Y-29954500D02*
X125212600Y-29954500D01*
X109000000Y-27400000D02*
X109000000Y-28975300D01*
X109000000Y-48975300D02*
X111440300Y-48975300D01*
X125212600Y-49954500D02*
X125607500Y-50349400D01*
X125607500Y-50349400D02*
X125607500Y-50500000D01*
X111440300Y-48975300D02*
X113325200Y-50860200D01*
X123513100Y-50860200D02*
X124418800Y-49954500D01*
X113325200Y-50860200D02*
X123513100Y-50860200D01*
X109000000Y-47400000D02*
X109000000Y-48975300D01*
X124418800Y-49954500D02*
X125212600Y-49954500D01*
X75212600Y-49954500D02*
X75607500Y-50349400D01*
X75607500Y-50349400D02*
X75607500Y-50500000D01*
X59000000Y-48975300D02*
X61440300Y-48975300D01*
X61440300Y-48975300D02*
X63325200Y-50860200D01*
X63325200Y-50860200D02*
X73513100Y-50860200D01*
X73513100Y-50860200D02*
X74418800Y-49954500D01*
X74418800Y-49954500D02*
X75212600Y-49954500D01*
X59000000Y-47400000D02*
X59000000Y-48975300D01*
X75212600Y-69954500D02*
X75607500Y-70349400D01*
X75607500Y-70349400D02*
X75607500Y-70500000D01*
X61440300Y-68975300D02*
X63325200Y-70860200D01*
X63325200Y-70860200D02*
X73513100Y-70860200D01*
X73513100Y-70860200D02*
X74418800Y-69954500D01*
X59000000Y-67400000D02*
X59000000Y-68975300D01*
X74418800Y-69954500D02*
X75212600Y-69954500D01*
X59000000Y-68975300D02*
X61440300Y-68975300D01*
X125212600Y-69954500D02*
X125607500Y-70349400D01*
X109000000Y-68975300D02*
X111440300Y-68975300D01*
X123513100Y-70860200D02*
X124418800Y-69954500D01*
X111440300Y-68975300D02*
X113325200Y-70860200D01*
X125607500Y-70349400D02*
X125607500Y-70500000D01*
X113325200Y-70860200D02*
X123513100Y-70860200D01*
X124418800Y-69954500D02*
X125212600Y-69954500D01*
X109000000Y-67400000D02*
X109000000Y-68975300D01*
X75607500Y-90349400D02*
X75607500Y-90500000D01*
X75212600Y-89954500D02*
X75607500Y-90349400D01*
X61440300Y-88975300D02*
X63325200Y-90860200D01*
X63325200Y-90860200D02*
X73513100Y-90860200D01*
X73513100Y-90860200D02*
X74418800Y-89954500D01*
X59000000Y-88975300D02*
X61440300Y-88975300D01*
X59000000Y-87400000D02*
X59000000Y-88975300D01*
X74418800Y-89954500D02*
X75212600Y-89954500D01*
X125607500Y-90349400D02*
X125607500Y-90500000D01*
X125212600Y-89954500D02*
X125607500Y-90349400D01*
X111440300Y-88975300D02*
X113325200Y-90860200D01*
X109000000Y-88975300D02*
X111440300Y-88975300D01*
X123513100Y-90860200D02*
X124418800Y-89954500D01*
X113325200Y-90860200D02*
X123513100Y-90860200D01*
X124418800Y-89954500D02*
X125212600Y-89954500D01*
X109000000Y-87400000D02*
X109000000Y-88975300D01*
X61440300Y-108975300D02*
X63325200Y-110860200D01*
X63325200Y-110860200D02*
X73513100Y-110860200D01*
X75212600Y-109954500D02*
X75607500Y-110349400D01*
X75607500Y-110349400D02*
X75607500Y-110500000D01*
X59000000Y-107400000D02*
X59000000Y-108975300D01*
X73513100Y-110860200D02*
X74418800Y-109954500D01*
X59000000Y-108975300D02*
X61440300Y-108975300D01*
X74418800Y-109954500D02*
X75212600Y-109954500D01*
X125212600Y-109954500D02*
X125607500Y-110349400D01*
X111440300Y-108975300D02*
X113325200Y-110860200D01*
X125607500Y-110349400D02*
X125607500Y-110500000D01*
X123513100Y-110860200D02*
X124418800Y-109954500D01*
X109000000Y-108975300D02*
X111440300Y-108975300D01*
X124418800Y-109954500D02*
X125212600Y-109954500D01*
X113325200Y-110860200D02*
X123513100Y-110860200D01*
X109000000Y-107400000D02*
X109000000Y-108975300D01*
%TO.N,Net-(R1-Pad1)*%
X73867100Y-32825400D02*
X52844600Y-32825400D01*
X52844600Y-32825400D02*
X50933600Y-30914400D01*
X74792500Y-31900000D02*
X73867100Y-32825400D01*
X74792500Y-38000000D02*
X74792500Y-33750800D01*
X74792500Y-33750800D02*
X73867100Y-32825400D01*
X74792500Y-30500000D02*
X74792500Y-31900000D01*
X102844600Y-32825400D02*
X100933600Y-30914400D01*
X124792500Y-33750800D02*
X123867100Y-32825400D01*
X124792500Y-38000000D02*
X124792500Y-33750800D01*
X123867100Y-32825400D02*
X102844600Y-32825400D01*
X124792500Y-31900000D02*
X123867100Y-32825400D01*
X124792500Y-30500000D02*
X124792500Y-31900000D01*
X124792500Y-51900000D02*
X123867100Y-52825400D01*
X102844600Y-52825400D02*
X100933600Y-50914400D01*
X124792500Y-58000000D02*
X124792500Y-53750800D01*
X124792500Y-53750800D02*
X123867100Y-52825400D01*
X123867100Y-52825400D02*
X102844600Y-52825400D01*
X124792500Y-50500000D02*
X124792500Y-51900000D01*
X52844600Y-52825400D02*
X50933600Y-50914400D01*
X74792500Y-53750800D02*
X73867100Y-52825400D01*
X74792500Y-58000000D02*
X74792500Y-53750800D01*
X73867100Y-52825400D02*
X52844600Y-52825400D01*
X74792500Y-51900000D02*
X73867100Y-52825400D01*
X74792500Y-50500000D02*
X74792500Y-51900000D01*
X52844600Y-72825400D02*
X50933600Y-70914400D01*
X74792500Y-73750800D02*
X73867100Y-72825400D01*
X73867100Y-72825400D02*
X52844600Y-72825400D01*
X74792500Y-71900000D02*
X73867100Y-72825400D01*
X74792500Y-70500000D02*
X74792500Y-71900000D01*
X74792500Y-78000000D02*
X74792500Y-73750800D01*
X124792500Y-78000000D02*
X124792500Y-73750800D01*
X124792500Y-71900000D02*
X123867100Y-72825400D01*
X123867100Y-72825400D02*
X102844600Y-72825400D01*
X102844600Y-72825400D02*
X100933600Y-70914400D01*
X124792500Y-73750800D02*
X123867100Y-72825400D01*
X124792500Y-70500000D02*
X124792500Y-71900000D01*
X52844600Y-92825400D02*
X50933600Y-90914400D01*
X74792500Y-93750800D02*
X73867100Y-92825400D01*
X73867100Y-92825400D02*
X52844600Y-92825400D01*
X74792500Y-91900000D02*
X73867100Y-92825400D01*
X74792500Y-98000000D02*
X74792500Y-93750800D01*
X74792500Y-90500000D02*
X74792500Y-91900000D01*
X124792500Y-98000000D02*
X124792500Y-93750800D01*
X124792500Y-91900000D02*
X123867100Y-92825400D01*
X102844600Y-92825400D02*
X100933600Y-90914400D01*
X123867100Y-92825400D02*
X102844600Y-92825400D01*
X124792500Y-93750800D02*
X123867100Y-92825400D01*
X124792500Y-90500000D02*
X124792500Y-91900000D01*
X74792500Y-118000000D02*
X74792500Y-113750800D01*
X74792500Y-113750800D02*
X73867100Y-112825400D01*
X73867100Y-112825400D02*
X52844600Y-112825400D01*
X52844600Y-112825400D02*
X50933600Y-110914400D01*
X74792500Y-111900000D02*
X73867100Y-112825400D01*
X74792500Y-110500000D02*
X74792500Y-111900000D01*
X124792500Y-111900000D02*
X123867100Y-112825400D01*
X124792500Y-118000000D02*
X124792500Y-113750800D01*
X102844600Y-112825400D02*
X100933600Y-110914400D01*
X124792500Y-113750800D02*
X123867100Y-112825400D01*
X123867100Y-112825400D02*
X102844600Y-112825400D01*
X124792500Y-110500000D02*
X124792500Y-111900000D01*
%TO.N,Net-(R2-Pad2)*%
X63000000Y-27400000D02*
X63000000Y-25824700D01*
X63000000Y-25824700D02*
X63489300Y-25335400D01*
X63489300Y-25335400D02*
X75361900Y-25335400D01*
X75361900Y-25335400D02*
X76257200Y-26230700D01*
X76257200Y-26230700D02*
X76257200Y-31250300D01*
X76257200Y-31250300D02*
X75607500Y-31900000D01*
X113000000Y-27400000D02*
X113000000Y-25824700D01*
X113000000Y-25824700D02*
X113489300Y-25335400D01*
X126257200Y-26230700D02*
X126257200Y-31250300D01*
X126257200Y-31250300D02*
X125607500Y-31900000D01*
X125361900Y-25335400D02*
X126257200Y-26230700D01*
X113489300Y-25335400D02*
X125361900Y-25335400D01*
X126257200Y-51250300D02*
X125607500Y-51900000D01*
X113000000Y-47400000D02*
X113000000Y-45824700D01*
X126257200Y-46230700D02*
X126257200Y-51250300D01*
X113000000Y-45824700D02*
X113489300Y-45335400D01*
X113489300Y-45335400D02*
X125361900Y-45335400D01*
X125361900Y-45335400D02*
X126257200Y-46230700D01*
X63000000Y-47400000D02*
X63000000Y-45824700D01*
X63000000Y-45824700D02*
X63489300Y-45335400D01*
X76257200Y-46230700D02*
X76257200Y-51250300D01*
X76257200Y-51250300D02*
X75607500Y-51900000D01*
X75361900Y-45335400D02*
X76257200Y-46230700D01*
X63489300Y-45335400D02*
X75361900Y-45335400D01*
X125361900Y-65335400D02*
X126257200Y-66230700D01*
X63000000Y-67400000D02*
X63000000Y-65824700D01*
X63000000Y-65824700D02*
X63489300Y-65335400D01*
X75361900Y-65335400D02*
X76257200Y-66230700D01*
X76257200Y-66230700D02*
X76257200Y-71250300D01*
X76257200Y-71250300D02*
X75607500Y-71900000D01*
X63489300Y-65335400D02*
X75361900Y-65335400D01*
X126257200Y-71250300D02*
X125607500Y-71900000D01*
X126257200Y-66230700D02*
X126257200Y-71250300D01*
X113000000Y-65824700D02*
X113489300Y-65335400D01*
X113000000Y-67400000D02*
X113000000Y-65824700D01*
X113489300Y-65335400D02*
X125361900Y-65335400D01*
X125361900Y-85335400D02*
X126257200Y-86230700D01*
X63000000Y-85824700D02*
X63489300Y-85335400D01*
X63000000Y-87400000D02*
X63000000Y-85824700D01*
X75361900Y-85335400D02*
X76257200Y-86230700D01*
X76257200Y-86230700D02*
X76257200Y-91250300D01*
X76257200Y-91250300D02*
X75607500Y-91900000D01*
X63489300Y-85335400D02*
X75361900Y-85335400D01*
X126257200Y-86230700D02*
X126257200Y-91250300D01*
X113000000Y-85824700D02*
X113489300Y-85335400D01*
X126257200Y-91250300D02*
X125607500Y-91900000D01*
X113000000Y-87400000D02*
X113000000Y-85824700D01*
X113489300Y-85335400D02*
X125361900Y-85335400D01*
X125361900Y-105335400D02*
X126257200Y-106230700D01*
X75361900Y-105335400D02*
X76257200Y-106230700D01*
X63000000Y-107400000D02*
X63000000Y-105824700D01*
X76257200Y-106230700D02*
X76257200Y-111250300D01*
X63000000Y-105824700D02*
X63489300Y-105335400D01*
X76257200Y-111250300D02*
X75607500Y-111900000D01*
X63489300Y-105335400D02*
X75361900Y-105335400D01*
X113000000Y-105824700D02*
X113489300Y-105335400D01*
X126257200Y-111250300D02*
X125607500Y-111900000D01*
X126257200Y-106230700D02*
X126257200Y-111250300D01*
X113000000Y-107400000D02*
X113000000Y-105824700D01*
X113489300Y-105335400D02*
X125361900Y-105335400D01*
%TO.N,Net-(R3-Pad1)*%
X69000000Y-27400000D02*
X69000000Y-25824700D01*
X75200000Y-26800000D02*
X74224700Y-25824700D01*
X74224700Y-25824700D02*
X69000000Y-25824700D01*
X125200000Y-26800000D02*
X124224700Y-25824700D01*
X119000000Y-27400000D02*
X119000000Y-25824700D01*
X124224700Y-25824700D02*
X119000000Y-25824700D01*
X119000000Y-47400000D02*
X119000000Y-45824700D01*
X125200000Y-46800000D02*
X124224700Y-45824700D01*
X124224700Y-45824700D02*
X119000000Y-45824700D01*
X75200000Y-46800000D02*
X74224700Y-45824700D01*
X69000000Y-47400000D02*
X69000000Y-45824700D01*
X74224700Y-45824700D02*
X69000000Y-45824700D01*
X75200000Y-66800000D02*
X74224700Y-65824700D01*
X74224700Y-65824700D02*
X69000000Y-65824700D01*
X69000000Y-67400000D02*
X69000000Y-65824700D01*
X125200000Y-66800000D02*
X124224700Y-65824700D01*
X119000000Y-67400000D02*
X119000000Y-65824700D01*
X124224700Y-65824700D02*
X119000000Y-65824700D01*
X75200000Y-86800000D02*
X74224700Y-85824700D01*
X74224700Y-85824700D02*
X69000000Y-85824700D01*
X69000000Y-87400000D02*
X69000000Y-85824700D01*
X125200000Y-86800000D02*
X124224700Y-85824700D01*
X119000000Y-87400000D02*
X119000000Y-85824700D01*
X124224700Y-85824700D02*
X119000000Y-85824700D01*
X75200000Y-106800000D02*
X74224700Y-105824700D01*
X69000000Y-107400000D02*
X69000000Y-105824700D01*
X74224700Y-105824700D02*
X69000000Y-105824700D01*
X119000000Y-107400000D02*
X119000000Y-105824700D01*
X125200000Y-106800000D02*
X124224700Y-105824700D01*
X124224700Y-105824700D02*
X119000000Y-105824700D01*
%TO.N,Net-(R8-Pad1)*%
X77900000Y-28800000D02*
X79900000Y-26800000D01*
X77500000Y-28800000D02*
X77900000Y-28800000D01*
X77900000Y-28800000D02*
X81560000Y-32460000D01*
X81560000Y-32460000D02*
X81560000Y-38377900D01*
X81560000Y-38377900D02*
X83036100Y-39854000D01*
X83036100Y-39854000D02*
X83268600Y-39854000D01*
X83268600Y-39854000D02*
X84275400Y-40860800D01*
X84275400Y-40860800D02*
X84275400Y-42702600D01*
X84275400Y-42702600D02*
X82313400Y-44664600D01*
X82313400Y-44664600D02*
X65489300Y-44664600D01*
X65489300Y-44664600D02*
X65000000Y-44175300D01*
X65000000Y-42600000D02*
X65000000Y-44175300D01*
X127500000Y-28800000D02*
X127900000Y-28800000D01*
X115489300Y-44664600D02*
X115000000Y-44175300D01*
X115000000Y-42600000D02*
X115000000Y-44175300D01*
X131560000Y-32460000D02*
X131560000Y-38377900D01*
X127900000Y-28800000D02*
X129900000Y-26800000D01*
X131560000Y-38377900D02*
X133036100Y-39854000D01*
X133036100Y-39854000D02*
X133268600Y-39854000D01*
X133268600Y-39854000D02*
X134275400Y-40860800D01*
X127900000Y-28800000D02*
X131560000Y-32460000D01*
X134275400Y-40860800D02*
X134275400Y-42702600D01*
X134275400Y-42702600D02*
X132313400Y-44664600D01*
X132313400Y-44664600D02*
X115489300Y-44664600D01*
X127900000Y-48800000D02*
X129900000Y-46800000D01*
X131560000Y-52460000D02*
X131560000Y-58377900D01*
X133036100Y-59854000D02*
X133268600Y-59854000D01*
X115000000Y-62600000D02*
X115000000Y-64175300D01*
X127900000Y-48800000D02*
X131560000Y-52460000D01*
X115489300Y-64664600D02*
X115000000Y-64175300D01*
X127500000Y-48800000D02*
X127900000Y-48800000D01*
X133268600Y-59854000D02*
X134275400Y-60860800D01*
X131560000Y-58377900D02*
X133036100Y-59854000D01*
X134275400Y-60860800D02*
X134275400Y-62702600D01*
X134275400Y-62702600D02*
X132313400Y-64664600D01*
X132313400Y-64664600D02*
X115489300Y-64664600D01*
X77500000Y-48800000D02*
X77900000Y-48800000D01*
X65489300Y-64664600D02*
X65000000Y-64175300D01*
X65000000Y-62600000D02*
X65000000Y-64175300D01*
X81560000Y-52460000D02*
X81560000Y-58377900D01*
X77900000Y-48800000D02*
X79900000Y-46800000D01*
X81560000Y-58377900D02*
X83036100Y-59854000D01*
X83036100Y-59854000D02*
X83268600Y-59854000D01*
X83268600Y-59854000D02*
X84275400Y-60860800D01*
X77900000Y-48800000D02*
X81560000Y-52460000D01*
X84275400Y-60860800D02*
X84275400Y-62702600D01*
X84275400Y-62702600D02*
X82313400Y-64664600D01*
X82313400Y-64664600D02*
X65489300Y-64664600D01*
X77500000Y-68800000D02*
X77900000Y-68800000D01*
X65000000Y-82600000D02*
X65000000Y-84175300D01*
X65489300Y-84664600D02*
X65000000Y-84175300D01*
X82313400Y-84664600D02*
X65489300Y-84664600D01*
X84275400Y-80860800D02*
X84275400Y-82702600D01*
X83268600Y-79854000D02*
X84275400Y-80860800D01*
X77900000Y-68800000D02*
X79900000Y-66800000D01*
X84275400Y-82702600D02*
X82313400Y-84664600D01*
X77900000Y-68800000D02*
X81560000Y-72460000D01*
X81560000Y-78377900D02*
X83036100Y-79854000D01*
X81560000Y-72460000D02*
X81560000Y-78377900D01*
X83036100Y-79854000D02*
X83268600Y-79854000D01*
X115000000Y-82600000D02*
X115000000Y-84175300D01*
X133036100Y-79854000D02*
X133268600Y-79854000D01*
X127900000Y-68800000D02*
X131560000Y-72460000D01*
X127900000Y-68800000D02*
X129900000Y-66800000D01*
X115489300Y-84664600D02*
X115000000Y-84175300D01*
X127500000Y-68800000D02*
X127900000Y-68800000D01*
X133268600Y-79854000D02*
X134275400Y-80860800D01*
X131560000Y-72460000D02*
X131560000Y-78377900D01*
X131560000Y-78377900D02*
X133036100Y-79854000D01*
X134275400Y-80860800D02*
X134275400Y-82702600D01*
X134275400Y-82702600D02*
X132313400Y-84664600D01*
X132313400Y-84664600D02*
X115489300Y-84664600D01*
X77500000Y-88800000D02*
X77900000Y-88800000D01*
X65489300Y-104664600D02*
X65000000Y-104175300D01*
X82313400Y-104664600D02*
X65489300Y-104664600D01*
X65000000Y-102600000D02*
X65000000Y-104175300D01*
X77900000Y-88800000D02*
X79900000Y-86800000D01*
X77900000Y-88800000D02*
X81560000Y-92460000D01*
X83268600Y-99854000D02*
X84275400Y-100860800D01*
X84275400Y-102702600D02*
X82313400Y-104664600D01*
X81560000Y-98377900D02*
X83036100Y-99854000D01*
X84275400Y-100860800D02*
X84275400Y-102702600D01*
X81560000Y-92460000D02*
X81560000Y-98377900D01*
X83036100Y-99854000D02*
X83268600Y-99854000D01*
X115489300Y-104664600D02*
X115000000Y-104175300D01*
X127500000Y-88800000D02*
X127900000Y-88800000D01*
X133268600Y-99854000D02*
X134275400Y-100860800D01*
X127900000Y-88800000D02*
X129900000Y-86800000D01*
X131560000Y-92460000D02*
X131560000Y-98377900D01*
X127900000Y-88800000D02*
X131560000Y-92460000D01*
X115000000Y-102600000D02*
X115000000Y-104175300D01*
X133036100Y-99854000D02*
X133268600Y-99854000D01*
X134275400Y-100860800D02*
X134275400Y-102702600D01*
X131560000Y-98377900D02*
X133036100Y-99854000D01*
X134275400Y-102702600D02*
X132313400Y-104664600D01*
X132313400Y-104664600D02*
X115489300Y-104664600D01*
X77500000Y-108800000D02*
X77900000Y-108800000D01*
X77900000Y-108800000D02*
X81560000Y-112460000D01*
X77900000Y-108800000D02*
X79900000Y-106800000D01*
X65000000Y-122600000D02*
X65000000Y-124175300D01*
X65489300Y-124664600D02*
X65000000Y-124175300D01*
X82313400Y-124664600D02*
X65489300Y-124664600D01*
X81560000Y-118377900D02*
X83036100Y-119854000D01*
X83268600Y-119854000D02*
X84275400Y-120860800D01*
X81560000Y-112460000D02*
X81560000Y-118377900D01*
X83036100Y-119854000D02*
X83268600Y-119854000D01*
X84275400Y-120860800D02*
X84275400Y-122702600D01*
X84275400Y-122702600D02*
X82313400Y-124664600D01*
X115489300Y-124664600D02*
X115000000Y-124175300D01*
X133268600Y-119854000D02*
X134275400Y-120860800D01*
X127500000Y-108800000D02*
X127900000Y-108800000D01*
X127900000Y-108800000D02*
X131560000Y-112460000D01*
X133036100Y-119854000D02*
X133268600Y-119854000D01*
X131560000Y-118377900D02*
X133036100Y-119854000D01*
X134275400Y-120860800D02*
X134275400Y-122702600D01*
X131560000Y-112460000D02*
X131560000Y-118377900D01*
X127900000Y-108800000D02*
X129900000Y-106800000D01*
X115000000Y-122600000D02*
X115000000Y-124175300D01*
X132313400Y-124664600D02*
X115489300Y-124664600D01*
X134275400Y-122702600D02*
X132313400Y-124664600D01*
%TO.N,Net-(SW1-Pad1)*%
X69000000Y-42600000D02*
X69000000Y-41024700D01*
X75400000Y-41750000D02*
X74324700Y-41750000D01*
X74324700Y-41750000D02*
X73599400Y-41024700D01*
X73599400Y-41024700D02*
X69000000Y-41024700D01*
X124324700Y-41750000D02*
X123599400Y-41024700D01*
X119000000Y-42600000D02*
X119000000Y-41024700D01*
X123599400Y-41024700D02*
X119000000Y-41024700D01*
X125400000Y-41750000D02*
X124324700Y-41750000D01*
X124324700Y-61750000D02*
X123599400Y-61024700D01*
X123599400Y-61024700D02*
X119000000Y-61024700D01*
X119000000Y-62600000D02*
X119000000Y-61024700D01*
X125400000Y-61750000D02*
X124324700Y-61750000D01*
X74324700Y-61750000D02*
X73599400Y-61024700D01*
X69000000Y-62600000D02*
X69000000Y-61024700D01*
X73599400Y-61024700D02*
X69000000Y-61024700D01*
X75400000Y-61750000D02*
X74324700Y-61750000D01*
X69000000Y-82600000D02*
X69000000Y-81024700D01*
X74324700Y-81750000D02*
X73599400Y-81024700D01*
X75400000Y-81750000D02*
X74324700Y-81750000D01*
X73599400Y-81024700D02*
X69000000Y-81024700D01*
X123599400Y-81024700D02*
X119000000Y-81024700D01*
X119000000Y-82600000D02*
X119000000Y-81024700D01*
X124324700Y-81750000D02*
X123599400Y-81024700D01*
X125400000Y-81750000D02*
X124324700Y-81750000D01*
X69000000Y-102600000D02*
X69000000Y-101024700D01*
X74324700Y-101750000D02*
X73599400Y-101024700D01*
X73599400Y-101024700D02*
X69000000Y-101024700D01*
X75400000Y-101750000D02*
X74324700Y-101750000D01*
X123599400Y-101024700D02*
X119000000Y-101024700D01*
X119000000Y-102600000D02*
X119000000Y-101024700D01*
X125400000Y-101750000D02*
X124324700Y-101750000D01*
X124324700Y-101750000D02*
X123599400Y-101024700D01*
X69000000Y-122600000D02*
X69000000Y-121024700D01*
X74324700Y-121750000D02*
X73599400Y-121024700D01*
X73599400Y-121024700D02*
X69000000Y-121024700D01*
X75400000Y-121750000D02*
X74324700Y-121750000D01*
X123599400Y-121024700D02*
X119000000Y-121024700D01*
X119000000Y-122600000D02*
X119000000Y-121024700D01*
X125400000Y-121750000D02*
X124324700Y-121750000D01*
X124324700Y-121750000D02*
X123599400Y-121024700D01*
%TO.N,Net-(U2-Pad1)*%
X57000000Y-42600000D02*
X57000000Y-41024700D01*
X63000000Y-42600000D02*
X63000000Y-41024700D01*
X63000000Y-41024700D02*
X57000000Y-41024700D01*
X113000000Y-42600000D02*
X113000000Y-41024700D01*
X113000000Y-41024700D02*
X107000000Y-41024700D01*
X107000000Y-42600000D02*
X107000000Y-41024700D01*
X107000000Y-62600000D02*
X107000000Y-61024700D01*
X113000000Y-62600000D02*
X113000000Y-61024700D01*
X113000000Y-61024700D02*
X107000000Y-61024700D01*
X63000000Y-62600000D02*
X63000000Y-61024700D01*
X63000000Y-61024700D02*
X57000000Y-61024700D01*
X57000000Y-62600000D02*
X57000000Y-61024700D01*
X63000000Y-82600000D02*
X63000000Y-81024700D01*
X57000000Y-82600000D02*
X57000000Y-81024700D01*
X63000000Y-81024700D02*
X57000000Y-81024700D01*
X113000000Y-82600000D02*
X113000000Y-81024700D01*
X107000000Y-82600000D02*
X107000000Y-81024700D01*
X113000000Y-81024700D02*
X107000000Y-81024700D01*
X63000000Y-102600000D02*
X63000000Y-101024700D01*
X57000000Y-102600000D02*
X57000000Y-101024700D01*
X63000000Y-101024700D02*
X57000000Y-101024700D01*
X113000000Y-102600000D02*
X113000000Y-101024700D01*
X107000000Y-102600000D02*
X107000000Y-101024700D01*
X113000000Y-101024700D02*
X107000000Y-101024700D01*
X63000000Y-122600000D02*
X63000000Y-121024700D01*
X63000000Y-121024700D02*
X57000000Y-121024700D01*
X57000000Y-122600000D02*
X57000000Y-121024700D01*
X113000000Y-122600000D02*
X113000000Y-121024700D01*
X107000000Y-122600000D02*
X107000000Y-121024700D01*
X113000000Y-121024700D02*
X107000000Y-121024700D01*
%TO.N,/UART_RXI*%
X66576000Y-40274300D02*
X64363500Y-40274300D01*
X64363500Y-40274300D02*
X64050100Y-40587700D01*
X64050100Y-40587700D02*
X63449200Y-40587700D01*
X63449200Y-40587700D02*
X62894400Y-40032900D01*
X62894400Y-40032900D02*
X56761000Y-40032900D01*
X116576000Y-40274300D02*
X114363500Y-40274300D01*
X112894400Y-40032900D02*
X106761000Y-40032900D01*
X114050100Y-40587700D02*
X113449200Y-40587700D01*
X114363500Y-40274300D02*
X114050100Y-40587700D01*
X113449200Y-40587700D02*
X112894400Y-40032900D01*
X114050100Y-60587700D02*
X113449200Y-60587700D01*
X116576000Y-60274300D02*
X114363500Y-60274300D01*
X113449200Y-60587700D02*
X112894400Y-60032900D01*
X112894400Y-60032900D02*
X106761000Y-60032900D01*
X114363500Y-60274300D02*
X114050100Y-60587700D01*
X66576000Y-60274300D02*
X64363500Y-60274300D01*
X62894400Y-60032900D02*
X56761000Y-60032900D01*
X64050100Y-60587700D02*
X63449200Y-60587700D01*
X64363500Y-60274300D02*
X64050100Y-60587700D01*
X63449200Y-60587700D02*
X62894400Y-60032900D01*
X114363500Y-80274300D02*
X114050100Y-80587700D01*
X66576000Y-80274300D02*
X64363500Y-80274300D01*
X62894400Y-80032900D02*
X56761000Y-80032900D01*
X114050100Y-80587700D02*
X113449200Y-80587700D01*
X116576000Y-80274300D02*
X114363500Y-80274300D01*
X113449200Y-80587700D02*
X112894400Y-80032900D01*
X112894400Y-80032900D02*
X106761000Y-80032900D01*
X64050100Y-80587700D02*
X63449200Y-80587700D01*
X63449200Y-80587700D02*
X62894400Y-80032900D01*
X64363500Y-80274300D02*
X64050100Y-80587700D01*
X114363500Y-100274300D02*
X114050100Y-100587700D01*
X66576000Y-100274300D02*
X64363500Y-100274300D01*
X62894400Y-100032900D02*
X56761000Y-100032900D01*
X116576000Y-100274300D02*
X114363500Y-100274300D01*
X114050100Y-100587700D02*
X113449200Y-100587700D01*
X113449200Y-100587700D02*
X112894400Y-100032900D01*
X64050100Y-100587700D02*
X63449200Y-100587700D01*
X63449200Y-100587700D02*
X62894400Y-100032900D01*
X64363500Y-100274300D02*
X64050100Y-100587700D01*
X112894400Y-100032900D02*
X106761000Y-100032900D01*
X114363500Y-120274300D02*
X114050100Y-120587700D01*
X66576000Y-120274300D02*
X64363500Y-120274300D01*
X62894400Y-120032900D02*
X56761000Y-120032900D01*
X116576000Y-120274300D02*
X114363500Y-120274300D01*
X64363500Y-120274300D02*
X64050100Y-120587700D01*
X114050100Y-120587700D02*
X113449200Y-120587700D01*
X113449200Y-120587700D02*
X112894400Y-120032900D01*
X63449200Y-120587700D02*
X62894400Y-120032900D01*
X64050100Y-120587700D02*
X63449200Y-120587700D01*
X112894400Y-120032900D02*
X106761000Y-120032900D01*
%TO.N,/MBUS_RX*%
X63749600Y-39862400D02*
X59616700Y-35729500D01*
X59616700Y-35729500D02*
X45890900Y-35729500D01*
X45890900Y-35729500D02*
X45160500Y-34999100D01*
X45160500Y-34999100D02*
X45160500Y-34074200D01*
X45160500Y-34074200D02*
X45780100Y-33454600D01*
X45780100Y-33454600D02*
X50308600Y-33454600D01*
X50308600Y-33454600D02*
X50703500Y-33059700D01*
X113749600Y-39862400D02*
X109616700Y-35729500D01*
X95890900Y-35729500D02*
X95160500Y-34999100D01*
X95160500Y-34074200D02*
X95780100Y-33454600D01*
X95160500Y-34999100D02*
X95160500Y-34074200D01*
X95780100Y-33454600D02*
X100308600Y-33454600D01*
X100308600Y-33454600D02*
X100703500Y-33059700D01*
X109616700Y-35729500D02*
X95890900Y-35729500D01*
X95780100Y-53454600D02*
X100308600Y-53454600D01*
X95160500Y-54999100D02*
X95160500Y-54074200D01*
X95890900Y-55729500D02*
X95160500Y-54999100D01*
X95160500Y-54074200D02*
X95780100Y-53454600D01*
X100308600Y-53454600D02*
X100703500Y-53059700D01*
X109616700Y-55729500D02*
X95890900Y-55729500D01*
X113749600Y-59862400D02*
X109616700Y-55729500D01*
X63749600Y-59862400D02*
X59616700Y-55729500D01*
X45890900Y-55729500D02*
X45160500Y-54999100D01*
X45160500Y-54074200D02*
X45780100Y-53454600D01*
X45160500Y-54999100D02*
X45160500Y-54074200D01*
X45780100Y-53454600D02*
X50308600Y-53454600D01*
X50308600Y-53454600D02*
X50703500Y-53059700D01*
X59616700Y-55729500D02*
X45890900Y-55729500D01*
X113749600Y-79862400D02*
X109616700Y-75729500D01*
X109616700Y-75729500D02*
X95890900Y-75729500D01*
X95780100Y-73454600D02*
X100308600Y-73454600D01*
X95160500Y-74074200D02*
X95780100Y-73454600D01*
X95160500Y-74999100D02*
X95160500Y-74074200D01*
X100308600Y-73454600D02*
X100703500Y-73059700D01*
X95890900Y-75729500D02*
X95160500Y-74999100D01*
X59616700Y-75729500D02*
X45890900Y-75729500D01*
X45160500Y-74074200D02*
X45780100Y-73454600D01*
X45160500Y-74999100D02*
X45160500Y-74074200D01*
X45780100Y-73454600D02*
X50308600Y-73454600D01*
X63749600Y-79862400D02*
X59616700Y-75729500D01*
X50308600Y-73454600D02*
X50703500Y-73059700D01*
X45890900Y-75729500D02*
X45160500Y-74999100D01*
X109616700Y-95729500D02*
X95890900Y-95729500D01*
X113749600Y-99862400D02*
X109616700Y-95729500D01*
X95160500Y-94074200D02*
X95780100Y-93454600D01*
X95160500Y-94999100D02*
X95160500Y-94074200D01*
X100308600Y-93454600D02*
X100703500Y-93059700D01*
X95890900Y-95729500D02*
X95160500Y-94999100D01*
X95780100Y-93454600D02*
X100308600Y-93454600D01*
X59616700Y-95729500D02*
X45890900Y-95729500D01*
X45780100Y-93454600D02*
X50308600Y-93454600D01*
X45160500Y-94999100D02*
X45160500Y-94074200D01*
X63749600Y-99862400D02*
X59616700Y-95729500D01*
X45890900Y-95729500D02*
X45160500Y-94999100D01*
X45160500Y-94074200D02*
X45780100Y-93454600D01*
X50308600Y-93454600D02*
X50703500Y-93059700D01*
X109616700Y-115729500D02*
X95890900Y-115729500D01*
X95160500Y-114074200D02*
X95780100Y-113454600D01*
X100308600Y-113454600D02*
X100703500Y-113059700D01*
X95160500Y-114999100D02*
X95160500Y-114074200D01*
X45890900Y-115729500D02*
X45160500Y-114999100D01*
X50308600Y-113454600D02*
X50703500Y-113059700D01*
X95780100Y-113454600D02*
X100308600Y-113454600D01*
X95890900Y-115729500D02*
X95160500Y-114999100D01*
X45160500Y-114999100D02*
X45160500Y-114074200D01*
X45160500Y-114074200D02*
X45780100Y-113454600D01*
X45780100Y-113454600D02*
X50308600Y-113454600D01*
X63749600Y-119862400D02*
X59616700Y-115729500D01*
X59616700Y-115729500D02*
X45890900Y-115729500D01*
X113749600Y-119862400D02*
X109616700Y-115729500D01*
%TO.N,Net-(R18-Pad1)*%
X57000000Y-27400000D02*
X54614500Y-27400000D01*
X107000000Y-27400000D02*
X104614500Y-27400000D01*
X107000000Y-47400000D02*
X104614500Y-47400000D01*
X57000000Y-47400000D02*
X54614500Y-47400000D01*
X107000000Y-67400000D02*
X104614500Y-67400000D01*
X57000000Y-67400000D02*
X54614500Y-67400000D01*
X107000000Y-87400000D02*
X104614500Y-87400000D01*
X57000000Y-87400000D02*
X54614500Y-87400000D01*
X107000000Y-107400000D02*
X104614500Y-107400000D01*
X57000000Y-107400000D02*
X54614500Y-107400000D01*
%TD*%
M02*
