%TF.GenerationSoftware,KiCad,Pcbnew,(5.1.9)-1*%
%TF.CreationDate,2021-10-14T17:35:57+02:00*%
%TF.ProjectId,IM350_AM550_T210_5V_V5.0,494d3335-305f-4414-9d35-35305f543231,rev?*%
%TF.SameCoordinates,Original*%
%TF.FileFunction,Soldermask,Top*%
%TF.FilePolarity,Negative*%
%FSLAX46Y46*%
G04 Gerber Fmt 4.6, Leading zero omitted, Abs format (unit mm)*
G04 Created by KiCad (PCBNEW (5.1.9)-1) date 2021-10-14 17:35:57*
%MOMM*%
%LPD*%
G01*
G04 APERTURE LIST*
%ADD10R,2.800000X0.600000*%
%ADD11O,1.900000X1.050000*%
%ADD12R,1.000000X2.500000*%
%ADD13R,1.800000X1.000000*%
%ADD14R,1.500000X1.500000*%
%ADD15C,3.250000*%
%ADD16C,1.520000*%
%ADD17R,1.520000X1.520000*%
%ADD18R,0.900000X0.800000*%
G04 APERTURE END LIST*
D10*
%TO.C,J1*%
X77100000Y-116300000D03*
X77100000Y-113700000D03*
D11*
X83450000Y-118575000D03*
X83450000Y-111425000D03*
%TD*%
%TO.C,R9*%
G36*
G01*
X129449999Y-106200000D02*
X130350001Y-106200000D01*
G75*
G02*
X130600000Y-106449999I0J-249999D01*
G01*
X130600000Y-107150001D01*
G75*
G02*
X130350001Y-107400000I-249999J0D01*
G01*
X129449999Y-107400000D01*
G75*
G02*
X129200000Y-107150001I0J249999D01*
G01*
X129200000Y-106449999D01*
G75*
G02*
X129449999Y-106200000I249999J0D01*
G01*
G37*
G36*
G01*
X129449999Y-108200000D02*
X130350001Y-108200000D01*
G75*
G02*
X130600000Y-108449999I0J-249999D01*
G01*
X130600000Y-109150001D01*
G75*
G02*
X130350001Y-109400000I-249999J0D01*
G01*
X129449999Y-109400000D01*
G75*
G02*
X129200000Y-109150001I0J249999D01*
G01*
X129200000Y-108449999D01*
G75*
G02*
X129449999Y-108200000I249999J0D01*
G01*
G37*
%TD*%
D12*
%TO.C,U2*%
X57000000Y-107400000D03*
X59000000Y-107400000D03*
X61000000Y-107400000D03*
X63000000Y-107400000D03*
X65000000Y-107400000D03*
X67000000Y-107400000D03*
X69000000Y-107400000D03*
X71000000Y-107400000D03*
D13*
X72500000Y-110000000D03*
X72500000Y-112000000D03*
X72500000Y-114000000D03*
X72500000Y-116000000D03*
X72500000Y-118000000D03*
X72500000Y-120000000D03*
D12*
X71000000Y-122600000D03*
X69000000Y-122600000D03*
X67000000Y-122600000D03*
X65000000Y-122600000D03*
X63000000Y-122600000D03*
X61000000Y-122600000D03*
X59000000Y-122600000D03*
X57000000Y-122600000D03*
%TD*%
D14*
%TO.C,SW1*%
X83200000Y-121750000D03*
X75400000Y-121750000D03*
%TD*%
%TO.C,R3*%
G36*
G01*
X124749999Y-106200000D02*
X125650001Y-106200000D01*
G75*
G02*
X125900000Y-106449999I0J-249999D01*
G01*
X125900000Y-107150001D01*
G75*
G02*
X125650001Y-107400000I-249999J0D01*
G01*
X124749999Y-107400000D01*
G75*
G02*
X124500000Y-107150001I0J249999D01*
G01*
X124500000Y-106449999D01*
G75*
G02*
X124749999Y-106200000I249999J0D01*
G01*
G37*
G36*
G01*
X124749999Y-108200000D02*
X125650001Y-108200000D01*
G75*
G02*
X125900000Y-108449999I0J-249999D01*
G01*
X125900000Y-109150001D01*
G75*
G02*
X125650001Y-109400000I-249999J0D01*
G01*
X124749999Y-109400000D01*
G75*
G02*
X124500000Y-109150001I0J249999D01*
G01*
X124500000Y-108449999D01*
G75*
G02*
X124749999Y-108200000I249999J0D01*
G01*
G37*
%TD*%
%TO.C,R7*%
G36*
G01*
X75290000Y-118100000D02*
X75290000Y-117900000D01*
G75*
G02*
X75390000Y-117800000I100000J0D01*
G01*
X75825000Y-117800000D01*
G75*
G02*
X75925000Y-117900000I0J-100000D01*
G01*
X75925000Y-118100000D01*
G75*
G02*
X75825000Y-118200000I-100000J0D01*
G01*
X75390000Y-118200000D01*
G75*
G02*
X75290000Y-118100000I0J100000D01*
G01*
G37*
G36*
G01*
X74475000Y-118100000D02*
X74475000Y-117900000D01*
G75*
G02*
X74575000Y-117800000I100000J0D01*
G01*
X75010000Y-117800000D01*
G75*
G02*
X75110000Y-117900000I0J-100000D01*
G01*
X75110000Y-118100000D01*
G75*
G02*
X75010000Y-118200000I-100000J0D01*
G01*
X74575000Y-118200000D01*
G75*
G02*
X74475000Y-118100000I0J100000D01*
G01*
G37*
%TD*%
D15*
%TO.C,J2*%
X87360000Y-120250000D03*
D16*
X93710000Y-118350000D03*
X96250000Y-117080000D03*
X93710000Y-115810000D03*
X96250000Y-114540000D03*
X93710000Y-113270000D03*
D15*
X87360000Y-110090000D03*
D17*
X96250000Y-112000000D03*
%TD*%
%TO.C,R13*%
G36*
G01*
X126675000Y-118100000D02*
X126675000Y-117900000D01*
G75*
G02*
X126775000Y-117800000I100000J0D01*
G01*
X127210000Y-117800000D01*
G75*
G02*
X127310000Y-117900000I0J-100000D01*
G01*
X127310000Y-118100000D01*
G75*
G02*
X127210000Y-118200000I-100000J0D01*
G01*
X126775000Y-118200000D01*
G75*
G02*
X126675000Y-118100000I0J100000D01*
G01*
G37*
G36*
G01*
X127490000Y-118100000D02*
X127490000Y-117900000D01*
G75*
G02*
X127590000Y-117800000I100000J0D01*
G01*
X128025000Y-117800000D01*
G75*
G02*
X128125000Y-117900000I0J-100000D01*
G01*
X128125000Y-118100000D01*
G75*
G02*
X128025000Y-118200000I-100000J0D01*
G01*
X127590000Y-118200000D01*
G75*
G02*
X127490000Y-118100000I0J100000D01*
G01*
G37*
%TD*%
%TO.C,J2*%
X46250000Y-112000000D03*
D15*
X37360000Y-110090000D03*
D16*
X43710000Y-113270000D03*
X46250000Y-114540000D03*
X43710000Y-115810000D03*
X46250000Y-117080000D03*
X43710000Y-118350000D03*
D15*
X37360000Y-120250000D03*
%TD*%
%TO.C,R8*%
G36*
G01*
X77950001Y-107400000D02*
X77049999Y-107400000D01*
G75*
G02*
X76800000Y-107150001I0J249999D01*
G01*
X76800000Y-106449999D01*
G75*
G02*
X77049999Y-106200000I249999J0D01*
G01*
X77950001Y-106200000D01*
G75*
G02*
X78200000Y-106449999I0J-249999D01*
G01*
X78200000Y-107150001D01*
G75*
G02*
X77950001Y-107400000I-249999J0D01*
G01*
G37*
G36*
G01*
X77950001Y-109400000D02*
X77049999Y-109400000D01*
G75*
G02*
X76800000Y-109150001I0J249999D01*
G01*
X76800000Y-108449999D01*
G75*
G02*
X77049999Y-108200000I249999J0D01*
G01*
X77950001Y-108200000D01*
G75*
G02*
X78200000Y-108449999I0J-249999D01*
G01*
X78200000Y-109150001D01*
G75*
G02*
X77950001Y-109400000I-249999J0D01*
G01*
G37*
%TD*%
D12*
%TO.C,U2*%
X107000000Y-122600000D03*
X109000000Y-122600000D03*
X111000000Y-122600000D03*
X113000000Y-122600000D03*
X115000000Y-122600000D03*
X117000000Y-122600000D03*
X119000000Y-122600000D03*
X121000000Y-122600000D03*
D13*
X122500000Y-120000000D03*
X122500000Y-118000000D03*
X122500000Y-116000000D03*
X122500000Y-114000000D03*
X122500000Y-112000000D03*
X122500000Y-110000000D03*
D12*
X121000000Y-107400000D03*
X119000000Y-107400000D03*
X117000000Y-107400000D03*
X115000000Y-107400000D03*
X113000000Y-107400000D03*
X111000000Y-107400000D03*
X109000000Y-107400000D03*
X107000000Y-107400000D03*
%TD*%
%TO.C,R13*%
G36*
G01*
X77490000Y-118100000D02*
X77490000Y-117900000D01*
G75*
G02*
X77590000Y-117800000I100000J0D01*
G01*
X78025000Y-117800000D01*
G75*
G02*
X78125000Y-117900000I0J-100000D01*
G01*
X78125000Y-118100000D01*
G75*
G02*
X78025000Y-118200000I-100000J0D01*
G01*
X77590000Y-118200000D01*
G75*
G02*
X77490000Y-118100000I0J100000D01*
G01*
G37*
G36*
G01*
X76675000Y-118100000D02*
X76675000Y-117900000D01*
G75*
G02*
X76775000Y-117800000I100000J0D01*
G01*
X77210000Y-117800000D01*
G75*
G02*
X77310000Y-117900000I0J-100000D01*
G01*
X77310000Y-118100000D01*
G75*
G02*
X77210000Y-118200000I-100000J0D01*
G01*
X76775000Y-118200000D01*
G75*
G02*
X76675000Y-118100000I0J100000D01*
G01*
G37*
%TD*%
%TO.C,R8*%
G36*
G01*
X127950001Y-109400000D02*
X127049999Y-109400000D01*
G75*
G02*
X126800000Y-109150001I0J249999D01*
G01*
X126800000Y-108449999D01*
G75*
G02*
X127049999Y-108200000I249999J0D01*
G01*
X127950001Y-108200000D01*
G75*
G02*
X128200000Y-108449999I0J-249999D01*
G01*
X128200000Y-109150001D01*
G75*
G02*
X127950001Y-109400000I-249999J0D01*
G01*
G37*
G36*
G01*
X127950001Y-107400000D02*
X127049999Y-107400000D01*
G75*
G02*
X126800000Y-107150001I0J249999D01*
G01*
X126800000Y-106449999D01*
G75*
G02*
X127049999Y-106200000I249999J0D01*
G01*
X127950001Y-106200000D01*
G75*
G02*
X128200000Y-106449999I0J-249999D01*
G01*
X128200000Y-107150001D01*
G75*
G02*
X127950001Y-107400000I-249999J0D01*
G01*
G37*
%TD*%
D18*
%TO.C,Q1*%
X133900000Y-108850000D03*
X133900000Y-106950000D03*
X131900000Y-107900000D03*
%TD*%
%TO.C,R2*%
G36*
G01*
X124475000Y-112000000D02*
X124475000Y-111800000D01*
G75*
G02*
X124575000Y-111700000I100000J0D01*
G01*
X125010000Y-111700000D01*
G75*
G02*
X125110000Y-111800000I0J-100000D01*
G01*
X125110000Y-112000000D01*
G75*
G02*
X125010000Y-112100000I-100000J0D01*
G01*
X124575000Y-112100000D01*
G75*
G02*
X124475000Y-112000000I0J100000D01*
G01*
G37*
G36*
G01*
X125290000Y-112000000D02*
X125290000Y-111800000D01*
G75*
G02*
X125390000Y-111700000I100000J0D01*
G01*
X125825000Y-111700000D01*
G75*
G02*
X125925000Y-111800000I0J-100000D01*
G01*
X125925000Y-112000000D01*
G75*
G02*
X125825000Y-112100000I-100000J0D01*
G01*
X125390000Y-112100000D01*
G75*
G02*
X125290000Y-112000000I0J100000D01*
G01*
G37*
%TD*%
%TO.C,R2*%
G36*
G01*
X75290000Y-112000000D02*
X75290000Y-111800000D01*
G75*
G02*
X75390000Y-111700000I100000J0D01*
G01*
X75825000Y-111700000D01*
G75*
G02*
X75925000Y-111800000I0J-100000D01*
G01*
X75925000Y-112000000D01*
G75*
G02*
X75825000Y-112100000I-100000J0D01*
G01*
X75390000Y-112100000D01*
G75*
G02*
X75290000Y-112000000I0J100000D01*
G01*
G37*
G36*
G01*
X74475000Y-112000000D02*
X74475000Y-111800000D01*
G75*
G02*
X74575000Y-111700000I100000J0D01*
G01*
X75010000Y-111700000D01*
G75*
G02*
X75110000Y-111800000I0J-100000D01*
G01*
X75110000Y-112000000D01*
G75*
G02*
X75010000Y-112100000I-100000J0D01*
G01*
X74575000Y-112100000D01*
G75*
G02*
X74475000Y-112000000I0J100000D01*
G01*
G37*
%TD*%
%TO.C,Q1*%
X81900000Y-107900000D03*
X83900000Y-106950000D03*
X83900000Y-108850000D03*
%TD*%
%TO.C,R1*%
G36*
G01*
X124475000Y-110600000D02*
X124475000Y-110400000D01*
G75*
G02*
X124575000Y-110300000I100000J0D01*
G01*
X125010000Y-110300000D01*
G75*
G02*
X125110000Y-110400000I0J-100000D01*
G01*
X125110000Y-110600000D01*
G75*
G02*
X125010000Y-110700000I-100000J0D01*
G01*
X124575000Y-110700000D01*
G75*
G02*
X124475000Y-110600000I0J100000D01*
G01*
G37*
G36*
G01*
X125290000Y-110600000D02*
X125290000Y-110400000D01*
G75*
G02*
X125390000Y-110300000I100000J0D01*
G01*
X125825000Y-110300000D01*
G75*
G02*
X125925000Y-110400000I0J-100000D01*
G01*
X125925000Y-110600000D01*
G75*
G02*
X125825000Y-110700000I-100000J0D01*
G01*
X125390000Y-110700000D01*
G75*
G02*
X125290000Y-110600000I0J100000D01*
G01*
G37*
%TD*%
D11*
%TO.C,J1*%
X133450000Y-111425000D03*
X133450000Y-118575000D03*
D10*
X127100000Y-113700000D03*
X127100000Y-116300000D03*
%TD*%
D14*
%TO.C,SW1*%
X125400000Y-121750000D03*
X133200000Y-121750000D03*
%TD*%
%TO.C,R9*%
G36*
G01*
X79449999Y-108200000D02*
X80350001Y-108200000D01*
G75*
G02*
X80600000Y-108449999I0J-249999D01*
G01*
X80600000Y-109150001D01*
G75*
G02*
X80350001Y-109400000I-249999J0D01*
G01*
X79449999Y-109400000D01*
G75*
G02*
X79200000Y-109150001I0J249999D01*
G01*
X79200000Y-108449999D01*
G75*
G02*
X79449999Y-108200000I249999J0D01*
G01*
G37*
G36*
G01*
X79449999Y-106200000D02*
X80350001Y-106200000D01*
G75*
G02*
X80600000Y-106449999I0J-249999D01*
G01*
X80600000Y-107150001D01*
G75*
G02*
X80350001Y-107400000I-249999J0D01*
G01*
X79449999Y-107400000D01*
G75*
G02*
X79200000Y-107150001I0J249999D01*
G01*
X79200000Y-106449999D01*
G75*
G02*
X79449999Y-106200000I249999J0D01*
G01*
G37*
%TD*%
%TO.C,R3*%
G36*
G01*
X74749999Y-108200000D02*
X75650001Y-108200000D01*
G75*
G02*
X75900000Y-108449999I0J-249999D01*
G01*
X75900000Y-109150001D01*
G75*
G02*
X75650001Y-109400000I-249999J0D01*
G01*
X74749999Y-109400000D01*
G75*
G02*
X74500000Y-109150001I0J249999D01*
G01*
X74500000Y-108449999D01*
G75*
G02*
X74749999Y-108200000I249999J0D01*
G01*
G37*
G36*
G01*
X74749999Y-106200000D02*
X75650001Y-106200000D01*
G75*
G02*
X75900000Y-106449999I0J-249999D01*
G01*
X75900000Y-107150001D01*
G75*
G02*
X75650001Y-107400000I-249999J0D01*
G01*
X74749999Y-107400000D01*
G75*
G02*
X74500000Y-107150001I0J249999D01*
G01*
X74500000Y-106449999D01*
G75*
G02*
X74749999Y-106200000I249999J0D01*
G01*
G37*
%TD*%
%TO.C,R1*%
G36*
G01*
X75290000Y-110600000D02*
X75290000Y-110400000D01*
G75*
G02*
X75390000Y-110300000I100000J0D01*
G01*
X75825000Y-110300000D01*
G75*
G02*
X75925000Y-110400000I0J-100000D01*
G01*
X75925000Y-110600000D01*
G75*
G02*
X75825000Y-110700000I-100000J0D01*
G01*
X75390000Y-110700000D01*
G75*
G02*
X75290000Y-110600000I0J100000D01*
G01*
G37*
G36*
G01*
X74475000Y-110600000D02*
X74475000Y-110400000D01*
G75*
G02*
X74575000Y-110300000I100000J0D01*
G01*
X75010000Y-110300000D01*
G75*
G02*
X75110000Y-110400000I0J-100000D01*
G01*
X75110000Y-110600000D01*
G75*
G02*
X75010000Y-110700000I-100000J0D01*
G01*
X74575000Y-110700000D01*
G75*
G02*
X74475000Y-110600000I0J100000D01*
G01*
G37*
%TD*%
%TO.C,R7*%
G36*
G01*
X124475000Y-118100000D02*
X124475000Y-117900000D01*
G75*
G02*
X124575000Y-117800000I100000J0D01*
G01*
X125010000Y-117800000D01*
G75*
G02*
X125110000Y-117900000I0J-100000D01*
G01*
X125110000Y-118100000D01*
G75*
G02*
X125010000Y-118200000I-100000J0D01*
G01*
X124575000Y-118200000D01*
G75*
G02*
X124475000Y-118100000I0J100000D01*
G01*
G37*
G36*
G01*
X125290000Y-118100000D02*
X125290000Y-117900000D01*
G75*
G02*
X125390000Y-117800000I100000J0D01*
G01*
X125825000Y-117800000D01*
G75*
G02*
X125925000Y-117900000I0J-100000D01*
G01*
X125925000Y-118100000D01*
G75*
G02*
X125825000Y-118200000I-100000J0D01*
G01*
X125390000Y-118200000D01*
G75*
G02*
X125290000Y-118100000I0J100000D01*
G01*
G37*
%TD*%
D12*
%TO.C,U2*%
X57000000Y-102600000D03*
X59000000Y-102600000D03*
X61000000Y-102600000D03*
X63000000Y-102600000D03*
X65000000Y-102600000D03*
X67000000Y-102600000D03*
X69000000Y-102600000D03*
X71000000Y-102600000D03*
D13*
X72500000Y-100000000D03*
X72500000Y-98000000D03*
X72500000Y-96000000D03*
X72500000Y-94000000D03*
X72500000Y-92000000D03*
X72500000Y-90000000D03*
D12*
X71000000Y-87400000D03*
X69000000Y-87400000D03*
X67000000Y-87400000D03*
X65000000Y-87400000D03*
X63000000Y-87400000D03*
X61000000Y-87400000D03*
X59000000Y-87400000D03*
X57000000Y-87400000D03*
%TD*%
%TO.C,R9*%
G36*
G01*
X129449999Y-88200000D02*
X130350001Y-88200000D01*
G75*
G02*
X130600000Y-88449999I0J-249999D01*
G01*
X130600000Y-89150001D01*
G75*
G02*
X130350001Y-89400000I-249999J0D01*
G01*
X129449999Y-89400000D01*
G75*
G02*
X129200000Y-89150001I0J249999D01*
G01*
X129200000Y-88449999D01*
G75*
G02*
X129449999Y-88200000I249999J0D01*
G01*
G37*
G36*
G01*
X129449999Y-86200000D02*
X130350001Y-86200000D01*
G75*
G02*
X130600000Y-86449999I0J-249999D01*
G01*
X130600000Y-87150001D01*
G75*
G02*
X130350001Y-87400000I-249999J0D01*
G01*
X129449999Y-87400000D01*
G75*
G02*
X129200000Y-87150001I0J249999D01*
G01*
X129200000Y-86449999D01*
G75*
G02*
X129449999Y-86200000I249999J0D01*
G01*
G37*
%TD*%
D14*
%TO.C,SW1*%
X75400000Y-101750000D03*
X83200000Y-101750000D03*
%TD*%
D11*
%TO.C,J1*%
X83450000Y-91425000D03*
X83450000Y-98575000D03*
D10*
X77100000Y-93700000D03*
X77100000Y-96300000D03*
%TD*%
%TO.C,R13*%
G36*
G01*
X127490000Y-98100000D02*
X127490000Y-97900000D01*
G75*
G02*
X127590000Y-97800000I100000J0D01*
G01*
X128025000Y-97800000D01*
G75*
G02*
X128125000Y-97900000I0J-100000D01*
G01*
X128125000Y-98100000D01*
G75*
G02*
X128025000Y-98200000I-100000J0D01*
G01*
X127590000Y-98200000D01*
G75*
G02*
X127490000Y-98100000I0J100000D01*
G01*
G37*
G36*
G01*
X126675000Y-98100000D02*
X126675000Y-97900000D01*
G75*
G02*
X126775000Y-97800000I100000J0D01*
G01*
X127210000Y-97800000D01*
G75*
G02*
X127310000Y-97900000I0J-100000D01*
G01*
X127310000Y-98100000D01*
G75*
G02*
X127210000Y-98200000I-100000J0D01*
G01*
X126775000Y-98200000D01*
G75*
G02*
X126675000Y-98100000I0J100000D01*
G01*
G37*
%TD*%
%TO.C,R3*%
G36*
G01*
X124749999Y-88200000D02*
X125650001Y-88200000D01*
G75*
G02*
X125900000Y-88449999I0J-249999D01*
G01*
X125900000Y-89150001D01*
G75*
G02*
X125650001Y-89400000I-249999J0D01*
G01*
X124749999Y-89400000D01*
G75*
G02*
X124500000Y-89150001I0J249999D01*
G01*
X124500000Y-88449999D01*
G75*
G02*
X124749999Y-88200000I249999J0D01*
G01*
G37*
G36*
G01*
X124749999Y-86200000D02*
X125650001Y-86200000D01*
G75*
G02*
X125900000Y-86449999I0J-249999D01*
G01*
X125900000Y-87150001D01*
G75*
G02*
X125650001Y-87400000I-249999J0D01*
G01*
X124749999Y-87400000D01*
G75*
G02*
X124500000Y-87150001I0J249999D01*
G01*
X124500000Y-86449999D01*
G75*
G02*
X124749999Y-86200000I249999J0D01*
G01*
G37*
%TD*%
%TO.C,R13*%
G36*
G01*
X76675000Y-98100000D02*
X76675000Y-97900000D01*
G75*
G02*
X76775000Y-97800000I100000J0D01*
G01*
X77210000Y-97800000D01*
G75*
G02*
X77310000Y-97900000I0J-100000D01*
G01*
X77310000Y-98100000D01*
G75*
G02*
X77210000Y-98200000I-100000J0D01*
G01*
X76775000Y-98200000D01*
G75*
G02*
X76675000Y-98100000I0J100000D01*
G01*
G37*
G36*
G01*
X77490000Y-98100000D02*
X77490000Y-97900000D01*
G75*
G02*
X77590000Y-97800000I100000J0D01*
G01*
X78025000Y-97800000D01*
G75*
G02*
X78125000Y-97900000I0J-100000D01*
G01*
X78125000Y-98100000D01*
G75*
G02*
X78025000Y-98200000I-100000J0D01*
G01*
X77590000Y-98200000D01*
G75*
G02*
X77490000Y-98100000I0J100000D01*
G01*
G37*
%TD*%
D15*
%TO.C,J2*%
X37360000Y-100250000D03*
D16*
X43710000Y-98350000D03*
X46250000Y-97080000D03*
X43710000Y-95810000D03*
X46250000Y-94540000D03*
X43710000Y-93270000D03*
D15*
X37360000Y-90090000D03*
D17*
X46250000Y-92000000D03*
%TD*%
D12*
%TO.C,U2*%
X107000000Y-87400000D03*
X109000000Y-87400000D03*
X111000000Y-87400000D03*
X113000000Y-87400000D03*
X115000000Y-87400000D03*
X117000000Y-87400000D03*
X119000000Y-87400000D03*
X121000000Y-87400000D03*
D13*
X122500000Y-90000000D03*
X122500000Y-92000000D03*
X122500000Y-94000000D03*
X122500000Y-96000000D03*
X122500000Y-98000000D03*
X122500000Y-100000000D03*
D12*
X121000000Y-102600000D03*
X119000000Y-102600000D03*
X117000000Y-102600000D03*
X115000000Y-102600000D03*
X113000000Y-102600000D03*
X111000000Y-102600000D03*
X109000000Y-102600000D03*
X107000000Y-102600000D03*
%TD*%
%TO.C,R8*%
G36*
G01*
X127950001Y-87400000D02*
X127049999Y-87400000D01*
G75*
G02*
X126800000Y-87150001I0J249999D01*
G01*
X126800000Y-86449999D01*
G75*
G02*
X127049999Y-86200000I249999J0D01*
G01*
X127950001Y-86200000D01*
G75*
G02*
X128200000Y-86449999I0J-249999D01*
G01*
X128200000Y-87150001D01*
G75*
G02*
X127950001Y-87400000I-249999J0D01*
G01*
G37*
G36*
G01*
X127950001Y-89400000D02*
X127049999Y-89400000D01*
G75*
G02*
X126800000Y-89150001I0J249999D01*
G01*
X126800000Y-88449999D01*
G75*
G02*
X127049999Y-88200000I249999J0D01*
G01*
X127950001Y-88200000D01*
G75*
G02*
X128200000Y-88449999I0J-249999D01*
G01*
X128200000Y-89150001D01*
G75*
G02*
X127950001Y-89400000I-249999J0D01*
G01*
G37*
%TD*%
%TO.C,R7*%
G36*
G01*
X74475000Y-98100000D02*
X74475000Y-97900000D01*
G75*
G02*
X74575000Y-97800000I100000J0D01*
G01*
X75010000Y-97800000D01*
G75*
G02*
X75110000Y-97900000I0J-100000D01*
G01*
X75110000Y-98100000D01*
G75*
G02*
X75010000Y-98200000I-100000J0D01*
G01*
X74575000Y-98200000D01*
G75*
G02*
X74475000Y-98100000I0J100000D01*
G01*
G37*
G36*
G01*
X75290000Y-98100000D02*
X75290000Y-97900000D01*
G75*
G02*
X75390000Y-97800000I100000J0D01*
G01*
X75825000Y-97800000D01*
G75*
G02*
X75925000Y-97900000I0J-100000D01*
G01*
X75925000Y-98100000D01*
G75*
G02*
X75825000Y-98200000I-100000J0D01*
G01*
X75390000Y-98200000D01*
G75*
G02*
X75290000Y-98100000I0J100000D01*
G01*
G37*
%TD*%
D18*
%TO.C,Q1*%
X131900000Y-87900000D03*
X133900000Y-86950000D03*
X133900000Y-88850000D03*
%TD*%
D17*
%TO.C,J2*%
X96250000Y-92000000D03*
D15*
X87360000Y-90090000D03*
D16*
X93710000Y-93270000D03*
X96250000Y-94540000D03*
X93710000Y-95810000D03*
X96250000Y-97080000D03*
X93710000Y-98350000D03*
D15*
X87360000Y-100250000D03*
%TD*%
%TO.C,R2*%
G36*
G01*
X125290000Y-92000000D02*
X125290000Y-91800000D01*
G75*
G02*
X125390000Y-91700000I100000J0D01*
G01*
X125825000Y-91700000D01*
G75*
G02*
X125925000Y-91800000I0J-100000D01*
G01*
X125925000Y-92000000D01*
G75*
G02*
X125825000Y-92100000I-100000J0D01*
G01*
X125390000Y-92100000D01*
G75*
G02*
X125290000Y-92000000I0J100000D01*
G01*
G37*
G36*
G01*
X124475000Y-92000000D02*
X124475000Y-91800000D01*
G75*
G02*
X124575000Y-91700000I100000J0D01*
G01*
X125010000Y-91700000D01*
G75*
G02*
X125110000Y-91800000I0J-100000D01*
G01*
X125110000Y-92000000D01*
G75*
G02*
X125010000Y-92100000I-100000J0D01*
G01*
X124575000Y-92100000D01*
G75*
G02*
X124475000Y-92000000I0J100000D01*
G01*
G37*
%TD*%
%TO.C,R8*%
G36*
G01*
X77950001Y-89400000D02*
X77049999Y-89400000D01*
G75*
G02*
X76800000Y-89150001I0J249999D01*
G01*
X76800000Y-88449999D01*
G75*
G02*
X77049999Y-88200000I249999J0D01*
G01*
X77950001Y-88200000D01*
G75*
G02*
X78200000Y-88449999I0J-249999D01*
G01*
X78200000Y-89150001D01*
G75*
G02*
X77950001Y-89400000I-249999J0D01*
G01*
G37*
G36*
G01*
X77950001Y-87400000D02*
X77049999Y-87400000D01*
G75*
G02*
X76800000Y-87150001I0J249999D01*
G01*
X76800000Y-86449999D01*
G75*
G02*
X77049999Y-86200000I249999J0D01*
G01*
X77950001Y-86200000D01*
G75*
G02*
X78200000Y-86449999I0J-249999D01*
G01*
X78200000Y-87150001D01*
G75*
G02*
X77950001Y-87400000I-249999J0D01*
G01*
G37*
%TD*%
%TO.C,R9*%
G36*
G01*
X79449999Y-86200000D02*
X80350001Y-86200000D01*
G75*
G02*
X80600000Y-86449999I0J-249999D01*
G01*
X80600000Y-87150001D01*
G75*
G02*
X80350001Y-87400000I-249999J0D01*
G01*
X79449999Y-87400000D01*
G75*
G02*
X79200000Y-87150001I0J249999D01*
G01*
X79200000Y-86449999D01*
G75*
G02*
X79449999Y-86200000I249999J0D01*
G01*
G37*
G36*
G01*
X79449999Y-88200000D02*
X80350001Y-88200000D01*
G75*
G02*
X80600000Y-88449999I0J-249999D01*
G01*
X80600000Y-89150001D01*
G75*
G02*
X80350001Y-89400000I-249999J0D01*
G01*
X79449999Y-89400000D01*
G75*
G02*
X79200000Y-89150001I0J249999D01*
G01*
X79200000Y-88449999D01*
G75*
G02*
X79449999Y-88200000I249999J0D01*
G01*
G37*
%TD*%
%TO.C,R3*%
G36*
G01*
X74749999Y-86200000D02*
X75650001Y-86200000D01*
G75*
G02*
X75900000Y-86449999I0J-249999D01*
G01*
X75900000Y-87150001D01*
G75*
G02*
X75650001Y-87400000I-249999J0D01*
G01*
X74749999Y-87400000D01*
G75*
G02*
X74500000Y-87150001I0J249999D01*
G01*
X74500000Y-86449999D01*
G75*
G02*
X74749999Y-86200000I249999J0D01*
G01*
G37*
G36*
G01*
X74749999Y-88200000D02*
X75650001Y-88200000D01*
G75*
G02*
X75900000Y-88449999I0J-249999D01*
G01*
X75900000Y-89150001D01*
G75*
G02*
X75650001Y-89400000I-249999J0D01*
G01*
X74749999Y-89400000D01*
G75*
G02*
X74500000Y-89150001I0J249999D01*
G01*
X74500000Y-88449999D01*
G75*
G02*
X74749999Y-88200000I249999J0D01*
G01*
G37*
%TD*%
%TO.C,R1*%
G36*
G01*
X74475000Y-90600000D02*
X74475000Y-90400000D01*
G75*
G02*
X74575000Y-90300000I100000J0D01*
G01*
X75010000Y-90300000D01*
G75*
G02*
X75110000Y-90400000I0J-100000D01*
G01*
X75110000Y-90600000D01*
G75*
G02*
X75010000Y-90700000I-100000J0D01*
G01*
X74575000Y-90700000D01*
G75*
G02*
X74475000Y-90600000I0J100000D01*
G01*
G37*
G36*
G01*
X75290000Y-90600000D02*
X75290000Y-90400000D01*
G75*
G02*
X75390000Y-90300000I100000J0D01*
G01*
X75825000Y-90300000D01*
G75*
G02*
X75925000Y-90400000I0J-100000D01*
G01*
X75925000Y-90600000D01*
G75*
G02*
X75825000Y-90700000I-100000J0D01*
G01*
X75390000Y-90700000D01*
G75*
G02*
X75290000Y-90600000I0J100000D01*
G01*
G37*
%TD*%
%TO.C,R1*%
G36*
G01*
X125290000Y-90600000D02*
X125290000Y-90400000D01*
G75*
G02*
X125390000Y-90300000I100000J0D01*
G01*
X125825000Y-90300000D01*
G75*
G02*
X125925000Y-90400000I0J-100000D01*
G01*
X125925000Y-90600000D01*
G75*
G02*
X125825000Y-90700000I-100000J0D01*
G01*
X125390000Y-90700000D01*
G75*
G02*
X125290000Y-90600000I0J100000D01*
G01*
G37*
G36*
G01*
X124475000Y-90600000D02*
X124475000Y-90400000D01*
G75*
G02*
X124575000Y-90300000I100000J0D01*
G01*
X125010000Y-90300000D01*
G75*
G02*
X125110000Y-90400000I0J-100000D01*
G01*
X125110000Y-90600000D01*
G75*
G02*
X125010000Y-90700000I-100000J0D01*
G01*
X124575000Y-90700000D01*
G75*
G02*
X124475000Y-90600000I0J100000D01*
G01*
G37*
%TD*%
%TO.C,R7*%
G36*
G01*
X125290000Y-98100000D02*
X125290000Y-97900000D01*
G75*
G02*
X125390000Y-97800000I100000J0D01*
G01*
X125825000Y-97800000D01*
G75*
G02*
X125925000Y-97900000I0J-100000D01*
G01*
X125925000Y-98100000D01*
G75*
G02*
X125825000Y-98200000I-100000J0D01*
G01*
X125390000Y-98200000D01*
G75*
G02*
X125290000Y-98100000I0J100000D01*
G01*
G37*
G36*
G01*
X124475000Y-98100000D02*
X124475000Y-97900000D01*
G75*
G02*
X124575000Y-97800000I100000J0D01*
G01*
X125010000Y-97800000D01*
G75*
G02*
X125110000Y-97900000I0J-100000D01*
G01*
X125110000Y-98100000D01*
G75*
G02*
X125010000Y-98200000I-100000J0D01*
G01*
X124575000Y-98200000D01*
G75*
G02*
X124475000Y-98100000I0J100000D01*
G01*
G37*
%TD*%
D10*
%TO.C,J1*%
X127100000Y-96300000D03*
X127100000Y-93700000D03*
D11*
X133450000Y-98575000D03*
X133450000Y-91425000D03*
%TD*%
%TO.C,R2*%
G36*
G01*
X74475000Y-92000000D02*
X74475000Y-91800000D01*
G75*
G02*
X74575000Y-91700000I100000J0D01*
G01*
X75010000Y-91700000D01*
G75*
G02*
X75110000Y-91800000I0J-100000D01*
G01*
X75110000Y-92000000D01*
G75*
G02*
X75010000Y-92100000I-100000J0D01*
G01*
X74575000Y-92100000D01*
G75*
G02*
X74475000Y-92000000I0J100000D01*
G01*
G37*
G36*
G01*
X75290000Y-92000000D02*
X75290000Y-91800000D01*
G75*
G02*
X75390000Y-91700000I100000J0D01*
G01*
X75825000Y-91700000D01*
G75*
G02*
X75925000Y-91800000I0J-100000D01*
G01*
X75925000Y-92000000D01*
G75*
G02*
X75825000Y-92100000I-100000J0D01*
G01*
X75390000Y-92100000D01*
G75*
G02*
X75290000Y-92000000I0J100000D01*
G01*
G37*
%TD*%
D14*
%TO.C,SW1*%
X133200000Y-101750000D03*
X125400000Y-101750000D03*
%TD*%
D18*
%TO.C,Q1*%
X83900000Y-88850000D03*
X83900000Y-86950000D03*
X81900000Y-87900000D03*
%TD*%
%TO.C,R8*%
G36*
G01*
X127950001Y-69400000D02*
X127049999Y-69400000D01*
G75*
G02*
X126800000Y-69150001I0J249999D01*
G01*
X126800000Y-68449999D01*
G75*
G02*
X127049999Y-68200000I249999J0D01*
G01*
X127950001Y-68200000D01*
G75*
G02*
X128200000Y-68449999I0J-249999D01*
G01*
X128200000Y-69150001D01*
G75*
G02*
X127950001Y-69400000I-249999J0D01*
G01*
G37*
G36*
G01*
X127950001Y-67400000D02*
X127049999Y-67400000D01*
G75*
G02*
X126800000Y-67150001I0J249999D01*
G01*
X126800000Y-66449999D01*
G75*
G02*
X127049999Y-66200000I249999J0D01*
G01*
X127950001Y-66200000D01*
G75*
G02*
X128200000Y-66449999I0J-249999D01*
G01*
X128200000Y-67150001D01*
G75*
G02*
X127950001Y-67400000I-249999J0D01*
G01*
G37*
%TD*%
%TO.C,R3*%
G36*
G01*
X124749999Y-66200000D02*
X125650001Y-66200000D01*
G75*
G02*
X125900000Y-66449999I0J-249999D01*
G01*
X125900000Y-67150001D01*
G75*
G02*
X125650001Y-67400000I-249999J0D01*
G01*
X124749999Y-67400000D01*
G75*
G02*
X124500000Y-67150001I0J249999D01*
G01*
X124500000Y-66449999D01*
G75*
G02*
X124749999Y-66200000I249999J0D01*
G01*
G37*
G36*
G01*
X124749999Y-68200000D02*
X125650001Y-68200000D01*
G75*
G02*
X125900000Y-68449999I0J-249999D01*
G01*
X125900000Y-69150001D01*
G75*
G02*
X125650001Y-69400000I-249999J0D01*
G01*
X124749999Y-69400000D01*
G75*
G02*
X124500000Y-69150001I0J249999D01*
G01*
X124500000Y-68449999D01*
G75*
G02*
X124749999Y-68200000I249999J0D01*
G01*
G37*
%TD*%
%TO.C,R9*%
G36*
G01*
X129449999Y-66200000D02*
X130350001Y-66200000D01*
G75*
G02*
X130600000Y-66449999I0J-249999D01*
G01*
X130600000Y-67150001D01*
G75*
G02*
X130350001Y-67400000I-249999J0D01*
G01*
X129449999Y-67400000D01*
G75*
G02*
X129200000Y-67150001I0J249999D01*
G01*
X129200000Y-66449999D01*
G75*
G02*
X129449999Y-66200000I249999J0D01*
G01*
G37*
G36*
G01*
X129449999Y-68200000D02*
X130350001Y-68200000D01*
G75*
G02*
X130600000Y-68449999I0J-249999D01*
G01*
X130600000Y-69150001D01*
G75*
G02*
X130350001Y-69400000I-249999J0D01*
G01*
X129449999Y-69400000D01*
G75*
G02*
X129200000Y-69150001I0J249999D01*
G01*
X129200000Y-68449999D01*
G75*
G02*
X129449999Y-68200000I249999J0D01*
G01*
G37*
%TD*%
D12*
%TO.C,U2*%
X107000000Y-82600000D03*
X109000000Y-82600000D03*
X111000000Y-82600000D03*
X113000000Y-82600000D03*
X115000000Y-82600000D03*
X117000000Y-82600000D03*
X119000000Y-82600000D03*
X121000000Y-82600000D03*
D13*
X122500000Y-80000000D03*
X122500000Y-78000000D03*
X122500000Y-76000000D03*
X122500000Y-74000000D03*
X122500000Y-72000000D03*
X122500000Y-70000000D03*
D12*
X121000000Y-67400000D03*
X119000000Y-67400000D03*
X117000000Y-67400000D03*
X115000000Y-67400000D03*
X113000000Y-67400000D03*
X111000000Y-67400000D03*
X109000000Y-67400000D03*
X107000000Y-67400000D03*
%TD*%
D15*
%TO.C,J2*%
X87360000Y-80250000D03*
D16*
X93710000Y-78350000D03*
X96250000Y-77080000D03*
X93710000Y-75810000D03*
X96250000Y-74540000D03*
X93710000Y-73270000D03*
D15*
X87360000Y-70090000D03*
D17*
X96250000Y-72000000D03*
%TD*%
%TO.C,R13*%
G36*
G01*
X126675000Y-78100000D02*
X126675000Y-77900000D01*
G75*
G02*
X126775000Y-77800000I100000J0D01*
G01*
X127210000Y-77800000D01*
G75*
G02*
X127310000Y-77900000I0J-100000D01*
G01*
X127310000Y-78100000D01*
G75*
G02*
X127210000Y-78200000I-100000J0D01*
G01*
X126775000Y-78200000D01*
G75*
G02*
X126675000Y-78100000I0J100000D01*
G01*
G37*
G36*
G01*
X127490000Y-78100000D02*
X127490000Y-77900000D01*
G75*
G02*
X127590000Y-77800000I100000J0D01*
G01*
X128025000Y-77800000D01*
G75*
G02*
X128125000Y-77900000I0J-100000D01*
G01*
X128125000Y-78100000D01*
G75*
G02*
X128025000Y-78200000I-100000J0D01*
G01*
X127590000Y-78200000D01*
G75*
G02*
X127490000Y-78100000I0J100000D01*
G01*
G37*
%TD*%
D18*
%TO.C,Q1*%
X133900000Y-68850000D03*
X133900000Y-66950000D03*
X131900000Y-67900000D03*
%TD*%
D12*
%TO.C,U2*%
X57000000Y-67400000D03*
X59000000Y-67400000D03*
X61000000Y-67400000D03*
X63000000Y-67400000D03*
X65000000Y-67400000D03*
X67000000Y-67400000D03*
X69000000Y-67400000D03*
X71000000Y-67400000D03*
D13*
X72500000Y-70000000D03*
X72500000Y-72000000D03*
X72500000Y-74000000D03*
X72500000Y-76000000D03*
X72500000Y-78000000D03*
X72500000Y-80000000D03*
D12*
X71000000Y-82600000D03*
X69000000Y-82600000D03*
X67000000Y-82600000D03*
X65000000Y-82600000D03*
X63000000Y-82600000D03*
X61000000Y-82600000D03*
X59000000Y-82600000D03*
X57000000Y-82600000D03*
%TD*%
D14*
%TO.C,SW1*%
X83200000Y-81750000D03*
X75400000Y-81750000D03*
%TD*%
%TO.C,R13*%
G36*
G01*
X77490000Y-78100000D02*
X77490000Y-77900000D01*
G75*
G02*
X77590000Y-77800000I100000J0D01*
G01*
X78025000Y-77800000D01*
G75*
G02*
X78125000Y-77900000I0J-100000D01*
G01*
X78125000Y-78100000D01*
G75*
G02*
X78025000Y-78200000I-100000J0D01*
G01*
X77590000Y-78200000D01*
G75*
G02*
X77490000Y-78100000I0J100000D01*
G01*
G37*
G36*
G01*
X76675000Y-78100000D02*
X76675000Y-77900000D01*
G75*
G02*
X76775000Y-77800000I100000J0D01*
G01*
X77210000Y-77800000D01*
G75*
G02*
X77310000Y-77900000I0J-100000D01*
G01*
X77310000Y-78100000D01*
G75*
G02*
X77210000Y-78200000I-100000J0D01*
G01*
X76775000Y-78200000D01*
G75*
G02*
X76675000Y-78100000I0J100000D01*
G01*
G37*
%TD*%
D17*
%TO.C,J2*%
X46250000Y-72000000D03*
D15*
X37360000Y-70090000D03*
D16*
X43710000Y-73270000D03*
X46250000Y-74540000D03*
X43710000Y-75810000D03*
X46250000Y-77080000D03*
X43710000Y-78350000D03*
D15*
X37360000Y-80250000D03*
%TD*%
D10*
%TO.C,J1*%
X77100000Y-76300000D03*
X77100000Y-73700000D03*
D11*
X83450000Y-78575000D03*
X83450000Y-71425000D03*
%TD*%
%TO.C,R7*%
G36*
G01*
X75290000Y-78100000D02*
X75290000Y-77900000D01*
G75*
G02*
X75390000Y-77800000I100000J0D01*
G01*
X75825000Y-77800000D01*
G75*
G02*
X75925000Y-77900000I0J-100000D01*
G01*
X75925000Y-78100000D01*
G75*
G02*
X75825000Y-78200000I-100000J0D01*
G01*
X75390000Y-78200000D01*
G75*
G02*
X75290000Y-78100000I0J100000D01*
G01*
G37*
G36*
G01*
X74475000Y-78100000D02*
X74475000Y-77900000D01*
G75*
G02*
X74575000Y-77800000I100000J0D01*
G01*
X75010000Y-77800000D01*
G75*
G02*
X75110000Y-77900000I0J-100000D01*
G01*
X75110000Y-78100000D01*
G75*
G02*
X75010000Y-78200000I-100000J0D01*
G01*
X74575000Y-78200000D01*
G75*
G02*
X74475000Y-78100000I0J100000D01*
G01*
G37*
%TD*%
%TO.C,R2*%
G36*
G01*
X124475000Y-72000000D02*
X124475000Y-71800000D01*
G75*
G02*
X124575000Y-71700000I100000J0D01*
G01*
X125010000Y-71700000D01*
G75*
G02*
X125110000Y-71800000I0J-100000D01*
G01*
X125110000Y-72000000D01*
G75*
G02*
X125010000Y-72100000I-100000J0D01*
G01*
X124575000Y-72100000D01*
G75*
G02*
X124475000Y-72000000I0J100000D01*
G01*
G37*
G36*
G01*
X125290000Y-72000000D02*
X125290000Y-71800000D01*
G75*
G02*
X125390000Y-71700000I100000J0D01*
G01*
X125825000Y-71700000D01*
G75*
G02*
X125925000Y-71800000I0J-100000D01*
G01*
X125925000Y-72000000D01*
G75*
G02*
X125825000Y-72100000I-100000J0D01*
G01*
X125390000Y-72100000D01*
G75*
G02*
X125290000Y-72000000I0J100000D01*
G01*
G37*
%TD*%
%TO.C,R9*%
G36*
G01*
X79449999Y-68200000D02*
X80350001Y-68200000D01*
G75*
G02*
X80600000Y-68449999I0J-249999D01*
G01*
X80600000Y-69150001D01*
G75*
G02*
X80350001Y-69400000I-249999J0D01*
G01*
X79449999Y-69400000D01*
G75*
G02*
X79200000Y-69150001I0J249999D01*
G01*
X79200000Y-68449999D01*
G75*
G02*
X79449999Y-68200000I249999J0D01*
G01*
G37*
G36*
G01*
X79449999Y-66200000D02*
X80350001Y-66200000D01*
G75*
G02*
X80600000Y-66449999I0J-249999D01*
G01*
X80600000Y-67150001D01*
G75*
G02*
X80350001Y-67400000I-249999J0D01*
G01*
X79449999Y-67400000D01*
G75*
G02*
X79200000Y-67150001I0J249999D01*
G01*
X79200000Y-66449999D01*
G75*
G02*
X79449999Y-66200000I249999J0D01*
G01*
G37*
%TD*%
%TO.C,R8*%
G36*
G01*
X77950001Y-67400000D02*
X77049999Y-67400000D01*
G75*
G02*
X76800000Y-67150001I0J249999D01*
G01*
X76800000Y-66449999D01*
G75*
G02*
X77049999Y-66200000I249999J0D01*
G01*
X77950001Y-66200000D01*
G75*
G02*
X78200000Y-66449999I0J-249999D01*
G01*
X78200000Y-67150001D01*
G75*
G02*
X77950001Y-67400000I-249999J0D01*
G01*
G37*
G36*
G01*
X77950001Y-69400000D02*
X77049999Y-69400000D01*
G75*
G02*
X76800000Y-69150001I0J249999D01*
G01*
X76800000Y-68449999D01*
G75*
G02*
X77049999Y-68200000I249999J0D01*
G01*
X77950001Y-68200000D01*
G75*
G02*
X78200000Y-68449999I0J-249999D01*
G01*
X78200000Y-69150001D01*
G75*
G02*
X77950001Y-69400000I-249999J0D01*
G01*
G37*
%TD*%
%TO.C,R3*%
G36*
G01*
X74749999Y-68200000D02*
X75650001Y-68200000D01*
G75*
G02*
X75900000Y-68449999I0J-249999D01*
G01*
X75900000Y-69150001D01*
G75*
G02*
X75650001Y-69400000I-249999J0D01*
G01*
X74749999Y-69400000D01*
G75*
G02*
X74500000Y-69150001I0J249999D01*
G01*
X74500000Y-68449999D01*
G75*
G02*
X74749999Y-68200000I249999J0D01*
G01*
G37*
G36*
G01*
X74749999Y-66200000D02*
X75650001Y-66200000D01*
G75*
G02*
X75900000Y-66449999I0J-249999D01*
G01*
X75900000Y-67150001D01*
G75*
G02*
X75650001Y-67400000I-249999J0D01*
G01*
X74749999Y-67400000D01*
G75*
G02*
X74500000Y-67150001I0J249999D01*
G01*
X74500000Y-66449999D01*
G75*
G02*
X74749999Y-66200000I249999J0D01*
G01*
G37*
%TD*%
D18*
%TO.C,Q1*%
X81900000Y-67900000D03*
X83900000Y-66950000D03*
X83900000Y-68850000D03*
%TD*%
%TO.C,R1*%
G36*
G01*
X75290000Y-70600000D02*
X75290000Y-70400000D01*
G75*
G02*
X75390000Y-70300000I100000J0D01*
G01*
X75825000Y-70300000D01*
G75*
G02*
X75925000Y-70400000I0J-100000D01*
G01*
X75925000Y-70600000D01*
G75*
G02*
X75825000Y-70700000I-100000J0D01*
G01*
X75390000Y-70700000D01*
G75*
G02*
X75290000Y-70600000I0J100000D01*
G01*
G37*
G36*
G01*
X74475000Y-70600000D02*
X74475000Y-70400000D01*
G75*
G02*
X74575000Y-70300000I100000J0D01*
G01*
X75010000Y-70300000D01*
G75*
G02*
X75110000Y-70400000I0J-100000D01*
G01*
X75110000Y-70600000D01*
G75*
G02*
X75010000Y-70700000I-100000J0D01*
G01*
X74575000Y-70700000D01*
G75*
G02*
X74475000Y-70600000I0J100000D01*
G01*
G37*
%TD*%
%TO.C,R1*%
G36*
G01*
X124475000Y-70600000D02*
X124475000Y-70400000D01*
G75*
G02*
X124575000Y-70300000I100000J0D01*
G01*
X125010000Y-70300000D01*
G75*
G02*
X125110000Y-70400000I0J-100000D01*
G01*
X125110000Y-70600000D01*
G75*
G02*
X125010000Y-70700000I-100000J0D01*
G01*
X124575000Y-70700000D01*
G75*
G02*
X124475000Y-70600000I0J100000D01*
G01*
G37*
G36*
G01*
X125290000Y-70600000D02*
X125290000Y-70400000D01*
G75*
G02*
X125390000Y-70300000I100000J0D01*
G01*
X125825000Y-70300000D01*
G75*
G02*
X125925000Y-70400000I0J-100000D01*
G01*
X125925000Y-70600000D01*
G75*
G02*
X125825000Y-70700000I-100000J0D01*
G01*
X125390000Y-70700000D01*
G75*
G02*
X125290000Y-70600000I0J100000D01*
G01*
G37*
%TD*%
%TO.C,R7*%
G36*
G01*
X124475000Y-78100000D02*
X124475000Y-77900000D01*
G75*
G02*
X124575000Y-77800000I100000J0D01*
G01*
X125010000Y-77800000D01*
G75*
G02*
X125110000Y-77900000I0J-100000D01*
G01*
X125110000Y-78100000D01*
G75*
G02*
X125010000Y-78200000I-100000J0D01*
G01*
X124575000Y-78200000D01*
G75*
G02*
X124475000Y-78100000I0J100000D01*
G01*
G37*
G36*
G01*
X125290000Y-78100000D02*
X125290000Y-77900000D01*
G75*
G02*
X125390000Y-77800000I100000J0D01*
G01*
X125825000Y-77800000D01*
G75*
G02*
X125925000Y-77900000I0J-100000D01*
G01*
X125925000Y-78100000D01*
G75*
G02*
X125825000Y-78200000I-100000J0D01*
G01*
X125390000Y-78200000D01*
G75*
G02*
X125290000Y-78100000I0J100000D01*
G01*
G37*
%TD*%
D11*
%TO.C,J1*%
X133450000Y-71425000D03*
X133450000Y-78575000D03*
D10*
X127100000Y-73700000D03*
X127100000Y-76300000D03*
%TD*%
%TO.C,R2*%
G36*
G01*
X75290000Y-72000000D02*
X75290000Y-71800000D01*
G75*
G02*
X75390000Y-71700000I100000J0D01*
G01*
X75825000Y-71700000D01*
G75*
G02*
X75925000Y-71800000I0J-100000D01*
G01*
X75925000Y-72000000D01*
G75*
G02*
X75825000Y-72100000I-100000J0D01*
G01*
X75390000Y-72100000D01*
G75*
G02*
X75290000Y-72000000I0J100000D01*
G01*
G37*
G36*
G01*
X74475000Y-72000000D02*
X74475000Y-71800000D01*
G75*
G02*
X74575000Y-71700000I100000J0D01*
G01*
X75010000Y-71700000D01*
G75*
G02*
X75110000Y-71800000I0J-100000D01*
G01*
X75110000Y-72000000D01*
G75*
G02*
X75010000Y-72100000I-100000J0D01*
G01*
X74575000Y-72100000D01*
G75*
G02*
X74475000Y-72000000I0J100000D01*
G01*
G37*
%TD*%
D14*
%TO.C,SW1*%
X125400000Y-81750000D03*
X133200000Y-81750000D03*
%TD*%
%TO.C,R1*%
G36*
G01*
X74475000Y-50600000D02*
X74475000Y-50400000D01*
G75*
G02*
X74575000Y-50300000I100000J0D01*
G01*
X75010000Y-50300000D01*
G75*
G02*
X75110000Y-50400000I0J-100000D01*
G01*
X75110000Y-50600000D01*
G75*
G02*
X75010000Y-50700000I-100000J0D01*
G01*
X74575000Y-50700000D01*
G75*
G02*
X74475000Y-50600000I0J100000D01*
G01*
G37*
G36*
G01*
X75290000Y-50600000D02*
X75290000Y-50400000D01*
G75*
G02*
X75390000Y-50300000I100000J0D01*
G01*
X75825000Y-50300000D01*
G75*
G02*
X75925000Y-50400000I0J-100000D01*
G01*
X75925000Y-50600000D01*
G75*
G02*
X75825000Y-50700000I-100000J0D01*
G01*
X75390000Y-50700000D01*
G75*
G02*
X75290000Y-50600000I0J100000D01*
G01*
G37*
%TD*%
%TO.C,R2*%
G36*
G01*
X74475000Y-52000000D02*
X74475000Y-51800000D01*
G75*
G02*
X74575000Y-51700000I100000J0D01*
G01*
X75010000Y-51700000D01*
G75*
G02*
X75110000Y-51800000I0J-100000D01*
G01*
X75110000Y-52000000D01*
G75*
G02*
X75010000Y-52100000I-100000J0D01*
G01*
X74575000Y-52100000D01*
G75*
G02*
X74475000Y-52000000I0J100000D01*
G01*
G37*
G36*
G01*
X75290000Y-52000000D02*
X75290000Y-51800000D01*
G75*
G02*
X75390000Y-51700000I100000J0D01*
G01*
X75825000Y-51700000D01*
G75*
G02*
X75925000Y-51800000I0J-100000D01*
G01*
X75925000Y-52000000D01*
G75*
G02*
X75825000Y-52100000I-100000J0D01*
G01*
X75390000Y-52100000D01*
G75*
G02*
X75290000Y-52000000I0J100000D01*
G01*
G37*
%TD*%
%TO.C,R1*%
G36*
G01*
X125290000Y-50600000D02*
X125290000Y-50400000D01*
G75*
G02*
X125390000Y-50300000I100000J0D01*
G01*
X125825000Y-50300000D01*
G75*
G02*
X125925000Y-50400000I0J-100000D01*
G01*
X125925000Y-50600000D01*
G75*
G02*
X125825000Y-50700000I-100000J0D01*
G01*
X125390000Y-50700000D01*
G75*
G02*
X125290000Y-50600000I0J100000D01*
G01*
G37*
G36*
G01*
X124475000Y-50600000D02*
X124475000Y-50400000D01*
G75*
G02*
X124575000Y-50300000I100000J0D01*
G01*
X125010000Y-50300000D01*
G75*
G02*
X125110000Y-50400000I0J-100000D01*
G01*
X125110000Y-50600000D01*
G75*
G02*
X125010000Y-50700000I-100000J0D01*
G01*
X124575000Y-50700000D01*
G75*
G02*
X124475000Y-50600000I0J100000D01*
G01*
G37*
%TD*%
%TO.C,SW1*%
X133200000Y-61750000D03*
X125400000Y-61750000D03*
%TD*%
D10*
%TO.C,J1*%
X127100000Y-56300000D03*
X127100000Y-53700000D03*
D11*
X133450000Y-58575000D03*
X133450000Y-51425000D03*
%TD*%
%TO.C,R7*%
G36*
G01*
X125290000Y-58100000D02*
X125290000Y-57900000D01*
G75*
G02*
X125390000Y-57800000I100000J0D01*
G01*
X125825000Y-57800000D01*
G75*
G02*
X125925000Y-57900000I0J-100000D01*
G01*
X125925000Y-58100000D01*
G75*
G02*
X125825000Y-58200000I-100000J0D01*
G01*
X125390000Y-58200000D01*
G75*
G02*
X125290000Y-58100000I0J100000D01*
G01*
G37*
G36*
G01*
X124475000Y-58100000D02*
X124475000Y-57900000D01*
G75*
G02*
X124575000Y-57800000I100000J0D01*
G01*
X125010000Y-57800000D01*
G75*
G02*
X125110000Y-57900000I0J-100000D01*
G01*
X125110000Y-58100000D01*
G75*
G02*
X125010000Y-58200000I-100000J0D01*
G01*
X124575000Y-58200000D01*
G75*
G02*
X124475000Y-58100000I0J100000D01*
G01*
G37*
%TD*%
D12*
%TO.C,U2*%
X107000000Y-47400000D03*
X109000000Y-47400000D03*
X111000000Y-47400000D03*
X113000000Y-47400000D03*
X115000000Y-47400000D03*
X117000000Y-47400000D03*
X119000000Y-47400000D03*
X121000000Y-47400000D03*
D13*
X122500000Y-50000000D03*
X122500000Y-52000000D03*
X122500000Y-54000000D03*
X122500000Y-56000000D03*
X122500000Y-58000000D03*
X122500000Y-60000000D03*
D12*
X121000000Y-62600000D03*
X119000000Y-62600000D03*
X117000000Y-62600000D03*
X115000000Y-62600000D03*
X113000000Y-62600000D03*
X111000000Y-62600000D03*
X109000000Y-62600000D03*
X107000000Y-62600000D03*
%TD*%
D17*
%TO.C,J2*%
X96250000Y-52000000D03*
D15*
X87360000Y-50090000D03*
D16*
X93710000Y-53270000D03*
X96250000Y-54540000D03*
X93710000Y-55810000D03*
X96250000Y-57080000D03*
X93710000Y-58350000D03*
D15*
X87360000Y-60250000D03*
%TD*%
%TO.C,R9*%
G36*
G01*
X129449999Y-48200000D02*
X130350001Y-48200000D01*
G75*
G02*
X130600000Y-48449999I0J-249999D01*
G01*
X130600000Y-49150001D01*
G75*
G02*
X130350001Y-49400000I-249999J0D01*
G01*
X129449999Y-49400000D01*
G75*
G02*
X129200000Y-49150001I0J249999D01*
G01*
X129200000Y-48449999D01*
G75*
G02*
X129449999Y-48200000I249999J0D01*
G01*
G37*
G36*
G01*
X129449999Y-46200000D02*
X130350001Y-46200000D01*
G75*
G02*
X130600000Y-46449999I0J-249999D01*
G01*
X130600000Y-47150001D01*
G75*
G02*
X130350001Y-47400000I-249999J0D01*
G01*
X129449999Y-47400000D01*
G75*
G02*
X129200000Y-47150001I0J249999D01*
G01*
X129200000Y-46449999D01*
G75*
G02*
X129449999Y-46200000I249999J0D01*
G01*
G37*
%TD*%
D18*
%TO.C,Q1*%
X131900000Y-47900000D03*
X133900000Y-46950000D03*
X133900000Y-48850000D03*
%TD*%
%TO.C,R13*%
G36*
G01*
X127490000Y-58100000D02*
X127490000Y-57900000D01*
G75*
G02*
X127590000Y-57800000I100000J0D01*
G01*
X128025000Y-57800000D01*
G75*
G02*
X128125000Y-57900000I0J-100000D01*
G01*
X128125000Y-58100000D01*
G75*
G02*
X128025000Y-58200000I-100000J0D01*
G01*
X127590000Y-58200000D01*
G75*
G02*
X127490000Y-58100000I0J100000D01*
G01*
G37*
G36*
G01*
X126675000Y-58100000D02*
X126675000Y-57900000D01*
G75*
G02*
X126775000Y-57800000I100000J0D01*
G01*
X127210000Y-57800000D01*
G75*
G02*
X127310000Y-57900000I0J-100000D01*
G01*
X127310000Y-58100000D01*
G75*
G02*
X127210000Y-58200000I-100000J0D01*
G01*
X126775000Y-58200000D01*
G75*
G02*
X126675000Y-58100000I0J100000D01*
G01*
G37*
%TD*%
%TO.C,R3*%
G36*
G01*
X124749999Y-48200000D02*
X125650001Y-48200000D01*
G75*
G02*
X125900000Y-48449999I0J-249999D01*
G01*
X125900000Y-49150001D01*
G75*
G02*
X125650001Y-49400000I-249999J0D01*
G01*
X124749999Y-49400000D01*
G75*
G02*
X124500000Y-49150001I0J249999D01*
G01*
X124500000Y-48449999D01*
G75*
G02*
X124749999Y-48200000I249999J0D01*
G01*
G37*
G36*
G01*
X124749999Y-46200000D02*
X125650001Y-46200000D01*
G75*
G02*
X125900000Y-46449999I0J-249999D01*
G01*
X125900000Y-47150001D01*
G75*
G02*
X125650001Y-47400000I-249999J0D01*
G01*
X124749999Y-47400000D01*
G75*
G02*
X124500000Y-47150001I0J249999D01*
G01*
X124500000Y-46449999D01*
G75*
G02*
X124749999Y-46200000I249999J0D01*
G01*
G37*
%TD*%
%TO.C,R8*%
G36*
G01*
X127950001Y-47400000D02*
X127049999Y-47400000D01*
G75*
G02*
X126800000Y-47150001I0J249999D01*
G01*
X126800000Y-46449999D01*
G75*
G02*
X127049999Y-46200000I249999J0D01*
G01*
X127950001Y-46200000D01*
G75*
G02*
X128200000Y-46449999I0J-249999D01*
G01*
X128200000Y-47150001D01*
G75*
G02*
X127950001Y-47400000I-249999J0D01*
G01*
G37*
G36*
G01*
X127950001Y-49400000D02*
X127049999Y-49400000D01*
G75*
G02*
X126800000Y-49150001I0J249999D01*
G01*
X126800000Y-48449999D01*
G75*
G02*
X127049999Y-48200000I249999J0D01*
G01*
X127950001Y-48200000D01*
G75*
G02*
X128200000Y-48449999I0J-249999D01*
G01*
X128200000Y-49150001D01*
G75*
G02*
X127950001Y-49400000I-249999J0D01*
G01*
G37*
%TD*%
%TO.C,R2*%
G36*
G01*
X125290000Y-52000000D02*
X125290000Y-51800000D01*
G75*
G02*
X125390000Y-51700000I100000J0D01*
G01*
X125825000Y-51700000D01*
G75*
G02*
X125925000Y-51800000I0J-100000D01*
G01*
X125925000Y-52000000D01*
G75*
G02*
X125825000Y-52100000I-100000J0D01*
G01*
X125390000Y-52100000D01*
G75*
G02*
X125290000Y-52000000I0J100000D01*
G01*
G37*
G36*
G01*
X124475000Y-52000000D02*
X124475000Y-51800000D01*
G75*
G02*
X124575000Y-51700000I100000J0D01*
G01*
X125010000Y-51700000D01*
G75*
G02*
X125110000Y-51800000I0J-100000D01*
G01*
X125110000Y-52000000D01*
G75*
G02*
X125010000Y-52100000I-100000J0D01*
G01*
X124575000Y-52100000D01*
G75*
G02*
X124475000Y-52000000I0J100000D01*
G01*
G37*
%TD*%
D14*
%TO.C,SW1*%
X75400000Y-61750000D03*
X83200000Y-61750000D03*
%TD*%
D12*
%TO.C,U2*%
X57000000Y-62600000D03*
X59000000Y-62600000D03*
X61000000Y-62600000D03*
X63000000Y-62600000D03*
X65000000Y-62600000D03*
X67000000Y-62600000D03*
X69000000Y-62600000D03*
X71000000Y-62600000D03*
D13*
X72500000Y-60000000D03*
X72500000Y-58000000D03*
X72500000Y-56000000D03*
X72500000Y-54000000D03*
X72500000Y-52000000D03*
X72500000Y-50000000D03*
D12*
X71000000Y-47400000D03*
X69000000Y-47400000D03*
X67000000Y-47400000D03*
X65000000Y-47400000D03*
X63000000Y-47400000D03*
X61000000Y-47400000D03*
X59000000Y-47400000D03*
X57000000Y-47400000D03*
%TD*%
%TO.C,R13*%
G36*
G01*
X76675000Y-58100000D02*
X76675000Y-57900000D01*
G75*
G02*
X76775000Y-57800000I100000J0D01*
G01*
X77210000Y-57800000D01*
G75*
G02*
X77310000Y-57900000I0J-100000D01*
G01*
X77310000Y-58100000D01*
G75*
G02*
X77210000Y-58200000I-100000J0D01*
G01*
X76775000Y-58200000D01*
G75*
G02*
X76675000Y-58100000I0J100000D01*
G01*
G37*
G36*
G01*
X77490000Y-58100000D02*
X77490000Y-57900000D01*
G75*
G02*
X77590000Y-57800000I100000J0D01*
G01*
X78025000Y-57800000D01*
G75*
G02*
X78125000Y-57900000I0J-100000D01*
G01*
X78125000Y-58100000D01*
G75*
G02*
X78025000Y-58200000I-100000J0D01*
G01*
X77590000Y-58200000D01*
G75*
G02*
X77490000Y-58100000I0J100000D01*
G01*
G37*
%TD*%
%TO.C,R9*%
G36*
G01*
X79449999Y-46200000D02*
X80350001Y-46200000D01*
G75*
G02*
X80600000Y-46449999I0J-249999D01*
G01*
X80600000Y-47150001D01*
G75*
G02*
X80350001Y-47400000I-249999J0D01*
G01*
X79449999Y-47400000D01*
G75*
G02*
X79200000Y-47150001I0J249999D01*
G01*
X79200000Y-46449999D01*
G75*
G02*
X79449999Y-46200000I249999J0D01*
G01*
G37*
G36*
G01*
X79449999Y-48200000D02*
X80350001Y-48200000D01*
G75*
G02*
X80600000Y-48449999I0J-249999D01*
G01*
X80600000Y-49150001D01*
G75*
G02*
X80350001Y-49400000I-249999J0D01*
G01*
X79449999Y-49400000D01*
G75*
G02*
X79200000Y-49150001I0J249999D01*
G01*
X79200000Y-48449999D01*
G75*
G02*
X79449999Y-48200000I249999J0D01*
G01*
G37*
%TD*%
%TO.C,R8*%
G36*
G01*
X77950001Y-49400000D02*
X77049999Y-49400000D01*
G75*
G02*
X76800000Y-49150001I0J249999D01*
G01*
X76800000Y-48449999D01*
G75*
G02*
X77049999Y-48200000I249999J0D01*
G01*
X77950001Y-48200000D01*
G75*
G02*
X78200000Y-48449999I0J-249999D01*
G01*
X78200000Y-49150001D01*
G75*
G02*
X77950001Y-49400000I-249999J0D01*
G01*
G37*
G36*
G01*
X77950001Y-47400000D02*
X77049999Y-47400000D01*
G75*
G02*
X76800000Y-47150001I0J249999D01*
G01*
X76800000Y-46449999D01*
G75*
G02*
X77049999Y-46200000I249999J0D01*
G01*
X77950001Y-46200000D01*
G75*
G02*
X78200000Y-46449999I0J-249999D01*
G01*
X78200000Y-47150001D01*
G75*
G02*
X77950001Y-47400000I-249999J0D01*
G01*
G37*
%TD*%
D11*
%TO.C,J1*%
X83450000Y-51425000D03*
X83450000Y-58575000D03*
D10*
X77100000Y-53700000D03*
X77100000Y-56300000D03*
%TD*%
%TO.C,R7*%
G36*
G01*
X74475000Y-58100000D02*
X74475000Y-57900000D01*
G75*
G02*
X74575000Y-57800000I100000J0D01*
G01*
X75010000Y-57800000D01*
G75*
G02*
X75110000Y-57900000I0J-100000D01*
G01*
X75110000Y-58100000D01*
G75*
G02*
X75010000Y-58200000I-100000J0D01*
G01*
X74575000Y-58200000D01*
G75*
G02*
X74475000Y-58100000I0J100000D01*
G01*
G37*
G36*
G01*
X75290000Y-58100000D02*
X75290000Y-57900000D01*
G75*
G02*
X75390000Y-57800000I100000J0D01*
G01*
X75825000Y-57800000D01*
G75*
G02*
X75925000Y-57900000I0J-100000D01*
G01*
X75925000Y-58100000D01*
G75*
G02*
X75825000Y-58200000I-100000J0D01*
G01*
X75390000Y-58200000D01*
G75*
G02*
X75290000Y-58100000I0J100000D01*
G01*
G37*
%TD*%
%TO.C,R3*%
G36*
G01*
X74749999Y-46200000D02*
X75650001Y-46200000D01*
G75*
G02*
X75900000Y-46449999I0J-249999D01*
G01*
X75900000Y-47150001D01*
G75*
G02*
X75650001Y-47400000I-249999J0D01*
G01*
X74749999Y-47400000D01*
G75*
G02*
X74500000Y-47150001I0J249999D01*
G01*
X74500000Y-46449999D01*
G75*
G02*
X74749999Y-46200000I249999J0D01*
G01*
G37*
G36*
G01*
X74749999Y-48200000D02*
X75650001Y-48200000D01*
G75*
G02*
X75900000Y-48449999I0J-249999D01*
G01*
X75900000Y-49150001D01*
G75*
G02*
X75650001Y-49400000I-249999J0D01*
G01*
X74749999Y-49400000D01*
G75*
G02*
X74500000Y-49150001I0J249999D01*
G01*
X74500000Y-48449999D01*
G75*
G02*
X74749999Y-48200000I249999J0D01*
G01*
G37*
%TD*%
D18*
%TO.C,Q1*%
X83900000Y-48850000D03*
X83900000Y-46950000D03*
X81900000Y-47900000D03*
%TD*%
D15*
%TO.C,J2*%
X37360000Y-60250000D03*
D16*
X43710000Y-58350000D03*
X46250000Y-57080000D03*
X43710000Y-55810000D03*
X46250000Y-54540000D03*
X43710000Y-53270000D03*
D15*
X37360000Y-50090000D03*
D17*
X46250000Y-52000000D03*
%TD*%
%TO.C,R1*%
G36*
G01*
X124475000Y-30600000D02*
X124475000Y-30400000D01*
G75*
G02*
X124575000Y-30300000I100000J0D01*
G01*
X125010000Y-30300000D01*
G75*
G02*
X125110000Y-30400000I0J-100000D01*
G01*
X125110000Y-30600000D01*
G75*
G02*
X125010000Y-30700000I-100000J0D01*
G01*
X124575000Y-30700000D01*
G75*
G02*
X124475000Y-30600000I0J100000D01*
G01*
G37*
G36*
G01*
X125290000Y-30600000D02*
X125290000Y-30400000D01*
G75*
G02*
X125390000Y-30300000I100000J0D01*
G01*
X125825000Y-30300000D01*
G75*
G02*
X125925000Y-30400000I0J-100000D01*
G01*
X125925000Y-30600000D01*
G75*
G02*
X125825000Y-30700000I-100000J0D01*
G01*
X125390000Y-30700000D01*
G75*
G02*
X125290000Y-30600000I0J100000D01*
G01*
G37*
%TD*%
%TO.C,R2*%
G36*
G01*
X124475000Y-32000000D02*
X124475000Y-31800000D01*
G75*
G02*
X124575000Y-31700000I100000J0D01*
G01*
X125010000Y-31700000D01*
G75*
G02*
X125110000Y-31800000I0J-100000D01*
G01*
X125110000Y-32000000D01*
G75*
G02*
X125010000Y-32100000I-100000J0D01*
G01*
X124575000Y-32100000D01*
G75*
G02*
X124475000Y-32000000I0J100000D01*
G01*
G37*
G36*
G01*
X125290000Y-32000000D02*
X125290000Y-31800000D01*
G75*
G02*
X125390000Y-31700000I100000J0D01*
G01*
X125825000Y-31700000D01*
G75*
G02*
X125925000Y-31800000I0J-100000D01*
G01*
X125925000Y-32000000D01*
G75*
G02*
X125825000Y-32100000I-100000J0D01*
G01*
X125390000Y-32100000D01*
G75*
G02*
X125290000Y-32000000I0J100000D01*
G01*
G37*
%TD*%
D14*
%TO.C,SW1*%
X125400000Y-41750000D03*
X133200000Y-41750000D03*
%TD*%
D12*
%TO.C,U2*%
X107000000Y-42600000D03*
X109000000Y-42600000D03*
X111000000Y-42600000D03*
X113000000Y-42600000D03*
X115000000Y-42600000D03*
X117000000Y-42600000D03*
X119000000Y-42600000D03*
X121000000Y-42600000D03*
D13*
X122500000Y-40000000D03*
X122500000Y-38000000D03*
X122500000Y-36000000D03*
X122500000Y-34000000D03*
X122500000Y-32000000D03*
X122500000Y-30000000D03*
D12*
X121000000Y-27400000D03*
X119000000Y-27400000D03*
X117000000Y-27400000D03*
X115000000Y-27400000D03*
X113000000Y-27400000D03*
X111000000Y-27400000D03*
X109000000Y-27400000D03*
X107000000Y-27400000D03*
%TD*%
%TO.C,R13*%
G36*
G01*
X126675000Y-38100000D02*
X126675000Y-37900000D01*
G75*
G02*
X126775000Y-37800000I100000J0D01*
G01*
X127210000Y-37800000D01*
G75*
G02*
X127310000Y-37900000I0J-100000D01*
G01*
X127310000Y-38100000D01*
G75*
G02*
X127210000Y-38200000I-100000J0D01*
G01*
X126775000Y-38200000D01*
G75*
G02*
X126675000Y-38100000I0J100000D01*
G01*
G37*
G36*
G01*
X127490000Y-38100000D02*
X127490000Y-37900000D01*
G75*
G02*
X127590000Y-37800000I100000J0D01*
G01*
X128025000Y-37800000D01*
G75*
G02*
X128125000Y-37900000I0J-100000D01*
G01*
X128125000Y-38100000D01*
G75*
G02*
X128025000Y-38200000I-100000J0D01*
G01*
X127590000Y-38200000D01*
G75*
G02*
X127490000Y-38100000I0J100000D01*
G01*
G37*
%TD*%
%TO.C,R9*%
G36*
G01*
X129449999Y-26200000D02*
X130350001Y-26200000D01*
G75*
G02*
X130600000Y-26449999I0J-249999D01*
G01*
X130600000Y-27150001D01*
G75*
G02*
X130350001Y-27400000I-249999J0D01*
G01*
X129449999Y-27400000D01*
G75*
G02*
X129200000Y-27150001I0J249999D01*
G01*
X129200000Y-26449999D01*
G75*
G02*
X129449999Y-26200000I249999J0D01*
G01*
G37*
G36*
G01*
X129449999Y-28200000D02*
X130350001Y-28200000D01*
G75*
G02*
X130600000Y-28449999I0J-249999D01*
G01*
X130600000Y-29150001D01*
G75*
G02*
X130350001Y-29400000I-249999J0D01*
G01*
X129449999Y-29400000D01*
G75*
G02*
X129200000Y-29150001I0J249999D01*
G01*
X129200000Y-28449999D01*
G75*
G02*
X129449999Y-28200000I249999J0D01*
G01*
G37*
%TD*%
%TO.C,R8*%
G36*
G01*
X127950001Y-29400000D02*
X127049999Y-29400000D01*
G75*
G02*
X126800000Y-29150001I0J249999D01*
G01*
X126800000Y-28449999D01*
G75*
G02*
X127049999Y-28200000I249999J0D01*
G01*
X127950001Y-28200000D01*
G75*
G02*
X128200000Y-28449999I0J-249999D01*
G01*
X128200000Y-29150001D01*
G75*
G02*
X127950001Y-29400000I-249999J0D01*
G01*
G37*
G36*
G01*
X127950001Y-27400000D02*
X127049999Y-27400000D01*
G75*
G02*
X126800000Y-27150001I0J249999D01*
G01*
X126800000Y-26449999D01*
G75*
G02*
X127049999Y-26200000I249999J0D01*
G01*
X127950001Y-26200000D01*
G75*
G02*
X128200000Y-26449999I0J-249999D01*
G01*
X128200000Y-27150001D01*
G75*
G02*
X127950001Y-27400000I-249999J0D01*
G01*
G37*
%TD*%
D11*
%TO.C,J1*%
X133450000Y-31425000D03*
X133450000Y-38575000D03*
D10*
X127100000Y-33700000D03*
X127100000Y-36300000D03*
%TD*%
%TO.C,R7*%
G36*
G01*
X124475000Y-38100000D02*
X124475000Y-37900000D01*
G75*
G02*
X124575000Y-37800000I100000J0D01*
G01*
X125010000Y-37800000D01*
G75*
G02*
X125110000Y-37900000I0J-100000D01*
G01*
X125110000Y-38100000D01*
G75*
G02*
X125010000Y-38200000I-100000J0D01*
G01*
X124575000Y-38200000D01*
G75*
G02*
X124475000Y-38100000I0J100000D01*
G01*
G37*
G36*
G01*
X125290000Y-38100000D02*
X125290000Y-37900000D01*
G75*
G02*
X125390000Y-37800000I100000J0D01*
G01*
X125825000Y-37800000D01*
G75*
G02*
X125925000Y-37900000I0J-100000D01*
G01*
X125925000Y-38100000D01*
G75*
G02*
X125825000Y-38200000I-100000J0D01*
G01*
X125390000Y-38200000D01*
G75*
G02*
X125290000Y-38100000I0J100000D01*
G01*
G37*
%TD*%
%TO.C,R3*%
G36*
G01*
X124749999Y-26200000D02*
X125650001Y-26200000D01*
G75*
G02*
X125900000Y-26449999I0J-249999D01*
G01*
X125900000Y-27150001D01*
G75*
G02*
X125650001Y-27400000I-249999J0D01*
G01*
X124749999Y-27400000D01*
G75*
G02*
X124500000Y-27150001I0J249999D01*
G01*
X124500000Y-26449999D01*
G75*
G02*
X124749999Y-26200000I249999J0D01*
G01*
G37*
G36*
G01*
X124749999Y-28200000D02*
X125650001Y-28200000D01*
G75*
G02*
X125900000Y-28449999I0J-249999D01*
G01*
X125900000Y-29150001D01*
G75*
G02*
X125650001Y-29400000I-249999J0D01*
G01*
X124749999Y-29400000D01*
G75*
G02*
X124500000Y-29150001I0J249999D01*
G01*
X124500000Y-28449999D01*
G75*
G02*
X124749999Y-28200000I249999J0D01*
G01*
G37*
%TD*%
D18*
%TO.C,Q1*%
X133900000Y-28850000D03*
X133900000Y-26950000D03*
X131900000Y-27900000D03*
%TD*%
D15*
%TO.C,J2*%
X87360000Y-40250000D03*
D16*
X93710000Y-38350000D03*
X96250000Y-37080000D03*
X93710000Y-35810000D03*
X96250000Y-34540000D03*
X93710000Y-33270000D03*
D15*
X87360000Y-30090000D03*
D17*
X96250000Y-32000000D03*
%TD*%
%TO.C,J2*%
X46250000Y-32000000D03*
D15*
X37360000Y-30090000D03*
D16*
X43710000Y-33270000D03*
X46250000Y-34540000D03*
X43710000Y-35810000D03*
X46250000Y-37080000D03*
X43710000Y-38350000D03*
D15*
X37360000Y-40250000D03*
%TD*%
%TO.C,R2*%
G36*
G01*
X75290000Y-32000000D02*
X75290000Y-31800000D01*
G75*
G02*
X75390000Y-31700000I100000J0D01*
G01*
X75825000Y-31700000D01*
G75*
G02*
X75925000Y-31800000I0J-100000D01*
G01*
X75925000Y-32000000D01*
G75*
G02*
X75825000Y-32100000I-100000J0D01*
G01*
X75390000Y-32100000D01*
G75*
G02*
X75290000Y-32000000I0J100000D01*
G01*
G37*
G36*
G01*
X74475000Y-32000000D02*
X74475000Y-31800000D01*
G75*
G02*
X74575000Y-31700000I100000J0D01*
G01*
X75010000Y-31700000D01*
G75*
G02*
X75110000Y-31800000I0J-100000D01*
G01*
X75110000Y-32000000D01*
G75*
G02*
X75010000Y-32100000I-100000J0D01*
G01*
X74575000Y-32100000D01*
G75*
G02*
X74475000Y-32000000I0J100000D01*
G01*
G37*
%TD*%
%TO.C,R1*%
G36*
G01*
X75290000Y-30600000D02*
X75290000Y-30400000D01*
G75*
G02*
X75390000Y-30300000I100000J0D01*
G01*
X75825000Y-30300000D01*
G75*
G02*
X75925000Y-30400000I0J-100000D01*
G01*
X75925000Y-30600000D01*
G75*
G02*
X75825000Y-30700000I-100000J0D01*
G01*
X75390000Y-30700000D01*
G75*
G02*
X75290000Y-30600000I0J100000D01*
G01*
G37*
G36*
G01*
X74475000Y-30600000D02*
X74475000Y-30400000D01*
G75*
G02*
X74575000Y-30300000I100000J0D01*
G01*
X75010000Y-30300000D01*
G75*
G02*
X75110000Y-30400000I0J-100000D01*
G01*
X75110000Y-30600000D01*
G75*
G02*
X75010000Y-30700000I-100000J0D01*
G01*
X74575000Y-30700000D01*
G75*
G02*
X74475000Y-30600000I0J100000D01*
G01*
G37*
%TD*%
D12*
%TO.C,U2*%
X57000000Y-27400000D03*
X59000000Y-27400000D03*
X61000000Y-27400000D03*
X63000000Y-27400000D03*
X65000000Y-27400000D03*
X67000000Y-27400000D03*
X69000000Y-27400000D03*
X71000000Y-27400000D03*
D13*
X72500000Y-30000000D03*
X72500000Y-32000000D03*
X72500000Y-34000000D03*
X72500000Y-36000000D03*
X72500000Y-38000000D03*
X72500000Y-40000000D03*
D12*
X71000000Y-42600000D03*
X69000000Y-42600000D03*
X67000000Y-42600000D03*
X65000000Y-42600000D03*
X63000000Y-42600000D03*
X61000000Y-42600000D03*
X59000000Y-42600000D03*
X57000000Y-42600000D03*
%TD*%
D14*
%TO.C,SW1*%
X83200000Y-41750000D03*
X75400000Y-41750000D03*
%TD*%
%TO.C,R13*%
G36*
G01*
X77490000Y-38100000D02*
X77490000Y-37900000D01*
G75*
G02*
X77590000Y-37800000I100000J0D01*
G01*
X78025000Y-37800000D01*
G75*
G02*
X78125000Y-37900000I0J-100000D01*
G01*
X78125000Y-38100000D01*
G75*
G02*
X78025000Y-38200000I-100000J0D01*
G01*
X77590000Y-38200000D01*
G75*
G02*
X77490000Y-38100000I0J100000D01*
G01*
G37*
G36*
G01*
X76675000Y-38100000D02*
X76675000Y-37900000D01*
G75*
G02*
X76775000Y-37800000I100000J0D01*
G01*
X77210000Y-37800000D01*
G75*
G02*
X77310000Y-37900000I0J-100000D01*
G01*
X77310000Y-38100000D01*
G75*
G02*
X77210000Y-38200000I-100000J0D01*
G01*
X76775000Y-38200000D01*
G75*
G02*
X76675000Y-38100000I0J100000D01*
G01*
G37*
%TD*%
%TO.C,R9*%
G36*
G01*
X79449999Y-28200000D02*
X80350001Y-28200000D01*
G75*
G02*
X80600000Y-28449999I0J-249999D01*
G01*
X80600000Y-29150001D01*
G75*
G02*
X80350001Y-29400000I-249999J0D01*
G01*
X79449999Y-29400000D01*
G75*
G02*
X79200000Y-29150001I0J249999D01*
G01*
X79200000Y-28449999D01*
G75*
G02*
X79449999Y-28200000I249999J0D01*
G01*
G37*
G36*
G01*
X79449999Y-26200000D02*
X80350001Y-26200000D01*
G75*
G02*
X80600000Y-26449999I0J-249999D01*
G01*
X80600000Y-27150001D01*
G75*
G02*
X80350001Y-27400000I-249999J0D01*
G01*
X79449999Y-27400000D01*
G75*
G02*
X79200000Y-27150001I0J249999D01*
G01*
X79200000Y-26449999D01*
G75*
G02*
X79449999Y-26200000I249999J0D01*
G01*
G37*
%TD*%
%TO.C,R8*%
G36*
G01*
X77950001Y-27400000D02*
X77049999Y-27400000D01*
G75*
G02*
X76800000Y-27150001I0J249999D01*
G01*
X76800000Y-26449999D01*
G75*
G02*
X77049999Y-26200000I249999J0D01*
G01*
X77950001Y-26200000D01*
G75*
G02*
X78200000Y-26449999I0J-249999D01*
G01*
X78200000Y-27150001D01*
G75*
G02*
X77950001Y-27400000I-249999J0D01*
G01*
G37*
G36*
G01*
X77950001Y-29400000D02*
X77049999Y-29400000D01*
G75*
G02*
X76800000Y-29150001I0J249999D01*
G01*
X76800000Y-28449999D01*
G75*
G02*
X77049999Y-28200000I249999J0D01*
G01*
X77950001Y-28200000D01*
G75*
G02*
X78200000Y-28449999I0J-249999D01*
G01*
X78200000Y-29150001D01*
G75*
G02*
X77950001Y-29400000I-249999J0D01*
G01*
G37*
%TD*%
%TO.C,R7*%
G36*
G01*
X75290000Y-38100000D02*
X75290000Y-37900000D01*
G75*
G02*
X75390000Y-37800000I100000J0D01*
G01*
X75825000Y-37800000D01*
G75*
G02*
X75925000Y-37900000I0J-100000D01*
G01*
X75925000Y-38100000D01*
G75*
G02*
X75825000Y-38200000I-100000J0D01*
G01*
X75390000Y-38200000D01*
G75*
G02*
X75290000Y-38100000I0J100000D01*
G01*
G37*
G36*
G01*
X74475000Y-38100000D02*
X74475000Y-37900000D01*
G75*
G02*
X74575000Y-37800000I100000J0D01*
G01*
X75010000Y-37800000D01*
G75*
G02*
X75110000Y-37900000I0J-100000D01*
G01*
X75110000Y-38100000D01*
G75*
G02*
X75010000Y-38200000I-100000J0D01*
G01*
X74575000Y-38200000D01*
G75*
G02*
X74475000Y-38100000I0J100000D01*
G01*
G37*
%TD*%
%TO.C,R3*%
G36*
G01*
X74749999Y-28200000D02*
X75650001Y-28200000D01*
G75*
G02*
X75900000Y-28449999I0J-249999D01*
G01*
X75900000Y-29150001D01*
G75*
G02*
X75650001Y-29400000I-249999J0D01*
G01*
X74749999Y-29400000D01*
G75*
G02*
X74500000Y-29150001I0J249999D01*
G01*
X74500000Y-28449999D01*
G75*
G02*
X74749999Y-28200000I249999J0D01*
G01*
G37*
G36*
G01*
X74749999Y-26200000D02*
X75650001Y-26200000D01*
G75*
G02*
X75900000Y-26449999I0J-249999D01*
G01*
X75900000Y-27150001D01*
G75*
G02*
X75650001Y-27400000I-249999J0D01*
G01*
X74749999Y-27400000D01*
G75*
G02*
X74500000Y-27150001I0J249999D01*
G01*
X74500000Y-26449999D01*
G75*
G02*
X74749999Y-26200000I249999J0D01*
G01*
G37*
%TD*%
D18*
%TO.C,Q1*%
X81900000Y-27900000D03*
X83900000Y-26950000D03*
X83900000Y-28850000D03*
%TD*%
D10*
%TO.C,J1*%
X77100000Y-36300000D03*
X77100000Y-33700000D03*
D11*
X83450000Y-38575000D03*
X83450000Y-31425000D03*
%TD*%
M02*
