M48
; DRILL file {KiCad (5.1.9)-1} date 10/14/21 17:35:51
; FORMAT={3:3/ absolute / metric / suppress leading zeros}
; #@! TF.CreationDate,2021-10-14T17:35:51+02:00
; #@! TF.GenerationSoftware,Kicad,Pcbnew,(5.1.9)-1
; #@! TF.FileFunction,NonPlated,1,2,NPTH
FMAT,2
METRIC,TZ
T1C3.250
%
G90
G05
T1
X37360Y-30090
X37360Y-40250
X37360Y-50090
X37360Y-60250
X37360Y-70090
X37360Y-80250
X37360Y-90090
X37360Y-100250
X37360Y-110090
X37360Y-120250
X87360Y-30090
X87360Y-40250
X87360Y-50090
X87360Y-60250
X87360Y-70090
X87360Y-80250
X87360Y-90090
X87360Y-100250
X87360Y-110090
X87360Y-120250
T0
M30
