M48
; DRILL file {KiCad (5.1.9)-1} date 10/14/21 17:35:51
; FORMAT={3:3/ absolute / metric / suppress leading zeros}
; #@! TF.CreationDate,2021-10-14T17:35:51+02:00
; #@! TF.GenerationSoftware,Kicad,Pcbnew,(5.1.9)-1
; #@! TF.FileFunction,Plated,1,2,PTH
FMAT,2
METRIC,TZ
T1C0.400
T2C0.450
T3C0.760
%
G90
G05
T1
X50703Y-33060
X50703Y-53060
X50703Y-73060
X50703Y-93060
X50703Y-113060
X50934Y-30914
X50934Y-50914
X50934Y-70914
X50934Y-90914
X50934Y-110914
X54615Y-27400
X54615Y-47400
X54615Y-67400
X54615Y-87400
X54615Y-107400
X56015Y-31236
X56015Y-51236
X56015Y-71236
X56015Y-91236
X56015Y-111236
X56761Y-40033
X56761Y-60033
X56761Y-80033
X56761Y-100033
X56761Y-120033
X62565Y-31317
X62565Y-51317
X62565Y-71317
X62565Y-91317
X62565Y-111317
X63750Y-39862
X63750Y-59862
X63750Y-79862
X63750Y-99862
X63750Y-119862
X66576Y-40274
X66576Y-60274
X66576Y-80274
X66576Y-100274
X66576Y-120274
X70627Y-33975
X70627Y-53975
X70627Y-73975
X70627Y-93975
X70627Y-113975
X72437Y-28883
X72437Y-48883
X72437Y-68883
X72437Y-88883
X72437Y-108883
X72508Y-43437
X72508Y-63437
X72508Y-83437
X72508Y-103437
X72508Y-123437
X77163Y-35390
X77163Y-55390
X77163Y-75390
X77163Y-95390
X77163Y-115390
X78486Y-25784
X78486Y-45783
X78486Y-65784
X78486Y-85783
X78486Y-105783
X79580Y-39883
X79580Y-59883
X79580Y-79883
X79580Y-99883
X79580Y-119883
X80835Y-39661
X80835Y-59661
X80835Y-79661
X80835Y-99661
X80835Y-119661
X81215Y-28917
X81215Y-48917
X81215Y-68917
X81215Y-88917
X81215Y-108917
X83508Y-25919
X83508Y-45919
X83508Y-65919
X83508Y-85919
X83508Y-105919
X100703Y-33060
X100703Y-53060
X100703Y-73060
X100703Y-93060
X100703Y-113060
X100934Y-30914
X100934Y-50914
X100934Y-70914
X100934Y-90914
X100934Y-110914
X104615Y-27400
X104615Y-47400
X104615Y-67400
X104615Y-87400
X104615Y-107400
X106015Y-31236
X106015Y-51236
X106015Y-71236
X106015Y-91236
X106015Y-111236
X106761Y-40033
X106761Y-60033
X106761Y-80033
X106761Y-100033
X106761Y-120033
X112565Y-31317
X112565Y-51317
X112565Y-71317
X112565Y-91317
X112565Y-111317
X113750Y-39862
X113750Y-59862
X113750Y-79862
X113750Y-99862
X113750Y-119862
X116576Y-40274
X116576Y-60274
X116576Y-80274
X116576Y-100274
X116576Y-120274
X120627Y-33975
X120627Y-53975
X120627Y-73975
X120627Y-93975
X120627Y-113975
X122437Y-28883
X122437Y-48883
X122437Y-68883
X122437Y-88883
X122437Y-108883
X122508Y-43437
X122508Y-63437
X122508Y-83437
X122508Y-103437
X122508Y-123437
X127163Y-35390
X127163Y-55390
X127163Y-75390
X127163Y-95390
X127163Y-115390
X128486Y-25784
X128486Y-45783
X128486Y-65784
X128486Y-85783
X128486Y-105783
X129580Y-39883
X129580Y-59883
X129580Y-79883
X129580Y-99883
X129580Y-119883
X130835Y-39661
X130835Y-59661
X130835Y-79661
X130835Y-99661
X130835Y-119661
X131215Y-28917
X131215Y-48917
X131215Y-68917
X131215Y-88917
X131215Y-108917
X133507Y-25919
X133507Y-45919
X133507Y-65919
X133507Y-85919
X133507Y-105919
T3
X43710Y-33270
X43710Y-35810
X43710Y-38350
X43710Y-53270
X43710Y-55810
X43710Y-58350
X43710Y-73270
X43710Y-75810
X43710Y-78350
X43710Y-93270
X43710Y-95810
X43710Y-98350
X43710Y-113270
X43710Y-115810
X43710Y-118350
X46250Y-32000
X46250Y-34540
X46250Y-37080
X46250Y-52000
X46250Y-54540
X46250Y-57080
X46250Y-72000
X46250Y-74540
X46250Y-77080
X46250Y-92000
X46250Y-94540
X46250Y-97080
X46250Y-112000
X46250Y-114540
X46250Y-117080
X93710Y-33270
X93710Y-35810
X93710Y-38350
X93710Y-53270
X93710Y-55810
X93710Y-58350
X93710Y-73270
X93710Y-75810
X93710Y-78350
X93710Y-93270
X93710Y-95810
X93710Y-98350
X93710Y-113270
X93710Y-115810
X93710Y-118350
X96250Y-32000
X96250Y-34540
X96250Y-37080
X96250Y-52000
X96250Y-54540
X96250Y-57080
X96250Y-72000
X96250Y-74540
X96250Y-77080
X96250Y-92000
X96250Y-94540
X96250Y-97080
X96250Y-112000
X96250Y-114540
X96250Y-117080
T2
G00X83050Y-31425
M15
G01X83850Y-31425
M16
G05
G00X83850Y-38575
M15
G01X83050Y-38575
M16
G05
G00X83050Y-51425
M15
G01X83850Y-51425
M16
G05
G00X83850Y-58575
M15
G01X83050Y-58575
M16
G05
G00X83050Y-71425
M15
G01X83850Y-71425
M16
G05
G00X83850Y-78575
M15
G01X83050Y-78575
M16
G05
G00X83050Y-91425
M15
G01X83850Y-91425
M16
G05
G00X83850Y-98575
M15
G01X83050Y-98575
M16
G05
G00X83050Y-111425
M15
G01X83850Y-111425
M16
G05
G00X83850Y-118575
M15
G01X83050Y-118575
M16
G05
G00X133050Y-31425
M15
G01X133850Y-31425
M16
G05
G00X133850Y-38575
M15
G01X133050Y-38575
M16
G05
G00X133050Y-51425
M15
G01X133850Y-51425
M16
G05
G00X133850Y-58575
M15
G01X133050Y-58575
M16
G05
G00X133050Y-71425
M15
G01X133850Y-71425
M16
G05
G00X133850Y-78575
M15
G01X133050Y-78575
M16
G05
G00X133050Y-91425
M15
G01X133850Y-91425
M16
G05
G00X133850Y-98575
M15
G01X133050Y-98575
M16
G05
G00X133050Y-111425
M15
G01X133850Y-111425
M16
G05
G00X133850Y-118575
M15
G01X133050Y-118575
M16
G05
T0
M30
