%TF.GenerationSoftware,KiCad,Pcbnew,(5.1.9)-1*%
%TF.CreationDate,2021-10-14T17:35:56+02:00*%
%TF.ProjectId,IM350_AM550_T210_5V_V5.0,494d3335-305f-4414-9d35-35305f543231,rev?*%
%TF.SameCoordinates,Original*%
%TF.FileFunction,Legend,Bot*%
%TF.FilePolarity,Positive*%
%FSLAX46Y46*%
G04 Gerber Fmt 4.6, Leading zero omitted, Abs format (unit mm)*
G04 Created by KiCad (PCBNEW (5.1.9)-1) date 2021-10-14 17:35:56*
%MOMM*%
%LPD*%
G01*
G04 APERTURE LIST*
%ADD10C,0.200000*%
%ADD11C,0.150000*%
%ADD12C,0.010000*%
%ADD13C,0.120000*%
%ADD14C,0.127000*%
G04 APERTURE END LIST*
D10*
X41642857Y-108028571D02*
X42442857Y-108257142D01*
X41871428Y-108485714D01*
X42442857Y-108714285D01*
X41642857Y-108942857D01*
X41642857Y-109285714D02*
X42442857Y-109514285D01*
X41871428Y-109742857D01*
X42442857Y-109971428D01*
X41642857Y-110200000D01*
X41642857Y-110542857D02*
X42442857Y-110771428D01*
X41871428Y-111000000D01*
X42442857Y-111228571D01*
X41642857Y-111457142D01*
X42328571Y-111914285D02*
X42385714Y-111971428D01*
X42442857Y-111914285D01*
X42385714Y-111857142D01*
X42328571Y-111914285D01*
X42442857Y-111914285D01*
X42385714Y-112428571D02*
X42442857Y-112542857D01*
X42442857Y-112771428D01*
X42385714Y-112885714D01*
X42271428Y-112942857D01*
X42214285Y-112942857D01*
X42100000Y-112885714D01*
X42042857Y-112771428D01*
X42042857Y-112600000D01*
X41985714Y-112485714D01*
X41871428Y-112428571D01*
X41814285Y-112428571D01*
X41700000Y-112485714D01*
X41642857Y-112600000D01*
X41642857Y-112771428D01*
X41700000Y-112885714D01*
X42442857Y-113457142D02*
X41242857Y-113457142D01*
X42442857Y-113971428D02*
X41814285Y-113971428D01*
X41700000Y-113914285D01*
X41642857Y-113800000D01*
X41642857Y-113628571D01*
X41700000Y-113514285D01*
X41757142Y-113457142D01*
X42442857Y-114542857D02*
X41642857Y-114542857D01*
X41871428Y-114542857D02*
X41757142Y-114600000D01*
X41700000Y-114657142D01*
X41642857Y-114771428D01*
X41642857Y-114885714D01*
X42442857Y-115800000D02*
X41242857Y-115799999D01*
X42385714Y-115800000D02*
X42442857Y-115685714D01*
X42442857Y-115457142D01*
X42385714Y-115342857D01*
X42328571Y-115285714D01*
X42214285Y-115228571D01*
X41871428Y-115228571D01*
X41757142Y-115285714D01*
X41700000Y-115342857D01*
X41642857Y-115457142D01*
X41642857Y-115685714D01*
X41700000Y-115800000D01*
X41642857Y-116257142D02*
X41642857Y-116885714D01*
X42442857Y-116257142D01*
X42442857Y-116885714D01*
X42442857Y-117342857D02*
X41642857Y-117342857D01*
X41757142Y-117342857D02*
X41700000Y-117400000D01*
X41642857Y-117514285D01*
X41642857Y-117685714D01*
X41700000Y-117800000D01*
X41814285Y-117857142D01*
X42442857Y-117857142D01*
X41814285Y-117857142D02*
X41700000Y-117914285D01*
X41642857Y-118028571D01*
X41642857Y-118200000D01*
X41700000Y-118314285D01*
X41814285Y-118371428D01*
X42442857Y-118371428D01*
X42328571Y-118942857D02*
X42385714Y-119000000D01*
X42442857Y-118942857D01*
X42385714Y-118885714D01*
X42328571Y-118942857D01*
X42442857Y-118942857D01*
X42385714Y-120028571D02*
X42442857Y-119914285D01*
X42442857Y-119685714D01*
X42385714Y-119571428D01*
X42328571Y-119514285D01*
X42214285Y-119457142D01*
X41871428Y-119457142D01*
X41757142Y-119514285D01*
X41700000Y-119571428D01*
X41642857Y-119685714D01*
X41642857Y-119914285D01*
X41700000Y-120028571D01*
X42442857Y-120714285D02*
X42385714Y-120600000D01*
X42328571Y-120542857D01*
X42214285Y-120485714D01*
X41871428Y-120485714D01*
X41757142Y-120542857D01*
X41700000Y-120600000D01*
X41642857Y-120714285D01*
X41642857Y-120885714D01*
X41700000Y-121000000D01*
X41757142Y-121057142D01*
X41871428Y-121114285D01*
X42214285Y-121114285D01*
X42328571Y-121057142D01*
X42385714Y-121000000D01*
X42442857Y-120885714D01*
X42442857Y-120714285D01*
X42442857Y-121628571D02*
X41642857Y-121628571D01*
X41757142Y-121628571D02*
X41700000Y-121685714D01*
X41642857Y-121800000D01*
X41642857Y-121971428D01*
X41700000Y-122085714D01*
X41814285Y-122142857D01*
X42442857Y-122142857D01*
X41814285Y-122142857D02*
X41700000Y-122200000D01*
X41642857Y-122314285D01*
X41642857Y-122485714D01*
X41700000Y-122600000D01*
X41814285Y-122657142D01*
X42442857Y-122657142D01*
X91642857Y-108028571D02*
X92442857Y-108257142D01*
X91871428Y-108485714D01*
X92442857Y-108714285D01*
X91642857Y-108942857D01*
X91642857Y-109285714D02*
X92442857Y-109514285D01*
X91871428Y-109742857D01*
X92442857Y-109971428D01*
X91642857Y-110200000D01*
X91642857Y-110542857D02*
X92442857Y-110771428D01*
X91871428Y-111000000D01*
X92442857Y-111228571D01*
X91642857Y-111457142D01*
X92328571Y-111914285D02*
X92385714Y-111971428D01*
X92442857Y-111914285D01*
X92385714Y-111857142D01*
X92328571Y-111914285D01*
X92442857Y-111914285D01*
X92385714Y-112428571D02*
X92442857Y-112542857D01*
X92442857Y-112771428D01*
X92385714Y-112885714D01*
X92271428Y-112942857D01*
X92214285Y-112942857D01*
X92100000Y-112885714D01*
X92042857Y-112771428D01*
X92042857Y-112600000D01*
X91985714Y-112485714D01*
X91871428Y-112428571D01*
X91814285Y-112428571D01*
X91700000Y-112485714D01*
X91642857Y-112600000D01*
X91642857Y-112771428D01*
X91700000Y-112885714D01*
X92442857Y-113457142D02*
X91242857Y-113457142D01*
X92442857Y-113971428D02*
X91814285Y-113971428D01*
X91700000Y-113914285D01*
X91642857Y-113800000D01*
X91642857Y-113628571D01*
X91700000Y-113514285D01*
X91757142Y-113457142D01*
X92442857Y-114542857D02*
X91642857Y-114542857D01*
X91871428Y-114542857D02*
X91757142Y-114600000D01*
X91700000Y-114657142D01*
X91642857Y-114771428D01*
X91642857Y-114885714D01*
X92442857Y-115800000D02*
X91242857Y-115800000D01*
X92385714Y-115800000D02*
X92442857Y-115685714D01*
X92442857Y-115457142D01*
X92385714Y-115342857D01*
X92328571Y-115285714D01*
X92214285Y-115228571D01*
X91871428Y-115228571D01*
X91757142Y-115285714D01*
X91700000Y-115342857D01*
X91642857Y-115457142D01*
X91642857Y-115685714D01*
X91700000Y-115800000D01*
X91642857Y-116257142D02*
X91642857Y-116885714D01*
X92442857Y-116257142D01*
X92442857Y-116885714D01*
X92442857Y-117342857D02*
X91642857Y-117342857D01*
X91757142Y-117342857D02*
X91700000Y-117400000D01*
X91642857Y-117514285D01*
X91642857Y-117685714D01*
X91700000Y-117800000D01*
X91814285Y-117857142D01*
X92442857Y-117857142D01*
X91814285Y-117857142D02*
X91700000Y-117914285D01*
X91642857Y-118028571D01*
X91642857Y-118200000D01*
X91700000Y-118314285D01*
X91814285Y-118371428D01*
X92442857Y-118371428D01*
X92328571Y-118942857D02*
X92385714Y-119000000D01*
X92442857Y-118942857D01*
X92385714Y-118885714D01*
X92328571Y-118942857D01*
X92442857Y-118942857D01*
X92385714Y-120028571D02*
X92442857Y-119914285D01*
X92442857Y-119685714D01*
X92385714Y-119571428D01*
X92328571Y-119514285D01*
X92214285Y-119457142D01*
X91871428Y-119457142D01*
X91757142Y-119514285D01*
X91700000Y-119571428D01*
X91642857Y-119685714D01*
X91642857Y-119914285D01*
X91700000Y-120028571D01*
X92442857Y-120714285D02*
X92385714Y-120600000D01*
X92328571Y-120542857D01*
X92214285Y-120485714D01*
X91871428Y-120485714D01*
X91757142Y-120542857D01*
X91700000Y-120600000D01*
X91642857Y-120714285D01*
X91642857Y-120885714D01*
X91700000Y-121000000D01*
X91757142Y-121057142D01*
X91871428Y-121114285D01*
X92214285Y-121114285D01*
X92328571Y-121057142D01*
X92385714Y-121000000D01*
X92442857Y-120885714D01*
X92442857Y-120714285D01*
X92442857Y-121628571D02*
X91642857Y-121628571D01*
X91757142Y-121628571D02*
X91700000Y-121685714D01*
X91642857Y-121800000D01*
X91642857Y-121971428D01*
X91700000Y-122085714D01*
X91814285Y-122142857D01*
X92442857Y-122142857D01*
X91814285Y-122142857D02*
X91700000Y-122200000D01*
X91642857Y-122314285D01*
X91642857Y-122485714D01*
X91700000Y-122600000D01*
X91814285Y-122657142D01*
X92442857Y-122657142D01*
D11*
X118452380Y-110776190D02*
X119452380Y-111109523D01*
X118452380Y-111442857D01*
X118452380Y-112252380D02*
X118452380Y-111776190D01*
X118928571Y-111728571D01*
X118880952Y-111776190D01*
X118833333Y-111871428D01*
X118833333Y-112109523D01*
X118880952Y-112204761D01*
X118928571Y-112252380D01*
X119023809Y-112299999D01*
X119261904Y-112299999D01*
X119357142Y-112252380D01*
X119404761Y-112204761D01*
X119452380Y-112109523D01*
X119452380Y-111871428D01*
X119404761Y-111776190D01*
X119357142Y-111728571D01*
X119357142Y-112728571D02*
X119404761Y-112776190D01*
X119452380Y-112728571D01*
X119404761Y-112680952D01*
X119357142Y-112728571D01*
X119452380Y-112728571D01*
X118452380Y-113395238D02*
X118452380Y-113490476D01*
X118500000Y-113585714D01*
X118547619Y-113633333D01*
X118642857Y-113680952D01*
X118833333Y-113728571D01*
X119071428Y-113728571D01*
X119261904Y-113680952D01*
X119357142Y-113633333D01*
X119404761Y-113585714D01*
X119452380Y-113490476D01*
X119452380Y-113395238D01*
X119404761Y-113299999D01*
X119357142Y-113252380D01*
X119261904Y-113204761D01*
X119071428Y-113157142D01*
X118833333Y-113157142D01*
X118642857Y-113204761D01*
X118547619Y-113252380D01*
X118500000Y-113299999D01*
X118452380Y-113395238D01*
X68452380Y-110776190D02*
X69452380Y-111109523D01*
X68452380Y-111442857D01*
X68452380Y-112252380D02*
X68452380Y-111776190D01*
X68928571Y-111728571D01*
X68880952Y-111776190D01*
X68833333Y-111871428D01*
X68833333Y-112109523D01*
X68880952Y-112204761D01*
X68928571Y-112252380D01*
X69023809Y-112299999D01*
X69261904Y-112299999D01*
X69357142Y-112252380D01*
X69404761Y-112204761D01*
X69452380Y-112109523D01*
X69452380Y-111871428D01*
X69404761Y-111776190D01*
X69357142Y-111728571D01*
X69357142Y-112728571D02*
X69404761Y-112776190D01*
X69452380Y-112728571D01*
X69404761Y-112680952D01*
X69357142Y-112728571D01*
X69452380Y-112728571D01*
X68452380Y-113395238D02*
X68452380Y-113490476D01*
X68500000Y-113585714D01*
X68547619Y-113633333D01*
X68642857Y-113680952D01*
X68833333Y-113728571D01*
X69071428Y-113728571D01*
X69261904Y-113680952D01*
X69357142Y-113633333D01*
X69404761Y-113585714D01*
X69452380Y-113490476D01*
X69452380Y-113395238D01*
X69404761Y-113299999D01*
X69357142Y-113252380D01*
X69261904Y-113204761D01*
X69071428Y-113157142D01*
X68833333Y-113157142D01*
X68642857Y-113204761D01*
X68547619Y-113252380D01*
X68500000Y-113299999D01*
X68452380Y-113395238D01*
D10*
X41642857Y-88028571D02*
X42442857Y-88257142D01*
X41871428Y-88485714D01*
X42442857Y-88714285D01*
X41642857Y-88942857D01*
X41642857Y-89285714D02*
X42442857Y-89514285D01*
X41871428Y-89742857D01*
X42442857Y-89971428D01*
X41642857Y-90200000D01*
X41642857Y-90542857D02*
X42442857Y-90771428D01*
X41871428Y-91000000D01*
X42442857Y-91228571D01*
X41642857Y-91457142D01*
X42328571Y-91914285D02*
X42385714Y-91971428D01*
X42442857Y-91914285D01*
X42385714Y-91857142D01*
X42328571Y-91914285D01*
X42442857Y-91914285D01*
X42385714Y-92428571D02*
X42442857Y-92542857D01*
X42442857Y-92771428D01*
X42385714Y-92885714D01*
X42271428Y-92942857D01*
X42214285Y-92942857D01*
X42100000Y-92885714D01*
X42042857Y-92771428D01*
X42042857Y-92600000D01*
X41985714Y-92485714D01*
X41871428Y-92428571D01*
X41814285Y-92428571D01*
X41700000Y-92485714D01*
X41642857Y-92600000D01*
X41642857Y-92771428D01*
X41700000Y-92885714D01*
X42442857Y-93457142D02*
X41242857Y-93457142D01*
X42442857Y-93971428D02*
X41814285Y-93971428D01*
X41700000Y-93914285D01*
X41642857Y-93800000D01*
X41642857Y-93628571D01*
X41700000Y-93514285D01*
X41757142Y-93457142D01*
X42442857Y-94542857D02*
X41642857Y-94542857D01*
X41871428Y-94542857D02*
X41757142Y-94600000D01*
X41700000Y-94657142D01*
X41642857Y-94771428D01*
X41642857Y-94885714D01*
X42442857Y-95800000D02*
X41242857Y-95799999D01*
X42385714Y-95800000D02*
X42442857Y-95685714D01*
X42442857Y-95457142D01*
X42385714Y-95342857D01*
X42328571Y-95285714D01*
X42214285Y-95228571D01*
X41871428Y-95228571D01*
X41757142Y-95285714D01*
X41700000Y-95342857D01*
X41642857Y-95457142D01*
X41642857Y-95685714D01*
X41700000Y-95800000D01*
X41642857Y-96257142D02*
X41642857Y-96885714D01*
X42442857Y-96257142D01*
X42442857Y-96885714D01*
X42442857Y-97342857D02*
X41642857Y-97342857D01*
X41757142Y-97342857D02*
X41700000Y-97400000D01*
X41642857Y-97514285D01*
X41642857Y-97685714D01*
X41700000Y-97800000D01*
X41814285Y-97857142D01*
X42442857Y-97857142D01*
X41814285Y-97857142D02*
X41700000Y-97914285D01*
X41642857Y-98028571D01*
X41642857Y-98200000D01*
X41700000Y-98314285D01*
X41814285Y-98371428D01*
X42442857Y-98371428D01*
X42328571Y-98942857D02*
X42385714Y-99000000D01*
X42442857Y-98942857D01*
X42385714Y-98885714D01*
X42328571Y-98942857D01*
X42442857Y-98942857D01*
X42385714Y-100028571D02*
X42442857Y-99914285D01*
X42442857Y-99685714D01*
X42385714Y-99571428D01*
X42328571Y-99514285D01*
X42214285Y-99457142D01*
X41871428Y-99457142D01*
X41757142Y-99514285D01*
X41700000Y-99571428D01*
X41642857Y-99685714D01*
X41642857Y-99914285D01*
X41700000Y-100028571D01*
X42442857Y-100714285D02*
X42385714Y-100600000D01*
X42328571Y-100542857D01*
X42214285Y-100485714D01*
X41871428Y-100485714D01*
X41757142Y-100542857D01*
X41700000Y-100600000D01*
X41642857Y-100714285D01*
X41642857Y-100885714D01*
X41700000Y-101000000D01*
X41757142Y-101057142D01*
X41871428Y-101114285D01*
X42214285Y-101114285D01*
X42328571Y-101057142D01*
X42385714Y-101000000D01*
X42442857Y-100885714D01*
X42442857Y-100714285D01*
X42442857Y-101628571D02*
X41642857Y-101628571D01*
X41757142Y-101628571D02*
X41700000Y-101685714D01*
X41642857Y-101800000D01*
X41642857Y-101971428D01*
X41700000Y-102085714D01*
X41814285Y-102142857D01*
X42442857Y-102142857D01*
X41814285Y-102142857D02*
X41700000Y-102200000D01*
X41642857Y-102314285D01*
X41642857Y-102485714D01*
X41700000Y-102600000D01*
X41814285Y-102657142D01*
X42442857Y-102657142D01*
D11*
X118452380Y-90776190D02*
X119452380Y-91109523D01*
X118452380Y-91442857D01*
X118452380Y-92252380D02*
X118452380Y-91776190D01*
X118928571Y-91728571D01*
X118880952Y-91776190D01*
X118833333Y-91871428D01*
X118833333Y-92109523D01*
X118880952Y-92204761D01*
X118928571Y-92252380D01*
X119023809Y-92299999D01*
X119261904Y-92299999D01*
X119357142Y-92252380D01*
X119404761Y-92204761D01*
X119452380Y-92109523D01*
X119452380Y-91871428D01*
X119404761Y-91776190D01*
X119357142Y-91728571D01*
X119357142Y-92728571D02*
X119404761Y-92776190D01*
X119452380Y-92728571D01*
X119404761Y-92680952D01*
X119357142Y-92728571D01*
X119452380Y-92728571D01*
X118452380Y-93395238D02*
X118452380Y-93490476D01*
X118500000Y-93585714D01*
X118547619Y-93633333D01*
X118642857Y-93680952D01*
X118833333Y-93728571D01*
X119071428Y-93728571D01*
X119261904Y-93680952D01*
X119357142Y-93633333D01*
X119404761Y-93585714D01*
X119452380Y-93490476D01*
X119452380Y-93395238D01*
X119404761Y-93299999D01*
X119357142Y-93252380D01*
X119261904Y-93204761D01*
X119071428Y-93157142D01*
X118833333Y-93157142D01*
X118642857Y-93204761D01*
X118547619Y-93252380D01*
X118500000Y-93299999D01*
X118452380Y-93395238D01*
D10*
X91642857Y-88028571D02*
X92442857Y-88257142D01*
X91871428Y-88485714D01*
X92442857Y-88714285D01*
X91642857Y-88942857D01*
X91642857Y-89285714D02*
X92442857Y-89514285D01*
X91871428Y-89742857D01*
X92442857Y-89971428D01*
X91642857Y-90200000D01*
X91642857Y-90542857D02*
X92442857Y-90771428D01*
X91871428Y-91000000D01*
X92442857Y-91228571D01*
X91642857Y-91457142D01*
X92328571Y-91914285D02*
X92385714Y-91971428D01*
X92442857Y-91914285D01*
X92385714Y-91857142D01*
X92328571Y-91914285D01*
X92442857Y-91914285D01*
X92385714Y-92428571D02*
X92442857Y-92542857D01*
X92442857Y-92771428D01*
X92385714Y-92885714D01*
X92271428Y-92942857D01*
X92214285Y-92942857D01*
X92100000Y-92885714D01*
X92042857Y-92771428D01*
X92042857Y-92600000D01*
X91985714Y-92485714D01*
X91871428Y-92428571D01*
X91814285Y-92428571D01*
X91700000Y-92485714D01*
X91642857Y-92600000D01*
X91642857Y-92771428D01*
X91700000Y-92885714D01*
X92442857Y-93457142D02*
X91242857Y-93457142D01*
X92442857Y-93971428D02*
X91814285Y-93971428D01*
X91700000Y-93914285D01*
X91642857Y-93800000D01*
X91642857Y-93628571D01*
X91700000Y-93514285D01*
X91757142Y-93457142D01*
X92442857Y-94542857D02*
X91642857Y-94542857D01*
X91871428Y-94542857D02*
X91757142Y-94600000D01*
X91700000Y-94657142D01*
X91642857Y-94771428D01*
X91642857Y-94885714D01*
X92442857Y-95800000D02*
X91242857Y-95800000D01*
X92385714Y-95800000D02*
X92442857Y-95685714D01*
X92442857Y-95457142D01*
X92385714Y-95342857D01*
X92328571Y-95285714D01*
X92214285Y-95228571D01*
X91871428Y-95228571D01*
X91757142Y-95285714D01*
X91700000Y-95342857D01*
X91642857Y-95457142D01*
X91642857Y-95685714D01*
X91700000Y-95800000D01*
X91642857Y-96257142D02*
X91642857Y-96885714D01*
X92442857Y-96257142D01*
X92442857Y-96885714D01*
X92442857Y-97342857D02*
X91642857Y-97342857D01*
X91757142Y-97342857D02*
X91700000Y-97400000D01*
X91642857Y-97514285D01*
X91642857Y-97685714D01*
X91700000Y-97800000D01*
X91814285Y-97857142D01*
X92442857Y-97857142D01*
X91814285Y-97857142D02*
X91700000Y-97914285D01*
X91642857Y-98028571D01*
X91642857Y-98200000D01*
X91700000Y-98314285D01*
X91814285Y-98371428D01*
X92442857Y-98371428D01*
X92328571Y-98942857D02*
X92385714Y-99000000D01*
X92442857Y-98942857D01*
X92385714Y-98885714D01*
X92328571Y-98942857D01*
X92442857Y-98942857D01*
X92385714Y-100028571D02*
X92442857Y-99914285D01*
X92442857Y-99685714D01*
X92385714Y-99571428D01*
X92328571Y-99514285D01*
X92214285Y-99457142D01*
X91871428Y-99457142D01*
X91757142Y-99514285D01*
X91700000Y-99571428D01*
X91642857Y-99685714D01*
X91642857Y-99914285D01*
X91700000Y-100028571D01*
X92442857Y-100714285D02*
X92385714Y-100600000D01*
X92328571Y-100542857D01*
X92214285Y-100485714D01*
X91871428Y-100485714D01*
X91757142Y-100542857D01*
X91700000Y-100600000D01*
X91642857Y-100714285D01*
X91642857Y-100885714D01*
X91700000Y-101000000D01*
X91757142Y-101057142D01*
X91871428Y-101114285D01*
X92214285Y-101114285D01*
X92328571Y-101057142D01*
X92385714Y-101000000D01*
X92442857Y-100885714D01*
X92442857Y-100714285D01*
X92442857Y-101628571D02*
X91642857Y-101628571D01*
X91757142Y-101628571D02*
X91700000Y-101685714D01*
X91642857Y-101800000D01*
X91642857Y-101971428D01*
X91700000Y-102085714D01*
X91814285Y-102142857D01*
X92442857Y-102142857D01*
X91814285Y-102142857D02*
X91700000Y-102200000D01*
X91642857Y-102314285D01*
X91642857Y-102485714D01*
X91700000Y-102600000D01*
X91814285Y-102657142D01*
X92442857Y-102657142D01*
D11*
X68452380Y-90776190D02*
X69452380Y-91109523D01*
X68452380Y-91442857D01*
X68452380Y-92252380D02*
X68452380Y-91776190D01*
X68928571Y-91728571D01*
X68880952Y-91776190D01*
X68833333Y-91871428D01*
X68833333Y-92109523D01*
X68880952Y-92204761D01*
X68928571Y-92252380D01*
X69023809Y-92299999D01*
X69261904Y-92299999D01*
X69357142Y-92252380D01*
X69404761Y-92204761D01*
X69452380Y-92109523D01*
X69452380Y-91871428D01*
X69404761Y-91776190D01*
X69357142Y-91728571D01*
X69357142Y-92728571D02*
X69404761Y-92776190D01*
X69452380Y-92728571D01*
X69404761Y-92680952D01*
X69357142Y-92728571D01*
X69452380Y-92728571D01*
X68452380Y-93395238D02*
X68452380Y-93490476D01*
X68500000Y-93585714D01*
X68547619Y-93633333D01*
X68642857Y-93680952D01*
X68833333Y-93728571D01*
X69071428Y-93728571D01*
X69261904Y-93680952D01*
X69357142Y-93633333D01*
X69404761Y-93585714D01*
X69452380Y-93490476D01*
X69452380Y-93395238D01*
X69404761Y-93299999D01*
X69357142Y-93252380D01*
X69261904Y-93204761D01*
X69071428Y-93157142D01*
X68833333Y-93157142D01*
X68642857Y-93204761D01*
X68547619Y-93252380D01*
X68500000Y-93299999D01*
X68452380Y-93395238D01*
X118452380Y-70776190D02*
X119452380Y-71109523D01*
X118452380Y-71442857D01*
X118452380Y-72252380D02*
X118452380Y-71776190D01*
X118928571Y-71728571D01*
X118880952Y-71776190D01*
X118833333Y-71871428D01*
X118833333Y-72109523D01*
X118880952Y-72204761D01*
X118928571Y-72252380D01*
X119023809Y-72299999D01*
X119261904Y-72299999D01*
X119357142Y-72252380D01*
X119404761Y-72204761D01*
X119452380Y-72109523D01*
X119452380Y-71871428D01*
X119404761Y-71776190D01*
X119357142Y-71728571D01*
X119357142Y-72728571D02*
X119404761Y-72776190D01*
X119452380Y-72728571D01*
X119404761Y-72680952D01*
X119357142Y-72728571D01*
X119452380Y-72728571D01*
X118452380Y-73395238D02*
X118452380Y-73490476D01*
X118500000Y-73585714D01*
X118547619Y-73633333D01*
X118642857Y-73680952D01*
X118833333Y-73728571D01*
X119071428Y-73728571D01*
X119261904Y-73680952D01*
X119357142Y-73633333D01*
X119404761Y-73585714D01*
X119452380Y-73490476D01*
X119452380Y-73395238D01*
X119404761Y-73299999D01*
X119357142Y-73252380D01*
X119261904Y-73204761D01*
X119071428Y-73157142D01*
X118833333Y-73157142D01*
X118642857Y-73204761D01*
X118547619Y-73252380D01*
X118500000Y-73299999D01*
X118452380Y-73395238D01*
X68452380Y-70776190D02*
X69452380Y-71109523D01*
X68452380Y-71442857D01*
X68452380Y-72252380D02*
X68452380Y-71776190D01*
X68928571Y-71728571D01*
X68880952Y-71776190D01*
X68833333Y-71871428D01*
X68833333Y-72109523D01*
X68880952Y-72204761D01*
X68928571Y-72252380D01*
X69023809Y-72299999D01*
X69261904Y-72299999D01*
X69357142Y-72252380D01*
X69404761Y-72204761D01*
X69452380Y-72109523D01*
X69452380Y-71871428D01*
X69404761Y-71776190D01*
X69357142Y-71728571D01*
X69357142Y-72728571D02*
X69404761Y-72776190D01*
X69452380Y-72728571D01*
X69404761Y-72680952D01*
X69357142Y-72728571D01*
X69452380Y-72728571D01*
X68452380Y-73395238D02*
X68452380Y-73490476D01*
X68500000Y-73585714D01*
X68547619Y-73633333D01*
X68642857Y-73680952D01*
X68833333Y-73728571D01*
X69071428Y-73728571D01*
X69261904Y-73680952D01*
X69357142Y-73633333D01*
X69404761Y-73585714D01*
X69452380Y-73490476D01*
X69452380Y-73395238D01*
X69404761Y-73299999D01*
X69357142Y-73252380D01*
X69261904Y-73204761D01*
X69071428Y-73157142D01*
X68833333Y-73157142D01*
X68642857Y-73204761D01*
X68547619Y-73252380D01*
X68500000Y-73299999D01*
X68452380Y-73395238D01*
D10*
X91642857Y-68028571D02*
X92442857Y-68257142D01*
X91871428Y-68485714D01*
X92442857Y-68714285D01*
X91642857Y-68942857D01*
X91642857Y-69285714D02*
X92442857Y-69514285D01*
X91871428Y-69742857D01*
X92442857Y-69971428D01*
X91642857Y-70200000D01*
X91642857Y-70542857D02*
X92442857Y-70771428D01*
X91871428Y-71000000D01*
X92442857Y-71228571D01*
X91642857Y-71457142D01*
X92328571Y-71914285D02*
X92385714Y-71971428D01*
X92442857Y-71914285D01*
X92385714Y-71857142D01*
X92328571Y-71914285D01*
X92442857Y-71914285D01*
X92385714Y-72428571D02*
X92442857Y-72542857D01*
X92442857Y-72771428D01*
X92385714Y-72885714D01*
X92271428Y-72942857D01*
X92214285Y-72942857D01*
X92100000Y-72885714D01*
X92042857Y-72771428D01*
X92042857Y-72600000D01*
X91985714Y-72485714D01*
X91871428Y-72428571D01*
X91814285Y-72428571D01*
X91700000Y-72485714D01*
X91642857Y-72600000D01*
X91642857Y-72771428D01*
X91700000Y-72885714D01*
X92442857Y-73457142D02*
X91242857Y-73457142D01*
X92442857Y-73971428D02*
X91814285Y-73971428D01*
X91700000Y-73914285D01*
X91642857Y-73800000D01*
X91642857Y-73628571D01*
X91700000Y-73514285D01*
X91757142Y-73457142D01*
X92442857Y-74542857D02*
X91642857Y-74542857D01*
X91871428Y-74542857D02*
X91757142Y-74600000D01*
X91700000Y-74657142D01*
X91642857Y-74771428D01*
X91642857Y-74885714D01*
X92442857Y-75800000D02*
X91242857Y-75800000D01*
X92385714Y-75800000D02*
X92442857Y-75685714D01*
X92442857Y-75457142D01*
X92385714Y-75342857D01*
X92328571Y-75285714D01*
X92214285Y-75228571D01*
X91871428Y-75228571D01*
X91757142Y-75285714D01*
X91700000Y-75342857D01*
X91642857Y-75457142D01*
X91642857Y-75685714D01*
X91700000Y-75800000D01*
X91642857Y-76257142D02*
X91642857Y-76885714D01*
X92442857Y-76257142D01*
X92442857Y-76885714D01*
X92442857Y-77342857D02*
X91642857Y-77342857D01*
X91757142Y-77342857D02*
X91700000Y-77400000D01*
X91642857Y-77514285D01*
X91642857Y-77685714D01*
X91700000Y-77800000D01*
X91814285Y-77857142D01*
X92442857Y-77857142D01*
X91814285Y-77857142D02*
X91700000Y-77914285D01*
X91642857Y-78028571D01*
X91642857Y-78200000D01*
X91700000Y-78314285D01*
X91814285Y-78371428D01*
X92442857Y-78371428D01*
X92328571Y-78942857D02*
X92385714Y-79000000D01*
X92442857Y-78942857D01*
X92385714Y-78885714D01*
X92328571Y-78942857D01*
X92442857Y-78942857D01*
X92385714Y-80028571D02*
X92442857Y-79914285D01*
X92442857Y-79685714D01*
X92385714Y-79571428D01*
X92328571Y-79514285D01*
X92214285Y-79457142D01*
X91871428Y-79457142D01*
X91757142Y-79514285D01*
X91700000Y-79571428D01*
X91642857Y-79685714D01*
X91642857Y-79914285D01*
X91700000Y-80028571D01*
X92442857Y-80714285D02*
X92385714Y-80600000D01*
X92328571Y-80542857D01*
X92214285Y-80485714D01*
X91871428Y-80485714D01*
X91757142Y-80542857D01*
X91700000Y-80600000D01*
X91642857Y-80714285D01*
X91642857Y-80885714D01*
X91700000Y-81000000D01*
X91757142Y-81057142D01*
X91871428Y-81114285D01*
X92214285Y-81114285D01*
X92328571Y-81057142D01*
X92385714Y-81000000D01*
X92442857Y-80885714D01*
X92442857Y-80714285D01*
X92442857Y-81628571D02*
X91642857Y-81628571D01*
X91757142Y-81628571D02*
X91700000Y-81685714D01*
X91642857Y-81800000D01*
X91642857Y-81971428D01*
X91700000Y-82085714D01*
X91814285Y-82142857D01*
X92442857Y-82142857D01*
X91814285Y-82142857D02*
X91700000Y-82200000D01*
X91642857Y-82314285D01*
X91642857Y-82485714D01*
X91700000Y-82600000D01*
X91814285Y-82657142D01*
X92442857Y-82657142D01*
X41642857Y-68028571D02*
X42442857Y-68257142D01*
X41871428Y-68485714D01*
X42442857Y-68714285D01*
X41642857Y-68942857D01*
X41642857Y-69285714D02*
X42442857Y-69514285D01*
X41871428Y-69742857D01*
X42442857Y-69971428D01*
X41642857Y-70200000D01*
X41642857Y-70542857D02*
X42442857Y-70771428D01*
X41871428Y-71000000D01*
X42442857Y-71228571D01*
X41642857Y-71457142D01*
X42328571Y-71914285D02*
X42385714Y-71971428D01*
X42442857Y-71914285D01*
X42385714Y-71857142D01*
X42328571Y-71914285D01*
X42442857Y-71914285D01*
X42385714Y-72428571D02*
X42442857Y-72542857D01*
X42442857Y-72771428D01*
X42385714Y-72885714D01*
X42271428Y-72942857D01*
X42214285Y-72942857D01*
X42100000Y-72885714D01*
X42042857Y-72771428D01*
X42042857Y-72600000D01*
X41985714Y-72485714D01*
X41871428Y-72428571D01*
X41814285Y-72428571D01*
X41700000Y-72485714D01*
X41642857Y-72600000D01*
X41642857Y-72771428D01*
X41700000Y-72885714D01*
X42442857Y-73457142D02*
X41242857Y-73457142D01*
X42442857Y-73971428D02*
X41814285Y-73971428D01*
X41700000Y-73914285D01*
X41642857Y-73800000D01*
X41642857Y-73628571D01*
X41700000Y-73514285D01*
X41757142Y-73457142D01*
X42442857Y-74542857D02*
X41642857Y-74542857D01*
X41871428Y-74542857D02*
X41757142Y-74600000D01*
X41700000Y-74657142D01*
X41642857Y-74771428D01*
X41642857Y-74885714D01*
X42442857Y-75800000D02*
X41242857Y-75799999D01*
X42385714Y-75800000D02*
X42442857Y-75685714D01*
X42442857Y-75457142D01*
X42385714Y-75342857D01*
X42328571Y-75285714D01*
X42214285Y-75228571D01*
X41871428Y-75228571D01*
X41757142Y-75285714D01*
X41700000Y-75342857D01*
X41642857Y-75457142D01*
X41642857Y-75685714D01*
X41700000Y-75800000D01*
X41642857Y-76257142D02*
X41642857Y-76885714D01*
X42442857Y-76257142D01*
X42442857Y-76885714D01*
X42442857Y-77342857D02*
X41642857Y-77342857D01*
X41757142Y-77342857D02*
X41700000Y-77400000D01*
X41642857Y-77514285D01*
X41642857Y-77685714D01*
X41700000Y-77800000D01*
X41814285Y-77857142D01*
X42442857Y-77857142D01*
X41814285Y-77857142D02*
X41700000Y-77914285D01*
X41642857Y-78028571D01*
X41642857Y-78200000D01*
X41700000Y-78314285D01*
X41814285Y-78371428D01*
X42442857Y-78371428D01*
X42328571Y-78942857D02*
X42385714Y-79000000D01*
X42442857Y-78942857D01*
X42385714Y-78885714D01*
X42328571Y-78942857D01*
X42442857Y-78942857D01*
X42385714Y-80028571D02*
X42442857Y-79914285D01*
X42442857Y-79685714D01*
X42385714Y-79571428D01*
X42328571Y-79514285D01*
X42214285Y-79457142D01*
X41871428Y-79457142D01*
X41757142Y-79514285D01*
X41700000Y-79571428D01*
X41642857Y-79685714D01*
X41642857Y-79914285D01*
X41700000Y-80028571D01*
X42442857Y-80714285D02*
X42385714Y-80600000D01*
X42328571Y-80542857D01*
X42214285Y-80485714D01*
X41871428Y-80485714D01*
X41757142Y-80542857D01*
X41700000Y-80600000D01*
X41642857Y-80714285D01*
X41642857Y-80885714D01*
X41700000Y-81000000D01*
X41757142Y-81057142D01*
X41871428Y-81114285D01*
X42214285Y-81114285D01*
X42328571Y-81057142D01*
X42385714Y-81000000D01*
X42442857Y-80885714D01*
X42442857Y-80714285D01*
X42442857Y-81628571D02*
X41642857Y-81628571D01*
X41757142Y-81628571D02*
X41700000Y-81685714D01*
X41642857Y-81800000D01*
X41642857Y-81971428D01*
X41700000Y-82085714D01*
X41814285Y-82142857D01*
X42442857Y-82142857D01*
X41814285Y-82142857D02*
X41700000Y-82200000D01*
X41642857Y-82314285D01*
X41642857Y-82485714D01*
X41700000Y-82600000D01*
X41814285Y-82657142D01*
X42442857Y-82657142D01*
X41642857Y-48028571D02*
X42442857Y-48257142D01*
X41871428Y-48485714D01*
X42442857Y-48714285D01*
X41642857Y-48942857D01*
X41642857Y-49285714D02*
X42442857Y-49514285D01*
X41871428Y-49742857D01*
X42442857Y-49971428D01*
X41642857Y-50200000D01*
X41642857Y-50542857D02*
X42442857Y-50771428D01*
X41871428Y-51000000D01*
X42442857Y-51228571D01*
X41642857Y-51457142D01*
X42328571Y-51914285D02*
X42385714Y-51971428D01*
X42442857Y-51914285D01*
X42385714Y-51857142D01*
X42328571Y-51914285D01*
X42442857Y-51914285D01*
X42385714Y-52428571D02*
X42442857Y-52542857D01*
X42442857Y-52771428D01*
X42385714Y-52885714D01*
X42271428Y-52942857D01*
X42214285Y-52942857D01*
X42100000Y-52885714D01*
X42042857Y-52771428D01*
X42042857Y-52600000D01*
X41985714Y-52485714D01*
X41871428Y-52428571D01*
X41814285Y-52428571D01*
X41700000Y-52485714D01*
X41642857Y-52600000D01*
X41642857Y-52771428D01*
X41700000Y-52885714D01*
X42442857Y-53457142D02*
X41242857Y-53457142D01*
X42442857Y-53971428D02*
X41814285Y-53971428D01*
X41700000Y-53914285D01*
X41642857Y-53800000D01*
X41642857Y-53628571D01*
X41700000Y-53514285D01*
X41757142Y-53457142D01*
X42442857Y-54542857D02*
X41642857Y-54542857D01*
X41871428Y-54542857D02*
X41757142Y-54599999D01*
X41700000Y-54657142D01*
X41642857Y-54771428D01*
X41642857Y-54885714D01*
X42442857Y-55799999D02*
X41242857Y-55799999D01*
X42385714Y-55799999D02*
X42442857Y-55685714D01*
X42442857Y-55457142D01*
X42385714Y-55342857D01*
X42328571Y-55285714D01*
X42214285Y-55228571D01*
X41871428Y-55228571D01*
X41757142Y-55285714D01*
X41700000Y-55342857D01*
X41642857Y-55457142D01*
X41642857Y-55685714D01*
X41700000Y-55799999D01*
X41642857Y-56257142D02*
X41642857Y-56885714D01*
X42442857Y-56257142D01*
X42442857Y-56885714D01*
X42442857Y-57342857D02*
X41642857Y-57342857D01*
X41757142Y-57342857D02*
X41700000Y-57399999D01*
X41642857Y-57514285D01*
X41642857Y-57685714D01*
X41700000Y-57799999D01*
X41814285Y-57857142D01*
X42442857Y-57857142D01*
X41814285Y-57857142D02*
X41700000Y-57914285D01*
X41642857Y-58028571D01*
X41642857Y-58199999D01*
X41700000Y-58314285D01*
X41814285Y-58371428D01*
X42442857Y-58371428D01*
X42328571Y-58942857D02*
X42385714Y-58999999D01*
X42442857Y-58942857D01*
X42385714Y-58885714D01*
X42328571Y-58942857D01*
X42442857Y-58942857D01*
X42385714Y-60028571D02*
X42442857Y-59914285D01*
X42442857Y-59685714D01*
X42385714Y-59571428D01*
X42328571Y-59514285D01*
X42214285Y-59457142D01*
X41871428Y-59457142D01*
X41757142Y-59514285D01*
X41700000Y-59571428D01*
X41642857Y-59685714D01*
X41642857Y-59914285D01*
X41700000Y-60028571D01*
X42442857Y-60714285D02*
X42385714Y-60599999D01*
X42328571Y-60542857D01*
X42214285Y-60485714D01*
X41871428Y-60485714D01*
X41757142Y-60542857D01*
X41700000Y-60599999D01*
X41642857Y-60714285D01*
X41642857Y-60885714D01*
X41700000Y-60999999D01*
X41757142Y-61057142D01*
X41871428Y-61114285D01*
X42214285Y-61114285D01*
X42328571Y-61057142D01*
X42385714Y-60999999D01*
X42442857Y-60885714D01*
X42442857Y-60714285D01*
X42442857Y-61628571D02*
X41642857Y-61628571D01*
X41757142Y-61628571D02*
X41700000Y-61685714D01*
X41642857Y-61799999D01*
X41642857Y-61971428D01*
X41700000Y-62085714D01*
X41814285Y-62142857D01*
X42442857Y-62142857D01*
X41814285Y-62142857D02*
X41700000Y-62199999D01*
X41642857Y-62314285D01*
X41642857Y-62485714D01*
X41700000Y-62599999D01*
X41814285Y-62657142D01*
X42442857Y-62657142D01*
X91642857Y-48028571D02*
X92442857Y-48257142D01*
X91871428Y-48485714D01*
X92442857Y-48714285D01*
X91642857Y-48942857D01*
X91642857Y-49285714D02*
X92442857Y-49514285D01*
X91871428Y-49742857D01*
X92442857Y-49971428D01*
X91642857Y-50200000D01*
X91642857Y-50542857D02*
X92442857Y-50771428D01*
X91871428Y-51000000D01*
X92442857Y-51228571D01*
X91642857Y-51457142D01*
X92328571Y-51914285D02*
X92385714Y-51971428D01*
X92442857Y-51914285D01*
X92385714Y-51857142D01*
X92328571Y-51914285D01*
X92442857Y-51914285D01*
X92385714Y-52428571D02*
X92442857Y-52542857D01*
X92442857Y-52771428D01*
X92385714Y-52885714D01*
X92271428Y-52942857D01*
X92214285Y-52942857D01*
X92100000Y-52885714D01*
X92042857Y-52771428D01*
X92042857Y-52600000D01*
X91985714Y-52485714D01*
X91871428Y-52428571D01*
X91814285Y-52428571D01*
X91700000Y-52485714D01*
X91642857Y-52600000D01*
X91642857Y-52771428D01*
X91700000Y-52885714D01*
X92442857Y-53457142D02*
X91242857Y-53457142D01*
X92442857Y-53971428D02*
X91814285Y-53971428D01*
X91700000Y-53914285D01*
X91642857Y-53800000D01*
X91642857Y-53628571D01*
X91700000Y-53514285D01*
X91757142Y-53457142D01*
X92442857Y-54542857D02*
X91642857Y-54542857D01*
X91871428Y-54542857D02*
X91757142Y-54600000D01*
X91700000Y-54657142D01*
X91642857Y-54771428D01*
X91642857Y-54885714D01*
X92442857Y-55800000D02*
X91242857Y-55800000D01*
X92385714Y-55800000D02*
X92442857Y-55685714D01*
X92442857Y-55457142D01*
X92385714Y-55342857D01*
X92328571Y-55285714D01*
X92214285Y-55228571D01*
X91871428Y-55228571D01*
X91757142Y-55285714D01*
X91700000Y-55342857D01*
X91642857Y-55457142D01*
X91642857Y-55685714D01*
X91700000Y-55800000D01*
X91642857Y-56257142D02*
X91642857Y-56885714D01*
X92442857Y-56257142D01*
X92442857Y-56885714D01*
X92442857Y-57342857D02*
X91642857Y-57342857D01*
X91757142Y-57342857D02*
X91700000Y-57400000D01*
X91642857Y-57514285D01*
X91642857Y-57685714D01*
X91700000Y-57800000D01*
X91814285Y-57857142D01*
X92442857Y-57857142D01*
X91814285Y-57857142D02*
X91700000Y-57914285D01*
X91642857Y-58028571D01*
X91642857Y-58200000D01*
X91700000Y-58314285D01*
X91814285Y-58371428D01*
X92442857Y-58371428D01*
X92328571Y-58942857D02*
X92385714Y-59000000D01*
X92442857Y-58942857D01*
X92385714Y-58885714D01*
X92328571Y-58942857D01*
X92442857Y-58942857D01*
X92385714Y-60028571D02*
X92442857Y-59914285D01*
X92442857Y-59685714D01*
X92385714Y-59571428D01*
X92328571Y-59514285D01*
X92214285Y-59457142D01*
X91871428Y-59457142D01*
X91757142Y-59514285D01*
X91700000Y-59571428D01*
X91642857Y-59685714D01*
X91642857Y-59914285D01*
X91700000Y-60028571D01*
X92442857Y-60714285D02*
X92385714Y-60600000D01*
X92328571Y-60542857D01*
X92214285Y-60485714D01*
X91871428Y-60485714D01*
X91757142Y-60542857D01*
X91700000Y-60600000D01*
X91642857Y-60714285D01*
X91642857Y-60885714D01*
X91700000Y-61000000D01*
X91757142Y-61057142D01*
X91871428Y-61114285D01*
X92214285Y-61114285D01*
X92328571Y-61057142D01*
X92385714Y-61000000D01*
X92442857Y-60885714D01*
X92442857Y-60714285D01*
X92442857Y-61628571D02*
X91642857Y-61628571D01*
X91757142Y-61628571D02*
X91700000Y-61685714D01*
X91642857Y-61800000D01*
X91642857Y-61971428D01*
X91700000Y-62085714D01*
X91814285Y-62142857D01*
X92442857Y-62142857D01*
X91814285Y-62142857D02*
X91700000Y-62200000D01*
X91642857Y-62314285D01*
X91642857Y-62485714D01*
X91700000Y-62600000D01*
X91814285Y-62657142D01*
X92442857Y-62657142D01*
D11*
X118452380Y-50776190D02*
X119452380Y-51109523D01*
X118452380Y-51442857D01*
X118452380Y-52252380D02*
X118452380Y-51776190D01*
X118928571Y-51728571D01*
X118880952Y-51776190D01*
X118833333Y-51871428D01*
X118833333Y-52109523D01*
X118880952Y-52204761D01*
X118928571Y-52252380D01*
X119023809Y-52299999D01*
X119261904Y-52299999D01*
X119357142Y-52252380D01*
X119404761Y-52204761D01*
X119452380Y-52109523D01*
X119452380Y-51871428D01*
X119404761Y-51776190D01*
X119357142Y-51728571D01*
X119357142Y-52728571D02*
X119404761Y-52776190D01*
X119452380Y-52728571D01*
X119404761Y-52680952D01*
X119357142Y-52728571D01*
X119452380Y-52728571D01*
X118452380Y-53395238D02*
X118452380Y-53490476D01*
X118500000Y-53585714D01*
X118547619Y-53633333D01*
X118642857Y-53680952D01*
X118833333Y-53728571D01*
X119071428Y-53728571D01*
X119261904Y-53680952D01*
X119357142Y-53633333D01*
X119404761Y-53585714D01*
X119452380Y-53490476D01*
X119452380Y-53395238D01*
X119404761Y-53299999D01*
X119357142Y-53252380D01*
X119261904Y-53204761D01*
X119071428Y-53157142D01*
X118833333Y-53157142D01*
X118642857Y-53204761D01*
X118547619Y-53252380D01*
X118500000Y-53299999D01*
X118452380Y-53395238D01*
X68452380Y-50776190D02*
X69452380Y-51109523D01*
X68452380Y-51442857D01*
X68452380Y-52252380D02*
X68452380Y-51776190D01*
X68928571Y-51728571D01*
X68880952Y-51776190D01*
X68833333Y-51871428D01*
X68833333Y-52109523D01*
X68880952Y-52204761D01*
X68928571Y-52252380D01*
X69023809Y-52299999D01*
X69261904Y-52299999D01*
X69357142Y-52252380D01*
X69404761Y-52204761D01*
X69452380Y-52109523D01*
X69452380Y-51871428D01*
X69404761Y-51776190D01*
X69357142Y-51728571D01*
X69357142Y-52728571D02*
X69404761Y-52776190D01*
X69452380Y-52728571D01*
X69404761Y-52680952D01*
X69357142Y-52728571D01*
X69452380Y-52728571D01*
X68452380Y-53395238D02*
X68452380Y-53490476D01*
X68500000Y-53585714D01*
X68547619Y-53633333D01*
X68642857Y-53680952D01*
X68833333Y-53728571D01*
X69071428Y-53728571D01*
X69261904Y-53680952D01*
X69357142Y-53633333D01*
X69404761Y-53585714D01*
X69452380Y-53490476D01*
X69452380Y-53395238D01*
X69404761Y-53299999D01*
X69357142Y-53252380D01*
X69261904Y-53204761D01*
X69071428Y-53157142D01*
X68833333Y-53157142D01*
X68642857Y-53204761D01*
X68547619Y-53252380D01*
X68500000Y-53299999D01*
X68452380Y-53395238D01*
D10*
X91642857Y-28028571D02*
X92442857Y-28257142D01*
X91871428Y-28485714D01*
X92442857Y-28714285D01*
X91642857Y-28942857D01*
X91642857Y-29285714D02*
X92442857Y-29514285D01*
X91871428Y-29742857D01*
X92442857Y-29971428D01*
X91642857Y-30200000D01*
X91642857Y-30542857D02*
X92442857Y-30771428D01*
X91871428Y-31000000D01*
X92442857Y-31228571D01*
X91642857Y-31457142D01*
X92328571Y-31914285D02*
X92385714Y-31971428D01*
X92442857Y-31914285D01*
X92385714Y-31857142D01*
X92328571Y-31914285D01*
X92442857Y-31914285D01*
X92385714Y-32428571D02*
X92442857Y-32542857D01*
X92442857Y-32771428D01*
X92385714Y-32885714D01*
X92271428Y-32942857D01*
X92214285Y-32942857D01*
X92100000Y-32885714D01*
X92042857Y-32771428D01*
X92042857Y-32600000D01*
X91985714Y-32485714D01*
X91871428Y-32428571D01*
X91814285Y-32428571D01*
X91700000Y-32485714D01*
X91642857Y-32600000D01*
X91642857Y-32771428D01*
X91700000Y-32885714D01*
X92442857Y-33457142D02*
X91242857Y-33457142D01*
X92442857Y-33971428D02*
X91814285Y-33971428D01*
X91700000Y-33914285D01*
X91642857Y-33800000D01*
X91642857Y-33628571D01*
X91700000Y-33514285D01*
X91757142Y-33457142D01*
X92442857Y-34542857D02*
X91642857Y-34542857D01*
X91871428Y-34542857D02*
X91757142Y-34600000D01*
X91700000Y-34657142D01*
X91642857Y-34771428D01*
X91642857Y-34885714D01*
X92442857Y-35800000D02*
X91242857Y-35800000D01*
X92385714Y-35800000D02*
X92442857Y-35685714D01*
X92442857Y-35457142D01*
X92385714Y-35342857D01*
X92328571Y-35285714D01*
X92214285Y-35228571D01*
X91871428Y-35228571D01*
X91757142Y-35285714D01*
X91700000Y-35342857D01*
X91642857Y-35457142D01*
X91642857Y-35685714D01*
X91700000Y-35800000D01*
X91642857Y-36257142D02*
X91642857Y-36885714D01*
X92442857Y-36257142D01*
X92442857Y-36885714D01*
X92442857Y-37342857D02*
X91642857Y-37342857D01*
X91757142Y-37342857D02*
X91700000Y-37400000D01*
X91642857Y-37514285D01*
X91642857Y-37685714D01*
X91700000Y-37800000D01*
X91814285Y-37857142D01*
X92442857Y-37857142D01*
X91814285Y-37857142D02*
X91700000Y-37914285D01*
X91642857Y-38028571D01*
X91642857Y-38200000D01*
X91700000Y-38314285D01*
X91814285Y-38371428D01*
X92442857Y-38371428D01*
X92328571Y-38942857D02*
X92385714Y-39000000D01*
X92442857Y-38942857D01*
X92385714Y-38885714D01*
X92328571Y-38942857D01*
X92442857Y-38942857D01*
X92385714Y-40028571D02*
X92442857Y-39914285D01*
X92442857Y-39685714D01*
X92385714Y-39571428D01*
X92328571Y-39514285D01*
X92214285Y-39457142D01*
X91871428Y-39457142D01*
X91757142Y-39514285D01*
X91700000Y-39571428D01*
X91642857Y-39685714D01*
X91642857Y-39914285D01*
X91700000Y-40028571D01*
X92442857Y-40714285D02*
X92385714Y-40600000D01*
X92328571Y-40542857D01*
X92214285Y-40485714D01*
X91871428Y-40485714D01*
X91757142Y-40542857D01*
X91700000Y-40600000D01*
X91642857Y-40714285D01*
X91642857Y-40885714D01*
X91700000Y-41000000D01*
X91757142Y-41057142D01*
X91871428Y-41114285D01*
X92214285Y-41114285D01*
X92328571Y-41057142D01*
X92385714Y-41000000D01*
X92442857Y-40885714D01*
X92442857Y-40714285D01*
X92442857Y-41628571D02*
X91642857Y-41628571D01*
X91757142Y-41628571D02*
X91700000Y-41685714D01*
X91642857Y-41800000D01*
X91642857Y-41971428D01*
X91700000Y-42085714D01*
X91814285Y-42142857D01*
X92442857Y-42142857D01*
X91814285Y-42142857D02*
X91700000Y-42200000D01*
X91642857Y-42314285D01*
X91642857Y-42485714D01*
X91700000Y-42600000D01*
X91814285Y-42657142D01*
X92442857Y-42657142D01*
D11*
X118452380Y-30776190D02*
X119452380Y-31109523D01*
X118452380Y-31442857D01*
X118452380Y-32252380D02*
X118452380Y-31776190D01*
X118928571Y-31728571D01*
X118880952Y-31776190D01*
X118833333Y-31871428D01*
X118833333Y-32109523D01*
X118880952Y-32204761D01*
X118928571Y-32252380D01*
X119023809Y-32299999D01*
X119261904Y-32299999D01*
X119357142Y-32252380D01*
X119404761Y-32204761D01*
X119452380Y-32109523D01*
X119452380Y-31871428D01*
X119404761Y-31776190D01*
X119357142Y-31728571D01*
X119357142Y-32728571D02*
X119404761Y-32776190D01*
X119452380Y-32728571D01*
X119404761Y-32680952D01*
X119357142Y-32728571D01*
X119452380Y-32728571D01*
X118452380Y-33395238D02*
X118452380Y-33490476D01*
X118500000Y-33585714D01*
X118547619Y-33633333D01*
X118642857Y-33680952D01*
X118833333Y-33728571D01*
X119071428Y-33728571D01*
X119261904Y-33680952D01*
X119357142Y-33633333D01*
X119404761Y-33585714D01*
X119452380Y-33490476D01*
X119452380Y-33395238D01*
X119404761Y-33299999D01*
X119357142Y-33252380D01*
X119261904Y-33204761D01*
X119071428Y-33157142D01*
X118833333Y-33157142D01*
X118642857Y-33204761D01*
X118547619Y-33252380D01*
X118500000Y-33299999D01*
X118452380Y-33395238D01*
X68452380Y-30776190D02*
X69452380Y-31109523D01*
X68452380Y-31442857D01*
X68452380Y-32252380D02*
X68452380Y-31776190D01*
X68928571Y-31728571D01*
X68880952Y-31776190D01*
X68833333Y-31871428D01*
X68833333Y-32109523D01*
X68880952Y-32204761D01*
X68928571Y-32252380D01*
X69023809Y-32299999D01*
X69261904Y-32299999D01*
X69357142Y-32252380D01*
X69404761Y-32204761D01*
X69452380Y-32109523D01*
X69452380Y-31871428D01*
X69404761Y-31776190D01*
X69357142Y-31728571D01*
X69357142Y-32728571D02*
X69404761Y-32776190D01*
X69452380Y-32728571D01*
X69404761Y-32680952D01*
X69357142Y-32728571D01*
X69452380Y-32728571D01*
X68452380Y-33395238D02*
X68452380Y-33490476D01*
X68500000Y-33585714D01*
X68547619Y-33633333D01*
X68642857Y-33680952D01*
X68833333Y-33728571D01*
X69071428Y-33728571D01*
X69261904Y-33680952D01*
X69357142Y-33633333D01*
X69404761Y-33585714D01*
X69452380Y-33490476D01*
X69452380Y-33395238D01*
X69404761Y-33299999D01*
X69357142Y-33252380D01*
X69261904Y-33204761D01*
X69071428Y-33157142D01*
X68833333Y-33157142D01*
X68642857Y-33204761D01*
X68547619Y-33252380D01*
X68500000Y-33299999D01*
X68452380Y-33395238D01*
D10*
X41642857Y-28028571D02*
X42442857Y-28257142D01*
X41871428Y-28485714D01*
X42442857Y-28714285D01*
X41642857Y-28942857D01*
X41642857Y-29285714D02*
X42442857Y-29514285D01*
X41871428Y-29742857D01*
X42442857Y-29971428D01*
X41642857Y-30200000D01*
X41642857Y-30542857D02*
X42442857Y-30771428D01*
X41871428Y-31000000D01*
X42442857Y-31228571D01*
X41642857Y-31457142D01*
X42328571Y-31914285D02*
X42385714Y-31971428D01*
X42442857Y-31914285D01*
X42385714Y-31857142D01*
X42328571Y-31914285D01*
X42442857Y-31914285D01*
X42385714Y-32428571D02*
X42442857Y-32542857D01*
X42442857Y-32771428D01*
X42385714Y-32885714D01*
X42271428Y-32942857D01*
X42214285Y-32942857D01*
X42100000Y-32885714D01*
X42042857Y-32771428D01*
X42042857Y-32600000D01*
X41985714Y-32485714D01*
X41871428Y-32428571D01*
X41814285Y-32428571D01*
X41700000Y-32485714D01*
X41642857Y-32600000D01*
X41642857Y-32771428D01*
X41700000Y-32885714D01*
X42442857Y-33457142D02*
X41242857Y-33457142D01*
X42442857Y-33971428D02*
X41814285Y-33971428D01*
X41700000Y-33914285D01*
X41642857Y-33800000D01*
X41642857Y-33628571D01*
X41700000Y-33514285D01*
X41757142Y-33457142D01*
X42442857Y-34542857D02*
X41642857Y-34542857D01*
X41871428Y-34542857D02*
X41757142Y-34599999D01*
X41700000Y-34657142D01*
X41642857Y-34771428D01*
X41642857Y-34885714D01*
X42442857Y-35799999D02*
X41242857Y-35799999D01*
X42385714Y-35799999D02*
X42442857Y-35685714D01*
X42442857Y-35457142D01*
X42385714Y-35342857D01*
X42328571Y-35285714D01*
X42214285Y-35228571D01*
X41871428Y-35228571D01*
X41757142Y-35285714D01*
X41700000Y-35342857D01*
X41642857Y-35457142D01*
X41642857Y-35685714D01*
X41700000Y-35799999D01*
X41642857Y-36257142D02*
X41642857Y-36885714D01*
X42442857Y-36257142D01*
X42442857Y-36885714D01*
X42442857Y-37342857D02*
X41642857Y-37342857D01*
X41757142Y-37342857D02*
X41700000Y-37399999D01*
X41642857Y-37514285D01*
X41642857Y-37685714D01*
X41700000Y-37799999D01*
X41814285Y-37857142D01*
X42442857Y-37857142D01*
X41814285Y-37857142D02*
X41700000Y-37914285D01*
X41642857Y-38028571D01*
X41642857Y-38199999D01*
X41700000Y-38314285D01*
X41814285Y-38371428D01*
X42442857Y-38371428D01*
X42328571Y-38942857D02*
X42385714Y-38999999D01*
X42442857Y-38942857D01*
X42385714Y-38885714D01*
X42328571Y-38942857D01*
X42442857Y-38942857D01*
X42385714Y-40028571D02*
X42442857Y-39914285D01*
X42442857Y-39685714D01*
X42385714Y-39571428D01*
X42328571Y-39514285D01*
X42214285Y-39457142D01*
X41871428Y-39457142D01*
X41757142Y-39514285D01*
X41700000Y-39571428D01*
X41642857Y-39685714D01*
X41642857Y-39914285D01*
X41700000Y-40028571D01*
X42442857Y-40714285D02*
X42385714Y-40599999D01*
X42328571Y-40542857D01*
X42214285Y-40485714D01*
X41871428Y-40485714D01*
X41757142Y-40542857D01*
X41700000Y-40599999D01*
X41642857Y-40714285D01*
X41642857Y-40885714D01*
X41700000Y-40999999D01*
X41757142Y-41057142D01*
X41871428Y-41114285D01*
X42214285Y-41114285D01*
X42328571Y-41057142D01*
X42385714Y-40999999D01*
X42442857Y-40885714D01*
X42442857Y-40714285D01*
X42442857Y-41628571D02*
X41642857Y-41628571D01*
X41757142Y-41628571D02*
X41700000Y-41685714D01*
X41642857Y-41799999D01*
X41642857Y-41971428D01*
X41700000Y-42085714D01*
X41814285Y-42142857D01*
X42442857Y-42142857D01*
X41814285Y-42142857D02*
X41700000Y-42199999D01*
X41642857Y-42314285D01*
X41642857Y-42485714D01*
X41700000Y-42599999D01*
X41814285Y-42657142D01*
X42442857Y-42657142D01*
D12*
%TO.C,G1*%
G36*
X36574117Y-113193314D02*
G01*
X36577148Y-113196666D01*
X36694777Y-113301276D01*
X36799718Y-113287044D01*
X36883626Y-113230272D01*
X37384288Y-112946130D01*
X37899670Y-112813038D01*
X38411618Y-112829888D01*
X38901978Y-112995571D01*
X39352595Y-113308979D01*
X39433002Y-113385918D01*
X39786300Y-113835502D01*
X39985985Y-114310838D01*
X40032058Y-114797619D01*
X39924518Y-115281538D01*
X39663366Y-115748286D01*
X39433002Y-116014081D01*
X38992086Y-116355709D01*
X38507945Y-116549824D01*
X37998732Y-116595319D01*
X37482601Y-116491085D01*
X36977707Y-116236013D01*
X36883626Y-116169727D01*
X36750060Y-116092661D01*
X36649592Y-116129417D01*
X36577148Y-116203333D01*
X36505108Y-116295643D01*
X36506372Y-116369653D01*
X36601304Y-116458787D01*
X36810272Y-116596469D01*
X36820739Y-116603109D01*
X37305894Y-116854504D01*
X37787027Y-116975576D01*
X38321397Y-116981585D01*
X38898000Y-116859228D01*
X39416996Y-116596881D01*
X39856847Y-116209151D01*
X40196013Y-115710647D01*
X40196385Y-115709923D01*
X40319791Y-115357971D01*
X40389529Y-114926438D01*
X40401228Y-114481015D01*
X40350515Y-114087393D01*
X40312708Y-113961652D01*
X40034626Y-113422436D01*
X39649179Y-112982005D01*
X39177102Y-112655383D01*
X38639127Y-112457593D01*
X38160312Y-112402051D01*
X37669530Y-112439783D01*
X37230029Y-112574933D01*
X36819219Y-112797854D01*
X36606070Y-112937716D01*
X36507742Y-113027885D01*
X36503878Y-113101904D01*
X36574117Y-113193314D01*
G37*
X36574117Y-113193314D02*
X36577148Y-113196666D01*
X36694777Y-113301276D01*
X36799718Y-113287044D01*
X36883626Y-113230272D01*
X37384288Y-112946130D01*
X37899670Y-112813038D01*
X38411618Y-112829888D01*
X38901978Y-112995571D01*
X39352595Y-113308979D01*
X39433002Y-113385918D01*
X39786300Y-113835502D01*
X39985985Y-114310838D01*
X40032058Y-114797619D01*
X39924518Y-115281538D01*
X39663366Y-115748286D01*
X39433002Y-116014081D01*
X38992086Y-116355709D01*
X38507945Y-116549824D01*
X37998732Y-116595319D01*
X37482601Y-116491085D01*
X36977707Y-116236013D01*
X36883626Y-116169727D01*
X36750060Y-116092661D01*
X36649592Y-116129417D01*
X36577148Y-116203333D01*
X36505108Y-116295643D01*
X36506372Y-116369653D01*
X36601304Y-116458787D01*
X36810272Y-116596469D01*
X36820739Y-116603109D01*
X37305894Y-116854504D01*
X37787027Y-116975576D01*
X38321397Y-116981585D01*
X38898000Y-116859228D01*
X39416996Y-116596881D01*
X39856847Y-116209151D01*
X40196013Y-115710647D01*
X40196385Y-115709923D01*
X40319791Y-115357971D01*
X40389529Y-114926438D01*
X40401228Y-114481015D01*
X40350515Y-114087393D01*
X40312708Y-113961652D01*
X40034626Y-113422436D01*
X39649179Y-112982005D01*
X39177102Y-112655383D01*
X38639127Y-112457593D01*
X38160312Y-112402051D01*
X37669530Y-112439783D01*
X37230029Y-112574933D01*
X36819219Y-112797854D01*
X36606070Y-112937716D01*
X36507742Y-113027885D01*
X36503878Y-113101904D01*
X36574117Y-113193314D01*
G36*
X36374013Y-115136196D02*
G01*
X36603331Y-115360220D01*
X36770323Y-115491224D01*
X36919324Y-115553769D01*
X37094669Y-115572417D01*
X37162702Y-115573125D01*
X37519889Y-115573125D01*
X37089538Y-115137360D01*
X36659186Y-114701596D01*
X36930191Y-114421989D01*
X37201196Y-114142383D01*
X38091074Y-115022975D01*
X38984464Y-115000394D01*
X39877854Y-114977812D01*
X39649740Y-114759531D01*
X39509741Y-114642035D01*
X39364760Y-114576152D01*
X39162900Y-114547390D01*
X38868051Y-114541250D01*
X38314476Y-114541250D01*
X37803125Y-114025312D01*
X37569174Y-113797954D01*
X37371455Y-113621741D01*
X37239529Y-113522306D01*
X37208118Y-113509375D01*
X37120739Y-113562618D01*
X36950222Y-113706516D01*
X36723493Y-113917326D01*
X36533488Y-114104321D01*
X35942513Y-114699268D01*
X36374013Y-115136196D01*
G37*
X36374013Y-115136196D02*
X36603331Y-115360220D01*
X36770323Y-115491224D01*
X36919324Y-115553769D01*
X37094669Y-115572417D01*
X37162702Y-115573125D01*
X37519889Y-115573125D01*
X37089538Y-115137360D01*
X36659186Y-114701596D01*
X36930191Y-114421989D01*
X37201196Y-114142383D01*
X38091074Y-115022975D01*
X38984464Y-115000394D01*
X39877854Y-114977812D01*
X39649740Y-114759531D01*
X39509741Y-114642035D01*
X39364760Y-114576152D01*
X39162900Y-114547390D01*
X38868051Y-114541250D01*
X38314476Y-114541250D01*
X37803125Y-114025312D01*
X37569174Y-113797954D01*
X37371455Y-113621741D01*
X37239529Y-113522306D01*
X37208118Y-113509375D01*
X37120739Y-113562618D01*
X36950222Y-113706516D01*
X36723493Y-113917326D01*
X36533488Y-114104321D01*
X35942513Y-114699268D01*
X36374013Y-115136196D01*
G36*
X36374013Y-95236196D02*
G01*
X36603331Y-95460220D01*
X36770323Y-95591224D01*
X36919324Y-95653769D01*
X37094669Y-95672417D01*
X37162702Y-95673125D01*
X37519889Y-95673125D01*
X37089538Y-95237360D01*
X36659186Y-94801596D01*
X36930191Y-94521989D01*
X37201196Y-94242383D01*
X38091074Y-95122975D01*
X38984464Y-95100394D01*
X39877854Y-95077812D01*
X39649740Y-94859531D01*
X39509741Y-94742035D01*
X39364760Y-94676152D01*
X39162900Y-94647390D01*
X38868051Y-94641250D01*
X38314476Y-94641250D01*
X37803125Y-94125312D01*
X37569174Y-93897954D01*
X37371455Y-93721741D01*
X37239529Y-93622306D01*
X37208118Y-93609375D01*
X37120739Y-93662618D01*
X36950222Y-93806516D01*
X36723493Y-94017326D01*
X36533488Y-94204321D01*
X35942513Y-94799268D01*
X36374013Y-95236196D01*
G37*
X36374013Y-95236196D02*
X36603331Y-95460220D01*
X36770323Y-95591224D01*
X36919324Y-95653769D01*
X37094669Y-95672417D01*
X37162702Y-95673125D01*
X37519889Y-95673125D01*
X37089538Y-95237360D01*
X36659186Y-94801596D01*
X36930191Y-94521989D01*
X37201196Y-94242383D01*
X38091074Y-95122975D01*
X38984464Y-95100394D01*
X39877854Y-95077812D01*
X39649740Y-94859531D01*
X39509741Y-94742035D01*
X39364760Y-94676152D01*
X39162900Y-94647390D01*
X38868051Y-94641250D01*
X38314476Y-94641250D01*
X37803125Y-94125312D01*
X37569174Y-93897954D01*
X37371455Y-93721741D01*
X37239529Y-93622306D01*
X37208118Y-93609375D01*
X37120739Y-93662618D01*
X36950222Y-93806516D01*
X36723493Y-94017326D01*
X36533488Y-94204321D01*
X35942513Y-94799268D01*
X36374013Y-95236196D01*
G36*
X36574117Y-93293314D02*
G01*
X36577148Y-93296666D01*
X36694777Y-93401276D01*
X36799718Y-93387044D01*
X36883626Y-93330272D01*
X37384288Y-93046130D01*
X37899670Y-92913038D01*
X38411618Y-92929888D01*
X38901978Y-93095571D01*
X39352595Y-93408979D01*
X39433002Y-93485918D01*
X39786300Y-93935502D01*
X39985985Y-94410838D01*
X40032058Y-94897619D01*
X39924518Y-95381538D01*
X39663366Y-95848286D01*
X39433002Y-96114081D01*
X38992086Y-96455709D01*
X38507945Y-96649824D01*
X37998732Y-96695319D01*
X37482601Y-96591085D01*
X36977707Y-96336013D01*
X36883626Y-96269727D01*
X36750060Y-96192661D01*
X36649592Y-96229417D01*
X36577148Y-96303333D01*
X36505108Y-96395643D01*
X36506372Y-96469653D01*
X36601304Y-96558787D01*
X36810272Y-96696469D01*
X36820739Y-96703109D01*
X37305894Y-96954504D01*
X37787027Y-97075576D01*
X38321397Y-97081585D01*
X38898000Y-96959228D01*
X39416996Y-96696881D01*
X39856847Y-96309151D01*
X40196013Y-95810647D01*
X40196385Y-95809923D01*
X40319791Y-95457971D01*
X40389529Y-95026438D01*
X40401228Y-94581015D01*
X40350515Y-94187393D01*
X40312708Y-94061652D01*
X40034626Y-93522436D01*
X39649179Y-93082005D01*
X39177102Y-92755383D01*
X38639127Y-92557593D01*
X38160312Y-92502051D01*
X37669530Y-92539783D01*
X37230029Y-92674933D01*
X36819219Y-92897854D01*
X36606070Y-93037716D01*
X36507742Y-93127885D01*
X36503878Y-93201904D01*
X36574117Y-93293314D01*
G37*
X36574117Y-93293314D02*
X36577148Y-93296666D01*
X36694777Y-93401276D01*
X36799718Y-93387044D01*
X36883626Y-93330272D01*
X37384288Y-93046130D01*
X37899670Y-92913038D01*
X38411618Y-92929888D01*
X38901978Y-93095571D01*
X39352595Y-93408979D01*
X39433002Y-93485918D01*
X39786300Y-93935502D01*
X39985985Y-94410838D01*
X40032058Y-94897619D01*
X39924518Y-95381538D01*
X39663366Y-95848286D01*
X39433002Y-96114081D01*
X38992086Y-96455709D01*
X38507945Y-96649824D01*
X37998732Y-96695319D01*
X37482601Y-96591085D01*
X36977707Y-96336013D01*
X36883626Y-96269727D01*
X36750060Y-96192661D01*
X36649592Y-96229417D01*
X36577148Y-96303333D01*
X36505108Y-96395643D01*
X36506372Y-96469653D01*
X36601304Y-96558787D01*
X36810272Y-96696469D01*
X36820739Y-96703109D01*
X37305894Y-96954504D01*
X37787027Y-97075576D01*
X38321397Y-97081585D01*
X38898000Y-96959228D01*
X39416996Y-96696881D01*
X39856847Y-96309151D01*
X40196013Y-95810647D01*
X40196385Y-95809923D01*
X40319791Y-95457971D01*
X40389529Y-95026438D01*
X40401228Y-94581015D01*
X40350515Y-94187393D01*
X40312708Y-94061652D01*
X40034626Y-93522436D01*
X39649179Y-93082005D01*
X39177102Y-92755383D01*
X38639127Y-92557593D01*
X38160312Y-92502051D01*
X37669530Y-92539783D01*
X37230029Y-92674933D01*
X36819219Y-92897854D01*
X36606070Y-93037716D01*
X36507742Y-93127885D01*
X36503878Y-93201904D01*
X36574117Y-93293314D01*
G36*
X36574117Y-73393314D02*
G01*
X36577148Y-73396666D01*
X36694777Y-73501276D01*
X36799718Y-73487044D01*
X36883626Y-73430272D01*
X37384288Y-73146130D01*
X37899670Y-73013038D01*
X38411618Y-73029888D01*
X38901978Y-73195571D01*
X39352595Y-73508979D01*
X39433002Y-73585918D01*
X39786300Y-74035502D01*
X39985985Y-74510838D01*
X40032058Y-74997619D01*
X39924518Y-75481538D01*
X39663366Y-75948286D01*
X39433002Y-76214081D01*
X38992086Y-76555709D01*
X38507945Y-76749824D01*
X37998732Y-76795319D01*
X37482601Y-76691085D01*
X36977707Y-76436013D01*
X36883626Y-76369727D01*
X36750060Y-76292661D01*
X36649592Y-76329417D01*
X36577148Y-76403333D01*
X36505108Y-76495643D01*
X36506372Y-76569653D01*
X36601304Y-76658787D01*
X36810272Y-76796469D01*
X36820739Y-76803109D01*
X37305894Y-77054504D01*
X37787027Y-77175576D01*
X38321397Y-77181585D01*
X38898000Y-77059228D01*
X39416996Y-76796881D01*
X39856847Y-76409151D01*
X40196013Y-75910647D01*
X40196385Y-75909923D01*
X40319791Y-75557971D01*
X40389529Y-75126438D01*
X40401228Y-74681015D01*
X40350515Y-74287393D01*
X40312708Y-74161652D01*
X40034626Y-73622436D01*
X39649179Y-73182005D01*
X39177102Y-72855383D01*
X38639127Y-72657593D01*
X38160312Y-72602051D01*
X37669530Y-72639783D01*
X37230029Y-72774933D01*
X36819219Y-72997854D01*
X36606070Y-73137716D01*
X36507742Y-73227885D01*
X36503878Y-73301904D01*
X36574117Y-73393314D01*
G37*
X36574117Y-73393314D02*
X36577148Y-73396666D01*
X36694777Y-73501276D01*
X36799718Y-73487044D01*
X36883626Y-73430272D01*
X37384288Y-73146130D01*
X37899670Y-73013038D01*
X38411618Y-73029888D01*
X38901978Y-73195571D01*
X39352595Y-73508979D01*
X39433002Y-73585918D01*
X39786300Y-74035502D01*
X39985985Y-74510838D01*
X40032058Y-74997619D01*
X39924518Y-75481538D01*
X39663366Y-75948286D01*
X39433002Y-76214081D01*
X38992086Y-76555709D01*
X38507945Y-76749824D01*
X37998732Y-76795319D01*
X37482601Y-76691085D01*
X36977707Y-76436013D01*
X36883626Y-76369727D01*
X36750060Y-76292661D01*
X36649592Y-76329417D01*
X36577148Y-76403333D01*
X36505108Y-76495643D01*
X36506372Y-76569653D01*
X36601304Y-76658787D01*
X36810272Y-76796469D01*
X36820739Y-76803109D01*
X37305894Y-77054504D01*
X37787027Y-77175576D01*
X38321397Y-77181585D01*
X38898000Y-77059228D01*
X39416996Y-76796881D01*
X39856847Y-76409151D01*
X40196013Y-75910647D01*
X40196385Y-75909923D01*
X40319791Y-75557971D01*
X40389529Y-75126438D01*
X40401228Y-74681015D01*
X40350515Y-74287393D01*
X40312708Y-74161652D01*
X40034626Y-73622436D01*
X39649179Y-73182005D01*
X39177102Y-72855383D01*
X38639127Y-72657593D01*
X38160312Y-72602051D01*
X37669530Y-72639783D01*
X37230029Y-72774933D01*
X36819219Y-72997854D01*
X36606070Y-73137716D01*
X36507742Y-73227885D01*
X36503878Y-73301904D01*
X36574117Y-73393314D01*
G36*
X36374013Y-75336196D02*
G01*
X36603331Y-75560220D01*
X36770323Y-75691224D01*
X36919324Y-75753769D01*
X37094669Y-75772417D01*
X37162702Y-75773125D01*
X37519889Y-75773125D01*
X37089538Y-75337360D01*
X36659186Y-74901596D01*
X36930191Y-74621989D01*
X37201196Y-74342383D01*
X38091074Y-75222975D01*
X38984464Y-75200394D01*
X39877854Y-75177812D01*
X39649740Y-74959531D01*
X39509741Y-74842035D01*
X39364760Y-74776152D01*
X39162900Y-74747390D01*
X38868051Y-74741250D01*
X38314476Y-74741250D01*
X37803125Y-74225312D01*
X37569174Y-73997954D01*
X37371455Y-73821741D01*
X37239529Y-73722306D01*
X37208118Y-73709375D01*
X37120739Y-73762618D01*
X36950222Y-73906516D01*
X36723493Y-74117326D01*
X36533488Y-74304321D01*
X35942513Y-74899268D01*
X36374013Y-75336196D01*
G37*
X36374013Y-75336196D02*
X36603331Y-75560220D01*
X36770323Y-75691224D01*
X36919324Y-75753769D01*
X37094669Y-75772417D01*
X37162702Y-75773125D01*
X37519889Y-75773125D01*
X37089538Y-75337360D01*
X36659186Y-74901596D01*
X36930191Y-74621989D01*
X37201196Y-74342383D01*
X38091074Y-75222975D01*
X38984464Y-75200394D01*
X39877854Y-75177812D01*
X39649740Y-74959531D01*
X39509741Y-74842035D01*
X39364760Y-74776152D01*
X39162900Y-74747390D01*
X38868051Y-74741250D01*
X38314476Y-74741250D01*
X37803125Y-74225312D01*
X37569174Y-73997954D01*
X37371455Y-73821741D01*
X37239529Y-73722306D01*
X37208118Y-73709375D01*
X37120739Y-73762618D01*
X36950222Y-73906516D01*
X36723493Y-74117326D01*
X36533488Y-74304321D01*
X35942513Y-74899268D01*
X36374013Y-75336196D01*
G36*
X36474013Y-55336196D02*
G01*
X36703331Y-55560220D01*
X36870323Y-55691224D01*
X37019324Y-55753769D01*
X37194669Y-55772417D01*
X37262702Y-55773125D01*
X37619889Y-55773125D01*
X37189538Y-55337360D01*
X36759186Y-54901596D01*
X37030191Y-54621989D01*
X37301196Y-54342383D01*
X38191074Y-55222975D01*
X39084464Y-55200394D01*
X39977854Y-55177812D01*
X39749740Y-54959531D01*
X39609741Y-54842035D01*
X39464760Y-54776152D01*
X39262900Y-54747390D01*
X38968051Y-54741250D01*
X38414476Y-54741250D01*
X37903125Y-54225312D01*
X37669174Y-53997954D01*
X37471455Y-53821741D01*
X37339529Y-53722306D01*
X37308118Y-53709375D01*
X37220739Y-53762618D01*
X37050222Y-53906516D01*
X36823493Y-54117326D01*
X36633488Y-54304321D01*
X36042513Y-54899268D01*
X36474013Y-55336196D01*
G37*
X36474013Y-55336196D02*
X36703331Y-55560220D01*
X36870323Y-55691224D01*
X37019324Y-55753769D01*
X37194669Y-55772417D01*
X37262702Y-55773125D01*
X37619889Y-55773125D01*
X37189538Y-55337360D01*
X36759186Y-54901596D01*
X37030191Y-54621989D01*
X37301196Y-54342383D01*
X38191074Y-55222975D01*
X39084464Y-55200394D01*
X39977854Y-55177812D01*
X39749740Y-54959531D01*
X39609741Y-54842035D01*
X39464760Y-54776152D01*
X39262900Y-54747390D01*
X38968051Y-54741250D01*
X38414476Y-54741250D01*
X37903125Y-54225312D01*
X37669174Y-53997954D01*
X37471455Y-53821741D01*
X37339529Y-53722306D01*
X37308118Y-53709375D01*
X37220739Y-53762618D01*
X37050222Y-53906516D01*
X36823493Y-54117326D01*
X36633488Y-54304321D01*
X36042513Y-54899268D01*
X36474013Y-55336196D01*
G36*
X36674117Y-53393314D02*
G01*
X36677148Y-53396666D01*
X36794777Y-53501276D01*
X36899718Y-53487044D01*
X36983626Y-53430272D01*
X37484288Y-53146130D01*
X37999670Y-53013038D01*
X38511618Y-53029888D01*
X39001978Y-53195571D01*
X39452595Y-53508979D01*
X39533002Y-53585918D01*
X39886300Y-54035502D01*
X40085985Y-54510838D01*
X40132058Y-54997619D01*
X40024518Y-55481538D01*
X39763366Y-55948286D01*
X39533002Y-56214081D01*
X39092086Y-56555709D01*
X38607945Y-56749824D01*
X38098732Y-56795319D01*
X37582601Y-56691085D01*
X37077707Y-56436013D01*
X36983626Y-56369727D01*
X36850060Y-56292661D01*
X36749592Y-56329417D01*
X36677148Y-56403333D01*
X36605108Y-56495643D01*
X36606372Y-56569653D01*
X36701304Y-56658787D01*
X36910272Y-56796469D01*
X36920739Y-56803109D01*
X37405894Y-57054504D01*
X37887027Y-57175576D01*
X38421397Y-57181585D01*
X38998000Y-57059228D01*
X39516996Y-56796881D01*
X39956847Y-56409151D01*
X40296013Y-55910647D01*
X40296385Y-55909923D01*
X40419791Y-55557971D01*
X40489529Y-55126438D01*
X40501228Y-54681015D01*
X40450515Y-54287393D01*
X40412708Y-54161652D01*
X40134626Y-53622436D01*
X39749179Y-53182005D01*
X39277102Y-52855383D01*
X38739127Y-52657593D01*
X38260312Y-52602051D01*
X37769530Y-52639783D01*
X37330029Y-52774933D01*
X36919219Y-52997854D01*
X36706070Y-53137716D01*
X36607742Y-53227885D01*
X36603878Y-53301904D01*
X36674117Y-53393314D01*
G37*
X36674117Y-53393314D02*
X36677148Y-53396666D01*
X36794777Y-53501276D01*
X36899718Y-53487044D01*
X36983626Y-53430272D01*
X37484288Y-53146130D01*
X37999670Y-53013038D01*
X38511618Y-53029888D01*
X39001978Y-53195571D01*
X39452595Y-53508979D01*
X39533002Y-53585918D01*
X39886300Y-54035502D01*
X40085985Y-54510838D01*
X40132058Y-54997619D01*
X40024518Y-55481538D01*
X39763366Y-55948286D01*
X39533002Y-56214081D01*
X39092086Y-56555709D01*
X38607945Y-56749824D01*
X38098732Y-56795319D01*
X37582601Y-56691085D01*
X37077707Y-56436013D01*
X36983626Y-56369727D01*
X36850060Y-56292661D01*
X36749592Y-56329417D01*
X36677148Y-56403333D01*
X36605108Y-56495643D01*
X36606372Y-56569653D01*
X36701304Y-56658787D01*
X36910272Y-56796469D01*
X36920739Y-56803109D01*
X37405894Y-57054504D01*
X37887027Y-57175576D01*
X38421397Y-57181585D01*
X38998000Y-57059228D01*
X39516996Y-56796881D01*
X39956847Y-56409151D01*
X40296013Y-55910647D01*
X40296385Y-55909923D01*
X40419791Y-55557971D01*
X40489529Y-55126438D01*
X40501228Y-54681015D01*
X40450515Y-54287393D01*
X40412708Y-54161652D01*
X40134626Y-53622436D01*
X39749179Y-53182005D01*
X39277102Y-52855383D01*
X38739127Y-52657593D01*
X38260312Y-52602051D01*
X37769530Y-52639783D01*
X37330029Y-52774933D01*
X36919219Y-52997854D01*
X36706070Y-53137716D01*
X36607742Y-53227885D01*
X36603878Y-53301904D01*
X36674117Y-53393314D01*
G36*
X86474013Y-115136196D02*
G01*
X86703331Y-115360220D01*
X86870323Y-115491224D01*
X87019324Y-115553769D01*
X87194669Y-115572417D01*
X87262702Y-115573125D01*
X87619889Y-115573125D01*
X87189538Y-115137360D01*
X86759186Y-114701596D01*
X87030191Y-114421989D01*
X87301196Y-114142383D01*
X88191074Y-115022975D01*
X89084464Y-115000394D01*
X89977854Y-114977812D01*
X89749740Y-114759531D01*
X89609741Y-114642035D01*
X89464760Y-114576152D01*
X89262900Y-114547390D01*
X88968051Y-114541250D01*
X88414476Y-114541250D01*
X87903125Y-114025312D01*
X87669174Y-113797954D01*
X87471455Y-113621741D01*
X87339529Y-113522306D01*
X87308118Y-113509375D01*
X87220739Y-113562618D01*
X87050222Y-113706516D01*
X86823493Y-113917326D01*
X86633488Y-114104321D01*
X86042513Y-114699268D01*
X86474013Y-115136196D01*
G37*
X86474013Y-115136196D02*
X86703331Y-115360220D01*
X86870323Y-115491224D01*
X87019324Y-115553769D01*
X87194669Y-115572417D01*
X87262702Y-115573125D01*
X87619889Y-115573125D01*
X87189538Y-115137360D01*
X86759186Y-114701596D01*
X87030191Y-114421989D01*
X87301196Y-114142383D01*
X88191074Y-115022975D01*
X89084464Y-115000394D01*
X89977854Y-114977812D01*
X89749740Y-114759531D01*
X89609741Y-114642035D01*
X89464760Y-114576152D01*
X89262900Y-114547390D01*
X88968051Y-114541250D01*
X88414476Y-114541250D01*
X87903125Y-114025312D01*
X87669174Y-113797954D01*
X87471455Y-113621741D01*
X87339529Y-113522306D01*
X87308118Y-113509375D01*
X87220739Y-113562618D01*
X87050222Y-113706516D01*
X86823493Y-113917326D01*
X86633488Y-114104321D01*
X86042513Y-114699268D01*
X86474013Y-115136196D01*
G36*
X86674117Y-113193314D02*
G01*
X86677148Y-113196666D01*
X86794777Y-113301276D01*
X86899718Y-113287044D01*
X86983626Y-113230272D01*
X87484288Y-112946130D01*
X87999670Y-112813038D01*
X88511618Y-112829888D01*
X89001978Y-112995571D01*
X89452595Y-113308979D01*
X89533002Y-113385918D01*
X89886300Y-113835502D01*
X90085985Y-114310838D01*
X90132058Y-114797619D01*
X90024518Y-115281538D01*
X89763366Y-115748286D01*
X89533002Y-116014081D01*
X89092086Y-116355709D01*
X88607945Y-116549824D01*
X88098732Y-116595319D01*
X87582601Y-116491085D01*
X87077707Y-116236013D01*
X86983626Y-116169727D01*
X86850060Y-116092661D01*
X86749592Y-116129417D01*
X86677148Y-116203333D01*
X86605108Y-116295643D01*
X86606372Y-116369653D01*
X86701304Y-116458787D01*
X86910272Y-116596469D01*
X86920739Y-116603109D01*
X87405894Y-116854504D01*
X87887027Y-116975576D01*
X88421397Y-116981585D01*
X88998000Y-116859228D01*
X89516996Y-116596881D01*
X89956847Y-116209151D01*
X90296013Y-115710647D01*
X90296385Y-115709923D01*
X90419791Y-115357971D01*
X90489529Y-114926438D01*
X90501228Y-114481015D01*
X90450515Y-114087393D01*
X90412708Y-113961652D01*
X90134626Y-113422436D01*
X89749179Y-112982005D01*
X89277102Y-112655383D01*
X88739127Y-112457593D01*
X88260312Y-112402051D01*
X87769530Y-112439783D01*
X87330029Y-112574933D01*
X86919219Y-112797854D01*
X86706070Y-112937716D01*
X86607742Y-113027885D01*
X86603878Y-113101904D01*
X86674117Y-113193314D01*
G37*
X86674117Y-113193314D02*
X86677148Y-113196666D01*
X86794777Y-113301276D01*
X86899718Y-113287044D01*
X86983626Y-113230272D01*
X87484288Y-112946130D01*
X87999670Y-112813038D01*
X88511618Y-112829888D01*
X89001978Y-112995571D01*
X89452595Y-113308979D01*
X89533002Y-113385918D01*
X89886300Y-113835502D01*
X90085985Y-114310838D01*
X90132058Y-114797619D01*
X90024518Y-115281538D01*
X89763366Y-115748286D01*
X89533002Y-116014081D01*
X89092086Y-116355709D01*
X88607945Y-116549824D01*
X88098732Y-116595319D01*
X87582601Y-116491085D01*
X87077707Y-116236013D01*
X86983626Y-116169727D01*
X86850060Y-116092661D01*
X86749592Y-116129417D01*
X86677148Y-116203333D01*
X86605108Y-116295643D01*
X86606372Y-116369653D01*
X86701304Y-116458787D01*
X86910272Y-116596469D01*
X86920739Y-116603109D01*
X87405894Y-116854504D01*
X87887027Y-116975576D01*
X88421397Y-116981585D01*
X88998000Y-116859228D01*
X89516996Y-116596881D01*
X89956847Y-116209151D01*
X90296013Y-115710647D01*
X90296385Y-115709923D01*
X90419791Y-115357971D01*
X90489529Y-114926438D01*
X90501228Y-114481015D01*
X90450515Y-114087393D01*
X90412708Y-113961652D01*
X90134626Y-113422436D01*
X89749179Y-112982005D01*
X89277102Y-112655383D01*
X88739127Y-112457593D01*
X88260312Y-112402051D01*
X87769530Y-112439783D01*
X87330029Y-112574933D01*
X86919219Y-112797854D01*
X86706070Y-112937716D01*
X86607742Y-113027885D01*
X86603878Y-113101904D01*
X86674117Y-113193314D01*
G36*
X86674117Y-93293314D02*
G01*
X86677148Y-93296666D01*
X86794777Y-93401276D01*
X86899718Y-93387044D01*
X86983626Y-93330272D01*
X87484288Y-93046130D01*
X87999670Y-92913038D01*
X88511618Y-92929888D01*
X89001978Y-93095571D01*
X89452595Y-93408979D01*
X89533002Y-93485918D01*
X89886300Y-93935502D01*
X90085985Y-94410838D01*
X90132058Y-94897619D01*
X90024518Y-95381538D01*
X89763366Y-95848286D01*
X89533002Y-96114081D01*
X89092086Y-96455709D01*
X88607945Y-96649824D01*
X88098732Y-96695319D01*
X87582601Y-96591085D01*
X87077707Y-96336013D01*
X86983626Y-96269727D01*
X86850060Y-96192661D01*
X86749592Y-96229417D01*
X86677148Y-96303333D01*
X86605108Y-96395643D01*
X86606372Y-96469653D01*
X86701304Y-96558787D01*
X86910272Y-96696469D01*
X86920739Y-96703109D01*
X87405894Y-96954504D01*
X87887027Y-97075576D01*
X88421397Y-97081585D01*
X88998000Y-96959228D01*
X89516996Y-96696881D01*
X89956847Y-96309151D01*
X90296013Y-95810647D01*
X90296385Y-95809923D01*
X90419791Y-95457971D01*
X90489529Y-95026438D01*
X90501228Y-94581015D01*
X90450515Y-94187393D01*
X90412708Y-94061652D01*
X90134626Y-93522436D01*
X89749179Y-93082005D01*
X89277102Y-92755383D01*
X88739127Y-92557593D01*
X88260312Y-92502051D01*
X87769530Y-92539783D01*
X87330029Y-92674933D01*
X86919219Y-92897854D01*
X86706070Y-93037716D01*
X86607742Y-93127885D01*
X86603878Y-93201904D01*
X86674117Y-93293314D01*
G37*
X86674117Y-93293314D02*
X86677148Y-93296666D01*
X86794777Y-93401276D01*
X86899718Y-93387044D01*
X86983626Y-93330272D01*
X87484288Y-93046130D01*
X87999670Y-92913038D01*
X88511618Y-92929888D01*
X89001978Y-93095571D01*
X89452595Y-93408979D01*
X89533002Y-93485918D01*
X89886300Y-93935502D01*
X90085985Y-94410838D01*
X90132058Y-94897619D01*
X90024518Y-95381538D01*
X89763366Y-95848286D01*
X89533002Y-96114081D01*
X89092086Y-96455709D01*
X88607945Y-96649824D01*
X88098732Y-96695319D01*
X87582601Y-96591085D01*
X87077707Y-96336013D01*
X86983626Y-96269727D01*
X86850060Y-96192661D01*
X86749592Y-96229417D01*
X86677148Y-96303333D01*
X86605108Y-96395643D01*
X86606372Y-96469653D01*
X86701304Y-96558787D01*
X86910272Y-96696469D01*
X86920739Y-96703109D01*
X87405894Y-96954504D01*
X87887027Y-97075576D01*
X88421397Y-97081585D01*
X88998000Y-96959228D01*
X89516996Y-96696881D01*
X89956847Y-96309151D01*
X90296013Y-95810647D01*
X90296385Y-95809923D01*
X90419791Y-95457971D01*
X90489529Y-95026438D01*
X90501228Y-94581015D01*
X90450515Y-94187393D01*
X90412708Y-94061652D01*
X90134626Y-93522436D01*
X89749179Y-93082005D01*
X89277102Y-92755383D01*
X88739127Y-92557593D01*
X88260312Y-92502051D01*
X87769530Y-92539783D01*
X87330029Y-92674933D01*
X86919219Y-92897854D01*
X86706070Y-93037716D01*
X86607742Y-93127885D01*
X86603878Y-93201904D01*
X86674117Y-93293314D01*
G36*
X86474013Y-95236196D02*
G01*
X86703331Y-95460220D01*
X86870323Y-95591224D01*
X87019324Y-95653769D01*
X87194669Y-95672417D01*
X87262702Y-95673125D01*
X87619889Y-95673125D01*
X87189538Y-95237360D01*
X86759186Y-94801596D01*
X87030191Y-94521989D01*
X87301196Y-94242383D01*
X88191074Y-95122975D01*
X89084464Y-95100394D01*
X89977854Y-95077812D01*
X89749740Y-94859531D01*
X89609741Y-94742035D01*
X89464760Y-94676152D01*
X89262900Y-94647390D01*
X88968051Y-94641250D01*
X88414476Y-94641250D01*
X87903125Y-94125312D01*
X87669174Y-93897954D01*
X87471455Y-93721741D01*
X87339529Y-93622306D01*
X87308118Y-93609375D01*
X87220739Y-93662618D01*
X87050222Y-93806516D01*
X86823493Y-94017326D01*
X86633488Y-94204321D01*
X86042513Y-94799268D01*
X86474013Y-95236196D01*
G37*
X86474013Y-95236196D02*
X86703331Y-95460220D01*
X86870323Y-95591224D01*
X87019324Y-95653769D01*
X87194669Y-95672417D01*
X87262702Y-95673125D01*
X87619889Y-95673125D01*
X87189538Y-95237360D01*
X86759186Y-94801596D01*
X87030191Y-94521989D01*
X87301196Y-94242383D01*
X88191074Y-95122975D01*
X89084464Y-95100394D01*
X89977854Y-95077812D01*
X89749740Y-94859531D01*
X89609741Y-94742035D01*
X89464760Y-94676152D01*
X89262900Y-94647390D01*
X88968051Y-94641250D01*
X88414476Y-94641250D01*
X87903125Y-94125312D01*
X87669174Y-93897954D01*
X87471455Y-93721741D01*
X87339529Y-93622306D01*
X87308118Y-93609375D01*
X87220739Y-93662618D01*
X87050222Y-93806516D01*
X86823493Y-94017326D01*
X86633488Y-94204321D01*
X86042513Y-94799268D01*
X86474013Y-95236196D01*
G36*
X86474013Y-75336196D02*
G01*
X86703331Y-75560220D01*
X86870323Y-75691224D01*
X87019324Y-75753769D01*
X87194669Y-75772417D01*
X87262702Y-75773125D01*
X87619889Y-75773125D01*
X87189538Y-75337360D01*
X86759186Y-74901596D01*
X87030191Y-74621989D01*
X87301196Y-74342383D01*
X88191074Y-75222975D01*
X89084464Y-75200394D01*
X89977854Y-75177812D01*
X89749740Y-74959531D01*
X89609741Y-74842035D01*
X89464760Y-74776152D01*
X89262900Y-74747390D01*
X88968051Y-74741250D01*
X88414476Y-74741250D01*
X87903125Y-74225312D01*
X87669174Y-73997954D01*
X87471455Y-73821741D01*
X87339529Y-73722306D01*
X87308118Y-73709375D01*
X87220739Y-73762618D01*
X87050222Y-73906516D01*
X86823493Y-74117326D01*
X86633488Y-74304321D01*
X86042513Y-74899268D01*
X86474013Y-75336196D01*
G37*
X86474013Y-75336196D02*
X86703331Y-75560220D01*
X86870323Y-75691224D01*
X87019324Y-75753769D01*
X87194669Y-75772417D01*
X87262702Y-75773125D01*
X87619889Y-75773125D01*
X87189538Y-75337360D01*
X86759186Y-74901596D01*
X87030191Y-74621989D01*
X87301196Y-74342383D01*
X88191074Y-75222975D01*
X89084464Y-75200394D01*
X89977854Y-75177812D01*
X89749740Y-74959531D01*
X89609741Y-74842035D01*
X89464760Y-74776152D01*
X89262900Y-74747390D01*
X88968051Y-74741250D01*
X88414476Y-74741250D01*
X87903125Y-74225312D01*
X87669174Y-73997954D01*
X87471455Y-73821741D01*
X87339529Y-73722306D01*
X87308118Y-73709375D01*
X87220739Y-73762618D01*
X87050222Y-73906516D01*
X86823493Y-74117326D01*
X86633488Y-74304321D01*
X86042513Y-74899268D01*
X86474013Y-75336196D01*
G36*
X86674117Y-73393314D02*
G01*
X86677148Y-73396666D01*
X86794777Y-73501276D01*
X86899718Y-73487044D01*
X86983626Y-73430272D01*
X87484288Y-73146130D01*
X87999670Y-73013038D01*
X88511618Y-73029888D01*
X89001978Y-73195571D01*
X89452595Y-73508979D01*
X89533002Y-73585918D01*
X89886300Y-74035502D01*
X90085985Y-74510838D01*
X90132058Y-74997619D01*
X90024518Y-75481538D01*
X89763366Y-75948286D01*
X89533002Y-76214081D01*
X89092086Y-76555709D01*
X88607945Y-76749824D01*
X88098732Y-76795319D01*
X87582601Y-76691085D01*
X87077707Y-76436013D01*
X86983626Y-76369727D01*
X86850060Y-76292661D01*
X86749592Y-76329417D01*
X86677148Y-76403333D01*
X86605108Y-76495643D01*
X86606372Y-76569653D01*
X86701304Y-76658787D01*
X86910272Y-76796469D01*
X86920739Y-76803109D01*
X87405894Y-77054504D01*
X87887027Y-77175576D01*
X88421397Y-77181585D01*
X88998000Y-77059228D01*
X89516996Y-76796881D01*
X89956847Y-76409151D01*
X90296013Y-75910647D01*
X90296385Y-75909923D01*
X90419791Y-75557971D01*
X90489529Y-75126438D01*
X90501228Y-74681015D01*
X90450515Y-74287393D01*
X90412708Y-74161652D01*
X90134626Y-73622436D01*
X89749179Y-73182005D01*
X89277102Y-72855383D01*
X88739127Y-72657593D01*
X88260312Y-72602051D01*
X87769530Y-72639783D01*
X87330029Y-72774933D01*
X86919219Y-72997854D01*
X86706070Y-73137716D01*
X86607742Y-73227885D01*
X86603878Y-73301904D01*
X86674117Y-73393314D01*
G37*
X86674117Y-73393314D02*
X86677148Y-73396666D01*
X86794777Y-73501276D01*
X86899718Y-73487044D01*
X86983626Y-73430272D01*
X87484288Y-73146130D01*
X87999670Y-73013038D01*
X88511618Y-73029888D01*
X89001978Y-73195571D01*
X89452595Y-73508979D01*
X89533002Y-73585918D01*
X89886300Y-74035502D01*
X90085985Y-74510838D01*
X90132058Y-74997619D01*
X90024518Y-75481538D01*
X89763366Y-75948286D01*
X89533002Y-76214081D01*
X89092086Y-76555709D01*
X88607945Y-76749824D01*
X88098732Y-76795319D01*
X87582601Y-76691085D01*
X87077707Y-76436013D01*
X86983626Y-76369727D01*
X86850060Y-76292661D01*
X86749592Y-76329417D01*
X86677148Y-76403333D01*
X86605108Y-76495643D01*
X86606372Y-76569653D01*
X86701304Y-76658787D01*
X86910272Y-76796469D01*
X86920739Y-76803109D01*
X87405894Y-77054504D01*
X87887027Y-77175576D01*
X88421397Y-77181585D01*
X88998000Y-77059228D01*
X89516996Y-76796881D01*
X89956847Y-76409151D01*
X90296013Y-75910647D01*
X90296385Y-75909923D01*
X90419791Y-75557971D01*
X90489529Y-75126438D01*
X90501228Y-74681015D01*
X90450515Y-74287393D01*
X90412708Y-74161652D01*
X90134626Y-73622436D01*
X89749179Y-73182005D01*
X89277102Y-72855383D01*
X88739127Y-72657593D01*
X88260312Y-72602051D01*
X87769530Y-72639783D01*
X87330029Y-72774933D01*
X86919219Y-72997854D01*
X86706070Y-73137716D01*
X86607742Y-73227885D01*
X86603878Y-73301904D01*
X86674117Y-73393314D01*
G36*
X86674117Y-53393314D02*
G01*
X86677148Y-53396666D01*
X86794777Y-53501276D01*
X86899718Y-53487044D01*
X86983626Y-53430272D01*
X87484288Y-53146130D01*
X87999670Y-53013038D01*
X88511618Y-53029888D01*
X89001978Y-53195571D01*
X89452595Y-53508979D01*
X89533002Y-53585918D01*
X89886300Y-54035502D01*
X90085985Y-54510838D01*
X90132058Y-54997619D01*
X90024518Y-55481538D01*
X89763366Y-55948286D01*
X89533002Y-56214081D01*
X89092086Y-56555709D01*
X88607945Y-56749824D01*
X88098732Y-56795319D01*
X87582601Y-56691085D01*
X87077707Y-56436013D01*
X86983626Y-56369727D01*
X86850060Y-56292661D01*
X86749592Y-56329417D01*
X86677148Y-56403333D01*
X86605108Y-56495643D01*
X86606372Y-56569653D01*
X86701304Y-56658787D01*
X86910272Y-56796469D01*
X86920739Y-56803109D01*
X87405894Y-57054504D01*
X87887027Y-57175576D01*
X88421397Y-57181585D01*
X88998000Y-57059228D01*
X89516996Y-56796881D01*
X89956847Y-56409151D01*
X90296013Y-55910647D01*
X90296385Y-55909923D01*
X90419791Y-55557971D01*
X90489529Y-55126438D01*
X90501228Y-54681015D01*
X90450515Y-54287393D01*
X90412708Y-54161652D01*
X90134626Y-53622436D01*
X89749179Y-53182005D01*
X89277102Y-52855383D01*
X88739127Y-52657593D01*
X88260312Y-52602051D01*
X87769530Y-52639783D01*
X87330029Y-52774933D01*
X86919219Y-52997854D01*
X86706070Y-53137716D01*
X86607742Y-53227885D01*
X86603878Y-53301904D01*
X86674117Y-53393314D01*
G37*
X86674117Y-53393314D02*
X86677148Y-53396666D01*
X86794777Y-53501276D01*
X86899718Y-53487044D01*
X86983626Y-53430272D01*
X87484288Y-53146130D01*
X87999670Y-53013038D01*
X88511618Y-53029888D01*
X89001978Y-53195571D01*
X89452595Y-53508979D01*
X89533002Y-53585918D01*
X89886300Y-54035502D01*
X90085985Y-54510838D01*
X90132058Y-54997619D01*
X90024518Y-55481538D01*
X89763366Y-55948286D01*
X89533002Y-56214081D01*
X89092086Y-56555709D01*
X88607945Y-56749824D01*
X88098732Y-56795319D01*
X87582601Y-56691085D01*
X87077707Y-56436013D01*
X86983626Y-56369727D01*
X86850060Y-56292661D01*
X86749592Y-56329417D01*
X86677148Y-56403333D01*
X86605108Y-56495643D01*
X86606372Y-56569653D01*
X86701304Y-56658787D01*
X86910272Y-56796469D01*
X86920739Y-56803109D01*
X87405894Y-57054504D01*
X87887027Y-57175576D01*
X88421397Y-57181585D01*
X88998000Y-57059228D01*
X89516996Y-56796881D01*
X89956847Y-56409151D01*
X90296013Y-55910647D01*
X90296385Y-55909923D01*
X90419791Y-55557971D01*
X90489529Y-55126438D01*
X90501228Y-54681015D01*
X90450515Y-54287393D01*
X90412708Y-54161652D01*
X90134626Y-53622436D01*
X89749179Y-53182005D01*
X89277102Y-52855383D01*
X88739127Y-52657593D01*
X88260312Y-52602051D01*
X87769530Y-52639783D01*
X87330029Y-52774933D01*
X86919219Y-52997854D01*
X86706070Y-53137716D01*
X86607742Y-53227885D01*
X86603878Y-53301904D01*
X86674117Y-53393314D01*
G36*
X86474013Y-55336196D02*
G01*
X86703331Y-55560220D01*
X86870323Y-55691224D01*
X87019324Y-55753769D01*
X87194669Y-55772417D01*
X87262702Y-55773125D01*
X87619889Y-55773125D01*
X87189538Y-55337360D01*
X86759186Y-54901596D01*
X87030191Y-54621989D01*
X87301196Y-54342383D01*
X88191074Y-55222975D01*
X89084464Y-55200394D01*
X89977854Y-55177812D01*
X89749740Y-54959531D01*
X89609741Y-54842035D01*
X89464760Y-54776152D01*
X89262900Y-54747390D01*
X88968051Y-54741250D01*
X88414476Y-54741250D01*
X87903125Y-54225312D01*
X87669174Y-53997954D01*
X87471455Y-53821741D01*
X87339529Y-53722306D01*
X87308118Y-53709375D01*
X87220739Y-53762618D01*
X87050222Y-53906516D01*
X86823493Y-54117326D01*
X86633488Y-54304321D01*
X86042513Y-54899268D01*
X86474013Y-55336196D01*
G37*
X86474013Y-55336196D02*
X86703331Y-55560220D01*
X86870323Y-55691224D01*
X87019324Y-55753769D01*
X87194669Y-55772417D01*
X87262702Y-55773125D01*
X87619889Y-55773125D01*
X87189538Y-55337360D01*
X86759186Y-54901596D01*
X87030191Y-54621989D01*
X87301196Y-54342383D01*
X88191074Y-55222975D01*
X89084464Y-55200394D01*
X89977854Y-55177812D01*
X89749740Y-54959531D01*
X89609741Y-54842035D01*
X89464760Y-54776152D01*
X89262900Y-54747390D01*
X88968051Y-54741250D01*
X88414476Y-54741250D01*
X87903125Y-54225312D01*
X87669174Y-53997954D01*
X87471455Y-53821741D01*
X87339529Y-53722306D01*
X87308118Y-53709375D01*
X87220739Y-53762618D01*
X87050222Y-53906516D01*
X86823493Y-54117326D01*
X86633488Y-54304321D01*
X86042513Y-54899268D01*
X86474013Y-55336196D01*
G36*
X86474013Y-35336196D02*
G01*
X86703331Y-35560220D01*
X86870323Y-35691224D01*
X87019324Y-35753769D01*
X87194669Y-35772417D01*
X87262702Y-35773125D01*
X87619889Y-35773125D01*
X87189538Y-35337360D01*
X86759186Y-34901596D01*
X87030191Y-34621989D01*
X87301196Y-34342383D01*
X88191074Y-35222975D01*
X89084464Y-35200394D01*
X89977854Y-35177812D01*
X89749740Y-34959531D01*
X89609741Y-34842035D01*
X89464760Y-34776152D01*
X89262900Y-34747390D01*
X88968051Y-34741250D01*
X88414476Y-34741250D01*
X87903125Y-34225312D01*
X87669174Y-33997954D01*
X87471455Y-33821741D01*
X87339529Y-33722306D01*
X87308118Y-33709375D01*
X87220739Y-33762618D01*
X87050222Y-33906516D01*
X86823493Y-34117326D01*
X86633488Y-34304321D01*
X86042513Y-34899268D01*
X86474013Y-35336196D01*
G37*
X86474013Y-35336196D02*
X86703331Y-35560220D01*
X86870323Y-35691224D01*
X87019324Y-35753769D01*
X87194669Y-35772417D01*
X87262702Y-35773125D01*
X87619889Y-35773125D01*
X87189538Y-35337360D01*
X86759186Y-34901596D01*
X87030191Y-34621989D01*
X87301196Y-34342383D01*
X88191074Y-35222975D01*
X89084464Y-35200394D01*
X89977854Y-35177812D01*
X89749740Y-34959531D01*
X89609741Y-34842035D01*
X89464760Y-34776152D01*
X89262900Y-34747390D01*
X88968051Y-34741250D01*
X88414476Y-34741250D01*
X87903125Y-34225312D01*
X87669174Y-33997954D01*
X87471455Y-33821741D01*
X87339529Y-33722306D01*
X87308118Y-33709375D01*
X87220739Y-33762618D01*
X87050222Y-33906516D01*
X86823493Y-34117326D01*
X86633488Y-34304321D01*
X86042513Y-34899268D01*
X86474013Y-35336196D01*
G36*
X86674117Y-33393314D02*
G01*
X86677148Y-33396666D01*
X86794777Y-33501276D01*
X86899718Y-33487044D01*
X86983626Y-33430272D01*
X87484288Y-33146130D01*
X87999670Y-33013038D01*
X88511618Y-33029888D01*
X89001978Y-33195571D01*
X89452595Y-33508979D01*
X89533002Y-33585918D01*
X89886300Y-34035502D01*
X90085985Y-34510838D01*
X90132058Y-34997619D01*
X90024518Y-35481538D01*
X89763366Y-35948286D01*
X89533002Y-36214081D01*
X89092086Y-36555709D01*
X88607945Y-36749824D01*
X88098732Y-36795319D01*
X87582601Y-36691085D01*
X87077707Y-36436013D01*
X86983626Y-36369727D01*
X86850060Y-36292661D01*
X86749592Y-36329417D01*
X86677148Y-36403333D01*
X86605108Y-36495643D01*
X86606372Y-36569653D01*
X86701304Y-36658787D01*
X86910272Y-36796469D01*
X86920739Y-36803109D01*
X87405894Y-37054504D01*
X87887027Y-37175576D01*
X88421397Y-37181585D01*
X88998000Y-37059228D01*
X89516996Y-36796881D01*
X89956847Y-36409151D01*
X90296013Y-35910647D01*
X90296385Y-35909923D01*
X90419791Y-35557971D01*
X90489529Y-35126438D01*
X90501228Y-34681015D01*
X90450515Y-34287393D01*
X90412708Y-34161652D01*
X90134626Y-33622436D01*
X89749179Y-33182005D01*
X89277102Y-32855383D01*
X88739127Y-32657593D01*
X88260312Y-32602051D01*
X87769530Y-32639783D01*
X87330029Y-32774933D01*
X86919219Y-32997854D01*
X86706070Y-33137716D01*
X86607742Y-33227885D01*
X86603878Y-33301904D01*
X86674117Y-33393314D01*
G37*
X86674117Y-33393314D02*
X86677148Y-33396666D01*
X86794777Y-33501276D01*
X86899718Y-33487044D01*
X86983626Y-33430272D01*
X87484288Y-33146130D01*
X87999670Y-33013038D01*
X88511618Y-33029888D01*
X89001978Y-33195571D01*
X89452595Y-33508979D01*
X89533002Y-33585918D01*
X89886300Y-34035502D01*
X90085985Y-34510838D01*
X90132058Y-34997619D01*
X90024518Y-35481538D01*
X89763366Y-35948286D01*
X89533002Y-36214081D01*
X89092086Y-36555709D01*
X88607945Y-36749824D01*
X88098732Y-36795319D01*
X87582601Y-36691085D01*
X87077707Y-36436013D01*
X86983626Y-36369727D01*
X86850060Y-36292661D01*
X86749592Y-36329417D01*
X86677148Y-36403333D01*
X86605108Y-36495643D01*
X86606372Y-36569653D01*
X86701304Y-36658787D01*
X86910272Y-36796469D01*
X86920739Y-36803109D01*
X87405894Y-37054504D01*
X87887027Y-37175576D01*
X88421397Y-37181585D01*
X88998000Y-37059228D01*
X89516996Y-36796881D01*
X89956847Y-36409151D01*
X90296013Y-35910647D01*
X90296385Y-35909923D01*
X90419791Y-35557971D01*
X90489529Y-35126438D01*
X90501228Y-34681015D01*
X90450515Y-34287393D01*
X90412708Y-34161652D01*
X90134626Y-33622436D01*
X89749179Y-33182005D01*
X89277102Y-32855383D01*
X88739127Y-32657593D01*
X88260312Y-32602051D01*
X87769530Y-32639783D01*
X87330029Y-32774933D01*
X86919219Y-32997854D01*
X86706070Y-33137716D01*
X86607742Y-33227885D01*
X86603878Y-33301904D01*
X86674117Y-33393314D01*
D13*
%TO.C,R15*%
X67572936Y-109135000D02*
X68027064Y-109135000D01*
X67572936Y-107665000D02*
X68027064Y-107665000D01*
%TO.C,C3*%
X114688748Y-112890000D02*
X116111252Y-112890000D01*
X114688748Y-114710000D02*
X116111252Y-114710000D01*
%TO.C,C1*%
X126211252Y-109710000D02*
X124788748Y-109710000D01*
X126211252Y-107890000D02*
X124788748Y-107890000D01*
%TO.C,R17*%
X65465000Y-117372936D02*
X65465000Y-117827064D01*
X66935000Y-117372936D02*
X66935000Y-117827064D01*
X116935000Y-117372936D02*
X116935000Y-117827064D01*
X115465000Y-117372936D02*
X115465000Y-117827064D01*
%TO.C,R11*%
X50035000Y-117827064D02*
X50035000Y-117372936D01*
X48565000Y-117827064D02*
X48565000Y-117372936D01*
%TO.C,C2*%
X126311252Y-122310000D02*
X124888748Y-122310000D01*
X126311252Y-120490000D02*
X124888748Y-120490000D01*
%TO.C,U5*%
X115415000Y-122570000D02*
X113750000Y-122570000D01*
X115415000Y-122810000D02*
X115415000Y-122570000D01*
X117800000Y-122810000D02*
X115415000Y-122810000D01*
X120185000Y-122810000D02*
X120185000Y-122570000D01*
X117800000Y-122810000D02*
X120185000Y-122810000D01*
X115415000Y-119990000D02*
X115415000Y-120230000D01*
X117800000Y-119990000D02*
X115415000Y-119990000D01*
X120185000Y-119990000D02*
X120185000Y-120230000D01*
X117800000Y-119990000D02*
X120185000Y-119990000D01*
%TO.C,R11*%
X98565000Y-117827064D02*
X98565000Y-117372936D01*
X100035000Y-117827064D02*
X100035000Y-117372936D01*
%TO.C,U5*%
X67800000Y-119990000D02*
X70185000Y-119990000D01*
X70185000Y-119990000D02*
X70185000Y-120230000D01*
X67800000Y-119990000D02*
X65415000Y-119990000D01*
X65415000Y-119990000D02*
X65415000Y-120230000D01*
X67800000Y-122810000D02*
X70185000Y-122810000D01*
X70185000Y-122810000D02*
X70185000Y-122570000D01*
X67800000Y-122810000D02*
X65415000Y-122810000D01*
X65415000Y-122810000D02*
X65415000Y-122570000D01*
X65415000Y-122570000D02*
X63750000Y-122570000D01*
%TO.C,R14*%
X113272936Y-107665000D02*
X113727064Y-107665000D01*
X113272936Y-109135000D02*
X113727064Y-109135000D01*
%TO.C,C1*%
X76211252Y-107890000D02*
X74788748Y-107890000D01*
X76211252Y-109710000D02*
X74788748Y-109710000D01*
%TO.C,U4*%
X103515000Y-122670000D02*
X101850000Y-122670000D01*
X103515000Y-122910000D02*
X103515000Y-122670000D01*
X105900000Y-122910000D02*
X103515000Y-122910000D01*
X108285000Y-122910000D02*
X108285000Y-122670000D01*
X105900000Y-122910000D02*
X108285000Y-122910000D01*
X103515000Y-120090000D02*
X103515000Y-120330000D01*
X105900000Y-120090000D02*
X103515000Y-120090000D01*
X108285000Y-120090000D02*
X108285000Y-120330000D01*
X105900000Y-120090000D02*
X108285000Y-120090000D01*
%TO.C,C4*%
X114688748Y-110190000D02*
X116111252Y-110190000D01*
X114688748Y-112010000D02*
X116111252Y-112010000D01*
%TO.C,R16*%
X114635000Y-117372936D02*
X114635000Y-117827064D01*
X113165000Y-117372936D02*
X113165000Y-117827064D01*
%TO.C,R15*%
X117572936Y-107665000D02*
X118027064Y-107665000D01*
X117572936Y-109135000D02*
X118027064Y-109135000D01*
%TO.C,C2*%
X76311252Y-120490000D02*
X74888748Y-120490000D01*
X76311252Y-122310000D02*
X74888748Y-122310000D01*
%TO.C,R10*%
X50035000Y-122027064D02*
X50035000Y-121572936D01*
X48565000Y-122027064D02*
X48565000Y-121572936D01*
%TO.C,R12*%
X50035000Y-113027064D02*
X50035000Y-112572936D01*
X48565000Y-113027064D02*
X48565000Y-112572936D01*
%TO.C,R4*%
X117765000Y-117827064D02*
X117765000Y-117372936D01*
X119235000Y-117827064D02*
X119235000Y-117372936D01*
%TO.C,C5*%
X57988748Y-109710000D02*
X59411252Y-109710000D01*
X57988748Y-107890000D02*
X59411252Y-107890000D01*
%TO.C,U1*%
X78810000Y-111790000D02*
X78810000Y-113050000D01*
X78810000Y-118610000D02*
X78810000Y-117350000D01*
X75050000Y-111790000D02*
X78810000Y-111790000D01*
X72800000Y-118610000D02*
X78810000Y-118610000D01*
D10*
%TO.C,U3*%
X51955000Y-111155000D02*
G75*
G03*
X51955000Y-111155000I-100000J0D01*
G01*
D14*
X51735000Y-113350000D02*
X51735000Y-117250000D01*
X61865000Y-113350000D02*
X61865000Y-117250000D01*
D13*
%TO.C,R5*%
X61065000Y-121272936D02*
X61065000Y-121727064D01*
X62535000Y-121272936D02*
X62535000Y-121727064D01*
%TO.C,C4*%
X64688748Y-112010000D02*
X66111252Y-112010000D01*
X64688748Y-110190000D02*
X66111252Y-110190000D01*
%TO.C,U1*%
X122800000Y-118610000D02*
X128810000Y-118610000D01*
X125050000Y-111790000D02*
X128810000Y-111790000D01*
X128810000Y-118610000D02*
X128810000Y-117350000D01*
X128810000Y-111790000D02*
X128810000Y-113050000D01*
%TO.C,R14*%
X63272936Y-109135000D02*
X63727064Y-109135000D01*
X63272936Y-107665000D02*
X63727064Y-107665000D01*
%TO.C,C3*%
X64688748Y-114710000D02*
X66111252Y-114710000D01*
X64688748Y-112890000D02*
X66111252Y-112890000D01*
%TO.C,U4*%
X55900000Y-120090000D02*
X58285000Y-120090000D01*
X58285000Y-120090000D02*
X58285000Y-120330000D01*
X55900000Y-120090000D02*
X53515000Y-120090000D01*
X53515000Y-120090000D02*
X53515000Y-120330000D01*
X55900000Y-122910000D02*
X58285000Y-122910000D01*
X58285000Y-122910000D02*
X58285000Y-122670000D01*
X55900000Y-122910000D02*
X53515000Y-122910000D01*
X53515000Y-122910000D02*
X53515000Y-122670000D01*
X53515000Y-122670000D02*
X51850000Y-122670000D01*
%TO.C,R4*%
X69235000Y-117827064D02*
X69235000Y-117372936D01*
X67765000Y-117827064D02*
X67765000Y-117372936D01*
D14*
%TO.C,U3*%
X111865000Y-113350000D02*
X111865000Y-117250000D01*
X101735000Y-113350000D02*
X101735000Y-117250000D01*
D10*
X101955000Y-111155000D02*
G75*
G03*
X101955000Y-111155000I-100000J0D01*
G01*
D13*
%TO.C,R12*%
X98565000Y-113027064D02*
X98565000Y-112572936D01*
X100035000Y-113027064D02*
X100035000Y-112572936D01*
%TO.C,C5*%
X107988748Y-107890000D02*
X109411252Y-107890000D01*
X107988748Y-109710000D02*
X109411252Y-109710000D01*
%TO.C,R5*%
X112535000Y-121272936D02*
X112535000Y-121727064D01*
X111065000Y-121272936D02*
X111065000Y-121727064D01*
%TO.C,R16*%
X63165000Y-117372936D02*
X63165000Y-117827064D01*
X64635000Y-117372936D02*
X64635000Y-117827064D01*
%TO.C,R10*%
X98565000Y-122027064D02*
X98565000Y-121572936D01*
X100035000Y-122027064D02*
X100035000Y-121572936D01*
%TO.C,U5*%
X117800000Y-99990000D02*
X120185000Y-99990000D01*
X120185000Y-99990000D02*
X120185000Y-100230000D01*
X117800000Y-99990000D02*
X115415000Y-99990000D01*
X115415000Y-99990000D02*
X115415000Y-100230000D01*
X117800000Y-102810000D02*
X120185000Y-102810000D01*
X120185000Y-102810000D02*
X120185000Y-102570000D01*
X117800000Y-102810000D02*
X115415000Y-102810000D01*
X115415000Y-102810000D02*
X115415000Y-102570000D01*
X115415000Y-102570000D02*
X113750000Y-102570000D01*
%TO.C,C3*%
X114688748Y-94710000D02*
X116111252Y-94710000D01*
X114688748Y-92890000D02*
X116111252Y-92890000D01*
%TO.C,C1*%
X126211252Y-87890000D02*
X124788748Y-87890000D01*
X126211252Y-89710000D02*
X124788748Y-89710000D01*
%TO.C,R11*%
X48565000Y-97827064D02*
X48565000Y-97372936D01*
X50035000Y-97827064D02*
X50035000Y-97372936D01*
%TO.C,C2*%
X126311252Y-100490000D02*
X124888748Y-100490000D01*
X126311252Y-102310000D02*
X124888748Y-102310000D01*
%TO.C,R17*%
X66935000Y-97372936D02*
X66935000Y-97827064D01*
X65465000Y-97372936D02*
X65465000Y-97827064D01*
X115465000Y-97372936D02*
X115465000Y-97827064D01*
X116935000Y-97372936D02*
X116935000Y-97827064D01*
%TO.C,R15*%
X67572936Y-87665000D02*
X68027064Y-87665000D01*
X67572936Y-89135000D02*
X68027064Y-89135000D01*
%TO.C,U5*%
X65415000Y-102570000D02*
X63750000Y-102570000D01*
X65415000Y-102810000D02*
X65415000Y-102570000D01*
X67800000Y-102810000D02*
X65415000Y-102810000D01*
X70185000Y-102810000D02*
X70185000Y-102570000D01*
X67800000Y-102810000D02*
X70185000Y-102810000D01*
X65415000Y-99990000D02*
X65415000Y-100230000D01*
X67800000Y-99990000D02*
X65415000Y-99990000D01*
X70185000Y-99990000D02*
X70185000Y-100230000D01*
X67800000Y-99990000D02*
X70185000Y-99990000D01*
%TO.C,R14*%
X113272936Y-89135000D02*
X113727064Y-89135000D01*
X113272936Y-87665000D02*
X113727064Y-87665000D01*
%TO.C,C1*%
X76211252Y-89710000D02*
X74788748Y-89710000D01*
X76211252Y-87890000D02*
X74788748Y-87890000D01*
%TO.C,U4*%
X105900000Y-100090000D02*
X108285000Y-100090000D01*
X108285000Y-100090000D02*
X108285000Y-100330000D01*
X105900000Y-100090000D02*
X103515000Y-100090000D01*
X103515000Y-100090000D02*
X103515000Y-100330000D01*
X105900000Y-102910000D02*
X108285000Y-102910000D01*
X108285000Y-102910000D02*
X108285000Y-102670000D01*
X105900000Y-102910000D02*
X103515000Y-102910000D01*
X103515000Y-102910000D02*
X103515000Y-102670000D01*
X103515000Y-102670000D02*
X101850000Y-102670000D01*
%TO.C,C2*%
X76311252Y-102310000D02*
X74888748Y-102310000D01*
X76311252Y-100490000D02*
X74888748Y-100490000D01*
%TO.C,R10*%
X48565000Y-102027064D02*
X48565000Y-101572936D01*
X50035000Y-102027064D02*
X50035000Y-101572936D01*
%TO.C,C4*%
X114688748Y-92010000D02*
X116111252Y-92010000D01*
X114688748Y-90190000D02*
X116111252Y-90190000D01*
%TO.C,R12*%
X48565000Y-93027064D02*
X48565000Y-92572936D01*
X50035000Y-93027064D02*
X50035000Y-92572936D01*
%TO.C,R15*%
X117572936Y-89135000D02*
X118027064Y-89135000D01*
X117572936Y-87665000D02*
X118027064Y-87665000D01*
%TO.C,R4*%
X119235000Y-97827064D02*
X119235000Y-97372936D01*
X117765000Y-97827064D02*
X117765000Y-97372936D01*
%TO.C,R16*%
X113165000Y-97372936D02*
X113165000Y-97827064D01*
X114635000Y-97372936D02*
X114635000Y-97827064D01*
%TO.C,R11*%
X100035000Y-97827064D02*
X100035000Y-97372936D01*
X98565000Y-97827064D02*
X98565000Y-97372936D01*
%TO.C,C5*%
X57988748Y-87890000D02*
X59411252Y-87890000D01*
X57988748Y-89710000D02*
X59411252Y-89710000D01*
%TO.C,U1*%
X72800000Y-98610000D02*
X78810000Y-98610000D01*
X75050000Y-91790000D02*
X78810000Y-91790000D01*
X78810000Y-98610000D02*
X78810000Y-97350000D01*
X78810000Y-91790000D02*
X78810000Y-93050000D01*
%TO.C,R16*%
X64635000Y-97372936D02*
X64635000Y-97827064D01*
X63165000Y-97372936D02*
X63165000Y-97827064D01*
D14*
%TO.C,U3*%
X61865000Y-93350000D02*
X61865000Y-97250000D01*
X51735000Y-93350000D02*
X51735000Y-97250000D01*
D10*
X51955000Y-91155000D02*
G75*
G03*
X51955000Y-91155000I-100000J0D01*
G01*
D13*
%TO.C,R5*%
X62535000Y-101272936D02*
X62535000Y-101727064D01*
X61065000Y-101272936D02*
X61065000Y-101727064D01*
%TO.C,R14*%
X63272936Y-87665000D02*
X63727064Y-87665000D01*
X63272936Y-89135000D02*
X63727064Y-89135000D01*
%TO.C,C3*%
X64688748Y-92890000D02*
X66111252Y-92890000D01*
X64688748Y-94710000D02*
X66111252Y-94710000D01*
%TO.C,C4*%
X64688748Y-90190000D02*
X66111252Y-90190000D01*
X64688748Y-92010000D02*
X66111252Y-92010000D01*
%TO.C,U4*%
X53515000Y-102670000D02*
X51850000Y-102670000D01*
X53515000Y-102910000D02*
X53515000Y-102670000D01*
X55900000Y-102910000D02*
X53515000Y-102910000D01*
X58285000Y-102910000D02*
X58285000Y-102670000D01*
X55900000Y-102910000D02*
X58285000Y-102910000D01*
X53515000Y-100090000D02*
X53515000Y-100330000D01*
X55900000Y-100090000D02*
X53515000Y-100090000D01*
X58285000Y-100090000D02*
X58285000Y-100330000D01*
X55900000Y-100090000D02*
X58285000Y-100090000D01*
%TO.C,R4*%
X67765000Y-97827064D02*
X67765000Y-97372936D01*
X69235000Y-97827064D02*
X69235000Y-97372936D01*
%TO.C,C5*%
X107988748Y-89710000D02*
X109411252Y-89710000D01*
X107988748Y-87890000D02*
X109411252Y-87890000D01*
%TO.C,U1*%
X128810000Y-91790000D02*
X128810000Y-93050000D01*
X128810000Y-98610000D02*
X128810000Y-97350000D01*
X125050000Y-91790000D02*
X128810000Y-91790000D01*
X122800000Y-98610000D02*
X128810000Y-98610000D01*
%TO.C,R5*%
X111065000Y-101272936D02*
X111065000Y-101727064D01*
X112535000Y-101272936D02*
X112535000Y-101727064D01*
%TO.C,R12*%
X100035000Y-93027064D02*
X100035000Y-92572936D01*
X98565000Y-93027064D02*
X98565000Y-92572936D01*
%TO.C,R10*%
X100035000Y-102027064D02*
X100035000Y-101572936D01*
X98565000Y-102027064D02*
X98565000Y-101572936D01*
D10*
%TO.C,U3*%
X101955000Y-91155000D02*
G75*
G03*
X101955000Y-91155000I-100000J0D01*
G01*
D14*
X101735000Y-93350000D02*
X101735000Y-97250000D01*
X111865000Y-93350000D02*
X111865000Y-97250000D01*
D13*
%TO.C,R15*%
X117572936Y-67665000D02*
X118027064Y-67665000D01*
X117572936Y-69135000D02*
X118027064Y-69135000D01*
%TO.C,C2*%
X126311252Y-82310000D02*
X124888748Y-82310000D01*
X126311252Y-80490000D02*
X124888748Y-80490000D01*
%TO.C,R16*%
X114635000Y-77372936D02*
X114635000Y-77827064D01*
X113165000Y-77372936D02*
X113165000Y-77827064D01*
%TO.C,C3*%
X114688748Y-72890000D02*
X116111252Y-72890000D01*
X114688748Y-74710000D02*
X116111252Y-74710000D01*
%TO.C,C1*%
X126211252Y-69710000D02*
X124788748Y-69710000D01*
X126211252Y-67890000D02*
X124788748Y-67890000D01*
%TO.C,U5*%
X115415000Y-82570000D02*
X113750000Y-82570000D01*
X115415000Y-82810000D02*
X115415000Y-82570000D01*
X117800000Y-82810000D02*
X115415000Y-82810000D01*
X120185000Y-82810000D02*
X120185000Y-82570000D01*
X117800000Y-82810000D02*
X120185000Y-82810000D01*
X115415000Y-79990000D02*
X115415000Y-80230000D01*
X117800000Y-79990000D02*
X115415000Y-79990000D01*
X120185000Y-79990000D02*
X120185000Y-80230000D01*
X117800000Y-79990000D02*
X120185000Y-79990000D01*
%TO.C,C4*%
X114688748Y-70190000D02*
X116111252Y-70190000D01*
X114688748Y-72010000D02*
X116111252Y-72010000D01*
%TO.C,R17*%
X116935000Y-77372936D02*
X116935000Y-77827064D01*
X115465000Y-77372936D02*
X115465000Y-77827064D01*
%TO.C,R4*%
X117765000Y-77827064D02*
X117765000Y-77372936D01*
X119235000Y-77827064D02*
X119235000Y-77372936D01*
%TO.C,R11*%
X98565000Y-77827064D02*
X98565000Y-77372936D01*
X100035000Y-77827064D02*
X100035000Y-77372936D01*
%TO.C,R14*%
X113272936Y-67665000D02*
X113727064Y-67665000D01*
X113272936Y-69135000D02*
X113727064Y-69135000D01*
%TO.C,U4*%
X103515000Y-82670000D02*
X101850000Y-82670000D01*
X103515000Y-82910000D02*
X103515000Y-82670000D01*
X105900000Y-82910000D02*
X103515000Y-82910000D01*
X108285000Y-82910000D02*
X108285000Y-82670000D01*
X105900000Y-82910000D02*
X108285000Y-82910000D01*
X103515000Y-80090000D02*
X103515000Y-80330000D01*
X105900000Y-80090000D02*
X103515000Y-80090000D01*
X108285000Y-80090000D02*
X108285000Y-80330000D01*
X105900000Y-80090000D02*
X108285000Y-80090000D01*
%TO.C,R11*%
X50035000Y-77827064D02*
X50035000Y-77372936D01*
X48565000Y-77827064D02*
X48565000Y-77372936D01*
%TO.C,U5*%
X67800000Y-79990000D02*
X70185000Y-79990000D01*
X70185000Y-79990000D02*
X70185000Y-80230000D01*
X67800000Y-79990000D02*
X65415000Y-79990000D01*
X65415000Y-79990000D02*
X65415000Y-80230000D01*
X67800000Y-82810000D02*
X70185000Y-82810000D01*
X70185000Y-82810000D02*
X70185000Y-82570000D01*
X67800000Y-82810000D02*
X65415000Y-82810000D01*
X65415000Y-82810000D02*
X65415000Y-82570000D01*
X65415000Y-82570000D02*
X63750000Y-82570000D01*
%TO.C,R17*%
X65465000Y-77372936D02*
X65465000Y-77827064D01*
X66935000Y-77372936D02*
X66935000Y-77827064D01*
%TO.C,R15*%
X67572936Y-69135000D02*
X68027064Y-69135000D01*
X67572936Y-67665000D02*
X68027064Y-67665000D01*
%TO.C,C1*%
X76211252Y-67890000D02*
X74788748Y-67890000D01*
X76211252Y-69710000D02*
X74788748Y-69710000D01*
%TO.C,C2*%
X76311252Y-80490000D02*
X74888748Y-80490000D01*
X76311252Y-82310000D02*
X74888748Y-82310000D01*
%TO.C,R12*%
X50035000Y-73027064D02*
X50035000Y-72572936D01*
X48565000Y-73027064D02*
X48565000Y-72572936D01*
%TO.C,R10*%
X50035000Y-82027064D02*
X50035000Y-81572936D01*
X48565000Y-82027064D02*
X48565000Y-81572936D01*
%TO.C,R16*%
X63165000Y-77372936D02*
X63165000Y-77827064D01*
X64635000Y-77372936D02*
X64635000Y-77827064D01*
%TO.C,C4*%
X64688748Y-72010000D02*
X66111252Y-72010000D01*
X64688748Y-70190000D02*
X66111252Y-70190000D01*
%TO.C,C3*%
X64688748Y-74710000D02*
X66111252Y-74710000D01*
X64688748Y-72890000D02*
X66111252Y-72890000D01*
%TO.C,C5*%
X57988748Y-69710000D02*
X59411252Y-69710000D01*
X57988748Y-67890000D02*
X59411252Y-67890000D01*
%TO.C,U4*%
X55900000Y-80090000D02*
X58285000Y-80090000D01*
X58285000Y-80090000D02*
X58285000Y-80330000D01*
X55900000Y-80090000D02*
X53515000Y-80090000D01*
X53515000Y-80090000D02*
X53515000Y-80330000D01*
X55900000Y-82910000D02*
X58285000Y-82910000D01*
X58285000Y-82910000D02*
X58285000Y-82670000D01*
X55900000Y-82910000D02*
X53515000Y-82910000D01*
X53515000Y-82910000D02*
X53515000Y-82670000D01*
X53515000Y-82670000D02*
X51850000Y-82670000D01*
D10*
%TO.C,U3*%
X51955000Y-71155000D02*
G75*
G03*
X51955000Y-71155000I-100000J0D01*
G01*
D14*
X51735000Y-73350000D02*
X51735000Y-77250000D01*
X61865000Y-73350000D02*
X61865000Y-77250000D01*
D13*
%TO.C,U1*%
X78810000Y-71790000D02*
X78810000Y-73050000D01*
X78810000Y-78610000D02*
X78810000Y-77350000D01*
X75050000Y-71790000D02*
X78810000Y-71790000D01*
X72800000Y-78610000D02*
X78810000Y-78610000D01*
%TO.C,R4*%
X69235000Y-77827064D02*
X69235000Y-77372936D01*
X67765000Y-77827064D02*
X67765000Y-77372936D01*
%TO.C,R14*%
X63272936Y-69135000D02*
X63727064Y-69135000D01*
X63272936Y-67665000D02*
X63727064Y-67665000D01*
%TO.C,R5*%
X61065000Y-81272936D02*
X61065000Y-81727064D01*
X62535000Y-81272936D02*
X62535000Y-81727064D01*
%TO.C,C5*%
X107988748Y-67890000D02*
X109411252Y-67890000D01*
X107988748Y-69710000D02*
X109411252Y-69710000D01*
%TO.C,U1*%
X122800000Y-78610000D02*
X128810000Y-78610000D01*
X125050000Y-71790000D02*
X128810000Y-71790000D01*
X128810000Y-78610000D02*
X128810000Y-77350000D01*
X128810000Y-71790000D02*
X128810000Y-73050000D01*
%TO.C,R10*%
X98565000Y-82027064D02*
X98565000Y-81572936D01*
X100035000Y-82027064D02*
X100035000Y-81572936D01*
%TO.C,R5*%
X112535000Y-81272936D02*
X112535000Y-81727064D01*
X111065000Y-81272936D02*
X111065000Y-81727064D01*
%TO.C,R12*%
X98565000Y-73027064D02*
X98565000Y-72572936D01*
X100035000Y-73027064D02*
X100035000Y-72572936D01*
D14*
%TO.C,U3*%
X111865000Y-73350000D02*
X111865000Y-77250000D01*
X101735000Y-73350000D02*
X101735000Y-77250000D01*
D10*
X101955000Y-71155000D02*
G75*
G03*
X101955000Y-71155000I-100000J0D01*
G01*
D13*
%TO.C,R5*%
X111065000Y-61272936D02*
X111065000Y-61727064D01*
X112535000Y-61272936D02*
X112535000Y-61727064D01*
%TO.C,C5*%
X107988748Y-49710000D02*
X109411252Y-49710000D01*
X107988748Y-47890000D02*
X109411252Y-47890000D01*
%TO.C,R12*%
X100035000Y-53027064D02*
X100035000Y-52572936D01*
X98565000Y-53027064D02*
X98565000Y-52572936D01*
D10*
%TO.C,U3*%
X101955000Y-51155000D02*
G75*
G03*
X101955000Y-51155000I-100000J0D01*
G01*
D14*
X101735000Y-53350000D02*
X101735000Y-57250000D01*
X111865000Y-53350000D02*
X111865000Y-57250000D01*
D13*
%TO.C,U1*%
X128810000Y-51790000D02*
X128810000Y-53050000D01*
X128810000Y-58610000D02*
X128810000Y-57350000D01*
X125050000Y-51790000D02*
X128810000Y-51790000D01*
X122800000Y-58610000D02*
X128810000Y-58610000D01*
%TO.C,R10*%
X100035000Y-62027064D02*
X100035000Y-61572936D01*
X98565000Y-62027064D02*
X98565000Y-61572936D01*
%TO.C,R16*%
X113165000Y-57372936D02*
X113165000Y-57827064D01*
X114635000Y-57372936D02*
X114635000Y-57827064D01*
%TO.C,C3*%
X114688748Y-54710000D02*
X116111252Y-54710000D01*
X114688748Y-52890000D02*
X116111252Y-52890000D01*
%TO.C,C1*%
X126211252Y-47890000D02*
X124788748Y-47890000D01*
X126211252Y-49710000D02*
X124788748Y-49710000D01*
%TO.C,U5*%
X117800000Y-59990000D02*
X120185000Y-59990000D01*
X120185000Y-59990000D02*
X120185000Y-60230000D01*
X117800000Y-59990000D02*
X115415000Y-59990000D01*
X115415000Y-59990000D02*
X115415000Y-60230000D01*
X117800000Y-62810000D02*
X120185000Y-62810000D01*
X120185000Y-62810000D02*
X120185000Y-62570000D01*
X117800000Y-62810000D02*
X115415000Y-62810000D01*
X115415000Y-62810000D02*
X115415000Y-62570000D01*
X115415000Y-62570000D02*
X113750000Y-62570000D01*
%TO.C,R17*%
X115465000Y-57372936D02*
X115465000Y-57827064D01*
X116935000Y-57372936D02*
X116935000Y-57827064D01*
%TO.C,R11*%
X100035000Y-57827064D02*
X100035000Y-57372936D01*
X98565000Y-57827064D02*
X98565000Y-57372936D01*
%TO.C,R14*%
X113272936Y-49135000D02*
X113727064Y-49135000D01*
X113272936Y-47665000D02*
X113727064Y-47665000D01*
%TO.C,R15*%
X117572936Y-49135000D02*
X118027064Y-49135000D01*
X117572936Y-47665000D02*
X118027064Y-47665000D01*
%TO.C,R4*%
X119235000Y-57827064D02*
X119235000Y-57372936D01*
X117765000Y-57827064D02*
X117765000Y-57372936D01*
%TO.C,C2*%
X126311252Y-60490000D02*
X124888748Y-60490000D01*
X126311252Y-62310000D02*
X124888748Y-62310000D01*
%TO.C,C4*%
X114688748Y-52010000D02*
X116111252Y-52010000D01*
X114688748Y-50190000D02*
X116111252Y-50190000D01*
%TO.C,U4*%
X105900000Y-60090000D02*
X108285000Y-60090000D01*
X108285000Y-60090000D02*
X108285000Y-60330000D01*
X105900000Y-60090000D02*
X103515000Y-60090000D01*
X103515000Y-60090000D02*
X103515000Y-60330000D01*
X105900000Y-62910000D02*
X108285000Y-62910000D01*
X108285000Y-62910000D02*
X108285000Y-62670000D01*
X105900000Y-62910000D02*
X103515000Y-62910000D01*
X103515000Y-62910000D02*
X103515000Y-62670000D01*
X103515000Y-62670000D02*
X101850000Y-62670000D01*
%TO.C,U5*%
X65415000Y-62570000D02*
X63750000Y-62570000D01*
X65415000Y-62810000D02*
X65415000Y-62570000D01*
X67800000Y-62810000D02*
X65415000Y-62810000D01*
X70185000Y-62810000D02*
X70185000Y-62570000D01*
X67800000Y-62810000D02*
X70185000Y-62810000D01*
X65415000Y-59990000D02*
X65415000Y-60230000D01*
X67800000Y-59990000D02*
X65415000Y-59990000D01*
X70185000Y-59990000D02*
X70185000Y-60230000D01*
X67800000Y-59990000D02*
X70185000Y-59990000D01*
%TO.C,U4*%
X53515000Y-62670000D02*
X51850000Y-62670000D01*
X53515000Y-62910000D02*
X53515000Y-62670000D01*
X55900000Y-62910000D02*
X53515000Y-62910000D01*
X58285000Y-62910000D02*
X58285000Y-62670000D01*
X55900000Y-62910000D02*
X58285000Y-62910000D01*
X53515000Y-60090000D02*
X53515000Y-60330000D01*
X55900000Y-60090000D02*
X53515000Y-60090000D01*
X58285000Y-60090000D02*
X58285000Y-60330000D01*
X55900000Y-60090000D02*
X58285000Y-60090000D01*
D14*
%TO.C,U3*%
X61865000Y-53350000D02*
X61865000Y-57250000D01*
X51735000Y-53350000D02*
X51735000Y-57250000D01*
D10*
X51955000Y-51155000D02*
G75*
G03*
X51955000Y-51155000I-100000J0D01*
G01*
D13*
%TO.C,U1*%
X72800000Y-58610000D02*
X78810000Y-58610000D01*
X75050000Y-51790000D02*
X78810000Y-51790000D01*
X78810000Y-58610000D02*
X78810000Y-57350000D01*
X78810000Y-51790000D02*
X78810000Y-53050000D01*
%TO.C,R17*%
X66935000Y-57372936D02*
X66935000Y-57827064D01*
X65465000Y-57372936D02*
X65465000Y-57827064D01*
%TO.C,R15*%
X67572936Y-47665000D02*
X68027064Y-47665000D01*
X67572936Y-49135000D02*
X68027064Y-49135000D01*
%TO.C,R12*%
X48565000Y-53027064D02*
X48565000Y-52572936D01*
X50035000Y-53027064D02*
X50035000Y-52572936D01*
%TO.C,R11*%
X48565000Y-57827064D02*
X48565000Y-57372936D01*
X50035000Y-57827064D02*
X50035000Y-57372936D01*
%TO.C,R10*%
X48565000Y-62027064D02*
X48565000Y-61572936D01*
X50035000Y-62027064D02*
X50035000Y-61572936D01*
%TO.C,R4*%
X67765000Y-57827064D02*
X67765000Y-57372936D01*
X69235000Y-57827064D02*
X69235000Y-57372936D01*
%TO.C,C5*%
X57988748Y-47890000D02*
X59411252Y-47890000D01*
X57988748Y-49710000D02*
X59411252Y-49710000D01*
%TO.C,C2*%
X76311252Y-62310000D02*
X74888748Y-62310000D01*
X76311252Y-60490000D02*
X74888748Y-60490000D01*
%TO.C,C1*%
X76211252Y-49710000D02*
X74788748Y-49710000D01*
X76211252Y-47890000D02*
X74788748Y-47890000D01*
%TO.C,R16*%
X64635000Y-57372936D02*
X64635000Y-57827064D01*
X63165000Y-57372936D02*
X63165000Y-57827064D01*
%TO.C,R14*%
X63272936Y-47665000D02*
X63727064Y-47665000D01*
X63272936Y-49135000D02*
X63727064Y-49135000D01*
%TO.C,C4*%
X64688748Y-50190000D02*
X66111252Y-50190000D01*
X64688748Y-52010000D02*
X66111252Y-52010000D01*
%TO.C,R5*%
X62535000Y-61272936D02*
X62535000Y-61727064D01*
X61065000Y-61272936D02*
X61065000Y-61727064D01*
%TO.C,C3*%
X64688748Y-52890000D02*
X66111252Y-52890000D01*
X64688748Y-54710000D02*
X66111252Y-54710000D01*
D12*
%TO.C,G1*%
G36*
X86574013Y-35436196D02*
G01*
X86803331Y-35660220D01*
X86970323Y-35791224D01*
X87119324Y-35853769D01*
X87294669Y-35872417D01*
X87362702Y-35873125D01*
X87719889Y-35873125D01*
X87289538Y-35437360D01*
X86859186Y-35001596D01*
X87130191Y-34721989D01*
X87401196Y-34442383D01*
X88291074Y-35322975D01*
X89184464Y-35300394D01*
X90077854Y-35277812D01*
X89849740Y-35059531D01*
X89709741Y-34942035D01*
X89564760Y-34876152D01*
X89362900Y-34847390D01*
X89068051Y-34841250D01*
X88514476Y-34841250D01*
X88003125Y-34325312D01*
X87769174Y-34097954D01*
X87571455Y-33921741D01*
X87439529Y-33822306D01*
X87408118Y-33809375D01*
X87320739Y-33862618D01*
X87150222Y-34006516D01*
X86923493Y-34217326D01*
X86733488Y-34404321D01*
X86142513Y-34999268D01*
X86574013Y-35436196D01*
G37*
X86574013Y-35436196D02*
X86803331Y-35660220D01*
X86970323Y-35791224D01*
X87119324Y-35853769D01*
X87294669Y-35872417D01*
X87362702Y-35873125D01*
X87719889Y-35873125D01*
X87289538Y-35437360D01*
X86859186Y-35001596D01*
X87130191Y-34721989D01*
X87401196Y-34442383D01*
X88291074Y-35322975D01*
X89184464Y-35300394D01*
X90077854Y-35277812D01*
X89849740Y-35059531D01*
X89709741Y-34942035D01*
X89564760Y-34876152D01*
X89362900Y-34847390D01*
X89068051Y-34841250D01*
X88514476Y-34841250D01*
X88003125Y-34325312D01*
X87769174Y-34097954D01*
X87571455Y-33921741D01*
X87439529Y-33822306D01*
X87408118Y-33809375D01*
X87320739Y-33862618D01*
X87150222Y-34006516D01*
X86923493Y-34217326D01*
X86733488Y-34404321D01*
X86142513Y-34999268D01*
X86574013Y-35436196D01*
G36*
X86774117Y-33493314D02*
G01*
X86777148Y-33496666D01*
X86894777Y-33601276D01*
X86999718Y-33587044D01*
X87083626Y-33530272D01*
X87584288Y-33246130D01*
X88099670Y-33113038D01*
X88611618Y-33129888D01*
X89101978Y-33295571D01*
X89552595Y-33608979D01*
X89633002Y-33685918D01*
X89986300Y-34135502D01*
X90185985Y-34610838D01*
X90232058Y-35097619D01*
X90124518Y-35581538D01*
X89863366Y-36048286D01*
X89633002Y-36314081D01*
X89192086Y-36655709D01*
X88707945Y-36849824D01*
X88198732Y-36895319D01*
X87682601Y-36791085D01*
X87177707Y-36536013D01*
X87083626Y-36469727D01*
X86950060Y-36392661D01*
X86849592Y-36429417D01*
X86777148Y-36503333D01*
X86705108Y-36595643D01*
X86706372Y-36669653D01*
X86801304Y-36758787D01*
X87010272Y-36896469D01*
X87020739Y-36903109D01*
X87505894Y-37154504D01*
X87987027Y-37275576D01*
X88521397Y-37281585D01*
X89098000Y-37159228D01*
X89616996Y-36896881D01*
X90056847Y-36509151D01*
X90396013Y-36010647D01*
X90396385Y-36009923D01*
X90519791Y-35657971D01*
X90589529Y-35226438D01*
X90601228Y-34781015D01*
X90550515Y-34387393D01*
X90512708Y-34261652D01*
X90234626Y-33722436D01*
X89849179Y-33282005D01*
X89377102Y-32955383D01*
X88839127Y-32757593D01*
X88360312Y-32702051D01*
X87869530Y-32739783D01*
X87430029Y-32874933D01*
X87019219Y-33097854D01*
X86806070Y-33237716D01*
X86707742Y-33327885D01*
X86703878Y-33401904D01*
X86774117Y-33493314D01*
G37*
X86774117Y-33493314D02*
X86777148Y-33496666D01*
X86894777Y-33601276D01*
X86999718Y-33587044D01*
X87083626Y-33530272D01*
X87584288Y-33246130D01*
X88099670Y-33113038D01*
X88611618Y-33129888D01*
X89101978Y-33295571D01*
X89552595Y-33608979D01*
X89633002Y-33685918D01*
X89986300Y-34135502D01*
X90185985Y-34610838D01*
X90232058Y-35097619D01*
X90124518Y-35581538D01*
X89863366Y-36048286D01*
X89633002Y-36314081D01*
X89192086Y-36655709D01*
X88707945Y-36849824D01*
X88198732Y-36895319D01*
X87682601Y-36791085D01*
X87177707Y-36536013D01*
X87083626Y-36469727D01*
X86950060Y-36392661D01*
X86849592Y-36429417D01*
X86777148Y-36503333D01*
X86705108Y-36595643D01*
X86706372Y-36669653D01*
X86801304Y-36758787D01*
X87010272Y-36896469D01*
X87020739Y-36903109D01*
X87505894Y-37154504D01*
X87987027Y-37275576D01*
X88521397Y-37281585D01*
X89098000Y-37159228D01*
X89616996Y-36896881D01*
X90056847Y-36509151D01*
X90396013Y-36010647D01*
X90396385Y-36009923D01*
X90519791Y-35657971D01*
X90589529Y-35226438D01*
X90601228Y-34781015D01*
X90550515Y-34387393D01*
X90512708Y-34261652D01*
X90234626Y-33722436D01*
X89849179Y-33282005D01*
X89377102Y-32955383D01*
X88839127Y-32757593D01*
X88360312Y-32702051D01*
X87869530Y-32739783D01*
X87430029Y-32874933D01*
X87019219Y-33097854D01*
X86806070Y-33237716D01*
X86707742Y-33327885D01*
X86703878Y-33401904D01*
X86774117Y-33493314D01*
D13*
%TO.C,U5*%
X115415000Y-42570000D02*
X113750000Y-42570000D01*
X115415000Y-42810000D02*
X115415000Y-42570000D01*
X117800000Y-42810000D02*
X115415000Y-42810000D01*
X120185000Y-42810000D02*
X120185000Y-42570000D01*
X117800000Y-42810000D02*
X120185000Y-42810000D01*
X115415000Y-39990000D02*
X115415000Y-40230000D01*
X117800000Y-39990000D02*
X115415000Y-39990000D01*
X120185000Y-39990000D02*
X120185000Y-40230000D01*
X117800000Y-39990000D02*
X120185000Y-39990000D01*
%TO.C,U4*%
X103515000Y-42670000D02*
X101850000Y-42670000D01*
X103515000Y-42910000D02*
X103515000Y-42670000D01*
X105900000Y-42910000D02*
X103515000Y-42910000D01*
X108285000Y-42910000D02*
X108285000Y-42670000D01*
X105900000Y-42910000D02*
X108285000Y-42910000D01*
X103515000Y-40090000D02*
X103515000Y-40330000D01*
X105900000Y-40090000D02*
X103515000Y-40090000D01*
X108285000Y-40090000D02*
X108285000Y-40330000D01*
X105900000Y-40090000D02*
X108285000Y-40090000D01*
D14*
%TO.C,U3*%
X111865000Y-33350000D02*
X111865000Y-37250000D01*
X101735000Y-33350000D02*
X101735000Y-37250000D01*
D10*
X101955000Y-31155000D02*
G75*
G03*
X101955000Y-31155000I-100000J0D01*
G01*
D13*
%TO.C,U1*%
X122800000Y-38610000D02*
X128810000Y-38610000D01*
X125050000Y-31790000D02*
X128810000Y-31790000D01*
X128810000Y-38610000D02*
X128810000Y-37350000D01*
X128810000Y-31790000D02*
X128810000Y-33050000D01*
%TO.C,R17*%
X116935000Y-37372936D02*
X116935000Y-37827064D01*
X115465000Y-37372936D02*
X115465000Y-37827064D01*
%TO.C,R15*%
X117572936Y-27665000D02*
X118027064Y-27665000D01*
X117572936Y-29135000D02*
X118027064Y-29135000D01*
%TO.C,R12*%
X98565000Y-33027064D02*
X98565000Y-32572936D01*
X100035000Y-33027064D02*
X100035000Y-32572936D01*
%TO.C,R11*%
X98565000Y-37827064D02*
X98565000Y-37372936D01*
X100035000Y-37827064D02*
X100035000Y-37372936D01*
%TO.C,R10*%
X98565000Y-42027064D02*
X98565000Y-41572936D01*
X100035000Y-42027064D02*
X100035000Y-41572936D01*
%TO.C,R4*%
X117765000Y-37827064D02*
X117765000Y-37372936D01*
X119235000Y-37827064D02*
X119235000Y-37372936D01*
%TO.C,C5*%
X107988748Y-27890000D02*
X109411252Y-27890000D01*
X107988748Y-29710000D02*
X109411252Y-29710000D01*
%TO.C,C2*%
X126311252Y-42310000D02*
X124888748Y-42310000D01*
X126311252Y-40490000D02*
X124888748Y-40490000D01*
%TO.C,C1*%
X126211252Y-29710000D02*
X124788748Y-29710000D01*
X126211252Y-27890000D02*
X124788748Y-27890000D01*
%TO.C,R16*%
X114635000Y-37372936D02*
X114635000Y-37827064D01*
X113165000Y-37372936D02*
X113165000Y-37827064D01*
%TO.C,R14*%
X113272936Y-27665000D02*
X113727064Y-27665000D01*
X113272936Y-29135000D02*
X113727064Y-29135000D01*
%TO.C,C4*%
X114688748Y-30190000D02*
X116111252Y-30190000D01*
X114688748Y-32010000D02*
X116111252Y-32010000D01*
%TO.C,R5*%
X112535000Y-41272936D02*
X112535000Y-41727064D01*
X111065000Y-41272936D02*
X111065000Y-41727064D01*
%TO.C,C3*%
X114688748Y-32890000D02*
X116111252Y-32890000D01*
X114688748Y-34710000D02*
X116111252Y-34710000D01*
D12*
%TO.C,G1*%
G36*
X36774117Y-33493314D02*
G01*
X36777148Y-33496666D01*
X36894777Y-33601276D01*
X36999718Y-33587044D01*
X37083626Y-33530272D01*
X37584288Y-33246130D01*
X38099670Y-33113038D01*
X38611618Y-33129888D01*
X39101978Y-33295571D01*
X39552595Y-33608979D01*
X39633002Y-33685918D01*
X39986300Y-34135502D01*
X40185985Y-34610838D01*
X40232058Y-35097619D01*
X40124518Y-35581538D01*
X39863366Y-36048286D01*
X39633002Y-36314081D01*
X39192086Y-36655709D01*
X38707945Y-36849824D01*
X38198732Y-36895319D01*
X37682601Y-36791085D01*
X37177707Y-36536013D01*
X37083626Y-36469727D01*
X36950060Y-36392661D01*
X36849592Y-36429417D01*
X36777148Y-36503333D01*
X36705108Y-36595643D01*
X36706372Y-36669653D01*
X36801304Y-36758787D01*
X37010272Y-36896469D01*
X37020739Y-36903109D01*
X37505894Y-37154504D01*
X37987027Y-37275576D01*
X38521397Y-37281585D01*
X39098000Y-37159228D01*
X39616996Y-36896881D01*
X40056847Y-36509151D01*
X40396013Y-36010647D01*
X40396385Y-36009923D01*
X40519791Y-35657971D01*
X40589529Y-35226438D01*
X40601228Y-34781015D01*
X40550515Y-34387393D01*
X40512708Y-34261652D01*
X40234626Y-33722436D01*
X39849179Y-33282005D01*
X39377102Y-32955383D01*
X38839127Y-32757593D01*
X38360312Y-32702051D01*
X37869530Y-32739783D01*
X37430029Y-32874933D01*
X37019219Y-33097854D01*
X36806070Y-33237716D01*
X36707742Y-33327885D01*
X36703878Y-33401904D01*
X36774117Y-33493314D01*
G37*
X36774117Y-33493314D02*
X36777148Y-33496666D01*
X36894777Y-33601276D01*
X36999718Y-33587044D01*
X37083626Y-33530272D01*
X37584288Y-33246130D01*
X38099670Y-33113038D01*
X38611618Y-33129888D01*
X39101978Y-33295571D01*
X39552595Y-33608979D01*
X39633002Y-33685918D01*
X39986300Y-34135502D01*
X40185985Y-34610838D01*
X40232058Y-35097619D01*
X40124518Y-35581538D01*
X39863366Y-36048286D01*
X39633002Y-36314081D01*
X39192086Y-36655709D01*
X38707945Y-36849824D01*
X38198732Y-36895319D01*
X37682601Y-36791085D01*
X37177707Y-36536013D01*
X37083626Y-36469727D01*
X36950060Y-36392661D01*
X36849592Y-36429417D01*
X36777148Y-36503333D01*
X36705108Y-36595643D01*
X36706372Y-36669653D01*
X36801304Y-36758787D01*
X37010272Y-36896469D01*
X37020739Y-36903109D01*
X37505894Y-37154504D01*
X37987027Y-37275576D01*
X38521397Y-37281585D01*
X39098000Y-37159228D01*
X39616996Y-36896881D01*
X40056847Y-36509151D01*
X40396013Y-36010647D01*
X40396385Y-36009923D01*
X40519791Y-35657971D01*
X40589529Y-35226438D01*
X40601228Y-34781015D01*
X40550515Y-34387393D01*
X40512708Y-34261652D01*
X40234626Y-33722436D01*
X39849179Y-33282005D01*
X39377102Y-32955383D01*
X38839127Y-32757593D01*
X38360312Y-32702051D01*
X37869530Y-32739783D01*
X37430029Y-32874933D01*
X37019219Y-33097854D01*
X36806070Y-33237716D01*
X36707742Y-33327885D01*
X36703878Y-33401904D01*
X36774117Y-33493314D01*
G36*
X36574013Y-35436196D02*
G01*
X36803331Y-35660220D01*
X36970323Y-35791224D01*
X37119324Y-35853769D01*
X37294669Y-35872417D01*
X37362702Y-35873125D01*
X37719889Y-35873125D01*
X37289538Y-35437360D01*
X36859186Y-35001596D01*
X37130191Y-34721989D01*
X37401196Y-34442383D01*
X38291074Y-35322975D01*
X39184464Y-35300394D01*
X40077854Y-35277812D01*
X39849740Y-35059531D01*
X39709741Y-34942035D01*
X39564760Y-34876152D01*
X39362900Y-34847390D01*
X39068051Y-34841250D01*
X38514476Y-34841250D01*
X38003125Y-34325312D01*
X37769174Y-34097954D01*
X37571455Y-33921741D01*
X37439529Y-33822306D01*
X37408118Y-33809375D01*
X37320739Y-33862618D01*
X37150222Y-34006516D01*
X36923493Y-34217326D01*
X36733488Y-34404321D01*
X36142513Y-34999268D01*
X36574013Y-35436196D01*
G37*
X36574013Y-35436196D02*
X36803331Y-35660220D01*
X36970323Y-35791224D01*
X37119324Y-35853769D01*
X37294669Y-35872417D01*
X37362702Y-35873125D01*
X37719889Y-35873125D01*
X37289538Y-35437360D01*
X36859186Y-35001596D01*
X37130191Y-34721989D01*
X37401196Y-34442383D01*
X38291074Y-35322975D01*
X39184464Y-35300394D01*
X40077854Y-35277812D01*
X39849740Y-35059531D01*
X39709741Y-34942035D01*
X39564760Y-34876152D01*
X39362900Y-34847390D01*
X39068051Y-34841250D01*
X38514476Y-34841250D01*
X38003125Y-34325312D01*
X37769174Y-34097954D01*
X37571455Y-33921741D01*
X37439529Y-33822306D01*
X37408118Y-33809375D01*
X37320739Y-33862618D01*
X37150222Y-34006516D01*
X36923493Y-34217326D01*
X36733488Y-34404321D01*
X36142513Y-34999268D01*
X36574013Y-35436196D01*
D13*
%TO.C,U5*%
X67800000Y-39990000D02*
X70185000Y-39990000D01*
X70185000Y-39990000D02*
X70185000Y-40230000D01*
X67800000Y-39990000D02*
X65415000Y-39990000D01*
X65415000Y-39990000D02*
X65415000Y-40230000D01*
X67800000Y-42810000D02*
X70185000Y-42810000D01*
X70185000Y-42810000D02*
X70185000Y-42570000D01*
X67800000Y-42810000D02*
X65415000Y-42810000D01*
X65415000Y-42810000D02*
X65415000Y-42570000D01*
X65415000Y-42570000D02*
X63750000Y-42570000D01*
%TO.C,U4*%
X55900000Y-40090000D02*
X58285000Y-40090000D01*
X58285000Y-40090000D02*
X58285000Y-40330000D01*
X55900000Y-40090000D02*
X53515000Y-40090000D01*
X53515000Y-40090000D02*
X53515000Y-40330000D01*
X55900000Y-42910000D02*
X58285000Y-42910000D01*
X58285000Y-42910000D02*
X58285000Y-42670000D01*
X55900000Y-42910000D02*
X53515000Y-42910000D01*
X53515000Y-42910000D02*
X53515000Y-42670000D01*
X53515000Y-42670000D02*
X51850000Y-42670000D01*
D10*
%TO.C,U3*%
X51955000Y-31155000D02*
G75*
G03*
X51955000Y-31155000I-100000J0D01*
G01*
D14*
X51735000Y-33350000D02*
X51735000Y-37250000D01*
X61865000Y-33350000D02*
X61865000Y-37250000D01*
D13*
%TO.C,U1*%
X78810000Y-31790000D02*
X78810000Y-33050000D01*
X78810000Y-38610000D02*
X78810000Y-37350000D01*
X75050000Y-31790000D02*
X78810000Y-31790000D01*
X72800000Y-38610000D02*
X78810000Y-38610000D01*
%TO.C,R17*%
X65465000Y-37372936D02*
X65465000Y-37827064D01*
X66935000Y-37372936D02*
X66935000Y-37827064D01*
%TO.C,R16*%
X63165000Y-37372936D02*
X63165000Y-37827064D01*
X64635000Y-37372936D02*
X64635000Y-37827064D01*
%TO.C,R15*%
X67572936Y-29135000D02*
X68027064Y-29135000D01*
X67572936Y-27665000D02*
X68027064Y-27665000D01*
%TO.C,R14*%
X63272936Y-29135000D02*
X63727064Y-29135000D01*
X63272936Y-27665000D02*
X63727064Y-27665000D01*
%TO.C,R12*%
X50035000Y-33027064D02*
X50035000Y-32572936D01*
X48565000Y-33027064D02*
X48565000Y-32572936D01*
%TO.C,R11*%
X50035000Y-37827064D02*
X50035000Y-37372936D01*
X48565000Y-37827064D02*
X48565000Y-37372936D01*
%TO.C,R10*%
X50035000Y-42027064D02*
X50035000Y-41572936D01*
X48565000Y-42027064D02*
X48565000Y-41572936D01*
%TO.C,R5*%
X61065000Y-41272936D02*
X61065000Y-41727064D01*
X62535000Y-41272936D02*
X62535000Y-41727064D01*
%TO.C,R4*%
X69235000Y-37827064D02*
X69235000Y-37372936D01*
X67765000Y-37827064D02*
X67765000Y-37372936D01*
%TO.C,C5*%
X57988748Y-29710000D02*
X59411252Y-29710000D01*
X57988748Y-27890000D02*
X59411252Y-27890000D01*
%TO.C,C4*%
X64688748Y-32010000D02*
X66111252Y-32010000D01*
X64688748Y-30190000D02*
X66111252Y-30190000D01*
%TO.C,C3*%
X64688748Y-34710000D02*
X66111252Y-34710000D01*
X64688748Y-32890000D02*
X66111252Y-32890000D01*
%TO.C,C2*%
X76311252Y-40490000D02*
X74888748Y-40490000D01*
X76311252Y-42310000D02*
X74888748Y-42310000D01*
%TO.C,C1*%
X76211252Y-27890000D02*
X74788748Y-27890000D01*
X76211252Y-29710000D02*
X74788748Y-29710000D01*
%TD*%
M02*
