solid Holder
facet normal -0.0 -0.0 1.0
  outer loop
    vertex 6.0 0.0 5.0
    vertex 0.0 50.0 5.0
    vertex 0.0 0.0 5.0
  endloop
endfacet
facet normal -0.0 -0.0 1.0
  outer loop
    vertex 0.0 50.0 5.0
    vertex 6.0 0.0 5.0
    vertex 6.0 50.0 5.0
  endloop
endfacet
facet normal -1.0 0.0 0.0
  outer loop
    vertex 0.0 0.0 5.0
    vertex 0.0 1.7972905962210552 2.894384598028669
    vertex 0.0 0.0 0.0
  endloop
endfacet
facet normal -1.0 0.0 0.0
  outer loop
    vertex 0.0 1.7972905962210552 2.894384598028669
    vertex 0.0 0.0 5.0
    vertex 0.0 2.0179918839648674 3.1820081160351332
  endloop
endfacet
facet normal -1.0 0.0 0.0
  outer loop
    vertex 0.0 2.0179918839648674 3.1820081160351332
    vertex 0.0 0.0 5.0
    vertex 0.0 2.305615401971332 3.402709403778946
  endloop
endfacet
facet normal -1.0 0.0 0.0
  outer loop
    vertex 0.0 2.305615401971332 3.402709403778946
    vertex 0.0 0.0 5.0
    vertex 0.0 2.640560082808645 3.5414480332264886
  endloop
endfacet
facet normal -1.0 0.0 0.0
  outer loop
    vertex 0.0 2.640560082808645 3.5414480332264886
    vertex 0.0 0.0 5.0
    vertex 0.0 3.0 3.588769196057337
  endloop
endfacet
facet normal -1.0 0.0 0.0
  outer loop
    vertex 0.0 3.0 3.588769196057337
    vertex 0.0 0.0 5.0
    vertex 0.0 50.0 5.0
  endloop
endfacet
facet normal -1.0 0.0 0.0
  outer loop
    vertex 0.0 0.0 0.0
    vertex 0.0 1.7972905962210552 2.894384598028669
    vertex 0.0 1.6585519667735125 2.559439917191356
  endloop
endfacet
facet normal -1.0 0.0 0.0
  outer loop
    vertex 0.0 0.0 0.0
    vertex 0.0 1.6585519667735125 2.559439917191356
    vertex 0.0 1.6112308039426635 2.200000000000001
  endloop
endfacet
facet normal -1.0 0.0 0.0
  outer loop
    vertex 0.0 3.0 3.588769196057337
    vertex 0.0 50.0 5.0
    vertex 0.0 22.799999999999994 3.600000000000003
  endloop
endfacet
facet normal -1.0 0.0 0.0
  outer loop
    vertex 0.0 22.799999999999994 3.600000000000003
    vertex 0.0 50.0 5.0
    vertex 0.0 23.162346663143527 3.552296156804699
  endloop
endfacet
facet normal -1.0 0.0 0.0
  outer loop
    vertex 0.0 23.162346663143527 3.552296156804699
    vertex 0.0 50.0 5.0
    vertex 0.0 23.499999999999996 3.4124355652982175
  endloop
endfacet
facet normal -1.0 0.0 0.0
  outer loop
    vertex 0.0 23.499999999999996 3.4124355652982175
    vertex 0.0 50.0 5.0
    vertex 0.0 27.199999999999996 3.5999999999999974
  endloop
endfacet
facet normal -1.0 0.0 0.0
  outer loop
    vertex 0.0 23.499999999999996 3.4124355652982175
    vertex 0.0 27.199999999999996 3.5999999999999974
    vertex 0.0 23.789949493661165 3.1899494936611696
  endloop
endfacet
facet normal -1.0 0.0 0.0
  outer loop
    vertex 0.0 23.789949493661165 3.1899494936611696
    vertex 0.0 27.199999999999996 3.5999999999999974
    vertex 0.0 26.837653336856466 3.5522961568046934
  endloop
endfacet
facet normal -1.0 0.0 0.0
  outer loop
    vertex 0.0 23.789949493661165 3.1899494936611696
    vertex 0.0 26.837653336856466 3.5522961568046934
    vertex 0.0 24.01243556529821 2.900000000000002
  endloop
endfacet
facet normal -1.0 0.0 0.0
  outer loop
    vertex 0.0 24.01243556529821 2.900000000000002
    vertex 0.0 26.837653336856466 3.5522961568046934
    vertex 0.0 24.15229615680469 2.56234666314353
  endloop
endfacet
facet normal -1.0 0.0 0.0
  outer loop
    vertex 0.0 24.15229615680469 2.56234666314353
    vertex 0.0 26.837653336856466 3.5522961568046934
    vertex 0.0 26.499999999999996 3.412435565298212
  endloop
endfacet
facet normal -1.0 0.0 0.0
  outer loop
    vertex 0.0 24.15229615680469 2.56234666314353
    vertex 0.0 26.499999999999996 3.412435565298212
    vertex 0.0 24.2 2.2000000000000006
  endloop
endfacet
facet normal -1.0 0.0 0.0
  outer loop
    vertex 0.0 24.2 2.2000000000000006
    vertex 0.0 26.499999999999996 3.412435565298212
    vertex 0.0 26.210050506338828 3.1899494936611656
  endloop
endfacet
facet normal -1.0 0.0 0.0
  outer loop
    vertex 0.0 24.2 2.2000000000000006
    vertex 0.0 26.210050506338828 3.1899494936611656
    vertex 0.0 25.987564434701785 2.8999999999999995
  endloop
endfacet
facet normal -1.0 0.0 0.0
  outer loop
    vertex 0.0 24.2 2.2000000000000006
    vertex 0.0 25.987564434701785 2.8999999999999995
    vertex 0.0 24.2 0.0
  endloop
endfacet
facet normal -1.0 0.0 0.0
  outer loop
    vertex 0.0 24.2 0.0
    vertex 0.0 25.987564434701785 2.8999999999999995
    vertex 0.0 25.847703843195305 2.5623466631435288
  endloop
endfacet
facet normal -1.0 0.0 0.0
  outer loop
    vertex 0.0 24.2 0.0
    vertex 0.0 25.847703843195305 2.5623466631435288
    vertex 0.0 25.799999999999997 2.2000000000000006
  endloop
endfacet
facet normal -1.0 0.0 0.0
  outer loop
    vertex 0.0 27.199999999999996 3.5999999999999974
    vertex 0.0 50.0 5.0
    vertex 0.0 46.99999999999999 3.588769196057337
  endloop
endfacet
facet normal -1.0 0.0 0.0
  outer loop
    vertex 0.0 46.99999999999999 3.588769196057337
    vertex 0.0 50.0 5.0
    vertex 0.0 47.359439917191345 3.5414480332264886
  endloop
endfacet
facet normal -1.0 0.0 0.0
  outer loop
    vertex 0.0 47.359439917191345 3.5414480332264886
    vertex 0.0 50.0 5.0
    vertex 0.0 47.694384598028655 3.402709403778946
  endloop
endfacet
facet normal -1.0 0.0 0.0
  outer loop
    vertex 0.0 47.694384598028655 3.402709403778946
    vertex 0.0 50.0 5.0
    vertex 0.0 47.982008116035125 3.1820081160351332
  endloop
endfacet
facet normal -1.0 0.0 0.0
  outer loop
    vertex 0.0 47.982008116035125 3.1820081160351332
    vertex 0.0 50.0 5.0
    vertex 0.0 48.20270940377893 2.894384598028669
  endloop
endfacet
facet normal -1.0 0.0 0.0
  outer loop
    vertex 0.0 48.20270940377893 2.894384598028669
    vertex 0.0 50.0 5.0
    vertex 0.0 48.34144803322648 2.559439917191356
  endloop
endfacet
facet normal -1.0 0.0 0.0
  outer loop
    vertex 0.0 48.34144803322648 2.559439917191356
    vertex 0.0 50.0 5.0
    vertex 0.0 48.38876919605733 2.200000000000001
  endloop
endfacet
facet normal -1.0 0.0 0.0
  outer loop
    vertex 0.0 48.38876919605733 2.200000000000001
    vertex 0.0 50.0 5.0
    vertex 0.0 48.4 0.0
  endloop
endfacet
facet normal -1.0 0.0 0.0
  outer loop
    vertex 0.0 48.4 0.0
    vertex 0.0 50.0 5.0
    vertex 0.0 50.0 0.0
  endloop
endfacet
facet normal -1.0 0.0 0.0
  outer loop
    vertex 0.0 25.799999999999997 0.0
    vertex 0.0 24.2 0.0
    vertex 0.0 25.799999999999997 2.2000000000000006
  endloop
endfacet
facet normal -1.0 0.0 0.0
  outer loop
    vertex 0.0 1.6124786710474024 -3.524958103184872e-16
    vertex 0.0 0.0 0.0
    vertex 0.0 1.6112308039426635 2.200000000000001
  endloop
endfacet
facet normal 2.7256257986678734e-05 0.9999999994727296 -1.76532491580798e-05
  outer loop
    vertex 0.0 50.0 5.0
    vertex 0.4000000000000007 50.0 0.0
    vertex 0.0 50.0 0.0
  endloop
endfacet
facet normal 2.7256257986678734e-05 0.9999999994727296 -1.76532491580798e-05
  outer loop
    vertex 0.4000000000000007 50.0 0.0
    vertex 0.0 50.0 5.0
    vertex 0.4000000000000007 50.0 0.4000000000000001
  endloop
endfacet
facet normal 2.7256257986678734e-05 0.9999999994727296 -1.76532491580798e-05
  outer loop
    vertex 0.4000000000000007 50.0 0.4000000000000001
    vertex 0.0 50.0 5.0
    vertex 0.7999999999999999 50.0 0.4000000000000001
  endloop
endfacet
facet normal 2.7256257986678734e-05 0.9999999994727296 -1.76532491580798e-05
  outer loop
    vertex 0.7999999999999999 50.0 0.4000000000000001
    vertex 0.0 50.0 5.0
    vertex 5.2020421431958495 49.99914001470584 0.40203695788376187
  endloop
endfacet
facet normal 2.7256257986678734e-05 0.9999999994727296 -1.76532491580798e-05
  outer loop
    vertex 5.2020421431958495 49.99914001470584 0.40203695788376187
    vertex 0.0 50.0 5.0
    vertex 5.602042143195849 49.99914001470584 0.40203695788376187
  endloop
endfacet
facet normal 2.7256257986678734e-05 0.9999999994727296 -1.76532491580798e-05
  outer loop
    vertex 5.602042143195849 49.99914001470584 0.0020421698049193876
    vertex 6.0 50.0 5.0
    vertex 6.0 50.0 0.0
  endloop
endfacet
facet normal 2.7256257986678734e-05 0.9999999994727296 -1.76532491580798e-05
  outer loop
    vertex 6.0 50.0 5.0
    vertex 5.602042143195849 49.99914001470584 0.0020421698049193876
    vertex 5.602042143195849 49.99914001470584 0.40203695788376187
  endloop
endfacet
facet normal 2.7256257986678734e-05 0.9999999994727296 -1.76532491580798e-05
  outer loop
    vertex 6.0 50.0 5.0
    vertex 5.602042143195849 49.99914001470584 0.40203695788376187
    vertex 0.0 50.0 5.0
  endloop
endfacet
facet normal 2.7256257986678734e-05 0.9999999994727296 -1.76532491580798e-05
  outer loop
    vertex 0.7999999999999999 50.0 0.4000000000000001
    vertex 5.2020421431958495 50.00016098357925 0.0020421698049193876
    vertex 0.7999999999999999 50.0 0.0
  endloop
endfacet
facet normal 2.7256257986678734e-05 0.9999999994727296 -1.76532491580798e-05
  outer loop
    vertex 5.2020421431958495 50.00016098357925 0.0020421698049193876
    vertex 0.7999999999999999 50.0 0.4000000000000001
    vertex 5.2020421431958495 49.99914001470584 0.40203695788376187
  endloop
endfacet
facet normal 1.0 -1.0354300757159929e-32 -1.0382206893455122e-31
  outer loop
    vertex 6.0 25.799999999999997 0.0
    vertex 6.0 24.2 2.2000000000000006
    vertex 6.0 24.2 0.0
  endloop
endfacet
facet normal 1.0 -1.0354300757159929e-32 -1.0382206893455122e-31
  outer loop
    vertex 6.0 50.0 0.0
    vertex 6.0 48.4 2.2000000000000006
    vertex 6.0 48.4 0.0
  endloop
endfacet
facet normal 1.0 -1.0354300757159929e-32 -1.0382206893455122e-31
  outer loop
    vertex 6.0 1.6000000000000003 0.0
    vertex 6.0 0.0 5.0
    vertex 6.0 0.0 0.0
  endloop
endfacet
facet normal 1.0 -1.0354300757159929e-32 -1.0382206893455122e-31
  outer loop
    vertex 6.0 0.0 5.0
    vertex 6.0 1.6000000000000003 0.0
    vertex 6.0 1.6000000000000003 2.200000000000001
  endloop
endfacet
facet normal 1.0 -1.0354300757159929e-32 -1.0382206893455122e-31
  outer loop
    vertex 6.0 0.0 5.0
    vertex 6.0 1.6000000000000003 2.200000000000001
    vertex 6.0 1.6477038431953048 2.56234666314353
  endloop
endfacet
facet normal 1.0 -1.0354300757159929e-32 -1.0382206893455122e-31
  outer loop
    vertex 6.0 0.0 5.0
    vertex 6.0 1.6477038431953048 2.56234666314353
    vertex 6.0 1.7875644347017863 2.900000000000001
  endloop
endfacet
facet normal 1.0 -1.0354300757159929e-32 -1.0382206893455122e-31
  outer loop
    vertex 6.0 0.0 5.0
    vertex 6.0 1.7875644347017863 2.900000000000001
    vertex 6.0 2.010050506338833 3.189949493661167
  endloop
endfacet
facet normal 1.0 -1.0354300757159929e-32 -1.0382206893455122e-31
  outer loop
    vertex 6.0 0.0 5.0
    vertex 6.0 2.010050506338833 3.189949493661167
    vertex 6.0 2.3000000000000003 3.412435565298215
  endloop
endfacet
facet normal 1.0 -1.0354300757159929e-32 -1.0382206893455122e-31
  outer loop
    vertex 6.0 0.0 5.0
    vertex 6.0 2.3000000000000003 3.412435565298215
    vertex 6.0 2.637653336856471 3.5522961568046965
  endloop
endfacet
facet normal 1.0 -1.0354300757159929e-32 -1.0382206893455122e-31
  outer loop
    vertex 6.0 0.0 5.0
    vertex 6.0 2.637653336856471 3.5522961568046965
    vertex 6.0 3.0 3.6000000000000005
  endloop
endfacet
facet normal 1.0 -1.0354300757159929e-32 -1.0382206893455122e-31
  outer loop
    vertex 6.0 0.0 5.0
    vertex 6.0 3.0 3.6000000000000005
    vertex 6.0 50.0 5.0
  endloop
endfacet
facet normal 1.0 -1.0354300757159929e-32 -1.0382206893455122e-31
  outer loop
    vertex 6.0 50.0 5.0
    vertex 6.0 3.0 3.6000000000000005
    vertex 6.0 22.799999999999997 3.6000000000000005
  endloop
endfacet
facet normal 1.0 -1.0354300757159929e-32 -1.0382206893455122e-31
  outer loop
    vertex 6.0 50.0 5.0
    vertex 6.0 22.799999999999997 3.6000000000000005
    vertex 6.0 23.162346663143527 3.5522961568046965
  endloop
endfacet
facet normal 1.0 -1.0354300757159929e-32 -1.0382206893455122e-31
  outer loop
    vertex 6.0 50.0 5.0
    vertex 6.0 23.162346663143527 3.5522961568046965
    vertex 6.0 23.499999999999996 3.412435565298215
  endloop
endfacet
facet normal 1.0 -1.0354300757159929e-32 -1.0382206893455122e-31
  outer loop
    vertex 6.0 50.0 5.0
    vertex 6.0 23.499999999999996 3.412435565298215
    vertex 6.0 27.199999999999996 3.6000000000000005
  endloop
endfacet
facet normal 1.0 -1.0354300757159929e-32 -1.0382206893455122e-31
  outer loop
    vertex 6.0 27.199999999999996 3.6000000000000005
    vertex 6.0 23.499999999999996 3.412435565298215
    vertex 6.0 23.789949493661165 3.189949493661167
  endloop
endfacet
facet normal 1.0 -1.0354300757159929e-32 -1.0382206893455122e-31
  outer loop
    vertex 6.0 27.199999999999996 3.6000000000000005
    vertex 6.0 23.789949493661165 3.189949493661167
    vertex 6.0 26.837653336856466 3.5522961568046965
  endloop
endfacet
facet normal 1.0 -1.0354300757159929e-32 -1.0382206893455122e-31
  outer loop
    vertex 6.0 26.837653336856466 3.5522961568046965
    vertex 6.0 23.789949493661165 3.189949493661167
    vertex 6.0 24.01243556529821 2.9000000000000004
  endloop
endfacet
facet normal 1.0 -1.0354300757159929e-32 -1.0382206893455122e-31
  outer loop
    vertex 6.0 26.837653336856466 3.5522961568046965
    vertex 6.0 24.01243556529821 2.9000000000000004
    vertex 6.0 24.15229615680469 2.5623466631435297
  endloop
endfacet
facet normal 1.0 -1.0354300757159929e-32 -1.0382206893455122e-31
  outer loop
    vertex 6.0 26.837653336856466 3.5522961568046965
    vertex 6.0 24.15229615680469 2.5623466631435297
    vertex 6.0 26.499999999999996 3.412435565298215
  endloop
endfacet
facet normal 1.0 -1.0354300757159929e-32 -1.0382206893455122e-31
  outer loop
    vertex 6.0 26.499999999999996 3.412435565298215
    vertex 6.0 24.15229615680469 2.5623466631435297
    vertex 6.0 24.2 2.2000000000000006
  endloop
endfacet
facet normal 1.0 -1.0354300757159929e-32 -1.0382206893455122e-31
  outer loop
    vertex 6.0 26.499999999999996 3.412435565298215
    vertex 6.0 24.2 2.2000000000000006
    vertex 6.0 26.210050506338828 3.189949493661167
  endloop
endfacet
facet normal 1.0 -1.0354300757159929e-32 -1.0382206893455122e-31
  outer loop
    vertex 6.0 26.210050506338828 3.189949493661167
    vertex 6.0 24.2 2.2000000000000006
    vertex 6.0 25.987564434701778 2.9000000000000004
  endloop
endfacet
facet normal 1.0 -1.0354300757159929e-32 -1.0382206893455122e-31
  outer loop
    vertex 6.0 25.987564434701778 2.9000000000000004
    vertex 6.0 24.2 2.2000000000000006
    vertex 6.0 25.847703843195298 2.5623466631435297
  endloop
endfacet
facet normal 1.0 -1.0354300757159929e-32 -1.0382206893455122e-31
  outer loop
    vertex 6.0 25.847703843195298 2.5623466631435297
    vertex 6.0 24.2 2.2000000000000006
    vertex 6.0 25.799999999999997 2.2000000000000006
  endloop
endfacet
facet normal 1.0 -1.0354300757159929e-32 -1.0382206893455122e-31
  outer loop
    vertex 6.0 25.799999999999997 2.2000000000000006
    vertex 6.0 24.2 2.2000000000000006
    vertex 6.0 25.799999999999997 0.0
  endloop
endfacet
facet normal 1.0 -1.0354300757159929e-32 -1.0382206893455122e-31
  outer loop
    vertex 6.0 50.0 5.0
    vertex 6.0 27.199999999999996 3.6000000000000005
    vertex 6.0 47.0 3.5999999999999983
  endloop
endfacet
facet normal 1.0 -1.0354300757159929e-32 -1.0382206893455122e-31
  outer loop
    vertex 6.0 50.0 5.0
    vertex 6.0 47.0 3.5999999999999983
    vertex 6.0 47.362346663143526 3.5522961568046934
  endloop
endfacet
facet normal 1.0 -1.0354300757159929e-32 -1.0382206893455122e-31
  outer loop
    vertex 6.0 50.0 5.0
    vertex 6.0 47.362346663143526 3.5522961568046934
    vertex 6.0 47.699999999999996 3.4124355652982126
  endloop
endfacet
facet normal 1.0 -1.0354300757159929e-32 -1.0382206893455122e-31
  outer loop
    vertex 6.0 50.0 5.0
    vertex 6.0 47.699999999999996 3.4124355652982126
    vertex 6.0 47.989949493661165 3.1899494936611656
  endloop
endfacet
facet normal 1.0 -1.0354300757159929e-32 -1.0382206893455122e-31
  outer loop
    vertex 6.0 50.0 5.0
    vertex 6.0 47.989949493661165 3.1899494936611656
    vertex 6.0 48.21243556529821 2.8999999999999995
  endloop
endfacet
facet normal 1.0 -1.0354300757159929e-32 -1.0382206893455122e-31
  outer loop
    vertex 6.0 50.0 5.0
    vertex 6.0 48.21243556529821 2.8999999999999995
    vertex 6.0 48.35229615680469 2.5623466631435288
  endloop
endfacet
facet normal 1.0 -1.0354300757159929e-32 -1.0382206893455122e-31
  outer loop
    vertex 6.0 50.0 5.0
    vertex 6.0 48.35229615680469 2.5623466631435288
    vertex 6.0 48.4 2.2000000000000006
  endloop
endfacet
facet normal 1.0 -1.0354300757159929e-32 -1.0382206893455122e-31
  outer loop
    vertex 6.0 50.0 5.0
    vertex 6.0 48.4 2.2000000000000006
    vertex 6.0 50.0 0.0
  endloop
endfacet
facet normal 0.0 -1.0 0.0
  outer loop
    vertex 6.0 0.0 5.0
    vertex 5.6000000000000005 0.0 0.0
    vertex 6.0 0.0 0.0
  endloop
endfacet
facet normal 0.0 -1.0 0.0
  outer loop
    vertex 5.6000000000000005 0.0 0.0
    vertex 6.0 0.0 5.0
    vertex 5.6000000000000005 0.0 0.39999999999999997
  endloop
endfacet
facet normal 0.0 -1.0 0.0
  outer loop
    vertex 5.6000000000000005 0.0 0.39999999999999997
    vertex 6.0 0.0 5.0
    vertex 5.2 0.0 0.39999999999999997
  endloop
endfacet
facet normal 0.0 -1.0 0.0
  outer loop
    vertex 5.2 0.0 0.39999999999999997
    vertex 6.0 0.0 5.0
    vertex 0.7999999999999999 0.0 0.39999999999999997
  endloop
endfacet
facet normal 0.0 -1.0 0.0
  outer loop
    vertex 0.7999999999999999 0.0 0.39999999999999997
    vertex 6.0 0.0 5.0
    vertex 0.39999999999999997 0.0 0.39999999999999997
  endloop
endfacet
facet normal 0.0 -1.0 0.0
  outer loop
    vertex 0.39999999999999997 0.0 0.39999999999999997
    vertex 0.0 0.0 0.0
    vertex 0.3999999999999999 0.0 0.0
  endloop
endfacet
facet normal 0.0 -1.0 0.0
  outer loop
    vertex 0.0 0.0 0.0
    vertex 0.39999999999999997 0.0 0.39999999999999997
    vertex 0.0 0.0 5.0
  endloop
endfacet
facet normal 0.0 -1.0 0.0
  outer loop
    vertex 0.0 0.0 5.0
    vertex 0.39999999999999997 0.0 0.39999999999999997
    vertex 6.0 0.0 5.0
  endloop
endfacet
facet normal 0.0 -1.0 0.0
  outer loop
    vertex 5.2 0.0 0.39999999999999997
    vertex 0.7999999999999999 0.0 0.0
    vertex 5.2 0.0 0.0
  endloop
endfacet
facet normal 0.0 -1.0 0.0
  outer loop
    vertex 0.7999999999999999 0.0 0.0
    vertex 5.2 0.0 0.39999999999999997
    vertex 0.7999999999999999 0.0 0.39999999999999997
  endloop
endfacet
facet normal -1.0 0.0 0.0
  outer loop
    vertex 1.7999999999999998 25.847703843195305 2.5623466631435288
    vertex 1.7999999999999998 25.799999999999997 1.7999999999999998
    vertex 1.7999999999999998 25.799999999999997 2.2000000000000006
  endloop
endfacet
facet normal -1.0 0.0 0.0
  outer loop
    vertex 1.7999999999999998 25.799999999999997 1.7999999999999998
    vertex 1.7999999999999998 25.847703843195305 2.5623466631435288
    vertex 1.7999999999999998 27.600000000000005 1.7999999999999996
  endloop
endfacet
facet normal -1.0 0.0 0.0
  outer loop
    vertex 1.7999999999999998 27.600000000000005 1.7999999999999996
    vertex 1.7999999999999998 25.847703843195305 2.5623466631435288
    vertex 1.7999999999999998 25.987564434701785 2.8999999999999995
  endloop
endfacet
facet normal -1.0 0.0 0.0
  outer loop
    vertex 1.7999999999999998 27.600000000000005 1.7999999999999996
    vertex 1.7999999999999998 25.987564434701785 2.8999999999999995
    vertex 1.7999999999999998 26.210050506338828 3.1899494936611656
  endloop
endfacet
facet normal -1.0 0.0 0.0
  outer loop
    vertex 1.7999999999999998 27.600000000000005 1.7999999999999996
    vertex 1.7999999999999998 26.210050506338828 3.1899494936611656
    vertex 1.7999999999999998 26.499999999999996 3.412435565298212
  endloop
endfacet
facet normal -1.0 0.0 0.0
  outer loop
    vertex 1.7999999999999998 27.600000000000005 1.7999999999999996
    vertex 1.7999999999999998 26.499999999999996 3.412435565298212
    vertex 1.7999999999999998 26.837653336856466 3.5522961568046934
  endloop
endfacet
facet normal -1.0 0.0 0.0
  outer loop
    vertex 1.7999999999999998 27.600000000000005 1.7999999999999996
    vertex 1.7999999999999998 26.837653336856466 3.5522961568046934
    vertex 1.7999999999999998 27.199999999999996 3.5999999999999974
  endloop
endfacet
facet normal -1.0 0.0 0.0
  outer loop
    vertex 1.7999999999999998 27.600000000000005 1.7999999999999996
    vertex 1.7999999999999998 27.199999999999996 3.5999999999999974
    vertex 1.7999999999999998 46.99999999999999 3.588769196057337
  endloop
endfacet
facet normal -1.0 0.0 0.0
  outer loop
    vertex 1.7999999999999998 27.600000000000005 1.7999999999999996
    vertex 1.7999999999999998 46.99999999999999 3.588769196057337
    vertex 1.7999999999999998 46.599999999999994 1.7999999999999996
  endloop
endfacet
facet normal -1.0 0.0 0.0
  outer loop
    vertex 1.7999999999999998 46.599999999999994 1.7999999999999996
    vertex 1.7999999999999998 46.99999999999999 3.588769196057337
    vertex 1.7999999999999998 48.4 1.7999999999999998
  endloop
endfacet
facet normal -1.0 0.0 0.0
  outer loop
    vertex 1.7999999999999998 48.4 1.7999999999999998
    vertex 1.7999999999999998 46.99999999999999 3.588769196057337
    vertex 1.7999999999999998 47.359439917191345 3.5414480332264886
  endloop
endfacet
facet normal -1.0 0.0 0.0
  outer loop
    vertex 1.7999999999999998 48.4 1.7999999999999998
    vertex 1.7999999999999998 47.359439917191345 3.5414480332264886
    vertex 1.7999999999999998 47.694384598028655 3.402709403778946
  endloop
endfacet
facet normal -1.0 0.0 0.0
  outer loop
    vertex 1.7999999999999998 48.4 1.7999999999999998
    vertex 1.7999999999999998 47.694384598028655 3.402709403778946
    vertex 1.7999999999999998 47.982008116035125 3.1820081160351332
  endloop
endfacet
facet normal -1.0 0.0 0.0
  outer loop
    vertex 1.7999999999999998 48.4 1.7999999999999998
    vertex 1.7999999999999998 47.982008116035125 3.1820081160351332
    vertex 1.7999999999999998 48.20270940377893 2.894384598028669
  endloop
endfacet
facet normal -1.0 0.0 0.0
  outer loop
    vertex 1.7999999999999998 48.4 1.7999999999999998
    vertex 1.7999999999999998 48.20270940377893 2.894384598028669
    vertex 1.7999999999999998 48.34144803322648 2.559439917191356
  endloop
endfacet
facet normal -1.0 0.0 0.0
  outer loop
    vertex 1.7999999999999998 48.4 1.7999999999999998
    vertex 1.7999999999999998 48.34144803322648 2.559439917191356
    vertex 1.7999999999999998 48.38876919605733 2.200000000000001
  endloop
endfacet
facet normal -0.0002936907772202118 0.9999996916091621 -0.0007283730556335022
  outer loop
    vertex 0.0 25.799999999999997 2.2000000000000006
    vertex 0.4000000000000001 25.796720999999994 0.0
    vertex 0.0 25.799999999999997 0.0
  endloop
endfacet
facet normal -0.0002936907772202118 0.9999996916091621 -0.0007283730556335022
  outer loop
    vertex 0.4000000000000001 25.796720999999994 0.0
    vertex 0.0 25.799999999999997 2.2000000000000006
    vertex 0.39999999999999997 25.796720999999994 0.39999999999999997
  endloop
endfacet
facet normal -0.0002936907772202118 0.9999996916091621 -0.0007283730556335022
  outer loop
    vertex 0.39999999999999997 25.796720999999994 0.39999999999999997
    vertex 0.0 25.799999999999997 2.2000000000000006
    vertex 0.7999999999999999 25.796720999999994 0.39999999999999997
  endloop
endfacet
facet normal -0.0002936907772202118 0.9999996916091621 -0.0007283730556335022
  outer loop
    vertex 0.7999999999999999 25.796720999999994 0.39999999999999997
    vertex 0.0 25.799999999999997 2.2000000000000006
    vertex 1.7999999999999998 25.799999999999997 1.7999999999999998
  endloop
endfacet
facet normal -0.0002936907772202118 0.9999996916091621 -0.0007283730556335022
  outer loop
    vertex 1.7999999999999998 25.799999999999997 1.7999999999999998
    vertex 0.0 25.799999999999997 2.2000000000000006
    vertex 1.7999999999999998 25.799999999999997 2.2000000000000006
  endloop
endfacet
facet normal -0.0002936907772202118 0.9999996916091621 -0.0007283730556335022
  outer loop
    vertex 0.7999999999999999 25.796720999999994 0.39999999999999997
    vertex 1.7999999999999998 25.799999999999997 0.0
    vertex 0.8000000000000002 25.796720999999994 0.0
  endloop
endfacet
facet normal -0.0002936907772202118 0.9999996916091621 -0.0007283730556335022
  outer loop
    vertex 1.7999999999999998 25.799999999999997 0.0
    vertex 0.7999999999999999 25.796720999999994 0.39999999999999997
    vertex 1.7999999999999998 25.799999999999997 1.7999999999999998
  endloop
endfacet
facet normal -0.0 0.99144486137381 -0.13052619222005507
  outer loop
    vertex 0.0 25.847703843195305 2.5623466631435288
    vertex 1.7999999999999998 25.799999999999997 2.2000000000000006
    vertex 0.0 25.799999999999997 2.2000000000000006
  endloop
endfacet
facet normal -0.0 0.99144486137381 -0.13052619222005507
  outer loop
    vertex 1.7999999999999998 25.799999999999997 2.2000000000000006
    vertex 0.0 25.847703843195305 2.5623466631435288
    vertex 1.7999999999999998 25.847703843195305 2.5623466631435288
  endloop
endfacet
facet normal -0.0 0.9238795325112865 -0.38268343236509034
  outer loop
    vertex 0.0 25.987564434701785 2.8999999999999995
    vertex 1.7999999999999998 25.847703843195305 2.5623466631435288
    vertex 0.0 25.847703843195305 2.5623466631435288
  endloop
endfacet
facet normal -0.0 0.9238795325112865 -0.38268343236509034
  outer loop
    vertex 1.7999999999999998 25.847703843195305 2.5623466631435288
    vertex 0.0 25.987564434701785 2.8999999999999995
    vertex 1.7999999999999998 25.987564434701785 2.8999999999999995
  endloop
endfacet
facet normal -0.0 0.7933533402912403 -0.6087614290087142
  outer loop
    vertex 0.0 26.210050506338828 3.1899494936611656
    vertex 1.7999999999999998 25.987564434701785 2.8999999999999995
    vertex 0.0 25.987564434701785 2.8999999999999995
  endloop
endfacet
facet normal -0.0 0.7933533402912403 -0.6087614290087142
  outer loop
    vertex 1.7999999999999998 25.987564434701785 2.8999999999999995
    vertex 0.0 26.210050506338828 3.1899494936611656
    vertex 1.7999999999999998 26.210050506338828 3.1899494936611656
  endloop
endfacet
facet normal -0.0 0.6087614290087167 -0.7933533402912383
  outer loop
    vertex 1.7999999999999998 26.499999999999996 3.412435565298212
    vertex 0.0 26.210050506338828 3.1899494936611656
    vertex 0.0 26.499999999999996 3.412435565298212
  endloop
endfacet
facet normal -0.0 0.6087614290087167 -0.7933533402912383
  outer loop
    vertex 0.0 26.210050506338828 3.1899494936611656
    vertex 1.7999999999999998 26.499999999999996 3.412435565298212
    vertex 1.7999999999999998 26.210050506338828 3.1899494936611656
  endloop
endfacet
facet normal -0.0 0.3826834323650927 -0.9238795325112856
  outer loop
    vertex 1.7999999999999998 26.837653336856466 3.5522961568046934
    vertex 0.0 26.499999999999996 3.412435565298212
    vertex 0.0 26.837653336856466 3.5522961568046934
  endloop
endfacet
facet normal -0.0 0.3826834323650927 -0.9238795325112856
  outer loop
    vertex 0.0 26.499999999999996 3.412435565298212
    vertex 1.7999999999999998 26.837653336856466 3.5522961568046934
    vertex 1.7999999999999998 26.499999999999996 3.412435565298212
  endloop
endfacet
facet normal -0.0 0.1305261922200504 -0.9914448613738107
  outer loop
    vertex 1.7999999999999998 27.199999999999996 3.5999999999999974
    vertex 0.0 26.837653336856466 3.5522961568046934
    vertex 0.0 27.199999999999996 3.5999999999999974
  endloop
endfacet
facet normal -0.0 0.1305261922200504 -0.9914448613738107
  outer loop
    vertex 0.0 26.837653336856466 3.5522961568046934
    vertex 1.7999999999999998 27.199999999999996 3.5999999999999974
    vertex 1.7999999999999998 26.837653336856466 3.5522961568046934
  endloop
endfacet
facet normal -0.0 -0.0005672122290918538 -0.9999998391351308
  outer loop
    vertex 1.7999999999999998 46.99999999999999 3.588769196057337
    vertex 0.0 27.199999999999996 3.5999999999999974
    vertex 0.0 46.99999999999999 3.588769196057337
  endloop
endfacet
facet normal -0.0 -0.0005672122290918538 -0.9999998391351308
  outer loop
    vertex 0.0 27.199999999999996 3.5999999999999974
    vertex 1.7999999999999998 46.99999999999999 3.588769196057337
    vertex 1.7999999999999998 27.199999999999996 3.5999999999999974
  endloop
endfacet
facet normal -0.0 -0.13052619222005202 -0.9914448613738104
  outer loop
    vertex 1.7999999999999998 47.359439917191345 3.5414480332264886
    vertex 0.0 46.99999999999999 3.588769196057337
    vertex 0.0 47.359439917191345 3.5414480332264886
  endloop
endfacet
facet normal -0.0 -0.13052619222005202 -0.9914448613738104
  outer loop
    vertex 0.0 46.99999999999999 3.588769196057337
    vertex 1.7999999999999998 47.359439917191345 3.5414480332264886
    vertex 1.7999999999999998 46.99999999999999 3.588769196057337
  endloop
endfacet
facet normal -0.0 -0.3826834323650893 -0.923879532511287
  outer loop
    vertex 1.7999999999999998 47.694384598028655 3.402709403778946
    vertex 0.0 47.359439917191345 3.5414480332264886
    vertex 0.0 47.694384598028655 3.402709403778946
  endloop
endfacet
facet normal -0.0 -0.3826834323650893 -0.923879532511287
  outer loop
    vertex 0.0 47.359439917191345 3.5414480332264886
    vertex 1.7999999999999998 47.694384598028655 3.402709403778946
    vertex 1.7999999999999998 47.359439917191345 3.5414480332264886
  endloop
endfacet
facet normal -0.0 -0.6087614290087138 -0.7933533402912404
  outer loop
    vertex 1.7999999999999998 47.982008116035125 3.1820081160351332
    vertex 0.0 47.694384598028655 3.402709403778946
    vertex 0.0 47.982008116035125 3.1820081160351332
  endloop
endfacet
facet normal -0.0 -0.6087614290087138 -0.7933533402912404
  outer loop
    vertex 0.0 47.694384598028655 3.402709403778946
    vertex 1.7999999999999998 47.982008116035125 3.1820081160351332
    vertex 1.7999999999999998 47.694384598028655 3.402709403778946
  endloop
endfacet
facet normal -0.0 -0.7933533402912419 -0.6087614290087118
  outer loop
    vertex 1.7999999999999998 47.982008116035125 3.1820081160351332
    vertex 0.0 48.20270940377893 2.894384598028669
    vertex 1.7999999999999998 48.20270940377893 2.894384598028669
  endloop
endfacet
facet normal -0.0 -0.7933533402912419 -0.6087614290087118
  outer loop
    vertex 0.0 48.20270940377893 2.894384598028669
    vertex 1.7999999999999998 47.982008116035125 3.1820081160351332
    vertex 0.0 47.982008116035125 3.1820081160351332
  endloop
endfacet
facet normal -0.0 -0.9238795325112846 -0.38268343236509494
  outer loop
    vertex 1.7999999999999998 48.20270940377893 2.894384598028669
    vertex 0.0 48.34144803322648 2.559439917191356
    vertex 1.7999999999999998 48.34144803322648 2.559439917191356
  endloop
endfacet
facet normal -0.0 -0.9238795325112846 -0.38268343236509494
  outer loop
    vertex 0.0 48.34144803322648 2.559439917191356
    vertex 1.7999999999999998 48.20270940377893 2.894384598028669
    vertex 0.0 48.20270940377893 2.894384598028669
  endloop
endfacet
facet normal -0.0 -0.9914448613738102 -0.13052619222005485
  outer loop
    vertex 1.7999999999999998 48.34144803322648 2.559439917191356
    vertex 0.0 48.38876919605733 2.200000000000001
    vertex 1.7999999999999998 48.38876919605733 2.200000000000001
  endloop
endfacet
facet normal -0.0 -0.9914448613738102 -0.13052619222005485
  outer loop
    vertex 0.0 48.38876919605733 2.200000000000001
    vertex 1.7999999999999998 48.34144803322648 2.559439917191356
    vertex 0.0 48.34144803322648 2.559439917191356
  endloop
endfacet
facet normal -1.0 0.0 0.0
  outer loop
    vertex 1.7999999999999998 1.6585519667735125 2.559439917191356
    vertex 1.7999999999999998 1.6124786710474024 1.7999999999999996
    vertex 1.7999999999999998 1.6112308039426635 2.200000000000001
  endloop
endfacet
facet normal -1.0 0.0 0.0
  outer loop
    vertex 1.7999999999999998 1.6124786710474024 1.7999999999999996
    vertex 1.7999999999999998 1.6585519667735125 2.559439917191356
    vertex 1.7999999999999996 3.4125030017003244 1.7999999999999996
  endloop
endfacet
facet normal -1.0 0.0 0.0
  outer loop
    vertex 1.7999999999999996 3.4125030017003244 1.7999999999999996
    vertex 1.7999999999999998 1.6585519667735125 2.559439917191356
    vertex 1.7999999999999998 1.7972905962210552 2.894384598028669
  endloop
endfacet
facet normal -1.0 0.0 0.0
  outer loop
    vertex 1.7999999999999996 3.4125030017003244 1.7999999999999996
    vertex 1.7999999999999998 1.7972905962210552 2.894384598028669
    vertex 1.7999999999999998 2.0179918839648674 3.1820081160351332
  endloop
endfacet
facet normal -1.0 0.0 0.0
  outer loop
    vertex 1.7999999999999996 3.4125030017003244 1.7999999999999996
    vertex 1.7999999999999998 2.0179918839648674 3.1820081160351332
    vertex 1.7999999999999998 2.305615401971332 3.402709403778946
  endloop
endfacet
facet normal -1.0 0.0 0.0
  outer loop
    vertex 1.7999999999999996 3.4125030017003244 1.7999999999999996
    vertex 1.7999999999999998 2.305615401971332 3.402709403778946
    vertex 1.7999999999999998 2.640560082808645 3.5414480332264886
  endloop
endfacet
facet normal -1.0 0.0 0.0
  outer loop
    vertex 1.7999999999999996 3.4125030017003244 1.7999999999999996
    vertex 1.7999999999999998 2.640560082808645 3.5414480332264886
    vertex 1.7999999999999998 3.0 3.588769196057337
  endloop
endfacet
facet normal -1.0 0.0 0.0
  outer loop
    vertex 1.7999999999999996 3.4125030017003244 1.7999999999999996
    vertex 1.7999999999999998 3.0 3.588769196057337
    vertex 1.7999999999999998 22.799999999999994 3.600000000000003
  endloop
endfacet
facet normal -1.0 0.0 0.0
  outer loop
    vertex 1.7999999999999996 3.4125030017003244 1.7999999999999996
    vertex 1.7999999999999998 22.799999999999994 3.600000000000003
    vertex 1.7999999999999998 22.4 1.7999999999999998
  endloop
endfacet
facet normal -1.0 0.0 0.0
  outer loop
    vertex 1.7999999999999998 22.4 1.7999999999999998
    vertex 1.7999999999999998 22.799999999999994 3.600000000000003
    vertex 1.7999999999999998 24.2 1.7999999999999998
  endloop
endfacet
facet normal -1.0 0.0 0.0
  outer loop
    vertex 1.7999999999999998 24.2 1.7999999999999998
    vertex 1.7999999999999998 22.799999999999994 3.600000000000003
    vertex 1.7999999999999998 23.162346663143527 3.552296156804699
  endloop
endfacet
facet normal -1.0 0.0 0.0
  outer loop
    vertex 1.7999999999999998 24.2 1.7999999999999998
    vertex 1.7999999999999998 23.162346663143527 3.552296156804699
    vertex 1.7999999999999998 23.499999999999996 3.4124355652982175
  endloop
endfacet
facet normal -1.0 0.0 0.0
  outer loop
    vertex 1.7999999999999998 24.2 1.7999999999999998
    vertex 1.7999999999999998 23.499999999999996 3.4124355652982175
    vertex 1.7999999999999998 23.789949493661165 3.1899494936611696
  endloop
endfacet
facet normal -1.0 0.0 0.0
  outer loop
    vertex 1.7999999999999998 24.2 1.7999999999999998
    vertex 1.7999999999999998 23.789949493661165 3.1899494936611696
    vertex 1.7999999999999998 24.01243556529821 2.900000000000002
  endloop
endfacet
facet normal -1.0 0.0 0.0
  outer loop
    vertex 1.7999999999999998 24.2 1.7999999999999998
    vertex 1.7999999999999998 24.01243556529821 2.900000000000002
    vertex 1.7999999999999998 24.15229615680469 2.56234666314353
  endloop
endfacet
facet normal -1.0 0.0 0.0
  outer loop
    vertex 1.7999999999999998 24.2 1.7999999999999998
    vertex 1.7999999999999998 24.15229615680469 2.56234666314353
    vertex 1.7999999999999998 24.2 2.2000000000000006
  endloop
endfacet
facet normal -0.00017405086209378964 0.999999872854396 0.00047328373039392445
  outer loop
    vertex 0.0 1.6112308039426635 2.200000000000001
    vertex 0.3999999999999999 1.6124786710474024 0.0
    vertex 0.0 1.6124786710474024 -3.524958103184872e-16
  endloop
endfacet
facet normal -0.00017405086209378964 0.999999872854396 0.00047328373039392445
  outer loop
    vertex 0.3999999999999999 1.6124786710474024 0.0
    vertex 0.0 1.6112308039426635 2.200000000000001
    vertex 0.39999999999999997 1.6124786710474024 0.39999999999999997
  endloop
endfacet
facet normal -0.00017405086209378964 0.999999872854396 0.00047328373039392445
  outer loop
    vertex 0.39999999999999997 1.6124786710474024 0.39999999999999997
    vertex 0.0 1.6112308039426635 2.200000000000001
    vertex 0.7999999999999999 1.6124786710474024 0.39999999999999997
  endloop
endfacet
facet normal -0.00017405086209378964 0.999999872854396 0.00047328373039392445
  outer loop
    vertex 0.7999999999999999 1.6124786710474024 0.39999999999999997
    vertex 0.0 1.6112308039426635 2.200000000000001
    vertex 1.7999999999999998 1.6124786710474024 1.7999999999999996
  endloop
endfacet
facet normal -0.00017405086209378964 0.999999872854396 0.00047328373039392445
  outer loop
    vertex 1.7999999999999998 1.6124786710474024 1.7999999999999996
    vertex 0.0 1.6112308039426635 2.200000000000001
    vertex 1.7999999999999998 1.6112308039426635 2.200000000000001
  endloop
endfacet
facet normal -0.00017405086209378964 0.999999872854396 0.00047328373039392445
  outer loop
    vertex 0.7999999999999999 1.6124786710474024 0.0
    vertex 1.7999999999999998 1.6124786710474024 1.7999999999999996
    vertex 1.7999999999999998 1.6124786710474024 -3.524958103184872e-16
  endloop
endfacet
facet normal -0.00017405086209378964 0.999999872854396 0.00047328373039392445
  outer loop
    vertex 1.7999999999999998 1.6124786710474024 1.7999999999999996
    vertex 0.7999999999999999 1.6124786710474024 0.0
    vertex 0.7999999999999999 1.6124786710474024 0.39999999999999997
  endloop
endfacet
facet normal -0.0 0.9914448613738104 -0.13052619222005196
  outer loop
    vertex 0.0 1.6585519667735125 2.559439917191356
    vertex 1.7999999999999998 1.6112308039426635 2.200000000000001
    vertex 0.0 1.6112308039426635 2.200000000000001
  endloop
endfacet
facet normal -0.0 0.9914448613738104 -0.13052619222005196
  outer loop
    vertex 1.7999999999999998 1.6112308039426635 2.200000000000001
    vertex 0.0 1.6585519667735125 2.559439917191356
    vertex 1.7999999999999998 1.6585519667735125 2.559439917191356
  endloop
endfacet
facet normal -0.0 0.9238795325112867 -0.38268343236508995
  outer loop
    vertex 0.0 1.7972905962210552 2.894384598028669
    vertex 1.7999999999999998 1.6585519667735125 2.559439917191356
    vertex 0.0 1.6585519667735125 2.559439917191356
  endloop
endfacet
facet normal -0.0 0.9238795325112867 -0.38268343236508995
  outer loop
    vertex 1.7999999999999998 1.6585519667735125 2.559439917191356
    vertex 0.0 1.7972905962210552 2.894384598028669
    vertex 1.7999999999999998 1.7972905962210552 2.894384598028669
  endloop
endfacet
facet normal -0.0 0.7933533402912354 -0.6087614290087203
  outer loop
    vertex 0.0 2.0179918839648674 3.1820081160351332
    vertex 1.7999999999999998 1.7972905962210552 2.894384598028669
    vertex 0.0 1.7972905962210552 2.894384598028669
  endloop
endfacet
facet normal -0.0 0.7933533402912354 -0.6087614290087203
  outer loop
    vertex 1.7999999999999998 1.7972905962210552 2.894384598028669
    vertex 0.0 2.0179918839648674 3.1820081160351332
    vertex 1.7999999999999998 2.0179918839648674 3.1820081160351332
  endloop
endfacet
facet normal -0.0 0.6087614290087203 -0.7933533402912354
  outer loop
    vertex 1.7999999999999998 2.305615401971332 3.402709403778946
    vertex 0.0 2.0179918839648674 3.1820081160351332
    vertex 0.0 2.305615401971332 3.402709403778946
  endloop
endfacet
facet normal -0.0 0.6087614290087203 -0.7933533402912354
  outer loop
    vertex 0.0 2.0179918839648674 3.1820081160351332
    vertex 1.7999999999999998 2.305615401971332 3.402709403778946
    vertex 1.7999999999999998 2.0179918839648674 3.1820081160351332
  endloop
endfacet
facet normal -0.0 0.38268343236508995 -0.9238795325112867
  outer loop
    vertex 1.7999999999999998 2.640560082808645 3.5414480332264886
    vertex 0.0 2.305615401971332 3.402709403778946
    vertex 0.0 2.640560082808645 3.5414480332264886
  endloop
endfacet
facet normal -0.0 0.38268343236508995 -0.9238795325112867
  outer loop
    vertex 0.0 2.305615401971332 3.402709403778946
    vertex 1.7999999999999998 2.640560082808645 3.5414480332264886
    vertex 1.7999999999999998 2.305615401971332 3.402709403778946
  endloop
endfacet
facet normal -0.0 0.13052619222005102 -0.9914448613738106
  outer loop
    vertex 1.7999999999999998 3.0 3.588769196057337
    vertex 0.0 2.640560082808645 3.5414480332264886
    vertex 0.0 3.0 3.588769196057337
  endloop
endfacet
facet normal -0.0 0.13052619222005102 -0.9914448613738106
  outer loop
    vertex 0.0 2.640560082808645 3.5414480332264886
    vertex 1.7999999999999998 3.0 3.588769196057337
    vertex 1.7999999999999998 2.640560082808645 3.5414480332264886
  endloop
endfacet
facet normal -0.0 0.0005672122290921387 -0.9999998391351308
  outer loop
    vertex 1.7999999999999998 22.799999999999994 3.600000000000003
    vertex 0.0 3.0 3.588769196057337
    vertex 0.0 22.799999999999994 3.600000000000003
  endloop
endfacet
facet normal -0.0 0.0005672122290921387 -0.9999998391351308
  outer loop
    vertex 0.0 3.0 3.588769196057337
    vertex 1.7999999999999998 22.799999999999994 3.600000000000003
    vertex 1.7999999999999998 3.0 3.588769196057337
  endloop
endfacet
facet normal -0.0 -0.1305261922200504 -0.9914448613738107
  outer loop
    vertex 1.7999999999999998 23.162346663143527 3.552296156804699
    vertex 0.0 22.799999999999994 3.600000000000003
    vertex 0.0 23.162346663143527 3.552296156804699
  endloop
endfacet
facet normal -0.0 -0.1305261922200504 -0.9914448613738107
  outer loop
    vertex 0.0 22.799999999999994 3.600000000000003
    vertex 1.7999999999999998 23.162346663143527 3.552296156804699
    vertex 1.7999999999999998 22.799999999999994 3.600000000000003
  endloop
endfacet
facet normal -0.0 -0.38268343236509 -0.9238795325112867
  outer loop
    vertex 1.7999999999999998 23.499999999999996 3.4124355652982175
    vertex 0.0 23.162346663143527 3.552296156804699
    vertex 0.0 23.499999999999996 3.4124355652982175
  endloop
endfacet
facet normal -0.0 -0.38268343236509 -0.9238795325112867
  outer loop
    vertex 0.0 23.162346663143527 3.552296156804699
    vertex 1.7999999999999998 23.499999999999996 3.4124355652982175
    vertex 1.7999999999999998 23.162346663143527 3.552296156804699
  endloop
endfacet
facet normal -0.0 -0.6087614290087191 -0.7933533402912365
  outer loop
    vertex 1.7999999999999998 23.789949493661165 3.1899494936611696
    vertex 0.0 23.499999999999996 3.4124355652982175
    vertex 0.0 23.789949493661165 3.1899494936611696
  endloop
endfacet
facet normal -0.0 -0.6087614290087191 -0.7933533402912365
  outer loop
    vertex 0.0 23.499999999999996 3.4124355652982175
    vertex 1.7999999999999998 23.789949493661165 3.1899494936611696
    vertex 1.7999999999999998 23.499999999999996 3.4124355652982175
  endloop
endfacet
facet normal -0.0 -0.7933533402912379 -0.6087614290087171
  outer loop
    vertex 1.7999999999999998 23.789949493661165 3.1899494936611696
    vertex 0.0 24.01243556529821 2.900000000000002
    vertex 1.7999999999999998 24.01243556529821 2.900000000000002
  endloop
endfacet
facet normal -0.0 -0.7933533402912379 -0.6087614290087171
  outer loop
    vertex 0.0 24.01243556529821 2.900000000000002
    vertex 1.7999999999999998 23.789949493661165 3.1899494936611696
    vertex 0.0 23.789949493661165 3.1899494936611696
  endloop
endfacet
facet normal -0.0 -0.9238795325112872 -0.382683432365089
  outer loop
    vertex 1.7999999999999998 24.01243556529821 2.900000000000002
    vertex 0.0 24.15229615680469 2.56234666314353
    vertex 1.7999999999999998 24.15229615680469 2.56234666314353
  endloop
endfacet
facet normal -0.0 -0.9238795325112872 -0.382683432365089
  outer loop
    vertex 0.0 24.15229615680469 2.56234666314353
    vertex 1.7999999999999998 24.01243556529821 2.900000000000002
    vertex 0.0 24.01243556529821 2.900000000000002
  endloop
endfacet
facet normal -0.0 -0.99144486137381 -0.13052619222005454
  outer loop
    vertex 1.7999999999999998 24.15229615680469 2.56234666314353
    vertex 0.0 24.2 2.2000000000000006
    vertex 1.7999999999999998 24.2 2.2000000000000006
  endloop
endfacet
facet normal -0.0 -0.99144486137381 -0.13052619222005454
  outer loop
    vertex 0.0 24.2 2.2000000000000006
    vertex 1.7999999999999998 24.15229615680469 2.56234666314353
    vertex 0.0 24.15229615680469 2.56234666314353
  endloop
endfacet
facet normal -0.0 -1.0 -0.0
  outer loop
    vertex 1.7999999999999998 24.2 1.7999999999999998
    vertex 0.8000000000000002 24.2 0.0
    vertex 1.7999999999999998 24.2 0.0
  endloop
endfacet
facet normal -0.0 -1.0 -0.0
  outer loop
    vertex 0.8000000000000002 24.2 0.0
    vertex 1.7999999999999998 24.2 1.7999999999999998
    vertex 0.7999999999999999 24.2 0.39999999999999997
  endloop
endfacet
facet normal -0.0 -1.0 -0.0
  outer loop
    vertex 0.7999999999999999 24.2 0.39999999999999997
    vertex 1.7999999999999998 24.2 1.7999999999999998
    vertex 0.39999999999999997 24.2 0.39999999999999997
  endloop
endfacet
facet normal -0.0 -1.0 -0.0
  outer loop
    vertex 0.39999999999999997 24.2 0.39999999999999997
    vertex 0.0 24.2 0.0
    vertex 0.4000000000000001 24.2 0.0
  endloop
endfacet
facet normal -0.0 -1.0 -0.0
  outer loop
    vertex 0.0 24.2 0.0
    vertex 0.39999999999999997 24.2 0.39999999999999997
    vertex 0.0 24.2 2.2000000000000006
  endloop
endfacet
facet normal -0.0 -1.0 -0.0
  outer loop
    vertex 0.0 24.2 2.2000000000000006
    vertex 0.39999999999999997 24.2 0.39999999999999997
    vertex 1.7999999999999998 24.2 1.7999999999999998
  endloop
endfacet
facet normal -0.0 -1.0 -0.0
  outer loop
    vertex 0.0 24.2 2.2000000000000006
    vertex 1.7999999999999998 24.2 1.7999999999999998
    vertex 1.7999999999999998 24.2 2.2000000000000006
  endloop
endfacet
facet normal 1.0 0.0 0.0
  outer loop
    vertex 4.200000000000001 3.4000243306529225 1.7999999999999998
    vertex 4.200000000000001 1.6000000000000003 2.200000000000001
    vertex 4.200000000000001 1.6000000000000003 1.7999999999999998
  endloop
endfacet
facet normal 1.0 0.0 0.0
  outer loop
    vertex 4.200000000000001 1.6000000000000003 2.200000000000001
    vertex 4.200000000000001 3.4000243306529225 1.7999999999999998
    vertex 4.200000000000001 1.6477038431953048 2.56234666314353
  endloop
endfacet
facet normal 1.0 0.0 0.0
  outer loop
    vertex 4.200000000000001 1.6477038431953048 2.56234666314353
    vertex 4.200000000000001 3.4000243306529225 1.7999999999999998
    vertex 4.200000000000001 1.7875644347017863 2.900000000000001
  endloop
endfacet
facet normal 1.0 0.0 0.0
  outer loop
    vertex 4.200000000000001 1.7875644347017863 2.900000000000001
    vertex 4.200000000000001 3.4000243306529225 1.7999999999999998
    vertex 4.200000000000001 2.010050506338833 3.189949493661167
  endloop
endfacet
facet normal 1.0 0.0 0.0
  outer loop
    vertex 4.200000000000001 2.010050506338833 3.189949493661167
    vertex 4.200000000000001 3.4000243306529225 1.7999999999999998
    vertex 4.200000000000001 2.3000000000000003 3.412435565298215
  endloop
endfacet
facet normal 1.0 0.0 0.0
  outer loop
    vertex 4.200000000000001 2.3000000000000003 3.412435565298215
    vertex 4.200000000000001 3.4000243306529225 1.7999999999999998
    vertex 4.200000000000001 2.637653336856471 3.5522961568046965
  endloop
endfacet
facet normal 1.0 0.0 0.0
  outer loop
    vertex 4.200000000000001 2.637653336856471 3.5522961568046965
    vertex 4.200000000000001 3.4000243306529225 1.7999999999999998
    vertex 4.200000000000001 3.0 3.6000000000000005
  endloop
endfacet
facet normal 1.0 0.0 0.0
  outer loop
    vertex 4.200000000000001 3.0 3.6000000000000005
    vertex 4.200000000000001 3.4000243306529225 1.7999999999999998
    vertex 4.200000000000001 22.799999999999997 3.6000000000000005
  endloop
endfacet
facet normal 1.0 0.0 0.0
  outer loop
    vertex 4.200000000000001 22.799999999999997 3.6000000000000005
    vertex 4.200000000000001 3.4000243306529225 1.7999999999999998
    vertex 4.200000000000001 22.399999999999995 1.7999999999999998
  endloop
endfacet
facet normal 1.0 0.0 0.0
  outer loop
    vertex 4.200000000000001 22.799999999999997 3.6000000000000005
    vertex 4.200000000000001 22.399999999999995 1.7999999999999998
    vertex 4.200000000000001 24.2 1.7999999999999998
  endloop
endfacet
facet normal 1.0 0.0 0.0
  outer loop
    vertex 4.200000000000001 22.799999999999997 3.6000000000000005
    vertex 4.200000000000001 24.2 1.7999999999999998
    vertex 4.200000000000001 23.162346663143527 3.5522961568046965
  endloop
endfacet
facet normal 1.0 0.0 0.0
  outer loop
    vertex 4.200000000000001 23.162346663143527 3.5522961568046965
    vertex 4.200000000000001 24.2 1.7999999999999998
    vertex 4.200000000000001 23.499999999999996 3.412435565298215
  endloop
endfacet
facet normal 1.0 0.0 0.0
  outer loop
    vertex 4.200000000000001 23.499999999999996 3.412435565298215
    vertex 4.200000000000001 24.2 1.7999999999999998
    vertex 4.200000000000001 23.789949493661165 3.189949493661167
  endloop
endfacet
facet normal 1.0 0.0 0.0
  outer loop
    vertex 4.200000000000001 23.789949493661165 3.189949493661167
    vertex 4.200000000000001 24.2 1.7999999999999998
    vertex 4.200000000000001 24.01243556529821 2.9000000000000004
  endloop
endfacet
facet normal 1.0 0.0 0.0
  outer loop
    vertex 4.200000000000001 24.01243556529821 2.9000000000000004
    vertex 4.200000000000001 24.2 1.7999999999999998
    vertex 4.200000000000001 24.15229615680469 2.5623466631435297
  endloop
endfacet
facet normal 1.0 0.0 0.0
  outer loop
    vertex 4.200000000000001 24.15229615680469 2.5623466631435297
    vertex 4.200000000000001 24.2 1.7999999999999998
    vertex 4.200000000000001 24.2 2.2000000000000006
  endloop
endfacet
facet normal -0.0 -1.0 0.0
  outer loop
    vertex 6.0 24.2 2.2000000000000006
    vertex 5.6000000000000005 24.2 0.0
    vertex 6.0 24.2 0.0
  endloop
endfacet
facet normal -0.0 -1.0 0.0
  outer loop
    vertex 5.6000000000000005 24.2 0.0
    vertex 6.0 24.2 2.2000000000000006
    vertex 5.6000000000000005 24.2 0.39999999999999997
  endloop
endfacet
facet normal -0.0 -1.0 0.0
  outer loop
    vertex 5.6000000000000005 24.2 0.39999999999999997
    vertex 6.0 24.2 2.2000000000000006
    vertex 5.2 24.2 0.39999999999999997
  endloop
endfacet
facet normal -0.0 -1.0 0.0
  outer loop
    vertex 5.2 24.2 0.39999999999999997
    vertex 6.0 24.2 2.2000000000000006
    vertex 4.200000000000001 24.2 1.7999999999999998
  endloop
endfacet
facet normal -0.0 -1.0 0.0
  outer loop
    vertex 4.200000000000001 24.2 1.7999999999999998
    vertex 6.0 24.2 2.2000000000000006
    vertex 4.200000000000001 24.2 2.2000000000000006
  endloop
endfacet
facet normal -0.0 -1.0 0.0
  outer loop
    vertex 5.2 24.2 0.39999999999999997
    vertex 4.200000000000001 24.2 0.0
    vertex 5.2 24.2 0.0
  endloop
endfacet
facet normal -0.0 -1.0 0.0
  outer loop
    vertex 4.200000000000001 24.2 0.0
    vertex 5.2 24.2 0.39999999999999997
    vertex 4.200000000000001 24.2 1.7999999999999998
  endloop
endfacet
facet normal -0.0 -0.9914448613738102 -0.13052619222005482
  outer loop
    vertex 6.0 24.15229615680469 2.5623466631435297
    vertex 4.200000000000001 24.2 2.2000000000000006
    vertex 6.0 24.2 2.2000000000000006
  endloop
endfacet
facet normal -0.0 -0.9914448613738102 -0.13052619222005482
  outer loop
    vertex 4.200000000000001 24.2 2.2000000000000006
    vertex 6.0 24.15229615680469 2.5623466631435297
    vertex 4.200000000000001 24.15229615680469 2.5623466631435297
  endloop
endfacet
facet normal -0.0 -0.9238795325112867 -0.38268343236509
  outer loop
    vertex 6.0 24.01243556529821 2.9000000000000004
    vertex 4.200000000000001 24.15229615680469 2.5623466631435297
    vertex 6.0 24.15229615680469 2.5623466631435297
  endloop
endfacet
facet normal -0.0 -0.9238795325112867 -0.38268343236509
  outer loop
    vertex 4.200000000000001 24.15229615680469 2.5623466631435297
    vertex 6.0 24.01243556529821 2.9000000000000004
    vertex 4.200000000000001 24.01243556529821 2.9000000000000004
  endloop
endfacet
facet normal -0.0 -0.7933533402912368 -0.6087614290087185
  outer loop
    vertex 6.0 23.789949493661165 3.189949493661167
    vertex 4.200000000000001 24.01243556529821 2.9000000000000004
    vertex 6.0 24.01243556529821 2.9000000000000004
  endloop
endfacet
facet normal -0.0 -0.7933533402912368 -0.6087614290087185
  outer loop
    vertex 4.200000000000001 24.01243556529821 2.9000000000000004
    vertex 6.0 23.789949493661165 3.189949493661167
    vertex 4.200000000000001 23.789949493661165 3.189949493661167
  endloop
endfacet
facet normal -0.0 -0.6087614290087191 -0.7933533402912365
  outer loop
    vertex 6.0 23.789949493661165 3.189949493661167
    vertex 4.200000000000001 23.499999999999996 3.412435565298215
    vertex 4.200000000000001 23.789949493661165 3.189949493661167
  endloop
endfacet
facet normal -0.0 -0.6087614290087191 -0.7933533402912365
  outer loop
    vertex 4.200000000000001 23.499999999999996 3.412435565298215
    vertex 6.0 23.789949493661165 3.189949493661167
    vertex 6.0 23.499999999999996 3.412435565298215
  endloop
endfacet
facet normal -0.0 -0.38268343236509 -0.9238795325112867
  outer loop
    vertex 6.0 23.499999999999996 3.412435565298215
    vertex 4.200000000000001 23.162346663143527 3.5522961568046965
    vertex 4.200000000000001 23.499999999999996 3.412435565298215
  endloop
endfacet
facet normal -0.0 -0.38268343236509 -0.9238795325112867
  outer loop
    vertex 4.200000000000001 23.162346663143527 3.5522961568046965
    vertex 6.0 23.499999999999996 3.412435565298215
    vertex 6.0 23.162346663143527 3.5522961568046965
  endloop
endfacet
facet normal -0.0 -0.13052619222005138 -0.9914448613738105
  outer loop
    vertex 6.0 23.162346663143527 3.5522961568046965
    vertex 4.200000000000001 22.799999999999997 3.6000000000000005
    vertex 4.200000000000001 23.162346663143527 3.5522961568046965
  endloop
endfacet
facet normal -0.0 -0.13052619222005138 -0.9914448613738105
  outer loop
    vertex 4.200000000000001 22.799999999999997 3.6000000000000005
    vertex 6.0 23.162346663143527 3.5522961568046965
    vertex 6.0 22.799999999999997 3.6000000000000005
  endloop
endfacet
facet normal -0.0 -0.0 -1.0
  outer loop
    vertex 6.0 22.799999999999997 3.6000000000000005
    vertex 4.200000000000001 3.0 3.6000000000000005
    vertex 4.200000000000001 22.799999999999997 3.6000000000000005
  endloop
endfacet
facet normal -0.0 -0.0 -1.0
  outer loop
    vertex 4.200000000000001 3.0 3.6000000000000005
    vertex 6.0 22.799999999999997 3.6000000000000005
    vertex 6.0 3.0 3.6000000000000005
  endloop
endfacet
facet normal -0.0 0.13052619222005102 -0.9914448613738106
  outer loop
    vertex 6.0 3.0 3.6000000000000005
    vertex 4.200000000000001 2.637653336856471 3.5522961568046965
    vertex 4.200000000000001 3.0 3.6000000000000005
  endloop
endfacet
facet normal -0.0 0.13052619222005102 -0.9914448613738106
  outer loop
    vertex 4.200000000000001 2.637653336856471 3.5522961568046965
    vertex 6.0 3.0 3.6000000000000005
    vertex 6.0 2.637653336856471 3.5522961568046965
  endloop
endfacet
facet normal -0.0 0.38268343236509 -0.9238795325112867
  outer loop
    vertex 6.0 2.637653336856471 3.5522961568046965
    vertex 4.200000000000001 2.3000000000000003 3.412435565298215
    vertex 4.200000000000001 2.637653336856471 3.5522961568046965
  endloop
endfacet
facet normal -0.0 0.38268343236509 -0.9238795325112867
  outer loop
    vertex 4.200000000000001 2.3000000000000003 3.412435565298215
    vertex 6.0 2.637653336856471 3.5522961568046965
    vertex 6.0 2.3000000000000003 3.412435565298215
  endloop
endfacet
facet normal -0.0 0.6087614290087205 -0.7933533402912354
  outer loop
    vertex 6.0 2.3000000000000003 3.412435565298215
    vertex 4.200000000000001 2.010050506338833 3.189949493661167
    vertex 4.200000000000001 2.3000000000000003 3.412435565298215
  endloop
endfacet
facet normal -0.0 0.6087614290087205 -0.7933533402912354
  outer loop
    vertex 4.200000000000001 2.010050506338833 3.189949493661167
    vertex 6.0 2.3000000000000003 3.412435565298215
    vertex 6.0 2.010050506338833 3.189949493661167
  endloop
endfacet
facet normal -0.0 0.7933533402912355 -0.6087614290087202
  outer loop
    vertex 4.200000000000001 2.010050506338833 3.189949493661167
    vertex 6.0 1.7875644347017863 2.900000000000001
    vertex 4.200000000000001 1.7875644347017863 2.900000000000001
  endloop
endfacet
facet normal -0.0 0.7933533402912355 -0.6087614290087202
  outer loop
    vertex 6.0 1.7875644347017863 2.900000000000001
    vertex 4.200000000000001 2.010050506338833 3.189949493661167
    vertex 6.0 2.010050506338833 3.189949493661167
  endloop
endfacet
facet normal -0.0 0.9238795325112867 -0.38268343236509
  outer loop
    vertex 4.200000000000001 1.7875644347017863 2.900000000000001
    vertex 6.0 1.6477038431953048 2.56234666314353
    vertex 4.200000000000001 1.6477038431953048 2.56234666314353
  endloop
endfacet
facet normal -0.0 0.9238795325112867 -0.38268343236509
  outer loop
    vertex 6.0 1.6477038431953048 2.56234666314353
    vertex 4.200000000000001 1.7875644347017863 2.900000000000001
    vertex 6.0 1.7875644347017863 2.900000000000001
  endloop
endfacet
facet normal -0.0 0.9914448613738104 -0.13052619222005196
  outer loop
    vertex 4.200000000000001 1.6477038431953048 2.56234666314353
    vertex 6.0 1.6000000000000003 2.200000000000001
    vertex 4.200000000000001 1.6000000000000003 2.200000000000001
  endloop
endfacet
facet normal -0.0 0.9914448613738104 -0.13052619222005196
  outer loop
    vertex 6.0 1.6000000000000003 2.200000000000001
    vertex 4.200000000000001 1.6477038431953048 2.56234666314353
    vertex 6.0 1.6477038431953048 2.56234666314353
  endloop
endfacet
facet normal -0.0 1.0 -0.0
  outer loop
    vertex 4.200000000000001 1.6000000000000003 1.7999999999999998
    vertex 5.2 1.6000000000000003 0.0
    vertex 4.200000000000001 1.6000000000000003 0.0
  endloop
endfacet
facet normal -0.0 1.0 -0.0
  outer loop
    vertex 5.2 1.6000000000000003 0.0
    vertex 4.200000000000001 1.6000000000000003 1.7999999999999998
    vertex 5.2 1.6000000000000003 0.39999999999999997
  endloop
endfacet
facet normal -0.0 1.0 -0.0
  outer loop
    vertex 5.2 1.6000000000000003 0.39999999999999997
    vertex 4.200000000000001 1.6000000000000003 1.7999999999999998
    vertex 5.6000000000000005 1.6000000000000003 0.39999999999999997
  endloop
endfacet
facet normal -0.0 1.0 -0.0
  outer loop
    vertex 5.6000000000000005 1.6000000000000003 0.39999999999999997
    vertex 6.0 1.6000000000000003 0.0
    vertex 5.6000000000000005 1.6000000000000003 0.0
  endloop
endfacet
facet normal -0.0 1.0 -0.0
  outer loop
    vertex 6.0 1.6000000000000003 0.0
    vertex 5.6000000000000005 1.6000000000000003 0.39999999999999997
    vertex 6.0 1.6000000000000003 2.200000000000001
  endloop
endfacet
facet normal -0.0 1.0 -0.0
  outer loop
    vertex 6.0 1.6000000000000003 2.200000000000001
    vertex 5.6000000000000005 1.6000000000000003 0.39999999999999997
    vertex 4.200000000000001 1.6000000000000003 1.7999999999999998
  endloop
endfacet
facet normal -0.0 1.0 -0.0
  outer loop
    vertex 6.0 1.6000000000000003 2.200000000000001
    vertex 4.200000000000001 1.6000000000000003 1.7999999999999998
    vertex 4.200000000000001 1.6000000000000003 2.200000000000001
  endloop
endfacet
facet normal 1.0 0.0 0.0
  outer loop
    vertex 4.200000000000001 27.6 1.7999999999999996
    vertex 4.200000000000001 25.799999999999997 2.2000000000000006
    vertex 4.200000000000001 25.799999999999997 1.7999999999999998
  endloop
endfacet
facet normal 1.0 0.0 0.0
  outer loop
    vertex 4.200000000000001 25.799999999999997 2.2000000000000006
    vertex 4.200000000000001 27.6 1.7999999999999996
    vertex 4.200000000000001 25.847703843195298 2.5623466631435297
  endloop
endfacet
facet normal 1.0 0.0 0.0
  outer loop
    vertex 4.200000000000001 25.847703843195298 2.5623466631435297
    vertex 4.200000000000001 27.6 1.7999999999999996
    vertex 4.200000000000001 25.987564434701778 2.9000000000000004
  endloop
endfacet
facet normal 1.0 0.0 0.0
  outer loop
    vertex 4.200000000000001 25.987564434701778 2.9000000000000004
    vertex 4.200000000000001 27.6 1.7999999999999996
    vertex 4.200000000000001 26.210050506338828 3.189949493661167
  endloop
endfacet
facet normal 1.0 0.0 0.0
  outer loop
    vertex 4.200000000000001 26.210050506338828 3.189949493661167
    vertex 4.200000000000001 27.6 1.7999999999999996
    vertex 4.200000000000001 26.499999999999996 3.412435565298215
  endloop
endfacet
facet normal 1.0 0.0 0.0
  outer loop
    vertex 4.200000000000001 26.499999999999996 3.412435565298215
    vertex 4.200000000000001 27.6 1.7999999999999996
    vertex 4.200000000000001 26.837653336856466 3.5522961568046965
  endloop
endfacet
facet normal 1.0 0.0 0.0
  outer loop
    vertex 4.200000000000001 26.837653336856466 3.5522961568046965
    vertex 4.200000000000001 27.6 1.7999999999999996
    vertex 4.200000000000001 27.199999999999996 3.6000000000000005
  endloop
endfacet
facet normal 1.0 0.0 0.0
  outer loop
    vertex 4.200000000000001 27.199999999999996 3.6000000000000005
    vertex 4.200000000000001 27.6 1.7999999999999996
    vertex 4.200000000000001 47.0 3.5999999999999983
  endloop
endfacet
facet normal 1.0 0.0 0.0
  outer loop
    vertex 4.200000000000001 47.0 3.5999999999999983
    vertex 4.200000000000001 27.6 1.7999999999999996
    vertex 4.200000000000001 46.599999999999994 1.7999999999999996
  endloop
endfacet
facet normal 1.0 0.0 0.0
  outer loop
    vertex 4.200000000000001 47.0 3.5999999999999983
    vertex 4.200000000000001 46.599999999999994 1.7999999999999996
    vertex 4.200000000000001 48.4 1.7999999999999998
  endloop
endfacet
facet normal 1.0 0.0 0.0
  outer loop
    vertex 4.200000000000001 47.0 3.5999999999999983
    vertex 4.200000000000001 48.4 1.7999999999999998
    vertex 4.200000000000001 47.362346663143526 3.5522961568046934
  endloop
endfacet
facet normal 1.0 0.0 0.0
  outer loop
    vertex 4.200000000000001 47.362346663143526 3.5522961568046934
    vertex 4.200000000000001 48.4 1.7999999999999998
    vertex 4.200000000000001 47.699999999999996 3.4124355652982126
  endloop
endfacet
facet normal 1.0 0.0 0.0
  outer loop
    vertex 4.200000000000001 47.699999999999996 3.4124355652982126
    vertex 4.200000000000001 48.4 1.7999999999999998
    vertex 4.200000000000001 47.989949493661165 3.1899494936611656
  endloop
endfacet
facet normal 1.0 0.0 0.0
  outer loop
    vertex 4.200000000000001 47.989949493661165 3.1899494936611656
    vertex 4.200000000000001 48.4 1.7999999999999998
    vertex 4.200000000000001 48.21243556529821 2.8999999999999995
  endloop
endfacet
facet normal 1.0 0.0 0.0
  outer loop
    vertex 4.200000000000001 48.21243556529821 2.8999999999999995
    vertex 4.200000000000001 48.4 1.7999999999999998
    vertex 4.200000000000001 48.35229615680469 2.5623466631435288
  endloop
endfacet
facet normal 1.0 0.0 0.0
  outer loop
    vertex 4.200000000000001 48.35229615680469 2.5623466631435288
    vertex 4.200000000000001 48.4 1.7999999999999998
    vertex 4.200000000000001 48.4 2.2000000000000006
  endloop
endfacet
facet normal -0.0 -0.99144486137381 -0.13052619222005507
  outer loop
    vertex 6.0 48.35229615680469 2.5623466631435288
    vertex 4.200000000000001 48.4 2.2000000000000006
    vertex 6.0 48.4 2.2000000000000006
  endloop
endfacet
facet normal -0.0 -0.99144486137381 -0.13052619222005507
  outer loop
    vertex 4.200000000000001 48.4 2.2000000000000006
    vertex 6.0 48.35229615680469 2.5623466631435288
    vertex 4.200000000000001 48.35229615680469 2.5623466631435288
  endloop
endfacet
facet normal -0.0 -0.9238795325112865 -0.38268343236509034
  outer loop
    vertex 6.0 48.21243556529821 2.8999999999999995
    vertex 4.200000000000001 48.35229615680469 2.5623466631435288
    vertex 6.0 48.35229615680469 2.5623466631435288
  endloop
endfacet
facet normal -0.0 -0.9238795325112865 -0.38268343236509034
  outer loop
    vertex 4.200000000000001 48.35229615680469 2.5623466631435288
    vertex 6.0 48.21243556529821 2.8999999999999995
    vertex 4.200000000000001 48.21243556529821 2.8999999999999995
  endloop
endfacet
facet normal -0.0 -0.7933533402912403 -0.6087614290087142
  outer loop
    vertex 6.0 47.989949493661165 3.1899494936611656
    vertex 4.200000000000001 48.21243556529821 2.8999999999999995
    vertex 6.0 48.21243556529821 2.8999999999999995
  endloop
endfacet
facet normal -0.0 -0.7933533402912403 -0.6087614290087142
  outer loop
    vertex 4.200000000000001 48.21243556529821 2.8999999999999995
    vertex 6.0 47.989949493661165 3.1899494936611656
    vertex 4.200000000000001 47.989949493661165 3.1899494936611656
  endloop
endfacet
facet normal -0.0 -0.6087614290087179 -0.7933533402912373
  outer loop
    vertex 6.0 47.989949493661165 3.1899494936611656
    vertex 4.200000000000001 47.699999999999996 3.4124355652982126
    vertex 4.200000000000001 47.989949493661165 3.1899494936611656
  endloop
endfacet
facet normal -0.0 -0.6087614290087179 -0.7933533402912373
  outer loop
    vertex 4.200000000000001 47.699999999999996 3.4124355652982126
    vertex 6.0 47.989949493661165 3.1899494936611656
    vertex 6.0 47.699999999999996 3.4124355652982126
  endloop
endfacet
facet normal -0.0 -0.38268343236509106 -0.9238795325112862
  outer loop
    vertex 6.0 47.699999999999996 3.4124355652982126
    vertex 4.200000000000001 47.362346663143526 3.5522961568046934
    vertex 4.200000000000001 47.699999999999996 3.4124355652982126
  endloop
endfacet
facet normal -0.0 -0.38268343236509106 -0.9238795325112862
  outer loop
    vertex 4.200000000000001 47.362346663143526 3.5522961568046934
    vertex 6.0 47.699999999999996 3.4124355652982126
    vertex 6.0 47.362346663143526 3.5522961568046934
  endloop
endfacet
facet normal -0.0 -0.1305261922200523 -0.9914448613738105
  outer loop
    vertex 6.0 47.362346663143526 3.5522961568046934
    vertex 4.200000000000001 47.0 3.5999999999999983
    vertex 4.200000000000001 47.362346663143526 3.5522961568046934
  endloop
endfacet
facet normal -0.0 -0.1305261922200523 -0.9914448613738105
  outer loop
    vertex 4.200000000000001 47.0 3.5999999999999983
    vertex 6.0 47.362346663143526 3.5522961568046934
    vertex 6.0 47.0 3.5999999999999983
  endloop
endfacet
facet normal -0.0 -1.0681691221772337e-16 -1.0
  outer loop
    vertex 6.0 47.0 3.5999999999999983
    vertex 4.200000000000001 27.199999999999996 3.6000000000000005
    vertex 4.200000000000001 47.0 3.5999999999999983
  endloop
endfacet
facet normal -0.0 -1.0681691221772337e-16 -1.0
  outer loop
    vertex 4.200000000000001 27.199999999999996 3.6000000000000005
    vertex 6.0 47.0 3.5999999999999983
    vertex 6.0 27.199999999999996 3.6000000000000005
  endloop
endfacet
facet normal -0.0 0.1305261922200504 -0.9914448613738107
  outer loop
    vertex 6.0 27.199999999999996 3.6000000000000005
    vertex 4.200000000000001 26.837653336856466 3.5522961568046965
    vertex 4.200000000000001 27.199999999999996 3.6000000000000005
  endloop
endfacet
facet normal -0.0 0.1305261922200504 -0.9914448613738107
  outer loop
    vertex 4.200000000000001 26.837653336856466 3.5522961568046965
    vertex 6.0 27.199999999999996 3.6000000000000005
    vertex 6.0 26.837653336856466 3.5522961568046965
  endloop
endfacet
facet normal -0.0 0.3826834323650927 -0.9238795325112856
  outer loop
    vertex 6.0 26.837653336856466 3.5522961568046965
    vertex 4.200000000000001 26.499999999999996 3.412435565298215
    vertex 4.200000000000001 26.837653336856466 3.5522961568046965
  endloop
endfacet
facet normal -0.0 0.3826834323650927 -0.9238795325112856
  outer loop
    vertex 4.200000000000001 26.499999999999996 3.412435565298215
    vertex 6.0 26.837653336856466 3.5522961568046965
    vertex 6.0 26.499999999999996 3.412435565298215
  endloop
endfacet
facet normal -0.0 0.6087614290087191 -0.7933533402912365
  outer loop
    vertex 6.0 26.499999999999996 3.412435565298215
    vertex 4.200000000000001 26.210050506338828 3.189949493661167
    vertex 4.200000000000001 26.499999999999996 3.412435565298215
  endloop
endfacet
facet normal -0.0 0.6087614290087191 -0.7933533402912365
  outer loop
    vertex 4.200000000000001 26.210050506338828 3.189949493661167
    vertex 6.0 26.499999999999996 3.412435565298215
    vertex 6.0 26.210050506338828 3.189949493661167
  endloop
endfacet
facet normal -0.0 0.7933533402912331 -0.6087614290087234
  outer loop
    vertex 4.200000000000001 26.210050506338828 3.189949493661167
    vertex 6.0 25.987564434701778 2.9000000000000004
    vertex 4.200000000000001 25.987564434701778 2.9000000000000004
  endloop
endfacet
facet normal -0.0 0.7933533402912331 -0.6087614290087234
  outer loop
    vertex 6.0 25.987564434701778 2.9000000000000004
    vertex 4.200000000000001 26.210050506338828 3.189949493661167
    vertex 6.0 26.210050506338828 3.189949493661167
  endloop
endfacet
facet normal -0.0 0.9238795325112867 -0.38268343236509
  outer loop
    vertex 4.200000000000001 25.987564434701778 2.9000000000000004
    vertex 6.0 25.847703843195298 2.5623466631435297
    vertex 4.200000000000001 25.847703843195298 2.5623466631435297
  endloop
endfacet
facet normal -0.0 0.9238795325112867 -0.38268343236509
  outer loop
    vertex 6.0 25.847703843195298 2.5623466631435297
    vertex 4.200000000000001 25.987564434701778 2.9000000000000004
    vertex 6.0 25.987564434701778 2.9000000000000004
  endloop
endfacet
facet normal -0.0 0.9914448613738119 -0.13052619222003964
  outer loop
    vertex 4.200000000000001 25.847703843195298 2.5623466631435297
    vertex 6.0 25.799999999999997 2.2000000000000006
    vertex 4.200000000000001 25.799999999999997 2.2000000000000006
  endloop
endfacet
facet normal -0.0 0.9914448613738119 -0.13052619222003964
  outer loop
    vertex 6.0 25.799999999999997 2.2000000000000006
    vertex 4.200000000000001 25.847703843195298 2.5623466631435297
    vertex 6.0 25.847703843195298 2.5623466631435297
  endloop
endfacet
facet normal -0.0 1.0 -0.0
  outer loop
    vertex 4.200000000000001 25.799999999999997 1.7999999999999998
    vertex 5.2 25.799999999999997 0.0
    vertex 4.200000000000001 25.799999999999997 0.0
  endloop
endfacet
facet normal -0.0 1.0 -0.0
  outer loop
    vertex 5.2 25.799999999999997 0.0
    vertex 4.200000000000001 25.799999999999997 1.7999999999999998
    vertex 5.2 25.799999999999997 0.39999999999999997
  endloop
endfacet
facet normal -0.0 1.0 -0.0
  outer loop
    vertex 5.2 25.799999999999997 0.39999999999999997
    vertex 4.200000000000001 25.799999999999997 1.7999999999999998
    vertex 5.6000000000000005 25.799999999999997 0.39999999999999997
  endloop
endfacet
facet normal -0.0 1.0 -0.0
  outer loop
    vertex 5.6000000000000005 25.799999999999997 0.39999999999999997
    vertex 6.0 25.799999999999997 0.0
    vertex 5.6000000000000005 25.799999999999997 0.0
  endloop
endfacet
facet normal -0.0 1.0 -0.0
  outer loop
    vertex 6.0 25.799999999999997 0.0
    vertex 5.6000000000000005 25.799999999999997 0.39999999999999997
    vertex 6.0 25.799999999999997 2.2000000000000006
  endloop
endfacet
facet normal -0.0 1.0 -0.0
  outer loop
    vertex 6.0 25.799999999999997 2.2000000000000006
    vertex 5.6000000000000005 25.799999999999997 0.39999999999999997
    vertex 4.200000000000001 25.799999999999997 1.7999999999999998
  endloop
endfacet
facet normal -0.0 1.0 -0.0
  outer loop
    vertex 6.0 25.799999999999997 2.2000000000000006
    vertex 4.200000000000001 25.799999999999997 1.7999999999999998
    vertex 4.200000000000001 25.799999999999997 2.2000000000000006
  endloop
endfacet
facet normal 4.406197628981091e-16 -1.0930247222728216e-16 -1.0
  outer loop
    vertex 0.3999999999999999 1.6124786710474024 0.0
    vertex 0.0 0.0 0.0
    vertex 0.0 1.6124786710474024 -3.524958103184872e-16
  endloop
endfacet
facet normal 4.406197628981091e-16 -1.0930247222728216e-16 -1.0
  outer loop
    vertex 0.0 0.0 0.0
    vertex 0.3999999999999999 1.6124786710474024 0.0
    vertex 0.3999999999999999 0.0 0.0
  endloop
endfacet
facet normal 0.0 0.0 -1.0
  outer loop
    vertex 0.4000000000000001 25.796720999999994 0.0
    vertex 0.0 24.2 0.0
    vertex 0.0 25.799999999999997 0.0
  endloop
endfacet
facet normal 0.0 0.0 -1.0
  outer loop
    vertex 0.0 24.2 0.0
    vertex 0.4000000000000001 25.796720999999994 0.0
    vertex 0.4000000000000001 24.2 0.0
  endloop
endfacet
facet normal 0.0 0.0 -1.0
  outer loop
    vertex 4.200000000000001 24.2 1.7999999999999998
    vertex 1.7999999999999998 22.4 1.7999999999999998
    vertex 1.7999999999999998 24.2 1.7999999999999998
  endloop
endfacet
facet normal 0.0 0.0 -1.0
  outer loop
    vertex 1.7999999999999998 22.4 1.7999999999999998
    vertex 4.200000000000001 24.2 1.7999999999999998
    vertex 4.200000000000001 22.399999999999995 1.7999999999999998
  endloop
endfacet
facet normal 0.0 -1.0 -7.798578684855743e-18
  outer loop
    vertex 4.200000000000001 24.2 1.7999999999999998
    vertex 1.7999999999999998 24.2 0.0
    vertex 4.200000000000001 24.2 0.0
  endloop
endfacet
facet normal 0.0 -1.0 -7.798578684855743e-18
  outer loop
    vertex 1.7999999999999998 24.2 0.0
    vertex 4.200000000000001 24.2 1.7999999999999998
    vertex 1.7999999999999998 24.2 1.7999999999999998
  endloop
endfacet
facet normal 0.005199375989632769 0.9999864831533067 8.18040332152986e-18
  outer loop
    vertex 1.7999999999999998 1.6124786710474024 1.7999999999999996
    vertex 4.200000000000001 1.6000000000000003 0.0
    vertex 1.7999999999999998 1.6124786710474024 -3.524958103184872e-16
  endloop
endfacet
facet normal 0.005199375989632769 0.9999864831533067 8.18040332152986e-18
  outer loop
    vertex 4.200000000000001 1.6000000000000003 0.0
    vertex 1.7999999999999998 1.6124786710474024 1.7999999999999996
    vertex 4.200000000000001 1.6000000000000003 1.7999999999999998
  endloop
endfacet
facet normal 4.756271891003335e-33 1.9583100573249261e-16 -1.0
  outer loop
    vertex 4.200000000000001 48.4 1.7999999999999998
    vertex 1.7999999999999998 46.599999999999994 1.7999999999999996
    vertex 1.7999999999999998 48.4 1.7999999999999998
  endloop
endfacet
facet normal 4.756271891003335e-33 1.9583100573249261e-16 -1.0
  outer loop
    vertex 1.7999999999999998 46.599999999999994 1.7999999999999996
    vertex 4.200000000000001 48.4 1.7999999999999998
    vertex 4.200000000000001 46.599999999999994 1.7999999999999996
  endloop
endfacet
facet normal 0.0 -1.0 -0.0
  outer loop
    vertex 4.200000000000001 48.4 1.7999999999999998
    vertex 1.7999999999999998 48.4 0.0
    vertex 4.200000000000001 48.4 0.0
  endloop
endfacet
facet normal 0.0 -1.0 -0.0
  outer loop
    vertex 1.7999999999999998 48.4 0.0
    vertex 4.200000000000001 48.4 1.7999999999999998
    vertex 1.7999999999999998 48.4 1.7999999999999998
  endloop
endfacet
facet normal 0.0 1.0 0.0
  outer loop
    vertex 1.7999999999999998 25.799999999999997 1.7999999999999998
    vertex 4.200000000000001 25.799999999999997 0.0
    vertex 1.7999999999999998 25.799999999999997 0.0
  endloop
endfacet
facet normal 0.0 1.0 0.0
  outer loop
    vertex 4.200000000000001 25.799999999999997 0.0
    vertex 1.7999999999999998 25.799999999999997 1.7999999999999998
    vertex 4.200000000000001 25.799999999999997 1.7999999999999998
  endloop
endfacet
facet normal 0.0 0.0 -1.0
  outer loop
    vertex 4.200000000000001 46.599999999999994 1.7999999999999996
    vertex 1.7999999999999998 27.600000000000005 1.7999999999999996
    vertex 1.7999999999999998 46.599999999999994 1.7999999999999996
  endloop
endfacet
facet normal 0.0 0.0 -1.0
  outer loop
    vertex 1.7999999999999998 27.600000000000005 1.7999999999999996
    vertex 4.200000000000001 46.599999999999994 1.7999999999999996
    vertex 4.200000000000001 27.6 1.7999999999999996
  endloop
endfacet
facet normal -2.283010507681564e-31 -1.958310057324923e-16 -1.0
  outer loop
    vertex 4.200000000000001 27.6 1.7999999999999996
    vertex 1.7999999999999998 25.799999999999997 1.7999999999999998
    vertex 1.7999999999999998 27.600000000000005 1.7999999999999996
  endloop
endfacet
facet normal -2.283010507681564e-31 -1.958310057324923e-16 -1.0
  outer loop
    vertex 1.7999999999999998 25.799999999999997 1.7999999999999998
    vertex 4.200000000000001 27.6 1.7999999999999996
    vertex 4.200000000000001 25.799999999999997 1.7999999999999998
  endloop
endfacet
facet normal 7.346074274149415e-17 9.276215411490122e-18 -1.0
  outer loop
    vertex 1.7999999999999998 22.4 1.7999999999999998
    vertex 4.200000000000001 3.4000243306529225 1.7999999999999998
    vertex 1.7999999999999996 3.4125030017003244 1.7999999999999996
  endloop
endfacet
facet normal 7.346074274149415e-17 9.276215411490122e-18 -1.0
  outer loop
    vertex 4.200000000000001 3.4000243306529225 1.7999999999999998
    vertex 1.7999999999999998 22.4 1.7999999999999998
    vertex 4.200000000000001 22.399999999999995 1.7999999999999998
  endloop
endfacet
facet normal 1.4687325429936958e-16 1.6254284913569266e-32 -1.0
  outer loop
    vertex 4.200000000000001 3.4000243306529225 1.7999999999999998
    vertex 1.7999999999999998 1.6124786710474024 1.7999999999999996
    vertex 1.7999999999999996 3.4125030017003244 1.7999999999999996
  endloop
endfacet
facet normal 1.4687325429936958e-16 1.6254284913569266e-32 -1.0
  outer loop
    vertex 1.7999999999999998 1.6124786710474024 1.7999999999999996
    vertex 4.200000000000001 3.4000243306529225 1.7999999999999998
    vertex 4.200000000000001 1.6000000000000003 1.7999999999999998
  endloop
endfacet
facet normal 1.0 -0.0 -0.0
  outer loop
    vertex 4.200000000000001 3.4000243306529225 1.7999999999999998
    vertex 4.200000000000001 1.6000000000000003 1.7999999999999998
    vertex 4.200000000000001 1.6000000000000003 0.0
  endloop
endfacet
facet normal 0.00367651402020796 0.7070972233325903 -0.7071067811865477
  outer loop
    vertex 4.200000000000001 3.4000243306529225 1.7999999999999998
    vertex 1.7999999999999998 1.6124786710474024 -3.524958103184872e-16
    vertex 1.7999999999999996 3.4125030017003244 1.7999999999999996
  endloop
endfacet
facet normal 0.00367651402020796 0.7070972233325903 -0.7071067811865477
  outer loop
    vertex 1.7999999999999998 1.6124786710474024 -3.524958103184872e-16
    vertex 4.200000000000001 3.4000243306529225 1.7999999999999998
    vertex 4.200000000000001 1.6000000000000003 0.0
  endloop
endfacet
facet normal -1.0 -1.9582835871481056e-16 2.237148891329967e-32
  outer loop
    vertex 1.7999999999999996 3.4125030017003244 1.7999999999999996
    vertex 1.7999999999999998 1.6124786710474024 -3.524958103184872e-16
    vertex 1.7999999999999998 1.6124786710474024 1.7999999999999996
  endloop
endfacet
facet normal 1.0 -0.0 -0.0
  outer loop
    vertex 4.200000000000001 24.2 1.7999999999999998
    vertex 4.200000000000001 22.399999999999995 1.7999999999999998
    vertex 4.200000000000001 24.2 0.0
  endloop
endfacet
facet normal -4.293487763487172e-16 -0.7071067811865472 -0.7071067811865478
  outer loop
    vertex 4.200000000000001 24.2 0.0
    vertex 1.7999999999999998 22.4 1.7999999999999998
    vertex 1.7999999999999998 24.2 0.0
  endloop
endfacet
facet normal -4.293487763487172e-16 -0.7071067811865472 -0.7071067811865478
  outer loop
    vertex 1.7999999999999998 22.4 1.7999999999999998
    vertex 4.200000000000001 24.2 0.0
    vertex 4.200000000000001 22.399999999999995 1.7999999999999998
  endloop
endfacet
facet normal -1.0 0.0 0.0
  outer loop
    vertex 1.7999999999999998 24.2 0.0
    vertex 1.7999999999999998 22.4 1.7999999999999998
    vertex 1.7999999999999998 24.2 1.7999999999999998
  endloop
endfacet
facet normal -1.0 0.0 0.0
  outer loop
    vertex 1.7999999999999998 27.600000000000005 1.7999999999999996
    vertex 1.7999999999999998 25.799999999999997 0.0
    vertex 1.7999999999999998 25.799999999999997 1.7999999999999998
  endloop
endfacet
facet normal 8.41523601643485e-16 0.7071067811865465 -0.7071067811865487
  outer loop
    vertex 4.200000000000001 27.6 1.7999999999999996
    vertex 1.7999999999999998 25.799999999999997 0.0
    vertex 1.7999999999999998 27.600000000000005 1.7999999999999996
  endloop
endfacet
facet normal 8.41523601643485e-16 0.7071067811865465 -0.7071067811865487
  outer loop
    vertex 1.7999999999999998 25.799999999999997 0.0
    vertex 4.200000000000001 27.6 1.7999999999999996
    vertex 4.200000000000001 25.799999999999997 0.0
  endloop
endfacet
facet normal 1.0 -0.0 -0.0
  outer loop
    vertex 4.200000000000001 27.6 1.7999999999999996
    vertex 4.200000000000001 25.799999999999997 1.7999999999999998
    vertex 4.200000000000001 25.799999999999997 0.0
  endloop
endfacet
facet normal -1.0 0.0 0.0
  outer loop
    vertex 1.7999999999999998 48.4 0.0
    vertex 1.7999999999999998 46.599999999999994 1.7999999999999996
    vertex 1.7999999999999998 48.4 1.7999999999999998
  endloop
endfacet
facet normal -1.717395105394892e-17 -0.707106781186547 -0.7071067811865481
  outer loop
    vertex 4.200000000000001 48.4 0.0
    vertex 1.7999999999999998 46.599999999999994 1.7999999999999996
    vertex 1.7999999999999998 48.4 0.0
  endloop
endfacet
facet normal -1.717395105394892e-17 -0.707106781186547 -0.7071067811865481
  outer loop
    vertex 1.7999999999999998 46.599999999999994 1.7999999999999996
    vertex 4.200000000000001 48.4 0.0
    vertex 4.200000000000001 46.599999999999994 1.7999999999999996
  endloop
endfacet
facet normal 1.0 -0.0 -0.0
  outer loop
    vertex 4.200000000000001 48.4 1.7999999999999998
    vertex 4.200000000000001 46.599999999999994 1.7999999999999996
    vertex 4.200000000000001 48.4 0.0
  endloop
endfacet
facet normal -1.0 0.0 0.0
  outer loop
    vertex 5.6000000000000005 1.6000000000000003 0.39999999999999997
    vertex 5.6000000000000005 0.0 0.0
    vertex 5.6000000000000005 0.0 0.39999999999999997
  endloop
endfacet
facet normal -1.0 0.0 0.0
  outer loop
    vertex 5.6000000000000005 0.0 0.0
    vertex 5.6000000000000005 1.6000000000000003 0.39999999999999997
    vertex 5.6000000000000005 1.6000000000000003 0.0
  endloop
endfacet
facet normal -0.0 -0.0 -1.0
  outer loop
    vertex 5.6000000000000005 1.6000000000000003 0.39999999999999997
    vertex 5.2 0.0 0.39999999999999997
    vertex 5.2 1.6000000000000003 0.39999999999999997
  endloop
endfacet
facet normal -0.0 -0.0 -1.0
  outer loop
    vertex 5.2 0.0 0.39999999999999997
    vertex 5.6000000000000005 1.6000000000000003 0.39999999999999997
    vertex 5.6000000000000005 0.0 0.39999999999999997
  endloop
endfacet
facet normal 1.0 -0.0 -0.0
  outer loop
    vertex 5.2 1.6000000000000003 0.0
    vertex 5.2 0.0 0.39999999999999997
    vertex 5.2 0.0 0.0
  endloop
endfacet
facet normal 1.0 -0.0 -0.0
  outer loop
    vertex 5.2 0.0 0.39999999999999997
    vertex 5.2 1.6000000000000003 0.0
    vertex 5.2 1.6000000000000003 0.39999999999999997
  endloop
endfacet
facet normal 0.0 0.0 -1.0
  outer loop
    vertex 6.0 1.6000000000000003 0.0
    vertex 5.6000000000000005 0.0 0.0
    vertex 5.6000000000000005 1.6000000000000003 0.0
  endloop
endfacet
facet normal 0.0 0.0 -1.0
  outer loop
    vertex 5.6000000000000005 0.0 0.0
    vertex 6.0 1.6000000000000003 0.0
    vertex 6.0 0.0 0.0
  endloop
endfacet
facet normal -1.0 0.0 0.0
  outer loop
    vertex 0.7999999999999999 1.6124786710474024 0.39999999999999997
    vertex 0.7999999999999999 0.0 0.0
    vertex 0.7999999999999999 0.0 0.39999999999999997
  endloop
endfacet
facet normal -1.0 0.0 0.0
  outer loop
    vertex 0.7999999999999999 0.0 0.0
    vertex 0.7999999999999999 1.6124786710474024 0.39999999999999997
    vertex 0.7999999999999999 1.6124786710474024 0.0
  endloop
endfacet
facet normal -0.0 -0.0 -1.0
  outer loop
    vertex 0.7999999999999999 1.6124786710474024 0.39999999999999997
    vertex 0.39999999999999997 0.0 0.39999999999999997
    vertex 0.39999999999999997 1.6124786710474024 0.39999999999999997
  endloop
endfacet
facet normal -0.0 -0.0 -1.0
  outer loop
    vertex 0.39999999999999997 0.0 0.39999999999999997
    vertex 0.7999999999999999 1.6124786710474024 0.39999999999999997
    vertex 0.7999999999999999 0.0 0.39999999999999997
  endloop
endfacet
facet normal 1.0 -0.0 -2.203098814490545e-16
  outer loop
    vertex 0.3999999999999999 1.6124786710474024 0.0
    vertex 0.39999999999999997 0.0 0.39999999999999997
    vertex 0.3999999999999999 0.0 0.0
  endloop
endfacet
facet normal 1.0 -0.0 -2.203098814490545e-16
  outer loop
    vertex 0.39999999999999997 0.0 0.39999999999999997
    vertex 0.3999999999999999 1.6124786710474024 0.0
    vertex 0.39999999999999997 1.6124786710474024 0.39999999999999997
  endloop
endfacet
facet normal 1.8914124508195166e-17 -5.526708712473249e-17 -1.0
  outer loop
    vertex 1.7999999999999998 1.6124786710474024 -3.524958103184872e-16
    vertex 0.7999999999999999 0.0 0.0
    vertex 0.7999999999999999 1.6124786710474024 0.0
  endloop
endfacet
facet normal 1.8914124508195166e-17 -5.526708712473249e-17 -1.0
  outer loop
    vertex 0.7999999999999999 0.0 0.0
    vertex 1.7999999999999998 1.6124786710474024 -3.524958103184872e-16
    vertex 5.2 0.0 0.0
  endloop
endfacet
facet normal 1.8914124508195166e-17 -5.526708712473249e-17 -1.0
  outer loop
    vertex 5.2 0.0 0.0
    vertex 1.7999999999999998 1.6124786710474024 -3.524958103184872e-16
    vertex 4.200000000000001 1.6000000000000003 0.0
  endloop
endfacet
facet normal 1.8914124508195166e-17 -5.526708712473249e-17 -1.0
  outer loop
    vertex 5.2 0.0 0.0
    vertex 4.200000000000001 1.6000000000000003 0.0
    vertex 5.2 1.6000000000000003 0.0
  endloop
endfacet
facet normal 0.0 0.0 -1.0
  outer loop
    vertex 0.4000000000000007 50.0 0.4000000000000001
    vertex 0.8000000000000002 48.4 0.4000000000000001
    vertex 0.4000000000000001 48.4 0.4000000000000001
  endloop
endfacet
facet normal 0.0 0.0 -1.0
  outer loop
    vertex 0.8000000000000002 48.4 0.4000000000000001
    vertex 0.4000000000000007 50.0 0.4000000000000001
    vertex 0.7999999999999999 50.0 0.4000000000000001
  endloop
endfacet
facet normal -0.0010069530935992912 0.0007454469505504656 -0.9999992151768478
  outer loop
    vertex 5.602042143195849 49.99914001470584 0.0020421698049193876
    vertex 6.0 48.4 0.0
    vertex 5.6000000000000005 48.398979031126586 0.0
  endloop
endfacet
facet normal -0.0010069530935992912 0.0007454469505504656 -0.9999992151768478
  outer loop
    vertex 6.0 48.4 0.0
    vertex 5.602042143195849 49.99914001470584 0.0020421698049193876
    vertex 6.0 50.0 0.0
  endloop
endfacet
facet normal -1.0 -1.1015494072452705e-16 0.0
  outer loop
    vertex 0.7999999999999999 50.0 0.4000000000000001
    vertex 0.8000000000000002 48.4 0.0
    vertex 0.8000000000000002 48.4 0.4000000000000001
  endloop
endfacet
facet normal -1.0 -1.1015494072452705e-16 0.0
  outer loop
    vertex 0.8000000000000002 48.4 0.0
    vertex 0.7999999999999999 50.0 0.4000000000000001
    vertex 0.7999999999999999 50.0 0.0
  endloop
endfacet
facet normal 1.0 -3.8554229253584474e-16 -0.0
  outer loop
    vertex 0.4000000000000007 50.0 0.0
    vertex 0.4000000000000001 48.4 0.4000000000000001
    vertex 0.4000000000000001 48.4 0.0
  endloop
endfacet
facet normal 1.0 -3.8554229253584474e-16 -0.0
  outer loop
    vertex 0.4000000000000001 48.4 0.4000000000000001
    vertex 0.4000000000000007 50.0 0.0
    vertex 0.4000000000000007 50.0 0.4000000000000001
  endloop
endfacet
facet normal 0.0 0.0 -1.0
  outer loop
    vertex 0.4000000000000007 50.0 0.0
    vertex 0.0 48.4 0.0
    vertex 0.0 50.0 0.0
  endloop
endfacet
facet normal 0.0 0.0 -1.0
  outer loop
    vertex 0.0 48.4 0.0
    vertex 0.4000000000000007 50.0 0.0
    vertex 0.4000000000000001 48.4 0.0
  endloop
endfacet
facet normal -0.00016492261152757675 -0.9999999725080312 0.00016668673973435603
  outer loop
    vertex 6.0 48.4 2.2000000000000006
    vertex 5.6000000000000005 48.398979031126586 0.0
    vertex 6.0 48.4 0.0
  endloop
endfacet
facet normal -0.00016492261152757675 -0.9999999725080312 0.00016668673973435603
  outer loop
    vertex 5.6000000000000005 48.398979031126586 0.0
    vertex 6.0 48.4 2.2000000000000006
    vertex 5.6000000000000005 48.398979031126586 0.39999478807884253
  endloop
endfacet
facet normal -0.00016492261152757675 -0.9999999725080312 0.00016668673973435603
  outer loop
    vertex 5.6000000000000005 48.398979031126586 0.39999478807884253
    vertex 6.0 48.4 2.2000000000000006
    vertex 5.2 48.398979031126586 0.39999478807884253
  endloop
endfacet
facet normal -0.00016492261152757675 -0.9999999725080312 0.00016668673973435603
  outer loop
    vertex 5.2 48.398979031126586 0.39999478807884253
    vertex 6.0 48.4 2.2000000000000006
    vertex 4.200000000000001 48.4 1.7999999999999998
  endloop
endfacet
facet normal -0.00016492261152757675 -0.9999999725080312 0.00016668673973435603
  outer loop
    vertex 4.200000000000001 48.4 1.7999999999999998
    vertex 6.0 48.4 2.2000000000000006
    vertex 4.200000000000001 48.4 2.2000000000000006
  endloop
endfacet
facet normal -0.00016492261152757675 -0.9999999725080312 0.00016668673973435603
  outer loop
    vertex 5.2 48.398979031126586 0.39999478807884253
    vertex 4.200000000000001 48.4 0.0
    vertex 5.2 48.4 0.0
  endloop
endfacet
facet normal -0.00016492261152757675 -0.9999999725080312 0.00016668673973435603
  outer loop
    vertex 4.200000000000001 48.4 0.0
    vertex 5.2 48.398979031126586 0.39999478807884253
    vertex 4.200000000000001 48.4 1.7999999999999998
  endloop
endfacet
facet normal 0.9999991856436196 -0.0012762058952124162 -3.2574586817300917e-06
  outer loop
    vertex 5.2 48.4 0.0
    vertex 5.2020421431958495 49.99914001470584 0.40203695788376187
    vertex 5.2 48.398979031126586 0.39999478807884253
  endloop
endfacet
facet normal 0.9999991856436196 -0.0012762058952124162 -3.2574586817300917e-06
  outer loop
    vertex 5.2020421431958495 49.99914001470584 0.40203695788376187
    vertex 5.2 48.4 0.0
    vertex 5.2020421431958495 50.00016098357925 0.0020421698049193876
  endloop
endfacet
facet normal -0.9999991856436196 0.0012762100524714856 1.5429673402246815e-19
  outer loop
    vertex 5.602042143195849 49.99914001470584 0.40203695788376187
    vertex 5.6000000000000005 48.398979031126586 0.0
    vertex 5.6000000000000005 48.398979031126586 0.39999478807884253
  endloop
endfacet
facet normal -0.9999991856436196 0.0012762100524714856 1.5429673402246815e-19
  outer loop
    vertex 5.6000000000000005 48.398979031126586 0.0
    vertex 5.602042143195849 49.99914001470584 0.40203695788376187
    vertex 5.602042143195849 49.99914001470584 0.0020421698049193876
  endloop
endfacet
facet normal -0.0 0.0012762266814268352 -0.9999991856223973
  outer loop
    vertex 5.2020421431958495 49.99914001470584 0.40203695788376187
    vertex 5.6000000000000005 48.398979031126586 0.39999478807884253
    vertex 5.2 48.398979031126586 0.39999478807884253
  endloop
endfacet
facet normal -0.0 0.0012762266814268352 -0.9999991856223973
  outer loop
    vertex 5.6000000000000005 48.398979031126586 0.39999478807884253
    vertex 5.2020421431958495 49.99914001470584 0.40203695788376187
    vertex 5.602042143195849 49.99914001470584 0.40203695788376187
  endloop
endfacet
facet normal 0.00020201510861680286 0.0006380440860485432 -0.9999997760447952
  outer loop
    vertex 5.2020421431958495 50.00016098357925 0.0020421698049193876
    vertex 0.8000000000000002 48.4 0.0
    vertex 0.7999999999999999 50.0 0.0
  endloop
endfacet
facet normal 0.00020201510861680286 0.0006380440860485432 -0.9999997760447952
  outer loop
    vertex 0.8000000000000002 48.4 0.0
    vertex 5.2020421431958495 50.00016098357925 0.0020421698049193876
    vertex 1.7999999999999998 48.4 0.0
  endloop
endfacet
facet normal 0.00020201510861680286 0.0006380440860485432 -0.9999997760447952
  outer loop
    vertex 1.7999999999999998 48.4 0.0
    vertex 5.2020421431958495 50.00016098357925 0.0020421698049193876
    vertex 4.200000000000001 48.4 0.0
  endloop
endfacet
facet normal 0.00020201510861680286 0.0006380440860485432 -0.9999997760447952
  outer loop
    vertex 4.200000000000001 48.4 0.0
    vertex 5.2020421431958495 50.00016098357925 0.0020421698049193876
    vertex 5.2 48.4 0.0
  endloop
endfacet
facet normal 0.0015664418256330376 -0.9999897013631981 -0.004259510247534283
  outer loop
    vertex 1.7999999999999998 48.4 1.7999999999999998
    vertex 0.8000000000000002 48.4 0.0
    vertex 1.7999999999999998 48.4 0.0
  endloop
endfacet
facet normal 0.0015664418256330376 -0.9999897013631981 -0.004259510247534283
  outer loop
    vertex 0.8000000000000002 48.4 0.0
    vertex 1.7999999999999998 48.4 1.7999999999999998
    vertex 0.4000000000000001 48.4 0.0
  endloop
endfacet
facet normal 0.0015664418256330376 -0.9999897013631981 -0.004259510247534283
  outer loop
    vertex 0.4000000000000001 48.4 0.0
    vertex 1.7999999999999998 48.4 1.7999999999999998
    vertex 0.0 48.4 0.0
  endloop
endfacet
facet normal 0.0015664418256330376 -0.9999897013631981 -0.004259510247534283
  outer loop
    vertex 0.0 48.4 0.0
    vertex 1.7999999999999998 48.4 1.7999999999999998
    vertex 0.0 48.38876919605733 2.200000000000001
  endloop
endfacet
facet normal 0.0015664418256330376 -0.9999897013631981 -0.004259510247534283
  outer loop
    vertex 0.0 48.38876919605733 2.200000000000001
    vertex 1.7999999999999998 48.4 1.7999999999999998
    vertex 1.7999999999999998 48.38876919605733 2.200000000000001
  endloop
endfacet
facet normal -0.0 1.0 -0.0
  outer loop
    vertex 0.4000000000000001 48.4 0.4000000000000001
    vertex 0.8000000000000002 48.4 0.0
    vertex 0.4000000000000001 48.4 0.0
  endloop
endfacet
facet normal -0.0 1.0 -0.0
  outer loop
    vertex 0.8000000000000002 48.4 0.0
    vertex 0.4000000000000001 48.4 0.4000000000000001
    vertex 0.8000000000000002 48.4 0.4000000000000001
  endloop
endfacet
facet normal -1.0 0.0 0.0
  outer loop
    vertex 5.6000000000000005 25.799999999999997 0.39999999999999997
    vertex 5.6000000000000005 24.2 0.0
    vertex 5.6000000000000005 24.2 0.39999999999999997
  endloop
endfacet
facet normal -1.0 0.0 0.0
  outer loop
    vertex 5.6000000000000005 24.2 0.0
    vertex 5.6000000000000005 25.799999999999997 0.39999999999999997
    vertex 5.6000000000000005 25.799999999999997 0.0
  endloop
endfacet
facet normal -0.0 -0.0 -1.0
  outer loop
    vertex 5.6000000000000005 25.799999999999997 0.39999999999999997
    vertex 5.2 24.2 0.39999999999999997
    vertex 5.2 25.799999999999997 0.39999999999999997
  endloop
endfacet
facet normal -0.0 -0.0 -1.0
  outer loop
    vertex 5.2 24.2 0.39999999999999997
    vertex 5.6000000000000005 25.799999999999997 0.39999999999999997
    vertex 5.6000000000000005 24.2 0.39999999999999997
  endloop
endfacet
facet normal 1.0 -0.0 -0.0
  outer loop
    vertex 5.2 25.799999999999997 0.0
    vertex 5.2 24.2 0.39999999999999997
    vertex 5.2 24.2 0.0
  endloop
endfacet
facet normal 1.0 -0.0 -0.0
  outer loop
    vertex 5.2 24.2 0.39999999999999997
    vertex 5.2 25.799999999999997 0.0
    vertex 5.2 25.799999999999997 0.39999999999999997
  endloop
endfacet
facet normal 0.0 0.0 -1.0
  outer loop
    vertex 6.0 25.799999999999997 0.0
    vertex 5.6000000000000005 24.2 0.0
    vertex 5.6000000000000005 25.799999999999997 0.0
  endloop
endfacet
facet normal 0.0 0.0 -1.0
  outer loop
    vertex 5.6000000000000005 24.2 0.0
    vertex 6.0 25.799999999999997 0.0
    vertex 6.0 24.2 0.0
  endloop
endfacet
facet normal -1.0 0.0 -4.4061976289810905e-16
  outer loop
    vertex 0.7999999999999999 25.796720999999994 0.39999999999999997
    vertex 0.8000000000000002 24.2 0.0
    vertex 0.7999999999999999 24.2 0.39999999999999997
  endloop
endfacet
facet normal -1.0 0.0 -4.4061976289810905e-16
  outer loop
    vertex 0.8000000000000002 24.2 0.0
    vertex 0.7999999999999999 25.796720999999994 0.39999999999999997
    vertex 0.8000000000000002 25.796720999999994 0.0
  endloop
endfacet
facet normal -0.0 -0.0 -1.0
  outer loop
    vertex 0.7999999999999999 25.796720999999994 0.39999999999999997
    vertex 0.39999999999999997 24.2 0.39999999999999997
    vertex 0.39999999999999997 25.796720999999994 0.39999999999999997
  endloop
endfacet
facet normal -0.0 -0.0 -1.0
  outer loop
    vertex 0.39999999999999997 24.2 0.39999999999999997
    vertex 0.7999999999999999 25.796720999999994 0.39999999999999997
    vertex 0.7999999999999999 24.2 0.39999999999999997
  endloop
endfacet
facet normal 1.0 -0.0 2.2030988144905453e-16
  outer loop
    vertex 0.4000000000000001 25.796720999999994 0.0
    vertex 0.39999999999999997 24.2 0.39999999999999997
    vertex 0.4000000000000001 24.2 0.0
  endloop
endfacet
facet normal 1.0 -0.0 2.2030988144905453e-16
  outer loop
    vertex 0.39999999999999997 24.2 0.39999999999999997
    vertex 0.4000000000000001 25.796720999999994 0.0
    vertex 0.39999999999999997 25.796720999999994 0.39999999999999997
  endloop
endfacet
facet normal 0.0 0.0 -1.0
  outer loop
    vertex 1.7999999999999998 25.799999999999997 0.0
    vertex 0.8000000000000002 24.2 0.0
    vertex 0.8000000000000002 25.796720999999994 0.0
  endloop
endfacet
facet normal 0.0 0.0 -1.0
  outer loop
    vertex 0.8000000000000002 24.2 0.0
    vertex 1.7999999999999998 25.799999999999997 0.0
    vertex 1.7999999999999998 24.2 0.0
  endloop
endfacet
facet normal 0.0 0.0 -1.0
  outer loop
    vertex 1.7999999999999998 24.2 0.0
    vertex 1.7999999999999998 25.799999999999997 0.0
    vertex 4.200000000000001 25.799999999999997 0.0
  endloop
endfacet
facet normal 0.0 0.0 -1.0
  outer loop
    vertex 1.7999999999999998 24.2 0.0
    vertex 4.200000000000001 25.799999999999997 0.0
    vertex 4.200000000000001 24.2 0.0
  endloop
endfacet
facet normal 0.0 0.0 -1.0
  outer loop
    vertex 4.200000000000001 24.2 0.0
    vertex 4.200000000000001 25.799999999999997 0.0
    vertex 5.2 25.799999999999997 0.0
  endloop
endfacet
facet normal 0.0 0.0 -1.0
  outer loop
    vertex 4.200000000000001 24.2 0.0
    vertex 5.2 25.799999999999997 0.0
    vertex 5.2 24.2 0.0
  endloop
endfacet
endsolid Holder
