%TF.GenerationSoftware,KiCad,Pcbnew,(5.1.9)-1*%
%TF.CreationDate,2021-04-07T06:54:24+02:00*%
%TF.ProjectId,IM350_AM550_5V_multi,494d3335-305f-4414-9d35-35305f35565f,rev?*%
%TF.SameCoordinates,Original*%
%TF.FileFunction,Legend,Bot*%
%TF.FilePolarity,Positive*%
%FSLAX46Y46*%
G04 Gerber Fmt 4.6, Leading zero omitted, Abs format (unit mm)*
G04 Created by KiCad (PCBNEW (5.1.9)-1) date 2021-04-07 06:54:24*
%MOMM*%
%LPD*%
G01*
G04 APERTURE LIST*
%ADD10C,0.250000*%
%ADD11C,0.010000*%
G04 APERTURE END LIST*
D10*
X119735714Y-127721428D02*
X119488095Y-128588095D01*
X119240476Y-127969047D01*
X118992857Y-128588095D01*
X118745238Y-127721428D01*
X118373809Y-127721428D02*
X118126190Y-128588095D01*
X117878571Y-127969047D01*
X117630952Y-128588095D01*
X117383333Y-127721428D01*
X117011904Y-127721428D02*
X116764285Y-128588095D01*
X116516666Y-127969047D01*
X116269047Y-128588095D01*
X116021428Y-127721428D01*
X115526190Y-128464285D02*
X115464285Y-128526190D01*
X115526190Y-128588095D01*
X115588095Y-128526190D01*
X115526190Y-128464285D01*
X115526190Y-128588095D01*
X114969047Y-128526190D02*
X114845238Y-128588095D01*
X114597619Y-128588095D01*
X114473809Y-128526190D01*
X114411904Y-128402380D01*
X114411904Y-128340476D01*
X114473809Y-128216666D01*
X114597619Y-128154761D01*
X114783333Y-128154761D01*
X114907142Y-128092857D01*
X114969047Y-127969047D01*
X114969047Y-127907142D01*
X114907142Y-127783333D01*
X114783333Y-127721428D01*
X114597619Y-127721428D01*
X114473809Y-127783333D01*
X113854761Y-128588095D02*
X113854761Y-127288095D01*
X113297619Y-128588095D02*
X113297619Y-127907142D01*
X113359523Y-127783333D01*
X113483333Y-127721428D01*
X113669047Y-127721428D01*
X113792857Y-127783333D01*
X113854761Y-127845238D01*
X112678571Y-128588095D02*
X112678571Y-127721428D01*
X112678571Y-127969047D02*
X112616666Y-127845238D01*
X112554761Y-127783333D01*
X112430952Y-127721428D01*
X112307142Y-127721428D01*
X111316666Y-128588095D02*
X111316666Y-127288095D01*
X111316666Y-128526190D02*
X111440476Y-128588095D01*
X111688095Y-128588095D01*
X111811904Y-128526190D01*
X111873809Y-128464285D01*
X111935714Y-128340476D01*
X111935714Y-127969047D01*
X111873809Y-127845238D01*
X111811904Y-127783333D01*
X111688095Y-127721428D01*
X111440476Y-127721428D01*
X111316666Y-127783333D01*
X110821428Y-127721428D02*
X110140476Y-127721428D01*
X110821428Y-128588095D01*
X110140476Y-128588095D01*
X109645238Y-128588095D02*
X109645238Y-127721428D01*
X109645238Y-127845238D02*
X109583333Y-127783333D01*
X109459523Y-127721428D01*
X109273809Y-127721428D01*
X109150000Y-127783333D01*
X109088095Y-127907142D01*
X109088095Y-128588095D01*
X109088095Y-127907142D02*
X109026190Y-127783333D01*
X108902380Y-127721428D01*
X108716666Y-127721428D01*
X108592857Y-127783333D01*
X108530952Y-127907142D01*
X108530952Y-128588095D01*
X107911904Y-128464285D02*
X107850000Y-128526190D01*
X107911904Y-128588095D01*
X107973809Y-128526190D01*
X107911904Y-128464285D01*
X107911904Y-128588095D01*
X106735714Y-128526190D02*
X106859523Y-128588095D01*
X107107142Y-128588095D01*
X107230952Y-128526190D01*
X107292857Y-128464285D01*
X107354761Y-128340476D01*
X107354761Y-127969047D01*
X107292857Y-127845238D01*
X107230952Y-127783333D01*
X107107142Y-127721428D01*
X106859523Y-127721428D01*
X106735714Y-127783333D01*
X105992857Y-128588095D02*
X106116666Y-128526190D01*
X106178571Y-128464285D01*
X106240476Y-128340476D01*
X106240476Y-127969047D01*
X106178571Y-127845238D01*
X106116666Y-127783333D01*
X105992857Y-127721428D01*
X105807142Y-127721428D01*
X105683333Y-127783333D01*
X105621428Y-127845238D01*
X105559523Y-127969047D01*
X105559523Y-128340476D01*
X105621428Y-128464285D01*
X105683333Y-128526190D01*
X105807142Y-128588095D01*
X105992857Y-128588095D01*
X105002380Y-128588095D02*
X105002380Y-127721428D01*
X105002380Y-127845238D02*
X104940476Y-127783333D01*
X104816666Y-127721428D01*
X104630952Y-127721428D01*
X104507142Y-127783333D01*
X104445238Y-127907142D01*
X104445238Y-128588095D01*
X104445238Y-127907142D02*
X104383333Y-127783333D01*
X104259523Y-127721428D01*
X104073809Y-127721428D01*
X103950000Y-127783333D01*
X103888095Y-127907142D01*
X103888095Y-128588095D01*
X119735714Y-107721428D02*
X119488095Y-108588095D01*
X119240476Y-107969047D01*
X118992857Y-108588095D01*
X118745238Y-107721428D01*
X118373809Y-107721428D02*
X118126190Y-108588095D01*
X117878571Y-107969047D01*
X117630952Y-108588095D01*
X117383333Y-107721428D01*
X117011904Y-107721428D02*
X116764285Y-108588095D01*
X116516666Y-107969047D01*
X116269047Y-108588095D01*
X116021428Y-107721428D01*
X115526190Y-108464285D02*
X115464285Y-108526190D01*
X115526190Y-108588095D01*
X115588095Y-108526190D01*
X115526190Y-108464285D01*
X115526190Y-108588095D01*
X114969047Y-108526190D02*
X114845238Y-108588095D01*
X114597619Y-108588095D01*
X114473809Y-108526190D01*
X114411904Y-108402380D01*
X114411904Y-108340476D01*
X114473809Y-108216666D01*
X114597619Y-108154761D01*
X114783333Y-108154761D01*
X114907142Y-108092857D01*
X114969047Y-107969047D01*
X114969047Y-107907142D01*
X114907142Y-107783333D01*
X114783333Y-107721428D01*
X114597619Y-107721428D01*
X114473809Y-107783333D01*
X113854761Y-108588095D02*
X113854761Y-107288095D01*
X113297619Y-108588095D02*
X113297619Y-107907142D01*
X113359523Y-107783333D01*
X113483333Y-107721428D01*
X113669047Y-107721428D01*
X113792857Y-107783333D01*
X113854761Y-107845238D01*
X112678571Y-108588095D02*
X112678571Y-107721428D01*
X112678571Y-107969047D02*
X112616666Y-107845238D01*
X112554761Y-107783333D01*
X112430952Y-107721428D01*
X112307142Y-107721428D01*
X111316666Y-108588095D02*
X111316666Y-107288095D01*
X111316666Y-108526190D02*
X111440476Y-108588095D01*
X111688095Y-108588095D01*
X111811904Y-108526190D01*
X111873809Y-108464285D01*
X111935714Y-108340476D01*
X111935714Y-107969047D01*
X111873809Y-107845238D01*
X111811904Y-107783333D01*
X111688095Y-107721428D01*
X111440476Y-107721428D01*
X111316666Y-107783333D01*
X110821428Y-107721428D02*
X110140476Y-107721428D01*
X110821428Y-108588095D01*
X110140476Y-108588095D01*
X109645238Y-108588095D02*
X109645238Y-107721428D01*
X109645238Y-107845238D02*
X109583333Y-107783333D01*
X109459523Y-107721428D01*
X109273809Y-107721428D01*
X109150000Y-107783333D01*
X109088095Y-107907142D01*
X109088095Y-108588095D01*
X109088095Y-107907142D02*
X109026190Y-107783333D01*
X108902380Y-107721428D01*
X108716666Y-107721428D01*
X108592857Y-107783333D01*
X108530952Y-107907142D01*
X108530952Y-108588095D01*
X107911904Y-108464285D02*
X107850000Y-108526190D01*
X107911904Y-108588095D01*
X107973809Y-108526190D01*
X107911904Y-108464285D01*
X107911904Y-108588095D01*
X106735714Y-108526190D02*
X106859523Y-108588095D01*
X107107142Y-108588095D01*
X107230952Y-108526190D01*
X107292857Y-108464285D01*
X107354761Y-108340476D01*
X107354761Y-107969047D01*
X107292857Y-107845238D01*
X107230952Y-107783333D01*
X107107142Y-107721428D01*
X106859523Y-107721428D01*
X106735714Y-107783333D01*
X105992857Y-108588095D02*
X106116666Y-108526190D01*
X106178571Y-108464285D01*
X106240476Y-108340476D01*
X106240476Y-107969047D01*
X106178571Y-107845238D01*
X106116666Y-107783333D01*
X105992857Y-107721428D01*
X105807142Y-107721428D01*
X105683333Y-107783333D01*
X105621428Y-107845238D01*
X105559523Y-107969047D01*
X105559523Y-108340476D01*
X105621428Y-108464285D01*
X105683333Y-108526190D01*
X105807142Y-108588095D01*
X105992857Y-108588095D01*
X105002380Y-108588095D02*
X105002380Y-107721428D01*
X105002380Y-107845238D02*
X104940476Y-107783333D01*
X104816666Y-107721428D01*
X104630952Y-107721428D01*
X104507142Y-107783333D01*
X104445238Y-107907142D01*
X104445238Y-108588095D01*
X104445238Y-107907142D02*
X104383333Y-107783333D01*
X104259523Y-107721428D01*
X104073809Y-107721428D01*
X103950000Y-107783333D01*
X103888095Y-107907142D01*
X103888095Y-108588095D01*
X119735714Y-67721428D02*
X119488095Y-68588095D01*
X119240476Y-67969047D01*
X118992857Y-68588095D01*
X118745238Y-67721428D01*
X118373809Y-67721428D02*
X118126190Y-68588095D01*
X117878571Y-67969047D01*
X117630952Y-68588095D01*
X117383333Y-67721428D01*
X117011904Y-67721428D02*
X116764285Y-68588095D01*
X116516666Y-67969047D01*
X116269047Y-68588095D01*
X116021428Y-67721428D01*
X115526190Y-68464285D02*
X115464285Y-68526190D01*
X115526190Y-68588095D01*
X115588095Y-68526190D01*
X115526190Y-68464285D01*
X115526190Y-68588095D01*
X114969047Y-68526190D02*
X114845238Y-68588095D01*
X114597619Y-68588095D01*
X114473809Y-68526190D01*
X114411904Y-68402380D01*
X114411904Y-68340476D01*
X114473809Y-68216666D01*
X114597619Y-68154761D01*
X114783333Y-68154761D01*
X114907142Y-68092857D01*
X114969047Y-67969047D01*
X114969047Y-67907142D01*
X114907142Y-67783333D01*
X114783333Y-67721428D01*
X114597619Y-67721428D01*
X114473809Y-67783333D01*
X113854761Y-68588095D02*
X113854761Y-67288095D01*
X113297619Y-68588095D02*
X113297619Y-67907142D01*
X113359523Y-67783333D01*
X113483333Y-67721428D01*
X113669047Y-67721428D01*
X113792857Y-67783333D01*
X113854761Y-67845238D01*
X112678571Y-68588095D02*
X112678571Y-67721428D01*
X112678571Y-67969047D02*
X112616666Y-67845238D01*
X112554761Y-67783333D01*
X112430952Y-67721428D01*
X112307142Y-67721428D01*
X111316666Y-68588095D02*
X111316666Y-67288095D01*
X111316666Y-68526190D02*
X111440476Y-68588095D01*
X111688095Y-68588095D01*
X111811904Y-68526190D01*
X111873809Y-68464285D01*
X111935714Y-68340476D01*
X111935714Y-67969047D01*
X111873809Y-67845238D01*
X111811904Y-67783333D01*
X111688095Y-67721428D01*
X111440476Y-67721428D01*
X111316666Y-67783333D01*
X110821428Y-67721428D02*
X110140476Y-67721428D01*
X110821428Y-68588095D01*
X110140476Y-68588095D01*
X109645238Y-68588095D02*
X109645238Y-67721428D01*
X109645238Y-67845238D02*
X109583333Y-67783333D01*
X109459523Y-67721428D01*
X109273809Y-67721428D01*
X109150000Y-67783333D01*
X109088095Y-67907142D01*
X109088095Y-68588095D01*
X109088095Y-67907142D02*
X109026190Y-67783333D01*
X108902380Y-67721428D01*
X108716666Y-67721428D01*
X108592857Y-67783333D01*
X108530952Y-67907142D01*
X108530952Y-68588095D01*
X107911904Y-68464285D02*
X107850000Y-68526190D01*
X107911904Y-68588095D01*
X107973809Y-68526190D01*
X107911904Y-68464285D01*
X107911904Y-68588095D01*
X106735714Y-68526190D02*
X106859523Y-68588095D01*
X107107142Y-68588095D01*
X107230952Y-68526190D01*
X107292857Y-68464285D01*
X107354761Y-68340476D01*
X107354761Y-67969047D01*
X107292857Y-67845238D01*
X107230952Y-67783333D01*
X107107142Y-67721428D01*
X106859523Y-67721428D01*
X106735714Y-67783333D01*
X105992857Y-68588095D02*
X106116666Y-68526190D01*
X106178571Y-68464285D01*
X106240476Y-68340476D01*
X106240476Y-67969047D01*
X106178571Y-67845238D01*
X106116666Y-67783333D01*
X105992857Y-67721428D01*
X105807142Y-67721428D01*
X105683333Y-67783333D01*
X105621428Y-67845238D01*
X105559523Y-67969047D01*
X105559523Y-68340476D01*
X105621428Y-68464285D01*
X105683333Y-68526190D01*
X105807142Y-68588095D01*
X105992857Y-68588095D01*
X105002380Y-68588095D02*
X105002380Y-67721428D01*
X105002380Y-67845238D02*
X104940476Y-67783333D01*
X104816666Y-67721428D01*
X104630952Y-67721428D01*
X104507142Y-67783333D01*
X104445238Y-67907142D01*
X104445238Y-68588095D01*
X104445238Y-67907142D02*
X104383333Y-67783333D01*
X104259523Y-67721428D01*
X104073809Y-67721428D01*
X103950000Y-67783333D01*
X103888095Y-67907142D01*
X103888095Y-68588095D01*
X119735714Y-87721428D02*
X119488095Y-88588095D01*
X119240476Y-87969047D01*
X118992857Y-88588095D01*
X118745238Y-87721428D01*
X118373809Y-87721428D02*
X118126190Y-88588095D01*
X117878571Y-87969047D01*
X117630952Y-88588095D01*
X117383333Y-87721428D01*
X117011904Y-87721428D02*
X116764285Y-88588095D01*
X116516666Y-87969047D01*
X116269047Y-88588095D01*
X116021428Y-87721428D01*
X115526190Y-88464285D02*
X115464285Y-88526190D01*
X115526190Y-88588095D01*
X115588095Y-88526190D01*
X115526190Y-88464285D01*
X115526190Y-88588095D01*
X114969047Y-88526190D02*
X114845238Y-88588095D01*
X114597619Y-88588095D01*
X114473809Y-88526190D01*
X114411904Y-88402380D01*
X114411904Y-88340476D01*
X114473809Y-88216666D01*
X114597619Y-88154761D01*
X114783333Y-88154761D01*
X114907142Y-88092857D01*
X114969047Y-87969047D01*
X114969047Y-87907142D01*
X114907142Y-87783333D01*
X114783333Y-87721428D01*
X114597619Y-87721428D01*
X114473809Y-87783333D01*
X113854761Y-88588095D02*
X113854761Y-87288095D01*
X113297619Y-88588095D02*
X113297619Y-87907142D01*
X113359523Y-87783333D01*
X113483333Y-87721428D01*
X113669047Y-87721428D01*
X113792857Y-87783333D01*
X113854761Y-87845238D01*
X112678571Y-88588095D02*
X112678571Y-87721428D01*
X112678571Y-87969047D02*
X112616666Y-87845238D01*
X112554761Y-87783333D01*
X112430952Y-87721428D01*
X112307142Y-87721428D01*
X111316666Y-88588095D02*
X111316666Y-87288095D01*
X111316666Y-88526190D02*
X111440476Y-88588095D01*
X111688095Y-88588095D01*
X111811904Y-88526190D01*
X111873809Y-88464285D01*
X111935714Y-88340476D01*
X111935714Y-87969047D01*
X111873809Y-87845238D01*
X111811904Y-87783333D01*
X111688095Y-87721428D01*
X111440476Y-87721428D01*
X111316666Y-87783333D01*
X110821428Y-87721428D02*
X110140476Y-87721428D01*
X110821428Y-88588095D01*
X110140476Y-88588095D01*
X109645238Y-88588095D02*
X109645238Y-87721428D01*
X109645238Y-87845238D02*
X109583333Y-87783333D01*
X109459523Y-87721428D01*
X109273809Y-87721428D01*
X109150000Y-87783333D01*
X109088095Y-87907142D01*
X109088095Y-88588095D01*
X109088095Y-87907142D02*
X109026190Y-87783333D01*
X108902380Y-87721428D01*
X108716666Y-87721428D01*
X108592857Y-87783333D01*
X108530952Y-87907142D01*
X108530952Y-88588095D01*
X107911904Y-88464285D02*
X107850000Y-88526190D01*
X107911904Y-88588095D01*
X107973809Y-88526190D01*
X107911904Y-88464285D01*
X107911904Y-88588095D01*
X106735714Y-88526190D02*
X106859523Y-88588095D01*
X107107142Y-88588095D01*
X107230952Y-88526190D01*
X107292857Y-88464285D01*
X107354761Y-88340476D01*
X107354761Y-87969047D01*
X107292857Y-87845238D01*
X107230952Y-87783333D01*
X107107142Y-87721428D01*
X106859523Y-87721428D01*
X106735714Y-87783333D01*
X105992857Y-88588095D02*
X106116666Y-88526190D01*
X106178571Y-88464285D01*
X106240476Y-88340476D01*
X106240476Y-87969047D01*
X106178571Y-87845238D01*
X106116666Y-87783333D01*
X105992857Y-87721428D01*
X105807142Y-87721428D01*
X105683333Y-87783333D01*
X105621428Y-87845238D01*
X105559523Y-87969047D01*
X105559523Y-88340476D01*
X105621428Y-88464285D01*
X105683333Y-88526190D01*
X105807142Y-88588095D01*
X105992857Y-88588095D01*
X105002380Y-88588095D02*
X105002380Y-87721428D01*
X105002380Y-87845238D02*
X104940476Y-87783333D01*
X104816666Y-87721428D01*
X104630952Y-87721428D01*
X104507142Y-87783333D01*
X104445238Y-87907142D01*
X104445238Y-88588095D01*
X104445238Y-87907142D02*
X104383333Y-87783333D01*
X104259523Y-87721428D01*
X104073809Y-87721428D01*
X103950000Y-87783333D01*
X103888095Y-87907142D01*
X103888095Y-88588095D01*
X119735714Y-47721428D02*
X119488095Y-48588095D01*
X119240476Y-47969047D01*
X118992857Y-48588095D01*
X118745238Y-47721428D01*
X118373809Y-47721428D02*
X118126190Y-48588095D01*
X117878571Y-47969047D01*
X117630952Y-48588095D01*
X117383333Y-47721428D01*
X117011904Y-47721428D02*
X116764285Y-48588095D01*
X116516666Y-47969047D01*
X116269047Y-48588095D01*
X116021428Y-47721428D01*
X115526190Y-48464285D02*
X115464285Y-48526190D01*
X115526190Y-48588095D01*
X115588095Y-48526190D01*
X115526190Y-48464285D01*
X115526190Y-48588095D01*
X114969047Y-48526190D02*
X114845238Y-48588095D01*
X114597619Y-48588095D01*
X114473809Y-48526190D01*
X114411904Y-48402380D01*
X114411904Y-48340476D01*
X114473809Y-48216666D01*
X114597619Y-48154761D01*
X114783333Y-48154761D01*
X114907142Y-48092857D01*
X114969047Y-47969047D01*
X114969047Y-47907142D01*
X114907142Y-47783333D01*
X114783333Y-47721428D01*
X114597619Y-47721428D01*
X114473809Y-47783333D01*
X113854761Y-48588095D02*
X113854761Y-47288095D01*
X113297619Y-48588095D02*
X113297619Y-47907142D01*
X113359523Y-47783333D01*
X113483333Y-47721428D01*
X113669047Y-47721428D01*
X113792857Y-47783333D01*
X113854761Y-47845238D01*
X112678571Y-48588095D02*
X112678571Y-47721428D01*
X112678571Y-47969047D02*
X112616666Y-47845238D01*
X112554761Y-47783333D01*
X112430952Y-47721428D01*
X112307142Y-47721428D01*
X111316666Y-48588095D02*
X111316666Y-47288095D01*
X111316666Y-48526190D02*
X111440476Y-48588095D01*
X111688095Y-48588095D01*
X111811904Y-48526190D01*
X111873809Y-48464285D01*
X111935714Y-48340476D01*
X111935714Y-47969047D01*
X111873809Y-47845238D01*
X111811904Y-47783333D01*
X111688095Y-47721428D01*
X111440476Y-47721428D01*
X111316666Y-47783333D01*
X110821428Y-47721428D02*
X110140476Y-47721428D01*
X110821428Y-48588095D01*
X110140476Y-48588095D01*
X109645238Y-48588095D02*
X109645238Y-47721428D01*
X109645238Y-47845238D02*
X109583333Y-47783333D01*
X109459523Y-47721428D01*
X109273809Y-47721428D01*
X109150000Y-47783333D01*
X109088095Y-47907142D01*
X109088095Y-48588095D01*
X109088095Y-47907142D02*
X109026190Y-47783333D01*
X108902380Y-47721428D01*
X108716666Y-47721428D01*
X108592857Y-47783333D01*
X108530952Y-47907142D01*
X108530952Y-48588095D01*
X107911904Y-48464285D02*
X107850000Y-48526190D01*
X107911904Y-48588095D01*
X107973809Y-48526190D01*
X107911904Y-48464285D01*
X107911904Y-48588095D01*
X106735714Y-48526190D02*
X106859523Y-48588095D01*
X107107142Y-48588095D01*
X107230952Y-48526190D01*
X107292857Y-48464285D01*
X107354761Y-48340476D01*
X107354761Y-47969047D01*
X107292857Y-47845238D01*
X107230952Y-47783333D01*
X107107142Y-47721428D01*
X106859523Y-47721428D01*
X106735714Y-47783333D01*
X105992857Y-48588095D02*
X106116666Y-48526190D01*
X106178571Y-48464285D01*
X106240476Y-48340476D01*
X106240476Y-47969047D01*
X106178571Y-47845238D01*
X106116666Y-47783333D01*
X105992857Y-47721428D01*
X105807142Y-47721428D01*
X105683333Y-47783333D01*
X105621428Y-47845238D01*
X105559523Y-47969047D01*
X105559523Y-48340476D01*
X105621428Y-48464285D01*
X105683333Y-48526190D01*
X105807142Y-48588095D01*
X105992857Y-48588095D01*
X105002380Y-48588095D02*
X105002380Y-47721428D01*
X105002380Y-47845238D02*
X104940476Y-47783333D01*
X104816666Y-47721428D01*
X104630952Y-47721428D01*
X104507142Y-47783333D01*
X104445238Y-47907142D01*
X104445238Y-48588095D01*
X104445238Y-47907142D02*
X104383333Y-47783333D01*
X104259523Y-47721428D01*
X104073809Y-47721428D01*
X103950000Y-47783333D01*
X103888095Y-47907142D01*
X103888095Y-48588095D01*
X69735714Y-127721428D02*
X69488095Y-128588095D01*
X69240476Y-127969047D01*
X68992857Y-128588095D01*
X68745238Y-127721428D01*
X68373809Y-127721428D02*
X68126190Y-128588095D01*
X67878571Y-127969047D01*
X67630952Y-128588095D01*
X67383333Y-127721428D01*
X67011904Y-127721428D02*
X66764285Y-128588095D01*
X66516666Y-127969047D01*
X66269047Y-128588095D01*
X66021428Y-127721428D01*
X65526190Y-128464285D02*
X65464285Y-128526190D01*
X65526190Y-128588095D01*
X65588095Y-128526190D01*
X65526190Y-128464285D01*
X65526190Y-128588095D01*
X64969047Y-128526190D02*
X64845238Y-128588095D01*
X64597619Y-128588095D01*
X64473809Y-128526190D01*
X64411904Y-128402380D01*
X64411904Y-128340476D01*
X64473809Y-128216666D01*
X64597619Y-128154761D01*
X64783333Y-128154761D01*
X64907142Y-128092857D01*
X64969047Y-127969047D01*
X64969047Y-127907142D01*
X64907142Y-127783333D01*
X64783333Y-127721428D01*
X64597619Y-127721428D01*
X64473809Y-127783333D01*
X63854761Y-128588095D02*
X63854761Y-127288095D01*
X63297619Y-128588095D02*
X63297619Y-127907142D01*
X63359523Y-127783333D01*
X63483333Y-127721428D01*
X63669047Y-127721428D01*
X63792857Y-127783333D01*
X63854761Y-127845238D01*
X62678571Y-128588095D02*
X62678571Y-127721428D01*
X62678571Y-127969047D02*
X62616666Y-127845238D01*
X62554761Y-127783333D01*
X62430952Y-127721428D01*
X62307142Y-127721428D01*
X61316666Y-128588095D02*
X61316666Y-127288095D01*
X61316666Y-128526190D02*
X61440476Y-128588095D01*
X61688095Y-128588095D01*
X61811904Y-128526190D01*
X61873809Y-128464285D01*
X61935714Y-128340476D01*
X61935714Y-127969047D01*
X61873809Y-127845238D01*
X61811904Y-127783333D01*
X61688095Y-127721428D01*
X61440476Y-127721428D01*
X61316666Y-127783333D01*
X60821428Y-127721428D02*
X60140476Y-127721428D01*
X60821428Y-128588095D01*
X60140476Y-128588095D01*
X59645238Y-128588095D02*
X59645238Y-127721428D01*
X59645238Y-127845238D02*
X59583333Y-127783333D01*
X59459523Y-127721428D01*
X59273809Y-127721428D01*
X59150000Y-127783333D01*
X59088095Y-127907142D01*
X59088095Y-128588095D01*
X59088095Y-127907142D02*
X59026190Y-127783333D01*
X58902380Y-127721428D01*
X58716666Y-127721428D01*
X58592857Y-127783333D01*
X58530952Y-127907142D01*
X58530952Y-128588095D01*
X57911904Y-128464285D02*
X57850000Y-128526190D01*
X57911904Y-128588095D01*
X57973809Y-128526190D01*
X57911904Y-128464285D01*
X57911904Y-128588095D01*
X56735714Y-128526190D02*
X56859523Y-128588095D01*
X57107142Y-128588095D01*
X57230952Y-128526190D01*
X57292857Y-128464285D01*
X57354761Y-128340476D01*
X57354761Y-127969047D01*
X57292857Y-127845238D01*
X57230952Y-127783333D01*
X57107142Y-127721428D01*
X56859523Y-127721428D01*
X56735714Y-127783333D01*
X55992857Y-128588095D02*
X56116666Y-128526190D01*
X56178571Y-128464285D01*
X56240476Y-128340476D01*
X56240476Y-127969047D01*
X56178571Y-127845238D01*
X56116666Y-127783333D01*
X55992857Y-127721428D01*
X55807142Y-127721428D01*
X55683333Y-127783333D01*
X55621428Y-127845238D01*
X55559523Y-127969047D01*
X55559523Y-128340476D01*
X55621428Y-128464285D01*
X55683333Y-128526190D01*
X55807142Y-128588095D01*
X55992857Y-128588095D01*
X55002380Y-128588095D02*
X55002380Y-127721428D01*
X55002380Y-127845238D02*
X54940476Y-127783333D01*
X54816666Y-127721428D01*
X54630952Y-127721428D01*
X54507142Y-127783333D01*
X54445238Y-127907142D01*
X54445238Y-128588095D01*
X54445238Y-127907142D02*
X54383333Y-127783333D01*
X54259523Y-127721428D01*
X54073809Y-127721428D01*
X53950000Y-127783333D01*
X53888095Y-127907142D01*
X53888095Y-128588095D01*
X69735714Y-107721428D02*
X69488095Y-108588095D01*
X69240476Y-107969047D01*
X68992857Y-108588095D01*
X68745238Y-107721428D01*
X68373809Y-107721428D02*
X68126190Y-108588095D01*
X67878571Y-107969047D01*
X67630952Y-108588095D01*
X67383333Y-107721428D01*
X67011904Y-107721428D02*
X66764285Y-108588095D01*
X66516666Y-107969047D01*
X66269047Y-108588095D01*
X66021428Y-107721428D01*
X65526190Y-108464285D02*
X65464285Y-108526190D01*
X65526190Y-108588095D01*
X65588095Y-108526190D01*
X65526190Y-108464285D01*
X65526190Y-108588095D01*
X64969047Y-108526190D02*
X64845238Y-108588095D01*
X64597619Y-108588095D01*
X64473809Y-108526190D01*
X64411904Y-108402380D01*
X64411904Y-108340476D01*
X64473809Y-108216666D01*
X64597619Y-108154761D01*
X64783333Y-108154761D01*
X64907142Y-108092857D01*
X64969047Y-107969047D01*
X64969047Y-107907142D01*
X64907142Y-107783333D01*
X64783333Y-107721428D01*
X64597619Y-107721428D01*
X64473809Y-107783333D01*
X63854761Y-108588095D02*
X63854761Y-107288095D01*
X63297619Y-108588095D02*
X63297619Y-107907142D01*
X63359523Y-107783333D01*
X63483333Y-107721428D01*
X63669047Y-107721428D01*
X63792857Y-107783333D01*
X63854761Y-107845238D01*
X62678571Y-108588095D02*
X62678571Y-107721428D01*
X62678571Y-107969047D02*
X62616666Y-107845238D01*
X62554761Y-107783333D01*
X62430952Y-107721428D01*
X62307142Y-107721428D01*
X61316666Y-108588095D02*
X61316666Y-107288095D01*
X61316666Y-108526190D02*
X61440476Y-108588095D01*
X61688095Y-108588095D01*
X61811904Y-108526190D01*
X61873809Y-108464285D01*
X61935714Y-108340476D01*
X61935714Y-107969047D01*
X61873809Y-107845238D01*
X61811904Y-107783333D01*
X61688095Y-107721428D01*
X61440476Y-107721428D01*
X61316666Y-107783333D01*
X60821428Y-107721428D02*
X60140476Y-107721428D01*
X60821428Y-108588095D01*
X60140476Y-108588095D01*
X59645238Y-108588095D02*
X59645238Y-107721428D01*
X59645238Y-107845238D02*
X59583333Y-107783333D01*
X59459523Y-107721428D01*
X59273809Y-107721428D01*
X59150000Y-107783333D01*
X59088095Y-107907142D01*
X59088095Y-108588095D01*
X59088095Y-107907142D02*
X59026190Y-107783333D01*
X58902380Y-107721428D01*
X58716666Y-107721428D01*
X58592857Y-107783333D01*
X58530952Y-107907142D01*
X58530952Y-108588095D01*
X57911904Y-108464285D02*
X57850000Y-108526190D01*
X57911904Y-108588095D01*
X57973809Y-108526190D01*
X57911904Y-108464285D01*
X57911904Y-108588095D01*
X56735714Y-108526190D02*
X56859523Y-108588095D01*
X57107142Y-108588095D01*
X57230952Y-108526190D01*
X57292857Y-108464285D01*
X57354761Y-108340476D01*
X57354761Y-107969047D01*
X57292857Y-107845238D01*
X57230952Y-107783333D01*
X57107142Y-107721428D01*
X56859523Y-107721428D01*
X56735714Y-107783333D01*
X55992857Y-108588095D02*
X56116666Y-108526190D01*
X56178571Y-108464285D01*
X56240476Y-108340476D01*
X56240476Y-107969047D01*
X56178571Y-107845238D01*
X56116666Y-107783333D01*
X55992857Y-107721428D01*
X55807142Y-107721428D01*
X55683333Y-107783333D01*
X55621428Y-107845238D01*
X55559523Y-107969047D01*
X55559523Y-108340476D01*
X55621428Y-108464285D01*
X55683333Y-108526190D01*
X55807142Y-108588095D01*
X55992857Y-108588095D01*
X55002380Y-108588095D02*
X55002380Y-107721428D01*
X55002380Y-107845238D02*
X54940476Y-107783333D01*
X54816666Y-107721428D01*
X54630952Y-107721428D01*
X54507142Y-107783333D01*
X54445238Y-107907142D01*
X54445238Y-108588095D01*
X54445238Y-107907142D02*
X54383333Y-107783333D01*
X54259523Y-107721428D01*
X54073809Y-107721428D01*
X53950000Y-107783333D01*
X53888095Y-107907142D01*
X53888095Y-108588095D01*
X69735714Y-87721428D02*
X69488095Y-88588095D01*
X69240476Y-87969047D01*
X68992857Y-88588095D01*
X68745238Y-87721428D01*
X68373809Y-87721428D02*
X68126190Y-88588095D01*
X67878571Y-87969047D01*
X67630952Y-88588095D01*
X67383333Y-87721428D01*
X67011904Y-87721428D02*
X66764285Y-88588095D01*
X66516666Y-87969047D01*
X66269047Y-88588095D01*
X66021428Y-87721428D01*
X65526190Y-88464285D02*
X65464285Y-88526190D01*
X65526190Y-88588095D01*
X65588095Y-88526190D01*
X65526190Y-88464285D01*
X65526190Y-88588095D01*
X64969047Y-88526190D02*
X64845238Y-88588095D01*
X64597619Y-88588095D01*
X64473809Y-88526190D01*
X64411904Y-88402380D01*
X64411904Y-88340476D01*
X64473809Y-88216666D01*
X64597619Y-88154761D01*
X64783333Y-88154761D01*
X64907142Y-88092857D01*
X64969047Y-87969047D01*
X64969047Y-87907142D01*
X64907142Y-87783333D01*
X64783333Y-87721428D01*
X64597619Y-87721428D01*
X64473809Y-87783333D01*
X63854761Y-88588095D02*
X63854761Y-87288095D01*
X63297619Y-88588095D02*
X63297619Y-87907142D01*
X63359523Y-87783333D01*
X63483333Y-87721428D01*
X63669047Y-87721428D01*
X63792857Y-87783333D01*
X63854761Y-87845238D01*
X62678571Y-88588095D02*
X62678571Y-87721428D01*
X62678571Y-87969047D02*
X62616666Y-87845238D01*
X62554761Y-87783333D01*
X62430952Y-87721428D01*
X62307142Y-87721428D01*
X61316666Y-88588095D02*
X61316666Y-87288095D01*
X61316666Y-88526190D02*
X61440476Y-88588095D01*
X61688095Y-88588095D01*
X61811904Y-88526190D01*
X61873809Y-88464285D01*
X61935714Y-88340476D01*
X61935714Y-87969047D01*
X61873809Y-87845238D01*
X61811904Y-87783333D01*
X61688095Y-87721428D01*
X61440476Y-87721428D01*
X61316666Y-87783333D01*
X60821428Y-87721428D02*
X60140476Y-87721428D01*
X60821428Y-88588095D01*
X60140476Y-88588095D01*
X59645238Y-88588095D02*
X59645238Y-87721428D01*
X59645238Y-87845238D02*
X59583333Y-87783333D01*
X59459523Y-87721428D01*
X59273809Y-87721428D01*
X59150000Y-87783333D01*
X59088095Y-87907142D01*
X59088095Y-88588095D01*
X59088095Y-87907142D02*
X59026190Y-87783333D01*
X58902380Y-87721428D01*
X58716666Y-87721428D01*
X58592857Y-87783333D01*
X58530952Y-87907142D01*
X58530952Y-88588095D01*
X57911904Y-88464285D02*
X57850000Y-88526190D01*
X57911904Y-88588095D01*
X57973809Y-88526190D01*
X57911904Y-88464285D01*
X57911904Y-88588095D01*
X56735714Y-88526190D02*
X56859523Y-88588095D01*
X57107142Y-88588095D01*
X57230952Y-88526190D01*
X57292857Y-88464285D01*
X57354761Y-88340476D01*
X57354761Y-87969047D01*
X57292857Y-87845238D01*
X57230952Y-87783333D01*
X57107142Y-87721428D01*
X56859523Y-87721428D01*
X56735714Y-87783333D01*
X55992857Y-88588095D02*
X56116666Y-88526190D01*
X56178571Y-88464285D01*
X56240476Y-88340476D01*
X56240476Y-87969047D01*
X56178571Y-87845238D01*
X56116666Y-87783333D01*
X55992857Y-87721428D01*
X55807142Y-87721428D01*
X55683333Y-87783333D01*
X55621428Y-87845238D01*
X55559523Y-87969047D01*
X55559523Y-88340476D01*
X55621428Y-88464285D01*
X55683333Y-88526190D01*
X55807142Y-88588095D01*
X55992857Y-88588095D01*
X55002380Y-88588095D02*
X55002380Y-87721428D01*
X55002380Y-87845238D02*
X54940476Y-87783333D01*
X54816666Y-87721428D01*
X54630952Y-87721428D01*
X54507142Y-87783333D01*
X54445238Y-87907142D01*
X54445238Y-88588095D01*
X54445238Y-87907142D02*
X54383333Y-87783333D01*
X54259523Y-87721428D01*
X54073809Y-87721428D01*
X53950000Y-87783333D01*
X53888095Y-87907142D01*
X53888095Y-88588095D01*
X69735714Y-67721428D02*
X69488095Y-68588095D01*
X69240476Y-67969047D01*
X68992857Y-68588095D01*
X68745238Y-67721428D01*
X68373809Y-67721428D02*
X68126190Y-68588095D01*
X67878571Y-67969047D01*
X67630952Y-68588095D01*
X67383333Y-67721428D01*
X67011904Y-67721428D02*
X66764285Y-68588095D01*
X66516666Y-67969047D01*
X66269047Y-68588095D01*
X66021428Y-67721428D01*
X65526190Y-68464285D02*
X65464285Y-68526190D01*
X65526190Y-68588095D01*
X65588095Y-68526190D01*
X65526190Y-68464285D01*
X65526190Y-68588095D01*
X64969047Y-68526190D02*
X64845238Y-68588095D01*
X64597619Y-68588095D01*
X64473809Y-68526190D01*
X64411904Y-68402380D01*
X64411904Y-68340476D01*
X64473809Y-68216666D01*
X64597619Y-68154761D01*
X64783333Y-68154761D01*
X64907142Y-68092857D01*
X64969047Y-67969047D01*
X64969047Y-67907142D01*
X64907142Y-67783333D01*
X64783333Y-67721428D01*
X64597619Y-67721428D01*
X64473809Y-67783333D01*
X63854761Y-68588095D02*
X63854761Y-67288095D01*
X63297619Y-68588095D02*
X63297619Y-67907142D01*
X63359523Y-67783333D01*
X63483333Y-67721428D01*
X63669047Y-67721428D01*
X63792857Y-67783333D01*
X63854761Y-67845238D01*
X62678571Y-68588095D02*
X62678571Y-67721428D01*
X62678571Y-67969047D02*
X62616666Y-67845238D01*
X62554761Y-67783333D01*
X62430952Y-67721428D01*
X62307142Y-67721428D01*
X61316666Y-68588095D02*
X61316666Y-67288095D01*
X61316666Y-68526190D02*
X61440476Y-68588095D01*
X61688095Y-68588095D01*
X61811904Y-68526190D01*
X61873809Y-68464285D01*
X61935714Y-68340476D01*
X61935714Y-67969047D01*
X61873809Y-67845238D01*
X61811904Y-67783333D01*
X61688095Y-67721428D01*
X61440476Y-67721428D01*
X61316666Y-67783333D01*
X60821428Y-67721428D02*
X60140476Y-67721428D01*
X60821428Y-68588095D01*
X60140476Y-68588095D01*
X59645238Y-68588095D02*
X59645238Y-67721428D01*
X59645238Y-67845238D02*
X59583333Y-67783333D01*
X59459523Y-67721428D01*
X59273809Y-67721428D01*
X59150000Y-67783333D01*
X59088095Y-67907142D01*
X59088095Y-68588095D01*
X59088095Y-67907142D02*
X59026190Y-67783333D01*
X58902380Y-67721428D01*
X58716666Y-67721428D01*
X58592857Y-67783333D01*
X58530952Y-67907142D01*
X58530952Y-68588095D01*
X57911904Y-68464285D02*
X57850000Y-68526190D01*
X57911904Y-68588095D01*
X57973809Y-68526190D01*
X57911904Y-68464285D01*
X57911904Y-68588095D01*
X56735714Y-68526190D02*
X56859523Y-68588095D01*
X57107142Y-68588095D01*
X57230952Y-68526190D01*
X57292857Y-68464285D01*
X57354761Y-68340476D01*
X57354761Y-67969047D01*
X57292857Y-67845238D01*
X57230952Y-67783333D01*
X57107142Y-67721428D01*
X56859523Y-67721428D01*
X56735714Y-67783333D01*
X55992857Y-68588095D02*
X56116666Y-68526190D01*
X56178571Y-68464285D01*
X56240476Y-68340476D01*
X56240476Y-67969047D01*
X56178571Y-67845238D01*
X56116666Y-67783333D01*
X55992857Y-67721428D01*
X55807142Y-67721428D01*
X55683333Y-67783333D01*
X55621428Y-67845238D01*
X55559523Y-67969047D01*
X55559523Y-68340476D01*
X55621428Y-68464285D01*
X55683333Y-68526190D01*
X55807142Y-68588095D01*
X55992857Y-68588095D01*
X55002380Y-68588095D02*
X55002380Y-67721428D01*
X55002380Y-67845238D02*
X54940476Y-67783333D01*
X54816666Y-67721428D01*
X54630952Y-67721428D01*
X54507142Y-67783333D01*
X54445238Y-67907142D01*
X54445238Y-68588095D01*
X54445238Y-67907142D02*
X54383333Y-67783333D01*
X54259523Y-67721428D01*
X54073809Y-67721428D01*
X53950000Y-67783333D01*
X53888095Y-67907142D01*
X53888095Y-68588095D01*
X69735714Y-47721428D02*
X69488095Y-48588095D01*
X69240476Y-47969047D01*
X68992857Y-48588095D01*
X68745238Y-47721428D01*
X68373809Y-47721428D02*
X68126190Y-48588095D01*
X67878571Y-47969047D01*
X67630952Y-48588095D01*
X67383333Y-47721428D01*
X67011904Y-47721428D02*
X66764285Y-48588095D01*
X66516666Y-47969047D01*
X66269047Y-48588095D01*
X66021428Y-47721428D01*
X65526190Y-48464285D02*
X65464285Y-48526190D01*
X65526190Y-48588095D01*
X65588095Y-48526190D01*
X65526190Y-48464285D01*
X65526190Y-48588095D01*
X64969047Y-48526190D02*
X64845238Y-48588095D01*
X64597619Y-48588095D01*
X64473809Y-48526190D01*
X64411904Y-48402380D01*
X64411904Y-48340476D01*
X64473809Y-48216666D01*
X64597619Y-48154761D01*
X64783333Y-48154761D01*
X64907142Y-48092857D01*
X64969047Y-47969047D01*
X64969047Y-47907142D01*
X64907142Y-47783333D01*
X64783333Y-47721428D01*
X64597619Y-47721428D01*
X64473809Y-47783333D01*
X63854761Y-48588095D02*
X63854761Y-47288095D01*
X63297619Y-48588095D02*
X63297619Y-47907142D01*
X63359523Y-47783333D01*
X63483333Y-47721428D01*
X63669047Y-47721428D01*
X63792857Y-47783333D01*
X63854761Y-47845238D01*
X62678571Y-48588095D02*
X62678571Y-47721428D01*
X62678571Y-47969047D02*
X62616666Y-47845238D01*
X62554761Y-47783333D01*
X62430952Y-47721428D01*
X62307142Y-47721428D01*
X61316666Y-48588095D02*
X61316666Y-47288095D01*
X61316666Y-48526190D02*
X61440476Y-48588095D01*
X61688095Y-48588095D01*
X61811904Y-48526190D01*
X61873809Y-48464285D01*
X61935714Y-48340476D01*
X61935714Y-47969047D01*
X61873809Y-47845238D01*
X61811904Y-47783333D01*
X61688095Y-47721428D01*
X61440476Y-47721428D01*
X61316666Y-47783333D01*
X60821428Y-47721428D02*
X60140476Y-47721428D01*
X60821428Y-48588095D01*
X60140476Y-48588095D01*
X59645238Y-48588095D02*
X59645238Y-47721428D01*
X59645238Y-47845238D02*
X59583333Y-47783333D01*
X59459523Y-47721428D01*
X59273809Y-47721428D01*
X59150000Y-47783333D01*
X59088095Y-47907142D01*
X59088095Y-48588095D01*
X59088095Y-47907142D02*
X59026190Y-47783333D01*
X58902380Y-47721428D01*
X58716666Y-47721428D01*
X58592857Y-47783333D01*
X58530952Y-47907142D01*
X58530952Y-48588095D01*
X57911904Y-48464285D02*
X57850000Y-48526190D01*
X57911904Y-48588095D01*
X57973809Y-48526190D01*
X57911904Y-48464285D01*
X57911904Y-48588095D01*
X56735714Y-48526190D02*
X56859523Y-48588095D01*
X57107142Y-48588095D01*
X57230952Y-48526190D01*
X57292857Y-48464285D01*
X57354761Y-48340476D01*
X57354761Y-47969047D01*
X57292857Y-47845238D01*
X57230952Y-47783333D01*
X57107142Y-47721428D01*
X56859523Y-47721428D01*
X56735714Y-47783333D01*
X55992857Y-48588095D02*
X56116666Y-48526190D01*
X56178571Y-48464285D01*
X56240476Y-48340476D01*
X56240476Y-47969047D01*
X56178571Y-47845238D01*
X56116666Y-47783333D01*
X55992857Y-47721428D01*
X55807142Y-47721428D01*
X55683333Y-47783333D01*
X55621428Y-47845238D01*
X55559523Y-47969047D01*
X55559523Y-48340476D01*
X55621428Y-48464285D01*
X55683333Y-48526190D01*
X55807142Y-48588095D01*
X55992857Y-48588095D01*
X55002380Y-48588095D02*
X55002380Y-47721428D01*
X55002380Y-47845238D02*
X54940476Y-47783333D01*
X54816666Y-47721428D01*
X54630952Y-47721428D01*
X54507142Y-47783333D01*
X54445238Y-47907142D01*
X54445238Y-48588095D01*
X54445238Y-47907142D02*
X54383333Y-47783333D01*
X54259523Y-47721428D01*
X54073809Y-47721428D01*
X53950000Y-47783333D01*
X53888095Y-47907142D01*
X53888095Y-48588095D01*
D11*
%TO.C,G1*%
G36*
X106661550Y-100394707D02*
G01*
X105582084Y-100590377D01*
X104583879Y-100772039D01*
X103712911Y-100931269D01*
X103015160Y-101059640D01*
X102536604Y-101148729D01*
X102339696Y-101186623D01*
X102062589Y-101281269D01*
X101942331Y-101479158D01*
X101916363Y-101876776D01*
X101938528Y-102257971D01*
X101993768Y-102466807D01*
X102014360Y-102480303D01*
X102185570Y-102453450D01*
X102619893Y-102377650D01*
X103277714Y-102260036D01*
X104119419Y-102107745D01*
X105105393Y-101927911D01*
X106196021Y-101727669D01*
X106324663Y-101703968D01*
X110536969Y-100927634D01*
X114749276Y-101703968D01*
X115854042Y-101906459D01*
X116863046Y-102089259D01*
X117735726Y-102245193D01*
X118431519Y-102367081D01*
X118909864Y-102447748D01*
X119130199Y-102480014D01*
X119136549Y-102480303D01*
X119253464Y-102344969D01*
X119310375Y-102011512D01*
X119311515Y-101950600D01*
X119273638Y-101569329D01*
X119181152Y-101342479D01*
X119168231Y-101332343D01*
X118984780Y-101282464D01*
X118538462Y-101185885D01*
X117869400Y-101050543D01*
X117017718Y-100884377D01*
X116023540Y-100695327D01*
X114926990Y-100491329D01*
X114792509Y-100466604D01*
X110560070Y-99689420D01*
X106661550Y-100394707D01*
G37*
X106661550Y-100394707D02*
X105582084Y-100590377D01*
X104583879Y-100772039D01*
X103712911Y-100931269D01*
X103015160Y-101059640D01*
X102536604Y-101148729D01*
X102339696Y-101186623D01*
X102062589Y-101281269D01*
X101942331Y-101479158D01*
X101916363Y-101876776D01*
X101938528Y-102257971D01*
X101993768Y-102466807D01*
X102014360Y-102480303D01*
X102185570Y-102453450D01*
X102619893Y-102377650D01*
X103277714Y-102260036D01*
X104119419Y-102107745D01*
X105105393Y-101927911D01*
X106196021Y-101727669D01*
X106324663Y-101703968D01*
X110536969Y-100927634D01*
X114749276Y-101703968D01*
X115854042Y-101906459D01*
X116863046Y-102089259D01*
X117735726Y-102245193D01*
X118431519Y-102367081D01*
X118909864Y-102447748D01*
X119130199Y-102480014D01*
X119136549Y-102480303D01*
X119253464Y-102344969D01*
X119310375Y-102011512D01*
X119311515Y-101950600D01*
X119273638Y-101569329D01*
X119181152Y-101342479D01*
X119168231Y-101332343D01*
X118984780Y-101282464D01*
X118538462Y-101185885D01*
X117869400Y-101050543D01*
X117017718Y-100884377D01*
X116023540Y-100695327D01*
X114926990Y-100491329D01*
X114792509Y-100466604D01*
X110560070Y-99689420D01*
X106661550Y-100394707D01*
G36*
X104736380Y-103580757D02*
G01*
X104524967Y-103697322D01*
X104348353Y-103979463D01*
X104196399Y-104327575D01*
X104000072Y-104754146D01*
X103834895Y-105033649D01*
X103763636Y-105097272D01*
X103647089Y-104967378D01*
X103467194Y-104633147D01*
X103330873Y-104327575D01*
X103128929Y-103880791D01*
X102950796Y-103651604D01*
X102715477Y-103568124D01*
X102463682Y-103557878D01*
X101916363Y-103557878D01*
X101916363Y-106944545D01*
X102294468Y-106944545D01*
X102490176Y-106926699D01*
X102607127Y-106829298D01*
X102670276Y-106586552D01*
X102704578Y-106132668D01*
X102717801Y-105828484D01*
X102763030Y-104712424D01*
X103128350Y-105520606D01*
X103421514Y-106058425D01*
X103682577Y-106310581D01*
X103763636Y-106328787D01*
X104011024Y-106178941D01*
X104294287Y-105738630D01*
X104398922Y-105520606D01*
X104764242Y-104712424D01*
X104809471Y-105828484D01*
X104838841Y-106404028D01*
X104885356Y-106737584D01*
X104973972Y-106894945D01*
X105129644Y-106941902D01*
X105232804Y-106944545D01*
X105610909Y-106944545D01*
X105610909Y-103557878D01*
X105063590Y-103557878D01*
X104736380Y-103580757D01*
G37*
X104736380Y-103580757D02*
X104524967Y-103697322D01*
X104348353Y-103979463D01*
X104196399Y-104327575D01*
X104000072Y-104754146D01*
X103834895Y-105033649D01*
X103763636Y-105097272D01*
X103647089Y-104967378D01*
X103467194Y-104633147D01*
X103330873Y-104327575D01*
X103128929Y-103880791D01*
X102950796Y-103651604D01*
X102715477Y-103568124D01*
X102463682Y-103557878D01*
X101916363Y-103557878D01*
X101916363Y-106944545D01*
X102294468Y-106944545D01*
X102490176Y-106926699D01*
X102607127Y-106829298D01*
X102670276Y-106586552D01*
X102704578Y-106132668D01*
X102717801Y-105828484D01*
X102763030Y-104712424D01*
X103128350Y-105520606D01*
X103421514Y-106058425D01*
X103682577Y-106310581D01*
X103763636Y-106328787D01*
X104011024Y-106178941D01*
X104294287Y-105738630D01*
X104398922Y-105520606D01*
X104764242Y-104712424D01*
X104809471Y-105828484D01*
X104838841Y-106404028D01*
X104885356Y-106737584D01*
X104973972Y-106894945D01*
X105129644Y-106941902D01*
X105232804Y-106944545D01*
X105610909Y-106944545D01*
X105610909Y-103557878D01*
X105063590Y-103557878D01*
X104736380Y-103580757D01*
G36*
X106991556Y-103574563D02*
G01*
X106510835Y-103647713D01*
X106302993Y-103811976D01*
X106351955Y-104101995D01*
X106641647Y-104552417D01*
X107056545Y-105076753D01*
X107441725Y-105557948D01*
X107738368Y-105948313D01*
X107901800Y-106188158D01*
X107920000Y-106230469D01*
X107780751Y-106284323D01*
X107421561Y-106320034D01*
X107073333Y-106328787D01*
X106584046Y-106342151D01*
X106329155Y-106399929D01*
X106235696Y-106528654D01*
X106226666Y-106636666D01*
X106248749Y-106779762D01*
X106353072Y-106870073D01*
X106596746Y-106919624D01*
X107036880Y-106940438D01*
X107689090Y-106944545D01*
X108372668Y-106938681D01*
X108804507Y-106914080D01*
X109040639Y-106860229D01*
X109137096Y-106766613D01*
X109151515Y-106670136D01*
X109057511Y-106432397D01*
X108806804Y-106035351D01*
X108446352Y-105550582D01*
X108293189Y-105361651D01*
X107434864Y-104327575D01*
X108293189Y-104327575D01*
X108782249Y-104317900D01*
X109038396Y-104266496D01*
X109136489Y-104139801D01*
X109151515Y-103942727D01*
X109140541Y-103760799D01*
X109068190Y-103647724D01*
X108875320Y-103587130D01*
X108502785Y-103562646D01*
X107891444Y-103557900D01*
X107761229Y-103557878D01*
X106991556Y-103574563D01*
G37*
X106991556Y-103574563D02*
X106510835Y-103647713D01*
X106302993Y-103811976D01*
X106351955Y-104101995D01*
X106641647Y-104552417D01*
X107056545Y-105076753D01*
X107441725Y-105557948D01*
X107738368Y-105948313D01*
X107901800Y-106188158D01*
X107920000Y-106230469D01*
X107780751Y-106284323D01*
X107421561Y-106320034D01*
X107073333Y-106328787D01*
X106584046Y-106342151D01*
X106329155Y-106399929D01*
X106235696Y-106528654D01*
X106226666Y-106636666D01*
X106248749Y-106779762D01*
X106353072Y-106870073D01*
X106596746Y-106919624D01*
X107036880Y-106940438D01*
X107689090Y-106944545D01*
X108372668Y-106938681D01*
X108804507Y-106914080D01*
X109040639Y-106860229D01*
X109137096Y-106766613D01*
X109151515Y-106670136D01*
X109057511Y-106432397D01*
X108806804Y-106035351D01*
X108446352Y-105550582D01*
X108293189Y-105361651D01*
X107434864Y-104327575D01*
X108293189Y-104327575D01*
X108782249Y-104317900D01*
X109038396Y-104266496D01*
X109136489Y-104139801D01*
X109151515Y-103942727D01*
X109140541Y-103760799D01*
X109068190Y-103647724D01*
X108875320Y-103587130D01*
X108502785Y-103562646D01*
X107891444Y-103557900D01*
X107761229Y-103557878D01*
X106991556Y-103574563D01*
G36*
X112037878Y-103558737D02*
G01*
X111071988Y-103652391D01*
X110346338Y-103928210D01*
X109865671Y-104382748D01*
X109634733Y-105012560D01*
X109613333Y-105319914D01*
X109733661Y-105994473D01*
X110096950Y-106487267D01*
X110706656Y-106800801D01*
X111566235Y-106937580D01*
X111855475Y-106944545D01*
X112692121Y-106944545D01*
X112692121Y-105331114D01*
X111768484Y-105331114D01*
X111768484Y-106334653D01*
X111345151Y-106233524D01*
X110961115Y-106105649D01*
X110729393Y-105980833D01*
X110578422Y-105696134D01*
X110545651Y-105268098D01*
X110626210Y-104835602D01*
X110778874Y-104569480D01*
X111122390Y-104376027D01*
X111394632Y-104327575D01*
X111595454Y-104346460D01*
X111707442Y-104449363D01*
X111756441Y-104705657D01*
X111768295Y-105184715D01*
X111768484Y-105331114D01*
X112692121Y-105331114D01*
X112692121Y-103557878D01*
X112037878Y-103558737D01*
G37*
X112037878Y-103558737D02*
X111071988Y-103652391D01*
X110346338Y-103928210D01*
X109865671Y-104382748D01*
X109634733Y-105012560D01*
X109613333Y-105319914D01*
X109733661Y-105994473D01*
X110096950Y-106487267D01*
X110706656Y-106800801D01*
X111566235Y-106937580D01*
X111855475Y-106944545D01*
X112692121Y-106944545D01*
X112692121Y-105331114D01*
X111768484Y-105331114D01*
X111768484Y-106334653D01*
X111345151Y-106233524D01*
X110961115Y-106105649D01*
X110729393Y-105980833D01*
X110578422Y-105696134D01*
X110545651Y-105268098D01*
X110626210Y-104835602D01*
X110778874Y-104569480D01*
X111122390Y-104376027D01*
X111394632Y-104327575D01*
X111595454Y-104346460D01*
X111707442Y-104449363D01*
X111756441Y-104705657D01*
X111768295Y-105184715D01*
X111768484Y-105331114D01*
X112692121Y-105331114D01*
X112692121Y-103557878D01*
X112037878Y-103558737D01*
G36*
X114761891Y-103614157D02*
G01*
X114176456Y-103767601D01*
X113795358Y-103995123D01*
X113736702Y-104067812D01*
X113622926Y-104505003D01*
X113751502Y-104963021D01*
X113860068Y-105112081D01*
X113994110Y-105301740D01*
X113986149Y-105497786D01*
X113818135Y-105800589D01*
X113706128Y-105968119D01*
X113410165Y-106458523D01*
X113330986Y-106762364D01*
X113469438Y-106912528D01*
X113731212Y-106944129D01*
X114056406Y-106874237D01*
X114314776Y-106617405D01*
X114462424Y-106368673D01*
X114715180Y-105996889D01*
X114971816Y-105768078D01*
X115039696Y-105742044D01*
X115214385Y-105763209D01*
X115293196Y-105962421D01*
X115309090Y-106317500D01*
X115326485Y-106716995D01*
X115421636Y-106896410D01*
X115658995Y-106943258D01*
X115770909Y-106944545D01*
X116232727Y-106944545D01*
X116232727Y-104723130D01*
X115309090Y-104723130D01*
X115258836Y-105011451D01*
X115055968Y-105079190D01*
X114962727Y-105069494D01*
X114651515Y-104894194D01*
X114567172Y-104673939D01*
X114587820Y-104415224D01*
X114807492Y-104330681D01*
X114913535Y-104327575D01*
X115211204Y-104386573D01*
X115306171Y-104625294D01*
X115309090Y-104723130D01*
X116232727Y-104723130D01*
X116232727Y-103557878D01*
X115473051Y-103557878D01*
X114761891Y-103614157D01*
G37*
X114761891Y-103614157D02*
X114176456Y-103767601D01*
X113795358Y-103995123D01*
X113736702Y-104067812D01*
X113622926Y-104505003D01*
X113751502Y-104963021D01*
X113860068Y-105112081D01*
X113994110Y-105301740D01*
X113986149Y-105497786D01*
X113818135Y-105800589D01*
X113706128Y-105968119D01*
X113410165Y-106458523D01*
X113330986Y-106762364D01*
X113469438Y-106912528D01*
X113731212Y-106944129D01*
X114056406Y-106874237D01*
X114314776Y-106617405D01*
X114462424Y-106368673D01*
X114715180Y-105996889D01*
X114971816Y-105768078D01*
X115039696Y-105742044D01*
X115214385Y-105763209D01*
X115293196Y-105962421D01*
X115309090Y-106317500D01*
X115326485Y-106716995D01*
X115421636Y-106896410D01*
X115658995Y-106943258D01*
X115770909Y-106944545D01*
X116232727Y-106944545D01*
X116232727Y-104723130D01*
X115309090Y-104723130D01*
X115258836Y-105011451D01*
X115055968Y-105079190D01*
X114962727Y-105069494D01*
X114651515Y-104894194D01*
X114567172Y-104673939D01*
X114587820Y-104415224D01*
X114807492Y-104330681D01*
X114913535Y-104327575D01*
X115211204Y-104386573D01*
X115306171Y-104625294D01*
X115309090Y-104723130D01*
X116232727Y-104723130D01*
X116232727Y-103557878D01*
X115473051Y-103557878D01*
X114761891Y-103614157D01*
G36*
X119323272Y-103582194D02*
G01*
X119191634Y-103713962D01*
X119158304Y-104041414D01*
X119157575Y-104173636D01*
X119157575Y-104789394D01*
X117926060Y-104789394D01*
X117926060Y-104163411D01*
X117909970Y-103766795D01*
X117822498Y-103597616D01*
X117604841Y-103575687D01*
X117502727Y-103586138D01*
X117079393Y-103634848D01*
X117035701Y-105289697D01*
X116992008Y-106944545D01*
X117459034Y-106944545D01*
X117746185Y-106924901D01*
X117882186Y-106810245D01*
X117923389Y-106516991D01*
X117926060Y-106251818D01*
X117926060Y-105559090D01*
X119157575Y-105559090D01*
X119157575Y-106251818D01*
X119170963Y-106677786D01*
X119248259Y-106879539D01*
X119445168Y-106940629D01*
X119619393Y-106944545D01*
X120081212Y-106944545D01*
X120081212Y-103557878D01*
X119619393Y-103557878D01*
X119323272Y-103582194D01*
G37*
X119323272Y-103582194D02*
X119191634Y-103713962D01*
X119158304Y-104041414D01*
X119157575Y-104173636D01*
X119157575Y-104789394D01*
X117926060Y-104789394D01*
X117926060Y-104163411D01*
X117909970Y-103766795D01*
X117822498Y-103597616D01*
X117604841Y-103575687D01*
X117502727Y-103586138D01*
X117079393Y-103634848D01*
X117035701Y-105289697D01*
X116992008Y-106944545D01*
X117459034Y-106944545D01*
X117746185Y-106924901D01*
X117882186Y-106810245D01*
X117923389Y-106516991D01*
X117926060Y-106251818D01*
X117926060Y-105559090D01*
X119157575Y-105559090D01*
X119157575Y-106251818D01*
X119170963Y-106677786D01*
X119248259Y-106879539D01*
X119445168Y-106940629D01*
X119619393Y-106944545D01*
X120081212Y-106944545D01*
X120081212Y-103557878D01*
X119619393Y-103557878D01*
X119323272Y-103582194D01*
G36*
X120889393Y-100423146D02*
G01*
X120459882Y-100810202D01*
X120217448Y-101097202D01*
X120109048Y-101376787D01*
X120081642Y-101741599D01*
X120081212Y-101834661D01*
X120081212Y-102546755D01*
X120893288Y-101744766D01*
X121705365Y-100942777D01*
X122201025Y-101438438D01*
X122696686Y-101934098D01*
X121845270Y-102794492D01*
X120993854Y-103654885D01*
X121037836Y-105310399D01*
X121081818Y-106965914D01*
X121505151Y-106523473D01*
X121733883Y-106250547D01*
X121861695Y-105967593D01*
X121917059Y-105573211D01*
X121928484Y-105015742D01*
X121928484Y-103950453D01*
X123929686Y-101933799D01*
X122813631Y-100828762D01*
X121697575Y-99723725D01*
X120889393Y-100423146D01*
G37*
X120889393Y-100423146D02*
X120459882Y-100810202D01*
X120217448Y-101097202D01*
X120109048Y-101376787D01*
X120081642Y-101741599D01*
X120081212Y-101834661D01*
X120081212Y-102546755D01*
X120893288Y-101744766D01*
X121705365Y-100942777D01*
X122201025Y-101438438D01*
X122696686Y-101934098D01*
X121845270Y-102794492D01*
X120993854Y-103654885D01*
X121037836Y-105310399D01*
X121081818Y-106965914D01*
X121505151Y-106523473D01*
X121733883Y-106250547D01*
X121861695Y-105967593D01*
X121917059Y-105573211D01*
X121928484Y-105015742D01*
X121928484Y-103950453D01*
X123929686Y-101933799D01*
X122813631Y-100828762D01*
X121697575Y-99723725D01*
X120889393Y-100423146D01*
G36*
X120889393Y-120423146D02*
G01*
X120459882Y-120810202D01*
X120217448Y-121097202D01*
X120109048Y-121376787D01*
X120081642Y-121741599D01*
X120081212Y-121834661D01*
X120081212Y-122546755D01*
X120893288Y-121744766D01*
X121705365Y-120942777D01*
X122201025Y-121438438D01*
X122696686Y-121934098D01*
X121845270Y-122794492D01*
X120993854Y-123654885D01*
X121037836Y-125310399D01*
X121081818Y-126965914D01*
X121505151Y-126523473D01*
X121733883Y-126250547D01*
X121861695Y-125967593D01*
X121917059Y-125573211D01*
X121928484Y-125015742D01*
X121928484Y-123950453D01*
X123929686Y-121933799D01*
X122813631Y-120828762D01*
X121697575Y-119723725D01*
X120889393Y-120423146D01*
G37*
X120889393Y-120423146D02*
X120459882Y-120810202D01*
X120217448Y-121097202D01*
X120109048Y-121376787D01*
X120081642Y-121741599D01*
X120081212Y-121834661D01*
X120081212Y-122546755D01*
X120893288Y-121744766D01*
X121705365Y-120942777D01*
X122201025Y-121438438D01*
X122696686Y-121934098D01*
X121845270Y-122794492D01*
X120993854Y-123654885D01*
X121037836Y-125310399D01*
X121081818Y-126965914D01*
X121505151Y-126523473D01*
X121733883Y-126250547D01*
X121861695Y-125967593D01*
X121917059Y-125573211D01*
X121928484Y-125015742D01*
X121928484Y-123950453D01*
X123929686Y-121933799D01*
X122813631Y-120828762D01*
X121697575Y-119723725D01*
X120889393Y-120423146D01*
G36*
X119323272Y-123582194D02*
G01*
X119191634Y-123713962D01*
X119158304Y-124041414D01*
X119157575Y-124173636D01*
X119157575Y-124789394D01*
X117926060Y-124789394D01*
X117926060Y-124163411D01*
X117909970Y-123766795D01*
X117822498Y-123597616D01*
X117604841Y-123575687D01*
X117502727Y-123586138D01*
X117079393Y-123634848D01*
X117035701Y-125289697D01*
X116992008Y-126944545D01*
X117459034Y-126944545D01*
X117746185Y-126924901D01*
X117882186Y-126810245D01*
X117923389Y-126516991D01*
X117926060Y-126251818D01*
X117926060Y-125559090D01*
X119157575Y-125559090D01*
X119157575Y-126251818D01*
X119170963Y-126677786D01*
X119248259Y-126879539D01*
X119445168Y-126940629D01*
X119619393Y-126944545D01*
X120081212Y-126944545D01*
X120081212Y-123557878D01*
X119619393Y-123557878D01*
X119323272Y-123582194D01*
G37*
X119323272Y-123582194D02*
X119191634Y-123713962D01*
X119158304Y-124041414D01*
X119157575Y-124173636D01*
X119157575Y-124789394D01*
X117926060Y-124789394D01*
X117926060Y-124163411D01*
X117909970Y-123766795D01*
X117822498Y-123597616D01*
X117604841Y-123575687D01*
X117502727Y-123586138D01*
X117079393Y-123634848D01*
X117035701Y-125289697D01*
X116992008Y-126944545D01*
X117459034Y-126944545D01*
X117746185Y-126924901D01*
X117882186Y-126810245D01*
X117923389Y-126516991D01*
X117926060Y-126251818D01*
X117926060Y-125559090D01*
X119157575Y-125559090D01*
X119157575Y-126251818D01*
X119170963Y-126677786D01*
X119248259Y-126879539D01*
X119445168Y-126940629D01*
X119619393Y-126944545D01*
X120081212Y-126944545D01*
X120081212Y-123557878D01*
X119619393Y-123557878D01*
X119323272Y-123582194D01*
G36*
X114761891Y-123614157D02*
G01*
X114176456Y-123767601D01*
X113795358Y-123995123D01*
X113736702Y-124067812D01*
X113622926Y-124505003D01*
X113751502Y-124963021D01*
X113860068Y-125112081D01*
X113994110Y-125301740D01*
X113986149Y-125497786D01*
X113818135Y-125800589D01*
X113706128Y-125968119D01*
X113410165Y-126458523D01*
X113330986Y-126762364D01*
X113469438Y-126912528D01*
X113731212Y-126944129D01*
X114056406Y-126874237D01*
X114314776Y-126617405D01*
X114462424Y-126368673D01*
X114715180Y-125996889D01*
X114971816Y-125768078D01*
X115039696Y-125742044D01*
X115214385Y-125763209D01*
X115293196Y-125962421D01*
X115309090Y-126317500D01*
X115326485Y-126716995D01*
X115421636Y-126896410D01*
X115658995Y-126943258D01*
X115770909Y-126944545D01*
X116232727Y-126944545D01*
X116232727Y-124723130D01*
X115309090Y-124723130D01*
X115258836Y-125011451D01*
X115055968Y-125079190D01*
X114962727Y-125069494D01*
X114651515Y-124894194D01*
X114567172Y-124673939D01*
X114587820Y-124415224D01*
X114807492Y-124330681D01*
X114913535Y-124327575D01*
X115211204Y-124386573D01*
X115306171Y-124625294D01*
X115309090Y-124723130D01*
X116232727Y-124723130D01*
X116232727Y-123557878D01*
X115473051Y-123557878D01*
X114761891Y-123614157D01*
G37*
X114761891Y-123614157D02*
X114176456Y-123767601D01*
X113795358Y-123995123D01*
X113736702Y-124067812D01*
X113622926Y-124505003D01*
X113751502Y-124963021D01*
X113860068Y-125112081D01*
X113994110Y-125301740D01*
X113986149Y-125497786D01*
X113818135Y-125800589D01*
X113706128Y-125968119D01*
X113410165Y-126458523D01*
X113330986Y-126762364D01*
X113469438Y-126912528D01*
X113731212Y-126944129D01*
X114056406Y-126874237D01*
X114314776Y-126617405D01*
X114462424Y-126368673D01*
X114715180Y-125996889D01*
X114971816Y-125768078D01*
X115039696Y-125742044D01*
X115214385Y-125763209D01*
X115293196Y-125962421D01*
X115309090Y-126317500D01*
X115326485Y-126716995D01*
X115421636Y-126896410D01*
X115658995Y-126943258D01*
X115770909Y-126944545D01*
X116232727Y-126944545D01*
X116232727Y-124723130D01*
X115309090Y-124723130D01*
X115258836Y-125011451D01*
X115055968Y-125079190D01*
X114962727Y-125069494D01*
X114651515Y-124894194D01*
X114567172Y-124673939D01*
X114587820Y-124415224D01*
X114807492Y-124330681D01*
X114913535Y-124327575D01*
X115211204Y-124386573D01*
X115306171Y-124625294D01*
X115309090Y-124723130D01*
X116232727Y-124723130D01*
X116232727Y-123557878D01*
X115473051Y-123557878D01*
X114761891Y-123614157D01*
G36*
X112037878Y-123558737D02*
G01*
X111071988Y-123652391D01*
X110346338Y-123928210D01*
X109865671Y-124382748D01*
X109634733Y-125012560D01*
X109613333Y-125319914D01*
X109733661Y-125994473D01*
X110096950Y-126487267D01*
X110706656Y-126800801D01*
X111566235Y-126937580D01*
X111855475Y-126944545D01*
X112692121Y-126944545D01*
X112692121Y-125331114D01*
X111768484Y-125331114D01*
X111768484Y-126334653D01*
X111345151Y-126233524D01*
X110961115Y-126105649D01*
X110729393Y-125980833D01*
X110578422Y-125696134D01*
X110545651Y-125268098D01*
X110626210Y-124835602D01*
X110778874Y-124569480D01*
X111122390Y-124376027D01*
X111394632Y-124327575D01*
X111595454Y-124346460D01*
X111707442Y-124449363D01*
X111756441Y-124705657D01*
X111768295Y-125184715D01*
X111768484Y-125331114D01*
X112692121Y-125331114D01*
X112692121Y-123557878D01*
X112037878Y-123558737D01*
G37*
X112037878Y-123558737D02*
X111071988Y-123652391D01*
X110346338Y-123928210D01*
X109865671Y-124382748D01*
X109634733Y-125012560D01*
X109613333Y-125319914D01*
X109733661Y-125994473D01*
X110096950Y-126487267D01*
X110706656Y-126800801D01*
X111566235Y-126937580D01*
X111855475Y-126944545D01*
X112692121Y-126944545D01*
X112692121Y-125331114D01*
X111768484Y-125331114D01*
X111768484Y-126334653D01*
X111345151Y-126233524D01*
X110961115Y-126105649D01*
X110729393Y-125980833D01*
X110578422Y-125696134D01*
X110545651Y-125268098D01*
X110626210Y-124835602D01*
X110778874Y-124569480D01*
X111122390Y-124376027D01*
X111394632Y-124327575D01*
X111595454Y-124346460D01*
X111707442Y-124449363D01*
X111756441Y-124705657D01*
X111768295Y-125184715D01*
X111768484Y-125331114D01*
X112692121Y-125331114D01*
X112692121Y-123557878D01*
X112037878Y-123558737D01*
G36*
X106991556Y-123574563D02*
G01*
X106510835Y-123647713D01*
X106302993Y-123811976D01*
X106351955Y-124101995D01*
X106641647Y-124552417D01*
X107056545Y-125076753D01*
X107441725Y-125557948D01*
X107738368Y-125948313D01*
X107901800Y-126188158D01*
X107920000Y-126230469D01*
X107780751Y-126284323D01*
X107421561Y-126320034D01*
X107073333Y-126328787D01*
X106584046Y-126342151D01*
X106329155Y-126399929D01*
X106235696Y-126528654D01*
X106226666Y-126636666D01*
X106248749Y-126779762D01*
X106353072Y-126870073D01*
X106596746Y-126919624D01*
X107036880Y-126940438D01*
X107689090Y-126944545D01*
X108372668Y-126938681D01*
X108804507Y-126914080D01*
X109040639Y-126860229D01*
X109137096Y-126766613D01*
X109151515Y-126670136D01*
X109057511Y-126432397D01*
X108806804Y-126035351D01*
X108446352Y-125550582D01*
X108293189Y-125361651D01*
X107434864Y-124327575D01*
X108293189Y-124327575D01*
X108782249Y-124317900D01*
X109038396Y-124266496D01*
X109136489Y-124139801D01*
X109151515Y-123942727D01*
X109140541Y-123760799D01*
X109068190Y-123647724D01*
X108875320Y-123587130D01*
X108502785Y-123562646D01*
X107891444Y-123557900D01*
X107761229Y-123557878D01*
X106991556Y-123574563D01*
G37*
X106991556Y-123574563D02*
X106510835Y-123647713D01*
X106302993Y-123811976D01*
X106351955Y-124101995D01*
X106641647Y-124552417D01*
X107056545Y-125076753D01*
X107441725Y-125557948D01*
X107738368Y-125948313D01*
X107901800Y-126188158D01*
X107920000Y-126230469D01*
X107780751Y-126284323D01*
X107421561Y-126320034D01*
X107073333Y-126328787D01*
X106584046Y-126342151D01*
X106329155Y-126399929D01*
X106235696Y-126528654D01*
X106226666Y-126636666D01*
X106248749Y-126779762D01*
X106353072Y-126870073D01*
X106596746Y-126919624D01*
X107036880Y-126940438D01*
X107689090Y-126944545D01*
X108372668Y-126938681D01*
X108804507Y-126914080D01*
X109040639Y-126860229D01*
X109137096Y-126766613D01*
X109151515Y-126670136D01*
X109057511Y-126432397D01*
X108806804Y-126035351D01*
X108446352Y-125550582D01*
X108293189Y-125361651D01*
X107434864Y-124327575D01*
X108293189Y-124327575D01*
X108782249Y-124317900D01*
X109038396Y-124266496D01*
X109136489Y-124139801D01*
X109151515Y-123942727D01*
X109140541Y-123760799D01*
X109068190Y-123647724D01*
X108875320Y-123587130D01*
X108502785Y-123562646D01*
X107891444Y-123557900D01*
X107761229Y-123557878D01*
X106991556Y-123574563D01*
G36*
X104736380Y-123580757D02*
G01*
X104524967Y-123697322D01*
X104348353Y-123979463D01*
X104196399Y-124327575D01*
X104000072Y-124754146D01*
X103834895Y-125033649D01*
X103763636Y-125097272D01*
X103647089Y-124967378D01*
X103467194Y-124633147D01*
X103330873Y-124327575D01*
X103128929Y-123880791D01*
X102950796Y-123651604D01*
X102715477Y-123568124D01*
X102463682Y-123557878D01*
X101916363Y-123557878D01*
X101916363Y-126944545D01*
X102294468Y-126944545D01*
X102490176Y-126926699D01*
X102607127Y-126829298D01*
X102670276Y-126586552D01*
X102704578Y-126132668D01*
X102717801Y-125828484D01*
X102763030Y-124712424D01*
X103128350Y-125520606D01*
X103421514Y-126058425D01*
X103682577Y-126310581D01*
X103763636Y-126328787D01*
X104011024Y-126178941D01*
X104294287Y-125738630D01*
X104398922Y-125520606D01*
X104764242Y-124712424D01*
X104809471Y-125828484D01*
X104838841Y-126404028D01*
X104885356Y-126737584D01*
X104973972Y-126894945D01*
X105129644Y-126941902D01*
X105232804Y-126944545D01*
X105610909Y-126944545D01*
X105610909Y-123557878D01*
X105063590Y-123557878D01*
X104736380Y-123580757D01*
G37*
X104736380Y-123580757D02*
X104524967Y-123697322D01*
X104348353Y-123979463D01*
X104196399Y-124327575D01*
X104000072Y-124754146D01*
X103834895Y-125033649D01*
X103763636Y-125097272D01*
X103647089Y-124967378D01*
X103467194Y-124633147D01*
X103330873Y-124327575D01*
X103128929Y-123880791D01*
X102950796Y-123651604D01*
X102715477Y-123568124D01*
X102463682Y-123557878D01*
X101916363Y-123557878D01*
X101916363Y-126944545D01*
X102294468Y-126944545D01*
X102490176Y-126926699D01*
X102607127Y-126829298D01*
X102670276Y-126586552D01*
X102704578Y-126132668D01*
X102717801Y-125828484D01*
X102763030Y-124712424D01*
X103128350Y-125520606D01*
X103421514Y-126058425D01*
X103682577Y-126310581D01*
X103763636Y-126328787D01*
X104011024Y-126178941D01*
X104294287Y-125738630D01*
X104398922Y-125520606D01*
X104764242Y-124712424D01*
X104809471Y-125828484D01*
X104838841Y-126404028D01*
X104885356Y-126737584D01*
X104973972Y-126894945D01*
X105129644Y-126941902D01*
X105232804Y-126944545D01*
X105610909Y-126944545D01*
X105610909Y-123557878D01*
X105063590Y-123557878D01*
X104736380Y-123580757D01*
G36*
X106661550Y-120394707D02*
G01*
X105582084Y-120590377D01*
X104583879Y-120772039D01*
X103712911Y-120931269D01*
X103015160Y-121059640D01*
X102536604Y-121148729D01*
X102339696Y-121186623D01*
X102062589Y-121281269D01*
X101942331Y-121479158D01*
X101916363Y-121876776D01*
X101938528Y-122257971D01*
X101993768Y-122466807D01*
X102014360Y-122480303D01*
X102185570Y-122453450D01*
X102619893Y-122377650D01*
X103277714Y-122260036D01*
X104119419Y-122107745D01*
X105105393Y-121927911D01*
X106196021Y-121727669D01*
X106324663Y-121703968D01*
X110536969Y-120927634D01*
X114749276Y-121703968D01*
X115854042Y-121906459D01*
X116863046Y-122089259D01*
X117735726Y-122245193D01*
X118431519Y-122367081D01*
X118909864Y-122447748D01*
X119130199Y-122480014D01*
X119136549Y-122480303D01*
X119253464Y-122344969D01*
X119310375Y-122011512D01*
X119311515Y-121950600D01*
X119273638Y-121569329D01*
X119181152Y-121342479D01*
X119168231Y-121332343D01*
X118984780Y-121282464D01*
X118538462Y-121185885D01*
X117869400Y-121050543D01*
X117017718Y-120884377D01*
X116023540Y-120695327D01*
X114926990Y-120491329D01*
X114792509Y-120466604D01*
X110560070Y-119689420D01*
X106661550Y-120394707D01*
G37*
X106661550Y-120394707D02*
X105582084Y-120590377D01*
X104583879Y-120772039D01*
X103712911Y-120931269D01*
X103015160Y-121059640D01*
X102536604Y-121148729D01*
X102339696Y-121186623D01*
X102062589Y-121281269D01*
X101942331Y-121479158D01*
X101916363Y-121876776D01*
X101938528Y-122257971D01*
X101993768Y-122466807D01*
X102014360Y-122480303D01*
X102185570Y-122453450D01*
X102619893Y-122377650D01*
X103277714Y-122260036D01*
X104119419Y-122107745D01*
X105105393Y-121927911D01*
X106196021Y-121727669D01*
X106324663Y-121703968D01*
X110536969Y-120927634D01*
X114749276Y-121703968D01*
X115854042Y-121906459D01*
X116863046Y-122089259D01*
X117735726Y-122245193D01*
X118431519Y-122367081D01*
X118909864Y-122447748D01*
X119130199Y-122480014D01*
X119136549Y-122480303D01*
X119253464Y-122344969D01*
X119310375Y-122011512D01*
X119311515Y-121950600D01*
X119273638Y-121569329D01*
X119181152Y-121342479D01*
X119168231Y-121332343D01*
X118984780Y-121282464D01*
X118538462Y-121185885D01*
X117869400Y-121050543D01*
X117017718Y-120884377D01*
X116023540Y-120695327D01*
X114926990Y-120491329D01*
X114792509Y-120466604D01*
X110560070Y-119689420D01*
X106661550Y-120394707D01*
G36*
X120889393Y-80423146D02*
G01*
X120459882Y-80810202D01*
X120217448Y-81097202D01*
X120109048Y-81376787D01*
X120081642Y-81741599D01*
X120081212Y-81834661D01*
X120081212Y-82546755D01*
X120893288Y-81744766D01*
X121705365Y-80942777D01*
X122201025Y-81438438D01*
X122696686Y-81934098D01*
X121845270Y-82794492D01*
X120993854Y-83654885D01*
X121037836Y-85310399D01*
X121081818Y-86965914D01*
X121505151Y-86523473D01*
X121733883Y-86250547D01*
X121861695Y-85967593D01*
X121917059Y-85573211D01*
X121928484Y-85015742D01*
X121928484Y-83950453D01*
X123929686Y-81933799D01*
X122813631Y-80828762D01*
X121697575Y-79723725D01*
X120889393Y-80423146D01*
G37*
X120889393Y-80423146D02*
X120459882Y-80810202D01*
X120217448Y-81097202D01*
X120109048Y-81376787D01*
X120081642Y-81741599D01*
X120081212Y-81834661D01*
X120081212Y-82546755D01*
X120893288Y-81744766D01*
X121705365Y-80942777D01*
X122201025Y-81438438D01*
X122696686Y-81934098D01*
X121845270Y-82794492D01*
X120993854Y-83654885D01*
X121037836Y-85310399D01*
X121081818Y-86965914D01*
X121505151Y-86523473D01*
X121733883Y-86250547D01*
X121861695Y-85967593D01*
X121917059Y-85573211D01*
X121928484Y-85015742D01*
X121928484Y-83950453D01*
X123929686Y-81933799D01*
X122813631Y-80828762D01*
X121697575Y-79723725D01*
X120889393Y-80423146D01*
G36*
X119323272Y-83582194D02*
G01*
X119191634Y-83713962D01*
X119158304Y-84041414D01*
X119157575Y-84173636D01*
X119157575Y-84789394D01*
X117926060Y-84789394D01*
X117926060Y-84163411D01*
X117909970Y-83766795D01*
X117822498Y-83597616D01*
X117604841Y-83575687D01*
X117502727Y-83586138D01*
X117079393Y-83634848D01*
X117035701Y-85289697D01*
X116992008Y-86944545D01*
X117459034Y-86944545D01*
X117746185Y-86924901D01*
X117882186Y-86810245D01*
X117923389Y-86516991D01*
X117926060Y-86251818D01*
X117926060Y-85559090D01*
X119157575Y-85559090D01*
X119157575Y-86251818D01*
X119170963Y-86677786D01*
X119248259Y-86879539D01*
X119445168Y-86940629D01*
X119619393Y-86944545D01*
X120081212Y-86944545D01*
X120081212Y-83557878D01*
X119619393Y-83557878D01*
X119323272Y-83582194D01*
G37*
X119323272Y-83582194D02*
X119191634Y-83713962D01*
X119158304Y-84041414D01*
X119157575Y-84173636D01*
X119157575Y-84789394D01*
X117926060Y-84789394D01*
X117926060Y-84163411D01*
X117909970Y-83766795D01*
X117822498Y-83597616D01*
X117604841Y-83575687D01*
X117502727Y-83586138D01*
X117079393Y-83634848D01*
X117035701Y-85289697D01*
X116992008Y-86944545D01*
X117459034Y-86944545D01*
X117746185Y-86924901D01*
X117882186Y-86810245D01*
X117923389Y-86516991D01*
X117926060Y-86251818D01*
X117926060Y-85559090D01*
X119157575Y-85559090D01*
X119157575Y-86251818D01*
X119170963Y-86677786D01*
X119248259Y-86879539D01*
X119445168Y-86940629D01*
X119619393Y-86944545D01*
X120081212Y-86944545D01*
X120081212Y-83557878D01*
X119619393Y-83557878D01*
X119323272Y-83582194D01*
G36*
X114761891Y-83614157D02*
G01*
X114176456Y-83767601D01*
X113795358Y-83995123D01*
X113736702Y-84067812D01*
X113622926Y-84505003D01*
X113751502Y-84963021D01*
X113860068Y-85112081D01*
X113994110Y-85301740D01*
X113986149Y-85497786D01*
X113818135Y-85800589D01*
X113706128Y-85968119D01*
X113410165Y-86458523D01*
X113330986Y-86762364D01*
X113469438Y-86912528D01*
X113731212Y-86944129D01*
X114056406Y-86874237D01*
X114314776Y-86617405D01*
X114462424Y-86368673D01*
X114715180Y-85996889D01*
X114971816Y-85768078D01*
X115039696Y-85742044D01*
X115214385Y-85763209D01*
X115293196Y-85962421D01*
X115309090Y-86317500D01*
X115326485Y-86716995D01*
X115421636Y-86896410D01*
X115658995Y-86943258D01*
X115770909Y-86944545D01*
X116232727Y-86944545D01*
X116232727Y-84723130D01*
X115309090Y-84723130D01*
X115258836Y-85011451D01*
X115055968Y-85079190D01*
X114962727Y-85069494D01*
X114651515Y-84894194D01*
X114567172Y-84673939D01*
X114587820Y-84415224D01*
X114807492Y-84330681D01*
X114913535Y-84327575D01*
X115211204Y-84386573D01*
X115306171Y-84625294D01*
X115309090Y-84723130D01*
X116232727Y-84723130D01*
X116232727Y-83557878D01*
X115473051Y-83557878D01*
X114761891Y-83614157D01*
G37*
X114761891Y-83614157D02*
X114176456Y-83767601D01*
X113795358Y-83995123D01*
X113736702Y-84067812D01*
X113622926Y-84505003D01*
X113751502Y-84963021D01*
X113860068Y-85112081D01*
X113994110Y-85301740D01*
X113986149Y-85497786D01*
X113818135Y-85800589D01*
X113706128Y-85968119D01*
X113410165Y-86458523D01*
X113330986Y-86762364D01*
X113469438Y-86912528D01*
X113731212Y-86944129D01*
X114056406Y-86874237D01*
X114314776Y-86617405D01*
X114462424Y-86368673D01*
X114715180Y-85996889D01*
X114971816Y-85768078D01*
X115039696Y-85742044D01*
X115214385Y-85763209D01*
X115293196Y-85962421D01*
X115309090Y-86317500D01*
X115326485Y-86716995D01*
X115421636Y-86896410D01*
X115658995Y-86943258D01*
X115770909Y-86944545D01*
X116232727Y-86944545D01*
X116232727Y-84723130D01*
X115309090Y-84723130D01*
X115258836Y-85011451D01*
X115055968Y-85079190D01*
X114962727Y-85069494D01*
X114651515Y-84894194D01*
X114567172Y-84673939D01*
X114587820Y-84415224D01*
X114807492Y-84330681D01*
X114913535Y-84327575D01*
X115211204Y-84386573D01*
X115306171Y-84625294D01*
X115309090Y-84723130D01*
X116232727Y-84723130D01*
X116232727Y-83557878D01*
X115473051Y-83557878D01*
X114761891Y-83614157D01*
G36*
X112037878Y-83558737D02*
G01*
X111071988Y-83652391D01*
X110346338Y-83928210D01*
X109865671Y-84382748D01*
X109634733Y-85012560D01*
X109613333Y-85319914D01*
X109733661Y-85994473D01*
X110096950Y-86487267D01*
X110706656Y-86800801D01*
X111566235Y-86937580D01*
X111855475Y-86944545D01*
X112692121Y-86944545D01*
X112692121Y-85331114D01*
X111768484Y-85331114D01*
X111768484Y-86334653D01*
X111345151Y-86233524D01*
X110961115Y-86105649D01*
X110729393Y-85980833D01*
X110578422Y-85696134D01*
X110545651Y-85268098D01*
X110626210Y-84835602D01*
X110778874Y-84569480D01*
X111122390Y-84376027D01*
X111394632Y-84327575D01*
X111595454Y-84346460D01*
X111707442Y-84449363D01*
X111756441Y-84705657D01*
X111768295Y-85184715D01*
X111768484Y-85331114D01*
X112692121Y-85331114D01*
X112692121Y-83557878D01*
X112037878Y-83558737D01*
G37*
X112037878Y-83558737D02*
X111071988Y-83652391D01*
X110346338Y-83928210D01*
X109865671Y-84382748D01*
X109634733Y-85012560D01*
X109613333Y-85319914D01*
X109733661Y-85994473D01*
X110096950Y-86487267D01*
X110706656Y-86800801D01*
X111566235Y-86937580D01*
X111855475Y-86944545D01*
X112692121Y-86944545D01*
X112692121Y-85331114D01*
X111768484Y-85331114D01*
X111768484Y-86334653D01*
X111345151Y-86233524D01*
X110961115Y-86105649D01*
X110729393Y-85980833D01*
X110578422Y-85696134D01*
X110545651Y-85268098D01*
X110626210Y-84835602D01*
X110778874Y-84569480D01*
X111122390Y-84376027D01*
X111394632Y-84327575D01*
X111595454Y-84346460D01*
X111707442Y-84449363D01*
X111756441Y-84705657D01*
X111768295Y-85184715D01*
X111768484Y-85331114D01*
X112692121Y-85331114D01*
X112692121Y-83557878D01*
X112037878Y-83558737D01*
G36*
X106991556Y-83574563D02*
G01*
X106510835Y-83647713D01*
X106302993Y-83811976D01*
X106351955Y-84101995D01*
X106641647Y-84552417D01*
X107056545Y-85076753D01*
X107441725Y-85557948D01*
X107738368Y-85948313D01*
X107901800Y-86188158D01*
X107920000Y-86230469D01*
X107780751Y-86284323D01*
X107421561Y-86320034D01*
X107073333Y-86328787D01*
X106584046Y-86342151D01*
X106329155Y-86399929D01*
X106235696Y-86528654D01*
X106226666Y-86636666D01*
X106248749Y-86779762D01*
X106353072Y-86870073D01*
X106596746Y-86919624D01*
X107036880Y-86940438D01*
X107689090Y-86944545D01*
X108372668Y-86938681D01*
X108804507Y-86914080D01*
X109040639Y-86860229D01*
X109137096Y-86766613D01*
X109151515Y-86670136D01*
X109057511Y-86432397D01*
X108806804Y-86035351D01*
X108446352Y-85550582D01*
X108293189Y-85361651D01*
X107434864Y-84327575D01*
X108293189Y-84327575D01*
X108782249Y-84317900D01*
X109038396Y-84266496D01*
X109136489Y-84139801D01*
X109151515Y-83942727D01*
X109140541Y-83760799D01*
X109068190Y-83647724D01*
X108875320Y-83587130D01*
X108502785Y-83562646D01*
X107891444Y-83557900D01*
X107761229Y-83557878D01*
X106991556Y-83574563D01*
G37*
X106991556Y-83574563D02*
X106510835Y-83647713D01*
X106302993Y-83811976D01*
X106351955Y-84101995D01*
X106641647Y-84552417D01*
X107056545Y-85076753D01*
X107441725Y-85557948D01*
X107738368Y-85948313D01*
X107901800Y-86188158D01*
X107920000Y-86230469D01*
X107780751Y-86284323D01*
X107421561Y-86320034D01*
X107073333Y-86328787D01*
X106584046Y-86342151D01*
X106329155Y-86399929D01*
X106235696Y-86528654D01*
X106226666Y-86636666D01*
X106248749Y-86779762D01*
X106353072Y-86870073D01*
X106596746Y-86919624D01*
X107036880Y-86940438D01*
X107689090Y-86944545D01*
X108372668Y-86938681D01*
X108804507Y-86914080D01*
X109040639Y-86860229D01*
X109137096Y-86766613D01*
X109151515Y-86670136D01*
X109057511Y-86432397D01*
X108806804Y-86035351D01*
X108446352Y-85550582D01*
X108293189Y-85361651D01*
X107434864Y-84327575D01*
X108293189Y-84327575D01*
X108782249Y-84317900D01*
X109038396Y-84266496D01*
X109136489Y-84139801D01*
X109151515Y-83942727D01*
X109140541Y-83760799D01*
X109068190Y-83647724D01*
X108875320Y-83587130D01*
X108502785Y-83562646D01*
X107891444Y-83557900D01*
X107761229Y-83557878D01*
X106991556Y-83574563D01*
G36*
X104736380Y-83580757D02*
G01*
X104524967Y-83697322D01*
X104348353Y-83979463D01*
X104196399Y-84327575D01*
X104000072Y-84754146D01*
X103834895Y-85033649D01*
X103763636Y-85097272D01*
X103647089Y-84967378D01*
X103467194Y-84633147D01*
X103330873Y-84327575D01*
X103128929Y-83880791D01*
X102950796Y-83651604D01*
X102715477Y-83568124D01*
X102463682Y-83557878D01*
X101916363Y-83557878D01*
X101916363Y-86944545D01*
X102294468Y-86944545D01*
X102490176Y-86926699D01*
X102607127Y-86829298D01*
X102670276Y-86586552D01*
X102704578Y-86132668D01*
X102717801Y-85828484D01*
X102763030Y-84712424D01*
X103128350Y-85520606D01*
X103421514Y-86058425D01*
X103682577Y-86310581D01*
X103763636Y-86328787D01*
X104011024Y-86178941D01*
X104294287Y-85738630D01*
X104398922Y-85520606D01*
X104764242Y-84712424D01*
X104809471Y-85828484D01*
X104838841Y-86404028D01*
X104885356Y-86737584D01*
X104973972Y-86894945D01*
X105129644Y-86941902D01*
X105232804Y-86944545D01*
X105610909Y-86944545D01*
X105610909Y-83557878D01*
X105063590Y-83557878D01*
X104736380Y-83580757D01*
G37*
X104736380Y-83580757D02*
X104524967Y-83697322D01*
X104348353Y-83979463D01*
X104196399Y-84327575D01*
X104000072Y-84754146D01*
X103834895Y-85033649D01*
X103763636Y-85097272D01*
X103647089Y-84967378D01*
X103467194Y-84633147D01*
X103330873Y-84327575D01*
X103128929Y-83880791D01*
X102950796Y-83651604D01*
X102715477Y-83568124D01*
X102463682Y-83557878D01*
X101916363Y-83557878D01*
X101916363Y-86944545D01*
X102294468Y-86944545D01*
X102490176Y-86926699D01*
X102607127Y-86829298D01*
X102670276Y-86586552D01*
X102704578Y-86132668D01*
X102717801Y-85828484D01*
X102763030Y-84712424D01*
X103128350Y-85520606D01*
X103421514Y-86058425D01*
X103682577Y-86310581D01*
X103763636Y-86328787D01*
X104011024Y-86178941D01*
X104294287Y-85738630D01*
X104398922Y-85520606D01*
X104764242Y-84712424D01*
X104809471Y-85828484D01*
X104838841Y-86404028D01*
X104885356Y-86737584D01*
X104973972Y-86894945D01*
X105129644Y-86941902D01*
X105232804Y-86944545D01*
X105610909Y-86944545D01*
X105610909Y-83557878D01*
X105063590Y-83557878D01*
X104736380Y-83580757D01*
G36*
X106661550Y-80394707D02*
G01*
X105582084Y-80590377D01*
X104583879Y-80772039D01*
X103712911Y-80931269D01*
X103015160Y-81059640D01*
X102536604Y-81148729D01*
X102339696Y-81186623D01*
X102062589Y-81281269D01*
X101942331Y-81479158D01*
X101916363Y-81876776D01*
X101938528Y-82257971D01*
X101993768Y-82466807D01*
X102014360Y-82480303D01*
X102185570Y-82453450D01*
X102619893Y-82377650D01*
X103277714Y-82260036D01*
X104119419Y-82107745D01*
X105105393Y-81927911D01*
X106196021Y-81727669D01*
X106324663Y-81703968D01*
X110536969Y-80927634D01*
X114749276Y-81703968D01*
X115854042Y-81906459D01*
X116863046Y-82089259D01*
X117735726Y-82245193D01*
X118431519Y-82367081D01*
X118909864Y-82447748D01*
X119130199Y-82480014D01*
X119136549Y-82480303D01*
X119253464Y-82344969D01*
X119310375Y-82011512D01*
X119311515Y-81950600D01*
X119273638Y-81569329D01*
X119181152Y-81342479D01*
X119168231Y-81332343D01*
X118984780Y-81282464D01*
X118538462Y-81185885D01*
X117869400Y-81050543D01*
X117017718Y-80884377D01*
X116023540Y-80695327D01*
X114926990Y-80491329D01*
X114792509Y-80466604D01*
X110560070Y-79689420D01*
X106661550Y-80394707D01*
G37*
X106661550Y-80394707D02*
X105582084Y-80590377D01*
X104583879Y-80772039D01*
X103712911Y-80931269D01*
X103015160Y-81059640D01*
X102536604Y-81148729D01*
X102339696Y-81186623D01*
X102062589Y-81281269D01*
X101942331Y-81479158D01*
X101916363Y-81876776D01*
X101938528Y-82257971D01*
X101993768Y-82466807D01*
X102014360Y-82480303D01*
X102185570Y-82453450D01*
X102619893Y-82377650D01*
X103277714Y-82260036D01*
X104119419Y-82107745D01*
X105105393Y-81927911D01*
X106196021Y-81727669D01*
X106324663Y-81703968D01*
X110536969Y-80927634D01*
X114749276Y-81703968D01*
X115854042Y-81906459D01*
X116863046Y-82089259D01*
X117735726Y-82245193D01*
X118431519Y-82367081D01*
X118909864Y-82447748D01*
X119130199Y-82480014D01*
X119136549Y-82480303D01*
X119253464Y-82344969D01*
X119310375Y-82011512D01*
X119311515Y-81950600D01*
X119273638Y-81569329D01*
X119181152Y-81342479D01*
X119168231Y-81332343D01*
X118984780Y-81282464D01*
X118538462Y-81185885D01*
X117869400Y-81050543D01*
X117017718Y-80884377D01*
X116023540Y-80695327D01*
X114926990Y-80491329D01*
X114792509Y-80466604D01*
X110560070Y-79689420D01*
X106661550Y-80394707D01*
G36*
X106661550Y-60394707D02*
G01*
X105582084Y-60590377D01*
X104583879Y-60772039D01*
X103712911Y-60931269D01*
X103015160Y-61059640D01*
X102536604Y-61148729D01*
X102339696Y-61186623D01*
X102062589Y-61281269D01*
X101942331Y-61479158D01*
X101916363Y-61876776D01*
X101938528Y-62257971D01*
X101993768Y-62466807D01*
X102014360Y-62480303D01*
X102185570Y-62453450D01*
X102619893Y-62377650D01*
X103277714Y-62260036D01*
X104119419Y-62107745D01*
X105105393Y-61927911D01*
X106196021Y-61727669D01*
X106324663Y-61703968D01*
X110536969Y-60927634D01*
X114749276Y-61703968D01*
X115854042Y-61906459D01*
X116863046Y-62089259D01*
X117735726Y-62245193D01*
X118431519Y-62367081D01*
X118909864Y-62447748D01*
X119130199Y-62480014D01*
X119136549Y-62480303D01*
X119253464Y-62344969D01*
X119310375Y-62011512D01*
X119311515Y-61950600D01*
X119273638Y-61569329D01*
X119181152Y-61342479D01*
X119168231Y-61332343D01*
X118984780Y-61282464D01*
X118538462Y-61185885D01*
X117869400Y-61050543D01*
X117017718Y-60884377D01*
X116023540Y-60695327D01*
X114926990Y-60491329D01*
X114792509Y-60466604D01*
X110560070Y-59689420D01*
X106661550Y-60394707D01*
G37*
X106661550Y-60394707D02*
X105582084Y-60590377D01*
X104583879Y-60772039D01*
X103712911Y-60931269D01*
X103015160Y-61059640D01*
X102536604Y-61148729D01*
X102339696Y-61186623D01*
X102062589Y-61281269D01*
X101942331Y-61479158D01*
X101916363Y-61876776D01*
X101938528Y-62257971D01*
X101993768Y-62466807D01*
X102014360Y-62480303D01*
X102185570Y-62453450D01*
X102619893Y-62377650D01*
X103277714Y-62260036D01*
X104119419Y-62107745D01*
X105105393Y-61927911D01*
X106196021Y-61727669D01*
X106324663Y-61703968D01*
X110536969Y-60927634D01*
X114749276Y-61703968D01*
X115854042Y-61906459D01*
X116863046Y-62089259D01*
X117735726Y-62245193D01*
X118431519Y-62367081D01*
X118909864Y-62447748D01*
X119130199Y-62480014D01*
X119136549Y-62480303D01*
X119253464Y-62344969D01*
X119310375Y-62011512D01*
X119311515Y-61950600D01*
X119273638Y-61569329D01*
X119181152Y-61342479D01*
X119168231Y-61332343D01*
X118984780Y-61282464D01*
X118538462Y-61185885D01*
X117869400Y-61050543D01*
X117017718Y-60884377D01*
X116023540Y-60695327D01*
X114926990Y-60491329D01*
X114792509Y-60466604D01*
X110560070Y-59689420D01*
X106661550Y-60394707D01*
G36*
X104736380Y-63580757D02*
G01*
X104524967Y-63697322D01*
X104348353Y-63979463D01*
X104196399Y-64327575D01*
X104000072Y-64754146D01*
X103834895Y-65033649D01*
X103763636Y-65097272D01*
X103647089Y-64967378D01*
X103467194Y-64633147D01*
X103330873Y-64327575D01*
X103128929Y-63880791D01*
X102950796Y-63651604D01*
X102715477Y-63568124D01*
X102463682Y-63557878D01*
X101916363Y-63557878D01*
X101916363Y-66944545D01*
X102294468Y-66944545D01*
X102490176Y-66926699D01*
X102607127Y-66829298D01*
X102670276Y-66586552D01*
X102704578Y-66132668D01*
X102717801Y-65828484D01*
X102763030Y-64712424D01*
X103128350Y-65520606D01*
X103421514Y-66058425D01*
X103682577Y-66310581D01*
X103763636Y-66328787D01*
X104011024Y-66178941D01*
X104294287Y-65738630D01*
X104398922Y-65520606D01*
X104764242Y-64712424D01*
X104809471Y-65828484D01*
X104838841Y-66404028D01*
X104885356Y-66737584D01*
X104973972Y-66894945D01*
X105129644Y-66941902D01*
X105232804Y-66944545D01*
X105610909Y-66944545D01*
X105610909Y-63557878D01*
X105063590Y-63557878D01*
X104736380Y-63580757D01*
G37*
X104736380Y-63580757D02*
X104524967Y-63697322D01*
X104348353Y-63979463D01*
X104196399Y-64327575D01*
X104000072Y-64754146D01*
X103834895Y-65033649D01*
X103763636Y-65097272D01*
X103647089Y-64967378D01*
X103467194Y-64633147D01*
X103330873Y-64327575D01*
X103128929Y-63880791D01*
X102950796Y-63651604D01*
X102715477Y-63568124D01*
X102463682Y-63557878D01*
X101916363Y-63557878D01*
X101916363Y-66944545D01*
X102294468Y-66944545D01*
X102490176Y-66926699D01*
X102607127Y-66829298D01*
X102670276Y-66586552D01*
X102704578Y-66132668D01*
X102717801Y-65828484D01*
X102763030Y-64712424D01*
X103128350Y-65520606D01*
X103421514Y-66058425D01*
X103682577Y-66310581D01*
X103763636Y-66328787D01*
X104011024Y-66178941D01*
X104294287Y-65738630D01*
X104398922Y-65520606D01*
X104764242Y-64712424D01*
X104809471Y-65828484D01*
X104838841Y-66404028D01*
X104885356Y-66737584D01*
X104973972Y-66894945D01*
X105129644Y-66941902D01*
X105232804Y-66944545D01*
X105610909Y-66944545D01*
X105610909Y-63557878D01*
X105063590Y-63557878D01*
X104736380Y-63580757D01*
G36*
X106991556Y-63574563D02*
G01*
X106510835Y-63647713D01*
X106302993Y-63811976D01*
X106351955Y-64101995D01*
X106641647Y-64552417D01*
X107056545Y-65076753D01*
X107441725Y-65557948D01*
X107738368Y-65948313D01*
X107901800Y-66188158D01*
X107920000Y-66230469D01*
X107780751Y-66284323D01*
X107421561Y-66320034D01*
X107073333Y-66328787D01*
X106584046Y-66342151D01*
X106329155Y-66399929D01*
X106235696Y-66528654D01*
X106226666Y-66636666D01*
X106248749Y-66779762D01*
X106353072Y-66870073D01*
X106596746Y-66919624D01*
X107036880Y-66940438D01*
X107689090Y-66944545D01*
X108372668Y-66938681D01*
X108804507Y-66914080D01*
X109040639Y-66860229D01*
X109137096Y-66766613D01*
X109151515Y-66670136D01*
X109057511Y-66432397D01*
X108806804Y-66035351D01*
X108446352Y-65550582D01*
X108293189Y-65361651D01*
X107434864Y-64327575D01*
X108293189Y-64327575D01*
X108782249Y-64317900D01*
X109038396Y-64266496D01*
X109136489Y-64139801D01*
X109151515Y-63942727D01*
X109140541Y-63760799D01*
X109068190Y-63647724D01*
X108875320Y-63587130D01*
X108502785Y-63562646D01*
X107891444Y-63557900D01*
X107761229Y-63557878D01*
X106991556Y-63574563D01*
G37*
X106991556Y-63574563D02*
X106510835Y-63647713D01*
X106302993Y-63811976D01*
X106351955Y-64101995D01*
X106641647Y-64552417D01*
X107056545Y-65076753D01*
X107441725Y-65557948D01*
X107738368Y-65948313D01*
X107901800Y-66188158D01*
X107920000Y-66230469D01*
X107780751Y-66284323D01*
X107421561Y-66320034D01*
X107073333Y-66328787D01*
X106584046Y-66342151D01*
X106329155Y-66399929D01*
X106235696Y-66528654D01*
X106226666Y-66636666D01*
X106248749Y-66779762D01*
X106353072Y-66870073D01*
X106596746Y-66919624D01*
X107036880Y-66940438D01*
X107689090Y-66944545D01*
X108372668Y-66938681D01*
X108804507Y-66914080D01*
X109040639Y-66860229D01*
X109137096Y-66766613D01*
X109151515Y-66670136D01*
X109057511Y-66432397D01*
X108806804Y-66035351D01*
X108446352Y-65550582D01*
X108293189Y-65361651D01*
X107434864Y-64327575D01*
X108293189Y-64327575D01*
X108782249Y-64317900D01*
X109038396Y-64266496D01*
X109136489Y-64139801D01*
X109151515Y-63942727D01*
X109140541Y-63760799D01*
X109068190Y-63647724D01*
X108875320Y-63587130D01*
X108502785Y-63562646D01*
X107891444Y-63557900D01*
X107761229Y-63557878D01*
X106991556Y-63574563D01*
G36*
X112037878Y-63558737D02*
G01*
X111071988Y-63652391D01*
X110346338Y-63928210D01*
X109865671Y-64382748D01*
X109634733Y-65012560D01*
X109613333Y-65319914D01*
X109733661Y-65994473D01*
X110096950Y-66487267D01*
X110706656Y-66800801D01*
X111566235Y-66937580D01*
X111855475Y-66944545D01*
X112692121Y-66944545D01*
X112692121Y-65331114D01*
X111768484Y-65331114D01*
X111768484Y-66334653D01*
X111345151Y-66233524D01*
X110961115Y-66105649D01*
X110729393Y-65980833D01*
X110578422Y-65696134D01*
X110545651Y-65268098D01*
X110626210Y-64835602D01*
X110778874Y-64569480D01*
X111122390Y-64376027D01*
X111394632Y-64327575D01*
X111595454Y-64346460D01*
X111707442Y-64449363D01*
X111756441Y-64705657D01*
X111768295Y-65184715D01*
X111768484Y-65331114D01*
X112692121Y-65331114D01*
X112692121Y-63557878D01*
X112037878Y-63558737D01*
G37*
X112037878Y-63558737D02*
X111071988Y-63652391D01*
X110346338Y-63928210D01*
X109865671Y-64382748D01*
X109634733Y-65012560D01*
X109613333Y-65319914D01*
X109733661Y-65994473D01*
X110096950Y-66487267D01*
X110706656Y-66800801D01*
X111566235Y-66937580D01*
X111855475Y-66944545D01*
X112692121Y-66944545D01*
X112692121Y-65331114D01*
X111768484Y-65331114D01*
X111768484Y-66334653D01*
X111345151Y-66233524D01*
X110961115Y-66105649D01*
X110729393Y-65980833D01*
X110578422Y-65696134D01*
X110545651Y-65268098D01*
X110626210Y-64835602D01*
X110778874Y-64569480D01*
X111122390Y-64376027D01*
X111394632Y-64327575D01*
X111595454Y-64346460D01*
X111707442Y-64449363D01*
X111756441Y-64705657D01*
X111768295Y-65184715D01*
X111768484Y-65331114D01*
X112692121Y-65331114D01*
X112692121Y-63557878D01*
X112037878Y-63558737D01*
G36*
X114761891Y-63614157D02*
G01*
X114176456Y-63767601D01*
X113795358Y-63995123D01*
X113736702Y-64067812D01*
X113622926Y-64505003D01*
X113751502Y-64963021D01*
X113860068Y-65112081D01*
X113994110Y-65301740D01*
X113986149Y-65497786D01*
X113818135Y-65800589D01*
X113706128Y-65968119D01*
X113410165Y-66458523D01*
X113330986Y-66762364D01*
X113469438Y-66912528D01*
X113731212Y-66944129D01*
X114056406Y-66874237D01*
X114314776Y-66617405D01*
X114462424Y-66368673D01*
X114715180Y-65996889D01*
X114971816Y-65768078D01*
X115039696Y-65742044D01*
X115214385Y-65763209D01*
X115293196Y-65962421D01*
X115309090Y-66317500D01*
X115326485Y-66716995D01*
X115421636Y-66896410D01*
X115658995Y-66943258D01*
X115770909Y-66944545D01*
X116232727Y-66944545D01*
X116232727Y-64723130D01*
X115309090Y-64723130D01*
X115258836Y-65011451D01*
X115055968Y-65079190D01*
X114962727Y-65069494D01*
X114651515Y-64894194D01*
X114567172Y-64673939D01*
X114587820Y-64415224D01*
X114807492Y-64330681D01*
X114913535Y-64327575D01*
X115211204Y-64386573D01*
X115306171Y-64625294D01*
X115309090Y-64723130D01*
X116232727Y-64723130D01*
X116232727Y-63557878D01*
X115473051Y-63557878D01*
X114761891Y-63614157D01*
G37*
X114761891Y-63614157D02*
X114176456Y-63767601D01*
X113795358Y-63995123D01*
X113736702Y-64067812D01*
X113622926Y-64505003D01*
X113751502Y-64963021D01*
X113860068Y-65112081D01*
X113994110Y-65301740D01*
X113986149Y-65497786D01*
X113818135Y-65800589D01*
X113706128Y-65968119D01*
X113410165Y-66458523D01*
X113330986Y-66762364D01*
X113469438Y-66912528D01*
X113731212Y-66944129D01*
X114056406Y-66874237D01*
X114314776Y-66617405D01*
X114462424Y-66368673D01*
X114715180Y-65996889D01*
X114971816Y-65768078D01*
X115039696Y-65742044D01*
X115214385Y-65763209D01*
X115293196Y-65962421D01*
X115309090Y-66317500D01*
X115326485Y-66716995D01*
X115421636Y-66896410D01*
X115658995Y-66943258D01*
X115770909Y-66944545D01*
X116232727Y-66944545D01*
X116232727Y-64723130D01*
X115309090Y-64723130D01*
X115258836Y-65011451D01*
X115055968Y-65079190D01*
X114962727Y-65069494D01*
X114651515Y-64894194D01*
X114567172Y-64673939D01*
X114587820Y-64415224D01*
X114807492Y-64330681D01*
X114913535Y-64327575D01*
X115211204Y-64386573D01*
X115306171Y-64625294D01*
X115309090Y-64723130D01*
X116232727Y-64723130D01*
X116232727Y-63557878D01*
X115473051Y-63557878D01*
X114761891Y-63614157D01*
G36*
X119323272Y-63582194D02*
G01*
X119191634Y-63713962D01*
X119158304Y-64041414D01*
X119157575Y-64173636D01*
X119157575Y-64789394D01*
X117926060Y-64789394D01*
X117926060Y-64163411D01*
X117909970Y-63766795D01*
X117822498Y-63597616D01*
X117604841Y-63575687D01*
X117502727Y-63586138D01*
X117079393Y-63634848D01*
X117035701Y-65289697D01*
X116992008Y-66944545D01*
X117459034Y-66944545D01*
X117746185Y-66924901D01*
X117882186Y-66810245D01*
X117923389Y-66516991D01*
X117926060Y-66251818D01*
X117926060Y-65559090D01*
X119157575Y-65559090D01*
X119157575Y-66251818D01*
X119170963Y-66677786D01*
X119248259Y-66879539D01*
X119445168Y-66940629D01*
X119619393Y-66944545D01*
X120081212Y-66944545D01*
X120081212Y-63557878D01*
X119619393Y-63557878D01*
X119323272Y-63582194D01*
G37*
X119323272Y-63582194D02*
X119191634Y-63713962D01*
X119158304Y-64041414D01*
X119157575Y-64173636D01*
X119157575Y-64789394D01*
X117926060Y-64789394D01*
X117926060Y-64163411D01*
X117909970Y-63766795D01*
X117822498Y-63597616D01*
X117604841Y-63575687D01*
X117502727Y-63586138D01*
X117079393Y-63634848D01*
X117035701Y-65289697D01*
X116992008Y-66944545D01*
X117459034Y-66944545D01*
X117746185Y-66924901D01*
X117882186Y-66810245D01*
X117923389Y-66516991D01*
X117926060Y-66251818D01*
X117926060Y-65559090D01*
X119157575Y-65559090D01*
X119157575Y-66251818D01*
X119170963Y-66677786D01*
X119248259Y-66879539D01*
X119445168Y-66940629D01*
X119619393Y-66944545D01*
X120081212Y-66944545D01*
X120081212Y-63557878D01*
X119619393Y-63557878D01*
X119323272Y-63582194D01*
G36*
X120889393Y-60423146D02*
G01*
X120459882Y-60810202D01*
X120217448Y-61097202D01*
X120109048Y-61376787D01*
X120081642Y-61741599D01*
X120081212Y-61834661D01*
X120081212Y-62546755D01*
X120893288Y-61744766D01*
X121705365Y-60942777D01*
X122201025Y-61438438D01*
X122696686Y-61934098D01*
X121845270Y-62794492D01*
X120993854Y-63654885D01*
X121037836Y-65310399D01*
X121081818Y-66965914D01*
X121505151Y-66523473D01*
X121733883Y-66250547D01*
X121861695Y-65967593D01*
X121917059Y-65573211D01*
X121928484Y-65015742D01*
X121928484Y-63950453D01*
X123929686Y-61933799D01*
X122813631Y-60828762D01*
X121697575Y-59723725D01*
X120889393Y-60423146D01*
G37*
X120889393Y-60423146D02*
X120459882Y-60810202D01*
X120217448Y-61097202D01*
X120109048Y-61376787D01*
X120081642Y-61741599D01*
X120081212Y-61834661D01*
X120081212Y-62546755D01*
X120893288Y-61744766D01*
X121705365Y-60942777D01*
X122201025Y-61438438D01*
X122696686Y-61934098D01*
X121845270Y-62794492D01*
X120993854Y-63654885D01*
X121037836Y-65310399D01*
X121081818Y-66965914D01*
X121505151Y-66523473D01*
X121733883Y-66250547D01*
X121861695Y-65967593D01*
X121917059Y-65573211D01*
X121928484Y-65015742D01*
X121928484Y-63950453D01*
X123929686Y-61933799D01*
X122813631Y-60828762D01*
X121697575Y-59723725D01*
X120889393Y-60423146D01*
G36*
X120889393Y-40423146D02*
G01*
X120459882Y-40810202D01*
X120217448Y-41097202D01*
X120109048Y-41376787D01*
X120081642Y-41741599D01*
X120081212Y-41834661D01*
X120081212Y-42546755D01*
X120893288Y-41744766D01*
X121705365Y-40942777D01*
X122201025Y-41438438D01*
X122696686Y-41934098D01*
X121845270Y-42794492D01*
X120993854Y-43654885D01*
X121037836Y-45310399D01*
X121081818Y-46965914D01*
X121505151Y-46523473D01*
X121733883Y-46250547D01*
X121861695Y-45967593D01*
X121917059Y-45573211D01*
X121928484Y-45015742D01*
X121928484Y-43950453D01*
X123929686Y-41933799D01*
X122813631Y-40828762D01*
X121697575Y-39723725D01*
X120889393Y-40423146D01*
G37*
X120889393Y-40423146D02*
X120459882Y-40810202D01*
X120217448Y-41097202D01*
X120109048Y-41376787D01*
X120081642Y-41741599D01*
X120081212Y-41834661D01*
X120081212Y-42546755D01*
X120893288Y-41744766D01*
X121705365Y-40942777D01*
X122201025Y-41438438D01*
X122696686Y-41934098D01*
X121845270Y-42794492D01*
X120993854Y-43654885D01*
X121037836Y-45310399D01*
X121081818Y-46965914D01*
X121505151Y-46523473D01*
X121733883Y-46250547D01*
X121861695Y-45967593D01*
X121917059Y-45573211D01*
X121928484Y-45015742D01*
X121928484Y-43950453D01*
X123929686Y-41933799D01*
X122813631Y-40828762D01*
X121697575Y-39723725D01*
X120889393Y-40423146D01*
G36*
X119323272Y-43582194D02*
G01*
X119191634Y-43713962D01*
X119158304Y-44041414D01*
X119157575Y-44173636D01*
X119157575Y-44789394D01*
X117926060Y-44789394D01*
X117926060Y-44163411D01*
X117909970Y-43766795D01*
X117822498Y-43597616D01*
X117604841Y-43575687D01*
X117502727Y-43586138D01*
X117079393Y-43634848D01*
X117035701Y-45289697D01*
X116992008Y-46944545D01*
X117459034Y-46944545D01*
X117746185Y-46924901D01*
X117882186Y-46810245D01*
X117923389Y-46516991D01*
X117926060Y-46251818D01*
X117926060Y-45559090D01*
X119157575Y-45559090D01*
X119157575Y-46251818D01*
X119170963Y-46677786D01*
X119248259Y-46879539D01*
X119445168Y-46940629D01*
X119619393Y-46944545D01*
X120081212Y-46944545D01*
X120081212Y-43557878D01*
X119619393Y-43557878D01*
X119323272Y-43582194D01*
G37*
X119323272Y-43582194D02*
X119191634Y-43713962D01*
X119158304Y-44041414D01*
X119157575Y-44173636D01*
X119157575Y-44789394D01*
X117926060Y-44789394D01*
X117926060Y-44163411D01*
X117909970Y-43766795D01*
X117822498Y-43597616D01*
X117604841Y-43575687D01*
X117502727Y-43586138D01*
X117079393Y-43634848D01*
X117035701Y-45289697D01*
X116992008Y-46944545D01*
X117459034Y-46944545D01*
X117746185Y-46924901D01*
X117882186Y-46810245D01*
X117923389Y-46516991D01*
X117926060Y-46251818D01*
X117926060Y-45559090D01*
X119157575Y-45559090D01*
X119157575Y-46251818D01*
X119170963Y-46677786D01*
X119248259Y-46879539D01*
X119445168Y-46940629D01*
X119619393Y-46944545D01*
X120081212Y-46944545D01*
X120081212Y-43557878D01*
X119619393Y-43557878D01*
X119323272Y-43582194D01*
G36*
X114761891Y-43614157D02*
G01*
X114176456Y-43767601D01*
X113795358Y-43995123D01*
X113736702Y-44067812D01*
X113622926Y-44505003D01*
X113751502Y-44963021D01*
X113860068Y-45112081D01*
X113994110Y-45301740D01*
X113986149Y-45497786D01*
X113818135Y-45800589D01*
X113706128Y-45968119D01*
X113410165Y-46458523D01*
X113330986Y-46762364D01*
X113469438Y-46912528D01*
X113731212Y-46944129D01*
X114056406Y-46874237D01*
X114314776Y-46617405D01*
X114462424Y-46368673D01*
X114715180Y-45996889D01*
X114971816Y-45768078D01*
X115039696Y-45742044D01*
X115214385Y-45763209D01*
X115293196Y-45962421D01*
X115309090Y-46317500D01*
X115326485Y-46716995D01*
X115421636Y-46896410D01*
X115658995Y-46943258D01*
X115770909Y-46944545D01*
X116232727Y-46944545D01*
X116232727Y-44723130D01*
X115309090Y-44723130D01*
X115258836Y-45011451D01*
X115055968Y-45079190D01*
X114962727Y-45069494D01*
X114651515Y-44894194D01*
X114567172Y-44673939D01*
X114587820Y-44415224D01*
X114807492Y-44330681D01*
X114913535Y-44327575D01*
X115211204Y-44386573D01*
X115306171Y-44625294D01*
X115309090Y-44723130D01*
X116232727Y-44723130D01*
X116232727Y-43557878D01*
X115473051Y-43557878D01*
X114761891Y-43614157D01*
G37*
X114761891Y-43614157D02*
X114176456Y-43767601D01*
X113795358Y-43995123D01*
X113736702Y-44067812D01*
X113622926Y-44505003D01*
X113751502Y-44963021D01*
X113860068Y-45112081D01*
X113994110Y-45301740D01*
X113986149Y-45497786D01*
X113818135Y-45800589D01*
X113706128Y-45968119D01*
X113410165Y-46458523D01*
X113330986Y-46762364D01*
X113469438Y-46912528D01*
X113731212Y-46944129D01*
X114056406Y-46874237D01*
X114314776Y-46617405D01*
X114462424Y-46368673D01*
X114715180Y-45996889D01*
X114971816Y-45768078D01*
X115039696Y-45742044D01*
X115214385Y-45763209D01*
X115293196Y-45962421D01*
X115309090Y-46317500D01*
X115326485Y-46716995D01*
X115421636Y-46896410D01*
X115658995Y-46943258D01*
X115770909Y-46944545D01*
X116232727Y-46944545D01*
X116232727Y-44723130D01*
X115309090Y-44723130D01*
X115258836Y-45011451D01*
X115055968Y-45079190D01*
X114962727Y-45069494D01*
X114651515Y-44894194D01*
X114567172Y-44673939D01*
X114587820Y-44415224D01*
X114807492Y-44330681D01*
X114913535Y-44327575D01*
X115211204Y-44386573D01*
X115306171Y-44625294D01*
X115309090Y-44723130D01*
X116232727Y-44723130D01*
X116232727Y-43557878D01*
X115473051Y-43557878D01*
X114761891Y-43614157D01*
G36*
X112037878Y-43558737D02*
G01*
X111071988Y-43652391D01*
X110346338Y-43928210D01*
X109865671Y-44382748D01*
X109634733Y-45012560D01*
X109613333Y-45319914D01*
X109733661Y-45994473D01*
X110096950Y-46487267D01*
X110706656Y-46800801D01*
X111566235Y-46937580D01*
X111855475Y-46944545D01*
X112692121Y-46944545D01*
X112692121Y-45331114D01*
X111768484Y-45331114D01*
X111768484Y-46334653D01*
X111345151Y-46233524D01*
X110961115Y-46105649D01*
X110729393Y-45980833D01*
X110578422Y-45696134D01*
X110545651Y-45268098D01*
X110626210Y-44835602D01*
X110778874Y-44569480D01*
X111122390Y-44376027D01*
X111394632Y-44327575D01*
X111595454Y-44346460D01*
X111707442Y-44449363D01*
X111756441Y-44705657D01*
X111768295Y-45184715D01*
X111768484Y-45331114D01*
X112692121Y-45331114D01*
X112692121Y-43557878D01*
X112037878Y-43558737D01*
G37*
X112037878Y-43558737D02*
X111071988Y-43652391D01*
X110346338Y-43928210D01*
X109865671Y-44382748D01*
X109634733Y-45012560D01*
X109613333Y-45319914D01*
X109733661Y-45994473D01*
X110096950Y-46487267D01*
X110706656Y-46800801D01*
X111566235Y-46937580D01*
X111855475Y-46944545D01*
X112692121Y-46944545D01*
X112692121Y-45331114D01*
X111768484Y-45331114D01*
X111768484Y-46334653D01*
X111345151Y-46233524D01*
X110961115Y-46105649D01*
X110729393Y-45980833D01*
X110578422Y-45696134D01*
X110545651Y-45268098D01*
X110626210Y-44835602D01*
X110778874Y-44569480D01*
X111122390Y-44376027D01*
X111394632Y-44327575D01*
X111595454Y-44346460D01*
X111707442Y-44449363D01*
X111756441Y-44705657D01*
X111768295Y-45184715D01*
X111768484Y-45331114D01*
X112692121Y-45331114D01*
X112692121Y-43557878D01*
X112037878Y-43558737D01*
G36*
X106991556Y-43574563D02*
G01*
X106510835Y-43647713D01*
X106302993Y-43811976D01*
X106351955Y-44101995D01*
X106641647Y-44552417D01*
X107056545Y-45076753D01*
X107441725Y-45557948D01*
X107738368Y-45948313D01*
X107901800Y-46188158D01*
X107920000Y-46230469D01*
X107780751Y-46284323D01*
X107421561Y-46320034D01*
X107073333Y-46328787D01*
X106584046Y-46342151D01*
X106329155Y-46399929D01*
X106235696Y-46528654D01*
X106226666Y-46636666D01*
X106248749Y-46779762D01*
X106353072Y-46870073D01*
X106596746Y-46919624D01*
X107036880Y-46940438D01*
X107689090Y-46944545D01*
X108372668Y-46938681D01*
X108804507Y-46914080D01*
X109040639Y-46860229D01*
X109137096Y-46766613D01*
X109151515Y-46670136D01*
X109057511Y-46432397D01*
X108806804Y-46035351D01*
X108446352Y-45550582D01*
X108293189Y-45361651D01*
X107434864Y-44327575D01*
X108293189Y-44327575D01*
X108782249Y-44317900D01*
X109038396Y-44266496D01*
X109136489Y-44139801D01*
X109151515Y-43942727D01*
X109140541Y-43760799D01*
X109068190Y-43647724D01*
X108875320Y-43587130D01*
X108502785Y-43562646D01*
X107891444Y-43557900D01*
X107761229Y-43557878D01*
X106991556Y-43574563D01*
G37*
X106991556Y-43574563D02*
X106510835Y-43647713D01*
X106302993Y-43811976D01*
X106351955Y-44101995D01*
X106641647Y-44552417D01*
X107056545Y-45076753D01*
X107441725Y-45557948D01*
X107738368Y-45948313D01*
X107901800Y-46188158D01*
X107920000Y-46230469D01*
X107780751Y-46284323D01*
X107421561Y-46320034D01*
X107073333Y-46328787D01*
X106584046Y-46342151D01*
X106329155Y-46399929D01*
X106235696Y-46528654D01*
X106226666Y-46636666D01*
X106248749Y-46779762D01*
X106353072Y-46870073D01*
X106596746Y-46919624D01*
X107036880Y-46940438D01*
X107689090Y-46944545D01*
X108372668Y-46938681D01*
X108804507Y-46914080D01*
X109040639Y-46860229D01*
X109137096Y-46766613D01*
X109151515Y-46670136D01*
X109057511Y-46432397D01*
X108806804Y-46035351D01*
X108446352Y-45550582D01*
X108293189Y-45361651D01*
X107434864Y-44327575D01*
X108293189Y-44327575D01*
X108782249Y-44317900D01*
X109038396Y-44266496D01*
X109136489Y-44139801D01*
X109151515Y-43942727D01*
X109140541Y-43760799D01*
X109068190Y-43647724D01*
X108875320Y-43587130D01*
X108502785Y-43562646D01*
X107891444Y-43557900D01*
X107761229Y-43557878D01*
X106991556Y-43574563D01*
G36*
X104736380Y-43580757D02*
G01*
X104524967Y-43697322D01*
X104348353Y-43979463D01*
X104196399Y-44327575D01*
X104000072Y-44754146D01*
X103834895Y-45033649D01*
X103763636Y-45097272D01*
X103647089Y-44967378D01*
X103467194Y-44633147D01*
X103330873Y-44327575D01*
X103128929Y-43880791D01*
X102950796Y-43651604D01*
X102715477Y-43568124D01*
X102463682Y-43557878D01*
X101916363Y-43557878D01*
X101916363Y-46944545D01*
X102294468Y-46944545D01*
X102490176Y-46926699D01*
X102607127Y-46829298D01*
X102670276Y-46586552D01*
X102704578Y-46132668D01*
X102717801Y-45828484D01*
X102763030Y-44712424D01*
X103128350Y-45520606D01*
X103421514Y-46058425D01*
X103682577Y-46310581D01*
X103763636Y-46328787D01*
X104011024Y-46178941D01*
X104294287Y-45738630D01*
X104398922Y-45520606D01*
X104764242Y-44712424D01*
X104809471Y-45828484D01*
X104838841Y-46404028D01*
X104885356Y-46737584D01*
X104973972Y-46894945D01*
X105129644Y-46941902D01*
X105232804Y-46944545D01*
X105610909Y-46944545D01*
X105610909Y-43557878D01*
X105063590Y-43557878D01*
X104736380Y-43580757D01*
G37*
X104736380Y-43580757D02*
X104524967Y-43697322D01*
X104348353Y-43979463D01*
X104196399Y-44327575D01*
X104000072Y-44754146D01*
X103834895Y-45033649D01*
X103763636Y-45097272D01*
X103647089Y-44967378D01*
X103467194Y-44633147D01*
X103330873Y-44327575D01*
X103128929Y-43880791D01*
X102950796Y-43651604D01*
X102715477Y-43568124D01*
X102463682Y-43557878D01*
X101916363Y-43557878D01*
X101916363Y-46944545D01*
X102294468Y-46944545D01*
X102490176Y-46926699D01*
X102607127Y-46829298D01*
X102670276Y-46586552D01*
X102704578Y-46132668D01*
X102717801Y-45828484D01*
X102763030Y-44712424D01*
X103128350Y-45520606D01*
X103421514Y-46058425D01*
X103682577Y-46310581D01*
X103763636Y-46328787D01*
X104011024Y-46178941D01*
X104294287Y-45738630D01*
X104398922Y-45520606D01*
X104764242Y-44712424D01*
X104809471Y-45828484D01*
X104838841Y-46404028D01*
X104885356Y-46737584D01*
X104973972Y-46894945D01*
X105129644Y-46941902D01*
X105232804Y-46944545D01*
X105610909Y-46944545D01*
X105610909Y-43557878D01*
X105063590Y-43557878D01*
X104736380Y-43580757D01*
G36*
X106661550Y-40394707D02*
G01*
X105582084Y-40590377D01*
X104583879Y-40772039D01*
X103712911Y-40931269D01*
X103015160Y-41059640D01*
X102536604Y-41148729D01*
X102339696Y-41186623D01*
X102062589Y-41281269D01*
X101942331Y-41479158D01*
X101916363Y-41876776D01*
X101938528Y-42257971D01*
X101993768Y-42466807D01*
X102014360Y-42480303D01*
X102185570Y-42453450D01*
X102619893Y-42377650D01*
X103277714Y-42260036D01*
X104119419Y-42107745D01*
X105105393Y-41927911D01*
X106196021Y-41727669D01*
X106324663Y-41703968D01*
X110536969Y-40927634D01*
X114749276Y-41703968D01*
X115854042Y-41906459D01*
X116863046Y-42089259D01*
X117735726Y-42245193D01*
X118431519Y-42367081D01*
X118909864Y-42447748D01*
X119130199Y-42480014D01*
X119136549Y-42480303D01*
X119253464Y-42344969D01*
X119310375Y-42011512D01*
X119311515Y-41950600D01*
X119273638Y-41569329D01*
X119181152Y-41342479D01*
X119168231Y-41332343D01*
X118984780Y-41282464D01*
X118538462Y-41185885D01*
X117869400Y-41050543D01*
X117017718Y-40884377D01*
X116023540Y-40695327D01*
X114926990Y-40491329D01*
X114792509Y-40466604D01*
X110560070Y-39689420D01*
X106661550Y-40394707D01*
G37*
X106661550Y-40394707D02*
X105582084Y-40590377D01*
X104583879Y-40772039D01*
X103712911Y-40931269D01*
X103015160Y-41059640D01*
X102536604Y-41148729D01*
X102339696Y-41186623D01*
X102062589Y-41281269D01*
X101942331Y-41479158D01*
X101916363Y-41876776D01*
X101938528Y-42257971D01*
X101993768Y-42466807D01*
X102014360Y-42480303D01*
X102185570Y-42453450D01*
X102619893Y-42377650D01*
X103277714Y-42260036D01*
X104119419Y-42107745D01*
X105105393Y-41927911D01*
X106196021Y-41727669D01*
X106324663Y-41703968D01*
X110536969Y-40927634D01*
X114749276Y-41703968D01*
X115854042Y-41906459D01*
X116863046Y-42089259D01*
X117735726Y-42245193D01*
X118431519Y-42367081D01*
X118909864Y-42447748D01*
X119130199Y-42480014D01*
X119136549Y-42480303D01*
X119253464Y-42344969D01*
X119310375Y-42011512D01*
X119311515Y-41950600D01*
X119273638Y-41569329D01*
X119181152Y-41342479D01*
X119168231Y-41332343D01*
X118984780Y-41282464D01*
X118538462Y-41185885D01*
X117869400Y-41050543D01*
X117017718Y-40884377D01*
X116023540Y-40695327D01*
X114926990Y-40491329D01*
X114792509Y-40466604D01*
X110560070Y-39689420D01*
X106661550Y-40394707D01*
G36*
X56661550Y-120394707D02*
G01*
X55582084Y-120590377D01*
X54583879Y-120772039D01*
X53712911Y-120931269D01*
X53015160Y-121059640D01*
X52536604Y-121148729D01*
X52339696Y-121186623D01*
X52062589Y-121281269D01*
X51942331Y-121479158D01*
X51916363Y-121876776D01*
X51938528Y-122257971D01*
X51993768Y-122466807D01*
X52014360Y-122480303D01*
X52185570Y-122453450D01*
X52619893Y-122377650D01*
X53277714Y-122260036D01*
X54119419Y-122107745D01*
X55105393Y-121927911D01*
X56196021Y-121727669D01*
X56324663Y-121703968D01*
X60536969Y-120927634D01*
X64749276Y-121703968D01*
X65854042Y-121906459D01*
X66863046Y-122089259D01*
X67735726Y-122245193D01*
X68431519Y-122367081D01*
X68909864Y-122447748D01*
X69130199Y-122480014D01*
X69136549Y-122480303D01*
X69253464Y-122344969D01*
X69310375Y-122011512D01*
X69311515Y-121950600D01*
X69273638Y-121569329D01*
X69181152Y-121342479D01*
X69168231Y-121332343D01*
X68984780Y-121282464D01*
X68538462Y-121185885D01*
X67869400Y-121050543D01*
X67017718Y-120884377D01*
X66023540Y-120695327D01*
X64926990Y-120491329D01*
X64792509Y-120466604D01*
X60560070Y-119689420D01*
X56661550Y-120394707D01*
G37*
X56661550Y-120394707D02*
X55582084Y-120590377D01*
X54583879Y-120772039D01*
X53712911Y-120931269D01*
X53015160Y-121059640D01*
X52536604Y-121148729D01*
X52339696Y-121186623D01*
X52062589Y-121281269D01*
X51942331Y-121479158D01*
X51916363Y-121876776D01*
X51938528Y-122257971D01*
X51993768Y-122466807D01*
X52014360Y-122480303D01*
X52185570Y-122453450D01*
X52619893Y-122377650D01*
X53277714Y-122260036D01*
X54119419Y-122107745D01*
X55105393Y-121927911D01*
X56196021Y-121727669D01*
X56324663Y-121703968D01*
X60536969Y-120927634D01*
X64749276Y-121703968D01*
X65854042Y-121906459D01*
X66863046Y-122089259D01*
X67735726Y-122245193D01*
X68431519Y-122367081D01*
X68909864Y-122447748D01*
X69130199Y-122480014D01*
X69136549Y-122480303D01*
X69253464Y-122344969D01*
X69310375Y-122011512D01*
X69311515Y-121950600D01*
X69273638Y-121569329D01*
X69181152Y-121342479D01*
X69168231Y-121332343D01*
X68984780Y-121282464D01*
X68538462Y-121185885D01*
X67869400Y-121050543D01*
X67017718Y-120884377D01*
X66023540Y-120695327D01*
X64926990Y-120491329D01*
X64792509Y-120466604D01*
X60560070Y-119689420D01*
X56661550Y-120394707D01*
G36*
X54736380Y-123580757D02*
G01*
X54524967Y-123697322D01*
X54348353Y-123979463D01*
X54196399Y-124327575D01*
X54000072Y-124754146D01*
X53834895Y-125033649D01*
X53763636Y-125097272D01*
X53647089Y-124967378D01*
X53467194Y-124633147D01*
X53330873Y-124327575D01*
X53128929Y-123880791D01*
X52950796Y-123651604D01*
X52715477Y-123568124D01*
X52463682Y-123557878D01*
X51916363Y-123557878D01*
X51916363Y-126944545D01*
X52294468Y-126944545D01*
X52490176Y-126926699D01*
X52607127Y-126829298D01*
X52670276Y-126586552D01*
X52704578Y-126132668D01*
X52717801Y-125828484D01*
X52763030Y-124712424D01*
X53128350Y-125520606D01*
X53421514Y-126058425D01*
X53682577Y-126310581D01*
X53763636Y-126328787D01*
X54011024Y-126178941D01*
X54294287Y-125738630D01*
X54398922Y-125520606D01*
X54764242Y-124712424D01*
X54809471Y-125828484D01*
X54838841Y-126404028D01*
X54885356Y-126737584D01*
X54973972Y-126894945D01*
X55129644Y-126941902D01*
X55232804Y-126944545D01*
X55610909Y-126944545D01*
X55610909Y-123557878D01*
X55063590Y-123557878D01*
X54736380Y-123580757D01*
G37*
X54736380Y-123580757D02*
X54524967Y-123697322D01*
X54348353Y-123979463D01*
X54196399Y-124327575D01*
X54000072Y-124754146D01*
X53834895Y-125033649D01*
X53763636Y-125097272D01*
X53647089Y-124967378D01*
X53467194Y-124633147D01*
X53330873Y-124327575D01*
X53128929Y-123880791D01*
X52950796Y-123651604D01*
X52715477Y-123568124D01*
X52463682Y-123557878D01*
X51916363Y-123557878D01*
X51916363Y-126944545D01*
X52294468Y-126944545D01*
X52490176Y-126926699D01*
X52607127Y-126829298D01*
X52670276Y-126586552D01*
X52704578Y-126132668D01*
X52717801Y-125828484D01*
X52763030Y-124712424D01*
X53128350Y-125520606D01*
X53421514Y-126058425D01*
X53682577Y-126310581D01*
X53763636Y-126328787D01*
X54011024Y-126178941D01*
X54294287Y-125738630D01*
X54398922Y-125520606D01*
X54764242Y-124712424D01*
X54809471Y-125828484D01*
X54838841Y-126404028D01*
X54885356Y-126737584D01*
X54973972Y-126894945D01*
X55129644Y-126941902D01*
X55232804Y-126944545D01*
X55610909Y-126944545D01*
X55610909Y-123557878D01*
X55063590Y-123557878D01*
X54736380Y-123580757D01*
G36*
X56991556Y-123574563D02*
G01*
X56510835Y-123647713D01*
X56302993Y-123811976D01*
X56351955Y-124101995D01*
X56641647Y-124552417D01*
X57056545Y-125076753D01*
X57441725Y-125557948D01*
X57738368Y-125948313D01*
X57901800Y-126188158D01*
X57920000Y-126230469D01*
X57780751Y-126284323D01*
X57421561Y-126320034D01*
X57073333Y-126328787D01*
X56584046Y-126342151D01*
X56329155Y-126399929D01*
X56235696Y-126528654D01*
X56226666Y-126636666D01*
X56248749Y-126779762D01*
X56353072Y-126870073D01*
X56596746Y-126919624D01*
X57036880Y-126940438D01*
X57689090Y-126944545D01*
X58372668Y-126938681D01*
X58804507Y-126914080D01*
X59040639Y-126860229D01*
X59137096Y-126766613D01*
X59151515Y-126670136D01*
X59057511Y-126432397D01*
X58806804Y-126035351D01*
X58446352Y-125550582D01*
X58293189Y-125361651D01*
X57434864Y-124327575D01*
X58293189Y-124327575D01*
X58782249Y-124317900D01*
X59038396Y-124266496D01*
X59136489Y-124139801D01*
X59151515Y-123942727D01*
X59140541Y-123760799D01*
X59068190Y-123647724D01*
X58875320Y-123587130D01*
X58502785Y-123562646D01*
X57891444Y-123557900D01*
X57761229Y-123557878D01*
X56991556Y-123574563D01*
G37*
X56991556Y-123574563D02*
X56510835Y-123647713D01*
X56302993Y-123811976D01*
X56351955Y-124101995D01*
X56641647Y-124552417D01*
X57056545Y-125076753D01*
X57441725Y-125557948D01*
X57738368Y-125948313D01*
X57901800Y-126188158D01*
X57920000Y-126230469D01*
X57780751Y-126284323D01*
X57421561Y-126320034D01*
X57073333Y-126328787D01*
X56584046Y-126342151D01*
X56329155Y-126399929D01*
X56235696Y-126528654D01*
X56226666Y-126636666D01*
X56248749Y-126779762D01*
X56353072Y-126870073D01*
X56596746Y-126919624D01*
X57036880Y-126940438D01*
X57689090Y-126944545D01*
X58372668Y-126938681D01*
X58804507Y-126914080D01*
X59040639Y-126860229D01*
X59137096Y-126766613D01*
X59151515Y-126670136D01*
X59057511Y-126432397D01*
X58806804Y-126035351D01*
X58446352Y-125550582D01*
X58293189Y-125361651D01*
X57434864Y-124327575D01*
X58293189Y-124327575D01*
X58782249Y-124317900D01*
X59038396Y-124266496D01*
X59136489Y-124139801D01*
X59151515Y-123942727D01*
X59140541Y-123760799D01*
X59068190Y-123647724D01*
X58875320Y-123587130D01*
X58502785Y-123562646D01*
X57891444Y-123557900D01*
X57761229Y-123557878D01*
X56991556Y-123574563D01*
G36*
X62037878Y-123558737D02*
G01*
X61071988Y-123652391D01*
X60346338Y-123928210D01*
X59865671Y-124382748D01*
X59634733Y-125012560D01*
X59613333Y-125319914D01*
X59733661Y-125994473D01*
X60096950Y-126487267D01*
X60706656Y-126800801D01*
X61566235Y-126937580D01*
X61855475Y-126944545D01*
X62692121Y-126944545D01*
X62692121Y-125331114D01*
X61768484Y-125331114D01*
X61768484Y-126334653D01*
X61345151Y-126233524D01*
X60961115Y-126105649D01*
X60729393Y-125980833D01*
X60578422Y-125696134D01*
X60545651Y-125268098D01*
X60626210Y-124835602D01*
X60778874Y-124569480D01*
X61122390Y-124376027D01*
X61394632Y-124327575D01*
X61595454Y-124346460D01*
X61707442Y-124449363D01*
X61756441Y-124705657D01*
X61768295Y-125184715D01*
X61768484Y-125331114D01*
X62692121Y-125331114D01*
X62692121Y-123557878D01*
X62037878Y-123558737D01*
G37*
X62037878Y-123558737D02*
X61071988Y-123652391D01*
X60346338Y-123928210D01*
X59865671Y-124382748D01*
X59634733Y-125012560D01*
X59613333Y-125319914D01*
X59733661Y-125994473D01*
X60096950Y-126487267D01*
X60706656Y-126800801D01*
X61566235Y-126937580D01*
X61855475Y-126944545D01*
X62692121Y-126944545D01*
X62692121Y-125331114D01*
X61768484Y-125331114D01*
X61768484Y-126334653D01*
X61345151Y-126233524D01*
X60961115Y-126105649D01*
X60729393Y-125980833D01*
X60578422Y-125696134D01*
X60545651Y-125268098D01*
X60626210Y-124835602D01*
X60778874Y-124569480D01*
X61122390Y-124376027D01*
X61394632Y-124327575D01*
X61595454Y-124346460D01*
X61707442Y-124449363D01*
X61756441Y-124705657D01*
X61768295Y-125184715D01*
X61768484Y-125331114D01*
X62692121Y-125331114D01*
X62692121Y-123557878D01*
X62037878Y-123558737D01*
G36*
X64761891Y-123614157D02*
G01*
X64176456Y-123767601D01*
X63795358Y-123995123D01*
X63736702Y-124067812D01*
X63622926Y-124505003D01*
X63751502Y-124963021D01*
X63860068Y-125112081D01*
X63994110Y-125301740D01*
X63986149Y-125497786D01*
X63818135Y-125800589D01*
X63706128Y-125968119D01*
X63410165Y-126458523D01*
X63330986Y-126762364D01*
X63469438Y-126912528D01*
X63731212Y-126944129D01*
X64056406Y-126874237D01*
X64314776Y-126617405D01*
X64462424Y-126368673D01*
X64715180Y-125996889D01*
X64971816Y-125768078D01*
X65039696Y-125742044D01*
X65214385Y-125763209D01*
X65293196Y-125962421D01*
X65309090Y-126317500D01*
X65326485Y-126716995D01*
X65421636Y-126896410D01*
X65658995Y-126943258D01*
X65770909Y-126944545D01*
X66232727Y-126944545D01*
X66232727Y-124723130D01*
X65309090Y-124723130D01*
X65258836Y-125011451D01*
X65055968Y-125079190D01*
X64962727Y-125069494D01*
X64651515Y-124894194D01*
X64567172Y-124673939D01*
X64587820Y-124415224D01*
X64807492Y-124330681D01*
X64913535Y-124327575D01*
X65211204Y-124386573D01*
X65306171Y-124625294D01*
X65309090Y-124723130D01*
X66232727Y-124723130D01*
X66232727Y-123557878D01*
X65473051Y-123557878D01*
X64761891Y-123614157D01*
G37*
X64761891Y-123614157D02*
X64176456Y-123767601D01*
X63795358Y-123995123D01*
X63736702Y-124067812D01*
X63622926Y-124505003D01*
X63751502Y-124963021D01*
X63860068Y-125112081D01*
X63994110Y-125301740D01*
X63986149Y-125497786D01*
X63818135Y-125800589D01*
X63706128Y-125968119D01*
X63410165Y-126458523D01*
X63330986Y-126762364D01*
X63469438Y-126912528D01*
X63731212Y-126944129D01*
X64056406Y-126874237D01*
X64314776Y-126617405D01*
X64462424Y-126368673D01*
X64715180Y-125996889D01*
X64971816Y-125768078D01*
X65039696Y-125742044D01*
X65214385Y-125763209D01*
X65293196Y-125962421D01*
X65309090Y-126317500D01*
X65326485Y-126716995D01*
X65421636Y-126896410D01*
X65658995Y-126943258D01*
X65770909Y-126944545D01*
X66232727Y-126944545D01*
X66232727Y-124723130D01*
X65309090Y-124723130D01*
X65258836Y-125011451D01*
X65055968Y-125079190D01*
X64962727Y-125069494D01*
X64651515Y-124894194D01*
X64567172Y-124673939D01*
X64587820Y-124415224D01*
X64807492Y-124330681D01*
X64913535Y-124327575D01*
X65211204Y-124386573D01*
X65306171Y-124625294D01*
X65309090Y-124723130D01*
X66232727Y-124723130D01*
X66232727Y-123557878D01*
X65473051Y-123557878D01*
X64761891Y-123614157D01*
G36*
X69323272Y-123582194D02*
G01*
X69191634Y-123713962D01*
X69158304Y-124041414D01*
X69157575Y-124173636D01*
X69157575Y-124789394D01*
X67926060Y-124789394D01*
X67926060Y-124163411D01*
X67909970Y-123766795D01*
X67822498Y-123597616D01*
X67604841Y-123575687D01*
X67502727Y-123586138D01*
X67079393Y-123634848D01*
X67035701Y-125289697D01*
X66992008Y-126944545D01*
X67459034Y-126944545D01*
X67746185Y-126924901D01*
X67882186Y-126810245D01*
X67923389Y-126516991D01*
X67926060Y-126251818D01*
X67926060Y-125559090D01*
X69157575Y-125559090D01*
X69157575Y-126251818D01*
X69170963Y-126677786D01*
X69248259Y-126879539D01*
X69445168Y-126940629D01*
X69619393Y-126944545D01*
X70081212Y-126944545D01*
X70081212Y-123557878D01*
X69619393Y-123557878D01*
X69323272Y-123582194D01*
G37*
X69323272Y-123582194D02*
X69191634Y-123713962D01*
X69158304Y-124041414D01*
X69157575Y-124173636D01*
X69157575Y-124789394D01*
X67926060Y-124789394D01*
X67926060Y-124163411D01*
X67909970Y-123766795D01*
X67822498Y-123597616D01*
X67604841Y-123575687D01*
X67502727Y-123586138D01*
X67079393Y-123634848D01*
X67035701Y-125289697D01*
X66992008Y-126944545D01*
X67459034Y-126944545D01*
X67746185Y-126924901D01*
X67882186Y-126810245D01*
X67923389Y-126516991D01*
X67926060Y-126251818D01*
X67926060Y-125559090D01*
X69157575Y-125559090D01*
X69157575Y-126251818D01*
X69170963Y-126677786D01*
X69248259Y-126879539D01*
X69445168Y-126940629D01*
X69619393Y-126944545D01*
X70081212Y-126944545D01*
X70081212Y-123557878D01*
X69619393Y-123557878D01*
X69323272Y-123582194D01*
G36*
X70889393Y-120423146D02*
G01*
X70459882Y-120810202D01*
X70217448Y-121097202D01*
X70109048Y-121376787D01*
X70081642Y-121741599D01*
X70081212Y-121834661D01*
X70081212Y-122546755D01*
X70893288Y-121744766D01*
X71705365Y-120942777D01*
X72201025Y-121438438D01*
X72696686Y-121934098D01*
X71845270Y-122794492D01*
X70993854Y-123654885D01*
X71037836Y-125310399D01*
X71081818Y-126965914D01*
X71505151Y-126523473D01*
X71733883Y-126250547D01*
X71861695Y-125967593D01*
X71917059Y-125573211D01*
X71928484Y-125015742D01*
X71928484Y-123950453D01*
X73929686Y-121933799D01*
X72813631Y-120828762D01*
X71697575Y-119723725D01*
X70889393Y-120423146D01*
G37*
X70889393Y-120423146D02*
X70459882Y-120810202D01*
X70217448Y-121097202D01*
X70109048Y-121376787D01*
X70081642Y-121741599D01*
X70081212Y-121834661D01*
X70081212Y-122546755D01*
X70893288Y-121744766D01*
X71705365Y-120942777D01*
X72201025Y-121438438D01*
X72696686Y-121934098D01*
X71845270Y-122794492D01*
X70993854Y-123654885D01*
X71037836Y-125310399D01*
X71081818Y-126965914D01*
X71505151Y-126523473D01*
X71733883Y-126250547D01*
X71861695Y-125967593D01*
X71917059Y-125573211D01*
X71928484Y-125015742D01*
X71928484Y-123950453D01*
X73929686Y-121933799D01*
X72813631Y-120828762D01*
X71697575Y-119723725D01*
X70889393Y-120423146D01*
G36*
X70889393Y-100423146D02*
G01*
X70459882Y-100810202D01*
X70217448Y-101097202D01*
X70109048Y-101376787D01*
X70081642Y-101741599D01*
X70081212Y-101834661D01*
X70081212Y-102546755D01*
X70893288Y-101744766D01*
X71705365Y-100942777D01*
X72201025Y-101438438D01*
X72696686Y-101934098D01*
X71845270Y-102794492D01*
X70993854Y-103654885D01*
X71037836Y-105310399D01*
X71081818Y-106965914D01*
X71505151Y-106523473D01*
X71733883Y-106250547D01*
X71861695Y-105967593D01*
X71917059Y-105573211D01*
X71928484Y-105015742D01*
X71928484Y-103950453D01*
X73929686Y-101933799D01*
X72813631Y-100828762D01*
X71697575Y-99723725D01*
X70889393Y-100423146D01*
G37*
X70889393Y-100423146D02*
X70459882Y-100810202D01*
X70217448Y-101097202D01*
X70109048Y-101376787D01*
X70081642Y-101741599D01*
X70081212Y-101834661D01*
X70081212Y-102546755D01*
X70893288Y-101744766D01*
X71705365Y-100942777D01*
X72201025Y-101438438D01*
X72696686Y-101934098D01*
X71845270Y-102794492D01*
X70993854Y-103654885D01*
X71037836Y-105310399D01*
X71081818Y-106965914D01*
X71505151Y-106523473D01*
X71733883Y-106250547D01*
X71861695Y-105967593D01*
X71917059Y-105573211D01*
X71928484Y-105015742D01*
X71928484Y-103950453D01*
X73929686Y-101933799D01*
X72813631Y-100828762D01*
X71697575Y-99723725D01*
X70889393Y-100423146D01*
G36*
X69323272Y-103582194D02*
G01*
X69191634Y-103713962D01*
X69158304Y-104041414D01*
X69157575Y-104173636D01*
X69157575Y-104789394D01*
X67926060Y-104789394D01*
X67926060Y-104163411D01*
X67909970Y-103766795D01*
X67822498Y-103597616D01*
X67604841Y-103575687D01*
X67502727Y-103586138D01*
X67079393Y-103634848D01*
X67035701Y-105289697D01*
X66992008Y-106944545D01*
X67459034Y-106944545D01*
X67746185Y-106924901D01*
X67882186Y-106810245D01*
X67923389Y-106516991D01*
X67926060Y-106251818D01*
X67926060Y-105559090D01*
X69157575Y-105559090D01*
X69157575Y-106251818D01*
X69170963Y-106677786D01*
X69248259Y-106879539D01*
X69445168Y-106940629D01*
X69619393Y-106944545D01*
X70081212Y-106944545D01*
X70081212Y-103557878D01*
X69619393Y-103557878D01*
X69323272Y-103582194D01*
G37*
X69323272Y-103582194D02*
X69191634Y-103713962D01*
X69158304Y-104041414D01*
X69157575Y-104173636D01*
X69157575Y-104789394D01*
X67926060Y-104789394D01*
X67926060Y-104163411D01*
X67909970Y-103766795D01*
X67822498Y-103597616D01*
X67604841Y-103575687D01*
X67502727Y-103586138D01*
X67079393Y-103634848D01*
X67035701Y-105289697D01*
X66992008Y-106944545D01*
X67459034Y-106944545D01*
X67746185Y-106924901D01*
X67882186Y-106810245D01*
X67923389Y-106516991D01*
X67926060Y-106251818D01*
X67926060Y-105559090D01*
X69157575Y-105559090D01*
X69157575Y-106251818D01*
X69170963Y-106677786D01*
X69248259Y-106879539D01*
X69445168Y-106940629D01*
X69619393Y-106944545D01*
X70081212Y-106944545D01*
X70081212Y-103557878D01*
X69619393Y-103557878D01*
X69323272Y-103582194D01*
G36*
X64761891Y-103614157D02*
G01*
X64176456Y-103767601D01*
X63795358Y-103995123D01*
X63736702Y-104067812D01*
X63622926Y-104505003D01*
X63751502Y-104963021D01*
X63860068Y-105112081D01*
X63994110Y-105301740D01*
X63986149Y-105497786D01*
X63818135Y-105800589D01*
X63706128Y-105968119D01*
X63410165Y-106458523D01*
X63330986Y-106762364D01*
X63469438Y-106912528D01*
X63731212Y-106944129D01*
X64056406Y-106874237D01*
X64314776Y-106617405D01*
X64462424Y-106368673D01*
X64715180Y-105996889D01*
X64971816Y-105768078D01*
X65039696Y-105742044D01*
X65214385Y-105763209D01*
X65293196Y-105962421D01*
X65309090Y-106317500D01*
X65326485Y-106716995D01*
X65421636Y-106896410D01*
X65658995Y-106943258D01*
X65770909Y-106944545D01*
X66232727Y-106944545D01*
X66232727Y-104723130D01*
X65309090Y-104723130D01*
X65258836Y-105011451D01*
X65055968Y-105079190D01*
X64962727Y-105069494D01*
X64651515Y-104894194D01*
X64567172Y-104673939D01*
X64587820Y-104415224D01*
X64807492Y-104330681D01*
X64913535Y-104327575D01*
X65211204Y-104386573D01*
X65306171Y-104625294D01*
X65309090Y-104723130D01*
X66232727Y-104723130D01*
X66232727Y-103557878D01*
X65473051Y-103557878D01*
X64761891Y-103614157D01*
G37*
X64761891Y-103614157D02*
X64176456Y-103767601D01*
X63795358Y-103995123D01*
X63736702Y-104067812D01*
X63622926Y-104505003D01*
X63751502Y-104963021D01*
X63860068Y-105112081D01*
X63994110Y-105301740D01*
X63986149Y-105497786D01*
X63818135Y-105800589D01*
X63706128Y-105968119D01*
X63410165Y-106458523D01*
X63330986Y-106762364D01*
X63469438Y-106912528D01*
X63731212Y-106944129D01*
X64056406Y-106874237D01*
X64314776Y-106617405D01*
X64462424Y-106368673D01*
X64715180Y-105996889D01*
X64971816Y-105768078D01*
X65039696Y-105742044D01*
X65214385Y-105763209D01*
X65293196Y-105962421D01*
X65309090Y-106317500D01*
X65326485Y-106716995D01*
X65421636Y-106896410D01*
X65658995Y-106943258D01*
X65770909Y-106944545D01*
X66232727Y-106944545D01*
X66232727Y-104723130D01*
X65309090Y-104723130D01*
X65258836Y-105011451D01*
X65055968Y-105079190D01*
X64962727Y-105069494D01*
X64651515Y-104894194D01*
X64567172Y-104673939D01*
X64587820Y-104415224D01*
X64807492Y-104330681D01*
X64913535Y-104327575D01*
X65211204Y-104386573D01*
X65306171Y-104625294D01*
X65309090Y-104723130D01*
X66232727Y-104723130D01*
X66232727Y-103557878D01*
X65473051Y-103557878D01*
X64761891Y-103614157D01*
G36*
X62037878Y-103558737D02*
G01*
X61071988Y-103652391D01*
X60346338Y-103928210D01*
X59865671Y-104382748D01*
X59634733Y-105012560D01*
X59613333Y-105319914D01*
X59733661Y-105994473D01*
X60096950Y-106487267D01*
X60706656Y-106800801D01*
X61566235Y-106937580D01*
X61855475Y-106944545D01*
X62692121Y-106944545D01*
X62692121Y-105331114D01*
X61768484Y-105331114D01*
X61768484Y-106334653D01*
X61345151Y-106233524D01*
X60961115Y-106105649D01*
X60729393Y-105980833D01*
X60578422Y-105696134D01*
X60545651Y-105268098D01*
X60626210Y-104835602D01*
X60778874Y-104569480D01*
X61122390Y-104376027D01*
X61394632Y-104327575D01*
X61595454Y-104346460D01*
X61707442Y-104449363D01*
X61756441Y-104705657D01*
X61768295Y-105184715D01*
X61768484Y-105331114D01*
X62692121Y-105331114D01*
X62692121Y-103557878D01*
X62037878Y-103558737D01*
G37*
X62037878Y-103558737D02*
X61071988Y-103652391D01*
X60346338Y-103928210D01*
X59865671Y-104382748D01*
X59634733Y-105012560D01*
X59613333Y-105319914D01*
X59733661Y-105994473D01*
X60096950Y-106487267D01*
X60706656Y-106800801D01*
X61566235Y-106937580D01*
X61855475Y-106944545D01*
X62692121Y-106944545D01*
X62692121Y-105331114D01*
X61768484Y-105331114D01*
X61768484Y-106334653D01*
X61345151Y-106233524D01*
X60961115Y-106105649D01*
X60729393Y-105980833D01*
X60578422Y-105696134D01*
X60545651Y-105268098D01*
X60626210Y-104835602D01*
X60778874Y-104569480D01*
X61122390Y-104376027D01*
X61394632Y-104327575D01*
X61595454Y-104346460D01*
X61707442Y-104449363D01*
X61756441Y-104705657D01*
X61768295Y-105184715D01*
X61768484Y-105331114D01*
X62692121Y-105331114D01*
X62692121Y-103557878D01*
X62037878Y-103558737D01*
G36*
X56991556Y-103574563D02*
G01*
X56510835Y-103647713D01*
X56302993Y-103811976D01*
X56351955Y-104101995D01*
X56641647Y-104552417D01*
X57056545Y-105076753D01*
X57441725Y-105557948D01*
X57738368Y-105948313D01*
X57901800Y-106188158D01*
X57920000Y-106230469D01*
X57780751Y-106284323D01*
X57421561Y-106320034D01*
X57073333Y-106328787D01*
X56584046Y-106342151D01*
X56329155Y-106399929D01*
X56235696Y-106528654D01*
X56226666Y-106636666D01*
X56248749Y-106779762D01*
X56353072Y-106870073D01*
X56596746Y-106919624D01*
X57036880Y-106940438D01*
X57689090Y-106944545D01*
X58372668Y-106938681D01*
X58804507Y-106914080D01*
X59040639Y-106860229D01*
X59137096Y-106766613D01*
X59151515Y-106670136D01*
X59057511Y-106432397D01*
X58806804Y-106035351D01*
X58446352Y-105550582D01*
X58293189Y-105361651D01*
X57434864Y-104327575D01*
X58293189Y-104327575D01*
X58782249Y-104317900D01*
X59038396Y-104266496D01*
X59136489Y-104139801D01*
X59151515Y-103942727D01*
X59140541Y-103760799D01*
X59068190Y-103647724D01*
X58875320Y-103587130D01*
X58502785Y-103562646D01*
X57891444Y-103557900D01*
X57761229Y-103557878D01*
X56991556Y-103574563D01*
G37*
X56991556Y-103574563D02*
X56510835Y-103647713D01*
X56302993Y-103811976D01*
X56351955Y-104101995D01*
X56641647Y-104552417D01*
X57056545Y-105076753D01*
X57441725Y-105557948D01*
X57738368Y-105948313D01*
X57901800Y-106188158D01*
X57920000Y-106230469D01*
X57780751Y-106284323D01*
X57421561Y-106320034D01*
X57073333Y-106328787D01*
X56584046Y-106342151D01*
X56329155Y-106399929D01*
X56235696Y-106528654D01*
X56226666Y-106636666D01*
X56248749Y-106779762D01*
X56353072Y-106870073D01*
X56596746Y-106919624D01*
X57036880Y-106940438D01*
X57689090Y-106944545D01*
X58372668Y-106938681D01*
X58804507Y-106914080D01*
X59040639Y-106860229D01*
X59137096Y-106766613D01*
X59151515Y-106670136D01*
X59057511Y-106432397D01*
X58806804Y-106035351D01*
X58446352Y-105550582D01*
X58293189Y-105361651D01*
X57434864Y-104327575D01*
X58293189Y-104327575D01*
X58782249Y-104317900D01*
X59038396Y-104266496D01*
X59136489Y-104139801D01*
X59151515Y-103942727D01*
X59140541Y-103760799D01*
X59068190Y-103647724D01*
X58875320Y-103587130D01*
X58502785Y-103562646D01*
X57891444Y-103557900D01*
X57761229Y-103557878D01*
X56991556Y-103574563D01*
G36*
X54736380Y-103580757D02*
G01*
X54524967Y-103697322D01*
X54348353Y-103979463D01*
X54196399Y-104327575D01*
X54000072Y-104754146D01*
X53834895Y-105033649D01*
X53763636Y-105097272D01*
X53647089Y-104967378D01*
X53467194Y-104633147D01*
X53330873Y-104327575D01*
X53128929Y-103880791D01*
X52950796Y-103651604D01*
X52715477Y-103568124D01*
X52463682Y-103557878D01*
X51916363Y-103557878D01*
X51916363Y-106944545D01*
X52294468Y-106944545D01*
X52490176Y-106926699D01*
X52607127Y-106829298D01*
X52670276Y-106586552D01*
X52704578Y-106132668D01*
X52717801Y-105828484D01*
X52763030Y-104712424D01*
X53128350Y-105520606D01*
X53421514Y-106058425D01*
X53682577Y-106310581D01*
X53763636Y-106328787D01*
X54011024Y-106178941D01*
X54294287Y-105738630D01*
X54398922Y-105520606D01*
X54764242Y-104712424D01*
X54809471Y-105828484D01*
X54838841Y-106404028D01*
X54885356Y-106737584D01*
X54973972Y-106894945D01*
X55129644Y-106941902D01*
X55232804Y-106944545D01*
X55610909Y-106944545D01*
X55610909Y-103557878D01*
X55063590Y-103557878D01*
X54736380Y-103580757D01*
G37*
X54736380Y-103580757D02*
X54524967Y-103697322D01*
X54348353Y-103979463D01*
X54196399Y-104327575D01*
X54000072Y-104754146D01*
X53834895Y-105033649D01*
X53763636Y-105097272D01*
X53647089Y-104967378D01*
X53467194Y-104633147D01*
X53330873Y-104327575D01*
X53128929Y-103880791D01*
X52950796Y-103651604D01*
X52715477Y-103568124D01*
X52463682Y-103557878D01*
X51916363Y-103557878D01*
X51916363Y-106944545D01*
X52294468Y-106944545D01*
X52490176Y-106926699D01*
X52607127Y-106829298D01*
X52670276Y-106586552D01*
X52704578Y-106132668D01*
X52717801Y-105828484D01*
X52763030Y-104712424D01*
X53128350Y-105520606D01*
X53421514Y-106058425D01*
X53682577Y-106310581D01*
X53763636Y-106328787D01*
X54011024Y-106178941D01*
X54294287Y-105738630D01*
X54398922Y-105520606D01*
X54764242Y-104712424D01*
X54809471Y-105828484D01*
X54838841Y-106404028D01*
X54885356Y-106737584D01*
X54973972Y-106894945D01*
X55129644Y-106941902D01*
X55232804Y-106944545D01*
X55610909Y-106944545D01*
X55610909Y-103557878D01*
X55063590Y-103557878D01*
X54736380Y-103580757D01*
G36*
X56661550Y-100394707D02*
G01*
X55582084Y-100590377D01*
X54583879Y-100772039D01*
X53712911Y-100931269D01*
X53015160Y-101059640D01*
X52536604Y-101148729D01*
X52339696Y-101186623D01*
X52062589Y-101281269D01*
X51942331Y-101479158D01*
X51916363Y-101876776D01*
X51938528Y-102257971D01*
X51993768Y-102466807D01*
X52014360Y-102480303D01*
X52185570Y-102453450D01*
X52619893Y-102377650D01*
X53277714Y-102260036D01*
X54119419Y-102107745D01*
X55105393Y-101927911D01*
X56196021Y-101727669D01*
X56324663Y-101703968D01*
X60536969Y-100927634D01*
X64749276Y-101703968D01*
X65854042Y-101906459D01*
X66863046Y-102089259D01*
X67735726Y-102245193D01*
X68431519Y-102367081D01*
X68909864Y-102447748D01*
X69130199Y-102480014D01*
X69136549Y-102480303D01*
X69253464Y-102344969D01*
X69310375Y-102011512D01*
X69311515Y-101950600D01*
X69273638Y-101569329D01*
X69181152Y-101342479D01*
X69168231Y-101332343D01*
X68984780Y-101282464D01*
X68538462Y-101185885D01*
X67869400Y-101050543D01*
X67017718Y-100884377D01*
X66023540Y-100695327D01*
X64926990Y-100491329D01*
X64792509Y-100466604D01*
X60560070Y-99689420D01*
X56661550Y-100394707D01*
G37*
X56661550Y-100394707D02*
X55582084Y-100590377D01*
X54583879Y-100772039D01*
X53712911Y-100931269D01*
X53015160Y-101059640D01*
X52536604Y-101148729D01*
X52339696Y-101186623D01*
X52062589Y-101281269D01*
X51942331Y-101479158D01*
X51916363Y-101876776D01*
X51938528Y-102257971D01*
X51993768Y-102466807D01*
X52014360Y-102480303D01*
X52185570Y-102453450D01*
X52619893Y-102377650D01*
X53277714Y-102260036D01*
X54119419Y-102107745D01*
X55105393Y-101927911D01*
X56196021Y-101727669D01*
X56324663Y-101703968D01*
X60536969Y-100927634D01*
X64749276Y-101703968D01*
X65854042Y-101906459D01*
X66863046Y-102089259D01*
X67735726Y-102245193D01*
X68431519Y-102367081D01*
X68909864Y-102447748D01*
X69130199Y-102480014D01*
X69136549Y-102480303D01*
X69253464Y-102344969D01*
X69310375Y-102011512D01*
X69311515Y-101950600D01*
X69273638Y-101569329D01*
X69181152Y-101342479D01*
X69168231Y-101332343D01*
X68984780Y-101282464D01*
X68538462Y-101185885D01*
X67869400Y-101050543D01*
X67017718Y-100884377D01*
X66023540Y-100695327D01*
X64926990Y-100491329D01*
X64792509Y-100466604D01*
X60560070Y-99689420D01*
X56661550Y-100394707D01*
G36*
X56661550Y-80394707D02*
G01*
X55582084Y-80590377D01*
X54583879Y-80772039D01*
X53712911Y-80931269D01*
X53015160Y-81059640D01*
X52536604Y-81148729D01*
X52339696Y-81186623D01*
X52062589Y-81281269D01*
X51942331Y-81479158D01*
X51916363Y-81876776D01*
X51938528Y-82257971D01*
X51993768Y-82466807D01*
X52014360Y-82480303D01*
X52185570Y-82453450D01*
X52619893Y-82377650D01*
X53277714Y-82260036D01*
X54119419Y-82107745D01*
X55105393Y-81927911D01*
X56196021Y-81727669D01*
X56324663Y-81703968D01*
X60536969Y-80927634D01*
X64749276Y-81703968D01*
X65854042Y-81906459D01*
X66863046Y-82089259D01*
X67735726Y-82245193D01*
X68431519Y-82367081D01*
X68909864Y-82447748D01*
X69130199Y-82480014D01*
X69136549Y-82480303D01*
X69253464Y-82344969D01*
X69310375Y-82011512D01*
X69311515Y-81950600D01*
X69273638Y-81569329D01*
X69181152Y-81342479D01*
X69168231Y-81332343D01*
X68984780Y-81282464D01*
X68538462Y-81185885D01*
X67869400Y-81050543D01*
X67017718Y-80884377D01*
X66023540Y-80695327D01*
X64926990Y-80491329D01*
X64792509Y-80466604D01*
X60560070Y-79689420D01*
X56661550Y-80394707D01*
G37*
X56661550Y-80394707D02*
X55582084Y-80590377D01*
X54583879Y-80772039D01*
X53712911Y-80931269D01*
X53015160Y-81059640D01*
X52536604Y-81148729D01*
X52339696Y-81186623D01*
X52062589Y-81281269D01*
X51942331Y-81479158D01*
X51916363Y-81876776D01*
X51938528Y-82257971D01*
X51993768Y-82466807D01*
X52014360Y-82480303D01*
X52185570Y-82453450D01*
X52619893Y-82377650D01*
X53277714Y-82260036D01*
X54119419Y-82107745D01*
X55105393Y-81927911D01*
X56196021Y-81727669D01*
X56324663Y-81703968D01*
X60536969Y-80927634D01*
X64749276Y-81703968D01*
X65854042Y-81906459D01*
X66863046Y-82089259D01*
X67735726Y-82245193D01*
X68431519Y-82367081D01*
X68909864Y-82447748D01*
X69130199Y-82480014D01*
X69136549Y-82480303D01*
X69253464Y-82344969D01*
X69310375Y-82011512D01*
X69311515Y-81950600D01*
X69273638Y-81569329D01*
X69181152Y-81342479D01*
X69168231Y-81332343D01*
X68984780Y-81282464D01*
X68538462Y-81185885D01*
X67869400Y-81050543D01*
X67017718Y-80884377D01*
X66023540Y-80695327D01*
X64926990Y-80491329D01*
X64792509Y-80466604D01*
X60560070Y-79689420D01*
X56661550Y-80394707D01*
G36*
X54736380Y-83580757D02*
G01*
X54524967Y-83697322D01*
X54348353Y-83979463D01*
X54196399Y-84327575D01*
X54000072Y-84754146D01*
X53834895Y-85033649D01*
X53763636Y-85097272D01*
X53647089Y-84967378D01*
X53467194Y-84633147D01*
X53330873Y-84327575D01*
X53128929Y-83880791D01*
X52950796Y-83651604D01*
X52715477Y-83568124D01*
X52463682Y-83557878D01*
X51916363Y-83557878D01*
X51916363Y-86944545D01*
X52294468Y-86944545D01*
X52490176Y-86926699D01*
X52607127Y-86829298D01*
X52670276Y-86586552D01*
X52704578Y-86132668D01*
X52717801Y-85828484D01*
X52763030Y-84712424D01*
X53128350Y-85520606D01*
X53421514Y-86058425D01*
X53682577Y-86310581D01*
X53763636Y-86328787D01*
X54011024Y-86178941D01*
X54294287Y-85738630D01*
X54398922Y-85520606D01*
X54764242Y-84712424D01*
X54809471Y-85828484D01*
X54838841Y-86404028D01*
X54885356Y-86737584D01*
X54973972Y-86894945D01*
X55129644Y-86941902D01*
X55232804Y-86944545D01*
X55610909Y-86944545D01*
X55610909Y-83557878D01*
X55063590Y-83557878D01*
X54736380Y-83580757D01*
G37*
X54736380Y-83580757D02*
X54524967Y-83697322D01*
X54348353Y-83979463D01*
X54196399Y-84327575D01*
X54000072Y-84754146D01*
X53834895Y-85033649D01*
X53763636Y-85097272D01*
X53647089Y-84967378D01*
X53467194Y-84633147D01*
X53330873Y-84327575D01*
X53128929Y-83880791D01*
X52950796Y-83651604D01*
X52715477Y-83568124D01*
X52463682Y-83557878D01*
X51916363Y-83557878D01*
X51916363Y-86944545D01*
X52294468Y-86944545D01*
X52490176Y-86926699D01*
X52607127Y-86829298D01*
X52670276Y-86586552D01*
X52704578Y-86132668D01*
X52717801Y-85828484D01*
X52763030Y-84712424D01*
X53128350Y-85520606D01*
X53421514Y-86058425D01*
X53682577Y-86310581D01*
X53763636Y-86328787D01*
X54011024Y-86178941D01*
X54294287Y-85738630D01*
X54398922Y-85520606D01*
X54764242Y-84712424D01*
X54809471Y-85828484D01*
X54838841Y-86404028D01*
X54885356Y-86737584D01*
X54973972Y-86894945D01*
X55129644Y-86941902D01*
X55232804Y-86944545D01*
X55610909Y-86944545D01*
X55610909Y-83557878D01*
X55063590Y-83557878D01*
X54736380Y-83580757D01*
G36*
X56991556Y-83574563D02*
G01*
X56510835Y-83647713D01*
X56302993Y-83811976D01*
X56351955Y-84101995D01*
X56641647Y-84552417D01*
X57056545Y-85076753D01*
X57441725Y-85557948D01*
X57738368Y-85948313D01*
X57901800Y-86188158D01*
X57920000Y-86230469D01*
X57780751Y-86284323D01*
X57421561Y-86320034D01*
X57073333Y-86328787D01*
X56584046Y-86342151D01*
X56329155Y-86399929D01*
X56235696Y-86528654D01*
X56226666Y-86636666D01*
X56248749Y-86779762D01*
X56353072Y-86870073D01*
X56596746Y-86919624D01*
X57036880Y-86940438D01*
X57689090Y-86944545D01*
X58372668Y-86938681D01*
X58804507Y-86914080D01*
X59040639Y-86860229D01*
X59137096Y-86766613D01*
X59151515Y-86670136D01*
X59057511Y-86432397D01*
X58806804Y-86035351D01*
X58446352Y-85550582D01*
X58293189Y-85361651D01*
X57434864Y-84327575D01*
X58293189Y-84327575D01*
X58782249Y-84317900D01*
X59038396Y-84266496D01*
X59136489Y-84139801D01*
X59151515Y-83942727D01*
X59140541Y-83760799D01*
X59068190Y-83647724D01*
X58875320Y-83587130D01*
X58502785Y-83562646D01*
X57891444Y-83557900D01*
X57761229Y-83557878D01*
X56991556Y-83574563D01*
G37*
X56991556Y-83574563D02*
X56510835Y-83647713D01*
X56302993Y-83811976D01*
X56351955Y-84101995D01*
X56641647Y-84552417D01*
X57056545Y-85076753D01*
X57441725Y-85557948D01*
X57738368Y-85948313D01*
X57901800Y-86188158D01*
X57920000Y-86230469D01*
X57780751Y-86284323D01*
X57421561Y-86320034D01*
X57073333Y-86328787D01*
X56584046Y-86342151D01*
X56329155Y-86399929D01*
X56235696Y-86528654D01*
X56226666Y-86636666D01*
X56248749Y-86779762D01*
X56353072Y-86870073D01*
X56596746Y-86919624D01*
X57036880Y-86940438D01*
X57689090Y-86944545D01*
X58372668Y-86938681D01*
X58804507Y-86914080D01*
X59040639Y-86860229D01*
X59137096Y-86766613D01*
X59151515Y-86670136D01*
X59057511Y-86432397D01*
X58806804Y-86035351D01*
X58446352Y-85550582D01*
X58293189Y-85361651D01*
X57434864Y-84327575D01*
X58293189Y-84327575D01*
X58782249Y-84317900D01*
X59038396Y-84266496D01*
X59136489Y-84139801D01*
X59151515Y-83942727D01*
X59140541Y-83760799D01*
X59068190Y-83647724D01*
X58875320Y-83587130D01*
X58502785Y-83562646D01*
X57891444Y-83557900D01*
X57761229Y-83557878D01*
X56991556Y-83574563D01*
G36*
X62037878Y-83558737D02*
G01*
X61071988Y-83652391D01*
X60346338Y-83928210D01*
X59865671Y-84382748D01*
X59634733Y-85012560D01*
X59613333Y-85319914D01*
X59733661Y-85994473D01*
X60096950Y-86487267D01*
X60706656Y-86800801D01*
X61566235Y-86937580D01*
X61855475Y-86944545D01*
X62692121Y-86944545D01*
X62692121Y-85331114D01*
X61768484Y-85331114D01*
X61768484Y-86334653D01*
X61345151Y-86233524D01*
X60961115Y-86105649D01*
X60729393Y-85980833D01*
X60578422Y-85696134D01*
X60545651Y-85268098D01*
X60626210Y-84835602D01*
X60778874Y-84569480D01*
X61122390Y-84376027D01*
X61394632Y-84327575D01*
X61595454Y-84346460D01*
X61707442Y-84449363D01*
X61756441Y-84705657D01*
X61768295Y-85184715D01*
X61768484Y-85331114D01*
X62692121Y-85331114D01*
X62692121Y-83557878D01*
X62037878Y-83558737D01*
G37*
X62037878Y-83558737D02*
X61071988Y-83652391D01*
X60346338Y-83928210D01*
X59865671Y-84382748D01*
X59634733Y-85012560D01*
X59613333Y-85319914D01*
X59733661Y-85994473D01*
X60096950Y-86487267D01*
X60706656Y-86800801D01*
X61566235Y-86937580D01*
X61855475Y-86944545D01*
X62692121Y-86944545D01*
X62692121Y-85331114D01*
X61768484Y-85331114D01*
X61768484Y-86334653D01*
X61345151Y-86233524D01*
X60961115Y-86105649D01*
X60729393Y-85980833D01*
X60578422Y-85696134D01*
X60545651Y-85268098D01*
X60626210Y-84835602D01*
X60778874Y-84569480D01*
X61122390Y-84376027D01*
X61394632Y-84327575D01*
X61595454Y-84346460D01*
X61707442Y-84449363D01*
X61756441Y-84705657D01*
X61768295Y-85184715D01*
X61768484Y-85331114D01*
X62692121Y-85331114D01*
X62692121Y-83557878D01*
X62037878Y-83558737D01*
G36*
X64761891Y-83614157D02*
G01*
X64176456Y-83767601D01*
X63795358Y-83995123D01*
X63736702Y-84067812D01*
X63622926Y-84505003D01*
X63751502Y-84963021D01*
X63860068Y-85112081D01*
X63994110Y-85301740D01*
X63986149Y-85497786D01*
X63818135Y-85800589D01*
X63706128Y-85968119D01*
X63410165Y-86458523D01*
X63330986Y-86762364D01*
X63469438Y-86912528D01*
X63731212Y-86944129D01*
X64056406Y-86874237D01*
X64314776Y-86617405D01*
X64462424Y-86368673D01*
X64715180Y-85996889D01*
X64971816Y-85768078D01*
X65039696Y-85742044D01*
X65214385Y-85763209D01*
X65293196Y-85962421D01*
X65309090Y-86317500D01*
X65326485Y-86716995D01*
X65421636Y-86896410D01*
X65658995Y-86943258D01*
X65770909Y-86944545D01*
X66232727Y-86944545D01*
X66232727Y-84723130D01*
X65309090Y-84723130D01*
X65258836Y-85011451D01*
X65055968Y-85079190D01*
X64962727Y-85069494D01*
X64651515Y-84894194D01*
X64567172Y-84673939D01*
X64587820Y-84415224D01*
X64807492Y-84330681D01*
X64913535Y-84327575D01*
X65211204Y-84386573D01*
X65306171Y-84625294D01*
X65309090Y-84723130D01*
X66232727Y-84723130D01*
X66232727Y-83557878D01*
X65473051Y-83557878D01*
X64761891Y-83614157D01*
G37*
X64761891Y-83614157D02*
X64176456Y-83767601D01*
X63795358Y-83995123D01*
X63736702Y-84067812D01*
X63622926Y-84505003D01*
X63751502Y-84963021D01*
X63860068Y-85112081D01*
X63994110Y-85301740D01*
X63986149Y-85497786D01*
X63818135Y-85800589D01*
X63706128Y-85968119D01*
X63410165Y-86458523D01*
X63330986Y-86762364D01*
X63469438Y-86912528D01*
X63731212Y-86944129D01*
X64056406Y-86874237D01*
X64314776Y-86617405D01*
X64462424Y-86368673D01*
X64715180Y-85996889D01*
X64971816Y-85768078D01*
X65039696Y-85742044D01*
X65214385Y-85763209D01*
X65293196Y-85962421D01*
X65309090Y-86317500D01*
X65326485Y-86716995D01*
X65421636Y-86896410D01*
X65658995Y-86943258D01*
X65770909Y-86944545D01*
X66232727Y-86944545D01*
X66232727Y-84723130D01*
X65309090Y-84723130D01*
X65258836Y-85011451D01*
X65055968Y-85079190D01*
X64962727Y-85069494D01*
X64651515Y-84894194D01*
X64567172Y-84673939D01*
X64587820Y-84415224D01*
X64807492Y-84330681D01*
X64913535Y-84327575D01*
X65211204Y-84386573D01*
X65306171Y-84625294D01*
X65309090Y-84723130D01*
X66232727Y-84723130D01*
X66232727Y-83557878D01*
X65473051Y-83557878D01*
X64761891Y-83614157D01*
G36*
X69323272Y-83582194D02*
G01*
X69191634Y-83713962D01*
X69158304Y-84041414D01*
X69157575Y-84173636D01*
X69157575Y-84789394D01*
X67926060Y-84789394D01*
X67926060Y-84163411D01*
X67909970Y-83766795D01*
X67822498Y-83597616D01*
X67604841Y-83575687D01*
X67502727Y-83586138D01*
X67079393Y-83634848D01*
X67035701Y-85289697D01*
X66992008Y-86944545D01*
X67459034Y-86944545D01*
X67746185Y-86924901D01*
X67882186Y-86810245D01*
X67923389Y-86516991D01*
X67926060Y-86251818D01*
X67926060Y-85559090D01*
X69157575Y-85559090D01*
X69157575Y-86251818D01*
X69170963Y-86677786D01*
X69248259Y-86879539D01*
X69445168Y-86940629D01*
X69619393Y-86944545D01*
X70081212Y-86944545D01*
X70081212Y-83557878D01*
X69619393Y-83557878D01*
X69323272Y-83582194D01*
G37*
X69323272Y-83582194D02*
X69191634Y-83713962D01*
X69158304Y-84041414D01*
X69157575Y-84173636D01*
X69157575Y-84789394D01*
X67926060Y-84789394D01*
X67926060Y-84163411D01*
X67909970Y-83766795D01*
X67822498Y-83597616D01*
X67604841Y-83575687D01*
X67502727Y-83586138D01*
X67079393Y-83634848D01*
X67035701Y-85289697D01*
X66992008Y-86944545D01*
X67459034Y-86944545D01*
X67746185Y-86924901D01*
X67882186Y-86810245D01*
X67923389Y-86516991D01*
X67926060Y-86251818D01*
X67926060Y-85559090D01*
X69157575Y-85559090D01*
X69157575Y-86251818D01*
X69170963Y-86677786D01*
X69248259Y-86879539D01*
X69445168Y-86940629D01*
X69619393Y-86944545D01*
X70081212Y-86944545D01*
X70081212Y-83557878D01*
X69619393Y-83557878D01*
X69323272Y-83582194D01*
G36*
X70889393Y-80423146D02*
G01*
X70459882Y-80810202D01*
X70217448Y-81097202D01*
X70109048Y-81376787D01*
X70081642Y-81741599D01*
X70081212Y-81834661D01*
X70081212Y-82546755D01*
X70893288Y-81744766D01*
X71705365Y-80942777D01*
X72201025Y-81438438D01*
X72696686Y-81934098D01*
X71845270Y-82794492D01*
X70993854Y-83654885D01*
X71037836Y-85310399D01*
X71081818Y-86965914D01*
X71505151Y-86523473D01*
X71733883Y-86250547D01*
X71861695Y-85967593D01*
X71917059Y-85573211D01*
X71928484Y-85015742D01*
X71928484Y-83950453D01*
X73929686Y-81933799D01*
X72813631Y-80828762D01*
X71697575Y-79723725D01*
X70889393Y-80423146D01*
G37*
X70889393Y-80423146D02*
X70459882Y-80810202D01*
X70217448Y-81097202D01*
X70109048Y-81376787D01*
X70081642Y-81741599D01*
X70081212Y-81834661D01*
X70081212Y-82546755D01*
X70893288Y-81744766D01*
X71705365Y-80942777D01*
X72201025Y-81438438D01*
X72696686Y-81934098D01*
X71845270Y-82794492D01*
X70993854Y-83654885D01*
X71037836Y-85310399D01*
X71081818Y-86965914D01*
X71505151Y-86523473D01*
X71733883Y-86250547D01*
X71861695Y-85967593D01*
X71917059Y-85573211D01*
X71928484Y-85015742D01*
X71928484Y-83950453D01*
X73929686Y-81933799D01*
X72813631Y-80828762D01*
X71697575Y-79723725D01*
X70889393Y-80423146D01*
G36*
X70889393Y-60423146D02*
G01*
X70459882Y-60810202D01*
X70217448Y-61097202D01*
X70109048Y-61376787D01*
X70081642Y-61741599D01*
X70081212Y-61834661D01*
X70081212Y-62546755D01*
X70893288Y-61744766D01*
X71705365Y-60942777D01*
X72201025Y-61438438D01*
X72696686Y-61934098D01*
X71845270Y-62794492D01*
X70993854Y-63654885D01*
X71037836Y-65310399D01*
X71081818Y-66965914D01*
X71505151Y-66523473D01*
X71733883Y-66250547D01*
X71861695Y-65967593D01*
X71917059Y-65573211D01*
X71928484Y-65015742D01*
X71928484Y-63950453D01*
X73929686Y-61933799D01*
X72813631Y-60828762D01*
X71697575Y-59723725D01*
X70889393Y-60423146D01*
G37*
X70889393Y-60423146D02*
X70459882Y-60810202D01*
X70217448Y-61097202D01*
X70109048Y-61376787D01*
X70081642Y-61741599D01*
X70081212Y-61834661D01*
X70081212Y-62546755D01*
X70893288Y-61744766D01*
X71705365Y-60942777D01*
X72201025Y-61438438D01*
X72696686Y-61934098D01*
X71845270Y-62794492D01*
X70993854Y-63654885D01*
X71037836Y-65310399D01*
X71081818Y-66965914D01*
X71505151Y-66523473D01*
X71733883Y-66250547D01*
X71861695Y-65967593D01*
X71917059Y-65573211D01*
X71928484Y-65015742D01*
X71928484Y-63950453D01*
X73929686Y-61933799D01*
X72813631Y-60828762D01*
X71697575Y-59723725D01*
X70889393Y-60423146D01*
G36*
X69323272Y-63582194D02*
G01*
X69191634Y-63713962D01*
X69158304Y-64041414D01*
X69157575Y-64173636D01*
X69157575Y-64789394D01*
X67926060Y-64789394D01*
X67926060Y-64163411D01*
X67909970Y-63766795D01*
X67822498Y-63597616D01*
X67604841Y-63575687D01*
X67502727Y-63586138D01*
X67079393Y-63634848D01*
X67035701Y-65289697D01*
X66992008Y-66944545D01*
X67459034Y-66944545D01*
X67746185Y-66924901D01*
X67882186Y-66810245D01*
X67923389Y-66516991D01*
X67926060Y-66251818D01*
X67926060Y-65559090D01*
X69157575Y-65559090D01*
X69157575Y-66251818D01*
X69170963Y-66677786D01*
X69248259Y-66879539D01*
X69445168Y-66940629D01*
X69619393Y-66944545D01*
X70081212Y-66944545D01*
X70081212Y-63557878D01*
X69619393Y-63557878D01*
X69323272Y-63582194D01*
G37*
X69323272Y-63582194D02*
X69191634Y-63713962D01*
X69158304Y-64041414D01*
X69157575Y-64173636D01*
X69157575Y-64789394D01*
X67926060Y-64789394D01*
X67926060Y-64163411D01*
X67909970Y-63766795D01*
X67822498Y-63597616D01*
X67604841Y-63575687D01*
X67502727Y-63586138D01*
X67079393Y-63634848D01*
X67035701Y-65289697D01*
X66992008Y-66944545D01*
X67459034Y-66944545D01*
X67746185Y-66924901D01*
X67882186Y-66810245D01*
X67923389Y-66516991D01*
X67926060Y-66251818D01*
X67926060Y-65559090D01*
X69157575Y-65559090D01*
X69157575Y-66251818D01*
X69170963Y-66677786D01*
X69248259Y-66879539D01*
X69445168Y-66940629D01*
X69619393Y-66944545D01*
X70081212Y-66944545D01*
X70081212Y-63557878D01*
X69619393Y-63557878D01*
X69323272Y-63582194D01*
G36*
X64761891Y-63614157D02*
G01*
X64176456Y-63767601D01*
X63795358Y-63995123D01*
X63736702Y-64067812D01*
X63622926Y-64505003D01*
X63751502Y-64963021D01*
X63860068Y-65112081D01*
X63994110Y-65301740D01*
X63986149Y-65497786D01*
X63818135Y-65800589D01*
X63706128Y-65968119D01*
X63410165Y-66458523D01*
X63330986Y-66762364D01*
X63469438Y-66912528D01*
X63731212Y-66944129D01*
X64056406Y-66874237D01*
X64314776Y-66617405D01*
X64462424Y-66368673D01*
X64715180Y-65996889D01*
X64971816Y-65768078D01*
X65039696Y-65742044D01*
X65214385Y-65763209D01*
X65293196Y-65962421D01*
X65309090Y-66317500D01*
X65326485Y-66716995D01*
X65421636Y-66896410D01*
X65658995Y-66943258D01*
X65770909Y-66944545D01*
X66232727Y-66944545D01*
X66232727Y-64723130D01*
X65309090Y-64723130D01*
X65258836Y-65011451D01*
X65055968Y-65079190D01*
X64962727Y-65069494D01*
X64651515Y-64894194D01*
X64567172Y-64673939D01*
X64587820Y-64415224D01*
X64807492Y-64330681D01*
X64913535Y-64327575D01*
X65211204Y-64386573D01*
X65306171Y-64625294D01*
X65309090Y-64723130D01*
X66232727Y-64723130D01*
X66232727Y-63557878D01*
X65473051Y-63557878D01*
X64761891Y-63614157D01*
G37*
X64761891Y-63614157D02*
X64176456Y-63767601D01*
X63795358Y-63995123D01*
X63736702Y-64067812D01*
X63622926Y-64505003D01*
X63751502Y-64963021D01*
X63860068Y-65112081D01*
X63994110Y-65301740D01*
X63986149Y-65497786D01*
X63818135Y-65800589D01*
X63706128Y-65968119D01*
X63410165Y-66458523D01*
X63330986Y-66762364D01*
X63469438Y-66912528D01*
X63731212Y-66944129D01*
X64056406Y-66874237D01*
X64314776Y-66617405D01*
X64462424Y-66368673D01*
X64715180Y-65996889D01*
X64971816Y-65768078D01*
X65039696Y-65742044D01*
X65214385Y-65763209D01*
X65293196Y-65962421D01*
X65309090Y-66317500D01*
X65326485Y-66716995D01*
X65421636Y-66896410D01*
X65658995Y-66943258D01*
X65770909Y-66944545D01*
X66232727Y-66944545D01*
X66232727Y-64723130D01*
X65309090Y-64723130D01*
X65258836Y-65011451D01*
X65055968Y-65079190D01*
X64962727Y-65069494D01*
X64651515Y-64894194D01*
X64567172Y-64673939D01*
X64587820Y-64415224D01*
X64807492Y-64330681D01*
X64913535Y-64327575D01*
X65211204Y-64386573D01*
X65306171Y-64625294D01*
X65309090Y-64723130D01*
X66232727Y-64723130D01*
X66232727Y-63557878D01*
X65473051Y-63557878D01*
X64761891Y-63614157D01*
G36*
X62037878Y-63558737D02*
G01*
X61071988Y-63652391D01*
X60346338Y-63928210D01*
X59865671Y-64382748D01*
X59634733Y-65012560D01*
X59613333Y-65319914D01*
X59733661Y-65994473D01*
X60096950Y-66487267D01*
X60706656Y-66800801D01*
X61566235Y-66937580D01*
X61855475Y-66944545D01*
X62692121Y-66944545D01*
X62692121Y-65331114D01*
X61768484Y-65331114D01*
X61768484Y-66334653D01*
X61345151Y-66233524D01*
X60961115Y-66105649D01*
X60729393Y-65980833D01*
X60578422Y-65696134D01*
X60545651Y-65268098D01*
X60626210Y-64835602D01*
X60778874Y-64569480D01*
X61122390Y-64376027D01*
X61394632Y-64327575D01*
X61595454Y-64346460D01*
X61707442Y-64449363D01*
X61756441Y-64705657D01*
X61768295Y-65184715D01*
X61768484Y-65331114D01*
X62692121Y-65331114D01*
X62692121Y-63557878D01*
X62037878Y-63558737D01*
G37*
X62037878Y-63558737D02*
X61071988Y-63652391D01*
X60346338Y-63928210D01*
X59865671Y-64382748D01*
X59634733Y-65012560D01*
X59613333Y-65319914D01*
X59733661Y-65994473D01*
X60096950Y-66487267D01*
X60706656Y-66800801D01*
X61566235Y-66937580D01*
X61855475Y-66944545D01*
X62692121Y-66944545D01*
X62692121Y-65331114D01*
X61768484Y-65331114D01*
X61768484Y-66334653D01*
X61345151Y-66233524D01*
X60961115Y-66105649D01*
X60729393Y-65980833D01*
X60578422Y-65696134D01*
X60545651Y-65268098D01*
X60626210Y-64835602D01*
X60778874Y-64569480D01*
X61122390Y-64376027D01*
X61394632Y-64327575D01*
X61595454Y-64346460D01*
X61707442Y-64449363D01*
X61756441Y-64705657D01*
X61768295Y-65184715D01*
X61768484Y-65331114D01*
X62692121Y-65331114D01*
X62692121Y-63557878D01*
X62037878Y-63558737D01*
G36*
X56991556Y-63574563D02*
G01*
X56510835Y-63647713D01*
X56302993Y-63811976D01*
X56351955Y-64101995D01*
X56641647Y-64552417D01*
X57056545Y-65076753D01*
X57441725Y-65557948D01*
X57738368Y-65948313D01*
X57901800Y-66188158D01*
X57920000Y-66230469D01*
X57780751Y-66284323D01*
X57421561Y-66320034D01*
X57073333Y-66328787D01*
X56584046Y-66342151D01*
X56329155Y-66399929D01*
X56235696Y-66528654D01*
X56226666Y-66636666D01*
X56248749Y-66779762D01*
X56353072Y-66870073D01*
X56596746Y-66919624D01*
X57036880Y-66940438D01*
X57689090Y-66944545D01*
X58372668Y-66938681D01*
X58804507Y-66914080D01*
X59040639Y-66860229D01*
X59137096Y-66766613D01*
X59151515Y-66670136D01*
X59057511Y-66432397D01*
X58806804Y-66035351D01*
X58446352Y-65550582D01*
X58293189Y-65361651D01*
X57434864Y-64327575D01*
X58293189Y-64327575D01*
X58782249Y-64317900D01*
X59038396Y-64266496D01*
X59136489Y-64139801D01*
X59151515Y-63942727D01*
X59140541Y-63760799D01*
X59068190Y-63647724D01*
X58875320Y-63587130D01*
X58502785Y-63562646D01*
X57891444Y-63557900D01*
X57761229Y-63557878D01*
X56991556Y-63574563D01*
G37*
X56991556Y-63574563D02*
X56510835Y-63647713D01*
X56302993Y-63811976D01*
X56351955Y-64101995D01*
X56641647Y-64552417D01*
X57056545Y-65076753D01*
X57441725Y-65557948D01*
X57738368Y-65948313D01*
X57901800Y-66188158D01*
X57920000Y-66230469D01*
X57780751Y-66284323D01*
X57421561Y-66320034D01*
X57073333Y-66328787D01*
X56584046Y-66342151D01*
X56329155Y-66399929D01*
X56235696Y-66528654D01*
X56226666Y-66636666D01*
X56248749Y-66779762D01*
X56353072Y-66870073D01*
X56596746Y-66919624D01*
X57036880Y-66940438D01*
X57689090Y-66944545D01*
X58372668Y-66938681D01*
X58804507Y-66914080D01*
X59040639Y-66860229D01*
X59137096Y-66766613D01*
X59151515Y-66670136D01*
X59057511Y-66432397D01*
X58806804Y-66035351D01*
X58446352Y-65550582D01*
X58293189Y-65361651D01*
X57434864Y-64327575D01*
X58293189Y-64327575D01*
X58782249Y-64317900D01*
X59038396Y-64266496D01*
X59136489Y-64139801D01*
X59151515Y-63942727D01*
X59140541Y-63760799D01*
X59068190Y-63647724D01*
X58875320Y-63587130D01*
X58502785Y-63562646D01*
X57891444Y-63557900D01*
X57761229Y-63557878D01*
X56991556Y-63574563D01*
G36*
X54736380Y-63580757D02*
G01*
X54524967Y-63697322D01*
X54348353Y-63979463D01*
X54196399Y-64327575D01*
X54000072Y-64754146D01*
X53834895Y-65033649D01*
X53763636Y-65097272D01*
X53647089Y-64967378D01*
X53467194Y-64633147D01*
X53330873Y-64327575D01*
X53128929Y-63880791D01*
X52950796Y-63651604D01*
X52715477Y-63568124D01*
X52463682Y-63557878D01*
X51916363Y-63557878D01*
X51916363Y-66944545D01*
X52294468Y-66944545D01*
X52490176Y-66926699D01*
X52607127Y-66829298D01*
X52670276Y-66586552D01*
X52704578Y-66132668D01*
X52717801Y-65828484D01*
X52763030Y-64712424D01*
X53128350Y-65520606D01*
X53421514Y-66058425D01*
X53682577Y-66310581D01*
X53763636Y-66328787D01*
X54011024Y-66178941D01*
X54294287Y-65738630D01*
X54398922Y-65520606D01*
X54764242Y-64712424D01*
X54809471Y-65828484D01*
X54838841Y-66404028D01*
X54885356Y-66737584D01*
X54973972Y-66894945D01*
X55129644Y-66941902D01*
X55232804Y-66944545D01*
X55610909Y-66944545D01*
X55610909Y-63557878D01*
X55063590Y-63557878D01*
X54736380Y-63580757D01*
G37*
X54736380Y-63580757D02*
X54524967Y-63697322D01*
X54348353Y-63979463D01*
X54196399Y-64327575D01*
X54000072Y-64754146D01*
X53834895Y-65033649D01*
X53763636Y-65097272D01*
X53647089Y-64967378D01*
X53467194Y-64633147D01*
X53330873Y-64327575D01*
X53128929Y-63880791D01*
X52950796Y-63651604D01*
X52715477Y-63568124D01*
X52463682Y-63557878D01*
X51916363Y-63557878D01*
X51916363Y-66944545D01*
X52294468Y-66944545D01*
X52490176Y-66926699D01*
X52607127Y-66829298D01*
X52670276Y-66586552D01*
X52704578Y-66132668D01*
X52717801Y-65828484D01*
X52763030Y-64712424D01*
X53128350Y-65520606D01*
X53421514Y-66058425D01*
X53682577Y-66310581D01*
X53763636Y-66328787D01*
X54011024Y-66178941D01*
X54294287Y-65738630D01*
X54398922Y-65520606D01*
X54764242Y-64712424D01*
X54809471Y-65828484D01*
X54838841Y-66404028D01*
X54885356Y-66737584D01*
X54973972Y-66894945D01*
X55129644Y-66941902D01*
X55232804Y-66944545D01*
X55610909Y-66944545D01*
X55610909Y-63557878D01*
X55063590Y-63557878D01*
X54736380Y-63580757D01*
G36*
X56661550Y-60394707D02*
G01*
X55582084Y-60590377D01*
X54583879Y-60772039D01*
X53712911Y-60931269D01*
X53015160Y-61059640D01*
X52536604Y-61148729D01*
X52339696Y-61186623D01*
X52062589Y-61281269D01*
X51942331Y-61479158D01*
X51916363Y-61876776D01*
X51938528Y-62257971D01*
X51993768Y-62466807D01*
X52014360Y-62480303D01*
X52185570Y-62453450D01*
X52619893Y-62377650D01*
X53277714Y-62260036D01*
X54119419Y-62107745D01*
X55105393Y-61927911D01*
X56196021Y-61727669D01*
X56324663Y-61703968D01*
X60536969Y-60927634D01*
X64749276Y-61703968D01*
X65854042Y-61906459D01*
X66863046Y-62089259D01*
X67735726Y-62245193D01*
X68431519Y-62367081D01*
X68909864Y-62447748D01*
X69130199Y-62480014D01*
X69136549Y-62480303D01*
X69253464Y-62344969D01*
X69310375Y-62011512D01*
X69311515Y-61950600D01*
X69273638Y-61569329D01*
X69181152Y-61342479D01*
X69168231Y-61332343D01*
X68984780Y-61282464D01*
X68538462Y-61185885D01*
X67869400Y-61050543D01*
X67017718Y-60884377D01*
X66023540Y-60695327D01*
X64926990Y-60491329D01*
X64792509Y-60466604D01*
X60560070Y-59689420D01*
X56661550Y-60394707D01*
G37*
X56661550Y-60394707D02*
X55582084Y-60590377D01*
X54583879Y-60772039D01*
X53712911Y-60931269D01*
X53015160Y-61059640D01*
X52536604Y-61148729D01*
X52339696Y-61186623D01*
X52062589Y-61281269D01*
X51942331Y-61479158D01*
X51916363Y-61876776D01*
X51938528Y-62257971D01*
X51993768Y-62466807D01*
X52014360Y-62480303D01*
X52185570Y-62453450D01*
X52619893Y-62377650D01*
X53277714Y-62260036D01*
X54119419Y-62107745D01*
X55105393Y-61927911D01*
X56196021Y-61727669D01*
X56324663Y-61703968D01*
X60536969Y-60927634D01*
X64749276Y-61703968D01*
X65854042Y-61906459D01*
X66863046Y-62089259D01*
X67735726Y-62245193D01*
X68431519Y-62367081D01*
X68909864Y-62447748D01*
X69130199Y-62480014D01*
X69136549Y-62480303D01*
X69253464Y-62344969D01*
X69310375Y-62011512D01*
X69311515Y-61950600D01*
X69273638Y-61569329D01*
X69181152Y-61342479D01*
X69168231Y-61332343D01*
X68984780Y-61282464D01*
X68538462Y-61185885D01*
X67869400Y-61050543D01*
X67017718Y-60884377D01*
X66023540Y-60695327D01*
X64926990Y-60491329D01*
X64792509Y-60466604D01*
X60560070Y-59689420D01*
X56661550Y-60394707D01*
G36*
X56661550Y-40394707D02*
G01*
X55582084Y-40590377D01*
X54583879Y-40772039D01*
X53712911Y-40931269D01*
X53015160Y-41059640D01*
X52536604Y-41148729D01*
X52339696Y-41186623D01*
X52062589Y-41281269D01*
X51942331Y-41479158D01*
X51916363Y-41876776D01*
X51938528Y-42257971D01*
X51993768Y-42466807D01*
X52014360Y-42480303D01*
X52185570Y-42453450D01*
X52619893Y-42377650D01*
X53277714Y-42260036D01*
X54119419Y-42107745D01*
X55105393Y-41927911D01*
X56196021Y-41727669D01*
X56324663Y-41703968D01*
X60536969Y-40927634D01*
X64749276Y-41703968D01*
X65854042Y-41906459D01*
X66863046Y-42089259D01*
X67735726Y-42245193D01*
X68431519Y-42367081D01*
X68909864Y-42447748D01*
X69130199Y-42480014D01*
X69136549Y-42480303D01*
X69253464Y-42344969D01*
X69310375Y-42011512D01*
X69311515Y-41950600D01*
X69273638Y-41569329D01*
X69181152Y-41342479D01*
X69168231Y-41332343D01*
X68984780Y-41282464D01*
X68538462Y-41185885D01*
X67869400Y-41050543D01*
X67017718Y-40884377D01*
X66023540Y-40695327D01*
X64926990Y-40491329D01*
X64792509Y-40466604D01*
X60560070Y-39689420D01*
X56661550Y-40394707D01*
G37*
X56661550Y-40394707D02*
X55582084Y-40590377D01*
X54583879Y-40772039D01*
X53712911Y-40931269D01*
X53015160Y-41059640D01*
X52536604Y-41148729D01*
X52339696Y-41186623D01*
X52062589Y-41281269D01*
X51942331Y-41479158D01*
X51916363Y-41876776D01*
X51938528Y-42257971D01*
X51993768Y-42466807D01*
X52014360Y-42480303D01*
X52185570Y-42453450D01*
X52619893Y-42377650D01*
X53277714Y-42260036D01*
X54119419Y-42107745D01*
X55105393Y-41927911D01*
X56196021Y-41727669D01*
X56324663Y-41703968D01*
X60536969Y-40927634D01*
X64749276Y-41703968D01*
X65854042Y-41906459D01*
X66863046Y-42089259D01*
X67735726Y-42245193D01*
X68431519Y-42367081D01*
X68909864Y-42447748D01*
X69130199Y-42480014D01*
X69136549Y-42480303D01*
X69253464Y-42344969D01*
X69310375Y-42011512D01*
X69311515Y-41950600D01*
X69273638Y-41569329D01*
X69181152Y-41342479D01*
X69168231Y-41332343D01*
X68984780Y-41282464D01*
X68538462Y-41185885D01*
X67869400Y-41050543D01*
X67017718Y-40884377D01*
X66023540Y-40695327D01*
X64926990Y-40491329D01*
X64792509Y-40466604D01*
X60560070Y-39689420D01*
X56661550Y-40394707D01*
G36*
X54736380Y-43580757D02*
G01*
X54524967Y-43697322D01*
X54348353Y-43979463D01*
X54196399Y-44327575D01*
X54000072Y-44754146D01*
X53834895Y-45033649D01*
X53763636Y-45097272D01*
X53647089Y-44967378D01*
X53467194Y-44633147D01*
X53330873Y-44327575D01*
X53128929Y-43880791D01*
X52950796Y-43651604D01*
X52715477Y-43568124D01*
X52463682Y-43557878D01*
X51916363Y-43557878D01*
X51916363Y-46944545D01*
X52294468Y-46944545D01*
X52490176Y-46926699D01*
X52607127Y-46829298D01*
X52670276Y-46586552D01*
X52704578Y-46132668D01*
X52717801Y-45828484D01*
X52763030Y-44712424D01*
X53128350Y-45520606D01*
X53421514Y-46058425D01*
X53682577Y-46310581D01*
X53763636Y-46328787D01*
X54011024Y-46178941D01*
X54294287Y-45738630D01*
X54398922Y-45520606D01*
X54764242Y-44712424D01*
X54809471Y-45828484D01*
X54838841Y-46404028D01*
X54885356Y-46737584D01*
X54973972Y-46894945D01*
X55129644Y-46941902D01*
X55232804Y-46944545D01*
X55610909Y-46944545D01*
X55610909Y-43557878D01*
X55063590Y-43557878D01*
X54736380Y-43580757D01*
G37*
X54736380Y-43580757D02*
X54524967Y-43697322D01*
X54348353Y-43979463D01*
X54196399Y-44327575D01*
X54000072Y-44754146D01*
X53834895Y-45033649D01*
X53763636Y-45097272D01*
X53647089Y-44967378D01*
X53467194Y-44633147D01*
X53330873Y-44327575D01*
X53128929Y-43880791D01*
X52950796Y-43651604D01*
X52715477Y-43568124D01*
X52463682Y-43557878D01*
X51916363Y-43557878D01*
X51916363Y-46944545D01*
X52294468Y-46944545D01*
X52490176Y-46926699D01*
X52607127Y-46829298D01*
X52670276Y-46586552D01*
X52704578Y-46132668D01*
X52717801Y-45828484D01*
X52763030Y-44712424D01*
X53128350Y-45520606D01*
X53421514Y-46058425D01*
X53682577Y-46310581D01*
X53763636Y-46328787D01*
X54011024Y-46178941D01*
X54294287Y-45738630D01*
X54398922Y-45520606D01*
X54764242Y-44712424D01*
X54809471Y-45828484D01*
X54838841Y-46404028D01*
X54885356Y-46737584D01*
X54973972Y-46894945D01*
X55129644Y-46941902D01*
X55232804Y-46944545D01*
X55610909Y-46944545D01*
X55610909Y-43557878D01*
X55063590Y-43557878D01*
X54736380Y-43580757D01*
G36*
X56991556Y-43574563D02*
G01*
X56510835Y-43647713D01*
X56302993Y-43811976D01*
X56351955Y-44101995D01*
X56641647Y-44552417D01*
X57056545Y-45076753D01*
X57441725Y-45557948D01*
X57738368Y-45948313D01*
X57901800Y-46188158D01*
X57920000Y-46230469D01*
X57780751Y-46284323D01*
X57421561Y-46320034D01*
X57073333Y-46328787D01*
X56584046Y-46342151D01*
X56329155Y-46399929D01*
X56235696Y-46528654D01*
X56226666Y-46636666D01*
X56248749Y-46779762D01*
X56353072Y-46870073D01*
X56596746Y-46919624D01*
X57036880Y-46940438D01*
X57689090Y-46944545D01*
X58372668Y-46938681D01*
X58804507Y-46914080D01*
X59040639Y-46860229D01*
X59137096Y-46766613D01*
X59151515Y-46670136D01*
X59057511Y-46432397D01*
X58806804Y-46035351D01*
X58446352Y-45550582D01*
X58293189Y-45361651D01*
X57434864Y-44327575D01*
X58293189Y-44327575D01*
X58782249Y-44317900D01*
X59038396Y-44266496D01*
X59136489Y-44139801D01*
X59151515Y-43942727D01*
X59140541Y-43760799D01*
X59068190Y-43647724D01*
X58875320Y-43587130D01*
X58502785Y-43562646D01*
X57891444Y-43557900D01*
X57761229Y-43557878D01*
X56991556Y-43574563D01*
G37*
X56991556Y-43574563D02*
X56510835Y-43647713D01*
X56302993Y-43811976D01*
X56351955Y-44101995D01*
X56641647Y-44552417D01*
X57056545Y-45076753D01*
X57441725Y-45557948D01*
X57738368Y-45948313D01*
X57901800Y-46188158D01*
X57920000Y-46230469D01*
X57780751Y-46284323D01*
X57421561Y-46320034D01*
X57073333Y-46328787D01*
X56584046Y-46342151D01*
X56329155Y-46399929D01*
X56235696Y-46528654D01*
X56226666Y-46636666D01*
X56248749Y-46779762D01*
X56353072Y-46870073D01*
X56596746Y-46919624D01*
X57036880Y-46940438D01*
X57689090Y-46944545D01*
X58372668Y-46938681D01*
X58804507Y-46914080D01*
X59040639Y-46860229D01*
X59137096Y-46766613D01*
X59151515Y-46670136D01*
X59057511Y-46432397D01*
X58806804Y-46035351D01*
X58446352Y-45550582D01*
X58293189Y-45361651D01*
X57434864Y-44327575D01*
X58293189Y-44327575D01*
X58782249Y-44317900D01*
X59038396Y-44266496D01*
X59136489Y-44139801D01*
X59151515Y-43942727D01*
X59140541Y-43760799D01*
X59068190Y-43647724D01*
X58875320Y-43587130D01*
X58502785Y-43562646D01*
X57891444Y-43557900D01*
X57761229Y-43557878D01*
X56991556Y-43574563D01*
G36*
X62037878Y-43558737D02*
G01*
X61071988Y-43652391D01*
X60346338Y-43928210D01*
X59865671Y-44382748D01*
X59634733Y-45012560D01*
X59613333Y-45319914D01*
X59733661Y-45994473D01*
X60096950Y-46487267D01*
X60706656Y-46800801D01*
X61566235Y-46937580D01*
X61855475Y-46944545D01*
X62692121Y-46944545D01*
X62692121Y-45331114D01*
X61768484Y-45331114D01*
X61768484Y-46334653D01*
X61345151Y-46233524D01*
X60961115Y-46105649D01*
X60729393Y-45980833D01*
X60578422Y-45696134D01*
X60545651Y-45268098D01*
X60626210Y-44835602D01*
X60778874Y-44569480D01*
X61122390Y-44376027D01*
X61394632Y-44327575D01*
X61595454Y-44346460D01*
X61707442Y-44449363D01*
X61756441Y-44705657D01*
X61768295Y-45184715D01*
X61768484Y-45331114D01*
X62692121Y-45331114D01*
X62692121Y-43557878D01*
X62037878Y-43558737D01*
G37*
X62037878Y-43558737D02*
X61071988Y-43652391D01*
X60346338Y-43928210D01*
X59865671Y-44382748D01*
X59634733Y-45012560D01*
X59613333Y-45319914D01*
X59733661Y-45994473D01*
X60096950Y-46487267D01*
X60706656Y-46800801D01*
X61566235Y-46937580D01*
X61855475Y-46944545D01*
X62692121Y-46944545D01*
X62692121Y-45331114D01*
X61768484Y-45331114D01*
X61768484Y-46334653D01*
X61345151Y-46233524D01*
X60961115Y-46105649D01*
X60729393Y-45980833D01*
X60578422Y-45696134D01*
X60545651Y-45268098D01*
X60626210Y-44835602D01*
X60778874Y-44569480D01*
X61122390Y-44376027D01*
X61394632Y-44327575D01*
X61595454Y-44346460D01*
X61707442Y-44449363D01*
X61756441Y-44705657D01*
X61768295Y-45184715D01*
X61768484Y-45331114D01*
X62692121Y-45331114D01*
X62692121Y-43557878D01*
X62037878Y-43558737D01*
G36*
X64761891Y-43614157D02*
G01*
X64176456Y-43767601D01*
X63795358Y-43995123D01*
X63736702Y-44067812D01*
X63622926Y-44505003D01*
X63751502Y-44963021D01*
X63860068Y-45112081D01*
X63994110Y-45301740D01*
X63986149Y-45497786D01*
X63818135Y-45800589D01*
X63706128Y-45968119D01*
X63410165Y-46458523D01*
X63330986Y-46762364D01*
X63469438Y-46912528D01*
X63731212Y-46944129D01*
X64056406Y-46874237D01*
X64314776Y-46617405D01*
X64462424Y-46368673D01*
X64715180Y-45996889D01*
X64971816Y-45768078D01*
X65039696Y-45742044D01*
X65214385Y-45763209D01*
X65293196Y-45962421D01*
X65309090Y-46317500D01*
X65326485Y-46716995D01*
X65421636Y-46896410D01*
X65658995Y-46943258D01*
X65770909Y-46944545D01*
X66232727Y-46944545D01*
X66232727Y-44723130D01*
X65309090Y-44723130D01*
X65258836Y-45011451D01*
X65055968Y-45079190D01*
X64962727Y-45069494D01*
X64651515Y-44894194D01*
X64567172Y-44673939D01*
X64587820Y-44415224D01*
X64807492Y-44330681D01*
X64913535Y-44327575D01*
X65211204Y-44386573D01*
X65306171Y-44625294D01*
X65309090Y-44723130D01*
X66232727Y-44723130D01*
X66232727Y-43557878D01*
X65473051Y-43557878D01*
X64761891Y-43614157D01*
G37*
X64761891Y-43614157D02*
X64176456Y-43767601D01*
X63795358Y-43995123D01*
X63736702Y-44067812D01*
X63622926Y-44505003D01*
X63751502Y-44963021D01*
X63860068Y-45112081D01*
X63994110Y-45301740D01*
X63986149Y-45497786D01*
X63818135Y-45800589D01*
X63706128Y-45968119D01*
X63410165Y-46458523D01*
X63330986Y-46762364D01*
X63469438Y-46912528D01*
X63731212Y-46944129D01*
X64056406Y-46874237D01*
X64314776Y-46617405D01*
X64462424Y-46368673D01*
X64715180Y-45996889D01*
X64971816Y-45768078D01*
X65039696Y-45742044D01*
X65214385Y-45763209D01*
X65293196Y-45962421D01*
X65309090Y-46317500D01*
X65326485Y-46716995D01*
X65421636Y-46896410D01*
X65658995Y-46943258D01*
X65770909Y-46944545D01*
X66232727Y-46944545D01*
X66232727Y-44723130D01*
X65309090Y-44723130D01*
X65258836Y-45011451D01*
X65055968Y-45079190D01*
X64962727Y-45069494D01*
X64651515Y-44894194D01*
X64567172Y-44673939D01*
X64587820Y-44415224D01*
X64807492Y-44330681D01*
X64913535Y-44327575D01*
X65211204Y-44386573D01*
X65306171Y-44625294D01*
X65309090Y-44723130D01*
X66232727Y-44723130D01*
X66232727Y-43557878D01*
X65473051Y-43557878D01*
X64761891Y-43614157D01*
G36*
X69323272Y-43582194D02*
G01*
X69191634Y-43713962D01*
X69158304Y-44041414D01*
X69157575Y-44173636D01*
X69157575Y-44789394D01*
X67926060Y-44789394D01*
X67926060Y-44163411D01*
X67909970Y-43766795D01*
X67822498Y-43597616D01*
X67604841Y-43575687D01*
X67502727Y-43586138D01*
X67079393Y-43634848D01*
X67035701Y-45289697D01*
X66992008Y-46944545D01*
X67459034Y-46944545D01*
X67746185Y-46924901D01*
X67882186Y-46810245D01*
X67923389Y-46516991D01*
X67926060Y-46251818D01*
X67926060Y-45559090D01*
X69157575Y-45559090D01*
X69157575Y-46251818D01*
X69170963Y-46677786D01*
X69248259Y-46879539D01*
X69445168Y-46940629D01*
X69619393Y-46944545D01*
X70081212Y-46944545D01*
X70081212Y-43557878D01*
X69619393Y-43557878D01*
X69323272Y-43582194D01*
G37*
X69323272Y-43582194D02*
X69191634Y-43713962D01*
X69158304Y-44041414D01*
X69157575Y-44173636D01*
X69157575Y-44789394D01*
X67926060Y-44789394D01*
X67926060Y-44163411D01*
X67909970Y-43766795D01*
X67822498Y-43597616D01*
X67604841Y-43575687D01*
X67502727Y-43586138D01*
X67079393Y-43634848D01*
X67035701Y-45289697D01*
X66992008Y-46944545D01*
X67459034Y-46944545D01*
X67746185Y-46924901D01*
X67882186Y-46810245D01*
X67923389Y-46516991D01*
X67926060Y-46251818D01*
X67926060Y-45559090D01*
X69157575Y-45559090D01*
X69157575Y-46251818D01*
X69170963Y-46677786D01*
X69248259Y-46879539D01*
X69445168Y-46940629D01*
X69619393Y-46944545D01*
X70081212Y-46944545D01*
X70081212Y-43557878D01*
X69619393Y-43557878D01*
X69323272Y-43582194D01*
G36*
X70889393Y-40423146D02*
G01*
X70459882Y-40810202D01*
X70217448Y-41097202D01*
X70109048Y-41376787D01*
X70081642Y-41741599D01*
X70081212Y-41834661D01*
X70081212Y-42546755D01*
X70893288Y-41744766D01*
X71705365Y-40942777D01*
X72201025Y-41438438D01*
X72696686Y-41934098D01*
X71845270Y-42794492D01*
X70993854Y-43654885D01*
X71037836Y-45310399D01*
X71081818Y-46965914D01*
X71505151Y-46523473D01*
X71733883Y-46250547D01*
X71861695Y-45967593D01*
X71917059Y-45573211D01*
X71928484Y-45015742D01*
X71928484Y-43950453D01*
X73929686Y-41933799D01*
X72813631Y-40828762D01*
X71697575Y-39723725D01*
X70889393Y-40423146D01*
G37*
X70889393Y-40423146D02*
X70459882Y-40810202D01*
X70217448Y-41097202D01*
X70109048Y-41376787D01*
X70081642Y-41741599D01*
X70081212Y-41834661D01*
X70081212Y-42546755D01*
X70893288Y-41744766D01*
X71705365Y-40942777D01*
X72201025Y-41438438D01*
X72696686Y-41934098D01*
X71845270Y-42794492D01*
X70993854Y-43654885D01*
X71037836Y-45310399D01*
X71081818Y-46965914D01*
X71505151Y-46523473D01*
X71733883Y-46250547D01*
X71861695Y-45967593D01*
X71917059Y-45573211D01*
X71928484Y-45015742D01*
X71928484Y-43950453D01*
X73929686Y-41933799D01*
X72813631Y-40828762D01*
X71697575Y-39723725D01*
X70889393Y-40423146D01*
%TD*%
M02*
