%TF.GenerationSoftware,KiCad,Pcbnew,(5.1.9)-1*%
%TF.CreationDate,2021-04-07T06:54:24+02:00*%
%TF.ProjectId,IM350_AM550_5V_multi,494d3335-305f-4414-9d35-35305f35565f,rev?*%
%TF.SameCoordinates,Original*%
%TF.FileFunction,Soldermask,Bot*%
%TF.FilePolarity,Negative*%
%FSLAX46Y46*%
G04 Gerber Fmt 4.6, Leading zero omitted, Abs format (unit mm)*
G04 Created by KiCad (PCBNEW (5.1.9)-1) date 2021-04-07 06:54:24*
%MOMM*%
%LPD*%
G01*
G04 APERTURE LIST*
%ADD10R,1.520000X1.520000*%
%ADD11C,1.520000*%
%ADD12O,1.900000X1.050000*%
%ADD13C,1.600000*%
%ADD14O,1.600000X1.600000*%
%ADD15C,2.000000*%
G04 APERTURE END LIST*
D10*
%TO.C,J7*%
X97550000Y-120750000D03*
D11*
X95010000Y-122020000D03*
X97550000Y-123290000D03*
X95010000Y-124560000D03*
X97550000Y-125830000D03*
X95010000Y-127100000D03*
%TD*%
D12*
%TO.C,J5*%
X139250000Y-99675000D03*
X139250000Y-106825000D03*
%TD*%
D13*
%TO.C,C2*%
X131800000Y-96500000D03*
X126800000Y-96500000D03*
%TD*%
D14*
%TO.C,R1*%
X127300000Y-100210000D03*
D13*
X127300000Y-102750000D03*
%TD*%
D15*
%TO.C,SW1*%
X127300000Y-131500000D03*
X127300000Y-127000000D03*
X133800000Y-131500000D03*
X133800000Y-127000000D03*
%TD*%
D13*
%TO.C,R1*%
X127300000Y-122750000D03*
D14*
X127300000Y-120210000D03*
%TD*%
D13*
%TO.C,C2*%
X126800000Y-116500000D03*
X131800000Y-116500000D03*
%TD*%
D15*
%TO.C,SW1*%
X133800000Y-107000000D03*
X133800000Y-111500000D03*
X127300000Y-107000000D03*
X127300000Y-111500000D03*
%TD*%
D14*
%TO.C,R5*%
X137300000Y-128960000D03*
D13*
X137300000Y-131500000D03*
%TD*%
D11*
%TO.C,J7*%
X95010000Y-107100000D03*
X97550000Y-105830000D03*
X95010000Y-104560000D03*
X97550000Y-103290000D03*
X95010000Y-102020000D03*
D10*
X97550000Y-100750000D03*
%TD*%
D12*
%TO.C,J5*%
X139250000Y-126825000D03*
X139250000Y-119675000D03*
%TD*%
D13*
%TO.C,R5*%
X137300000Y-111500000D03*
D14*
X137300000Y-108960000D03*
%TD*%
D12*
%TO.C,J5*%
X139250000Y-86825000D03*
X139250000Y-79675000D03*
%TD*%
D13*
%TO.C,C2*%
X126800000Y-76500000D03*
X131800000Y-76500000D03*
%TD*%
D10*
%TO.C,J7*%
X97550000Y-80750000D03*
D11*
X95010000Y-82020000D03*
X97550000Y-83290000D03*
X95010000Y-84560000D03*
X97550000Y-85830000D03*
X95010000Y-87100000D03*
%TD*%
D13*
%TO.C,R1*%
X127300000Y-82750000D03*
D14*
X127300000Y-80210000D03*
%TD*%
%TO.C,R5*%
X137300000Y-88960000D03*
D13*
X137300000Y-91500000D03*
%TD*%
D15*
%TO.C,SW1*%
X127300000Y-91500000D03*
X127300000Y-87000000D03*
X133800000Y-91500000D03*
X133800000Y-87000000D03*
%TD*%
D11*
%TO.C,J7*%
X95010000Y-67100000D03*
X97550000Y-65830000D03*
X95010000Y-64560000D03*
X97550000Y-63290000D03*
X95010000Y-62020000D03*
D10*
X97550000Y-60750000D03*
%TD*%
D13*
%TO.C,C2*%
X131800000Y-56500000D03*
X126800000Y-56500000D03*
%TD*%
D12*
%TO.C,J5*%
X139250000Y-59675000D03*
X139250000Y-66825000D03*
%TD*%
D10*
%TO.C,J7*%
X97550000Y-40750000D03*
D11*
X95010000Y-42020000D03*
X97550000Y-43290000D03*
X95010000Y-44560000D03*
X97550000Y-45830000D03*
X95010000Y-47100000D03*
%TD*%
D15*
%TO.C,SW1*%
X133800000Y-67000000D03*
X133800000Y-71500000D03*
X127300000Y-67000000D03*
X127300000Y-71500000D03*
%TD*%
D14*
%TO.C,R1*%
X127300000Y-60210000D03*
D13*
X127300000Y-62750000D03*
%TD*%
%TO.C,R5*%
X137300000Y-71500000D03*
D14*
X137300000Y-68960000D03*
%TD*%
D13*
%TO.C,R1*%
X127300000Y-42750000D03*
D14*
X127300000Y-40210000D03*
%TD*%
D13*
%TO.C,C2*%
X126800000Y-36500000D03*
X131800000Y-36500000D03*
%TD*%
D15*
%TO.C,SW1*%
X127300000Y-51500000D03*
X127300000Y-47000000D03*
X133800000Y-51500000D03*
X133800000Y-47000000D03*
%TD*%
D14*
%TO.C,R5*%
X137300000Y-48960000D03*
D13*
X137300000Y-51500000D03*
%TD*%
D12*
%TO.C,J5*%
X139250000Y-46825000D03*
X139250000Y-39675000D03*
%TD*%
%TO.C,J5*%
X89250000Y-119675000D03*
X89250000Y-126825000D03*
%TD*%
D13*
%TO.C,C2*%
X81800000Y-116500000D03*
X76800000Y-116500000D03*
%TD*%
D14*
%TO.C,R1*%
X77300000Y-120210000D03*
D13*
X77300000Y-122750000D03*
%TD*%
D15*
%TO.C,SW1*%
X83800000Y-127000000D03*
X83800000Y-131500000D03*
X77300000Y-127000000D03*
X77300000Y-131500000D03*
%TD*%
D11*
%TO.C,J7*%
X45010000Y-127100000D03*
X47550000Y-125830000D03*
X45010000Y-124560000D03*
X47550000Y-123290000D03*
X45010000Y-122020000D03*
D10*
X47550000Y-120750000D03*
%TD*%
D13*
%TO.C,R5*%
X87300000Y-131500000D03*
D14*
X87300000Y-128960000D03*
%TD*%
D12*
%TO.C,J5*%
X89250000Y-106825000D03*
X89250000Y-99675000D03*
%TD*%
D13*
%TO.C,C2*%
X76800000Y-96500000D03*
X81800000Y-96500000D03*
%TD*%
D10*
%TO.C,J7*%
X47550000Y-100750000D03*
D11*
X45010000Y-102020000D03*
X47550000Y-103290000D03*
X45010000Y-104560000D03*
X47550000Y-105830000D03*
X45010000Y-107100000D03*
%TD*%
D13*
%TO.C,R1*%
X77300000Y-102750000D03*
D14*
X77300000Y-100210000D03*
%TD*%
%TO.C,R5*%
X87300000Y-108960000D03*
D13*
X87300000Y-111500000D03*
%TD*%
D15*
%TO.C,SW1*%
X77300000Y-111500000D03*
X77300000Y-107000000D03*
X83800000Y-111500000D03*
X83800000Y-107000000D03*
%TD*%
D11*
%TO.C,J7*%
X45010000Y-87100000D03*
X47550000Y-85830000D03*
X45010000Y-84560000D03*
X47550000Y-83290000D03*
X45010000Y-82020000D03*
D10*
X47550000Y-80750000D03*
%TD*%
D13*
%TO.C,C2*%
X81800000Y-76500000D03*
X76800000Y-76500000D03*
%TD*%
D12*
%TO.C,J5*%
X89250000Y-79675000D03*
X89250000Y-86825000D03*
%TD*%
D15*
%TO.C,SW1*%
X83800000Y-87000000D03*
X83800000Y-91500000D03*
X77300000Y-87000000D03*
X77300000Y-91500000D03*
%TD*%
D14*
%TO.C,R1*%
X77300000Y-80210000D03*
D13*
X77300000Y-82750000D03*
%TD*%
%TO.C,R5*%
X87300000Y-91500000D03*
D14*
X87300000Y-88960000D03*
%TD*%
D10*
%TO.C,J7*%
X47550000Y-60750000D03*
D11*
X45010000Y-62020000D03*
X47550000Y-63290000D03*
X45010000Y-64560000D03*
X47550000Y-65830000D03*
X45010000Y-67100000D03*
%TD*%
D13*
%TO.C,R1*%
X77300000Y-62750000D03*
D14*
X77300000Y-60210000D03*
%TD*%
D13*
%TO.C,C2*%
X76800000Y-56500000D03*
X81800000Y-56500000D03*
%TD*%
D15*
%TO.C,SW1*%
X77300000Y-71500000D03*
X77300000Y-67000000D03*
X83800000Y-71500000D03*
X83800000Y-67000000D03*
%TD*%
D14*
%TO.C,R5*%
X87300000Y-68960000D03*
D13*
X87300000Y-71500000D03*
%TD*%
D12*
%TO.C,J5*%
X89250000Y-66825000D03*
X89250000Y-59675000D03*
%TD*%
D13*
%TO.C,C2*%
X81800000Y-36500000D03*
X76800000Y-36500000D03*
%TD*%
D12*
%TO.C,J5*%
X89250000Y-39675000D03*
X89250000Y-46825000D03*
%TD*%
D14*
%TO.C,R1*%
X77300000Y-40210000D03*
D13*
X77300000Y-42750000D03*
%TD*%
%TO.C,R5*%
X87300000Y-51500000D03*
D14*
X87300000Y-48960000D03*
%TD*%
D15*
%TO.C,SW1*%
X83800000Y-47000000D03*
X83800000Y-51500000D03*
X77300000Y-47000000D03*
X77300000Y-51500000D03*
%TD*%
D11*
%TO.C,J7*%
X45010000Y-47100000D03*
X47550000Y-45830000D03*
X45010000Y-44560000D03*
X47550000Y-43290000D03*
X45010000Y-42020000D03*
D10*
X47550000Y-40750000D03*
%TD*%
M02*
