M48
; DRILL file {KiCad (5.1.9)-1} date 04/07/21 06:54:33
; FORMAT={3:3/ absolute / metric / suppress leading zeros}
; #@! TF.CreationDate,2021-04-07T06:54:33+02:00
; #@! TF.GenerationSoftware,Kicad,Pcbnew,(5.1.9)-1
; #@! TF.FileFunction,Plated,1,2,PTH
FMAT,2
METRIC,TZ
T1C0.450
T2C0.760
T3C0.800
T4C1.100
%
G90
G05
T2
X45010Y-42020
X45010Y-44560
X45010Y-47100
X45010Y-62020
X45010Y-64560
X45010Y-67100
X45010Y-82020
X45010Y-84560
X45010Y-87100
X45010Y-102020
X45010Y-104560
X45010Y-107100
X45010Y-122020
X45010Y-124560
X45010Y-127100
X47550Y-40750
X47550Y-43290
X47550Y-45830
X47550Y-60750
X47550Y-63290
X47550Y-65830
X47550Y-80750
X47550Y-83290
X47550Y-85830
X47550Y-100750
X47550Y-103290
X47550Y-105830
X47550Y-120750
X47550Y-123290
X47550Y-125830
X95010Y-42020
X95010Y-44560
X95010Y-47100
X95010Y-62020
X95010Y-64560
X95010Y-67100
X95010Y-82020
X95010Y-84560
X95010Y-87100
X95010Y-102020
X95010Y-104560
X95010Y-107100
X95010Y-122020
X95010Y-124560
X95010Y-127100
X97550Y-40750
X97550Y-43290
X97550Y-45830
X97550Y-60750
X97550Y-63290
X97550Y-65830
X97550Y-80750
X97550Y-83290
X97550Y-85830
X97550Y-100750
X97550Y-103290
X97550Y-105830
X97550Y-120750
X97550Y-123290
X97550Y-125830
T3
X76800Y-36500
X76800Y-56500
X76800Y-76500
X76800Y-96500
X76800Y-116500
X77300Y-40210
X77300Y-42750
X77300Y-60210
X77300Y-62750
X77300Y-80210
X77300Y-82750
X77300Y-100210
X77300Y-102750
X77300Y-120210
X77300Y-122750
X81800Y-36500
X81800Y-56500
X81800Y-76500
X81800Y-96500
X81800Y-116500
X87300Y-48960
X87300Y-51500
X87300Y-68960
X87300Y-71500
X87300Y-88960
X87300Y-91500
X87300Y-108960
X87300Y-111500
X87300Y-128960
X87300Y-131500
X126800Y-36500
X126800Y-56500
X126800Y-76500
X126800Y-96500
X126800Y-116500
X127300Y-40210
X127300Y-42750
X127300Y-60210
X127300Y-62750
X127300Y-80210
X127300Y-82750
X127300Y-100210
X127300Y-102750
X127300Y-120210
X127300Y-122750
X131800Y-36500
X131800Y-56500
X131800Y-76500
X131800Y-96500
X131800Y-116500
X137300Y-48960
X137300Y-51500
X137300Y-68960
X137300Y-71500
X137300Y-88960
X137300Y-91500
X137300Y-108960
X137300Y-111500
X137300Y-128960
X137300Y-131500
T4
X77300Y-47000
X77300Y-51500
X77300Y-67000
X77300Y-71500
X77300Y-87000
X77300Y-91500
X77300Y-107000
X77300Y-111500
X77300Y-127000
X77300Y-131500
X83800Y-47000
X83800Y-51500
X83800Y-67000
X83800Y-71500
X83800Y-87000
X83800Y-91500
X83800Y-107000
X83800Y-111500
X83800Y-127000
X83800Y-131500
X127300Y-47000
X127300Y-51500
X127300Y-67000
X127300Y-71500
X127300Y-87000
X127300Y-91500
X127300Y-107000
X127300Y-111500
X127300Y-127000
X127300Y-131500
X133800Y-47000
X133800Y-51500
X133800Y-67000
X133800Y-71500
X133800Y-87000
X133800Y-91500
X133800Y-107000
X133800Y-111500
X133800Y-127000
X133800Y-131500
T1
G00X88850Y-39675
M15
G01X89650Y-39675
M16
G05
G00X89650Y-46825
M15
G01X88850Y-46825
M16
G05
G00X88850Y-59675
M15
G01X89650Y-59675
M16
G05
G00X89650Y-66825
M15
G01X88850Y-66825
M16
G05
G00X88850Y-79675
M15
G01X89650Y-79675
M16
G05
G00X89650Y-86825
M15
G01X88850Y-86825
M16
G05
G00X88850Y-99675
M15
G01X89650Y-99675
M16
G05
G00X89650Y-106825
M15
G01X88850Y-106825
M16
G05
G00X88850Y-119675
M15
G01X89650Y-119675
M16
G05
G00X89650Y-126825
M15
G01X88850Y-126825
M16
G05
G00X138850Y-39675
M15
G01X139650Y-39675
M16
G05
G00X139650Y-46825
M15
G01X138850Y-46825
M16
G05
G00X138850Y-59675
M15
G01X139650Y-59675
M16
G05
G00X139650Y-66825
M15
G01X138850Y-66825
M16
G05
G00X138850Y-79675
M15
G01X139650Y-79675
M16
G05
G00X139650Y-86825
M15
G01X138850Y-86825
M16
G05
G00X138850Y-99675
M15
G01X139650Y-99675
M16
G05
G00X139650Y-106825
M15
G01X138850Y-106825
M16
G05
G00X138850Y-119675
M15
G01X139650Y-119675
M16
G05
G00X139650Y-126825
M15
G01X138850Y-126825
M16
G05
T0
M30
