%TF.GenerationSoftware,KiCad,Pcbnew,(5.1.9)-1*%
%TF.CreationDate,2021-04-07T06:54:24+02:00*%
%TF.ProjectId,IM350_AM550_5V_multi,494d3335-305f-4414-9d35-35305f35565f,rev?*%
%TF.SameCoordinates,Original*%
%TF.FileFunction,Copper,L2,Bot*%
%TF.FilePolarity,Positive*%
%FSLAX46Y46*%
G04 Gerber Fmt 4.6, Leading zero omitted, Abs format (unit mm)*
G04 Created by KiCad (PCBNEW (5.1.9)-1) date 2021-04-07 06:54:24*
%MOMM*%
%LPD*%
G01*
G04 APERTURE LIST*
%TA.AperFunction,ComponentPad*%
%ADD10R,1.520000X1.520000*%
%TD*%
%TA.AperFunction,ComponentPad*%
%ADD11C,1.520000*%
%TD*%
%TA.AperFunction,ComponentPad*%
%ADD12O,1.900000X1.050000*%
%TD*%
%TA.AperFunction,ComponentPad*%
%ADD13C,1.600000*%
%TD*%
%TA.AperFunction,ComponentPad*%
%ADD14O,1.600000X1.600000*%
%TD*%
%TA.AperFunction,ComponentPad*%
%ADD15C,2.000000*%
%TD*%
%TA.AperFunction,Conductor*%
%ADD16C,0.250000*%
%TD*%
G04 APERTURE END LIST*
D10*
%TO.P,J7,1*%
%TO.N,Net-(J7-Pad1)*%
X97550000Y-120750000D03*
D11*
%TO.P,J7,2*%
%TO.N,Net-(J7-Pad2)*%
X95010000Y-122020000D03*
%TO.P,J7,3*%
%TO.N,Net-(C2-Pad2)*%
X97550000Y-123290000D03*
%TO.P,J7,4*%
%TO.N,Net-(J7-Pad4)*%
X95010000Y-124560000D03*
%TO.P,J7,5*%
%TO.N,Net-(J7-Pad5)*%
X97550000Y-125830000D03*
%TO.P,J7,6*%
%TO.N,Net-(C2-Pad2)*%
X95010000Y-127100000D03*
%TD*%
D12*
%TO.P,J5,*%
%TO.N,*%
X139250000Y-99675000D03*
X139250000Y-106825000D03*
%TD*%
D13*
%TO.P,C2,1*%
%TO.N,+3V3*%
X131800000Y-96500000D03*
%TO.P,C2,2*%
%TO.N,Net-(C2-Pad2)*%
X126800000Y-96500000D03*
%TD*%
D14*
%TO.P,R1,2*%
%TO.N,Net-(C2-Pad2)*%
X127300000Y-100210000D03*
D13*
%TO.P,R1,1*%
%TO.N,Net-(R1-Pad1)*%
X127300000Y-102750000D03*
%TD*%
D15*
%TO.P,SW1,1*%
%TO.N,Net-(SW1-Pad1)*%
X127300000Y-131500000D03*
%TO.P,SW1,2*%
%TO.N,Net-(C2-Pad2)*%
X127300000Y-127000000D03*
%TO.P,SW1,1*%
%TO.N,Net-(SW1-Pad1)*%
X133800000Y-131500000D03*
%TO.P,SW1,2*%
%TO.N,Net-(C2-Pad2)*%
X133800000Y-127000000D03*
%TD*%
D13*
%TO.P,R1,1*%
%TO.N,Net-(R1-Pad1)*%
X127300000Y-122750000D03*
D14*
%TO.P,R1,2*%
%TO.N,Net-(C2-Pad2)*%
X127300000Y-120210000D03*
%TD*%
D13*
%TO.P,C2,2*%
%TO.N,Net-(C2-Pad2)*%
X126800000Y-116500000D03*
%TO.P,C2,1*%
%TO.N,+3V3*%
X131800000Y-116500000D03*
%TD*%
D15*
%TO.P,SW1,2*%
%TO.N,Net-(C2-Pad2)*%
X133800000Y-107000000D03*
%TO.P,SW1,1*%
%TO.N,Net-(SW1-Pad1)*%
X133800000Y-111500000D03*
%TO.P,SW1,2*%
%TO.N,Net-(C2-Pad2)*%
X127300000Y-107000000D03*
%TO.P,SW1,1*%
%TO.N,Net-(SW1-Pad1)*%
X127300000Y-111500000D03*
%TD*%
D14*
%TO.P,R5,2*%
%TO.N,Net-(J7-Pad5)*%
X137300000Y-128960000D03*
D13*
%TO.P,R5,1*%
%TO.N,Net-(J7-Pad1)*%
X137300000Y-131500000D03*
%TD*%
D11*
%TO.P,J7,6*%
%TO.N,Net-(C2-Pad2)*%
X95010000Y-107100000D03*
%TO.P,J7,5*%
%TO.N,Net-(J7-Pad5)*%
X97550000Y-105830000D03*
%TO.P,J7,4*%
%TO.N,Net-(J7-Pad4)*%
X95010000Y-104560000D03*
%TO.P,J7,3*%
%TO.N,Net-(C2-Pad2)*%
X97550000Y-103290000D03*
%TO.P,J7,2*%
%TO.N,Net-(J7-Pad2)*%
X95010000Y-102020000D03*
D10*
%TO.P,J7,1*%
%TO.N,Net-(J7-Pad1)*%
X97550000Y-100750000D03*
%TD*%
D12*
%TO.P,J5,*%
%TO.N,*%
X139250000Y-126825000D03*
X139250000Y-119675000D03*
%TD*%
D13*
%TO.P,R5,1*%
%TO.N,Net-(J7-Pad1)*%
X137300000Y-111500000D03*
D14*
%TO.P,R5,2*%
%TO.N,Net-(J7-Pad5)*%
X137300000Y-108960000D03*
%TD*%
D12*
%TO.P,J5,*%
%TO.N,*%
X139250000Y-86825000D03*
X139250000Y-79675000D03*
%TD*%
D13*
%TO.P,C2,2*%
%TO.N,Net-(C2-Pad2)*%
X126800000Y-76500000D03*
%TO.P,C2,1*%
%TO.N,+3V3*%
X131800000Y-76500000D03*
%TD*%
D10*
%TO.P,J7,1*%
%TO.N,Net-(J7-Pad1)*%
X97550000Y-80750000D03*
D11*
%TO.P,J7,2*%
%TO.N,Net-(J7-Pad2)*%
X95010000Y-82020000D03*
%TO.P,J7,3*%
%TO.N,Net-(C2-Pad2)*%
X97550000Y-83290000D03*
%TO.P,J7,4*%
%TO.N,Net-(J7-Pad4)*%
X95010000Y-84560000D03*
%TO.P,J7,5*%
%TO.N,Net-(J7-Pad5)*%
X97550000Y-85830000D03*
%TO.P,J7,6*%
%TO.N,Net-(C2-Pad2)*%
X95010000Y-87100000D03*
%TD*%
D13*
%TO.P,R1,1*%
%TO.N,Net-(R1-Pad1)*%
X127300000Y-82750000D03*
D14*
%TO.P,R1,2*%
%TO.N,Net-(C2-Pad2)*%
X127300000Y-80210000D03*
%TD*%
%TO.P,R5,2*%
%TO.N,Net-(J7-Pad5)*%
X137300000Y-88960000D03*
D13*
%TO.P,R5,1*%
%TO.N,Net-(J7-Pad1)*%
X137300000Y-91500000D03*
%TD*%
D15*
%TO.P,SW1,1*%
%TO.N,Net-(SW1-Pad1)*%
X127300000Y-91500000D03*
%TO.P,SW1,2*%
%TO.N,Net-(C2-Pad2)*%
X127300000Y-87000000D03*
%TO.P,SW1,1*%
%TO.N,Net-(SW1-Pad1)*%
X133800000Y-91500000D03*
%TO.P,SW1,2*%
%TO.N,Net-(C2-Pad2)*%
X133800000Y-87000000D03*
%TD*%
D11*
%TO.P,J7,6*%
%TO.N,Net-(C2-Pad2)*%
X95010000Y-67100000D03*
%TO.P,J7,5*%
%TO.N,Net-(J7-Pad5)*%
X97550000Y-65830000D03*
%TO.P,J7,4*%
%TO.N,Net-(J7-Pad4)*%
X95010000Y-64560000D03*
%TO.P,J7,3*%
%TO.N,Net-(C2-Pad2)*%
X97550000Y-63290000D03*
%TO.P,J7,2*%
%TO.N,Net-(J7-Pad2)*%
X95010000Y-62020000D03*
D10*
%TO.P,J7,1*%
%TO.N,Net-(J7-Pad1)*%
X97550000Y-60750000D03*
%TD*%
D13*
%TO.P,C2,1*%
%TO.N,+3V3*%
X131800000Y-56500000D03*
%TO.P,C2,2*%
%TO.N,Net-(C2-Pad2)*%
X126800000Y-56500000D03*
%TD*%
D12*
%TO.P,J5,*%
%TO.N,*%
X139250000Y-59675000D03*
X139250000Y-66825000D03*
%TD*%
D10*
%TO.P,J7,1*%
%TO.N,Net-(J7-Pad1)*%
X97550000Y-40750000D03*
D11*
%TO.P,J7,2*%
%TO.N,Net-(J7-Pad2)*%
X95010000Y-42020000D03*
%TO.P,J7,3*%
%TO.N,Net-(C2-Pad2)*%
X97550000Y-43290000D03*
%TO.P,J7,4*%
%TO.N,Net-(J7-Pad4)*%
X95010000Y-44560000D03*
%TO.P,J7,5*%
%TO.N,Net-(J7-Pad5)*%
X97550000Y-45830000D03*
%TO.P,J7,6*%
%TO.N,Net-(C2-Pad2)*%
X95010000Y-47100000D03*
%TD*%
D15*
%TO.P,SW1,2*%
%TO.N,Net-(C2-Pad2)*%
X133800000Y-67000000D03*
%TO.P,SW1,1*%
%TO.N,Net-(SW1-Pad1)*%
X133800000Y-71500000D03*
%TO.P,SW1,2*%
%TO.N,Net-(C2-Pad2)*%
X127300000Y-67000000D03*
%TO.P,SW1,1*%
%TO.N,Net-(SW1-Pad1)*%
X127300000Y-71500000D03*
%TD*%
D14*
%TO.P,R1,2*%
%TO.N,Net-(C2-Pad2)*%
X127300000Y-60210000D03*
D13*
%TO.P,R1,1*%
%TO.N,Net-(R1-Pad1)*%
X127300000Y-62750000D03*
%TD*%
%TO.P,R5,1*%
%TO.N,Net-(J7-Pad1)*%
X137300000Y-71500000D03*
D14*
%TO.P,R5,2*%
%TO.N,Net-(J7-Pad5)*%
X137300000Y-68960000D03*
%TD*%
D13*
%TO.P,R1,1*%
%TO.N,Net-(R1-Pad1)*%
X127300000Y-42750000D03*
D14*
%TO.P,R1,2*%
%TO.N,Net-(C2-Pad2)*%
X127300000Y-40210000D03*
%TD*%
D13*
%TO.P,C2,2*%
%TO.N,Net-(C2-Pad2)*%
X126800000Y-36500000D03*
%TO.P,C2,1*%
%TO.N,+3V3*%
X131800000Y-36500000D03*
%TD*%
D15*
%TO.P,SW1,1*%
%TO.N,Net-(SW1-Pad1)*%
X127300000Y-51500000D03*
%TO.P,SW1,2*%
%TO.N,Net-(C2-Pad2)*%
X127300000Y-47000000D03*
%TO.P,SW1,1*%
%TO.N,Net-(SW1-Pad1)*%
X133800000Y-51500000D03*
%TO.P,SW1,2*%
%TO.N,Net-(C2-Pad2)*%
X133800000Y-47000000D03*
%TD*%
D14*
%TO.P,R5,2*%
%TO.N,Net-(J7-Pad5)*%
X137300000Y-48960000D03*
D13*
%TO.P,R5,1*%
%TO.N,Net-(J7-Pad1)*%
X137300000Y-51500000D03*
%TD*%
D12*
%TO.P,J5,*%
%TO.N,*%
X139250000Y-46825000D03*
X139250000Y-39675000D03*
%TD*%
%TO.P,J5,*%
%TO.N,*%
X89250000Y-119675000D03*
X89250000Y-126825000D03*
%TD*%
D13*
%TO.P,C2,1*%
%TO.N,+3V3*%
X81800000Y-116500000D03*
%TO.P,C2,2*%
%TO.N,Net-(C2-Pad2)*%
X76800000Y-116500000D03*
%TD*%
D14*
%TO.P,R1,2*%
%TO.N,Net-(C2-Pad2)*%
X77300000Y-120210000D03*
D13*
%TO.P,R1,1*%
%TO.N,Net-(R1-Pad1)*%
X77300000Y-122750000D03*
%TD*%
D15*
%TO.P,SW1,2*%
%TO.N,Net-(C2-Pad2)*%
X83800000Y-127000000D03*
%TO.P,SW1,1*%
%TO.N,Net-(SW1-Pad1)*%
X83800000Y-131500000D03*
%TO.P,SW1,2*%
%TO.N,Net-(C2-Pad2)*%
X77300000Y-127000000D03*
%TO.P,SW1,1*%
%TO.N,Net-(SW1-Pad1)*%
X77300000Y-131500000D03*
%TD*%
D11*
%TO.P,J7,6*%
%TO.N,Net-(C2-Pad2)*%
X45010000Y-127100000D03*
%TO.P,J7,5*%
%TO.N,Net-(J7-Pad5)*%
X47550000Y-125830000D03*
%TO.P,J7,4*%
%TO.N,Net-(J7-Pad4)*%
X45010000Y-124560000D03*
%TO.P,J7,3*%
%TO.N,Net-(C2-Pad2)*%
X47550000Y-123290000D03*
%TO.P,J7,2*%
%TO.N,Net-(J7-Pad2)*%
X45010000Y-122020000D03*
D10*
%TO.P,J7,1*%
%TO.N,Net-(J7-Pad1)*%
X47550000Y-120750000D03*
%TD*%
D13*
%TO.P,R5,1*%
%TO.N,Net-(J7-Pad1)*%
X87300000Y-131500000D03*
D14*
%TO.P,R5,2*%
%TO.N,Net-(J7-Pad5)*%
X87300000Y-128960000D03*
%TD*%
D12*
%TO.P,J5,*%
%TO.N,*%
X89250000Y-106825000D03*
X89250000Y-99675000D03*
%TD*%
D13*
%TO.P,C2,2*%
%TO.N,Net-(C2-Pad2)*%
X76800000Y-96500000D03*
%TO.P,C2,1*%
%TO.N,+3V3*%
X81800000Y-96500000D03*
%TD*%
D10*
%TO.P,J7,1*%
%TO.N,Net-(J7-Pad1)*%
X47550000Y-100750000D03*
D11*
%TO.P,J7,2*%
%TO.N,Net-(J7-Pad2)*%
X45010000Y-102020000D03*
%TO.P,J7,3*%
%TO.N,Net-(C2-Pad2)*%
X47550000Y-103290000D03*
%TO.P,J7,4*%
%TO.N,Net-(J7-Pad4)*%
X45010000Y-104560000D03*
%TO.P,J7,5*%
%TO.N,Net-(J7-Pad5)*%
X47550000Y-105830000D03*
%TO.P,J7,6*%
%TO.N,Net-(C2-Pad2)*%
X45010000Y-107100000D03*
%TD*%
D13*
%TO.P,R1,1*%
%TO.N,Net-(R1-Pad1)*%
X77300000Y-102750000D03*
D14*
%TO.P,R1,2*%
%TO.N,Net-(C2-Pad2)*%
X77300000Y-100210000D03*
%TD*%
%TO.P,R5,2*%
%TO.N,Net-(J7-Pad5)*%
X87300000Y-108960000D03*
D13*
%TO.P,R5,1*%
%TO.N,Net-(J7-Pad1)*%
X87300000Y-111500000D03*
%TD*%
D15*
%TO.P,SW1,1*%
%TO.N,Net-(SW1-Pad1)*%
X77300000Y-111500000D03*
%TO.P,SW1,2*%
%TO.N,Net-(C2-Pad2)*%
X77300000Y-107000000D03*
%TO.P,SW1,1*%
%TO.N,Net-(SW1-Pad1)*%
X83800000Y-111500000D03*
%TO.P,SW1,2*%
%TO.N,Net-(C2-Pad2)*%
X83800000Y-107000000D03*
%TD*%
D11*
%TO.P,J7,6*%
%TO.N,Net-(C2-Pad2)*%
X45010000Y-87100000D03*
%TO.P,J7,5*%
%TO.N,Net-(J7-Pad5)*%
X47550000Y-85830000D03*
%TO.P,J7,4*%
%TO.N,Net-(J7-Pad4)*%
X45010000Y-84560000D03*
%TO.P,J7,3*%
%TO.N,Net-(C2-Pad2)*%
X47550000Y-83290000D03*
%TO.P,J7,2*%
%TO.N,Net-(J7-Pad2)*%
X45010000Y-82020000D03*
D10*
%TO.P,J7,1*%
%TO.N,Net-(J7-Pad1)*%
X47550000Y-80750000D03*
%TD*%
D13*
%TO.P,C2,1*%
%TO.N,+3V3*%
X81800000Y-76500000D03*
%TO.P,C2,2*%
%TO.N,Net-(C2-Pad2)*%
X76800000Y-76500000D03*
%TD*%
D12*
%TO.P,J5,*%
%TO.N,*%
X89250000Y-79675000D03*
X89250000Y-86825000D03*
%TD*%
D15*
%TO.P,SW1,2*%
%TO.N,Net-(C2-Pad2)*%
X83800000Y-87000000D03*
%TO.P,SW1,1*%
%TO.N,Net-(SW1-Pad1)*%
X83800000Y-91500000D03*
%TO.P,SW1,2*%
%TO.N,Net-(C2-Pad2)*%
X77300000Y-87000000D03*
%TO.P,SW1,1*%
%TO.N,Net-(SW1-Pad1)*%
X77300000Y-91500000D03*
%TD*%
D14*
%TO.P,R1,2*%
%TO.N,Net-(C2-Pad2)*%
X77300000Y-80210000D03*
D13*
%TO.P,R1,1*%
%TO.N,Net-(R1-Pad1)*%
X77300000Y-82750000D03*
%TD*%
%TO.P,R5,1*%
%TO.N,Net-(J7-Pad1)*%
X87300000Y-91500000D03*
D14*
%TO.P,R5,2*%
%TO.N,Net-(J7-Pad5)*%
X87300000Y-88960000D03*
%TD*%
D10*
%TO.P,J7,1*%
%TO.N,Net-(J7-Pad1)*%
X47550000Y-60750000D03*
D11*
%TO.P,J7,2*%
%TO.N,Net-(J7-Pad2)*%
X45010000Y-62020000D03*
%TO.P,J7,3*%
%TO.N,Net-(C2-Pad2)*%
X47550000Y-63290000D03*
%TO.P,J7,4*%
%TO.N,Net-(J7-Pad4)*%
X45010000Y-64560000D03*
%TO.P,J7,5*%
%TO.N,Net-(J7-Pad5)*%
X47550000Y-65830000D03*
%TO.P,J7,6*%
%TO.N,Net-(C2-Pad2)*%
X45010000Y-67100000D03*
%TD*%
D13*
%TO.P,R1,1*%
%TO.N,Net-(R1-Pad1)*%
X77300000Y-62750000D03*
D14*
%TO.P,R1,2*%
%TO.N,Net-(C2-Pad2)*%
X77300000Y-60210000D03*
%TD*%
D13*
%TO.P,C2,2*%
%TO.N,Net-(C2-Pad2)*%
X76800000Y-56500000D03*
%TO.P,C2,1*%
%TO.N,+3V3*%
X81800000Y-56500000D03*
%TD*%
D15*
%TO.P,SW1,1*%
%TO.N,Net-(SW1-Pad1)*%
X77300000Y-71500000D03*
%TO.P,SW1,2*%
%TO.N,Net-(C2-Pad2)*%
X77300000Y-67000000D03*
%TO.P,SW1,1*%
%TO.N,Net-(SW1-Pad1)*%
X83800000Y-71500000D03*
%TO.P,SW1,2*%
%TO.N,Net-(C2-Pad2)*%
X83800000Y-67000000D03*
%TD*%
D14*
%TO.P,R5,2*%
%TO.N,Net-(J7-Pad5)*%
X87300000Y-68960000D03*
D13*
%TO.P,R5,1*%
%TO.N,Net-(J7-Pad1)*%
X87300000Y-71500000D03*
%TD*%
D12*
%TO.P,J5,*%
%TO.N,*%
X89250000Y-66825000D03*
X89250000Y-59675000D03*
%TD*%
D13*
%TO.P,C2,1*%
%TO.N,+3V3*%
X81800000Y-36500000D03*
%TO.P,C2,2*%
%TO.N,Net-(C2-Pad2)*%
X76800000Y-36500000D03*
%TD*%
D12*
%TO.P,J5,*%
%TO.N,*%
X89250000Y-39675000D03*
X89250000Y-46825000D03*
%TD*%
D14*
%TO.P,R1,2*%
%TO.N,Net-(C2-Pad2)*%
X77300000Y-40210000D03*
D13*
%TO.P,R1,1*%
%TO.N,Net-(R1-Pad1)*%
X77300000Y-42750000D03*
%TD*%
%TO.P,R5,1*%
%TO.N,Net-(J7-Pad1)*%
X87300000Y-51500000D03*
D14*
%TO.P,R5,2*%
%TO.N,Net-(J7-Pad5)*%
X87300000Y-48960000D03*
%TD*%
D15*
%TO.P,SW1,2*%
%TO.N,Net-(C2-Pad2)*%
X83800000Y-47000000D03*
%TO.P,SW1,1*%
%TO.N,Net-(SW1-Pad1)*%
X83800000Y-51500000D03*
%TO.P,SW1,2*%
%TO.N,Net-(C2-Pad2)*%
X77300000Y-47000000D03*
%TO.P,SW1,1*%
%TO.N,Net-(SW1-Pad1)*%
X77300000Y-51500000D03*
%TD*%
D11*
%TO.P,J7,6*%
%TO.N,Net-(C2-Pad2)*%
X45010000Y-47100000D03*
%TO.P,J7,5*%
%TO.N,Net-(J7-Pad5)*%
X47550000Y-45830000D03*
%TO.P,J7,4*%
%TO.N,Net-(J7-Pad4)*%
X45010000Y-44560000D03*
%TO.P,J7,3*%
%TO.N,Net-(C2-Pad2)*%
X47550000Y-43290000D03*
%TO.P,J7,2*%
%TO.N,Net-(J7-Pad2)*%
X45010000Y-42020000D03*
D10*
%TO.P,J7,1*%
%TO.N,Net-(J7-Pad1)*%
X47550000Y-40750000D03*
%TD*%
D16*
%TO.N,Net-(C2-Pad2)*%
X77300000Y-41155200D02*
X76129100Y-42326100D01*
X76129100Y-42326100D02*
X76129100Y-45829100D01*
X76129100Y-45829100D02*
X77300000Y-47000000D01*
X77300000Y-40210000D02*
X77300000Y-41155200D01*
X76800000Y-36500000D02*
X77300000Y-37000000D01*
X77300000Y-37000000D02*
X77300000Y-40210000D01*
X47550000Y-43290000D02*
X47550000Y-43925100D01*
X47550000Y-43925100D02*
X45010000Y-46465100D01*
X45010000Y-46465100D02*
X45010000Y-47100000D01*
X77300000Y-60210000D02*
X77300000Y-61155200D01*
X45010000Y-66465100D02*
X45010000Y-67100000D01*
X77300000Y-57000000D02*
X77300000Y-60210000D01*
X77300000Y-61155200D02*
X76129100Y-62326100D01*
X76129100Y-65829100D02*
X77300000Y-67000000D01*
X47550000Y-63290000D02*
X47550000Y-63925100D01*
X76129100Y-62326100D02*
X76129100Y-65829100D01*
X47550000Y-63925100D02*
X45010000Y-66465100D01*
X76800000Y-56500000D02*
X77300000Y-57000000D01*
X77300000Y-77000000D02*
X77300000Y-80210000D01*
X76129100Y-85829100D02*
X77300000Y-87000000D01*
X47550000Y-83290000D02*
X47550000Y-83925100D01*
X76129100Y-82326100D02*
X76129100Y-85829100D01*
X45010000Y-86465100D02*
X45010000Y-87100000D01*
X77300000Y-81155200D02*
X76129100Y-82326100D01*
X47550000Y-83925100D02*
X45010000Y-86465100D01*
X76800000Y-76500000D02*
X77300000Y-77000000D01*
X77300000Y-80210000D02*
X77300000Y-81155200D01*
X76129100Y-105829100D02*
X77300000Y-107000000D01*
X77300000Y-97000000D02*
X77300000Y-100210000D01*
X47550000Y-103925100D02*
X45010000Y-106465100D01*
X47550000Y-103290000D02*
X47550000Y-103925100D01*
X45010000Y-106465100D02*
X45010000Y-107100000D01*
X77300000Y-100210000D02*
X77300000Y-101155200D01*
X77300000Y-101155200D02*
X76129100Y-102326100D01*
X76129100Y-102326100D02*
X76129100Y-105829100D01*
X76800000Y-96500000D02*
X77300000Y-97000000D01*
X45010000Y-126465100D02*
X45010000Y-127100000D01*
X77300000Y-120210000D02*
X77300000Y-121155200D01*
X47550000Y-123290000D02*
X47550000Y-123925100D01*
X77300000Y-117000000D02*
X77300000Y-120210000D01*
X76129100Y-125829100D02*
X77300000Y-127000000D01*
X47550000Y-123925100D02*
X45010000Y-126465100D01*
X77300000Y-121155200D02*
X76129100Y-122326100D01*
X76129100Y-122326100D02*
X76129100Y-125829100D01*
X76800000Y-116500000D02*
X77300000Y-117000000D01*
X127300000Y-57000000D02*
X127300000Y-60210000D01*
X126129100Y-65829100D02*
X127300000Y-67000000D01*
X97550000Y-63290000D02*
X97550000Y-63925100D01*
X126129100Y-62326100D02*
X126129100Y-65829100D01*
X95010000Y-66465100D02*
X95010000Y-67100000D01*
X127300000Y-61155200D02*
X126129100Y-62326100D01*
X97550000Y-63925100D02*
X95010000Y-66465100D01*
X126800000Y-56500000D02*
X127300000Y-57000000D01*
X127300000Y-60210000D02*
X127300000Y-61155200D01*
X127300000Y-40210000D02*
X127300000Y-41155200D01*
X95010000Y-46465100D02*
X95010000Y-47100000D01*
X127300000Y-37000000D02*
X127300000Y-40210000D01*
X127300000Y-41155200D02*
X126129100Y-42326100D01*
X126129100Y-45829100D02*
X127300000Y-47000000D01*
X97550000Y-43290000D02*
X97550000Y-43925100D01*
X126129100Y-42326100D02*
X126129100Y-45829100D01*
X97550000Y-43925100D02*
X95010000Y-46465100D01*
X126800000Y-36500000D02*
X127300000Y-37000000D01*
X95010000Y-106465100D02*
X95010000Y-107100000D01*
X127300000Y-100210000D02*
X127300000Y-101155200D01*
X97550000Y-103290000D02*
X97550000Y-103925100D01*
X127300000Y-97000000D02*
X127300000Y-100210000D01*
X126129100Y-105829100D02*
X127300000Y-107000000D01*
X97550000Y-103925100D02*
X95010000Y-106465100D01*
X127300000Y-101155200D02*
X126129100Y-102326100D01*
X126129100Y-102326100D02*
X126129100Y-105829100D01*
X95010000Y-126465100D02*
X95010000Y-127100000D01*
X97550000Y-123290000D02*
X97550000Y-123925100D01*
X126800000Y-96500000D02*
X127300000Y-97000000D01*
X127300000Y-120210000D02*
X127300000Y-121155200D01*
X126129100Y-125829100D02*
X127300000Y-127000000D01*
X127300000Y-121155200D02*
X126129100Y-122326100D01*
X127300000Y-117000000D02*
X127300000Y-120210000D01*
X97550000Y-123925100D02*
X95010000Y-126465100D01*
X126129100Y-122326100D02*
X126129100Y-125829100D01*
X126800000Y-116500000D02*
X127300000Y-117000000D01*
X126129100Y-85829100D02*
X127300000Y-87000000D01*
X127300000Y-77000000D02*
X127300000Y-80210000D01*
X97550000Y-83925100D02*
X95010000Y-86465100D01*
X97550000Y-83290000D02*
X97550000Y-83925100D01*
X95010000Y-86465100D02*
X95010000Y-87100000D01*
X127300000Y-80210000D02*
X127300000Y-81155200D01*
X127300000Y-81155200D02*
X126129100Y-82326100D01*
X126129100Y-82326100D02*
X126129100Y-85829100D01*
X126800000Y-76500000D02*
X127300000Y-77000000D01*
%TO.N,Net-(J7-Pad1)*%
X47550000Y-40750000D02*
X48635300Y-40750000D01*
X87300000Y-51500000D02*
X85050000Y-49250000D01*
X85050000Y-49250000D02*
X57135300Y-49250000D01*
X57135300Y-49250000D02*
X48635300Y-40750000D01*
X47550000Y-60750000D02*
X48635300Y-60750000D01*
X87300000Y-71500000D02*
X85050000Y-69250000D01*
X85050000Y-69250000D02*
X57135300Y-69250000D01*
X57135300Y-69250000D02*
X48635300Y-60750000D01*
X57135300Y-89250000D02*
X48635300Y-80750000D01*
X85050000Y-89250000D02*
X57135300Y-89250000D01*
X87300000Y-91500000D02*
X85050000Y-89250000D01*
X47550000Y-80750000D02*
X48635300Y-80750000D01*
X57135300Y-109250000D02*
X48635300Y-100750000D01*
X85050000Y-109250000D02*
X57135300Y-109250000D01*
X47550000Y-100750000D02*
X48635300Y-100750000D01*
X87300000Y-111500000D02*
X85050000Y-109250000D01*
X87300000Y-131500000D02*
X85050000Y-129250000D01*
X85050000Y-129250000D02*
X57135300Y-129250000D01*
X57135300Y-129250000D02*
X48635300Y-120750000D01*
X47550000Y-120750000D02*
X48635300Y-120750000D01*
X107135300Y-69250000D02*
X98635300Y-60750000D01*
X135050000Y-69250000D02*
X107135300Y-69250000D01*
X137300000Y-71500000D02*
X135050000Y-69250000D01*
X97550000Y-60750000D02*
X98635300Y-60750000D01*
X97550000Y-40750000D02*
X98635300Y-40750000D01*
X137300000Y-51500000D02*
X135050000Y-49250000D01*
X135050000Y-49250000D02*
X107135300Y-49250000D01*
X107135300Y-49250000D02*
X98635300Y-40750000D01*
X137300000Y-111500000D02*
X135050000Y-109250000D01*
X135050000Y-109250000D02*
X107135300Y-109250000D01*
X107135300Y-109250000D02*
X98635300Y-100750000D01*
X97550000Y-100750000D02*
X98635300Y-100750000D01*
X137300000Y-131500000D02*
X135050000Y-129250000D01*
X97550000Y-120750000D02*
X98635300Y-120750000D01*
X107135300Y-129250000D02*
X98635300Y-120750000D01*
X135050000Y-129250000D02*
X107135300Y-129250000D01*
X107135300Y-89250000D02*
X98635300Y-80750000D01*
X135050000Y-89250000D02*
X107135300Y-89250000D01*
X97550000Y-80750000D02*
X98635300Y-80750000D01*
X137300000Y-91500000D02*
X135050000Y-89250000D01*
%TD*%
M02*
