%TF.GenerationSoftware,KiCad,Pcbnew,(5.1.9)-1*%
%TF.CreationDate,2021-04-07T06:54:24+02:00*%
%TF.ProjectId,IM350_AM550_5V_multi,494d3335-305f-4414-9d35-35305f35565f,rev?*%
%TF.SameCoordinates,Original*%
%TF.FileFunction,Soldermask,Top*%
%TF.FilePolarity,Negative*%
%FSLAX46Y46*%
G04 Gerber Fmt 4.6, Leading zero omitted, Abs format (unit mm)*
G04 Created by KiCad (PCBNEW (5.1.9)-1) date 2021-04-07 06:54:24*
%MOMM*%
%LPD*%
G01*
G04 APERTURE LIST*
%ADD10R,1.520000X1.520000*%
%ADD11C,1.520000*%
%ADD12O,1.900000X1.050000*%
%ADD13R,2.800000X0.600000*%
%ADD14C,1.600000*%
%ADD15O,1.600000X1.600000*%
%ADD16C,2.000000*%
%ADD17R,1.000000X2.500000*%
%ADD18R,1.800000X1.000000*%
%ADD19R,1.300000X0.800000*%
G04 APERTURE END LIST*
%TO.C,P3*%
G36*
G01*
X133790000Y-119410000D02*
X133790000Y-119090000D01*
G75*
G02*
X133950000Y-118930000I160000J0D01*
G01*
X134345000Y-118930000D01*
G75*
G02*
X134505000Y-119090000I0J-160000D01*
G01*
X134505000Y-119410000D01*
G75*
G02*
X134345000Y-119570000I-160000J0D01*
G01*
X133950000Y-119570000D01*
G75*
G02*
X133790000Y-119410000I0J160000D01*
G01*
G37*
G36*
G01*
X132595000Y-119410000D02*
X132595000Y-119090000D01*
G75*
G02*
X132755000Y-118930000I160000J0D01*
G01*
X133150000Y-118930000D01*
G75*
G02*
X133310000Y-119090000I0J-160000D01*
G01*
X133310000Y-119410000D01*
G75*
G02*
X133150000Y-119570000I-160000J0D01*
G01*
X132755000Y-119570000D01*
G75*
G02*
X132595000Y-119410000I0J160000D01*
G01*
G37*
%TD*%
D10*
%TO.C,J7*%
X97550000Y-120750000D03*
D11*
X95010000Y-122020000D03*
X97550000Y-123290000D03*
X95010000Y-124560000D03*
X97550000Y-125830000D03*
X95010000Y-127100000D03*
%TD*%
%TO.C,P3*%
G36*
G01*
X132595000Y-99410000D02*
X132595000Y-99090000D01*
G75*
G02*
X132755000Y-98930000I160000J0D01*
G01*
X133150000Y-98930000D01*
G75*
G02*
X133310000Y-99090000I0J-160000D01*
G01*
X133310000Y-99410000D01*
G75*
G02*
X133150000Y-99570000I-160000J0D01*
G01*
X132755000Y-99570000D01*
G75*
G02*
X132595000Y-99410000I0J160000D01*
G01*
G37*
G36*
G01*
X133790000Y-99410000D02*
X133790000Y-99090000D01*
G75*
G02*
X133950000Y-98930000I160000J0D01*
G01*
X134345000Y-98930000D01*
G75*
G02*
X134505000Y-99090000I0J-160000D01*
G01*
X134505000Y-99410000D01*
G75*
G02*
X134345000Y-99570000I-160000J0D01*
G01*
X133950000Y-99570000D01*
G75*
G02*
X133790000Y-99410000I0J160000D01*
G01*
G37*
%TD*%
D12*
%TO.C,J5*%
X139250000Y-99675000D03*
X139250000Y-106825000D03*
D13*
X132900000Y-101950000D03*
X132900000Y-104550000D03*
%TD*%
D14*
%TO.C,C2*%
X131800000Y-96500000D03*
X126800000Y-96500000D03*
%TD*%
%TO.C,P4*%
G36*
G01*
X130790000Y-99410000D02*
X130790000Y-99090000D01*
G75*
G02*
X130950000Y-98930000I160000J0D01*
G01*
X131345000Y-98930000D01*
G75*
G02*
X131505000Y-99090000I0J-160000D01*
G01*
X131505000Y-99410000D01*
G75*
G02*
X131345000Y-99570000I-160000J0D01*
G01*
X130950000Y-99570000D01*
G75*
G02*
X130790000Y-99410000I0J160000D01*
G01*
G37*
G36*
G01*
X129595000Y-99410000D02*
X129595000Y-99090000D01*
G75*
G02*
X129755000Y-98930000I160000J0D01*
G01*
X130150000Y-98930000D01*
G75*
G02*
X130310000Y-99090000I0J-160000D01*
G01*
X130310000Y-99410000D01*
G75*
G02*
X130150000Y-99570000I-160000J0D01*
G01*
X129755000Y-99570000D01*
G75*
G02*
X129595000Y-99410000I0J160000D01*
G01*
G37*
%TD*%
D15*
%TO.C,R1*%
X127300000Y-100210000D03*
D14*
X127300000Y-102750000D03*
%TD*%
D16*
%TO.C,SW1*%
X127300000Y-131500000D03*
X127300000Y-127000000D03*
X133800000Y-131500000D03*
X133800000Y-127000000D03*
%TD*%
D14*
%TO.C,R1*%
X127300000Y-122750000D03*
D15*
X127300000Y-120210000D03*
%TD*%
D14*
%TO.C,C2*%
X126800000Y-116500000D03*
X131800000Y-116500000D03*
%TD*%
D16*
%TO.C,SW1*%
X133800000Y-107000000D03*
X133800000Y-111500000D03*
X127300000Y-107000000D03*
X127300000Y-111500000D03*
%TD*%
D17*
%TO.C,U2*%
X108800000Y-111600000D03*
X110800000Y-111600000D03*
X112800000Y-111600000D03*
X114800000Y-111600000D03*
X116800000Y-111600000D03*
X118800000Y-111600000D03*
X120800000Y-111600000D03*
X122800000Y-111600000D03*
D18*
X124300000Y-109000000D03*
X124300000Y-107000000D03*
X124300000Y-105000000D03*
X124300000Y-103000000D03*
X124300000Y-101000000D03*
X124300000Y-99000000D03*
D17*
X122800000Y-96400000D03*
X120800000Y-96400000D03*
X118800000Y-96400000D03*
X116800000Y-96400000D03*
X114800000Y-96400000D03*
X112800000Y-96400000D03*
X110800000Y-96400000D03*
X108800000Y-96400000D03*
%TD*%
%TO.C,P4*%
G36*
G01*
X129595000Y-119410000D02*
X129595000Y-119090000D01*
G75*
G02*
X129755000Y-118930000I160000J0D01*
G01*
X130150000Y-118930000D01*
G75*
G02*
X130310000Y-119090000I0J-160000D01*
G01*
X130310000Y-119410000D01*
G75*
G02*
X130150000Y-119570000I-160000J0D01*
G01*
X129755000Y-119570000D01*
G75*
G02*
X129595000Y-119410000I0J160000D01*
G01*
G37*
G36*
G01*
X130790000Y-119410000D02*
X130790000Y-119090000D01*
G75*
G02*
X130950000Y-118930000I160000J0D01*
G01*
X131345000Y-118930000D01*
G75*
G02*
X131505000Y-119090000I0J-160000D01*
G01*
X131505000Y-119410000D01*
G75*
G02*
X131345000Y-119570000I-160000J0D01*
G01*
X130950000Y-119570000D01*
G75*
G02*
X130790000Y-119410000I0J160000D01*
G01*
G37*
%TD*%
D15*
%TO.C,R5*%
X137300000Y-128960000D03*
D14*
X137300000Y-131500000D03*
%TD*%
D19*
%TO.C,U1*%
X136750000Y-97700000D03*
X136750000Y-95800000D03*
X134350000Y-96750000D03*
%TD*%
%TO.C,U1*%
X134350000Y-116750000D03*
X136750000Y-115800000D03*
X136750000Y-117700000D03*
%TD*%
D11*
%TO.C,J7*%
X95010000Y-107100000D03*
X97550000Y-105830000D03*
X95010000Y-104560000D03*
X97550000Y-103290000D03*
X95010000Y-102020000D03*
D10*
X97550000Y-100750000D03*
%TD*%
D13*
%TO.C,J5*%
X132900000Y-124550000D03*
X132900000Y-121950000D03*
D12*
X139250000Y-126825000D03*
X139250000Y-119675000D03*
%TD*%
D17*
%TO.C,U2*%
X108800000Y-116400000D03*
X110800000Y-116400000D03*
X112800000Y-116400000D03*
X114800000Y-116400000D03*
X116800000Y-116400000D03*
X118800000Y-116400000D03*
X120800000Y-116400000D03*
X122800000Y-116400000D03*
D18*
X124300000Y-119000000D03*
X124300000Y-121000000D03*
X124300000Y-123000000D03*
X124300000Y-125000000D03*
X124300000Y-127000000D03*
X124300000Y-129000000D03*
D17*
X122800000Y-131600000D03*
X120800000Y-131600000D03*
X118800000Y-131600000D03*
X116800000Y-131600000D03*
X114800000Y-131600000D03*
X112800000Y-131600000D03*
X110800000Y-131600000D03*
X108800000Y-131600000D03*
%TD*%
D14*
%TO.C,R5*%
X137300000Y-111500000D03*
D15*
X137300000Y-108960000D03*
%TD*%
D13*
%TO.C,J5*%
X132900000Y-84550000D03*
X132900000Y-81950000D03*
D12*
X139250000Y-86825000D03*
X139250000Y-79675000D03*
%TD*%
D14*
%TO.C,C2*%
X126800000Y-76500000D03*
X131800000Y-76500000D03*
%TD*%
%TO.C,P4*%
G36*
G01*
X129595000Y-79410000D02*
X129595000Y-79090000D01*
G75*
G02*
X129755000Y-78930000I160000J0D01*
G01*
X130150000Y-78930000D01*
G75*
G02*
X130310000Y-79090000I0J-160000D01*
G01*
X130310000Y-79410000D01*
G75*
G02*
X130150000Y-79570000I-160000J0D01*
G01*
X129755000Y-79570000D01*
G75*
G02*
X129595000Y-79410000I0J160000D01*
G01*
G37*
G36*
G01*
X130790000Y-79410000D02*
X130790000Y-79090000D01*
G75*
G02*
X130950000Y-78930000I160000J0D01*
G01*
X131345000Y-78930000D01*
G75*
G02*
X131505000Y-79090000I0J-160000D01*
G01*
X131505000Y-79410000D01*
G75*
G02*
X131345000Y-79570000I-160000J0D01*
G01*
X130950000Y-79570000D01*
G75*
G02*
X130790000Y-79410000I0J160000D01*
G01*
G37*
%TD*%
D17*
%TO.C,U2*%
X108800000Y-76400000D03*
X110800000Y-76400000D03*
X112800000Y-76400000D03*
X114800000Y-76400000D03*
X116800000Y-76400000D03*
X118800000Y-76400000D03*
X120800000Y-76400000D03*
X122800000Y-76400000D03*
D18*
X124300000Y-79000000D03*
X124300000Y-81000000D03*
X124300000Y-83000000D03*
X124300000Y-85000000D03*
X124300000Y-87000000D03*
X124300000Y-89000000D03*
D17*
X122800000Y-91600000D03*
X120800000Y-91600000D03*
X118800000Y-91600000D03*
X116800000Y-91600000D03*
X114800000Y-91600000D03*
X112800000Y-91600000D03*
X110800000Y-91600000D03*
X108800000Y-91600000D03*
%TD*%
D10*
%TO.C,J7*%
X97550000Y-80750000D03*
D11*
X95010000Y-82020000D03*
X97550000Y-83290000D03*
X95010000Y-84560000D03*
X97550000Y-85830000D03*
X95010000Y-87100000D03*
%TD*%
D19*
%TO.C,U1*%
X134350000Y-76750000D03*
X136750000Y-75800000D03*
X136750000Y-77700000D03*
%TD*%
%TO.C,P3*%
G36*
G01*
X133790000Y-79410000D02*
X133790000Y-79090000D01*
G75*
G02*
X133950000Y-78930000I160000J0D01*
G01*
X134345000Y-78930000D01*
G75*
G02*
X134505000Y-79090000I0J-160000D01*
G01*
X134505000Y-79410000D01*
G75*
G02*
X134345000Y-79570000I-160000J0D01*
G01*
X133950000Y-79570000D01*
G75*
G02*
X133790000Y-79410000I0J160000D01*
G01*
G37*
G36*
G01*
X132595000Y-79410000D02*
X132595000Y-79090000D01*
G75*
G02*
X132755000Y-78930000I160000J0D01*
G01*
X133150000Y-78930000D01*
G75*
G02*
X133310000Y-79090000I0J-160000D01*
G01*
X133310000Y-79410000D01*
G75*
G02*
X133150000Y-79570000I-160000J0D01*
G01*
X132755000Y-79570000D01*
G75*
G02*
X132595000Y-79410000I0J160000D01*
G01*
G37*
%TD*%
D14*
%TO.C,R1*%
X127300000Y-82750000D03*
D15*
X127300000Y-80210000D03*
%TD*%
%TO.C,R5*%
X137300000Y-88960000D03*
D14*
X137300000Y-91500000D03*
%TD*%
D16*
%TO.C,SW1*%
X127300000Y-91500000D03*
X127300000Y-87000000D03*
X133800000Y-91500000D03*
X133800000Y-87000000D03*
%TD*%
D11*
%TO.C,J7*%
X95010000Y-67100000D03*
X97550000Y-65830000D03*
X95010000Y-64560000D03*
X97550000Y-63290000D03*
X95010000Y-62020000D03*
D10*
X97550000Y-60750000D03*
%TD*%
%TO.C,P4*%
G36*
G01*
X130790000Y-59410000D02*
X130790000Y-59090000D01*
G75*
G02*
X130950000Y-58930000I160000J0D01*
G01*
X131345000Y-58930000D01*
G75*
G02*
X131505000Y-59090000I0J-160000D01*
G01*
X131505000Y-59410000D01*
G75*
G02*
X131345000Y-59570000I-160000J0D01*
G01*
X130950000Y-59570000D01*
G75*
G02*
X130790000Y-59410000I0J160000D01*
G01*
G37*
G36*
G01*
X129595000Y-59410000D02*
X129595000Y-59090000D01*
G75*
G02*
X129755000Y-58930000I160000J0D01*
G01*
X130150000Y-58930000D01*
G75*
G02*
X130310000Y-59090000I0J-160000D01*
G01*
X130310000Y-59410000D01*
G75*
G02*
X130150000Y-59570000I-160000J0D01*
G01*
X129755000Y-59570000D01*
G75*
G02*
X129595000Y-59410000I0J160000D01*
G01*
G37*
%TD*%
D17*
%TO.C,U2*%
X108800000Y-71600000D03*
X110800000Y-71600000D03*
X112800000Y-71600000D03*
X114800000Y-71600000D03*
X116800000Y-71600000D03*
X118800000Y-71600000D03*
X120800000Y-71600000D03*
X122800000Y-71600000D03*
D18*
X124300000Y-69000000D03*
X124300000Y-67000000D03*
X124300000Y-65000000D03*
X124300000Y-63000000D03*
X124300000Y-61000000D03*
X124300000Y-59000000D03*
D17*
X122800000Y-56400000D03*
X120800000Y-56400000D03*
X118800000Y-56400000D03*
X116800000Y-56400000D03*
X114800000Y-56400000D03*
X112800000Y-56400000D03*
X110800000Y-56400000D03*
X108800000Y-56400000D03*
%TD*%
D19*
%TO.C,U1*%
X136750000Y-57700000D03*
X136750000Y-55800000D03*
X134350000Y-56750000D03*
%TD*%
%TO.C,P3*%
G36*
G01*
X132595000Y-59410000D02*
X132595000Y-59090000D01*
G75*
G02*
X132755000Y-58930000I160000J0D01*
G01*
X133150000Y-58930000D01*
G75*
G02*
X133310000Y-59090000I0J-160000D01*
G01*
X133310000Y-59410000D01*
G75*
G02*
X133150000Y-59570000I-160000J0D01*
G01*
X132755000Y-59570000D01*
G75*
G02*
X132595000Y-59410000I0J160000D01*
G01*
G37*
G36*
G01*
X133790000Y-59410000D02*
X133790000Y-59090000D01*
G75*
G02*
X133950000Y-58930000I160000J0D01*
G01*
X134345000Y-58930000D01*
G75*
G02*
X134505000Y-59090000I0J-160000D01*
G01*
X134505000Y-59410000D01*
G75*
G02*
X134345000Y-59570000I-160000J0D01*
G01*
X133950000Y-59570000D01*
G75*
G02*
X133790000Y-59410000I0J160000D01*
G01*
G37*
%TD*%
D14*
%TO.C,C2*%
X131800000Y-56500000D03*
X126800000Y-56500000D03*
%TD*%
D12*
%TO.C,J5*%
X139250000Y-59675000D03*
X139250000Y-66825000D03*
D13*
X132900000Y-61950000D03*
X132900000Y-64550000D03*
%TD*%
D10*
%TO.C,J7*%
X97550000Y-40750000D03*
D11*
X95010000Y-42020000D03*
X97550000Y-43290000D03*
X95010000Y-44560000D03*
X97550000Y-45830000D03*
X95010000Y-47100000D03*
%TD*%
D16*
%TO.C,SW1*%
X133800000Y-67000000D03*
X133800000Y-71500000D03*
X127300000Y-67000000D03*
X127300000Y-71500000D03*
%TD*%
D15*
%TO.C,R1*%
X127300000Y-60210000D03*
D14*
X127300000Y-62750000D03*
%TD*%
%TO.C,R5*%
X137300000Y-71500000D03*
D15*
X137300000Y-68960000D03*
%TD*%
D17*
%TO.C,U2*%
X108800000Y-36400000D03*
X110800000Y-36400000D03*
X112800000Y-36400000D03*
X114800000Y-36400000D03*
X116800000Y-36400000D03*
X118800000Y-36400000D03*
X120800000Y-36400000D03*
X122800000Y-36400000D03*
D18*
X124300000Y-39000000D03*
X124300000Y-41000000D03*
X124300000Y-43000000D03*
X124300000Y-45000000D03*
X124300000Y-47000000D03*
X124300000Y-49000000D03*
D17*
X122800000Y-51600000D03*
X120800000Y-51600000D03*
X118800000Y-51600000D03*
X116800000Y-51600000D03*
X114800000Y-51600000D03*
X112800000Y-51600000D03*
X110800000Y-51600000D03*
X108800000Y-51600000D03*
%TD*%
D19*
%TO.C,U1*%
X134350000Y-36750000D03*
X136750000Y-35800000D03*
X136750000Y-37700000D03*
%TD*%
%TO.C,P3*%
G36*
G01*
X133790000Y-39410000D02*
X133790000Y-39090000D01*
G75*
G02*
X133950000Y-38930000I160000J0D01*
G01*
X134345000Y-38930000D01*
G75*
G02*
X134505000Y-39090000I0J-160000D01*
G01*
X134505000Y-39410000D01*
G75*
G02*
X134345000Y-39570000I-160000J0D01*
G01*
X133950000Y-39570000D01*
G75*
G02*
X133790000Y-39410000I0J160000D01*
G01*
G37*
G36*
G01*
X132595000Y-39410000D02*
X132595000Y-39090000D01*
G75*
G02*
X132755000Y-38930000I160000J0D01*
G01*
X133150000Y-38930000D01*
G75*
G02*
X133310000Y-39090000I0J-160000D01*
G01*
X133310000Y-39410000D01*
G75*
G02*
X133150000Y-39570000I-160000J0D01*
G01*
X132755000Y-39570000D01*
G75*
G02*
X132595000Y-39410000I0J160000D01*
G01*
G37*
%TD*%
D14*
%TO.C,R1*%
X127300000Y-42750000D03*
D15*
X127300000Y-40210000D03*
%TD*%
D14*
%TO.C,C2*%
X126800000Y-36500000D03*
X131800000Y-36500000D03*
%TD*%
%TO.C,P4*%
G36*
G01*
X129595000Y-39410000D02*
X129595000Y-39090000D01*
G75*
G02*
X129755000Y-38930000I160000J0D01*
G01*
X130150000Y-38930000D01*
G75*
G02*
X130310000Y-39090000I0J-160000D01*
G01*
X130310000Y-39410000D01*
G75*
G02*
X130150000Y-39570000I-160000J0D01*
G01*
X129755000Y-39570000D01*
G75*
G02*
X129595000Y-39410000I0J160000D01*
G01*
G37*
G36*
G01*
X130790000Y-39410000D02*
X130790000Y-39090000D01*
G75*
G02*
X130950000Y-38930000I160000J0D01*
G01*
X131345000Y-38930000D01*
G75*
G02*
X131505000Y-39090000I0J-160000D01*
G01*
X131505000Y-39410000D01*
G75*
G02*
X131345000Y-39570000I-160000J0D01*
G01*
X130950000Y-39570000D01*
G75*
G02*
X130790000Y-39410000I0J160000D01*
G01*
G37*
%TD*%
D16*
%TO.C,SW1*%
X127300000Y-51500000D03*
X127300000Y-47000000D03*
X133800000Y-51500000D03*
X133800000Y-47000000D03*
%TD*%
D15*
%TO.C,R5*%
X137300000Y-48960000D03*
D14*
X137300000Y-51500000D03*
%TD*%
D13*
%TO.C,J5*%
X132900000Y-44550000D03*
X132900000Y-41950000D03*
D12*
X139250000Y-46825000D03*
X139250000Y-39675000D03*
%TD*%
%TO.C,P3*%
G36*
G01*
X82595000Y-119410000D02*
X82595000Y-119090000D01*
G75*
G02*
X82755000Y-118930000I160000J0D01*
G01*
X83150000Y-118930000D01*
G75*
G02*
X83310000Y-119090000I0J-160000D01*
G01*
X83310000Y-119410000D01*
G75*
G02*
X83150000Y-119570000I-160000J0D01*
G01*
X82755000Y-119570000D01*
G75*
G02*
X82595000Y-119410000I0J160000D01*
G01*
G37*
G36*
G01*
X83790000Y-119410000D02*
X83790000Y-119090000D01*
G75*
G02*
X83950000Y-118930000I160000J0D01*
G01*
X84345000Y-118930000D01*
G75*
G02*
X84505000Y-119090000I0J-160000D01*
G01*
X84505000Y-119410000D01*
G75*
G02*
X84345000Y-119570000I-160000J0D01*
G01*
X83950000Y-119570000D01*
G75*
G02*
X83790000Y-119410000I0J160000D01*
G01*
G37*
%TD*%
%TO.C,J5*%
X89250000Y-119675000D03*
X89250000Y-126825000D03*
D13*
X82900000Y-121950000D03*
X82900000Y-124550000D03*
%TD*%
D14*
%TO.C,C2*%
X81800000Y-116500000D03*
X76800000Y-116500000D03*
%TD*%
%TO.C,P4*%
G36*
G01*
X80790000Y-119410000D02*
X80790000Y-119090000D01*
G75*
G02*
X80950000Y-118930000I160000J0D01*
G01*
X81345000Y-118930000D01*
G75*
G02*
X81505000Y-119090000I0J-160000D01*
G01*
X81505000Y-119410000D01*
G75*
G02*
X81345000Y-119570000I-160000J0D01*
G01*
X80950000Y-119570000D01*
G75*
G02*
X80790000Y-119410000I0J160000D01*
G01*
G37*
G36*
G01*
X79595000Y-119410000D02*
X79595000Y-119090000D01*
G75*
G02*
X79755000Y-118930000I160000J0D01*
G01*
X80150000Y-118930000D01*
G75*
G02*
X80310000Y-119090000I0J-160000D01*
G01*
X80310000Y-119410000D01*
G75*
G02*
X80150000Y-119570000I-160000J0D01*
G01*
X79755000Y-119570000D01*
G75*
G02*
X79595000Y-119410000I0J160000D01*
G01*
G37*
%TD*%
D15*
%TO.C,R1*%
X77300000Y-120210000D03*
D14*
X77300000Y-122750000D03*
%TD*%
D16*
%TO.C,SW1*%
X83800000Y-127000000D03*
X83800000Y-131500000D03*
X77300000Y-127000000D03*
X77300000Y-131500000D03*
%TD*%
D17*
%TO.C,U2*%
X58800000Y-131600000D03*
X60800000Y-131600000D03*
X62800000Y-131600000D03*
X64800000Y-131600000D03*
X66800000Y-131600000D03*
X68800000Y-131600000D03*
X70800000Y-131600000D03*
X72800000Y-131600000D03*
D18*
X74300000Y-129000000D03*
X74300000Y-127000000D03*
X74300000Y-125000000D03*
X74300000Y-123000000D03*
X74300000Y-121000000D03*
X74300000Y-119000000D03*
D17*
X72800000Y-116400000D03*
X70800000Y-116400000D03*
X68800000Y-116400000D03*
X66800000Y-116400000D03*
X64800000Y-116400000D03*
X62800000Y-116400000D03*
X60800000Y-116400000D03*
X58800000Y-116400000D03*
%TD*%
D19*
%TO.C,U1*%
X86750000Y-117700000D03*
X86750000Y-115800000D03*
X84350000Y-116750000D03*
%TD*%
D11*
%TO.C,J7*%
X45010000Y-127100000D03*
X47550000Y-125830000D03*
X45010000Y-124560000D03*
X47550000Y-123290000D03*
X45010000Y-122020000D03*
D10*
X47550000Y-120750000D03*
%TD*%
D14*
%TO.C,R5*%
X87300000Y-131500000D03*
D15*
X87300000Y-128960000D03*
%TD*%
D13*
%TO.C,J5*%
X82900000Y-104550000D03*
X82900000Y-101950000D03*
D12*
X89250000Y-106825000D03*
X89250000Y-99675000D03*
%TD*%
D14*
%TO.C,C2*%
X76800000Y-96500000D03*
X81800000Y-96500000D03*
%TD*%
%TO.C,P4*%
G36*
G01*
X79595000Y-99410000D02*
X79595000Y-99090000D01*
G75*
G02*
X79755000Y-98930000I160000J0D01*
G01*
X80150000Y-98930000D01*
G75*
G02*
X80310000Y-99090000I0J-160000D01*
G01*
X80310000Y-99410000D01*
G75*
G02*
X80150000Y-99570000I-160000J0D01*
G01*
X79755000Y-99570000D01*
G75*
G02*
X79595000Y-99410000I0J160000D01*
G01*
G37*
G36*
G01*
X80790000Y-99410000D02*
X80790000Y-99090000D01*
G75*
G02*
X80950000Y-98930000I160000J0D01*
G01*
X81345000Y-98930000D01*
G75*
G02*
X81505000Y-99090000I0J-160000D01*
G01*
X81505000Y-99410000D01*
G75*
G02*
X81345000Y-99570000I-160000J0D01*
G01*
X80950000Y-99570000D01*
G75*
G02*
X80790000Y-99410000I0J160000D01*
G01*
G37*
%TD*%
D17*
%TO.C,U2*%
X58800000Y-96400000D03*
X60800000Y-96400000D03*
X62800000Y-96400000D03*
X64800000Y-96400000D03*
X66800000Y-96400000D03*
X68800000Y-96400000D03*
X70800000Y-96400000D03*
X72800000Y-96400000D03*
D18*
X74300000Y-99000000D03*
X74300000Y-101000000D03*
X74300000Y-103000000D03*
X74300000Y-105000000D03*
X74300000Y-107000000D03*
X74300000Y-109000000D03*
D17*
X72800000Y-111600000D03*
X70800000Y-111600000D03*
X68800000Y-111600000D03*
X66800000Y-111600000D03*
X64800000Y-111600000D03*
X62800000Y-111600000D03*
X60800000Y-111600000D03*
X58800000Y-111600000D03*
%TD*%
D10*
%TO.C,J7*%
X47550000Y-100750000D03*
D11*
X45010000Y-102020000D03*
X47550000Y-103290000D03*
X45010000Y-104560000D03*
X47550000Y-105830000D03*
X45010000Y-107100000D03*
%TD*%
D19*
%TO.C,U1*%
X84350000Y-96750000D03*
X86750000Y-95800000D03*
X86750000Y-97700000D03*
%TD*%
%TO.C,P3*%
G36*
G01*
X83790000Y-99410000D02*
X83790000Y-99090000D01*
G75*
G02*
X83950000Y-98930000I160000J0D01*
G01*
X84345000Y-98930000D01*
G75*
G02*
X84505000Y-99090000I0J-160000D01*
G01*
X84505000Y-99410000D01*
G75*
G02*
X84345000Y-99570000I-160000J0D01*
G01*
X83950000Y-99570000D01*
G75*
G02*
X83790000Y-99410000I0J160000D01*
G01*
G37*
G36*
G01*
X82595000Y-99410000D02*
X82595000Y-99090000D01*
G75*
G02*
X82755000Y-98930000I160000J0D01*
G01*
X83150000Y-98930000D01*
G75*
G02*
X83310000Y-99090000I0J-160000D01*
G01*
X83310000Y-99410000D01*
G75*
G02*
X83150000Y-99570000I-160000J0D01*
G01*
X82755000Y-99570000D01*
G75*
G02*
X82595000Y-99410000I0J160000D01*
G01*
G37*
%TD*%
D14*
%TO.C,R1*%
X77300000Y-102750000D03*
D15*
X77300000Y-100210000D03*
%TD*%
%TO.C,R5*%
X87300000Y-108960000D03*
D14*
X87300000Y-111500000D03*
%TD*%
D16*
%TO.C,SW1*%
X77300000Y-111500000D03*
X77300000Y-107000000D03*
X83800000Y-111500000D03*
X83800000Y-107000000D03*
%TD*%
D11*
%TO.C,J7*%
X45010000Y-87100000D03*
X47550000Y-85830000D03*
X45010000Y-84560000D03*
X47550000Y-83290000D03*
X45010000Y-82020000D03*
D10*
X47550000Y-80750000D03*
%TD*%
%TO.C,P4*%
G36*
G01*
X80790000Y-79410000D02*
X80790000Y-79090000D01*
G75*
G02*
X80950000Y-78930000I160000J0D01*
G01*
X81345000Y-78930000D01*
G75*
G02*
X81505000Y-79090000I0J-160000D01*
G01*
X81505000Y-79410000D01*
G75*
G02*
X81345000Y-79570000I-160000J0D01*
G01*
X80950000Y-79570000D01*
G75*
G02*
X80790000Y-79410000I0J160000D01*
G01*
G37*
G36*
G01*
X79595000Y-79410000D02*
X79595000Y-79090000D01*
G75*
G02*
X79755000Y-78930000I160000J0D01*
G01*
X80150000Y-78930000D01*
G75*
G02*
X80310000Y-79090000I0J-160000D01*
G01*
X80310000Y-79410000D01*
G75*
G02*
X80150000Y-79570000I-160000J0D01*
G01*
X79755000Y-79570000D01*
G75*
G02*
X79595000Y-79410000I0J160000D01*
G01*
G37*
%TD*%
D17*
%TO.C,U2*%
X58800000Y-91600000D03*
X60800000Y-91600000D03*
X62800000Y-91600000D03*
X64800000Y-91600000D03*
X66800000Y-91600000D03*
X68800000Y-91600000D03*
X70800000Y-91600000D03*
X72800000Y-91600000D03*
D18*
X74300000Y-89000000D03*
X74300000Y-87000000D03*
X74300000Y-85000000D03*
X74300000Y-83000000D03*
X74300000Y-81000000D03*
X74300000Y-79000000D03*
D17*
X72800000Y-76400000D03*
X70800000Y-76400000D03*
X68800000Y-76400000D03*
X66800000Y-76400000D03*
X64800000Y-76400000D03*
X62800000Y-76400000D03*
X60800000Y-76400000D03*
X58800000Y-76400000D03*
%TD*%
D19*
%TO.C,U1*%
X86750000Y-77700000D03*
X86750000Y-75800000D03*
X84350000Y-76750000D03*
%TD*%
%TO.C,P3*%
G36*
G01*
X82595000Y-79410000D02*
X82595000Y-79090000D01*
G75*
G02*
X82755000Y-78930000I160000J0D01*
G01*
X83150000Y-78930000D01*
G75*
G02*
X83310000Y-79090000I0J-160000D01*
G01*
X83310000Y-79410000D01*
G75*
G02*
X83150000Y-79570000I-160000J0D01*
G01*
X82755000Y-79570000D01*
G75*
G02*
X82595000Y-79410000I0J160000D01*
G01*
G37*
G36*
G01*
X83790000Y-79410000D02*
X83790000Y-79090000D01*
G75*
G02*
X83950000Y-78930000I160000J0D01*
G01*
X84345000Y-78930000D01*
G75*
G02*
X84505000Y-79090000I0J-160000D01*
G01*
X84505000Y-79410000D01*
G75*
G02*
X84345000Y-79570000I-160000J0D01*
G01*
X83950000Y-79570000D01*
G75*
G02*
X83790000Y-79410000I0J160000D01*
G01*
G37*
%TD*%
D14*
%TO.C,C2*%
X81800000Y-76500000D03*
X76800000Y-76500000D03*
%TD*%
D12*
%TO.C,J5*%
X89250000Y-79675000D03*
X89250000Y-86825000D03*
D13*
X82900000Y-81950000D03*
X82900000Y-84550000D03*
%TD*%
D16*
%TO.C,SW1*%
X83800000Y-87000000D03*
X83800000Y-91500000D03*
X77300000Y-87000000D03*
X77300000Y-91500000D03*
%TD*%
D15*
%TO.C,R1*%
X77300000Y-80210000D03*
D14*
X77300000Y-82750000D03*
%TD*%
%TO.C,R5*%
X87300000Y-91500000D03*
D15*
X87300000Y-88960000D03*
%TD*%
D10*
%TO.C,J7*%
X47550000Y-60750000D03*
D11*
X45010000Y-62020000D03*
X47550000Y-63290000D03*
X45010000Y-64560000D03*
X47550000Y-65830000D03*
X45010000Y-67100000D03*
%TD*%
D17*
%TO.C,U2*%
X58800000Y-56400000D03*
X60800000Y-56400000D03*
X62800000Y-56400000D03*
X64800000Y-56400000D03*
X66800000Y-56400000D03*
X68800000Y-56400000D03*
X70800000Y-56400000D03*
X72800000Y-56400000D03*
D18*
X74300000Y-59000000D03*
X74300000Y-61000000D03*
X74300000Y-63000000D03*
X74300000Y-65000000D03*
X74300000Y-67000000D03*
X74300000Y-69000000D03*
D17*
X72800000Y-71600000D03*
X70800000Y-71600000D03*
X68800000Y-71600000D03*
X66800000Y-71600000D03*
X64800000Y-71600000D03*
X62800000Y-71600000D03*
X60800000Y-71600000D03*
X58800000Y-71600000D03*
%TD*%
D19*
%TO.C,U1*%
X84350000Y-56750000D03*
X86750000Y-55800000D03*
X86750000Y-57700000D03*
%TD*%
%TO.C,P3*%
G36*
G01*
X83790000Y-59410000D02*
X83790000Y-59090000D01*
G75*
G02*
X83950000Y-58930000I160000J0D01*
G01*
X84345000Y-58930000D01*
G75*
G02*
X84505000Y-59090000I0J-160000D01*
G01*
X84505000Y-59410000D01*
G75*
G02*
X84345000Y-59570000I-160000J0D01*
G01*
X83950000Y-59570000D01*
G75*
G02*
X83790000Y-59410000I0J160000D01*
G01*
G37*
G36*
G01*
X82595000Y-59410000D02*
X82595000Y-59090000D01*
G75*
G02*
X82755000Y-58930000I160000J0D01*
G01*
X83150000Y-58930000D01*
G75*
G02*
X83310000Y-59090000I0J-160000D01*
G01*
X83310000Y-59410000D01*
G75*
G02*
X83150000Y-59570000I-160000J0D01*
G01*
X82755000Y-59570000D01*
G75*
G02*
X82595000Y-59410000I0J160000D01*
G01*
G37*
%TD*%
D14*
%TO.C,R1*%
X77300000Y-62750000D03*
D15*
X77300000Y-60210000D03*
%TD*%
D14*
%TO.C,C2*%
X76800000Y-56500000D03*
X81800000Y-56500000D03*
%TD*%
%TO.C,P4*%
G36*
G01*
X79595000Y-59410000D02*
X79595000Y-59090000D01*
G75*
G02*
X79755000Y-58930000I160000J0D01*
G01*
X80150000Y-58930000D01*
G75*
G02*
X80310000Y-59090000I0J-160000D01*
G01*
X80310000Y-59410000D01*
G75*
G02*
X80150000Y-59570000I-160000J0D01*
G01*
X79755000Y-59570000D01*
G75*
G02*
X79595000Y-59410000I0J160000D01*
G01*
G37*
G36*
G01*
X80790000Y-59410000D02*
X80790000Y-59090000D01*
G75*
G02*
X80950000Y-58930000I160000J0D01*
G01*
X81345000Y-58930000D01*
G75*
G02*
X81505000Y-59090000I0J-160000D01*
G01*
X81505000Y-59410000D01*
G75*
G02*
X81345000Y-59570000I-160000J0D01*
G01*
X80950000Y-59570000D01*
G75*
G02*
X80790000Y-59410000I0J160000D01*
G01*
G37*
%TD*%
D16*
%TO.C,SW1*%
X77300000Y-71500000D03*
X77300000Y-67000000D03*
X83800000Y-71500000D03*
X83800000Y-67000000D03*
%TD*%
D15*
%TO.C,R5*%
X87300000Y-68960000D03*
D14*
X87300000Y-71500000D03*
%TD*%
D13*
%TO.C,J5*%
X82900000Y-64550000D03*
X82900000Y-61950000D03*
D12*
X89250000Y-66825000D03*
X89250000Y-59675000D03*
%TD*%
D14*
%TO.C,C2*%
X81800000Y-36500000D03*
X76800000Y-36500000D03*
%TD*%
D12*
%TO.C,J5*%
X89250000Y-39675000D03*
X89250000Y-46825000D03*
D13*
X82900000Y-41950000D03*
X82900000Y-44550000D03*
%TD*%
D15*
%TO.C,R1*%
X77300000Y-40210000D03*
D14*
X77300000Y-42750000D03*
%TD*%
%TO.C,P3*%
G36*
G01*
X82595000Y-39410000D02*
X82595000Y-39090000D01*
G75*
G02*
X82755000Y-38930000I160000J0D01*
G01*
X83150000Y-38930000D01*
G75*
G02*
X83310000Y-39090000I0J-160000D01*
G01*
X83310000Y-39410000D01*
G75*
G02*
X83150000Y-39570000I-160000J0D01*
G01*
X82755000Y-39570000D01*
G75*
G02*
X82595000Y-39410000I0J160000D01*
G01*
G37*
G36*
G01*
X83790000Y-39410000D02*
X83790000Y-39090000D01*
G75*
G02*
X83950000Y-38930000I160000J0D01*
G01*
X84345000Y-38930000D01*
G75*
G02*
X84505000Y-39090000I0J-160000D01*
G01*
X84505000Y-39410000D01*
G75*
G02*
X84345000Y-39570000I-160000J0D01*
G01*
X83950000Y-39570000D01*
G75*
G02*
X83790000Y-39410000I0J160000D01*
G01*
G37*
%TD*%
%TO.C,R5*%
X87300000Y-51500000D03*
D15*
X87300000Y-48960000D03*
%TD*%
%TO.C,P4*%
G36*
G01*
X80790000Y-39410000D02*
X80790000Y-39090000D01*
G75*
G02*
X80950000Y-38930000I160000J0D01*
G01*
X81345000Y-38930000D01*
G75*
G02*
X81505000Y-39090000I0J-160000D01*
G01*
X81505000Y-39410000D01*
G75*
G02*
X81345000Y-39570000I-160000J0D01*
G01*
X80950000Y-39570000D01*
G75*
G02*
X80790000Y-39410000I0J160000D01*
G01*
G37*
G36*
G01*
X79595000Y-39410000D02*
X79595000Y-39090000D01*
G75*
G02*
X79755000Y-38930000I160000J0D01*
G01*
X80150000Y-38930000D01*
G75*
G02*
X80310000Y-39090000I0J-160000D01*
G01*
X80310000Y-39410000D01*
G75*
G02*
X80150000Y-39570000I-160000J0D01*
G01*
X79755000Y-39570000D01*
G75*
G02*
X79595000Y-39410000I0J160000D01*
G01*
G37*
%TD*%
D16*
%TO.C,SW1*%
X83800000Y-47000000D03*
X83800000Y-51500000D03*
X77300000Y-47000000D03*
X77300000Y-51500000D03*
%TD*%
D19*
%TO.C,U1*%
X86750000Y-37700000D03*
X86750000Y-35800000D03*
X84350000Y-36750000D03*
%TD*%
D17*
%TO.C,U2*%
X58800000Y-51600000D03*
X60800000Y-51600000D03*
X62800000Y-51600000D03*
X64800000Y-51600000D03*
X66800000Y-51600000D03*
X68800000Y-51600000D03*
X70800000Y-51600000D03*
X72800000Y-51600000D03*
D18*
X74300000Y-49000000D03*
X74300000Y-47000000D03*
X74300000Y-45000000D03*
X74300000Y-43000000D03*
X74300000Y-41000000D03*
X74300000Y-39000000D03*
D17*
X72800000Y-36400000D03*
X70800000Y-36400000D03*
X68800000Y-36400000D03*
X66800000Y-36400000D03*
X64800000Y-36400000D03*
X62800000Y-36400000D03*
X60800000Y-36400000D03*
X58800000Y-36400000D03*
%TD*%
D11*
%TO.C,J7*%
X45010000Y-47100000D03*
X47550000Y-45830000D03*
X45010000Y-44560000D03*
X47550000Y-43290000D03*
X45010000Y-42020000D03*
D10*
X47550000Y-40750000D03*
%TD*%
M02*
