%TF.GenerationSoftware,KiCad,Pcbnew,(5.1.9)-1*%
%TF.CreationDate,2021-03-22T15:53:49+01:00*%
%TF.ProjectId,DOORSENSOR_Enhanced_Multi,444f4f52-5345-44e5-934f-525f456e6861,rev?*%
%TF.SameCoordinates,Original*%
%TF.FileFunction,Soldermask,Bot*%
%TF.FilePolarity,Negative*%
%FSLAX46Y46*%
G04 Gerber Fmt 4.6, Leading zero omitted, Abs format (unit mm)*
G04 Created by KiCad (PCBNEW (5.1.9)-1) date 2021-03-22 15:53:49*
%MOMM*%
%LPD*%
G01*
G04 APERTURE LIST*
%ADD10R,1.050000X1.500000*%
%ADD11O,1.050000X1.500000*%
%ADD12O,1.750000X1.200000*%
%ADD13C,1.524000*%
%ADD14O,1.905000X2.000000*%
%ADD15R,1.905000X2.000000*%
%ADD16O,3.500000X3.500000*%
%ADD17C,1.400000*%
%ADD18O,1.400000X1.400000*%
%ADD19R,1.600000X1.600000*%
%ADD20C,1.600000*%
%ADD21O,1.600000X1.600000*%
%ADD22C,2.000000*%
%ADD23O,1.200000X1.750000*%
%ADD24O,2.000000X1.905000*%
%ADD25R,2.000000X1.905000*%
%ADD26O,1.500000X1.050000*%
%ADD27R,1.500000X1.050000*%
G04 APERTURE END LIST*
D10*
%TO.C,Q1*%
X111500000Y-68000000D03*
D11*
X108960000Y-68000000D03*
X110230000Y-68000000D03*
%TD*%
%TO.C,J1*%
G36*
G01*
X112625001Y-50100000D02*
X111374999Y-50100000D01*
G75*
G02*
X111125000Y-49850001I0J249999D01*
G01*
X111125000Y-49149999D01*
G75*
G02*
X111374999Y-48900000I249999J0D01*
G01*
X112625001Y-48900000D01*
G75*
G02*
X112875000Y-49149999I0J-249999D01*
G01*
X112875000Y-49850001D01*
G75*
G02*
X112625001Y-50100000I-249999J0D01*
G01*
G37*
D12*
X112000000Y-47500000D03*
%TD*%
D13*
%TO.C,SW3*%
X125000000Y-44500000D03*
X125000000Y-64500000D03*
%TD*%
D14*
%TO.C,Q2*%
X121080000Y-72500000D03*
X118540000Y-72500000D03*
D15*
X116000000Y-72500000D03*
D16*
X118540000Y-55840000D03*
%TD*%
D17*
%TO.C,R1*%
X111000000Y-72500000D03*
D18*
X108460000Y-72500000D03*
%TD*%
D19*
%TO.C,C1*%
X112015001Y-76500000D03*
D20*
X112015001Y-81500000D03*
%TD*%
D19*
%TO.C,D1*%
X108500000Y-85000000D03*
D21*
X116120000Y-85000000D03*
%TD*%
D22*
%TO.C,SW2*%
X119500000Y-77824999D03*
X124000000Y-77824999D03*
X119500000Y-84324999D03*
X124000000Y-84324999D03*
%TD*%
D18*
%TO.C,R2*%
X120460000Y-75000000D03*
D17*
X123000000Y-75000000D03*
%TD*%
D22*
%TO.C,SW2*%
X124000000Y-84324999D03*
X119500000Y-84324999D03*
X124000000Y-77824999D03*
X119500000Y-77824999D03*
%TD*%
D13*
%TO.C,SW1*%
X108000000Y-64500000D03*
X108000000Y-44500000D03*
%TD*%
D17*
%TO.C,R2*%
X123000000Y-75000000D03*
D18*
X120460000Y-75000000D03*
%TD*%
D20*
%TO.C,C1*%
X112015001Y-81500000D03*
D19*
X112015001Y-76500000D03*
%TD*%
D16*
%TO.C,Q2*%
X118540000Y-55840000D03*
D15*
X116000000Y-72500000D03*
D14*
X118540000Y-72500000D03*
X121080000Y-72500000D03*
%TD*%
D12*
%TO.C,J1*%
X112000000Y-47500000D03*
G36*
G01*
X112625001Y-50100000D02*
X111374999Y-50100000D01*
G75*
G02*
X111125000Y-49850001I0J249999D01*
G01*
X111125000Y-49149999D01*
G75*
G02*
X111374999Y-48900000I249999J0D01*
G01*
X112625001Y-48900000D01*
G75*
G02*
X112875000Y-49149999I0J-249999D01*
G01*
X112875000Y-49850001D01*
G75*
G02*
X112625001Y-50100000I-249999J0D01*
G01*
G37*
%TD*%
D18*
%TO.C,R1*%
X108460000Y-72500000D03*
D17*
X111000000Y-72500000D03*
%TD*%
D21*
%TO.C,D1*%
X116120000Y-85000000D03*
D19*
X108500000Y-85000000D03*
%TD*%
D11*
%TO.C,Q1*%
X110230000Y-68000000D03*
X108960000Y-68000000D03*
D10*
X111500000Y-68000000D03*
%TD*%
D13*
%TO.C,SW3*%
X125000000Y-64500000D03*
X125000000Y-44500000D03*
%TD*%
D23*
%TO.C,J1*%
X102000000Y-128500000D03*
G36*
G01*
X99400000Y-129125001D02*
X99400000Y-127874999D01*
G75*
G02*
X99649999Y-127625000I249999J0D01*
G01*
X100350001Y-127625000D01*
G75*
G02*
X100600000Y-127874999I0J-249999D01*
G01*
X100600000Y-129125001D01*
G75*
G02*
X100350001Y-129375000I-249999J0D01*
G01*
X99649999Y-129375000D01*
G75*
G02*
X99400000Y-129125001I0J249999D01*
G01*
G37*
%TD*%
D22*
%TO.C,SW2*%
X71675001Y-136000000D03*
X71675001Y-140500000D03*
X65175001Y-136000000D03*
X65175001Y-140500000D03*
%TD*%
D24*
%TO.C,Q2*%
X77000000Y-137580000D03*
X77000000Y-135040000D03*
D25*
X77000000Y-132500000D03*
D16*
X93660000Y-135040000D03*
%TD*%
D13*
%TO.C,SW1*%
X105000000Y-124500000D03*
X85000000Y-124500000D03*
%TD*%
D26*
%TO.C,Q1*%
X81500000Y-126730000D03*
X81500000Y-125460000D03*
D27*
X81500000Y-128000000D03*
%TD*%
D18*
%TO.C,R2*%
X74500000Y-136960000D03*
D17*
X74500000Y-139500000D03*
%TD*%
%TO.C,R2*%
X74500000Y-139500000D03*
D18*
X74500000Y-136960000D03*
%TD*%
D20*
%TO.C,C1*%
X68000000Y-128515001D03*
D19*
X73000000Y-128515001D03*
%TD*%
D22*
%TO.C,SW2*%
X65175001Y-140500000D03*
X65175001Y-136000000D03*
X71675001Y-140500000D03*
X71675001Y-136000000D03*
%TD*%
D13*
%TO.C,SW3*%
X85000000Y-141500000D03*
X105000000Y-141500000D03*
%TD*%
D19*
%TO.C,C1*%
X73000000Y-128515001D03*
D20*
X68000000Y-128515001D03*
%TD*%
D27*
%TO.C,Q1*%
X81500000Y-128000000D03*
D26*
X81500000Y-125460000D03*
X81500000Y-126730000D03*
%TD*%
D16*
%TO.C,Q2*%
X93660000Y-135040000D03*
D25*
X77000000Y-132500000D03*
D24*
X77000000Y-135040000D03*
X77000000Y-137580000D03*
%TD*%
D21*
%TO.C,D1*%
X64500000Y-132620000D03*
D19*
X64500000Y-125000000D03*
%TD*%
D18*
%TO.C,R1*%
X77000000Y-124960000D03*
D17*
X77000000Y-127500000D03*
%TD*%
D19*
%TO.C,D1*%
X64500000Y-125000000D03*
D21*
X64500000Y-132620000D03*
%TD*%
D17*
%TO.C,R1*%
X77000000Y-127500000D03*
D18*
X77000000Y-124960000D03*
%TD*%
D13*
%TO.C,SW3*%
X105000000Y-141500000D03*
X85000000Y-141500000D03*
%TD*%
%TO.C,J1*%
G36*
G01*
X99400000Y-129125001D02*
X99400000Y-127874999D01*
G75*
G02*
X99649999Y-127625000I249999J0D01*
G01*
X100350001Y-127625000D01*
G75*
G02*
X100600000Y-127874999I0J-249999D01*
G01*
X100600000Y-129125001D01*
G75*
G02*
X100350001Y-129375000I-249999J0D01*
G01*
X99649999Y-129375000D01*
G75*
G02*
X99400000Y-129125001I0J249999D01*
G01*
G37*
D23*
X102000000Y-128500000D03*
%TD*%
D17*
%TO.C,R2*%
X74500000Y-119500000D03*
D18*
X74500000Y-116960000D03*
%TD*%
D20*
%TO.C,C1*%
X68000000Y-108515001D03*
D19*
X73000000Y-108515001D03*
%TD*%
%TO.C,C1*%
X73000000Y-108515001D03*
D20*
X68000000Y-108515001D03*
%TD*%
D18*
%TO.C,R2*%
X74500000Y-116960000D03*
D17*
X74500000Y-119500000D03*
%TD*%
D22*
%TO.C,SW2*%
X65175001Y-120500000D03*
X65175001Y-116000000D03*
X71675001Y-120500000D03*
X71675001Y-116000000D03*
%TD*%
D16*
%TO.C,Q2*%
X93660000Y-115040000D03*
D25*
X77000000Y-112500000D03*
D24*
X77000000Y-115040000D03*
X77000000Y-117580000D03*
%TD*%
D22*
%TO.C,SW2*%
X71675001Y-116000000D03*
X71675001Y-120500000D03*
X65175001Y-116000000D03*
X65175001Y-120500000D03*
%TD*%
D13*
%TO.C,SW1*%
X85000000Y-104500000D03*
X105000000Y-104500000D03*
%TD*%
%TO.C,SW3*%
X105000000Y-121500000D03*
X85000000Y-121500000D03*
%TD*%
%TO.C,J1*%
G36*
G01*
X99400000Y-109125001D02*
X99400000Y-107874999D01*
G75*
G02*
X99649999Y-107625000I249999J0D01*
G01*
X100350001Y-107625000D01*
G75*
G02*
X100600000Y-107874999I0J-249999D01*
G01*
X100600000Y-109125001D01*
G75*
G02*
X100350001Y-109375000I-249999J0D01*
G01*
X99649999Y-109375000D01*
G75*
G02*
X99400000Y-109125001I0J249999D01*
G01*
G37*
D23*
X102000000Y-108500000D03*
%TD*%
D27*
%TO.C,Q1*%
X81500000Y-108000000D03*
D26*
X81500000Y-105460000D03*
X81500000Y-106730000D03*
%TD*%
D21*
%TO.C,D1*%
X64500000Y-112620000D03*
D19*
X64500000Y-105000000D03*
%TD*%
D26*
%TO.C,Q1*%
X81500000Y-106730000D03*
X81500000Y-105460000D03*
D27*
X81500000Y-108000000D03*
%TD*%
D13*
%TO.C,SW3*%
X85000000Y-121500000D03*
X105000000Y-121500000D03*
%TD*%
D18*
%TO.C,R1*%
X77000000Y-104960000D03*
D17*
X77000000Y-107500000D03*
%TD*%
D23*
%TO.C,J1*%
X102000000Y-108500000D03*
G36*
G01*
X99400000Y-109125001D02*
X99400000Y-107874999D01*
G75*
G02*
X99649999Y-107625000I249999J0D01*
G01*
X100350001Y-107625000D01*
G75*
G02*
X100600000Y-107874999I0J-249999D01*
G01*
X100600000Y-109125001D01*
G75*
G02*
X100350001Y-109375000I-249999J0D01*
G01*
X99649999Y-109375000D01*
G75*
G02*
X99400000Y-109125001I0J249999D01*
G01*
G37*
%TD*%
D24*
%TO.C,Q2*%
X77000000Y-117580000D03*
X77000000Y-115040000D03*
D25*
X77000000Y-112500000D03*
D16*
X93660000Y-115040000D03*
%TD*%
D17*
%TO.C,R1*%
X77000000Y-107500000D03*
D18*
X77000000Y-104960000D03*
%TD*%
D19*
%TO.C,D1*%
X64500000Y-105000000D03*
D21*
X64500000Y-112620000D03*
%TD*%
D26*
%TO.C,Q1*%
X81500000Y-86730000D03*
X81500000Y-85460000D03*
D27*
X81500000Y-88000000D03*
%TD*%
D19*
%TO.C,D1*%
X64500000Y-85000000D03*
D21*
X64500000Y-92620000D03*
%TD*%
D27*
%TO.C,Q1*%
X81500000Y-88000000D03*
D26*
X81500000Y-85460000D03*
X81500000Y-86730000D03*
%TD*%
D13*
%TO.C,SW3*%
X105000000Y-101500000D03*
X85000000Y-101500000D03*
%TD*%
D23*
%TO.C,J1*%
X102000000Y-88500000D03*
G36*
G01*
X99400000Y-89125001D02*
X99400000Y-87874999D01*
G75*
G02*
X99649999Y-87625000I249999J0D01*
G01*
X100350001Y-87625000D01*
G75*
G02*
X100600000Y-87874999I0J-249999D01*
G01*
X100600000Y-89125001D01*
G75*
G02*
X100350001Y-89375000I-249999J0D01*
G01*
X99649999Y-89375000D01*
G75*
G02*
X99400000Y-89125001I0J249999D01*
G01*
G37*
%TD*%
%TO.C,J1*%
G36*
G01*
X99400000Y-89125001D02*
X99400000Y-87874999D01*
G75*
G02*
X99649999Y-87625000I249999J0D01*
G01*
X100350001Y-87625000D01*
G75*
G02*
X100600000Y-87874999I0J-249999D01*
G01*
X100600000Y-89125001D01*
G75*
G02*
X100350001Y-89375000I-249999J0D01*
G01*
X99649999Y-89375000D01*
G75*
G02*
X99400000Y-89125001I0J249999D01*
G01*
G37*
X102000000Y-88500000D03*
%TD*%
D16*
%TO.C,Q2*%
X93660000Y-95040000D03*
D25*
X77000000Y-92500000D03*
D24*
X77000000Y-95040000D03*
X77000000Y-97580000D03*
%TD*%
D18*
%TO.C,R1*%
X77000000Y-84960000D03*
D17*
X77000000Y-87500000D03*
%TD*%
%TO.C,R1*%
X77000000Y-87500000D03*
D18*
X77000000Y-84960000D03*
%TD*%
D21*
%TO.C,D1*%
X64500000Y-92620000D03*
D19*
X64500000Y-85000000D03*
%TD*%
%TO.C,C1*%
X73000000Y-88515001D03*
D20*
X68000000Y-88515001D03*
%TD*%
D22*
%TO.C,SW2*%
X71675001Y-96000000D03*
X71675001Y-100500000D03*
X65175001Y-96000000D03*
X65175001Y-100500000D03*
%TD*%
D20*
%TO.C,C1*%
X68000000Y-88515001D03*
D19*
X73000000Y-88515001D03*
%TD*%
D17*
%TO.C,R2*%
X74500000Y-99500000D03*
D18*
X74500000Y-96960000D03*
%TD*%
%TO.C,R2*%
X74500000Y-96960000D03*
D17*
X74500000Y-99500000D03*
%TD*%
D13*
%TO.C,SW1*%
X105000000Y-84500000D03*
X85000000Y-84500000D03*
%TD*%
%TO.C,SW3*%
X85000000Y-101500000D03*
X105000000Y-101500000D03*
%TD*%
D24*
%TO.C,Q2*%
X77000000Y-97580000D03*
X77000000Y-95040000D03*
D25*
X77000000Y-92500000D03*
D16*
X93660000Y-95040000D03*
%TD*%
D22*
%TO.C,SW2*%
X65175001Y-100500000D03*
X65175001Y-96000000D03*
X71675001Y-100500000D03*
X71675001Y-96000000D03*
%TD*%
D27*
%TO.C,Q1*%
X81500000Y-68000000D03*
D26*
X81500000Y-65460000D03*
X81500000Y-66730000D03*
%TD*%
%TO.C,J1*%
G36*
G01*
X99400000Y-69125001D02*
X99400000Y-67874999D01*
G75*
G02*
X99649999Y-67625000I249999J0D01*
G01*
X100350001Y-67625000D01*
G75*
G02*
X100600000Y-67874999I0J-249999D01*
G01*
X100600000Y-69125001D01*
G75*
G02*
X100350001Y-69375000I-249999J0D01*
G01*
X99649999Y-69375000D01*
G75*
G02*
X99400000Y-69125001I0J249999D01*
G01*
G37*
D23*
X102000000Y-68500000D03*
%TD*%
D13*
%TO.C,SW3*%
X105000000Y-81500000D03*
X85000000Y-81500000D03*
%TD*%
D24*
%TO.C,Q2*%
X77000000Y-77580000D03*
X77000000Y-75040000D03*
D25*
X77000000Y-72500000D03*
D16*
X93660000Y-75040000D03*
%TD*%
D17*
%TO.C,R1*%
X77000000Y-67500000D03*
D18*
X77000000Y-64960000D03*
%TD*%
D19*
%TO.C,C1*%
X73000000Y-68515001D03*
D20*
X68000000Y-68515001D03*
%TD*%
D19*
%TO.C,D1*%
X64500000Y-65000000D03*
D21*
X64500000Y-72620000D03*
%TD*%
D22*
%TO.C,SW2*%
X71675001Y-76000000D03*
X71675001Y-80500000D03*
X65175001Y-76000000D03*
X65175001Y-80500000D03*
%TD*%
D18*
%TO.C,R2*%
X74500000Y-76960000D03*
D17*
X74500000Y-79500000D03*
%TD*%
D22*
%TO.C,SW2*%
X65175001Y-80500000D03*
X65175001Y-76000000D03*
X71675001Y-80500000D03*
X71675001Y-76000000D03*
%TD*%
D13*
%TO.C,SW1*%
X85000000Y-64500000D03*
X105000000Y-64500000D03*
%TD*%
D17*
%TO.C,R2*%
X74500000Y-79500000D03*
D18*
X74500000Y-76960000D03*
%TD*%
D20*
%TO.C,C1*%
X68000000Y-68515001D03*
D19*
X73000000Y-68515001D03*
%TD*%
D16*
%TO.C,Q2*%
X93660000Y-75040000D03*
D25*
X77000000Y-72500000D03*
D24*
X77000000Y-75040000D03*
X77000000Y-77580000D03*
%TD*%
D23*
%TO.C,J1*%
X102000000Y-68500000D03*
G36*
G01*
X99400000Y-69125001D02*
X99400000Y-67874999D01*
G75*
G02*
X99649999Y-67625000I249999J0D01*
G01*
X100350001Y-67625000D01*
G75*
G02*
X100600000Y-67874999I0J-249999D01*
G01*
X100600000Y-69125001D01*
G75*
G02*
X100350001Y-69375000I-249999J0D01*
G01*
X99649999Y-69375000D01*
G75*
G02*
X99400000Y-69125001I0J249999D01*
G01*
G37*
%TD*%
D18*
%TO.C,R1*%
X77000000Y-64960000D03*
D17*
X77000000Y-67500000D03*
%TD*%
D21*
%TO.C,D1*%
X64500000Y-72620000D03*
D19*
X64500000Y-65000000D03*
%TD*%
D26*
%TO.C,Q1*%
X81500000Y-66730000D03*
X81500000Y-65460000D03*
D27*
X81500000Y-68000000D03*
%TD*%
D13*
%TO.C,SW3*%
X85000000Y-81500000D03*
X105000000Y-81500000D03*
%TD*%
D22*
%TO.C,SW2*%
X65175001Y-60500000D03*
X65175001Y-56000000D03*
X71675001Y-60500000D03*
X71675001Y-56000000D03*
%TD*%
D17*
%TO.C,R2*%
X74500000Y-59500000D03*
D18*
X74500000Y-56960000D03*
%TD*%
D20*
%TO.C,C1*%
X68000000Y-48515001D03*
D19*
X73000000Y-48515001D03*
%TD*%
D16*
%TO.C,Q2*%
X93660000Y-55040000D03*
D25*
X77000000Y-52500000D03*
D24*
X77000000Y-55040000D03*
X77000000Y-57580000D03*
%TD*%
D23*
%TO.C,J1*%
X102000000Y-48500000D03*
G36*
G01*
X99400000Y-49125001D02*
X99400000Y-47874999D01*
G75*
G02*
X99649999Y-47625000I249999J0D01*
G01*
X100350001Y-47625000D01*
G75*
G02*
X100600000Y-47874999I0J-249999D01*
G01*
X100600000Y-49125001D01*
G75*
G02*
X100350001Y-49375000I-249999J0D01*
G01*
X99649999Y-49375000D01*
G75*
G02*
X99400000Y-49125001I0J249999D01*
G01*
G37*
%TD*%
D18*
%TO.C,R1*%
X77000000Y-44960000D03*
D17*
X77000000Y-47500000D03*
%TD*%
D21*
%TO.C,D1*%
X64500000Y-52620000D03*
D19*
X64500000Y-45000000D03*
%TD*%
D26*
%TO.C,Q1*%
X81500000Y-46730000D03*
X81500000Y-45460000D03*
D27*
X81500000Y-48000000D03*
%TD*%
D13*
%TO.C,SW3*%
X85000000Y-61500000D03*
X105000000Y-61500000D03*
%TD*%
D27*
%TO.C,Q1*%
X81500000Y-48000000D03*
D26*
X81500000Y-45460000D03*
X81500000Y-46730000D03*
%TD*%
D24*
%TO.C,Q2*%
X77000000Y-57580000D03*
X77000000Y-55040000D03*
D25*
X77000000Y-52500000D03*
D16*
X93660000Y-55040000D03*
%TD*%
D19*
%TO.C,C1*%
X73000000Y-48515001D03*
D20*
X68000000Y-48515001D03*
%TD*%
D19*
%TO.C,D1*%
X64500000Y-45000000D03*
D21*
X64500000Y-52620000D03*
%TD*%
%TO.C,J1*%
G36*
G01*
X99400000Y-49125001D02*
X99400000Y-47874999D01*
G75*
G02*
X99649999Y-47625000I249999J0D01*
G01*
X100350001Y-47625000D01*
G75*
G02*
X100600000Y-47874999I0J-249999D01*
G01*
X100600000Y-49125001D01*
G75*
G02*
X100350001Y-49375000I-249999J0D01*
G01*
X99649999Y-49375000D01*
G75*
G02*
X99400000Y-49125001I0J249999D01*
G01*
G37*
D23*
X102000000Y-48500000D03*
%TD*%
D17*
%TO.C,R1*%
X77000000Y-47500000D03*
D18*
X77000000Y-44960000D03*
%TD*%
%TO.C,R2*%
X74500000Y-56960000D03*
D17*
X74500000Y-59500000D03*
%TD*%
D13*
%TO.C,SW1*%
X105000000Y-44500000D03*
X85000000Y-44500000D03*
%TD*%
D22*
%TO.C,SW2*%
X71675001Y-56000000D03*
X71675001Y-60500000D03*
X65175001Y-56000000D03*
X65175001Y-60500000D03*
%TD*%
D13*
%TO.C,SW3*%
X105000000Y-61500000D03*
X85000000Y-61500000D03*
%TD*%
M02*
