M48
; DRILL file {KiCad (5.1.9)-1} date 03/22/21 15:54:01
; FORMAT={3:3/ absolute / metric / suppress leading zeros}
; #@! TF.CreationDate,2021-03-22T15:54:01+01:00
; #@! TF.GenerationSoftware,Kicad,Pcbnew,(5.1.9)-1
; #@! TF.FileFunction,Plated,1,2,PTH
FMAT,2
METRIC,TZ
T1C0.400
T2C0.700
T3C0.750
T4C0.762
T5C0.800
T6C1.100
%
G90
G05
T1
X50000Y-49000
X50000Y-49000
X50000Y-69000
X50000Y-69000
X50000Y-89000
X50000Y-89000
X50000Y-109000
X50000Y-109000
X50000Y-129000
X50000Y-129000
X112500Y-99500
X112500Y-99500
T2
X74500Y-56960
X74500Y-56960
X74500Y-59500
X74500Y-59500
X74500Y-76960
X74500Y-76960
X74500Y-79500
X74500Y-79500
X74500Y-96960
X74500Y-96960
X74500Y-99500
X74500Y-99500
X74500Y-116960
X74500Y-116960
X74500Y-119500
X74500Y-119500
X74500Y-136960
X74500Y-136960
X74500Y-139500
X74500Y-139500
X77000Y-44960
X77000Y-44960
X77000Y-47500
X77000Y-47500
X77000Y-64960
X77000Y-64960
X77000Y-67500
X77000Y-67500
X77000Y-84960
X77000Y-84960
X77000Y-87500
X77000Y-87500
X77000Y-104960
X77000Y-104960
X77000Y-107500
X77000Y-107500
X77000Y-124960
X77000Y-124960
X77000Y-127500
X77000Y-127500
X108460Y-72500
X108460Y-72500
X111000Y-72500
X111000Y-72500
X120460Y-75000
X120460Y-75000
X123000Y-75000
X123000Y-75000
T3
X81500Y-45460
X81500Y-45460
X81500Y-46730
X81500Y-46730
X81500Y-48000
X81500Y-48000
X81500Y-65460
X81500Y-65460
X81500Y-66730
X81500Y-66730
X81500Y-68000
X81500Y-68000
X81500Y-85460
X81500Y-85460
X81500Y-86730
X81500Y-86730
X81500Y-88000
X81500Y-88000
X81500Y-105460
X81500Y-105460
X81500Y-106730
X81500Y-106730
X81500Y-108000
X81500Y-108000
X81500Y-125460
X81500Y-125460
X81500Y-126730
X81500Y-126730
X81500Y-128000
X81500Y-128000
X100000Y-48500
X100000Y-48500
X100000Y-68500
X100000Y-68500
X100000Y-88500
X100000Y-88500
X100000Y-108500
X100000Y-108500
X100000Y-128500
X100000Y-128500
X102000Y-48500
X102000Y-48500
X102000Y-68500
X102000Y-68500
X102000Y-88500
X102000Y-88500
X102000Y-108500
X102000Y-108500
X102000Y-128500
X102000Y-128500
X108960Y-68000
X108960Y-68000
X110230Y-68000
X110230Y-68000
X111500Y-68000
X111500Y-68000
X112000Y-47500
X112000Y-47500
X112000Y-49500
X112000Y-49500
T4
X85000Y-44500
X85000Y-61500
X85000Y-61500
X85000Y-64500
X85000Y-81500
X85000Y-81500
X85000Y-84500
X85000Y-101500
X85000Y-101500
X85000Y-104500
X85000Y-121500
X85000Y-121500
X85000Y-124500
X85000Y-141500
X85000Y-141500
X105000Y-44500
X105000Y-61500
X105000Y-61500
X105000Y-64500
X105000Y-81500
X105000Y-81500
X105000Y-84500
X105000Y-101500
X105000Y-101500
X105000Y-104500
X105000Y-121500
X105000Y-121500
X105000Y-124500
X105000Y-141500
X105000Y-141500
X108000Y-44500
X108000Y-64500
X125000Y-44500
X125000Y-44500
X125000Y-64500
X125000Y-64500
T5
X64500Y-45000
X64500Y-45000
X64500Y-52620
X64500Y-52620
X64500Y-65000
X64500Y-65000
X64500Y-72620
X64500Y-72620
X64500Y-85000
X64500Y-85000
X64500Y-92620
X64500Y-92620
X64500Y-105000
X64500Y-105000
X64500Y-112620
X64500Y-112620
X64500Y-125000
X64500Y-125000
X64500Y-132620
X64500Y-132620
X68000Y-48515
X68000Y-48515
X68000Y-68515
X68000Y-68515
X68000Y-88515
X68000Y-88515
X68000Y-108515
X68000Y-108515
X68000Y-128515
X68000Y-128515
X73000Y-48515
X73000Y-48515
X73000Y-68515
X73000Y-68515
X73000Y-88515
X73000Y-88515
X73000Y-108515
X73000Y-108515
X73000Y-128515
X73000Y-128515
X108500Y-85000
X108500Y-85000
X112015Y-76500
X112015Y-76500
X112015Y-81500
X112015Y-81500
X116120Y-85000
X116120Y-85000
T6
X65175Y-56000
X65175Y-56000
X65175Y-60500
X65175Y-60500
X65175Y-76000
X65175Y-76000
X65175Y-80500
X65175Y-80500
X65175Y-96000
X65175Y-96000
X65175Y-100500
X65175Y-100500
X65175Y-116000
X65175Y-116000
X65175Y-120500
X65175Y-120500
X65175Y-136000
X65175Y-136000
X65175Y-140500
X65175Y-140500
X71675Y-56000
X71675Y-56000
X71675Y-60500
X71675Y-60500
X71675Y-76000
X71675Y-76000
X71675Y-80500
X71675Y-80500
X71675Y-96000
X71675Y-96000
X71675Y-100500
X71675Y-100500
X71675Y-116000
X71675Y-116000
X71675Y-120500
X71675Y-120500
X71675Y-136000
X71675Y-136000
X71675Y-140500
X71675Y-140500
X77000Y-52500
X77000Y-52500
X77000Y-55040
X77000Y-55040
X77000Y-57580
X77000Y-57580
X77000Y-72500
X77000Y-72500
X77000Y-75040
X77000Y-75040
X77000Y-77580
X77000Y-77580
X77000Y-92500
X77000Y-92500
X77000Y-95040
X77000Y-95040
X77000Y-97580
X77000Y-97580
X77000Y-112500
X77000Y-112500
X77000Y-115040
X77000Y-115040
X77000Y-117580
X77000Y-117580
X77000Y-132500
X77000Y-132500
X77000Y-135040
X77000Y-135040
X77000Y-137580
X77000Y-137580
X116000Y-72500
X116000Y-72500
X118540Y-72500
X118540Y-72500
X119500Y-77825
X119500Y-77825
X119500Y-84325
X119500Y-84325
X121080Y-72500
X121080Y-72500
X124000Y-77825
X124000Y-77825
X124000Y-84325
X124000Y-84325
T0
M30
