%TF.GenerationSoftware,KiCad,Pcbnew,(5.1.9)-1*%
%TF.CreationDate,2021-03-22T15:53:49+01:00*%
%TF.ProjectId,DOORSENSOR_Enhanced_Multi,444f4f52-5345-44e5-934f-525f456e6861,rev?*%
%TF.SameCoordinates,Original*%
%TF.FileFunction,Paste,Top*%
%TF.FilePolarity,Positive*%
%FSLAX46Y46*%
G04 Gerber Fmt 4.6, Leading zero omitted, Abs format (unit mm)*
G04 Created by KiCad (PCBNEW (5.1.9)-1) date 2021-03-22 15:53:49*
%MOMM*%
%LPD*%
G01*
G04 APERTURE LIST*
%ADD10C,0.250000*%
%ADD11C,0.150000*%
%ADD12R,2.500000X1.000000*%
%ADD13R,1.000000X1.800000*%
%ADD14R,1.000000X2.500000*%
%ADD15R,1.800000X1.000000*%
G04 APERTURE END LIST*
D10*
X113385714Y-116942857D02*
X112185714Y-117285714D01*
X113042857Y-117628571D01*
X112185714Y-117971428D01*
X113385714Y-118314285D01*
X113385714Y-118828571D02*
X112185714Y-119171428D01*
X113042857Y-119514285D01*
X112185714Y-119857142D01*
X113385714Y-120200000D01*
X113385714Y-120714285D02*
X112185714Y-121057142D01*
X113042857Y-121400000D01*
X112185714Y-121742857D01*
X113385714Y-122085714D01*
X112357142Y-122771428D02*
X112271428Y-122857142D01*
X112185714Y-122771428D01*
X112271428Y-122685714D01*
X112357142Y-122771428D01*
X112185714Y-122771428D01*
X112271428Y-123542857D02*
X112185714Y-123714285D01*
X112185714Y-124057142D01*
X112271428Y-124228571D01*
X112442857Y-124314285D01*
X112528571Y-124314285D01*
X112700000Y-124228571D01*
X112785714Y-124057142D01*
X112785714Y-123800000D01*
X112871428Y-123628571D01*
X113042857Y-123542857D01*
X113128571Y-123542857D01*
X113300000Y-123628571D01*
X113385714Y-123800000D01*
X113385714Y-124057142D01*
X113300000Y-124228571D01*
X112185714Y-125085714D02*
X113985714Y-125085714D01*
X112185714Y-125857142D02*
X113128571Y-125857142D01*
X113300000Y-125771428D01*
X113385714Y-125600000D01*
X113385714Y-125342857D01*
X113300000Y-125171428D01*
X113214285Y-125085714D01*
X112185714Y-126714285D02*
X113385714Y-126714285D01*
X113042857Y-126714285D02*
X113214285Y-126800000D01*
X113300000Y-126885714D01*
X113385714Y-127057142D01*
X113385714Y-127228571D01*
X112185714Y-128600000D02*
X113985714Y-128600000D01*
X112271428Y-128600000D02*
X112185714Y-128428571D01*
X112185714Y-128085714D01*
X112271428Y-127914285D01*
X112357142Y-127828571D01*
X112528571Y-127742857D01*
X113042857Y-127742857D01*
X113214285Y-127828571D01*
X113300000Y-127914285D01*
X113385714Y-128085714D01*
X113385714Y-128428571D01*
X113300000Y-128600000D01*
X113385714Y-129285714D02*
X113385714Y-130228571D01*
X112185714Y-129285714D01*
X112185714Y-130228571D01*
X112185714Y-130914285D02*
X113385714Y-130914285D01*
X113214285Y-130914285D02*
X113300000Y-131000000D01*
X113385714Y-131171428D01*
X113385714Y-131428571D01*
X113300000Y-131600000D01*
X113128571Y-131685714D01*
X112185714Y-131685714D01*
X113128571Y-131685714D02*
X113300000Y-131771428D01*
X113385714Y-131942857D01*
X113385714Y-132200000D01*
X113300000Y-132371428D01*
X113128571Y-132457142D01*
X112185714Y-132457142D01*
X112357142Y-133314285D02*
X112271428Y-133400000D01*
X112185714Y-133314285D01*
X112271428Y-133228571D01*
X112357142Y-133314285D01*
X112185714Y-133314285D01*
X112271428Y-134942857D02*
X112185714Y-134771428D01*
X112185714Y-134428571D01*
X112271428Y-134257142D01*
X112357142Y-134171428D01*
X112528571Y-134085714D01*
X113042857Y-134085714D01*
X113214285Y-134171428D01*
X113300000Y-134257142D01*
X113385714Y-134428571D01*
X113385714Y-134771428D01*
X113300000Y-134942857D01*
X112185714Y-135971428D02*
X112271428Y-135800000D01*
X112357142Y-135714285D01*
X112528571Y-135628571D01*
X113042857Y-135628571D01*
X113214285Y-135714285D01*
X113300000Y-135800000D01*
X113385714Y-135971428D01*
X113385714Y-136228571D01*
X113300000Y-136400000D01*
X113214285Y-136485714D01*
X113042857Y-136571428D01*
X112528571Y-136571428D01*
X112357142Y-136485714D01*
X112271428Y-136400000D01*
X112185714Y-136228571D01*
X112185714Y-135971428D01*
X112185714Y-137342857D02*
X113385714Y-137342857D01*
X113214285Y-137342857D02*
X113300000Y-137428571D01*
X113385714Y-137600000D01*
X113385714Y-137857142D01*
X113300000Y-138028571D01*
X113128571Y-138114285D01*
X112185714Y-138114285D01*
X113128571Y-138114285D02*
X113300000Y-138200000D01*
X113385714Y-138371428D01*
X113385714Y-138628571D01*
X113300000Y-138800000D01*
X113128571Y-138885714D01*
X112185714Y-138885714D01*
D11*
X126500000Y-113000000D02*
X106500000Y-113000000D01*
X36500000Y-123000000D02*
X106500000Y-123000000D01*
X36500000Y-103000000D02*
X106500000Y-103000000D01*
X36500000Y-83000000D02*
X106500000Y-83000000D01*
X36500000Y-63000000D02*
X106500000Y-63000000D01*
X106500000Y-43000000D02*
X106500000Y-143000000D01*
D12*
%TO.C,U1*%
X124100000Y-103500000D03*
X124100000Y-101500000D03*
X124100000Y-99500000D03*
X124100000Y-97500000D03*
X124100000Y-95500000D03*
X124100000Y-93500000D03*
X124100000Y-91500000D03*
X124100000Y-89500000D03*
D13*
X121500000Y-88000000D03*
X119500000Y-88000000D03*
X117500000Y-88000000D03*
X115500000Y-88000000D03*
X113500000Y-88000000D03*
X111500000Y-88000000D03*
D12*
X108900000Y-89500000D03*
X108900000Y-91500000D03*
X108900000Y-93500000D03*
X108900000Y-95500000D03*
X108900000Y-97500000D03*
X108900000Y-99500000D03*
X108900000Y-101500000D03*
X108900000Y-103500000D03*
%TD*%
%TO.C,U1*%
X108900000Y-103500000D03*
X108900000Y-101500000D03*
X108900000Y-99500000D03*
X108900000Y-97500000D03*
X108900000Y-95500000D03*
X108900000Y-93500000D03*
X108900000Y-91500000D03*
X108900000Y-89500000D03*
D13*
X111500000Y-88000000D03*
X113500000Y-88000000D03*
X115500000Y-88000000D03*
X117500000Y-88000000D03*
X119500000Y-88000000D03*
X121500000Y-88000000D03*
D12*
X124100000Y-89500000D03*
X124100000Y-91500000D03*
X124100000Y-93500000D03*
X124100000Y-95500000D03*
X124100000Y-97500000D03*
X124100000Y-99500000D03*
X124100000Y-101500000D03*
X124100000Y-103500000D03*
%TD*%
D14*
%TO.C,U1*%
X46000000Y-125400000D03*
X48000000Y-125400000D03*
X50000000Y-125400000D03*
X52000000Y-125400000D03*
X54000000Y-125400000D03*
X56000000Y-125400000D03*
X58000000Y-125400000D03*
X60000000Y-125400000D03*
D15*
X61500000Y-128000000D03*
X61500000Y-130000000D03*
X61500000Y-132000000D03*
X61500000Y-134000000D03*
X61500000Y-136000000D03*
X61500000Y-138000000D03*
D14*
X60000000Y-140600000D03*
X58000000Y-140600000D03*
X56000000Y-140600000D03*
X54000000Y-140600000D03*
X52000000Y-140600000D03*
X50000000Y-140600000D03*
X48000000Y-140600000D03*
X46000000Y-140600000D03*
%TD*%
%TO.C,U1*%
X46000000Y-140600000D03*
X48000000Y-140600000D03*
X50000000Y-140600000D03*
X52000000Y-140600000D03*
X54000000Y-140600000D03*
X56000000Y-140600000D03*
X58000000Y-140600000D03*
X60000000Y-140600000D03*
D15*
X61500000Y-138000000D03*
X61500000Y-136000000D03*
X61500000Y-134000000D03*
X61500000Y-132000000D03*
X61500000Y-130000000D03*
X61500000Y-128000000D03*
D14*
X60000000Y-125400000D03*
X58000000Y-125400000D03*
X56000000Y-125400000D03*
X54000000Y-125400000D03*
X52000000Y-125400000D03*
X50000000Y-125400000D03*
X48000000Y-125400000D03*
X46000000Y-125400000D03*
%TD*%
%TO.C,U1*%
X46000000Y-105400000D03*
X48000000Y-105400000D03*
X50000000Y-105400000D03*
X52000000Y-105400000D03*
X54000000Y-105400000D03*
X56000000Y-105400000D03*
X58000000Y-105400000D03*
X60000000Y-105400000D03*
D15*
X61500000Y-108000000D03*
X61500000Y-110000000D03*
X61500000Y-112000000D03*
X61500000Y-114000000D03*
X61500000Y-116000000D03*
X61500000Y-118000000D03*
D14*
X60000000Y-120600000D03*
X58000000Y-120600000D03*
X56000000Y-120600000D03*
X54000000Y-120600000D03*
X52000000Y-120600000D03*
X50000000Y-120600000D03*
X48000000Y-120600000D03*
X46000000Y-120600000D03*
%TD*%
%TO.C,U1*%
X46000000Y-120600000D03*
X48000000Y-120600000D03*
X50000000Y-120600000D03*
X52000000Y-120600000D03*
X54000000Y-120600000D03*
X56000000Y-120600000D03*
X58000000Y-120600000D03*
X60000000Y-120600000D03*
D15*
X61500000Y-118000000D03*
X61500000Y-116000000D03*
X61500000Y-114000000D03*
X61500000Y-112000000D03*
X61500000Y-110000000D03*
X61500000Y-108000000D03*
D14*
X60000000Y-105400000D03*
X58000000Y-105400000D03*
X56000000Y-105400000D03*
X54000000Y-105400000D03*
X52000000Y-105400000D03*
X50000000Y-105400000D03*
X48000000Y-105400000D03*
X46000000Y-105400000D03*
%TD*%
%TO.C,U1*%
X46000000Y-100600000D03*
X48000000Y-100600000D03*
X50000000Y-100600000D03*
X52000000Y-100600000D03*
X54000000Y-100600000D03*
X56000000Y-100600000D03*
X58000000Y-100600000D03*
X60000000Y-100600000D03*
D15*
X61500000Y-98000000D03*
X61500000Y-96000000D03*
X61500000Y-94000000D03*
X61500000Y-92000000D03*
X61500000Y-90000000D03*
X61500000Y-88000000D03*
D14*
X60000000Y-85400000D03*
X58000000Y-85400000D03*
X56000000Y-85400000D03*
X54000000Y-85400000D03*
X52000000Y-85400000D03*
X50000000Y-85400000D03*
X48000000Y-85400000D03*
X46000000Y-85400000D03*
%TD*%
%TO.C,U1*%
X46000000Y-85400000D03*
X48000000Y-85400000D03*
X50000000Y-85400000D03*
X52000000Y-85400000D03*
X54000000Y-85400000D03*
X56000000Y-85400000D03*
X58000000Y-85400000D03*
X60000000Y-85400000D03*
D15*
X61500000Y-88000000D03*
X61500000Y-90000000D03*
X61500000Y-92000000D03*
X61500000Y-94000000D03*
X61500000Y-96000000D03*
X61500000Y-98000000D03*
D14*
X60000000Y-100600000D03*
X58000000Y-100600000D03*
X56000000Y-100600000D03*
X54000000Y-100600000D03*
X52000000Y-100600000D03*
X50000000Y-100600000D03*
X48000000Y-100600000D03*
X46000000Y-100600000D03*
%TD*%
%TO.C,U1*%
X46000000Y-80600000D03*
X48000000Y-80600000D03*
X50000000Y-80600000D03*
X52000000Y-80600000D03*
X54000000Y-80600000D03*
X56000000Y-80600000D03*
X58000000Y-80600000D03*
X60000000Y-80600000D03*
D15*
X61500000Y-78000000D03*
X61500000Y-76000000D03*
X61500000Y-74000000D03*
X61500000Y-72000000D03*
X61500000Y-70000000D03*
X61500000Y-68000000D03*
D14*
X60000000Y-65400000D03*
X58000000Y-65400000D03*
X56000000Y-65400000D03*
X54000000Y-65400000D03*
X52000000Y-65400000D03*
X50000000Y-65400000D03*
X48000000Y-65400000D03*
X46000000Y-65400000D03*
%TD*%
%TO.C,U1*%
X46000000Y-65400000D03*
X48000000Y-65400000D03*
X50000000Y-65400000D03*
X52000000Y-65400000D03*
X54000000Y-65400000D03*
X56000000Y-65400000D03*
X58000000Y-65400000D03*
X60000000Y-65400000D03*
D15*
X61500000Y-68000000D03*
X61500000Y-70000000D03*
X61500000Y-72000000D03*
X61500000Y-74000000D03*
X61500000Y-76000000D03*
X61500000Y-78000000D03*
D14*
X60000000Y-80600000D03*
X58000000Y-80600000D03*
X56000000Y-80600000D03*
X54000000Y-80600000D03*
X52000000Y-80600000D03*
X50000000Y-80600000D03*
X48000000Y-80600000D03*
X46000000Y-80600000D03*
%TD*%
%TO.C,U1*%
X46000000Y-45400000D03*
X48000000Y-45400000D03*
X50000000Y-45400000D03*
X52000000Y-45400000D03*
X54000000Y-45400000D03*
X56000000Y-45400000D03*
X58000000Y-45400000D03*
X60000000Y-45400000D03*
D15*
X61500000Y-48000000D03*
X61500000Y-50000000D03*
X61500000Y-52000000D03*
X61500000Y-54000000D03*
X61500000Y-56000000D03*
X61500000Y-58000000D03*
D14*
X60000000Y-60600000D03*
X58000000Y-60600000D03*
X56000000Y-60600000D03*
X54000000Y-60600000D03*
X52000000Y-60600000D03*
X50000000Y-60600000D03*
X48000000Y-60600000D03*
X46000000Y-60600000D03*
%TD*%
%TO.C,U1*%
X46000000Y-60600000D03*
X48000000Y-60600000D03*
X50000000Y-60600000D03*
X52000000Y-60600000D03*
X54000000Y-60600000D03*
X56000000Y-60600000D03*
X58000000Y-60600000D03*
X60000000Y-60600000D03*
D15*
X61500000Y-58000000D03*
X61500000Y-56000000D03*
X61500000Y-54000000D03*
X61500000Y-52000000D03*
X61500000Y-50000000D03*
X61500000Y-48000000D03*
D14*
X60000000Y-45400000D03*
X58000000Y-45400000D03*
X56000000Y-45400000D03*
X54000000Y-45400000D03*
X52000000Y-45400000D03*
X50000000Y-45400000D03*
X48000000Y-45400000D03*
X46000000Y-45400000D03*
%TD*%
M02*
