%TF.GenerationSoftware,KiCad,Pcbnew,(5.1.9)-1*%
%TF.CreationDate,2021-03-22T15:53:48+01:00*%
%TF.ProjectId,DOORSENSOR_Enhanced_Multi,444f4f52-5345-44e5-934f-525f456e6861,rev?*%
%TF.SameCoordinates,Original*%
%TF.FileFunction,Copper,L1,Top*%
%TF.FilePolarity,Positive*%
%FSLAX46Y46*%
G04 Gerber Fmt 4.6, Leading zero omitted, Abs format (unit mm)*
G04 Created by KiCad (PCBNEW (5.1.9)-1) date 2021-03-22 15:53:48*
%MOMM*%
%LPD*%
G01*
G04 APERTURE LIST*
%TA.AperFunction,NonConductor*%
%ADD10C,0.250000*%
%TD*%
%TA.AperFunction,ComponentPad*%
%ADD11R,1.050000X1.500000*%
%TD*%
%TA.AperFunction,ComponentPad*%
%ADD12O,1.050000X1.500000*%
%TD*%
%TA.AperFunction,ComponentPad*%
%ADD13O,1.750000X1.200000*%
%TD*%
%TA.AperFunction,ComponentPad*%
%ADD14C,1.524000*%
%TD*%
%TA.AperFunction,ComponentPad*%
%ADD15O,1.905000X2.000000*%
%TD*%
%TA.AperFunction,ComponentPad*%
%ADD16R,1.905000X2.000000*%
%TD*%
%TA.AperFunction,ComponentPad*%
%ADD17C,1.400000*%
%TD*%
%TA.AperFunction,ComponentPad*%
%ADD18O,1.400000X1.400000*%
%TD*%
%TA.AperFunction,SMDPad,CuDef*%
%ADD19R,2.500000X1.000000*%
%TD*%
%TA.AperFunction,SMDPad,CuDef*%
%ADD20R,1.000000X1.800000*%
%TD*%
%TA.AperFunction,ComponentPad*%
%ADD21R,1.600000X1.600000*%
%TD*%
%TA.AperFunction,ComponentPad*%
%ADD22C,1.600000*%
%TD*%
%TA.AperFunction,ComponentPad*%
%ADD23O,1.600000X1.600000*%
%TD*%
%TA.AperFunction,ComponentPad*%
%ADD24C,2.000000*%
%TD*%
%TA.AperFunction,ComponentPad*%
%ADD25O,1.200000X1.750000*%
%TD*%
%TA.AperFunction,ComponentPad*%
%ADD26O,2.000000X1.905000*%
%TD*%
%TA.AperFunction,ComponentPad*%
%ADD27R,2.000000X1.905000*%
%TD*%
%TA.AperFunction,ComponentPad*%
%ADD28O,1.500000X1.050000*%
%TD*%
%TA.AperFunction,ComponentPad*%
%ADD29R,1.500000X1.050000*%
%TD*%
%TA.AperFunction,SMDPad,CuDef*%
%ADD30R,1.000000X2.500000*%
%TD*%
%TA.AperFunction,SMDPad,CuDef*%
%ADD31R,1.800000X1.000000*%
%TD*%
%TA.AperFunction,ViaPad*%
%ADD32C,0.800000*%
%TD*%
%TA.AperFunction,Conductor*%
%ADD33C,0.250000*%
%TD*%
G04 APERTURE END LIST*
D10*
X109678571Y-58285714D02*
X111178571Y-57785714D01*
X109678571Y-57285714D01*
X111178571Y-56000000D02*
X111178571Y-56857142D01*
X111178571Y-56428571D02*
X109678571Y-56428571D01*
X109892857Y-56571428D01*
X110035714Y-56714285D01*
X110107142Y-56857142D01*
X111035714Y-55357142D02*
X111107142Y-55285714D01*
X111178571Y-55357142D01*
X111107142Y-55428571D01*
X111035714Y-55357142D01*
X111178571Y-55357142D01*
X109678571Y-54357142D02*
X109678571Y-54214285D01*
X109750000Y-54071428D01*
X109821428Y-54000000D01*
X109964285Y-53928571D01*
X110250000Y-53857142D01*
X110607142Y-53857142D01*
X110892857Y-53928571D01*
X111035714Y-54000000D01*
X111107142Y-54071428D01*
X111178571Y-54214285D01*
X111178571Y-54357142D01*
X111107142Y-54500000D01*
X111035714Y-54571428D01*
X110892857Y-54642857D01*
X110607142Y-54714285D01*
X110250000Y-54714285D01*
X109964285Y-54642857D01*
X109821428Y-54571428D01*
X109750000Y-54500000D01*
X109678571Y-54357142D01*
X109678571Y-58285714D02*
X111178571Y-57785714D01*
X109678571Y-57285714D01*
X111178571Y-56000000D02*
X111178571Y-56857142D01*
X111178571Y-56428571D02*
X109678571Y-56428571D01*
X109892857Y-56571428D01*
X110035714Y-56714285D01*
X110107142Y-56857142D01*
X111035714Y-55357142D02*
X111107142Y-55285714D01*
X111178571Y-55357142D01*
X111107142Y-55428571D01*
X111035714Y-55357142D01*
X111178571Y-55357142D01*
X109678571Y-54357142D02*
X109678571Y-54214285D01*
X109750000Y-54071428D01*
X109821428Y-54000000D01*
X109964285Y-53928571D01*
X110250000Y-53857142D01*
X110607142Y-53857142D01*
X110892857Y-53928571D01*
X111035714Y-54000000D01*
X111107142Y-54071428D01*
X111178571Y-54214285D01*
X111178571Y-54357142D01*
X111107142Y-54500000D01*
X111035714Y-54571428D01*
X110892857Y-54642857D01*
X110607142Y-54714285D01*
X110250000Y-54714285D01*
X109964285Y-54642857D01*
X109821428Y-54571428D01*
X109750000Y-54500000D01*
X109678571Y-54357142D01*
X91214285Y-126178571D02*
X91714285Y-127678571D01*
X92214285Y-126178571D01*
X93500000Y-127678571D02*
X92642857Y-127678571D01*
X93071428Y-127678571D02*
X93071428Y-126178571D01*
X92928571Y-126392857D01*
X92785714Y-126535714D01*
X92642857Y-126607142D01*
X94142857Y-127535714D02*
X94214285Y-127607142D01*
X94142857Y-127678571D01*
X94071428Y-127607142D01*
X94142857Y-127535714D01*
X94142857Y-127678571D01*
X95142857Y-126178571D02*
X95285714Y-126178571D01*
X95428571Y-126250000D01*
X95500000Y-126321428D01*
X95571428Y-126464285D01*
X95642857Y-126750000D01*
X95642857Y-127107142D01*
X95571428Y-127392857D01*
X95500000Y-127535714D01*
X95428571Y-127607142D01*
X95285714Y-127678571D01*
X95142857Y-127678571D01*
X95000000Y-127607142D01*
X94928571Y-127535714D01*
X94857142Y-127392857D01*
X94785714Y-127107142D01*
X94785714Y-126750000D01*
X94857142Y-126464285D01*
X94928571Y-126321428D01*
X95000000Y-126250000D01*
X95142857Y-126178571D01*
X91214285Y-126178571D02*
X91714285Y-127678571D01*
X92214285Y-126178571D01*
X93500000Y-127678571D02*
X92642857Y-127678571D01*
X93071428Y-127678571D02*
X93071428Y-126178571D01*
X92928571Y-126392857D01*
X92785714Y-126535714D01*
X92642857Y-126607142D01*
X94142857Y-127535714D02*
X94214285Y-127607142D01*
X94142857Y-127678571D01*
X94071428Y-127607142D01*
X94142857Y-127535714D01*
X94142857Y-127678571D01*
X95142857Y-126178571D02*
X95285714Y-126178571D01*
X95428571Y-126250000D01*
X95500000Y-126321428D01*
X95571428Y-126464285D01*
X95642857Y-126750000D01*
X95642857Y-127107142D01*
X95571428Y-127392857D01*
X95500000Y-127535714D01*
X95428571Y-127607142D01*
X95285714Y-127678571D01*
X95142857Y-127678571D01*
X95000000Y-127607142D01*
X94928571Y-127535714D01*
X94857142Y-127392857D01*
X94785714Y-127107142D01*
X94785714Y-126750000D01*
X94857142Y-126464285D01*
X94928571Y-126321428D01*
X95000000Y-126250000D01*
X95142857Y-126178571D01*
X91214285Y-106178571D02*
X91714285Y-107678571D01*
X92214285Y-106178571D01*
X93500000Y-107678571D02*
X92642857Y-107678571D01*
X93071428Y-107678571D02*
X93071428Y-106178571D01*
X92928571Y-106392857D01*
X92785714Y-106535714D01*
X92642857Y-106607142D01*
X94142857Y-107535714D02*
X94214285Y-107607142D01*
X94142857Y-107678571D01*
X94071428Y-107607142D01*
X94142857Y-107535714D01*
X94142857Y-107678571D01*
X95142857Y-106178571D02*
X95285714Y-106178571D01*
X95428571Y-106250000D01*
X95500000Y-106321428D01*
X95571428Y-106464285D01*
X95642857Y-106750000D01*
X95642857Y-107107142D01*
X95571428Y-107392857D01*
X95500000Y-107535714D01*
X95428571Y-107607142D01*
X95285714Y-107678571D01*
X95142857Y-107678571D01*
X95000000Y-107607142D01*
X94928571Y-107535714D01*
X94857142Y-107392857D01*
X94785714Y-107107142D01*
X94785714Y-106750000D01*
X94857142Y-106464285D01*
X94928571Y-106321428D01*
X95000000Y-106250000D01*
X95142857Y-106178571D01*
X91214285Y-106178571D02*
X91714285Y-107678571D01*
X92214285Y-106178571D01*
X93500000Y-107678571D02*
X92642857Y-107678571D01*
X93071428Y-107678571D02*
X93071428Y-106178571D01*
X92928571Y-106392857D01*
X92785714Y-106535714D01*
X92642857Y-106607142D01*
X94142857Y-107535714D02*
X94214285Y-107607142D01*
X94142857Y-107678571D01*
X94071428Y-107607142D01*
X94142857Y-107535714D01*
X94142857Y-107678571D01*
X95142857Y-106178571D02*
X95285714Y-106178571D01*
X95428571Y-106250000D01*
X95500000Y-106321428D01*
X95571428Y-106464285D01*
X95642857Y-106750000D01*
X95642857Y-107107142D01*
X95571428Y-107392857D01*
X95500000Y-107535714D01*
X95428571Y-107607142D01*
X95285714Y-107678571D01*
X95142857Y-107678571D01*
X95000000Y-107607142D01*
X94928571Y-107535714D01*
X94857142Y-107392857D01*
X94785714Y-107107142D01*
X94785714Y-106750000D01*
X94857142Y-106464285D01*
X94928571Y-106321428D01*
X95000000Y-106250000D01*
X95142857Y-106178571D01*
X91214285Y-86178571D02*
X91714285Y-87678571D01*
X92214285Y-86178571D01*
X93500000Y-87678571D02*
X92642857Y-87678571D01*
X93071428Y-87678571D02*
X93071428Y-86178571D01*
X92928571Y-86392857D01*
X92785714Y-86535714D01*
X92642857Y-86607142D01*
X94142857Y-87535714D02*
X94214285Y-87607142D01*
X94142857Y-87678571D01*
X94071428Y-87607142D01*
X94142857Y-87535714D01*
X94142857Y-87678571D01*
X95142857Y-86178571D02*
X95285714Y-86178571D01*
X95428571Y-86250000D01*
X95500000Y-86321428D01*
X95571428Y-86464285D01*
X95642857Y-86750000D01*
X95642857Y-87107142D01*
X95571428Y-87392857D01*
X95500000Y-87535714D01*
X95428571Y-87607142D01*
X95285714Y-87678571D01*
X95142857Y-87678571D01*
X95000000Y-87607142D01*
X94928571Y-87535714D01*
X94857142Y-87392857D01*
X94785714Y-87107142D01*
X94785714Y-86750000D01*
X94857142Y-86464285D01*
X94928571Y-86321428D01*
X95000000Y-86250000D01*
X95142857Y-86178571D01*
X91214285Y-86178571D02*
X91714285Y-87678571D01*
X92214285Y-86178571D01*
X93500000Y-87678571D02*
X92642857Y-87678571D01*
X93071428Y-87678571D02*
X93071428Y-86178571D01*
X92928571Y-86392857D01*
X92785714Y-86535714D01*
X92642857Y-86607142D01*
X94142857Y-87535714D02*
X94214285Y-87607142D01*
X94142857Y-87678571D01*
X94071428Y-87607142D01*
X94142857Y-87535714D01*
X94142857Y-87678571D01*
X95142857Y-86178571D02*
X95285714Y-86178571D01*
X95428571Y-86250000D01*
X95500000Y-86321428D01*
X95571428Y-86464285D01*
X95642857Y-86750000D01*
X95642857Y-87107142D01*
X95571428Y-87392857D01*
X95500000Y-87535714D01*
X95428571Y-87607142D01*
X95285714Y-87678571D01*
X95142857Y-87678571D01*
X95000000Y-87607142D01*
X94928571Y-87535714D01*
X94857142Y-87392857D01*
X94785714Y-87107142D01*
X94785714Y-86750000D01*
X94857142Y-86464285D01*
X94928571Y-86321428D01*
X95000000Y-86250000D01*
X95142857Y-86178571D01*
X91214285Y-66178571D02*
X91714285Y-67678571D01*
X92214285Y-66178571D01*
X93500000Y-67678571D02*
X92642857Y-67678571D01*
X93071428Y-67678571D02*
X93071428Y-66178571D01*
X92928571Y-66392857D01*
X92785714Y-66535714D01*
X92642857Y-66607142D01*
X94142857Y-67535714D02*
X94214285Y-67607142D01*
X94142857Y-67678571D01*
X94071428Y-67607142D01*
X94142857Y-67535714D01*
X94142857Y-67678571D01*
X95142857Y-66178571D02*
X95285714Y-66178571D01*
X95428571Y-66250000D01*
X95500000Y-66321428D01*
X95571428Y-66464285D01*
X95642857Y-66750000D01*
X95642857Y-67107142D01*
X95571428Y-67392857D01*
X95500000Y-67535714D01*
X95428571Y-67607142D01*
X95285714Y-67678571D01*
X95142857Y-67678571D01*
X95000000Y-67607142D01*
X94928571Y-67535714D01*
X94857142Y-67392857D01*
X94785714Y-67107142D01*
X94785714Y-66750000D01*
X94857142Y-66464285D01*
X94928571Y-66321428D01*
X95000000Y-66250000D01*
X95142857Y-66178571D01*
X91214285Y-66178571D02*
X91714285Y-67678571D01*
X92214285Y-66178571D01*
X93500000Y-67678571D02*
X92642857Y-67678571D01*
X93071428Y-67678571D02*
X93071428Y-66178571D01*
X92928571Y-66392857D01*
X92785714Y-66535714D01*
X92642857Y-66607142D01*
X94142857Y-67535714D02*
X94214285Y-67607142D01*
X94142857Y-67678571D01*
X94071428Y-67607142D01*
X94142857Y-67535714D01*
X94142857Y-67678571D01*
X95142857Y-66178571D02*
X95285714Y-66178571D01*
X95428571Y-66250000D01*
X95500000Y-66321428D01*
X95571428Y-66464285D01*
X95642857Y-66750000D01*
X95642857Y-67107142D01*
X95571428Y-67392857D01*
X95500000Y-67535714D01*
X95428571Y-67607142D01*
X95285714Y-67678571D01*
X95142857Y-67678571D01*
X95000000Y-67607142D01*
X94928571Y-67535714D01*
X94857142Y-67392857D01*
X94785714Y-67107142D01*
X94785714Y-66750000D01*
X94857142Y-66464285D01*
X94928571Y-66321428D01*
X95000000Y-66250000D01*
X95142857Y-66178571D01*
X91214285Y-46178571D02*
X91714285Y-47678571D01*
X92214285Y-46178571D01*
X93500000Y-47678571D02*
X92642857Y-47678571D01*
X93071428Y-47678571D02*
X93071428Y-46178571D01*
X92928571Y-46392857D01*
X92785714Y-46535714D01*
X92642857Y-46607142D01*
X94142857Y-47535714D02*
X94214285Y-47607142D01*
X94142857Y-47678571D01*
X94071428Y-47607142D01*
X94142857Y-47535714D01*
X94142857Y-47678571D01*
X95142857Y-46178571D02*
X95285714Y-46178571D01*
X95428571Y-46250000D01*
X95500000Y-46321428D01*
X95571428Y-46464285D01*
X95642857Y-46750000D01*
X95642857Y-47107142D01*
X95571428Y-47392857D01*
X95500000Y-47535714D01*
X95428571Y-47607142D01*
X95285714Y-47678571D01*
X95142857Y-47678571D01*
X95000000Y-47607142D01*
X94928571Y-47535714D01*
X94857142Y-47392857D01*
X94785714Y-47107142D01*
X94785714Y-46750000D01*
X94857142Y-46464285D01*
X94928571Y-46321428D01*
X95000000Y-46250000D01*
X95142857Y-46178571D01*
X91214285Y-46178571D02*
X91714285Y-47678571D01*
X92214285Y-46178571D01*
X93500000Y-47678571D02*
X92642857Y-47678571D01*
X93071428Y-47678571D02*
X93071428Y-46178571D01*
X92928571Y-46392857D01*
X92785714Y-46535714D01*
X92642857Y-46607142D01*
X94142857Y-47535714D02*
X94214285Y-47607142D01*
X94142857Y-47678571D01*
X94071428Y-47607142D01*
X94142857Y-47535714D01*
X94142857Y-47678571D01*
X95142857Y-46178571D02*
X95285714Y-46178571D01*
X95428571Y-46250000D01*
X95500000Y-46321428D01*
X95571428Y-46464285D01*
X95642857Y-46750000D01*
X95642857Y-47107142D01*
X95571428Y-47392857D01*
X95500000Y-47535714D01*
X95428571Y-47607142D01*
X95285714Y-47678571D01*
X95142857Y-47678571D01*
X95000000Y-47607142D01*
X94928571Y-47535714D01*
X94857142Y-47392857D01*
X94785714Y-47107142D01*
X94785714Y-46750000D01*
X94857142Y-46464285D01*
X94928571Y-46321428D01*
X95000000Y-46250000D01*
X95142857Y-46178571D01*
D11*
%TO.P,Q1,1*%
%TO.N,GND*%
X111500000Y-68000000D03*
D12*
%TO.P,Q1,3*%
%TO.N,Net-(Q1-Pad3)*%
X108960000Y-68000000D03*
%TO.P,Q1,2*%
%TO.N,Net-(Q1-Pad2)*%
X110230000Y-68000000D03*
%TD*%
%TO.P,J1,1*%
%TO.N,GND*%
%TA.AperFunction,ComponentPad*%
G36*
G01*
X112625001Y-50100000D02*
X111374999Y-50100000D01*
G75*
G02*
X111125000Y-49850001I0J249999D01*
G01*
X111125000Y-49149999D01*
G75*
G02*
X111374999Y-48900000I249999J0D01*
G01*
X112625001Y-48900000D01*
G75*
G02*
X112875000Y-49149999I0J-249999D01*
G01*
X112875000Y-49850001D01*
G75*
G02*
X112625001Y-50100000I-249999J0D01*
G01*
G37*
%TD.AperFunction*%
D13*
%TO.P,J1,2*%
%TO.N,+3V3*%
X112000000Y-47500000D03*
%TD*%
D14*
%TO.P,SW3,2*%
%TO.N,GND*%
X125000000Y-44500000D03*
%TO.P,SW3,1*%
%TO.N,Net-(SW3-Pad1)*%
X125000000Y-64500000D03*
%TD*%
D15*
%TO.P,Q2,3*%
%TO.N,+3V3*%
X121080000Y-72500000D03*
%TO.P,Q2,2*%
%TO.N,Net-(Q2-Pad2)*%
X118540000Y-72500000D03*
D16*
%TO.P,Q2,1*%
%TO.N,Net-(Q1-Pad3)*%
X116000000Y-72500000D03*
%TD*%
D17*
%TO.P,R1,1*%
%TO.N,Net-(Q1-Pad2)*%
X111000000Y-72500000D03*
D18*
%TO.P,R1,2*%
%TO.N,Net-(C1-Pad1)*%
X108460000Y-72500000D03*
%TD*%
D19*
%TO.P,U1,1*%
%TO.N,Net-(U1-Pad1)*%
X124100000Y-103500000D03*
%TO.P,U1,2*%
%TO.N,Net-(U1-Pad2)*%
X124100000Y-101500000D03*
%TO.P,U1,3*%
%TO.N,Net-(Q2-Pad2)*%
X124100000Y-99500000D03*
%TO.P,U1,4*%
%TO.N,Net-(U1-Pad4)*%
X124100000Y-97500000D03*
%TO.P,U1,5*%
%TO.N,Net-(D1-Pad2)*%
X124100000Y-95500000D03*
%TO.P,U1,6*%
%TO.N,Net-(U1-Pad6)*%
X124100000Y-93500000D03*
%TO.P,U1,7*%
%TO.N,Net-(SW2-Pad1)*%
X124100000Y-91500000D03*
%TO.P,U1,8*%
%TO.N,Net-(Q2-Pad2)*%
X124100000Y-89500000D03*
D20*
%TO.P,U1,9*%
%TO.N,Net-(U1-Pad9)*%
X121500000Y-88000000D03*
%TO.P,U1,10*%
%TO.N,Net-(U1-Pad10)*%
X119500000Y-88000000D03*
%TO.P,U1,11*%
%TO.N,Net-(U1-Pad11)*%
X117500000Y-88000000D03*
%TO.P,U1,12*%
%TO.N,Net-(U1-Pad12)*%
X115500000Y-88000000D03*
%TO.P,U1,13*%
%TO.N,Net-(U1-Pad13)*%
X113500000Y-88000000D03*
%TO.P,U1,14*%
%TO.N,Net-(U1-Pad14)*%
X111500000Y-88000000D03*
D19*
%TO.P,U1,15*%
%TO.N,GND*%
X108900000Y-89500000D03*
%TO.P,U1,16*%
X108900000Y-91500000D03*
%TO.P,U1,17*%
%TO.N,Net-(U1-Pad17)*%
X108900000Y-93500000D03*
%TO.P,U1,18*%
%TO.N,Net-(U1-Pad18)*%
X108900000Y-95500000D03*
%TO.P,U1,19*%
%TO.N,Net-(U1-Pad19)*%
X108900000Y-97500000D03*
%TO.P,U1,20*%
%TO.N,Net-(SW3-Pad1)*%
X108900000Y-99500000D03*
%TO.P,U1,21*%
%TO.N,Net-(U1-Pad21)*%
X108900000Y-101500000D03*
%TO.P,U1,22*%
%TO.N,Net-(U1-Pad22)*%
X108900000Y-103500000D03*
%TD*%
D21*
%TO.P,C1,1*%
%TO.N,Net-(C1-Pad1)*%
X112015001Y-76500000D03*
D22*
%TO.P,C1,2*%
%TO.N,GND*%
X112015001Y-81500000D03*
%TD*%
D21*
%TO.P,D1,1*%
%TO.N,Net-(C1-Pad1)*%
X108500000Y-85000000D03*
D23*
%TO.P,D1,2*%
%TO.N,Net-(D1-Pad2)*%
X116120000Y-85000000D03*
%TD*%
D24*
%TO.P,SW2,2*%
%TO.N,GND*%
X119500000Y-77824999D03*
%TO.P,SW2,1*%
%TO.N,Net-(SW2-Pad1)*%
X124000000Y-77824999D03*
%TO.P,SW2,2*%
%TO.N,GND*%
X119500000Y-84324999D03*
%TO.P,SW2,1*%
%TO.N,Net-(SW2-Pad1)*%
X124000000Y-84324999D03*
%TD*%
D18*
%TO.P,R2,2*%
%TO.N,Net-(Q1-Pad3)*%
X120460000Y-75000000D03*
D17*
%TO.P,R2,1*%
%TO.N,+3V3*%
X123000000Y-75000000D03*
%TD*%
D24*
%TO.P,SW2,1*%
%TO.N,Net-(SW2-Pad1)*%
X124000000Y-84324999D03*
%TO.P,SW2,2*%
%TO.N,GND*%
X119500000Y-84324999D03*
%TO.P,SW2,1*%
%TO.N,Net-(SW2-Pad1)*%
X124000000Y-77824999D03*
%TO.P,SW2,2*%
%TO.N,GND*%
X119500000Y-77824999D03*
%TD*%
D14*
%TO.P,SW1,2*%
%TO.N,Net-(C1-Pad1)*%
X108000000Y-64500000D03*
%TO.P,SW1,1*%
%TO.N,+3V3*%
X108000000Y-44500000D03*
%TD*%
D17*
%TO.P,R2,1*%
%TO.N,+3V3*%
X123000000Y-75000000D03*
D18*
%TO.P,R2,2*%
%TO.N,Net-(Q1-Pad3)*%
X120460000Y-75000000D03*
%TD*%
D22*
%TO.P,C1,2*%
%TO.N,GND*%
X112015001Y-81500000D03*
D21*
%TO.P,C1,1*%
%TO.N,Net-(C1-Pad1)*%
X112015001Y-76500000D03*
%TD*%
D16*
%TO.P,Q2,1*%
%TO.N,Net-(Q1-Pad3)*%
X116000000Y-72500000D03*
D15*
%TO.P,Q2,2*%
%TO.N,Net-(Q2-Pad2)*%
X118540000Y-72500000D03*
%TO.P,Q2,3*%
%TO.N,+3V3*%
X121080000Y-72500000D03*
%TD*%
D13*
%TO.P,J1,2*%
%TO.N,+3V3*%
X112000000Y-47500000D03*
%TO.P,J1,1*%
%TO.N,GND*%
%TA.AperFunction,ComponentPad*%
G36*
G01*
X112625001Y-50100000D02*
X111374999Y-50100000D01*
G75*
G02*
X111125000Y-49850001I0J249999D01*
G01*
X111125000Y-49149999D01*
G75*
G02*
X111374999Y-48900000I249999J0D01*
G01*
X112625001Y-48900000D01*
G75*
G02*
X112875000Y-49149999I0J-249999D01*
G01*
X112875000Y-49850001D01*
G75*
G02*
X112625001Y-50100000I-249999J0D01*
G01*
G37*
%TD.AperFunction*%
%TD*%
D18*
%TO.P,R1,2*%
%TO.N,Net-(C1-Pad1)*%
X108460000Y-72500000D03*
D17*
%TO.P,R1,1*%
%TO.N,Net-(Q1-Pad2)*%
X111000000Y-72500000D03*
%TD*%
D23*
%TO.P,D1,2*%
%TO.N,Net-(D1-Pad2)*%
X116120000Y-85000000D03*
D21*
%TO.P,D1,1*%
%TO.N,Net-(C1-Pad1)*%
X108500000Y-85000000D03*
%TD*%
D12*
%TO.P,Q1,2*%
%TO.N,Net-(Q1-Pad2)*%
X110230000Y-68000000D03*
%TO.P,Q1,3*%
%TO.N,Net-(Q1-Pad3)*%
X108960000Y-68000000D03*
D11*
%TO.P,Q1,1*%
%TO.N,GND*%
X111500000Y-68000000D03*
%TD*%
D19*
%TO.P,U1,22*%
%TO.N,Net-(U1-Pad22)*%
X108900000Y-103500000D03*
%TO.P,U1,21*%
%TO.N,Net-(U1-Pad21)*%
X108900000Y-101500000D03*
%TO.P,U1,20*%
%TO.N,Net-(SW3-Pad1)*%
X108900000Y-99500000D03*
%TO.P,U1,19*%
%TO.N,Net-(U1-Pad19)*%
X108900000Y-97500000D03*
%TO.P,U1,18*%
%TO.N,Net-(U1-Pad18)*%
X108900000Y-95500000D03*
%TO.P,U1,17*%
%TO.N,Net-(U1-Pad17)*%
X108900000Y-93500000D03*
%TO.P,U1,16*%
%TO.N,GND*%
X108900000Y-91500000D03*
%TO.P,U1,15*%
X108900000Y-89500000D03*
D20*
%TO.P,U1,14*%
%TO.N,Net-(U1-Pad14)*%
X111500000Y-88000000D03*
%TO.P,U1,13*%
%TO.N,Net-(U1-Pad13)*%
X113500000Y-88000000D03*
%TO.P,U1,12*%
%TO.N,Net-(U1-Pad12)*%
X115500000Y-88000000D03*
%TO.P,U1,11*%
%TO.N,Net-(U1-Pad11)*%
X117500000Y-88000000D03*
%TO.P,U1,10*%
%TO.N,Net-(U1-Pad10)*%
X119500000Y-88000000D03*
%TO.P,U1,9*%
%TO.N,Net-(U1-Pad9)*%
X121500000Y-88000000D03*
D19*
%TO.P,U1,8*%
%TO.N,Net-(Q2-Pad2)*%
X124100000Y-89500000D03*
%TO.P,U1,7*%
%TO.N,Net-(SW2-Pad1)*%
X124100000Y-91500000D03*
%TO.P,U1,6*%
%TO.N,Net-(U1-Pad6)*%
X124100000Y-93500000D03*
%TO.P,U1,5*%
%TO.N,Net-(D1-Pad2)*%
X124100000Y-95500000D03*
%TO.P,U1,4*%
%TO.N,Net-(U1-Pad4)*%
X124100000Y-97500000D03*
%TO.P,U1,3*%
%TO.N,Net-(Q2-Pad2)*%
X124100000Y-99500000D03*
%TO.P,U1,2*%
%TO.N,Net-(U1-Pad2)*%
X124100000Y-101500000D03*
%TO.P,U1,1*%
%TO.N,Net-(U1-Pad1)*%
X124100000Y-103500000D03*
%TD*%
D14*
%TO.P,SW3,1*%
%TO.N,Net-(SW3-Pad1)*%
X125000000Y-64500000D03*
%TO.P,SW3,2*%
%TO.N,GND*%
X125000000Y-44500000D03*
%TD*%
D25*
%TO.P,J1,2*%
%TO.N,+3V3*%
X102000000Y-128500000D03*
%TO.P,J1,1*%
%TO.N,GND*%
%TA.AperFunction,ComponentPad*%
G36*
G01*
X99400000Y-129125001D02*
X99400000Y-127874999D01*
G75*
G02*
X99649999Y-127625000I249999J0D01*
G01*
X100350001Y-127625000D01*
G75*
G02*
X100600000Y-127874999I0J-249999D01*
G01*
X100600000Y-129125001D01*
G75*
G02*
X100350001Y-129375000I-249999J0D01*
G01*
X99649999Y-129375000D01*
G75*
G02*
X99400000Y-129125001I0J249999D01*
G01*
G37*
%TD.AperFunction*%
%TD*%
D24*
%TO.P,SW2,2*%
%TO.N,GND*%
X71675001Y-136000000D03*
%TO.P,SW2,1*%
%TO.N,Net-(SW2-Pad1)*%
X71675001Y-140500000D03*
%TO.P,SW2,2*%
%TO.N,GND*%
X65175001Y-136000000D03*
%TO.P,SW2,1*%
%TO.N,Net-(SW2-Pad1)*%
X65175001Y-140500000D03*
%TD*%
D26*
%TO.P,Q2,3*%
%TO.N,+3V3*%
X77000000Y-137580000D03*
%TO.P,Q2,2*%
%TO.N,Net-(Q2-Pad2)*%
X77000000Y-135040000D03*
D27*
%TO.P,Q2,1*%
%TO.N,Net-(Q1-Pad3)*%
X77000000Y-132500000D03*
%TD*%
D14*
%TO.P,SW1,1*%
%TO.N,+3V3*%
X105000000Y-124500000D03*
%TO.P,SW1,2*%
%TO.N,Net-(C1-Pad1)*%
X85000000Y-124500000D03*
%TD*%
D28*
%TO.P,Q1,2*%
%TO.N,Net-(Q1-Pad2)*%
X81500000Y-126730000D03*
%TO.P,Q1,3*%
%TO.N,Net-(Q1-Pad3)*%
X81500000Y-125460000D03*
D29*
%TO.P,Q1,1*%
%TO.N,GND*%
X81500000Y-128000000D03*
%TD*%
D18*
%TO.P,R2,2*%
%TO.N,Net-(Q1-Pad3)*%
X74500000Y-136960000D03*
D17*
%TO.P,R2,1*%
%TO.N,+3V3*%
X74500000Y-139500000D03*
%TD*%
%TO.P,R2,1*%
%TO.N,+3V3*%
X74500000Y-139500000D03*
D18*
%TO.P,R2,2*%
%TO.N,Net-(Q1-Pad3)*%
X74500000Y-136960000D03*
%TD*%
D22*
%TO.P,C1,2*%
%TO.N,GND*%
X68000000Y-128515001D03*
D21*
%TO.P,C1,1*%
%TO.N,Net-(C1-Pad1)*%
X73000000Y-128515001D03*
%TD*%
D24*
%TO.P,SW2,1*%
%TO.N,Net-(SW2-Pad1)*%
X65175001Y-140500000D03*
%TO.P,SW2,2*%
%TO.N,GND*%
X65175001Y-136000000D03*
%TO.P,SW2,1*%
%TO.N,Net-(SW2-Pad1)*%
X71675001Y-140500000D03*
%TO.P,SW2,2*%
%TO.N,GND*%
X71675001Y-136000000D03*
%TD*%
D14*
%TO.P,SW3,1*%
%TO.N,Net-(SW3-Pad1)*%
X85000000Y-141500000D03*
%TO.P,SW3,2*%
%TO.N,GND*%
X105000000Y-141500000D03*
%TD*%
D21*
%TO.P,C1,1*%
%TO.N,Net-(C1-Pad1)*%
X73000000Y-128515001D03*
D22*
%TO.P,C1,2*%
%TO.N,GND*%
X68000000Y-128515001D03*
%TD*%
D29*
%TO.P,Q1,1*%
%TO.N,GND*%
X81500000Y-128000000D03*
D28*
%TO.P,Q1,3*%
%TO.N,Net-(Q1-Pad3)*%
X81500000Y-125460000D03*
%TO.P,Q1,2*%
%TO.N,Net-(Q1-Pad2)*%
X81500000Y-126730000D03*
%TD*%
D27*
%TO.P,Q2,1*%
%TO.N,Net-(Q1-Pad3)*%
X77000000Y-132500000D03*
D26*
%TO.P,Q2,2*%
%TO.N,Net-(Q2-Pad2)*%
X77000000Y-135040000D03*
%TO.P,Q2,3*%
%TO.N,+3V3*%
X77000000Y-137580000D03*
%TD*%
D30*
%TO.P,U1,22*%
%TO.N,Net-(U1-Pad22)*%
X46000000Y-125400000D03*
%TO.P,U1,21*%
%TO.N,Net-(U1-Pad21)*%
X48000000Y-125400000D03*
%TO.P,U1,20*%
%TO.N,Net-(SW3-Pad1)*%
X50000000Y-125400000D03*
%TO.P,U1,19*%
%TO.N,Net-(U1-Pad19)*%
X52000000Y-125400000D03*
%TO.P,U1,18*%
%TO.N,Net-(U1-Pad18)*%
X54000000Y-125400000D03*
%TO.P,U1,17*%
%TO.N,Net-(U1-Pad17)*%
X56000000Y-125400000D03*
%TO.P,U1,16*%
%TO.N,GND*%
X58000000Y-125400000D03*
%TO.P,U1,15*%
X60000000Y-125400000D03*
D31*
%TO.P,U1,14*%
%TO.N,Net-(U1-Pad14)*%
X61500000Y-128000000D03*
%TO.P,U1,13*%
%TO.N,Net-(U1-Pad13)*%
X61500000Y-130000000D03*
%TO.P,U1,12*%
%TO.N,Net-(U1-Pad12)*%
X61500000Y-132000000D03*
%TO.P,U1,11*%
%TO.N,Net-(U1-Pad11)*%
X61500000Y-134000000D03*
%TO.P,U1,10*%
%TO.N,Net-(U1-Pad10)*%
X61500000Y-136000000D03*
%TO.P,U1,9*%
%TO.N,Net-(U1-Pad9)*%
X61500000Y-138000000D03*
D30*
%TO.P,U1,8*%
%TO.N,Net-(Q2-Pad2)*%
X60000000Y-140600000D03*
%TO.P,U1,7*%
%TO.N,Net-(SW2-Pad1)*%
X58000000Y-140600000D03*
%TO.P,U1,6*%
%TO.N,Net-(U1-Pad6)*%
X56000000Y-140600000D03*
%TO.P,U1,5*%
%TO.N,Net-(D1-Pad2)*%
X54000000Y-140600000D03*
%TO.P,U1,4*%
%TO.N,Net-(U1-Pad4)*%
X52000000Y-140600000D03*
%TO.P,U1,3*%
%TO.N,Net-(Q2-Pad2)*%
X50000000Y-140600000D03*
%TO.P,U1,2*%
%TO.N,Net-(U1-Pad2)*%
X48000000Y-140600000D03*
%TO.P,U1,1*%
%TO.N,Net-(U1-Pad1)*%
X46000000Y-140600000D03*
%TD*%
D23*
%TO.P,D1,2*%
%TO.N,Net-(D1-Pad2)*%
X64500000Y-132620000D03*
D21*
%TO.P,D1,1*%
%TO.N,Net-(C1-Pad1)*%
X64500000Y-125000000D03*
%TD*%
D18*
%TO.P,R1,2*%
%TO.N,Net-(C1-Pad1)*%
X77000000Y-124960000D03*
D17*
%TO.P,R1,1*%
%TO.N,Net-(Q1-Pad2)*%
X77000000Y-127500000D03*
%TD*%
D21*
%TO.P,D1,1*%
%TO.N,Net-(C1-Pad1)*%
X64500000Y-125000000D03*
D23*
%TO.P,D1,2*%
%TO.N,Net-(D1-Pad2)*%
X64500000Y-132620000D03*
%TD*%
D17*
%TO.P,R1,1*%
%TO.N,Net-(Q1-Pad2)*%
X77000000Y-127500000D03*
D18*
%TO.P,R1,2*%
%TO.N,Net-(C1-Pad1)*%
X77000000Y-124960000D03*
%TD*%
D14*
%TO.P,SW3,2*%
%TO.N,GND*%
X105000000Y-141500000D03*
%TO.P,SW3,1*%
%TO.N,Net-(SW3-Pad1)*%
X85000000Y-141500000D03*
%TD*%
D30*
%TO.P,U1,1*%
%TO.N,Net-(U1-Pad1)*%
X46000000Y-140600000D03*
%TO.P,U1,2*%
%TO.N,Net-(U1-Pad2)*%
X48000000Y-140600000D03*
%TO.P,U1,3*%
%TO.N,Net-(Q2-Pad2)*%
X50000000Y-140600000D03*
%TO.P,U1,4*%
%TO.N,Net-(U1-Pad4)*%
X52000000Y-140600000D03*
%TO.P,U1,5*%
%TO.N,Net-(D1-Pad2)*%
X54000000Y-140600000D03*
%TO.P,U1,6*%
%TO.N,Net-(U1-Pad6)*%
X56000000Y-140600000D03*
%TO.P,U1,7*%
%TO.N,Net-(SW2-Pad1)*%
X58000000Y-140600000D03*
%TO.P,U1,8*%
%TO.N,Net-(Q2-Pad2)*%
X60000000Y-140600000D03*
D31*
%TO.P,U1,9*%
%TO.N,Net-(U1-Pad9)*%
X61500000Y-138000000D03*
%TO.P,U1,10*%
%TO.N,Net-(U1-Pad10)*%
X61500000Y-136000000D03*
%TO.P,U1,11*%
%TO.N,Net-(U1-Pad11)*%
X61500000Y-134000000D03*
%TO.P,U1,12*%
%TO.N,Net-(U1-Pad12)*%
X61500000Y-132000000D03*
%TO.P,U1,13*%
%TO.N,Net-(U1-Pad13)*%
X61500000Y-130000000D03*
%TO.P,U1,14*%
%TO.N,Net-(U1-Pad14)*%
X61500000Y-128000000D03*
D30*
%TO.P,U1,15*%
%TO.N,GND*%
X60000000Y-125400000D03*
%TO.P,U1,16*%
X58000000Y-125400000D03*
%TO.P,U1,17*%
%TO.N,Net-(U1-Pad17)*%
X56000000Y-125400000D03*
%TO.P,U1,18*%
%TO.N,Net-(U1-Pad18)*%
X54000000Y-125400000D03*
%TO.P,U1,19*%
%TO.N,Net-(U1-Pad19)*%
X52000000Y-125400000D03*
%TO.P,U1,20*%
%TO.N,Net-(SW3-Pad1)*%
X50000000Y-125400000D03*
%TO.P,U1,21*%
%TO.N,Net-(U1-Pad21)*%
X48000000Y-125400000D03*
%TO.P,U1,22*%
%TO.N,Net-(U1-Pad22)*%
X46000000Y-125400000D03*
%TD*%
%TO.P,J1,1*%
%TO.N,GND*%
%TA.AperFunction,ComponentPad*%
G36*
G01*
X99400000Y-129125001D02*
X99400000Y-127874999D01*
G75*
G02*
X99649999Y-127625000I249999J0D01*
G01*
X100350001Y-127625000D01*
G75*
G02*
X100600000Y-127874999I0J-249999D01*
G01*
X100600000Y-129125001D01*
G75*
G02*
X100350001Y-129375000I-249999J0D01*
G01*
X99649999Y-129375000D01*
G75*
G02*
X99400000Y-129125001I0J249999D01*
G01*
G37*
%TD.AperFunction*%
D25*
%TO.P,J1,2*%
%TO.N,+3V3*%
X102000000Y-128500000D03*
%TD*%
D17*
%TO.P,R2,1*%
%TO.N,+3V3*%
X74500000Y-119500000D03*
D18*
%TO.P,R2,2*%
%TO.N,Net-(Q1-Pad3)*%
X74500000Y-116960000D03*
%TD*%
D22*
%TO.P,C1,2*%
%TO.N,GND*%
X68000000Y-108515001D03*
D21*
%TO.P,C1,1*%
%TO.N,Net-(C1-Pad1)*%
X73000000Y-108515001D03*
%TD*%
%TO.P,C1,1*%
%TO.N,Net-(C1-Pad1)*%
X73000000Y-108515001D03*
D22*
%TO.P,C1,2*%
%TO.N,GND*%
X68000000Y-108515001D03*
%TD*%
D18*
%TO.P,R2,2*%
%TO.N,Net-(Q1-Pad3)*%
X74500000Y-116960000D03*
D17*
%TO.P,R2,1*%
%TO.N,+3V3*%
X74500000Y-119500000D03*
%TD*%
D24*
%TO.P,SW2,1*%
%TO.N,Net-(SW2-Pad1)*%
X65175001Y-120500000D03*
%TO.P,SW2,2*%
%TO.N,GND*%
X65175001Y-116000000D03*
%TO.P,SW2,1*%
%TO.N,Net-(SW2-Pad1)*%
X71675001Y-120500000D03*
%TO.P,SW2,2*%
%TO.N,GND*%
X71675001Y-116000000D03*
%TD*%
D27*
%TO.P,Q2,1*%
%TO.N,Net-(Q1-Pad3)*%
X77000000Y-112500000D03*
D26*
%TO.P,Q2,2*%
%TO.N,Net-(Q2-Pad2)*%
X77000000Y-115040000D03*
%TO.P,Q2,3*%
%TO.N,+3V3*%
X77000000Y-117580000D03*
%TD*%
D24*
%TO.P,SW2,2*%
%TO.N,GND*%
X71675001Y-116000000D03*
%TO.P,SW2,1*%
%TO.N,Net-(SW2-Pad1)*%
X71675001Y-120500000D03*
%TO.P,SW2,2*%
%TO.N,GND*%
X65175001Y-116000000D03*
%TO.P,SW2,1*%
%TO.N,Net-(SW2-Pad1)*%
X65175001Y-120500000D03*
%TD*%
D14*
%TO.P,SW1,2*%
%TO.N,Net-(C1-Pad1)*%
X85000000Y-104500000D03*
%TO.P,SW1,1*%
%TO.N,+3V3*%
X105000000Y-104500000D03*
%TD*%
%TO.P,SW3,2*%
%TO.N,GND*%
X105000000Y-121500000D03*
%TO.P,SW3,1*%
%TO.N,Net-(SW3-Pad1)*%
X85000000Y-121500000D03*
%TD*%
%TO.P,J1,1*%
%TO.N,GND*%
%TA.AperFunction,ComponentPad*%
G36*
G01*
X99400000Y-109125001D02*
X99400000Y-107874999D01*
G75*
G02*
X99649999Y-107625000I249999J0D01*
G01*
X100350001Y-107625000D01*
G75*
G02*
X100600000Y-107874999I0J-249999D01*
G01*
X100600000Y-109125001D01*
G75*
G02*
X100350001Y-109375000I-249999J0D01*
G01*
X99649999Y-109375000D01*
G75*
G02*
X99400000Y-109125001I0J249999D01*
G01*
G37*
%TD.AperFunction*%
D25*
%TO.P,J1,2*%
%TO.N,+3V3*%
X102000000Y-108500000D03*
%TD*%
D29*
%TO.P,Q1,1*%
%TO.N,GND*%
X81500000Y-108000000D03*
D28*
%TO.P,Q1,3*%
%TO.N,Net-(Q1-Pad3)*%
X81500000Y-105460000D03*
%TO.P,Q1,2*%
%TO.N,Net-(Q1-Pad2)*%
X81500000Y-106730000D03*
%TD*%
D23*
%TO.P,D1,2*%
%TO.N,Net-(D1-Pad2)*%
X64500000Y-112620000D03*
D21*
%TO.P,D1,1*%
%TO.N,Net-(C1-Pad1)*%
X64500000Y-105000000D03*
%TD*%
D28*
%TO.P,Q1,2*%
%TO.N,Net-(Q1-Pad2)*%
X81500000Y-106730000D03*
%TO.P,Q1,3*%
%TO.N,Net-(Q1-Pad3)*%
X81500000Y-105460000D03*
D29*
%TO.P,Q1,1*%
%TO.N,GND*%
X81500000Y-108000000D03*
%TD*%
D14*
%TO.P,SW3,1*%
%TO.N,Net-(SW3-Pad1)*%
X85000000Y-121500000D03*
%TO.P,SW3,2*%
%TO.N,GND*%
X105000000Y-121500000D03*
%TD*%
D18*
%TO.P,R1,2*%
%TO.N,Net-(C1-Pad1)*%
X77000000Y-104960000D03*
D17*
%TO.P,R1,1*%
%TO.N,Net-(Q1-Pad2)*%
X77000000Y-107500000D03*
%TD*%
D30*
%TO.P,U1,22*%
%TO.N,Net-(U1-Pad22)*%
X46000000Y-105400000D03*
%TO.P,U1,21*%
%TO.N,Net-(U1-Pad21)*%
X48000000Y-105400000D03*
%TO.P,U1,20*%
%TO.N,Net-(SW3-Pad1)*%
X50000000Y-105400000D03*
%TO.P,U1,19*%
%TO.N,Net-(U1-Pad19)*%
X52000000Y-105400000D03*
%TO.P,U1,18*%
%TO.N,Net-(U1-Pad18)*%
X54000000Y-105400000D03*
%TO.P,U1,17*%
%TO.N,Net-(U1-Pad17)*%
X56000000Y-105400000D03*
%TO.P,U1,16*%
%TO.N,GND*%
X58000000Y-105400000D03*
%TO.P,U1,15*%
X60000000Y-105400000D03*
D31*
%TO.P,U1,14*%
%TO.N,Net-(U1-Pad14)*%
X61500000Y-108000000D03*
%TO.P,U1,13*%
%TO.N,Net-(U1-Pad13)*%
X61500000Y-110000000D03*
%TO.P,U1,12*%
%TO.N,Net-(U1-Pad12)*%
X61500000Y-112000000D03*
%TO.P,U1,11*%
%TO.N,Net-(U1-Pad11)*%
X61500000Y-114000000D03*
%TO.P,U1,10*%
%TO.N,Net-(U1-Pad10)*%
X61500000Y-116000000D03*
%TO.P,U1,9*%
%TO.N,Net-(U1-Pad9)*%
X61500000Y-118000000D03*
D30*
%TO.P,U1,8*%
%TO.N,Net-(Q2-Pad2)*%
X60000000Y-120600000D03*
%TO.P,U1,7*%
%TO.N,Net-(SW2-Pad1)*%
X58000000Y-120600000D03*
%TO.P,U1,6*%
%TO.N,Net-(U1-Pad6)*%
X56000000Y-120600000D03*
%TO.P,U1,5*%
%TO.N,Net-(D1-Pad2)*%
X54000000Y-120600000D03*
%TO.P,U1,4*%
%TO.N,Net-(U1-Pad4)*%
X52000000Y-120600000D03*
%TO.P,U1,3*%
%TO.N,Net-(Q2-Pad2)*%
X50000000Y-120600000D03*
%TO.P,U1,2*%
%TO.N,Net-(U1-Pad2)*%
X48000000Y-120600000D03*
%TO.P,U1,1*%
%TO.N,Net-(U1-Pad1)*%
X46000000Y-120600000D03*
%TD*%
D25*
%TO.P,J1,2*%
%TO.N,+3V3*%
X102000000Y-108500000D03*
%TO.P,J1,1*%
%TO.N,GND*%
%TA.AperFunction,ComponentPad*%
G36*
G01*
X99400000Y-109125001D02*
X99400000Y-107874999D01*
G75*
G02*
X99649999Y-107625000I249999J0D01*
G01*
X100350001Y-107625000D01*
G75*
G02*
X100600000Y-107874999I0J-249999D01*
G01*
X100600000Y-109125001D01*
G75*
G02*
X100350001Y-109375000I-249999J0D01*
G01*
X99649999Y-109375000D01*
G75*
G02*
X99400000Y-109125001I0J249999D01*
G01*
G37*
%TD.AperFunction*%
%TD*%
D26*
%TO.P,Q2,3*%
%TO.N,+3V3*%
X77000000Y-117580000D03*
%TO.P,Q2,2*%
%TO.N,Net-(Q2-Pad2)*%
X77000000Y-115040000D03*
D27*
%TO.P,Q2,1*%
%TO.N,Net-(Q1-Pad3)*%
X77000000Y-112500000D03*
%TD*%
D17*
%TO.P,R1,1*%
%TO.N,Net-(Q1-Pad2)*%
X77000000Y-107500000D03*
D18*
%TO.P,R1,2*%
%TO.N,Net-(C1-Pad1)*%
X77000000Y-104960000D03*
%TD*%
D21*
%TO.P,D1,1*%
%TO.N,Net-(C1-Pad1)*%
X64500000Y-105000000D03*
D23*
%TO.P,D1,2*%
%TO.N,Net-(D1-Pad2)*%
X64500000Y-112620000D03*
%TD*%
D30*
%TO.P,U1,1*%
%TO.N,Net-(U1-Pad1)*%
X46000000Y-120600000D03*
%TO.P,U1,2*%
%TO.N,Net-(U1-Pad2)*%
X48000000Y-120600000D03*
%TO.P,U1,3*%
%TO.N,Net-(Q2-Pad2)*%
X50000000Y-120600000D03*
%TO.P,U1,4*%
%TO.N,Net-(U1-Pad4)*%
X52000000Y-120600000D03*
%TO.P,U1,5*%
%TO.N,Net-(D1-Pad2)*%
X54000000Y-120600000D03*
%TO.P,U1,6*%
%TO.N,Net-(U1-Pad6)*%
X56000000Y-120600000D03*
%TO.P,U1,7*%
%TO.N,Net-(SW2-Pad1)*%
X58000000Y-120600000D03*
%TO.P,U1,8*%
%TO.N,Net-(Q2-Pad2)*%
X60000000Y-120600000D03*
D31*
%TO.P,U1,9*%
%TO.N,Net-(U1-Pad9)*%
X61500000Y-118000000D03*
%TO.P,U1,10*%
%TO.N,Net-(U1-Pad10)*%
X61500000Y-116000000D03*
%TO.P,U1,11*%
%TO.N,Net-(U1-Pad11)*%
X61500000Y-114000000D03*
%TO.P,U1,12*%
%TO.N,Net-(U1-Pad12)*%
X61500000Y-112000000D03*
%TO.P,U1,13*%
%TO.N,Net-(U1-Pad13)*%
X61500000Y-110000000D03*
%TO.P,U1,14*%
%TO.N,Net-(U1-Pad14)*%
X61500000Y-108000000D03*
D30*
%TO.P,U1,15*%
%TO.N,GND*%
X60000000Y-105400000D03*
%TO.P,U1,16*%
X58000000Y-105400000D03*
%TO.P,U1,17*%
%TO.N,Net-(U1-Pad17)*%
X56000000Y-105400000D03*
%TO.P,U1,18*%
%TO.N,Net-(U1-Pad18)*%
X54000000Y-105400000D03*
%TO.P,U1,19*%
%TO.N,Net-(U1-Pad19)*%
X52000000Y-105400000D03*
%TO.P,U1,20*%
%TO.N,Net-(SW3-Pad1)*%
X50000000Y-105400000D03*
%TO.P,U1,21*%
%TO.N,Net-(U1-Pad21)*%
X48000000Y-105400000D03*
%TO.P,U1,22*%
%TO.N,Net-(U1-Pad22)*%
X46000000Y-105400000D03*
%TD*%
D28*
%TO.P,Q1,2*%
%TO.N,Net-(Q1-Pad2)*%
X81500000Y-86730000D03*
%TO.P,Q1,3*%
%TO.N,Net-(Q1-Pad3)*%
X81500000Y-85460000D03*
D29*
%TO.P,Q1,1*%
%TO.N,GND*%
X81500000Y-88000000D03*
%TD*%
D21*
%TO.P,D1,1*%
%TO.N,Net-(C1-Pad1)*%
X64500000Y-85000000D03*
D23*
%TO.P,D1,2*%
%TO.N,Net-(D1-Pad2)*%
X64500000Y-92620000D03*
%TD*%
D30*
%TO.P,U1,1*%
%TO.N,Net-(U1-Pad1)*%
X46000000Y-100600000D03*
%TO.P,U1,2*%
%TO.N,Net-(U1-Pad2)*%
X48000000Y-100600000D03*
%TO.P,U1,3*%
%TO.N,Net-(Q2-Pad2)*%
X50000000Y-100600000D03*
%TO.P,U1,4*%
%TO.N,Net-(U1-Pad4)*%
X52000000Y-100600000D03*
%TO.P,U1,5*%
%TO.N,Net-(D1-Pad2)*%
X54000000Y-100600000D03*
%TO.P,U1,6*%
%TO.N,Net-(U1-Pad6)*%
X56000000Y-100600000D03*
%TO.P,U1,7*%
%TO.N,Net-(SW2-Pad1)*%
X58000000Y-100600000D03*
%TO.P,U1,8*%
%TO.N,Net-(Q2-Pad2)*%
X60000000Y-100600000D03*
D31*
%TO.P,U1,9*%
%TO.N,Net-(U1-Pad9)*%
X61500000Y-98000000D03*
%TO.P,U1,10*%
%TO.N,Net-(U1-Pad10)*%
X61500000Y-96000000D03*
%TO.P,U1,11*%
%TO.N,Net-(U1-Pad11)*%
X61500000Y-94000000D03*
%TO.P,U1,12*%
%TO.N,Net-(U1-Pad12)*%
X61500000Y-92000000D03*
%TO.P,U1,13*%
%TO.N,Net-(U1-Pad13)*%
X61500000Y-90000000D03*
%TO.P,U1,14*%
%TO.N,Net-(U1-Pad14)*%
X61500000Y-88000000D03*
D30*
%TO.P,U1,15*%
%TO.N,GND*%
X60000000Y-85400000D03*
%TO.P,U1,16*%
X58000000Y-85400000D03*
%TO.P,U1,17*%
%TO.N,Net-(U1-Pad17)*%
X56000000Y-85400000D03*
%TO.P,U1,18*%
%TO.N,Net-(U1-Pad18)*%
X54000000Y-85400000D03*
%TO.P,U1,19*%
%TO.N,Net-(U1-Pad19)*%
X52000000Y-85400000D03*
%TO.P,U1,20*%
%TO.N,Net-(SW3-Pad1)*%
X50000000Y-85400000D03*
%TO.P,U1,21*%
%TO.N,Net-(U1-Pad21)*%
X48000000Y-85400000D03*
%TO.P,U1,22*%
%TO.N,Net-(U1-Pad22)*%
X46000000Y-85400000D03*
%TD*%
D29*
%TO.P,Q1,1*%
%TO.N,GND*%
X81500000Y-88000000D03*
D28*
%TO.P,Q1,3*%
%TO.N,Net-(Q1-Pad3)*%
X81500000Y-85460000D03*
%TO.P,Q1,2*%
%TO.N,Net-(Q1-Pad2)*%
X81500000Y-86730000D03*
%TD*%
D14*
%TO.P,SW3,2*%
%TO.N,GND*%
X105000000Y-101500000D03*
%TO.P,SW3,1*%
%TO.N,Net-(SW3-Pad1)*%
X85000000Y-101500000D03*
%TD*%
D25*
%TO.P,J1,2*%
%TO.N,+3V3*%
X102000000Y-88500000D03*
%TO.P,J1,1*%
%TO.N,GND*%
%TA.AperFunction,ComponentPad*%
G36*
G01*
X99400000Y-89125001D02*
X99400000Y-87874999D01*
G75*
G02*
X99649999Y-87625000I249999J0D01*
G01*
X100350001Y-87625000D01*
G75*
G02*
X100600000Y-87874999I0J-249999D01*
G01*
X100600000Y-89125001D01*
G75*
G02*
X100350001Y-89375000I-249999J0D01*
G01*
X99649999Y-89375000D01*
G75*
G02*
X99400000Y-89125001I0J249999D01*
G01*
G37*
%TD.AperFunction*%
%TD*%
%TO.P,J1,1*%
%TO.N,GND*%
%TA.AperFunction,ComponentPad*%
G36*
G01*
X99400000Y-89125001D02*
X99400000Y-87874999D01*
G75*
G02*
X99649999Y-87625000I249999J0D01*
G01*
X100350001Y-87625000D01*
G75*
G02*
X100600000Y-87874999I0J-249999D01*
G01*
X100600000Y-89125001D01*
G75*
G02*
X100350001Y-89375000I-249999J0D01*
G01*
X99649999Y-89375000D01*
G75*
G02*
X99400000Y-89125001I0J249999D01*
G01*
G37*
%TD.AperFunction*%
%TO.P,J1,2*%
%TO.N,+3V3*%
X102000000Y-88500000D03*
%TD*%
D27*
%TO.P,Q2,1*%
%TO.N,Net-(Q1-Pad3)*%
X77000000Y-92500000D03*
D26*
%TO.P,Q2,2*%
%TO.N,Net-(Q2-Pad2)*%
X77000000Y-95040000D03*
%TO.P,Q2,3*%
%TO.N,+3V3*%
X77000000Y-97580000D03*
%TD*%
D18*
%TO.P,R1,2*%
%TO.N,Net-(C1-Pad1)*%
X77000000Y-84960000D03*
D17*
%TO.P,R1,1*%
%TO.N,Net-(Q1-Pad2)*%
X77000000Y-87500000D03*
%TD*%
%TO.P,R1,1*%
%TO.N,Net-(Q1-Pad2)*%
X77000000Y-87500000D03*
D18*
%TO.P,R1,2*%
%TO.N,Net-(C1-Pad1)*%
X77000000Y-84960000D03*
%TD*%
D30*
%TO.P,U1,22*%
%TO.N,Net-(U1-Pad22)*%
X46000000Y-85400000D03*
%TO.P,U1,21*%
%TO.N,Net-(U1-Pad21)*%
X48000000Y-85400000D03*
%TO.P,U1,20*%
%TO.N,Net-(SW3-Pad1)*%
X50000000Y-85400000D03*
%TO.P,U1,19*%
%TO.N,Net-(U1-Pad19)*%
X52000000Y-85400000D03*
%TO.P,U1,18*%
%TO.N,Net-(U1-Pad18)*%
X54000000Y-85400000D03*
%TO.P,U1,17*%
%TO.N,Net-(U1-Pad17)*%
X56000000Y-85400000D03*
%TO.P,U1,16*%
%TO.N,GND*%
X58000000Y-85400000D03*
%TO.P,U1,15*%
X60000000Y-85400000D03*
D31*
%TO.P,U1,14*%
%TO.N,Net-(U1-Pad14)*%
X61500000Y-88000000D03*
%TO.P,U1,13*%
%TO.N,Net-(U1-Pad13)*%
X61500000Y-90000000D03*
%TO.P,U1,12*%
%TO.N,Net-(U1-Pad12)*%
X61500000Y-92000000D03*
%TO.P,U1,11*%
%TO.N,Net-(U1-Pad11)*%
X61500000Y-94000000D03*
%TO.P,U1,10*%
%TO.N,Net-(U1-Pad10)*%
X61500000Y-96000000D03*
%TO.P,U1,9*%
%TO.N,Net-(U1-Pad9)*%
X61500000Y-98000000D03*
D30*
%TO.P,U1,8*%
%TO.N,Net-(Q2-Pad2)*%
X60000000Y-100600000D03*
%TO.P,U1,7*%
%TO.N,Net-(SW2-Pad1)*%
X58000000Y-100600000D03*
%TO.P,U1,6*%
%TO.N,Net-(U1-Pad6)*%
X56000000Y-100600000D03*
%TO.P,U1,5*%
%TO.N,Net-(D1-Pad2)*%
X54000000Y-100600000D03*
%TO.P,U1,4*%
%TO.N,Net-(U1-Pad4)*%
X52000000Y-100600000D03*
%TO.P,U1,3*%
%TO.N,Net-(Q2-Pad2)*%
X50000000Y-100600000D03*
%TO.P,U1,2*%
%TO.N,Net-(U1-Pad2)*%
X48000000Y-100600000D03*
%TO.P,U1,1*%
%TO.N,Net-(U1-Pad1)*%
X46000000Y-100600000D03*
%TD*%
D23*
%TO.P,D1,2*%
%TO.N,Net-(D1-Pad2)*%
X64500000Y-92620000D03*
D21*
%TO.P,D1,1*%
%TO.N,Net-(C1-Pad1)*%
X64500000Y-85000000D03*
%TD*%
%TO.P,C1,1*%
%TO.N,Net-(C1-Pad1)*%
X73000000Y-88515001D03*
D22*
%TO.P,C1,2*%
%TO.N,GND*%
X68000000Y-88515001D03*
%TD*%
D24*
%TO.P,SW2,2*%
%TO.N,GND*%
X71675001Y-96000000D03*
%TO.P,SW2,1*%
%TO.N,Net-(SW2-Pad1)*%
X71675001Y-100500000D03*
%TO.P,SW2,2*%
%TO.N,GND*%
X65175001Y-96000000D03*
%TO.P,SW2,1*%
%TO.N,Net-(SW2-Pad1)*%
X65175001Y-100500000D03*
%TD*%
D22*
%TO.P,C1,2*%
%TO.N,GND*%
X68000000Y-88515001D03*
D21*
%TO.P,C1,1*%
%TO.N,Net-(C1-Pad1)*%
X73000000Y-88515001D03*
%TD*%
D17*
%TO.P,R2,1*%
%TO.N,+3V3*%
X74500000Y-99500000D03*
D18*
%TO.P,R2,2*%
%TO.N,Net-(Q1-Pad3)*%
X74500000Y-96960000D03*
%TD*%
%TO.P,R2,2*%
%TO.N,Net-(Q1-Pad3)*%
X74500000Y-96960000D03*
D17*
%TO.P,R2,1*%
%TO.N,+3V3*%
X74500000Y-99500000D03*
%TD*%
D14*
%TO.P,SW1,1*%
%TO.N,+3V3*%
X105000000Y-84500000D03*
%TO.P,SW1,2*%
%TO.N,Net-(C1-Pad1)*%
X85000000Y-84500000D03*
%TD*%
%TO.P,SW3,1*%
%TO.N,Net-(SW3-Pad1)*%
X85000000Y-101500000D03*
%TO.P,SW3,2*%
%TO.N,GND*%
X105000000Y-101500000D03*
%TD*%
D26*
%TO.P,Q2,3*%
%TO.N,+3V3*%
X77000000Y-97580000D03*
%TO.P,Q2,2*%
%TO.N,Net-(Q2-Pad2)*%
X77000000Y-95040000D03*
D27*
%TO.P,Q2,1*%
%TO.N,Net-(Q1-Pad3)*%
X77000000Y-92500000D03*
%TD*%
D24*
%TO.P,SW2,1*%
%TO.N,Net-(SW2-Pad1)*%
X65175001Y-100500000D03*
%TO.P,SW2,2*%
%TO.N,GND*%
X65175001Y-96000000D03*
%TO.P,SW2,1*%
%TO.N,Net-(SW2-Pad1)*%
X71675001Y-100500000D03*
%TO.P,SW2,2*%
%TO.N,GND*%
X71675001Y-96000000D03*
%TD*%
D29*
%TO.P,Q1,1*%
%TO.N,GND*%
X81500000Y-68000000D03*
D28*
%TO.P,Q1,3*%
%TO.N,Net-(Q1-Pad3)*%
X81500000Y-65460000D03*
%TO.P,Q1,2*%
%TO.N,Net-(Q1-Pad2)*%
X81500000Y-66730000D03*
%TD*%
%TO.P,J1,1*%
%TO.N,GND*%
%TA.AperFunction,ComponentPad*%
G36*
G01*
X99400000Y-69125001D02*
X99400000Y-67874999D01*
G75*
G02*
X99649999Y-67625000I249999J0D01*
G01*
X100350001Y-67625000D01*
G75*
G02*
X100600000Y-67874999I0J-249999D01*
G01*
X100600000Y-69125001D01*
G75*
G02*
X100350001Y-69375000I-249999J0D01*
G01*
X99649999Y-69375000D01*
G75*
G02*
X99400000Y-69125001I0J249999D01*
G01*
G37*
%TD.AperFunction*%
D25*
%TO.P,J1,2*%
%TO.N,+3V3*%
X102000000Y-68500000D03*
%TD*%
D14*
%TO.P,SW3,2*%
%TO.N,GND*%
X105000000Y-81500000D03*
%TO.P,SW3,1*%
%TO.N,Net-(SW3-Pad1)*%
X85000000Y-81500000D03*
%TD*%
D26*
%TO.P,Q2,3*%
%TO.N,+3V3*%
X77000000Y-77580000D03*
%TO.P,Q2,2*%
%TO.N,Net-(Q2-Pad2)*%
X77000000Y-75040000D03*
D27*
%TO.P,Q2,1*%
%TO.N,Net-(Q1-Pad3)*%
X77000000Y-72500000D03*
%TD*%
D17*
%TO.P,R1,1*%
%TO.N,Net-(Q1-Pad2)*%
X77000000Y-67500000D03*
D18*
%TO.P,R1,2*%
%TO.N,Net-(C1-Pad1)*%
X77000000Y-64960000D03*
%TD*%
D30*
%TO.P,U1,1*%
%TO.N,Net-(U1-Pad1)*%
X46000000Y-80600000D03*
%TO.P,U1,2*%
%TO.N,Net-(U1-Pad2)*%
X48000000Y-80600000D03*
%TO.P,U1,3*%
%TO.N,Net-(Q2-Pad2)*%
X50000000Y-80600000D03*
%TO.P,U1,4*%
%TO.N,Net-(U1-Pad4)*%
X52000000Y-80600000D03*
%TO.P,U1,5*%
%TO.N,Net-(D1-Pad2)*%
X54000000Y-80600000D03*
%TO.P,U1,6*%
%TO.N,Net-(U1-Pad6)*%
X56000000Y-80600000D03*
%TO.P,U1,7*%
%TO.N,Net-(SW2-Pad1)*%
X58000000Y-80600000D03*
%TO.P,U1,8*%
%TO.N,Net-(Q2-Pad2)*%
X60000000Y-80600000D03*
D31*
%TO.P,U1,9*%
%TO.N,Net-(U1-Pad9)*%
X61500000Y-78000000D03*
%TO.P,U1,10*%
%TO.N,Net-(U1-Pad10)*%
X61500000Y-76000000D03*
%TO.P,U1,11*%
%TO.N,Net-(U1-Pad11)*%
X61500000Y-74000000D03*
%TO.P,U1,12*%
%TO.N,Net-(U1-Pad12)*%
X61500000Y-72000000D03*
%TO.P,U1,13*%
%TO.N,Net-(U1-Pad13)*%
X61500000Y-70000000D03*
%TO.P,U1,14*%
%TO.N,Net-(U1-Pad14)*%
X61500000Y-68000000D03*
D30*
%TO.P,U1,15*%
%TO.N,GND*%
X60000000Y-65400000D03*
%TO.P,U1,16*%
X58000000Y-65400000D03*
%TO.P,U1,17*%
%TO.N,Net-(U1-Pad17)*%
X56000000Y-65400000D03*
%TO.P,U1,18*%
%TO.N,Net-(U1-Pad18)*%
X54000000Y-65400000D03*
%TO.P,U1,19*%
%TO.N,Net-(U1-Pad19)*%
X52000000Y-65400000D03*
%TO.P,U1,20*%
%TO.N,Net-(SW3-Pad1)*%
X50000000Y-65400000D03*
%TO.P,U1,21*%
%TO.N,Net-(U1-Pad21)*%
X48000000Y-65400000D03*
%TO.P,U1,22*%
%TO.N,Net-(U1-Pad22)*%
X46000000Y-65400000D03*
%TD*%
D21*
%TO.P,C1,1*%
%TO.N,Net-(C1-Pad1)*%
X73000000Y-68515001D03*
D22*
%TO.P,C1,2*%
%TO.N,GND*%
X68000000Y-68515001D03*
%TD*%
D21*
%TO.P,D1,1*%
%TO.N,Net-(C1-Pad1)*%
X64500000Y-65000000D03*
D23*
%TO.P,D1,2*%
%TO.N,Net-(D1-Pad2)*%
X64500000Y-72620000D03*
%TD*%
D24*
%TO.P,SW2,2*%
%TO.N,GND*%
X71675001Y-76000000D03*
%TO.P,SW2,1*%
%TO.N,Net-(SW2-Pad1)*%
X71675001Y-80500000D03*
%TO.P,SW2,2*%
%TO.N,GND*%
X65175001Y-76000000D03*
%TO.P,SW2,1*%
%TO.N,Net-(SW2-Pad1)*%
X65175001Y-80500000D03*
%TD*%
D18*
%TO.P,R2,2*%
%TO.N,Net-(Q1-Pad3)*%
X74500000Y-76960000D03*
D17*
%TO.P,R2,1*%
%TO.N,+3V3*%
X74500000Y-79500000D03*
%TD*%
D24*
%TO.P,SW2,1*%
%TO.N,Net-(SW2-Pad1)*%
X65175001Y-80500000D03*
%TO.P,SW2,2*%
%TO.N,GND*%
X65175001Y-76000000D03*
%TO.P,SW2,1*%
%TO.N,Net-(SW2-Pad1)*%
X71675001Y-80500000D03*
%TO.P,SW2,2*%
%TO.N,GND*%
X71675001Y-76000000D03*
%TD*%
D14*
%TO.P,SW1,2*%
%TO.N,Net-(C1-Pad1)*%
X85000000Y-64500000D03*
%TO.P,SW1,1*%
%TO.N,+3V3*%
X105000000Y-64500000D03*
%TD*%
D17*
%TO.P,R2,1*%
%TO.N,+3V3*%
X74500000Y-79500000D03*
D18*
%TO.P,R2,2*%
%TO.N,Net-(Q1-Pad3)*%
X74500000Y-76960000D03*
%TD*%
D22*
%TO.P,C1,2*%
%TO.N,GND*%
X68000000Y-68515001D03*
D21*
%TO.P,C1,1*%
%TO.N,Net-(C1-Pad1)*%
X73000000Y-68515001D03*
%TD*%
D27*
%TO.P,Q2,1*%
%TO.N,Net-(Q1-Pad3)*%
X77000000Y-72500000D03*
D26*
%TO.P,Q2,2*%
%TO.N,Net-(Q2-Pad2)*%
X77000000Y-75040000D03*
%TO.P,Q2,3*%
%TO.N,+3V3*%
X77000000Y-77580000D03*
%TD*%
D25*
%TO.P,J1,2*%
%TO.N,+3V3*%
X102000000Y-68500000D03*
%TO.P,J1,1*%
%TO.N,GND*%
%TA.AperFunction,ComponentPad*%
G36*
G01*
X99400000Y-69125001D02*
X99400000Y-67874999D01*
G75*
G02*
X99649999Y-67625000I249999J0D01*
G01*
X100350001Y-67625000D01*
G75*
G02*
X100600000Y-67874999I0J-249999D01*
G01*
X100600000Y-69125001D01*
G75*
G02*
X100350001Y-69375000I-249999J0D01*
G01*
X99649999Y-69375000D01*
G75*
G02*
X99400000Y-69125001I0J249999D01*
G01*
G37*
%TD.AperFunction*%
%TD*%
D18*
%TO.P,R1,2*%
%TO.N,Net-(C1-Pad1)*%
X77000000Y-64960000D03*
D17*
%TO.P,R1,1*%
%TO.N,Net-(Q1-Pad2)*%
X77000000Y-67500000D03*
%TD*%
D23*
%TO.P,D1,2*%
%TO.N,Net-(D1-Pad2)*%
X64500000Y-72620000D03*
D21*
%TO.P,D1,1*%
%TO.N,Net-(C1-Pad1)*%
X64500000Y-65000000D03*
%TD*%
D28*
%TO.P,Q1,2*%
%TO.N,Net-(Q1-Pad2)*%
X81500000Y-66730000D03*
%TO.P,Q1,3*%
%TO.N,Net-(Q1-Pad3)*%
X81500000Y-65460000D03*
D29*
%TO.P,Q1,1*%
%TO.N,GND*%
X81500000Y-68000000D03*
%TD*%
D30*
%TO.P,U1,22*%
%TO.N,Net-(U1-Pad22)*%
X46000000Y-65400000D03*
%TO.P,U1,21*%
%TO.N,Net-(U1-Pad21)*%
X48000000Y-65400000D03*
%TO.P,U1,20*%
%TO.N,Net-(SW3-Pad1)*%
X50000000Y-65400000D03*
%TO.P,U1,19*%
%TO.N,Net-(U1-Pad19)*%
X52000000Y-65400000D03*
%TO.P,U1,18*%
%TO.N,Net-(U1-Pad18)*%
X54000000Y-65400000D03*
%TO.P,U1,17*%
%TO.N,Net-(U1-Pad17)*%
X56000000Y-65400000D03*
%TO.P,U1,16*%
%TO.N,GND*%
X58000000Y-65400000D03*
%TO.P,U1,15*%
X60000000Y-65400000D03*
D31*
%TO.P,U1,14*%
%TO.N,Net-(U1-Pad14)*%
X61500000Y-68000000D03*
%TO.P,U1,13*%
%TO.N,Net-(U1-Pad13)*%
X61500000Y-70000000D03*
%TO.P,U1,12*%
%TO.N,Net-(U1-Pad12)*%
X61500000Y-72000000D03*
%TO.P,U1,11*%
%TO.N,Net-(U1-Pad11)*%
X61500000Y-74000000D03*
%TO.P,U1,10*%
%TO.N,Net-(U1-Pad10)*%
X61500000Y-76000000D03*
%TO.P,U1,9*%
%TO.N,Net-(U1-Pad9)*%
X61500000Y-78000000D03*
D30*
%TO.P,U1,8*%
%TO.N,Net-(Q2-Pad2)*%
X60000000Y-80600000D03*
%TO.P,U1,7*%
%TO.N,Net-(SW2-Pad1)*%
X58000000Y-80600000D03*
%TO.P,U1,6*%
%TO.N,Net-(U1-Pad6)*%
X56000000Y-80600000D03*
%TO.P,U1,5*%
%TO.N,Net-(D1-Pad2)*%
X54000000Y-80600000D03*
%TO.P,U1,4*%
%TO.N,Net-(U1-Pad4)*%
X52000000Y-80600000D03*
%TO.P,U1,3*%
%TO.N,Net-(Q2-Pad2)*%
X50000000Y-80600000D03*
%TO.P,U1,2*%
%TO.N,Net-(U1-Pad2)*%
X48000000Y-80600000D03*
%TO.P,U1,1*%
%TO.N,Net-(U1-Pad1)*%
X46000000Y-80600000D03*
%TD*%
D14*
%TO.P,SW3,1*%
%TO.N,Net-(SW3-Pad1)*%
X85000000Y-81500000D03*
%TO.P,SW3,2*%
%TO.N,GND*%
X105000000Y-81500000D03*
%TD*%
D24*
%TO.P,SW2,1*%
%TO.N,Net-(SW2-Pad1)*%
X65175001Y-60500000D03*
%TO.P,SW2,2*%
%TO.N,GND*%
X65175001Y-56000000D03*
%TO.P,SW2,1*%
%TO.N,Net-(SW2-Pad1)*%
X71675001Y-60500000D03*
%TO.P,SW2,2*%
%TO.N,GND*%
X71675001Y-56000000D03*
%TD*%
D17*
%TO.P,R2,1*%
%TO.N,+3V3*%
X74500000Y-59500000D03*
D18*
%TO.P,R2,2*%
%TO.N,Net-(Q1-Pad3)*%
X74500000Y-56960000D03*
%TD*%
D22*
%TO.P,C1,2*%
%TO.N,GND*%
X68000000Y-48515001D03*
D21*
%TO.P,C1,1*%
%TO.N,Net-(C1-Pad1)*%
X73000000Y-48515001D03*
%TD*%
D27*
%TO.P,Q2,1*%
%TO.N,Net-(Q1-Pad3)*%
X77000000Y-52500000D03*
D26*
%TO.P,Q2,2*%
%TO.N,Net-(Q2-Pad2)*%
X77000000Y-55040000D03*
%TO.P,Q2,3*%
%TO.N,+3V3*%
X77000000Y-57580000D03*
%TD*%
D25*
%TO.P,J1,2*%
%TO.N,+3V3*%
X102000000Y-48500000D03*
%TO.P,J1,1*%
%TO.N,GND*%
%TA.AperFunction,ComponentPad*%
G36*
G01*
X99400000Y-49125001D02*
X99400000Y-47874999D01*
G75*
G02*
X99649999Y-47625000I249999J0D01*
G01*
X100350001Y-47625000D01*
G75*
G02*
X100600000Y-47874999I0J-249999D01*
G01*
X100600000Y-49125001D01*
G75*
G02*
X100350001Y-49375000I-249999J0D01*
G01*
X99649999Y-49375000D01*
G75*
G02*
X99400000Y-49125001I0J249999D01*
G01*
G37*
%TD.AperFunction*%
%TD*%
D18*
%TO.P,R1,2*%
%TO.N,Net-(C1-Pad1)*%
X77000000Y-44960000D03*
D17*
%TO.P,R1,1*%
%TO.N,Net-(Q1-Pad2)*%
X77000000Y-47500000D03*
%TD*%
D23*
%TO.P,D1,2*%
%TO.N,Net-(D1-Pad2)*%
X64500000Y-52620000D03*
D21*
%TO.P,D1,1*%
%TO.N,Net-(C1-Pad1)*%
X64500000Y-45000000D03*
%TD*%
D28*
%TO.P,Q1,2*%
%TO.N,Net-(Q1-Pad2)*%
X81500000Y-46730000D03*
%TO.P,Q1,3*%
%TO.N,Net-(Q1-Pad3)*%
X81500000Y-45460000D03*
D29*
%TO.P,Q1,1*%
%TO.N,GND*%
X81500000Y-48000000D03*
%TD*%
D30*
%TO.P,U1,22*%
%TO.N,Net-(U1-Pad22)*%
X46000000Y-45400000D03*
%TO.P,U1,21*%
%TO.N,Net-(U1-Pad21)*%
X48000000Y-45400000D03*
%TO.P,U1,20*%
%TO.N,Net-(SW3-Pad1)*%
X50000000Y-45400000D03*
%TO.P,U1,19*%
%TO.N,Net-(U1-Pad19)*%
X52000000Y-45400000D03*
%TO.P,U1,18*%
%TO.N,Net-(U1-Pad18)*%
X54000000Y-45400000D03*
%TO.P,U1,17*%
%TO.N,Net-(U1-Pad17)*%
X56000000Y-45400000D03*
%TO.P,U1,16*%
%TO.N,GND*%
X58000000Y-45400000D03*
%TO.P,U1,15*%
X60000000Y-45400000D03*
D31*
%TO.P,U1,14*%
%TO.N,Net-(U1-Pad14)*%
X61500000Y-48000000D03*
%TO.P,U1,13*%
%TO.N,Net-(U1-Pad13)*%
X61500000Y-50000000D03*
%TO.P,U1,12*%
%TO.N,Net-(U1-Pad12)*%
X61500000Y-52000000D03*
%TO.P,U1,11*%
%TO.N,Net-(U1-Pad11)*%
X61500000Y-54000000D03*
%TO.P,U1,10*%
%TO.N,Net-(U1-Pad10)*%
X61500000Y-56000000D03*
%TO.P,U1,9*%
%TO.N,Net-(U1-Pad9)*%
X61500000Y-58000000D03*
D30*
%TO.P,U1,8*%
%TO.N,Net-(Q2-Pad2)*%
X60000000Y-60600000D03*
%TO.P,U1,7*%
%TO.N,Net-(SW2-Pad1)*%
X58000000Y-60600000D03*
%TO.P,U1,6*%
%TO.N,Net-(U1-Pad6)*%
X56000000Y-60600000D03*
%TO.P,U1,5*%
%TO.N,Net-(D1-Pad2)*%
X54000000Y-60600000D03*
%TO.P,U1,4*%
%TO.N,Net-(U1-Pad4)*%
X52000000Y-60600000D03*
%TO.P,U1,3*%
%TO.N,Net-(Q2-Pad2)*%
X50000000Y-60600000D03*
%TO.P,U1,2*%
%TO.N,Net-(U1-Pad2)*%
X48000000Y-60600000D03*
%TO.P,U1,1*%
%TO.N,Net-(U1-Pad1)*%
X46000000Y-60600000D03*
%TD*%
D14*
%TO.P,SW3,1*%
%TO.N,Net-(SW3-Pad1)*%
X85000000Y-61500000D03*
%TO.P,SW3,2*%
%TO.N,GND*%
X105000000Y-61500000D03*
%TD*%
D29*
%TO.P,Q1,1*%
%TO.N,GND*%
X81500000Y-48000000D03*
D28*
%TO.P,Q1,3*%
%TO.N,Net-(Q1-Pad3)*%
X81500000Y-45460000D03*
%TO.P,Q1,2*%
%TO.N,Net-(Q1-Pad2)*%
X81500000Y-46730000D03*
%TD*%
D26*
%TO.P,Q2,3*%
%TO.N,+3V3*%
X77000000Y-57580000D03*
%TO.P,Q2,2*%
%TO.N,Net-(Q2-Pad2)*%
X77000000Y-55040000D03*
D27*
%TO.P,Q2,1*%
%TO.N,Net-(Q1-Pad3)*%
X77000000Y-52500000D03*
%TD*%
D21*
%TO.P,C1,1*%
%TO.N,Net-(C1-Pad1)*%
X73000000Y-48515001D03*
D22*
%TO.P,C1,2*%
%TO.N,GND*%
X68000000Y-48515001D03*
%TD*%
D21*
%TO.P,D1,1*%
%TO.N,Net-(C1-Pad1)*%
X64500000Y-45000000D03*
D23*
%TO.P,D1,2*%
%TO.N,Net-(D1-Pad2)*%
X64500000Y-52620000D03*
%TD*%
%TO.P,J1,1*%
%TO.N,GND*%
%TA.AperFunction,ComponentPad*%
G36*
G01*
X99400000Y-49125001D02*
X99400000Y-47874999D01*
G75*
G02*
X99649999Y-47625000I249999J0D01*
G01*
X100350001Y-47625000D01*
G75*
G02*
X100600000Y-47874999I0J-249999D01*
G01*
X100600000Y-49125001D01*
G75*
G02*
X100350001Y-49375000I-249999J0D01*
G01*
X99649999Y-49375000D01*
G75*
G02*
X99400000Y-49125001I0J249999D01*
G01*
G37*
%TD.AperFunction*%
D25*
%TO.P,J1,2*%
%TO.N,+3V3*%
X102000000Y-48500000D03*
%TD*%
D17*
%TO.P,R1,1*%
%TO.N,Net-(Q1-Pad2)*%
X77000000Y-47500000D03*
D18*
%TO.P,R1,2*%
%TO.N,Net-(C1-Pad1)*%
X77000000Y-44960000D03*
%TD*%
%TO.P,R2,2*%
%TO.N,Net-(Q1-Pad3)*%
X74500000Y-56960000D03*
D17*
%TO.P,R2,1*%
%TO.N,+3V3*%
X74500000Y-59500000D03*
%TD*%
D14*
%TO.P,SW1,1*%
%TO.N,+3V3*%
X105000000Y-44500000D03*
%TO.P,SW1,2*%
%TO.N,Net-(C1-Pad1)*%
X85000000Y-44500000D03*
%TD*%
D24*
%TO.P,SW2,2*%
%TO.N,GND*%
X71675001Y-56000000D03*
%TO.P,SW2,1*%
%TO.N,Net-(SW2-Pad1)*%
X71675001Y-60500000D03*
%TO.P,SW2,2*%
%TO.N,GND*%
X65175001Y-56000000D03*
%TO.P,SW2,1*%
%TO.N,Net-(SW2-Pad1)*%
X65175001Y-60500000D03*
%TD*%
D14*
%TO.P,SW3,2*%
%TO.N,GND*%
X105000000Y-61500000D03*
%TO.P,SW3,1*%
%TO.N,Net-(SW3-Pad1)*%
X85000000Y-61500000D03*
%TD*%
D30*
%TO.P,U1,1*%
%TO.N,Net-(U1-Pad1)*%
X46000000Y-60600000D03*
%TO.P,U1,2*%
%TO.N,Net-(U1-Pad2)*%
X48000000Y-60600000D03*
%TO.P,U1,3*%
%TO.N,Net-(Q2-Pad2)*%
X50000000Y-60600000D03*
%TO.P,U1,4*%
%TO.N,Net-(U1-Pad4)*%
X52000000Y-60600000D03*
%TO.P,U1,5*%
%TO.N,Net-(D1-Pad2)*%
X54000000Y-60600000D03*
%TO.P,U1,6*%
%TO.N,Net-(U1-Pad6)*%
X56000000Y-60600000D03*
%TO.P,U1,7*%
%TO.N,Net-(SW2-Pad1)*%
X58000000Y-60600000D03*
%TO.P,U1,8*%
%TO.N,Net-(Q2-Pad2)*%
X60000000Y-60600000D03*
D31*
%TO.P,U1,9*%
%TO.N,Net-(U1-Pad9)*%
X61500000Y-58000000D03*
%TO.P,U1,10*%
%TO.N,Net-(U1-Pad10)*%
X61500000Y-56000000D03*
%TO.P,U1,11*%
%TO.N,Net-(U1-Pad11)*%
X61500000Y-54000000D03*
%TO.P,U1,12*%
%TO.N,Net-(U1-Pad12)*%
X61500000Y-52000000D03*
%TO.P,U1,13*%
%TO.N,Net-(U1-Pad13)*%
X61500000Y-50000000D03*
%TO.P,U1,14*%
%TO.N,Net-(U1-Pad14)*%
X61500000Y-48000000D03*
D30*
%TO.P,U1,15*%
%TO.N,GND*%
X60000000Y-45400000D03*
%TO.P,U1,16*%
X58000000Y-45400000D03*
%TO.P,U1,17*%
%TO.N,Net-(U1-Pad17)*%
X56000000Y-45400000D03*
%TO.P,U1,18*%
%TO.N,Net-(U1-Pad18)*%
X54000000Y-45400000D03*
%TO.P,U1,19*%
%TO.N,Net-(U1-Pad19)*%
X52000000Y-45400000D03*
%TO.P,U1,20*%
%TO.N,Net-(SW3-Pad1)*%
X50000000Y-45400000D03*
%TO.P,U1,21*%
%TO.N,Net-(U1-Pad21)*%
X48000000Y-45400000D03*
%TO.P,U1,22*%
%TO.N,Net-(U1-Pad22)*%
X46000000Y-45400000D03*
%TD*%
D32*
%TO.N,Net-(SW3-Pad1)*%
X50000000Y-49000000D03*
X50000000Y-49000000D03*
X50000000Y-69000000D03*
X50000000Y-69000000D03*
X50000000Y-89000000D03*
X50000000Y-89000000D03*
X50000000Y-109000000D03*
X50000000Y-109000000D03*
X50000000Y-129000000D03*
X50000000Y-129000000D03*
X112500000Y-99500000D03*
X112500000Y-99500000D03*
%TD*%
D33*
%TO.N,Net-(C1-Pad1)*%
X69484999Y-45000000D02*
X73000000Y-48515001D01*
X64500000Y-45000000D02*
X69484999Y-45000000D01*
X73444999Y-48515001D02*
X77000000Y-44960000D01*
X73000000Y-48515001D02*
X73444999Y-48515001D01*
X77460000Y-44500000D02*
X85000000Y-44500000D01*
X77000000Y-44960000D02*
X77460000Y-44500000D01*
X64500000Y-45000000D02*
X69484999Y-45000000D01*
X77460000Y-44500000D02*
X85000000Y-44500000D01*
X77000000Y-44960000D02*
X77460000Y-44500000D01*
X73444999Y-48515001D02*
X77000000Y-44960000D01*
X69484999Y-45000000D02*
X73000000Y-48515001D01*
X73000000Y-48515001D02*
X73444999Y-48515001D01*
X64500000Y-65000000D02*
X69484999Y-65000000D01*
X77460000Y-64500000D02*
X85000000Y-64500000D01*
X77000000Y-64960000D02*
X77460000Y-64500000D01*
X73444999Y-68515001D02*
X77000000Y-64960000D01*
X69484999Y-65000000D02*
X73000000Y-68515001D01*
X73000000Y-68515001D02*
X73444999Y-68515001D01*
X77460000Y-64500000D02*
X85000000Y-64500000D01*
X64500000Y-65000000D02*
X69484999Y-65000000D01*
X69484999Y-65000000D02*
X73000000Y-68515001D01*
X73444999Y-68515001D02*
X77000000Y-64960000D01*
X73000000Y-68515001D02*
X73444999Y-68515001D01*
X77000000Y-64960000D02*
X77460000Y-64500000D01*
X77000000Y-84960000D02*
X77460000Y-84500000D01*
X64500000Y-85000000D02*
X69484999Y-85000000D01*
X77460000Y-84500000D02*
X85000000Y-84500000D01*
X64500000Y-85000000D02*
X69484999Y-85000000D01*
X69484999Y-85000000D02*
X73000000Y-88515001D01*
X77460000Y-84500000D02*
X85000000Y-84500000D01*
X73000000Y-88515001D02*
X73444999Y-88515001D01*
X73444999Y-88515001D02*
X77000000Y-84960000D01*
X73000000Y-88515001D02*
X73444999Y-88515001D01*
X77000000Y-84960000D02*
X77460000Y-84500000D01*
X69484999Y-85000000D02*
X73000000Y-88515001D01*
X73444999Y-88515001D02*
X77000000Y-84960000D01*
X64500000Y-105000000D02*
X69484999Y-105000000D01*
X77460000Y-104500000D02*
X85000000Y-104500000D01*
X77000000Y-104960000D02*
X77460000Y-104500000D01*
X64500000Y-105000000D02*
X69484999Y-105000000D01*
X77460000Y-104500000D02*
X85000000Y-104500000D01*
X73000000Y-108515001D02*
X73444999Y-108515001D01*
X69484999Y-105000000D02*
X73000000Y-108515001D01*
X73444999Y-108515001D02*
X77000000Y-104960000D01*
X73000000Y-108515001D02*
X73444999Y-108515001D01*
X69484999Y-105000000D02*
X73000000Y-108515001D01*
X73444999Y-108515001D02*
X77000000Y-104960000D01*
X77000000Y-104960000D02*
X77460000Y-104500000D01*
X77000000Y-124960000D02*
X77460000Y-124500000D01*
X77460000Y-124500000D02*
X85000000Y-124500000D01*
X64500000Y-125000000D02*
X69484999Y-125000000D01*
X69484999Y-125000000D02*
X73000000Y-128515001D01*
X73000000Y-128515001D02*
X73444999Y-128515001D01*
X73444999Y-128515001D02*
X77000000Y-124960000D01*
X73000000Y-128515001D02*
X73444999Y-128515001D01*
X77460000Y-124500000D02*
X85000000Y-124500000D01*
X64500000Y-125000000D02*
X69484999Y-125000000D01*
X73444999Y-128515001D02*
X77000000Y-124960000D01*
X77000000Y-124960000D02*
X77460000Y-124500000D01*
X69484999Y-125000000D02*
X73000000Y-128515001D01*
X108500000Y-85000000D02*
X108500000Y-80015001D01*
X108000000Y-72040000D02*
X108000000Y-64500000D01*
X108460000Y-72500000D02*
X108000000Y-72040000D01*
X112015001Y-76055001D02*
X108460000Y-72500000D01*
X108500000Y-80015001D02*
X112015001Y-76500000D01*
X112015001Y-76500000D02*
X112015001Y-76055001D01*
X108000000Y-72040000D02*
X108000000Y-64500000D01*
X108500000Y-85000000D02*
X108500000Y-80015001D01*
X108500000Y-80015001D02*
X112015001Y-76500000D01*
X112015001Y-76055001D02*
X108460000Y-72500000D01*
X112015001Y-76500000D02*
X112015001Y-76055001D01*
X108460000Y-72500000D02*
X108000000Y-72040000D01*
%TO.N,GND*%
X58000000Y-45400000D02*
X60000000Y-45400000D01*
X65610000Y-46125001D02*
X68000000Y-48515001D01*
X60725001Y-46125001D02*
X65610000Y-46125001D01*
X60000000Y-45400000D02*
X60725001Y-46125001D01*
X68000000Y-53175001D02*
X65175001Y-56000000D01*
X68000000Y-48515001D02*
X68000000Y-53175001D01*
X65175001Y-56000000D02*
X71675001Y-56000000D01*
X82000000Y-48500000D02*
X81500000Y-48000000D01*
X100000000Y-48500000D02*
X82000000Y-48500000D01*
X68000000Y-48515001D02*
X68000000Y-53175001D01*
X82000000Y-48500000D02*
X81500000Y-48000000D01*
X65175001Y-56000000D02*
X71675001Y-56000000D01*
X60000000Y-45400000D02*
X60725001Y-46125001D01*
X68000000Y-53175001D02*
X65175001Y-56000000D01*
X58000000Y-45400000D02*
X60000000Y-45400000D01*
X100000000Y-48500000D02*
X82000000Y-48500000D01*
X65610000Y-46125001D02*
X68000000Y-48515001D01*
X60725001Y-46125001D02*
X65610000Y-46125001D01*
X68000000Y-68515001D02*
X68000000Y-73175001D01*
X82000000Y-68500000D02*
X81500000Y-68000000D01*
X65175001Y-76000000D02*
X71675001Y-76000000D01*
X60000000Y-65400000D02*
X60725001Y-66125001D01*
X68000000Y-73175001D02*
X65175001Y-76000000D01*
X58000000Y-65400000D02*
X60000000Y-65400000D01*
X100000000Y-68500000D02*
X82000000Y-68500000D01*
X65610000Y-66125001D02*
X68000000Y-68515001D01*
X60725001Y-66125001D02*
X65610000Y-66125001D01*
X82000000Y-68500000D02*
X81500000Y-68000000D01*
X60000000Y-65400000D02*
X60725001Y-66125001D01*
X68000000Y-68515001D02*
X68000000Y-73175001D01*
X65175001Y-76000000D02*
X71675001Y-76000000D01*
X68000000Y-73175001D02*
X65175001Y-76000000D01*
X58000000Y-65400000D02*
X60000000Y-65400000D01*
X60725001Y-66125001D02*
X65610000Y-66125001D01*
X65610000Y-66125001D02*
X68000000Y-68515001D01*
X100000000Y-68500000D02*
X82000000Y-68500000D01*
X60000000Y-85400000D02*
X60725001Y-86125001D01*
X82000000Y-88500000D02*
X81500000Y-88000000D01*
X68000000Y-88515001D02*
X68000000Y-93175001D01*
X65175001Y-96000000D02*
X71675001Y-96000000D01*
X82000000Y-88500000D02*
X81500000Y-88000000D01*
X65610000Y-86125001D02*
X68000000Y-88515001D01*
X100000000Y-88500000D02*
X82000000Y-88500000D01*
X68000000Y-93175001D02*
X65175001Y-96000000D01*
X58000000Y-85400000D02*
X60000000Y-85400000D01*
X60725001Y-86125001D02*
X65610000Y-86125001D01*
X65175001Y-96000000D02*
X71675001Y-96000000D01*
X100000000Y-88500000D02*
X82000000Y-88500000D01*
X68000000Y-88515001D02*
X68000000Y-93175001D01*
X60000000Y-85400000D02*
X60725001Y-86125001D01*
X65610000Y-86125001D02*
X68000000Y-88515001D01*
X58000000Y-85400000D02*
X60000000Y-85400000D01*
X68000000Y-93175001D02*
X65175001Y-96000000D01*
X60725001Y-86125001D02*
X65610000Y-86125001D01*
X68000000Y-108515001D02*
X68000000Y-113175001D01*
X65175001Y-116000000D02*
X71675001Y-116000000D01*
X60000000Y-105400000D02*
X60725001Y-106125001D01*
X82000000Y-108500000D02*
X81500000Y-108000000D01*
X82000000Y-108500000D02*
X81500000Y-108000000D01*
X65610000Y-106125001D02*
X68000000Y-108515001D01*
X100000000Y-108500000D02*
X82000000Y-108500000D01*
X68000000Y-113175001D02*
X65175001Y-116000000D01*
X58000000Y-105400000D02*
X60000000Y-105400000D01*
X60725001Y-106125001D02*
X65610000Y-106125001D01*
X65175001Y-116000000D02*
X71675001Y-116000000D01*
X65610000Y-106125001D02*
X68000000Y-108515001D01*
X58000000Y-105400000D02*
X60000000Y-105400000D01*
X100000000Y-108500000D02*
X82000000Y-108500000D01*
X68000000Y-108515001D02*
X68000000Y-113175001D01*
X60000000Y-105400000D02*
X60725001Y-106125001D01*
X68000000Y-113175001D02*
X65175001Y-116000000D01*
X60725001Y-106125001D02*
X65610000Y-106125001D01*
X82000000Y-128500000D02*
X81500000Y-128000000D01*
X65175001Y-136000000D02*
X71675001Y-136000000D01*
X68000000Y-128515001D02*
X68000000Y-133175001D01*
X60000000Y-125400000D02*
X60725001Y-126125001D01*
X65610000Y-126125001D02*
X68000000Y-128515001D01*
X58000000Y-125400000D02*
X60000000Y-125400000D01*
X82000000Y-128500000D02*
X81500000Y-128000000D01*
X68000000Y-133175001D02*
X65175001Y-136000000D01*
X100000000Y-128500000D02*
X82000000Y-128500000D01*
X58000000Y-125400000D02*
X60000000Y-125400000D01*
X60725001Y-126125001D02*
X65610000Y-126125001D01*
X65610000Y-126125001D02*
X68000000Y-128515001D01*
X65175001Y-136000000D02*
X71675001Y-136000000D01*
X60725001Y-126125001D02*
X65610000Y-126125001D01*
X60000000Y-125400000D02*
X60725001Y-126125001D01*
X68000000Y-128515001D02*
X68000000Y-133175001D01*
X68000000Y-133175001D02*
X65175001Y-136000000D01*
X100000000Y-128500000D02*
X82000000Y-128500000D01*
X112015001Y-81500000D02*
X116675001Y-81500000D01*
X112000000Y-67500000D02*
X111500000Y-68000000D01*
X119500000Y-84324999D02*
X119500000Y-77824999D01*
X108900000Y-89500000D02*
X109625001Y-88774999D01*
X116675001Y-81500000D02*
X119500000Y-84324999D01*
X108900000Y-91500000D02*
X108900000Y-89500000D01*
X112000000Y-49500000D02*
X112000000Y-67500000D01*
X109625001Y-83890000D02*
X112015001Y-81500000D01*
X109625001Y-88774999D02*
X109625001Y-83890000D01*
X112000000Y-67500000D02*
X111500000Y-68000000D01*
X108900000Y-89500000D02*
X109625001Y-88774999D01*
X112015001Y-81500000D02*
X116675001Y-81500000D01*
X119500000Y-84324999D02*
X119500000Y-77824999D01*
X116675001Y-81500000D02*
X119500000Y-84324999D01*
X108900000Y-91500000D02*
X108900000Y-89500000D01*
X109625001Y-88774999D02*
X109625001Y-83890000D01*
X109625001Y-83890000D02*
X112015001Y-81500000D01*
X112000000Y-49500000D02*
X112000000Y-67500000D01*
%TO.N,Net-(D1-Pad2)*%
X64294999Y-52825001D02*
X64500000Y-52620000D01*
X60274999Y-52825001D02*
X64294999Y-52825001D01*
X54000000Y-59100000D02*
X60274999Y-52825001D01*
X54000000Y-60600000D02*
X54000000Y-59100000D01*
X60274999Y-52825001D02*
X64294999Y-52825001D01*
X54000000Y-59100000D02*
X60274999Y-52825001D01*
X64294999Y-52825001D02*
X64500000Y-52620000D01*
X54000000Y-60600000D02*
X54000000Y-59100000D01*
X60274999Y-72825001D02*
X64294999Y-72825001D01*
X54000000Y-79100000D02*
X60274999Y-72825001D01*
X64294999Y-72825001D02*
X64500000Y-72620000D01*
X54000000Y-80600000D02*
X54000000Y-79100000D01*
X54000000Y-80600000D02*
X54000000Y-79100000D01*
X60274999Y-72825001D02*
X64294999Y-72825001D01*
X64294999Y-72825001D02*
X64500000Y-72620000D01*
X54000000Y-79100000D02*
X60274999Y-72825001D01*
X60274999Y-92825001D02*
X64294999Y-92825001D01*
X54000000Y-99100000D02*
X60274999Y-92825001D01*
X64294999Y-92825001D02*
X64500000Y-92620000D01*
X64294999Y-92825001D02*
X64500000Y-92620000D01*
X54000000Y-100600000D02*
X54000000Y-99100000D01*
X60274999Y-92825001D02*
X64294999Y-92825001D01*
X54000000Y-100600000D02*
X54000000Y-99100000D01*
X54000000Y-99100000D02*
X60274999Y-92825001D01*
X64294999Y-112825001D02*
X64500000Y-112620000D01*
X54000000Y-119100000D02*
X60274999Y-112825001D01*
X60274999Y-112825001D02*
X64294999Y-112825001D01*
X54000000Y-120600000D02*
X54000000Y-119100000D01*
X60274999Y-112825001D02*
X64294999Y-112825001D01*
X64294999Y-112825001D02*
X64500000Y-112620000D01*
X54000000Y-120600000D02*
X54000000Y-119100000D01*
X54000000Y-119100000D02*
X60274999Y-112825001D01*
X64294999Y-132825001D02*
X64500000Y-132620000D01*
X54000000Y-139100000D02*
X60274999Y-132825001D01*
X54000000Y-140600000D02*
X54000000Y-139100000D01*
X54000000Y-140600000D02*
X54000000Y-139100000D01*
X64294999Y-132825001D02*
X64500000Y-132620000D01*
X60274999Y-132825001D02*
X64294999Y-132825001D01*
X60274999Y-132825001D02*
X64294999Y-132825001D01*
X54000000Y-139100000D02*
X60274999Y-132825001D01*
X116325001Y-89225001D02*
X116325001Y-85205001D01*
X122600000Y-95500000D02*
X116325001Y-89225001D01*
X116325001Y-85205001D02*
X116120000Y-85000000D01*
X124100000Y-95500000D02*
X122600000Y-95500000D01*
X124100000Y-95500000D02*
X122600000Y-95500000D01*
X116325001Y-89225001D02*
X116325001Y-85205001D01*
X116325001Y-85205001D02*
X116120000Y-85000000D01*
X122600000Y-95500000D02*
X116325001Y-89225001D01*
%TO.N,+3V3*%
X102000000Y-47500000D02*
X105000000Y-44500000D01*
X102000000Y-48500000D02*
X102000000Y-47500000D01*
X94191002Y-57580000D02*
X77000000Y-57580000D01*
X102000000Y-49771002D02*
X94191002Y-57580000D01*
X102000000Y-48500000D02*
X102000000Y-49771002D01*
X76420000Y-57580000D02*
X74500000Y-59500000D01*
X77000000Y-57580000D02*
X76420000Y-57580000D01*
X94191002Y-57580000D02*
X77000000Y-57580000D01*
X102000000Y-48500000D02*
X102000000Y-49771002D01*
X77000000Y-57580000D02*
X76420000Y-57580000D01*
X102000000Y-48500000D02*
X102000000Y-47500000D01*
X102000000Y-47500000D02*
X105000000Y-44500000D01*
X76420000Y-57580000D02*
X74500000Y-59500000D01*
X102000000Y-49771002D02*
X94191002Y-57580000D01*
X94191002Y-77580000D02*
X77000000Y-77580000D01*
X102000000Y-68500000D02*
X102000000Y-69771002D01*
X77000000Y-77580000D02*
X76420000Y-77580000D01*
X102000000Y-68500000D02*
X102000000Y-67500000D01*
X102000000Y-67500000D02*
X105000000Y-64500000D01*
X76420000Y-77580000D02*
X74500000Y-79500000D01*
X102000000Y-69771002D02*
X94191002Y-77580000D01*
X102000000Y-67500000D02*
X105000000Y-64500000D01*
X77000000Y-77580000D02*
X76420000Y-77580000D01*
X94191002Y-77580000D02*
X77000000Y-77580000D01*
X102000000Y-68500000D02*
X102000000Y-69771002D01*
X102000000Y-68500000D02*
X102000000Y-67500000D01*
X102000000Y-69771002D02*
X94191002Y-77580000D01*
X76420000Y-77580000D02*
X74500000Y-79500000D01*
X102000000Y-88500000D02*
X102000000Y-89771002D01*
X94191002Y-97580000D02*
X77000000Y-97580000D01*
X102000000Y-87500000D02*
X105000000Y-84500000D01*
X102000000Y-88500000D02*
X102000000Y-87500000D01*
X76420000Y-97580000D02*
X74500000Y-99500000D01*
X102000000Y-89771002D02*
X94191002Y-97580000D01*
X77000000Y-97580000D02*
X76420000Y-97580000D01*
X102000000Y-87500000D02*
X105000000Y-84500000D01*
X102000000Y-88500000D02*
X102000000Y-87500000D01*
X94191002Y-97580000D02*
X77000000Y-97580000D01*
X102000000Y-89771002D02*
X94191002Y-97580000D01*
X102000000Y-88500000D02*
X102000000Y-89771002D01*
X76420000Y-97580000D02*
X74500000Y-99500000D01*
X77000000Y-97580000D02*
X76420000Y-97580000D01*
X94191002Y-117580000D02*
X77000000Y-117580000D01*
X102000000Y-108500000D02*
X102000000Y-109771002D01*
X102000000Y-108500000D02*
X102000000Y-107500000D01*
X102000000Y-109771002D02*
X94191002Y-117580000D01*
X102000000Y-107500000D02*
X105000000Y-104500000D01*
X76420000Y-117580000D02*
X74500000Y-119500000D01*
X77000000Y-117580000D02*
X76420000Y-117580000D01*
X102000000Y-107500000D02*
X105000000Y-104500000D01*
X94191002Y-117580000D02*
X77000000Y-117580000D01*
X102000000Y-108500000D02*
X102000000Y-109771002D01*
X102000000Y-108500000D02*
X102000000Y-107500000D01*
X102000000Y-109771002D02*
X94191002Y-117580000D01*
X77000000Y-117580000D02*
X76420000Y-117580000D01*
X76420000Y-117580000D02*
X74500000Y-119500000D01*
X76420000Y-137580000D02*
X74500000Y-139500000D01*
X102000000Y-128500000D02*
X102000000Y-129771002D01*
X94191002Y-137580000D02*
X77000000Y-137580000D01*
X77000000Y-137580000D02*
X76420000Y-137580000D01*
X76420000Y-137580000D02*
X74500000Y-139500000D01*
X102000000Y-127500000D02*
X105000000Y-124500000D01*
X102000000Y-128500000D02*
X102000000Y-129771002D01*
X94191002Y-137580000D02*
X77000000Y-137580000D01*
X102000000Y-127500000D02*
X105000000Y-124500000D01*
X102000000Y-129771002D02*
X94191002Y-137580000D01*
X102000000Y-128500000D02*
X102000000Y-127500000D01*
X77000000Y-137580000D02*
X76420000Y-137580000D01*
X102000000Y-129771002D02*
X94191002Y-137580000D01*
X102000000Y-128500000D02*
X102000000Y-127500000D01*
X121080000Y-55308998D02*
X121080000Y-72500000D01*
X112000000Y-47500000D02*
X113271002Y-47500000D01*
X121080000Y-72500000D02*
X121080000Y-73080000D01*
X112000000Y-47500000D02*
X111000000Y-47500000D01*
X111000000Y-47500000D02*
X108000000Y-44500000D01*
X121080000Y-73080000D02*
X123000000Y-75000000D01*
X113271002Y-47500000D02*
X121080000Y-55308998D01*
X111000000Y-47500000D02*
X108000000Y-44500000D01*
X121080000Y-72500000D02*
X121080000Y-73080000D01*
X121080000Y-55308998D02*
X121080000Y-72500000D01*
X112000000Y-47500000D02*
X113271002Y-47500000D01*
X112000000Y-47500000D02*
X111000000Y-47500000D01*
X113271002Y-47500000D02*
X121080000Y-55308998D01*
X121080000Y-73080000D02*
X123000000Y-75000000D01*
%TO.N,Net-(Q2-Pad2)*%
X50000000Y-62100000D02*
X50000000Y-60600000D01*
X50075001Y-62175001D02*
X50000000Y-62100000D01*
X59924999Y-62175001D02*
X50075001Y-62175001D01*
X60000000Y-62100000D02*
X59924999Y-62175001D01*
X60000000Y-60600000D02*
X60000000Y-62100000D01*
X72311002Y-61825001D02*
X61225001Y-61825001D01*
X73474999Y-60661004D02*
X72311002Y-61825001D01*
X73474999Y-59007999D02*
X73474999Y-60661004D01*
X74007999Y-58474999D02*
X73474999Y-59007999D01*
X74502003Y-58474999D02*
X74007999Y-58474999D01*
X75525001Y-57452001D02*
X74502003Y-58474999D01*
X61225001Y-61825001D02*
X60000000Y-60600000D01*
X75525001Y-55264999D02*
X75525001Y-57452001D01*
X75750000Y-55040000D02*
X75525001Y-55264999D01*
X77000000Y-55040000D02*
X75750000Y-55040000D01*
X75525001Y-57452001D02*
X74502003Y-58474999D01*
X60000000Y-60600000D02*
X60000000Y-62100000D01*
X60000000Y-62100000D02*
X59924999Y-62175001D01*
X73474999Y-59007999D02*
X73474999Y-60661004D01*
X61225001Y-61825001D02*
X60000000Y-60600000D01*
X73474999Y-60661004D02*
X72311002Y-61825001D01*
X75750000Y-55040000D02*
X75525001Y-55264999D01*
X77000000Y-55040000D02*
X75750000Y-55040000D01*
X59924999Y-62175001D02*
X50075001Y-62175001D01*
X75525001Y-55264999D02*
X75525001Y-57452001D01*
X50000000Y-62100000D02*
X50000000Y-60600000D01*
X74007999Y-58474999D02*
X73474999Y-59007999D01*
X50075001Y-62175001D02*
X50000000Y-62100000D01*
X72311002Y-61825001D02*
X61225001Y-61825001D01*
X74502003Y-58474999D02*
X74007999Y-58474999D01*
X75525001Y-77452001D02*
X74502003Y-78474999D01*
X60000000Y-80600000D02*
X60000000Y-82100000D01*
X60000000Y-82100000D02*
X59924999Y-82175001D01*
X73474999Y-79007999D02*
X73474999Y-80661004D01*
X61225001Y-81825001D02*
X60000000Y-80600000D01*
X73474999Y-80661004D02*
X72311002Y-81825001D01*
X75750000Y-75040000D02*
X75525001Y-75264999D01*
X77000000Y-75040000D02*
X75750000Y-75040000D01*
X59924999Y-82175001D02*
X50075001Y-82175001D01*
X75525001Y-75264999D02*
X75525001Y-77452001D01*
X50000000Y-82100000D02*
X50000000Y-80600000D01*
X74007999Y-78474999D02*
X73474999Y-79007999D01*
X50075001Y-82175001D02*
X50000000Y-82100000D01*
X72311002Y-81825001D02*
X61225001Y-81825001D01*
X74502003Y-78474999D02*
X74007999Y-78474999D01*
X60000000Y-80600000D02*
X60000000Y-82100000D01*
X60000000Y-82100000D02*
X59924999Y-82175001D01*
X75750000Y-75040000D02*
X75525001Y-75264999D01*
X75525001Y-77452001D02*
X74502003Y-78474999D01*
X73474999Y-80661004D02*
X72311002Y-81825001D01*
X61225001Y-81825001D02*
X60000000Y-80600000D01*
X77000000Y-75040000D02*
X75750000Y-75040000D01*
X59924999Y-82175001D02*
X50075001Y-82175001D01*
X73474999Y-79007999D02*
X73474999Y-80661004D01*
X50075001Y-82175001D02*
X50000000Y-82100000D01*
X74007999Y-78474999D02*
X73474999Y-79007999D01*
X72311002Y-81825001D02*
X61225001Y-81825001D01*
X74502003Y-78474999D02*
X74007999Y-78474999D01*
X75525001Y-75264999D02*
X75525001Y-77452001D01*
X50000000Y-82100000D02*
X50000000Y-80600000D01*
X60000000Y-102100000D02*
X59924999Y-102175001D01*
X75525001Y-97452001D02*
X74502003Y-98474999D01*
X73474999Y-99007999D02*
X73474999Y-100661004D01*
X60000000Y-100600000D02*
X60000000Y-102100000D01*
X59924999Y-102175001D02*
X50075001Y-102175001D01*
X50000000Y-102100000D02*
X50000000Y-100600000D01*
X73474999Y-100661004D02*
X72311002Y-101825001D01*
X75750000Y-95040000D02*
X75525001Y-95264999D01*
X75525001Y-97452001D02*
X74502003Y-98474999D01*
X75750000Y-95040000D02*
X75525001Y-95264999D01*
X50075001Y-102175001D02*
X50000000Y-102100000D01*
X60000000Y-100600000D02*
X60000000Y-102100000D01*
X74502003Y-98474999D02*
X74007999Y-98474999D01*
X61225001Y-101825001D02*
X60000000Y-100600000D01*
X72311002Y-101825001D02*
X61225001Y-101825001D01*
X60000000Y-102100000D02*
X59924999Y-102175001D01*
X74007999Y-98474999D02*
X73474999Y-99007999D01*
X77000000Y-95040000D02*
X75750000Y-95040000D01*
X75525001Y-95264999D02*
X75525001Y-97452001D01*
X77000000Y-95040000D02*
X75750000Y-95040000D01*
X73474999Y-100661004D02*
X72311002Y-101825001D01*
X74007999Y-98474999D02*
X73474999Y-99007999D01*
X74502003Y-98474999D02*
X74007999Y-98474999D01*
X61225001Y-101825001D02*
X60000000Y-100600000D01*
X72311002Y-101825001D02*
X61225001Y-101825001D01*
X50075001Y-102175001D02*
X50000000Y-102100000D01*
X73474999Y-99007999D02*
X73474999Y-100661004D01*
X75525001Y-95264999D02*
X75525001Y-97452001D01*
X59924999Y-102175001D02*
X50075001Y-102175001D01*
X50000000Y-102100000D02*
X50000000Y-100600000D01*
X73474999Y-119007999D02*
X73474999Y-120661004D01*
X60000000Y-122100000D02*
X59924999Y-122175001D01*
X75525001Y-117452001D02*
X74502003Y-118474999D01*
X60000000Y-120600000D02*
X60000000Y-122100000D01*
X50000000Y-122100000D02*
X50000000Y-120600000D01*
X59924999Y-122175001D02*
X50075001Y-122175001D01*
X73474999Y-120661004D02*
X72311002Y-121825001D01*
X75525001Y-117452001D02*
X74502003Y-118474999D01*
X75750000Y-115040000D02*
X75525001Y-115264999D01*
X50075001Y-122175001D02*
X50000000Y-122100000D01*
X60000000Y-120600000D02*
X60000000Y-122100000D01*
X74502003Y-118474999D02*
X74007999Y-118474999D01*
X75750000Y-115040000D02*
X75525001Y-115264999D01*
X61225001Y-121825001D02*
X60000000Y-120600000D01*
X72311002Y-121825001D02*
X61225001Y-121825001D01*
X60000000Y-122100000D02*
X59924999Y-122175001D01*
X74007999Y-118474999D02*
X73474999Y-119007999D01*
X77000000Y-115040000D02*
X75750000Y-115040000D01*
X75525001Y-115264999D02*
X75525001Y-117452001D01*
X77000000Y-115040000D02*
X75750000Y-115040000D01*
X72311002Y-121825001D02*
X61225001Y-121825001D01*
X50075001Y-122175001D02*
X50000000Y-122100000D01*
X75525001Y-115264999D02*
X75525001Y-117452001D01*
X73474999Y-119007999D02*
X73474999Y-120661004D01*
X61225001Y-121825001D02*
X60000000Y-120600000D01*
X73474999Y-120661004D02*
X72311002Y-121825001D01*
X74007999Y-118474999D02*
X73474999Y-119007999D01*
X59924999Y-122175001D02*
X50075001Y-122175001D01*
X74502003Y-118474999D02*
X74007999Y-118474999D01*
X50000000Y-122100000D02*
X50000000Y-120600000D01*
X50000000Y-142100000D02*
X50000000Y-140600000D01*
X75525001Y-137452001D02*
X74502003Y-138474999D01*
X73474999Y-139007999D02*
X73474999Y-140661004D01*
X60000000Y-142100000D02*
X59924999Y-142175001D01*
X60000000Y-140600000D02*
X60000000Y-142100000D01*
X61225001Y-141825001D02*
X60000000Y-140600000D01*
X72311002Y-141825001D02*
X61225001Y-141825001D01*
X60000000Y-142100000D02*
X59924999Y-142175001D01*
X74007999Y-138474999D02*
X73474999Y-139007999D01*
X75525001Y-135264999D02*
X75525001Y-137452001D01*
X77000000Y-135040000D02*
X75750000Y-135040000D01*
X75525001Y-135264999D02*
X75525001Y-137452001D01*
X72311002Y-141825001D02*
X61225001Y-141825001D01*
X50075001Y-142175001D02*
X50000000Y-142100000D01*
X73474999Y-139007999D02*
X73474999Y-140661004D01*
X61225001Y-141825001D02*
X60000000Y-140600000D01*
X77000000Y-135040000D02*
X75750000Y-135040000D01*
X75750000Y-135040000D02*
X75525001Y-135264999D01*
X73474999Y-140661004D02*
X72311002Y-141825001D01*
X75525001Y-137452001D02*
X74502003Y-138474999D01*
X50000000Y-142100000D02*
X50000000Y-140600000D01*
X59924999Y-142175001D02*
X50075001Y-142175001D01*
X75750000Y-135040000D02*
X75525001Y-135264999D01*
X50075001Y-142175001D02*
X50000000Y-142100000D01*
X60000000Y-140600000D02*
X60000000Y-142100000D01*
X74502003Y-138474999D02*
X74007999Y-138474999D01*
X59924999Y-142175001D02*
X50075001Y-142175001D01*
X73474999Y-140661004D02*
X72311002Y-141825001D01*
X74007999Y-138474999D02*
X73474999Y-139007999D01*
X74502003Y-138474999D02*
X74007999Y-138474999D01*
X120952001Y-73974999D02*
X121974999Y-74997997D01*
X124100000Y-89500000D02*
X125600000Y-89500000D01*
X125600000Y-89500000D02*
X125675001Y-89575001D01*
X122507999Y-76025001D02*
X124161004Y-76025001D01*
X125325001Y-88274999D02*
X124100000Y-89500000D01*
X124161004Y-76025001D02*
X125325001Y-77188998D01*
X118540000Y-73750000D02*
X118764999Y-73974999D01*
X118540000Y-72500000D02*
X118540000Y-73750000D01*
X125675001Y-89575001D02*
X125675001Y-99424999D01*
X118764999Y-73974999D02*
X120952001Y-73974999D01*
X125600000Y-99500000D02*
X124100000Y-99500000D01*
X121974999Y-75492001D02*
X122507999Y-76025001D01*
X125675001Y-99424999D02*
X125600000Y-99500000D01*
X125325001Y-77188998D02*
X125325001Y-88274999D01*
X121974999Y-74997997D02*
X121974999Y-75492001D01*
X124100000Y-89500000D02*
X125600000Y-89500000D01*
X125600000Y-89500000D02*
X125675001Y-89575001D01*
X118540000Y-73750000D02*
X118764999Y-73974999D01*
X120952001Y-73974999D02*
X121974999Y-74997997D01*
X124161004Y-76025001D02*
X125325001Y-77188998D01*
X125325001Y-88274999D02*
X124100000Y-89500000D01*
X118540000Y-72500000D02*
X118540000Y-73750000D01*
X125675001Y-89575001D02*
X125675001Y-99424999D01*
X122507999Y-76025001D02*
X124161004Y-76025001D01*
X125675001Y-99424999D02*
X125600000Y-99500000D01*
X121974999Y-75492001D02*
X122507999Y-76025001D01*
X125325001Y-77188998D02*
X125325001Y-88274999D01*
X121974999Y-74997997D02*
X121974999Y-75492001D01*
X118764999Y-73974999D02*
X120952001Y-73974999D01*
X125600000Y-99500000D02*
X124100000Y-99500000D01*
%TO.N,Net-(SW2-Pad1)*%
X63700000Y-59024999D02*
X65175001Y-60500000D01*
X58075001Y-59024999D02*
X63700000Y-59024999D01*
X58000000Y-59100000D02*
X58075001Y-59024999D01*
X58000000Y-60600000D02*
X58000000Y-59100000D01*
X65175001Y-60500000D02*
X71675001Y-60500000D01*
X63700000Y-59024999D02*
X65175001Y-60500000D01*
X58075001Y-59024999D02*
X63700000Y-59024999D01*
X58000000Y-59100000D02*
X58075001Y-59024999D01*
X58000000Y-60600000D02*
X58000000Y-59100000D01*
X65175001Y-60500000D02*
X71675001Y-60500000D01*
X63700000Y-79024999D02*
X65175001Y-80500000D01*
X58075001Y-79024999D02*
X63700000Y-79024999D01*
X58000000Y-79100000D02*
X58075001Y-79024999D01*
X58000000Y-80600000D02*
X58000000Y-79100000D01*
X65175001Y-80500000D02*
X71675001Y-80500000D01*
X63700000Y-79024999D02*
X65175001Y-80500000D01*
X58000000Y-79100000D02*
X58075001Y-79024999D01*
X58075001Y-79024999D02*
X63700000Y-79024999D01*
X58000000Y-80600000D02*
X58000000Y-79100000D01*
X65175001Y-80500000D02*
X71675001Y-80500000D01*
X63700000Y-99024999D02*
X65175001Y-100500000D01*
X65175001Y-100500000D02*
X71675001Y-100500000D01*
X58000000Y-99100000D02*
X58075001Y-99024999D01*
X63700000Y-99024999D02*
X65175001Y-100500000D01*
X58000000Y-100600000D02*
X58000000Y-99100000D01*
X58075001Y-99024999D02*
X63700000Y-99024999D01*
X58075001Y-99024999D02*
X63700000Y-99024999D01*
X65175001Y-100500000D02*
X71675001Y-100500000D01*
X58000000Y-99100000D02*
X58075001Y-99024999D01*
X58000000Y-100600000D02*
X58000000Y-99100000D01*
X63700000Y-119024999D02*
X65175001Y-120500000D01*
X58000000Y-119100000D02*
X58075001Y-119024999D01*
X65175001Y-120500000D02*
X71675001Y-120500000D01*
X63700000Y-119024999D02*
X65175001Y-120500000D01*
X58000000Y-120600000D02*
X58000000Y-119100000D01*
X58075001Y-119024999D02*
X63700000Y-119024999D01*
X58000000Y-119100000D02*
X58075001Y-119024999D01*
X65175001Y-120500000D02*
X71675001Y-120500000D01*
X58000000Y-120600000D02*
X58000000Y-119100000D01*
X58075001Y-119024999D02*
X63700000Y-119024999D01*
X63700000Y-139024999D02*
X65175001Y-140500000D01*
X63700000Y-139024999D02*
X65175001Y-140500000D01*
X58000000Y-139100000D02*
X58075001Y-139024999D01*
X65175001Y-140500000D02*
X71675001Y-140500000D01*
X58000000Y-139100000D02*
X58075001Y-139024999D01*
X58000000Y-140600000D02*
X58000000Y-139100000D01*
X58075001Y-139024999D02*
X63700000Y-139024999D01*
X65175001Y-140500000D02*
X71675001Y-140500000D01*
X58075001Y-139024999D02*
X63700000Y-139024999D01*
X58000000Y-140600000D02*
X58000000Y-139100000D01*
X122524999Y-85800000D02*
X124000000Y-84324999D01*
X122524999Y-91424999D02*
X122524999Y-85800000D01*
X122600000Y-91500000D02*
X122524999Y-91424999D01*
X124100000Y-91500000D02*
X122600000Y-91500000D01*
X124000000Y-84324999D02*
X124000000Y-77824999D01*
X122524999Y-85800000D02*
X124000000Y-84324999D01*
X122600000Y-91500000D02*
X122524999Y-91424999D01*
X122524999Y-91424999D02*
X122524999Y-85800000D01*
X124100000Y-91500000D02*
X122600000Y-91500000D01*
X124000000Y-84324999D02*
X124000000Y-77824999D01*
%TO.N,Net-(SW3-Pad1)*%
X50000000Y-45400000D02*
X50000000Y-49000000D01*
X50000000Y-49000000D02*
X50000000Y-49000000D01*
X50000000Y-45400000D02*
X50000000Y-49000000D01*
X50000000Y-49000000D02*
X50000000Y-49000000D01*
X50000000Y-65400000D02*
X50000000Y-69000000D01*
X50000000Y-69000000D02*
X50000000Y-69000000D01*
X50000000Y-69000000D02*
X50000000Y-69000000D01*
X50000000Y-65400000D02*
X50000000Y-69000000D01*
X50000000Y-85400000D02*
X50000000Y-89000000D01*
X50000000Y-89000000D02*
X50000000Y-89000000D01*
X50000000Y-85400000D02*
X50000000Y-89000000D01*
X50000000Y-89000000D02*
X50000000Y-89000000D01*
X50000000Y-105400000D02*
X50000000Y-109000000D01*
X50000000Y-109000000D02*
X50000000Y-109000000D01*
X50000000Y-105400000D02*
X50000000Y-109000000D01*
X50000000Y-109000000D02*
X50000000Y-109000000D01*
X50000000Y-125400000D02*
X50000000Y-129000000D01*
X50000000Y-129000000D02*
X50000000Y-129000000D01*
X50000000Y-125400000D02*
X50000000Y-129000000D01*
X50000000Y-129000000D02*
X50000000Y-129000000D01*
X108900000Y-99500000D02*
X112500000Y-99500000D01*
X112500000Y-99500000D02*
X112500000Y-99500000D01*
X112500000Y-99500000D02*
X112500000Y-99500000D01*
X108900000Y-99500000D02*
X112500000Y-99500000D01*
%TO.N,Net-(Q1-Pad2)*%
X77770000Y-46730000D02*
X81500000Y-46730000D01*
X77000000Y-47500000D02*
X77770000Y-46730000D01*
X77770000Y-46730000D02*
X81500000Y-46730000D01*
X77000000Y-47500000D02*
X77770000Y-46730000D01*
X77770000Y-66730000D02*
X81500000Y-66730000D01*
X77000000Y-67500000D02*
X77770000Y-66730000D01*
X77000000Y-67500000D02*
X77770000Y-66730000D01*
X77770000Y-66730000D02*
X81500000Y-66730000D01*
X77770000Y-86730000D02*
X81500000Y-86730000D01*
X77000000Y-87500000D02*
X77770000Y-86730000D01*
X77770000Y-86730000D02*
X81500000Y-86730000D01*
X77000000Y-87500000D02*
X77770000Y-86730000D01*
X77770000Y-106730000D02*
X81500000Y-106730000D01*
X77000000Y-107500000D02*
X77770000Y-106730000D01*
X77000000Y-107500000D02*
X77770000Y-106730000D01*
X77770000Y-106730000D02*
X81500000Y-106730000D01*
X77770000Y-126730000D02*
X81500000Y-126730000D01*
X77000000Y-127500000D02*
X77770000Y-126730000D01*
X77770000Y-126730000D02*
X81500000Y-126730000D01*
X77000000Y-127500000D02*
X77770000Y-126730000D01*
X110230000Y-71730000D02*
X110230000Y-68000000D01*
X111000000Y-72500000D02*
X110230000Y-71730000D01*
X111000000Y-72500000D02*
X110230000Y-71730000D01*
X110230000Y-71730000D02*
X110230000Y-68000000D01*
%TO.N,Net-(Q1-Pad3)*%
X74500000Y-48482998D02*
X74500000Y-56960000D01*
X76997997Y-45985001D02*
X74500000Y-48482998D01*
X78017002Y-45460000D02*
X77492001Y-45985001D01*
X77492001Y-45985001D02*
X76997997Y-45985001D01*
X81500000Y-45460000D02*
X78017002Y-45460000D01*
X77000000Y-52500000D02*
X77000000Y-51000000D01*
X77000000Y-51000000D02*
X74500000Y-48500000D01*
X81500000Y-45460000D02*
X78017002Y-45460000D01*
X76997997Y-45985001D02*
X74500000Y-48482998D01*
X77492001Y-45985001D02*
X76997997Y-45985001D01*
X74500000Y-48482998D02*
X74500000Y-56960000D01*
X78017002Y-45460000D02*
X77492001Y-45985001D01*
X77000000Y-52500000D02*
X77000000Y-51000000D01*
X77000000Y-51000000D02*
X74500000Y-48500000D01*
X81500000Y-65460000D02*
X78017002Y-65460000D01*
X76997997Y-65985001D02*
X74500000Y-68482998D01*
X77492001Y-65985001D02*
X76997997Y-65985001D01*
X74500000Y-68482998D02*
X74500000Y-76960000D01*
X78017002Y-65460000D02*
X77492001Y-65985001D01*
X77000000Y-72500000D02*
X77000000Y-71000000D01*
X77000000Y-71000000D02*
X74500000Y-68500000D01*
X77000000Y-71000000D02*
X74500000Y-68500000D01*
X76997997Y-65985001D02*
X74500000Y-68482998D01*
X77000000Y-72500000D02*
X77000000Y-71000000D01*
X78017002Y-65460000D02*
X77492001Y-65985001D01*
X74500000Y-68482998D02*
X74500000Y-76960000D01*
X81500000Y-65460000D02*
X78017002Y-65460000D01*
X77492001Y-65985001D02*
X76997997Y-65985001D01*
X76997997Y-85985001D02*
X74500000Y-88482998D01*
X78017002Y-85460000D02*
X77492001Y-85985001D01*
X74500000Y-88482998D02*
X74500000Y-96960000D01*
X77000000Y-91000000D02*
X74500000Y-88500000D01*
X77000000Y-92500000D02*
X77000000Y-91000000D01*
X81500000Y-85460000D02*
X78017002Y-85460000D01*
X77492001Y-85985001D02*
X76997997Y-85985001D01*
X81500000Y-85460000D02*
X78017002Y-85460000D01*
X78017002Y-85460000D02*
X77492001Y-85985001D01*
X76997997Y-85985001D02*
X74500000Y-88482998D01*
X77000000Y-91000000D02*
X74500000Y-88500000D01*
X77492001Y-85985001D02*
X76997997Y-85985001D01*
X77000000Y-92500000D02*
X77000000Y-91000000D01*
X74500000Y-88482998D02*
X74500000Y-96960000D01*
X78017002Y-105460000D02*
X77492001Y-105985001D01*
X76997997Y-105985001D02*
X74500000Y-108482998D01*
X77000000Y-111000000D02*
X74500000Y-108500000D01*
X74500000Y-108482998D02*
X74500000Y-116960000D01*
X77000000Y-112500000D02*
X77000000Y-111000000D01*
X81500000Y-105460000D02*
X78017002Y-105460000D01*
X78017002Y-105460000D02*
X77492001Y-105985001D01*
X74500000Y-108482998D02*
X74500000Y-116960000D01*
X77000000Y-111000000D02*
X74500000Y-108500000D01*
X81500000Y-105460000D02*
X78017002Y-105460000D01*
X77000000Y-112500000D02*
X77000000Y-111000000D01*
X77492001Y-105985001D02*
X76997997Y-105985001D01*
X76997997Y-105985001D02*
X74500000Y-108482998D01*
X77492001Y-105985001D02*
X76997997Y-105985001D01*
X77492001Y-125985001D02*
X76997997Y-125985001D01*
X74500000Y-128482998D02*
X74500000Y-136960000D01*
X77000000Y-132500000D02*
X77000000Y-131000000D01*
X81500000Y-125460000D02*
X78017002Y-125460000D01*
X81500000Y-125460000D02*
X78017002Y-125460000D01*
X77000000Y-131000000D02*
X74500000Y-128500000D01*
X78017002Y-125460000D02*
X77492001Y-125985001D01*
X74500000Y-128482998D02*
X74500000Y-136960000D01*
X77000000Y-131000000D02*
X74500000Y-128500000D01*
X76997997Y-125985001D02*
X74500000Y-128482998D01*
X78017002Y-125460000D02*
X77492001Y-125985001D01*
X77000000Y-132500000D02*
X77000000Y-131000000D01*
X76997997Y-125985001D02*
X74500000Y-128482998D01*
X77492001Y-125985001D02*
X76997997Y-125985001D01*
X108960000Y-68000000D02*
X108960000Y-71482998D01*
X109485001Y-72502003D02*
X111982998Y-75000000D01*
X109485001Y-72007999D02*
X109485001Y-72502003D01*
X111982998Y-75000000D02*
X120460000Y-75000000D01*
X108960000Y-71482998D02*
X109485001Y-72007999D01*
X116000000Y-72500000D02*
X114500000Y-72500000D01*
X114500000Y-72500000D02*
X112000000Y-75000000D01*
X114500000Y-72500000D02*
X112000000Y-75000000D01*
X109485001Y-72502003D02*
X111982998Y-75000000D01*
X116000000Y-72500000D02*
X114500000Y-72500000D01*
X108960000Y-71482998D02*
X109485001Y-72007999D01*
X111982998Y-75000000D02*
X120460000Y-75000000D01*
X108960000Y-68000000D02*
X108960000Y-71482998D01*
X109485001Y-72007999D02*
X109485001Y-72502003D01*
%TD*%
M02*
