M48
; DRILL file {KiCad (5.1.9)-1} date 08/15/21 14:18:17
; FORMAT={3:3/ absolute / metric / suppress leading zeros}
; #@! TF.CreationDate,2021-08-15T14:18:17+02:00
; #@! TF.GenerationSoftware,Kicad,Pcbnew,(5.1.9)-1
; #@! TF.FileFunction,NonPlated,1,2,NPTH
FMAT,2
METRIC,TZ
T1C3.250
%
G90
G05
T1
X53110Y-47590
X53110Y-57750
X53110Y-72590
X53110Y-82750
X53110Y-97590
X53110Y-107750
X53110Y-122590
X53110Y-132750
X86110Y-47590
X86110Y-57750
X86110Y-72590
X86110Y-82750
X86110Y-97590
X86110Y-107750
X86110Y-122590
X86110Y-132750
X119110Y-47590
X119110Y-57750
X119110Y-72590
X119110Y-82750
X119110Y-97590
X119110Y-107750
X119110Y-122590
X119110Y-132750
T0
M30
