%TF.GenerationSoftware,KiCad,Pcbnew,(5.1.9)-1*%
%TF.CreationDate,2021-08-15T14:18:06+02:00*%
%TF.ProjectId,IM350_AM550_5V_V3.0_multi,494d3335-305f-4414-9d35-35305f35565f,rev?*%
%TF.SameCoordinates,Original*%
%TF.FileFunction,Copper,L1,Top*%
%TF.FilePolarity,Positive*%
%FSLAX46Y46*%
G04 Gerber Fmt 4.6, Leading zero omitted, Abs format (unit mm)*
G04 Created by KiCad (PCBNEW (5.1.9)-1) date 2021-08-15 14:18:06*
%MOMM*%
%LPD*%
G01*
G04 APERTURE LIST*
%TA.AperFunction,SMDPad,CuDef*%
%ADD10R,2.500000X1.000000*%
%TD*%
%TA.AperFunction,SMDPad,CuDef*%
%ADD11R,1.000000X1.800000*%
%TD*%
%TA.AperFunction,SMDPad,CuDef*%
%ADD12R,2.800000X0.600000*%
%TD*%
%TA.AperFunction,ComponentPad*%
%ADD13O,1.900000X1.050000*%
%TD*%
%TA.AperFunction,SMDPad,CuDef*%
%ADD14R,1.500000X1.500000*%
%TD*%
%TA.AperFunction,ComponentPad*%
%ADD15C,1.520000*%
%TD*%
%TA.AperFunction,ComponentPad*%
%ADD16R,1.520000X1.520000*%
%TD*%
%TA.AperFunction,ViaPad*%
%ADD17C,0.800000*%
%TD*%
%TA.AperFunction,Conductor*%
%ADD18C,0.250000*%
%TD*%
G04 APERTURE END LIST*
D10*
%TO.P,U2,22*%
%TO.N,Net-(U2-Pad22)*%
X80675000Y-128725000D03*
%TO.P,U2,21*%
%TO.N,Net-(P3-Pad2)*%
X80675000Y-130725000D03*
%TO.P,U2,20*%
%TO.N,Net-(J2-Pad2)*%
X80675000Y-132725000D03*
%TO.P,U2,19*%
%TO.N,Net-(P4-Pad2)*%
X80675000Y-134725000D03*
%TO.P,U2,18*%
%TO.N,Net-(U2-Pad18)*%
X80675000Y-136725000D03*
%TO.P,U2,17*%
%TO.N,Net-(U2-Pad17)*%
X80675000Y-138725000D03*
%TO.P,U2,16*%
%TO.N,Net-(R5-Pad1)*%
X80675000Y-140725000D03*
%TO.P,U2,15*%
%TO.N,Net-(C1-Pad2)*%
X80675000Y-142725000D03*
D11*
%TO.P,U2,14*%
%TO.N,Net-(U2-Pad14)*%
X78075000Y-144225000D03*
%TO.P,U2,13*%
%TO.N,Net-(U2-Pad13)*%
X76075000Y-144225000D03*
%TO.P,U2,12*%
%TO.N,Net-(U2-Pad12)*%
X74075000Y-144225000D03*
%TO.P,U2,11*%
%TO.N,Net-(U2-Pad11)*%
X72075000Y-144225000D03*
%TO.P,U2,10*%
%TO.N,Net-(U2-Pad10)*%
X70075000Y-144225000D03*
%TO.P,U2,9*%
%TO.N,Net-(U2-Pad9)*%
X68075000Y-144225000D03*
D10*
%TO.P,U2,8*%
%TO.N,Net-(C1-Pad1)*%
X65475000Y-142725000D03*
%TO.P,U2,7*%
%TO.N,Net-(SW2-Pad1)*%
X65475000Y-140725000D03*
%TO.P,U2,6*%
%TO.N,Net-(U2-Pad6)*%
X65475000Y-138725000D03*
%TO.P,U2,5*%
%TO.N,Net-(J2-Pad1)*%
X65475000Y-136725000D03*
%TO.P,U2,4*%
%TO.N,Net-(U2-Pad1)*%
X65475000Y-134725000D03*
%TO.P,U2,3*%
%TO.N,Net-(C1-Pad1)*%
X65475000Y-132725000D03*
%TO.P,U2,2*%
%TO.N,Net-(U2-Pad2)*%
X65475000Y-130725000D03*
%TO.P,U2,1*%
%TO.N,Net-(U2-Pad1)*%
X65475000Y-128725000D03*
%TD*%
D12*
%TO.P,J1,1*%
%TO.N,Net-(J1-Pad1)*%
X56650000Y-139200000D03*
%TO.P,J1,5*%
%TO.N,Net-(C1-Pad2)*%
X56650000Y-141800000D03*
D13*
%TO.P,J1,*%
%TO.N,*%
X50300000Y-136925000D03*
X50300000Y-144075000D03*
%TD*%
D14*
%TO.P,SW2,2*%
%TO.N,Net-(C1-Pad2)*%
X94000000Y-136100000D03*
%TO.P,SW2,1*%
%TO.N,Net-(SW2-Pad1)*%
X94000000Y-143900000D03*
%TD*%
D15*
%TO.P,J2,6*%
%TO.N,Net-(C1-Pad2)*%
X125460000Y-130850000D03*
%TO.P,J2,5*%
%TO.N,Net-(J2-Pad5)*%
X128000000Y-129580000D03*
%TO.P,J2,4*%
%TO.N,Net-(J2-Pad4)*%
X125460000Y-128310000D03*
%TO.P,J2,3*%
%TO.N,Net-(C1-Pad2)*%
X128000000Y-127040000D03*
%TO.P,J2,2*%
%TO.N,Net-(J2-Pad2)*%
X125460000Y-125770000D03*
D16*
%TO.P,J2,1*%
%TO.N,Net-(J2-Pad1)*%
X128000000Y-124500000D03*
%TD*%
D14*
%TO.P,SW2,1*%
%TO.N,Net-(SW2-Pad1)*%
X127000000Y-143900000D03*
%TO.P,SW2,2*%
%TO.N,Net-(C1-Pad2)*%
X127000000Y-136100000D03*
%TD*%
D15*
%TO.P,J2,6*%
%TO.N,Net-(C1-Pad2)*%
X59460000Y-130850000D03*
%TO.P,J2,5*%
%TO.N,Net-(J2-Pad5)*%
X62000000Y-129580000D03*
%TO.P,J2,4*%
%TO.N,Net-(J2-Pad4)*%
X59460000Y-128310000D03*
%TO.P,J2,3*%
%TO.N,Net-(C1-Pad2)*%
X62000000Y-127040000D03*
%TO.P,J2,2*%
%TO.N,Net-(J2-Pad2)*%
X59460000Y-125770000D03*
D16*
%TO.P,J2,1*%
%TO.N,Net-(J2-Pad1)*%
X62000000Y-124500000D03*
%TD*%
D14*
%TO.P,SW2,1*%
%TO.N,Net-(SW2-Pad1)*%
X61000000Y-143900000D03*
%TO.P,SW2,2*%
%TO.N,Net-(C1-Pad2)*%
X61000000Y-136100000D03*
%TD*%
D10*
%TO.P,U2,1*%
%TO.N,Net-(U2-Pad1)*%
X98475000Y-128725000D03*
%TO.P,U2,2*%
%TO.N,Net-(U2-Pad2)*%
X98475000Y-130725000D03*
%TO.P,U2,3*%
%TO.N,Net-(C1-Pad1)*%
X98475000Y-132725000D03*
%TO.P,U2,4*%
%TO.N,Net-(U2-Pad1)*%
X98475000Y-134725000D03*
%TO.P,U2,5*%
%TO.N,Net-(J2-Pad1)*%
X98475000Y-136725000D03*
%TO.P,U2,6*%
%TO.N,Net-(U2-Pad6)*%
X98475000Y-138725000D03*
%TO.P,U2,7*%
%TO.N,Net-(SW2-Pad1)*%
X98475000Y-140725000D03*
%TO.P,U2,8*%
%TO.N,Net-(C1-Pad1)*%
X98475000Y-142725000D03*
D11*
%TO.P,U2,9*%
%TO.N,Net-(U2-Pad9)*%
X101075000Y-144225000D03*
%TO.P,U2,10*%
%TO.N,Net-(U2-Pad10)*%
X103075000Y-144225000D03*
%TO.P,U2,11*%
%TO.N,Net-(U2-Pad11)*%
X105075000Y-144225000D03*
%TO.P,U2,12*%
%TO.N,Net-(U2-Pad12)*%
X107075000Y-144225000D03*
%TO.P,U2,13*%
%TO.N,Net-(U2-Pad13)*%
X109075000Y-144225000D03*
%TO.P,U2,14*%
%TO.N,Net-(U2-Pad14)*%
X111075000Y-144225000D03*
D10*
%TO.P,U2,15*%
%TO.N,Net-(C1-Pad2)*%
X113675000Y-142725000D03*
%TO.P,U2,16*%
%TO.N,Net-(R5-Pad1)*%
X113675000Y-140725000D03*
%TO.P,U2,17*%
%TO.N,Net-(U2-Pad17)*%
X113675000Y-138725000D03*
%TO.P,U2,18*%
%TO.N,Net-(U2-Pad18)*%
X113675000Y-136725000D03*
%TO.P,U2,19*%
%TO.N,Net-(P4-Pad2)*%
X113675000Y-134725000D03*
%TO.P,U2,20*%
%TO.N,Net-(J2-Pad2)*%
X113675000Y-132725000D03*
%TO.P,U2,21*%
%TO.N,Net-(P3-Pad2)*%
X113675000Y-130725000D03*
%TO.P,U2,22*%
%TO.N,Net-(U2-Pad22)*%
X113675000Y-128725000D03*
%TD*%
%TO.P,U2,22*%
%TO.N,Net-(U2-Pad22)*%
X146675000Y-128725000D03*
%TO.P,U2,21*%
%TO.N,Net-(P3-Pad2)*%
X146675000Y-130725000D03*
%TO.P,U2,20*%
%TO.N,Net-(J2-Pad2)*%
X146675000Y-132725000D03*
%TO.P,U2,19*%
%TO.N,Net-(P4-Pad2)*%
X146675000Y-134725000D03*
%TO.P,U2,18*%
%TO.N,Net-(U2-Pad18)*%
X146675000Y-136725000D03*
%TO.P,U2,17*%
%TO.N,Net-(U2-Pad17)*%
X146675000Y-138725000D03*
%TO.P,U2,16*%
%TO.N,Net-(R5-Pad1)*%
X146675000Y-140725000D03*
%TO.P,U2,15*%
%TO.N,Net-(C1-Pad2)*%
X146675000Y-142725000D03*
D11*
%TO.P,U2,14*%
%TO.N,Net-(U2-Pad14)*%
X144075000Y-144225000D03*
%TO.P,U2,13*%
%TO.N,Net-(U2-Pad13)*%
X142075000Y-144225000D03*
%TO.P,U2,12*%
%TO.N,Net-(U2-Pad12)*%
X140075000Y-144225000D03*
%TO.P,U2,11*%
%TO.N,Net-(U2-Pad11)*%
X138075000Y-144225000D03*
%TO.P,U2,10*%
%TO.N,Net-(U2-Pad10)*%
X136075000Y-144225000D03*
%TO.P,U2,9*%
%TO.N,Net-(U2-Pad9)*%
X134075000Y-144225000D03*
D10*
%TO.P,U2,8*%
%TO.N,Net-(C1-Pad1)*%
X131475000Y-142725000D03*
%TO.P,U2,7*%
%TO.N,Net-(SW2-Pad1)*%
X131475000Y-140725000D03*
%TO.P,U2,6*%
%TO.N,Net-(U2-Pad6)*%
X131475000Y-138725000D03*
%TO.P,U2,5*%
%TO.N,Net-(J2-Pad1)*%
X131475000Y-136725000D03*
%TO.P,U2,4*%
%TO.N,Net-(U2-Pad1)*%
X131475000Y-134725000D03*
%TO.P,U2,3*%
%TO.N,Net-(C1-Pad1)*%
X131475000Y-132725000D03*
%TO.P,U2,2*%
%TO.N,Net-(U2-Pad2)*%
X131475000Y-130725000D03*
%TO.P,U2,1*%
%TO.N,Net-(U2-Pad1)*%
X131475000Y-128725000D03*
%TD*%
D16*
%TO.P,J2,1*%
%TO.N,Net-(J2-Pad1)*%
X95000000Y-124500000D03*
D15*
%TO.P,J2,2*%
%TO.N,Net-(J2-Pad2)*%
X92460000Y-125770000D03*
%TO.P,J2,3*%
%TO.N,Net-(C1-Pad2)*%
X95000000Y-127040000D03*
%TO.P,J2,4*%
%TO.N,Net-(J2-Pad4)*%
X92460000Y-128310000D03*
%TO.P,J2,5*%
%TO.N,Net-(J2-Pad5)*%
X95000000Y-129580000D03*
%TO.P,J2,6*%
%TO.N,Net-(C1-Pad2)*%
X92460000Y-130850000D03*
%TD*%
D13*
%TO.P,J1,*%
%TO.N,*%
X83300000Y-144075000D03*
X83300000Y-136925000D03*
D12*
%TO.P,J1,5*%
%TO.N,Net-(C1-Pad2)*%
X89650000Y-141800000D03*
%TO.P,J1,1*%
%TO.N,Net-(J1-Pad1)*%
X89650000Y-139200000D03*
%TD*%
%TO.P,J1,1*%
%TO.N,Net-(J1-Pad1)*%
X122650000Y-139200000D03*
%TO.P,J1,5*%
%TO.N,Net-(C1-Pad2)*%
X122650000Y-141800000D03*
D13*
%TO.P,J1,*%
%TO.N,*%
X116300000Y-136925000D03*
X116300000Y-144075000D03*
%TD*%
D10*
%TO.P,U2,1*%
%TO.N,Net-(U2-Pad1)*%
X65475000Y-103725000D03*
%TO.P,U2,2*%
%TO.N,Net-(U2-Pad2)*%
X65475000Y-105725000D03*
%TO.P,U2,3*%
%TO.N,Net-(C1-Pad1)*%
X65475000Y-107725000D03*
%TO.P,U2,4*%
%TO.N,Net-(U2-Pad1)*%
X65475000Y-109725000D03*
%TO.P,U2,5*%
%TO.N,Net-(J2-Pad1)*%
X65475000Y-111725000D03*
%TO.P,U2,6*%
%TO.N,Net-(U2-Pad6)*%
X65475000Y-113725000D03*
%TO.P,U2,7*%
%TO.N,Net-(SW2-Pad1)*%
X65475000Y-115725000D03*
%TO.P,U2,8*%
%TO.N,Net-(C1-Pad1)*%
X65475000Y-117725000D03*
D11*
%TO.P,U2,9*%
%TO.N,Net-(U2-Pad9)*%
X68075000Y-119225000D03*
%TO.P,U2,10*%
%TO.N,Net-(U2-Pad10)*%
X70075000Y-119225000D03*
%TO.P,U2,11*%
%TO.N,Net-(U2-Pad11)*%
X72075000Y-119225000D03*
%TO.P,U2,12*%
%TO.N,Net-(U2-Pad12)*%
X74075000Y-119225000D03*
%TO.P,U2,13*%
%TO.N,Net-(U2-Pad13)*%
X76075000Y-119225000D03*
%TO.P,U2,14*%
%TO.N,Net-(U2-Pad14)*%
X78075000Y-119225000D03*
D10*
%TO.P,U2,15*%
%TO.N,Net-(C1-Pad2)*%
X80675000Y-117725000D03*
%TO.P,U2,16*%
%TO.N,Net-(R5-Pad1)*%
X80675000Y-115725000D03*
%TO.P,U2,17*%
%TO.N,Net-(U2-Pad17)*%
X80675000Y-113725000D03*
%TO.P,U2,18*%
%TO.N,Net-(U2-Pad18)*%
X80675000Y-111725000D03*
%TO.P,U2,19*%
%TO.N,Net-(P4-Pad2)*%
X80675000Y-109725000D03*
%TO.P,U2,20*%
%TO.N,Net-(J2-Pad2)*%
X80675000Y-107725000D03*
%TO.P,U2,21*%
%TO.N,Net-(P3-Pad2)*%
X80675000Y-105725000D03*
%TO.P,U2,22*%
%TO.N,Net-(U2-Pad22)*%
X80675000Y-103725000D03*
%TD*%
D13*
%TO.P,J1,*%
%TO.N,*%
X50300000Y-119075000D03*
X50300000Y-111925000D03*
D12*
%TO.P,J1,5*%
%TO.N,Net-(C1-Pad2)*%
X56650000Y-116800000D03*
%TO.P,J1,1*%
%TO.N,Net-(J1-Pad1)*%
X56650000Y-114200000D03*
%TD*%
D14*
%TO.P,SW2,2*%
%TO.N,Net-(C1-Pad2)*%
X127000000Y-111100000D03*
%TO.P,SW2,1*%
%TO.N,Net-(SW2-Pad1)*%
X127000000Y-118900000D03*
%TD*%
D16*
%TO.P,J2,1*%
%TO.N,Net-(J2-Pad1)*%
X62000000Y-99500000D03*
D15*
%TO.P,J2,2*%
%TO.N,Net-(J2-Pad2)*%
X59460000Y-100770000D03*
%TO.P,J2,3*%
%TO.N,Net-(C1-Pad2)*%
X62000000Y-102040000D03*
%TO.P,J2,4*%
%TO.N,Net-(J2-Pad4)*%
X59460000Y-103310000D03*
%TO.P,J2,5*%
%TO.N,Net-(J2-Pad5)*%
X62000000Y-104580000D03*
%TO.P,J2,6*%
%TO.N,Net-(C1-Pad2)*%
X59460000Y-105850000D03*
%TD*%
D16*
%TO.P,J2,1*%
%TO.N,Net-(J2-Pad1)*%
X128000000Y-99500000D03*
D15*
%TO.P,J2,2*%
%TO.N,Net-(J2-Pad2)*%
X125460000Y-100770000D03*
%TO.P,J2,3*%
%TO.N,Net-(C1-Pad2)*%
X128000000Y-102040000D03*
%TO.P,J2,4*%
%TO.N,Net-(J2-Pad4)*%
X125460000Y-103310000D03*
%TO.P,J2,5*%
%TO.N,Net-(J2-Pad5)*%
X128000000Y-104580000D03*
%TO.P,J2,6*%
%TO.N,Net-(C1-Pad2)*%
X125460000Y-105850000D03*
%TD*%
D14*
%TO.P,SW2,1*%
%TO.N,Net-(SW2-Pad1)*%
X94000000Y-118900000D03*
%TO.P,SW2,2*%
%TO.N,Net-(C1-Pad2)*%
X94000000Y-111100000D03*
%TD*%
%TO.P,SW2,2*%
%TO.N,Net-(C1-Pad2)*%
X61000000Y-111100000D03*
%TO.P,SW2,1*%
%TO.N,Net-(SW2-Pad1)*%
X61000000Y-118900000D03*
%TD*%
D10*
%TO.P,U2,22*%
%TO.N,Net-(U2-Pad22)*%
X113675000Y-103725000D03*
%TO.P,U2,21*%
%TO.N,Net-(P3-Pad2)*%
X113675000Y-105725000D03*
%TO.P,U2,20*%
%TO.N,Net-(J2-Pad2)*%
X113675000Y-107725000D03*
%TO.P,U2,19*%
%TO.N,Net-(P4-Pad2)*%
X113675000Y-109725000D03*
%TO.P,U2,18*%
%TO.N,Net-(U2-Pad18)*%
X113675000Y-111725000D03*
%TO.P,U2,17*%
%TO.N,Net-(U2-Pad17)*%
X113675000Y-113725000D03*
%TO.P,U2,16*%
%TO.N,Net-(R5-Pad1)*%
X113675000Y-115725000D03*
%TO.P,U2,15*%
%TO.N,Net-(C1-Pad2)*%
X113675000Y-117725000D03*
D11*
%TO.P,U2,14*%
%TO.N,Net-(U2-Pad14)*%
X111075000Y-119225000D03*
%TO.P,U2,13*%
%TO.N,Net-(U2-Pad13)*%
X109075000Y-119225000D03*
%TO.P,U2,12*%
%TO.N,Net-(U2-Pad12)*%
X107075000Y-119225000D03*
%TO.P,U2,11*%
%TO.N,Net-(U2-Pad11)*%
X105075000Y-119225000D03*
%TO.P,U2,10*%
%TO.N,Net-(U2-Pad10)*%
X103075000Y-119225000D03*
%TO.P,U2,9*%
%TO.N,Net-(U2-Pad9)*%
X101075000Y-119225000D03*
D10*
%TO.P,U2,8*%
%TO.N,Net-(C1-Pad1)*%
X98475000Y-117725000D03*
%TO.P,U2,7*%
%TO.N,Net-(SW2-Pad1)*%
X98475000Y-115725000D03*
%TO.P,U2,6*%
%TO.N,Net-(U2-Pad6)*%
X98475000Y-113725000D03*
%TO.P,U2,5*%
%TO.N,Net-(J2-Pad1)*%
X98475000Y-111725000D03*
%TO.P,U2,4*%
%TO.N,Net-(U2-Pad1)*%
X98475000Y-109725000D03*
%TO.P,U2,3*%
%TO.N,Net-(C1-Pad1)*%
X98475000Y-107725000D03*
%TO.P,U2,2*%
%TO.N,Net-(U2-Pad2)*%
X98475000Y-105725000D03*
%TO.P,U2,1*%
%TO.N,Net-(U2-Pad1)*%
X98475000Y-103725000D03*
%TD*%
%TO.P,U2,1*%
%TO.N,Net-(U2-Pad1)*%
X131475000Y-103725000D03*
%TO.P,U2,2*%
%TO.N,Net-(U2-Pad2)*%
X131475000Y-105725000D03*
%TO.P,U2,3*%
%TO.N,Net-(C1-Pad1)*%
X131475000Y-107725000D03*
%TO.P,U2,4*%
%TO.N,Net-(U2-Pad1)*%
X131475000Y-109725000D03*
%TO.P,U2,5*%
%TO.N,Net-(J2-Pad1)*%
X131475000Y-111725000D03*
%TO.P,U2,6*%
%TO.N,Net-(U2-Pad6)*%
X131475000Y-113725000D03*
%TO.P,U2,7*%
%TO.N,Net-(SW2-Pad1)*%
X131475000Y-115725000D03*
%TO.P,U2,8*%
%TO.N,Net-(C1-Pad1)*%
X131475000Y-117725000D03*
D11*
%TO.P,U2,9*%
%TO.N,Net-(U2-Pad9)*%
X134075000Y-119225000D03*
%TO.P,U2,10*%
%TO.N,Net-(U2-Pad10)*%
X136075000Y-119225000D03*
%TO.P,U2,11*%
%TO.N,Net-(U2-Pad11)*%
X138075000Y-119225000D03*
%TO.P,U2,12*%
%TO.N,Net-(U2-Pad12)*%
X140075000Y-119225000D03*
%TO.P,U2,13*%
%TO.N,Net-(U2-Pad13)*%
X142075000Y-119225000D03*
%TO.P,U2,14*%
%TO.N,Net-(U2-Pad14)*%
X144075000Y-119225000D03*
D10*
%TO.P,U2,15*%
%TO.N,Net-(C1-Pad2)*%
X146675000Y-117725000D03*
%TO.P,U2,16*%
%TO.N,Net-(R5-Pad1)*%
X146675000Y-115725000D03*
%TO.P,U2,17*%
%TO.N,Net-(U2-Pad17)*%
X146675000Y-113725000D03*
%TO.P,U2,18*%
%TO.N,Net-(U2-Pad18)*%
X146675000Y-111725000D03*
%TO.P,U2,19*%
%TO.N,Net-(P4-Pad2)*%
X146675000Y-109725000D03*
%TO.P,U2,20*%
%TO.N,Net-(J2-Pad2)*%
X146675000Y-107725000D03*
%TO.P,U2,21*%
%TO.N,Net-(P3-Pad2)*%
X146675000Y-105725000D03*
%TO.P,U2,22*%
%TO.N,Net-(U2-Pad22)*%
X146675000Y-103725000D03*
%TD*%
D15*
%TO.P,J2,6*%
%TO.N,Net-(C1-Pad2)*%
X92460000Y-105850000D03*
%TO.P,J2,5*%
%TO.N,Net-(J2-Pad5)*%
X95000000Y-104580000D03*
%TO.P,J2,4*%
%TO.N,Net-(J2-Pad4)*%
X92460000Y-103310000D03*
%TO.P,J2,3*%
%TO.N,Net-(C1-Pad2)*%
X95000000Y-102040000D03*
%TO.P,J2,2*%
%TO.N,Net-(J2-Pad2)*%
X92460000Y-100770000D03*
D16*
%TO.P,J2,1*%
%TO.N,Net-(J2-Pad1)*%
X95000000Y-99500000D03*
%TD*%
D13*
%TO.P,J1,*%
%TO.N,*%
X116300000Y-119075000D03*
X116300000Y-111925000D03*
D12*
%TO.P,J1,5*%
%TO.N,Net-(C1-Pad2)*%
X122650000Y-116800000D03*
%TO.P,J1,1*%
%TO.N,Net-(J1-Pad1)*%
X122650000Y-114200000D03*
%TD*%
%TO.P,J1,1*%
%TO.N,Net-(J1-Pad1)*%
X89650000Y-114200000D03*
%TO.P,J1,5*%
%TO.N,Net-(C1-Pad2)*%
X89650000Y-116800000D03*
D13*
%TO.P,J1,*%
%TO.N,*%
X83300000Y-111925000D03*
X83300000Y-119075000D03*
%TD*%
D10*
%TO.P,U2,1*%
%TO.N,Net-(U2-Pad1)*%
X98475000Y-78725000D03*
%TO.P,U2,2*%
%TO.N,Net-(U2-Pad2)*%
X98475000Y-80725000D03*
%TO.P,U2,3*%
%TO.N,Net-(C1-Pad1)*%
X98475000Y-82725000D03*
%TO.P,U2,4*%
%TO.N,Net-(U2-Pad1)*%
X98475000Y-84725000D03*
%TO.P,U2,5*%
%TO.N,Net-(J2-Pad1)*%
X98475000Y-86725000D03*
%TO.P,U2,6*%
%TO.N,Net-(U2-Pad6)*%
X98475000Y-88725000D03*
%TO.P,U2,7*%
%TO.N,Net-(SW2-Pad1)*%
X98475000Y-90725000D03*
%TO.P,U2,8*%
%TO.N,Net-(C1-Pad1)*%
X98475000Y-92725000D03*
D11*
%TO.P,U2,9*%
%TO.N,Net-(U2-Pad9)*%
X101075000Y-94225000D03*
%TO.P,U2,10*%
%TO.N,Net-(U2-Pad10)*%
X103075000Y-94225000D03*
%TO.P,U2,11*%
%TO.N,Net-(U2-Pad11)*%
X105075000Y-94225000D03*
%TO.P,U2,12*%
%TO.N,Net-(U2-Pad12)*%
X107075000Y-94225000D03*
%TO.P,U2,13*%
%TO.N,Net-(U2-Pad13)*%
X109075000Y-94225000D03*
%TO.P,U2,14*%
%TO.N,Net-(U2-Pad14)*%
X111075000Y-94225000D03*
D10*
%TO.P,U2,15*%
%TO.N,Net-(C1-Pad2)*%
X113675000Y-92725000D03*
%TO.P,U2,16*%
%TO.N,Net-(R5-Pad1)*%
X113675000Y-90725000D03*
%TO.P,U2,17*%
%TO.N,Net-(U2-Pad17)*%
X113675000Y-88725000D03*
%TO.P,U2,18*%
%TO.N,Net-(U2-Pad18)*%
X113675000Y-86725000D03*
%TO.P,U2,19*%
%TO.N,Net-(P4-Pad2)*%
X113675000Y-84725000D03*
%TO.P,U2,20*%
%TO.N,Net-(J2-Pad2)*%
X113675000Y-82725000D03*
%TO.P,U2,21*%
%TO.N,Net-(P3-Pad2)*%
X113675000Y-80725000D03*
%TO.P,U2,22*%
%TO.N,Net-(U2-Pad22)*%
X113675000Y-78725000D03*
%TD*%
D16*
%TO.P,J2,1*%
%TO.N,Net-(J2-Pad1)*%
X95000000Y-74500000D03*
D15*
%TO.P,J2,2*%
%TO.N,Net-(J2-Pad2)*%
X92460000Y-75770000D03*
%TO.P,J2,3*%
%TO.N,Net-(C1-Pad2)*%
X95000000Y-77040000D03*
%TO.P,J2,4*%
%TO.N,Net-(J2-Pad4)*%
X92460000Y-78310000D03*
%TO.P,J2,5*%
%TO.N,Net-(J2-Pad5)*%
X95000000Y-79580000D03*
%TO.P,J2,6*%
%TO.N,Net-(C1-Pad2)*%
X92460000Y-80850000D03*
%TD*%
D13*
%TO.P,J1,*%
%TO.N,*%
X83300000Y-94075000D03*
X83300000Y-86925000D03*
D12*
%TO.P,J1,5*%
%TO.N,Net-(C1-Pad2)*%
X89650000Y-91800000D03*
%TO.P,J1,1*%
%TO.N,Net-(J1-Pad1)*%
X89650000Y-89200000D03*
%TD*%
%TO.P,J1,1*%
%TO.N,Net-(J1-Pad1)*%
X122650000Y-89200000D03*
%TO.P,J1,5*%
%TO.N,Net-(C1-Pad2)*%
X122650000Y-91800000D03*
D13*
%TO.P,J1,*%
%TO.N,*%
X116300000Y-86925000D03*
X116300000Y-94075000D03*
%TD*%
D10*
%TO.P,U2,22*%
%TO.N,Net-(U2-Pad22)*%
X146675000Y-78725000D03*
%TO.P,U2,21*%
%TO.N,Net-(P3-Pad2)*%
X146675000Y-80725000D03*
%TO.P,U2,20*%
%TO.N,Net-(J2-Pad2)*%
X146675000Y-82725000D03*
%TO.P,U2,19*%
%TO.N,Net-(P4-Pad2)*%
X146675000Y-84725000D03*
%TO.P,U2,18*%
%TO.N,Net-(U2-Pad18)*%
X146675000Y-86725000D03*
%TO.P,U2,17*%
%TO.N,Net-(U2-Pad17)*%
X146675000Y-88725000D03*
%TO.P,U2,16*%
%TO.N,Net-(R5-Pad1)*%
X146675000Y-90725000D03*
%TO.P,U2,15*%
%TO.N,Net-(C1-Pad2)*%
X146675000Y-92725000D03*
D11*
%TO.P,U2,14*%
%TO.N,Net-(U2-Pad14)*%
X144075000Y-94225000D03*
%TO.P,U2,13*%
%TO.N,Net-(U2-Pad13)*%
X142075000Y-94225000D03*
%TO.P,U2,12*%
%TO.N,Net-(U2-Pad12)*%
X140075000Y-94225000D03*
%TO.P,U2,11*%
%TO.N,Net-(U2-Pad11)*%
X138075000Y-94225000D03*
%TO.P,U2,10*%
%TO.N,Net-(U2-Pad10)*%
X136075000Y-94225000D03*
%TO.P,U2,9*%
%TO.N,Net-(U2-Pad9)*%
X134075000Y-94225000D03*
D10*
%TO.P,U2,8*%
%TO.N,Net-(C1-Pad1)*%
X131475000Y-92725000D03*
%TO.P,U2,7*%
%TO.N,Net-(SW2-Pad1)*%
X131475000Y-90725000D03*
%TO.P,U2,6*%
%TO.N,Net-(U2-Pad6)*%
X131475000Y-88725000D03*
%TO.P,U2,5*%
%TO.N,Net-(J2-Pad1)*%
X131475000Y-86725000D03*
%TO.P,U2,4*%
%TO.N,Net-(U2-Pad1)*%
X131475000Y-84725000D03*
%TO.P,U2,3*%
%TO.N,Net-(C1-Pad1)*%
X131475000Y-82725000D03*
%TO.P,U2,2*%
%TO.N,Net-(U2-Pad2)*%
X131475000Y-80725000D03*
%TO.P,U2,1*%
%TO.N,Net-(U2-Pad1)*%
X131475000Y-78725000D03*
%TD*%
D15*
%TO.P,J2,6*%
%TO.N,Net-(C1-Pad2)*%
X125460000Y-80850000D03*
%TO.P,J2,5*%
%TO.N,Net-(J2-Pad5)*%
X128000000Y-79580000D03*
%TO.P,J2,4*%
%TO.N,Net-(J2-Pad4)*%
X125460000Y-78310000D03*
%TO.P,J2,3*%
%TO.N,Net-(C1-Pad2)*%
X128000000Y-77040000D03*
%TO.P,J2,2*%
%TO.N,Net-(J2-Pad2)*%
X125460000Y-75770000D03*
D16*
%TO.P,J2,1*%
%TO.N,Net-(J2-Pad1)*%
X128000000Y-74500000D03*
%TD*%
D14*
%TO.P,SW2,1*%
%TO.N,Net-(SW2-Pad1)*%
X127000000Y-93900000D03*
%TO.P,SW2,2*%
%TO.N,Net-(C1-Pad2)*%
X127000000Y-86100000D03*
%TD*%
D12*
%TO.P,J1,1*%
%TO.N,Net-(J1-Pad1)*%
X56650000Y-89200000D03*
%TO.P,J1,5*%
%TO.N,Net-(C1-Pad2)*%
X56650000Y-91800000D03*
D13*
%TO.P,J1,*%
%TO.N,*%
X50300000Y-86925000D03*
X50300000Y-94075000D03*
%TD*%
D15*
%TO.P,J2,6*%
%TO.N,Net-(C1-Pad2)*%
X59460000Y-80850000D03*
%TO.P,J2,5*%
%TO.N,Net-(J2-Pad5)*%
X62000000Y-79580000D03*
%TO.P,J2,4*%
%TO.N,Net-(J2-Pad4)*%
X59460000Y-78310000D03*
%TO.P,J2,3*%
%TO.N,Net-(C1-Pad2)*%
X62000000Y-77040000D03*
%TO.P,J2,2*%
%TO.N,Net-(J2-Pad2)*%
X59460000Y-75770000D03*
D16*
%TO.P,J2,1*%
%TO.N,Net-(J2-Pad1)*%
X62000000Y-74500000D03*
%TD*%
D10*
%TO.P,U2,22*%
%TO.N,Net-(U2-Pad22)*%
X80675000Y-78725000D03*
%TO.P,U2,21*%
%TO.N,Net-(P3-Pad2)*%
X80675000Y-80725000D03*
%TO.P,U2,20*%
%TO.N,Net-(J2-Pad2)*%
X80675000Y-82725000D03*
%TO.P,U2,19*%
%TO.N,Net-(P4-Pad2)*%
X80675000Y-84725000D03*
%TO.P,U2,18*%
%TO.N,Net-(U2-Pad18)*%
X80675000Y-86725000D03*
%TO.P,U2,17*%
%TO.N,Net-(U2-Pad17)*%
X80675000Y-88725000D03*
%TO.P,U2,16*%
%TO.N,Net-(R5-Pad1)*%
X80675000Y-90725000D03*
%TO.P,U2,15*%
%TO.N,Net-(C1-Pad2)*%
X80675000Y-92725000D03*
D11*
%TO.P,U2,14*%
%TO.N,Net-(U2-Pad14)*%
X78075000Y-94225000D03*
%TO.P,U2,13*%
%TO.N,Net-(U2-Pad13)*%
X76075000Y-94225000D03*
%TO.P,U2,12*%
%TO.N,Net-(U2-Pad12)*%
X74075000Y-94225000D03*
%TO.P,U2,11*%
%TO.N,Net-(U2-Pad11)*%
X72075000Y-94225000D03*
%TO.P,U2,10*%
%TO.N,Net-(U2-Pad10)*%
X70075000Y-94225000D03*
%TO.P,U2,9*%
%TO.N,Net-(U2-Pad9)*%
X68075000Y-94225000D03*
D10*
%TO.P,U2,8*%
%TO.N,Net-(C1-Pad1)*%
X65475000Y-92725000D03*
%TO.P,U2,7*%
%TO.N,Net-(SW2-Pad1)*%
X65475000Y-90725000D03*
%TO.P,U2,6*%
%TO.N,Net-(U2-Pad6)*%
X65475000Y-88725000D03*
%TO.P,U2,5*%
%TO.N,Net-(J2-Pad1)*%
X65475000Y-86725000D03*
%TO.P,U2,4*%
%TO.N,Net-(U2-Pad1)*%
X65475000Y-84725000D03*
%TO.P,U2,3*%
%TO.N,Net-(C1-Pad1)*%
X65475000Y-82725000D03*
%TO.P,U2,2*%
%TO.N,Net-(U2-Pad2)*%
X65475000Y-80725000D03*
%TO.P,U2,1*%
%TO.N,Net-(U2-Pad1)*%
X65475000Y-78725000D03*
%TD*%
D14*
%TO.P,SW2,1*%
%TO.N,Net-(SW2-Pad1)*%
X61000000Y-93900000D03*
%TO.P,SW2,2*%
%TO.N,Net-(C1-Pad2)*%
X61000000Y-86100000D03*
%TD*%
%TO.P,SW2,2*%
%TO.N,Net-(C1-Pad2)*%
X94000000Y-86100000D03*
%TO.P,SW2,1*%
%TO.N,Net-(SW2-Pad1)*%
X94000000Y-93900000D03*
%TD*%
D10*
%TO.P,U2,1*%
%TO.N,Net-(U2-Pad1)*%
X131475000Y-53725000D03*
%TO.P,U2,2*%
%TO.N,Net-(U2-Pad2)*%
X131475000Y-55725000D03*
%TO.P,U2,3*%
%TO.N,Net-(C1-Pad1)*%
X131475000Y-57725000D03*
%TO.P,U2,4*%
%TO.N,Net-(U2-Pad1)*%
X131475000Y-59725000D03*
%TO.P,U2,5*%
%TO.N,Net-(J2-Pad1)*%
X131475000Y-61725000D03*
%TO.P,U2,6*%
%TO.N,Net-(U2-Pad6)*%
X131475000Y-63725000D03*
%TO.P,U2,7*%
%TO.N,Net-(SW2-Pad1)*%
X131475000Y-65725000D03*
%TO.P,U2,8*%
%TO.N,Net-(C1-Pad1)*%
X131475000Y-67725000D03*
D11*
%TO.P,U2,9*%
%TO.N,Net-(U2-Pad9)*%
X134075000Y-69225000D03*
%TO.P,U2,10*%
%TO.N,Net-(U2-Pad10)*%
X136075000Y-69225000D03*
%TO.P,U2,11*%
%TO.N,Net-(U2-Pad11)*%
X138075000Y-69225000D03*
%TO.P,U2,12*%
%TO.N,Net-(U2-Pad12)*%
X140075000Y-69225000D03*
%TO.P,U2,13*%
%TO.N,Net-(U2-Pad13)*%
X142075000Y-69225000D03*
%TO.P,U2,14*%
%TO.N,Net-(U2-Pad14)*%
X144075000Y-69225000D03*
D10*
%TO.P,U2,15*%
%TO.N,Net-(C1-Pad2)*%
X146675000Y-67725000D03*
%TO.P,U2,16*%
%TO.N,Net-(R5-Pad1)*%
X146675000Y-65725000D03*
%TO.P,U2,17*%
%TO.N,Net-(U2-Pad17)*%
X146675000Y-63725000D03*
%TO.P,U2,18*%
%TO.N,Net-(U2-Pad18)*%
X146675000Y-61725000D03*
%TO.P,U2,19*%
%TO.N,Net-(P4-Pad2)*%
X146675000Y-59725000D03*
%TO.P,U2,20*%
%TO.N,Net-(J2-Pad2)*%
X146675000Y-57725000D03*
%TO.P,U2,21*%
%TO.N,Net-(P3-Pad2)*%
X146675000Y-55725000D03*
%TO.P,U2,22*%
%TO.N,Net-(U2-Pad22)*%
X146675000Y-53725000D03*
%TD*%
D16*
%TO.P,J2,1*%
%TO.N,Net-(J2-Pad1)*%
X128000000Y-49500000D03*
D15*
%TO.P,J2,2*%
%TO.N,Net-(J2-Pad2)*%
X125460000Y-50770000D03*
%TO.P,J2,3*%
%TO.N,Net-(C1-Pad2)*%
X128000000Y-52040000D03*
%TO.P,J2,4*%
%TO.N,Net-(J2-Pad4)*%
X125460000Y-53310000D03*
%TO.P,J2,5*%
%TO.N,Net-(J2-Pad5)*%
X128000000Y-54580000D03*
%TO.P,J2,6*%
%TO.N,Net-(C1-Pad2)*%
X125460000Y-55850000D03*
%TD*%
D13*
%TO.P,J1,*%
%TO.N,*%
X116300000Y-69075000D03*
X116300000Y-61925000D03*
D12*
%TO.P,J1,5*%
%TO.N,Net-(C1-Pad2)*%
X122650000Y-66800000D03*
%TO.P,J1,1*%
%TO.N,Net-(J1-Pad1)*%
X122650000Y-64200000D03*
%TD*%
D14*
%TO.P,SW2,2*%
%TO.N,Net-(C1-Pad2)*%
X127000000Y-61100000D03*
%TO.P,SW2,1*%
%TO.N,Net-(SW2-Pad1)*%
X127000000Y-68900000D03*
%TD*%
D12*
%TO.P,J1,1*%
%TO.N,Net-(J1-Pad1)*%
X89650000Y-64200000D03*
%TO.P,J1,5*%
%TO.N,Net-(C1-Pad2)*%
X89650000Y-66800000D03*
D13*
%TO.P,J1,*%
%TO.N,*%
X83300000Y-61925000D03*
X83300000Y-69075000D03*
%TD*%
D15*
%TO.P,J2,6*%
%TO.N,Net-(C1-Pad2)*%
X92460000Y-55850000D03*
%TO.P,J2,5*%
%TO.N,Net-(J2-Pad5)*%
X95000000Y-54580000D03*
%TO.P,J2,4*%
%TO.N,Net-(J2-Pad4)*%
X92460000Y-53310000D03*
%TO.P,J2,3*%
%TO.N,Net-(C1-Pad2)*%
X95000000Y-52040000D03*
%TO.P,J2,2*%
%TO.N,Net-(J2-Pad2)*%
X92460000Y-50770000D03*
D16*
%TO.P,J2,1*%
%TO.N,Net-(J2-Pad1)*%
X95000000Y-49500000D03*
%TD*%
D10*
%TO.P,U2,22*%
%TO.N,Net-(U2-Pad22)*%
X113675000Y-53725000D03*
%TO.P,U2,21*%
%TO.N,Net-(P3-Pad2)*%
X113675000Y-55725000D03*
%TO.P,U2,20*%
%TO.N,Net-(J2-Pad2)*%
X113675000Y-57725000D03*
%TO.P,U2,19*%
%TO.N,Net-(P4-Pad2)*%
X113675000Y-59725000D03*
%TO.P,U2,18*%
%TO.N,Net-(U2-Pad18)*%
X113675000Y-61725000D03*
%TO.P,U2,17*%
%TO.N,Net-(U2-Pad17)*%
X113675000Y-63725000D03*
%TO.P,U2,16*%
%TO.N,Net-(R5-Pad1)*%
X113675000Y-65725000D03*
%TO.P,U2,15*%
%TO.N,Net-(C1-Pad2)*%
X113675000Y-67725000D03*
D11*
%TO.P,U2,14*%
%TO.N,Net-(U2-Pad14)*%
X111075000Y-69225000D03*
%TO.P,U2,13*%
%TO.N,Net-(U2-Pad13)*%
X109075000Y-69225000D03*
%TO.P,U2,12*%
%TO.N,Net-(U2-Pad12)*%
X107075000Y-69225000D03*
%TO.P,U2,11*%
%TO.N,Net-(U2-Pad11)*%
X105075000Y-69225000D03*
%TO.P,U2,10*%
%TO.N,Net-(U2-Pad10)*%
X103075000Y-69225000D03*
%TO.P,U2,9*%
%TO.N,Net-(U2-Pad9)*%
X101075000Y-69225000D03*
D10*
%TO.P,U2,8*%
%TO.N,Net-(C1-Pad1)*%
X98475000Y-67725000D03*
%TO.P,U2,7*%
%TO.N,Net-(SW2-Pad1)*%
X98475000Y-65725000D03*
%TO.P,U2,6*%
%TO.N,Net-(U2-Pad6)*%
X98475000Y-63725000D03*
%TO.P,U2,5*%
%TO.N,Net-(J2-Pad1)*%
X98475000Y-61725000D03*
%TO.P,U2,4*%
%TO.N,Net-(U2-Pad1)*%
X98475000Y-59725000D03*
%TO.P,U2,3*%
%TO.N,Net-(C1-Pad1)*%
X98475000Y-57725000D03*
%TO.P,U2,2*%
%TO.N,Net-(U2-Pad2)*%
X98475000Y-55725000D03*
%TO.P,U2,1*%
%TO.N,Net-(U2-Pad1)*%
X98475000Y-53725000D03*
%TD*%
D14*
%TO.P,SW2,1*%
%TO.N,Net-(SW2-Pad1)*%
X94000000Y-68900000D03*
%TO.P,SW2,2*%
%TO.N,Net-(C1-Pad2)*%
X94000000Y-61100000D03*
%TD*%
%TO.P,SW2,2*%
%TO.N,Net-(C1-Pad2)*%
X61000000Y-61100000D03*
%TO.P,SW2,1*%
%TO.N,Net-(SW2-Pad1)*%
X61000000Y-68900000D03*
%TD*%
D16*
%TO.P,J2,1*%
%TO.N,Net-(J2-Pad1)*%
X62000000Y-49500000D03*
D15*
%TO.P,J2,2*%
%TO.N,Net-(J2-Pad2)*%
X59460000Y-50770000D03*
%TO.P,J2,3*%
%TO.N,Net-(C1-Pad2)*%
X62000000Y-52040000D03*
%TO.P,J2,4*%
%TO.N,Net-(J2-Pad4)*%
X59460000Y-53310000D03*
%TO.P,J2,5*%
%TO.N,Net-(J2-Pad5)*%
X62000000Y-54580000D03*
%TO.P,J2,6*%
%TO.N,Net-(C1-Pad2)*%
X59460000Y-55850000D03*
%TD*%
D13*
%TO.P,J1,*%
%TO.N,*%
X50300000Y-69075000D03*
X50300000Y-61925000D03*
D12*
%TO.P,J1,5*%
%TO.N,Net-(C1-Pad2)*%
X56650000Y-66800000D03*
%TO.P,J1,1*%
%TO.N,Net-(J1-Pad1)*%
X56650000Y-64200000D03*
%TD*%
D10*
%TO.P,U2,1*%
%TO.N,Net-(U2-Pad1)*%
X65475000Y-53725000D03*
%TO.P,U2,2*%
%TO.N,Net-(U2-Pad2)*%
X65475000Y-55725000D03*
%TO.P,U2,3*%
%TO.N,Net-(C1-Pad1)*%
X65475000Y-57725000D03*
%TO.P,U2,4*%
%TO.N,Net-(U2-Pad1)*%
X65475000Y-59725000D03*
%TO.P,U2,5*%
%TO.N,Net-(J2-Pad1)*%
X65475000Y-61725000D03*
%TO.P,U2,6*%
%TO.N,Net-(U2-Pad6)*%
X65475000Y-63725000D03*
%TO.P,U2,7*%
%TO.N,Net-(SW2-Pad1)*%
X65475000Y-65725000D03*
%TO.P,U2,8*%
%TO.N,Net-(C1-Pad1)*%
X65475000Y-67725000D03*
D11*
%TO.P,U2,9*%
%TO.N,Net-(U2-Pad9)*%
X68075000Y-69225000D03*
%TO.P,U2,10*%
%TO.N,Net-(U2-Pad10)*%
X70075000Y-69225000D03*
%TO.P,U2,11*%
%TO.N,Net-(U2-Pad11)*%
X72075000Y-69225000D03*
%TO.P,U2,12*%
%TO.N,Net-(U2-Pad12)*%
X74075000Y-69225000D03*
%TO.P,U2,13*%
%TO.N,Net-(U2-Pad13)*%
X76075000Y-69225000D03*
%TO.P,U2,14*%
%TO.N,Net-(U2-Pad14)*%
X78075000Y-69225000D03*
D10*
%TO.P,U2,15*%
%TO.N,Net-(C1-Pad2)*%
X80675000Y-67725000D03*
%TO.P,U2,16*%
%TO.N,Net-(R5-Pad1)*%
X80675000Y-65725000D03*
%TO.P,U2,17*%
%TO.N,Net-(U2-Pad17)*%
X80675000Y-63725000D03*
%TO.P,U2,18*%
%TO.N,Net-(U2-Pad18)*%
X80675000Y-61725000D03*
%TO.P,U2,19*%
%TO.N,Net-(P4-Pad2)*%
X80675000Y-59725000D03*
%TO.P,U2,20*%
%TO.N,Net-(J2-Pad2)*%
X80675000Y-57725000D03*
%TO.P,U2,21*%
%TO.N,Net-(P3-Pad2)*%
X80675000Y-55725000D03*
%TO.P,U2,22*%
%TO.N,Net-(U2-Pad22)*%
X80675000Y-53725000D03*
%TD*%
D17*
%TO.N,Net-(C1-Pad1)*%
X68655300Y-64725000D03*
X101655300Y-64725000D03*
X134655300Y-64725000D03*
X68655300Y-89725000D03*
X101655300Y-89725000D03*
X134655300Y-89725000D03*
X68655300Y-114725000D03*
X101655300Y-114725000D03*
X134655300Y-114725000D03*
X101655300Y-139725000D03*
X68655300Y-139725000D03*
X134655300Y-139725000D03*
%TO.N,Net-(J1-Pad1)*%
X58651300Y-63977400D03*
X91651300Y-63977400D03*
X124651300Y-63977400D03*
X58651300Y-88977400D03*
X91651300Y-88977400D03*
X124651300Y-88977400D03*
X91651300Y-113977400D03*
X124651300Y-113977400D03*
X58651300Y-113977400D03*
X124651300Y-138977400D03*
X58651300Y-138977400D03*
X91651300Y-138977400D03*
%TO.N,Net-(R5-Pad1)*%
X76197500Y-64602500D03*
X109197500Y-64602500D03*
X142197500Y-64602500D03*
X76197500Y-89602500D03*
X109197500Y-89602500D03*
X142197500Y-89602500D03*
X109197500Y-114602500D03*
X76197500Y-114602500D03*
X142197500Y-114602500D03*
X109197500Y-139602500D03*
X76197500Y-139602500D03*
X142197500Y-139602500D03*
%TO.N,Net-(P3-Pad2)*%
X78694500Y-56185500D03*
X111694500Y-56185500D03*
X144694500Y-56185500D03*
X78694500Y-81185500D03*
X111694500Y-81185500D03*
X144694500Y-81185500D03*
X111694500Y-106185500D03*
X78694500Y-106185500D03*
X144694500Y-106185500D03*
X111694500Y-131185500D03*
X78694500Y-131185500D03*
X144694500Y-131185500D03*
%TO.N,Net-(P4-Pad2)*%
X78319900Y-60227800D03*
X111319900Y-60227800D03*
X144319900Y-60227800D03*
X78319900Y-85227800D03*
X111319900Y-85227800D03*
X144319900Y-85227800D03*
X111319900Y-110227800D03*
X78319900Y-110227800D03*
X144319900Y-110227800D03*
X78319900Y-135227800D03*
X111319900Y-135227800D03*
X144319900Y-135227800D03*
%TD*%
D18*
%TO.N,Net-(C1-Pad1)*%
X65475000Y-67725000D02*
X67050300Y-67725000D01*
X67050300Y-67725000D02*
X67050300Y-66330000D01*
X67050300Y-66330000D02*
X68655300Y-64725000D01*
X68655300Y-64725000D02*
X67050300Y-63120000D01*
X67050300Y-63120000D02*
X67050300Y-57725000D01*
X65475000Y-57725000D02*
X67050300Y-57725000D01*
X101655300Y-64725000D02*
X100050300Y-63120000D01*
X100050300Y-67725000D02*
X100050300Y-66330000D01*
X100050300Y-63120000D02*
X100050300Y-57725000D01*
X98475000Y-57725000D02*
X100050300Y-57725000D01*
X98475000Y-67725000D02*
X100050300Y-67725000D01*
X100050300Y-66330000D02*
X101655300Y-64725000D01*
X133050300Y-67725000D02*
X133050300Y-66330000D01*
X134655300Y-64725000D02*
X133050300Y-63120000D01*
X131475000Y-67725000D02*
X133050300Y-67725000D01*
X131475000Y-57725000D02*
X133050300Y-57725000D01*
X133050300Y-63120000D02*
X133050300Y-57725000D01*
X133050300Y-66330000D02*
X134655300Y-64725000D01*
X100050300Y-92725000D02*
X100050300Y-91330000D01*
X101655300Y-89725000D02*
X100050300Y-88120000D01*
X98475000Y-92725000D02*
X100050300Y-92725000D01*
X98475000Y-82725000D02*
X100050300Y-82725000D01*
X100050300Y-88120000D02*
X100050300Y-82725000D01*
X100050300Y-91330000D02*
X101655300Y-89725000D01*
X133050300Y-92725000D02*
X133050300Y-91330000D01*
X133050300Y-91330000D02*
X134655300Y-89725000D01*
X133050300Y-88120000D02*
X133050300Y-82725000D01*
X131475000Y-92725000D02*
X133050300Y-92725000D01*
X131475000Y-82725000D02*
X133050300Y-82725000D01*
X134655300Y-89725000D02*
X133050300Y-88120000D01*
X68655300Y-89725000D02*
X67050300Y-88120000D01*
X67050300Y-92725000D02*
X67050300Y-91330000D01*
X67050300Y-88120000D02*
X67050300Y-82725000D01*
X65475000Y-82725000D02*
X67050300Y-82725000D01*
X65475000Y-92725000D02*
X67050300Y-92725000D01*
X67050300Y-91330000D02*
X68655300Y-89725000D01*
X100050300Y-117725000D02*
X100050300Y-116330000D01*
X98475000Y-117725000D02*
X100050300Y-117725000D01*
X100050300Y-113120000D02*
X100050300Y-107725000D01*
X98475000Y-107725000D02*
X100050300Y-107725000D01*
X100050300Y-116330000D02*
X101655300Y-114725000D01*
X101655300Y-114725000D02*
X100050300Y-113120000D01*
X133050300Y-113120000D02*
X133050300Y-107725000D01*
X131475000Y-117725000D02*
X133050300Y-117725000D01*
X133050300Y-117725000D02*
X133050300Y-116330000D01*
X133050300Y-116330000D02*
X134655300Y-114725000D01*
X65475000Y-107725000D02*
X67050300Y-107725000D01*
X67050300Y-116330000D02*
X68655300Y-114725000D01*
X67050300Y-113120000D02*
X67050300Y-107725000D01*
X131475000Y-107725000D02*
X133050300Y-107725000D01*
X134655300Y-114725000D02*
X133050300Y-113120000D01*
X68655300Y-114725000D02*
X67050300Y-113120000D01*
X67050300Y-117725000D02*
X67050300Y-116330000D01*
X65475000Y-117725000D02*
X67050300Y-117725000D01*
X133050300Y-138120000D02*
X133050300Y-132725000D01*
X131475000Y-142725000D02*
X133050300Y-142725000D01*
X134655300Y-139725000D02*
X133050300Y-138120000D01*
X67050300Y-142725000D02*
X67050300Y-141330000D01*
X68655300Y-139725000D02*
X67050300Y-138120000D01*
X67050300Y-141330000D02*
X68655300Y-139725000D01*
X131475000Y-132725000D02*
X133050300Y-132725000D01*
X65475000Y-132725000D02*
X67050300Y-132725000D01*
X65475000Y-142725000D02*
X67050300Y-142725000D01*
X67050300Y-138120000D02*
X67050300Y-132725000D01*
X98475000Y-142725000D02*
X100050300Y-142725000D01*
X133050300Y-142725000D02*
X133050300Y-141330000D01*
X133050300Y-141330000D02*
X134655300Y-139725000D01*
X100050300Y-142725000D02*
X100050300Y-141330000D01*
X98475000Y-132725000D02*
X100050300Y-132725000D01*
X100050300Y-141330000D02*
X101655300Y-139725000D01*
X100050300Y-138120000D02*
X100050300Y-132725000D01*
X101655300Y-139725000D02*
X100050300Y-138120000D01*
%TO.N,Net-(C1-Pad2)*%
X80675000Y-67725000D02*
X78289500Y-67725000D01*
X78289500Y-67725000D02*
X68384600Y-57820100D01*
X68384600Y-57820100D02*
X68384600Y-54346400D01*
X68384600Y-54346400D02*
X66078200Y-52040000D01*
X66078200Y-52040000D02*
X62000000Y-52040000D01*
X58375300Y-66800000D02*
X61000000Y-64175300D01*
X61000000Y-64175300D02*
X61000000Y-61100000D01*
X56650000Y-66800000D02*
X58375300Y-66800000D01*
X59460000Y-55850000D02*
X61000000Y-57390000D01*
X61000000Y-57390000D02*
X61000000Y-61100000D01*
X94000000Y-57390000D02*
X94000000Y-61100000D01*
X92460000Y-55850000D02*
X94000000Y-57390000D01*
X89650000Y-66800000D02*
X91375300Y-66800000D01*
X113675000Y-67725000D02*
X111289500Y-67725000D01*
X99078200Y-52040000D02*
X95000000Y-52040000D01*
X91375300Y-66800000D02*
X94000000Y-64175300D01*
X101384600Y-57820100D02*
X101384600Y-54346400D01*
X101384600Y-54346400D02*
X99078200Y-52040000D01*
X94000000Y-64175300D02*
X94000000Y-61100000D01*
X111289500Y-67725000D02*
X101384600Y-57820100D01*
X125460000Y-55850000D02*
X127000000Y-57390000D01*
X127000000Y-57390000D02*
X127000000Y-61100000D01*
X122650000Y-66800000D02*
X124375300Y-66800000D01*
X132078200Y-52040000D02*
X128000000Y-52040000D01*
X146675000Y-67725000D02*
X144289500Y-67725000D01*
X124375300Y-66800000D02*
X127000000Y-64175300D01*
X134384600Y-57820100D02*
X134384600Y-54346400D01*
X144289500Y-67725000D02*
X134384600Y-57820100D01*
X127000000Y-64175300D02*
X127000000Y-61100000D01*
X134384600Y-54346400D02*
X132078200Y-52040000D01*
X92460000Y-80850000D02*
X94000000Y-82390000D01*
X94000000Y-82390000D02*
X94000000Y-86100000D01*
X61000000Y-82390000D02*
X61000000Y-86100000D01*
X59460000Y-80850000D02*
X61000000Y-82390000D01*
X56650000Y-91800000D02*
X58375300Y-91800000D01*
X89650000Y-91800000D02*
X91375300Y-91800000D01*
X99078200Y-77040000D02*
X95000000Y-77040000D01*
X113675000Y-92725000D02*
X111289500Y-92725000D01*
X91375300Y-91800000D02*
X94000000Y-89175300D01*
X101384600Y-82820100D02*
X101384600Y-79346400D01*
X111289500Y-92725000D02*
X101384600Y-82820100D01*
X94000000Y-89175300D02*
X94000000Y-86100000D01*
X101384600Y-79346400D02*
X99078200Y-77040000D01*
X127000000Y-82390000D02*
X127000000Y-86100000D01*
X122650000Y-91800000D02*
X124375300Y-91800000D01*
X125460000Y-80850000D02*
X127000000Y-82390000D01*
X134384600Y-82820100D02*
X134384600Y-79346400D01*
X127000000Y-89175300D02*
X127000000Y-86100000D01*
X134384600Y-79346400D02*
X132078200Y-77040000D01*
X146675000Y-92725000D02*
X144289500Y-92725000D01*
X144289500Y-92725000D02*
X134384600Y-82820100D01*
X124375300Y-91800000D02*
X127000000Y-89175300D01*
X132078200Y-77040000D02*
X128000000Y-77040000D01*
X80675000Y-92725000D02*
X78289500Y-92725000D01*
X66078200Y-77040000D02*
X62000000Y-77040000D01*
X58375300Y-91800000D02*
X61000000Y-89175300D01*
X68384600Y-82820100D02*
X68384600Y-79346400D01*
X68384600Y-79346400D02*
X66078200Y-77040000D01*
X61000000Y-89175300D02*
X61000000Y-86100000D01*
X78289500Y-92725000D02*
X68384600Y-82820100D01*
X94000000Y-107390000D02*
X94000000Y-111100000D01*
X92460000Y-105850000D02*
X94000000Y-107390000D01*
X61000000Y-107390000D02*
X61000000Y-111100000D01*
X59460000Y-105850000D02*
X61000000Y-107390000D01*
X56650000Y-116800000D02*
X58375300Y-116800000D01*
X89650000Y-116800000D02*
X91375300Y-116800000D01*
X127000000Y-107390000D02*
X127000000Y-111100000D01*
X91375300Y-116800000D02*
X94000000Y-114175300D01*
X94000000Y-114175300D02*
X94000000Y-111100000D01*
X111289500Y-117725000D02*
X101384600Y-107820100D01*
X101384600Y-107820100D02*
X101384600Y-104346400D01*
X99078200Y-102040000D02*
X95000000Y-102040000D01*
X113675000Y-117725000D02*
X111289500Y-117725000D01*
X101384600Y-104346400D02*
X99078200Y-102040000D01*
X127000000Y-114175300D02*
X127000000Y-111100000D01*
X134384600Y-104346400D02*
X132078200Y-102040000D01*
X125460000Y-105850000D02*
X127000000Y-107390000D01*
X122650000Y-116800000D02*
X124375300Y-116800000D01*
X134384600Y-107820100D02*
X134384600Y-104346400D01*
X66078200Y-102040000D02*
X62000000Y-102040000D01*
X61000000Y-114175300D02*
X61000000Y-111100000D01*
X146675000Y-117725000D02*
X144289500Y-117725000D01*
X132078200Y-102040000D02*
X128000000Y-102040000D01*
X68384600Y-107820100D02*
X68384600Y-104346400D01*
X58375300Y-116800000D02*
X61000000Y-114175300D01*
X68384600Y-104346400D02*
X66078200Y-102040000D01*
X78289500Y-117725000D02*
X68384600Y-107820100D01*
X124375300Y-116800000D02*
X127000000Y-114175300D01*
X144289500Y-117725000D02*
X134384600Y-107820100D01*
X80675000Y-117725000D02*
X78289500Y-117725000D01*
X92460000Y-130850000D02*
X94000000Y-132390000D01*
X61000000Y-132390000D02*
X61000000Y-136100000D01*
X59460000Y-130850000D02*
X61000000Y-132390000D01*
X127000000Y-139175300D02*
X127000000Y-136100000D01*
X134384600Y-129346400D02*
X132078200Y-127040000D01*
X124375300Y-141800000D02*
X127000000Y-139175300D01*
X146675000Y-142725000D02*
X144289500Y-142725000D01*
X144289500Y-142725000D02*
X134384600Y-132820100D01*
X68384600Y-132820100D02*
X68384600Y-129346400D01*
X80675000Y-142725000D02*
X78289500Y-142725000D01*
X68384600Y-129346400D02*
X66078200Y-127040000D01*
X78289500Y-142725000D02*
X68384600Y-132820100D01*
X58375300Y-141800000D02*
X61000000Y-139175300D01*
X132078200Y-127040000D02*
X128000000Y-127040000D01*
X94000000Y-139175300D02*
X94000000Y-136100000D01*
X111289500Y-142725000D02*
X101384600Y-132820100D01*
X94000000Y-132390000D02*
X94000000Y-136100000D01*
X91375300Y-141800000D02*
X94000000Y-139175300D01*
X127000000Y-132390000D02*
X127000000Y-136100000D01*
X125460000Y-130850000D02*
X127000000Y-132390000D01*
X66078200Y-127040000D02*
X62000000Y-127040000D01*
X122650000Y-141800000D02*
X124375300Y-141800000D01*
X61000000Y-139175300D02*
X61000000Y-136100000D01*
X134384600Y-132820100D02*
X134384600Y-129346400D01*
X89650000Y-141800000D02*
X91375300Y-141800000D01*
X56650000Y-141800000D02*
X58375300Y-141800000D01*
X99078200Y-127040000D02*
X95000000Y-127040000D01*
X101384600Y-132820100D02*
X101384600Y-129346400D01*
X101384600Y-129346400D02*
X99078200Y-127040000D01*
X113675000Y-142725000D02*
X111289500Y-142725000D01*
%TO.N,Net-(J1-Pad1)*%
X58651300Y-63977400D02*
X58597900Y-63977400D01*
X58597900Y-63977400D02*
X58375300Y-64200000D01*
X56650000Y-64200000D02*
X58375300Y-64200000D01*
X89650000Y-64200000D02*
X91375300Y-64200000D01*
X91651300Y-63977400D02*
X91597900Y-63977400D01*
X91597900Y-63977400D02*
X91375300Y-64200000D01*
X122650000Y-64200000D02*
X124375300Y-64200000D01*
X124597900Y-63977400D02*
X124375300Y-64200000D01*
X124651300Y-63977400D02*
X124597900Y-63977400D01*
X89650000Y-89200000D02*
X91375300Y-89200000D01*
X91597900Y-88977400D02*
X91375300Y-89200000D01*
X91651300Y-88977400D02*
X91597900Y-88977400D01*
X56650000Y-89200000D02*
X58375300Y-89200000D01*
X58651300Y-88977400D02*
X58597900Y-88977400D01*
X58597900Y-88977400D02*
X58375300Y-89200000D01*
X124597900Y-88977400D02*
X124375300Y-89200000D01*
X124651300Y-88977400D02*
X124597900Y-88977400D01*
X122650000Y-89200000D02*
X124375300Y-89200000D01*
X89650000Y-114200000D02*
X91375300Y-114200000D01*
X56650000Y-114200000D02*
X58375300Y-114200000D01*
X91651300Y-113977400D02*
X91597900Y-113977400D01*
X58597900Y-113977400D02*
X58375300Y-114200000D01*
X91597900Y-113977400D02*
X91375300Y-114200000D01*
X58651300Y-113977400D02*
X58597900Y-113977400D01*
X124651300Y-113977400D02*
X124597900Y-113977400D01*
X124597900Y-113977400D02*
X124375300Y-114200000D01*
X122650000Y-114200000D02*
X124375300Y-114200000D01*
X58597900Y-138977400D02*
X58375300Y-139200000D01*
X91597900Y-138977400D02*
X91375300Y-139200000D01*
X56650000Y-139200000D02*
X58375300Y-139200000D01*
X89650000Y-139200000D02*
X91375300Y-139200000D01*
X91651300Y-138977400D02*
X91597900Y-138977400D01*
X58651300Y-138977400D02*
X58597900Y-138977400D01*
X124651300Y-138977400D02*
X124597900Y-138977400D01*
X124597900Y-138977400D02*
X124375300Y-139200000D01*
X122650000Y-139200000D02*
X124375300Y-139200000D01*
%TO.N,Net-(J2-Pad2)*%
X80675000Y-57725000D02*
X74713200Y-57725000D01*
X74713200Y-57725000D02*
X67758200Y-50770000D01*
X67758200Y-50770000D02*
X59460000Y-50770000D01*
X113675000Y-57725000D02*
X107713200Y-57725000D01*
X107713200Y-57725000D02*
X100758200Y-50770000D01*
X100758200Y-50770000D02*
X92460000Y-50770000D01*
X146675000Y-57725000D02*
X140713200Y-57725000D01*
X140713200Y-57725000D02*
X133758200Y-50770000D01*
X133758200Y-50770000D02*
X125460000Y-50770000D01*
X113675000Y-82725000D02*
X107713200Y-82725000D01*
X107713200Y-82725000D02*
X100758200Y-75770000D01*
X100758200Y-75770000D02*
X92460000Y-75770000D01*
X80675000Y-82725000D02*
X74713200Y-82725000D01*
X74713200Y-82725000D02*
X67758200Y-75770000D01*
X67758200Y-75770000D02*
X59460000Y-75770000D01*
X146675000Y-82725000D02*
X140713200Y-82725000D01*
X133758200Y-75770000D02*
X125460000Y-75770000D01*
X140713200Y-82725000D02*
X133758200Y-75770000D01*
X80675000Y-107725000D02*
X74713200Y-107725000D01*
X67758200Y-100770000D02*
X59460000Y-100770000D01*
X100758200Y-100770000D02*
X92460000Y-100770000D01*
X74713200Y-107725000D02*
X67758200Y-100770000D01*
X113675000Y-107725000D02*
X107713200Y-107725000D01*
X107713200Y-107725000D02*
X100758200Y-100770000D01*
X146675000Y-107725000D02*
X140713200Y-107725000D01*
X140713200Y-107725000D02*
X133758200Y-100770000D01*
X133758200Y-100770000D02*
X125460000Y-100770000D01*
X100758200Y-125770000D02*
X92460000Y-125770000D01*
X74713200Y-132725000D02*
X67758200Y-125770000D01*
X67758200Y-125770000D02*
X59460000Y-125770000D01*
X80675000Y-132725000D02*
X74713200Y-132725000D01*
X113675000Y-132725000D02*
X107713200Y-132725000D01*
X146675000Y-132725000D02*
X140713200Y-132725000D01*
X107713200Y-132725000D02*
X100758200Y-125770000D01*
X140713200Y-132725000D02*
X133758200Y-125770000D01*
X133758200Y-125770000D02*
X125460000Y-125770000D01*
%TO.N,Net-(R5-Pad1)*%
X80675000Y-65725000D02*
X77320000Y-65725000D01*
X77320000Y-65725000D02*
X76197500Y-64602500D01*
X113675000Y-65725000D02*
X110320000Y-65725000D01*
X110320000Y-65725000D02*
X109197500Y-64602500D01*
X146675000Y-65725000D02*
X143320000Y-65725000D01*
X143320000Y-65725000D02*
X142197500Y-64602500D01*
X113675000Y-90725000D02*
X110320000Y-90725000D01*
X110320000Y-90725000D02*
X109197500Y-89602500D01*
X80675000Y-90725000D02*
X77320000Y-90725000D01*
X77320000Y-90725000D02*
X76197500Y-89602500D01*
X146675000Y-90725000D02*
X143320000Y-90725000D01*
X143320000Y-90725000D02*
X142197500Y-89602500D01*
X80675000Y-115725000D02*
X77320000Y-115725000D01*
X77320000Y-115725000D02*
X76197500Y-114602500D01*
X110320000Y-115725000D02*
X109197500Y-114602500D01*
X113675000Y-115725000D02*
X110320000Y-115725000D01*
X146675000Y-115725000D02*
X143320000Y-115725000D01*
X143320000Y-115725000D02*
X142197500Y-114602500D01*
X77320000Y-140725000D02*
X76197500Y-139602500D01*
X110320000Y-140725000D02*
X109197500Y-139602500D01*
X80675000Y-140725000D02*
X77320000Y-140725000D01*
X143320000Y-140725000D02*
X142197500Y-139602500D01*
X146675000Y-140725000D02*
X143320000Y-140725000D01*
X113675000Y-140725000D02*
X110320000Y-140725000D01*
%TO.N,Net-(SW2-Pad1)*%
X61000000Y-68900000D02*
X61000000Y-67824700D01*
X65475000Y-65725000D02*
X63899700Y-65725000D01*
X63899700Y-65725000D02*
X61800000Y-67824700D01*
X61800000Y-67824700D02*
X61000000Y-67824700D01*
X98475000Y-65725000D02*
X96899700Y-65725000D01*
X94000000Y-68900000D02*
X94000000Y-67824700D01*
X96899700Y-65725000D02*
X94800000Y-67824700D01*
X94800000Y-67824700D02*
X94000000Y-67824700D01*
X129899700Y-65725000D02*
X127800000Y-67824700D01*
X127000000Y-68900000D02*
X127000000Y-67824700D01*
X131475000Y-65725000D02*
X129899700Y-65725000D01*
X127800000Y-67824700D02*
X127000000Y-67824700D01*
X96899700Y-90725000D02*
X94800000Y-92824700D01*
X94000000Y-93900000D02*
X94000000Y-92824700D01*
X98475000Y-90725000D02*
X96899700Y-90725000D01*
X94800000Y-92824700D02*
X94000000Y-92824700D01*
X65475000Y-90725000D02*
X63899700Y-90725000D01*
X61000000Y-93900000D02*
X61000000Y-92824700D01*
X63899700Y-90725000D02*
X61800000Y-92824700D01*
X61800000Y-92824700D02*
X61000000Y-92824700D01*
X131475000Y-90725000D02*
X129899700Y-90725000D01*
X127800000Y-92824700D02*
X127000000Y-92824700D01*
X129899700Y-90725000D02*
X127800000Y-92824700D01*
X127000000Y-93900000D02*
X127000000Y-92824700D01*
X96899700Y-115725000D02*
X94800000Y-117824700D01*
X94800000Y-117824700D02*
X94000000Y-117824700D01*
X61800000Y-117824700D02*
X61000000Y-117824700D01*
X94000000Y-118900000D02*
X94000000Y-117824700D01*
X65475000Y-115725000D02*
X63899700Y-115725000D01*
X98475000Y-115725000D02*
X96899700Y-115725000D01*
X61000000Y-118900000D02*
X61000000Y-117824700D01*
X63899700Y-115725000D02*
X61800000Y-117824700D01*
X129899700Y-115725000D02*
X127800000Y-117824700D01*
X127000000Y-118900000D02*
X127000000Y-117824700D01*
X131475000Y-115725000D02*
X129899700Y-115725000D01*
X127800000Y-117824700D02*
X127000000Y-117824700D01*
X94000000Y-143900000D02*
X94000000Y-142824700D01*
X61800000Y-142824700D02*
X61000000Y-142824700D01*
X96899700Y-140725000D02*
X94800000Y-142824700D01*
X94800000Y-142824700D02*
X94000000Y-142824700D01*
X65475000Y-140725000D02*
X63899700Y-140725000D01*
X129899700Y-140725000D02*
X127800000Y-142824700D01*
X98475000Y-140725000D02*
X96899700Y-140725000D01*
X61000000Y-143900000D02*
X61000000Y-142824700D01*
X63899700Y-140725000D02*
X61800000Y-142824700D01*
X127800000Y-142824700D02*
X127000000Y-142824700D01*
X131475000Y-140725000D02*
X129899700Y-140725000D01*
X127000000Y-143900000D02*
X127000000Y-142824700D01*
%TO.N,Net-(U2-Pad1)*%
X65475000Y-59725000D02*
X63899700Y-59725000D01*
X65475000Y-53725000D02*
X63899700Y-53725000D01*
X63899700Y-59725000D02*
X63899700Y-53725000D01*
X96899700Y-59725000D02*
X96899700Y-53725000D01*
X98475000Y-53725000D02*
X96899700Y-53725000D01*
X98475000Y-59725000D02*
X96899700Y-59725000D01*
X129899700Y-59725000D02*
X129899700Y-53725000D01*
X131475000Y-53725000D02*
X129899700Y-53725000D01*
X131475000Y-59725000D02*
X129899700Y-59725000D01*
X63899700Y-84725000D02*
X63899700Y-78725000D01*
X65475000Y-78725000D02*
X63899700Y-78725000D01*
X65475000Y-84725000D02*
X63899700Y-84725000D01*
X96899700Y-84725000D02*
X96899700Y-78725000D01*
X98475000Y-78725000D02*
X96899700Y-78725000D01*
X98475000Y-84725000D02*
X96899700Y-84725000D01*
X131475000Y-78725000D02*
X129899700Y-78725000D01*
X129899700Y-84725000D02*
X129899700Y-78725000D01*
X131475000Y-84725000D02*
X129899700Y-84725000D01*
X65475000Y-103725000D02*
X63899700Y-103725000D01*
X63899700Y-109725000D02*
X63899700Y-103725000D01*
X96899700Y-109725000D02*
X96899700Y-103725000D01*
X65475000Y-109725000D02*
X63899700Y-109725000D01*
X98475000Y-103725000D02*
X96899700Y-103725000D01*
X98475000Y-109725000D02*
X96899700Y-109725000D01*
X131475000Y-103725000D02*
X129899700Y-103725000D01*
X129899700Y-109725000D02*
X129899700Y-103725000D01*
X131475000Y-109725000D02*
X129899700Y-109725000D01*
X65475000Y-128725000D02*
X63899700Y-128725000D01*
X65475000Y-134725000D02*
X63899700Y-134725000D01*
X63899700Y-134725000D02*
X63899700Y-128725000D01*
X96899700Y-134725000D02*
X96899700Y-128725000D01*
X131475000Y-134725000D02*
X129899700Y-134725000D01*
X131475000Y-128725000D02*
X129899700Y-128725000D01*
X129899700Y-134725000D02*
X129899700Y-128725000D01*
X98475000Y-128725000D02*
X96899700Y-128725000D01*
X98475000Y-134725000D02*
X96899700Y-134725000D01*
%TO.N,Net-(J2-Pad1)*%
X62000000Y-49500000D02*
X59185400Y-49500000D01*
X59185400Y-49500000D02*
X58369900Y-50315500D01*
X58369900Y-50315500D02*
X58369900Y-53799800D01*
X58369900Y-53799800D02*
X59150100Y-54580000D01*
X59150100Y-54580000D02*
X59753200Y-54580000D01*
X59753200Y-54580000D02*
X62409100Y-57235900D01*
X62409100Y-57235900D02*
X62409100Y-60234400D01*
X62409100Y-60234400D02*
X63899700Y-61725000D01*
X65475000Y-61725000D02*
X63899700Y-61725000D01*
X92753200Y-54580000D02*
X95409100Y-57235900D01*
X92150100Y-54580000D02*
X92753200Y-54580000D01*
X95409100Y-57235900D02*
X95409100Y-60234400D01*
X91369900Y-50315500D02*
X91369900Y-53799800D01*
X98475000Y-61725000D02*
X96899700Y-61725000D01*
X91369900Y-53799800D02*
X92150100Y-54580000D01*
X95409100Y-60234400D02*
X96899700Y-61725000D01*
X92185400Y-49500000D02*
X91369900Y-50315500D01*
X95000000Y-49500000D02*
X92185400Y-49500000D01*
X125753200Y-54580000D02*
X128409100Y-57235900D01*
X125150100Y-54580000D02*
X125753200Y-54580000D01*
X128409100Y-57235900D02*
X128409100Y-60234400D01*
X124369900Y-50315500D02*
X124369900Y-53799800D01*
X131475000Y-61725000D02*
X129899700Y-61725000D01*
X128409100Y-60234400D02*
X129899700Y-61725000D01*
X125185400Y-49500000D02*
X124369900Y-50315500D01*
X128000000Y-49500000D02*
X125185400Y-49500000D01*
X124369900Y-53799800D02*
X125150100Y-54580000D01*
X59753200Y-79580000D02*
X62409100Y-82235900D01*
X59150100Y-79580000D02*
X59753200Y-79580000D01*
X62409100Y-82235900D02*
X62409100Y-85234400D01*
X58369900Y-75315500D02*
X58369900Y-78799800D01*
X65475000Y-86725000D02*
X63899700Y-86725000D01*
X58369900Y-78799800D02*
X59150100Y-79580000D01*
X62409100Y-85234400D02*
X63899700Y-86725000D01*
X59185400Y-74500000D02*
X58369900Y-75315500D01*
X62000000Y-74500000D02*
X59185400Y-74500000D01*
X92753200Y-79580000D02*
X95409100Y-82235900D01*
X92150100Y-79580000D02*
X92753200Y-79580000D01*
X95409100Y-82235900D02*
X95409100Y-85234400D01*
X91369900Y-75315500D02*
X91369900Y-78799800D01*
X98475000Y-86725000D02*
X96899700Y-86725000D01*
X95409100Y-85234400D02*
X96899700Y-86725000D01*
X92185400Y-74500000D02*
X91369900Y-75315500D01*
X95000000Y-74500000D02*
X92185400Y-74500000D01*
X91369900Y-78799800D02*
X92150100Y-79580000D01*
X125753200Y-79580000D02*
X128409100Y-82235900D01*
X125150100Y-79580000D02*
X125753200Y-79580000D01*
X128409100Y-82235900D02*
X128409100Y-85234400D01*
X125185400Y-74500000D02*
X124369900Y-75315500D01*
X124369900Y-75315500D02*
X124369900Y-78799800D01*
X124369900Y-78799800D02*
X125150100Y-79580000D01*
X128000000Y-74500000D02*
X125185400Y-74500000D01*
X128409100Y-85234400D02*
X129899700Y-86725000D01*
X131475000Y-86725000D02*
X129899700Y-86725000D01*
X62409100Y-107235900D02*
X62409100Y-110234400D01*
X59185400Y-99500000D02*
X58369900Y-100315500D01*
X65475000Y-111725000D02*
X63899700Y-111725000D01*
X58369900Y-100315500D02*
X58369900Y-103799800D01*
X92753200Y-104580000D02*
X95409100Y-107235900D01*
X62000000Y-99500000D02*
X59185400Y-99500000D01*
X59753200Y-104580000D02*
X62409100Y-107235900D01*
X59150100Y-104580000D02*
X59753200Y-104580000D01*
X58369900Y-103799800D02*
X59150100Y-104580000D01*
X62409100Y-110234400D02*
X63899700Y-111725000D01*
X92185400Y-99500000D02*
X91369900Y-100315500D01*
X95409100Y-110234400D02*
X96899700Y-111725000D01*
X92150100Y-104580000D02*
X92753200Y-104580000D01*
X98475000Y-111725000D02*
X96899700Y-111725000D01*
X95000000Y-99500000D02*
X92185400Y-99500000D01*
X91369900Y-100315500D02*
X91369900Y-103799800D01*
X91369900Y-103799800D02*
X92150100Y-104580000D01*
X95409100Y-107235900D02*
X95409100Y-110234400D01*
X125753200Y-104580000D02*
X128409100Y-107235900D01*
X128409100Y-107235900D02*
X128409100Y-110234400D01*
X125150100Y-104580000D02*
X125753200Y-104580000D01*
X124369900Y-100315500D02*
X124369900Y-103799800D01*
X128409100Y-110234400D02*
X129899700Y-111725000D01*
X125185400Y-99500000D02*
X124369900Y-100315500D01*
X124369900Y-103799800D02*
X125150100Y-104580000D01*
X128000000Y-99500000D02*
X125185400Y-99500000D01*
X131475000Y-111725000D02*
X129899700Y-111725000D01*
X91369900Y-125315500D02*
X91369900Y-128799800D01*
X125753200Y-129580000D02*
X128409100Y-132235900D01*
X91369900Y-128799800D02*
X92150100Y-129580000D01*
X95409100Y-132235900D02*
X95409100Y-135234400D01*
X58369900Y-125315500D02*
X58369900Y-128799800D01*
X65475000Y-136725000D02*
X63899700Y-136725000D01*
X128409100Y-135234400D02*
X129899700Y-136725000D01*
X131475000Y-136725000D02*
X129899700Y-136725000D01*
X128000000Y-124500000D02*
X125185400Y-124500000D01*
X124369900Y-128799800D02*
X125150100Y-129580000D01*
X125185400Y-124500000D02*
X124369900Y-125315500D01*
X95409100Y-135234400D02*
X96899700Y-136725000D01*
X58369900Y-128799800D02*
X59150100Y-129580000D01*
X62409100Y-135234400D02*
X63899700Y-136725000D01*
X92185400Y-124500000D02*
X91369900Y-125315500D01*
X59185400Y-124500000D02*
X58369900Y-125315500D01*
X62409100Y-132235900D02*
X62409100Y-135234400D01*
X124369900Y-125315500D02*
X124369900Y-128799800D01*
X125150100Y-129580000D02*
X125753200Y-129580000D01*
X128409100Y-132235900D02*
X128409100Y-135234400D01*
X62000000Y-124500000D02*
X59185400Y-124500000D01*
X59150100Y-129580000D02*
X59753200Y-129580000D01*
X59753200Y-129580000D02*
X62409100Y-132235900D01*
X92753200Y-129580000D02*
X95409100Y-132235900D01*
X95000000Y-124500000D02*
X92185400Y-124500000D01*
X92150100Y-129580000D02*
X92753200Y-129580000D01*
X98475000Y-136725000D02*
X96899700Y-136725000D01*
%TO.N,Net-(P3-Pad2)*%
X80675000Y-55725000D02*
X79099700Y-55725000D01*
X79099700Y-55725000D02*
X79099700Y-55780300D01*
X79099700Y-55780300D02*
X78694500Y-56185500D01*
X112099700Y-55780300D02*
X111694500Y-56185500D01*
X113675000Y-55725000D02*
X112099700Y-55725000D01*
X112099700Y-55725000D02*
X112099700Y-55780300D01*
X145099700Y-55725000D02*
X145099700Y-55780300D01*
X145099700Y-55780300D02*
X144694500Y-56185500D01*
X146675000Y-55725000D02*
X145099700Y-55725000D01*
X79099700Y-80780300D02*
X78694500Y-81185500D01*
X80675000Y-80725000D02*
X79099700Y-80725000D01*
X79099700Y-80725000D02*
X79099700Y-80780300D01*
X112099700Y-80725000D02*
X112099700Y-80780300D01*
X112099700Y-80780300D02*
X111694500Y-81185500D01*
X113675000Y-80725000D02*
X112099700Y-80725000D01*
X145099700Y-80780300D02*
X144694500Y-81185500D01*
X145099700Y-80725000D02*
X145099700Y-80780300D01*
X146675000Y-80725000D02*
X145099700Y-80725000D01*
X79099700Y-105780300D02*
X78694500Y-106185500D01*
X112099700Y-105780300D02*
X111694500Y-106185500D01*
X112099700Y-105725000D02*
X112099700Y-105780300D01*
X79099700Y-105725000D02*
X79099700Y-105780300D01*
X80675000Y-105725000D02*
X79099700Y-105725000D01*
X145099700Y-105780300D02*
X144694500Y-106185500D01*
X113675000Y-105725000D02*
X112099700Y-105725000D01*
X146675000Y-105725000D02*
X145099700Y-105725000D01*
X145099700Y-105725000D02*
X145099700Y-105780300D01*
X146675000Y-130725000D02*
X145099700Y-130725000D01*
X80675000Y-130725000D02*
X79099700Y-130725000D01*
X145099700Y-130780300D02*
X144694500Y-131185500D01*
X79099700Y-130780300D02*
X78694500Y-131185500D01*
X145099700Y-130725000D02*
X145099700Y-130780300D01*
X112099700Y-130780300D02*
X111694500Y-131185500D01*
X112099700Y-130725000D02*
X112099700Y-130780300D01*
X79099700Y-130725000D02*
X79099700Y-130780300D01*
X113675000Y-130725000D02*
X112099700Y-130725000D01*
%TO.N,Net-(P4-Pad2)*%
X79099700Y-59725000D02*
X78596900Y-60227800D01*
X78596900Y-60227800D02*
X78319900Y-60227800D01*
X80675000Y-59725000D02*
X79099700Y-59725000D01*
X112099700Y-59725000D02*
X111596900Y-60227800D01*
X113675000Y-59725000D02*
X112099700Y-59725000D01*
X111596900Y-60227800D02*
X111319900Y-60227800D01*
X144596900Y-60227800D02*
X144319900Y-60227800D01*
X146675000Y-59725000D02*
X145099700Y-59725000D01*
X145099700Y-59725000D02*
X144596900Y-60227800D01*
X79099700Y-84725000D02*
X78596900Y-85227800D01*
X80675000Y-84725000D02*
X79099700Y-84725000D01*
X78596900Y-85227800D02*
X78319900Y-85227800D01*
X111596900Y-85227800D02*
X111319900Y-85227800D01*
X113675000Y-84725000D02*
X112099700Y-84725000D01*
X112099700Y-84725000D02*
X111596900Y-85227800D01*
X144596900Y-85227800D02*
X144319900Y-85227800D01*
X145099700Y-84725000D02*
X144596900Y-85227800D01*
X146675000Y-84725000D02*
X145099700Y-84725000D01*
X111596900Y-110227800D02*
X111319900Y-110227800D01*
X79099700Y-109725000D02*
X78596900Y-110227800D01*
X78596900Y-110227800D02*
X78319900Y-110227800D01*
X80675000Y-109725000D02*
X79099700Y-109725000D01*
X113675000Y-109725000D02*
X112099700Y-109725000D01*
X112099700Y-109725000D02*
X111596900Y-110227800D01*
X144596900Y-110227800D02*
X144319900Y-110227800D01*
X146675000Y-109725000D02*
X145099700Y-109725000D01*
X145099700Y-109725000D02*
X144596900Y-110227800D01*
X145099700Y-134725000D02*
X144596900Y-135227800D01*
X146675000Y-134725000D02*
X145099700Y-134725000D01*
X80675000Y-134725000D02*
X79099700Y-134725000D01*
X113675000Y-134725000D02*
X112099700Y-134725000D01*
X79099700Y-134725000D02*
X78596900Y-135227800D01*
X111596900Y-135227800D02*
X111319900Y-135227800D01*
X144596900Y-135227800D02*
X144319900Y-135227800D01*
X78596900Y-135227800D02*
X78319900Y-135227800D01*
X112099700Y-134725000D02*
X111596900Y-135227800D01*
%TD*%
M02*
