%TF.GenerationSoftware,KiCad,Pcbnew,(5.1.9)-1*%
%TF.CreationDate,2021-08-15T14:18:07+02:00*%
%TF.ProjectId,IM350_AM550_5V_V3.0_multi,494d3335-305f-4414-9d35-35305f35565f,rev?*%
%TF.SameCoordinates,Original*%
%TF.FileFunction,Legend,Top*%
%TF.FilePolarity,Positive*%
%FSLAX46Y46*%
G04 Gerber Fmt 4.6, Leading zero omitted, Abs format (unit mm)*
G04 Created by KiCad (PCBNEW (5.1.9)-1) date 2021-08-15 14:18:07*
%MOMM*%
%LPD*%
G01*
G04 APERTURE LIST*
%ADD10C,0.120000*%
%ADD11C,0.150000*%
%ADD12C,0.010000*%
%ADD13C,0.100000*%
G04 APERTURE END LIST*
D10*
X115000000Y-45250000D02*
X115000000Y-145250000D01*
X82000000Y-45250000D02*
X82000000Y-145250000D01*
X49000000Y-120250000D02*
X148000000Y-120250000D01*
X49000000Y-95250000D02*
X148000000Y-95250000D01*
X49000000Y-70250000D02*
X148000000Y-70250000D01*
D11*
X55476190Y-143452380D02*
X55809523Y-144452380D01*
X56142857Y-143452380D01*
X56380952Y-143452380D02*
X57000000Y-143452380D01*
X56666666Y-143833333D01*
X56809523Y-143833333D01*
X56904761Y-143880952D01*
X56952380Y-143928571D01*
X57000000Y-144023809D01*
X57000000Y-144261904D01*
X56952380Y-144357142D01*
X56904761Y-144404761D01*
X56809523Y-144452380D01*
X56523809Y-144452380D01*
X56428571Y-144404761D01*
X56380952Y-144357142D01*
X57428571Y-144357142D02*
X57476190Y-144404761D01*
X57428571Y-144452380D01*
X57380952Y-144404761D01*
X57428571Y-144357142D01*
X57428571Y-144452380D01*
X58095238Y-143452380D02*
X58190476Y-143452380D01*
X58285714Y-143500000D01*
X58333333Y-143547619D01*
X58380952Y-143642857D01*
X58428571Y-143833333D01*
X58428571Y-144071428D01*
X58380952Y-144261904D01*
X58333333Y-144357142D01*
X58285714Y-144404761D01*
X58190476Y-144452380D01*
X58095238Y-144452380D01*
X58000000Y-144404761D01*
X57952380Y-144357142D01*
X57904761Y-144261904D01*
X57857142Y-144071428D01*
X57857142Y-143833333D01*
X57904761Y-143642857D01*
X57952380Y-143547619D01*
X58000000Y-143500000D01*
X58095238Y-143452380D01*
X88476190Y-143452380D02*
X88809523Y-144452380D01*
X89142857Y-143452380D01*
X89380952Y-143452380D02*
X90000000Y-143452380D01*
X89666666Y-143833333D01*
X89809523Y-143833333D01*
X89904761Y-143880952D01*
X89952380Y-143928571D01*
X90000000Y-144023809D01*
X90000000Y-144261904D01*
X89952380Y-144357142D01*
X89904761Y-144404761D01*
X89809523Y-144452380D01*
X89523809Y-144452380D01*
X89428571Y-144404761D01*
X89380952Y-144357142D01*
X90428571Y-144357142D02*
X90476190Y-144404761D01*
X90428571Y-144452380D01*
X90380952Y-144404761D01*
X90428571Y-144357142D01*
X90428571Y-144452380D01*
X91095238Y-143452380D02*
X91190476Y-143452380D01*
X91285714Y-143500000D01*
X91333333Y-143547619D01*
X91380952Y-143642857D01*
X91428571Y-143833333D01*
X91428571Y-144071428D01*
X91380952Y-144261904D01*
X91333333Y-144357142D01*
X91285714Y-144404761D01*
X91190476Y-144452380D01*
X91095238Y-144452380D01*
X91000000Y-144404761D01*
X90952380Y-144357142D01*
X90904761Y-144261904D01*
X90857142Y-144071428D01*
X90857142Y-143833333D01*
X90904761Y-143642857D01*
X90952380Y-143547619D01*
X91000000Y-143500000D01*
X91095238Y-143452380D01*
X121476190Y-143452380D02*
X121809523Y-144452380D01*
X122142857Y-143452380D01*
X122380952Y-143452380D02*
X123000000Y-143452380D01*
X122666666Y-143833333D01*
X122809523Y-143833333D01*
X122904761Y-143880952D01*
X122952380Y-143928571D01*
X123000000Y-144023809D01*
X123000000Y-144261904D01*
X122952380Y-144357142D01*
X122904761Y-144404761D01*
X122809523Y-144452380D01*
X122523809Y-144452380D01*
X122428571Y-144404761D01*
X122380952Y-144357142D01*
X123428571Y-144357142D02*
X123476190Y-144404761D01*
X123428571Y-144452380D01*
X123380952Y-144404761D01*
X123428571Y-144357142D01*
X123428571Y-144452380D01*
X124095238Y-143452380D02*
X124190476Y-143452380D01*
X124285714Y-143500000D01*
X124333333Y-143547619D01*
X124380952Y-143642857D01*
X124428571Y-143833333D01*
X124428571Y-144071428D01*
X124380952Y-144261904D01*
X124333333Y-144357142D01*
X124285714Y-144404761D01*
X124190476Y-144452380D01*
X124095238Y-144452380D01*
X124000000Y-144404761D01*
X123952380Y-144357142D01*
X123904761Y-144261904D01*
X123857142Y-144071428D01*
X123857142Y-143833333D01*
X123904761Y-143642857D01*
X123952380Y-143547619D01*
X124000000Y-143500000D01*
X124095238Y-143452380D01*
X88476190Y-118452380D02*
X88809523Y-119452380D01*
X89142857Y-118452380D01*
X89380952Y-118452380D02*
X90000000Y-118452380D01*
X89666666Y-118833333D01*
X89809523Y-118833333D01*
X89904761Y-118880952D01*
X89952380Y-118928571D01*
X90000000Y-119023809D01*
X90000000Y-119261904D01*
X89952380Y-119357142D01*
X89904761Y-119404761D01*
X89809523Y-119452380D01*
X89523809Y-119452380D01*
X89428571Y-119404761D01*
X89380952Y-119357142D01*
X90428571Y-119357142D02*
X90476190Y-119404761D01*
X90428571Y-119452380D01*
X90380952Y-119404761D01*
X90428571Y-119357142D01*
X90428571Y-119452380D01*
X91095238Y-118452380D02*
X91190476Y-118452380D01*
X91285714Y-118500000D01*
X91333333Y-118547619D01*
X91380952Y-118642857D01*
X91428571Y-118833333D01*
X91428571Y-119071428D01*
X91380952Y-119261904D01*
X91333333Y-119357142D01*
X91285714Y-119404761D01*
X91190476Y-119452380D01*
X91095238Y-119452380D01*
X91000000Y-119404761D01*
X90952380Y-119357142D01*
X90904761Y-119261904D01*
X90857142Y-119071428D01*
X90857142Y-118833333D01*
X90904761Y-118642857D01*
X90952380Y-118547619D01*
X91000000Y-118500000D01*
X91095238Y-118452380D01*
X121476190Y-118452380D02*
X121809523Y-119452380D01*
X122142857Y-118452380D01*
X122380952Y-118452380D02*
X123000000Y-118452380D01*
X122666666Y-118833333D01*
X122809523Y-118833333D01*
X122904761Y-118880952D01*
X122952380Y-118928571D01*
X123000000Y-119023809D01*
X123000000Y-119261904D01*
X122952380Y-119357142D01*
X122904761Y-119404761D01*
X122809523Y-119452380D01*
X122523809Y-119452380D01*
X122428571Y-119404761D01*
X122380952Y-119357142D01*
X123428571Y-119357142D02*
X123476190Y-119404761D01*
X123428571Y-119452380D01*
X123380952Y-119404761D01*
X123428571Y-119357142D01*
X123428571Y-119452380D01*
X124095238Y-118452380D02*
X124190476Y-118452380D01*
X124285714Y-118500000D01*
X124333333Y-118547619D01*
X124380952Y-118642857D01*
X124428571Y-118833333D01*
X124428571Y-119071428D01*
X124380952Y-119261904D01*
X124333333Y-119357142D01*
X124285714Y-119404761D01*
X124190476Y-119452380D01*
X124095238Y-119452380D01*
X124000000Y-119404761D01*
X123952380Y-119357142D01*
X123904761Y-119261904D01*
X123857142Y-119071428D01*
X123857142Y-118833333D01*
X123904761Y-118642857D01*
X123952380Y-118547619D01*
X124000000Y-118500000D01*
X124095238Y-118452380D01*
X55476190Y-118452380D02*
X55809523Y-119452380D01*
X56142857Y-118452380D01*
X56380952Y-118452380D02*
X57000000Y-118452380D01*
X56666666Y-118833333D01*
X56809523Y-118833333D01*
X56904761Y-118880952D01*
X56952380Y-118928571D01*
X57000000Y-119023809D01*
X57000000Y-119261904D01*
X56952380Y-119357142D01*
X56904761Y-119404761D01*
X56809523Y-119452380D01*
X56523809Y-119452380D01*
X56428571Y-119404761D01*
X56380952Y-119357142D01*
X57428571Y-119357142D02*
X57476190Y-119404761D01*
X57428571Y-119452380D01*
X57380952Y-119404761D01*
X57428571Y-119357142D01*
X57428571Y-119452380D01*
X58095238Y-118452380D02*
X58190476Y-118452380D01*
X58285714Y-118500000D01*
X58333333Y-118547619D01*
X58380952Y-118642857D01*
X58428571Y-118833333D01*
X58428571Y-119071428D01*
X58380952Y-119261904D01*
X58333333Y-119357142D01*
X58285714Y-119404761D01*
X58190476Y-119452380D01*
X58095238Y-119452380D01*
X58000000Y-119404761D01*
X57952380Y-119357142D01*
X57904761Y-119261904D01*
X57857142Y-119071428D01*
X57857142Y-118833333D01*
X57904761Y-118642857D01*
X57952380Y-118547619D01*
X58000000Y-118500000D01*
X58095238Y-118452380D01*
X121476190Y-93452380D02*
X121809523Y-94452380D01*
X122142857Y-93452380D01*
X122380952Y-93452380D02*
X123000000Y-93452380D01*
X122666666Y-93833333D01*
X122809523Y-93833333D01*
X122904761Y-93880952D01*
X122952380Y-93928571D01*
X123000000Y-94023809D01*
X123000000Y-94261904D01*
X122952380Y-94357142D01*
X122904761Y-94404761D01*
X122809523Y-94452380D01*
X122523809Y-94452380D01*
X122428571Y-94404761D01*
X122380952Y-94357142D01*
X123428571Y-94357142D02*
X123476190Y-94404761D01*
X123428571Y-94452380D01*
X123380952Y-94404761D01*
X123428571Y-94357142D01*
X123428571Y-94452380D01*
X124095238Y-93452380D02*
X124190476Y-93452380D01*
X124285714Y-93500000D01*
X124333333Y-93547619D01*
X124380952Y-93642857D01*
X124428571Y-93833333D01*
X124428571Y-94071428D01*
X124380952Y-94261904D01*
X124333333Y-94357142D01*
X124285714Y-94404761D01*
X124190476Y-94452380D01*
X124095238Y-94452380D01*
X124000000Y-94404761D01*
X123952380Y-94357142D01*
X123904761Y-94261904D01*
X123857142Y-94071428D01*
X123857142Y-93833333D01*
X123904761Y-93642857D01*
X123952380Y-93547619D01*
X124000000Y-93500000D01*
X124095238Y-93452380D01*
X88476190Y-93452380D02*
X88809523Y-94452380D01*
X89142857Y-93452380D01*
X89380952Y-93452380D02*
X90000000Y-93452380D01*
X89666666Y-93833333D01*
X89809523Y-93833333D01*
X89904761Y-93880952D01*
X89952380Y-93928571D01*
X90000000Y-94023809D01*
X90000000Y-94261904D01*
X89952380Y-94357142D01*
X89904761Y-94404761D01*
X89809523Y-94452380D01*
X89523809Y-94452380D01*
X89428571Y-94404761D01*
X89380952Y-94357142D01*
X90428571Y-94357142D02*
X90476190Y-94404761D01*
X90428571Y-94452380D01*
X90380952Y-94404761D01*
X90428571Y-94357142D01*
X90428571Y-94452380D01*
X91095238Y-93452380D02*
X91190476Y-93452380D01*
X91285714Y-93500000D01*
X91333333Y-93547619D01*
X91380952Y-93642857D01*
X91428571Y-93833333D01*
X91428571Y-94071428D01*
X91380952Y-94261904D01*
X91333333Y-94357142D01*
X91285714Y-94404761D01*
X91190476Y-94452380D01*
X91095238Y-94452380D01*
X91000000Y-94404761D01*
X90952380Y-94357142D01*
X90904761Y-94261904D01*
X90857142Y-94071428D01*
X90857142Y-93833333D01*
X90904761Y-93642857D01*
X90952380Y-93547619D01*
X91000000Y-93500000D01*
X91095238Y-93452380D01*
X55476190Y-93452380D02*
X55809523Y-94452380D01*
X56142857Y-93452380D01*
X56380952Y-93452380D02*
X57000000Y-93452380D01*
X56666666Y-93833333D01*
X56809523Y-93833333D01*
X56904761Y-93880952D01*
X56952380Y-93928571D01*
X57000000Y-94023809D01*
X57000000Y-94261904D01*
X56952380Y-94357142D01*
X56904761Y-94404761D01*
X56809523Y-94452380D01*
X56523809Y-94452380D01*
X56428571Y-94404761D01*
X56380952Y-94357142D01*
X57428571Y-94357142D02*
X57476190Y-94404761D01*
X57428571Y-94452380D01*
X57380952Y-94404761D01*
X57428571Y-94357142D01*
X57428571Y-94452380D01*
X58095238Y-93452380D02*
X58190476Y-93452380D01*
X58285714Y-93500000D01*
X58333333Y-93547619D01*
X58380952Y-93642857D01*
X58428571Y-93833333D01*
X58428571Y-94071428D01*
X58380952Y-94261904D01*
X58333333Y-94357142D01*
X58285714Y-94404761D01*
X58190476Y-94452380D01*
X58095238Y-94452380D01*
X58000000Y-94404761D01*
X57952380Y-94357142D01*
X57904761Y-94261904D01*
X57857142Y-94071428D01*
X57857142Y-93833333D01*
X57904761Y-93642857D01*
X57952380Y-93547619D01*
X58000000Y-93500000D01*
X58095238Y-93452380D01*
X121476190Y-68452380D02*
X121809523Y-69452380D01*
X122142857Y-68452380D01*
X122380952Y-68452380D02*
X123000000Y-68452380D01*
X122666666Y-68833333D01*
X122809523Y-68833333D01*
X122904761Y-68880952D01*
X122952380Y-68928571D01*
X123000000Y-69023809D01*
X123000000Y-69261904D01*
X122952380Y-69357142D01*
X122904761Y-69404761D01*
X122809523Y-69452380D01*
X122523809Y-69452380D01*
X122428571Y-69404761D01*
X122380952Y-69357142D01*
X123428571Y-69357142D02*
X123476190Y-69404761D01*
X123428571Y-69452380D01*
X123380952Y-69404761D01*
X123428571Y-69357142D01*
X123428571Y-69452380D01*
X124095238Y-68452380D02*
X124190476Y-68452380D01*
X124285714Y-68500000D01*
X124333333Y-68547619D01*
X124380952Y-68642857D01*
X124428571Y-68833333D01*
X124428571Y-69071428D01*
X124380952Y-69261904D01*
X124333333Y-69357142D01*
X124285714Y-69404761D01*
X124190476Y-69452380D01*
X124095238Y-69452380D01*
X124000000Y-69404761D01*
X123952380Y-69357142D01*
X123904761Y-69261904D01*
X123857142Y-69071428D01*
X123857142Y-68833333D01*
X123904761Y-68642857D01*
X123952380Y-68547619D01*
X124000000Y-68500000D01*
X124095238Y-68452380D01*
X88476190Y-68452380D02*
X88809523Y-69452380D01*
X89142857Y-68452380D01*
X89380952Y-68452380D02*
X90000000Y-68452380D01*
X89666666Y-68833333D01*
X89809523Y-68833333D01*
X89904761Y-68880952D01*
X89952380Y-68928571D01*
X90000000Y-69023809D01*
X90000000Y-69261904D01*
X89952380Y-69357142D01*
X89904761Y-69404761D01*
X89809523Y-69452380D01*
X89523809Y-69452380D01*
X89428571Y-69404761D01*
X89380952Y-69357142D01*
X90428571Y-69357142D02*
X90476190Y-69404761D01*
X90428571Y-69452380D01*
X90380952Y-69404761D01*
X90428571Y-69357142D01*
X90428571Y-69452380D01*
X91095238Y-68452380D02*
X91190476Y-68452380D01*
X91285714Y-68500000D01*
X91333333Y-68547619D01*
X91380952Y-68642857D01*
X91428571Y-68833333D01*
X91428571Y-69071428D01*
X91380952Y-69261904D01*
X91333333Y-69357142D01*
X91285714Y-69404761D01*
X91190476Y-69452380D01*
X91095238Y-69452380D01*
X91000000Y-69404761D01*
X90952380Y-69357142D01*
X90904761Y-69261904D01*
X90857142Y-69071428D01*
X90857142Y-68833333D01*
X90904761Y-68642857D01*
X90952380Y-68547619D01*
X91000000Y-68500000D01*
X91095238Y-68452380D01*
X55476190Y-68452380D02*
X55809523Y-69452380D01*
X56142857Y-68452380D01*
X56380952Y-68452380D02*
X57000000Y-68452380D01*
X56666666Y-68833333D01*
X56809523Y-68833333D01*
X56904761Y-68880952D01*
X56952380Y-68928571D01*
X57000000Y-69023809D01*
X57000000Y-69261904D01*
X56952380Y-69357142D01*
X56904761Y-69404761D01*
X56809523Y-69452380D01*
X56523809Y-69452380D01*
X56428571Y-69404761D01*
X56380952Y-69357142D01*
X57428571Y-69357142D02*
X57476190Y-69404761D01*
X57428571Y-69452380D01*
X57380952Y-69404761D01*
X57428571Y-69357142D01*
X57428571Y-69452380D01*
X58095238Y-68452380D02*
X58190476Y-68452380D01*
X58285714Y-68500000D01*
X58333333Y-68547619D01*
X58380952Y-68642857D01*
X58428571Y-68833333D01*
X58428571Y-69071428D01*
X58380952Y-69261904D01*
X58333333Y-69357142D01*
X58285714Y-69404761D01*
X58190476Y-69452380D01*
X58095238Y-69452380D01*
X58000000Y-69404761D01*
X57952380Y-69357142D01*
X57904761Y-69261904D01*
X57857142Y-69071428D01*
X57857142Y-68833333D01*
X57904761Y-68642857D01*
X57952380Y-68547619D01*
X58000000Y-68500000D01*
X58095238Y-68452380D01*
D10*
%TO.C,U2*%
X64955000Y-127725000D02*
X64345000Y-127725000D01*
X64955000Y-127725000D02*
X64955000Y-120105000D01*
X64955000Y-144345000D02*
X64955000Y-143725000D01*
X67075000Y-144345000D02*
X64955000Y-144345000D01*
X81195000Y-144345000D02*
X79075000Y-144345000D01*
X81195000Y-143725000D02*
X81195000Y-144345000D01*
X81195000Y-120105000D02*
X81195000Y-127725000D01*
X64955000Y-120105000D02*
X81195000Y-120105000D01*
%TO.C,J1*%
X54600000Y-136800000D02*
X54600000Y-137460000D01*
X52870000Y-136690000D02*
X54600000Y-136690000D01*
X48910000Y-144310000D02*
X49120000Y-144310000D01*
X48910000Y-136690000D02*
X49120000Y-136690000D01*
X52870000Y-144310000D02*
X54600000Y-144310000D01*
X54600000Y-144275000D02*
X54600000Y-143625000D01*
X53910000Y-138740000D02*
X53910000Y-139190000D01*
X53910000Y-138740000D02*
X53520000Y-138740000D01*
D12*
%TO.C,G1*%
G36*
X56285721Y-135709435D02*
G01*
X56287866Y-135711375D01*
X56354817Y-135786657D01*
X56345708Y-135853819D01*
X56309374Y-135907520D01*
X56127523Y-136227944D01*
X56042344Y-136557789D01*
X56053128Y-136885435D01*
X56159165Y-137199266D01*
X56359746Y-137487661D01*
X56408987Y-137539121D01*
X56696721Y-137765232D01*
X57000936Y-137893030D01*
X57312476Y-137922517D01*
X57622184Y-137853691D01*
X57920903Y-137686554D01*
X58091012Y-137539121D01*
X58309653Y-137256935D01*
X58433887Y-136947085D01*
X58463004Y-136621188D01*
X58396294Y-136290865D01*
X58233048Y-135967732D01*
X58190625Y-135907520D01*
X58141303Y-135822038D01*
X58164827Y-135757739D01*
X58212133Y-135711375D01*
X58271211Y-135665269D01*
X58318578Y-135666078D01*
X58375623Y-135726835D01*
X58463740Y-135860574D01*
X58467989Y-135867273D01*
X58628882Y-136177772D01*
X58706368Y-136485697D01*
X58710214Y-136827694D01*
X58631906Y-137196720D01*
X58464004Y-137528877D01*
X58215857Y-137810382D01*
X57896814Y-138027448D01*
X57896350Y-138027686D01*
X57671101Y-138106666D01*
X57394920Y-138151299D01*
X57109849Y-138158785D01*
X56857932Y-138126330D01*
X56777457Y-138102133D01*
X56432359Y-137924160D01*
X56150483Y-137677474D01*
X55941445Y-137375345D01*
X55814859Y-137031041D01*
X55779313Y-136724600D01*
X55803461Y-136410499D01*
X55889957Y-136129218D01*
X56032626Y-135866300D01*
X56122138Y-135729885D01*
X56179846Y-135666955D01*
X56227219Y-135664482D01*
X56285721Y-135709435D01*
G37*
X56285721Y-135709435D02*
X56287866Y-135711375D01*
X56354817Y-135786657D01*
X56345708Y-135853819D01*
X56309374Y-135907520D01*
X56127523Y-136227944D01*
X56042344Y-136557789D01*
X56053128Y-136885435D01*
X56159165Y-137199266D01*
X56359746Y-137487661D01*
X56408987Y-137539121D01*
X56696721Y-137765232D01*
X57000936Y-137893030D01*
X57312476Y-137922517D01*
X57622184Y-137853691D01*
X57920903Y-137686554D01*
X58091012Y-137539121D01*
X58309653Y-137256935D01*
X58433887Y-136947085D01*
X58463004Y-136621188D01*
X58396294Y-136290865D01*
X58233048Y-135967732D01*
X58190625Y-135907520D01*
X58141303Y-135822038D01*
X58164827Y-135757739D01*
X58212133Y-135711375D01*
X58271211Y-135665269D01*
X58318578Y-135666078D01*
X58375623Y-135726835D01*
X58463740Y-135860574D01*
X58467989Y-135867273D01*
X58628882Y-136177772D01*
X58706368Y-136485697D01*
X58710214Y-136827694D01*
X58631906Y-137196720D01*
X58464004Y-137528877D01*
X58215857Y-137810382D01*
X57896814Y-138027448D01*
X57896350Y-138027686D01*
X57671101Y-138106666D01*
X57394920Y-138151299D01*
X57109849Y-138158785D01*
X56857932Y-138126330D01*
X56777457Y-138102133D01*
X56432359Y-137924160D01*
X56150483Y-137677474D01*
X55941445Y-137375345D01*
X55814859Y-137031041D01*
X55779313Y-136724600D01*
X55803461Y-136410499D01*
X55889957Y-136129218D01*
X56032626Y-135866300D01*
X56122138Y-135729885D01*
X56179846Y-135666955D01*
X56227219Y-135664482D01*
X56285721Y-135709435D01*
G36*
X57529165Y-135581368D02*
G01*
X57672541Y-135728132D01*
X57756383Y-135835007D01*
X57796412Y-135930367D01*
X57808347Y-136042588D01*
X57808800Y-136086129D01*
X57808800Y-136314729D01*
X57529910Y-136039304D01*
X57251021Y-135763879D01*
X56893125Y-136110765D01*
X57174914Y-136395526D01*
X57456704Y-136680287D01*
X57427800Y-137823827D01*
X57288100Y-137677833D01*
X57212902Y-137588234D01*
X57170737Y-137495446D01*
X57152329Y-137366256D01*
X57148400Y-137177552D01*
X57148400Y-136823264D01*
X56818200Y-136496000D01*
X56672691Y-136346271D01*
X56559914Y-136219731D01*
X56496276Y-136135298D01*
X56488000Y-136115196D01*
X56522075Y-136059273D01*
X56614170Y-135950142D01*
X56749088Y-135805036D01*
X56868765Y-135683432D01*
X57249531Y-135305209D01*
X57529165Y-135581368D01*
G37*
X57529165Y-135581368D02*
X57672541Y-135728132D01*
X57756383Y-135835007D01*
X57796412Y-135930367D01*
X57808347Y-136042588D01*
X57808800Y-136086129D01*
X57808800Y-136314729D01*
X57529910Y-136039304D01*
X57251021Y-135763879D01*
X56893125Y-136110765D01*
X57174914Y-136395526D01*
X57456704Y-136680287D01*
X57427800Y-137823827D01*
X57288100Y-137677833D01*
X57212902Y-137588234D01*
X57170737Y-137495446D01*
X57152329Y-137366256D01*
X57148400Y-137177552D01*
X57148400Y-136823264D01*
X56818200Y-136496000D01*
X56672691Y-136346271D01*
X56559914Y-136219731D01*
X56496276Y-136135298D01*
X56488000Y-136115196D01*
X56522075Y-136059273D01*
X56614170Y-135950142D01*
X56749088Y-135805036D01*
X56868765Y-135683432D01*
X57249531Y-135305209D01*
X57529165Y-135581368D01*
D10*
%TO.C,SW2*%
X95850000Y-143060000D02*
X92150000Y-143060000D01*
X95850000Y-136940000D02*
X95850000Y-143060000D01*
X92150000Y-136940000D02*
X95850000Y-136940000D01*
X92150000Y-143060000D02*
X92150000Y-136940000D01*
%TO.C,J2*%
X127230000Y-120600000D02*
X128760000Y-120600000D01*
X120210000Y-121070000D02*
X129230000Y-121070000D01*
D13*
X120280000Y-121070000D02*
X120210000Y-121070000D01*
D10*
X111230000Y-121070000D02*
X118010000Y-121070000D01*
X111230000Y-134270000D02*
X111230000Y-121070000D01*
D13*
X111240000Y-134270000D02*
X111230000Y-134270000D01*
D10*
X111230000Y-134270000D02*
X118010000Y-134270000D01*
D13*
X111350000Y-134270000D02*
X111230000Y-134270000D01*
D10*
X129230000Y-134270000D02*
X120210000Y-134270000D01*
X129230000Y-121070000D02*
X129230000Y-134270000D01*
%TO.C,SW2*%
X125150000Y-143060000D02*
X125150000Y-136940000D01*
X125150000Y-136940000D02*
X128850000Y-136940000D01*
X128850000Y-136940000D02*
X128850000Y-143060000D01*
X128850000Y-143060000D02*
X125150000Y-143060000D01*
%TO.C,J2*%
X61230000Y-120600000D02*
X62760000Y-120600000D01*
X54210000Y-121070000D02*
X63230000Y-121070000D01*
D13*
X54280000Y-121070000D02*
X54210000Y-121070000D01*
D10*
X45230000Y-121070000D02*
X52010000Y-121070000D01*
X45230000Y-134270000D02*
X45230000Y-121070000D01*
D13*
X45240000Y-134270000D02*
X45230000Y-134270000D01*
D10*
X45230000Y-134270000D02*
X52010000Y-134270000D01*
D13*
X45350000Y-134270000D02*
X45230000Y-134270000D01*
D10*
X63230000Y-134270000D02*
X54210000Y-134270000D01*
X63230000Y-121070000D02*
X63230000Y-134270000D01*
%TO.C,SW2*%
X59150000Y-143060000D02*
X59150000Y-136940000D01*
X59150000Y-136940000D02*
X62850000Y-136940000D01*
X62850000Y-136940000D02*
X62850000Y-143060000D01*
X62850000Y-143060000D02*
X59150000Y-143060000D01*
%TO.C,U2*%
X97955000Y-120105000D02*
X114195000Y-120105000D01*
X114195000Y-120105000D02*
X114195000Y-127725000D01*
X114195000Y-143725000D02*
X114195000Y-144345000D01*
X114195000Y-144345000D02*
X112075000Y-144345000D01*
X100075000Y-144345000D02*
X97955000Y-144345000D01*
X97955000Y-144345000D02*
X97955000Y-143725000D01*
X97955000Y-127725000D02*
X97955000Y-120105000D01*
X97955000Y-127725000D02*
X97345000Y-127725000D01*
X130955000Y-127725000D02*
X130345000Y-127725000D01*
X130955000Y-127725000D02*
X130955000Y-120105000D01*
X130955000Y-144345000D02*
X130955000Y-143725000D01*
X133075000Y-144345000D02*
X130955000Y-144345000D01*
X147195000Y-144345000D02*
X145075000Y-144345000D01*
X147195000Y-143725000D02*
X147195000Y-144345000D01*
X147195000Y-120105000D02*
X147195000Y-127725000D01*
X130955000Y-120105000D02*
X147195000Y-120105000D01*
D12*
%TO.C,G1*%
G36*
X122285721Y-135709435D02*
G01*
X122287866Y-135711375D01*
X122354817Y-135786657D01*
X122345708Y-135853819D01*
X122309374Y-135907520D01*
X122127523Y-136227944D01*
X122042344Y-136557789D01*
X122053128Y-136885435D01*
X122159165Y-137199266D01*
X122359746Y-137487661D01*
X122408987Y-137539121D01*
X122696721Y-137765232D01*
X123000936Y-137893030D01*
X123312476Y-137922517D01*
X123622184Y-137853691D01*
X123920903Y-137686554D01*
X124091012Y-137539121D01*
X124309653Y-137256935D01*
X124433887Y-136947085D01*
X124463004Y-136621188D01*
X124396294Y-136290865D01*
X124233048Y-135967732D01*
X124190625Y-135907520D01*
X124141303Y-135822038D01*
X124164827Y-135757739D01*
X124212133Y-135711375D01*
X124271211Y-135665269D01*
X124318578Y-135666078D01*
X124375623Y-135726835D01*
X124463740Y-135860574D01*
X124467989Y-135867273D01*
X124628882Y-136177772D01*
X124706368Y-136485697D01*
X124710214Y-136827694D01*
X124631906Y-137196720D01*
X124464004Y-137528877D01*
X124215857Y-137810382D01*
X123896814Y-138027448D01*
X123896350Y-138027686D01*
X123671101Y-138106666D01*
X123394920Y-138151299D01*
X123109849Y-138158785D01*
X122857932Y-138126330D01*
X122777457Y-138102133D01*
X122432359Y-137924160D01*
X122150483Y-137677474D01*
X121941445Y-137375345D01*
X121814859Y-137031041D01*
X121779313Y-136724600D01*
X121803461Y-136410499D01*
X121889957Y-136129218D01*
X122032626Y-135866300D01*
X122122138Y-135729885D01*
X122179846Y-135666955D01*
X122227219Y-135664482D01*
X122285721Y-135709435D01*
G37*
X122285721Y-135709435D02*
X122287866Y-135711375D01*
X122354817Y-135786657D01*
X122345708Y-135853819D01*
X122309374Y-135907520D01*
X122127523Y-136227944D01*
X122042344Y-136557789D01*
X122053128Y-136885435D01*
X122159165Y-137199266D01*
X122359746Y-137487661D01*
X122408987Y-137539121D01*
X122696721Y-137765232D01*
X123000936Y-137893030D01*
X123312476Y-137922517D01*
X123622184Y-137853691D01*
X123920903Y-137686554D01*
X124091012Y-137539121D01*
X124309653Y-137256935D01*
X124433887Y-136947085D01*
X124463004Y-136621188D01*
X124396294Y-136290865D01*
X124233048Y-135967732D01*
X124190625Y-135907520D01*
X124141303Y-135822038D01*
X124164827Y-135757739D01*
X124212133Y-135711375D01*
X124271211Y-135665269D01*
X124318578Y-135666078D01*
X124375623Y-135726835D01*
X124463740Y-135860574D01*
X124467989Y-135867273D01*
X124628882Y-136177772D01*
X124706368Y-136485697D01*
X124710214Y-136827694D01*
X124631906Y-137196720D01*
X124464004Y-137528877D01*
X124215857Y-137810382D01*
X123896814Y-138027448D01*
X123896350Y-138027686D01*
X123671101Y-138106666D01*
X123394920Y-138151299D01*
X123109849Y-138158785D01*
X122857932Y-138126330D01*
X122777457Y-138102133D01*
X122432359Y-137924160D01*
X122150483Y-137677474D01*
X121941445Y-137375345D01*
X121814859Y-137031041D01*
X121779313Y-136724600D01*
X121803461Y-136410499D01*
X121889957Y-136129218D01*
X122032626Y-135866300D01*
X122122138Y-135729885D01*
X122179846Y-135666955D01*
X122227219Y-135664482D01*
X122285721Y-135709435D01*
G36*
X123529165Y-135581368D02*
G01*
X123672541Y-135728132D01*
X123756383Y-135835007D01*
X123796412Y-135930367D01*
X123808347Y-136042588D01*
X123808800Y-136086129D01*
X123808800Y-136314729D01*
X123529910Y-136039304D01*
X123251021Y-135763879D01*
X122893125Y-136110765D01*
X123174914Y-136395526D01*
X123456704Y-136680287D01*
X123427800Y-137823827D01*
X123288100Y-137677833D01*
X123212902Y-137588234D01*
X123170737Y-137495446D01*
X123152329Y-137366256D01*
X123148400Y-137177552D01*
X123148400Y-136823264D01*
X122818200Y-136496000D01*
X122672691Y-136346271D01*
X122559914Y-136219731D01*
X122496276Y-136135298D01*
X122488000Y-136115196D01*
X122522075Y-136059273D01*
X122614170Y-135950142D01*
X122749088Y-135805036D01*
X122868765Y-135683432D01*
X123249531Y-135305209D01*
X123529165Y-135581368D01*
G37*
X123529165Y-135581368D02*
X123672541Y-135728132D01*
X123756383Y-135835007D01*
X123796412Y-135930367D01*
X123808347Y-136042588D01*
X123808800Y-136086129D01*
X123808800Y-136314729D01*
X123529910Y-136039304D01*
X123251021Y-135763879D01*
X122893125Y-136110765D01*
X123174914Y-136395526D01*
X123456704Y-136680287D01*
X123427800Y-137823827D01*
X123288100Y-137677833D01*
X123212902Y-137588234D01*
X123170737Y-137495446D01*
X123152329Y-137366256D01*
X123148400Y-137177552D01*
X123148400Y-136823264D01*
X122818200Y-136496000D01*
X122672691Y-136346271D01*
X122559914Y-136219731D01*
X122496276Y-136135298D01*
X122488000Y-136115196D01*
X122522075Y-136059273D01*
X122614170Y-135950142D01*
X122749088Y-135805036D01*
X122868765Y-135683432D01*
X123249531Y-135305209D01*
X123529165Y-135581368D01*
D10*
%TO.C,J2*%
X96230000Y-121070000D02*
X96230000Y-134270000D01*
X96230000Y-134270000D02*
X87210000Y-134270000D01*
D13*
X78350000Y-134270000D02*
X78230000Y-134270000D01*
D10*
X78230000Y-134270000D02*
X85010000Y-134270000D01*
D13*
X78240000Y-134270000D02*
X78230000Y-134270000D01*
D10*
X78230000Y-134270000D02*
X78230000Y-121070000D01*
X78230000Y-121070000D02*
X85010000Y-121070000D01*
D13*
X87280000Y-121070000D02*
X87210000Y-121070000D01*
D10*
X87210000Y-121070000D02*
X96230000Y-121070000D01*
X94230000Y-120600000D02*
X95760000Y-120600000D01*
%TO.C,J1*%
X86910000Y-138740000D02*
X86520000Y-138740000D01*
X86910000Y-138740000D02*
X86910000Y-139190000D01*
X87600000Y-144275000D02*
X87600000Y-143625000D01*
X85870000Y-144310000D02*
X87600000Y-144310000D01*
X81910000Y-136690000D02*
X82120000Y-136690000D01*
X81910000Y-144310000D02*
X82120000Y-144310000D01*
X85870000Y-136690000D02*
X87600000Y-136690000D01*
X87600000Y-136800000D02*
X87600000Y-137460000D01*
X120600000Y-136800000D02*
X120600000Y-137460000D01*
X118870000Y-136690000D02*
X120600000Y-136690000D01*
X114910000Y-144310000D02*
X115120000Y-144310000D01*
X114910000Y-136690000D02*
X115120000Y-136690000D01*
X118870000Y-144310000D02*
X120600000Y-144310000D01*
X120600000Y-144275000D02*
X120600000Y-143625000D01*
X119910000Y-138740000D02*
X119910000Y-139190000D01*
X119910000Y-138740000D02*
X119520000Y-138740000D01*
D12*
%TO.C,G1*%
G36*
X90529165Y-135581368D02*
G01*
X90672541Y-135728132D01*
X90756383Y-135835007D01*
X90796412Y-135930367D01*
X90808347Y-136042588D01*
X90808800Y-136086129D01*
X90808800Y-136314729D01*
X90529910Y-136039304D01*
X90251021Y-135763879D01*
X89893125Y-136110765D01*
X90174914Y-136395526D01*
X90456704Y-136680287D01*
X90427800Y-137823827D01*
X90288100Y-137677833D01*
X90212902Y-137588234D01*
X90170737Y-137495446D01*
X90152329Y-137366256D01*
X90148400Y-137177552D01*
X90148400Y-136823264D01*
X89818200Y-136496000D01*
X89672691Y-136346271D01*
X89559914Y-136219731D01*
X89496276Y-136135298D01*
X89488000Y-136115196D01*
X89522075Y-136059273D01*
X89614170Y-135950142D01*
X89749088Y-135805036D01*
X89868765Y-135683432D01*
X90249531Y-135305209D01*
X90529165Y-135581368D01*
G37*
X90529165Y-135581368D02*
X90672541Y-135728132D01*
X90756383Y-135835007D01*
X90796412Y-135930367D01*
X90808347Y-136042588D01*
X90808800Y-136086129D01*
X90808800Y-136314729D01*
X90529910Y-136039304D01*
X90251021Y-135763879D01*
X89893125Y-136110765D01*
X90174914Y-136395526D01*
X90456704Y-136680287D01*
X90427800Y-137823827D01*
X90288100Y-137677833D01*
X90212902Y-137588234D01*
X90170737Y-137495446D01*
X90152329Y-137366256D01*
X90148400Y-137177552D01*
X90148400Y-136823264D01*
X89818200Y-136496000D01*
X89672691Y-136346271D01*
X89559914Y-136219731D01*
X89496276Y-136135298D01*
X89488000Y-136115196D01*
X89522075Y-136059273D01*
X89614170Y-135950142D01*
X89749088Y-135805036D01*
X89868765Y-135683432D01*
X90249531Y-135305209D01*
X90529165Y-135581368D01*
G36*
X89285721Y-135709435D02*
G01*
X89287866Y-135711375D01*
X89354817Y-135786657D01*
X89345708Y-135853819D01*
X89309374Y-135907520D01*
X89127523Y-136227944D01*
X89042344Y-136557789D01*
X89053128Y-136885435D01*
X89159165Y-137199266D01*
X89359746Y-137487661D01*
X89408987Y-137539121D01*
X89696721Y-137765232D01*
X90000936Y-137893030D01*
X90312476Y-137922517D01*
X90622184Y-137853691D01*
X90920903Y-137686554D01*
X91091012Y-137539121D01*
X91309653Y-137256935D01*
X91433887Y-136947085D01*
X91463004Y-136621188D01*
X91396294Y-136290865D01*
X91233048Y-135967732D01*
X91190625Y-135907520D01*
X91141303Y-135822038D01*
X91164827Y-135757739D01*
X91212133Y-135711375D01*
X91271211Y-135665269D01*
X91318578Y-135666078D01*
X91375623Y-135726835D01*
X91463740Y-135860574D01*
X91467989Y-135867273D01*
X91628882Y-136177772D01*
X91706368Y-136485697D01*
X91710214Y-136827694D01*
X91631906Y-137196720D01*
X91464004Y-137528877D01*
X91215857Y-137810382D01*
X90896814Y-138027448D01*
X90896350Y-138027686D01*
X90671101Y-138106666D01*
X90394920Y-138151299D01*
X90109849Y-138158785D01*
X89857932Y-138126330D01*
X89777457Y-138102133D01*
X89432359Y-137924160D01*
X89150483Y-137677474D01*
X88941445Y-137375345D01*
X88814859Y-137031041D01*
X88779313Y-136724600D01*
X88803461Y-136410499D01*
X88889957Y-136129218D01*
X89032626Y-135866300D01*
X89122138Y-135729885D01*
X89179846Y-135666955D01*
X89227219Y-135664482D01*
X89285721Y-135709435D01*
G37*
X89285721Y-135709435D02*
X89287866Y-135711375D01*
X89354817Y-135786657D01*
X89345708Y-135853819D01*
X89309374Y-135907520D01*
X89127523Y-136227944D01*
X89042344Y-136557789D01*
X89053128Y-136885435D01*
X89159165Y-137199266D01*
X89359746Y-137487661D01*
X89408987Y-137539121D01*
X89696721Y-137765232D01*
X90000936Y-137893030D01*
X90312476Y-137922517D01*
X90622184Y-137853691D01*
X90920903Y-137686554D01*
X91091012Y-137539121D01*
X91309653Y-137256935D01*
X91433887Y-136947085D01*
X91463004Y-136621188D01*
X91396294Y-136290865D01*
X91233048Y-135967732D01*
X91190625Y-135907520D01*
X91141303Y-135822038D01*
X91164827Y-135757739D01*
X91212133Y-135711375D01*
X91271211Y-135665269D01*
X91318578Y-135666078D01*
X91375623Y-135726835D01*
X91463740Y-135860574D01*
X91467989Y-135867273D01*
X91628882Y-136177772D01*
X91706368Y-136485697D01*
X91710214Y-136827694D01*
X91631906Y-137196720D01*
X91464004Y-137528877D01*
X91215857Y-137810382D01*
X90896814Y-138027448D01*
X90896350Y-138027686D01*
X90671101Y-138106666D01*
X90394920Y-138151299D01*
X90109849Y-138158785D01*
X89857932Y-138126330D01*
X89777457Y-138102133D01*
X89432359Y-137924160D01*
X89150483Y-137677474D01*
X88941445Y-137375345D01*
X88814859Y-137031041D01*
X88779313Y-136724600D01*
X88803461Y-136410499D01*
X88889957Y-136129218D01*
X89032626Y-135866300D01*
X89122138Y-135729885D01*
X89179846Y-135666955D01*
X89227219Y-135664482D01*
X89285721Y-135709435D01*
D10*
%TO.C,U2*%
X64955000Y-95105000D02*
X81195000Y-95105000D01*
X81195000Y-95105000D02*
X81195000Y-102725000D01*
X81195000Y-118725000D02*
X81195000Y-119345000D01*
X81195000Y-119345000D02*
X79075000Y-119345000D01*
X67075000Y-119345000D02*
X64955000Y-119345000D01*
X64955000Y-119345000D02*
X64955000Y-118725000D01*
X64955000Y-102725000D02*
X64955000Y-95105000D01*
X64955000Y-102725000D02*
X64345000Y-102725000D01*
D12*
%TO.C,G1*%
G36*
X57529165Y-110581368D02*
G01*
X57672541Y-110728132D01*
X57756383Y-110835007D01*
X57796412Y-110930367D01*
X57808347Y-111042588D01*
X57808800Y-111086129D01*
X57808800Y-111314729D01*
X57529910Y-111039304D01*
X57251021Y-110763879D01*
X56893125Y-111110765D01*
X57174914Y-111395526D01*
X57456704Y-111680287D01*
X57427800Y-112823827D01*
X57288100Y-112677833D01*
X57212902Y-112588234D01*
X57170737Y-112495446D01*
X57152329Y-112366256D01*
X57148400Y-112177552D01*
X57148400Y-111823264D01*
X56818200Y-111496000D01*
X56672691Y-111346271D01*
X56559914Y-111219731D01*
X56496276Y-111135298D01*
X56488000Y-111115196D01*
X56522075Y-111059273D01*
X56614170Y-110950142D01*
X56749088Y-110805036D01*
X56868765Y-110683432D01*
X57249531Y-110305209D01*
X57529165Y-110581368D01*
G37*
X57529165Y-110581368D02*
X57672541Y-110728132D01*
X57756383Y-110835007D01*
X57796412Y-110930367D01*
X57808347Y-111042588D01*
X57808800Y-111086129D01*
X57808800Y-111314729D01*
X57529910Y-111039304D01*
X57251021Y-110763879D01*
X56893125Y-111110765D01*
X57174914Y-111395526D01*
X57456704Y-111680287D01*
X57427800Y-112823827D01*
X57288100Y-112677833D01*
X57212902Y-112588234D01*
X57170737Y-112495446D01*
X57152329Y-112366256D01*
X57148400Y-112177552D01*
X57148400Y-111823264D01*
X56818200Y-111496000D01*
X56672691Y-111346271D01*
X56559914Y-111219731D01*
X56496276Y-111135298D01*
X56488000Y-111115196D01*
X56522075Y-111059273D01*
X56614170Y-110950142D01*
X56749088Y-110805036D01*
X56868765Y-110683432D01*
X57249531Y-110305209D01*
X57529165Y-110581368D01*
G36*
X56285721Y-110709435D02*
G01*
X56287866Y-110711375D01*
X56354817Y-110786657D01*
X56345708Y-110853819D01*
X56309374Y-110907520D01*
X56127523Y-111227944D01*
X56042344Y-111557789D01*
X56053128Y-111885435D01*
X56159165Y-112199266D01*
X56359746Y-112487661D01*
X56408987Y-112539121D01*
X56696721Y-112765232D01*
X57000936Y-112893030D01*
X57312476Y-112922517D01*
X57622184Y-112853691D01*
X57920903Y-112686554D01*
X58091012Y-112539121D01*
X58309653Y-112256935D01*
X58433887Y-111947085D01*
X58463004Y-111621188D01*
X58396294Y-111290865D01*
X58233048Y-110967732D01*
X58190625Y-110907520D01*
X58141303Y-110822038D01*
X58164827Y-110757739D01*
X58212133Y-110711375D01*
X58271211Y-110665269D01*
X58318578Y-110666078D01*
X58375623Y-110726835D01*
X58463740Y-110860574D01*
X58467989Y-110867273D01*
X58628882Y-111177772D01*
X58706368Y-111485697D01*
X58710214Y-111827694D01*
X58631906Y-112196720D01*
X58464004Y-112528877D01*
X58215857Y-112810382D01*
X57896814Y-113027448D01*
X57896350Y-113027686D01*
X57671101Y-113106666D01*
X57394920Y-113151299D01*
X57109849Y-113158785D01*
X56857932Y-113126330D01*
X56777457Y-113102133D01*
X56432359Y-112924160D01*
X56150483Y-112677474D01*
X55941445Y-112375345D01*
X55814859Y-112031041D01*
X55779313Y-111724600D01*
X55803461Y-111410499D01*
X55889957Y-111129218D01*
X56032626Y-110866300D01*
X56122138Y-110729885D01*
X56179846Y-110666955D01*
X56227219Y-110664482D01*
X56285721Y-110709435D01*
G37*
X56285721Y-110709435D02*
X56287866Y-110711375D01*
X56354817Y-110786657D01*
X56345708Y-110853819D01*
X56309374Y-110907520D01*
X56127523Y-111227944D01*
X56042344Y-111557789D01*
X56053128Y-111885435D01*
X56159165Y-112199266D01*
X56359746Y-112487661D01*
X56408987Y-112539121D01*
X56696721Y-112765232D01*
X57000936Y-112893030D01*
X57312476Y-112922517D01*
X57622184Y-112853691D01*
X57920903Y-112686554D01*
X58091012Y-112539121D01*
X58309653Y-112256935D01*
X58433887Y-111947085D01*
X58463004Y-111621188D01*
X58396294Y-111290865D01*
X58233048Y-110967732D01*
X58190625Y-110907520D01*
X58141303Y-110822038D01*
X58164827Y-110757739D01*
X58212133Y-110711375D01*
X58271211Y-110665269D01*
X58318578Y-110666078D01*
X58375623Y-110726835D01*
X58463740Y-110860574D01*
X58467989Y-110867273D01*
X58628882Y-111177772D01*
X58706368Y-111485697D01*
X58710214Y-111827694D01*
X58631906Y-112196720D01*
X58464004Y-112528877D01*
X58215857Y-112810382D01*
X57896814Y-113027448D01*
X57896350Y-113027686D01*
X57671101Y-113106666D01*
X57394920Y-113151299D01*
X57109849Y-113158785D01*
X56857932Y-113126330D01*
X56777457Y-113102133D01*
X56432359Y-112924160D01*
X56150483Y-112677474D01*
X55941445Y-112375345D01*
X55814859Y-112031041D01*
X55779313Y-111724600D01*
X55803461Y-111410499D01*
X55889957Y-111129218D01*
X56032626Y-110866300D01*
X56122138Y-110729885D01*
X56179846Y-110666955D01*
X56227219Y-110664482D01*
X56285721Y-110709435D01*
D10*
%TO.C,J1*%
X53910000Y-113740000D02*
X53520000Y-113740000D01*
X53910000Y-113740000D02*
X53910000Y-114190000D01*
X54600000Y-119275000D02*
X54600000Y-118625000D01*
X52870000Y-119310000D02*
X54600000Y-119310000D01*
X48910000Y-111690000D02*
X49120000Y-111690000D01*
X48910000Y-119310000D02*
X49120000Y-119310000D01*
X52870000Y-111690000D02*
X54600000Y-111690000D01*
X54600000Y-111800000D02*
X54600000Y-112460000D01*
%TO.C,SW2*%
X128850000Y-118060000D02*
X125150000Y-118060000D01*
X128850000Y-111940000D02*
X128850000Y-118060000D01*
X125150000Y-111940000D02*
X128850000Y-111940000D01*
X125150000Y-118060000D02*
X125150000Y-111940000D01*
%TO.C,J2*%
X63230000Y-96070000D02*
X63230000Y-109270000D01*
X63230000Y-109270000D02*
X54210000Y-109270000D01*
D13*
X45350000Y-109270000D02*
X45230000Y-109270000D01*
D10*
X45230000Y-109270000D02*
X52010000Y-109270000D01*
D13*
X45240000Y-109270000D02*
X45230000Y-109270000D01*
D10*
X45230000Y-109270000D02*
X45230000Y-96070000D01*
X45230000Y-96070000D02*
X52010000Y-96070000D01*
D13*
X54280000Y-96070000D02*
X54210000Y-96070000D01*
D10*
X54210000Y-96070000D02*
X63230000Y-96070000D01*
X61230000Y-95600000D02*
X62760000Y-95600000D01*
X129230000Y-96070000D02*
X129230000Y-109270000D01*
X129230000Y-109270000D02*
X120210000Y-109270000D01*
D13*
X111350000Y-109270000D02*
X111230000Y-109270000D01*
D10*
X111230000Y-109270000D02*
X118010000Y-109270000D01*
D13*
X111240000Y-109270000D02*
X111230000Y-109270000D01*
D10*
X111230000Y-109270000D02*
X111230000Y-96070000D01*
X111230000Y-96070000D02*
X118010000Y-96070000D01*
D13*
X120280000Y-96070000D02*
X120210000Y-96070000D01*
D10*
X120210000Y-96070000D02*
X129230000Y-96070000D01*
X127230000Y-95600000D02*
X128760000Y-95600000D01*
%TO.C,SW2*%
X92150000Y-118060000D02*
X92150000Y-111940000D01*
X92150000Y-111940000D02*
X95850000Y-111940000D01*
X95850000Y-111940000D02*
X95850000Y-118060000D01*
X95850000Y-118060000D02*
X92150000Y-118060000D01*
X62850000Y-118060000D02*
X59150000Y-118060000D01*
X62850000Y-111940000D02*
X62850000Y-118060000D01*
X59150000Y-111940000D02*
X62850000Y-111940000D01*
X59150000Y-118060000D02*
X59150000Y-111940000D01*
%TO.C,U2*%
X97955000Y-102725000D02*
X97345000Y-102725000D01*
X97955000Y-102725000D02*
X97955000Y-95105000D01*
X97955000Y-119345000D02*
X97955000Y-118725000D01*
X100075000Y-119345000D02*
X97955000Y-119345000D01*
X114195000Y-119345000D02*
X112075000Y-119345000D01*
X114195000Y-118725000D02*
X114195000Y-119345000D01*
X114195000Y-95105000D02*
X114195000Y-102725000D01*
X97955000Y-95105000D02*
X114195000Y-95105000D01*
X130955000Y-95105000D02*
X147195000Y-95105000D01*
X147195000Y-95105000D02*
X147195000Y-102725000D01*
X147195000Y-118725000D02*
X147195000Y-119345000D01*
X147195000Y-119345000D02*
X145075000Y-119345000D01*
X133075000Y-119345000D02*
X130955000Y-119345000D01*
X130955000Y-119345000D02*
X130955000Y-118725000D01*
X130955000Y-102725000D02*
X130955000Y-95105000D01*
X130955000Y-102725000D02*
X130345000Y-102725000D01*
D12*
%TO.C,G1*%
G36*
X123529165Y-110581368D02*
G01*
X123672541Y-110728132D01*
X123756383Y-110835007D01*
X123796412Y-110930367D01*
X123808347Y-111042588D01*
X123808800Y-111086129D01*
X123808800Y-111314729D01*
X123529910Y-111039304D01*
X123251021Y-110763879D01*
X122893125Y-111110765D01*
X123174914Y-111395526D01*
X123456704Y-111680287D01*
X123427800Y-112823827D01*
X123288100Y-112677833D01*
X123212902Y-112588234D01*
X123170737Y-112495446D01*
X123152329Y-112366256D01*
X123148400Y-112177552D01*
X123148400Y-111823264D01*
X122818200Y-111496000D01*
X122672691Y-111346271D01*
X122559914Y-111219731D01*
X122496276Y-111135298D01*
X122488000Y-111115196D01*
X122522075Y-111059273D01*
X122614170Y-110950142D01*
X122749088Y-110805036D01*
X122868765Y-110683432D01*
X123249531Y-110305209D01*
X123529165Y-110581368D01*
G37*
X123529165Y-110581368D02*
X123672541Y-110728132D01*
X123756383Y-110835007D01*
X123796412Y-110930367D01*
X123808347Y-111042588D01*
X123808800Y-111086129D01*
X123808800Y-111314729D01*
X123529910Y-111039304D01*
X123251021Y-110763879D01*
X122893125Y-111110765D01*
X123174914Y-111395526D01*
X123456704Y-111680287D01*
X123427800Y-112823827D01*
X123288100Y-112677833D01*
X123212902Y-112588234D01*
X123170737Y-112495446D01*
X123152329Y-112366256D01*
X123148400Y-112177552D01*
X123148400Y-111823264D01*
X122818200Y-111496000D01*
X122672691Y-111346271D01*
X122559914Y-111219731D01*
X122496276Y-111135298D01*
X122488000Y-111115196D01*
X122522075Y-111059273D01*
X122614170Y-110950142D01*
X122749088Y-110805036D01*
X122868765Y-110683432D01*
X123249531Y-110305209D01*
X123529165Y-110581368D01*
G36*
X122285721Y-110709435D02*
G01*
X122287866Y-110711375D01*
X122354817Y-110786657D01*
X122345708Y-110853819D01*
X122309374Y-110907520D01*
X122127523Y-111227944D01*
X122042344Y-111557789D01*
X122053128Y-111885435D01*
X122159165Y-112199266D01*
X122359746Y-112487661D01*
X122408987Y-112539121D01*
X122696721Y-112765232D01*
X123000936Y-112893030D01*
X123312476Y-112922517D01*
X123622184Y-112853691D01*
X123920903Y-112686554D01*
X124091012Y-112539121D01*
X124309653Y-112256935D01*
X124433887Y-111947085D01*
X124463004Y-111621188D01*
X124396294Y-111290865D01*
X124233048Y-110967732D01*
X124190625Y-110907520D01*
X124141303Y-110822038D01*
X124164827Y-110757739D01*
X124212133Y-110711375D01*
X124271211Y-110665269D01*
X124318578Y-110666078D01*
X124375623Y-110726835D01*
X124463740Y-110860574D01*
X124467989Y-110867273D01*
X124628882Y-111177772D01*
X124706368Y-111485697D01*
X124710214Y-111827694D01*
X124631906Y-112196720D01*
X124464004Y-112528877D01*
X124215857Y-112810382D01*
X123896814Y-113027448D01*
X123896350Y-113027686D01*
X123671101Y-113106666D01*
X123394920Y-113151299D01*
X123109849Y-113158785D01*
X122857932Y-113126330D01*
X122777457Y-113102133D01*
X122432359Y-112924160D01*
X122150483Y-112677474D01*
X121941445Y-112375345D01*
X121814859Y-112031041D01*
X121779313Y-111724600D01*
X121803461Y-111410499D01*
X121889957Y-111129218D01*
X122032626Y-110866300D01*
X122122138Y-110729885D01*
X122179846Y-110666955D01*
X122227219Y-110664482D01*
X122285721Y-110709435D01*
G37*
X122285721Y-110709435D02*
X122287866Y-110711375D01*
X122354817Y-110786657D01*
X122345708Y-110853819D01*
X122309374Y-110907520D01*
X122127523Y-111227944D01*
X122042344Y-111557789D01*
X122053128Y-111885435D01*
X122159165Y-112199266D01*
X122359746Y-112487661D01*
X122408987Y-112539121D01*
X122696721Y-112765232D01*
X123000936Y-112893030D01*
X123312476Y-112922517D01*
X123622184Y-112853691D01*
X123920903Y-112686554D01*
X124091012Y-112539121D01*
X124309653Y-112256935D01*
X124433887Y-111947085D01*
X124463004Y-111621188D01*
X124396294Y-111290865D01*
X124233048Y-110967732D01*
X124190625Y-110907520D01*
X124141303Y-110822038D01*
X124164827Y-110757739D01*
X124212133Y-110711375D01*
X124271211Y-110665269D01*
X124318578Y-110666078D01*
X124375623Y-110726835D01*
X124463740Y-110860574D01*
X124467989Y-110867273D01*
X124628882Y-111177772D01*
X124706368Y-111485697D01*
X124710214Y-111827694D01*
X124631906Y-112196720D01*
X124464004Y-112528877D01*
X124215857Y-112810382D01*
X123896814Y-113027448D01*
X123896350Y-113027686D01*
X123671101Y-113106666D01*
X123394920Y-113151299D01*
X123109849Y-113158785D01*
X122857932Y-113126330D01*
X122777457Y-113102133D01*
X122432359Y-112924160D01*
X122150483Y-112677474D01*
X121941445Y-112375345D01*
X121814859Y-112031041D01*
X121779313Y-111724600D01*
X121803461Y-111410499D01*
X121889957Y-111129218D01*
X122032626Y-110866300D01*
X122122138Y-110729885D01*
X122179846Y-110666955D01*
X122227219Y-110664482D01*
X122285721Y-110709435D01*
D10*
%TO.C,J2*%
X94230000Y-95600000D02*
X95760000Y-95600000D01*
X87210000Y-96070000D02*
X96230000Y-96070000D01*
D13*
X87280000Y-96070000D02*
X87210000Y-96070000D01*
D10*
X78230000Y-96070000D02*
X85010000Y-96070000D01*
X78230000Y-109270000D02*
X78230000Y-96070000D01*
D13*
X78240000Y-109270000D02*
X78230000Y-109270000D01*
D10*
X78230000Y-109270000D02*
X85010000Y-109270000D01*
D13*
X78350000Y-109270000D02*
X78230000Y-109270000D01*
D10*
X96230000Y-109270000D02*
X87210000Y-109270000D01*
X96230000Y-96070000D02*
X96230000Y-109270000D01*
D12*
%TO.C,G1*%
G36*
X89285721Y-110709435D02*
G01*
X89287866Y-110711375D01*
X89354817Y-110786657D01*
X89345708Y-110853819D01*
X89309374Y-110907520D01*
X89127523Y-111227944D01*
X89042344Y-111557789D01*
X89053128Y-111885435D01*
X89159165Y-112199266D01*
X89359746Y-112487661D01*
X89408987Y-112539121D01*
X89696721Y-112765232D01*
X90000936Y-112893030D01*
X90312476Y-112922517D01*
X90622184Y-112853691D01*
X90920903Y-112686554D01*
X91091012Y-112539121D01*
X91309653Y-112256935D01*
X91433887Y-111947085D01*
X91463004Y-111621188D01*
X91396294Y-111290865D01*
X91233048Y-110967732D01*
X91190625Y-110907520D01*
X91141303Y-110822038D01*
X91164827Y-110757739D01*
X91212133Y-110711375D01*
X91271211Y-110665269D01*
X91318578Y-110666078D01*
X91375623Y-110726835D01*
X91463740Y-110860574D01*
X91467989Y-110867273D01*
X91628882Y-111177772D01*
X91706368Y-111485697D01*
X91710214Y-111827694D01*
X91631906Y-112196720D01*
X91464004Y-112528877D01*
X91215857Y-112810382D01*
X90896814Y-113027448D01*
X90896350Y-113027686D01*
X90671101Y-113106666D01*
X90394920Y-113151299D01*
X90109849Y-113158785D01*
X89857932Y-113126330D01*
X89777457Y-113102133D01*
X89432359Y-112924160D01*
X89150483Y-112677474D01*
X88941445Y-112375345D01*
X88814859Y-112031041D01*
X88779313Y-111724600D01*
X88803461Y-111410499D01*
X88889957Y-111129218D01*
X89032626Y-110866300D01*
X89122138Y-110729885D01*
X89179846Y-110666955D01*
X89227219Y-110664482D01*
X89285721Y-110709435D01*
G37*
X89285721Y-110709435D02*
X89287866Y-110711375D01*
X89354817Y-110786657D01*
X89345708Y-110853819D01*
X89309374Y-110907520D01*
X89127523Y-111227944D01*
X89042344Y-111557789D01*
X89053128Y-111885435D01*
X89159165Y-112199266D01*
X89359746Y-112487661D01*
X89408987Y-112539121D01*
X89696721Y-112765232D01*
X90000936Y-112893030D01*
X90312476Y-112922517D01*
X90622184Y-112853691D01*
X90920903Y-112686554D01*
X91091012Y-112539121D01*
X91309653Y-112256935D01*
X91433887Y-111947085D01*
X91463004Y-111621188D01*
X91396294Y-111290865D01*
X91233048Y-110967732D01*
X91190625Y-110907520D01*
X91141303Y-110822038D01*
X91164827Y-110757739D01*
X91212133Y-110711375D01*
X91271211Y-110665269D01*
X91318578Y-110666078D01*
X91375623Y-110726835D01*
X91463740Y-110860574D01*
X91467989Y-110867273D01*
X91628882Y-111177772D01*
X91706368Y-111485697D01*
X91710214Y-111827694D01*
X91631906Y-112196720D01*
X91464004Y-112528877D01*
X91215857Y-112810382D01*
X90896814Y-113027448D01*
X90896350Y-113027686D01*
X90671101Y-113106666D01*
X90394920Y-113151299D01*
X90109849Y-113158785D01*
X89857932Y-113126330D01*
X89777457Y-113102133D01*
X89432359Y-112924160D01*
X89150483Y-112677474D01*
X88941445Y-112375345D01*
X88814859Y-112031041D01*
X88779313Y-111724600D01*
X88803461Y-111410499D01*
X88889957Y-111129218D01*
X89032626Y-110866300D01*
X89122138Y-110729885D01*
X89179846Y-110666955D01*
X89227219Y-110664482D01*
X89285721Y-110709435D01*
G36*
X90529165Y-110581368D02*
G01*
X90672541Y-110728132D01*
X90756383Y-110835007D01*
X90796412Y-110930367D01*
X90808347Y-111042588D01*
X90808800Y-111086129D01*
X90808800Y-111314729D01*
X90529910Y-111039304D01*
X90251021Y-110763879D01*
X89893125Y-111110765D01*
X90174914Y-111395526D01*
X90456704Y-111680287D01*
X90427800Y-112823827D01*
X90288100Y-112677833D01*
X90212902Y-112588234D01*
X90170737Y-112495446D01*
X90152329Y-112366256D01*
X90148400Y-112177552D01*
X90148400Y-111823264D01*
X89818200Y-111496000D01*
X89672691Y-111346271D01*
X89559914Y-111219731D01*
X89496276Y-111135298D01*
X89488000Y-111115196D01*
X89522075Y-111059273D01*
X89614170Y-110950142D01*
X89749088Y-110805036D01*
X89868765Y-110683432D01*
X90249531Y-110305209D01*
X90529165Y-110581368D01*
G37*
X90529165Y-110581368D02*
X90672541Y-110728132D01*
X90756383Y-110835007D01*
X90796412Y-110930367D01*
X90808347Y-111042588D01*
X90808800Y-111086129D01*
X90808800Y-111314729D01*
X90529910Y-111039304D01*
X90251021Y-110763879D01*
X89893125Y-111110765D01*
X90174914Y-111395526D01*
X90456704Y-111680287D01*
X90427800Y-112823827D01*
X90288100Y-112677833D01*
X90212902Y-112588234D01*
X90170737Y-112495446D01*
X90152329Y-112366256D01*
X90148400Y-112177552D01*
X90148400Y-111823264D01*
X89818200Y-111496000D01*
X89672691Y-111346271D01*
X89559914Y-111219731D01*
X89496276Y-111135298D01*
X89488000Y-111115196D01*
X89522075Y-111059273D01*
X89614170Y-110950142D01*
X89749088Y-110805036D01*
X89868765Y-110683432D01*
X90249531Y-110305209D01*
X90529165Y-110581368D01*
D10*
%TO.C,J1*%
X119910000Y-113740000D02*
X119520000Y-113740000D01*
X119910000Y-113740000D02*
X119910000Y-114190000D01*
X120600000Y-119275000D02*
X120600000Y-118625000D01*
X118870000Y-119310000D02*
X120600000Y-119310000D01*
X114910000Y-111690000D02*
X115120000Y-111690000D01*
X114910000Y-119310000D02*
X115120000Y-119310000D01*
X118870000Y-111690000D02*
X120600000Y-111690000D01*
X120600000Y-111800000D02*
X120600000Y-112460000D01*
X87600000Y-111800000D02*
X87600000Y-112460000D01*
X85870000Y-111690000D02*
X87600000Y-111690000D01*
X81910000Y-119310000D02*
X82120000Y-119310000D01*
X81910000Y-111690000D02*
X82120000Y-111690000D01*
X85870000Y-119310000D02*
X87600000Y-119310000D01*
X87600000Y-119275000D02*
X87600000Y-118625000D01*
X86910000Y-113740000D02*
X86910000Y-114190000D01*
X86910000Y-113740000D02*
X86520000Y-113740000D01*
D12*
%TO.C,G1*%
G36*
X90529165Y-85581368D02*
G01*
X90672541Y-85728132D01*
X90756383Y-85835007D01*
X90796412Y-85930367D01*
X90808347Y-86042588D01*
X90808800Y-86086129D01*
X90808800Y-86314729D01*
X90529910Y-86039304D01*
X90251021Y-85763879D01*
X89893125Y-86110765D01*
X90174914Y-86395526D01*
X90456704Y-86680287D01*
X90427800Y-87823827D01*
X90288100Y-87677833D01*
X90212902Y-87588234D01*
X90170737Y-87495446D01*
X90152329Y-87366256D01*
X90148400Y-87177552D01*
X90148400Y-86823264D01*
X89818200Y-86496000D01*
X89672691Y-86346271D01*
X89559914Y-86219731D01*
X89496276Y-86135298D01*
X89488000Y-86115196D01*
X89522075Y-86059273D01*
X89614170Y-85950142D01*
X89749088Y-85805036D01*
X89868765Y-85683432D01*
X90249531Y-85305209D01*
X90529165Y-85581368D01*
G37*
X90529165Y-85581368D02*
X90672541Y-85728132D01*
X90756383Y-85835007D01*
X90796412Y-85930367D01*
X90808347Y-86042588D01*
X90808800Y-86086129D01*
X90808800Y-86314729D01*
X90529910Y-86039304D01*
X90251021Y-85763879D01*
X89893125Y-86110765D01*
X90174914Y-86395526D01*
X90456704Y-86680287D01*
X90427800Y-87823827D01*
X90288100Y-87677833D01*
X90212902Y-87588234D01*
X90170737Y-87495446D01*
X90152329Y-87366256D01*
X90148400Y-87177552D01*
X90148400Y-86823264D01*
X89818200Y-86496000D01*
X89672691Y-86346271D01*
X89559914Y-86219731D01*
X89496276Y-86135298D01*
X89488000Y-86115196D01*
X89522075Y-86059273D01*
X89614170Y-85950142D01*
X89749088Y-85805036D01*
X89868765Y-85683432D01*
X90249531Y-85305209D01*
X90529165Y-85581368D01*
G36*
X89285721Y-85709435D02*
G01*
X89287866Y-85711375D01*
X89354817Y-85786657D01*
X89345708Y-85853819D01*
X89309374Y-85907520D01*
X89127523Y-86227944D01*
X89042344Y-86557789D01*
X89053128Y-86885435D01*
X89159165Y-87199266D01*
X89359746Y-87487661D01*
X89408987Y-87539121D01*
X89696721Y-87765232D01*
X90000936Y-87893030D01*
X90312476Y-87922517D01*
X90622184Y-87853691D01*
X90920903Y-87686554D01*
X91091012Y-87539121D01*
X91309653Y-87256935D01*
X91433887Y-86947085D01*
X91463004Y-86621188D01*
X91396294Y-86290865D01*
X91233048Y-85967732D01*
X91190625Y-85907520D01*
X91141303Y-85822038D01*
X91164827Y-85757739D01*
X91212133Y-85711375D01*
X91271211Y-85665269D01*
X91318578Y-85666078D01*
X91375623Y-85726835D01*
X91463740Y-85860574D01*
X91467989Y-85867273D01*
X91628882Y-86177772D01*
X91706368Y-86485697D01*
X91710214Y-86827694D01*
X91631906Y-87196720D01*
X91464004Y-87528877D01*
X91215857Y-87810382D01*
X90896814Y-88027448D01*
X90896350Y-88027686D01*
X90671101Y-88106666D01*
X90394920Y-88151299D01*
X90109849Y-88158785D01*
X89857932Y-88126330D01*
X89777457Y-88102133D01*
X89432359Y-87924160D01*
X89150483Y-87677474D01*
X88941445Y-87375345D01*
X88814859Y-87031041D01*
X88779313Y-86724600D01*
X88803461Y-86410499D01*
X88889957Y-86129218D01*
X89032626Y-85866300D01*
X89122138Y-85729885D01*
X89179846Y-85666955D01*
X89227219Y-85664482D01*
X89285721Y-85709435D01*
G37*
X89285721Y-85709435D02*
X89287866Y-85711375D01*
X89354817Y-85786657D01*
X89345708Y-85853819D01*
X89309374Y-85907520D01*
X89127523Y-86227944D01*
X89042344Y-86557789D01*
X89053128Y-86885435D01*
X89159165Y-87199266D01*
X89359746Y-87487661D01*
X89408987Y-87539121D01*
X89696721Y-87765232D01*
X90000936Y-87893030D01*
X90312476Y-87922517D01*
X90622184Y-87853691D01*
X90920903Y-87686554D01*
X91091012Y-87539121D01*
X91309653Y-87256935D01*
X91433887Y-86947085D01*
X91463004Y-86621188D01*
X91396294Y-86290865D01*
X91233048Y-85967732D01*
X91190625Y-85907520D01*
X91141303Y-85822038D01*
X91164827Y-85757739D01*
X91212133Y-85711375D01*
X91271211Y-85665269D01*
X91318578Y-85666078D01*
X91375623Y-85726835D01*
X91463740Y-85860574D01*
X91467989Y-85867273D01*
X91628882Y-86177772D01*
X91706368Y-86485697D01*
X91710214Y-86827694D01*
X91631906Y-87196720D01*
X91464004Y-87528877D01*
X91215857Y-87810382D01*
X90896814Y-88027448D01*
X90896350Y-88027686D01*
X90671101Y-88106666D01*
X90394920Y-88151299D01*
X90109849Y-88158785D01*
X89857932Y-88126330D01*
X89777457Y-88102133D01*
X89432359Y-87924160D01*
X89150483Y-87677474D01*
X88941445Y-87375345D01*
X88814859Y-87031041D01*
X88779313Y-86724600D01*
X88803461Y-86410499D01*
X88889957Y-86129218D01*
X89032626Y-85866300D01*
X89122138Y-85729885D01*
X89179846Y-85666955D01*
X89227219Y-85664482D01*
X89285721Y-85709435D01*
D10*
%TO.C,U2*%
X97955000Y-70105000D02*
X114195000Y-70105000D01*
X114195000Y-70105000D02*
X114195000Y-77725000D01*
X114195000Y-93725000D02*
X114195000Y-94345000D01*
X114195000Y-94345000D02*
X112075000Y-94345000D01*
X100075000Y-94345000D02*
X97955000Y-94345000D01*
X97955000Y-94345000D02*
X97955000Y-93725000D01*
X97955000Y-77725000D02*
X97955000Y-70105000D01*
X97955000Y-77725000D02*
X97345000Y-77725000D01*
%TO.C,J2*%
X96230000Y-71070000D02*
X96230000Y-84270000D01*
X96230000Y-84270000D02*
X87210000Y-84270000D01*
D13*
X78350000Y-84270000D02*
X78230000Y-84270000D01*
D10*
X78230000Y-84270000D02*
X85010000Y-84270000D01*
D13*
X78240000Y-84270000D02*
X78230000Y-84270000D01*
D10*
X78230000Y-84270000D02*
X78230000Y-71070000D01*
X78230000Y-71070000D02*
X85010000Y-71070000D01*
D13*
X87280000Y-71070000D02*
X87210000Y-71070000D01*
D10*
X87210000Y-71070000D02*
X96230000Y-71070000D01*
X94230000Y-70600000D02*
X95760000Y-70600000D01*
%TO.C,J1*%
X86910000Y-88740000D02*
X86520000Y-88740000D01*
X86910000Y-88740000D02*
X86910000Y-89190000D01*
X87600000Y-94275000D02*
X87600000Y-93625000D01*
X85870000Y-94310000D02*
X87600000Y-94310000D01*
X81910000Y-86690000D02*
X82120000Y-86690000D01*
X81910000Y-94310000D02*
X82120000Y-94310000D01*
X85870000Y-86690000D02*
X87600000Y-86690000D01*
X87600000Y-86800000D02*
X87600000Y-87460000D01*
X120600000Y-86800000D02*
X120600000Y-87460000D01*
X118870000Y-86690000D02*
X120600000Y-86690000D01*
X114910000Y-94310000D02*
X115120000Y-94310000D01*
X114910000Y-86690000D02*
X115120000Y-86690000D01*
X118870000Y-94310000D02*
X120600000Y-94310000D01*
X120600000Y-94275000D02*
X120600000Y-93625000D01*
X119910000Y-88740000D02*
X119910000Y-89190000D01*
X119910000Y-88740000D02*
X119520000Y-88740000D01*
D12*
%TO.C,G1*%
G36*
X122285721Y-85709435D02*
G01*
X122287866Y-85711375D01*
X122354817Y-85786657D01*
X122345708Y-85853819D01*
X122309374Y-85907520D01*
X122127523Y-86227944D01*
X122042344Y-86557789D01*
X122053128Y-86885435D01*
X122159165Y-87199266D01*
X122359746Y-87487661D01*
X122408987Y-87539121D01*
X122696721Y-87765232D01*
X123000936Y-87893030D01*
X123312476Y-87922517D01*
X123622184Y-87853691D01*
X123920903Y-87686554D01*
X124091012Y-87539121D01*
X124309653Y-87256935D01*
X124433887Y-86947085D01*
X124463004Y-86621188D01*
X124396294Y-86290865D01*
X124233048Y-85967732D01*
X124190625Y-85907520D01*
X124141303Y-85822038D01*
X124164827Y-85757739D01*
X124212133Y-85711375D01*
X124271211Y-85665269D01*
X124318578Y-85666078D01*
X124375623Y-85726835D01*
X124463740Y-85860574D01*
X124467989Y-85867273D01*
X124628882Y-86177772D01*
X124706368Y-86485697D01*
X124710214Y-86827694D01*
X124631906Y-87196720D01*
X124464004Y-87528877D01*
X124215857Y-87810382D01*
X123896814Y-88027448D01*
X123896350Y-88027686D01*
X123671101Y-88106666D01*
X123394920Y-88151299D01*
X123109849Y-88158785D01*
X122857932Y-88126330D01*
X122777457Y-88102133D01*
X122432359Y-87924160D01*
X122150483Y-87677474D01*
X121941445Y-87375345D01*
X121814859Y-87031041D01*
X121779313Y-86724600D01*
X121803461Y-86410499D01*
X121889957Y-86129218D01*
X122032626Y-85866300D01*
X122122138Y-85729885D01*
X122179846Y-85666955D01*
X122227219Y-85664482D01*
X122285721Y-85709435D01*
G37*
X122285721Y-85709435D02*
X122287866Y-85711375D01*
X122354817Y-85786657D01*
X122345708Y-85853819D01*
X122309374Y-85907520D01*
X122127523Y-86227944D01*
X122042344Y-86557789D01*
X122053128Y-86885435D01*
X122159165Y-87199266D01*
X122359746Y-87487661D01*
X122408987Y-87539121D01*
X122696721Y-87765232D01*
X123000936Y-87893030D01*
X123312476Y-87922517D01*
X123622184Y-87853691D01*
X123920903Y-87686554D01*
X124091012Y-87539121D01*
X124309653Y-87256935D01*
X124433887Y-86947085D01*
X124463004Y-86621188D01*
X124396294Y-86290865D01*
X124233048Y-85967732D01*
X124190625Y-85907520D01*
X124141303Y-85822038D01*
X124164827Y-85757739D01*
X124212133Y-85711375D01*
X124271211Y-85665269D01*
X124318578Y-85666078D01*
X124375623Y-85726835D01*
X124463740Y-85860574D01*
X124467989Y-85867273D01*
X124628882Y-86177772D01*
X124706368Y-86485697D01*
X124710214Y-86827694D01*
X124631906Y-87196720D01*
X124464004Y-87528877D01*
X124215857Y-87810382D01*
X123896814Y-88027448D01*
X123896350Y-88027686D01*
X123671101Y-88106666D01*
X123394920Y-88151299D01*
X123109849Y-88158785D01*
X122857932Y-88126330D01*
X122777457Y-88102133D01*
X122432359Y-87924160D01*
X122150483Y-87677474D01*
X121941445Y-87375345D01*
X121814859Y-87031041D01*
X121779313Y-86724600D01*
X121803461Y-86410499D01*
X121889957Y-86129218D01*
X122032626Y-85866300D01*
X122122138Y-85729885D01*
X122179846Y-85666955D01*
X122227219Y-85664482D01*
X122285721Y-85709435D01*
G36*
X123529165Y-85581368D02*
G01*
X123672541Y-85728132D01*
X123756383Y-85835007D01*
X123796412Y-85930367D01*
X123808347Y-86042588D01*
X123808800Y-86086129D01*
X123808800Y-86314729D01*
X123529910Y-86039304D01*
X123251021Y-85763879D01*
X122893125Y-86110765D01*
X123174914Y-86395526D01*
X123456704Y-86680287D01*
X123427800Y-87823827D01*
X123288100Y-87677833D01*
X123212902Y-87588234D01*
X123170737Y-87495446D01*
X123152329Y-87366256D01*
X123148400Y-87177552D01*
X123148400Y-86823264D01*
X122818200Y-86496000D01*
X122672691Y-86346271D01*
X122559914Y-86219731D01*
X122496276Y-86135298D01*
X122488000Y-86115196D01*
X122522075Y-86059273D01*
X122614170Y-85950142D01*
X122749088Y-85805036D01*
X122868765Y-85683432D01*
X123249531Y-85305209D01*
X123529165Y-85581368D01*
G37*
X123529165Y-85581368D02*
X123672541Y-85728132D01*
X123756383Y-85835007D01*
X123796412Y-85930367D01*
X123808347Y-86042588D01*
X123808800Y-86086129D01*
X123808800Y-86314729D01*
X123529910Y-86039304D01*
X123251021Y-85763879D01*
X122893125Y-86110765D01*
X123174914Y-86395526D01*
X123456704Y-86680287D01*
X123427800Y-87823827D01*
X123288100Y-87677833D01*
X123212902Y-87588234D01*
X123170737Y-87495446D01*
X123152329Y-87366256D01*
X123148400Y-87177552D01*
X123148400Y-86823264D01*
X122818200Y-86496000D01*
X122672691Y-86346271D01*
X122559914Y-86219731D01*
X122496276Y-86135298D01*
X122488000Y-86115196D01*
X122522075Y-86059273D01*
X122614170Y-85950142D01*
X122749088Y-85805036D01*
X122868765Y-85683432D01*
X123249531Y-85305209D01*
X123529165Y-85581368D01*
D10*
%TO.C,U2*%
X130955000Y-77725000D02*
X130345000Y-77725000D01*
X130955000Y-77725000D02*
X130955000Y-70105000D01*
X130955000Y-94345000D02*
X130955000Y-93725000D01*
X133075000Y-94345000D02*
X130955000Y-94345000D01*
X147195000Y-94345000D02*
X145075000Y-94345000D01*
X147195000Y-93725000D02*
X147195000Y-94345000D01*
X147195000Y-70105000D02*
X147195000Y-77725000D01*
X130955000Y-70105000D02*
X147195000Y-70105000D01*
%TO.C,J2*%
X127230000Y-70600000D02*
X128760000Y-70600000D01*
X120210000Y-71070000D02*
X129230000Y-71070000D01*
D13*
X120280000Y-71070000D02*
X120210000Y-71070000D01*
D10*
X111230000Y-71070000D02*
X118010000Y-71070000D01*
X111230000Y-84270000D02*
X111230000Y-71070000D01*
D13*
X111240000Y-84270000D02*
X111230000Y-84270000D01*
D10*
X111230000Y-84270000D02*
X118010000Y-84270000D01*
D13*
X111350000Y-84270000D02*
X111230000Y-84270000D01*
D10*
X129230000Y-84270000D02*
X120210000Y-84270000D01*
X129230000Y-71070000D02*
X129230000Y-84270000D01*
%TO.C,SW2*%
X125150000Y-93060000D02*
X125150000Y-86940000D01*
X125150000Y-86940000D02*
X128850000Y-86940000D01*
X128850000Y-86940000D02*
X128850000Y-93060000D01*
X128850000Y-93060000D02*
X125150000Y-93060000D01*
D12*
%TO.C,G1*%
G36*
X56285721Y-85709435D02*
G01*
X56287866Y-85711375D01*
X56354817Y-85786657D01*
X56345708Y-85853819D01*
X56309374Y-85907520D01*
X56127523Y-86227944D01*
X56042344Y-86557789D01*
X56053128Y-86885435D01*
X56159165Y-87199266D01*
X56359746Y-87487661D01*
X56408987Y-87539121D01*
X56696721Y-87765232D01*
X57000936Y-87893030D01*
X57312476Y-87922517D01*
X57622184Y-87853691D01*
X57920903Y-87686554D01*
X58091012Y-87539121D01*
X58309653Y-87256935D01*
X58433887Y-86947085D01*
X58463004Y-86621188D01*
X58396294Y-86290865D01*
X58233048Y-85967732D01*
X58190625Y-85907520D01*
X58141303Y-85822038D01*
X58164827Y-85757739D01*
X58212133Y-85711375D01*
X58271211Y-85665269D01*
X58318578Y-85666078D01*
X58375623Y-85726835D01*
X58463740Y-85860574D01*
X58467989Y-85867273D01*
X58628882Y-86177772D01*
X58706368Y-86485697D01*
X58710214Y-86827694D01*
X58631906Y-87196720D01*
X58464004Y-87528877D01*
X58215857Y-87810382D01*
X57896814Y-88027448D01*
X57896350Y-88027686D01*
X57671101Y-88106666D01*
X57394920Y-88151299D01*
X57109849Y-88158785D01*
X56857932Y-88126330D01*
X56777457Y-88102133D01*
X56432359Y-87924160D01*
X56150483Y-87677474D01*
X55941445Y-87375345D01*
X55814859Y-87031041D01*
X55779313Y-86724600D01*
X55803461Y-86410499D01*
X55889957Y-86129218D01*
X56032626Y-85866300D01*
X56122138Y-85729885D01*
X56179846Y-85666955D01*
X56227219Y-85664482D01*
X56285721Y-85709435D01*
G37*
X56285721Y-85709435D02*
X56287866Y-85711375D01*
X56354817Y-85786657D01*
X56345708Y-85853819D01*
X56309374Y-85907520D01*
X56127523Y-86227944D01*
X56042344Y-86557789D01*
X56053128Y-86885435D01*
X56159165Y-87199266D01*
X56359746Y-87487661D01*
X56408987Y-87539121D01*
X56696721Y-87765232D01*
X57000936Y-87893030D01*
X57312476Y-87922517D01*
X57622184Y-87853691D01*
X57920903Y-87686554D01*
X58091012Y-87539121D01*
X58309653Y-87256935D01*
X58433887Y-86947085D01*
X58463004Y-86621188D01*
X58396294Y-86290865D01*
X58233048Y-85967732D01*
X58190625Y-85907520D01*
X58141303Y-85822038D01*
X58164827Y-85757739D01*
X58212133Y-85711375D01*
X58271211Y-85665269D01*
X58318578Y-85666078D01*
X58375623Y-85726835D01*
X58463740Y-85860574D01*
X58467989Y-85867273D01*
X58628882Y-86177772D01*
X58706368Y-86485697D01*
X58710214Y-86827694D01*
X58631906Y-87196720D01*
X58464004Y-87528877D01*
X58215857Y-87810382D01*
X57896814Y-88027448D01*
X57896350Y-88027686D01*
X57671101Y-88106666D01*
X57394920Y-88151299D01*
X57109849Y-88158785D01*
X56857932Y-88126330D01*
X56777457Y-88102133D01*
X56432359Y-87924160D01*
X56150483Y-87677474D01*
X55941445Y-87375345D01*
X55814859Y-87031041D01*
X55779313Y-86724600D01*
X55803461Y-86410499D01*
X55889957Y-86129218D01*
X56032626Y-85866300D01*
X56122138Y-85729885D01*
X56179846Y-85666955D01*
X56227219Y-85664482D01*
X56285721Y-85709435D01*
G36*
X57529165Y-85581368D02*
G01*
X57672541Y-85728132D01*
X57756383Y-85835007D01*
X57796412Y-85930367D01*
X57808347Y-86042588D01*
X57808800Y-86086129D01*
X57808800Y-86314729D01*
X57529910Y-86039304D01*
X57251021Y-85763879D01*
X56893125Y-86110765D01*
X57174914Y-86395526D01*
X57456704Y-86680287D01*
X57427800Y-87823827D01*
X57288100Y-87677833D01*
X57212902Y-87588234D01*
X57170737Y-87495446D01*
X57152329Y-87366256D01*
X57148400Y-87177552D01*
X57148400Y-86823264D01*
X56818200Y-86496000D01*
X56672691Y-86346271D01*
X56559914Y-86219731D01*
X56496276Y-86135298D01*
X56488000Y-86115196D01*
X56522075Y-86059273D01*
X56614170Y-85950142D01*
X56749088Y-85805036D01*
X56868765Y-85683432D01*
X57249531Y-85305209D01*
X57529165Y-85581368D01*
G37*
X57529165Y-85581368D02*
X57672541Y-85728132D01*
X57756383Y-85835007D01*
X57796412Y-85930367D01*
X57808347Y-86042588D01*
X57808800Y-86086129D01*
X57808800Y-86314729D01*
X57529910Y-86039304D01*
X57251021Y-85763879D01*
X56893125Y-86110765D01*
X57174914Y-86395526D01*
X57456704Y-86680287D01*
X57427800Y-87823827D01*
X57288100Y-87677833D01*
X57212902Y-87588234D01*
X57170737Y-87495446D01*
X57152329Y-87366256D01*
X57148400Y-87177552D01*
X57148400Y-86823264D01*
X56818200Y-86496000D01*
X56672691Y-86346271D01*
X56559914Y-86219731D01*
X56496276Y-86135298D01*
X56488000Y-86115196D01*
X56522075Y-86059273D01*
X56614170Y-85950142D01*
X56749088Y-85805036D01*
X56868765Y-85683432D01*
X57249531Y-85305209D01*
X57529165Y-85581368D01*
D10*
%TO.C,J1*%
X54600000Y-86800000D02*
X54600000Y-87460000D01*
X52870000Y-86690000D02*
X54600000Y-86690000D01*
X48910000Y-94310000D02*
X49120000Y-94310000D01*
X48910000Y-86690000D02*
X49120000Y-86690000D01*
X52870000Y-94310000D02*
X54600000Y-94310000D01*
X54600000Y-94275000D02*
X54600000Y-93625000D01*
X53910000Y-88740000D02*
X53910000Y-89190000D01*
X53910000Y-88740000D02*
X53520000Y-88740000D01*
%TO.C,J2*%
X61230000Y-70600000D02*
X62760000Y-70600000D01*
X54210000Y-71070000D02*
X63230000Y-71070000D01*
D13*
X54280000Y-71070000D02*
X54210000Y-71070000D01*
D10*
X45230000Y-71070000D02*
X52010000Y-71070000D01*
X45230000Y-84270000D02*
X45230000Y-71070000D01*
D13*
X45240000Y-84270000D02*
X45230000Y-84270000D01*
D10*
X45230000Y-84270000D02*
X52010000Y-84270000D01*
D13*
X45350000Y-84270000D02*
X45230000Y-84270000D01*
D10*
X63230000Y-84270000D02*
X54210000Y-84270000D01*
X63230000Y-71070000D02*
X63230000Y-84270000D01*
%TO.C,U2*%
X64955000Y-77725000D02*
X64345000Y-77725000D01*
X64955000Y-77725000D02*
X64955000Y-70105000D01*
X64955000Y-94345000D02*
X64955000Y-93725000D01*
X67075000Y-94345000D02*
X64955000Y-94345000D01*
X81195000Y-94345000D02*
X79075000Y-94345000D01*
X81195000Y-93725000D02*
X81195000Y-94345000D01*
X81195000Y-70105000D02*
X81195000Y-77725000D01*
X64955000Y-70105000D02*
X81195000Y-70105000D01*
%TO.C,SW2*%
X59150000Y-93060000D02*
X59150000Y-86940000D01*
X59150000Y-86940000D02*
X62850000Y-86940000D01*
X62850000Y-86940000D02*
X62850000Y-93060000D01*
X62850000Y-93060000D02*
X59150000Y-93060000D01*
X95850000Y-93060000D02*
X92150000Y-93060000D01*
X95850000Y-86940000D02*
X95850000Y-93060000D01*
X92150000Y-86940000D02*
X95850000Y-86940000D01*
X92150000Y-93060000D02*
X92150000Y-86940000D01*
D12*
%TO.C,G1*%
G36*
X123529165Y-60581368D02*
G01*
X123672541Y-60728132D01*
X123756383Y-60835007D01*
X123796412Y-60930367D01*
X123808347Y-61042588D01*
X123808800Y-61086129D01*
X123808800Y-61314729D01*
X123529910Y-61039304D01*
X123251021Y-60763879D01*
X122893125Y-61110765D01*
X123174914Y-61395526D01*
X123456704Y-61680287D01*
X123427800Y-62823827D01*
X123288100Y-62677833D01*
X123212902Y-62588234D01*
X123170737Y-62495446D01*
X123152329Y-62366256D01*
X123148400Y-62177552D01*
X123148400Y-61823264D01*
X122818200Y-61496000D01*
X122672691Y-61346271D01*
X122559914Y-61219731D01*
X122496276Y-61135298D01*
X122488000Y-61115196D01*
X122522075Y-61059273D01*
X122614170Y-60950142D01*
X122749088Y-60805036D01*
X122868765Y-60683432D01*
X123249531Y-60305209D01*
X123529165Y-60581368D01*
G37*
X123529165Y-60581368D02*
X123672541Y-60728132D01*
X123756383Y-60835007D01*
X123796412Y-60930367D01*
X123808347Y-61042588D01*
X123808800Y-61086129D01*
X123808800Y-61314729D01*
X123529910Y-61039304D01*
X123251021Y-60763879D01*
X122893125Y-61110765D01*
X123174914Y-61395526D01*
X123456704Y-61680287D01*
X123427800Y-62823827D01*
X123288100Y-62677833D01*
X123212902Y-62588234D01*
X123170737Y-62495446D01*
X123152329Y-62366256D01*
X123148400Y-62177552D01*
X123148400Y-61823264D01*
X122818200Y-61496000D01*
X122672691Y-61346271D01*
X122559914Y-61219731D01*
X122496276Y-61135298D01*
X122488000Y-61115196D01*
X122522075Y-61059273D01*
X122614170Y-60950142D01*
X122749088Y-60805036D01*
X122868765Y-60683432D01*
X123249531Y-60305209D01*
X123529165Y-60581368D01*
G36*
X122285721Y-60709435D02*
G01*
X122287866Y-60711375D01*
X122354817Y-60786657D01*
X122345708Y-60853819D01*
X122309374Y-60907520D01*
X122127523Y-61227944D01*
X122042344Y-61557789D01*
X122053128Y-61885435D01*
X122159165Y-62199266D01*
X122359746Y-62487661D01*
X122408987Y-62539121D01*
X122696721Y-62765232D01*
X123000936Y-62893030D01*
X123312476Y-62922517D01*
X123622184Y-62853691D01*
X123920903Y-62686554D01*
X124091012Y-62539121D01*
X124309653Y-62256935D01*
X124433887Y-61947085D01*
X124463004Y-61621188D01*
X124396294Y-61290865D01*
X124233048Y-60967732D01*
X124190625Y-60907520D01*
X124141303Y-60822038D01*
X124164827Y-60757739D01*
X124212133Y-60711375D01*
X124271211Y-60665269D01*
X124318578Y-60666078D01*
X124375623Y-60726835D01*
X124463740Y-60860574D01*
X124467989Y-60867273D01*
X124628882Y-61177772D01*
X124706368Y-61485697D01*
X124710214Y-61827694D01*
X124631906Y-62196720D01*
X124464004Y-62528877D01*
X124215857Y-62810382D01*
X123896814Y-63027448D01*
X123896350Y-63027686D01*
X123671101Y-63106666D01*
X123394920Y-63151299D01*
X123109849Y-63158785D01*
X122857932Y-63126330D01*
X122777457Y-63102133D01*
X122432359Y-62924160D01*
X122150483Y-62677474D01*
X121941445Y-62375345D01*
X121814859Y-62031041D01*
X121779313Y-61724600D01*
X121803461Y-61410499D01*
X121889957Y-61129218D01*
X122032626Y-60866300D01*
X122122138Y-60729885D01*
X122179846Y-60666955D01*
X122227219Y-60664482D01*
X122285721Y-60709435D01*
G37*
X122285721Y-60709435D02*
X122287866Y-60711375D01*
X122354817Y-60786657D01*
X122345708Y-60853819D01*
X122309374Y-60907520D01*
X122127523Y-61227944D01*
X122042344Y-61557789D01*
X122053128Y-61885435D01*
X122159165Y-62199266D01*
X122359746Y-62487661D01*
X122408987Y-62539121D01*
X122696721Y-62765232D01*
X123000936Y-62893030D01*
X123312476Y-62922517D01*
X123622184Y-62853691D01*
X123920903Y-62686554D01*
X124091012Y-62539121D01*
X124309653Y-62256935D01*
X124433887Y-61947085D01*
X124463004Y-61621188D01*
X124396294Y-61290865D01*
X124233048Y-60967732D01*
X124190625Y-60907520D01*
X124141303Y-60822038D01*
X124164827Y-60757739D01*
X124212133Y-60711375D01*
X124271211Y-60665269D01*
X124318578Y-60666078D01*
X124375623Y-60726835D01*
X124463740Y-60860574D01*
X124467989Y-60867273D01*
X124628882Y-61177772D01*
X124706368Y-61485697D01*
X124710214Y-61827694D01*
X124631906Y-62196720D01*
X124464004Y-62528877D01*
X124215857Y-62810382D01*
X123896814Y-63027448D01*
X123896350Y-63027686D01*
X123671101Y-63106666D01*
X123394920Y-63151299D01*
X123109849Y-63158785D01*
X122857932Y-63126330D01*
X122777457Y-63102133D01*
X122432359Y-62924160D01*
X122150483Y-62677474D01*
X121941445Y-62375345D01*
X121814859Y-62031041D01*
X121779313Y-61724600D01*
X121803461Y-61410499D01*
X121889957Y-61129218D01*
X122032626Y-60866300D01*
X122122138Y-60729885D01*
X122179846Y-60666955D01*
X122227219Y-60664482D01*
X122285721Y-60709435D01*
D10*
%TO.C,U2*%
X130955000Y-45105000D02*
X147195000Y-45105000D01*
X147195000Y-45105000D02*
X147195000Y-52725000D01*
X147195000Y-68725000D02*
X147195000Y-69345000D01*
X147195000Y-69345000D02*
X145075000Y-69345000D01*
X133075000Y-69345000D02*
X130955000Y-69345000D01*
X130955000Y-69345000D02*
X130955000Y-68725000D01*
X130955000Y-52725000D02*
X130955000Y-45105000D01*
X130955000Y-52725000D02*
X130345000Y-52725000D01*
%TO.C,J2*%
X129230000Y-46070000D02*
X129230000Y-59270000D01*
X129230000Y-59270000D02*
X120210000Y-59270000D01*
D13*
X111350000Y-59270000D02*
X111230000Y-59270000D01*
D10*
X111230000Y-59270000D02*
X118010000Y-59270000D01*
D13*
X111240000Y-59270000D02*
X111230000Y-59270000D01*
D10*
X111230000Y-59270000D02*
X111230000Y-46070000D01*
X111230000Y-46070000D02*
X118010000Y-46070000D01*
D13*
X120280000Y-46070000D02*
X120210000Y-46070000D01*
D10*
X120210000Y-46070000D02*
X129230000Y-46070000D01*
X127230000Y-45600000D02*
X128760000Y-45600000D01*
%TO.C,J1*%
X119910000Y-63740000D02*
X119520000Y-63740000D01*
X119910000Y-63740000D02*
X119910000Y-64190000D01*
X120600000Y-69275000D02*
X120600000Y-68625000D01*
X118870000Y-69310000D02*
X120600000Y-69310000D01*
X114910000Y-61690000D02*
X115120000Y-61690000D01*
X114910000Y-69310000D02*
X115120000Y-69310000D01*
X118870000Y-61690000D02*
X120600000Y-61690000D01*
X120600000Y-61800000D02*
X120600000Y-62460000D01*
%TO.C,SW2*%
X128850000Y-68060000D02*
X125150000Y-68060000D01*
X128850000Y-61940000D02*
X128850000Y-68060000D01*
X125150000Y-61940000D02*
X128850000Y-61940000D01*
X125150000Y-68060000D02*
X125150000Y-61940000D01*
D12*
%TO.C,G1*%
G36*
X89285721Y-60709435D02*
G01*
X89287866Y-60711375D01*
X89354817Y-60786657D01*
X89345708Y-60853819D01*
X89309374Y-60907520D01*
X89127523Y-61227944D01*
X89042344Y-61557789D01*
X89053128Y-61885435D01*
X89159165Y-62199266D01*
X89359746Y-62487661D01*
X89408987Y-62539121D01*
X89696721Y-62765232D01*
X90000936Y-62893030D01*
X90312476Y-62922517D01*
X90622184Y-62853691D01*
X90920903Y-62686554D01*
X91091012Y-62539121D01*
X91309653Y-62256935D01*
X91433887Y-61947085D01*
X91463004Y-61621188D01*
X91396294Y-61290865D01*
X91233048Y-60967732D01*
X91190625Y-60907520D01*
X91141303Y-60822038D01*
X91164827Y-60757739D01*
X91212133Y-60711375D01*
X91271211Y-60665269D01*
X91318578Y-60666078D01*
X91375623Y-60726835D01*
X91463740Y-60860574D01*
X91467989Y-60867273D01*
X91628882Y-61177772D01*
X91706368Y-61485697D01*
X91710214Y-61827694D01*
X91631906Y-62196720D01*
X91464004Y-62528877D01*
X91215857Y-62810382D01*
X90896814Y-63027448D01*
X90896350Y-63027686D01*
X90671101Y-63106666D01*
X90394920Y-63151299D01*
X90109849Y-63158785D01*
X89857932Y-63126330D01*
X89777457Y-63102133D01*
X89432359Y-62924160D01*
X89150483Y-62677474D01*
X88941445Y-62375345D01*
X88814859Y-62031041D01*
X88779313Y-61724600D01*
X88803461Y-61410499D01*
X88889957Y-61129218D01*
X89032626Y-60866300D01*
X89122138Y-60729885D01*
X89179846Y-60666955D01*
X89227219Y-60664482D01*
X89285721Y-60709435D01*
G37*
X89285721Y-60709435D02*
X89287866Y-60711375D01*
X89354817Y-60786657D01*
X89345708Y-60853819D01*
X89309374Y-60907520D01*
X89127523Y-61227944D01*
X89042344Y-61557789D01*
X89053128Y-61885435D01*
X89159165Y-62199266D01*
X89359746Y-62487661D01*
X89408987Y-62539121D01*
X89696721Y-62765232D01*
X90000936Y-62893030D01*
X90312476Y-62922517D01*
X90622184Y-62853691D01*
X90920903Y-62686554D01*
X91091012Y-62539121D01*
X91309653Y-62256935D01*
X91433887Y-61947085D01*
X91463004Y-61621188D01*
X91396294Y-61290865D01*
X91233048Y-60967732D01*
X91190625Y-60907520D01*
X91141303Y-60822038D01*
X91164827Y-60757739D01*
X91212133Y-60711375D01*
X91271211Y-60665269D01*
X91318578Y-60666078D01*
X91375623Y-60726835D01*
X91463740Y-60860574D01*
X91467989Y-60867273D01*
X91628882Y-61177772D01*
X91706368Y-61485697D01*
X91710214Y-61827694D01*
X91631906Y-62196720D01*
X91464004Y-62528877D01*
X91215857Y-62810382D01*
X90896814Y-63027448D01*
X90896350Y-63027686D01*
X90671101Y-63106666D01*
X90394920Y-63151299D01*
X90109849Y-63158785D01*
X89857932Y-63126330D01*
X89777457Y-63102133D01*
X89432359Y-62924160D01*
X89150483Y-62677474D01*
X88941445Y-62375345D01*
X88814859Y-62031041D01*
X88779313Y-61724600D01*
X88803461Y-61410499D01*
X88889957Y-61129218D01*
X89032626Y-60866300D01*
X89122138Y-60729885D01*
X89179846Y-60666955D01*
X89227219Y-60664482D01*
X89285721Y-60709435D01*
G36*
X90529165Y-60581368D02*
G01*
X90672541Y-60728132D01*
X90756383Y-60835007D01*
X90796412Y-60930367D01*
X90808347Y-61042588D01*
X90808800Y-61086129D01*
X90808800Y-61314729D01*
X90529910Y-61039304D01*
X90251021Y-60763879D01*
X89893125Y-61110765D01*
X90174914Y-61395526D01*
X90456704Y-61680287D01*
X90427800Y-62823827D01*
X90288100Y-62677833D01*
X90212902Y-62588234D01*
X90170737Y-62495446D01*
X90152329Y-62366256D01*
X90148400Y-62177552D01*
X90148400Y-61823264D01*
X89818200Y-61496000D01*
X89672691Y-61346271D01*
X89559914Y-61219731D01*
X89496276Y-61135298D01*
X89488000Y-61115196D01*
X89522075Y-61059273D01*
X89614170Y-60950142D01*
X89749088Y-60805036D01*
X89868765Y-60683432D01*
X90249531Y-60305209D01*
X90529165Y-60581368D01*
G37*
X90529165Y-60581368D02*
X90672541Y-60728132D01*
X90756383Y-60835007D01*
X90796412Y-60930367D01*
X90808347Y-61042588D01*
X90808800Y-61086129D01*
X90808800Y-61314729D01*
X90529910Y-61039304D01*
X90251021Y-60763879D01*
X89893125Y-61110765D01*
X90174914Y-61395526D01*
X90456704Y-61680287D01*
X90427800Y-62823827D01*
X90288100Y-62677833D01*
X90212902Y-62588234D01*
X90170737Y-62495446D01*
X90152329Y-62366256D01*
X90148400Y-62177552D01*
X90148400Y-61823264D01*
X89818200Y-61496000D01*
X89672691Y-61346271D01*
X89559914Y-61219731D01*
X89496276Y-61135298D01*
X89488000Y-61115196D01*
X89522075Y-61059273D01*
X89614170Y-60950142D01*
X89749088Y-60805036D01*
X89868765Y-60683432D01*
X90249531Y-60305209D01*
X90529165Y-60581368D01*
D10*
%TO.C,J1*%
X87600000Y-61800000D02*
X87600000Y-62460000D01*
X85870000Y-61690000D02*
X87600000Y-61690000D01*
X81910000Y-69310000D02*
X82120000Y-69310000D01*
X81910000Y-61690000D02*
X82120000Y-61690000D01*
X85870000Y-69310000D02*
X87600000Y-69310000D01*
X87600000Y-69275000D02*
X87600000Y-68625000D01*
X86910000Y-63740000D02*
X86910000Y-64190000D01*
X86910000Y-63740000D02*
X86520000Y-63740000D01*
%TO.C,J2*%
X94230000Y-45600000D02*
X95760000Y-45600000D01*
X87210000Y-46070000D02*
X96230000Y-46070000D01*
D13*
X87280000Y-46070000D02*
X87210000Y-46070000D01*
D10*
X78230000Y-46070000D02*
X85010000Y-46070000D01*
X78230000Y-59270000D02*
X78230000Y-46070000D01*
D13*
X78240000Y-59270000D02*
X78230000Y-59270000D01*
D10*
X78230000Y-59270000D02*
X85010000Y-59270000D01*
D13*
X78350000Y-59270000D02*
X78230000Y-59270000D01*
D10*
X96230000Y-59270000D02*
X87210000Y-59270000D01*
X96230000Y-46070000D02*
X96230000Y-59270000D01*
%TO.C,U2*%
X97955000Y-52725000D02*
X97345000Y-52725000D01*
X97955000Y-52725000D02*
X97955000Y-45105000D01*
X97955000Y-69345000D02*
X97955000Y-68725000D01*
X100075000Y-69345000D02*
X97955000Y-69345000D01*
X114195000Y-69345000D02*
X112075000Y-69345000D01*
X114195000Y-68725000D02*
X114195000Y-69345000D01*
X114195000Y-45105000D02*
X114195000Y-52725000D01*
X97955000Y-45105000D02*
X114195000Y-45105000D01*
%TO.C,SW2*%
X92150000Y-68060000D02*
X92150000Y-61940000D01*
X92150000Y-61940000D02*
X95850000Y-61940000D01*
X95850000Y-61940000D02*
X95850000Y-68060000D01*
X95850000Y-68060000D02*
X92150000Y-68060000D01*
D12*
%TO.C,G1*%
G36*
X57529165Y-60581368D02*
G01*
X57672541Y-60728132D01*
X57756383Y-60835007D01*
X57796412Y-60930367D01*
X57808347Y-61042588D01*
X57808800Y-61086129D01*
X57808800Y-61314729D01*
X57529910Y-61039304D01*
X57251021Y-60763879D01*
X56893125Y-61110765D01*
X57174914Y-61395526D01*
X57456704Y-61680287D01*
X57427800Y-62823827D01*
X57288100Y-62677833D01*
X57212902Y-62588234D01*
X57170737Y-62495446D01*
X57152329Y-62366256D01*
X57148400Y-62177552D01*
X57148400Y-61823264D01*
X56818200Y-61496000D01*
X56672691Y-61346271D01*
X56559914Y-61219731D01*
X56496276Y-61135298D01*
X56488000Y-61115196D01*
X56522075Y-61059273D01*
X56614170Y-60950142D01*
X56749088Y-60805036D01*
X56868765Y-60683432D01*
X57249531Y-60305209D01*
X57529165Y-60581368D01*
G37*
X57529165Y-60581368D02*
X57672541Y-60728132D01*
X57756383Y-60835007D01*
X57796412Y-60930367D01*
X57808347Y-61042588D01*
X57808800Y-61086129D01*
X57808800Y-61314729D01*
X57529910Y-61039304D01*
X57251021Y-60763879D01*
X56893125Y-61110765D01*
X57174914Y-61395526D01*
X57456704Y-61680287D01*
X57427800Y-62823827D01*
X57288100Y-62677833D01*
X57212902Y-62588234D01*
X57170737Y-62495446D01*
X57152329Y-62366256D01*
X57148400Y-62177552D01*
X57148400Y-61823264D01*
X56818200Y-61496000D01*
X56672691Y-61346271D01*
X56559914Y-61219731D01*
X56496276Y-61135298D01*
X56488000Y-61115196D01*
X56522075Y-61059273D01*
X56614170Y-60950142D01*
X56749088Y-60805036D01*
X56868765Y-60683432D01*
X57249531Y-60305209D01*
X57529165Y-60581368D01*
G36*
X56285721Y-60709435D02*
G01*
X56287866Y-60711375D01*
X56354817Y-60786657D01*
X56345708Y-60853819D01*
X56309374Y-60907520D01*
X56127523Y-61227944D01*
X56042344Y-61557789D01*
X56053128Y-61885435D01*
X56159165Y-62199266D01*
X56359746Y-62487661D01*
X56408987Y-62539121D01*
X56696721Y-62765232D01*
X57000936Y-62893030D01*
X57312476Y-62922517D01*
X57622184Y-62853691D01*
X57920903Y-62686554D01*
X58091012Y-62539121D01*
X58309653Y-62256935D01*
X58433887Y-61947085D01*
X58463004Y-61621188D01*
X58396294Y-61290865D01*
X58233048Y-60967732D01*
X58190625Y-60907520D01*
X58141303Y-60822038D01*
X58164827Y-60757739D01*
X58212133Y-60711375D01*
X58271211Y-60665269D01*
X58318578Y-60666078D01*
X58375623Y-60726835D01*
X58463740Y-60860574D01*
X58467989Y-60867273D01*
X58628882Y-61177772D01*
X58706368Y-61485697D01*
X58710214Y-61827694D01*
X58631906Y-62196720D01*
X58464004Y-62528877D01*
X58215857Y-62810382D01*
X57896814Y-63027448D01*
X57896350Y-63027686D01*
X57671101Y-63106666D01*
X57394920Y-63151299D01*
X57109849Y-63158785D01*
X56857932Y-63126330D01*
X56777457Y-63102133D01*
X56432359Y-62924160D01*
X56150483Y-62677474D01*
X55941445Y-62375345D01*
X55814859Y-62031041D01*
X55779313Y-61724600D01*
X55803461Y-61410499D01*
X55889957Y-61129218D01*
X56032626Y-60866300D01*
X56122138Y-60729885D01*
X56179846Y-60666955D01*
X56227219Y-60664482D01*
X56285721Y-60709435D01*
G37*
X56285721Y-60709435D02*
X56287866Y-60711375D01*
X56354817Y-60786657D01*
X56345708Y-60853819D01*
X56309374Y-60907520D01*
X56127523Y-61227944D01*
X56042344Y-61557789D01*
X56053128Y-61885435D01*
X56159165Y-62199266D01*
X56359746Y-62487661D01*
X56408987Y-62539121D01*
X56696721Y-62765232D01*
X57000936Y-62893030D01*
X57312476Y-62922517D01*
X57622184Y-62853691D01*
X57920903Y-62686554D01*
X58091012Y-62539121D01*
X58309653Y-62256935D01*
X58433887Y-61947085D01*
X58463004Y-61621188D01*
X58396294Y-61290865D01*
X58233048Y-60967732D01*
X58190625Y-60907520D01*
X58141303Y-60822038D01*
X58164827Y-60757739D01*
X58212133Y-60711375D01*
X58271211Y-60665269D01*
X58318578Y-60666078D01*
X58375623Y-60726835D01*
X58463740Y-60860574D01*
X58467989Y-60867273D01*
X58628882Y-61177772D01*
X58706368Y-61485697D01*
X58710214Y-61827694D01*
X58631906Y-62196720D01*
X58464004Y-62528877D01*
X58215857Y-62810382D01*
X57896814Y-63027448D01*
X57896350Y-63027686D01*
X57671101Y-63106666D01*
X57394920Y-63151299D01*
X57109849Y-63158785D01*
X56857932Y-63126330D01*
X56777457Y-63102133D01*
X56432359Y-62924160D01*
X56150483Y-62677474D01*
X55941445Y-62375345D01*
X55814859Y-62031041D01*
X55779313Y-61724600D01*
X55803461Y-61410499D01*
X55889957Y-61129218D01*
X56032626Y-60866300D01*
X56122138Y-60729885D01*
X56179846Y-60666955D01*
X56227219Y-60664482D01*
X56285721Y-60709435D01*
D10*
%TO.C,SW2*%
X62850000Y-68060000D02*
X59150000Y-68060000D01*
X62850000Y-61940000D02*
X62850000Y-68060000D01*
X59150000Y-61940000D02*
X62850000Y-61940000D01*
X59150000Y-68060000D02*
X59150000Y-61940000D01*
%TO.C,J2*%
X63230000Y-46070000D02*
X63230000Y-59270000D01*
X63230000Y-59270000D02*
X54210000Y-59270000D01*
D13*
X45350000Y-59270000D02*
X45230000Y-59270000D01*
D10*
X45230000Y-59270000D02*
X52010000Y-59270000D01*
D13*
X45240000Y-59270000D02*
X45230000Y-59270000D01*
D10*
X45230000Y-59270000D02*
X45230000Y-46070000D01*
X45230000Y-46070000D02*
X52010000Y-46070000D01*
D13*
X54280000Y-46070000D02*
X54210000Y-46070000D01*
D10*
X54210000Y-46070000D02*
X63230000Y-46070000D01*
X61230000Y-45600000D02*
X62760000Y-45600000D01*
%TO.C,J1*%
X53910000Y-63740000D02*
X53520000Y-63740000D01*
X53910000Y-63740000D02*
X53910000Y-64190000D01*
X54600000Y-69275000D02*
X54600000Y-68625000D01*
X52870000Y-69310000D02*
X54600000Y-69310000D01*
X48910000Y-61690000D02*
X49120000Y-61690000D01*
X48910000Y-69310000D02*
X49120000Y-69310000D01*
X52870000Y-61690000D02*
X54600000Y-61690000D01*
X54600000Y-61800000D02*
X54600000Y-62460000D01*
%TO.C,U2*%
X64955000Y-45105000D02*
X81195000Y-45105000D01*
X81195000Y-45105000D02*
X81195000Y-52725000D01*
X81195000Y-68725000D02*
X81195000Y-69345000D01*
X81195000Y-69345000D02*
X79075000Y-69345000D01*
X67075000Y-69345000D02*
X64955000Y-69345000D01*
X64955000Y-69345000D02*
X64955000Y-68725000D01*
X64955000Y-52725000D02*
X64955000Y-45105000D01*
X64955000Y-52725000D02*
X64345000Y-52725000D01*
%TD*%
M02*
