%TF.GenerationSoftware,KiCad,Pcbnew,(5.1.9)-1*%
%TF.CreationDate,2021-08-15T14:18:06+02:00*%
%TF.ProjectId,IM350_AM550_5V_V3.0_multi,494d3335-305f-4414-9d35-35305f35565f,rev?*%
%TF.SameCoordinates,Original*%
%TF.FileFunction,Copper,L2,Bot*%
%TF.FilePolarity,Positive*%
%FSLAX46Y46*%
G04 Gerber Fmt 4.6, Leading zero omitted, Abs format (unit mm)*
G04 Created by KiCad (PCBNEW (5.1.9)-1) date 2021-08-15 14:18:06*
%MOMM*%
%LPD*%
G01*
G04 APERTURE LIST*
%TA.AperFunction,SMDPad,CuDef*%
%ADD10R,0.900000X0.800000*%
%TD*%
%TA.AperFunction,ComponentPad*%
%ADD11O,1.900000X1.050000*%
%TD*%
%TA.AperFunction,SMDPad,CuDef*%
%ADD12R,1.500000X2.000000*%
%TD*%
%TA.AperFunction,SMDPad,CuDef*%
%ADD13R,3.800000X2.000000*%
%TD*%
%TA.AperFunction,ComponentPad*%
%ADD14C,1.520000*%
%TD*%
%TA.AperFunction,ComponentPad*%
%ADD15R,1.520000X1.520000*%
%TD*%
%TA.AperFunction,ViaPad*%
%ADD16C,0.800000*%
%TD*%
%TA.AperFunction,Conductor*%
%ADD17C,0.250000*%
%TD*%
G04 APERTURE END LIST*
D10*
%TO.P,Q1,1*%
%TO.N,Net-(J2-Pad5)*%
X66000000Y-125450000D03*
%TO.P,Q1,2*%
%TO.N,Net-(C1-Pad2)*%
X66000000Y-123550000D03*
%TO.P,Q1,3*%
%TO.N,Net-(P3-Pad1)*%
X68000000Y-124500000D03*
%TD*%
%TO.P,C1,1*%
%TO.N,Net-(C1-Pad1)*%
%TA.AperFunction,SMDPad,CuDef*%
G36*
G01*
X135275000Y-140650001D02*
X135275000Y-139349999D01*
G75*
G02*
X135524999Y-139100000I249999J0D01*
G01*
X136350001Y-139100000D01*
G75*
G02*
X136600000Y-139349999I0J-249999D01*
G01*
X136600000Y-140650001D01*
G75*
G02*
X136350001Y-140900000I-249999J0D01*
G01*
X135524999Y-140900000D01*
G75*
G02*
X135275000Y-140650001I0J249999D01*
G01*
G37*
%TD.AperFunction*%
%TO.P,C1,2*%
%TO.N,Net-(C1-Pad2)*%
%TA.AperFunction,SMDPad,CuDef*%
G36*
G01*
X138400000Y-140650001D02*
X138400000Y-139349999D01*
G75*
G02*
X138649999Y-139100000I249999J0D01*
G01*
X139475001Y-139100000D01*
G75*
G02*
X139725000Y-139349999I0J-249999D01*
G01*
X139725000Y-140650001D01*
G75*
G02*
X139475001Y-140900000I-249999J0D01*
G01*
X138649999Y-140900000D01*
G75*
G02*
X138400000Y-140650001I0J249999D01*
G01*
G37*
%TD.AperFunction*%
%TD*%
%TO.P,R5,1*%
%TO.N,Net-(R5-Pad1)*%
%TA.AperFunction,SMDPad,CuDef*%
G36*
G01*
X77049999Y-138900000D02*
X77950001Y-138900000D01*
G75*
G02*
X78200000Y-139149999I0J-249999D01*
G01*
X78200000Y-139850001D01*
G75*
G02*
X77950001Y-140100000I-249999J0D01*
G01*
X77049999Y-140100000D01*
G75*
G02*
X76800000Y-139850001I0J249999D01*
G01*
X76800000Y-139149999D01*
G75*
G02*
X77049999Y-138900000I249999J0D01*
G01*
G37*
%TD.AperFunction*%
%TO.P,R5,2*%
%TO.N,Net-(C1-Pad2)*%
%TA.AperFunction,SMDPad,CuDef*%
G36*
G01*
X77049999Y-140900000D02*
X77950001Y-140900000D01*
G75*
G02*
X78200000Y-141149999I0J-249999D01*
G01*
X78200000Y-141850001D01*
G75*
G02*
X77950001Y-142100000I-249999J0D01*
G01*
X77049999Y-142100000D01*
G75*
G02*
X76800000Y-141850001I0J249999D01*
G01*
X76800000Y-141149999D01*
G75*
G02*
X77049999Y-140900000I249999J0D01*
G01*
G37*
%TD.AperFunction*%
%TD*%
D11*
%TO.P,J1,*%
%TO.N,*%
X50300000Y-136925000D03*
X50300000Y-144075000D03*
%TD*%
D12*
%TO.P,U1,1*%
%TO.N,Net-(C1-Pad2)*%
X72700000Y-122850000D03*
%TO.P,U1,3*%
%TO.N,Net-(J1-Pad1)*%
X77300000Y-122850000D03*
%TO.P,U1,2*%
%TO.N,Net-(C1-Pad1)*%
X75000000Y-122850000D03*
D13*
X75000000Y-129150000D03*
%TD*%
%TO.P,R5,2*%
%TO.N,Net-(C1-Pad2)*%
%TA.AperFunction,SMDPad,CuDef*%
G36*
G01*
X110049999Y-140900000D02*
X110950001Y-140900000D01*
G75*
G02*
X111200000Y-141149999I0J-249999D01*
G01*
X111200000Y-141850001D01*
G75*
G02*
X110950001Y-142100000I-249999J0D01*
G01*
X110049999Y-142100000D01*
G75*
G02*
X109800000Y-141850001I0J249999D01*
G01*
X109800000Y-141149999D01*
G75*
G02*
X110049999Y-140900000I249999J0D01*
G01*
G37*
%TD.AperFunction*%
%TO.P,R5,1*%
%TO.N,Net-(R5-Pad1)*%
%TA.AperFunction,SMDPad,CuDef*%
G36*
G01*
X110049999Y-138900000D02*
X110950001Y-138900000D01*
G75*
G02*
X111200000Y-139149999I0J-249999D01*
G01*
X111200000Y-139850001D01*
G75*
G02*
X110950001Y-140100000I-249999J0D01*
G01*
X110049999Y-140100000D01*
G75*
G02*
X109800000Y-139850001I0J249999D01*
G01*
X109800000Y-139149999D01*
G75*
G02*
X110049999Y-138900000I249999J0D01*
G01*
G37*
%TD.AperFunction*%
%TD*%
%TO.P,R6,2*%
%TO.N,Net-(J2-Pad1)*%
%TA.AperFunction,SMDPad,CuDef*%
G36*
G01*
X101549999Y-130400000D02*
X102450001Y-130400000D01*
G75*
G02*
X102700000Y-130649999I0J-249999D01*
G01*
X102700000Y-131350001D01*
G75*
G02*
X102450001Y-131600000I-249999J0D01*
G01*
X101549999Y-131600000D01*
G75*
G02*
X101300000Y-131350001I0J249999D01*
G01*
X101300000Y-130649999D01*
G75*
G02*
X101549999Y-130400000I249999J0D01*
G01*
G37*
%TD.AperFunction*%
%TO.P,R6,1*%
%TO.N,Net-(J2-Pad5)*%
%TA.AperFunction,SMDPad,CuDef*%
G36*
G01*
X101549999Y-128400000D02*
X102450001Y-128400000D01*
G75*
G02*
X102700000Y-128649999I0J-249999D01*
G01*
X102700000Y-129350001D01*
G75*
G02*
X102450001Y-129600000I-249999J0D01*
G01*
X101549999Y-129600000D01*
G75*
G02*
X101300000Y-129350001I0J249999D01*
G01*
X101300000Y-128649999D01*
G75*
G02*
X101549999Y-128400000I249999J0D01*
G01*
G37*
%TD.AperFunction*%
%TD*%
%TO.P,R4,2*%
%TO.N,Net-(J2-Pad1)*%
%TA.AperFunction,SMDPad,CuDef*%
G36*
G01*
X105100000Y-134049999D02*
X105100000Y-134950001D01*
G75*
G02*
X104850001Y-135200000I-249999J0D01*
G01*
X104149999Y-135200000D01*
G75*
G02*
X103900000Y-134950001I0J249999D01*
G01*
X103900000Y-134049999D01*
G75*
G02*
X104149999Y-133800000I249999J0D01*
G01*
X104850001Y-133800000D01*
G75*
G02*
X105100000Y-134049999I0J-249999D01*
G01*
G37*
%TD.AperFunction*%
%TO.P,R4,1*%
%TO.N,Net-(P3-Pad1)*%
%TA.AperFunction,SMDPad,CuDef*%
G36*
G01*
X107100000Y-134049999D02*
X107100000Y-134950001D01*
G75*
G02*
X106850001Y-135200000I-249999J0D01*
G01*
X106149999Y-135200000D01*
G75*
G02*
X105900000Y-134950001I0J249999D01*
G01*
X105900000Y-134049999D01*
G75*
G02*
X106149999Y-133800000I249999J0D01*
G01*
X106850001Y-133800000D01*
G75*
G02*
X107100000Y-134049999I0J-249999D01*
G01*
G37*
%TD.AperFunction*%
%TD*%
%TO.P,R4,1*%
%TO.N,Net-(P3-Pad1)*%
%TA.AperFunction,SMDPad,CuDef*%
G36*
G01*
X140100000Y-134049999D02*
X140100000Y-134950001D01*
G75*
G02*
X139850001Y-135200000I-249999J0D01*
G01*
X139149999Y-135200000D01*
G75*
G02*
X138900000Y-134950001I0J249999D01*
G01*
X138900000Y-134049999D01*
G75*
G02*
X139149999Y-133800000I249999J0D01*
G01*
X139850001Y-133800000D01*
G75*
G02*
X140100000Y-134049999I0J-249999D01*
G01*
G37*
%TD.AperFunction*%
%TO.P,R4,2*%
%TO.N,Net-(J2-Pad1)*%
%TA.AperFunction,SMDPad,CuDef*%
G36*
G01*
X138100000Y-134049999D02*
X138100000Y-134950001D01*
G75*
G02*
X137850001Y-135200000I-249999J0D01*
G01*
X137149999Y-135200000D01*
G75*
G02*
X136900000Y-134950001I0J249999D01*
G01*
X136900000Y-134049999D01*
G75*
G02*
X137149999Y-133800000I249999J0D01*
G01*
X137850001Y-133800000D01*
G75*
G02*
X138100000Y-134049999I0J-249999D01*
G01*
G37*
%TD.AperFunction*%
%TD*%
%TO.P,P3,2*%
%TO.N,Net-(P3-Pad2)*%
%TA.AperFunction,SMDPad,CuDef*%
G36*
G01*
X110400000Y-132090000D02*
X110600000Y-132090000D01*
G75*
G02*
X110700000Y-132190000I0J-100000D01*
G01*
X110700000Y-132625000D01*
G75*
G02*
X110600000Y-132725000I-100000J0D01*
G01*
X110400000Y-132725000D01*
G75*
G02*
X110300000Y-132625000I0J100000D01*
G01*
X110300000Y-132190000D01*
G75*
G02*
X110400000Y-132090000I100000J0D01*
G01*
G37*
%TD.AperFunction*%
%TO.P,P3,1*%
%TO.N,Net-(P3-Pad1)*%
%TA.AperFunction,SMDPad,CuDef*%
G36*
G01*
X110400000Y-131275000D02*
X110600000Y-131275000D01*
G75*
G02*
X110700000Y-131375000I0J-100000D01*
G01*
X110700000Y-131810000D01*
G75*
G02*
X110600000Y-131910000I-100000J0D01*
G01*
X110400000Y-131910000D01*
G75*
G02*
X110300000Y-131810000I0J100000D01*
G01*
X110300000Y-131375000D01*
G75*
G02*
X110400000Y-131275000I100000J0D01*
G01*
G37*
%TD.AperFunction*%
%TD*%
%TO.P,P4,2*%
%TO.N,Net-(P4-Pad2)*%
%TA.AperFunction,SMDPad,CuDef*%
G36*
G01*
X110400000Y-134900000D02*
X110600000Y-134900000D01*
G75*
G02*
X110700000Y-135000000I0J-100000D01*
G01*
X110700000Y-135435000D01*
G75*
G02*
X110600000Y-135535000I-100000J0D01*
G01*
X110400000Y-135535000D01*
G75*
G02*
X110300000Y-135435000I0J100000D01*
G01*
X110300000Y-135000000D01*
G75*
G02*
X110400000Y-134900000I100000J0D01*
G01*
G37*
%TD.AperFunction*%
%TO.P,P4,1*%
%TO.N,Net-(P3-Pad1)*%
%TA.AperFunction,SMDPad,CuDef*%
G36*
G01*
X110400000Y-134085000D02*
X110600000Y-134085000D01*
G75*
G02*
X110700000Y-134185000I0J-100000D01*
G01*
X110700000Y-134620000D01*
G75*
G02*
X110600000Y-134720000I-100000J0D01*
G01*
X110400000Y-134720000D01*
G75*
G02*
X110300000Y-134620000I0J100000D01*
G01*
X110300000Y-134185000D01*
G75*
G02*
X110400000Y-134085000I100000J0D01*
G01*
G37*
%TD.AperFunction*%
%TD*%
%TO.P,P3,1*%
%TO.N,Net-(P3-Pad1)*%
%TA.AperFunction,SMDPad,CuDef*%
G36*
G01*
X77400000Y-131275000D02*
X77600000Y-131275000D01*
G75*
G02*
X77700000Y-131375000I0J-100000D01*
G01*
X77700000Y-131810000D01*
G75*
G02*
X77600000Y-131910000I-100000J0D01*
G01*
X77400000Y-131910000D01*
G75*
G02*
X77300000Y-131810000I0J100000D01*
G01*
X77300000Y-131375000D01*
G75*
G02*
X77400000Y-131275000I100000J0D01*
G01*
G37*
%TD.AperFunction*%
%TO.P,P3,2*%
%TO.N,Net-(P3-Pad2)*%
%TA.AperFunction,SMDPad,CuDef*%
G36*
G01*
X77400000Y-132090000D02*
X77600000Y-132090000D01*
G75*
G02*
X77700000Y-132190000I0J-100000D01*
G01*
X77700000Y-132625000D01*
G75*
G02*
X77600000Y-132725000I-100000J0D01*
G01*
X77400000Y-132725000D01*
G75*
G02*
X77300000Y-132625000I0J100000D01*
G01*
X77300000Y-132190000D01*
G75*
G02*
X77400000Y-132090000I100000J0D01*
G01*
G37*
%TD.AperFunction*%
%TD*%
%TO.P,R6,1*%
%TO.N,Net-(J2-Pad5)*%
%TA.AperFunction,SMDPad,CuDef*%
G36*
G01*
X68549999Y-128400000D02*
X69450001Y-128400000D01*
G75*
G02*
X69700000Y-128649999I0J-249999D01*
G01*
X69700000Y-129350001D01*
G75*
G02*
X69450001Y-129600000I-249999J0D01*
G01*
X68549999Y-129600000D01*
G75*
G02*
X68300000Y-129350001I0J249999D01*
G01*
X68300000Y-128649999D01*
G75*
G02*
X68549999Y-128400000I249999J0D01*
G01*
G37*
%TD.AperFunction*%
%TO.P,R6,2*%
%TO.N,Net-(J2-Pad1)*%
%TA.AperFunction,SMDPad,CuDef*%
G36*
G01*
X68549999Y-130400000D02*
X69450001Y-130400000D01*
G75*
G02*
X69700000Y-130649999I0J-249999D01*
G01*
X69700000Y-131350001D01*
G75*
G02*
X69450001Y-131600000I-249999J0D01*
G01*
X68549999Y-131600000D01*
G75*
G02*
X68300000Y-131350001I0J249999D01*
G01*
X68300000Y-130649999D01*
G75*
G02*
X68549999Y-130400000I249999J0D01*
G01*
G37*
%TD.AperFunction*%
%TD*%
D14*
%TO.P,J2,6*%
%TO.N,Net-(C1-Pad2)*%
X125460000Y-130850000D03*
%TO.P,J2,5*%
%TO.N,Net-(J2-Pad5)*%
X128000000Y-129580000D03*
%TO.P,J2,4*%
%TO.N,Net-(J2-Pad4)*%
X125460000Y-128310000D03*
%TO.P,J2,3*%
%TO.N,Net-(C1-Pad2)*%
X128000000Y-127040000D03*
%TO.P,J2,2*%
%TO.N,Net-(J2-Pad2)*%
X125460000Y-125770000D03*
D15*
%TO.P,J2,1*%
%TO.N,Net-(J2-Pad1)*%
X128000000Y-124500000D03*
%TD*%
%TO.P,P4,1*%
%TO.N,Net-(P3-Pad1)*%
%TA.AperFunction,SMDPad,CuDef*%
G36*
G01*
X77400000Y-134085000D02*
X77600000Y-134085000D01*
G75*
G02*
X77700000Y-134185000I0J-100000D01*
G01*
X77700000Y-134620000D01*
G75*
G02*
X77600000Y-134720000I-100000J0D01*
G01*
X77400000Y-134720000D01*
G75*
G02*
X77300000Y-134620000I0J100000D01*
G01*
X77300000Y-134185000D01*
G75*
G02*
X77400000Y-134085000I100000J0D01*
G01*
G37*
%TD.AperFunction*%
%TO.P,P4,2*%
%TO.N,Net-(P4-Pad2)*%
%TA.AperFunction,SMDPad,CuDef*%
G36*
G01*
X77400000Y-134900000D02*
X77600000Y-134900000D01*
G75*
G02*
X77700000Y-135000000I0J-100000D01*
G01*
X77700000Y-135435000D01*
G75*
G02*
X77600000Y-135535000I-100000J0D01*
G01*
X77400000Y-135535000D01*
G75*
G02*
X77300000Y-135435000I0J100000D01*
G01*
X77300000Y-135000000D01*
G75*
G02*
X77400000Y-134900000I100000J0D01*
G01*
G37*
%TD.AperFunction*%
%TD*%
%TO.P,C1,1*%
%TO.N,Net-(C1-Pad1)*%
%TA.AperFunction,SMDPad,CuDef*%
G36*
G01*
X69275000Y-140650001D02*
X69275000Y-139349999D01*
G75*
G02*
X69524999Y-139100000I249999J0D01*
G01*
X70350001Y-139100000D01*
G75*
G02*
X70600000Y-139349999I0J-249999D01*
G01*
X70600000Y-140650001D01*
G75*
G02*
X70350001Y-140900000I-249999J0D01*
G01*
X69524999Y-140900000D01*
G75*
G02*
X69275000Y-140650001I0J249999D01*
G01*
G37*
%TD.AperFunction*%
%TO.P,C1,2*%
%TO.N,Net-(C1-Pad2)*%
%TA.AperFunction,SMDPad,CuDef*%
G36*
G01*
X72400000Y-140650001D02*
X72400000Y-139349999D01*
G75*
G02*
X72649999Y-139100000I249999J0D01*
G01*
X73475001Y-139100000D01*
G75*
G02*
X73725000Y-139349999I0J-249999D01*
G01*
X73725000Y-140650001D01*
G75*
G02*
X73475001Y-140900000I-249999J0D01*
G01*
X72649999Y-140900000D01*
G75*
G02*
X72400000Y-140650001I0J249999D01*
G01*
G37*
%TD.AperFunction*%
%TD*%
D14*
%TO.P,J2,6*%
%TO.N,Net-(C1-Pad2)*%
X59460000Y-130850000D03*
%TO.P,J2,5*%
%TO.N,Net-(J2-Pad5)*%
X62000000Y-129580000D03*
%TO.P,J2,4*%
%TO.N,Net-(J2-Pad4)*%
X59460000Y-128310000D03*
%TO.P,J2,3*%
%TO.N,Net-(C1-Pad2)*%
X62000000Y-127040000D03*
%TO.P,J2,2*%
%TO.N,Net-(J2-Pad2)*%
X59460000Y-125770000D03*
D15*
%TO.P,J2,1*%
%TO.N,Net-(J2-Pad1)*%
X62000000Y-124500000D03*
%TD*%
%TO.P,R4,1*%
%TO.N,Net-(P3-Pad1)*%
%TA.AperFunction,SMDPad,CuDef*%
G36*
G01*
X74100000Y-134049999D02*
X74100000Y-134950001D01*
G75*
G02*
X73850001Y-135200000I-249999J0D01*
G01*
X73149999Y-135200000D01*
G75*
G02*
X72900000Y-134950001I0J249999D01*
G01*
X72900000Y-134049999D01*
G75*
G02*
X73149999Y-133800000I249999J0D01*
G01*
X73850001Y-133800000D01*
G75*
G02*
X74100000Y-134049999I0J-249999D01*
G01*
G37*
%TD.AperFunction*%
%TO.P,R4,2*%
%TO.N,Net-(J2-Pad1)*%
%TA.AperFunction,SMDPad,CuDef*%
G36*
G01*
X72100000Y-134049999D02*
X72100000Y-134950001D01*
G75*
G02*
X71850001Y-135200000I-249999J0D01*
G01*
X71149999Y-135200000D01*
G75*
G02*
X70900000Y-134950001I0J249999D01*
G01*
X70900000Y-134049999D01*
G75*
G02*
X71149999Y-133800000I249999J0D01*
G01*
X71850001Y-133800000D01*
G75*
G02*
X72100000Y-134049999I0J-249999D01*
G01*
G37*
%TD.AperFunction*%
%TD*%
%TO.P,R5,1*%
%TO.N,Net-(R5-Pad1)*%
%TA.AperFunction,SMDPad,CuDef*%
G36*
G01*
X143049999Y-138900000D02*
X143950001Y-138900000D01*
G75*
G02*
X144200000Y-139149999I0J-249999D01*
G01*
X144200000Y-139850001D01*
G75*
G02*
X143950001Y-140100000I-249999J0D01*
G01*
X143049999Y-140100000D01*
G75*
G02*
X142800000Y-139850001I0J249999D01*
G01*
X142800000Y-139149999D01*
G75*
G02*
X143049999Y-138900000I249999J0D01*
G01*
G37*
%TD.AperFunction*%
%TO.P,R5,2*%
%TO.N,Net-(C1-Pad2)*%
%TA.AperFunction,SMDPad,CuDef*%
G36*
G01*
X143049999Y-140900000D02*
X143950001Y-140900000D01*
G75*
G02*
X144200000Y-141149999I0J-249999D01*
G01*
X144200000Y-141850001D01*
G75*
G02*
X143950001Y-142100000I-249999J0D01*
G01*
X143049999Y-142100000D01*
G75*
G02*
X142800000Y-141850001I0J249999D01*
G01*
X142800000Y-141149999D01*
G75*
G02*
X143049999Y-140900000I249999J0D01*
G01*
G37*
%TD.AperFunction*%
%TD*%
D12*
%TO.P,U1,1*%
%TO.N,Net-(C1-Pad2)*%
X138700000Y-122850000D03*
%TO.P,U1,3*%
%TO.N,Net-(J1-Pad1)*%
X143300000Y-122850000D03*
%TO.P,U1,2*%
%TO.N,Net-(C1-Pad1)*%
X141000000Y-122850000D03*
D13*
X141000000Y-129150000D03*
%TD*%
%TO.P,U1,2*%
%TO.N,Net-(C1-Pad1)*%
X108000000Y-129150000D03*
D12*
X108000000Y-122850000D03*
%TO.P,U1,3*%
%TO.N,Net-(J1-Pad1)*%
X110300000Y-122850000D03*
%TO.P,U1,1*%
%TO.N,Net-(C1-Pad2)*%
X105700000Y-122850000D03*
%TD*%
%TO.P,P3,1*%
%TO.N,Net-(P3-Pad1)*%
%TA.AperFunction,SMDPad,CuDef*%
G36*
G01*
X143400000Y-131275000D02*
X143600000Y-131275000D01*
G75*
G02*
X143700000Y-131375000I0J-100000D01*
G01*
X143700000Y-131810000D01*
G75*
G02*
X143600000Y-131910000I-100000J0D01*
G01*
X143400000Y-131910000D01*
G75*
G02*
X143300000Y-131810000I0J100000D01*
G01*
X143300000Y-131375000D01*
G75*
G02*
X143400000Y-131275000I100000J0D01*
G01*
G37*
%TD.AperFunction*%
%TO.P,P3,2*%
%TO.N,Net-(P3-Pad2)*%
%TA.AperFunction,SMDPad,CuDef*%
G36*
G01*
X143400000Y-132090000D02*
X143600000Y-132090000D01*
G75*
G02*
X143700000Y-132190000I0J-100000D01*
G01*
X143700000Y-132625000D01*
G75*
G02*
X143600000Y-132725000I-100000J0D01*
G01*
X143400000Y-132725000D01*
G75*
G02*
X143300000Y-132625000I0J100000D01*
G01*
X143300000Y-132190000D01*
G75*
G02*
X143400000Y-132090000I100000J0D01*
G01*
G37*
%TD.AperFunction*%
%TD*%
%TO.P,C1,2*%
%TO.N,Net-(C1-Pad2)*%
%TA.AperFunction,SMDPad,CuDef*%
G36*
G01*
X105400000Y-140650001D02*
X105400000Y-139349999D01*
G75*
G02*
X105649999Y-139100000I249999J0D01*
G01*
X106475001Y-139100000D01*
G75*
G02*
X106725000Y-139349999I0J-249999D01*
G01*
X106725000Y-140650001D01*
G75*
G02*
X106475001Y-140900000I-249999J0D01*
G01*
X105649999Y-140900000D01*
G75*
G02*
X105400000Y-140650001I0J249999D01*
G01*
G37*
%TD.AperFunction*%
%TO.P,C1,1*%
%TO.N,Net-(C1-Pad1)*%
%TA.AperFunction,SMDPad,CuDef*%
G36*
G01*
X102275000Y-140650001D02*
X102275000Y-139349999D01*
G75*
G02*
X102524999Y-139100000I249999J0D01*
G01*
X103350001Y-139100000D01*
G75*
G02*
X103600000Y-139349999I0J-249999D01*
G01*
X103600000Y-140650001D01*
G75*
G02*
X103350001Y-140900000I-249999J0D01*
G01*
X102524999Y-140900000D01*
G75*
G02*
X102275000Y-140650001I0J249999D01*
G01*
G37*
%TD.AperFunction*%
%TD*%
D10*
%TO.P,Q1,3*%
%TO.N,Net-(P3-Pad1)*%
X101000000Y-124500000D03*
%TO.P,Q1,2*%
%TO.N,Net-(C1-Pad2)*%
X99000000Y-123550000D03*
%TO.P,Q1,1*%
%TO.N,Net-(J2-Pad5)*%
X99000000Y-125450000D03*
%TD*%
%TO.P,Q1,1*%
%TO.N,Net-(J2-Pad5)*%
X132000000Y-125450000D03*
%TO.P,Q1,2*%
%TO.N,Net-(C1-Pad2)*%
X132000000Y-123550000D03*
%TO.P,Q1,3*%
%TO.N,Net-(P3-Pad1)*%
X134000000Y-124500000D03*
%TD*%
%TO.P,P4,1*%
%TO.N,Net-(P3-Pad1)*%
%TA.AperFunction,SMDPad,CuDef*%
G36*
G01*
X143400000Y-134085000D02*
X143600000Y-134085000D01*
G75*
G02*
X143700000Y-134185000I0J-100000D01*
G01*
X143700000Y-134620000D01*
G75*
G02*
X143600000Y-134720000I-100000J0D01*
G01*
X143400000Y-134720000D01*
G75*
G02*
X143300000Y-134620000I0J100000D01*
G01*
X143300000Y-134185000D01*
G75*
G02*
X143400000Y-134085000I100000J0D01*
G01*
G37*
%TD.AperFunction*%
%TO.P,P4,2*%
%TO.N,Net-(P4-Pad2)*%
%TA.AperFunction,SMDPad,CuDef*%
G36*
G01*
X143400000Y-134900000D02*
X143600000Y-134900000D01*
G75*
G02*
X143700000Y-135000000I0J-100000D01*
G01*
X143700000Y-135435000D01*
G75*
G02*
X143600000Y-135535000I-100000J0D01*
G01*
X143400000Y-135535000D01*
G75*
G02*
X143300000Y-135435000I0J100000D01*
G01*
X143300000Y-135000000D01*
G75*
G02*
X143400000Y-134900000I100000J0D01*
G01*
G37*
%TD.AperFunction*%
%TD*%
D15*
%TO.P,J2,1*%
%TO.N,Net-(J2-Pad1)*%
X95000000Y-124500000D03*
D14*
%TO.P,J2,2*%
%TO.N,Net-(J2-Pad2)*%
X92460000Y-125770000D03*
%TO.P,J2,3*%
%TO.N,Net-(C1-Pad2)*%
X95000000Y-127040000D03*
%TO.P,J2,4*%
%TO.N,Net-(J2-Pad4)*%
X92460000Y-128310000D03*
%TO.P,J2,5*%
%TO.N,Net-(J2-Pad5)*%
X95000000Y-129580000D03*
%TO.P,J2,6*%
%TO.N,Net-(C1-Pad2)*%
X92460000Y-130850000D03*
%TD*%
D11*
%TO.P,J1,*%
%TO.N,*%
X83300000Y-144075000D03*
X83300000Y-136925000D03*
%TD*%
%TO.P,J1,*%
%TO.N,*%
X116300000Y-136925000D03*
X116300000Y-144075000D03*
%TD*%
%TO.P,R6,1*%
%TO.N,Net-(J2-Pad5)*%
%TA.AperFunction,SMDPad,CuDef*%
G36*
G01*
X134549999Y-128400000D02*
X135450001Y-128400000D01*
G75*
G02*
X135700000Y-128649999I0J-249999D01*
G01*
X135700000Y-129350001D01*
G75*
G02*
X135450001Y-129600000I-249999J0D01*
G01*
X134549999Y-129600000D01*
G75*
G02*
X134300000Y-129350001I0J249999D01*
G01*
X134300000Y-128649999D01*
G75*
G02*
X134549999Y-128400000I249999J0D01*
G01*
G37*
%TD.AperFunction*%
%TO.P,R6,2*%
%TO.N,Net-(J2-Pad1)*%
%TA.AperFunction,SMDPad,CuDef*%
G36*
G01*
X134549999Y-130400000D02*
X135450001Y-130400000D01*
G75*
G02*
X135700000Y-130649999I0J-249999D01*
G01*
X135700000Y-131350001D01*
G75*
G02*
X135450001Y-131600000I-249999J0D01*
G01*
X134549999Y-131600000D01*
G75*
G02*
X134300000Y-131350001I0J249999D01*
G01*
X134300000Y-130649999D01*
G75*
G02*
X134549999Y-130400000I249999J0D01*
G01*
G37*
%TD.AperFunction*%
%TD*%
%TO.P,R5,2*%
%TO.N,Net-(C1-Pad2)*%
%TA.AperFunction,SMDPad,CuDef*%
G36*
G01*
X77049999Y-115900000D02*
X77950001Y-115900000D01*
G75*
G02*
X78200000Y-116149999I0J-249999D01*
G01*
X78200000Y-116850001D01*
G75*
G02*
X77950001Y-117100000I-249999J0D01*
G01*
X77049999Y-117100000D01*
G75*
G02*
X76800000Y-116850001I0J249999D01*
G01*
X76800000Y-116149999D01*
G75*
G02*
X77049999Y-115900000I249999J0D01*
G01*
G37*
%TD.AperFunction*%
%TO.P,R5,1*%
%TO.N,Net-(R5-Pad1)*%
%TA.AperFunction,SMDPad,CuDef*%
G36*
G01*
X77049999Y-113900000D02*
X77950001Y-113900000D01*
G75*
G02*
X78200000Y-114149999I0J-249999D01*
G01*
X78200000Y-114850001D01*
G75*
G02*
X77950001Y-115100000I-249999J0D01*
G01*
X77049999Y-115100000D01*
G75*
G02*
X76800000Y-114850001I0J249999D01*
G01*
X76800000Y-114149999D01*
G75*
G02*
X77049999Y-113900000I249999J0D01*
G01*
G37*
%TD.AperFunction*%
%TD*%
D10*
%TO.P,Q1,3*%
%TO.N,Net-(P3-Pad1)*%
X68000000Y-99500000D03*
%TO.P,Q1,2*%
%TO.N,Net-(C1-Pad2)*%
X66000000Y-98550000D03*
%TO.P,Q1,1*%
%TO.N,Net-(J2-Pad5)*%
X66000000Y-100450000D03*
%TD*%
D13*
%TO.P,U1,2*%
%TO.N,Net-(C1-Pad1)*%
X75000000Y-104150000D03*
D12*
X75000000Y-97850000D03*
%TO.P,U1,3*%
%TO.N,Net-(J1-Pad1)*%
X77300000Y-97850000D03*
%TO.P,U1,1*%
%TO.N,Net-(C1-Pad2)*%
X72700000Y-97850000D03*
%TD*%
D11*
%TO.P,J1,*%
%TO.N,*%
X50300000Y-119075000D03*
X50300000Y-111925000D03*
%TD*%
%TO.P,C1,2*%
%TO.N,Net-(C1-Pad2)*%
%TA.AperFunction,SMDPad,CuDef*%
G36*
G01*
X138400000Y-115650001D02*
X138400000Y-114349999D01*
G75*
G02*
X138649999Y-114100000I249999J0D01*
G01*
X139475001Y-114100000D01*
G75*
G02*
X139725000Y-114349999I0J-249999D01*
G01*
X139725000Y-115650001D01*
G75*
G02*
X139475001Y-115900000I-249999J0D01*
G01*
X138649999Y-115900000D01*
G75*
G02*
X138400000Y-115650001I0J249999D01*
G01*
G37*
%TD.AperFunction*%
%TO.P,C1,1*%
%TO.N,Net-(C1-Pad1)*%
%TA.AperFunction,SMDPad,CuDef*%
G36*
G01*
X135275000Y-115650001D02*
X135275000Y-114349999D01*
G75*
G02*
X135524999Y-114100000I249999J0D01*
G01*
X136350001Y-114100000D01*
G75*
G02*
X136600000Y-114349999I0J-249999D01*
G01*
X136600000Y-115650001D01*
G75*
G02*
X136350001Y-115900000I-249999J0D01*
G01*
X135524999Y-115900000D01*
G75*
G02*
X135275000Y-115650001I0J249999D01*
G01*
G37*
%TD.AperFunction*%
%TD*%
%TO.P,P4,2*%
%TO.N,Net-(P4-Pad2)*%
%TA.AperFunction,SMDPad,CuDef*%
G36*
G01*
X77400000Y-109900000D02*
X77600000Y-109900000D01*
G75*
G02*
X77700000Y-110000000I0J-100000D01*
G01*
X77700000Y-110435000D01*
G75*
G02*
X77600000Y-110535000I-100000J0D01*
G01*
X77400000Y-110535000D01*
G75*
G02*
X77300000Y-110435000I0J100000D01*
G01*
X77300000Y-110000000D01*
G75*
G02*
X77400000Y-109900000I100000J0D01*
G01*
G37*
%TD.AperFunction*%
%TO.P,P4,1*%
%TO.N,Net-(P3-Pad1)*%
%TA.AperFunction,SMDPad,CuDef*%
G36*
G01*
X77400000Y-109085000D02*
X77600000Y-109085000D01*
G75*
G02*
X77700000Y-109185000I0J-100000D01*
G01*
X77700000Y-109620000D01*
G75*
G02*
X77600000Y-109720000I-100000J0D01*
G01*
X77400000Y-109720000D01*
G75*
G02*
X77300000Y-109620000I0J100000D01*
G01*
X77300000Y-109185000D01*
G75*
G02*
X77400000Y-109085000I100000J0D01*
G01*
G37*
%TD.AperFunction*%
%TD*%
%TO.P,C1,2*%
%TO.N,Net-(C1-Pad2)*%
%TA.AperFunction,SMDPad,CuDef*%
G36*
G01*
X72400000Y-115650001D02*
X72400000Y-114349999D01*
G75*
G02*
X72649999Y-114100000I249999J0D01*
G01*
X73475001Y-114100000D01*
G75*
G02*
X73725000Y-114349999I0J-249999D01*
G01*
X73725000Y-115650001D01*
G75*
G02*
X73475001Y-115900000I-249999J0D01*
G01*
X72649999Y-115900000D01*
G75*
G02*
X72400000Y-115650001I0J249999D01*
G01*
G37*
%TD.AperFunction*%
%TO.P,C1,1*%
%TO.N,Net-(C1-Pad1)*%
%TA.AperFunction,SMDPad,CuDef*%
G36*
G01*
X69275000Y-115650001D02*
X69275000Y-114349999D01*
G75*
G02*
X69524999Y-114100000I249999J0D01*
G01*
X70350001Y-114100000D01*
G75*
G02*
X70600000Y-114349999I0J-249999D01*
G01*
X70600000Y-115650001D01*
G75*
G02*
X70350001Y-115900000I-249999J0D01*
G01*
X69524999Y-115900000D01*
G75*
G02*
X69275000Y-115650001I0J249999D01*
G01*
G37*
%TD.AperFunction*%
%TD*%
D15*
%TO.P,J2,1*%
%TO.N,Net-(J2-Pad1)*%
X62000000Y-99500000D03*
D14*
%TO.P,J2,2*%
%TO.N,Net-(J2-Pad2)*%
X59460000Y-100770000D03*
%TO.P,J2,3*%
%TO.N,Net-(C1-Pad2)*%
X62000000Y-102040000D03*
%TO.P,J2,4*%
%TO.N,Net-(J2-Pad4)*%
X59460000Y-103310000D03*
%TO.P,J2,5*%
%TO.N,Net-(J2-Pad5)*%
X62000000Y-104580000D03*
%TO.P,J2,6*%
%TO.N,Net-(C1-Pad2)*%
X59460000Y-105850000D03*
%TD*%
%TO.P,R4,2*%
%TO.N,Net-(J2-Pad1)*%
%TA.AperFunction,SMDPad,CuDef*%
G36*
G01*
X72100000Y-109049999D02*
X72100000Y-109950001D01*
G75*
G02*
X71850001Y-110200000I-249999J0D01*
G01*
X71149999Y-110200000D01*
G75*
G02*
X70900000Y-109950001I0J249999D01*
G01*
X70900000Y-109049999D01*
G75*
G02*
X71149999Y-108800000I249999J0D01*
G01*
X71850001Y-108800000D01*
G75*
G02*
X72100000Y-109049999I0J-249999D01*
G01*
G37*
%TD.AperFunction*%
%TO.P,R4,1*%
%TO.N,Net-(P3-Pad1)*%
%TA.AperFunction,SMDPad,CuDef*%
G36*
G01*
X74100000Y-109049999D02*
X74100000Y-109950001D01*
G75*
G02*
X73850001Y-110200000I-249999J0D01*
G01*
X73149999Y-110200000D01*
G75*
G02*
X72900000Y-109950001I0J249999D01*
G01*
X72900000Y-109049999D01*
G75*
G02*
X73149999Y-108800000I249999J0D01*
G01*
X73850001Y-108800000D01*
G75*
G02*
X74100000Y-109049999I0J-249999D01*
G01*
G37*
%TD.AperFunction*%
%TD*%
%TO.P,R5,2*%
%TO.N,Net-(C1-Pad2)*%
%TA.AperFunction,SMDPad,CuDef*%
G36*
G01*
X143049999Y-115900000D02*
X143950001Y-115900000D01*
G75*
G02*
X144200000Y-116149999I0J-249999D01*
G01*
X144200000Y-116850001D01*
G75*
G02*
X143950001Y-117100000I-249999J0D01*
G01*
X143049999Y-117100000D01*
G75*
G02*
X142800000Y-116850001I0J249999D01*
G01*
X142800000Y-116149999D01*
G75*
G02*
X143049999Y-115900000I249999J0D01*
G01*
G37*
%TD.AperFunction*%
%TO.P,R5,1*%
%TO.N,Net-(R5-Pad1)*%
%TA.AperFunction,SMDPad,CuDef*%
G36*
G01*
X143049999Y-113900000D02*
X143950001Y-113900000D01*
G75*
G02*
X144200000Y-114149999I0J-249999D01*
G01*
X144200000Y-114850001D01*
G75*
G02*
X143950001Y-115100000I-249999J0D01*
G01*
X143049999Y-115100000D01*
G75*
G02*
X142800000Y-114850001I0J249999D01*
G01*
X142800000Y-114149999D01*
G75*
G02*
X143049999Y-113900000I249999J0D01*
G01*
G37*
%TD.AperFunction*%
%TD*%
D15*
%TO.P,J2,1*%
%TO.N,Net-(J2-Pad1)*%
X128000000Y-99500000D03*
D14*
%TO.P,J2,2*%
%TO.N,Net-(J2-Pad2)*%
X125460000Y-100770000D03*
%TO.P,J2,3*%
%TO.N,Net-(C1-Pad2)*%
X128000000Y-102040000D03*
%TO.P,J2,4*%
%TO.N,Net-(J2-Pad4)*%
X125460000Y-103310000D03*
%TO.P,J2,5*%
%TO.N,Net-(J2-Pad5)*%
X128000000Y-104580000D03*
%TO.P,J2,6*%
%TO.N,Net-(C1-Pad2)*%
X125460000Y-105850000D03*
%TD*%
D13*
%TO.P,U1,2*%
%TO.N,Net-(C1-Pad1)*%
X141000000Y-104150000D03*
D12*
X141000000Y-97850000D03*
%TO.P,U1,3*%
%TO.N,Net-(J1-Pad1)*%
X143300000Y-97850000D03*
%TO.P,U1,1*%
%TO.N,Net-(C1-Pad2)*%
X138700000Y-97850000D03*
%TD*%
%TO.P,R4,2*%
%TO.N,Net-(J2-Pad1)*%
%TA.AperFunction,SMDPad,CuDef*%
G36*
G01*
X138100000Y-109049999D02*
X138100000Y-109950001D01*
G75*
G02*
X137850001Y-110200000I-249999J0D01*
G01*
X137149999Y-110200000D01*
G75*
G02*
X136900000Y-109950001I0J249999D01*
G01*
X136900000Y-109049999D01*
G75*
G02*
X137149999Y-108800000I249999J0D01*
G01*
X137850001Y-108800000D01*
G75*
G02*
X138100000Y-109049999I0J-249999D01*
G01*
G37*
%TD.AperFunction*%
%TO.P,R4,1*%
%TO.N,Net-(P3-Pad1)*%
%TA.AperFunction,SMDPad,CuDef*%
G36*
G01*
X140100000Y-109049999D02*
X140100000Y-109950001D01*
G75*
G02*
X139850001Y-110200000I-249999J0D01*
G01*
X139149999Y-110200000D01*
G75*
G02*
X138900000Y-109950001I0J249999D01*
G01*
X138900000Y-109049999D01*
G75*
G02*
X139149999Y-108800000I249999J0D01*
G01*
X139850001Y-108800000D01*
G75*
G02*
X140100000Y-109049999I0J-249999D01*
G01*
G37*
%TD.AperFunction*%
%TD*%
%TO.P,R5,1*%
%TO.N,Net-(R5-Pad1)*%
%TA.AperFunction,SMDPad,CuDef*%
G36*
G01*
X110049999Y-113900000D02*
X110950001Y-113900000D01*
G75*
G02*
X111200000Y-114149999I0J-249999D01*
G01*
X111200000Y-114850001D01*
G75*
G02*
X110950001Y-115100000I-249999J0D01*
G01*
X110049999Y-115100000D01*
G75*
G02*
X109800000Y-114850001I0J249999D01*
G01*
X109800000Y-114149999D01*
G75*
G02*
X110049999Y-113900000I249999J0D01*
G01*
G37*
%TD.AperFunction*%
%TO.P,R5,2*%
%TO.N,Net-(C1-Pad2)*%
%TA.AperFunction,SMDPad,CuDef*%
G36*
G01*
X110049999Y-115900000D02*
X110950001Y-115900000D01*
G75*
G02*
X111200000Y-116149999I0J-249999D01*
G01*
X111200000Y-116850001D01*
G75*
G02*
X110950001Y-117100000I-249999J0D01*
G01*
X110049999Y-117100000D01*
G75*
G02*
X109800000Y-116850001I0J249999D01*
G01*
X109800000Y-116149999D01*
G75*
G02*
X110049999Y-115900000I249999J0D01*
G01*
G37*
%TD.AperFunction*%
%TD*%
%TO.P,P3,1*%
%TO.N,Net-(P3-Pad1)*%
%TA.AperFunction,SMDPad,CuDef*%
G36*
G01*
X110400000Y-106275000D02*
X110600000Y-106275000D01*
G75*
G02*
X110700000Y-106375000I0J-100000D01*
G01*
X110700000Y-106810000D01*
G75*
G02*
X110600000Y-106910000I-100000J0D01*
G01*
X110400000Y-106910000D01*
G75*
G02*
X110300000Y-106810000I0J100000D01*
G01*
X110300000Y-106375000D01*
G75*
G02*
X110400000Y-106275000I100000J0D01*
G01*
G37*
%TD.AperFunction*%
%TO.P,P3,2*%
%TO.N,Net-(P3-Pad2)*%
%TA.AperFunction,SMDPad,CuDef*%
G36*
G01*
X110400000Y-107090000D02*
X110600000Y-107090000D01*
G75*
G02*
X110700000Y-107190000I0J-100000D01*
G01*
X110700000Y-107625000D01*
G75*
G02*
X110600000Y-107725000I-100000J0D01*
G01*
X110400000Y-107725000D01*
G75*
G02*
X110300000Y-107625000I0J100000D01*
G01*
X110300000Y-107190000D01*
G75*
G02*
X110400000Y-107090000I100000J0D01*
G01*
G37*
%TD.AperFunction*%
%TD*%
%TO.P,R4,1*%
%TO.N,Net-(P3-Pad1)*%
%TA.AperFunction,SMDPad,CuDef*%
G36*
G01*
X107100000Y-109049999D02*
X107100000Y-109950001D01*
G75*
G02*
X106850001Y-110200000I-249999J0D01*
G01*
X106149999Y-110200000D01*
G75*
G02*
X105900000Y-109950001I0J249999D01*
G01*
X105900000Y-109049999D01*
G75*
G02*
X106149999Y-108800000I249999J0D01*
G01*
X106850001Y-108800000D01*
G75*
G02*
X107100000Y-109049999I0J-249999D01*
G01*
G37*
%TD.AperFunction*%
%TO.P,R4,2*%
%TO.N,Net-(J2-Pad1)*%
%TA.AperFunction,SMDPad,CuDef*%
G36*
G01*
X105100000Y-109049999D02*
X105100000Y-109950001D01*
G75*
G02*
X104850001Y-110200000I-249999J0D01*
G01*
X104149999Y-110200000D01*
G75*
G02*
X103900000Y-109950001I0J249999D01*
G01*
X103900000Y-109049999D01*
G75*
G02*
X104149999Y-108800000I249999J0D01*
G01*
X104850001Y-108800000D01*
G75*
G02*
X105100000Y-109049999I0J-249999D01*
G01*
G37*
%TD.AperFunction*%
%TD*%
%TO.P,P4,1*%
%TO.N,Net-(P3-Pad1)*%
%TA.AperFunction,SMDPad,CuDef*%
G36*
G01*
X110400000Y-109085000D02*
X110600000Y-109085000D01*
G75*
G02*
X110700000Y-109185000I0J-100000D01*
G01*
X110700000Y-109620000D01*
G75*
G02*
X110600000Y-109720000I-100000J0D01*
G01*
X110400000Y-109720000D01*
G75*
G02*
X110300000Y-109620000I0J100000D01*
G01*
X110300000Y-109185000D01*
G75*
G02*
X110400000Y-109085000I100000J0D01*
G01*
G37*
%TD.AperFunction*%
%TO.P,P4,2*%
%TO.N,Net-(P4-Pad2)*%
%TA.AperFunction,SMDPad,CuDef*%
G36*
G01*
X110400000Y-109900000D02*
X110600000Y-109900000D01*
G75*
G02*
X110700000Y-110000000I0J-100000D01*
G01*
X110700000Y-110435000D01*
G75*
G02*
X110600000Y-110535000I-100000J0D01*
G01*
X110400000Y-110535000D01*
G75*
G02*
X110300000Y-110435000I0J100000D01*
G01*
X110300000Y-110000000D01*
G75*
G02*
X110400000Y-109900000I100000J0D01*
G01*
G37*
%TD.AperFunction*%
%TD*%
%TO.P,R6,1*%
%TO.N,Net-(J2-Pad5)*%
%TA.AperFunction,SMDPad,CuDef*%
G36*
G01*
X101549999Y-103400000D02*
X102450001Y-103400000D01*
G75*
G02*
X102700000Y-103649999I0J-249999D01*
G01*
X102700000Y-104350001D01*
G75*
G02*
X102450001Y-104600000I-249999J0D01*
G01*
X101549999Y-104600000D01*
G75*
G02*
X101300000Y-104350001I0J249999D01*
G01*
X101300000Y-103649999D01*
G75*
G02*
X101549999Y-103400000I249999J0D01*
G01*
G37*
%TD.AperFunction*%
%TO.P,R6,2*%
%TO.N,Net-(J2-Pad1)*%
%TA.AperFunction,SMDPad,CuDef*%
G36*
G01*
X101549999Y-105400000D02*
X102450001Y-105400000D01*
G75*
G02*
X102700000Y-105649999I0J-249999D01*
G01*
X102700000Y-106350001D01*
G75*
G02*
X102450001Y-106600000I-249999J0D01*
G01*
X101549999Y-106600000D01*
G75*
G02*
X101300000Y-106350001I0J249999D01*
G01*
X101300000Y-105649999D01*
G75*
G02*
X101549999Y-105400000I249999J0D01*
G01*
G37*
%TD.AperFunction*%
%TD*%
%TO.P,P3,2*%
%TO.N,Net-(P3-Pad2)*%
%TA.AperFunction,SMDPad,CuDef*%
G36*
G01*
X77400000Y-107090000D02*
X77600000Y-107090000D01*
G75*
G02*
X77700000Y-107190000I0J-100000D01*
G01*
X77700000Y-107625000D01*
G75*
G02*
X77600000Y-107725000I-100000J0D01*
G01*
X77400000Y-107725000D01*
G75*
G02*
X77300000Y-107625000I0J100000D01*
G01*
X77300000Y-107190000D01*
G75*
G02*
X77400000Y-107090000I100000J0D01*
G01*
G37*
%TD.AperFunction*%
%TO.P,P3,1*%
%TO.N,Net-(P3-Pad1)*%
%TA.AperFunction,SMDPad,CuDef*%
G36*
G01*
X77400000Y-106275000D02*
X77600000Y-106275000D01*
G75*
G02*
X77700000Y-106375000I0J-100000D01*
G01*
X77700000Y-106810000D01*
G75*
G02*
X77600000Y-106910000I-100000J0D01*
G01*
X77400000Y-106910000D01*
G75*
G02*
X77300000Y-106810000I0J100000D01*
G01*
X77300000Y-106375000D01*
G75*
G02*
X77400000Y-106275000I100000J0D01*
G01*
G37*
%TD.AperFunction*%
%TD*%
%TO.P,R6,2*%
%TO.N,Net-(J2-Pad1)*%
%TA.AperFunction,SMDPad,CuDef*%
G36*
G01*
X68549999Y-105400000D02*
X69450001Y-105400000D01*
G75*
G02*
X69700000Y-105649999I0J-249999D01*
G01*
X69700000Y-106350001D01*
G75*
G02*
X69450001Y-106600000I-249999J0D01*
G01*
X68549999Y-106600000D01*
G75*
G02*
X68300000Y-106350001I0J249999D01*
G01*
X68300000Y-105649999D01*
G75*
G02*
X68549999Y-105400000I249999J0D01*
G01*
G37*
%TD.AperFunction*%
%TO.P,R6,1*%
%TO.N,Net-(J2-Pad5)*%
%TA.AperFunction,SMDPad,CuDef*%
G36*
G01*
X68549999Y-103400000D02*
X69450001Y-103400000D01*
G75*
G02*
X69700000Y-103649999I0J-249999D01*
G01*
X69700000Y-104350001D01*
G75*
G02*
X69450001Y-104600000I-249999J0D01*
G01*
X68549999Y-104600000D01*
G75*
G02*
X68300000Y-104350001I0J249999D01*
G01*
X68300000Y-103649999D01*
G75*
G02*
X68549999Y-103400000I249999J0D01*
G01*
G37*
%TD.AperFunction*%
%TD*%
%TO.P,U1,1*%
%TO.N,Net-(C1-Pad2)*%
X105700000Y-97850000D03*
%TO.P,U1,3*%
%TO.N,Net-(J1-Pad1)*%
X110300000Y-97850000D03*
%TO.P,U1,2*%
%TO.N,Net-(C1-Pad1)*%
X108000000Y-97850000D03*
D13*
X108000000Y-104150000D03*
%TD*%
%TO.P,P3,2*%
%TO.N,Net-(P3-Pad2)*%
%TA.AperFunction,SMDPad,CuDef*%
G36*
G01*
X143400000Y-107090000D02*
X143600000Y-107090000D01*
G75*
G02*
X143700000Y-107190000I0J-100000D01*
G01*
X143700000Y-107625000D01*
G75*
G02*
X143600000Y-107725000I-100000J0D01*
G01*
X143400000Y-107725000D01*
G75*
G02*
X143300000Y-107625000I0J100000D01*
G01*
X143300000Y-107190000D01*
G75*
G02*
X143400000Y-107090000I100000J0D01*
G01*
G37*
%TD.AperFunction*%
%TO.P,P3,1*%
%TO.N,Net-(P3-Pad1)*%
%TA.AperFunction,SMDPad,CuDef*%
G36*
G01*
X143400000Y-106275000D02*
X143600000Y-106275000D01*
G75*
G02*
X143700000Y-106375000I0J-100000D01*
G01*
X143700000Y-106810000D01*
G75*
G02*
X143600000Y-106910000I-100000J0D01*
G01*
X143400000Y-106910000D01*
G75*
G02*
X143300000Y-106810000I0J100000D01*
G01*
X143300000Y-106375000D01*
G75*
G02*
X143400000Y-106275000I100000J0D01*
G01*
G37*
%TD.AperFunction*%
%TD*%
D10*
%TO.P,Q1,1*%
%TO.N,Net-(J2-Pad5)*%
X99000000Y-100450000D03*
%TO.P,Q1,2*%
%TO.N,Net-(C1-Pad2)*%
X99000000Y-98550000D03*
%TO.P,Q1,3*%
%TO.N,Net-(P3-Pad1)*%
X101000000Y-99500000D03*
%TD*%
%TO.P,Q1,3*%
%TO.N,Net-(P3-Pad1)*%
X134000000Y-99500000D03*
%TO.P,Q1,2*%
%TO.N,Net-(C1-Pad2)*%
X132000000Y-98550000D03*
%TO.P,Q1,1*%
%TO.N,Net-(J2-Pad5)*%
X132000000Y-100450000D03*
%TD*%
%TO.P,C1,1*%
%TO.N,Net-(C1-Pad1)*%
%TA.AperFunction,SMDPad,CuDef*%
G36*
G01*
X102275000Y-115650001D02*
X102275000Y-114349999D01*
G75*
G02*
X102524999Y-114100000I249999J0D01*
G01*
X103350001Y-114100000D01*
G75*
G02*
X103600000Y-114349999I0J-249999D01*
G01*
X103600000Y-115650001D01*
G75*
G02*
X103350001Y-115900000I-249999J0D01*
G01*
X102524999Y-115900000D01*
G75*
G02*
X102275000Y-115650001I0J249999D01*
G01*
G37*
%TD.AperFunction*%
%TO.P,C1,2*%
%TO.N,Net-(C1-Pad2)*%
%TA.AperFunction,SMDPad,CuDef*%
G36*
G01*
X105400000Y-115650001D02*
X105400000Y-114349999D01*
G75*
G02*
X105649999Y-114100000I249999J0D01*
G01*
X106475001Y-114100000D01*
G75*
G02*
X106725000Y-114349999I0J-249999D01*
G01*
X106725000Y-115650001D01*
G75*
G02*
X106475001Y-115900000I-249999J0D01*
G01*
X105649999Y-115900000D01*
G75*
G02*
X105400000Y-115650001I0J249999D01*
G01*
G37*
%TD.AperFunction*%
%TD*%
D14*
%TO.P,J2,6*%
%TO.N,Net-(C1-Pad2)*%
X92460000Y-105850000D03*
%TO.P,J2,5*%
%TO.N,Net-(J2-Pad5)*%
X95000000Y-104580000D03*
%TO.P,J2,4*%
%TO.N,Net-(J2-Pad4)*%
X92460000Y-103310000D03*
%TO.P,J2,3*%
%TO.N,Net-(C1-Pad2)*%
X95000000Y-102040000D03*
%TO.P,J2,2*%
%TO.N,Net-(J2-Pad2)*%
X92460000Y-100770000D03*
D15*
%TO.P,J2,1*%
%TO.N,Net-(J2-Pad1)*%
X95000000Y-99500000D03*
%TD*%
%TO.P,P4,2*%
%TO.N,Net-(P4-Pad2)*%
%TA.AperFunction,SMDPad,CuDef*%
G36*
G01*
X143400000Y-109900000D02*
X143600000Y-109900000D01*
G75*
G02*
X143700000Y-110000000I0J-100000D01*
G01*
X143700000Y-110435000D01*
G75*
G02*
X143600000Y-110535000I-100000J0D01*
G01*
X143400000Y-110535000D01*
G75*
G02*
X143300000Y-110435000I0J100000D01*
G01*
X143300000Y-110000000D01*
G75*
G02*
X143400000Y-109900000I100000J0D01*
G01*
G37*
%TD.AperFunction*%
%TO.P,P4,1*%
%TO.N,Net-(P3-Pad1)*%
%TA.AperFunction,SMDPad,CuDef*%
G36*
G01*
X143400000Y-109085000D02*
X143600000Y-109085000D01*
G75*
G02*
X143700000Y-109185000I0J-100000D01*
G01*
X143700000Y-109620000D01*
G75*
G02*
X143600000Y-109720000I-100000J0D01*
G01*
X143400000Y-109720000D01*
G75*
G02*
X143300000Y-109620000I0J100000D01*
G01*
X143300000Y-109185000D01*
G75*
G02*
X143400000Y-109085000I100000J0D01*
G01*
G37*
%TD.AperFunction*%
%TD*%
%TO.P,R6,2*%
%TO.N,Net-(J2-Pad1)*%
%TA.AperFunction,SMDPad,CuDef*%
G36*
G01*
X134549999Y-105400000D02*
X135450001Y-105400000D01*
G75*
G02*
X135700000Y-105649999I0J-249999D01*
G01*
X135700000Y-106350001D01*
G75*
G02*
X135450001Y-106600000I-249999J0D01*
G01*
X134549999Y-106600000D01*
G75*
G02*
X134300000Y-106350001I0J249999D01*
G01*
X134300000Y-105649999D01*
G75*
G02*
X134549999Y-105400000I249999J0D01*
G01*
G37*
%TD.AperFunction*%
%TO.P,R6,1*%
%TO.N,Net-(J2-Pad5)*%
%TA.AperFunction,SMDPad,CuDef*%
G36*
G01*
X134549999Y-103400000D02*
X135450001Y-103400000D01*
G75*
G02*
X135700000Y-103649999I0J-249999D01*
G01*
X135700000Y-104350001D01*
G75*
G02*
X135450001Y-104600000I-249999J0D01*
G01*
X134549999Y-104600000D01*
G75*
G02*
X134300000Y-104350001I0J249999D01*
G01*
X134300000Y-103649999D01*
G75*
G02*
X134549999Y-103400000I249999J0D01*
G01*
G37*
%TD.AperFunction*%
%TD*%
D11*
%TO.P,J1,*%
%TO.N,*%
X116300000Y-119075000D03*
X116300000Y-111925000D03*
%TD*%
%TO.P,J1,*%
%TO.N,*%
X83300000Y-111925000D03*
X83300000Y-119075000D03*
%TD*%
D15*
%TO.P,J2,1*%
%TO.N,Net-(J2-Pad1)*%
X95000000Y-74500000D03*
D14*
%TO.P,J2,2*%
%TO.N,Net-(J2-Pad2)*%
X92460000Y-75770000D03*
%TO.P,J2,3*%
%TO.N,Net-(C1-Pad2)*%
X95000000Y-77040000D03*
%TO.P,J2,4*%
%TO.N,Net-(J2-Pad4)*%
X92460000Y-78310000D03*
%TO.P,J2,5*%
%TO.N,Net-(J2-Pad5)*%
X95000000Y-79580000D03*
%TO.P,J2,6*%
%TO.N,Net-(C1-Pad2)*%
X92460000Y-80850000D03*
%TD*%
%TO.P,C1,2*%
%TO.N,Net-(C1-Pad2)*%
%TA.AperFunction,SMDPad,CuDef*%
G36*
G01*
X105400000Y-90650001D02*
X105400000Y-89349999D01*
G75*
G02*
X105649999Y-89100000I249999J0D01*
G01*
X106475001Y-89100000D01*
G75*
G02*
X106725000Y-89349999I0J-249999D01*
G01*
X106725000Y-90650001D01*
G75*
G02*
X106475001Y-90900000I-249999J0D01*
G01*
X105649999Y-90900000D01*
G75*
G02*
X105400000Y-90650001I0J249999D01*
G01*
G37*
%TD.AperFunction*%
%TO.P,C1,1*%
%TO.N,Net-(C1-Pad1)*%
%TA.AperFunction,SMDPad,CuDef*%
G36*
G01*
X102275000Y-90650001D02*
X102275000Y-89349999D01*
G75*
G02*
X102524999Y-89100000I249999J0D01*
G01*
X103350001Y-89100000D01*
G75*
G02*
X103600000Y-89349999I0J-249999D01*
G01*
X103600000Y-90650001D01*
G75*
G02*
X103350001Y-90900000I-249999J0D01*
G01*
X102524999Y-90900000D01*
G75*
G02*
X102275000Y-90650001I0J249999D01*
G01*
G37*
%TD.AperFunction*%
%TD*%
D10*
%TO.P,Q1,3*%
%TO.N,Net-(P3-Pad1)*%
X101000000Y-74500000D03*
%TO.P,Q1,2*%
%TO.N,Net-(C1-Pad2)*%
X99000000Y-73550000D03*
%TO.P,Q1,1*%
%TO.N,Net-(J2-Pad5)*%
X99000000Y-75450000D03*
%TD*%
D11*
%TO.P,J1,*%
%TO.N,*%
X83300000Y-94075000D03*
X83300000Y-86925000D03*
%TD*%
%TO.P,P4,1*%
%TO.N,Net-(P3-Pad1)*%
%TA.AperFunction,SMDPad,CuDef*%
G36*
G01*
X143400000Y-84085000D02*
X143600000Y-84085000D01*
G75*
G02*
X143700000Y-84185000I0J-100000D01*
G01*
X143700000Y-84620000D01*
G75*
G02*
X143600000Y-84720000I-100000J0D01*
G01*
X143400000Y-84720000D01*
G75*
G02*
X143300000Y-84620000I0J100000D01*
G01*
X143300000Y-84185000D01*
G75*
G02*
X143400000Y-84085000I100000J0D01*
G01*
G37*
%TD.AperFunction*%
%TO.P,P4,2*%
%TO.N,Net-(P4-Pad2)*%
%TA.AperFunction,SMDPad,CuDef*%
G36*
G01*
X143400000Y-84900000D02*
X143600000Y-84900000D01*
G75*
G02*
X143700000Y-85000000I0J-100000D01*
G01*
X143700000Y-85435000D01*
G75*
G02*
X143600000Y-85535000I-100000J0D01*
G01*
X143400000Y-85535000D01*
G75*
G02*
X143300000Y-85435000I0J100000D01*
G01*
X143300000Y-85000000D01*
G75*
G02*
X143400000Y-84900000I100000J0D01*
G01*
G37*
%TD.AperFunction*%
%TD*%
%TO.P,R6,1*%
%TO.N,Net-(J2-Pad5)*%
%TA.AperFunction,SMDPad,CuDef*%
G36*
G01*
X134549999Y-78400000D02*
X135450001Y-78400000D01*
G75*
G02*
X135700000Y-78649999I0J-249999D01*
G01*
X135700000Y-79350001D01*
G75*
G02*
X135450001Y-79600000I-249999J0D01*
G01*
X134549999Y-79600000D01*
G75*
G02*
X134300000Y-79350001I0J249999D01*
G01*
X134300000Y-78649999D01*
G75*
G02*
X134549999Y-78400000I249999J0D01*
G01*
G37*
%TD.AperFunction*%
%TO.P,R6,2*%
%TO.N,Net-(J2-Pad1)*%
%TA.AperFunction,SMDPad,CuDef*%
G36*
G01*
X134549999Y-80400000D02*
X135450001Y-80400000D01*
G75*
G02*
X135700000Y-80649999I0J-249999D01*
G01*
X135700000Y-81350001D01*
G75*
G02*
X135450001Y-81600000I-249999J0D01*
G01*
X134549999Y-81600000D01*
G75*
G02*
X134300000Y-81350001I0J249999D01*
G01*
X134300000Y-80649999D01*
G75*
G02*
X134549999Y-80400000I249999J0D01*
G01*
G37*
%TD.AperFunction*%
%TD*%
%TO.P,P3,1*%
%TO.N,Net-(P3-Pad1)*%
%TA.AperFunction,SMDPad,CuDef*%
G36*
G01*
X143400000Y-81275000D02*
X143600000Y-81275000D01*
G75*
G02*
X143700000Y-81375000I0J-100000D01*
G01*
X143700000Y-81810000D01*
G75*
G02*
X143600000Y-81910000I-100000J0D01*
G01*
X143400000Y-81910000D01*
G75*
G02*
X143300000Y-81810000I0J100000D01*
G01*
X143300000Y-81375000D01*
G75*
G02*
X143400000Y-81275000I100000J0D01*
G01*
G37*
%TD.AperFunction*%
%TO.P,P3,2*%
%TO.N,Net-(P3-Pad2)*%
%TA.AperFunction,SMDPad,CuDef*%
G36*
G01*
X143400000Y-82090000D02*
X143600000Y-82090000D01*
G75*
G02*
X143700000Y-82190000I0J-100000D01*
G01*
X143700000Y-82625000D01*
G75*
G02*
X143600000Y-82725000I-100000J0D01*
G01*
X143400000Y-82725000D01*
G75*
G02*
X143300000Y-82625000I0J100000D01*
G01*
X143300000Y-82190000D01*
G75*
G02*
X143400000Y-82090000I100000J0D01*
G01*
G37*
%TD.AperFunction*%
%TD*%
D10*
%TO.P,Q1,1*%
%TO.N,Net-(J2-Pad5)*%
X132000000Y-75450000D03*
%TO.P,Q1,2*%
%TO.N,Net-(C1-Pad2)*%
X132000000Y-73550000D03*
%TO.P,Q1,3*%
%TO.N,Net-(P3-Pad1)*%
X134000000Y-74500000D03*
%TD*%
D11*
%TO.P,J1,*%
%TO.N,*%
X116300000Y-86925000D03*
X116300000Y-94075000D03*
%TD*%
%TO.P,C1,1*%
%TO.N,Net-(C1-Pad1)*%
%TA.AperFunction,SMDPad,CuDef*%
G36*
G01*
X135275000Y-90650001D02*
X135275000Y-89349999D01*
G75*
G02*
X135524999Y-89100000I249999J0D01*
G01*
X136350001Y-89100000D01*
G75*
G02*
X136600000Y-89349999I0J-249999D01*
G01*
X136600000Y-90650001D01*
G75*
G02*
X136350001Y-90900000I-249999J0D01*
G01*
X135524999Y-90900000D01*
G75*
G02*
X135275000Y-90650001I0J249999D01*
G01*
G37*
%TD.AperFunction*%
%TO.P,C1,2*%
%TO.N,Net-(C1-Pad2)*%
%TA.AperFunction,SMDPad,CuDef*%
G36*
G01*
X138400000Y-90650001D02*
X138400000Y-89349999D01*
G75*
G02*
X138649999Y-89100000I249999J0D01*
G01*
X139475001Y-89100000D01*
G75*
G02*
X139725000Y-89349999I0J-249999D01*
G01*
X139725000Y-90650001D01*
G75*
G02*
X139475001Y-90900000I-249999J0D01*
G01*
X138649999Y-90900000D01*
G75*
G02*
X138400000Y-90650001I0J249999D01*
G01*
G37*
%TD.AperFunction*%
%TD*%
%TO.P,R5,1*%
%TO.N,Net-(R5-Pad1)*%
%TA.AperFunction,SMDPad,CuDef*%
G36*
G01*
X143049999Y-88900000D02*
X143950001Y-88900000D01*
G75*
G02*
X144200000Y-89149999I0J-249999D01*
G01*
X144200000Y-89850001D01*
G75*
G02*
X143950001Y-90100000I-249999J0D01*
G01*
X143049999Y-90100000D01*
G75*
G02*
X142800000Y-89850001I0J249999D01*
G01*
X142800000Y-89149999D01*
G75*
G02*
X143049999Y-88900000I249999J0D01*
G01*
G37*
%TD.AperFunction*%
%TO.P,R5,2*%
%TO.N,Net-(C1-Pad2)*%
%TA.AperFunction,SMDPad,CuDef*%
G36*
G01*
X143049999Y-90900000D02*
X143950001Y-90900000D01*
G75*
G02*
X144200000Y-91149999I0J-249999D01*
G01*
X144200000Y-91850001D01*
G75*
G02*
X143950001Y-92100000I-249999J0D01*
G01*
X143049999Y-92100000D01*
G75*
G02*
X142800000Y-91850001I0J249999D01*
G01*
X142800000Y-91149999D01*
G75*
G02*
X143049999Y-90900000I249999J0D01*
G01*
G37*
%TD.AperFunction*%
%TD*%
D14*
%TO.P,J2,6*%
%TO.N,Net-(C1-Pad2)*%
X125460000Y-80850000D03*
%TO.P,J2,5*%
%TO.N,Net-(J2-Pad5)*%
X128000000Y-79580000D03*
%TO.P,J2,4*%
%TO.N,Net-(J2-Pad4)*%
X125460000Y-78310000D03*
%TO.P,J2,3*%
%TO.N,Net-(C1-Pad2)*%
X128000000Y-77040000D03*
%TO.P,J2,2*%
%TO.N,Net-(J2-Pad2)*%
X125460000Y-75770000D03*
D15*
%TO.P,J2,1*%
%TO.N,Net-(J2-Pad1)*%
X128000000Y-74500000D03*
%TD*%
D12*
%TO.P,U1,1*%
%TO.N,Net-(C1-Pad2)*%
X138700000Y-72850000D03*
%TO.P,U1,3*%
%TO.N,Net-(J1-Pad1)*%
X143300000Y-72850000D03*
%TO.P,U1,2*%
%TO.N,Net-(C1-Pad1)*%
X141000000Y-72850000D03*
D13*
X141000000Y-79150000D03*
%TD*%
%TO.P,R4,1*%
%TO.N,Net-(P3-Pad1)*%
%TA.AperFunction,SMDPad,CuDef*%
G36*
G01*
X140100000Y-84049999D02*
X140100000Y-84950001D01*
G75*
G02*
X139850001Y-85200000I-249999J0D01*
G01*
X139149999Y-85200000D01*
G75*
G02*
X138900000Y-84950001I0J249999D01*
G01*
X138900000Y-84049999D01*
G75*
G02*
X139149999Y-83800000I249999J0D01*
G01*
X139850001Y-83800000D01*
G75*
G02*
X140100000Y-84049999I0J-249999D01*
G01*
G37*
%TD.AperFunction*%
%TO.P,R4,2*%
%TO.N,Net-(J2-Pad1)*%
%TA.AperFunction,SMDPad,CuDef*%
G36*
G01*
X138100000Y-84049999D02*
X138100000Y-84950001D01*
G75*
G02*
X137850001Y-85200000I-249999J0D01*
G01*
X137149999Y-85200000D01*
G75*
G02*
X136900000Y-84950001I0J249999D01*
G01*
X136900000Y-84049999D01*
G75*
G02*
X137149999Y-83800000I249999J0D01*
G01*
X137850001Y-83800000D01*
G75*
G02*
X138100000Y-84049999I0J-249999D01*
G01*
G37*
%TD.AperFunction*%
%TD*%
D10*
%TO.P,Q1,1*%
%TO.N,Net-(J2-Pad5)*%
X66000000Y-75450000D03*
%TO.P,Q1,2*%
%TO.N,Net-(C1-Pad2)*%
X66000000Y-73550000D03*
%TO.P,Q1,3*%
%TO.N,Net-(P3-Pad1)*%
X68000000Y-74500000D03*
%TD*%
D11*
%TO.P,J1,*%
%TO.N,*%
X50300000Y-86925000D03*
X50300000Y-94075000D03*
%TD*%
%TO.P,C1,1*%
%TO.N,Net-(C1-Pad1)*%
%TA.AperFunction,SMDPad,CuDef*%
G36*
G01*
X69275000Y-90650001D02*
X69275000Y-89349999D01*
G75*
G02*
X69524999Y-89100000I249999J0D01*
G01*
X70350001Y-89100000D01*
G75*
G02*
X70600000Y-89349999I0J-249999D01*
G01*
X70600000Y-90650001D01*
G75*
G02*
X70350001Y-90900000I-249999J0D01*
G01*
X69524999Y-90900000D01*
G75*
G02*
X69275000Y-90650001I0J249999D01*
G01*
G37*
%TD.AperFunction*%
%TO.P,C1,2*%
%TO.N,Net-(C1-Pad2)*%
%TA.AperFunction,SMDPad,CuDef*%
G36*
G01*
X72400000Y-90650001D02*
X72400000Y-89349999D01*
G75*
G02*
X72649999Y-89100000I249999J0D01*
G01*
X73475001Y-89100000D01*
G75*
G02*
X73725000Y-89349999I0J-249999D01*
G01*
X73725000Y-90650001D01*
G75*
G02*
X73475001Y-90900000I-249999J0D01*
G01*
X72649999Y-90900000D01*
G75*
G02*
X72400000Y-90650001I0J249999D01*
G01*
G37*
%TD.AperFunction*%
%TD*%
D14*
%TO.P,J2,6*%
%TO.N,Net-(C1-Pad2)*%
X59460000Y-80850000D03*
%TO.P,J2,5*%
%TO.N,Net-(J2-Pad5)*%
X62000000Y-79580000D03*
%TO.P,J2,4*%
%TO.N,Net-(J2-Pad4)*%
X59460000Y-78310000D03*
%TO.P,J2,3*%
%TO.N,Net-(C1-Pad2)*%
X62000000Y-77040000D03*
%TO.P,J2,2*%
%TO.N,Net-(J2-Pad2)*%
X59460000Y-75770000D03*
D15*
%TO.P,J2,1*%
%TO.N,Net-(J2-Pad1)*%
X62000000Y-74500000D03*
%TD*%
D12*
%TO.P,U1,1*%
%TO.N,Net-(C1-Pad2)*%
X72700000Y-72850000D03*
%TO.P,U1,3*%
%TO.N,Net-(J1-Pad1)*%
X77300000Y-72850000D03*
%TO.P,U1,2*%
%TO.N,Net-(C1-Pad1)*%
X75000000Y-72850000D03*
D13*
X75000000Y-79150000D03*
%TD*%
%TO.P,R4,1*%
%TO.N,Net-(P3-Pad1)*%
%TA.AperFunction,SMDPad,CuDef*%
G36*
G01*
X74100000Y-84049999D02*
X74100000Y-84950001D01*
G75*
G02*
X73850001Y-85200000I-249999J0D01*
G01*
X73149999Y-85200000D01*
G75*
G02*
X72900000Y-84950001I0J249999D01*
G01*
X72900000Y-84049999D01*
G75*
G02*
X73149999Y-83800000I249999J0D01*
G01*
X73850001Y-83800000D01*
G75*
G02*
X74100000Y-84049999I0J-249999D01*
G01*
G37*
%TD.AperFunction*%
%TO.P,R4,2*%
%TO.N,Net-(J2-Pad1)*%
%TA.AperFunction,SMDPad,CuDef*%
G36*
G01*
X72100000Y-84049999D02*
X72100000Y-84950001D01*
G75*
G02*
X71850001Y-85200000I-249999J0D01*
G01*
X71149999Y-85200000D01*
G75*
G02*
X70900000Y-84950001I0J249999D01*
G01*
X70900000Y-84049999D01*
G75*
G02*
X71149999Y-83800000I249999J0D01*
G01*
X71850001Y-83800000D01*
G75*
G02*
X72100000Y-84049999I0J-249999D01*
G01*
G37*
%TD.AperFunction*%
%TD*%
%TO.P,R5,1*%
%TO.N,Net-(R5-Pad1)*%
%TA.AperFunction,SMDPad,CuDef*%
G36*
G01*
X77049999Y-88900000D02*
X77950001Y-88900000D01*
G75*
G02*
X78200000Y-89149999I0J-249999D01*
G01*
X78200000Y-89850001D01*
G75*
G02*
X77950001Y-90100000I-249999J0D01*
G01*
X77049999Y-90100000D01*
G75*
G02*
X76800000Y-89850001I0J249999D01*
G01*
X76800000Y-89149999D01*
G75*
G02*
X77049999Y-88900000I249999J0D01*
G01*
G37*
%TD.AperFunction*%
%TO.P,R5,2*%
%TO.N,Net-(C1-Pad2)*%
%TA.AperFunction,SMDPad,CuDef*%
G36*
G01*
X77049999Y-90900000D02*
X77950001Y-90900000D01*
G75*
G02*
X78200000Y-91149999I0J-249999D01*
G01*
X78200000Y-91850001D01*
G75*
G02*
X77950001Y-92100000I-249999J0D01*
G01*
X77049999Y-92100000D01*
G75*
G02*
X76800000Y-91850001I0J249999D01*
G01*
X76800000Y-91149999D01*
G75*
G02*
X77049999Y-90900000I249999J0D01*
G01*
G37*
%TD.AperFunction*%
%TD*%
%TO.P,P4,1*%
%TO.N,Net-(P3-Pad1)*%
%TA.AperFunction,SMDPad,CuDef*%
G36*
G01*
X77400000Y-84085000D02*
X77600000Y-84085000D01*
G75*
G02*
X77700000Y-84185000I0J-100000D01*
G01*
X77700000Y-84620000D01*
G75*
G02*
X77600000Y-84720000I-100000J0D01*
G01*
X77400000Y-84720000D01*
G75*
G02*
X77300000Y-84620000I0J100000D01*
G01*
X77300000Y-84185000D01*
G75*
G02*
X77400000Y-84085000I100000J0D01*
G01*
G37*
%TD.AperFunction*%
%TO.P,P4,2*%
%TO.N,Net-(P4-Pad2)*%
%TA.AperFunction,SMDPad,CuDef*%
G36*
G01*
X77400000Y-84900000D02*
X77600000Y-84900000D01*
G75*
G02*
X77700000Y-85000000I0J-100000D01*
G01*
X77700000Y-85435000D01*
G75*
G02*
X77600000Y-85535000I-100000J0D01*
G01*
X77400000Y-85535000D01*
G75*
G02*
X77300000Y-85435000I0J100000D01*
G01*
X77300000Y-85000000D01*
G75*
G02*
X77400000Y-84900000I100000J0D01*
G01*
G37*
%TD.AperFunction*%
%TD*%
%TO.P,P3,1*%
%TO.N,Net-(P3-Pad1)*%
%TA.AperFunction,SMDPad,CuDef*%
G36*
G01*
X77400000Y-81275000D02*
X77600000Y-81275000D01*
G75*
G02*
X77700000Y-81375000I0J-100000D01*
G01*
X77700000Y-81810000D01*
G75*
G02*
X77600000Y-81910000I-100000J0D01*
G01*
X77400000Y-81910000D01*
G75*
G02*
X77300000Y-81810000I0J100000D01*
G01*
X77300000Y-81375000D01*
G75*
G02*
X77400000Y-81275000I100000J0D01*
G01*
G37*
%TD.AperFunction*%
%TO.P,P3,2*%
%TO.N,Net-(P3-Pad2)*%
%TA.AperFunction,SMDPad,CuDef*%
G36*
G01*
X77400000Y-82090000D02*
X77600000Y-82090000D01*
G75*
G02*
X77700000Y-82190000I0J-100000D01*
G01*
X77700000Y-82625000D01*
G75*
G02*
X77600000Y-82725000I-100000J0D01*
G01*
X77400000Y-82725000D01*
G75*
G02*
X77300000Y-82625000I0J100000D01*
G01*
X77300000Y-82190000D01*
G75*
G02*
X77400000Y-82090000I100000J0D01*
G01*
G37*
%TD.AperFunction*%
%TD*%
%TO.P,R6,1*%
%TO.N,Net-(J2-Pad5)*%
%TA.AperFunction,SMDPad,CuDef*%
G36*
G01*
X68549999Y-78400000D02*
X69450001Y-78400000D01*
G75*
G02*
X69700000Y-78649999I0J-249999D01*
G01*
X69700000Y-79350001D01*
G75*
G02*
X69450001Y-79600000I-249999J0D01*
G01*
X68549999Y-79600000D01*
G75*
G02*
X68300000Y-79350001I0J249999D01*
G01*
X68300000Y-78649999D01*
G75*
G02*
X68549999Y-78400000I249999J0D01*
G01*
G37*
%TD.AperFunction*%
%TO.P,R6,2*%
%TO.N,Net-(J2-Pad1)*%
%TA.AperFunction,SMDPad,CuDef*%
G36*
G01*
X68549999Y-80400000D02*
X69450001Y-80400000D01*
G75*
G02*
X69700000Y-80649999I0J-249999D01*
G01*
X69700000Y-81350001D01*
G75*
G02*
X69450001Y-81600000I-249999J0D01*
G01*
X68549999Y-81600000D01*
G75*
G02*
X68300000Y-81350001I0J249999D01*
G01*
X68300000Y-80649999D01*
G75*
G02*
X68549999Y-80400000I249999J0D01*
G01*
G37*
%TD.AperFunction*%
%TD*%
%TO.P,U1,2*%
%TO.N,Net-(C1-Pad1)*%
X108000000Y-79150000D03*
D12*
X108000000Y-72850000D03*
%TO.P,U1,3*%
%TO.N,Net-(J1-Pad1)*%
X110300000Y-72850000D03*
%TO.P,U1,1*%
%TO.N,Net-(C1-Pad2)*%
X105700000Y-72850000D03*
%TD*%
%TO.P,R5,2*%
%TO.N,Net-(C1-Pad2)*%
%TA.AperFunction,SMDPad,CuDef*%
G36*
G01*
X110049999Y-90900000D02*
X110950001Y-90900000D01*
G75*
G02*
X111200000Y-91149999I0J-249999D01*
G01*
X111200000Y-91850001D01*
G75*
G02*
X110950001Y-92100000I-249999J0D01*
G01*
X110049999Y-92100000D01*
G75*
G02*
X109800000Y-91850001I0J249999D01*
G01*
X109800000Y-91149999D01*
G75*
G02*
X110049999Y-90900000I249999J0D01*
G01*
G37*
%TD.AperFunction*%
%TO.P,R5,1*%
%TO.N,Net-(R5-Pad1)*%
%TA.AperFunction,SMDPad,CuDef*%
G36*
G01*
X110049999Y-88900000D02*
X110950001Y-88900000D01*
G75*
G02*
X111200000Y-89149999I0J-249999D01*
G01*
X111200000Y-89850001D01*
G75*
G02*
X110950001Y-90100000I-249999J0D01*
G01*
X110049999Y-90100000D01*
G75*
G02*
X109800000Y-89850001I0J249999D01*
G01*
X109800000Y-89149999D01*
G75*
G02*
X110049999Y-88900000I249999J0D01*
G01*
G37*
%TD.AperFunction*%
%TD*%
%TO.P,P3,2*%
%TO.N,Net-(P3-Pad2)*%
%TA.AperFunction,SMDPad,CuDef*%
G36*
G01*
X110400000Y-82090000D02*
X110600000Y-82090000D01*
G75*
G02*
X110700000Y-82190000I0J-100000D01*
G01*
X110700000Y-82625000D01*
G75*
G02*
X110600000Y-82725000I-100000J0D01*
G01*
X110400000Y-82725000D01*
G75*
G02*
X110300000Y-82625000I0J100000D01*
G01*
X110300000Y-82190000D01*
G75*
G02*
X110400000Y-82090000I100000J0D01*
G01*
G37*
%TD.AperFunction*%
%TO.P,P3,1*%
%TO.N,Net-(P3-Pad1)*%
%TA.AperFunction,SMDPad,CuDef*%
G36*
G01*
X110400000Y-81275000D02*
X110600000Y-81275000D01*
G75*
G02*
X110700000Y-81375000I0J-100000D01*
G01*
X110700000Y-81810000D01*
G75*
G02*
X110600000Y-81910000I-100000J0D01*
G01*
X110400000Y-81910000D01*
G75*
G02*
X110300000Y-81810000I0J100000D01*
G01*
X110300000Y-81375000D01*
G75*
G02*
X110400000Y-81275000I100000J0D01*
G01*
G37*
%TD.AperFunction*%
%TD*%
%TO.P,R4,2*%
%TO.N,Net-(J2-Pad1)*%
%TA.AperFunction,SMDPad,CuDef*%
G36*
G01*
X105100000Y-84049999D02*
X105100000Y-84950001D01*
G75*
G02*
X104850001Y-85200000I-249999J0D01*
G01*
X104149999Y-85200000D01*
G75*
G02*
X103900000Y-84950001I0J249999D01*
G01*
X103900000Y-84049999D01*
G75*
G02*
X104149999Y-83800000I249999J0D01*
G01*
X104850001Y-83800000D01*
G75*
G02*
X105100000Y-84049999I0J-249999D01*
G01*
G37*
%TD.AperFunction*%
%TO.P,R4,1*%
%TO.N,Net-(P3-Pad1)*%
%TA.AperFunction,SMDPad,CuDef*%
G36*
G01*
X107100000Y-84049999D02*
X107100000Y-84950001D01*
G75*
G02*
X106850001Y-85200000I-249999J0D01*
G01*
X106149999Y-85200000D01*
G75*
G02*
X105900000Y-84950001I0J249999D01*
G01*
X105900000Y-84049999D01*
G75*
G02*
X106149999Y-83800000I249999J0D01*
G01*
X106850001Y-83800000D01*
G75*
G02*
X107100000Y-84049999I0J-249999D01*
G01*
G37*
%TD.AperFunction*%
%TD*%
%TO.P,P4,2*%
%TO.N,Net-(P4-Pad2)*%
%TA.AperFunction,SMDPad,CuDef*%
G36*
G01*
X110400000Y-84900000D02*
X110600000Y-84900000D01*
G75*
G02*
X110700000Y-85000000I0J-100000D01*
G01*
X110700000Y-85435000D01*
G75*
G02*
X110600000Y-85535000I-100000J0D01*
G01*
X110400000Y-85535000D01*
G75*
G02*
X110300000Y-85435000I0J100000D01*
G01*
X110300000Y-85000000D01*
G75*
G02*
X110400000Y-84900000I100000J0D01*
G01*
G37*
%TD.AperFunction*%
%TO.P,P4,1*%
%TO.N,Net-(P3-Pad1)*%
%TA.AperFunction,SMDPad,CuDef*%
G36*
G01*
X110400000Y-84085000D02*
X110600000Y-84085000D01*
G75*
G02*
X110700000Y-84185000I0J-100000D01*
G01*
X110700000Y-84620000D01*
G75*
G02*
X110600000Y-84720000I-100000J0D01*
G01*
X110400000Y-84720000D01*
G75*
G02*
X110300000Y-84620000I0J100000D01*
G01*
X110300000Y-84185000D01*
G75*
G02*
X110400000Y-84085000I100000J0D01*
G01*
G37*
%TD.AperFunction*%
%TD*%
%TO.P,R6,2*%
%TO.N,Net-(J2-Pad1)*%
%TA.AperFunction,SMDPad,CuDef*%
G36*
G01*
X101549999Y-80400000D02*
X102450001Y-80400000D01*
G75*
G02*
X102700000Y-80649999I0J-249999D01*
G01*
X102700000Y-81350001D01*
G75*
G02*
X102450001Y-81600000I-249999J0D01*
G01*
X101549999Y-81600000D01*
G75*
G02*
X101300000Y-81350001I0J249999D01*
G01*
X101300000Y-80649999D01*
G75*
G02*
X101549999Y-80400000I249999J0D01*
G01*
G37*
%TD.AperFunction*%
%TO.P,R6,1*%
%TO.N,Net-(J2-Pad5)*%
%TA.AperFunction,SMDPad,CuDef*%
G36*
G01*
X101549999Y-78400000D02*
X102450001Y-78400000D01*
G75*
G02*
X102700000Y-78649999I0J-249999D01*
G01*
X102700000Y-79350001D01*
G75*
G02*
X102450001Y-79600000I-249999J0D01*
G01*
X101549999Y-79600000D01*
G75*
G02*
X101300000Y-79350001I0J249999D01*
G01*
X101300000Y-78649999D01*
G75*
G02*
X101549999Y-78400000I249999J0D01*
G01*
G37*
%TD.AperFunction*%
%TD*%
D15*
%TO.P,J2,1*%
%TO.N,Net-(J2-Pad1)*%
X128000000Y-49500000D03*
D14*
%TO.P,J2,2*%
%TO.N,Net-(J2-Pad2)*%
X125460000Y-50770000D03*
%TO.P,J2,3*%
%TO.N,Net-(C1-Pad2)*%
X128000000Y-52040000D03*
%TO.P,J2,4*%
%TO.N,Net-(J2-Pad4)*%
X125460000Y-53310000D03*
%TO.P,J2,5*%
%TO.N,Net-(J2-Pad5)*%
X128000000Y-54580000D03*
%TO.P,J2,6*%
%TO.N,Net-(C1-Pad2)*%
X125460000Y-55850000D03*
%TD*%
%TO.P,C1,2*%
%TO.N,Net-(C1-Pad2)*%
%TA.AperFunction,SMDPad,CuDef*%
G36*
G01*
X138400000Y-65650001D02*
X138400000Y-64349999D01*
G75*
G02*
X138649999Y-64100000I249999J0D01*
G01*
X139475001Y-64100000D01*
G75*
G02*
X139725000Y-64349999I0J-249999D01*
G01*
X139725000Y-65650001D01*
G75*
G02*
X139475001Y-65900000I-249999J0D01*
G01*
X138649999Y-65900000D01*
G75*
G02*
X138400000Y-65650001I0J249999D01*
G01*
G37*
%TD.AperFunction*%
%TO.P,C1,1*%
%TO.N,Net-(C1-Pad1)*%
%TA.AperFunction,SMDPad,CuDef*%
G36*
G01*
X135275000Y-65650001D02*
X135275000Y-64349999D01*
G75*
G02*
X135524999Y-64100000I249999J0D01*
G01*
X136350001Y-64100000D01*
G75*
G02*
X136600000Y-64349999I0J-249999D01*
G01*
X136600000Y-65650001D01*
G75*
G02*
X136350001Y-65900000I-249999J0D01*
G01*
X135524999Y-65900000D01*
G75*
G02*
X135275000Y-65650001I0J249999D01*
G01*
G37*
%TD.AperFunction*%
%TD*%
D10*
%TO.P,Q1,3*%
%TO.N,Net-(P3-Pad1)*%
X134000000Y-49500000D03*
%TO.P,Q1,2*%
%TO.N,Net-(C1-Pad2)*%
X132000000Y-48550000D03*
%TO.P,Q1,1*%
%TO.N,Net-(J2-Pad5)*%
X132000000Y-50450000D03*
%TD*%
D11*
%TO.P,J1,*%
%TO.N,*%
X116300000Y-69075000D03*
X116300000Y-61925000D03*
%TD*%
D13*
%TO.P,U1,2*%
%TO.N,Net-(C1-Pad1)*%
X141000000Y-54150000D03*
D12*
X141000000Y-47850000D03*
%TO.P,U1,3*%
%TO.N,Net-(J1-Pad1)*%
X143300000Y-47850000D03*
%TO.P,U1,1*%
%TO.N,Net-(C1-Pad2)*%
X138700000Y-47850000D03*
%TD*%
%TO.P,R5,2*%
%TO.N,Net-(C1-Pad2)*%
%TA.AperFunction,SMDPad,CuDef*%
G36*
G01*
X143049999Y-65900000D02*
X143950001Y-65900000D01*
G75*
G02*
X144200000Y-66149999I0J-249999D01*
G01*
X144200000Y-66850001D01*
G75*
G02*
X143950001Y-67100000I-249999J0D01*
G01*
X143049999Y-67100000D01*
G75*
G02*
X142800000Y-66850001I0J249999D01*
G01*
X142800000Y-66149999D01*
G75*
G02*
X143049999Y-65900000I249999J0D01*
G01*
G37*
%TD.AperFunction*%
%TO.P,R5,1*%
%TO.N,Net-(R5-Pad1)*%
%TA.AperFunction,SMDPad,CuDef*%
G36*
G01*
X143049999Y-63900000D02*
X143950001Y-63900000D01*
G75*
G02*
X144200000Y-64149999I0J-249999D01*
G01*
X144200000Y-64850001D01*
G75*
G02*
X143950001Y-65100000I-249999J0D01*
G01*
X143049999Y-65100000D01*
G75*
G02*
X142800000Y-64850001I0J249999D01*
G01*
X142800000Y-64149999D01*
G75*
G02*
X143049999Y-63900000I249999J0D01*
G01*
G37*
%TD.AperFunction*%
%TD*%
%TO.P,P3,2*%
%TO.N,Net-(P3-Pad2)*%
%TA.AperFunction,SMDPad,CuDef*%
G36*
G01*
X143400000Y-57090000D02*
X143600000Y-57090000D01*
G75*
G02*
X143700000Y-57190000I0J-100000D01*
G01*
X143700000Y-57625000D01*
G75*
G02*
X143600000Y-57725000I-100000J0D01*
G01*
X143400000Y-57725000D01*
G75*
G02*
X143300000Y-57625000I0J100000D01*
G01*
X143300000Y-57190000D01*
G75*
G02*
X143400000Y-57090000I100000J0D01*
G01*
G37*
%TD.AperFunction*%
%TO.P,P3,1*%
%TO.N,Net-(P3-Pad1)*%
%TA.AperFunction,SMDPad,CuDef*%
G36*
G01*
X143400000Y-56275000D02*
X143600000Y-56275000D01*
G75*
G02*
X143700000Y-56375000I0J-100000D01*
G01*
X143700000Y-56810000D01*
G75*
G02*
X143600000Y-56910000I-100000J0D01*
G01*
X143400000Y-56910000D01*
G75*
G02*
X143300000Y-56810000I0J100000D01*
G01*
X143300000Y-56375000D01*
G75*
G02*
X143400000Y-56275000I100000J0D01*
G01*
G37*
%TD.AperFunction*%
%TD*%
%TO.P,R4,2*%
%TO.N,Net-(J2-Pad1)*%
%TA.AperFunction,SMDPad,CuDef*%
G36*
G01*
X138100000Y-59049999D02*
X138100000Y-59950001D01*
G75*
G02*
X137850001Y-60200000I-249999J0D01*
G01*
X137149999Y-60200000D01*
G75*
G02*
X136900000Y-59950001I0J249999D01*
G01*
X136900000Y-59049999D01*
G75*
G02*
X137149999Y-58800000I249999J0D01*
G01*
X137850001Y-58800000D01*
G75*
G02*
X138100000Y-59049999I0J-249999D01*
G01*
G37*
%TD.AperFunction*%
%TO.P,R4,1*%
%TO.N,Net-(P3-Pad1)*%
%TA.AperFunction,SMDPad,CuDef*%
G36*
G01*
X140100000Y-59049999D02*
X140100000Y-59950001D01*
G75*
G02*
X139850001Y-60200000I-249999J0D01*
G01*
X139149999Y-60200000D01*
G75*
G02*
X138900000Y-59950001I0J249999D01*
G01*
X138900000Y-59049999D01*
G75*
G02*
X139149999Y-58800000I249999J0D01*
G01*
X139850001Y-58800000D01*
G75*
G02*
X140100000Y-59049999I0J-249999D01*
G01*
G37*
%TD.AperFunction*%
%TD*%
%TO.P,P4,2*%
%TO.N,Net-(P4-Pad2)*%
%TA.AperFunction,SMDPad,CuDef*%
G36*
G01*
X143400000Y-59900000D02*
X143600000Y-59900000D01*
G75*
G02*
X143700000Y-60000000I0J-100000D01*
G01*
X143700000Y-60435000D01*
G75*
G02*
X143600000Y-60535000I-100000J0D01*
G01*
X143400000Y-60535000D01*
G75*
G02*
X143300000Y-60435000I0J100000D01*
G01*
X143300000Y-60000000D01*
G75*
G02*
X143400000Y-59900000I100000J0D01*
G01*
G37*
%TD.AperFunction*%
%TO.P,P4,1*%
%TO.N,Net-(P3-Pad1)*%
%TA.AperFunction,SMDPad,CuDef*%
G36*
G01*
X143400000Y-59085000D02*
X143600000Y-59085000D01*
G75*
G02*
X143700000Y-59185000I0J-100000D01*
G01*
X143700000Y-59620000D01*
G75*
G02*
X143600000Y-59720000I-100000J0D01*
G01*
X143400000Y-59720000D01*
G75*
G02*
X143300000Y-59620000I0J100000D01*
G01*
X143300000Y-59185000D01*
G75*
G02*
X143400000Y-59085000I100000J0D01*
G01*
G37*
%TD.AperFunction*%
%TD*%
%TO.P,R6,2*%
%TO.N,Net-(J2-Pad1)*%
%TA.AperFunction,SMDPad,CuDef*%
G36*
G01*
X134549999Y-55400000D02*
X135450001Y-55400000D01*
G75*
G02*
X135700000Y-55649999I0J-249999D01*
G01*
X135700000Y-56350001D01*
G75*
G02*
X135450001Y-56600000I-249999J0D01*
G01*
X134549999Y-56600000D01*
G75*
G02*
X134300000Y-56350001I0J249999D01*
G01*
X134300000Y-55649999D01*
G75*
G02*
X134549999Y-55400000I249999J0D01*
G01*
G37*
%TD.AperFunction*%
%TO.P,R6,1*%
%TO.N,Net-(J2-Pad5)*%
%TA.AperFunction,SMDPad,CuDef*%
G36*
G01*
X134549999Y-53400000D02*
X135450001Y-53400000D01*
G75*
G02*
X135700000Y-53649999I0J-249999D01*
G01*
X135700000Y-54350001D01*
G75*
G02*
X135450001Y-54600000I-249999J0D01*
G01*
X134549999Y-54600000D01*
G75*
G02*
X134300000Y-54350001I0J249999D01*
G01*
X134300000Y-53649999D01*
G75*
G02*
X134549999Y-53400000I249999J0D01*
G01*
G37*
%TD.AperFunction*%
%TD*%
D10*
%TO.P,Q1,1*%
%TO.N,Net-(J2-Pad5)*%
X99000000Y-50450000D03*
%TO.P,Q1,2*%
%TO.N,Net-(C1-Pad2)*%
X99000000Y-48550000D03*
%TO.P,Q1,3*%
%TO.N,Net-(P3-Pad1)*%
X101000000Y-49500000D03*
%TD*%
D11*
%TO.P,J1,*%
%TO.N,*%
X83300000Y-61925000D03*
X83300000Y-69075000D03*
%TD*%
%TO.P,C1,1*%
%TO.N,Net-(C1-Pad1)*%
%TA.AperFunction,SMDPad,CuDef*%
G36*
G01*
X102275000Y-65650001D02*
X102275000Y-64349999D01*
G75*
G02*
X102524999Y-64100000I249999J0D01*
G01*
X103350001Y-64100000D01*
G75*
G02*
X103600000Y-64349999I0J-249999D01*
G01*
X103600000Y-65650001D01*
G75*
G02*
X103350001Y-65900000I-249999J0D01*
G01*
X102524999Y-65900000D01*
G75*
G02*
X102275000Y-65650001I0J249999D01*
G01*
G37*
%TD.AperFunction*%
%TO.P,C1,2*%
%TO.N,Net-(C1-Pad2)*%
%TA.AperFunction,SMDPad,CuDef*%
G36*
G01*
X105400000Y-65650001D02*
X105400000Y-64349999D01*
G75*
G02*
X105649999Y-64100000I249999J0D01*
G01*
X106475001Y-64100000D01*
G75*
G02*
X106725000Y-64349999I0J-249999D01*
G01*
X106725000Y-65650001D01*
G75*
G02*
X106475001Y-65900000I-249999J0D01*
G01*
X105649999Y-65900000D01*
G75*
G02*
X105400000Y-65650001I0J249999D01*
G01*
G37*
%TD.AperFunction*%
%TD*%
D14*
%TO.P,J2,6*%
%TO.N,Net-(C1-Pad2)*%
X92460000Y-55850000D03*
%TO.P,J2,5*%
%TO.N,Net-(J2-Pad5)*%
X95000000Y-54580000D03*
%TO.P,J2,4*%
%TO.N,Net-(J2-Pad4)*%
X92460000Y-53310000D03*
%TO.P,J2,3*%
%TO.N,Net-(C1-Pad2)*%
X95000000Y-52040000D03*
%TO.P,J2,2*%
%TO.N,Net-(J2-Pad2)*%
X92460000Y-50770000D03*
D15*
%TO.P,J2,1*%
%TO.N,Net-(J2-Pad1)*%
X95000000Y-49500000D03*
%TD*%
D12*
%TO.P,U1,1*%
%TO.N,Net-(C1-Pad2)*%
X105700000Y-47850000D03*
%TO.P,U1,3*%
%TO.N,Net-(J1-Pad1)*%
X110300000Y-47850000D03*
%TO.P,U1,2*%
%TO.N,Net-(C1-Pad1)*%
X108000000Y-47850000D03*
D13*
X108000000Y-54150000D03*
%TD*%
%TO.P,R4,1*%
%TO.N,Net-(P3-Pad1)*%
%TA.AperFunction,SMDPad,CuDef*%
G36*
G01*
X107100000Y-59049999D02*
X107100000Y-59950001D01*
G75*
G02*
X106850001Y-60200000I-249999J0D01*
G01*
X106149999Y-60200000D01*
G75*
G02*
X105900000Y-59950001I0J249999D01*
G01*
X105900000Y-59049999D01*
G75*
G02*
X106149999Y-58800000I249999J0D01*
G01*
X106850001Y-58800000D01*
G75*
G02*
X107100000Y-59049999I0J-249999D01*
G01*
G37*
%TD.AperFunction*%
%TO.P,R4,2*%
%TO.N,Net-(J2-Pad1)*%
%TA.AperFunction,SMDPad,CuDef*%
G36*
G01*
X105100000Y-59049999D02*
X105100000Y-59950001D01*
G75*
G02*
X104850001Y-60200000I-249999J0D01*
G01*
X104149999Y-60200000D01*
G75*
G02*
X103900000Y-59950001I0J249999D01*
G01*
X103900000Y-59049999D01*
G75*
G02*
X104149999Y-58800000I249999J0D01*
G01*
X104850001Y-58800000D01*
G75*
G02*
X105100000Y-59049999I0J-249999D01*
G01*
G37*
%TD.AperFunction*%
%TD*%
%TO.P,R5,1*%
%TO.N,Net-(R5-Pad1)*%
%TA.AperFunction,SMDPad,CuDef*%
G36*
G01*
X110049999Y-63900000D02*
X110950001Y-63900000D01*
G75*
G02*
X111200000Y-64149999I0J-249999D01*
G01*
X111200000Y-64850001D01*
G75*
G02*
X110950001Y-65100000I-249999J0D01*
G01*
X110049999Y-65100000D01*
G75*
G02*
X109800000Y-64850001I0J249999D01*
G01*
X109800000Y-64149999D01*
G75*
G02*
X110049999Y-63900000I249999J0D01*
G01*
G37*
%TD.AperFunction*%
%TO.P,R5,2*%
%TO.N,Net-(C1-Pad2)*%
%TA.AperFunction,SMDPad,CuDef*%
G36*
G01*
X110049999Y-65900000D02*
X110950001Y-65900000D01*
G75*
G02*
X111200000Y-66149999I0J-249999D01*
G01*
X111200000Y-66850001D01*
G75*
G02*
X110950001Y-67100000I-249999J0D01*
G01*
X110049999Y-67100000D01*
G75*
G02*
X109800000Y-66850001I0J249999D01*
G01*
X109800000Y-66149999D01*
G75*
G02*
X110049999Y-65900000I249999J0D01*
G01*
G37*
%TD.AperFunction*%
%TD*%
%TO.P,P4,1*%
%TO.N,Net-(P3-Pad1)*%
%TA.AperFunction,SMDPad,CuDef*%
G36*
G01*
X110400000Y-59085000D02*
X110600000Y-59085000D01*
G75*
G02*
X110700000Y-59185000I0J-100000D01*
G01*
X110700000Y-59620000D01*
G75*
G02*
X110600000Y-59720000I-100000J0D01*
G01*
X110400000Y-59720000D01*
G75*
G02*
X110300000Y-59620000I0J100000D01*
G01*
X110300000Y-59185000D01*
G75*
G02*
X110400000Y-59085000I100000J0D01*
G01*
G37*
%TD.AperFunction*%
%TO.P,P4,2*%
%TO.N,Net-(P4-Pad2)*%
%TA.AperFunction,SMDPad,CuDef*%
G36*
G01*
X110400000Y-59900000D02*
X110600000Y-59900000D01*
G75*
G02*
X110700000Y-60000000I0J-100000D01*
G01*
X110700000Y-60435000D01*
G75*
G02*
X110600000Y-60535000I-100000J0D01*
G01*
X110400000Y-60535000D01*
G75*
G02*
X110300000Y-60435000I0J100000D01*
G01*
X110300000Y-60000000D01*
G75*
G02*
X110400000Y-59900000I100000J0D01*
G01*
G37*
%TD.AperFunction*%
%TD*%
%TO.P,P3,1*%
%TO.N,Net-(P3-Pad1)*%
%TA.AperFunction,SMDPad,CuDef*%
G36*
G01*
X110400000Y-56275000D02*
X110600000Y-56275000D01*
G75*
G02*
X110700000Y-56375000I0J-100000D01*
G01*
X110700000Y-56810000D01*
G75*
G02*
X110600000Y-56910000I-100000J0D01*
G01*
X110400000Y-56910000D01*
G75*
G02*
X110300000Y-56810000I0J100000D01*
G01*
X110300000Y-56375000D01*
G75*
G02*
X110400000Y-56275000I100000J0D01*
G01*
G37*
%TD.AperFunction*%
%TO.P,P3,2*%
%TO.N,Net-(P3-Pad2)*%
%TA.AperFunction,SMDPad,CuDef*%
G36*
G01*
X110400000Y-57090000D02*
X110600000Y-57090000D01*
G75*
G02*
X110700000Y-57190000I0J-100000D01*
G01*
X110700000Y-57625000D01*
G75*
G02*
X110600000Y-57725000I-100000J0D01*
G01*
X110400000Y-57725000D01*
G75*
G02*
X110300000Y-57625000I0J100000D01*
G01*
X110300000Y-57190000D01*
G75*
G02*
X110400000Y-57090000I100000J0D01*
G01*
G37*
%TD.AperFunction*%
%TD*%
%TO.P,R6,1*%
%TO.N,Net-(J2-Pad5)*%
%TA.AperFunction,SMDPad,CuDef*%
G36*
G01*
X101549999Y-53400000D02*
X102450001Y-53400000D01*
G75*
G02*
X102700000Y-53649999I0J-249999D01*
G01*
X102700000Y-54350001D01*
G75*
G02*
X102450001Y-54600000I-249999J0D01*
G01*
X101549999Y-54600000D01*
G75*
G02*
X101300000Y-54350001I0J249999D01*
G01*
X101300000Y-53649999D01*
G75*
G02*
X101549999Y-53400000I249999J0D01*
G01*
G37*
%TD.AperFunction*%
%TO.P,R6,2*%
%TO.N,Net-(J2-Pad1)*%
%TA.AperFunction,SMDPad,CuDef*%
G36*
G01*
X101549999Y-55400000D02*
X102450001Y-55400000D01*
G75*
G02*
X102700000Y-55649999I0J-249999D01*
G01*
X102700000Y-56350001D01*
G75*
G02*
X102450001Y-56600000I-249999J0D01*
G01*
X101549999Y-56600000D01*
G75*
G02*
X101300000Y-56350001I0J249999D01*
G01*
X101300000Y-55649999D01*
G75*
G02*
X101549999Y-55400000I249999J0D01*
G01*
G37*
%TD.AperFunction*%
%TD*%
%TO.P,P4,2*%
%TO.N,Net-(P4-Pad2)*%
%TA.AperFunction,SMDPad,CuDef*%
G36*
G01*
X77400000Y-59900000D02*
X77600000Y-59900000D01*
G75*
G02*
X77700000Y-60000000I0J-100000D01*
G01*
X77700000Y-60435000D01*
G75*
G02*
X77600000Y-60535000I-100000J0D01*
G01*
X77400000Y-60535000D01*
G75*
G02*
X77300000Y-60435000I0J100000D01*
G01*
X77300000Y-60000000D01*
G75*
G02*
X77400000Y-59900000I100000J0D01*
G01*
G37*
%TD.AperFunction*%
%TO.P,P4,1*%
%TO.N,Net-(P3-Pad1)*%
%TA.AperFunction,SMDPad,CuDef*%
G36*
G01*
X77400000Y-59085000D02*
X77600000Y-59085000D01*
G75*
G02*
X77700000Y-59185000I0J-100000D01*
G01*
X77700000Y-59620000D01*
G75*
G02*
X77600000Y-59720000I-100000J0D01*
G01*
X77400000Y-59720000D01*
G75*
G02*
X77300000Y-59620000I0J100000D01*
G01*
X77300000Y-59185000D01*
G75*
G02*
X77400000Y-59085000I100000J0D01*
G01*
G37*
%TD.AperFunction*%
%TD*%
%TO.P,P3,2*%
%TO.N,Net-(P3-Pad2)*%
%TA.AperFunction,SMDPad,CuDef*%
G36*
G01*
X77400000Y-57090000D02*
X77600000Y-57090000D01*
G75*
G02*
X77700000Y-57190000I0J-100000D01*
G01*
X77700000Y-57625000D01*
G75*
G02*
X77600000Y-57725000I-100000J0D01*
G01*
X77400000Y-57725000D01*
G75*
G02*
X77300000Y-57625000I0J100000D01*
G01*
X77300000Y-57190000D01*
G75*
G02*
X77400000Y-57090000I100000J0D01*
G01*
G37*
%TD.AperFunction*%
%TO.P,P3,1*%
%TO.N,Net-(P3-Pad1)*%
%TA.AperFunction,SMDPad,CuDef*%
G36*
G01*
X77400000Y-56275000D02*
X77600000Y-56275000D01*
G75*
G02*
X77700000Y-56375000I0J-100000D01*
G01*
X77700000Y-56810000D01*
G75*
G02*
X77600000Y-56910000I-100000J0D01*
G01*
X77400000Y-56910000D01*
G75*
G02*
X77300000Y-56810000I0J100000D01*
G01*
X77300000Y-56375000D01*
G75*
G02*
X77400000Y-56275000I100000J0D01*
G01*
G37*
%TD.AperFunction*%
%TD*%
%TO.P,R6,2*%
%TO.N,Net-(J2-Pad1)*%
%TA.AperFunction,SMDPad,CuDef*%
G36*
G01*
X68549999Y-55400000D02*
X69450001Y-55400000D01*
G75*
G02*
X69700000Y-55649999I0J-249999D01*
G01*
X69700000Y-56350001D01*
G75*
G02*
X69450001Y-56600000I-249999J0D01*
G01*
X68549999Y-56600000D01*
G75*
G02*
X68300000Y-56350001I0J249999D01*
G01*
X68300000Y-55649999D01*
G75*
G02*
X68549999Y-55400000I249999J0D01*
G01*
G37*
%TD.AperFunction*%
%TO.P,R6,1*%
%TO.N,Net-(J2-Pad5)*%
%TA.AperFunction,SMDPad,CuDef*%
G36*
G01*
X68549999Y-53400000D02*
X69450001Y-53400000D01*
G75*
G02*
X69700000Y-53649999I0J-249999D01*
G01*
X69700000Y-54350001D01*
G75*
G02*
X69450001Y-54600000I-249999J0D01*
G01*
X68549999Y-54600000D01*
G75*
G02*
X68300000Y-54350001I0J249999D01*
G01*
X68300000Y-53649999D01*
G75*
G02*
X68549999Y-53400000I249999J0D01*
G01*
G37*
%TD.AperFunction*%
%TD*%
%TO.P,R5,2*%
%TO.N,Net-(C1-Pad2)*%
%TA.AperFunction,SMDPad,CuDef*%
G36*
G01*
X77049999Y-65900000D02*
X77950001Y-65900000D01*
G75*
G02*
X78200000Y-66149999I0J-249999D01*
G01*
X78200000Y-66850001D01*
G75*
G02*
X77950001Y-67100000I-249999J0D01*
G01*
X77049999Y-67100000D01*
G75*
G02*
X76800000Y-66850001I0J249999D01*
G01*
X76800000Y-66149999D01*
G75*
G02*
X77049999Y-65900000I249999J0D01*
G01*
G37*
%TD.AperFunction*%
%TO.P,R5,1*%
%TO.N,Net-(R5-Pad1)*%
%TA.AperFunction,SMDPad,CuDef*%
G36*
G01*
X77049999Y-63900000D02*
X77950001Y-63900000D01*
G75*
G02*
X78200000Y-64149999I0J-249999D01*
G01*
X78200000Y-64850001D01*
G75*
G02*
X77950001Y-65100000I-249999J0D01*
G01*
X77049999Y-65100000D01*
G75*
G02*
X76800000Y-64850001I0J249999D01*
G01*
X76800000Y-64149999D01*
G75*
G02*
X77049999Y-63900000I249999J0D01*
G01*
G37*
%TD.AperFunction*%
%TD*%
%TO.P,R4,2*%
%TO.N,Net-(J2-Pad1)*%
%TA.AperFunction,SMDPad,CuDef*%
G36*
G01*
X72100000Y-59049999D02*
X72100000Y-59950001D01*
G75*
G02*
X71850001Y-60200000I-249999J0D01*
G01*
X71149999Y-60200000D01*
G75*
G02*
X70900000Y-59950001I0J249999D01*
G01*
X70900000Y-59049999D01*
G75*
G02*
X71149999Y-58800000I249999J0D01*
G01*
X71850001Y-58800000D01*
G75*
G02*
X72100000Y-59049999I0J-249999D01*
G01*
G37*
%TD.AperFunction*%
%TO.P,R4,1*%
%TO.N,Net-(P3-Pad1)*%
%TA.AperFunction,SMDPad,CuDef*%
G36*
G01*
X74100000Y-59049999D02*
X74100000Y-59950001D01*
G75*
G02*
X73850001Y-60200000I-249999J0D01*
G01*
X73149999Y-60200000D01*
G75*
G02*
X72900000Y-59950001I0J249999D01*
G01*
X72900000Y-59049999D01*
G75*
G02*
X73149999Y-58800000I249999J0D01*
G01*
X73850001Y-58800000D01*
G75*
G02*
X74100000Y-59049999I0J-249999D01*
G01*
G37*
%TD.AperFunction*%
%TD*%
D10*
%TO.P,Q1,3*%
%TO.N,Net-(P3-Pad1)*%
X68000000Y-49500000D03*
%TO.P,Q1,2*%
%TO.N,Net-(C1-Pad2)*%
X66000000Y-48550000D03*
%TO.P,Q1,1*%
%TO.N,Net-(J2-Pad5)*%
X66000000Y-50450000D03*
%TD*%
%TO.P,C1,2*%
%TO.N,Net-(C1-Pad2)*%
%TA.AperFunction,SMDPad,CuDef*%
G36*
G01*
X72400000Y-65650001D02*
X72400000Y-64349999D01*
G75*
G02*
X72649999Y-64100000I249999J0D01*
G01*
X73475001Y-64100000D01*
G75*
G02*
X73725000Y-64349999I0J-249999D01*
G01*
X73725000Y-65650001D01*
G75*
G02*
X73475001Y-65900000I-249999J0D01*
G01*
X72649999Y-65900000D01*
G75*
G02*
X72400000Y-65650001I0J249999D01*
G01*
G37*
%TD.AperFunction*%
%TO.P,C1,1*%
%TO.N,Net-(C1-Pad1)*%
%TA.AperFunction,SMDPad,CuDef*%
G36*
G01*
X69275000Y-65650001D02*
X69275000Y-64349999D01*
G75*
G02*
X69524999Y-64100000I249999J0D01*
G01*
X70350001Y-64100000D01*
G75*
G02*
X70600000Y-64349999I0J-249999D01*
G01*
X70600000Y-65650001D01*
G75*
G02*
X70350001Y-65900000I-249999J0D01*
G01*
X69524999Y-65900000D01*
G75*
G02*
X69275000Y-65650001I0J249999D01*
G01*
G37*
%TD.AperFunction*%
%TD*%
D15*
%TO.P,J2,1*%
%TO.N,Net-(J2-Pad1)*%
X62000000Y-49500000D03*
D14*
%TO.P,J2,2*%
%TO.N,Net-(J2-Pad2)*%
X59460000Y-50770000D03*
%TO.P,J2,3*%
%TO.N,Net-(C1-Pad2)*%
X62000000Y-52040000D03*
%TO.P,J2,4*%
%TO.N,Net-(J2-Pad4)*%
X59460000Y-53310000D03*
%TO.P,J2,5*%
%TO.N,Net-(J2-Pad5)*%
X62000000Y-54580000D03*
%TO.P,J2,6*%
%TO.N,Net-(C1-Pad2)*%
X59460000Y-55850000D03*
%TD*%
D11*
%TO.P,J1,*%
%TO.N,*%
X50300000Y-69075000D03*
X50300000Y-61925000D03*
%TD*%
D13*
%TO.P,U1,2*%
%TO.N,Net-(C1-Pad1)*%
X75000000Y-54150000D03*
D12*
X75000000Y-47850000D03*
%TO.P,U1,3*%
%TO.N,Net-(J1-Pad1)*%
X77300000Y-47850000D03*
%TO.P,U1,1*%
%TO.N,Net-(C1-Pad2)*%
X72700000Y-47850000D03*
%TD*%
D16*
%TO.N,Net-(C1-Pad1)*%
X68655300Y-64725000D03*
X101655300Y-64725000D03*
X134655300Y-64725000D03*
X68655300Y-89725000D03*
X101655300Y-89725000D03*
X134655300Y-89725000D03*
X68655300Y-114725000D03*
X101655300Y-114725000D03*
X134655300Y-114725000D03*
X101655300Y-139725000D03*
X68655300Y-139725000D03*
X134655300Y-139725000D03*
%TO.N,Net-(J1-Pad1)*%
X58651300Y-63977400D03*
X91651300Y-63977400D03*
X124651300Y-63977400D03*
X58651300Y-88977400D03*
X91651300Y-88977400D03*
X124651300Y-88977400D03*
X91651300Y-113977400D03*
X124651300Y-113977400D03*
X58651300Y-113977400D03*
X124651300Y-138977400D03*
X58651300Y-138977400D03*
X91651300Y-138977400D03*
%TO.N,Net-(R5-Pad1)*%
X76197500Y-64602500D03*
X109197500Y-64602500D03*
X142197500Y-64602500D03*
X76197500Y-89602500D03*
X109197500Y-89602500D03*
X142197500Y-89602500D03*
X109197500Y-114602500D03*
X76197500Y-114602500D03*
X142197500Y-114602500D03*
X109197500Y-139602500D03*
X76197500Y-139602500D03*
X142197500Y-139602500D03*
%TO.N,Net-(P3-Pad2)*%
X78694500Y-56185500D03*
X111694500Y-56185500D03*
X144694500Y-56185500D03*
X78694500Y-81185500D03*
X111694500Y-81185500D03*
X144694500Y-81185500D03*
X111694500Y-106185500D03*
X78694500Y-106185500D03*
X144694500Y-106185500D03*
X111694500Y-131185500D03*
X78694500Y-131185500D03*
X144694500Y-131185500D03*
%TO.N,Net-(P4-Pad2)*%
X78319900Y-60227800D03*
X111319900Y-60227800D03*
X144319900Y-60227800D03*
X78319900Y-85227800D03*
X111319900Y-85227800D03*
X144319900Y-85227800D03*
X111319900Y-110227800D03*
X78319900Y-110227800D03*
X144319900Y-110227800D03*
X78319900Y-135227800D03*
X111319900Y-135227800D03*
X144319900Y-135227800D03*
%TD*%
D17*
%TO.N,Net-(C1-Pad1)*%
X69937500Y-65000000D02*
X73697300Y-61240200D01*
X73697300Y-61240200D02*
X78334700Y-61240200D01*
X78334700Y-61240200D02*
X79423800Y-60151100D01*
X79423800Y-60151100D02*
X79423800Y-55889000D01*
X79423800Y-55889000D02*
X77684800Y-54150000D01*
X77684800Y-54150000D02*
X75000000Y-54150000D01*
X69937500Y-65000000D02*
X69662500Y-64725000D01*
X69662500Y-64725000D02*
X68655300Y-64725000D01*
X73924700Y-47850000D02*
X73924700Y-53012100D01*
X73924700Y-53012100D02*
X72786800Y-54150000D01*
X75000000Y-54150000D02*
X72786800Y-54150000D01*
X75000000Y-47850000D02*
X73924700Y-47850000D01*
X102937500Y-65000000D02*
X102662500Y-64725000D01*
X102662500Y-64725000D02*
X101655300Y-64725000D01*
X106924700Y-53012100D02*
X105786800Y-54150000D01*
X112423800Y-60151100D02*
X112423800Y-55889000D01*
X112423800Y-55889000D02*
X110684800Y-54150000D01*
X106924700Y-47850000D02*
X106924700Y-53012100D01*
X108000000Y-54150000D02*
X105786800Y-54150000D01*
X106697300Y-61240200D02*
X111334700Y-61240200D01*
X108000000Y-47850000D02*
X106924700Y-47850000D01*
X111334700Y-61240200D02*
X112423800Y-60151100D01*
X110684800Y-54150000D02*
X108000000Y-54150000D01*
X102937500Y-65000000D02*
X106697300Y-61240200D01*
X135662500Y-64725000D02*
X134655300Y-64725000D01*
X139924700Y-53012100D02*
X138786800Y-54150000D01*
X145423800Y-60151100D02*
X145423800Y-55889000D01*
X145423800Y-55889000D02*
X143684800Y-54150000D01*
X135937500Y-65000000D02*
X135662500Y-64725000D01*
X143684800Y-54150000D02*
X141000000Y-54150000D01*
X135937500Y-65000000D02*
X139697300Y-61240200D01*
X139924700Y-47850000D02*
X139924700Y-53012100D01*
X139697300Y-61240200D02*
X144334700Y-61240200D01*
X144334700Y-61240200D02*
X145423800Y-60151100D01*
X141000000Y-54150000D02*
X138786800Y-54150000D01*
X141000000Y-47850000D02*
X139924700Y-47850000D01*
X102662500Y-89725000D02*
X101655300Y-89725000D01*
X106924700Y-78012100D02*
X105786800Y-79150000D01*
X112423800Y-85151100D02*
X112423800Y-80889000D01*
X112423800Y-80889000D02*
X110684800Y-79150000D01*
X102937500Y-90000000D02*
X102662500Y-89725000D01*
X110684800Y-79150000D02*
X108000000Y-79150000D01*
X102937500Y-90000000D02*
X106697300Y-86240200D01*
X106924700Y-72850000D02*
X106924700Y-78012100D01*
X106697300Y-86240200D02*
X111334700Y-86240200D01*
X111334700Y-86240200D02*
X112423800Y-85151100D01*
X108000000Y-79150000D02*
X105786800Y-79150000D01*
X108000000Y-72850000D02*
X106924700Y-72850000D01*
X139924700Y-78012100D02*
X138786800Y-79150000D01*
X145423800Y-80889000D02*
X143684800Y-79150000D01*
X135662500Y-89725000D02*
X134655300Y-89725000D01*
X145423800Y-85151100D02*
X145423800Y-80889000D01*
X141000000Y-72850000D02*
X139924700Y-72850000D01*
X135937500Y-90000000D02*
X135662500Y-89725000D01*
X135937500Y-90000000D02*
X139697300Y-86240200D01*
X139697300Y-86240200D02*
X144334700Y-86240200D01*
X144334700Y-86240200D02*
X145423800Y-85151100D01*
X141000000Y-79150000D02*
X138786800Y-79150000D01*
X139924700Y-72850000D02*
X139924700Y-78012100D01*
X143684800Y-79150000D02*
X141000000Y-79150000D01*
X69937500Y-90000000D02*
X69662500Y-89725000D01*
X69662500Y-89725000D02*
X68655300Y-89725000D01*
X73924700Y-78012100D02*
X72786800Y-79150000D01*
X79423800Y-85151100D02*
X79423800Y-80889000D01*
X79423800Y-80889000D02*
X77684800Y-79150000D01*
X73924700Y-72850000D02*
X73924700Y-78012100D01*
X75000000Y-79150000D02*
X72786800Y-79150000D01*
X73697300Y-86240200D02*
X78334700Y-86240200D01*
X75000000Y-72850000D02*
X73924700Y-72850000D01*
X78334700Y-86240200D02*
X79423800Y-85151100D01*
X77684800Y-79150000D02*
X75000000Y-79150000D01*
X69937500Y-90000000D02*
X73697300Y-86240200D01*
X102662500Y-114725000D02*
X101655300Y-114725000D01*
X106924700Y-103012100D02*
X105786800Y-104150000D01*
X112423800Y-110151100D02*
X112423800Y-105889000D01*
X112423800Y-105889000D02*
X110684800Y-104150000D01*
X108000000Y-104150000D02*
X105786800Y-104150000D01*
X108000000Y-97850000D02*
X106924700Y-97850000D01*
X102937500Y-115000000D02*
X102662500Y-114725000D01*
X110684800Y-104150000D02*
X108000000Y-104150000D01*
X106924700Y-97850000D02*
X106924700Y-103012100D01*
X106697300Y-111240200D02*
X111334700Y-111240200D01*
X102937500Y-115000000D02*
X106697300Y-111240200D01*
X111334700Y-111240200D02*
X112423800Y-110151100D01*
X135937500Y-115000000D02*
X135662500Y-114725000D01*
X141000000Y-97850000D02*
X139924700Y-97850000D01*
X135937500Y-115000000D02*
X139697300Y-111240200D01*
X139924700Y-103012100D02*
X138786800Y-104150000D01*
X135662500Y-114725000D02*
X134655300Y-114725000D01*
X145423800Y-105889000D02*
X143684800Y-104150000D01*
X145423800Y-110151100D02*
X145423800Y-105889000D01*
X69937500Y-115000000D02*
X73697300Y-111240200D01*
X141000000Y-104150000D02*
X138786800Y-104150000D01*
X139924700Y-97850000D02*
X139924700Y-103012100D01*
X69937500Y-115000000D02*
X69662500Y-114725000D01*
X79423800Y-105889000D02*
X77684800Y-104150000D01*
X73697300Y-111240200D02*
X78334700Y-111240200D01*
X77684800Y-104150000D02*
X75000000Y-104150000D01*
X79423800Y-110151100D02*
X79423800Y-105889000D01*
X139697300Y-111240200D02*
X144334700Y-111240200D01*
X75000000Y-97850000D02*
X73924700Y-97850000D01*
X73924700Y-103012100D02*
X72786800Y-104150000D01*
X75000000Y-104150000D02*
X72786800Y-104150000D01*
X144334700Y-111240200D02*
X145423800Y-110151100D01*
X143684800Y-104150000D02*
X141000000Y-104150000D01*
X69662500Y-114725000D02*
X68655300Y-114725000D01*
X73924700Y-97850000D02*
X73924700Y-103012100D01*
X78334700Y-111240200D02*
X79423800Y-110151100D01*
X135937500Y-140000000D02*
X139697300Y-136240200D01*
X141000000Y-122850000D02*
X139924700Y-122850000D01*
X135937500Y-140000000D02*
X135662500Y-139725000D01*
X78334700Y-136240200D02*
X79423800Y-135151100D01*
X69662500Y-139725000D02*
X68655300Y-139725000D01*
X144334700Y-136240200D02*
X145423800Y-135151100D01*
X73697300Y-136240200D02*
X78334700Y-136240200D01*
X139697300Y-136240200D02*
X144334700Y-136240200D01*
X143684800Y-129150000D02*
X141000000Y-129150000D01*
X79423800Y-135151100D02*
X79423800Y-130889000D01*
X75000000Y-129150000D02*
X72786800Y-129150000D01*
X73924700Y-128012100D02*
X72786800Y-129150000D01*
X79423800Y-130889000D02*
X77684800Y-129150000D01*
X73924700Y-122850000D02*
X73924700Y-128012100D01*
X77684800Y-129150000D02*
X75000000Y-129150000D01*
X75000000Y-122850000D02*
X73924700Y-122850000D01*
X108000000Y-122850000D02*
X106924700Y-122850000D01*
X102937500Y-140000000D02*
X102662500Y-139725000D01*
X112423800Y-135151100D02*
X112423800Y-130889000D01*
X106924700Y-128012100D02*
X105786800Y-129150000D01*
X102662500Y-139725000D02*
X101655300Y-139725000D01*
X135662500Y-139725000D02*
X134655300Y-139725000D01*
X69937500Y-140000000D02*
X73697300Y-136240200D01*
X139924700Y-122850000D02*
X139924700Y-128012100D01*
X139924700Y-128012100D02*
X138786800Y-129150000D01*
X141000000Y-129150000D02*
X138786800Y-129150000D01*
X69937500Y-140000000D02*
X69662500Y-139725000D01*
X145423800Y-135151100D02*
X145423800Y-130889000D01*
X145423800Y-130889000D02*
X143684800Y-129150000D01*
X112423800Y-130889000D02*
X110684800Y-129150000D01*
X108000000Y-129150000D02*
X105786800Y-129150000D01*
X110684800Y-129150000D02*
X108000000Y-129150000D01*
X106697300Y-136240200D02*
X111334700Y-136240200D01*
X111334700Y-136240200D02*
X112423800Y-135151100D01*
X106924700Y-122850000D02*
X106924700Y-128012100D01*
X102937500Y-140000000D02*
X106697300Y-136240200D01*
%TO.N,Net-(C1-Pad2)*%
X66000000Y-48550000D02*
X65224700Y-48550000D01*
X62000000Y-52040000D02*
X60914600Y-50954600D01*
X60914600Y-50954600D02*
X60914600Y-48536200D01*
X60914600Y-48536200D02*
X61036200Y-48414600D01*
X61036200Y-48414600D02*
X65089300Y-48414600D01*
X65089300Y-48414600D02*
X65224700Y-48550000D01*
X59460000Y-55850000D02*
X59460000Y-55009800D01*
X59460000Y-55009800D02*
X62000000Y-52469800D01*
X62000000Y-52469800D02*
X62000000Y-52040000D01*
X73062500Y-65000000D02*
X71793000Y-66269500D01*
X71793000Y-66269500D02*
X69159200Y-66269500D01*
X69159200Y-66269500D02*
X59460000Y-56570300D01*
X59460000Y-56570300D02*
X59460000Y-55850000D01*
X73062500Y-65000000D02*
X74562500Y-66500000D01*
X74562500Y-66500000D02*
X77500000Y-66500000D01*
X72700000Y-47850000D02*
X71624700Y-47850000D01*
X66000000Y-48550000D02*
X70924700Y-48550000D01*
X70924700Y-48550000D02*
X71624700Y-47850000D01*
X92460000Y-55850000D02*
X92460000Y-55009800D01*
X105700000Y-47850000D02*
X104624700Y-47850000D01*
X106062500Y-65000000D02*
X104793000Y-66269500D01*
X92460000Y-55009800D02*
X95000000Y-52469800D01*
X92460000Y-56570300D02*
X92460000Y-55850000D01*
X95000000Y-52469800D02*
X95000000Y-52040000D01*
X103924700Y-48550000D02*
X104624700Y-47850000D01*
X107562500Y-66500000D02*
X110500000Y-66500000D01*
X99000000Y-48550000D02*
X103924700Y-48550000D01*
X106062500Y-65000000D02*
X107562500Y-66500000D01*
X104793000Y-66269500D02*
X102159200Y-66269500D01*
X102159200Y-66269500D02*
X92460000Y-56570300D01*
X95000000Y-52040000D02*
X93914600Y-50954600D01*
X94036200Y-48414600D02*
X98089300Y-48414600D01*
X98089300Y-48414600D02*
X98224700Y-48550000D01*
X93914600Y-48536200D02*
X94036200Y-48414600D01*
X93914600Y-50954600D02*
X93914600Y-48536200D01*
X99000000Y-48550000D02*
X98224700Y-48550000D01*
X139062500Y-65000000D02*
X137793000Y-66269500D01*
X125460000Y-55850000D02*
X125460000Y-55009800D01*
X138700000Y-47850000D02*
X137624700Y-47850000D01*
X125460000Y-55009800D02*
X128000000Y-52469800D01*
X125460000Y-56570300D02*
X125460000Y-55850000D01*
X128000000Y-52469800D02*
X128000000Y-52040000D01*
X137793000Y-66269500D02*
X135159200Y-66269500D01*
X140562500Y-66500000D02*
X143500000Y-66500000D01*
X139062500Y-65000000D02*
X140562500Y-66500000D01*
X135159200Y-66269500D02*
X125460000Y-56570300D01*
X132000000Y-48550000D02*
X136924700Y-48550000D01*
X136924700Y-48550000D02*
X137624700Y-47850000D01*
X131089300Y-48414600D02*
X131224700Y-48550000D01*
X126914600Y-48536200D02*
X127036200Y-48414600D01*
X128000000Y-52040000D02*
X126914600Y-50954600D01*
X127036200Y-48414600D02*
X131089300Y-48414600D01*
X126914600Y-50954600D02*
X126914600Y-48536200D01*
X132000000Y-48550000D02*
X131224700Y-48550000D01*
X106062500Y-90000000D02*
X104793000Y-91269500D01*
X92460000Y-80850000D02*
X92460000Y-80009800D01*
X105700000Y-72850000D02*
X104624700Y-72850000D01*
X92460000Y-80009800D02*
X95000000Y-77469800D01*
X92460000Y-81570300D02*
X92460000Y-80850000D01*
X95000000Y-77469800D02*
X95000000Y-77040000D01*
X104793000Y-91269500D02*
X102159200Y-91269500D01*
X107562500Y-91500000D02*
X110500000Y-91500000D01*
X106062500Y-90000000D02*
X107562500Y-91500000D01*
X102159200Y-91269500D02*
X92460000Y-81570300D01*
X99000000Y-73550000D02*
X103924700Y-73550000D01*
X103924700Y-73550000D02*
X104624700Y-72850000D01*
X59460000Y-80850000D02*
X59460000Y-80009800D01*
X72700000Y-72850000D02*
X71624700Y-72850000D01*
X73062500Y-90000000D02*
X71793000Y-91269500D01*
X59460000Y-80009800D02*
X62000000Y-77469800D01*
X59460000Y-81570300D02*
X59460000Y-80850000D01*
X62000000Y-77469800D02*
X62000000Y-77040000D01*
X70924700Y-73550000D02*
X71624700Y-72850000D01*
X74562500Y-91500000D02*
X77500000Y-91500000D01*
X66000000Y-73550000D02*
X70924700Y-73550000D01*
X73062500Y-90000000D02*
X74562500Y-91500000D01*
X71793000Y-91269500D02*
X69159200Y-91269500D01*
X69159200Y-91269500D02*
X59460000Y-81570300D01*
X98089300Y-73414600D02*
X98224700Y-73550000D01*
X93914600Y-73536200D02*
X94036200Y-73414600D01*
X95000000Y-77040000D02*
X93914600Y-75954600D01*
X94036200Y-73414600D02*
X98089300Y-73414600D01*
X93914600Y-75954600D02*
X93914600Y-73536200D01*
X99000000Y-73550000D02*
X98224700Y-73550000D01*
X125460000Y-81570300D02*
X125460000Y-80850000D01*
X125460000Y-80850000D02*
X125460000Y-80009800D01*
X128000000Y-77469800D02*
X128000000Y-77040000D01*
X135159200Y-91269500D02*
X125460000Y-81570300D01*
X137793000Y-91269500D02*
X135159200Y-91269500D01*
X138700000Y-72850000D02*
X137624700Y-72850000D01*
X140562500Y-91500000D02*
X143500000Y-91500000D01*
X125460000Y-80009800D02*
X128000000Y-77469800D01*
X132000000Y-73550000D02*
X136924700Y-73550000D01*
X136924700Y-73550000D02*
X137624700Y-72850000D01*
X139062500Y-90000000D02*
X137793000Y-91269500D01*
X139062500Y-90000000D02*
X140562500Y-91500000D01*
X128000000Y-77040000D02*
X126914600Y-75954600D01*
X127036200Y-73414600D02*
X131089300Y-73414600D01*
X126914600Y-75954600D02*
X126914600Y-73536200D01*
X126914600Y-73536200D02*
X127036200Y-73414600D01*
X131089300Y-73414600D02*
X131224700Y-73550000D01*
X132000000Y-73550000D02*
X131224700Y-73550000D01*
X62000000Y-77040000D02*
X60914600Y-75954600D01*
X61036200Y-73414600D02*
X65089300Y-73414600D01*
X65089300Y-73414600D02*
X65224700Y-73550000D01*
X60914600Y-73536200D02*
X61036200Y-73414600D01*
X60914600Y-75954600D02*
X60914600Y-73536200D01*
X66000000Y-73550000D02*
X65224700Y-73550000D01*
X104793000Y-116269500D02*
X102159200Y-116269500D01*
X92460000Y-105850000D02*
X92460000Y-105009800D01*
X105700000Y-97850000D02*
X104624700Y-97850000D01*
X92460000Y-105009800D02*
X95000000Y-102469800D01*
X106062500Y-115000000D02*
X104793000Y-116269500D01*
X92460000Y-106570300D02*
X92460000Y-105850000D01*
X95000000Y-102469800D02*
X95000000Y-102040000D01*
X73062500Y-115000000D02*
X71793000Y-116269500D01*
X99000000Y-98550000D02*
X103924700Y-98550000D01*
X103924700Y-98550000D02*
X104624700Y-97850000D01*
X107562500Y-116500000D02*
X110500000Y-116500000D01*
X66000000Y-98550000D02*
X70924700Y-98550000D01*
X73062500Y-115000000D02*
X74562500Y-116500000D01*
X71793000Y-116269500D02*
X69159200Y-116269500D01*
X102159200Y-116269500D02*
X92460000Y-106570300D01*
X72700000Y-97850000D02*
X71624700Y-97850000D01*
X59460000Y-105009800D02*
X62000000Y-102469800D01*
X62000000Y-102469800D02*
X62000000Y-102040000D01*
X70924700Y-98550000D02*
X71624700Y-97850000D01*
X74562500Y-116500000D02*
X77500000Y-116500000D01*
X59460000Y-105850000D02*
X59460000Y-105009800D01*
X106062500Y-115000000D02*
X107562500Y-116500000D01*
X59460000Y-106570300D02*
X59460000Y-105850000D01*
X69159200Y-116269500D02*
X59460000Y-106570300D01*
X93914600Y-98536200D02*
X94036200Y-98414600D01*
X125460000Y-106570300D02*
X125460000Y-105850000D01*
X95000000Y-102040000D02*
X93914600Y-100954600D01*
X94036200Y-98414600D02*
X98089300Y-98414600D01*
X93914600Y-100954600D02*
X93914600Y-98536200D01*
X99000000Y-98550000D02*
X98224700Y-98550000D01*
X98089300Y-98414600D02*
X98224700Y-98550000D01*
X139062500Y-115000000D02*
X140562500Y-116500000D01*
X128000000Y-102040000D02*
X126914600Y-100954600D01*
X140562500Y-116500000D02*
X143500000Y-116500000D01*
X127036200Y-98414600D02*
X131089300Y-98414600D01*
X135159200Y-116269500D02*
X125460000Y-106570300D01*
X125460000Y-105009800D02*
X128000000Y-102469800D01*
X137793000Y-116269500D02*
X135159200Y-116269500D01*
X128000000Y-102469800D02*
X128000000Y-102040000D01*
X132000000Y-98550000D02*
X136924700Y-98550000D01*
X136924700Y-98550000D02*
X137624700Y-97850000D01*
X139062500Y-115000000D02*
X137793000Y-116269500D01*
X138700000Y-97850000D02*
X137624700Y-97850000D01*
X125460000Y-105850000D02*
X125460000Y-105009800D01*
X61036200Y-98414600D02*
X65089300Y-98414600D01*
X60914600Y-98536200D02*
X61036200Y-98414600D01*
X60914600Y-100954600D02*
X60914600Y-98536200D01*
X132000000Y-98550000D02*
X131224700Y-98550000D01*
X62000000Y-102040000D02*
X60914600Y-100954600D01*
X126914600Y-100954600D02*
X126914600Y-98536200D01*
X126914600Y-98536200D02*
X127036200Y-98414600D01*
X66000000Y-98550000D02*
X65224700Y-98550000D01*
X65089300Y-98414600D02*
X65224700Y-98550000D01*
X131089300Y-98414600D02*
X131224700Y-98550000D01*
X59460000Y-130009800D02*
X62000000Y-127469800D01*
X102159200Y-141269500D02*
X92460000Y-131570300D01*
X72700000Y-122850000D02*
X71624700Y-122850000D01*
X73062500Y-140000000D02*
X74562500Y-141500000D01*
X66000000Y-123550000D02*
X70924700Y-123550000D01*
X71793000Y-141269500D02*
X69159200Y-141269500D01*
X99000000Y-123550000D02*
X103924700Y-123550000D01*
X103924700Y-123550000D02*
X104624700Y-122850000D01*
X107562500Y-141500000D02*
X110500000Y-141500000D01*
X92460000Y-130850000D02*
X92460000Y-130009800D01*
X106062500Y-140000000D02*
X104793000Y-141269500D01*
X105700000Y-122850000D02*
X104624700Y-122850000D01*
X104793000Y-141269500D02*
X102159200Y-141269500D01*
X92460000Y-131570300D02*
X92460000Y-130850000D01*
X73062500Y-140000000D02*
X71793000Y-141269500D01*
X92460000Y-130009800D02*
X95000000Y-127469800D01*
X95000000Y-127469800D02*
X95000000Y-127040000D01*
X70924700Y-123550000D02*
X71624700Y-122850000D01*
X62000000Y-127469800D02*
X62000000Y-127040000D01*
X74562500Y-141500000D02*
X77500000Y-141500000D01*
X127036200Y-123414600D02*
X131089300Y-123414600D01*
X135159200Y-141269500D02*
X125460000Y-131570300D01*
X140562500Y-141500000D02*
X143500000Y-141500000D01*
X139062500Y-140000000D02*
X140562500Y-141500000D01*
X98089300Y-123414600D02*
X98224700Y-123550000D01*
X128000000Y-127040000D02*
X126914600Y-125954600D01*
X126914600Y-125954600D02*
X126914600Y-123536200D01*
X132000000Y-123550000D02*
X131224700Y-123550000D01*
X131089300Y-123414600D02*
X131224700Y-123550000D01*
X65089300Y-123414600D02*
X65224700Y-123550000D01*
X66000000Y-123550000D02*
X65224700Y-123550000D01*
X126914600Y-123536200D02*
X127036200Y-123414600D01*
X62000000Y-127040000D02*
X60914600Y-125954600D01*
X125460000Y-131570300D02*
X125460000Y-130850000D01*
X93914600Y-123536200D02*
X94036200Y-123414600D01*
X106062500Y-140000000D02*
X107562500Y-141500000D01*
X59460000Y-130850000D02*
X59460000Y-130009800D01*
X59460000Y-131570300D02*
X59460000Y-130850000D01*
X69159200Y-141269500D02*
X59460000Y-131570300D01*
X60914600Y-125954600D02*
X60914600Y-123536200D01*
X128000000Y-127469800D02*
X128000000Y-127040000D01*
X137793000Y-141269500D02*
X135159200Y-141269500D01*
X138700000Y-122850000D02*
X137624700Y-122850000D01*
X132000000Y-123550000D02*
X136924700Y-123550000D01*
X61036200Y-123414600D02*
X65089300Y-123414600D01*
X60914600Y-123536200D02*
X61036200Y-123414600D01*
X125460000Y-130009800D02*
X128000000Y-127469800D01*
X125460000Y-130850000D02*
X125460000Y-130009800D01*
X136924700Y-123550000D02*
X137624700Y-122850000D01*
X139062500Y-140000000D02*
X137793000Y-141269500D01*
X93914600Y-125954600D02*
X93914600Y-123536200D01*
X95000000Y-127040000D02*
X93914600Y-125954600D01*
X94036200Y-123414600D02*
X98089300Y-123414600D01*
X99000000Y-123550000D02*
X98224700Y-123550000D01*
%TO.N,Net-(J1-Pad1)*%
X77300000Y-47850000D02*
X76224700Y-47850000D01*
X76224700Y-47850000D02*
X76224700Y-46774700D01*
X76224700Y-46774700D02*
X75974600Y-46524600D01*
X75974600Y-46524600D02*
X62126100Y-46524600D01*
X62126100Y-46524600D02*
X58354000Y-50296700D01*
X58354000Y-50296700D02*
X58354000Y-63680100D01*
X58354000Y-63680100D02*
X58651300Y-63977400D01*
X109224700Y-46774700D02*
X108974600Y-46524600D01*
X110300000Y-47850000D02*
X109224700Y-47850000D01*
X91354000Y-63680100D02*
X91651300Y-63977400D01*
X95126100Y-46524600D02*
X91354000Y-50296700D01*
X108974600Y-46524600D02*
X95126100Y-46524600D01*
X91354000Y-50296700D02*
X91354000Y-63680100D01*
X109224700Y-47850000D02*
X109224700Y-46774700D01*
X143300000Y-47850000D02*
X142224700Y-47850000D01*
X142224700Y-46774700D02*
X141974600Y-46524600D01*
X124354000Y-50296700D02*
X124354000Y-63680100D01*
X142224700Y-47850000D02*
X142224700Y-46774700D01*
X128126100Y-46524600D02*
X124354000Y-50296700D01*
X124354000Y-63680100D02*
X124651300Y-63977400D01*
X141974600Y-46524600D02*
X128126100Y-46524600D01*
X110300000Y-72850000D02*
X109224700Y-72850000D01*
X109224700Y-71774700D02*
X108974600Y-71524600D01*
X91354000Y-75296700D02*
X91354000Y-88680100D01*
X109224700Y-72850000D02*
X109224700Y-71774700D01*
X95126100Y-71524600D02*
X91354000Y-75296700D01*
X91354000Y-88680100D02*
X91651300Y-88977400D01*
X108974600Y-71524600D02*
X95126100Y-71524600D01*
X76224700Y-71774700D02*
X75974600Y-71524600D01*
X77300000Y-72850000D02*
X76224700Y-72850000D01*
X58354000Y-88680100D02*
X58651300Y-88977400D01*
X62126100Y-71524600D02*
X58354000Y-75296700D01*
X75974600Y-71524600D02*
X62126100Y-71524600D01*
X58354000Y-75296700D02*
X58354000Y-88680100D01*
X76224700Y-72850000D02*
X76224700Y-71774700D01*
X143300000Y-72850000D02*
X142224700Y-72850000D01*
X124354000Y-88680100D02*
X124651300Y-88977400D01*
X141974600Y-71524600D02*
X128126100Y-71524600D01*
X142224700Y-72850000D02*
X142224700Y-71774700D01*
X128126100Y-71524600D02*
X124354000Y-75296700D01*
X124354000Y-75296700D02*
X124354000Y-88680100D01*
X142224700Y-71774700D02*
X141974600Y-71524600D01*
X91354000Y-100296700D02*
X91354000Y-113680100D01*
X109224700Y-96774700D02*
X108974600Y-96524600D01*
X110300000Y-97850000D02*
X109224700Y-97850000D01*
X77300000Y-97850000D02*
X76224700Y-97850000D01*
X58354000Y-113680100D02*
X58651300Y-113977400D01*
X62126100Y-96524600D02*
X58354000Y-100296700D01*
X75974600Y-96524600D02*
X62126100Y-96524600D01*
X58354000Y-100296700D02*
X58354000Y-113680100D01*
X76224700Y-97850000D02*
X76224700Y-96774700D01*
X108974600Y-96524600D02*
X95126100Y-96524600D01*
X95126100Y-96524600D02*
X91354000Y-100296700D01*
X109224700Y-97850000D02*
X109224700Y-96774700D01*
X91354000Y-113680100D02*
X91651300Y-113977400D01*
X76224700Y-96774700D02*
X75974600Y-96524600D01*
X143300000Y-97850000D02*
X142224700Y-97850000D01*
X124354000Y-113680100D02*
X124651300Y-113977400D01*
X142224700Y-96774700D02*
X141974600Y-96524600D01*
X142224700Y-97850000D02*
X142224700Y-96774700D01*
X128126100Y-96524600D02*
X124354000Y-100296700D01*
X141974600Y-96524600D02*
X128126100Y-96524600D01*
X124354000Y-100296700D02*
X124354000Y-113680100D01*
X108974600Y-121524600D02*
X95126100Y-121524600D01*
X76224700Y-122850000D02*
X76224700Y-121774700D01*
X58354000Y-125296700D02*
X58354000Y-138680100D01*
X75974600Y-121524600D02*
X62126100Y-121524600D01*
X110300000Y-122850000D02*
X109224700Y-122850000D01*
X62126100Y-121524600D02*
X58354000Y-125296700D01*
X77300000Y-122850000D02*
X76224700Y-122850000D01*
X58354000Y-138680100D02*
X58651300Y-138977400D01*
X109224700Y-121774700D02*
X108974600Y-121524600D01*
X91354000Y-125296700D02*
X91354000Y-138680100D01*
X109224700Y-122850000D02*
X109224700Y-121774700D01*
X95126100Y-121524600D02*
X91354000Y-125296700D01*
X91354000Y-138680100D02*
X91651300Y-138977400D01*
X142224700Y-121774700D02*
X141974600Y-121524600D01*
X124354000Y-138680100D02*
X124651300Y-138977400D01*
X143300000Y-122850000D02*
X142224700Y-122850000D01*
X76224700Y-121774700D02*
X75974600Y-121524600D01*
X124354000Y-125296700D02*
X124354000Y-138680100D01*
X141974600Y-121524600D02*
X128126100Y-121524600D01*
X142224700Y-122850000D02*
X142224700Y-121774700D01*
X128126100Y-121524600D02*
X124354000Y-125296700D01*
%TO.N,Net-(J2-Pad5)*%
X62000000Y-54580000D02*
X62232600Y-54580000D01*
X62232600Y-54580000D02*
X66000000Y-50812600D01*
X66000000Y-50812600D02*
X69000000Y-53812600D01*
X69000000Y-53812600D02*
X69000000Y-54000000D01*
X66000000Y-50450000D02*
X66000000Y-50812600D01*
X102000000Y-53812600D02*
X102000000Y-54000000D01*
X95000000Y-54580000D02*
X95232600Y-54580000D01*
X99000000Y-50450000D02*
X99000000Y-50812600D01*
X95232600Y-54580000D02*
X99000000Y-50812600D01*
X99000000Y-50812600D02*
X102000000Y-53812600D01*
X135000000Y-53812600D02*
X135000000Y-54000000D01*
X128232600Y-54580000D02*
X132000000Y-50812600D01*
X132000000Y-50450000D02*
X132000000Y-50812600D01*
X128000000Y-54580000D02*
X128232600Y-54580000D01*
X132000000Y-50812600D02*
X135000000Y-53812600D01*
X102000000Y-78812600D02*
X102000000Y-79000000D01*
X95232600Y-79580000D02*
X99000000Y-75812600D01*
X99000000Y-75450000D02*
X99000000Y-75812600D01*
X95000000Y-79580000D02*
X95232600Y-79580000D01*
X99000000Y-75812600D02*
X102000000Y-78812600D01*
X69000000Y-78812600D02*
X69000000Y-79000000D01*
X62000000Y-79580000D02*
X62232600Y-79580000D01*
X66000000Y-75450000D02*
X66000000Y-75812600D01*
X62232600Y-79580000D02*
X66000000Y-75812600D01*
X66000000Y-75812600D02*
X69000000Y-78812600D01*
X132000000Y-75450000D02*
X132000000Y-75812600D01*
X135000000Y-78812600D02*
X135000000Y-79000000D01*
X128232600Y-79580000D02*
X132000000Y-75812600D01*
X132000000Y-75812600D02*
X135000000Y-78812600D01*
X128000000Y-79580000D02*
X128232600Y-79580000D01*
X102000000Y-103812600D02*
X102000000Y-104000000D01*
X62232600Y-104580000D02*
X66000000Y-100812600D01*
X69000000Y-103812600D02*
X69000000Y-104000000D01*
X99000000Y-100812600D02*
X102000000Y-103812600D01*
X95000000Y-104580000D02*
X95232600Y-104580000D01*
X99000000Y-100450000D02*
X99000000Y-100812600D01*
X62000000Y-104580000D02*
X62232600Y-104580000D01*
X66000000Y-100812600D02*
X69000000Y-103812600D01*
X95232600Y-104580000D02*
X99000000Y-100812600D01*
X66000000Y-100450000D02*
X66000000Y-100812600D01*
X132000000Y-100450000D02*
X132000000Y-100812600D01*
X135000000Y-103812600D02*
X135000000Y-104000000D01*
X128232600Y-104580000D02*
X132000000Y-100812600D01*
X132000000Y-100812600D02*
X135000000Y-103812600D01*
X128000000Y-104580000D02*
X128232600Y-104580000D01*
X99000000Y-125812600D02*
X102000000Y-128812600D01*
X102000000Y-128812600D02*
X102000000Y-129000000D01*
X69000000Y-128812600D02*
X69000000Y-129000000D01*
X62232600Y-129580000D02*
X66000000Y-125812600D01*
X99000000Y-125450000D02*
X99000000Y-125812600D01*
X62000000Y-129580000D02*
X62232600Y-129580000D01*
X95000000Y-129580000D02*
X95232600Y-129580000D01*
X132000000Y-125450000D02*
X132000000Y-125812600D01*
X95232600Y-129580000D02*
X99000000Y-125812600D01*
X66000000Y-125812600D02*
X69000000Y-128812600D01*
X66000000Y-125450000D02*
X66000000Y-125812600D01*
X135000000Y-128812600D02*
X135000000Y-129000000D01*
X128000000Y-129580000D02*
X128232600Y-129580000D01*
X128232600Y-129580000D02*
X132000000Y-125812600D01*
X132000000Y-125812600D02*
X135000000Y-128812600D01*
%TO.N,Net-(R5-Pad1)*%
X76197500Y-64602500D02*
X77397500Y-64602500D01*
X77397500Y-64602500D02*
X77500000Y-64500000D01*
X109197500Y-64602500D02*
X110397500Y-64602500D01*
X110397500Y-64602500D02*
X110500000Y-64500000D01*
X142197500Y-64602500D02*
X143397500Y-64602500D01*
X143397500Y-64602500D02*
X143500000Y-64500000D01*
X109197500Y-89602500D02*
X110397500Y-89602500D01*
X110397500Y-89602500D02*
X110500000Y-89500000D01*
X76197500Y-89602500D02*
X77397500Y-89602500D01*
X77397500Y-89602500D02*
X77500000Y-89500000D01*
X142197500Y-89602500D02*
X143397500Y-89602500D01*
X143397500Y-89602500D02*
X143500000Y-89500000D01*
X110397500Y-114602500D02*
X110500000Y-114500000D01*
X77397500Y-114602500D02*
X77500000Y-114500000D01*
X76197500Y-114602500D02*
X77397500Y-114602500D01*
X109197500Y-114602500D02*
X110397500Y-114602500D01*
X142197500Y-114602500D02*
X143397500Y-114602500D01*
X143397500Y-114602500D02*
X143500000Y-114500000D01*
X109197500Y-139602500D02*
X110397500Y-139602500D01*
X77397500Y-139602500D02*
X77500000Y-139500000D01*
X76197500Y-139602500D02*
X77397500Y-139602500D01*
X110397500Y-139602500D02*
X110500000Y-139500000D01*
X142197500Y-139602500D02*
X143397500Y-139602500D01*
X143397500Y-139602500D02*
X143500000Y-139500000D01*
%TO.N,Net-(J2-Pad1)*%
X69000000Y-56000000D02*
X71500000Y-58500000D01*
X71500000Y-58500000D02*
X71500000Y-59500000D01*
X69000000Y-56000000D02*
X70026400Y-54973600D01*
X70026400Y-54973600D02*
X70026400Y-53163400D01*
X70026400Y-53163400D02*
X66363000Y-49500000D01*
X66363000Y-49500000D02*
X62000000Y-49500000D01*
X103026400Y-53163400D02*
X99363000Y-49500000D01*
X103026400Y-54973600D02*
X103026400Y-53163400D01*
X102000000Y-56000000D02*
X104500000Y-58500000D01*
X104500000Y-58500000D02*
X104500000Y-59500000D01*
X99363000Y-49500000D02*
X95000000Y-49500000D01*
X102000000Y-56000000D02*
X103026400Y-54973600D01*
X137500000Y-58500000D02*
X137500000Y-59500000D01*
X136026400Y-54973600D02*
X136026400Y-53163400D01*
X136026400Y-53163400D02*
X132363000Y-49500000D01*
X132363000Y-49500000D02*
X128000000Y-49500000D01*
X135000000Y-56000000D02*
X136026400Y-54973600D01*
X135000000Y-56000000D02*
X137500000Y-58500000D01*
X70026400Y-78163400D02*
X66363000Y-74500000D01*
X70026400Y-79973600D02*
X70026400Y-78163400D01*
X69000000Y-81000000D02*
X71500000Y-83500000D01*
X71500000Y-83500000D02*
X71500000Y-84500000D01*
X66363000Y-74500000D02*
X62000000Y-74500000D01*
X69000000Y-81000000D02*
X70026400Y-79973600D01*
X104500000Y-83500000D02*
X104500000Y-84500000D01*
X103026400Y-79973600D02*
X103026400Y-78163400D01*
X103026400Y-78163400D02*
X99363000Y-74500000D01*
X99363000Y-74500000D02*
X95000000Y-74500000D01*
X102000000Y-81000000D02*
X103026400Y-79973600D01*
X102000000Y-81000000D02*
X104500000Y-83500000D01*
X137500000Y-83500000D02*
X137500000Y-84500000D01*
X136026400Y-79973600D02*
X136026400Y-78163400D01*
X136026400Y-78163400D02*
X132363000Y-74500000D01*
X132363000Y-74500000D02*
X128000000Y-74500000D01*
X135000000Y-81000000D02*
X136026400Y-79973600D01*
X135000000Y-81000000D02*
X137500000Y-83500000D01*
X71500000Y-108500000D02*
X71500000Y-109500000D01*
X69000000Y-106000000D02*
X70026400Y-104973600D01*
X70026400Y-103163400D02*
X66363000Y-99500000D01*
X69000000Y-106000000D02*
X71500000Y-108500000D01*
X70026400Y-104973600D02*
X70026400Y-103163400D01*
X103026400Y-104973600D02*
X103026400Y-103163400D01*
X104500000Y-108500000D02*
X104500000Y-109500000D01*
X66363000Y-99500000D02*
X62000000Y-99500000D01*
X136026400Y-104973600D02*
X136026400Y-103163400D01*
X102000000Y-106000000D02*
X104500000Y-108500000D01*
X102000000Y-106000000D02*
X103026400Y-104973600D01*
X103026400Y-103163400D02*
X99363000Y-99500000D01*
X99363000Y-99500000D02*
X95000000Y-99500000D01*
X137500000Y-108500000D02*
X137500000Y-109500000D01*
X132363000Y-99500000D02*
X128000000Y-99500000D01*
X135000000Y-106000000D02*
X137500000Y-108500000D01*
X136026400Y-103163400D02*
X132363000Y-99500000D01*
X135000000Y-106000000D02*
X136026400Y-104973600D01*
X137500000Y-133500000D02*
X137500000Y-134500000D01*
X69000000Y-131000000D02*
X71500000Y-133500000D01*
X70026400Y-128163400D02*
X66363000Y-124500000D01*
X71500000Y-133500000D02*
X71500000Y-134500000D01*
X69000000Y-131000000D02*
X70026400Y-129973600D01*
X135000000Y-131000000D02*
X137500000Y-133500000D01*
X132363000Y-124500000D02*
X128000000Y-124500000D01*
X136026400Y-128163400D02*
X132363000Y-124500000D01*
X135000000Y-131000000D02*
X136026400Y-129973600D01*
X102000000Y-131000000D02*
X104500000Y-133500000D01*
X104500000Y-133500000D02*
X104500000Y-134500000D01*
X66363000Y-124500000D02*
X62000000Y-124500000D01*
X136026400Y-129973600D02*
X136026400Y-128163400D01*
X70026400Y-129973600D02*
X70026400Y-128163400D01*
X103026400Y-129973600D02*
X103026400Y-128163400D01*
X99363000Y-124500000D02*
X95000000Y-124500000D01*
X103026400Y-128163400D02*
X99363000Y-124500000D01*
X102000000Y-131000000D02*
X103026400Y-129973600D01*
%TO.N,Net-(P3-Pad2)*%
X78694500Y-56185500D02*
X78694500Y-56317400D01*
X78694500Y-56317400D02*
X77604400Y-57407500D01*
X77604400Y-57407500D02*
X77500000Y-57407500D01*
X111694500Y-56317400D02*
X110604400Y-57407500D01*
X110604400Y-57407500D02*
X110500000Y-57407500D01*
X111694500Y-56185500D02*
X111694500Y-56317400D01*
X143604400Y-57407500D02*
X143500000Y-57407500D01*
X144694500Y-56317400D02*
X143604400Y-57407500D01*
X144694500Y-56185500D02*
X144694500Y-56317400D01*
X78694500Y-81317400D02*
X77604400Y-82407500D01*
X77604400Y-82407500D02*
X77500000Y-82407500D01*
X78694500Y-81185500D02*
X78694500Y-81317400D01*
X110604400Y-82407500D02*
X110500000Y-82407500D01*
X111694500Y-81317400D02*
X110604400Y-82407500D01*
X111694500Y-81185500D02*
X111694500Y-81317400D01*
X143604400Y-82407500D02*
X143500000Y-82407500D01*
X144694500Y-81185500D02*
X144694500Y-81317400D01*
X144694500Y-81317400D02*
X143604400Y-82407500D01*
X78694500Y-106317400D02*
X77604400Y-107407500D01*
X77604400Y-107407500D02*
X77500000Y-107407500D01*
X78694500Y-106185500D02*
X78694500Y-106317400D01*
X110604400Y-107407500D02*
X110500000Y-107407500D01*
X111694500Y-106317400D02*
X110604400Y-107407500D01*
X111694500Y-106185500D02*
X111694500Y-106317400D01*
X144694500Y-106185500D02*
X144694500Y-106317400D01*
X143604400Y-107407500D02*
X143500000Y-107407500D01*
X144694500Y-106317400D02*
X143604400Y-107407500D01*
X144694500Y-131185500D02*
X144694500Y-131317400D01*
X78694500Y-131185500D02*
X78694500Y-131317400D01*
X144694500Y-131317400D02*
X143604400Y-132407500D01*
X111694500Y-131185500D02*
X111694500Y-131317400D01*
X110604400Y-132407500D02*
X110500000Y-132407500D01*
X111694500Y-131317400D02*
X110604400Y-132407500D01*
X78694500Y-131317400D02*
X77604400Y-132407500D01*
X77604400Y-132407500D02*
X77500000Y-132407500D01*
X143604400Y-132407500D02*
X143500000Y-132407500D01*
%TO.N,Net-(P3-Pad1)*%
X68000000Y-49500000D02*
X68000000Y-50225300D01*
X68000000Y-50225300D02*
X71815700Y-54041000D01*
X71815700Y-54041000D02*
X71815700Y-57815700D01*
X71815700Y-57815700D02*
X73500000Y-59500000D01*
X76974200Y-58876700D02*
X76350900Y-59500000D01*
X76350900Y-59500000D02*
X73500000Y-59500000D01*
X77500000Y-56592500D02*
X77395900Y-56592500D01*
X77395900Y-56592500D02*
X76974200Y-57014200D01*
X76974200Y-57014200D02*
X76974200Y-58876700D01*
X76974200Y-58876700D02*
X77500000Y-59402500D01*
X104815700Y-57815700D02*
X106500000Y-59500000D01*
X101000000Y-49500000D02*
X101000000Y-50225300D01*
X104815700Y-54041000D02*
X104815700Y-57815700D01*
X109974200Y-58876700D02*
X110500000Y-59402500D01*
X109974200Y-58876700D02*
X109350900Y-59500000D01*
X110500000Y-56592500D02*
X110395900Y-56592500D01*
X110395900Y-56592500D02*
X109974200Y-57014200D01*
X109350900Y-59500000D02*
X106500000Y-59500000D01*
X109974200Y-57014200D02*
X109974200Y-58876700D01*
X101000000Y-50225300D02*
X104815700Y-54041000D01*
X142974200Y-57014200D02*
X142974200Y-58876700D01*
X143395900Y-56592500D02*
X142974200Y-57014200D01*
X142350900Y-59500000D02*
X139500000Y-59500000D01*
X142974200Y-58876700D02*
X142350900Y-59500000D01*
X134000000Y-50225300D02*
X137815700Y-54041000D01*
X134000000Y-49500000D02*
X134000000Y-50225300D01*
X137815700Y-57815700D02*
X139500000Y-59500000D01*
X142974200Y-58876700D02*
X143500000Y-59402500D01*
X137815700Y-54041000D02*
X137815700Y-57815700D01*
X143500000Y-56592500D02*
X143395900Y-56592500D01*
X71815700Y-82815700D02*
X73500000Y-84500000D01*
X68000000Y-74500000D02*
X68000000Y-75225300D01*
X71815700Y-79041000D02*
X71815700Y-82815700D01*
X76974200Y-83876700D02*
X77500000Y-84402500D01*
X76974200Y-83876700D02*
X76350900Y-84500000D01*
X77500000Y-81592500D02*
X77395900Y-81592500D01*
X77395900Y-81592500D02*
X76974200Y-82014200D01*
X76350900Y-84500000D02*
X73500000Y-84500000D01*
X76974200Y-82014200D02*
X76974200Y-83876700D01*
X68000000Y-75225300D02*
X71815700Y-79041000D01*
X109974200Y-82014200D02*
X109974200Y-83876700D01*
X110395900Y-81592500D02*
X109974200Y-82014200D01*
X109350900Y-84500000D02*
X106500000Y-84500000D01*
X109974200Y-83876700D02*
X109350900Y-84500000D01*
X101000000Y-75225300D02*
X104815700Y-79041000D01*
X101000000Y-74500000D02*
X101000000Y-75225300D01*
X104815700Y-82815700D02*
X106500000Y-84500000D01*
X109974200Y-83876700D02*
X110500000Y-84402500D01*
X104815700Y-79041000D02*
X104815700Y-82815700D01*
X110500000Y-81592500D02*
X110395900Y-81592500D01*
X142974200Y-82014200D02*
X142974200Y-83876700D01*
X143395900Y-81592500D02*
X142974200Y-82014200D01*
X134000000Y-75225300D02*
X137815700Y-79041000D01*
X137815700Y-82815700D02*
X139500000Y-84500000D01*
X134000000Y-74500000D02*
X134000000Y-75225300D01*
X142350900Y-84500000D02*
X139500000Y-84500000D01*
X142974200Y-83876700D02*
X142350900Y-84500000D01*
X142974200Y-83876700D02*
X143500000Y-84402500D01*
X137815700Y-79041000D02*
X137815700Y-82815700D01*
X143500000Y-81592500D02*
X143395900Y-81592500D01*
X76974200Y-108876700D02*
X76350900Y-109500000D01*
X101000000Y-99500000D02*
X101000000Y-100225300D01*
X104815700Y-107815700D02*
X106500000Y-109500000D01*
X77500000Y-106592500D02*
X77395900Y-106592500D01*
X76974200Y-107014200D02*
X76974200Y-108876700D01*
X71815700Y-107815700D02*
X73500000Y-109500000D01*
X68000000Y-100225300D02*
X71815700Y-104041000D01*
X76350900Y-109500000D02*
X73500000Y-109500000D01*
X109974200Y-107014200D02*
X109974200Y-108876700D01*
X109974200Y-108876700D02*
X109350900Y-109500000D01*
X71815700Y-104041000D02*
X71815700Y-107815700D01*
X76974200Y-108876700D02*
X77500000Y-109402500D01*
X77395900Y-106592500D02*
X76974200Y-107014200D01*
X68000000Y-99500000D02*
X68000000Y-100225300D01*
X110395900Y-106592500D02*
X109974200Y-107014200D01*
X109350900Y-109500000D02*
X106500000Y-109500000D01*
X101000000Y-100225300D02*
X104815700Y-104041000D01*
X142974200Y-107014200D02*
X142974200Y-108876700D01*
X143395900Y-106592500D02*
X142974200Y-107014200D01*
X109974200Y-108876700D02*
X110500000Y-109402500D01*
X134000000Y-100225300D02*
X137815700Y-104041000D01*
X110500000Y-106592500D02*
X110395900Y-106592500D01*
X104815700Y-104041000D02*
X104815700Y-107815700D01*
X137815700Y-107815700D02*
X139500000Y-109500000D01*
X142974200Y-108876700D02*
X143500000Y-109402500D01*
X142974200Y-108876700D02*
X142350900Y-109500000D01*
X142350900Y-109500000D02*
X139500000Y-109500000D01*
X134000000Y-99500000D02*
X134000000Y-100225300D01*
X137815700Y-104041000D02*
X137815700Y-107815700D01*
X143500000Y-106592500D02*
X143395900Y-106592500D01*
X104815700Y-129041000D02*
X104815700Y-132815700D01*
X137815700Y-132815700D02*
X139500000Y-134500000D01*
X71815700Y-132815700D02*
X73500000Y-134500000D01*
X68000000Y-125225300D02*
X71815700Y-129041000D01*
X76350900Y-134500000D02*
X73500000Y-134500000D01*
X109974200Y-132014200D02*
X109974200Y-133876700D01*
X137815700Y-129041000D02*
X137815700Y-132815700D01*
X143500000Y-131592500D02*
X143395900Y-131592500D01*
X134000000Y-125225300D02*
X137815700Y-129041000D01*
X77395900Y-131592500D02*
X76974200Y-132014200D01*
X76974200Y-133876700D02*
X77500000Y-134402500D01*
X142974200Y-132014200D02*
X142974200Y-133876700D01*
X109974200Y-133876700D02*
X110500000Y-134402500D01*
X143395900Y-131592500D02*
X142974200Y-132014200D01*
X77500000Y-131592500D02*
X77395900Y-131592500D01*
X76974200Y-132014200D02*
X76974200Y-133876700D01*
X104815700Y-132815700D02*
X106500000Y-134500000D01*
X76974200Y-133876700D02*
X76350900Y-134500000D01*
X101000000Y-124500000D02*
X101000000Y-125225300D01*
X142974200Y-133876700D02*
X143500000Y-134402500D01*
X142974200Y-133876700D02*
X142350900Y-134500000D01*
X134000000Y-124500000D02*
X134000000Y-125225300D01*
X142350900Y-134500000D02*
X139500000Y-134500000D01*
X110395900Y-131592500D02*
X109974200Y-132014200D01*
X68000000Y-124500000D02*
X68000000Y-125225300D01*
X101000000Y-125225300D02*
X104815700Y-129041000D01*
X109350900Y-134500000D02*
X106500000Y-134500000D01*
X109974200Y-133876700D02*
X109350900Y-134500000D01*
X71815700Y-129041000D02*
X71815700Y-132815700D01*
X110500000Y-131592500D02*
X110395900Y-131592500D01*
%TO.N,Net-(P4-Pad2)*%
X77500000Y-60217500D02*
X77510300Y-60227800D01*
X77510300Y-60227800D02*
X78319900Y-60227800D01*
X110500000Y-60217500D02*
X110510300Y-60227800D01*
X110510300Y-60227800D02*
X111319900Y-60227800D01*
X143500000Y-60217500D02*
X143510300Y-60227800D01*
X143510300Y-60227800D02*
X144319900Y-60227800D01*
X77500000Y-85217500D02*
X77510300Y-85227800D01*
X77510300Y-85227800D02*
X78319900Y-85227800D01*
X110500000Y-85217500D02*
X110510300Y-85227800D01*
X110510300Y-85227800D02*
X111319900Y-85227800D01*
X143500000Y-85217500D02*
X143510300Y-85227800D01*
X143510300Y-85227800D02*
X144319900Y-85227800D01*
X110500000Y-110217500D02*
X110510300Y-110227800D01*
X77500000Y-110217500D02*
X77510300Y-110227800D01*
X77510300Y-110227800D02*
X78319900Y-110227800D01*
X143500000Y-110217500D02*
X143510300Y-110227800D01*
X110510300Y-110227800D02*
X111319900Y-110227800D01*
X143510300Y-110227800D02*
X144319900Y-110227800D01*
X110500000Y-135217500D02*
X110510300Y-135227800D01*
X143510300Y-135227800D02*
X144319900Y-135227800D01*
X110510300Y-135227800D02*
X111319900Y-135227800D01*
X143500000Y-135217500D02*
X143510300Y-135227800D01*
X77510300Y-135227800D02*
X78319900Y-135227800D01*
X77500000Y-135217500D02*
X77510300Y-135227800D01*
%TD*%
M02*
