M48
; DRILL file {KiCad (5.1.9)-1} date 08/15/21 14:18:17
; FORMAT={3:3/ absolute / metric / suppress leading zeros}
; #@! TF.CreationDate,2021-08-15T14:18:17+02:00
; #@! TF.GenerationSoftware,Kicad,Pcbnew,(5.1.9)-1
; #@! TF.FileFunction,Plated,1,2,PTH
FMAT,2
METRIC,TZ
T1C0.400
T2C0.450
T3C0.760
%
G90
G05
T1
X58651Y-63977
X58651Y-88977
X58651Y-113977
X58651Y-138977
X68655Y-64725
X68655Y-89725
X68655Y-114725
X68655Y-139725
X76197Y-64602
X76197Y-89602
X76197Y-114602
X76197Y-139602
X78320Y-60228
X78320Y-85228
X78320Y-110228
X78320Y-135228
X78694Y-56186
X78694Y-81186
X78694Y-106186
X78694Y-131186
X91651Y-63977
X91651Y-88977
X91651Y-113977
X91651Y-138977
X101655Y-64725
X101655Y-89725
X101655Y-114725
X101655Y-139725
X109198Y-64602
X109198Y-89602
X109198Y-114602
X109198Y-139602
X111320Y-60228
X111320Y-85228
X111320Y-110228
X111320Y-135228
X111694Y-56186
X111694Y-81186
X111694Y-106186
X111694Y-131186
X124651Y-63977
X124651Y-88977
X124651Y-113977
X124651Y-138977
X134655Y-64725
X134655Y-89725
X134655Y-114725
X134655Y-139725
X142198Y-64602
X142198Y-89602
X142198Y-114602
X142198Y-139602
X144320Y-60228
X144320Y-85228
X144320Y-110228
X144320Y-135228
X144695Y-56186
X144695Y-81186
X144695Y-106186
X144695Y-131186
T3
X59460Y-50770
X59460Y-53310
X59460Y-55850
X59460Y-75770
X59460Y-78310
X59460Y-80850
X59460Y-100770
X59460Y-103310
X59460Y-105850
X59460Y-125770
X59460Y-128310
X59460Y-130850
X62000Y-49500
X62000Y-52040
X62000Y-54580
X62000Y-74500
X62000Y-77040
X62000Y-79580
X62000Y-99500
X62000Y-102040
X62000Y-104580
X62000Y-124500
X62000Y-127040
X62000Y-129580
X92460Y-50770
X92460Y-53310
X92460Y-55850
X92460Y-75770
X92460Y-78310
X92460Y-80850
X92460Y-100770
X92460Y-103310
X92460Y-105850
X92460Y-125770
X92460Y-128310
X92460Y-130850
X95000Y-49500
X95000Y-52040
X95000Y-54580
X95000Y-74500
X95000Y-77040
X95000Y-79580
X95000Y-99500
X95000Y-102040
X95000Y-104580
X95000Y-124500
X95000Y-127040
X95000Y-129580
X125460Y-50770
X125460Y-53310
X125460Y-55850
X125460Y-75770
X125460Y-78310
X125460Y-80850
X125460Y-100770
X125460Y-103310
X125460Y-105850
X125460Y-125770
X125460Y-128310
X125460Y-130850
X128000Y-49500
X128000Y-52040
X128000Y-54580
X128000Y-74500
X128000Y-77040
X128000Y-79580
X128000Y-99500
X128000Y-102040
X128000Y-104580
X128000Y-124500
X128000Y-127040
X128000Y-129580
T2
G00X49900Y-61925
M15
G01X50700Y-61925
M16
G05
G00X50700Y-69075
M15
G01X49900Y-69075
M16
G05
G00X49900Y-86925
M15
G01X50700Y-86925
M16
G05
G00X50700Y-94075
M15
G01X49900Y-94075
M16
G05
G00X49900Y-111925
M15
G01X50700Y-111925
M16
G05
G00X50700Y-119075
M15
G01X49900Y-119075
M16
G05
G00X49900Y-136925
M15
G01X50700Y-136925
M16
G05
G00X50700Y-144075
M15
G01X49900Y-144075
M16
G05
G00X82900Y-61925
M15
G01X83700Y-61925
M16
G05
G00X83700Y-69075
M15
G01X82900Y-69075
M16
G05
G00X82900Y-86925
M15
G01X83700Y-86925
M16
G05
G00X83700Y-94075
M15
G01X82900Y-94075
M16
G05
G00X82900Y-111925
M15
G01X83700Y-111925
M16
G05
G00X83700Y-119075
M15
G01X82900Y-119075
M16
G05
G00X82900Y-136925
M15
G01X83700Y-136925
M16
G05
G00X83700Y-144075
M15
G01X82900Y-144075
M16
G05
G00X115900Y-61925
M15
G01X116700Y-61925
M16
G05
G00X116700Y-69075
M15
G01X115900Y-69075
M16
G05
G00X115900Y-86925
M15
G01X116700Y-86925
M16
G05
G00X116700Y-94075
M15
G01X115900Y-94075
M16
G05
G00X115900Y-111925
M15
G01X116700Y-111925
M16
G05
G00X116700Y-119075
M15
G01X115900Y-119075
M16
G05
G00X115900Y-136925
M15
G01X116700Y-136925
M16
G05
G00X116700Y-144075
M15
G01X115900Y-144075
M16
G05
T0
M30
