M48
; DRILL file {KiCad (5.1.9)-1} date 12/30/21 17:23:24
; FORMAT={-:-/ absolute / inch / decimal}
; #@! TF.CreationDate,2021-12-30T17:23:24+01:00
; #@! TF.GenerationSoftware,Kicad,Pcbnew,(5.1.9)-1
; #@! TF.FileFunction,NonPlated,1,2,NPTH
FMAT,2
INCH
T1C0.1280
%
G90
G05
T1
X1.5555Y-2.5547
X1.5555Y-2.9547
X1.5555Y-3.3421
X1.5555Y-3.7421
X1.5555Y-4.1295
X1.5555Y-4.5295
X1.5555Y-4.9169
X1.5555Y-5.3169
X1.5555Y-5.7043
X1.5555Y-6.1043
X3.524Y-2.5547
X3.524Y-2.9547
X3.524Y-3.3421
X3.524Y-3.7421
X3.524Y-4.1295
X3.524Y-4.5295
X3.524Y-4.9169
X3.524Y-5.3169
X3.524Y-5.7043
X3.524Y-6.1043
T0
M30
