M48
; DRILL file {KiCad (5.1.9)-1} date 12/30/21 17:23:24
; FORMAT={-:-/ absolute / inch / decimal}
; #@! TF.CreationDate,2021-12-30T17:23:24+01:00
; #@! TF.GenerationSoftware,Kicad,Pcbnew,(5.1.9)-1
; #@! TF.FileFunction,Plated,1,2,PTH
FMAT,2
INCH
T1C0.0157
T2C0.0177
T3C0.0299
%
G90
G05
T1
X2.7845Y-2.9867
X2.7845Y-3.7741
X2.7845Y-4.5615
X2.7845Y-5.3489
X2.7845Y-6.1364
X2.8853Y-2.7391
X2.8853Y-3.5265
X2.8853Y-4.3139
X2.8853Y-5.1013
X2.8853Y-5.8887
X3.0945Y-2.9237
X3.0945Y-3.7111
X3.0945Y-4.4985
X3.0945Y-5.2859
X3.0945Y-6.0733
X3.1061Y-2.4702
X3.1061Y-3.2576
X3.1061Y-4.0451
X3.1061Y-4.8325
X3.1061Y-5.6199
X3.195Y-2.4712
X3.195Y-3.2586
X3.195Y-4.046
X3.195Y-4.8334
X3.195Y-5.6209
X3.2464Y-3.1251
X3.2464Y-3.9125
X3.2464Y-4.6999
X3.2464Y-5.4873
X3.2464Y-6.2747
X4.753Y-2.9867
X4.753Y-3.7741
X4.753Y-4.5615
X4.753Y-5.3489
X4.753Y-6.1364
X4.8539Y-2.7391
X4.8539Y-3.5265
X4.8539Y-4.3139
X4.8539Y-5.1013
X4.8539Y-5.8887
X5.063Y-2.9237
X5.063Y-3.7111
X5.063Y-4.4985
X5.063Y-5.2859
X5.063Y-6.0733
X5.0746Y-2.4702
X5.0746Y-3.2576
X5.0746Y-4.0451
X5.0746Y-4.8325
X5.0746Y-5.6199
X5.1635Y-2.4712
X5.1635Y-3.2586
X5.1635Y-4.046
X5.1635Y-4.8334
X5.1635Y-5.6209
X5.2149Y-3.1251
X5.2149Y-3.9125
X5.2149Y-4.6999
X5.2149Y-5.4873
X5.2149Y-6.2747
T3
X1.8055Y-2.6799
X1.8055Y-2.7799
X1.8055Y-2.8799
X1.8055Y-3.4673
X1.8055Y-3.5673
X1.8055Y-3.6673
X1.8055Y-4.2547
X1.8055Y-4.3547
X1.8055Y-4.4547
X1.8055Y-5.0421
X1.8055Y-5.1421
X1.8055Y-5.2421
X1.8055Y-5.8295
X1.8055Y-5.9295
X1.8055Y-6.0295
X1.9055Y-2.6299
X1.9055Y-2.7299
X1.9055Y-2.8299
X1.9055Y-3.4173
X1.9055Y-3.5173
X1.9055Y-3.6173
X1.9055Y-4.2047
X1.9055Y-4.3047
X1.9055Y-4.4047
X1.9055Y-4.9921
X1.9055Y-5.0921
X1.9055Y-5.1921
X1.9055Y-5.7795
X1.9055Y-5.8795
X1.9055Y-5.9795
X3.774Y-2.6799
X3.774Y-2.7799
X3.774Y-2.8799
X3.774Y-3.4673
X3.774Y-3.5673
X3.774Y-3.6673
X3.774Y-4.2547
X3.774Y-4.3547
X3.774Y-4.4547
X3.774Y-5.0421
X3.774Y-5.1421
X3.774Y-5.2421
X3.774Y-5.8295
X3.774Y-5.9295
X3.774Y-6.0295
X3.874Y-2.6299
X3.874Y-2.7299
X3.874Y-2.8299
X3.874Y-3.4173
X3.874Y-3.5173
X3.874Y-3.6173
X3.874Y-4.2047
X3.874Y-4.3047
X3.874Y-4.4047
X3.874Y-4.9921
X3.874Y-5.0921
X3.874Y-5.1921
X3.874Y-5.7795
X3.874Y-5.8795
X3.874Y-5.9795
T2
G00X3.3622Y-2.6152
M15
G01X3.3937Y-2.6152
M16
G05
G00X3.3937Y-2.8967
M15
G01X3.3622Y-2.8967
M16
G05
G00X3.3622Y-3.4026
M15
G01X3.3937Y-3.4026
M16
G05
G00X3.3937Y-3.6841
M15
G01X3.3622Y-3.6841
M16
G05
G00X3.3622Y-4.19
M15
G01X3.3937Y-4.19
M16
G05
G00X3.3937Y-4.4715
M15
G01X3.3622Y-4.4715
M16
G05
G00X3.3622Y-4.9774
M15
G01X3.3937Y-4.9774
M16
G05
G00X3.3937Y-5.2589
M15
G01X3.3622Y-5.2589
M16
G05
G00X3.3622Y-5.7648
M15
G01X3.3937Y-5.7648
M16
G05
G00X3.3937Y-6.0463
M15
G01X3.3622Y-6.0463
M16
G05
G00X5.3307Y-2.6152
M15
G01X5.3622Y-2.6152
M16
G05
G00X5.3622Y-2.8967
M15
G01X5.3307Y-2.8967
M16
G05
G00X5.3307Y-3.4026
M15
G01X5.3622Y-3.4026
M16
G05
G00X5.3622Y-3.6841
M15
G01X5.3307Y-3.6841
M16
G05
G00X5.3307Y-4.19
M15
G01X5.3622Y-4.19
M16
G05
G00X5.3622Y-4.4715
M15
G01X5.3307Y-4.4715
M16
G05
G00X5.3307Y-4.9774
M15
G01X5.3622Y-4.9774
M16
G05
G00X5.3622Y-5.2589
M15
G01X5.3307Y-5.2589
M16
G05
G00X5.3307Y-5.7648
M15
G01X5.3622Y-5.7648
M16
G05
G00X5.3622Y-6.0463
M15
G01X5.3307Y-6.0463
M16
G05
T0
M30
