%TF.GenerationSoftware,KiCad,Pcbnew,(5.1.9)-1*%
%TF.CreationDate,2021-12-30T17:23:28+01:00*%
%TF.ProjectId,IM350_AM550_T210_5V_V5.1,494d3335-305f-4414-9d35-35305f543231,rev?*%
%TF.SameCoordinates,Original*%
%TF.FileFunction,Soldermask,Top*%
%TF.FilePolarity,Negative*%
%FSLAX46Y46*%
G04 Gerber Fmt 4.6, Leading zero omitted, Abs format (unit mm)*
G04 Created by KiCad (PCBNEW (5.1.9)-1) date 2021-12-30 17:23:28*
%MOMM*%
%LPD*%
G01*
G04 APERTURE LIST*
%ADD10R,1.520000X1.520000*%
%ADD11C,3.250000*%
%ADD12C,1.520000*%
%ADD13R,0.900000X0.800000*%
%ADD14R,1.000000X2.500000*%
%ADD15R,1.800000X1.000000*%
%ADD16R,1.500000X1.500000*%
%ADD17R,2.800000X0.600000*%
%ADD18O,1.900000X1.050000*%
G04 APERTURE END LIST*
D10*
%TO.C,J2*%
X48400000Y-146800000D03*
D11*
X39510000Y-144890000D03*
D12*
X45860000Y-148070000D03*
X48400000Y-149340000D03*
X45860000Y-150610000D03*
X48400000Y-151880000D03*
X45860000Y-153150000D03*
D11*
X39510000Y-155050000D03*
%TD*%
%TO.C,J2*%
X39510000Y-135050000D03*
D12*
X45860000Y-133150000D03*
X48400000Y-131880000D03*
X45860000Y-130610000D03*
X48400000Y-129340000D03*
X45860000Y-128070000D03*
D11*
X39510000Y-124890000D03*
D10*
X48400000Y-126800000D03*
%TD*%
%TO.C,J2*%
X48400000Y-106800000D03*
D11*
X39510000Y-104890000D03*
D12*
X45860000Y-108070000D03*
X48400000Y-109340000D03*
X45860000Y-110610000D03*
X48400000Y-111880000D03*
X45860000Y-113150000D03*
D11*
X39510000Y-115050000D03*
%TD*%
%TO.C,J2*%
X39510000Y-95050000D03*
D12*
X45860000Y-93150000D03*
X48400000Y-91880000D03*
X45860000Y-90610000D03*
X48400000Y-89340000D03*
X45860000Y-88070000D03*
D11*
X39510000Y-84890000D03*
D10*
X48400000Y-86800000D03*
%TD*%
%TO.C,R1*%
G36*
G01*
X78175000Y-153162500D02*
X78175000Y-153637500D01*
G75*
G02*
X77937500Y-153875000I-237500J0D01*
G01*
X77437500Y-153875000D01*
G75*
G02*
X77200000Y-153637500I0J237500D01*
G01*
X77200000Y-153162500D01*
G75*
G02*
X77437500Y-152925000I237500J0D01*
G01*
X77937500Y-152925000D01*
G75*
G02*
X78175000Y-153162500I0J-237500D01*
G01*
G37*
G36*
G01*
X80000000Y-153162500D02*
X80000000Y-153637500D01*
G75*
G02*
X79762500Y-153875000I-237500J0D01*
G01*
X79262500Y-153875000D01*
G75*
G02*
X79025000Y-153637500I0J237500D01*
G01*
X79025000Y-153162500D01*
G75*
G02*
X79262500Y-152925000I237500J0D01*
G01*
X79762500Y-152925000D01*
G75*
G02*
X80000000Y-153162500I0J-237500D01*
G01*
G37*
%TD*%
%TO.C,R8*%
G36*
G01*
X81849999Y-143200000D02*
X82750001Y-143200000D01*
G75*
G02*
X83000000Y-143449999I0J-249999D01*
G01*
X83000000Y-144150001D01*
G75*
G02*
X82750001Y-144400000I-249999J0D01*
G01*
X81849999Y-144400000D01*
G75*
G02*
X81600000Y-144150001I0J249999D01*
G01*
X81600000Y-143449999D01*
G75*
G02*
X81849999Y-143200000I249999J0D01*
G01*
G37*
G36*
G01*
X81849999Y-141200000D02*
X82750001Y-141200000D01*
G75*
G02*
X83000000Y-141449999I0J-249999D01*
G01*
X83000000Y-142150001D01*
G75*
G02*
X82750001Y-142400000I-249999J0D01*
G01*
X81849999Y-142400000D01*
G75*
G02*
X81600000Y-142150001I0J249999D01*
G01*
X81600000Y-141449999D01*
G75*
G02*
X81849999Y-141200000I249999J0D01*
G01*
G37*
%TD*%
%TO.C,R3*%
G36*
G01*
X78250001Y-144400000D02*
X77349999Y-144400000D01*
G75*
G02*
X77100000Y-144150001I0J249999D01*
G01*
X77100000Y-143449999D01*
G75*
G02*
X77349999Y-143200000I249999J0D01*
G01*
X78250001Y-143200000D01*
G75*
G02*
X78500000Y-143449999I0J-249999D01*
G01*
X78500000Y-144150001D01*
G75*
G02*
X78250001Y-144400000I-249999J0D01*
G01*
G37*
G36*
G01*
X78250001Y-142400000D02*
X77349999Y-142400000D01*
G75*
G02*
X77100000Y-142150001I0J249999D01*
G01*
X77100000Y-141449999D01*
G75*
G02*
X77349999Y-141200000I249999J0D01*
G01*
X78250001Y-141200000D01*
G75*
G02*
X78500000Y-141449999I0J-249999D01*
G01*
X78500000Y-142150001D01*
G75*
G02*
X78250001Y-142400000I-249999J0D01*
G01*
G37*
%TD*%
D13*
%TO.C,Q1*%
X86300000Y-143750000D03*
X86300000Y-141850000D03*
X84300000Y-142800000D03*
%TD*%
D11*
%TO.C,J2*%
X89510000Y-155050000D03*
D12*
X95860000Y-153150000D03*
X98400000Y-151880000D03*
X95860000Y-150610000D03*
X98400000Y-149340000D03*
X95860000Y-148070000D03*
D11*
X89510000Y-144890000D03*
D10*
X98400000Y-146800000D03*
%TD*%
D13*
%TO.C,Q1*%
X134300000Y-142800000D03*
X136300000Y-141850000D03*
X136300000Y-143750000D03*
%TD*%
%TO.C,R3*%
G36*
G01*
X128250001Y-142400000D02*
X127349999Y-142400000D01*
G75*
G02*
X127100000Y-142150001I0J249999D01*
G01*
X127100000Y-141449999D01*
G75*
G02*
X127349999Y-141200000I249999J0D01*
G01*
X128250001Y-141200000D01*
G75*
G02*
X128500000Y-141449999I0J-249999D01*
G01*
X128500000Y-142150001D01*
G75*
G02*
X128250001Y-142400000I-249999J0D01*
G01*
G37*
G36*
G01*
X128250001Y-144400000D02*
X127349999Y-144400000D01*
G75*
G02*
X127100000Y-144150001I0J249999D01*
G01*
X127100000Y-143449999D01*
G75*
G02*
X127349999Y-143200000I249999J0D01*
G01*
X128250001Y-143200000D01*
G75*
G02*
X128500000Y-143449999I0J-249999D01*
G01*
X128500000Y-144150001D01*
G75*
G02*
X128250001Y-144400000I-249999J0D01*
G01*
G37*
%TD*%
D14*
%TO.C,U2*%
X109600000Y-142400000D03*
X111600000Y-142400000D03*
X113600000Y-142400000D03*
X115600000Y-142400000D03*
X117600000Y-142400000D03*
X119600000Y-142400000D03*
X121600000Y-142400000D03*
X123600000Y-142400000D03*
D15*
X125100000Y-145000000D03*
X125100000Y-147000000D03*
X125100000Y-149000000D03*
X125100000Y-151000000D03*
X125100000Y-153000000D03*
X125100000Y-155000000D03*
D14*
X123600000Y-157600000D03*
X121600000Y-157600000D03*
X119600000Y-157600000D03*
X117600000Y-157600000D03*
X115600000Y-157600000D03*
X113600000Y-157600000D03*
X111600000Y-157600000D03*
X109600000Y-157600000D03*
%TD*%
%TO.C,R7*%
G36*
G01*
X127200000Y-147637500D02*
X127200000Y-147162500D01*
G75*
G02*
X127437500Y-146925000I237500J0D01*
G01*
X127937500Y-146925000D01*
G75*
G02*
X128175000Y-147162500I0J-237500D01*
G01*
X128175000Y-147637500D01*
G75*
G02*
X127937500Y-147875000I-237500J0D01*
G01*
X127437500Y-147875000D01*
G75*
G02*
X127200000Y-147637500I0J237500D01*
G01*
G37*
G36*
G01*
X129025000Y-147637500D02*
X129025000Y-147162500D01*
G75*
G02*
X129262500Y-146925000I237500J0D01*
G01*
X129762500Y-146925000D01*
G75*
G02*
X130000000Y-147162500I0J-237500D01*
G01*
X130000000Y-147637500D01*
G75*
G02*
X129762500Y-147875000I-237500J0D01*
G01*
X129262500Y-147875000D01*
G75*
G02*
X129025000Y-147637500I0J237500D01*
G01*
G37*
%TD*%
%TO.C,R9*%
G36*
G01*
X129649999Y-143200000D02*
X130550001Y-143200000D01*
G75*
G02*
X130800000Y-143449999I0J-249999D01*
G01*
X130800000Y-144150001D01*
G75*
G02*
X130550001Y-144400000I-249999J0D01*
G01*
X129649999Y-144400000D01*
G75*
G02*
X129400000Y-144150001I0J249999D01*
G01*
X129400000Y-143449999D01*
G75*
G02*
X129649999Y-143200000I249999J0D01*
G01*
G37*
G36*
G01*
X129649999Y-141200000D02*
X130550001Y-141200000D01*
G75*
G02*
X130800000Y-141449999I0J-249999D01*
G01*
X130800000Y-142150001D01*
G75*
G02*
X130550001Y-142400000I-249999J0D01*
G01*
X129649999Y-142400000D01*
G75*
G02*
X129400000Y-142150001I0J249999D01*
G01*
X129400000Y-141449999D01*
G75*
G02*
X129649999Y-141200000I249999J0D01*
G01*
G37*
%TD*%
%TO.C,R2*%
G36*
G01*
X128175000Y-145462500D02*
X128175000Y-145937500D01*
G75*
G02*
X127937500Y-146175000I-237500J0D01*
G01*
X127437500Y-146175000D01*
G75*
G02*
X127200000Y-145937500I0J237500D01*
G01*
X127200000Y-145462500D01*
G75*
G02*
X127437500Y-145225000I237500J0D01*
G01*
X127937500Y-145225000D01*
G75*
G02*
X128175000Y-145462500I0J-237500D01*
G01*
G37*
G36*
G01*
X130000000Y-145462500D02*
X130000000Y-145937500D01*
G75*
G02*
X129762500Y-146175000I-237500J0D01*
G01*
X129262500Y-146175000D01*
G75*
G02*
X129025000Y-145937500I0J237500D01*
G01*
X129025000Y-145462500D01*
G75*
G02*
X129262500Y-145225000I237500J0D01*
G01*
X129762500Y-145225000D01*
G75*
G02*
X130000000Y-145462500I0J-237500D01*
G01*
G37*
%TD*%
%TO.C,R7*%
G36*
G01*
X79025000Y-147637500D02*
X79025000Y-147162500D01*
G75*
G02*
X79262500Y-146925000I237500J0D01*
G01*
X79762500Y-146925000D01*
G75*
G02*
X80000000Y-147162500I0J-237500D01*
G01*
X80000000Y-147637500D01*
G75*
G02*
X79762500Y-147875000I-237500J0D01*
G01*
X79262500Y-147875000D01*
G75*
G02*
X79025000Y-147637500I0J237500D01*
G01*
G37*
G36*
G01*
X77200000Y-147637500D02*
X77200000Y-147162500D01*
G75*
G02*
X77437500Y-146925000I237500J0D01*
G01*
X77937500Y-146925000D01*
G75*
G02*
X78175000Y-147162500I0J-237500D01*
G01*
X78175000Y-147637500D01*
G75*
G02*
X77937500Y-147875000I-237500J0D01*
G01*
X77437500Y-147875000D01*
G75*
G02*
X77200000Y-147637500I0J237500D01*
G01*
G37*
%TD*%
%TO.C,R2*%
G36*
G01*
X80000000Y-145462500D02*
X80000000Y-145937500D01*
G75*
G02*
X79762500Y-146175000I-237500J0D01*
G01*
X79262500Y-146175000D01*
G75*
G02*
X79025000Y-145937500I0J237500D01*
G01*
X79025000Y-145462500D01*
G75*
G02*
X79262500Y-145225000I237500J0D01*
G01*
X79762500Y-145225000D01*
G75*
G02*
X80000000Y-145462500I0J-237500D01*
G01*
G37*
G36*
G01*
X78175000Y-145462500D02*
X78175000Y-145937500D01*
G75*
G02*
X77937500Y-146175000I-237500J0D01*
G01*
X77437500Y-146175000D01*
G75*
G02*
X77200000Y-145937500I0J237500D01*
G01*
X77200000Y-145462500D01*
G75*
G02*
X77437500Y-145225000I237500J0D01*
G01*
X77937500Y-145225000D01*
G75*
G02*
X78175000Y-145462500I0J-237500D01*
G01*
G37*
%TD*%
%TO.C,U2*%
X59600000Y-157600000D03*
X61600000Y-157600000D03*
X63600000Y-157600000D03*
X65600000Y-157600000D03*
X67600000Y-157600000D03*
X69600000Y-157600000D03*
X71600000Y-157600000D03*
X73600000Y-157600000D03*
D15*
X75100000Y-155000000D03*
X75100000Y-153000000D03*
X75100000Y-151000000D03*
X75100000Y-149000000D03*
X75100000Y-147000000D03*
X75100000Y-145000000D03*
D14*
X73600000Y-142400000D03*
X71600000Y-142400000D03*
X69600000Y-142400000D03*
X67600000Y-142400000D03*
X65600000Y-142400000D03*
X63600000Y-142400000D03*
X61600000Y-142400000D03*
X59600000Y-142400000D03*
%TD*%
%TO.C,R1*%
G36*
G01*
X130000000Y-153162500D02*
X130000000Y-153637500D01*
G75*
G02*
X129762500Y-153875000I-237500J0D01*
G01*
X129262500Y-153875000D01*
G75*
G02*
X129025000Y-153637500I0J237500D01*
G01*
X129025000Y-153162500D01*
G75*
G02*
X129262500Y-152925000I237500J0D01*
G01*
X129762500Y-152925000D01*
G75*
G02*
X130000000Y-153162500I0J-237500D01*
G01*
G37*
G36*
G01*
X128175000Y-153162500D02*
X128175000Y-153637500D01*
G75*
G02*
X127937500Y-153875000I-237500J0D01*
G01*
X127437500Y-153875000D01*
G75*
G02*
X127200000Y-153637500I0J237500D01*
G01*
X127200000Y-153162500D01*
G75*
G02*
X127437500Y-152925000I237500J0D01*
G01*
X127937500Y-152925000D01*
G75*
G02*
X128175000Y-153162500I0J-237500D01*
G01*
G37*
%TD*%
D16*
%TO.C,SW1*%
X127900000Y-156700000D03*
X135700000Y-156700000D03*
%TD*%
D17*
%TO.C,J1*%
X129450000Y-151300000D03*
X129450000Y-148700000D03*
D18*
X135800000Y-153575000D03*
X135800000Y-146425000D03*
%TD*%
%TO.C,R9*%
G36*
G01*
X79649999Y-141200000D02*
X80550001Y-141200000D01*
G75*
G02*
X80800000Y-141449999I0J-249999D01*
G01*
X80800000Y-142150001D01*
G75*
G02*
X80550001Y-142400000I-249999J0D01*
G01*
X79649999Y-142400000D01*
G75*
G02*
X79400000Y-142150001I0J249999D01*
G01*
X79400000Y-141449999D01*
G75*
G02*
X79649999Y-141200000I249999J0D01*
G01*
G37*
G36*
G01*
X79649999Y-143200000D02*
X80550001Y-143200000D01*
G75*
G02*
X80800000Y-143449999I0J-249999D01*
G01*
X80800000Y-144150001D01*
G75*
G02*
X80550001Y-144400000I-249999J0D01*
G01*
X79649999Y-144400000D01*
G75*
G02*
X79400000Y-144150001I0J249999D01*
G01*
X79400000Y-143449999D01*
G75*
G02*
X79649999Y-143200000I249999J0D01*
G01*
G37*
%TD*%
%TO.C,R8*%
G36*
G01*
X131849999Y-141200000D02*
X132750001Y-141200000D01*
G75*
G02*
X133000000Y-141449999I0J-249999D01*
G01*
X133000000Y-142150001D01*
G75*
G02*
X132750001Y-142400000I-249999J0D01*
G01*
X131849999Y-142400000D01*
G75*
G02*
X131600000Y-142150001I0J249999D01*
G01*
X131600000Y-141449999D01*
G75*
G02*
X131849999Y-141200000I249999J0D01*
G01*
G37*
G36*
G01*
X131849999Y-143200000D02*
X132750001Y-143200000D01*
G75*
G02*
X133000000Y-143449999I0J-249999D01*
G01*
X133000000Y-144150001D01*
G75*
G02*
X132750001Y-144400000I-249999J0D01*
G01*
X131849999Y-144400000D01*
G75*
G02*
X131600000Y-144150001I0J249999D01*
G01*
X131600000Y-143449999D01*
G75*
G02*
X131849999Y-143200000I249999J0D01*
G01*
G37*
%TD*%
%TO.C,J1*%
X85800000Y-146425000D03*
X85800000Y-153575000D03*
D17*
X79450000Y-148700000D03*
X79450000Y-151300000D03*
%TD*%
D16*
%TO.C,SW1*%
X85700000Y-156700000D03*
X77900000Y-156700000D03*
%TD*%
D13*
%TO.C,Q1*%
X136300000Y-123750000D03*
X136300000Y-121850000D03*
X134300000Y-122800000D03*
%TD*%
%TO.C,R3*%
G36*
G01*
X128250001Y-124400000D02*
X127349999Y-124400000D01*
G75*
G02*
X127100000Y-124150001I0J249999D01*
G01*
X127100000Y-123449999D01*
G75*
G02*
X127349999Y-123200000I249999J0D01*
G01*
X128250001Y-123200000D01*
G75*
G02*
X128500000Y-123449999I0J-249999D01*
G01*
X128500000Y-124150001D01*
G75*
G02*
X128250001Y-124400000I-249999J0D01*
G01*
G37*
G36*
G01*
X128250001Y-122400000D02*
X127349999Y-122400000D01*
G75*
G02*
X127100000Y-122150001I0J249999D01*
G01*
X127100000Y-121449999D01*
G75*
G02*
X127349999Y-121200000I249999J0D01*
G01*
X128250001Y-121200000D01*
G75*
G02*
X128500000Y-121449999I0J-249999D01*
G01*
X128500000Y-122150001D01*
G75*
G02*
X128250001Y-122400000I-249999J0D01*
G01*
G37*
%TD*%
D10*
%TO.C,J2*%
X98400000Y-126800000D03*
D11*
X89510000Y-124890000D03*
D12*
X95860000Y-128070000D03*
X98400000Y-129340000D03*
X95860000Y-130610000D03*
X98400000Y-131880000D03*
X95860000Y-133150000D03*
D11*
X89510000Y-135050000D03*
%TD*%
%TO.C,R9*%
G36*
G01*
X79649999Y-123200000D02*
X80550001Y-123200000D01*
G75*
G02*
X80800000Y-123449999I0J-249999D01*
G01*
X80800000Y-124150001D01*
G75*
G02*
X80550001Y-124400000I-249999J0D01*
G01*
X79649999Y-124400000D01*
G75*
G02*
X79400000Y-124150001I0J249999D01*
G01*
X79400000Y-123449999D01*
G75*
G02*
X79649999Y-123200000I249999J0D01*
G01*
G37*
G36*
G01*
X79649999Y-121200000D02*
X80550001Y-121200000D01*
G75*
G02*
X80800000Y-121449999I0J-249999D01*
G01*
X80800000Y-122150001D01*
G75*
G02*
X80550001Y-122400000I-249999J0D01*
G01*
X79649999Y-122400000D01*
G75*
G02*
X79400000Y-122150001I0J249999D01*
G01*
X79400000Y-121449999D01*
G75*
G02*
X79649999Y-121200000I249999J0D01*
G01*
G37*
%TD*%
D16*
%TO.C,SW1*%
X135700000Y-136700000D03*
X127900000Y-136700000D03*
%TD*%
%TO.C,R7*%
G36*
G01*
X129025000Y-127637500D02*
X129025000Y-127162500D01*
G75*
G02*
X129262500Y-126925000I237500J0D01*
G01*
X129762500Y-126925000D01*
G75*
G02*
X130000000Y-127162500I0J-237500D01*
G01*
X130000000Y-127637500D01*
G75*
G02*
X129762500Y-127875000I-237500J0D01*
G01*
X129262500Y-127875000D01*
G75*
G02*
X129025000Y-127637500I0J237500D01*
G01*
G37*
G36*
G01*
X127200000Y-127637500D02*
X127200000Y-127162500D01*
G75*
G02*
X127437500Y-126925000I237500J0D01*
G01*
X127937500Y-126925000D01*
G75*
G02*
X128175000Y-127162500I0J-237500D01*
G01*
X128175000Y-127637500D01*
G75*
G02*
X127937500Y-127875000I-237500J0D01*
G01*
X127437500Y-127875000D01*
G75*
G02*
X127200000Y-127637500I0J237500D01*
G01*
G37*
%TD*%
%TO.C,R2*%
G36*
G01*
X130000000Y-125462500D02*
X130000000Y-125937500D01*
G75*
G02*
X129762500Y-126175000I-237500J0D01*
G01*
X129262500Y-126175000D01*
G75*
G02*
X129025000Y-125937500I0J237500D01*
G01*
X129025000Y-125462500D01*
G75*
G02*
X129262500Y-125225000I237500J0D01*
G01*
X129762500Y-125225000D01*
G75*
G02*
X130000000Y-125462500I0J-237500D01*
G01*
G37*
G36*
G01*
X128175000Y-125462500D02*
X128175000Y-125937500D01*
G75*
G02*
X127937500Y-126175000I-237500J0D01*
G01*
X127437500Y-126175000D01*
G75*
G02*
X127200000Y-125937500I0J237500D01*
G01*
X127200000Y-125462500D01*
G75*
G02*
X127437500Y-125225000I237500J0D01*
G01*
X127937500Y-125225000D01*
G75*
G02*
X128175000Y-125462500I0J-237500D01*
G01*
G37*
%TD*%
%TO.C,R1*%
G36*
G01*
X128175000Y-133162500D02*
X128175000Y-133637500D01*
G75*
G02*
X127937500Y-133875000I-237500J0D01*
G01*
X127437500Y-133875000D01*
G75*
G02*
X127200000Y-133637500I0J237500D01*
G01*
X127200000Y-133162500D01*
G75*
G02*
X127437500Y-132925000I237500J0D01*
G01*
X127937500Y-132925000D01*
G75*
G02*
X128175000Y-133162500I0J-237500D01*
G01*
G37*
G36*
G01*
X130000000Y-133162500D02*
X130000000Y-133637500D01*
G75*
G02*
X129762500Y-133875000I-237500J0D01*
G01*
X129262500Y-133875000D01*
G75*
G02*
X129025000Y-133637500I0J237500D01*
G01*
X129025000Y-133162500D01*
G75*
G02*
X129262500Y-132925000I237500J0D01*
G01*
X129762500Y-132925000D01*
G75*
G02*
X130000000Y-133162500I0J-237500D01*
G01*
G37*
%TD*%
D18*
%TO.C,J1*%
X135800000Y-126425000D03*
X135800000Y-133575000D03*
D17*
X129450000Y-128700000D03*
X129450000Y-131300000D03*
%TD*%
%TO.C,R9*%
G36*
G01*
X129649999Y-121200000D02*
X130550001Y-121200000D01*
G75*
G02*
X130800000Y-121449999I0J-249999D01*
G01*
X130800000Y-122150001D01*
G75*
G02*
X130550001Y-122400000I-249999J0D01*
G01*
X129649999Y-122400000D01*
G75*
G02*
X129400000Y-122150001I0J249999D01*
G01*
X129400000Y-121449999D01*
G75*
G02*
X129649999Y-121200000I249999J0D01*
G01*
G37*
G36*
G01*
X129649999Y-123200000D02*
X130550001Y-123200000D01*
G75*
G02*
X130800000Y-123449999I0J-249999D01*
G01*
X130800000Y-124150001D01*
G75*
G02*
X130550001Y-124400000I-249999J0D01*
G01*
X129649999Y-124400000D01*
G75*
G02*
X129400000Y-124150001I0J249999D01*
G01*
X129400000Y-123449999D01*
G75*
G02*
X129649999Y-123200000I249999J0D01*
G01*
G37*
%TD*%
D14*
%TO.C,U2*%
X109600000Y-137600000D03*
X111600000Y-137600000D03*
X113600000Y-137600000D03*
X115600000Y-137600000D03*
X117600000Y-137600000D03*
X119600000Y-137600000D03*
X121600000Y-137600000D03*
X123600000Y-137600000D03*
D15*
X125100000Y-135000000D03*
X125100000Y-133000000D03*
X125100000Y-131000000D03*
X125100000Y-129000000D03*
X125100000Y-127000000D03*
X125100000Y-125000000D03*
D14*
X123600000Y-122400000D03*
X121600000Y-122400000D03*
X119600000Y-122400000D03*
X117600000Y-122400000D03*
X115600000Y-122400000D03*
X113600000Y-122400000D03*
X111600000Y-122400000D03*
X109600000Y-122400000D03*
%TD*%
%TO.C,R8*%
G36*
G01*
X131849999Y-123200000D02*
X132750001Y-123200000D01*
G75*
G02*
X133000000Y-123449999I0J-249999D01*
G01*
X133000000Y-124150001D01*
G75*
G02*
X132750001Y-124400000I-249999J0D01*
G01*
X131849999Y-124400000D01*
G75*
G02*
X131600000Y-124150001I0J249999D01*
G01*
X131600000Y-123449999D01*
G75*
G02*
X131849999Y-123200000I249999J0D01*
G01*
G37*
G36*
G01*
X131849999Y-121200000D02*
X132750001Y-121200000D01*
G75*
G02*
X133000000Y-121449999I0J-249999D01*
G01*
X133000000Y-122150001D01*
G75*
G02*
X132750001Y-122400000I-249999J0D01*
G01*
X131849999Y-122400000D01*
G75*
G02*
X131600000Y-122150001I0J249999D01*
G01*
X131600000Y-121449999D01*
G75*
G02*
X131849999Y-121200000I249999J0D01*
G01*
G37*
%TD*%
%TO.C,R7*%
G36*
G01*
X77200000Y-127637500D02*
X77200000Y-127162500D01*
G75*
G02*
X77437500Y-126925000I237500J0D01*
G01*
X77937500Y-126925000D01*
G75*
G02*
X78175000Y-127162500I0J-237500D01*
G01*
X78175000Y-127637500D01*
G75*
G02*
X77937500Y-127875000I-237500J0D01*
G01*
X77437500Y-127875000D01*
G75*
G02*
X77200000Y-127637500I0J237500D01*
G01*
G37*
G36*
G01*
X79025000Y-127637500D02*
X79025000Y-127162500D01*
G75*
G02*
X79262500Y-126925000I237500J0D01*
G01*
X79762500Y-126925000D01*
G75*
G02*
X80000000Y-127162500I0J-237500D01*
G01*
X80000000Y-127637500D01*
G75*
G02*
X79762500Y-127875000I-237500J0D01*
G01*
X79262500Y-127875000D01*
G75*
G02*
X79025000Y-127637500I0J237500D01*
G01*
G37*
%TD*%
%TO.C,U2*%
X59600000Y-122400000D03*
X61600000Y-122400000D03*
X63600000Y-122400000D03*
X65600000Y-122400000D03*
X67600000Y-122400000D03*
X69600000Y-122400000D03*
X71600000Y-122400000D03*
X73600000Y-122400000D03*
D15*
X75100000Y-125000000D03*
X75100000Y-127000000D03*
X75100000Y-129000000D03*
X75100000Y-131000000D03*
X75100000Y-133000000D03*
X75100000Y-135000000D03*
D14*
X73600000Y-137600000D03*
X71600000Y-137600000D03*
X69600000Y-137600000D03*
X67600000Y-137600000D03*
X65600000Y-137600000D03*
X63600000Y-137600000D03*
X61600000Y-137600000D03*
X59600000Y-137600000D03*
%TD*%
%TO.C,R2*%
G36*
G01*
X78175000Y-125462500D02*
X78175000Y-125937500D01*
G75*
G02*
X77937500Y-126175000I-237500J0D01*
G01*
X77437500Y-126175000D01*
G75*
G02*
X77200000Y-125937500I0J237500D01*
G01*
X77200000Y-125462500D01*
G75*
G02*
X77437500Y-125225000I237500J0D01*
G01*
X77937500Y-125225000D01*
G75*
G02*
X78175000Y-125462500I0J-237500D01*
G01*
G37*
G36*
G01*
X80000000Y-125462500D02*
X80000000Y-125937500D01*
G75*
G02*
X79762500Y-126175000I-237500J0D01*
G01*
X79262500Y-126175000D01*
G75*
G02*
X79025000Y-125937500I0J237500D01*
G01*
X79025000Y-125462500D01*
G75*
G02*
X79262500Y-125225000I237500J0D01*
G01*
X79762500Y-125225000D01*
G75*
G02*
X80000000Y-125462500I0J-237500D01*
G01*
G37*
%TD*%
D16*
%TO.C,SW1*%
X77900000Y-136700000D03*
X85700000Y-136700000D03*
%TD*%
D17*
%TO.C,J1*%
X79450000Y-131300000D03*
X79450000Y-128700000D03*
D18*
X85800000Y-133575000D03*
X85800000Y-126425000D03*
%TD*%
%TO.C,R8*%
G36*
G01*
X81849999Y-121200000D02*
X82750001Y-121200000D01*
G75*
G02*
X83000000Y-121449999I0J-249999D01*
G01*
X83000000Y-122150001D01*
G75*
G02*
X82750001Y-122400000I-249999J0D01*
G01*
X81849999Y-122400000D01*
G75*
G02*
X81600000Y-122150001I0J249999D01*
G01*
X81600000Y-121449999D01*
G75*
G02*
X81849999Y-121200000I249999J0D01*
G01*
G37*
G36*
G01*
X81849999Y-123200000D02*
X82750001Y-123200000D01*
G75*
G02*
X83000000Y-123449999I0J-249999D01*
G01*
X83000000Y-124150001D01*
G75*
G02*
X82750001Y-124400000I-249999J0D01*
G01*
X81849999Y-124400000D01*
G75*
G02*
X81600000Y-124150001I0J249999D01*
G01*
X81600000Y-123449999D01*
G75*
G02*
X81849999Y-123200000I249999J0D01*
G01*
G37*
%TD*%
%TO.C,R1*%
G36*
G01*
X80000000Y-133162500D02*
X80000000Y-133637500D01*
G75*
G02*
X79762500Y-133875000I-237500J0D01*
G01*
X79262500Y-133875000D01*
G75*
G02*
X79025000Y-133637500I0J237500D01*
G01*
X79025000Y-133162500D01*
G75*
G02*
X79262500Y-132925000I237500J0D01*
G01*
X79762500Y-132925000D01*
G75*
G02*
X80000000Y-133162500I0J-237500D01*
G01*
G37*
G36*
G01*
X78175000Y-133162500D02*
X78175000Y-133637500D01*
G75*
G02*
X77937500Y-133875000I-237500J0D01*
G01*
X77437500Y-133875000D01*
G75*
G02*
X77200000Y-133637500I0J237500D01*
G01*
X77200000Y-133162500D01*
G75*
G02*
X77437500Y-132925000I237500J0D01*
G01*
X77937500Y-132925000D01*
G75*
G02*
X78175000Y-133162500I0J-237500D01*
G01*
G37*
%TD*%
%TO.C,R3*%
G36*
G01*
X78250001Y-122400000D02*
X77349999Y-122400000D01*
G75*
G02*
X77100000Y-122150001I0J249999D01*
G01*
X77100000Y-121449999D01*
G75*
G02*
X77349999Y-121200000I249999J0D01*
G01*
X78250001Y-121200000D01*
G75*
G02*
X78500000Y-121449999I0J-249999D01*
G01*
X78500000Y-122150001D01*
G75*
G02*
X78250001Y-122400000I-249999J0D01*
G01*
G37*
G36*
G01*
X78250001Y-124400000D02*
X77349999Y-124400000D01*
G75*
G02*
X77100000Y-124150001I0J249999D01*
G01*
X77100000Y-123449999D01*
G75*
G02*
X77349999Y-123200000I249999J0D01*
G01*
X78250001Y-123200000D01*
G75*
G02*
X78500000Y-123449999I0J-249999D01*
G01*
X78500000Y-124150001D01*
G75*
G02*
X78250001Y-124400000I-249999J0D01*
G01*
G37*
%TD*%
D13*
%TO.C,Q1*%
X84300000Y-122800000D03*
X86300000Y-121850000D03*
X86300000Y-123750000D03*
%TD*%
%TO.C,R2*%
G36*
G01*
X80000000Y-105462500D02*
X80000000Y-105937500D01*
G75*
G02*
X79762500Y-106175000I-237500J0D01*
G01*
X79262500Y-106175000D01*
G75*
G02*
X79025000Y-105937500I0J237500D01*
G01*
X79025000Y-105462500D01*
G75*
G02*
X79262500Y-105225000I237500J0D01*
G01*
X79762500Y-105225000D01*
G75*
G02*
X80000000Y-105462500I0J-237500D01*
G01*
G37*
G36*
G01*
X78175000Y-105462500D02*
X78175000Y-105937500D01*
G75*
G02*
X77937500Y-106175000I-237500J0D01*
G01*
X77437500Y-106175000D01*
G75*
G02*
X77200000Y-105937500I0J237500D01*
G01*
X77200000Y-105462500D01*
G75*
G02*
X77437500Y-105225000I237500J0D01*
G01*
X77937500Y-105225000D01*
G75*
G02*
X78175000Y-105462500I0J-237500D01*
G01*
G37*
%TD*%
D16*
%TO.C,SW1*%
X85700000Y-116700000D03*
X77900000Y-116700000D03*
%TD*%
D18*
%TO.C,J1*%
X85800000Y-106425000D03*
X85800000Y-113575000D03*
D17*
X79450000Y-108700000D03*
X79450000Y-111300000D03*
%TD*%
%TO.C,R8*%
G36*
G01*
X81849999Y-103200000D02*
X82750001Y-103200000D01*
G75*
G02*
X83000000Y-103449999I0J-249999D01*
G01*
X83000000Y-104150001D01*
G75*
G02*
X82750001Y-104400000I-249999J0D01*
G01*
X81849999Y-104400000D01*
G75*
G02*
X81600000Y-104150001I0J249999D01*
G01*
X81600000Y-103449999D01*
G75*
G02*
X81849999Y-103200000I249999J0D01*
G01*
G37*
G36*
G01*
X81849999Y-101200000D02*
X82750001Y-101200000D01*
G75*
G02*
X83000000Y-101449999I0J-249999D01*
G01*
X83000000Y-102150001D01*
G75*
G02*
X82750001Y-102400000I-249999J0D01*
G01*
X81849999Y-102400000D01*
G75*
G02*
X81600000Y-102150001I0J249999D01*
G01*
X81600000Y-101449999D01*
G75*
G02*
X81849999Y-101200000I249999J0D01*
G01*
G37*
%TD*%
%TO.C,R7*%
G36*
G01*
X79025000Y-107637500D02*
X79025000Y-107162500D01*
G75*
G02*
X79262500Y-106925000I237500J0D01*
G01*
X79762500Y-106925000D01*
G75*
G02*
X80000000Y-107162500I0J-237500D01*
G01*
X80000000Y-107637500D01*
G75*
G02*
X79762500Y-107875000I-237500J0D01*
G01*
X79262500Y-107875000D01*
G75*
G02*
X79025000Y-107637500I0J237500D01*
G01*
G37*
G36*
G01*
X77200000Y-107637500D02*
X77200000Y-107162500D01*
G75*
G02*
X77437500Y-106925000I237500J0D01*
G01*
X77937500Y-106925000D01*
G75*
G02*
X78175000Y-107162500I0J-237500D01*
G01*
X78175000Y-107637500D01*
G75*
G02*
X77937500Y-107875000I-237500J0D01*
G01*
X77437500Y-107875000D01*
G75*
G02*
X77200000Y-107637500I0J237500D01*
G01*
G37*
%TD*%
D14*
%TO.C,U2*%
X59600000Y-117600000D03*
X61600000Y-117600000D03*
X63600000Y-117600000D03*
X65600000Y-117600000D03*
X67600000Y-117600000D03*
X69600000Y-117600000D03*
X71600000Y-117600000D03*
X73600000Y-117600000D03*
D15*
X75100000Y-115000000D03*
X75100000Y-113000000D03*
X75100000Y-111000000D03*
X75100000Y-109000000D03*
X75100000Y-107000000D03*
X75100000Y-105000000D03*
D14*
X73600000Y-102400000D03*
X71600000Y-102400000D03*
X69600000Y-102400000D03*
X67600000Y-102400000D03*
X65600000Y-102400000D03*
X63600000Y-102400000D03*
X61600000Y-102400000D03*
X59600000Y-102400000D03*
%TD*%
%TO.C,R1*%
G36*
G01*
X78175000Y-113162500D02*
X78175000Y-113637500D01*
G75*
G02*
X77937500Y-113875000I-237500J0D01*
G01*
X77437500Y-113875000D01*
G75*
G02*
X77200000Y-113637500I0J237500D01*
G01*
X77200000Y-113162500D01*
G75*
G02*
X77437500Y-112925000I237500J0D01*
G01*
X77937500Y-112925000D01*
G75*
G02*
X78175000Y-113162500I0J-237500D01*
G01*
G37*
G36*
G01*
X80000000Y-113162500D02*
X80000000Y-113637500D01*
G75*
G02*
X79762500Y-113875000I-237500J0D01*
G01*
X79262500Y-113875000D01*
G75*
G02*
X79025000Y-113637500I0J237500D01*
G01*
X79025000Y-113162500D01*
G75*
G02*
X79262500Y-112925000I237500J0D01*
G01*
X79762500Y-112925000D01*
G75*
G02*
X80000000Y-113162500I0J-237500D01*
G01*
G37*
%TD*%
%TO.C,R3*%
G36*
G01*
X78250001Y-104400000D02*
X77349999Y-104400000D01*
G75*
G02*
X77100000Y-104150001I0J249999D01*
G01*
X77100000Y-103449999D01*
G75*
G02*
X77349999Y-103200000I249999J0D01*
G01*
X78250001Y-103200000D01*
G75*
G02*
X78500000Y-103449999I0J-249999D01*
G01*
X78500000Y-104150001D01*
G75*
G02*
X78250001Y-104400000I-249999J0D01*
G01*
G37*
G36*
G01*
X78250001Y-102400000D02*
X77349999Y-102400000D01*
G75*
G02*
X77100000Y-102150001I0J249999D01*
G01*
X77100000Y-101449999D01*
G75*
G02*
X77349999Y-101200000I249999J0D01*
G01*
X78250001Y-101200000D01*
G75*
G02*
X78500000Y-101449999I0J-249999D01*
G01*
X78500000Y-102150001D01*
G75*
G02*
X78250001Y-102400000I-249999J0D01*
G01*
G37*
%TD*%
D13*
%TO.C,Q1*%
X86300000Y-103750000D03*
X86300000Y-101850000D03*
X84300000Y-102800000D03*
%TD*%
%TO.C,R9*%
G36*
G01*
X79649999Y-101200000D02*
X80550001Y-101200000D01*
G75*
G02*
X80800000Y-101449999I0J-249999D01*
G01*
X80800000Y-102150001D01*
G75*
G02*
X80550001Y-102400000I-249999J0D01*
G01*
X79649999Y-102400000D01*
G75*
G02*
X79400000Y-102150001I0J249999D01*
G01*
X79400000Y-101449999D01*
G75*
G02*
X79649999Y-101200000I249999J0D01*
G01*
G37*
G36*
G01*
X79649999Y-103200000D02*
X80550001Y-103200000D01*
G75*
G02*
X80800000Y-103449999I0J-249999D01*
G01*
X80800000Y-104150001D01*
G75*
G02*
X80550001Y-104400000I-249999J0D01*
G01*
X79649999Y-104400000D01*
G75*
G02*
X79400000Y-104150001I0J249999D01*
G01*
X79400000Y-103449999D01*
G75*
G02*
X79649999Y-103200000I249999J0D01*
G01*
G37*
%TD*%
%TO.C,R3*%
G36*
G01*
X128250001Y-102400000D02*
X127349999Y-102400000D01*
G75*
G02*
X127100000Y-102150001I0J249999D01*
G01*
X127100000Y-101449999D01*
G75*
G02*
X127349999Y-101200000I249999J0D01*
G01*
X128250001Y-101200000D01*
G75*
G02*
X128500000Y-101449999I0J-249999D01*
G01*
X128500000Y-102150001D01*
G75*
G02*
X128250001Y-102400000I-249999J0D01*
G01*
G37*
G36*
G01*
X128250001Y-104400000D02*
X127349999Y-104400000D01*
G75*
G02*
X127100000Y-104150001I0J249999D01*
G01*
X127100000Y-103449999D01*
G75*
G02*
X127349999Y-103200000I249999J0D01*
G01*
X128250001Y-103200000D01*
G75*
G02*
X128500000Y-103449999I0J-249999D01*
G01*
X128500000Y-104150001D01*
G75*
G02*
X128250001Y-104400000I-249999J0D01*
G01*
G37*
%TD*%
%TO.C,Q1*%
X134300000Y-102800000D03*
X136300000Y-101850000D03*
X136300000Y-103750000D03*
%TD*%
D11*
%TO.C,J2*%
X89510000Y-115050000D03*
D12*
X95860000Y-113150000D03*
X98400000Y-111880000D03*
X95860000Y-110610000D03*
X98400000Y-109340000D03*
X95860000Y-108070000D03*
D11*
X89510000Y-104890000D03*
D10*
X98400000Y-106800000D03*
%TD*%
D16*
%TO.C,SW1*%
X127900000Y-116700000D03*
X135700000Y-116700000D03*
%TD*%
%TO.C,R2*%
G36*
G01*
X128175000Y-105462500D02*
X128175000Y-105937500D01*
G75*
G02*
X127937500Y-106175000I-237500J0D01*
G01*
X127437500Y-106175000D01*
G75*
G02*
X127200000Y-105937500I0J237500D01*
G01*
X127200000Y-105462500D01*
G75*
G02*
X127437500Y-105225000I237500J0D01*
G01*
X127937500Y-105225000D01*
G75*
G02*
X128175000Y-105462500I0J-237500D01*
G01*
G37*
G36*
G01*
X130000000Y-105462500D02*
X130000000Y-105937500D01*
G75*
G02*
X129762500Y-106175000I-237500J0D01*
G01*
X129262500Y-106175000D01*
G75*
G02*
X129025000Y-105937500I0J237500D01*
G01*
X129025000Y-105462500D01*
G75*
G02*
X129262500Y-105225000I237500J0D01*
G01*
X129762500Y-105225000D01*
G75*
G02*
X130000000Y-105462500I0J-237500D01*
G01*
G37*
%TD*%
%TO.C,R1*%
G36*
G01*
X130000000Y-113162500D02*
X130000000Y-113637500D01*
G75*
G02*
X129762500Y-113875000I-237500J0D01*
G01*
X129262500Y-113875000D01*
G75*
G02*
X129025000Y-113637500I0J237500D01*
G01*
X129025000Y-113162500D01*
G75*
G02*
X129262500Y-112925000I237500J0D01*
G01*
X129762500Y-112925000D01*
G75*
G02*
X130000000Y-113162500I0J-237500D01*
G01*
G37*
G36*
G01*
X128175000Y-113162500D02*
X128175000Y-113637500D01*
G75*
G02*
X127937500Y-113875000I-237500J0D01*
G01*
X127437500Y-113875000D01*
G75*
G02*
X127200000Y-113637500I0J237500D01*
G01*
X127200000Y-113162500D01*
G75*
G02*
X127437500Y-112925000I237500J0D01*
G01*
X127937500Y-112925000D01*
G75*
G02*
X128175000Y-113162500I0J-237500D01*
G01*
G37*
%TD*%
D17*
%TO.C,J1*%
X129450000Y-111300000D03*
X129450000Y-108700000D03*
D18*
X135800000Y-113575000D03*
X135800000Y-106425000D03*
%TD*%
%TO.C,R7*%
G36*
G01*
X127200000Y-107637500D02*
X127200000Y-107162500D01*
G75*
G02*
X127437500Y-106925000I237500J0D01*
G01*
X127937500Y-106925000D01*
G75*
G02*
X128175000Y-107162500I0J-237500D01*
G01*
X128175000Y-107637500D01*
G75*
G02*
X127937500Y-107875000I-237500J0D01*
G01*
X127437500Y-107875000D01*
G75*
G02*
X127200000Y-107637500I0J237500D01*
G01*
G37*
G36*
G01*
X129025000Y-107637500D02*
X129025000Y-107162500D01*
G75*
G02*
X129262500Y-106925000I237500J0D01*
G01*
X129762500Y-106925000D01*
G75*
G02*
X130000000Y-107162500I0J-237500D01*
G01*
X130000000Y-107637500D01*
G75*
G02*
X129762500Y-107875000I-237500J0D01*
G01*
X129262500Y-107875000D01*
G75*
G02*
X129025000Y-107637500I0J237500D01*
G01*
G37*
%TD*%
D14*
%TO.C,U2*%
X109600000Y-102400000D03*
X111600000Y-102400000D03*
X113600000Y-102400000D03*
X115600000Y-102400000D03*
X117600000Y-102400000D03*
X119600000Y-102400000D03*
X121600000Y-102400000D03*
X123600000Y-102400000D03*
D15*
X125100000Y-105000000D03*
X125100000Y-107000000D03*
X125100000Y-109000000D03*
X125100000Y-111000000D03*
X125100000Y-113000000D03*
X125100000Y-115000000D03*
D14*
X123600000Y-117600000D03*
X121600000Y-117600000D03*
X119600000Y-117600000D03*
X117600000Y-117600000D03*
X115600000Y-117600000D03*
X113600000Y-117600000D03*
X111600000Y-117600000D03*
X109600000Y-117600000D03*
%TD*%
%TO.C,R9*%
G36*
G01*
X129649999Y-103200000D02*
X130550001Y-103200000D01*
G75*
G02*
X130800000Y-103449999I0J-249999D01*
G01*
X130800000Y-104150001D01*
G75*
G02*
X130550001Y-104400000I-249999J0D01*
G01*
X129649999Y-104400000D01*
G75*
G02*
X129400000Y-104150001I0J249999D01*
G01*
X129400000Y-103449999D01*
G75*
G02*
X129649999Y-103200000I249999J0D01*
G01*
G37*
G36*
G01*
X129649999Y-101200000D02*
X130550001Y-101200000D01*
G75*
G02*
X130800000Y-101449999I0J-249999D01*
G01*
X130800000Y-102150001D01*
G75*
G02*
X130550001Y-102400000I-249999J0D01*
G01*
X129649999Y-102400000D01*
G75*
G02*
X129400000Y-102150001I0J249999D01*
G01*
X129400000Y-101449999D01*
G75*
G02*
X129649999Y-101200000I249999J0D01*
G01*
G37*
%TD*%
%TO.C,R8*%
G36*
G01*
X131849999Y-101200000D02*
X132750001Y-101200000D01*
G75*
G02*
X133000000Y-101449999I0J-249999D01*
G01*
X133000000Y-102150001D01*
G75*
G02*
X132750001Y-102400000I-249999J0D01*
G01*
X131849999Y-102400000D01*
G75*
G02*
X131600000Y-102150001I0J249999D01*
G01*
X131600000Y-101449999D01*
G75*
G02*
X131849999Y-101200000I249999J0D01*
G01*
G37*
G36*
G01*
X131849999Y-103200000D02*
X132750001Y-103200000D01*
G75*
G02*
X133000000Y-103449999I0J-249999D01*
G01*
X133000000Y-104150001D01*
G75*
G02*
X132750001Y-104400000I-249999J0D01*
G01*
X131849999Y-104400000D01*
G75*
G02*
X131600000Y-104150001I0J249999D01*
G01*
X131600000Y-103449999D01*
G75*
G02*
X131849999Y-103200000I249999J0D01*
G01*
G37*
%TD*%
%TO.C,U2*%
X59600000Y-82400000D03*
X61600000Y-82400000D03*
X63600000Y-82400000D03*
X65600000Y-82400000D03*
X67600000Y-82400000D03*
X69600000Y-82400000D03*
X71600000Y-82400000D03*
X73600000Y-82400000D03*
D15*
X75100000Y-85000000D03*
X75100000Y-87000000D03*
X75100000Y-89000000D03*
X75100000Y-91000000D03*
X75100000Y-93000000D03*
X75100000Y-95000000D03*
D14*
X73600000Y-97600000D03*
X71600000Y-97600000D03*
X69600000Y-97600000D03*
X67600000Y-97600000D03*
X65600000Y-97600000D03*
X63600000Y-97600000D03*
X61600000Y-97600000D03*
X59600000Y-97600000D03*
%TD*%
D16*
%TO.C,SW1*%
X77900000Y-96700000D03*
X85700000Y-96700000D03*
%TD*%
%TO.C,R2*%
G36*
G01*
X78175000Y-85462500D02*
X78175000Y-85937500D01*
G75*
G02*
X77937500Y-86175000I-237500J0D01*
G01*
X77437500Y-86175000D01*
G75*
G02*
X77200000Y-85937500I0J237500D01*
G01*
X77200000Y-85462500D01*
G75*
G02*
X77437500Y-85225000I237500J0D01*
G01*
X77937500Y-85225000D01*
G75*
G02*
X78175000Y-85462500I0J-237500D01*
G01*
G37*
G36*
G01*
X80000000Y-85462500D02*
X80000000Y-85937500D01*
G75*
G02*
X79762500Y-86175000I-237500J0D01*
G01*
X79262500Y-86175000D01*
G75*
G02*
X79025000Y-85937500I0J237500D01*
G01*
X79025000Y-85462500D01*
G75*
G02*
X79262500Y-85225000I237500J0D01*
G01*
X79762500Y-85225000D01*
G75*
G02*
X80000000Y-85462500I0J-237500D01*
G01*
G37*
%TD*%
D17*
%TO.C,J1*%
X79450000Y-91300000D03*
X79450000Y-88700000D03*
D18*
X85800000Y-93575000D03*
X85800000Y-86425000D03*
%TD*%
D13*
%TO.C,Q1*%
X84300000Y-82800000D03*
X86300000Y-81850000D03*
X86300000Y-83750000D03*
%TD*%
%TO.C,R1*%
G36*
G01*
X80000000Y-93162500D02*
X80000000Y-93637500D01*
G75*
G02*
X79762500Y-93875000I-237500J0D01*
G01*
X79262500Y-93875000D01*
G75*
G02*
X79025000Y-93637500I0J237500D01*
G01*
X79025000Y-93162500D01*
G75*
G02*
X79262500Y-92925000I237500J0D01*
G01*
X79762500Y-92925000D01*
G75*
G02*
X80000000Y-93162500I0J-237500D01*
G01*
G37*
G36*
G01*
X78175000Y-93162500D02*
X78175000Y-93637500D01*
G75*
G02*
X77937500Y-93875000I-237500J0D01*
G01*
X77437500Y-93875000D01*
G75*
G02*
X77200000Y-93637500I0J237500D01*
G01*
X77200000Y-93162500D01*
G75*
G02*
X77437500Y-92925000I237500J0D01*
G01*
X77937500Y-92925000D01*
G75*
G02*
X78175000Y-93162500I0J-237500D01*
G01*
G37*
%TD*%
%TO.C,R8*%
G36*
G01*
X81849999Y-81200000D02*
X82750001Y-81200000D01*
G75*
G02*
X83000000Y-81449999I0J-249999D01*
G01*
X83000000Y-82150001D01*
G75*
G02*
X82750001Y-82400000I-249999J0D01*
G01*
X81849999Y-82400000D01*
G75*
G02*
X81600000Y-82150001I0J249999D01*
G01*
X81600000Y-81449999D01*
G75*
G02*
X81849999Y-81200000I249999J0D01*
G01*
G37*
G36*
G01*
X81849999Y-83200000D02*
X82750001Y-83200000D01*
G75*
G02*
X83000000Y-83449999I0J-249999D01*
G01*
X83000000Y-84150001D01*
G75*
G02*
X82750001Y-84400000I-249999J0D01*
G01*
X81849999Y-84400000D01*
G75*
G02*
X81600000Y-84150001I0J249999D01*
G01*
X81600000Y-83449999D01*
G75*
G02*
X81849999Y-83200000I249999J0D01*
G01*
G37*
%TD*%
%TO.C,R3*%
G36*
G01*
X78250001Y-82400000D02*
X77349999Y-82400000D01*
G75*
G02*
X77100000Y-82150001I0J249999D01*
G01*
X77100000Y-81449999D01*
G75*
G02*
X77349999Y-81200000I249999J0D01*
G01*
X78250001Y-81200000D01*
G75*
G02*
X78500000Y-81449999I0J-249999D01*
G01*
X78500000Y-82150001D01*
G75*
G02*
X78250001Y-82400000I-249999J0D01*
G01*
G37*
G36*
G01*
X78250001Y-84400000D02*
X77349999Y-84400000D01*
G75*
G02*
X77100000Y-84150001I0J249999D01*
G01*
X77100000Y-83449999D01*
G75*
G02*
X77349999Y-83200000I249999J0D01*
G01*
X78250001Y-83200000D01*
G75*
G02*
X78500000Y-83449999I0J-249999D01*
G01*
X78500000Y-84150001D01*
G75*
G02*
X78250001Y-84400000I-249999J0D01*
G01*
G37*
%TD*%
%TO.C,R7*%
G36*
G01*
X77200000Y-87637500D02*
X77200000Y-87162500D01*
G75*
G02*
X77437500Y-86925000I237500J0D01*
G01*
X77937500Y-86925000D01*
G75*
G02*
X78175000Y-87162500I0J-237500D01*
G01*
X78175000Y-87637500D01*
G75*
G02*
X77937500Y-87875000I-237500J0D01*
G01*
X77437500Y-87875000D01*
G75*
G02*
X77200000Y-87637500I0J237500D01*
G01*
G37*
G36*
G01*
X79025000Y-87637500D02*
X79025000Y-87162500D01*
G75*
G02*
X79262500Y-86925000I237500J0D01*
G01*
X79762500Y-86925000D01*
G75*
G02*
X80000000Y-87162500I0J-237500D01*
G01*
X80000000Y-87637500D01*
G75*
G02*
X79762500Y-87875000I-237500J0D01*
G01*
X79262500Y-87875000D01*
G75*
G02*
X79025000Y-87637500I0J237500D01*
G01*
G37*
%TD*%
%TO.C,R9*%
G36*
G01*
X79649999Y-83200000D02*
X80550001Y-83200000D01*
G75*
G02*
X80800000Y-83449999I0J-249999D01*
G01*
X80800000Y-84150001D01*
G75*
G02*
X80550001Y-84400000I-249999J0D01*
G01*
X79649999Y-84400000D01*
G75*
G02*
X79400000Y-84150001I0J249999D01*
G01*
X79400000Y-83449999D01*
G75*
G02*
X79649999Y-83200000I249999J0D01*
G01*
G37*
G36*
G01*
X79649999Y-81200000D02*
X80550001Y-81200000D01*
G75*
G02*
X80800000Y-81449999I0J-249999D01*
G01*
X80800000Y-82150001D01*
G75*
G02*
X80550001Y-82400000I-249999J0D01*
G01*
X79649999Y-82400000D01*
G75*
G02*
X79400000Y-82150001I0J249999D01*
G01*
X79400000Y-81449999D01*
G75*
G02*
X79649999Y-81200000I249999J0D01*
G01*
G37*
%TD*%
%TO.C,R3*%
G36*
G01*
X128250001Y-84400000D02*
X127349999Y-84400000D01*
G75*
G02*
X127100000Y-84150001I0J249999D01*
G01*
X127100000Y-83449999D01*
G75*
G02*
X127349999Y-83200000I249999J0D01*
G01*
X128250001Y-83200000D01*
G75*
G02*
X128500000Y-83449999I0J-249999D01*
G01*
X128500000Y-84150001D01*
G75*
G02*
X128250001Y-84400000I-249999J0D01*
G01*
G37*
G36*
G01*
X128250001Y-82400000D02*
X127349999Y-82400000D01*
G75*
G02*
X127100000Y-82150001I0J249999D01*
G01*
X127100000Y-81449999D01*
G75*
G02*
X127349999Y-81200000I249999J0D01*
G01*
X128250001Y-81200000D01*
G75*
G02*
X128500000Y-81449999I0J-249999D01*
G01*
X128500000Y-82150001D01*
G75*
G02*
X128250001Y-82400000I-249999J0D01*
G01*
G37*
%TD*%
D16*
%TO.C,SW1*%
X135700000Y-96700000D03*
X127900000Y-96700000D03*
%TD*%
%TO.C,R2*%
G36*
G01*
X130000000Y-85462500D02*
X130000000Y-85937500D01*
G75*
G02*
X129762500Y-86175000I-237500J0D01*
G01*
X129262500Y-86175000D01*
G75*
G02*
X129025000Y-85937500I0J237500D01*
G01*
X129025000Y-85462500D01*
G75*
G02*
X129262500Y-85225000I237500J0D01*
G01*
X129762500Y-85225000D01*
G75*
G02*
X130000000Y-85462500I0J-237500D01*
G01*
G37*
G36*
G01*
X128175000Y-85462500D02*
X128175000Y-85937500D01*
G75*
G02*
X127937500Y-86175000I-237500J0D01*
G01*
X127437500Y-86175000D01*
G75*
G02*
X127200000Y-85937500I0J237500D01*
G01*
X127200000Y-85462500D01*
G75*
G02*
X127437500Y-85225000I237500J0D01*
G01*
X127937500Y-85225000D01*
G75*
G02*
X128175000Y-85462500I0J-237500D01*
G01*
G37*
%TD*%
%TO.C,R1*%
G36*
G01*
X128175000Y-93162500D02*
X128175000Y-93637500D01*
G75*
G02*
X127937500Y-93875000I-237500J0D01*
G01*
X127437500Y-93875000D01*
G75*
G02*
X127200000Y-93637500I0J237500D01*
G01*
X127200000Y-93162500D01*
G75*
G02*
X127437500Y-92925000I237500J0D01*
G01*
X127937500Y-92925000D01*
G75*
G02*
X128175000Y-93162500I0J-237500D01*
G01*
G37*
G36*
G01*
X130000000Y-93162500D02*
X130000000Y-93637500D01*
G75*
G02*
X129762500Y-93875000I-237500J0D01*
G01*
X129262500Y-93875000D01*
G75*
G02*
X129025000Y-93637500I0J237500D01*
G01*
X129025000Y-93162500D01*
G75*
G02*
X129262500Y-92925000I237500J0D01*
G01*
X129762500Y-92925000D01*
G75*
G02*
X130000000Y-93162500I0J-237500D01*
G01*
G37*
%TD*%
D10*
%TO.C,J2*%
X98400000Y-86800000D03*
D11*
X89510000Y-84890000D03*
D12*
X95860000Y-88070000D03*
X98400000Y-89340000D03*
X95860000Y-90610000D03*
X98400000Y-91880000D03*
X95860000Y-93150000D03*
D11*
X89510000Y-95050000D03*
%TD*%
%TO.C,R7*%
G36*
G01*
X129025000Y-87637500D02*
X129025000Y-87162500D01*
G75*
G02*
X129262500Y-86925000I237500J0D01*
G01*
X129762500Y-86925000D01*
G75*
G02*
X130000000Y-87162500I0J-237500D01*
G01*
X130000000Y-87637500D01*
G75*
G02*
X129762500Y-87875000I-237500J0D01*
G01*
X129262500Y-87875000D01*
G75*
G02*
X129025000Y-87637500I0J237500D01*
G01*
G37*
G36*
G01*
X127200000Y-87637500D02*
X127200000Y-87162500D01*
G75*
G02*
X127437500Y-86925000I237500J0D01*
G01*
X127937500Y-86925000D01*
G75*
G02*
X128175000Y-87162500I0J-237500D01*
G01*
X128175000Y-87637500D01*
G75*
G02*
X127937500Y-87875000I-237500J0D01*
G01*
X127437500Y-87875000D01*
G75*
G02*
X127200000Y-87637500I0J237500D01*
G01*
G37*
%TD*%
D18*
%TO.C,J1*%
X135800000Y-86425000D03*
X135800000Y-93575000D03*
D17*
X129450000Y-88700000D03*
X129450000Y-91300000D03*
%TD*%
D13*
%TO.C,Q1*%
X136300000Y-83750000D03*
X136300000Y-81850000D03*
X134300000Y-82800000D03*
%TD*%
D14*
%TO.C,U2*%
X109600000Y-97600000D03*
X111600000Y-97600000D03*
X113600000Y-97600000D03*
X115600000Y-97600000D03*
X117600000Y-97600000D03*
X119600000Y-97600000D03*
X121600000Y-97600000D03*
X123600000Y-97600000D03*
D15*
X125100000Y-95000000D03*
X125100000Y-93000000D03*
X125100000Y-91000000D03*
X125100000Y-89000000D03*
X125100000Y-87000000D03*
X125100000Y-85000000D03*
D14*
X123600000Y-82400000D03*
X121600000Y-82400000D03*
X119600000Y-82400000D03*
X117600000Y-82400000D03*
X115600000Y-82400000D03*
X113600000Y-82400000D03*
X111600000Y-82400000D03*
X109600000Y-82400000D03*
%TD*%
%TO.C,R8*%
G36*
G01*
X131849999Y-83200000D02*
X132750001Y-83200000D01*
G75*
G02*
X133000000Y-83449999I0J-249999D01*
G01*
X133000000Y-84150001D01*
G75*
G02*
X132750001Y-84400000I-249999J0D01*
G01*
X131849999Y-84400000D01*
G75*
G02*
X131600000Y-84150001I0J249999D01*
G01*
X131600000Y-83449999D01*
G75*
G02*
X131849999Y-83200000I249999J0D01*
G01*
G37*
G36*
G01*
X131849999Y-81200000D02*
X132750001Y-81200000D01*
G75*
G02*
X133000000Y-81449999I0J-249999D01*
G01*
X133000000Y-82150001D01*
G75*
G02*
X132750001Y-82400000I-249999J0D01*
G01*
X131849999Y-82400000D01*
G75*
G02*
X131600000Y-82150001I0J249999D01*
G01*
X131600000Y-81449999D01*
G75*
G02*
X131849999Y-81200000I249999J0D01*
G01*
G37*
%TD*%
%TO.C,R9*%
G36*
G01*
X129649999Y-81200000D02*
X130550001Y-81200000D01*
G75*
G02*
X130800000Y-81449999I0J-249999D01*
G01*
X130800000Y-82150001D01*
G75*
G02*
X130550001Y-82400000I-249999J0D01*
G01*
X129649999Y-82400000D01*
G75*
G02*
X129400000Y-82150001I0J249999D01*
G01*
X129400000Y-81449999D01*
G75*
G02*
X129649999Y-81200000I249999J0D01*
G01*
G37*
G36*
G01*
X129649999Y-83200000D02*
X130550001Y-83200000D01*
G75*
G02*
X130800000Y-83449999I0J-249999D01*
G01*
X130800000Y-84150001D01*
G75*
G02*
X130550001Y-84400000I-249999J0D01*
G01*
X129649999Y-84400000D01*
G75*
G02*
X129400000Y-84150001I0J249999D01*
G01*
X129400000Y-83449999D01*
G75*
G02*
X129649999Y-83200000I249999J0D01*
G01*
G37*
%TD*%
%TO.C,U2*%
X109600000Y-62400000D03*
X111600000Y-62400000D03*
X113600000Y-62400000D03*
X115600000Y-62400000D03*
X117600000Y-62400000D03*
X119600000Y-62400000D03*
X121600000Y-62400000D03*
X123600000Y-62400000D03*
D15*
X125100000Y-65000000D03*
X125100000Y-67000000D03*
X125100000Y-69000000D03*
X125100000Y-71000000D03*
X125100000Y-73000000D03*
X125100000Y-75000000D03*
D14*
X123600000Y-77600000D03*
X121600000Y-77600000D03*
X119600000Y-77600000D03*
X117600000Y-77600000D03*
X115600000Y-77600000D03*
X113600000Y-77600000D03*
X111600000Y-77600000D03*
X109600000Y-77600000D03*
%TD*%
D16*
%TO.C,SW1*%
X127900000Y-76700000D03*
X135700000Y-76700000D03*
%TD*%
%TO.C,R2*%
G36*
G01*
X128175000Y-65462500D02*
X128175000Y-65937500D01*
G75*
G02*
X127937500Y-66175000I-237500J0D01*
G01*
X127437500Y-66175000D01*
G75*
G02*
X127200000Y-65937500I0J237500D01*
G01*
X127200000Y-65462500D01*
G75*
G02*
X127437500Y-65225000I237500J0D01*
G01*
X127937500Y-65225000D01*
G75*
G02*
X128175000Y-65462500I0J-237500D01*
G01*
G37*
G36*
G01*
X130000000Y-65462500D02*
X130000000Y-65937500D01*
G75*
G02*
X129762500Y-66175000I-237500J0D01*
G01*
X129262500Y-66175000D01*
G75*
G02*
X129025000Y-65937500I0J237500D01*
G01*
X129025000Y-65462500D01*
G75*
G02*
X129262500Y-65225000I237500J0D01*
G01*
X129762500Y-65225000D01*
G75*
G02*
X130000000Y-65462500I0J-237500D01*
G01*
G37*
%TD*%
D17*
%TO.C,J1*%
X129450000Y-71300000D03*
X129450000Y-68700000D03*
D18*
X135800000Y-73575000D03*
X135800000Y-66425000D03*
%TD*%
D13*
%TO.C,Q1*%
X134300000Y-62800000D03*
X136300000Y-61850000D03*
X136300000Y-63750000D03*
%TD*%
%TO.C,R1*%
G36*
G01*
X130000000Y-73162500D02*
X130000000Y-73637500D01*
G75*
G02*
X129762500Y-73875000I-237500J0D01*
G01*
X129262500Y-73875000D01*
G75*
G02*
X129025000Y-73637500I0J237500D01*
G01*
X129025000Y-73162500D01*
G75*
G02*
X129262500Y-72925000I237500J0D01*
G01*
X129762500Y-72925000D01*
G75*
G02*
X130000000Y-73162500I0J-237500D01*
G01*
G37*
G36*
G01*
X128175000Y-73162500D02*
X128175000Y-73637500D01*
G75*
G02*
X127937500Y-73875000I-237500J0D01*
G01*
X127437500Y-73875000D01*
G75*
G02*
X127200000Y-73637500I0J237500D01*
G01*
X127200000Y-73162500D01*
G75*
G02*
X127437500Y-72925000I237500J0D01*
G01*
X127937500Y-72925000D01*
G75*
G02*
X128175000Y-73162500I0J-237500D01*
G01*
G37*
%TD*%
%TO.C,R8*%
G36*
G01*
X131849999Y-61200000D02*
X132750001Y-61200000D01*
G75*
G02*
X133000000Y-61449999I0J-249999D01*
G01*
X133000000Y-62150001D01*
G75*
G02*
X132750001Y-62400000I-249999J0D01*
G01*
X131849999Y-62400000D01*
G75*
G02*
X131600000Y-62150001I0J249999D01*
G01*
X131600000Y-61449999D01*
G75*
G02*
X131849999Y-61200000I249999J0D01*
G01*
G37*
G36*
G01*
X131849999Y-63200000D02*
X132750001Y-63200000D01*
G75*
G02*
X133000000Y-63449999I0J-249999D01*
G01*
X133000000Y-64150001D01*
G75*
G02*
X132750001Y-64400000I-249999J0D01*
G01*
X131849999Y-64400000D01*
G75*
G02*
X131600000Y-64150001I0J249999D01*
G01*
X131600000Y-63449999D01*
G75*
G02*
X131849999Y-63200000I249999J0D01*
G01*
G37*
%TD*%
%TO.C,R3*%
G36*
G01*
X128250001Y-62400000D02*
X127349999Y-62400000D01*
G75*
G02*
X127100000Y-62150001I0J249999D01*
G01*
X127100000Y-61449999D01*
G75*
G02*
X127349999Y-61200000I249999J0D01*
G01*
X128250001Y-61200000D01*
G75*
G02*
X128500000Y-61449999I0J-249999D01*
G01*
X128500000Y-62150001D01*
G75*
G02*
X128250001Y-62400000I-249999J0D01*
G01*
G37*
G36*
G01*
X128250001Y-64400000D02*
X127349999Y-64400000D01*
G75*
G02*
X127100000Y-64150001I0J249999D01*
G01*
X127100000Y-63449999D01*
G75*
G02*
X127349999Y-63200000I249999J0D01*
G01*
X128250001Y-63200000D01*
G75*
G02*
X128500000Y-63449999I0J-249999D01*
G01*
X128500000Y-64150001D01*
G75*
G02*
X128250001Y-64400000I-249999J0D01*
G01*
G37*
%TD*%
%TO.C,R7*%
G36*
G01*
X127200000Y-67637500D02*
X127200000Y-67162500D01*
G75*
G02*
X127437500Y-66925000I237500J0D01*
G01*
X127937500Y-66925000D01*
G75*
G02*
X128175000Y-67162500I0J-237500D01*
G01*
X128175000Y-67637500D01*
G75*
G02*
X127937500Y-67875000I-237500J0D01*
G01*
X127437500Y-67875000D01*
G75*
G02*
X127200000Y-67637500I0J237500D01*
G01*
G37*
G36*
G01*
X129025000Y-67637500D02*
X129025000Y-67162500D01*
G75*
G02*
X129262500Y-66925000I237500J0D01*
G01*
X129762500Y-66925000D01*
G75*
G02*
X130000000Y-67162500I0J-237500D01*
G01*
X130000000Y-67637500D01*
G75*
G02*
X129762500Y-67875000I-237500J0D01*
G01*
X129262500Y-67875000D01*
G75*
G02*
X129025000Y-67637500I0J237500D01*
G01*
G37*
%TD*%
%TO.C,R9*%
G36*
G01*
X129649999Y-63200000D02*
X130550001Y-63200000D01*
G75*
G02*
X130800000Y-63449999I0J-249999D01*
G01*
X130800000Y-64150001D01*
G75*
G02*
X130550001Y-64400000I-249999J0D01*
G01*
X129649999Y-64400000D01*
G75*
G02*
X129400000Y-64150001I0J249999D01*
G01*
X129400000Y-63449999D01*
G75*
G02*
X129649999Y-63200000I249999J0D01*
G01*
G37*
G36*
G01*
X129649999Y-61200000D02*
X130550001Y-61200000D01*
G75*
G02*
X130800000Y-61449999I0J-249999D01*
G01*
X130800000Y-62150001D01*
G75*
G02*
X130550001Y-62400000I-249999J0D01*
G01*
X129649999Y-62400000D01*
G75*
G02*
X129400000Y-62150001I0J249999D01*
G01*
X129400000Y-61449999D01*
G75*
G02*
X129649999Y-61200000I249999J0D01*
G01*
G37*
%TD*%
D11*
%TO.C,J2*%
X89510000Y-75050000D03*
D12*
X95860000Y-73150000D03*
X98400000Y-71880000D03*
X95860000Y-70610000D03*
X98400000Y-69340000D03*
X95860000Y-68070000D03*
D11*
X89510000Y-64890000D03*
D10*
X98400000Y-66800000D03*
%TD*%
%TO.C,J2*%
X48400000Y-66800000D03*
D11*
X39510000Y-64890000D03*
D12*
X45860000Y-68070000D03*
X48400000Y-69340000D03*
X45860000Y-70610000D03*
X48400000Y-71880000D03*
X45860000Y-73150000D03*
D11*
X39510000Y-75050000D03*
%TD*%
D18*
%TO.C,J1*%
X85800000Y-66425000D03*
X85800000Y-73575000D03*
D17*
X79450000Y-68700000D03*
X79450000Y-71300000D03*
%TD*%
D13*
%TO.C,Q1*%
X86300000Y-63750000D03*
X86300000Y-61850000D03*
X84300000Y-62800000D03*
%TD*%
%TO.C,R1*%
G36*
G01*
X78175000Y-73162500D02*
X78175000Y-73637500D01*
G75*
G02*
X77937500Y-73875000I-237500J0D01*
G01*
X77437500Y-73875000D01*
G75*
G02*
X77200000Y-73637500I0J237500D01*
G01*
X77200000Y-73162500D01*
G75*
G02*
X77437500Y-72925000I237500J0D01*
G01*
X77937500Y-72925000D01*
G75*
G02*
X78175000Y-73162500I0J-237500D01*
G01*
G37*
G36*
G01*
X80000000Y-73162500D02*
X80000000Y-73637500D01*
G75*
G02*
X79762500Y-73875000I-237500J0D01*
G01*
X79262500Y-73875000D01*
G75*
G02*
X79025000Y-73637500I0J237500D01*
G01*
X79025000Y-73162500D01*
G75*
G02*
X79262500Y-72925000I237500J0D01*
G01*
X79762500Y-72925000D01*
G75*
G02*
X80000000Y-73162500I0J-237500D01*
G01*
G37*
%TD*%
%TO.C,R2*%
G36*
G01*
X80000000Y-65462500D02*
X80000000Y-65937500D01*
G75*
G02*
X79762500Y-66175000I-237500J0D01*
G01*
X79262500Y-66175000D01*
G75*
G02*
X79025000Y-65937500I0J237500D01*
G01*
X79025000Y-65462500D01*
G75*
G02*
X79262500Y-65225000I237500J0D01*
G01*
X79762500Y-65225000D01*
G75*
G02*
X80000000Y-65462500I0J-237500D01*
G01*
G37*
G36*
G01*
X78175000Y-65462500D02*
X78175000Y-65937500D01*
G75*
G02*
X77937500Y-66175000I-237500J0D01*
G01*
X77437500Y-66175000D01*
G75*
G02*
X77200000Y-65937500I0J237500D01*
G01*
X77200000Y-65462500D01*
G75*
G02*
X77437500Y-65225000I237500J0D01*
G01*
X77937500Y-65225000D01*
G75*
G02*
X78175000Y-65462500I0J-237500D01*
G01*
G37*
%TD*%
%TO.C,R3*%
G36*
G01*
X78250001Y-64400000D02*
X77349999Y-64400000D01*
G75*
G02*
X77100000Y-64150001I0J249999D01*
G01*
X77100000Y-63449999D01*
G75*
G02*
X77349999Y-63200000I249999J0D01*
G01*
X78250001Y-63200000D01*
G75*
G02*
X78500000Y-63449999I0J-249999D01*
G01*
X78500000Y-64150001D01*
G75*
G02*
X78250001Y-64400000I-249999J0D01*
G01*
G37*
G36*
G01*
X78250001Y-62400000D02*
X77349999Y-62400000D01*
G75*
G02*
X77100000Y-62150001I0J249999D01*
G01*
X77100000Y-61449999D01*
G75*
G02*
X77349999Y-61200000I249999J0D01*
G01*
X78250001Y-61200000D01*
G75*
G02*
X78500000Y-61449999I0J-249999D01*
G01*
X78500000Y-62150001D01*
G75*
G02*
X78250001Y-62400000I-249999J0D01*
G01*
G37*
%TD*%
%TO.C,R7*%
G36*
G01*
X79025000Y-67637500D02*
X79025000Y-67162500D01*
G75*
G02*
X79262500Y-66925000I237500J0D01*
G01*
X79762500Y-66925000D01*
G75*
G02*
X80000000Y-67162500I0J-237500D01*
G01*
X80000000Y-67637500D01*
G75*
G02*
X79762500Y-67875000I-237500J0D01*
G01*
X79262500Y-67875000D01*
G75*
G02*
X79025000Y-67637500I0J237500D01*
G01*
G37*
G36*
G01*
X77200000Y-67637500D02*
X77200000Y-67162500D01*
G75*
G02*
X77437500Y-66925000I237500J0D01*
G01*
X77937500Y-66925000D01*
G75*
G02*
X78175000Y-67162500I0J-237500D01*
G01*
X78175000Y-67637500D01*
G75*
G02*
X77937500Y-67875000I-237500J0D01*
G01*
X77437500Y-67875000D01*
G75*
G02*
X77200000Y-67637500I0J237500D01*
G01*
G37*
%TD*%
%TO.C,R8*%
G36*
G01*
X81849999Y-63200000D02*
X82750001Y-63200000D01*
G75*
G02*
X83000000Y-63449999I0J-249999D01*
G01*
X83000000Y-64150001D01*
G75*
G02*
X82750001Y-64400000I-249999J0D01*
G01*
X81849999Y-64400000D01*
G75*
G02*
X81600000Y-64150001I0J249999D01*
G01*
X81600000Y-63449999D01*
G75*
G02*
X81849999Y-63200000I249999J0D01*
G01*
G37*
G36*
G01*
X81849999Y-61200000D02*
X82750001Y-61200000D01*
G75*
G02*
X83000000Y-61449999I0J-249999D01*
G01*
X83000000Y-62150001D01*
G75*
G02*
X82750001Y-62400000I-249999J0D01*
G01*
X81849999Y-62400000D01*
G75*
G02*
X81600000Y-62150001I0J249999D01*
G01*
X81600000Y-61449999D01*
G75*
G02*
X81849999Y-61200000I249999J0D01*
G01*
G37*
%TD*%
%TO.C,R9*%
G36*
G01*
X79649999Y-61200000D02*
X80550001Y-61200000D01*
G75*
G02*
X80800000Y-61449999I0J-249999D01*
G01*
X80800000Y-62150001D01*
G75*
G02*
X80550001Y-62400000I-249999J0D01*
G01*
X79649999Y-62400000D01*
G75*
G02*
X79400000Y-62150001I0J249999D01*
G01*
X79400000Y-61449999D01*
G75*
G02*
X79649999Y-61200000I249999J0D01*
G01*
G37*
G36*
G01*
X79649999Y-63200000D02*
X80550001Y-63200000D01*
G75*
G02*
X80800000Y-63449999I0J-249999D01*
G01*
X80800000Y-64150001D01*
G75*
G02*
X80550001Y-64400000I-249999J0D01*
G01*
X79649999Y-64400000D01*
G75*
G02*
X79400000Y-64150001I0J249999D01*
G01*
X79400000Y-63449999D01*
G75*
G02*
X79649999Y-63200000I249999J0D01*
G01*
G37*
%TD*%
D16*
%TO.C,SW1*%
X85700000Y-76700000D03*
X77900000Y-76700000D03*
%TD*%
D14*
%TO.C,U2*%
X59600000Y-77600000D03*
X61600000Y-77600000D03*
X63600000Y-77600000D03*
X65600000Y-77600000D03*
X67600000Y-77600000D03*
X69600000Y-77600000D03*
X71600000Y-77600000D03*
X73600000Y-77600000D03*
D15*
X75100000Y-75000000D03*
X75100000Y-73000000D03*
X75100000Y-71000000D03*
X75100000Y-69000000D03*
X75100000Y-67000000D03*
X75100000Y-65000000D03*
D14*
X73600000Y-62400000D03*
X71600000Y-62400000D03*
X69600000Y-62400000D03*
X67600000Y-62400000D03*
X65600000Y-62400000D03*
X63600000Y-62400000D03*
X61600000Y-62400000D03*
X59600000Y-62400000D03*
%TD*%
M02*
